<svg fill="none" height="29" viewBox="0 0 103 29" width="103" xmlns="http://www.w3.org/2000/svg" xmlns:xlink="http://www.w3.org/1999/xlink"><clipPath id="a"><path d="m0 .642761h103v27.7145h-103z"/></clipPath><g clip-path="url(#a)"><path d="m41.6041.642761h-27.7145v27.714439h27.7145z" fill="#fff"/><g fill="#db0011"><path d="m55.4612 14.5326-13.8572-13.889839v27.747039z"/><path d="m27.7469 14.5326 13.8572-13.889839h-27.7145z"/><path d="m0 14.5326 13.8898 13.8572v-27.747039z"/><path d="m27.7469 14.5326-13.8573 13.8573h27.7145z"/></g><path d="m67.6231 15.3477h-5.0212v4.956h-2.5106v-11.60744h2.5106v4.76034h5.0212v-4.76034h2.5106v11.60744h-2.5106z" fill="#000"/><path d="m76.1984 20.532c-2.5106 0-4.5647-1.0108-4.5973-3.7822h2.5106c.0326 1.239.7499 1.9889 2.1193 1.9889 1.0108 0 2.1846-.5217 2.1846-1.6629 0-.9129-.7826-1.1738-2.0868-1.565l-.8477-.2283c-1.8259-.5216-3.6518-1.239-3.6518-3.3257 0-2.57582 2.4128-3.45616 4.5973-3.45616 2.2498 0 4.2061.78253 4.2387 3.35836h-2.5106c-.0978-1.0434-.7173-1.6629-1.8911-1.6629-.9455 0-1.8585.4891-1.8585 1.5325 0 .8477.7826 1.1085 2.4128 1.6302l.9782.2935c1.9889.6195 3.2605 1.3042 3.2605 3.2605-.0326 2.6084-2.5758 3.6192-4.8582 3.6192z" fill="#000"/><path d="m82.4585 8.72889h4.043c.75-.0326 1.5325 0 2.2824.13042 1.402.32606 2.478 1.23899 2.478 2.80409 0 1.4998-.9455 2.2497-2.315 2.6084 1.5651.2934 2.7389 1.076 2.7389 2.804 0 2.6411-2.6084 3.228-4.63 3.228h-4.5647zm4.043 4.82561c1.1086 0 2.2498-.2283 2.2498-1.5651 0-1.2064-1.0434-1.5324-2.0867-1.5324h-1.7607v3.0975zm.2283 5.0212c1.1738 0 2.315-.2609 2.315-1.6955s-.9782-1.6955-2.1846-1.6955h-1.9889v3.391z" fill="#000"/><path d="m98.2069 20.532c-3.7496 0-5.4125-2.3802-5.4125-5.9342s1.8585-6.12978 5.5429-6.12978c2.3147 0 4.5647 1.04337 4.6297 3.65178h-2.608c-.131-1.1738-.9131-1.7607-2.0217-1.7607-2.2823 0-2.9671 2.4454-2.9671 4.3039s.6848 4.0105 2.8693 4.0105c1.1412 0 1.9885-.6195 2.1515-1.7933h2.609c-.261 2.6736-2.38 3.6518-4.7931 3.6518z" fill="#000"/></g></svg>