<svg fill="none" height="58" viewBox="0 0 56 58" width="56" xmlns="http://www.w3.org/2000/svg" xmlns:xlink="http://www.w3.org/1999/xlink"><clipPath id="a"><path d="m.160156 0h55.68v58h-55.68z"/></clipPath><g clip-path="url(#a)"><path d="m51.9862 20.6984-8.9343-7.5166v-6.9424l8.9343 7.5166zm0 12.76-15.66 13.2345c-2.2028-2.3844-5.2844-3.7319-8.5477-3.7319-3.187 0-6.1866 1.283-8.3777 3.5562l-15.3554-12.9182v-8.1142l10.7388-9.0749 12.057 9.6549c.6678.539 1.6169.539 2.2907 0l12.0569-9.6608 10.7974 9.0867zm-24.0026 20.2824-5.7707-4.8568c1.4822-1.447 3.4683-2.2614 5.5656-2.2614 2.1853 0 4.2475.8847 5.7414 2.4431zm-23.9382-40.1254 8.8758-7.38772v6.95412l-8.8758 7.5049zm12.5374-9.46166 9.567-.01758v16.67944l-9.567-7.6631zm13.2345-.01758h9.5671v9.01634l-9.5671 7.6631zm25.6899 8.05554c-.0176-.0468-.041-.0996-.0703-.1406-.0234-.0527-.0527-.0996-.0879-.1465-.041-.0644-.0878-.1288-.1406-.1874-.0117-.0176-.0234-.0293-.0351-.041-.0527-.0586-.1113-.1172-.1758-.1699l-.0293-.0293-12.5549-10.563058-.0176-.011718c-.082-.070303-.1699-.128889-.2636-.181616-.041-.029293-.0879-.052727-.1406-.076161-.0528-.029293-.1114-.052728-.1699-.070303-.041-.017576-.0821-.029293-.1289-.041011-.0469-.011717-.0996-.023434-.1523-.035151-.0469-.005859-.0938-.017576-.1348-.017576-.0586-.005858-.123-.011717-.1875-.011717l-13.2345.005859-13.2346.017575c-.0644 0-.123.005859-.1874.011717-.0469 0-.0879.005859-.1289.017576-.0528.005859-.1055.017576-.1582.035152-.0469.011717-.0937.023434-.1406.046868-.2051.070303-.3925.175758-.5566.310506l-12.51977 10.416558-.01758.0176c-.187475.1523-.33394.3398-.445253.5448-.029293.0469-.052727.0996-.070303.1524-.099596.2226-.146464.4686-.146464.7147v21.6885c0 .5448.240202 1.0545.65616 1.406l25.77191 21.6827c.3398.287.7558.4335 1.1776.4335s.8436-.1465 1.1834-.4335l25.8364-21.8291c.4101-.3457.6503-.8612.6503-1.4002v-21.4014c0-.2461-.0469-.4863-.1465-.7148z" fill="#e23c52"/></g></svg>