<svg fill="none" height="23" viewBox="0 0 121 23" width="121" xmlns="http://www.w3.org/2000/svg" xmlns:xlink="http://www.w3.org/1999/xlink"><clipPath id="a"><path d="m0 .447155h121v21.6423h-121z"/></clipPath><g clip-path="url(#a)"><g fill="#000"><path d="m42.2938 17.4954-3.3103-6.9387c-.7903-1.63954-1.6018-3.50209-1.8789-4.37762l-.064.06395c.1066 1.23787.1279 2.7971.1492 4.09887l.0853 7.1535h-2.4118v-14.7758h2.7758l3.5873 7.21409c.6013 1.22651 1.1083 2.49701 1.5166 3.80051l.064-.0639c-.064-.7477-.2132-2.8611-.2132-4.20717l-.0426-6.74681h2.3282v14.77578z"/><path d="m49.2752 12.7341v.1639c0 1.4953.5558 3.0742 2.6692 3.0742 1.0034 0 1.8789-.3623 2.6905-1.0673l.9182 1.4313c-1.0768.936-2.4591 1.4452-3.8858 1.4313-3.0529 0-4.9744-2.1986-4.9744-5.6581 0-1.9003.4049-3.16109 1.3461-4.22845.8755-1.00341 1.9428-1.45265 3.3102-1.45265 1.0967-.03457 2.1629.36421 2.9677 1.10998.9394.85422 1.41 2.17735 1.41 4.69732v.4919zm2.0708-4.52687c-1.3232 0-2.0495 1.04604-2.0495 2.79707h3.9923c0-1.74775-.7673-2.79707-1.9428-2.79707z"/><path d="m68.2216 17.538h-2.2068l-1.3232-4.9744c-.341-1.2805-.705-2.95126-.705-2.95126h-.0426s-.164 1.06736-.705 3.05286l-1.3018 4.8679h-2.2003l-2.9513-10.69819 2.3282-.32791 1.174 5.2319c.2984 1.3444.5558 2.8397.5558 2.8397h.0639c.1575-.9778.3643-1.9469.6198-2.9037l1.3887-4.99575h2.3069l1.2182 4.87275c.4492 1.7511.6836 3.0742.6836 3.0742h.064s.2558-1.6395.5345-2.9036l1.11-5.04007h2.4347z"/><path d="m84.954 17.4954-1.2805-2.2856c-1.0231-1.8133-1.7084-2.8381-2.52-3.6579-.1185-.1393-.266-.251-.4323-.3271-.1663-.0762-.3472-.1151-.5301-.1139v6.3845h-2.4118v-14.7758h4.5055c3.3103 0 4.804 1.92157 4.804 4.22844 0 2.1134-1.3658 4.05796-3.6727 4.05796.5345.2771 1.5166 1.7084 2.2839 2.9512l2.1774 3.5447zm-3.4168-12.78865h-1.3461v4.67605h1.2592c1.2805 0 1.9675-.16396 2.4134-.61976.405-.40497.6559-1.02473.6559-1.79369.0082-1.49528-.8034-2.26424-2.9824-2.26424z"/><path d="m91.1023 12.7341v.1639c0 1.4953.5559 3.0742 2.6693 3.0742 1.0034 0 1.8789-.3623 2.6905-1.0673l.9181 1.4313c-1.0767.936-2.4591 1.4452-3.8857 1.4313-3.0529 0-4.9745-2.1986-4.9745-5.6581 0-1.9003.405-3.16109 1.3461-4.22845.8755-1.00341 1.9429-1.45265 3.3103-1.45265 1.0967-.03457 2.1628.36421 2.9676 1.10998.9395.85422 1.41 2.17735 1.41 4.69732v.4919zm2.0725-4.52687c-1.3232 0-2.0495 1.04604-2.0495 2.79707h3.9858c0-1.74775-.7624-2.79707-1.9363-2.79707z"/><path d="m101.949 17.7315c-2.3705 0-2.3705-2.1315-2.3705-3.0529v-9.20453c.0273-1.05718-.0413-2.11465-.205-3.15944l2.4135-.5345c.164.65582.192 1.55922.192 2.96761v9.16026c0 1.4527.064 1.6871.234 1.9429.094.1067.219.1804.357.21.139.0295.284.0134.412-.0461l.384 1.4527c-.45.1805-.932.2702-1.417.264z"/><path d="m106.027 5.09041c-.202-.00191-.402-.04386-.588-.12343-.186-.07956-.354-.19517-.495-.34013-.141-.14497-.252-.31643-.326-.50449-.075-.18805-.111-.38898-.107-.59118.002-.30693.095-.60623.268-.85987.173-.25363.417-.45014.702-.56455s.598-.14155.898-.07797.575.215.789.43503.357.49871.413.80064c.055.30193.019.61346-.103.895s-.326.52037-.584.68614-.56.25098-.867.24481zm-1.174 12.40659v-10.63422l2.371-.42792v11.06054z"/><path d="m113.949 17.7741c-2.951 0-4.591-2.0708-4.591-5.5516 0-3.93494 2.35-5.80732 4.755-5.80732 1.174 0 2.028.27709 2.989 1.17393l-1.169 1.55759c-.641-.57713-1.195-.8329-1.815-.8329-.36-.0061-.714.09386-1.018.28743-.304.19358-.544.47222-.69.80124-.328.65583-.448 1.66583-.448 3.01023 0 1.4756.234 2.4135.726 2.9512.181.1988.403.3568.649.4637.247.1068.514.16.783.1561.747 0 1.475-.3624 2.177-1.0674l1.11 1.4314c-.982.9772-2.007 1.4264-3.458 1.4264z"/><path d="m119.411 17.7331c-.314.0016-.621-.09-.883-.2632s-.466-.4203-.588-.7098c-.121-.2896-.153-.6086-.093-.9167s.21-.5914.432-.8139c.221-.2226.504-.3744.812-.4362.307-.0619.626-.031.917.0888.29.1198.538.323.713.5839.174.2609.267.5677.267.8816.001.2078-.039.4137-.118.6059s-.195.367-.341.5143c-.147.1472-.321.2642-.513.344-.192.0799-.397.1211-.605.1213zm0-2.8561c-.255-.0112-.507.0542-.724.1877-.217.1334-.389.3288-.494.561s-.138.4905-.095.7416.161.4836.337.6674c.177.1839.404.3106.653.364.249.0533.509.0308.745-.0646.236-.0955.439-.2595.581-.471.142-.2114.218-.4606.217-.7155.004-.1639-.024-.3271-.083-.4801s-.147-.2927-.261-.4111c-.113-.1184-.249-.213-.4-.2784-.15-.0654-.312-.1003-.476-.1027zm.312 2.1495c-.069-.1197-.099-.164-.164-.2952-.176-.3197-.23-.4099-.294-.4345-.017-.0087-.036-.0132-.056-.0131v.7428h-.349v-1.779h.656c.07-.0048.14.0054.205.0297.066.0244.125.0624.175.1116.049.0492.088.1084.113.1736.025.0653.036.1351.032.2049.01.1173-.026.2341-.1.3258s-.18.1512-.297.166c.027.0225.051.0484.072.0771.102.1279.426.6903.426.6903zm-.182-1.4675c-.066-.0181-.133-.027-.2-.0262h-.128v.482h.119c.154 0 .222-.018.269-.0606.046-.0481.071-.1124.069-.1787.005-.0453-.005-.0908-.029-.1299-.023-.039-.058-.0694-.1-.0866z"/></g><path d="m26.531 8.40758c-1.2542-5.76307-8.165-9.152055-15.4381-7.571513-7.27314 1.580543-12.15085 7.535443-10.898219 13.296833 1.252629 5.7615 8.165039 9.1537 15.436519 7.5716 7.2715-1.5822 12.1525-7.5289 10.8998-13.29692zm-13.1673 8.17492c-1.0507 0-2.0777-.3116-2.9513-.8953s-1.55448-1.4134-1.95655-2.384c-.40207-.9707-.50727-2.0388-.30229-3.0693.20497-1.03046.71091-1.977 1.45383-2.71992.74291-.74293 1.68951-1.24886 2.71991-1.45384 1.0305-.20497 2.0986-.09977 3.0693.3023.9706.40207 1.8003 1.08294 2.384 1.95653s.8953 1.90063.8953 2.95133c0 .6976-.1374 1.3884-.4044 2.0329s-.6582 1.2301-1.1515 1.7234c-.4933.4932-1.0789.8845-1.7234 1.1515s-1.3353.4044-2.0329.4044z" fill="#008c99"/><path d="m14.5382 3.83286c-1.5084.00033-2.9829.44793-4.237 1.28623-1.25409.83829-2.23144 2.02962-2.80848 3.42334-.57704 1.39373-.72785 2.92727-.43336 4.40667.29448 1.4795 1.02104 2.8384 2.08779 3.9049s2.42585 1.7928 3.90535 2.087c1.4795.2941 3.013.143 4.4066-.4344 1.3936-.5773 2.5847-1.5549 3.4227-2.8092.838-1.2542 1.2853-2.7288 1.2853-4.2373 0-1.0017-.1973-1.99369-.5807-2.91918s-.9454-1.76639-1.6538-2.47466c-.7085-.70828-1.5495-1.27007-2.475-1.65328-.9256-.38321-1.9176-.58033-2.9194-.58012zm-1.1755 12.07704c-.9177 0-1.8148-.2721-2.5779-.782-.763-.5098-1.35773-1.2345-1.70892-2.0823-.35119-.8479-.44308-1.7808-.26404-2.6809.17903-.90004.62095-1.72681 1.26986-2.37572.6489-.64891 1.4757-1.09083 2.3757-1.26986.9001-.17904 1.8331-.08715 2.6809.26404s1.5725.94591 2.0824 1.70895c.5098.76303.7819 1.66009.7819 2.57779 0 1.2303-.4886 2.4103-1.3584 3.2804s-2.0496 1.3592-3.2799 1.3596z" fill="#70ccd3"/></g></svg>