<svg fill="none" height="21" viewBox="0 0 106 21" width="106" xmlns="http://www.w3.org/2000/svg"><g fill="#000"><path d="m7.01414 20.6011-7.01414-19.623511h4.29683l4.96612 14.523511 4.80545-14.523511h4.2032l-7.0276 19.623511z"/><path d="m24.2627 20.6011v-19.623511h3.9621v19.623511z"/><path d="m35.0994 14.2161 3.8551-.3748c.232 1.294.7005 2.2444 1.4055 2.8512.7139.6068 1.6732.9102 2.878.9102 1.2761 0 2.2354-.2677 2.8779-.8031.6514-.5444.9772-1.178.9772-1.9008 0-.4641-.1384-.8567-.415-1.178-.2677-.3301-.7407-.6157-1.4189-.8567-.464-.1606-1.5215-.4461-3.1724-.8566-2.1239-.5265-3.6142-1.1735-4.4709-1.941-1.2047-1.07976-1.807-2.39603-1.807-3.94878 0-.99947.2811-1.93201.8433-2.79762.5711-.87454 1.3876-1.53937 2.4496-1.99448 1.0708-.455118 2.3603-.682676 3.8684-.682676 2.463 0 4.3147.539896 5.5551 1.619676 1.2494 1.07979 1.9053 2.52099 1.9677 4.3236l-3.9621.17402c-.1696-1.0084-.5355-1.73123-1.0977-2.1685-.5533-.44619-1.3876-.66928-2.5031-.66928-1.1512 0-2.0525.23648-2.7039.70944-.4195.30341-.6292.70945-.6292 1.21811 0 .46404.1963.86115.589 1.19133.4997.41942 1.7134.85669 3.6409 1.31181 1.9276.45511 3.3509.92808 4.2701 1.41889.9281.48186 1.6509 1.14666 2.1685 1.99446.5265.8389.7897 1.8785.7897 3.1189 0 1.1244-.3123 2.1774-.937 3.159-.6246.9817-1.5081 1.7134-2.6503 2.1953-1.1423.473-2.5656.7094-4.2701.7094-2.4808 0-4.3861-.5711-5.7157-1.7133-1.3297-1.1512-2.1239-2.8244-2.3827-5.0197z"/><path d="m58.3581 20.6011v-19.623511h3.9622v19.623511z"/><path d="m74.6161 20.6011v-16.30384h-5.8228v-3.319671h15.5944v3.319671h-5.8094v16.30384z"/><path d="m90.0442 14.2161 3.8551-.3748c.232 1.294.7005 2.2444 1.4055 2.8512.7139.6068 1.6732.9102 2.8779.9102 1.2761 0 2.2353-.2677 2.8783-.8031.651-.5444.977-1.178.977-1.9008 0-.4641-.138-.8567-.415-1.178-.268-.3301-.741-.6157-1.419-.8567-.4641-.1606-1.5215-.4461-3.1725-.8566-2.1238-.5265-3.6141-1.1735-4.4708-1.941-1.2047-1.07976-1.8071-2.39603-1.8071-3.94878 0-.99947.2811-1.93201.8433-2.79762.5712-.87454 1.3877-1.53937 2.4496-1.99448 1.0709-.455118 2.3604-.682676 3.8685-.682676 2.463 0 4.315.539896 5.555 1.619676 1.249 1.07979 1.905 2.52099 1.968 4.3236l-3.962.17402c-.17-1.0084-.536-1.73123-1.098-2.1685-.5533-.44619-1.3877-.66928-2.5032-.66928-1.1511 0-2.0524.23648-2.7039.70944-.4194.30341-.6291.70945-.6291 1.21811 0 .46404.1963.86115.589 1.19133.4997.41942 1.7133.85669 3.6409 1.31181 1.9273.45511 3.3513.92808 4.2703 1.41889.928.48186 1.651 1.14666 2.168 1.99446.527.8389.79 1.8785.79 3.1189 0 1.1244-.312 2.1774-.937 3.159-.625.9817-1.508 1.7134-2.65 2.1953-1.143.473-2.566.7094-4.2704.7094-2.4809 0-4.3861-.5711-5.7158-1.7133-1.3296-1.1512-2.1238-2.8244-2.3826-5.0197z"/></g></svg>