<svg xmlns="http://www.w3.org/2000/svg" role="img" viewBox="-3.34 -4.84 823.68 635.18"><title>KubeCon_NA_Virtual_2020_whitelogo.svg</title><defs><clipPath id="clip-path"><path d="M12.533 328.811h165.073v1.305H12.533z" class="cls-1"/></clipPath><clipPath id="clip-path-2"><path d="M317.886 12.04h1.305v265.553h-1.305z" class="cls-1"/></clipPath><clipPath id="clip-path-3"><path d="M639.682 328.811h165.073v1.305H639.682z" class="cls-1"/></clipPath><style>.cls-1,.cls-3{fill:#fff}.cls-3{fill-rule:evenodd}</style></defs><path d="M372.195 598.27455c-5.71647 1.71557-11.7993.03758-17.60518 2.39622-3.60171 1.46315-7.97286.98669-11.98335 1.49989-7.68619.98354-15.33362 2.00934-22.731 4.64314-2.902 1.03328-6.41556.23314-9.092 2.45742l-2.373.16377c-4.63923.95642-9.29852 1.8264-13.91051 2.89973a24.94611 24.94611 0 0 1-9.15467.46439c-5.31926-.75445-10.30836-3.59172-11.067-9.76489.36578-1.833.42539-3.80251 1.16778-5.46768 1.168-2.61969 3.0077-4.65183 6.40447-3.75242a46.14387 46.14387 0 0 0 29.66316-1.81244c2.28314-.90859 4.98895-.75708 7.50082-1.08918 10.52152-1.39114 20.93776-3.45667 31.416-5.031 3.76856-.56623 7.39205-2.65434 11.38613-1.7374a1.658 1.658 0 0 0 2.179-.015l.30533.02381 1.99712-.72625c5.02048-.38306 10.0119-1.47495 15.08317-.61778-.2108.33432-.39805.94317-.63574.96352-11.04085.9444-22.05786 2.63567-32.93052 4.314-9.12192 1.40806-18.95848 1.35686-27.02607 6.06619 5.093 1.21114 10.18692-2.17731 15.73447-1.56311 3.763.41662 7.426-.57327 10.98346-1.8646a8.59439 8.59439 0 0 1 3.13125-.61721c5.32852.18924 10.59674.3022 15.91856-.73056 3.86078-.74919 8.1304.21911 11.828-.88407 4.67894-1.39594 9.582-.389 14.04175-2.00367 4.51677-1.63534 9.178-1.32728 13.76834-1.77094 6.1654-.59587 12.639.286 18.51019-1.25608 9.66272-2.53783 19.37554.12134 29.05264-1.74626 6.21008-1.19851 12.91624.20539 19.40155.39149 8.96378.25731 17.94224.24012 26.88942.76537a121.49567 121.49567 0 0 1 22.61319 3.963c-.07335-1.05542-.14724-1.7835-.98442-2.10838-5.12191-1.98763-10.6463-2.24472-15.92354-3.8031-7.03548-2.07765-14.56408-1.90324-21.96189-2.08932-7.15031-.17985-14.274-1.24517-21.42522-1.61535-5.79889-.30018-11.53722 1.06511-17.42094.81743-2.32683-.098-5.09723.9381-7.77871 1.0137-4.2504.11986-8.60061-.63814-12.65573-.29693-5.7447.48336-11.35146 2.45065-17.314 2.48831-7.26682.04583-14.42817 1.96966-21.7407 1.75146-1.30867-.03906-2.70532 1.85516-3.93236-.141.611-1.45069 1.72577-1.54275 3.207-1.72935 7.183-.90485 14.41807-1.77768 21.58424-2.31049 7.31988-.54419 14.67862-1.07966 22.01411-1.61766a349.05373 349.05373 0 0 1 36.9722-1.09754c8.612.27969 17.29886.16348 25.91544.63329 10.99129.5993 21.665 3.38769 32.38242 5.82307 4.62441 1.05084 9.07132 2.83782 11.45771 6.49773 3.88226 5.95426 9.36271 11.56379 7.61949 19.94218-.53992 2.59474-2.899 3.57653-3.69131 5.78219a2.70643 2.70643 0 0 1-2.21457-.02106c-1.28192-.9259-.81353-2.26052-.38755-3.56261 1.6037-4.9018.76983-8.58782-3.04321-10.4751-2.48808-1.23148-4.88851-3.13541-7.46521-3.61017-5.23206-.964-10.18333-3.12667-15.65121-3.17787-6.82868-.06388-13.25571-3.0416-20.11089-3.27061-13.65735-.45627-27.37534-1.65829-40.953.09179-11.32663 1.46-22.79079-.11821-33.95337 1.908-10.11717 1.83645-20.41637 1.80774-30.52989 3.92784-3.94512.82684-8.34859.7746-12.48165 1.68815zm71.67559-12.22183c-2.80542-.55047-5.62095-1.28869-8.45829.37345 3.025 1.83061 5.74702.82934 8.45825-.37345zm-46.30683 3.667c-3.739-2.21006-5.66962-.02519-8.96885 1.39848zm94.66688-2.98838c-1.65764-1.03668-3.26918-2.51606-5.45946-.9807 2.04245-.53896 3.43226 1.45778 5.45942.98073z" class="cls-1"/><g id="_45W0Vf" data-name="45W0Vf"><path d="M127.53178 533.65709c2.44628-2.10487 3.03365-5.08724 3.774-7.997a29.29752 29.29752 0 0 1 .8911-3.39115c.34964-.90177.40932-2.63963 1.70873-2.22118 1.334.42957.20157 1.84671.13841 2.83124-.03468.54075-.68994 1.01132-.09685 1.74486 1.59531-1.9792.93578-4.85287 2.78288-6.65153.46874-.45643.70216-1.37 1.50942-1.09235 1.02718.35327.70788 1.31839.44276 2.004a23.881 23.881 0 0 0-1.96841 8.42449 186.17775 186.17775 0 0 0 6.43247-21.78194c-.8014.41856-1.05325 1.87857-2.185 1.18164-.80366-.4949-.62855-1.36285-.42016-2.12592.61576-2.25474 1.22091-4.514 1.91892-6.74378.2557-.81684.73733-1.89255 1.81974-1.31928.861.456.36772 1.36113-.06207 2.05042-.46744.74965-.98653 1.50106-.16228 2.55533 8.48881-21.81943 18.607-42.81894 27.43628-64.41533-3.55177 4.12656-7.07882 8.26631-9.55105 13.17845a3.36669 3.36669 0 0 0-.40995 2.80755c.29346.78234.3416 1.6709-.48752 2.078-1.657.81361-2.32619 1.9299-1.71244 3.75358.094.27932-.179.98108-.352 1.00614-2.29876.333-2.85306 2.70261-4.46074 4.00534-.69118-1.42926.06483-2.43748.41145-3.4905 6.21168-18.87068 15.79623-36.31677 23.12993-54.71531 1.77188-4.44524 7.54537-9.28807 14.02464-6.82162 6.31429 2.40365 9.31892 7.37513 4.55022 14.78756a193.31828 193.31828 0 0 0-10.45786 17.24754q-10.60653 21.01812-20.48128 42.39393a176.95274 176.95274 0 0 0-7.60836 17.96547c-2.13981 6.382-4.75083 12.645-6.52975 19.22084-2.26086 8.35738-4.164 16.829-6.701 25.12086-.45761 1.49567-1.70488 3.72869-.26986 4.61023 1.52213.935 2.68666-1.36346 3.89858-2.37537 12.95948-10.82059 25.77717-21.78643 37.55947-33.92629a426.76759 426.76759 0 0 0 40.54781-48.03935c8.171-11.36916 16.89428-22.455 22.32654-35.57079.44765-1.08082 1.02059-2.11184 1.43446-3.20421 2.4022-6.34047 2.12882-12.40269-1.94938-18.0526-1.01353-1.40416-2.56215-2.85978-1.184-4.66824 1.2059-1.58246 2.90029-2.66747 5.10793-1.59809a1.20441 1.20441 0 0 0 .84673.15152c3.05226-1.36128 5.68147-.61575 8.08294 1.50791a17.48353 17.48353 0 0 1 6.17684 10.33907 19.407 19.407 0 0 1-.19973 6.97853c-1.957 9.88656-7.07295 18.39816-12.23316 26.74175a328.177 328.177 0 0 1-23.57733 32.64188c-6.19887 7.71938-12.18064 15.64954-18.63176 23.15317-15.6655 18.22136-32.6308 35.124-51.83484 49.70414a29.83251 29.83251 0 0 1-18.63791 6.46076 11.38016 11.38016 0 0 1-6.87388-2.55165 17.66617 17.66617 0 0 1-6.12122-10.3157c-.24721-1.0775-1.17652-1.99852-1.79255-2.99141zm126.019-103.38868c-16.6202 23.7993-33.9777 47.02687-53.23053 68.78468a365.43377 365.43377 0 0 0 53.23052-68.78468zM504.073 517.18108c4.82432-.57579 8.89158-2.41864 11.4046-5.88066 4.53619-6.24922 10.28821-11.6888 13.19846-19.09326a13.38092 13.38092 0 0 1 2.80822-4.06693c4.31965-4.58013 8.63412-9.17534 13.16059-13.5474a76.433 76.433 0 0 1 15.78671-11.54221c4.35-2.44208 12.52061-1.10312 15.05092 4.87.30918.72995.53237 1.50433 1.42327 1.70914 3.07057.706 4.70216 3.52185 7.3388 4.98895 3.3196 1.84712 4.32436 8.18412 2.71343 11.66906-3.39594 7.34627-6.70975 14.73042-10.07382 22.09145-2.512 5.49657-5.0549 10.97914-7.04041 16.69732-.3461.99672-1.0786 2.04793-.305 3.04256.861 1.10713 2.14783.71786 3.26171.42046a42.78243 42.78243 0 0 0 10.32871-4.76938c2.868-1.66632 5.64355-3.50536 8.586-5.02408 1.45254-.74973 3.1239-2.356 4.852-.25609.29352.35669.70755.21657 1.06841.03764 1.41551-.70192 2.48928-2.07021 4.29231.08349.7785.9299 2.7208-.68157 2.70443-2.66226-.029-3.50531-.62564-7.09083.37919-10.4928 3.61749-12.24721 7.13866-24.556 13.35415-35.82309 2.12625-3.85428 3.55619-8.073 5.91692-11.75069 4.71478-7.34494 9.36344-14.72352 14.93188-21.52673 2.82351-3.4496 5.76389-6.88661 8.31865-10.60514 1.385-2.01585 4.16361-2.86611 5.32773-5.28928-.40745-.54209-1.58523.46-1.573-.63381a2.50917 2.50917 0 0 1 2.02254-2.2577 8.91255 8.91255 0 0 0 6.159-5.42335c.99458-3.11782 3.11157-5.0618 4.95759-7.3752a34.98785 34.98785 0 0 1 5.07081-4.84454c4.52711-3.79206 9.92325-4.59833 14.35505-2.13135 3.86351 2.15063 6.62187 8.76507 5.73766 13.87353a37.08722 37.08722 0 0 1-3.83961 10.37878c-10.59843 20.94482-25.17345 38.93932-41.19969 55.87391-3.016 3.187-5.77608 6.6324-9.24818 9.35776-2.32853 1.82776-4.73229 3.49493-7.99611 2.28743-1.45357-.53776-1.84155.73653-2.23339 1.70838a81.08876 81.08876 0 0 0-3.18 9.7235c-1.85474 7.05259-3.81562 14.04777-4.0614 21.43926-.14213 4.27464 2.17475 7.33468 6.49386 7.6127 6.25305.4025 11.93328-1.49676 17.44157-4.13465 8.43437-4.03914 15.75126-9.70936 22.89753-15.64822 1.17213-.97408 2.64761-3.38525 4.26064-1.425 1.47488 1.79238-.521 3.28164-1.97946 4.49671-3.98074 3.31659-8.28824 6.18115-12.51565 9.15784-1.26719.89228-2.59775 1.74954-2.96107 3.85708a13.25752 13.25752 0 0 0 6.32524-2.34855c4.73526-3.32342 9.79488-6.483 12.82872-11.73871.28484-.49345.62686-1.22835 1.28688-.87166.93815.507.39792 1.37319.14378 2.06554-3.46445 9.43662-10.03947 16.0527-18.83992 20.59589a54.3793 54.3793 0 0 0-7.27911 4.89088c-6.38918 4.72981-13.62991 5.4978-21.18632 4.67053a9.63934 9.63934 0 0 1-7.98428-5.23662c-2.5613-4.96126-6.7659-8.79995-9.37673-13.72493-1.0568-1.99349-1.82912-1.6427-3.35942-.17072-7.53818 7.25091-15.3764 13.94188-25.57773 17.57009-6.38164 2.2697-11.35174.37437-15.44906-3.67871a28.57639 28.57639 0 0 1-6.99377-11.29221c-1.29421-3.95067-.9187-7.86453.706-12.04357-1.65232.29152-2.17168 1.40531-2.844 2.19658a235.10029 235.10029 0 0 1-20.98954 21.97067c-9.9725 9.05982-18.72309 3.175-22.64965-6.8084-1.96871-5.00544-1.55771-5.16709-.25517-8.46034-.39681-.35459-.7736-.099-1.00777.15581-4.55449 4.95632-10.57706 7.96331-15.86072 11.949a40.29008 40.29008 0 0 1-9.56626 5.01276c-8.03907 3.19353-13.78 1.2225-19.32072-5.41266-4.75959-5.69977-5.65221-12.11867-5.52026-19.03327.01587-.83158.4932-1.92527-.51371-2.37692-.99447-.446-1.52512.61413-2.13447 1.17787-9.45907 8.75114-19.32772 17.02623-29.34168 25.12612-4.98935 4.03572-10.15827 4.406-13.824.98414-2.29137-2.13892-3.61944-5.07524-5.14749-7.767-1.07075-1.88619-1.46276-1.67994-3.04538-.458-5.51429 4.2575-10.787 9.0172-18.09121 10.1775-9.4832 1.50645-17.97961-2.55-22.587-10.97529-2.3288-4.25846-5.55126-8.083-6.52535-13.01075-1.37542-6.95808.30539-13.65532 2.46667-20.09988 3.91628-11.67774 9.5516-22.62395 15.43926-33.42391 3.82884-7.02345 7.56414-14.10153 12.30948-20.58129.59348-.81038 1.60049-1.75989.92315-2.86723-.65477-1.07047-1.96358-.70372-2.98069-.62-3.68909.30355-7.36414.78129-11.05417 1.06863a25.78941 25.78941 0 0 1-7.56708-.46463 10.42764 10.42764 0 0 1-8.15395-10.11982c.03279-1.12169.59359-2.21173 1.79016-1.27034 5.53872 4.35756 11.95158 2.51982 18.03483 2.57918 4.18125.04081 8.37458-.45978 12.562-.0044 2.48559.27032 4.13467-.74807 5.7234-2.68446 4.59-5.59452 6.88715-12.41164 10.305-18.6238 2.12435-3.86123 4.25992-7.70657 7.25323-10.94976 2.90557-3.14814 3.80171-7.42942 6.45242-10.73049 2.88045-3.58715 5.67335-3.36148 9.82974-1.39316 3.35849 1.59044 3.81038 4.39827 5.1582 6.82272 1.76557 3.1759.98274 6.1258-1.43471 9.105-4.60209 5.6714-8.70468 11.74571-13.09371 17.59341-2.14668 2.86012-3.72823 6.21014-6.985 8.15079-1.12716.67165-.798 1.46838.256 1.9168a4.81192 4.81192 0 0 0 1.97833.40492c6.93035-.23573 13.83312.43994 20.75116.57678a10.24262 10.24262 0 0 0 2.32874-.148c3.62907-.77744 5.768.47542 6.80164 4.08142.16047.56.20958 1.151.33109 1.72315.95208 4.48346.33955 4.80063-4.08074 4.31018a141.48146 141.48146 0 0 0-17.96719-1.32326c-5.42616.09013-10.86354-.10513-16.28536-.38213a3.37037 3.37037 0 0 0-3.39364 1.63881 119.46608 119.46608 0 0 1-9.38345 12.26788c-1.57382 1.77347-3.5654 3.91583-2.96731 6.87541.1213.60024-.08879.945-.72748.94382-.50644-.00094-1.25149.07669-1.21807.54737.30776 4.33529-4.8998 5.44383-5.40785 9.325-.082.62653-.58447 1.17584-.11656 1.84969a1.53865 1.53865 0 0 1-.31961 2.11555c-3.65082 3.59414-4.94764 8.64568-7.88178 12.68379a2.02127 2.02127 0 0 0-.50994 2.147 7.55977 7.55977 0 0 1-1.97554 9.15776 3.105 3.105 0 0 0-1.18662 3.19469c.44272 4.43312-1.36227 8.61841-1.83159 12.97743a74.62438 74.62438 0 0 0-.44922 8.46028q.042 6.8746 6.95968 5.85471a26.32288 26.32288 0 0 0 7.23879-2.26987 138.79335 138.79335 0 0 0 23.83783-14.21634c3.65469-2.68852 5.75025-6.40377 7.55133-10.22639a29.19763 29.19763 0 0 1 3.76733-6.12014 22.78163 22.78163 0 0 0 3.41693-5.76618c3.15818-7.87367 7.76574-14.86661 12.7655-21.63242 3.29484-4.45867 7.71952-5.15073 12.26136-2.0315 3.58561 2.46251 4.34177 8.09059 1.47505 12.63439a74.33 74.33 0 0 1-11.323 14.50845c-6.94753 6.59793-11.03866 15.04918-15.73352 23.12405-1.37107 2.35814-2.53008 4.83953-3.78717 7.264-.26134.504-.8227 1.04928-.4219 1.58063.49586.65735 1.26871.34748 1.8784.05425a20.09578 20.09578 0 0 0 2.282-1.3057 71.07751 71.07751 0 0 0 12.89581-10.53819c8.42616-8.92966 17.15516-17.5629 25.42528-26.65235a292.68436 292.68436 0 0 1 22.7976-22.93547c1.95395-1.72075 4.00926-3.2087 6.83971-2.12337.72989.27987 1.90852.72573 1.73455 1.35442-.78855 2.84931 1.22641 2.658 2.92926 3.29786 2.15319.80911 2.67613 2.977 2.82619 5.07079a15.97189 15.97189 0 0 1-3.46349 11.45975 254.754 254.754 0 0 0-18.32706 26.74984 122.98672 122.98672 0 0 0-5.60368 11.5796c-.39384.8479-.96913 1.88686-.199 2.75583.83815.94569 2.04669.58171 3.02879.25745a47.05752 47.05752 0 0 0 9.81822-4.522c6.40523-3.918 13.10773-7.35406 19.1873-11.80281.68955-.50455 1.53209-1.32331 2.33843-.68372.99429.78872-.18316 1.26214-.59977 1.82134a.76909.76909 0 0 0-.11268.50619c3.03198 1.61377-.03109 2.20882-.82376 3.8138zm66.94733-40.79251a12.06089 12.06089 0 0 0-6.53878 2.51271c-8.00512 5.19353-14.56742 11.94125-21.11213 18.81623a156.2101 156.2101 0 0 0-20.06877 26.18312 34.64793 34.64793 0 0 0-2.51569 5.26662c-.36143.90334-1.36015 2.12019-.16118 2.89827 1.15547.74987 2.29761-.2134 3.07-1.05965 5.02724-5.50759 11.44344-9.57854 15.92049-15.69093 1.58612-2.16557 3.98617-3.618 6.40758-5.08893 2.12042-1.288 2.09326-5.7728 4.47433-6.86623 2.94874-1.35408 3.26389-4.32763 5.2886-5.887 2.78184-2.1424 3.7876-6.36473 7.97484-6.81584.10125-.01091.27533-.34323.23959-.47956-.56363-2.1501.39034-2.57924 2.30484-2.19944.43112.08552.85259-.63324.69308-1.10065-.5765-1.68934.62118-2.50823 1.5688-3.45427a15.60308 15.60308 0 0 0 3.06553-4.92227c.70908-1.5942.42581-2.19363-.61115-2.11218zm59.32733 2.77919a7.47944 7.47944 0 0 0 2.91251-2.43033c3.853-4.27179 7.64618-8.59757 11.49919-12.86937 13.44678-14.90834 25.31534-30.92664 34.38883-48.90483.562-1.11352 2.01588-2.61191.69766-3.55332-.96592-.68984-2.068 1.0508-2.98552 1.85925-8.02852 7.07346-13.89717 16.01-20.64856 24.1765a147.75048 147.75048 0 0 0-9.91006 14.19649c-5.07206 7.85465-9.76043 15.94471-14.78842 23.82152a5.30739 5.30739 0 0 0-1.16565 3.70409zM440.92316 521.93c13.12356-8.80021 24.72254-19.16175 33.96522-32.02294-1.16638-.01159-1.74034.79509-2.4098 1.42822-4.51672 4.27163-8.82364 8.79169-13.58031 12.77538-4.43551 3.71474-7.60884 9.18068-13.86807 10.509a.57926.57926 0 0 0-.3576.42351c.12551 3.03731-2.34512 4.65719-3.74944 6.88683zm-78.49734-16.47663c7.09368-22.69582 18.95384-42.999 31.58031-62.91749a203.9682 203.9682 0 0 0-31.58031 62.91745zm265.74007-42.93575c9.80189-16.751 21.75189-31.93887 34.37661-46.80052-2.07546-.10776-3.80819.02638-4.37312 1.77761-.90355 2.801-2.85532 4.85993-4.62146 7.01932-5.2515 6.421-10.09891 13.13346-14.6802 20.0352a152.71059 152.71059 0 0 0-10.70183 17.96835z" class="cls-1"/><path d="M332.68533 469.3935c3.07215-2.15586 6.15146-4.30163 9.21448-6.47039 3.19141-2.25967 6.393-4.53287 10.1956-5.6407 2.84835-.82982 5.75409-1.42883 8.07064 1.35055a3.408 3.408 0 0 0 1.27774.65555c3.43663 1.49066 4.56231 3.5172 3.4595 7.20787-2.16885 7.25827-5.72906 13.67533-12.09971 18.15084a56.59662 56.59662 0 0 1-6.42808 4.04619c-.95966.49677-2.54311 2.34912-3.41628-.37184-.06335-.19739-1.06162-.09154-1.6248-.13255-.71047-.05172-1.57647.91413-2.09011-.078-.37614-.7265.23035-1.48931.61765-2.1628 2.3771-4.13356 5.78414-7.63366 7.49425-12.17681.26277-.6981.94877-1.26051.67923-2.27411a101.3375 101.3375 0 0 0-15.93558 11.79109c-7.24573 6.54316-14.28166 13.29905-20.10924 21.19854a15.67043 15.67043 0 0 1-5.474 5.18075 3.48059 3.48059 0 0 0-1.22786 1.2053c-4.53171 6.82376-9.08021 13.637-13.53195 20.51287a22.97241 22.97241 0 0 0-3.74854 8.82386 9.08922 9.08922 0 0 1-2.18222 4.09909c-1.21977 1.50889-2.392 1.66144-3.21905-.40662-.16881-.42211.0446-1.23537-.54327-1.213-3.62547.1379-4.19545-3.0521-5.66855-5.18231-.829-1.19882-1.52873-1.37716-2.54625-.40719-5.2119 4.96829-12.388 5.68344-18.64885 8.25825-6.38445 2.62563-14.98683-1.87073-17.92927-8.08158-.6695-1.41317-1.165-2.92053-3.14369-3.023-.767-.0397-1.0485-.80649-1.25329-1.46784-1.71209-5.52924-2.14524-10.92645.19964-16.53216 6.41648-15.33939 14.565-29.74464 23.07746-43.97034a52.49222 52.49222 0 0 0 3.815-7.2406 5.79516 5.79516 0 0 1 7.59373-3.30606c6.243 2.18808 9.62136 11.616 5.95639 17.18622-6.85818 10.42353-14.20136 20.56173-20.16444 31.53561-3.13143 5.76277-6.8296 11.40825-7.4899 18.23679a4.81989 4.81989 0 0 1-.25762.83307c-.32807 1.12683-2.03648 2.06722-.86228 3.35976 1.07388 1.18211 2.58.42482 3.8744.10991 11.006-2.67744 21.09879-7.50361 30.845-13.14458a6.33741 6.33741 0 0 0 2.39157-2.87515c2.513-4.98116 5.84329-9.44784 8.81338-14.14308 5.73241-9.062 10.99351-18.42245 16.73615-27.47767a155.44717 155.44717 0 0 0 9.14233-15.97688c2.04571-4.2672 4.97653-5.60779 9.57921-4.86227a9.19945 9.19945 0 0 1 8.14249 7.98774c.40736 2.49935-1.42285 4.30462-1.58101 6.88768zm-31.15566 38.4477c-.8395-.098-1.25506.47749-1.64447.99759-5.254 7.01733-9.51852 14.67011-14.14921 22.08766-.42243.67669-.77909 1.59935.04057 2.09342 1.16773.70391 1.50955-.52379 1.84308-1.22015a59.16925 59.16925 0 0 1 4.76167-8.34237c2.83274-4.06612 5.53-8.22858 8.20139-12.40353.57919-.90518 1.53059-1.83174.94697-3.21262zm-11.91751 6.02725c6.379-7.3495 10.46768-16.14893 15.38476-24.42393-6.08925 7.53295-10.88503 15.88473-15.38476 24.42393zm-41.20178-17.00626a92.671 92.671 0 0 0-11.06733 24.77021 1.95943 1.95943 0 0 0 1.15872 2.67511c1.63275-9.89966 5.69645-18.65684 9.90861-27.44532zm38.73367-81.55501c5.21957.11388 11.83115 5.721 12.60165 10.34953.37084 2.22779-.65938 4.00225-2.07555 5.53557q-6.035 6.53427-12.17775 12.96886c-2.35536 2.47142-4.627 2.73294-7.58831 1.02062a9.85723 9.85723 0 0 1-4.50573-9.93524 34.08464 34.08464 0 0 1 8.11308-16.85451 9.099 9.099 0 0 1 5.63261-3.08483zM143.761 492.40108c2.56538-5.57989 3.05763-12.382 6.64647-18.07257.511-.81017 1.21488-1.84513 2.27827-1.39779 1.3208.55565.465 1.67371.14542 2.49449q-3.47651 8.92773-7.04654 17.81878c-.24681.61415-.24662 1.76987-1.381 1.42306-.7827-.23928-.59453-1.11154-.64262-2.26597z" class="cls-1"/></g><path id="SVGID" d="M12.53317 328.81149h165.07339v1.30493H12.53317z" class="cls-1"/><path d="M12.533 328.811h165.073v1.305H12.533z" class="cls-1"/><path d="M12.533 328.811h165.073v1.305H12.533z" class="cls-1"/><g clip-path="url(#clip-path)"><path d="M12.53317 328.81149h165.07339v1.30493H12.53317z" class="cls-1"/></g><path d="M238.28571 238.96721c1.43543-.39148 3.13182-.783 5.35021-1.17442a38.637 38.637 0 0 1 6.78562-.522 15.6997 15.6997 0 0 1 6.00268.91345 9.17409 9.17409 0 0 1 3.78428 2.74036 10.32642 10.32642 0 0 1 1.95739 4.17576 23.104 23.104 0 0 1 .65247 5.35021v16.1811h-7.96007v-15.26762a10.89515 10.89515 0 0 0-1.044-5.48069q-.97872-1.56593-3.91478-1.56591a9.2427 9.2427 0 0 0-1.82689.1305c-.65247 0-1.17443.1305-1.69641.1305v22.05327h-8.09055v-27.66451zM223.40954 252.147a10.84175 10.84175 0 0 0-1.43543-5.87218 5.48476 5.48476 0 0 0-8.61253 0 9.799 9.799 0 0 0-1.56591 5.87218 10.51637 10.51637 0 0 0 1.56591 6.00267 5.28887 5.28887 0 0 0 8.61253 0 11.33407 11.33407 0 0 0 1.43543-6.00267m8.22105 0a18.34077 18.34077 0 0 1-.91345 6.13315 13.96555 13.96555 0 0 1-2.87084 4.82823 13.05873 13.05873 0 0 1-10.17844 4.17577 16.05948 16.05948 0 0 1-5.74167-1.04395 13.098 13.098 0 0 1-4.43675-3.13182 13.57435 13.57435 0 0 1-2.87084-4.82823 18.53788 18.53788 0 0 1 0-12.26631 14.2077 14.2077 0 0 1 2.87084-4.69775 12.73031 12.73031 0 0 1 4.43675-3.00134 13.43312 13.43312 0 0 1 5.61119-1.04395 15.34388 15.34388 0 0 1 5.6112 1.04395 14.7978 14.7978 0 0 1 4.43674 3.00134 14.20671 14.20671 0 0 1 2.87084 4.69775 15.572 15.572 0 0 1 1.17443 6.13316m-43.97607 15.13717c-6.13316 0-10.83091-1.69641-13.96273-5.08921-3.26232-3.39282-4.82823-8.221-4.82823-14.48471a23.82723 23.82723 0 0 1 1.43543-8.35153 16.86561 16.86561 0 0 1 10.17845-9.91746 21.21143 21.21143 0 0 1 7.69906-1.30493 21.99787 21.99787 0 0 1 4.30627.39148c1.30493.261 2.47935.522 3.39282.783a25.67929 25.67929 0 0 1 2.47935.91344 4.672 4.672 0 0 1 1.43543.783l-2.47935 6.78562a16.33949 16.33949 0 0 0-4.04529-1.56591 21.13817 21.13817 0 0 0-5.21971-.65247 12.1236 12.1236 0 0 0-3.78428.65247 7.80673 7.80673 0 0 0-3.26232 2.08789 12.59516 12.59516 0 0 0-2.34888 3.6538 17.18781 17.18781 0 0 0-.91344 5.4807 18.89819 18.89819 0 0 0 .522 4.82823 12.04214 12.04214 0 0 0 1.82689 3.91478 9.82588 9.82588 0 0 0 3.39282 2.60986 11.60979 11.60979 0 0 0 4.95873.91344 23.6144 23.6144 0 0 0 3.26232-.261 13.16067 13.16067 0 0 0 2.60986-.522 17.06618 17.06618 0 0 0 1.95739-.65247 7.983 7.983 0 0 1 1.56591-.65246l2.34888 6.78562a15.91075 15.91075 0 0 1-5.08922 1.95739 25.21152 25.21152 0 0 1-7.43808.91345m-32.23172-17.87751a5.23585 5.23585 0 0 0-.39148-1.95739 7.03122 7.03122 0 0 0-.91345-1.69641 5.22129 5.22129 0 0 0-1.5659-1.30493 6.233 6.233 0 0 0-2.34888-.522 4.4689 4.4689 0 0 0-2.34887.522 3.56231 3.56231 0 0 0-1.56591 1.17443 6.10387 6.10387 0 0 0-1.04395 1.82689 9.77454 9.77454 0 0 0-.522 2.08789h10.7004zm-18.92149 3.00132a17.79652 17.79652 0 0 1 1.17443-6.65514 12.36848 12.36848 0 0 1 3.13183-4.69775 13.10713 13.10713 0 0 1 4.30627-2.87084 13.99325 13.99325 0 0 1 5.08922-.91345 12.68964 12.68964 0 0 1 9.65647 3.65381q3.52329 3.71905 3.5233 10.96138v1.56591c0 .522-.1305 1.04395-.1305 1.43543h-18.39948a4.85072 4.85072 0 0 0 2.34887 3.91479 10.04553 10.04553 0 0 0 5.4807 1.43542 22.978 22.978 0 0 0 4.30626-.39148 16.368 16.368 0 0 0 3.5233-1.04394l1.04395 6.52464a11.65348 11.65348 0 0 1-1.69641.65246 13.86089 13.86089 0 0 1-2.47937.522c-.91344.1305-1.8269.261-2.87083.39148a24.11586 24.11586 0 0 1-3.00134.13051 16.87086 16.87086 0 0 1-6.65513-1.17443 12.36853 12.36853 0 0 1-4.69774-3.13182 10.672 10.672 0 0 1-2.74035-4.69775 14.89533 14.89533 0 0 1-.91344-5.61119m-5.35021-.1305a18.31244 18.31244 0 0 1-1.04394 6.13315 14.2072 14.2072 0 0 1-2.87084 4.69775 12.62191 12.62191 0 0 1-4.69774 3.00134 18.52264 18.52264 0 0 1-6.26366 1.04395 27.31439 27.31439 0 0 1-3.13183-.1305l-3.13182-.39149a24.08647 24.08647 0 0 1-3.00134-.522c-.91345-.261-1.8269-.39148-2.47937-.65246v-39.93079l8.09055-1.30493v14.22371a18.47933 18.47933 0 0 1 2.87084-.91344 12.19556 12.19556 0 0 1 3.13183-.261 13.48044 13.48044 0 0 1 5.3502 1.04395 9.866 9.866 0 0 1 3.91478 3.00134 13.24747 13.24747 0 0 1 2.34888 4.69775 19.13109 19.13109 0 0 1 .91344 6.26366m-8.22105-.261c0-5.21971-1.95739-7.82956-5.74168-7.82956a15.99038 15.99038 0 0 0-2.47937.261 15.1907 15.1907 0 0 0-1.95739.783v14.74569a5.377 5.377 0 0 0 1.56591.1305c.65247 0 1.30493.1305 1.95739.1305a5.80957 5.80957 0 0 0 4.95873-2.21837 10.23543 10.23543 0 0 0 1.69641-6.00268m-26.35954 13.57121c-1.43541.39148-3.13183.783-5.3502 1.17442a38.63709 38.63709 0 0 1-6.78562.522 15.69962 15.69962 0 0 1-6.00267-.91345 9.17412 9.17412 0 0 1-3.78429-2.74036 11.2131 11.2131 0 0 1-1.95739-4.17576 22.24239 22.24239 0 0 1-.65247-5.35021v-15.92015H79.998v14.87617a11.84484 11.84484 0 0 0 1.04395 5.61119c.65246 1.17443 1.95739 1.69641 3.91478 1.69641a9.2428 9.2428 0 0 0 1.8269-.1305c.65247 0 1.17444-.1305 1.69641-.1305v-22.05327h8.09055v27.534zm-37.32093.91344c-.783-1.17442-1.69641-2.60985-2.74035-4.04528a48.8886 48.8886 0 0 0-3.39281-4.30627c-1.17444-1.43543-2.47937-2.74036-3.78429-4.17576a47.672 47.672 0 0 0-3.91479-3.52331v15.92012h-8.48209v-37.58193h8.482v14.22371c2.21838-2.34888 4.43676-4.69775 6.65513-7.30761 2.21838-2.47935 4.30626-4.82822 6.26366-6.91612h10.04797c-2.60985 3.00134-5.08922 6.00268-7.69907 8.743-2.60986 2.87083-5.35021 5.61119-8.221 8.482a70.52474 70.52474 0 0 1 8.743 8.87351 115.54571 115.54571 0 0 1 8.09055 11.35287H59.24959z" class="cls-1"/><path d="M127.10584 100.51436l-4.69774 1.044c0-.65247-.13049-1.30493-.13049-1.95739a27.02223 27.02223 0 0 1 3.91478-14.09323l9.1345 8.09055a1.80177 1.80177 0 0 0 .522.39148 14.881 14.881 0 0 0-1.04394 4.30627c-.261.13049-.65247.13049-.91345.261zm17.747-27.66447v12.78829a11.31312 11.31312 0 0 0-3.5233 1.8269c-.39149-.261-.783-.65246-1.17444-.91344l-9.265-6.52464a25.74335 25.74335 0 0 1 13.96273-7.17711m-63.55 29.49137c4.43676-19.44343 8.22105-35.88552 12.6578-55.329 1.95739-8.743 3.26232-11.09188 11.22238-15.65913 10.96139-6.39415 19.18243-10.9614 30.9268-17.747 7.30759-4.17577 8.743-3.91479 8.743 5.08922v45.1505A35.27688 35.27688 0 0 0 123.452 74.67678l-3.91479-2.74034a1.88614 1.88614 0 0 1-.91344-1.30493 6.3558 6.3558 0 0 0-2.08788-3.13183 4.26953 4.26953 0 0 0-5.35021 6.65513 4.52141 4.52141 0 0 0 2.08789 1.04394c.522.13049 1.04394.13049 1.56591.261a3.22414 3.22414 0 0 1 1.17443.522l3.6538 3.26232a35.727 35.727 0 0 0-6.13315 20.09589c0 1.30493.13049 2.60986.261 3.91479l-7.96006 1.69641a8.02677 8.02677 0 0 0-1.69641.13049l-1.17444.39148c-5.21971 1.04395-10.43942 2.21837-15.78962 3.39281-7.17711 1.69641-7.43809.261-5.87218-6.52464m72.815-16.70308V72.84989a27.43972 27.43972 0 0 1 13.96273 7.04661l-10.04794 7.1771c-.13049.13049-.261.261-.39148.261a14.50167 14.50167 0 0 0-3.52331-1.69641m22.44476 15.00667L164.0353 97.774a12.35617 12.35617 0 0 0-1.04395-3.91478c.1305-.13049.261-.261.39148-.261l9.265-8.22105a27.26528 27.26528 0 0 1 4.04528 14.22372 2.54379 2.54379 0 0 0-.1305 1.04394M160.251 31.61416c6.78562 3.26232 11.61385 5.61119 18.39949 8.87351 9.39548 4.56725 18.791 9.1345 28.31694 13.57125 2.34887 10.17843 4.69775 20.35687 6.91612 30.53531 1.43543 6.13316 2.08789 9.39548 3.5233 15.39816 2.21837 9.526 1.95739 10.30893-7.82957 8.09055l-24.14116-5.4807a25.14372 25.14372 0 0 0 .1305-3.13183A34.9804 34.9804 0 0 0 179.303 79.244l3.39282-3.13183a2.89666 2.89666 0 0 1 1.43543-.65246 6.83 6.83 0 0 0 3.5233-1.30493 4.26953 4.26953 0 1 0-5.35021-6.65513 5.31281 5.31281 0 0 0-1.56591 1.8269c-.261.522-.39149.91345-.65247 1.43542a2.02936 2.02936 0 0 1-.783 1.04394l-3.91479 2.74035a35.62986 35.62986 0 0 0-21.40082-10.8309v-27.534c.13049-6.39415.65247-7.17711 6.26366-4.56725m-8.35154 82.21046a14.45249 14.45249 0 0 1-2.47936.261 14.1821 14.1821 0 0 1-2.34888-.13049l-.39148.783-5.74168 10.56992a27.0967 27.0967 0 0 0 8.61253 1.43542 28.53761 28.53761 0 0 0 8.743-1.43542l-5.74168-10.43942a4.57782 4.57782 0 0 1-.65247-1.04395m10.17844-6.91612l12.52732 2.87084a27.06788 27.06788 0 0 1-10.17844 12.39681l-4.95873-12.00533a20.44346 20.44346 0 0 0 2.60985-3.26232m-37.71242 2.74035l12.52731-2.87084a17.3431 17.3431 0 0 0 2.74035 3.39281l-.39149.78295-4.56724 11.22238a26.87954 26.87954 0 0 1-10.30894-12.5273m102.56735 22.05328c-6.00268 7.43809-8.743 10.9614-14.74569 18.39948-6.78562 8.482-12.26632 15.39815-19.052 23.88018-4.82823 6.13316-8.35153 6.26366-16.3116 6.26366h-54.807c-10.43942 0-11.22238 0-17.61653-8.09055-6.39415-7.96007-11.35287-14.22372-17.61653-22.18378-4.95873-6.26366-6.26365-7.82957-11.22237-14.09322-7.69908-9.65647-9.004-13.17977 3.00133-15.78963l37.06-8.35154a36.64415 36.64415 0 0 0 15.52864 18.791l-1.69641 3.91479a2.30264 2.30264 0 0 1-1.04394 1.17443 5.91816 5.91816 0 0 0-2.60986 2.74035 4.28943 4.28943 0 0 0 7.69389 3.79485l.00519-.01056a6.96856 6.96856 0 0 0 .65246-2.34887 6.35254 6.35254 0 0 0-.13049-1.56591 2.35284 2.35284 0 0 1 .261-1.30493l2.08789-3.78429a36.503 36.503 0 0 0 12.91879 2.34887 34.60666 34.60666 0 0 0 13.04928-2.47936l2.08789 3.78429a2.13558 2.13558 0 0 1 .261 1.56591 5.87121 5.87121 0 0 0 .522 3.6538 4.28943 4.28943 0 0 0 7.7066-3.769l-.00753-.01532a5.451 5.451 0 0 0-1.43543-1.95739 7.92042 7.92042 0 0 0-1.30493-.91345 1.62072 1.62072 0 0 1-.783-1.04394l-1.69641-4.17577a35.79084 35.79084 0 0 0 15.39815-18.791l40.84425 9.265c8.221 2.21838 7.69907 5.08922 3.00134 11.09189" class="cls-3"/><path d="M154.11784 85.63818V72.84989a27.43959 27.43959 0 0 1 13.96274 7.04661l-10.04794 7.1771c-.13049.13049-.261.261-.39148.261a14.50167 14.50167 0 0 0-3.52331-1.69641m22.44476 15.00667L164.0353 97.774a12.35617 12.35617 0 0 0-1.04395-3.91478c.1305-.13049.261-.261.39148-.261l9.265-8.22105a27.26528 27.26528 0 0 1 4.04528 14.22372 2.54379 2.54379 0 0 0-.1305 1.04394M160.251 31.61416c6.78562 3.26232 11.61385 5.61119 18.39949 8.87351 9.39548 4.56725 18.791 9.1345 28.31694 13.57125 2.34887 10.17843 4.69775 20.35687 6.91612 30.53531 1.43543 6.13316 2.08789 9.39548 3.5233 15.39816 2.21837 9.526 1.95739 10.30893-7.82957 8.09055l-24.14116-5.4807a25.14372 25.14372 0 0 0 .1305-3.13183A34.9804 34.9804 0 0 0 179.303 79.244l3.39282-3.13183a2.89666 2.89666 0 0 1 1.43543-.65246 6.83 6.83 0 0 0 3.5233-1.30493 4.26953 4.26953 0 1 0-5.35021-6.65513 5.31281 5.31281 0 0 0-1.56591 1.8269c-.261.522-.39149.91345-.65247 1.43542a2.02936 2.02936 0 0 1-.783 1.04394l-3.91479 2.74035a35.62986 35.62986 0 0 0-21.40082-10.8309v-27.534c.13049-6.39415.65247-7.17711 6.26366-4.56725m1.8269 75.29435l12.52732 2.87084a27.06789 27.06789 0 0 1-10.17844 12.39681l-4.95873-12.00533a20.44346 20.44346 0 0 0 2.60985-3.26232m-12.65779 19.70441v-12.52726a15.98794 15.98794 0 0 0 2.47936-.261 3.27018 3.27018 0 0 0 .522.91345l5.74169 10.43942a28.53766 28.53766 0 0 1-8.743 1.43542m77.51272 5.08922c-6.00268 7.43809-8.743 10.9614-14.74569 18.39948-6.78562 8.482-12.26632 15.39815-19.052 23.88018-4.82823 6.13316-8.35153 6.26366-16.3116 6.26366h-27.273v-44.759a34.60685 34.60685 0 0 0 13.04928-2.47936l2.08788 3.78429a2.13558 2.13558 0 0 1 .261 1.56591 5.87108 5.87108 0 0 0 .522 3.6538 4.28943 4.28943 0 0 0 7.69907-3.78429 5.4504 5.4504 0 0 0-1.43543-1.95739 7.92247 7.92247 0 0 0-1.30493-.91345 1.62072 1.62072 0 0 1-.783-1.04394l-1.69641-4.17577a35.79084 35.79084 0 0 0 15.39815-18.791l40.84425 9.265c7.96007 2.21838 7.43809 5.08922 2.74036 11.09189" class="cls-3"/><path d="M529.6761 130.13622h-21.66181v50.6312H558.515v-21.6618h-28.8389zm108.43953.13049v28.83891h-28.70842l-.261-.261v21.92278h50.63119v-50.63119h-21.79232zM508.01433 79.505h21.79232l-.13051-.13049V50.53562h28.70842l.1305.261V28.87381h-50.50073zm101.13192-50.6312v21.66182h28.96942V79.505h21.66181V28.87381z" class="cls-1"/><path d="M606.53635 79.505l-28.96941-28.9694h31.57927V28.87381H558.515V50.7966l28.83894 28.7084zm-26.09856 50.6312h-19.18245l24.01066 24.01069 4.95871 4.95873H558.515v21.6618h50.63119v-21.92279L594.792 144.49042zm57.67784-50.6312v31.57926l-4.95871-4.95874-24.01067-23.88018v19.18244L623.631 115.782l14.3542 14.35421h21.79232V79.505zM558.515 108.21342L529.80661 79.505h-21.92278v50.63121h21.79231V98.557l28.83892 28.8389z" style="isolation:isolate" fill="#fff" opacity=".8"/><path d="M402.05417 235.96588l-5.48072 6.52464a12.82849 12.82849 0 0 0-9.39549-4.82823 10.4796 10.4796 0 0 0-10.44524 10.51391q.00048.15854.00581.317c0 6.26366 4.43675 10.96139 10.43943 10.96139a13.79929 13.79929 0 0 0 9.39549-4.43675l5.61118 5.87218a22.84728 22.84728 0 0 1-15.39814 6.78562c-11.22239 0-19.57392-8.221-19.57392-19.18244 0-10.8309 8.61254-18.92145 19.96539-18.92145a22.45813 22.45813 0 0 1 14.87617 6.39414zm4.56724 31.31827v-39.53932h9.265v39.53932zm45.93348-14.35421c0 8.87351-6.26363 14.74569-15.65913 14.74569s-15.78964-5.87218-15.78964-14.74569 6.26364-14.61519 15.78964-14.61519c9.39546 0 15.65909 5.74168 15.65909 14.61519zm-22.18377.1305c0 4.43675 2.60985 7.43809 6.39414 7.43809s6.39414-3.00134 6.39414-7.43809-2.60986-7.43808-6.39414-7.43808-6.39418 3.00131-6.39418 7.43808zm55.19844 14.22371h-9.265v-4.69775a10.17376 10.17376 0 0 1-9.3955 5.08921c-6.26364 0-10.30892-4.30627-10.30892-10.96139v-18.13849h9.265v15.52864c0 3.39282 1.82689 5.48069 4.82824 5.48069 3.52333 0 5.61118-2.87084 5.61118-6.78562v-14.22371h9.265zm36.277 0h-9.265v-3.78429a10.6376 10.6376 0 0 1-8.61253 4.17577c-8.09057 0-13.44074-6.00268-13.44074-14.87617 0-8.743 5.21971-14.61519 13.17978-14.61519a10.6059 10.6059 0 0 1 8.87349 4.17577v-14.61519h9.265v39.5393zm-9.265-14.22371c0-4.43675-2.60986-7.43808-6.39414-7.43808s-6.39414 3.00133-6.39414 7.43808 2.60986 7.56859 6.39414 7.56859c3.91477-.1305 6.39412-3.13184 6.39412-7.56859zm43.0626 14.22371l-17.22506-22.96674v22.96674h-8.8735v-37.321h8.35153l17.22507 23.09722V229.9632h8.87349v37.321zm41.23573-18.791v18.791h-9.004v-3.26232c-1.82689 2.47935-4.95871 3.78428-8.743 3.78428-6.13318 0-9.91746-3.78428-9.91746-9.004 0-5.4807 3.91478-8.61254 11.09188-8.743h7.56857v-.39148c0-2.87084-1.82689-4.56725-5.61117-4.56725a21.97083 21.97083 0 0 0-8.61254 2.34888l-2.60985-6.13316a29.91057 29.91057 0 0 1 13.31028-3.26232c7.96005.13047 12.52729 4.04522 12.52729 10.43941zm-9.004 9.1345v-2.60986h-5.87218c-2.74035 0-4.17578.91345-4.17578 3.13182 0 2.08789 1.43543 3.39282 4.04528 3.39282a5.96518 5.96518 0 0 0 6.00269-3.91474zm33.92813 8.22105a16.421 16.421 0 0 1-7.69907 1.95739c-5.61118 0-9.526-3.13182-9.526-9.1345v-12.65775h-4.04528v-6.00268h4.04533v-7.96007h9.1345v7.96007h7.56856v6.13316h-7.56856v11.22239c0 2.21837.91346 3.26232 2.60985 3.13182a10.80854 10.80854 0 0 0 3.52332-.91345zm14.0932-35.494a4.76878 4.76878 0 0 1-4.57465 4.95535q-.12676.00507-.2536.00338a4.89391 4.89391 0 0 1 0-9.787 4.58811 4.58811 0 0 1 4.82825 4.82821zm-9.526 36.92947v-28.70842h9.1345v28.70842zm23.48871 0l-10.83089-28.70842h9.526l6.13318 20.35689 6.26363-20.35689h9.13454l-10.83089 28.70842zm50.76169-11.87486h-20.22634a6.71362 6.71362 0 0 0 6.78564 5.35022 10.25278 10.25278 0 0 0 6.91611-2.87084l4.82825 4.69775a16.29394 16.29394 0 0 1-12.52728 5.08921c-9.3955 0-15.26767-5.87218-15.26767-14.61519 0-8.87351 6.13317-14.74569 15.00667-14.74569 10.048 0 15.00667 6.65514 14.48467 17.09456zm-8.8735-4.95873a5.41478 5.41478 0 0 0-5.61117-5.87217c-3.26232 0-5.35017 2.34887-6.00264 5.87217h11.61381zm46.45546-14.4847l-5.48072 6.52464a12.82835 12.82835 0 0 0-9.39549-4.82823 10.47959 10.47959 0 0 0-10.44524 10.51391q.00048.15854.00581.317c0 6.26366 4.43679 10.96139 10.43943 10.96139a13.79912 13.79912 0 0 0 9.39549-4.43675L738.334 260.89a22.84711 22.84711 0 0 1-15.39814 6.78562c-11.22235 0-19.57392-8.221-19.57392-19.18244 0-10.8309 8.6125-18.92145 19.96539-18.92145a22.73063 22.73063 0 0 1 14.87625 6.39415zm32.23173 16.96406c0 8.87351-6.26364 14.74569-15.65913 14.74569s-15.7896-5.87218-15.7896-14.74569 6.26364-14.61519 15.7896-14.61519c9.39549 0 15.65913 5.74168 15.65913 14.61519zm-22.05331.1305c0 4.43675 2.60985 7.43809 6.39418 7.43809s6.39418-3.00134 6.39418-7.43809-2.60986-7.43808-6.39418-7.43808-6.3941 3.00131-6.3941 7.43808zm56.3729-3.91478v18.13849h-9.13449v-15.52864c0-3.39282-1.9574-5.48069-5.08926-5.48069-3.39278 0-5.48071 2.34887-5.87217 5.87218v15.26765h-9.265v-28.70842h9.265v4.69777a10.59185 10.59185 0 0 1 9.6565-5.08921c6.26364-.1305 10.43942 4.17577 10.43942 10.83091z" class="cls-1"/><path id="SVGID-2" d="M317.88631 12.04024h1.30493v265.55283h-1.30493z" class="cls-1"/><path d="M317.886 12.04h1.305v265.553h-1.305z" class="cls-1"/><path d="M317.886 12.04h1.305v265.553h-1.305z" class="cls-1"/><g clip-path="url(#clip-path-2)"><path d="M317.88631 12.04024h1.30493v265.55283h-1.30493z" class="cls-1"/></g><path d="M235.38662 344.66636h-7.82957l-12.6578-21.92279h-.1305c.261 3.91478.39148 6.65512.39148 8.35155v13.70174h-5.48069V315.697h7.82957l12.65779 21.7923h.1305c-.261-3.78429-.261-6.39414-.261-7.96007v-13.70179h5.4807v28.83892zm27.012-11.09189a11.73238 11.73238 0 0 1-2.87084 8.482 10.24173 10.24173 0 0 1-7.96007 3.00132 11.20028 11.20028 0 0 1-5.61119-1.43543 9.49267 9.49267 0 0 1-3.78428-4.04528 12.89141 12.89141 0 0 1-1.30493-6.13318 11.73238 11.73238 0 0 1 2.87084-8.482 10.72526 10.72526 0 0 1 7.96007-3.00134 11.20028 11.20028 0 0 1 5.61119 1.43543 9.49255 9.49255 0 0 1 3.78428 4.04528 12.89141 12.89141 0 0 1 1.30493 6.13316zm-15.26765 0a9.67565 9.67565 0 0 0 1.04394 4.95871 4.04661 4.04661 0 0 0 3.52331 1.69639 3.90407 3.90407 0 0 0 3.5233-1.69639 12.299 12.299 0 0 0 0-9.91746 4.507 4.507 0 0 0-7.04661 0 8.50633 8.50633 0 0 0-1.04391 4.95875zm32.7537-11.48337a9.90241 9.90241 0 0 1 2.08789.1305l-.522 5.74168a6.801 6.801 0 0 0-1.82689-.261 7.07838 7.07838 0 0 0-4.56725 1.43542 5.51006 5.51006 0 0 0-1.56591 4.17579v11.35291h-6.00268v-22.18378h4.56725l.91344 3.78429h.261a7.60446 7.60446 0 0 1 2.74035-3.00134 6.90444 6.90444 0 0 1 3.91479-1.17443zm15.39815 18.13851a15.33582 15.33582 0 0 0 3.78428-.65246v4.56725a14.34932 14.34932 0 0 1-5.61119 1.04392 7.15455 7.15455 0 0 1-5.35021-1.82689 8.08034 8.08034 0 0 1-1.69641-5.48071v-10.70041h-2.87084v-2.60985l3.39282-2.0879 1.69641-4.69774h3.91478v4.69774h6.26366v4.56725h-6.26366v10.70041a2.4618 2.4618 0 0 0 .783 1.95739 3.14478 3.14478 0 0 0 1.95739.522zm28.83892 4.43675h-6.00268v-12.91878c0-3.26232-1.17443-4.82823-3.5233-4.82823a3.99026 3.99026 0 0 0-3.6538 1.69641 10.26616 10.26616 0 0 0-1.17443 5.61118v10.43942h-6.00268v-30.92679h6.00268v6.26366c0 .522 0 1.69641-.1305 3.39282l-.261 1.95739h.261a6.88559 6.88559 0 0 1 6.39414-3.26232 8.01712 8.01712 0 0 1 6.00267 2.08789 8.57327 8.57327 0 0 1 2.0879 6.00268v14.48467zm34.97207 0l-2.08789-6.9161H346.436l-2.08789 6.9161H337.693l10.30892-29.0999h7.56857l10.30892 29.0999zm-3.52332-12.13581c-1.95739-6.26366-3.00132-9.787-3.26232-10.56993s-.39146-1.43543-.522-1.95739c-.39147 1.69641-1.6964 5.87217-3.78429 12.52732zm33.27566 12.13581h-6.00268v-12.91878a7.23562 7.23562 0 0 0-.783-3.6538 2.8659 2.8659 0 0 0-2.47936-1.17443 3.6836 3.6836 0 0 0-3.39282 1.69641 11.8448 11.8448 0 0 0-1.04392 5.61118v10.43942h-6.00268v-22.18378h4.56731l.783 2.87084h.39147a5.71289 5.71289 0 0 1 2.60985-2.34887 9.5907 9.5907 0 0 1 3.91479-.91345c3.26232 0 5.61117 1.04395 6.78564 3.26232h.522a5.71271 5.71271 0 0 1 2.60986-2.34887 9.59 9.59 0 0 1 3.91478-.91345 7.851 7.851 0 0 1 5.74168 1.95739q1.95738 1.9574 1.95739 6.26366v14.48471h-6.13318v-12.91878a7.236 7.236 0 0 0-.783-3.6538 2.86592 2.86592 0 0 0-2.47936-1.17443 3.642 3.642 0 0 0-3.26232 1.56591 8.71544 8.71544 0 0 0-1.04393 5.08921v10.96139zm30.01334.39146a10.40874 10.40874 0 0 1-11.35288-11.35289q0-5.67648 2.74035-8.61253a9.66691 9.66691 0 0 1 7.69907-3.00134 9.54521 9.54521 0 0 1 7.3076 2.74036 10.53194 10.53194 0 0 1 2.60986 7.43808v3.00132h-14.35421a5.95932 5.95932 0 0 0 1.56593 4.04529 5.65217 5.65217 0 0 0 4.04529 1.43543 17.71622 17.71622 0 0 0 3.78428-.39147 26.15553 26.15553 0 0 0 3.78428-1.30492v4.69774a14.90364 14.90364 0 0 1-3.39282 1.17443c-1.17443 0-2.60985.1305-4.43675.1305zm-.783-18.66047a3.74408 3.74408 0 0 0-3.00132 1.17443 5.43876 5.43876 0 0 0-1.30493 3.5233h8.482a5.22282 5.22282 0 0 0-1.17442-3.5233 3.7441 3.7441 0 0 0-3.00132-1.17443zm27.273-4.30627a9.90254 9.90254 0 0 1 2.08789.1305l-.522 5.74168a6.80115 6.80115 0 0 0-1.8269-.261 7.07834 7.07834 0 0 0-4.56724 1.4354 5.51029 5.51029 0 0 0-1.56593 4.17579v11.35289h-6.00261v-22.18376h4.5673l.91346 3.78429h.261a7.60439 7.60439 0 0 1 2.74035-3.00134 6.90464 6.90464 0 0 1 3.91479-1.17443zm5.74167-5.35021c0-1.95739 1.04393-3.00134 3.26232-3.00134s3.26232 1.04395 3.26232 3.00134a3.0696 3.0696 0 0 1-.783 2.21837 3.53272 3.53272 0 0 1-2.47936.783c-2.08793 0-3.26232-1.04391-3.26232-3.0013zm6.39414 27.92545h-6.00268v-22.18378h6.00268zm15.26767.39146c-6.9161 0-10.30892-3.78428-10.30892-11.35289 0-3.78428.91347-6.65514 2.87086-8.61253a10.63111 10.63111 0 0 1 8.09057-3.00134 14.9881 14.9881 0 0 1 6.9161 1.56591l-1.82689 4.69775c-.91347-.39148-1.82689-.65246-2.60986-.91345a8.19423 8.19423 0 0 0-2.47935-.39148q-4.69779 0-4.69775 6.65514c0 4.30625 1.56593 6.52464 4.69775 6.52464a9.00942 9.00942 0 0 0 3.26232-.522 10.49791 10.49791 0 0 0 3.00131-1.43543v5.21971a9.99831 9.99831 0 0 1-3.00131 1.30493 30.83867 30.83867 0 0 1-3.91479.261zm26.09856-.39146l-1.17443-3.00132h-.1305a7.93762 7.93762 0 0 1-3.13182 2.60986 9.53391 9.53391 0 0 1-4.17578.783 7.35648 7.35648 0 0 1-5.08921-1.82689 7.24407 7.24407 0 0 1-1.82689-5.21971 5.8393 5.8393 0 0 1 2.47935-5.21971c1.69639-1.17443 4.17579-1.69639 7.43811-1.82689l3.91478-.13051v-.91346a3.03437 3.03437 0 0 0-3.39282-3.39282 15.72637 15.72637 0 0 0-6.26364 1.56591l-1.95739-4.04521a18.44087 18.44087 0 0 1 8.482-1.95739 10.903 10.903 0 0 1 6.9161 1.95739 7.2068 7.2068 0 0 1 2.34886 5.8722v14.74563h-4.43675zm-1.82689-10.30892l-2.34885.1305a7.50912 7.50912 0 0 0-3.91479.91346 2.76314 2.76314 0 0 0-1.30493 2.60986c0 1.69639 1.04393 2.60985 3.00132 2.60985a4.87856 4.87856 0 0 0 3.39282-1.17442 4.4096 4.4096 0 0 0 1.30493-3.26232v-1.82689zm41.69421 10.06886H518.597v-4.23336l7.22553-7.30454q3.20949-3.2878 4.19386-4.55706a10.002 10.002 0 0 0 1.41707-2.35371 5.97412 5.97412 0 0 0 .43324-2.24412 3.27381 3.27381 0 0 0-.95448-2.57927 3.70414 3.70414 0 0 0-2.55-.84616 7.34406 7.34406 0 0 0-3.24831.76715 16.81238 16.81238 0 0 0-3.2878 2.1855l-3.3082-3.91739a21.54381 21.54381 0 0 1 3.52484-2.56016 12.99766 12.99766 0 0 1 3.05077-1.152 15.66022 15.66022 0 0 1 3.702-.40269 10.96262 10.96262 0 0 1 4.76477.9838 7.60052 7.60052 0 0 1 3.20884 2.7564 7.32687 7.32687 0 0 1 1.14181 4.05624 9.94818 9.94818 0 0 1-.69834 3.73128 14.33086 14.33086 0 0 1-2.16638 3.57324 52.82851 52.82851 0 0 1-5.1675 5.21708l-3.702 3.48533v.27526h12.54209zm22.8579-14.39239q.00006 7.54092-2.47095 11.16325a8.57442 8.57442 0 0 1-7.609 3.623 8.47349 8.47349 0 0 1-7.511-3.7402q-2.53084-3.74084-2.53085-11.046 0-7.61928 2.462-11.23207a9.57 9.57 0 0 1 15.1099.16694q2.54992 3.78096 2.5499 11.06508zm-14.07767 0a22.388 22.388 0 0 0 .91625 7.59 3.17074 3.17074 0 0 0 3.08136 2.29382 3.20317 3.20317 0 0 0 3.07117-2.32313 30.734 30.734 0 0 0-.01019-15.16979 3.18821 3.18821 0 0 0-6.13215 0 22.31362 22.31362 0 0 0-.92644 7.6091zm37.25161 14.39239H564.6288v-4.23336l7.22553-7.30454q3.20951-3.2878 4.19387-4.55706a10.00269 10.00269 0 0 0 1.41707-2.35371 5.97431 5.97431 0 0 0 .43323-2.24412 3.27374 3.27374 0 0 0-.95448-2.57927 3.70414 3.70414 0 0 0-2.55-.84616 7.344 7.344 0 0 0-3.2483.76715 16.81245 16.81245 0 0 0-3.28781 2.1855l-3.3082-3.91739a21.54423 21.54423 0 0 1 3.52484-2.56016 12.99773 12.99773 0 0 1 3.05078-1.152 15.66016 15.66016 0 0 1 3.702-.40269 10.96268 10.96268 0 0 1 4.76477.9838 7.60086 7.60086 0 0 1 3.20883 2.7564 7.32721 7.32721 0 0 1 1.14182 4.05624 9.94838 9.94838 0 0 1-.69834 3.73128 14.3312 14.3312 0 0 1-2.16639 3.57324 52.82741 52.82741 0 0 1-5.1675 5.21708l-3.702 3.48533v.27526h12.54209zm22.8579-14.39239q.00006 7.54092-2.471 11.16325a8.57435 8.57435 0 0 1-7.6091 3.623 8.4735 8.4735 0 0 1-7.511-3.7402q-2.53078-3.74084-2.53084-11.046.00006-7.61928 2.462-11.23207a9.56995 9.56995 0 0 1 15.10989.16694q2.55012 3.78096 2.55005 11.06508zm-14.07767 0a22.388 22.388 0 0 0 .91625 7.59 3.17074 3.17074 0 0 0 3.08137 2.29382 3.20312 3.20312 0 0 0 3.07116-2.32313 30.73387 30.73387 0 0 0-.01019-15.16979 3.1882 3.1882 0 0 0-6.13214 0 22.31387 22.31387 0 0 0-.92645 7.6091z" class="cls-1"/><path id="SVGID-3" d="M639.68155 328.81149H804.7549v1.30493H639.68155z" class="cls-1"/><path d="M639.682 328.811h165.073v1.305H639.682z" class="cls-1"/><path d="M639.682 328.811h165.073v1.305H639.682z" class="cls-1"/><g clip-path="url(#clip-path-3)"><path d="M639.68155 328.81149H804.7549v1.30493H639.68155z" class="cls-1"/></g></svg>