<svg fill="none" height="26" viewBox="0 0 142 26" width="142" xmlns="http://www.w3.org/2000/svg"><path d="m102.623 5.38525v15.41965h8.45v-1.8295h-5.836v-13.59015z" fill="#ec1b2d"/><path d="m17.162 5.38525c.7841 0 1.5681 0 2.1779.26135 1.7423.60982 2.8749 2.00368 2.8749 4.1816 0 1.8294-1.1326 3.3975-2.7878 4.0945l4.6172 6.9693h-3.2233l-4.0074-6.3595h-2.7006v6.2724h-2.7877v-15.41965zm-3.0491 7.31775h1.9166.6098c1.7423 0 2.7006-.9582 2.7006-2.96192 0-1.13251-.3484-2.87484-2.5264-2.87484h-2.7006z" fill="#ec1b2d"/><path d="m5.05276 5.38525c.87117 0 1.48098 0 2.00368.08712 2.43927.34847 3.74606 2.17791 3.74606 4.79143 0 1.7423-.87121 2.9619-2.00373 3.8331-.87116.6969-2.17791.8712-3.65889.8712h-2.35215v5.9239h-2.78773v-15.50675zm.26135 7.84045c2.35215-.0871 2.70061-1.9165 2.70061-3.2233 0-2.70058-1.56809-3.04905-2.87484-3.04905h-2.35215v6.27235z" fill="#ec1b2d"/><path d="m33.2783 20.8049c.8712-.4356 1.7424-1.1325 2.2651-1.7423h3.3975c1.3068 0 2.3522-.4356 3.1362-.9583 1.481-1.1325 2.4393-2.962 2.4393-5.4013 0-2.1779-1.3068-4.26867-2.4393-4.87848-1.2196-.69693-1.3939-.78405-3.2233-.78405h-2.7877v8.10183c0 1.7423-.3485 2.962-1.3939 4.0074-1.3068 1.3067-3.2233 2.0037-5.227 2.0037-4.3558 0-6.8822-2.0037-6.8822-5.6626v-10.10555h2.6135v9.75705c0 .6969.0871 1.3068.1742 1.8295.4356 1.3938 2.0908 2.265 4.0945 2.265 2.5264 0 3.9202-1.3939 3.9202-4.0074v-9.84415h6.4467c1.3938 0 2.5264.17424 3.4846.60982 2.5264 1.13251 4.1816 3.39755 4.1816 6.88223 0 3.8331-2.3521 7.9276-8.6245 7.9276z" fill="#ec1b2d"/><path d="m87.3779 5.38525h-2.7007v15.41965h2.7007z" fill="#ec1b2d"/><path d="m71.0868 7.12759h5.4013v13.67731h2.7877v-13.67731h4.9656v-1.74234h-15.2454v11.32515l-9.1472-11.32515h-2.3522v13.59015h-7.4049v-5.3141h6.3595v-1.7423h-6.3595v-4.87853h6.708v-1.65522h-9.4086v15.41965h12.1963v-11.32517l9.2344 11.32517h2.265z" fill="#ec1b2d"/><path d="m96.1767 5.38525 6.5333 15.41965h-2.9615l-1.6552-4.0945h-6.5338l-1.7423 4.0945h-2.4393l6.708-15.41965zm-3.9202 9.49575h5.0527l-2.5264-6.18532z" fill="#ec1b2d"/><path d="m123.008 1.02942c.262 0 .175.43558.784.43558.349 0 .349-.17423.785-.17423 1.132 0 1.568 1.39386 2.439 1.39386.348 0 .435-.26135.784-.26135.174 0 .435.08712.523.17424.087.08711.348.34846.958 1.91656.087.17423 0 .26135-.087.26135s-.262-.08712-.697-.5227c-.262-.26135-.436-.08711-1.481-.78405-.436-.26135-.959-.69693-1.481-.95828-.523-.17423-1.394-.26135-1.655-.34847-.436-.08711-1.133-.43558-1.133-.95828.087 0 .174-.17423.261-.17423z" fill="#303436"/><path d="m128.845.855225c.262 0 .436.348465.697.609815.61.5227 1.481.17423 2.178.87117.175.17423.349.60981.349 1.04539 0 .43559-.087.78405-.262.78405-.522 0-.174-.78405-1.132-1.39386-.958-.60982-1.133-.60982-1.568-1.0454-.436-.43558-.436-.60982-.436-.69693-.174-.087119-.087-.174235.174-.174235z" fill="#303436"/><path d="m133.201 2.68469c.261 0 .174.34847.436.5227.261.26135.435.17423.784.5227.174.17423.174.26135.174.34847 0 0-.087.60981-.697.60981-.174 0-.261 0-.349-.26135-.174-.26135-.087-.69693-.348-1.0454-.261-.34846-.348-.34846-.348-.52269.174-.08712.348-.17424.348-.17424z" fill="#303436"/><path d="m134.247 5.7338c.784.17423 1.132.52269 1.132.95828 0 .43558-.174.5227-.348.69693-.087.17423-.262.43558-.262 1.13252 0 .17423-.087.26134-.174.26134s-.174-.08711-.174-.17423c0-.08711.087-.08712.087-.17423 0-.08712 0-.43558-.174-.60982-.697-.60981-4.095-1.0454-6.273-1.0454-2.613 0-4.704.5227-5.314.5227-1.045 0-1.568-.5227-1.568-.95828s.262-.43558.262-.69693c0-.17423-.088-.17423-.088-.34847 0-.17423.175-.5227.262-.5227.174 0 .174.17424.348.5227.262.43559.697.95828 1.655.95828.872 0 1.569-.34846 2.788-.60981 1.481-.34847 2.701-.5227 3.92-.5227.523.17423 2.527.17423 3.921.60982z" fill="#ec1b2d"/><g fill="#303436"><path d="m134.421 10.0024c.174 0 .261 0 .261.1743 0 .0871-.174.0871-.261.0871s-.784.1742-1.045.6098c-.088.0871 0 .1742.087.1742s.784.4356.784.697c0 .2613-.523.5227-.697.5227s-.262-.1743-.262-.2614.175-.1742.175-.2613-.175-.1743-.175-.1743c-.087 0-.087 0-.174.2614 0 .1742-.174.9583-.261 1.3939 0 .4355-.174 1.6552-.174 1.8294s0 .6098-.349.7841c-.348.2613-.61.3484-.61.3484s-.087.0871-.174.0871c0 0-.174-.0871-.261-.1742-.174-.0871-.262-.0871-.349-.0871-.174 0-.522.2613-.784.2613-.261 0-.784-.2613-.784-.4355 0-.0872.087-.0872.087-.0872.087 0 .349.1743.523.1743.261 0 .436-.1743.784-.1743.174 0 .61.0872.958.0872.349 0 .436-.0872.523-.1743s.174-.2613.174-.6098-.261-1.6552-.261-2.4393c0-.784.174-1.4809.523-1.8294.348-.5227 1.219-.7841 1.742-.7841z"/><path d="m134.944 12.1804c.087 0 .174.0871.174.4356s-.262 2.4393-.784 3.9202c-.523 1.481-.697 1.481-1.22 2.3522s-.871 1.7423-1.394 2.265c-.174.1743-.522.4356-1.219.4356s-1.83-.1742-2.962-.6098c-1.22-.5227-2.352-1.2196-3.049-1.9166-.088-.0871-.088-.1742.174-.0871.174.0871 1.132.8712 2.962 1.3939 1.307.4356 1.742.4356 2.265.4356s1.132.0871 1.829-.6099c.697-.6969 1.22-1.8294 1.481-2.265.262-.4356.697-1.2196 1.22-2.6135.435-1.3939.523-2.265.61-2.8748-.175-.1743-.175-.2614-.087-.2614z"/><path d="m130.327 16.8846c.261 0 .435.3485.784.3485.261 0 .348-.3485.522-.3485.175 0 .262.3485.262.5227.087.1743.087.1743.087.2614 0 0-.087.0871-.174.0871-.088 0-.175-.0871-.523-.0871-.262 0-.436.1742-.436.1742h-.087c-.087-.0871-.261-.3484-.61-.3484-.174 0-.435.0871-.61.2613-.261.1742-.435.1742-.609.1742-.175 0-.436-.0871-.436-.1742s.087-.0871.174-.0871c.175 0 .349.0871.784-.1742.349-.3485.61-.6099.872-.6099z"/><path d="m129.542 18.1042c.174 0 .349.2614 1.046.2614.696 0 .871-.3485 1.045-.3485.087 0 .087.0871.087.0871s-.261.9583-.958.9583c-.436 0-.871-.3485-1.046-.5227-.174-.1742-.261-.3485-.261-.4356-.087 0 0 0 .087 0z"/><path d="m128.236 10.6122c.522 0 1.568.0871 1.568.4356 0 .1742-.523 0-.871 0-.349 0-.436 0-.436.0871v.0871s.261.2613.261.3485c0 .2613-.784.6098-.958.6098-.087 0-.261-.0871-.261-.2614 0-.0871.435-.1742.435-.2613s-.261-.2614-.435-.2614-.871.4356-.959.4356c-.087 0-.087-.0871-.087-.1742s.087-.1743.087-.2614c0-.1742-.174-.1742-.174-.3484 0-.0872.087-.2614.784-.3485s.784-.0871 1.046-.0871z"/><path d="m127.974 9.21838c.523 0 1.568.08712 1.743.08712.174 0 .174.08712.174.17423 0 .08712-.087.08712-.261.08712-.349 0-1.307 0-2.178.26135-1.481.4356-1.656.8712-1.917.8712-.087 0-.174-.0872-.174-.1743s.174-.3484.174-.4356c0-.0871-.087-.2613-.087-.34842-.087-.17423 1.132-.5227 2.526-.5227z"/><path d="m140.955 8.78284c.784 0 1.045.69693 1.045 1.56806 0 .1743-.087.3485-.174.3485-.174 0 .087-.5227-.436-.5227-.087 0-.348.0871-.522.2614-.175.1742-1.307 1.6552-2.091 4.0944-.436 1.2197-.61 2.0037-.61 2.7006 0 .4356.087.7841.087.9583 0 .2614-.261.0871-.348 0-.088-.1742-.349-.6969-.349-1.481 0-.6969.349-2.6135.871-4.4429.523-.8712 1.394-3.48466 2.527-3.48466z"/><path d="m138.777 20.7178c.087 0 .174 0 .174.0871s-.348.4356-.523.6098c-.261.2614-.348.6969-.522.6969-.088 0-.088-.0871-.088-.1742s0-.0871 0-.1742c0-.2614-.261-.1743-.261-.3485 0-.0871.436-.4356.61-.5227.087-.0871.436-.1742.61-.1742z"/><path d="m138.515 22.4602c.087 0 .174 0 .174.0871s-.435.3485-.522.4356-.523.6969-.61 1.0454-.174.4356-.261.4356c-.175 0-.088-.3485-.262-.4356-.087-.0871-.435-.0871-.435-.2613 0-.1743.261-.4356.522-.6099.262-.2613.784-.6969 1.394-.6969z"/><path d="m136.686 19.2368c.087 0 .174.0871.261.1743.088.0871 0 .1742.088.2613.087.0871.435.1742.435.3485 0 .1742-.174.1742-.261.2613s-.349.1742-.523.5227-.261.7841-.348 1.3068c0 .6098-.262 1.1325-.523 1.6552-.349.5227-.784.9583-1.046 1.3938-.261.3485-.174.7841-.348.7841-.261 0-.261-.6098-.261-.8712 0-.2613.087-.9583.609-1.481.61-.6098 1.133-.6098 1.133-1.5681 0-.6098-.087-.784-.087-1.1325.087-.6098.174-1.6552.871-1.6552z"/></g><path d="m111.597 5.90792c.348 0 0 .17423.522.78405.262.26135.436.34846 1.133.34846.435 0 .958-.08711 2.352-.69693.523-.26135 1.481-.5227 2.091-.5227.871 0 1.481.43558 1.916.78405.436.34847 1.046.78405 1.22.95828.261.17424.61.43558.784.43558.174.08712.174.17424.087.26136 0 .08711-.174.34846-.261.43558 0 .08712-.175.17423-.262.17423s-.435.17423-.871.5227c-.435.34847-1.219.78402-2.091.78402-.871 0-2.265-.34844-3.049-.34844-.348 0-.784.17424-1.132.52274-.087.1742-.262.3484-.349.4355-.087.0872-.348.2614-.522.2614-.087 0-.262-.0871-.262-.1742 0-.1743.436-.2614.436-.6099 0-.34842-.087-.34842-.087-.52265 0-.17424.087-.43559.348-.69694.436-.43558 1.568-.69693 2.614-.69693.784 0 2.178.34847 3.223.34847.436 0 .784-.08712.958-.17424.262-.08711.175-.26134.087-.26134-.087 0-.087.08711-.348.08711s-.871-.17423-1.394-.5227c-.523-.34846-1.307-.78405-2.091-.78405s-1.394.26135-1.568.34847c-.61.26135-1.916 1.0454-2.7 1.0454-.697 0-1.569-.34847-1.569-.95828 0-.60982.61-.60982.61-.95829 0-.08711 0-.08711 0-.17423-.087-.17423 0-.43558.175-.43558z" fill="#ec1b2d"/><path d="m120.57 11.2222c.174 0 .174.1742.261.2613s.174 0 .261.1743c.175.1742.088.2613.175.3484s.261.0871.261.1743c0 .3484-.087.8711-.087 1.6552 0 .6098.087 1.2196.261 1.8294.087.2614-.087.2614-.174.0871-.61-1.1325-1.132-2.7006-1.132-4.0073 0-.2614.087-.5227.174-.5227z" fill="#303436"/><path d="m119.873 12.4418c.087 0 .087.0871.087.1742s-.262.9583-.61 1.481-.958 1.1325-1.22 1.1325c-.087 0-.087-.0871-.087-.1742 0 0-.087-.1743.087-.2614.175-.0871.175-.1742.175-.2613s-.087-.1743-.087-.2614.087-.2613.174-.2613c.087-.0871.697-.3485 1.045-.7841.174-.4356.261-.784.436-.784z" fill="#303436"/><path d="m120.221 20.0209c.087-.697.174-1.3939.174-2.0037.435.1742.697.4356.697.8711 0 .6099-.697 1.0454-.871 1.1326zm.174-3.0491c0-.0871 0-.1743 0-.3485 0-1.3939-.261-2.265-.523-2.265-.261 0-.61 1.3938-.697 2.0908-.435-.1743-.784-.1743-.958-.1743-.697 0-.784.1743-.784.3485s.174.4356.348.6098c.436.4356.872.4356 1.394.4356-.087.8712-.174 1.9166-.174 2.3522v.5227c-.436.2613-1.22.6969-1.481.9582-.348.3485-.436.6098-.436.8712 0 .9583.785.8712.785 1.5681 0 .2613-.175.5227 0 .5227.261 0 .435-.4356.435-.7841 0-.2613-.261-.784-.261-1.0454 0-.2613.087-.6098.522-1.0454.088-.0871.262-.1742.349-.2613 0 .8712.087 1.8294.087 2.0037 0 .3484 0 1.2196.261 1.2196.175 0 .523-1.7423.697-2.8748 0-.2614.087-.6098.087-.9583.175-.0871.349-.1742.523-.2614.784-.5227 1.307-1.0454 1.307-1.7423.087-.8712-.61-1.3939-1.481-1.7423z" fill="#303436"/></svg>