<svg fill="none" height="28" viewBox="0 0 108 28" width="108" xmlns="http://www.w3.org/2000/svg" xmlns:xlink="http://www.w3.org/1999/xlink"><clipPath id="a"><path d="m0 .064575h108v27.871h-108z"/></clipPath><g clip-path="url(#a)"><path clip-rule="evenodd" d="m31.0142 8.28644v2.53066h.9058c.0628-.0059.1262.0026.1853.0247s.1125.0573.156.1029c.0436.0457.0763.1006.0956.1607s.0248.1237.016.1862v4.9102c0 1.2249-.5574 2.0687-1.5071 2.0687-1.1149 0-1.6723-.6968-1.6723-2.7299v-7.25416h-6.5852v2.53066h.7135c.057-.0068.1148-.0007.1692.0177.0544.0185.1039.0488.145.0889s.0727.0889.0925.1428.0272.1115.0218.1687v4.3973c0 4.5172 1.3601 6.6396 5.4669 6.6396.771.0205 1.5339-.1624 2.2118-.5302.678-.3677 1.2472-.9075 1.6504-1.565l.8619 1.7141h5.0133v-2.6478h-.8939c-.0595.0046-.1192-.0038-.175-.0247-.0558-.0208-.1064-.0537-.1483-.0961-.0418-.0425-.0738-.0936-.0938-.1498-.02-.0561-.0275-.116-.0219-.1753v-10.51086zm9.0448 0v2.47356h.7191c.0566-.0061.1138.0006.1676.0194.0537.0188.1025.0493.143.0893s.0716.0885.091.142.0267.1107.0213.1674v7.6484c.0045.0574-.0037.1149-.0241.1687s-.0524.1023-.0938.1423c-.0413.0399-.091.0702-.1454.0888-.0544.0185-.1122.0247-.1694.0183h-.7093v2.6477h7.6158v-2.6477h-.8668c-.0577.0046-.1157-.0031-.1701-.0227-.0544-.0195-.1041-.0505-.1455-.0908-.0415-.0403-.0739-.089-.0951-.1429-.0212-.0538-.0306-.1116-.0276-.1693v-10.53246zm18.2458-.21739c-1.195.02076-2.3504.43159-3.2902 1.16988l-.4773-.95249h-6.2138v2.55786h.6967c.0596-.0037.1192.0053.1749.0265.0558.0212.1063.0541.1483.0965s.0744.0933.0951.1492.0292.1156.0249.1751v13.13c.0028.0567-.0062.1134-.0264.1664-.0203.053-.0514.1012-.0913.1415s-.0878.0719-.1406.0926c-.0528.0208-.1094.0304-.1661.0281h-.7176v2.5906h8.1348v-2.5906h-1.0507c-.0572.0052-.1147-.0023-.1686-.0222-.0538-.0198-.1025-.0514-.1426-.0925-.0401-.041-.0704-.0905-.0889-.1448s-.0247-.1121-.018-.1691v-3.2943c1.0136.7659 2.2683 1.1427 3.5361 1.0619 3.509 0 6.2013-2.6666 6.2013-6.9929-.0007-3.865-2.1767-7.13004-6.42-7.13004zm-1.3595 10.58195c-1.0333 0-1.9586-1.4152-1.9586-3.2651-.1087-2.1496.8703-3.4839 1.9315-3.4839 1.197 0 1.9579 1.7141 1.9579 3.3445.0014 2.0715-.7887 3.4045-1.9308 3.4045zm18.2318-10.58474c-1.1949.02086-2.3503.43168-3.2901 1.16988l-.4773-.9497h-6.2139v2.55786h.6968c.0595-.0037.1192.0053.1749.0265.0558.0212.1063.0541.1483.0965s.0744.0933.0951.1492.0292.1156.0249.1751v13.13c.0028.0567-.0062.1134-.0264.1664-.0203.053-.0514.1012-.0913.1415s-.0878.0719-.1406.0926c-.0528.0208-.1094.0304-.1661.0281h-.7176v2.5906h8.1348v-2.5906h-1.05c-.0572.0054-.1148-.0021-.1687-.0219s-.1027-.0514-.1428-.0925-.0705-.0906-.0889-.145c-.0185-.0543-.0245-.1122-.0177-.1692v-3.2943c1.0133.7659 2.2678 1.1427 3.5354 1.0619 3.509 0 6.2013-2.6666 6.2013-6.9929 0-3.865-2.176-7.13004-6.4201-7.13004zm-1.3594 10.58474c-1.0333 0-1.9579-1.4152-1.9579-3.2651-.1087-2.1496.8703-3.4839 1.9308-3.4839 1.197 0 1.9586 1.7141 1.9586 3.3445 0 2.0715-.7895 3.4045-1.9315 3.4045zm17.0856.1783c-.7201.0488-1.4334-.166-2.0068-.6043s-.9679-1.0703-1.1098-1.7779h8.8824c.4391-1.5043.4204-3.1052-.0536-4.5987-.7888-2.28617-3.2644-3.94588-6.5016-3.94588-4.1061 0-7.3161 2.63938-7.3161 7.10218 0 5.2258 3.8078 7.374 7.1809 7.374 1.2429.0568 2.4833-.1581 3.6347-.6297 1.1513-.4716 2.1861-1.1886 3.032-2.101l-1.9342-2.2763c-1.0394.9497-2.4 1.4705-3.8079 1.4576zm-1.1378-7.2527c1.7419 0 1.9851 1.3782 2.013 2.4122h-4.1075c.053-.68.4348-2.4122 2.0945-2.4122zm18.2255.5135v-4.4865c-2.801 0-3.509 1.11484-4.216 2.422l-.815-1.74195h-5.114v2.54605h.6605c.063-.0053.1265.0021.1866.0219.06.0197.1155.0514.163.0931.0476.0417.0863.0926.1137.1495.0274.057.0431.1189.0461.1821v7.4973c.0072.0694-.0009.1395-.0237.2054s-.0598.1261-.1084.1762c-.0485.05-.1075.0889-.1727.1137-.0652.0249-.135.0351-.2046.0301h-.6877v2.5899h7.6972v-2.5892h-.881c-.066.0073-.134-.0009-.197-.0238s-.12-.06-.166-.1085c-.046-.0484-.081-.1069-.101-.1708-.02-.064-.025-.1317-.015-.1979v-3.2749c0-2.3962 1.311-3.4337 3.835-3.4337zm-87.3239 7.9718c0 .9678-.2487 1.4214-.8438 1.4214-.7706 0-1.2904-1.0242-1.4632-2.006 1.6959-1.8506 2.5599-4.4733 2.5599-7.7126 0-6.57194-3.2685-10.952556-10.547-10.952556-6.20133 0-10.3617695 4.442636-10.3617695 10.735856 0 7.2813 4.3199995 10.922 10.5470695 10.922.8057.0034 1.6103-.0586 2.406-.1854.3992 1.0029 1.088 1.8643 1.9786 2.4742s1.9427.9408 3.0221.9505c3.0839 0 4.913-1.751 4.913-5.4495v-.9964h-2.2109zm-10.2001-2.16c-2.57804 0-3.6887-2.8491-3.6887-6.3643 0-3.51524 1.15665-6.35877 3.6887-6.35877 2.5321 0 3.6929 2.84911 3.6929 6.36367 0 3.5145-1.1134 6.3636-3.6929 6.3636zm33.0968-17.349653c-.627-.000412-1.24.185039-1.7616.532913-.5216.34788-.9283.84257-1.1689 1.42156-.2405.57898-.304 1.21628-.1824 1.83134.1215.61506.4227 1.18029.8654 1.62425s1.007.74673 1.6217.87004c.6148.12331 1.2522.06163 1.8319-.17725s1.0755-.64423 1.4249-1.16483c.3493-.5206.5365-1.13308.5379-1.76004 0-.8407-.3339-1.64698-.9283-2.24151-.5944-.594527-1.4006-.928624-2.2413-.928809z" fill="#00beff" fill-rule="evenodd"/></g></svg>