<svg fill="none" height="33" viewBox="0 0 126 33" width="126" xmlns="http://www.w3.org/2000/svg" xmlns:xlink="http://www.w3.org/1999/xlink"><linearGradient id="a" gradientUnits="userSpaceOnUse" x1="2.08173" x2="29.0399" y1="24.1668" y2="8.60239"><stop offset="0" stop-color="#057472"/><stop offset=".4" stop-color="#4fb645"/></linearGradient><clipPath id="b"><path d="m0 .620605h126v31.4476h-126z"/></clipPath><g clip-path="url(#b)"><path d="m2.28529 8.25193c2.13843-3.52212 5.68153-6.16372 10.04221-7.10715 4.2769-.901497 8.7634.14676 12.1388 2.41098-.7547.33544-3.4383-1.15308-5.2832 4.29784-1.1111 3.3125-3.9414 3.9834-7.9248 1.09018-5.59764-4.04625-7.67318-.06289-8.97301-.69185zm6.03793 7.84097c-.96439-1.6563-1.40465-2.9351-2.62063-4.0882-1.17404-1.0902-2.95607-1.0483-3.98336-.1677-1.949749 1.6562-2.012644 5.367-1.299832 8.2602 2.075542 8.3231 10.545402 13.4596 18.889502 11.384 8.3441-2.0755 13.3967-10.5035 11.3421-18.8476-.587-2.3481-1.6143-4.50746-2.8722-5.6186-2.0127-1.76107-3.5641-.60799-4.0882.92246-.9434 2.72544-.566 7.54744-2.39 10.52444-3.1657 5.1574-9.9584 2.8303-12.97738-2.369" fill="url(#a)"/><path d="m100.464 22.9066h4.005c1.929 0 3.228-1.0064 3.228-3.1448 0-1.7401-1.572-3.1238-3.627-3.1238h-3.606zm.021-7.7152h3.439c1.887 0 3.312-1.2788 3.312-2.9141 0-1.8449-1.006-2.93512-2.893-2.93512h-3.858zm3.942 9.2037h-5.1785c-.1468 0-.2726-.1258-.2726-.2726v-15.01094c0-.60798.4822-1.09018 1.0901-1.09018h4.214c2.558 0 4.361 1.65624 4.361 4.33972 0 1.4047-.692 2.6416-1.887 3.4593 1.405.8176 2.348 2.2223 2.348 3.9204.021 2.8723-1.866 4.6543-4.675 4.6543zm-56.3333-3.2706s.1677-.587.2935-.8595l4.801-11.2373c.3564-.79667.6919-1.02729 1.1531-1.02729h.5451c.021 0 .0419.02097.0419.04193l.7548 16.26886c0 .042-.021.0629-.0629.0629h-1.4466c-.042 0-.0629-.0209-.0839-.0629l-.5031-11.2372c-.021-.3984-.021-1.216-.021-1.216s-.2726.8386-.4403 1.216l-4.8429 11.1534c-.0839.1887-.3354.1887-.4193 0l-4.8429-11.1534c-.1468-.3774-.4403-1.216-.4403-1.216s0 .8176-.021 1.216l-.5031 11.2372c0 .042-.042.0629-.0629.0629h-1.4466c-.0419 0-.0629-.0209-.0629-.0629l.7547-16.26886c0-.02096.021-.04193.042-.04193h.5451c.4402 0 .7966.23062 1.153 1.02729l4.822 11.2373c.1258.2725.2935.8595.2935.8595zm37.3178 0s.1677-.587.2935-.8595l4.801-11.2373c.3564-.79667.6919-1.02729 1.1531-1.02729h.5451c.021 0 .0419.02097.0419.04193l.7548 16.26886c0 .042-.042.0839-.0839.0839h-1.4256c-.0419 0-.0629-.021-.0629-.0629l-.5032-11.2373c-.0209-.3983-.0209-1.216-.0209-1.216s-.2726.8387-.4403 1.216l-4.8429 11.1534c-.0839.1887-.3355.1887-.4193 0l-4.843-11.1534c-.1467-.3773-.4402-1.216-.4402-1.216s0 .8177-.021 1.216l-.5032 11.2373c0 .0419-.0209.0629-.0628.0629h-1.4466c-.042 0-.0629-.021-.0629-.0629l.7547-16.26889c0-.02097.021-.04193.0419-.04193h.5451c.4403 0 .7967.23061 1.1531 1.02729l4.801 11.21633c.1048.2725.2935.8595.2935.8595zm-21.8456-2.6416-1.3837 5.8493c0 .0419-.0419.0629-.0629.0629h-1.4466c-.0419 0-.0838-.0419-.0628-.0839l3.2076-13.6482c.3983-1.74012 1.5514-2.64162 2.9561-2.64162h.0838c1.3837.04193 2.4949.92246 2.8723 2.64162l3.2076 13.6482c.021.042-.021.0839-.0629.0839h-1.4256c-.0419 0-.0629-.021-.0629-.0629l-1.4047-5.8702h-6.4153zm.3774-1.6143h5.6815l-1.4046-6.0589c-.2097-.83857-.7128-1.23691-1.3628-1.25787h-.0629c-.6708 0-1.2159.39833-1.4256 1.25787zm50.6937 1.9917.021-10.81796c0-.02096.021-.04193.042-.04193.251-.02096 1.53-.06289 1.53 1.44659v9.4343c0 2.1174 1.279 4.0462 4.004 4.0462 2.705 0 4.005-1.9288 4.005-4.0462v-9.4343c0-1.50948 1.279-1.46755 1.53-1.44659.021 0 .042.02097.042.04193l-.021 10.81796c0 3.2706-2.012 5.5767-5.576 5.5767-3.565 0-5.577-2.3061-5.577-5.5767z" fill="#000"/></g></svg>