<svg fill="none" height="27" viewBox="0 0 115 27" width="115" xmlns="http://www.w3.org/2000/svg" xmlns:xlink="http://www.w3.org/1999/xlink"><clipPath id="a"><path d="m0 .286919h115v26.6878h-115z"/></clipPath><g clip-path="url(#a)" clip-rule="evenodd" fill="#149347" fill-rule="evenodd"><path d="m.0839844 15.9048v-.0423c0-4.217 3.2343356-7.67115 7.6572256-7.67115 2.62929 0 4.21509.72057 5.73809 2.03455l-2.024 2.4791c-1.1268-.9534-2.12832-1.5045-3.81817-1.5045-2.33651 0-4.19392 2.0979-4.19392 4.6197v.0423c0 2.7125 1.83625 4.7047 4.42358 4.7047 1.16843 0 2.21131-.2967 3.02511-.8901v-2.119h-3.2343v-2.8185h6.3431v6.4418c-1.5022 1.2931-3.5677 2.3523-6.23867 2.3523-4.54848 0-7.6780456-3.242-7.6780456-7.6289z"/><path d="m15.7129 11.9208h3.1719v2.289c.6466-1.568 1.6902-2.5853 3.5677-2.5007v3.3692h-.1669c-2.1075 0-3.4008 1.2928-3.4008 4.0056v4.1955h-3.1719z"/><path d="m30.9442 16.71c-.1874-1.4407-1.0221-2.4154-2.3574-2.4154-1.3144 0-2.1703.9535-2.4204 2.4154zm-7.8866.9535v-.0423c0-3.242 2.2741-5.9122 5.5292-5.9122 3.7346 0 5.4456 2.9457 5.4456 6.167 0 .254-.0208.5507-.0419.8474h-7.7822c.313 1.4619 1.3145 2.2251 2.7331 2.2251 1.0643 0 1.8359-.3393 2.7122-1.1655l1.8154 1.6317c-1.0431 1.314-2.5457 2.1191-4.5696 2.1191-3.3589 0-5.8418-2.3946-5.8418-5.8703z"/><path d="m42.9002 16.71c-.1877-1.4407-1.0224-2.4154-2.3577-2.4154-1.3144 0-2.1696.9535-2.4197 2.4154zm-7.8865.9535v-.0423c0-3.242 2.274-5.9122 5.5288-5.9122 3.735 0 5.4457 2.9457 5.4457 6.167 0 .254-.0209.5507-.0417.8474h-7.7824c.3132 1.4619 1.3144 2.2251 2.7333 2.2251 1.064 0 1.8359-.3393 2.7123-1.1655l1.8154 1.6317c-1.0432 1.314-2.546 2.1191-4.5696 2.1191-3.3589 0-5.8418-2.3946-5.8418-5.8703z"/><path d="m47.0952 11.9209h3.1712v1.6106c.7303-.9535 1.6694-1.8224 3.276-1.8224 2.3993 0 3.7974 1.6106 3.7974 4.2173v7.353h-3.1719v-6.336c0-1.5258-.7095-2.3101-1.9192-2.3101-1.2104 0-1.9823.7843-1.9823 2.3101v6.336h-3.1712z"/><path d="m67.3317 17.6214v-.0423c0-1.8858-1.2514-3.1363-2.7331-3.1363-1.4813 0-2.7122 1.2505-2.7122 3.1363v.0423c0 1.8858 1.2309 3.1363 2.7122 3.1363 1.4817 0 2.7331-1.229 2.7331-3.1363zm-8.5749-5.7004h3.1712v1.6317c.7723-1.0595 1.8363-1.8435 3.4842-1.8435 2.6084 0 5.091 2.0768 5.091 5.8699v.0423c0 3.7931-2.4413 5.8699-5.091 5.8699-1.6899 0-2.7327-.7836-3.4842-1.6952v4.8742h-3.1712z"/><path d="m78.4114 19.2745v-.5723c-.5426-.2544-1.2517-.4238-2.0236-.4238-1.3564 0-2.1911.5507-2.1911 1.568v.0426c0 .8689.7094 1.3777 1.7321 1.3777 1.481 0 2.4826-.8266 2.4826-1.9922zm-7.2815.7417v-.0426c0-2.4792 1.857-3.6237 4.5065-3.6237 1.1271 0 1.9403.1906 2.733.4662v-.1906c0-1.3351-.8132-2.0768-2.3993-2.0768-1.21 0-2.0652.2332-3.0879.6148l-.7927-2.4584c1.2308-.5511 2.4412-.9112 4.3396-.9112 1.7322 0 2.9842.4662 3.7769 1.2713.834.8478 1.2097 2.0983 1.2097 3.624v6.5905h-3.0668v-1.2294c-.7722.869-1.8362 1.4412-3.3797 1.4412-2.1078 0-3.8393-1.2294-3.8393-3.4753z"/><path d="m82.5435 21.7749 1.3557-2.119c1.2104.89 2.4833 1.3562 3.5265 1.3562.9183 0 1.3353-.339 1.3353-.8474v-.0427c0-.6994-1.0852-.9323-2.3161-1.3139-1.5649-.4662-3.3387-1.2075-3.3387-3.4119v-.0423c0-2.3097 1.8366-3.6025 4.0895-3.6025 1.4189 0 2.963.4874 4.1734 1.314l-1.2104 2.2251c-1.1053-.6571-2.2116-1.0599-3.0255-1.0599-.7715 0-1.1684.3393-1.1684.7844v.0423c0 .636 1.0643.9323 2.2747 1.3562 1.5643.5299 3.3801 1.2928 3.3801 3.3692v.0427c0 2.5218-1.8571 3.6659-4.2772 3.6659-1.5653 0-3.3179-.5296-4.7989-1.7164z"/><path d="m92.3921 21.7749 1.3564-2.119c1.2098.89 2.4826 1.3562 3.5258 1.3562.9183 0 1.3353-.339 1.3353-.8474v-.0427c0-.6994-1.0845-.9323-2.316-1.3139-1.5647-.4662-3.3381-1.2075-3.3381-3.4119v-.0423c0-2.3097 1.8359-3.6025 4.0895-3.6025 1.4185 0 2.963.4874 4.173 1.314l-1.21 2.2251c-1.1063-.6571-2.2123-1.0599-3.0255-1.0599-.7725 0-1.1684.3393-1.1684.7844v.0423c0 .636 1.064.9323 2.2737 1.3562 1.5653.5299 3.3802 1.2928 3.3802 3.3692v.0427c0 2.5218-1.8568 3.6659-4.277 3.6659-1.5646 0-3.3172-.5296-4.7989-1.7164z"/><path d="m114.297 5.76745c-1.856-3.63786-8.816-5.121282-21.6232-5.19684 6.869 2.1929 13.0742 4.72235 15.0752 8.64406 2.013 3.94463.428 12.40183-1.744 17.47633 7.33-10.6547 10.139-17.30442 8.292-20.92355z"/></g></svg>