<svg fill="none" height="51" viewBox="0 0 132 51" width="132" xmlns="http://www.w3.org/2000/svg" xmlns:xlink="http://www.w3.org/1999/xlink"><linearGradient id="a" gradientUnits="userSpaceOnUse" x1="19.4111" x2="19.4111" y1=".206238" y2="50.9988"><stop offset="0" stop-color="#05a3ff"/><stop offset="1" stop-color="#1087ff"/></linearGradient><g clip-rule="evenodd" fill-rule="evenodd"><path d="m27.177.334671c-.6555.197311-1.322.680739-2.1024 1.524729-1.4563 1.57525-2.2641 3.88078-3.1518 8.9958l-.2502 1.4425-1.3477-.0011c-1.914-.0014-3.0293-.2143-4.0216-.7676-1.4696-.819-2.0669-.7176-2.8874.4906-.3093.4555-.7677.9841-1.0189 1.1748-.5922.4499-2.50718 1.5327-2.58065 1.4593-.0311-.0311-.18337-.5524-.33846-1.1584-.33932-1.3269-.36423-3.0921-.07065-4.99741.36169-2.34663.21349-3.56835-.55478-4.57573-.75435-.98895-2.18858-.97938-3.01244.02026-.56463.68482-.7946 1.58145-.77377 3.01582.02928 2.01998.61389 4.18396 1.97114 7.29696l.76138 1.7463-.53282.4201c-1.11322.8777-3.14051 3.0867-3.96747 4.3231-2.2733 3.3987-3.30756767 6.8396-3.29841987 10.9745.00731824 3.3359.59516987 5.7671 2.11904987 8.7636 1.24157 2.4412 2.71057 4.2878 4.77431 6.0013 3.64928 3.0301 7.76188 4.5147 12.50598 4.5147 5.2909 0 10.0896-1.9794 13.7424-5.6686 4.889-4.9377 6.7726-11.8435 5.061-18.5546-1.6505-6.4713-6.5333-11.609-12.973-13.6503l-1.4104-.4471.0877-.4366c.2108-1.0491.8358-2.89649 1.275-3.76862.5837-1.15882 1.0555-1.7067 2.533-2.94081 1.3206-1.10308 1.9755-2.00393 2.1103-2.90323.2032-1.35486-.5514-2.44556-1.676-2.422338-.323.006614-.7605.064316-.9724.128069zm.9138 16.182729c4.4743 1.5015 7.9951 5.5862 9.1435 10.6078.4211 1.8407.4171 4.7483-.0087 6.4766-.6113 2.4812-2.0399 4.8795-3.7526 6.2999-1.0551.875-3.0606 1.8569-4.3905 2.1498-6.3096 1.3889-12.8732-3.2598-14.8513-10.5185-.4295-1.5762-.4624-5.5421-.0587-7.0616.9107-3.427 3.1994-6.303 6.0564-7.611 1.5335-.702 2.6682-.9102 4.6592-.8548 1.6148.045 1.9909.1051 3.2027.5118zm-4.61 1.0682c-5.7519 1.2711-8.8727 7.6646-6.8645 14.0633 1.8892 6.0194 7.6067 9.7317 12.9026 8.3772 1.4997-.3836 2.6465-1.0293 3.8443-2.1645 2.3192-2.1978 3.391-5.0019 3.2358-8.4645-.2433-5.4299-3.6991-10.0838-8.6138-11.6004-1.3127-.405-3.2216-.4945-4.5044-.2111z" fill="url(#a)"/><path d="m86.358 16.5094c-.5939.9218-1.7848 2.3262-2.6253 3.0957l-.7166.6562.4082.4926c.2246.271.44.5404.4787.5988.0425.0638.2175-.0061.4401-.1759l.3696-.2819.0332 1.7809c.0492 2.6339.0339 2.6218 3.3203 2.6311l2.13.0059v.3139.3141l-3.1818.0278-3.1819.0279-.0311.71-.031.71 1.9243.0045 1.9245.0044-.4734.4162c-.5665.4982-1.7134 1.0785-2.5609 1.2958-.3383.0868-.6364.179-.6623.2051-.026.026.0107.3625.0817.7477l.1291.7006.3229-.0671c.704-.1463 1.9349-.6055 2.5666-.9575.7096-.3954 2.0123-1.5539 2.3055-2.0503.1369-.2317.2544-.2994.5197-.2994h.3431l.0288 1.7618.0288 1.7618.7626.031.7626.0309v-1.7928-1.7927h.3592c.3102 0 .4126.0728.752.5351.5786.7882 1.5515 1.5472 2.6228 2.0463.9423.4388 2.2307.8503 2.3352.7458.0302-.0302.1124-.3604.1825-.7338l.1276-.6789-.6605-.1788c-.3635-.0983-.9574-.3191-1.3201-.4907-.6719-.3177-1.6639-1.0102-1.6639-1.1614 0-.046.8283-.0836 1.8407-.0836h1.8407v-.7363-.7363h-3.2081-3.2081v-.3139-.314l2.9714-.0279 2.9715-.0279v-.6837-.6837l-2.8137-.028-2.8137-.0281v-.3138-.3138h2.6296 2.6297v-.6837-.6837h-2.6297-2.6296v-.3156-.3155h2.6296 2.6297v-.6837-.6837h-2.6297-2.6296v-.3139-.3138l2.8137-.0281 2.8137-.028v-.6837-.6837l-2.6822-.0553c-1.4752-.0304-2.6252-.0659-2.5556-.0789.137-.0254.8726-.9436.8726-1.0889 0-.0881-1.1782-.7228-1.3417-.7228-.047 0-.1742.1502-.2826.3337-.3369.5705-.9343 1.1634-1.3734 1.3634-.3297.1502-.6889.1922-1.6595.1939l-1.2387.0024.3709-.5509c.2041-.3029.371-.5862.371-.6295 0-.0835-1.1989-.7171-1.3381-.7071-.0451.0032-.2708.2991-.5016.6574zm-9.5569-.3426c-.2804.0471-.5317.1074-.5584.134-.0267.0268.0478.7046.1653 1.5062.1176.8017.2512 1.789.2971 2.1939.063.5568.1214.732.2395.7188.0858-.0096.3862-.0489.6676-.0871l.5115-.0696-.0686-1.0173c-.0376-.5596-.1207-1.5735-.1844-2.2533-.1305-1.3896-.0434-1.2977-1.0696-1.1256zm-25.3129.9907v.9958l-1.1833.0297-1.1833.0298v4.1548 4.1548l1.1833.0297 1.1833.0298v1.2588 1.2587h-1.2096-1.2096v.7934.7933l3.1122-.0307 3.1122-.0308.2537-.2952c.2361-.2747.2537-.3782.2537-1.4988v-1.2038h2.6822 2.6822v-.7889-.7889h-2.6822-2.6822v.7317.7317l-.7626.0309-.7626.0309-.0309.7626-.0309.7626h-.5739-.5739v-1.25-1.2499l.68-.0728c.7848-.0841 1.2547-.3521 1.5758-.8987.2064-.3513.216-.5265.216-3.8915v-3.5237l-1.2359-.0297-1.2359-.0295v-.996-.9959h-.7889-.7889zm17.3555.0034v.9993h-1.2096-1.2097v4.2074 4.2074h1.2097 1.2096v1.2622 1.2622h-1.2096-1.2097v.7889.7889h2.9836c2.8989 0 2.9918-.0064 3.2727-.2274l.2892-.2274.343.4085.3431.4086.5127-.4143c.282-.2278 1.107-.9947 1.8333-1.7041l1.3206-1.2899.5728.5887c.7105.7302 2.9609 2.7728 3.055 2.7728.038 0 .2974-.2671.5765-.5938l.5073-.5938-.7312-.6398c-1.0004-.8754-2.6754-2.5012-2.7851-2.7033-.0624-.1149.0062-.3079.2244-.6311 1.5081-2.2335 1.9867-3.7124 2.151-6.6452l.0751-1.3411h-.8394-.8395l-.0647 1.3516c-.093 1.9448-.2936 2.8048-.9726 4.1706-.3164.6364-.6489 1.2517-.7391 1.3674-.1612.2071-.1677.2056-.4207-.1051-.1414-.1736-.4718-.7465-.7343-1.2733-.5743-1.1527-.8332-2.3016-.9415-4.1802l-.0768-1.331h-.7913-.7913l.059 1.6041c.0919 2.4979.646 4.2763 1.9014 6.1018.269.391.489.7531.489.8046 0 .0516-.6745.7439-1.4989 1.5384l-1.4988 1.4446-.0305-.9128-.0304-.9127-.7585.0308-.7584.0308-.0309.7626-.031.7626h-.5738-.5739v-1.239-1.2388l.7498-.1182c.8361-.1315 1.1868-.3401 1.4747-.8769.1785-.3328.1947-.659.1947-3.9146v-3.5517h-1.2096-1.2096v-.9993-.9992h-.7889-.7889zm32.2123 6.6004.027 7.1788h5.89c6.655 0 6.631.0024 7.361-.73.739-.7419.721-.5642.764-7.4481l.039-6.1796h-7.054-7.054zm-45.0448-6.3374v.7363h2.5273 2.5274l-.0567.6574c-.0857.9943-.2647 3.7109-.2647 4.0167v.2696h-1.3099-1.3099l.0493-.4997c.067-.6792.2564-3.2825.2564-3.523 0-.1735-.0805-.1907-.7626-.163l-.7626.0309-.177 2.4192c-.0974 1.3306-.1802 2.5968-.1841 2.8137l-.007.3945h3.1029 3.103l-.0007 1.0255c-.0011 1.9184-.2643 2.7957-.9809 3.2701-.4071.2695-.4868.2813-2.1399.317l-1.717.0372v.7337.7339l1.9196-.0358c1.7458-.0326 1.9694-.0582 2.4694-.2832.6326-.2848 1.3288-.9889 1.6067-1.6251.2618-.5994.3975-1.6822.4801-3.8315l.0697-1.8144h-1.0638c-.7825 0-1.0632-.0348-1.0613-.1315.0013-.0723.0935-1.4773.2047-3.1222.1111-1.6448.1781-3.0293.1489-3.0767-.0292-.0472-1.5413-.0859-3.3602-.0859h-3.3071zm57.4308 6.0036v5.2674l-.307.3074-.308.3075h-5.109-5.11v-5.5748-5.5748h5.417 5.417zm-3.681-3.6416v.7935h-2.998-2.998v.7889.7889h2.314c1.304 0 2.314.0415 2.314.0948 0 .0522-.363.4343-.808.8494-.937.8749-2.375 1.8525-3.35 2.2772-.374.1631-.68.3528-.68.4216 0 .2922.462 1.3007.596 1.3007.228 0 1.593-.6754 2.349-1.1624.941-.6064 1.713-1.252 2.554-2.1367l.713-.7505-.03 1.6019c-.029 1.593-.031 1.6037-.32 1.8934-.266.2658-.376.296-1.262.3439l-.971.0526v.7363.7363l1.157-.0031c1.273-.0035 1.719-.1505 2.275-.7498.629-.6773.665-.8472.704-3.2704l.036-2.2352h.517.517v-.7889-.7889h-.521-.521l-.031-.7625-.031-.7626-.763-.031-.762-.0309zm-19.2492-.2583v.3156h-2.1037-2.1037v-.3156-.3156h2.1037 2.1037zm-39.0236 2.84v2.6296h-.4207-.4208v-2.6296-2.6296h.4208.4207zm2.3948-.0263-.0281 2.6033-.3945.0326-.3944.0327v-2.636-2.6359h.4225.4226zm14.9607.0263v2.6296h-.4207-.4208v-2.6296-2.6296h.4208.4207zm2.3947-.0263-.028 2.6033-.3945.0326-.3944.0327v-2.636-2.6359h.4225.4226zm19.2734-.8152v.3156h-2.1037-2.1037v-.3156-.3155h2.1037 2.1037zm0 1.9985v.3156h-2.1037-2.1037v-.3156-.3155h2.1037 2.1037zm-31.3188 10.4895-.3419.0423v4.9774 4.9773l.2367.0635c.3043.0815 1.0105.0815 1.3148 0l.2367-.0635.0023-3.7481.0023-3.7481.2094.263c.4421.5554 3.1571 4.6378 3.9269 5.9051.548.9018.8831 1.3496 1.042 1.3922.3021.081 1.009.0806 1.3122-.0006l.2367-.0635v-4.9697-4.9697l-.447-.058c-.2458-.0318-.6364-.0256-.8678.0138l-.4207.0717-.0278 3.5068-.0277 3.5069-1.2733-1.9309c-1.0879-1.6495-2.8876-4.1358-3.5366-4.8856-.2012-.2326-.9282-.3627-1.5772-.2823zm25.1239.0903c-.8545.2297-1.5188.6368-2.2041 1.3505-1.0325 1.0753-1.4278 2.1176-1.4191 3.7422.0181 3.392 2.8465 5.7017 5.983 4.8859.3448-.0897.9737-.3501 1.3976-.5785.4239-.2286.7879-.4155.8091-.4155.0211 0 .053.1975.0709.4388.0275.3747.0755.4532.3272.5367.1622.0536.458.0671.6574.0296l.3625-.068v-2.6774-2.6775h-2.2089-2.2089v.7363.7363h1.42 1.42v.2672c0 .594-.6909 1.4849-1.46 1.8826-.4709.2435-1.5201.3751-2.1601.2708-.7528-.1224-1.3039-.4162-1.7896-.9538-.6729-.7448-.8488-1.2558-.8488-2.4661 0-.9373.0319-1.1167.2924-1.6473.3512-.7151.9463-1.2773 1.7461-1.6499.4949-.2305.7366-.2748 1.4852-.2717 1.1091.0046 1.831.3013 2.6754 1.0999l.5711.5403.5857-.4327c.3221-.2379.5856-.4884.5856-.5567 0-.2161-1.4-1.5006-1.8934-1.737-1.137-.5451-2.9744-.7137-4.1963-.385zm21.2361.0319c-.885.2863-1.456.6157-2.066 1.1931-1.114 1.0531-1.63 2.2451-1.63 3.7626 0 1.5271.568 2.8034 1.701 3.8227 3.036 2.7289 7.858 1.0003 8.537-3.0602.42-2.5092-1.278-5.1094-3.758-5.7553-.821-.2138-2.059-.1973-2.784.0371zm-54.5372 1.0255c-1.245 2.7895-3.3466 8.6661-3.1643 8.8485.0905.0904 1.5916.107 1.6802.0184.0328-.0327.2299-.6244.4382-1.3148.2082-.6904.4124-1.2906.4537-1.3338.0414-.0432.4989-.1078 1.0169-.1435 1.02-.0704 2.5268.132 3.307.4441.4208.1684.4316.1863.7589 1.2555.3671 1.1995.3697 1.2019 1.2936 1.2016.8539-.0003.8617-.0217.479-1.3093-.6631-2.2304-1.8548-5.4158-2.8737-7.681l-.4731-1.0518-1.2071-.0296-1.207-.0294zm17.7939-1.0497c-.0391.0392-.0712.4183-.0712.8426v.7713h1.8407 1.8408v4.1425 4.1426l.2366.0635c.3049.0816 1.1152.0816 1.42 0l.2367-.0635v-4.1426-4.1425h1.7926 1.7925l-.0307-.8151-.0307-.8152-4.478-.0275c-2.4629-.015-4.51.0048-4.5493.0439zm23.5954 4.9038c0 5.6059-.0771 5.1261.8238 5.1235 1.0281-.003.9643.1309.9643-2.0253v-1.8969l1.0636.0648c1.343.0818 1.8099.2919 2.4576 1.1062.2609.328.7232 1.0565 1.0273 1.6189.4968.9187.5887 1.0297.9052 1.0919.3561.0699 1.5661-.0008 1.6631-.0973.028-.0289-.263-.5381-.648-1.1317-.8008-1.2333-1.8057-2.3338-2.4174-2.6465l-.4188-.2141.7071-.2291c.8858-.2871 1.4138-.709 1.7971-1.436.275-.5218.296-.6392.258-1.4686-.066-1.4424-.565-2.1076-1.9078-2.5464-.5635-.1841-1.0137-.2181-3.4614-.2611l-2.8137-.0495zm21.1829-4.821c-.032.0835-.039 1.6574-.015 3.4974.035 2.7297.075 3.4423.215 3.8715.541 1.6514 1.756 2.5211 3.704 2.6518 2.191.1472 3.821-.8112 4.363-2.5644.195-.6314.212-.9736.212-4.1524v-3.4642l-.868.0306-.867.0305-.053 3.4711c-.057 3.7836-.056 3.7733-.701 4.3859-.439.4173-.994.6104-1.755.6104-.979 0-1.666-.3775-2.107-1.1571l-.328-.5785-.034-3.3922-.034-3.3922h-.837c-.633 0-.851.0371-.895.1518zm10.557-.0928c-.044.0447-.079 2.2925-.079 4.9951v4.9139l.236.0635c.305.0815 1.011.0815 1.315 0 .232-.0622.237-.0944.237-1.629v-1.5655h1.467c.807 0 1.718-.0532 2.025-.1182 1.756-.3727 2.666-1.5397 2.654-3.4055-.009-1.4778-.685-2.4916-2-2.9995-.572-.221-.832-.2444-3.2-.2884-1.417-.0263-2.612-.0111-2.655.0336zm-70.839 2.649c.4649 1.1138 1.2326 3.1228 1.2326 3.2259 0 .0291-.4615.0251-1.0256-.0086-.5906-.0354-1.355-.0099-1.8024.0601-.4274.0669-.7956.103-.8186.0802-.0701-.0703 1.4546-4.0752 1.7194-4.5158.1003-.1671.2357.0587.6946 1.1582zm44.6954-1.0208c.5858.1627.82.5288.82 1.2823 0 .7924-.2143 1.1692-.8392 1.4756-.4163.2041-.6822.238-2.1323.2717l-1.6567.0386v-1.5888-1.5888l1.7093.0006c.9401.0003 1.8846.0492 2.0989.1088zm10.4716.3151c.729.3642 1.315.9599 1.64 1.6663.319.6925.316 2.0735-.005 2.7724-.338.7351-1.131 1.4766-1.879 1.7575-.817.307-1.962.269-2.701-.0897-1.961-.9519-2.53-3.4426-1.188-5.2025.618-.8092 1.508-1.2119 2.695-1.2187.684-.004.89.041 1.438.3147zm21.199-.0671c.437.2961.636.7606.636 1.4833 0 .7975-.227 1.2469-.771 1.5241-.362.1849-.619.2114-2.049.2114h-1.634v-1.7443-1.7445l1.762.0352c1.52.0303 1.802.0625 2.056.2348z" fill="#000"/></g></svg>