<?xml version="1.0" encoding="UTF-8"?>
<svg xmlns="http://www.w3.org/2000/svg" xmlns:xlink="http://www.w3.org/1999/xlink" width="139px" height="48px" viewBox="0 0 139 48" version="1.1"><title>D18646D0-641D-4C08-B995-7C6F8F7757D8</title><defs><polygon id="path-1" points="0 -4.7161511e-15 132.625164 -4.7161511e-15 132.625164 35.2405723 0 35.2405723"/></defs><g id="Skeletor-Starter-&amp;-Dev-Prep" stroke="none" stroke-width="1" fill="none" fill-rule="evenodd"><g id="Block-Editor---Header/Footer" transform="translate(-660.000000, -4113.000000)"><g id="Footer" transform="translate(480.000000, 4059.500000)"><g id="PathAi-Logo-Copy-3" transform="translate(180.000000, 53.500000)"><path d="M58.9665959,24.1176298 C62.6490213,24.1176298 64.5154561,22.561825 64.5154561,19.4926946 C64.5154561,16.4009971 62.7114128,14.9036014 59.0037653,14.9036014 L53.9580195,14.9036014 L53.9580195,24.1176298 L58.9665959,24.1176298 Z M51.9561819,34.9140126 C51.759715,34.9140126 51.5990901,34.7533877 51.5990901,34.5502835 L51.5990901,12.9216759 C51.5990901,12.7252091 51.759715,12.5645842 51.9561819,12.5645842 L59.2055421,12.5645842 C64.0800432,12.5645842 66.8796954,15.0894484 66.8796954,19.4926946 C66.8796954,23.8946134 64.0694234,26.4247874 59.1697001,26.4247874 L53.9580195,26.4247874 L53.9580195,34.5502835 C53.9580195,34.7533877 53.7973946,34.9140126 53.6009277,34.9140126 L51.9561819,34.9140126 Z" id="Fill-1" fill="#343534"/><path d="M75.9238066,26.357086 C74.2485287,26.357086 70.3444143,26.6849732 70.3444143,29.7328639 C70.3444143,32.632077 73.6830228,32.942707 75.1193546,32.942707 C76.826492,32.942707 79.6938456,32.5391535 79.6938456,29.8005653 L79.6938456,26.606652 C79.0553284,26.5137285 77.7437796,26.357086 75.9238066,26.357086 Z M75.1193546,35.1834907 C71.6718929,35.1834907 67.9841575,33.7524689 67.9841575,29.7328639 C67.9841575,24.4906512 74.2179967,24.0870978 76.1255833,24.0870978 C77.8738725,24.0870978 78.987627,24.2371028 79.6513662,24.351266 C79.511981,21.3750592 77.9150243,19.9904991 74.6480997,19.9904991 C72.496257,19.9904991 70.7121259,20.5347652 70.1213979,20.7153023 C70.0895385,20.7259222 70.0536965,20.7312321 70.0178546,20.7312321 C69.9448433,20.7312321 69.8665221,20.70601 69.8054581,20.6582208 C69.716517,20.5918468 69.6594354,20.4829936 69.6594354,20.3688304 L69.6594354,18.7506341 C69.6594354,18.5953191 69.7576688,18.4599163 69.9036915,18.4081447 C70.7904471,18.1134444 72.5998003,17.61564 74.751643,17.61564 C79.5995946,17.61564 82.0580848,20.0422707 82.0580848,24.817211 L82.0580848,29.8005653 C82.0580848,34.7945395 76.7481707,35.1834907 75.1193546,35.1834907 Z" id="Fill-2" fill="#343534"/><path d="M90.6920051,35.1834907 C87.6215473,35.1834907 86.0710524,33.6436156 86.0710524,30.6103272 L86.0710524,20.0887325 L83.8103565,20.0887325 C83.6138896,20.0887325 83.4532647,19.9281076 83.4532647,19.7303133 L83.4532647,18.2475198 C83.4532647,18.045743 83.6138896,17.8851181 83.8103565,17.8851181 L86.0710524,17.8851181 L86.0710524,13.6332044 C86.0710524,13.4301002 86.2276948,13.2694753 86.4294716,13.2694753 L88.1047495,13.2694753 C88.3012163,13.2694753 88.4618412,13.4301002 88.4618412,13.6332044 L88.4618412,17.8851181 L92.802696,17.8851181 C92.9991628,17.8851181 93.1650976,18.045743 93.1650976,18.2475198 L93.1650976,19.7303133 C93.1650976,19.9281076 92.9991628,20.0887325 92.802696,20.0887325 L88.4618412,20.0887325 L88.4618412,30.5426258 C88.4618412,32.201974 89.1879719,32.912175 90.8884719,32.912175 C91.5522112,32.912175 92.1442666,32.8139416 92.7509243,32.5962351 C92.7920761,32.5803054 92.827918,32.5749954 92.8703974,32.5749954 C92.9420812,32.5749954 93.0150925,32.5962351 93.077484,32.6426968 C93.1704075,32.7103982 93.2274891,32.8192515 93.2274891,32.9334146 L93.2274891,34.5197515 C93.2274891,34.6803764 93.1186358,34.8250715 92.9633209,34.8675508 C92.1588689,35.0799474 91.4181359,35.1834907 90.6920051,35.1834907 Z" id="Fill-3" fill="#343534"/><path d="M108.343487,34.9445446 C108.140383,34.9445446 107.979758,34.7839197 107.979758,34.5874529 L107.979758,24.5795923 C107.979758,21.446743 106.605818,19.9904991 103.645541,19.9904991 C101.690165,19.9904991 99.8595718,20.581227 98.5997947,21.1095634 L98.5997947,34.5874529 C98.5997947,34.7839197 98.4391698,34.9445446 98.2413755,34.9445446 L96.5621151,34.9445446 C96.3643208,34.9445446 96.2036959,34.7839197 96.2036959,34.5874529 L96.2036959,11.9473067 C96.2036959,11.7508399 96.3643208,11.5849051 96.5621151,11.5849051 L98.2413755,11.5849051 C98.4391698,11.5849051 98.5997947,11.7508399 98.5997947,11.9473067 L98.5997947,18.7201021 C100.487469,17.956802 102.209209,17.5837805 103.842007,17.5837805 C108.036839,17.5837805 110.345325,20.0674928 110.345325,24.5795923 L110.345325,34.5874529 C110.345325,34.7839197 110.183372,34.9445446 109.986905,34.9445446 L108.343487,34.9445446 Z" id="Fill-4" fill="#343534"/><path d="M136.193986,34.9445446 C135.99752,34.9445446 135.836895,34.7839197 135.836895,34.5874529 L135.836895,12.9216759 C135.836895,12.7252091 135.99752,12.5645842 136.193986,12.5645842 L137.838732,12.5645842 C138.035199,12.5645842 138.195824,12.7252091 138.195824,12.9216759 L138.195824,34.5874529 C138.195824,34.7839197 138.035199,34.9445446 137.838732,34.9445446 L136.193986,34.9445446 Z" id="Fill-5" fill="#D82332"/><g id="Group-9" transform="translate(0.000000, 12.564584)"><mask id="mask-2" fill="white"><use xlink:href="#path-1"/></mask><g id="Clip-7"/><path d="M126.601627,13.2070838 L122.670963,3.35453822 L118.770831,13.2070838 L126.601627,13.2070838 Z M130.489811,22.3799604 C130.345116,22.3799604 130.215023,22.2923468 130.157942,22.1622539 C129.650845,20.9436286 129.157023,19.6838515 128.675148,18.4652262 C128.291507,17.4961669 127.897246,16.4952481 127.497675,15.5089316 L117.848233,15.5089316 L115.218498,22.1516341 C115.166727,22.2923468 115.032651,22.3799604 114.886629,22.3799604 L113.071966,22.3799604 C112.952492,22.3799604 112.843639,22.3228788 112.777265,22.2193355 C112.709564,22.1211021 112.693634,21.9963191 112.740096,21.8821559 C114.218907,18.2780518 115.7017,14.6075737 117.138032,11.0552411 C118.574364,7.5029086 120.057157,3.82712058 121.534641,0.223016392 C121.586413,0.0876135824 121.721816,-4.7161511e-15 121.866511,-4.7161511e-15 L123.511257,-4.7161511e-15 C123.655952,-4.7161511e-15 123.786045,0.0876135824 123.843126,0.223016392 L132.600502,21.8874659 C132.641654,21.9963191 132.632362,22.1211021 132.56466,22.2246454 C132.496959,22.3228788 132.388105,22.3799604 132.268632,22.3799604 L130.489811,22.3799604 Z" id="Fill-6" fill="#D82332" mask="url(#mask-2)"/><path d="M26.4646118,22.5206731 C26.4646118,19.4767649 28.1916614,16.6399433 30.8824603,15.2341435 L27.408449,7.32635396 C27.103129,7.39936528 26.7911715,7.42989728 26.4699217,7.42989728 C25.3243078,7.42989728 24.229138,6.94802258 23.452563,6.12896833 L14.1748157,10.2773387 C14.1177341,11.8119039 12.8632669,13.0358391 11.3233918,13.0358391 C9.7463473,13.0358391 8.46665801,11.7495124 8.46665801,10.1737954 C8.46665801,9.78484418 8.54365176,9.41182272 8.68834692,9.05871343 L3.39436258,3.26692464 C3.05187312,3.4116198 2.68947148,3.4793212 2.31645002,3.4793212 C1.35668305,3.4793212 0.505769317,3.00275642 -0.0119473067,2.27131575 C-0.0584090549,2.60849529 -0.0796487113,2.95496719 -0.0796487113,3.30276656 L-0.0796487113,19.3878238 C-0.0796487113,22.1781837 1.41376463,24.7760591 3.82048318,26.1712391 L17.6966162,34.207794 C18.8634698,34.887463 20.2055506,35.2405723 21.5954206,35.2405723 C22.9799807,35.2405723 24.3286989,34.8821531 25.4955525,34.207794 L32.1581672,30.3448315 C28.8607105,29.2868311 26.4646118,26.1818589 26.4646118,22.5206731 Z" id="Fill-8" fill="#D82332" mask="url(#mask-2)"/></g><path d="M28.8965525,15.8102692 C28.8965525,14.4668609 27.8080201,13.3730186 26.4699217,13.3730186 C25.1371333,13.3730186 24.0486009,14.4668609 24.0486009,15.8102692 C24.0486009,17.1536775 25.1371333,18.2422098 26.4699217,18.2422098 C27.8080201,18.2422098 28.8965525,17.1536775 28.8965525,15.8102692 Z" id="Fill-10" fill="#343534"/><path d="M39.3663756,9.09057292 L25.4955525,1.04738055 C24.3127691,0.362401636 22.9640509,0 21.5954206,0 C20.2267902,0 18.8727621,0.362401636 17.6966162,1.04738055 L3.82048318,9.09057292 C3.23373768,9.4317349 2.70009131,9.84192576 2.22750896,10.3145081 C2.25936844,10.3145081 2.28990045,10.3091982 2.31645002,10.3091982 C3.89216702,10.3091982 5.1731838,11.5941974 5.1731838,13.1765518 C5.1731838,13.6332044 5.06433056,14.0779097 4.86255382,14.4827907 L10.0583048,20.1657262 C10.4525659,19.9692594 10.8826689,19.871026 11.3233918,19.871026 C12.1889078,19.871026 13.0026521,20.2652871 13.5482458,20.9383187 L22.4569541,16.9519007 C22.3520833,16.5775518 22.3003117,16.1939105 22.3003117,15.8102692 C22.3003117,13.4978016 24.1733839,11.620747 26.4699217,11.620747 C28.7717695,11.620747 30.6448417,13.4978016 30.6448417,15.8102692 C30.6448417,17.055444 30.1045579,18.201058 29.1872703,18.9895802 L32.7488951,27.0991465 C33.3714826,26.9491415 34.0099997,26.8761301 34.6471894,26.8761301 C38.9880442,26.8761301 42.5443591,30.28244 42.8098548,34.576833 C43.1045551,33.7418491 43.26518,32.8550934 43.26518,31.952408 L43.26518,15.8673508 C43.26518,13.0823008 41.7717666,10.4844254 39.3663756,9.09057292 Z" id="Fill-11" fill="#D82332"/><path d="M34.6471894,29.9505704 C31.8262976,29.9505704 29.5350696,32.2537456 29.5350696,35.0852573 C29.5350696,37.9207514 31.8262976,40.2239267 34.6471894,40.2239267 C37.4680813,40.2239267 39.7659466,37.9207514 39.7659466,35.0852573 C39.7659466,32.2537456 37.4680813,29.9505704 34.6471894,29.9505704 Z" id="Fill-12" fill="#343534"/></g></g></g></g></svg>