<svg fill="none" height="27" viewBox="0 0 134 27" width="134" xmlns="http://www.w3.org/2000/svg" xmlns:xlink="http://www.w3.org/1999/xlink"><clipPath id="a"><path d="m0 .678894h134v26.0762h-134z"/></clipPath><g clip-path="url(#a)" fill="#48b2e8"><path d="m62.6614 17.5854c-.2683-.3596-.6266-.6267-1.0291-.8065-.4026-.1798-.8494-.2683-1.2962-.2683-.5367 0-1.0291.0885-1.4759.314-.4469.1784-.8051.4911-1.1178.8493-.3126.3583-.5823.8051-.7165 1.2532-.1784.4911-.2683 1.0278-.2683 1.5203 0 .4924.0899.9835.2241 1.4303.1341.4482.4025.8507.7151 1.2076.3127.3569.7152.6266 1.1177.8051.4468.1798.9393.314 1.5203.314.5367 0 1.0291-.1355 1.4759-.3596.4026-.2228.7595-.5367 1.0735-.9379l1.119.8507c-.0899.0885-.1784.2227-.4025.4481-.1785.1785-.4026.3569-.7152.581-.3126.1798-.6709.3583-1.0734.4911-.4026.1355-.895.2241-1.476.2241-.7608 0-1.4317-.1342-2.0583-.4468-.6253-.2684-1.1177-.6709-1.5658-1.1634-.4469-.4468-.7595-1.0278-.9836-1.6088-.2241-.5823-.3582-1.2076-.3582-1.7899 0-.7595.1341-1.4303.3582-2.057.2684-.6266.5824-1.1633 1.0292-1.6544.4468-.4468.9835-.8051 1.6101-1.0734.6266-.2684 1.2975-.4025 2.057-.4025.6266 0 1.2532.1341 1.8785.3582.6266.2227 1.1177.6266 1.5216 1.1177l-1.0735.8507zm5.6811 2.1468h1.6987c.2684 0 .4911 0 .7595-.0443.2241-.0443.4468-.0885.6709-.2241.1798-.0885.3582-.2683.4911-.491.1355-.2241.1798-.4925.1798-.8051 0-.314-.0443-.5823-.1798-.8064-.0886-.1798-.267-.3583-.4468-.4911-.2241-.1355-.4469-.1798-.6709-.2241-.2684-.0456-.4911-.0456-.7595-.0456h-1.7v3.0874zm-1.2975-4.2481h3.3988c.6266 0 1.119.0886 1.5202.267.4039.1785.7152.4039.9406.6266.2227.2684.4012.5368.4911.8937.0886.314.1342.6266.1342.9406 0 .3113-.0443.6266-.1798.8936-.0886.2683-.267.5367-.4911.7594-.2241.2241-.4468.4482-.7595.5824-.3126.1784-.6266.2683-.9835.3126l2.7279 4.3836h-1.6558l-2.4595-4.2481h-1.476v4.2481h-1.2975v-9.6595zm14.2216 8.676c.5367 0 1.0748-.0886 1.5216-.3126.4468-.1785.8051-.4911 1.162-.8051.314-.3583.5823-.7608.7165-1.209.1798-.4911.2684-.9821.2684-1.4759 0-.5367-.0886-1.0292-.2684-1.476-.1785-.4481-.4025-.8507-.7152-1.2076-.3113-.3582-.7151-.6266-1.162-.8051-.4468-.224-.9392-.3139-1.5215-.3139-.5368 0-1.0735.0899-1.5203.3139-.4481.1785-.8051.4911-1.1633.8051-.3113.3583-.5823.7595-.7152 1.2076-.1784.4911-.267.9822-.267 1.476 0 .5367.0886 1.0291.267 1.4759.1785.4482.4039.8507.7152 1.2076.3126.3583.7152.6267 1.1633.8051.4468.2241.9379.314 1.5189.314zm0 1.2076c-.7152 0-1.4303-.1355-2.0127-.4025-.6252-.2684-1.1619-.6253-1.6088-1.0735-.4481-.4468-.8064-1.0278-1.0305-1.6088-.267-.6266-.3569-1.2975-.3569-2.0126 0-.7152.1342-1.3861.3569-2.0127.2241-.5823.5824-1.1633 1.0305-1.6102.4469-.4468.9822-.8064 1.6088-1.0734.6267-.2683 1.2975-.4039 2.0127-.4039s1.4304.1356 2.0127.4039c.6266.267 1.1633.6266 1.6101 1.0734.4468.4469.8064 1.0292 1.0292 1.6102.2683.6266.3582 1.2975.3582 2.0127 0 .7151-.1341 1.386-.3582 2.0126-.2228.5824-.5824 1.162-1.0292 1.6088-.4468.4482-.9835.8065-1.6101 1.0748-.6253.267-1.2962.4012-2.0127.4012zm9.5267-1.3874h1.9241c.1798 0 .4039 0 .6709-.0443.2241-.0443.4482-.1342.6709-.2227.2241-.1342.4039-.3127.5367-.4925.1342-.2227.2227-.491.2227-.8493 0-.5823-.1784-.9835-.5353-1.2975-.3583-.2684-.895-.4482-1.5216-.4482h-1.9228v3.3545zm0-4.5165h1.7899c.2228 0 .4925-.0442.7152-.0885.2241-.0443.4039-.1355.5823-.2684.1785-.1328.3127-.267.4026-.4468s.1355-.4025.1355-.6709c0-.4025-.1355-.7165-.3596-.9835-.2227-.2684-.6266-.4039-1.162-.4039h-2.0583v2.862zm-1.2962-4.0253h3.3545c.4025 0 .8051.0456 1.162.1355.3596.0886.6709.267.9392.4468.2684.1798.4468.4468.6266.7595.1356.3126.2241.6709.2241 1.0734 0 .5367-.1355 1.0305-.4481 1.3418-.3113.3596-.7152.6266-1.2077.7594v.0457c.314 0 .5824.0885.8065.224.2683.1342.491.3113.6708.5354.4026.4468.6267 1.0292.6267 1.6544 0 .4482-.0899.8051-.2684 1.1634-.1798.3139-.4481.6279-.7165.8507-.3126.2227-.6709.4025-1.0734.5367-.4026.1341-.8507.1784-1.3418.1784h-3.3102v-9.6595zm10.2432 0h1.2957v8.409h4.428v1.2076h-5.7237v-9.6609zm8.7217 9.6608h1.296v-9.6608h-1.296zm5.411-9.6608h1.699l5.323 7.9165h.044v-7.9165h1.298v9.6608h-1.653l-5.368-7.9165h-.044v7.9165h-1.297v-9.6608zm12.343 0h1.298v4.1595h.09l4.249-4.1608h1.833l-4.652 4.4721 4.966 5.1887h-1.924l-4.518-4.8304h-.088v4.8304h-1.298v-9.6608h.044zm-75.4066 9.6608h1.2975v-9.6608h-1.2975zm-14.0887-9.6608h1.9684l3.0861 7.2913h.0443l3.0418-7.2913h1.9671v9.6608h-1.2975v-7.9165h-.0443l-3.2646 7.9165h-.8493l-3.2659-7.9165h-.0443v7.9165h-1.2975v-9.6608z"/><path d="m.536714 2.3776 2.907646 2.90764 1.11771-1.1177-2.90765-2.90765zm-.536714 12.1217h4.11525v-1.5645h-4.11525zm24.3306-13.28369-2.9077 2.90765 1.1191 1.1177 2.9076-2.90764zm-12.1204 3.57854h1.5659v-4.115256h-1.5659zm9.7508 9.65955h4.1139v-1.5646h-4.1139zm3.5329 10.6014-2.9076-2.9077-1.1177 1.1178 2.9076 2.9076zm-23.79386 1.1633 2.90765-2.909-1.11905-1.1163-2.907647 2.9063zm10.55446.5354h1.5659v-4.1153h-1.5659z"/></g></svg>