<svg xmlns="http://www.w3.org/2000/svg" viewBox="0 0 322.84 95.2"><defs><style>.cls-1{fill:#fff;}.cls-2{fill:#f89925;}</style></defs><title>Asset 1</title><g id="Layer_2" data-name="Layer 2"><g id="Layer_1-2" data-name="Layer 1"><path class="cls-1" d="M43.7,67.6a13.94,13.94,0,0,1-1.8,3.8,12,12,0,0,1-2.6,3q-6.5-.8-9.5-5.7Q23.3,75,15.6,75a17.45,17.45,0,0,1-6.85-1.25,14,14,0,0,1-4.9-3.35A13.63,13.63,0,0,1,1,65.6,16.73,16.73,0,0,1,0,60a17.42,17.42,0,0,1,1.45-7.35,14.12,14.12,0,0,1,4.1-5.25,18.86,18.86,0,0,1,6.2-3.2,26.09,26.09,0,0,1,7.75-1.1q5.4,0,8.4.3V40.7q0-7.6-7.4-7.6-5,0-15.2,3.5-2.8-3.1-3.4-9.3a55.5,55.5,0,0,1,21.9-4.5q7.5,0,12.3,4.2t4.8,12.7V60.2Q40.9,65.5,43.7,67.6ZM18.5,65.1q5,0,9.4-4.4V52l-3.1-.2q-1.5-.1-2.9-.1-4.4,0-6.7,1.65T12.9,58.8a6.67,6.67,0,0,0,1.5,4.65A5.26,5.26,0,0,0,18.5,65.1Z"/><path class="cls-1" d="M72.4,74.5a21.81,21.81,0,0,1-10.3-2.7V87.1q0,4.5-1.6,6.3T55,95.2H49.9l-.6-.7V24.1l.6-.7h3.7A7.46,7.46,0,0,1,61,28.3a18.8,18.8,0,0,1,13.8-5.7,14.3,14.3,0,0,1,12.7,7q4.5,7,4.5,19a35.06,35.06,0,0,1-1.55,10.8,25.79,25.79,0,0,1-4.2,8.15A18.59,18.59,0,0,1,80,72.7,16.69,16.69,0,0,1,72.4,74.5ZM71.2,33.2q-5.4,0-9.1,5.2V61.6q4.4,2.9,8,2.9,4.2,0,6.4-4.25T78.7,48.3q0-7.8-2.1-11.45T71.2,33.2Z"/><path class="cls-1" d="M120.8,74.5a21.81,21.81,0,0,1-10.3-2.7V87.1q0,4.5-1.6,6.3t-5.5,1.8H98.3l-.6-.7V24.1l.6-.7H102a7.46,7.46,0,0,1,7.4,4.9,18.8,18.8,0,0,1,13.8-5.7,14.3,14.3,0,0,1,12.7,7q4.5,7,4.5,19a35.06,35.06,0,0,1-1.55,10.8,25.79,25.79,0,0,1-4.2,8.15,18.59,18.59,0,0,1-6.2,5.15A16.69,16.69,0,0,1,120.8,74.5Zm-1.2-41.3q-5.4,0-9.1,5.2V61.6q4.4,2.9,8,2.9,4.2,0,6.4-4.25t2.2-11.95q0-7.8-2.1-11.45T119.6,33.2Z"/><path class="cls-1" d="M215.11,67.6a13.94,13.94,0,0,1-1.8,3.8,12,12,0,0,1-2.6,3q-6.5-.8-9.5-5.7Q194.71,75,187,75a17.45,17.45,0,0,1-6.85-1.25,14,14,0,0,1-4.9-3.35,13.63,13.63,0,0,1-2.9-4.8,16.73,16.73,0,0,1-1-5.6,17.42,17.42,0,0,1,1.45-7.35A14.12,14.12,0,0,1,177,47.4a18.86,18.86,0,0,1,6.2-3.2,26.09,26.09,0,0,1,7.75-1.1q5.4,0,8.4.3V40.7q0-7.6-7.4-7.6-5,0-15.2,3.5-2.8-3.1-3.4-9.3a55.5,55.5,0,0,1,21.9-4.5q7.5,0,12.3,4.2t4.8,12.7V60.2Q212.31,65.5,215.11,67.6Zm-25.2-2.5q5,0,9.4-4.4V52l-3.1-.2q-1.5-.1-2.9-.1-4.4,0-6.7,1.65t-2.3,5.45a6.67,6.67,0,0,0,1.5,4.65A5.26,5.26,0,0,0,189.91,65.1Z"/><path class="cls-1" d="M221.23,16.8q0-4.4,1.6-6.2t5.5-1.8h5l.7.6V23.94l11.1,0h0L247,33.3,234,33.35v26q0,4.6,4.3,4.6h6.2a18.05,18.05,0,0,1,1,5.7,12.49,12.49,0,0,1-.3,3.5,82.14,82.14,0,0,1-12,.9q-12,0-12-12.2"/><path class="cls-1" d="M271.34,34.1V73.6a23.22,23.22,0,0,1-3.15.4q-1.65.1-3.35.1t-3.35-.1a26.19,26.19,0,0,1-3.25-.4V38.8q0-5.5-4.5-5.5l-.85.05-1.73-9.25h0c1.53-.13,4.24-.25,5.54-.35s2.42-.15,3.35-.15h1.7a9.06,9.06,0,0,1,7,2.8A11,11,0,0,1,271.34,34.1Z"/><path class="cls-1" d="M308.94,24a19.22,19.22,0,0,1,5.2-.6,25.41,25.41,0,0,1,6.5.9l.3,1-14.1,21.9,16,24.3a15.89,15.89,0,0,1-8.8,2.9,8,8,0,0,1-7-3.9L298.84,58l-9.3,15.6a20.23,20.23,0,0,1-5.7.6,16.44,16.44,0,0,1-6.4-1.1l-.4-.8,15.5-24.1L278.24,26a15.05,15.05,0,0,1,8.9-3,6.69,6.69,0,0,1,3.8,1,10.72,10.72,0,0,1,2.8,3.15l6.9,10.5Z"/><path class="cls-1" d="M162.77,64l3.33,0h0L167.83,73A90.6,90.6,0,0,1,157,74.1q-5.8,0-8.5-3t-2.7-9.25V.7l.7-.7h5q3.9,0,5.5,1.85t1.6,6.25V59.4Q158.57,64,162.77,64Z"/><circle class="cls-2" cx="262.94" cy="12.07" r="7.45"/></g></g></svg>