<svg fill="none" height="42" viewBox="0 0 72 42" width="72" xmlns="http://www.w3.org/2000/svg" xmlns:xlink="http://www.w3.org/1999/xlink"><clipPath id="a"><path d="m0 .941944h72v40.4642h-72z"/></clipPath><g clip-path="url(#a)"><path d="m46.0262 7.57832 1.3869-6.636376h-40.73245l-6.68065 31.906956h34.057l-1.8753 8.5572h32.6233l7.195-33.82778z" fill="#02262b"/><g fill="#fff"><path d="m13.8825 28.7754c-.9233 0-1.7958-.1511-2.6163-.4545-.8204-.3021-1.53666-.7488-2.14742-1.3387-.61077-.59-1.09261-1.3153-1.44683-2.1774s-.53133-1.8519-.53133-2.9705c0-1.5289.21228-2.9223.63812-4.179s1.01837-2.3337 1.7776-3.2323c.75926-.8972 1.66956-1.5926 2.73216-2.0849 1.0614-.4922 2.2243-.7384 3.4862-.7384.8517 0 1.6591.1485 2.4248.4467.7645.2982 1.4338.7306 2.0081 1.301.5743.5691 1.0314 1.2697 1.37 2.1005.3386.8309.5079 1.7855.5079 2.8624 0 .1641-.0052.3569-.0156.5769-.0104.2214-.0261.4467-.0469.6772s-.0417.4571-.0612.6772c-.0209.2201-.0456.4076-.0769.5613h-11.95872c-.01041.1445-.01823.2826-.02344.4154-.00521.1341-.00781.2722-.00781.4154 0 .8517.12367 1.5771.36987 2.1774.2461.6004.5665 1.09.9624 1.4703.3945.3803.8386.6537 1.3309.823.4922.1693.9897.254 1.4924.254 1.0978 0 1.9807-.1902 2.6475-.5691.6668-.379 1.1746-.8921 1.5237-1.5393h2.8168c-.1745.6368-.4623 1.2319-.8621 1.7854s-.9051 1.034-1.5159 1.439c-.6107.405-1.3192.7241-2.124.9546s-1.6903.3464-2.654.3464zm5.4018-10.1122c.0104-.0507.0182-.1458.0234-.2852.0053-.138.0079-.2747.0079-.4076 0-.5443-.0795-1.06-.2384-1.5471-.1588-.487-.3971-.9155-.7162-1.2853-.3178-.3698-.7136-.6616-1.1851-.8777-.4727-.2149-1.021-.323-1.6473-.323-.6369 0-1.232.1133-1.7855.3386-.5547.2253-1.0574.5469-1.508.9624-.4519.4154-.8413.9129-1.1694 1.4924-.3282.5795-.59 1.2241-.7853 1.9312h9.0039z"/><path d="m29.6374 28.7754c-.8308 0-1.6109-.1563-2.3402-.4701-.7292-.3126-1.3673-.7619-1.9156-1.3466-.5496-.5847-.9832-1.2931-1.301-2.124-.3177-.8308-.4766-1.7593-.4766-2.7855 0-.995.1003-1.9469.2995-2.8546.1993-.9077.4845-1.749.8543-2.5238.3699-.7749.8126-1.4755 1.3309-2.1006.5183-.6264 1.0926-1.159 1.7242-1.6005.6316-.4414 1.3127-.78 2.0472-1.0157.7332-.2358 1.5002-.3543 2.3011-.3543.5952 0 1.1617.0821 1.7008.2462s1.0262.3919 1.4624.685c.4363.293.8101.6459 1.1239 1.0613.3126.4154.5418.8699.685 1.3622h.2461l2.0472-9.65115h2.6931l-4.9252 23.18045h-2.555l.4766-2.2621h-.2461c-.6056.7905-1.3648 1.413-2.2777 1.8701-.9129.4545-1.8987.6837-2.9549.6837zm.8465-2.3858c.8621 0 1.6591-.2018 2.3936-.6081.7332-.405 1.3726-.9598 1.9156-1.6617.5444-.7032.9702-1.5289 1.2776-2.4782.3073-.9494.4623-1.973.4623-3.0708 0-.7084-.0977-1.3439-.2931-1.9091-.1953-.5639-.4727-1.0445-.8308-1.439-.3594-.3946-.7957-.7007-1.3088-.9155-.5131-.2162-1.0926-.323-1.7398-.323-.8517 0-1.6422.1901-2.3702.5691-.7292.3803-1.3595.9077-1.8935 1.5849-.5339.6771-.9545 1.4858-1.2619 2.4235-.3073.9376-.4623 1.9677-.4623 3.0864 0 .698.1003 1.3387.3009 1.9234.2005.5847.4792 1.0848.8386 1.5002.3594.4155.7905.7384 1.2932.9702s1.0626.3477 1.6786.3477z"/><path d="m66.278 11.9396h-6.0073l-6.5531 8.1132h-.3229l-3.4654-8.1132h-6.0764l5.2091 11.7843-11.2451 13.3209h5.9266l7.2172-8.5572h.4871l3.899 8.5572h5.9631l-5.7665-12.731z"/></g></g></svg>