<svg fill="none" height="29" viewBox="0 0 72 29" width="72" xmlns="http://www.w3.org/2000/svg"><path d="m3.98237 17.0233c.06866-2.1286 1.27029-3.7764 3.46757-3.7764 2.50612 0 3.43316 1.6478 3.43316 3.7078v9.8874h3.9823v-10.574c0-3.6735-1.991-6.62604-6.11097-6.62604-1.75089 0-3.63909.61794-4.77206 2.09414v-9.75005h-3.98237v24.85595h3.98237zm18.51253-.3777c.137-1.7851 1.5788-3.7077 4.0852-3.7077 2.7465 0 4.051 1.7508 4.1197 3.7077h-8.2052zm8.651 4.3601c-.5492 1.648-1.7853 2.9183-4.1883 2.9183-2.4719 0-4.4633-1.8195-4.5661-4.3601h12.222c.0342-.0686.1028-.6179.1028-1.2703 0-5.2871-3.0211-8.68574-8.1709-8.68574-4.2226 0-8.1365 3.50174-8.1365 8.78884 0 5.6646 4.0168 8.9604 8.5487 8.9604 4.0165 0 6.6602-2.3688 7.5528-5.2871l-3.3642-1.0643zm11.3588 5.8364v-24.85595h-3.9824v24.85595zm9.0851 0v-16.7194h-3.9482v16.7194zm-4.5661-22.59001c0 1.4418 1.1672 2.57477 2.5748 2.57477 1.442 0 2.6092-1.13297 2.6092-2.57477.0002-.3427-.0672-.68207-.1983-.99871-.131-.31664-.3232-.60435-.5655-.84667-.2424-.24232-.5301-.43451-.8467-.56558-.3166-.13106-.656-.19844-.9987-.19827-1.4076 0-2.5748 1.16743-2.5748 2.60923z" fill="#221035"/><path d="m63.1241 27.3031c4.9015 0 8.875-3.9735 8.875-8.875s-3.9735-8.87502-8.875-8.87502c-4.9016 0-8.8751 3.97352-8.8751 8.87502s3.9735 8.875 8.8751 8.875z" fill="#ff7a00"/></svg>