<svg fill="none" height="27" viewBox="0 0 119 27" width="119" xmlns="http://www.w3.org/2000/svg" xmlns:xlink="http://www.w3.org/1999/xlink"><clipPath id="a"><path d="m0 .463737h119v26.1488h-119z"/></clipPath><g clip-path="url(#a)" fill="#284c90"><path d="m83.2548 18.1417-3.692-5.5166h-3.0174v5.5182h-3.7915v-17.368328h.3902c2.6857 0 5.3808-.028436 8.0712.011059 1.7109.025277 3.2892.488159 4.5404 1.750419.9478.94788 1.3554 2.13431 1.4392 3.44396.0873.93207-.0258 1.87203-.3318 2.75675-.5371 1.44394-1.5972 2.39024-2.9558 3.03794-.0916.0427-.1848.0806-.2765.1248-.0389.0238-.0754.0513-.109.0822l4.2086 6.1612zm-6.6983-8.95587h.8626c1.248-.0158 2.4992.02369 3.7409-.07109.9827-.07267 1.7599-.59085 2.0427-1.5956.4439-1.5798-.2212-3.10115-2.2117-3.24491-1.4313-.10269-2.8737-.04897-4.3113-.06319-.0413.00938-.0811.02426-.1185.04423z"/><path d="m88.9507.792351h3.8136v.459719c0 3.08377-.0189 6.16122.0158 9.25133.0063.7313.1169 1.458.3286 2.158.4123 1.346 1.6414 2.1754 3.117 2.2228 1.0474.0331 2.0363-.1296 2.8578-.8626.6667-.5956.9715-1.3681 1.0935-2.2244.046-.3371.069-.677.069-1.0174v-9.97955h3.863v.41391c0 3.19751.014 6.39503 0 9.59254.014 1.2138-.212 2.4185-.664 3.5451-.815 1.951-2.257 3.1928-4.2872 3.7362-1.8958.5087-3.7915.5182-5.6652-.0964-2.485-.8167-3.9147-2.5829-4.3587-5.1406-.1144-.6707-.173-1.3497-.1753-2.0301-.0174-3.19749 0-6.39501 0-9.59252z"/><path d="m105.229 15.5809 2.212-2.6494c.621.3981 1.217.8152 1.845 1.1786 1.337.7971 2.922 1.0727 4.449.7741 1.025-.1928 1.504-.8563 1.401-1.8152-.01-.1915-.073-.3763-.182-.5343-.109-.1579-.259-.283-.434-.3615-.79-.3412-1.58-.6461-2.392-.921-1.156-.3949-2.357-.673-3.475-1.1406-1.656-.69197-2.602-1.94317-2.732-3.79943-.101-1.52925.26-2.87366 1.312-4.00322.827-.88472 1.93-1.464178 3.128-1.64457 2.921-.491318 5.581.15798 7.954 1.94473.041.03002.085.05688.158.10111-.671.97632-1.321 1.91788-1.986 2.8863-.474-.27647-.935-.55767-1.407-.81202-1.061-.57031-2.174-.94788-3.4-.87363-.547.03317-1.082.11848-1.504.51817-.698.66352-.619 1.82151.234 2.25122.736.37125 1.553.57979 2.336.85151 1.225.42655 2.487.76936 3.668 1.2907 1.339.59716 2.252 1.62403 2.493 3.12483.495 3.0538-1.025 5.4788-4.045 6.1612-3.561.812-6.77-.0568-9.561-2.4265-.027-.0313-.051-.0652-.072-.1011z"/><path d="m51.3121 12.9631 2.5087 2.3697c-.6224.7068-1.3414 1.3221-2.1359 1.8279-1.4755.9273-3.1027 1.2638-4.8294 1.2907-2.2228.0284-4.2054-.6177-5.9211-2.0238-1.6685-1.3518-2.7598-3.2881-3.0522-5.4155-.4123-2.71095.1675-5.2023 1.9305-7.34609 1.7204-2.09007 3.978-3.109043 6.6715-3.192773 1.4219-.044234 2.8231.110587 4.1612.631923 1.1543.45169 2.1944 1.15301 3.0459 2.05374l-2.3997 2.76465c-.583-.40601-1.1264-.83256-1.7157-1.18327-1.8199-1.08533-4.2402-1.01108-5.8453.34597-1.3997 1.18169-2.0063 2.73622-1.9336 4.53245.0869 2.139.9479 3.8974 2.9605 4.8247 1.88.8626 3.7173.5845 5.4093-.594.4186-.2938.8136-.6288 1.1453-.8863z"/><path d="m60.3845 18.1401v-.6177c0-1.9463-.0027-3.8947-.0079-5.8452-.0031-.2349-.0679-.4648-.188-.6667-2.0927-3.3218-4.1923-6.63938-6.2987-9.95274-.0458-.071095-.0869-.146925-.158-.260671h4.4803l4.1075 6.917941 4.1897-6.9211h4.3491c-.1895.3049-.3554.57821-.5276.84835-1.96 3.07851-3.9184 6.1549-5.8753 9.22922-.139.2332-.2132.4994-.2148.7709-.0174 2.0095-.0095 4.019-.0095 6.0285v.474z"/><path d="m27.4063.868178c-6.8058 1.421822-13.3509 3.401312-18.99236 7.789992l-7.34607-6.48824.03792-.09321c.54661-.03001 1.09164-.06477 1.63825-.08846 1.78833-.07741 3.57667-.15008 5.37132-.22907 1.62403-.07267 3.24644-.15798 4.87054-.2275l4.9416-.22749c1.624-.07583 3.2465-.1485 4.8705-.22749 1.4598-.07109 2.9179-.148499 4.3776-.22275.0772-.000117.1542.004631.2307.014218z"/><path d="m27.541 2.44798c-.1374.29543-.2638.59401-.4107.88311-1.7115 3.37656-3.424 6.74991-5.1376 10.12021-2.0779 4.0917-4.1627 8.1828-6.2544 12.2735-.0632.1093-.1328.2148-.2085.3159v.0158c.9399-2.7264 1.6968-5.5125 2.2654-8.3398.3855-1.9762.6336-3.9768.7425-5.9874.1021-2.04632.0037-4.09773-.2938-6.12488 1.1058-.39179 2.1864-.7899 3.2796-1.16589 1.8853-.64245 3.7731-1.27437 5.6636-1.89576.1199-.03314.2418-.05847.365-.07583z"/><path d="m.00830078 3.37533c.42812622.48816.85783122.97316 1.28437922 1.4629 2.7141 3.15959 5.65726 6.07117 9.07432 8.47407 1.5934 1.137 3.2984 2.1089 5.0886 2.9005.1011.0442.199.0995.3523.1753-.7457 3.1733-1.4908 6.3445-2.2354 9.5136l-.0996.0205c-.0884-.1406-.1785-.2812-.2638-.4234l-9.28763-15.52307c-1.2312-2.05584-2.46028-4.11432-3.687258-6.17543-.082149-.13903-.1453412-.28911-.2164322-.43287z"/><path d="m44.0763 23.3866c.4503.2339.8911.5309.9748 1.1486.1327.9826-.3871 1.6982-1.4218 1.8752-.4611.0645-.9263.0951-1.3918.0916-.741.0142-1.4819 0-2.2434 0v-5.9732c1.1233 0 2.237-.0822 3.3334.0237 1.0964.1058 1.6683 1.0411 1.3334 1.9716-.1248.3144-.3902.5719-.5846.8625zm-2.8183.6699v.891c0 .1106.011.2212.0174.3365.6477 0 1.2638.0237 1.8957-.0095.0774-.0004.1539-.0161.2253-.0461.0713-.03.136-.0737.1905-.1287.0544-.055.0974-.1202.1267-.1919.0292-.0716.044-.1483.0436-.2257v-.0269c-.01-.1606-.081-.3114-.1985-.4215-.1174-.1101-.2724-.1712-.4334-.1709-.6035-.0269-1.2054 0-1.8736 0zm.0284-2.4298v1.3208c.5672-.0332 1.1059-.0427 1.6367-.1043.1344-.0105.2593-.0733.3479-.175.0887-.1016.1339-.2339.126-.3685 0-.3159-.1579-.5513-.4739-.5829-.534-.0506-1.0711-.0616-1.643-.0901z"/><path d="m80.4121 20.5067h1.1912l1.357 1.7915 1.4218 1.8594v-3.6336h1.2797v5.9575h-1.1059l-2.88-3.771v3.771h-1.2638z"/><path d="m102.605 26.581c-1.821 0-3.1847-1.3144-3.1831-3.0759 0-1.6177 1.1961-3.1232 3.2011-3.1248 1.886 0 3.159 1.3555 3.188 3.0932.028 1.7378-1.4 3.1107-3.206 3.1075zm.022-4.9527c-1.049 0-1.81.7757-1.818 1.8563.009.3552.123.6998.327.9907.204.291.489.5155.82.6454.33.13.692.1597 1.039.0854.348-.0743.666-.2493.914-.5031.249-.2539.417-.5753.485-.9242.067-.3489.029-.7099-.107-1.0378-.137-.3279-.367-.6084-.662-.8062-.296-.1979-.642-.3045-.998-.3065z"/><path d="m90.0121 26.5826c-1.8136 0-3.1596-1.3271-3.1596-3.098 0-1.6272 1.2449-3.1217 3.2213-3.1043 2.0395.0189 3.2054 1.5924 3.1596 3.1928-.0585 1.7109-1.4045 3.0126-3.2213 3.0095zm-1.7472-3.1027c0 1.0821.7646 1.8957 1.7836 1.8957s1.7804-.7899 1.782-1.8563c.0016-1.0663-.7504-1.8799-1.7899-1.8847-1.0395-.0047-1.771.7473-1.7757 1.8453z"/><path d="m51.9191 26.581c-1.8183 0-3.1154-1.2891-3.1738-3.0395-.017-.8202.2923-1.6136.8598-2.206s1.3469-.9354 2.1671-.9536h.1706c1.8958.0094 3.1786 1.3618 3.1833 3.1359.0095 1.7393-1.3871 3.0632-3.207 3.0632zm1.7947-3.0853c0-1.0901-.7536-1.869-1.8058-1.8674-1.0173 0-1.7741.7899-1.7756 1.861-.0081.2403.0314.4797.1162.7047.0847.2249.213.4309.3776.6062.1645.1752.362.3163.5812.415.2191.0988.4556.1533.6959.1604h.0458c1.0206-.0126 1.7647-.8041 1.7647-1.8799z"/><path d="m112.18 21.2429c-.278.3301-.542.6445-.803.9573-1.322-.7804-2.212-.7567-2.877.0585-.583.714-.553 1.8957.062 2.5482.329.3305.764.5335 1.229.5729.465.0393.928-.0876 1.308-.3581v-.812h-1.264v-1.1564h2.544v2.5909c-1.264 1.2433-3.59 1.2812-4.803.0632-1.213-1.2181-1.158-3.1596.014-4.4061 1.173-1.2465 3.566-1.139 4.59-.0584z"/><path d="m61.8457 26.4815v-5.9701h4.474v1.1738h-3.128v1.1627h2.7488v1.1975h-2.7488v1.2496h3.1596v1.1865z"/><path d="m77.6115 24.0928h-2.4218v2.3887h-1.3049v-5.9653h1.2828v2.3207h2.4155v-2.3113h1.3254v5.9559h-1.3001z"/><path d="m72.761 21.3503-.7899.9194c-1.3965-.8215-2.2528-.8246-2.872-.0205-.594.7725-.5309 1.9889.1358 2.6446.7109.6998 1.6841.6319 2.7394-.1991l.7899.8547c-.8847 1.2385-3.0996 1.4439-4.3697.3633-.3157-.2693-.5753-.5982-.7639-.9679-.1885-.3697-.3024-.7729-.3351-1.1866s.0164-.8298.1445-1.2245c.1281-.3948.3327-.7604.6022-1.076.0474-.0537.0963-.1074.1469-.158 1.2038-1.2338 3.4834-1.2259 4.5719.0506z"/><path d="m116.021 22.8748 1.439-2.3697h1.51c-.499.7899-.924 1.5593-1.453 2.256-.632.8467-.959 1.7377-.82 2.8025.019.2999.019.6006 0 .9005h-1.364c0-.6746.013-1.3397 0-2.0048-.002-.2086-.056-.4134-.158-.5955-.68-1.1059-1.38-2.2007-2.102-3.3429h1.55z"/><path d="m60.7956 20.5146v1.2101h-1.7835v4.7473h-1.3381v-4.7299h-1.8136v-1.2275z"/><path d="m94.4346 20.5082h1.2638v4.7552h3.0016v1.2181h-4.2654z"/><path d="m47.5178 26.4894h-1.3049v-5.9764h1.3049z"/><path d="m.0173521 3.36739-.0173521-.02682.0141971.02839z"/><path d="m15.5285 26.0391.0176.0192h-.0192z"/></g></svg>