<svg fill="none" height="16" viewBox="0 0 138 16" width="138" xmlns="http://www.w3.org/2000/svg" xmlns:xlink="http://www.w3.org/1999/xlink"><clipPath id="a"><path d="m0 .708508h138v14.6692h-138z"/></clipPath><g clip-path="url(#a)" fill="#005fa0"><path d="m3.16573.713153v5.524977h5.82359v-5.524977h3.16568v14.394847h-3.16568v-6.21185h-5.82359v6.21185h-3.16573v-14.394847z"/><path d="m14.2204 6.21584c.2953-.44423.6715-.80126 1.1281-1.07052.4563-.26926.9701-.46101 1.5408-.57582.5707-.11439 1.1447-.17179 1.7224-.17179.5236 0 1.0541.0373 1.5912.11105.5371.07419 1.0271.21879 1.4704.43397.443.21517.8056.51422 1.0877.89786.2818.38306.423.89077.423 1.52314v5.42697l.0029 1.352c.0234.531.0243.5547.1185.9666l-2.7505-.0004c-.0597-.2316-.056-.2389-.0822-.4182-.0242-.1666-.0228-.4146-.0364-.5882-.4564.471-.9934.8003-1.6111.9884-.6176.1882-1.2485.2823-1.8929.2823-.4968 0-.9599-.0606-1.3893-.1815-.4298-.1209-.8058-.3094-1.128-.5651-.3223-.2558-.5739-.5787-.755-.9693-.1813-.39-.2718-.8543-.2718-1.3929 0-.5921.1041-1.0799.3122-1.4634s.4768-.6897.8057-.9188c.329-.22877.7048-.40056 1.1278-.5148s.8493-.20491 1.2791-.27244c.4294-.06724.8526-.12089 1.2687-.16153.4164-.04005.7857-.10079 1.1079-.18148s.5774-.1984.7655-.35327c.188-.15488.2754-.38032.2619-.67662 0-.30931-.0502-.55485-.1505-.73677-.1004-.18148-.2343-.3229-.4016-.42369s-.3615-.16804-.5822-.20158c-.2207-.03355-.4581-.05091-.7123-.05091-.5621 0-1.0037.12176-1.3248.36542-.321.24352-.5084.64958-.5619 1.21745h-2.867c.0404-.67286.2084-1.23191.5037-1.67614zm5.6443 4.04566c-.1811.0607-.3754.1112-.5831.1513-.2079.04-.4257.0737-.6535.1007-.228.0271-.4559.0606-.6837.1007-.2147.04-.4258.0937-.6335.1609-.2076.0673-.3887.1582-.5428.2726-.1542.1144-.2781.2586-.372.4331-.0937.175-.1407.3967-.1407.6655 0 .2552.0469.4704.1407.6449.0939.175.221.3127.3821.4135.1609.1006.3486.1712.5631.2118.2143.0401.4355.0602.6637.0602.5628 0 .9984-.0937 1.3068-.2824.3083-.188.5362-.4129.6837-.6752.1475-.2617.2379-.5272.2715-.7961.0335-.2688.0504-.484.0504-.6453v-1.0683c-.1211.1075-.2718.1915-.4527.2521z"/><path d="m85.4333 6.21584c.2954-.44423.6714-.80126 1.1281-1.07052.4563-.26926.9701-.46101 1.5409-.57582.5705-.11439 1.1444-.17179 1.7222-.17179.5237 0 1.0541.0373 1.5913.11105.5372.07419 1.027.21879 1.4704.43397.443.21517.8057.51422 1.0875.89786.2819.38306.4232.89077.4232 1.52314v5.42697l.0029 1.352c.0234.531.0242.5547.1185.9666l-2.7504-.0004c-.0599-.2316-.0562-.2389-.0821-.4182-.0243-.1666-.0229-.4146-.0365-.5882-.4563.471-.9936.8003-1.611.9884-.6176.1882-1.2487.2823-1.8932.2823-.4966 0-.9598-.0606-1.3892-.1815-.43-.1209-.8058-.3094-1.1278-.5651-.3224-.2558-.5743-.5787-.7553-.9693-.1814-.39-.2717-.8543-.2717-1.3929 0-.5921.1039-1.0799.312-1.4634s.4768-.6897.8058-.9188c.329-.22877.7046-.40056 1.1278-.5148.4231-.11424.8492-.20491 1.2792-.27244.4296-.06724.8524-.12089 1.2686-.16153.4163-.04005.7858-.10079 1.108-.18148.322-.08069.5772-.1984.7654-.35327.1881-.15488.2753-.38032.2619-.67662 0-.30931-.0504-.55485-.1506-.73677-.1002-.18148-.2341-.3229-.4016-.42369-.1671-.10079-.3612-.16804-.582-.20158-.2205-.03355-.4581-.05091-.7123-.05091-.5621 0-1.0037.12176-1.3246.36542-.3212.24352-.5088.64958-.5621 1.21745h-2.867c.0402-.67286.2083-1.23191.5037-1.67614zm5.6441 4.04566c-.181.0607-.3754.1112-.5829.1513-.2079.04-.4259.0737-.6536.1007-.2279.0271-.4558.0606-.6839.1007-.2146.04-.4255.0937-.6335.1609-.2076.0673-.3887.1582-.5428.2726-.1542.1144-.2783.2586-.372.4331-.0937.175-.1407.3967-.1407.6655 0 .2552.0469.4704.1407.6449.0937.175.2211.3127.3822.4135.161.1006.3485.1712.563.2118.2143.0401.4355.0602.6637.0602.563 0 .9984-.0937 1.3068-.2824.3085-.188.5364-.4129.6839-.6752.1475-.2617.2379-.5272.2714-.7961.0333-.2688.0503-.484.0503-.6453v-1.0683c-.121.1075-.2718.1915-.4526.2521z"/><path d="m27.4355 4.68244v1.19792h.0602c.4157-.53114.7852-.85275 1.3681-1.11868.5909-.26955 1.2151-.3592 1.8203-.3592.7667 0 1.3957.10455 1.8871.31264.4909.20852.8778.49744 1.16.86706.2829.36961.4811.81992.5955 1.35091.1144.531.1718 1.11897.1718 1.76435v6.41156h-2.8671v-5.88982c0-.86041-.1349-1.50261-.404-1.92631-.2697-.42369-.7481-.63554-1.4349-.63554-.7812 0-1.3472.23238-1.6973.69613-.3504.4639-.5254 1.22685-.5254 2.28927v5.46627h-2.852v-10.42656z"/><path d="m98.6393 4.68244v1.19792h.0601c.4158-.53114.7852-.85275 1.3686-1.11868.59-.26955 1.215-.3592 1.82-.3592.767 0 1.396.10455 1.887.31264.491.20852.878.49744 1.16.86706.283.36961.481.81992.596 1.35091.114.531.171 1.11897.171 1.76435v6.41156h-2.867v-5.88982c0-.86041-.135-1.50261-.404-1.92631-.269-.42369-.748-.63554-1.435-.63554-.781 0-1.3469.23238-1.6969.69613-.3505.4639-.5253 1.22685-.5253 2.28927v5.46627h-2.8524v-10.42656z"/><path d="m130.937 4.68244v1.19792h.06c.416-.53114.785-.85275 1.368-1.11868.591-.26955 1.215-.3592 1.82-.3592.767 0 1.396.10455 1.887.31264.491.20852.878.49744 1.16.86706.283.36961.482.81992.596 1.35091.114.531.172 1.11897.172 1.76435v6.41156h-2.867v-5.88982c0-.86041-.135-1.50261-.404-1.92631-.27-.42369-.749-.63554-1.435-.63554-.782 0-1.348.23238-1.698.69613-.35.4639-.525 1.22685-.525 2.28927v5.46627h-2.852v-10.42656z"/><path d="m50.7652 12.6171c.4297.4172 1.0481.6253 1.8544.6253.5777 0 1.0752-.145 1.4919-.436.4168-.2906.6719-.5982.7663-.923h2.5198c-.4032 1.2526-1.0215 2.148-1.8549 2.6865-.8334.5387-1.8414.8078-3.0239.8078-.8199 0-1.559-.131-2.218-.3935-.6589-.2622-1.2174-.6351-1.6748-1.1194-.4578-.4844-.8111-1.0626-1.0602-1.7348-.2493-.6725-.3734-1.4128-.3734-2.22004 0-.77986.1278-1.50637.3836-2.17879.2557-.67242.6188-1.25431 1.0901-1.74525.4712-.49094 1.0326-.87719 1.6851-1.16004.6523-.28241 1.3746-.42369 2.1675-.42369.887 0 1.6599.17179 2.3182.51465.6585.34344 1.1998.80445 1.623 1.38316.4233.57872.729 1.23798.917 1.97807.1881.7401.2558 1.51375.202 2.32093h-7.5196c.0404.9285.2755 1.6015.7059 2.0181zm3.2351-5.4979c-.3426-.37757-.8633-.56642-1.5619-.56642-.4574 0-.8367.07794-1.139.23281-.3024.15487-.5446.3472-.7261.57626-.1816.22905-.309.47228-.3826.72853-.0742.2561-.1176.4853-.1312.68731h4.6566c-.1343-.72795-.3728-1.28092-.7158-1.65849z"/><path d="m61.5292.714145v14.394855h-2.8671v-14.394855z"/><path d="m65.5857 12.5275c.1278.2212.2926.4018.4947.5423.2016.1405.434.2445.6961.3112.2622.0672.5348.1003.8176.1003.2016 0 .4135-.0233.6356-.0704.2221-.0472.4237-.1209.6053-.2217s.3332-.2356.4541-.4036c.1215-.168.182-.3799.182-.6355 0-.4305-.286-.7533-.8572-.9685-.5716-.2149-1.3681-.4308-2.39-.6456-.4172-.0943-.8241-.2051-1.2208-.3328-.3967-.128-.7495-.29599-1.0588-.50451s-.558-.47084-.7462-.78724c-.1885-.31596-.2823-.70279-.2823-1.16003 0-.67242.1312-1.22352.3934-1.6543.2621-.4302.6085-.76988 1.0387-1.01861.4302-.24872.9146-.4237 1.4526-.52449s1.0891-.15169 1.6543-.15169c.5646 0 1.1128.05423 1.644.16153.531.10773 1.0051.28921 1.4223.54502.4166.25566.7628.59549 1.0389 1.01904.2756.4237.4403.95845.4945 1.60441h-2.7176c-.0406-.55399-.2492-.92866-.6264-1.1246-.377-.19595-.8212-.29399-1.3327-.29399-.1614 0-.3363.01027-.5249.03022-.1886.02054-.3602.06435-.5148.1316-.1549.06724-.286.1647-.3939.29253-.1077.12784-.1614.29963-.1614.51466 0 .25581.0937.46433.2823.62586.188.16138.4335.29254.7363.39333.3024.10122.6487.19174 1.0389.27258.3895.08069.7863.16846 1.1899.2626.4168.09429.8236.20867 1.2202.34301.3968.13492.7497.31322 1.0588.53519.3096.22212.5581.49788.7462.82748.1887.3298.2827.7373.2827 1.2216 0 .6863-.1381 1.2614-.4131 1.7257-.2759.4644-.6357.838-1.0795 1.1204-.4437.2827-.9515.4816-1.5226.596-.5716.1138-1.1531.1712-1.7447.1712-.6053 0-1.1969-.0602-1.775-.1811-.5783-.1209-1.0925-.322-1.5427-.6038-.4508-.2819-.8203-.6542-1.1097-1.1173-.2889-.4629-.4469-1.0435-.4736-1.7415h2.7178c-.0006.3083.0629.573.1907.7935z"/><path d="m110.097.714145v7.721985l3.608-3.74993h3.387l-3.931 3.83062 4.374 6.59218h-3.467l-2.863-4.6565-1.109 1.0687v3.5879h-2.867v-14.394955z"/><path d="m120.365 12.6171c.431.4172 1.049.6253 1.855.6253.578 0 1.075-.145 1.492-.436.417-.2906.672-.5982.766-.923h2.52c-.403 1.2526-1.022 2.148-1.855 2.6865-.833.5387-1.841.8078-3.023.8078-.82 0-1.56-.131-2.219-.3935-.659-.2622-1.217-.6351-1.675-1.1194-.457-.4844-.811-1.0626-1.059-1.7348-.25-.6725-.374-1.4128-.374-2.22004 0-.77986.128-1.50637.383-2.17879.256-.67242.62-1.25431 1.091-1.74525s1.033-.87719 1.685-1.16004c.652-.28241 1.375-.42369 2.168-.42369.887 0 1.659.17179 2.318.51465.658.34344 1.199.80445 1.622 1.38316.423.57857.73 1.23798.918 1.97807.188.7401.255 1.51375.201 2.32093h-7.519c.041.9285.276 1.6015.705 2.0181zm3.236-5.4979c-.343-.37757-.864-.56642-1.562-.56642-.457 0-.837.07794-1.139.23281-.303.15487-.545.3472-.726.57626-.182.22905-.31.47228-.383.72853-.074.2561-.118.4853-.131.68731h4.657c-.134-.72795-.373-1.28092-.716-1.65849z"/><path d="m43.2571.708505v5.034185h-.0299c-.3763-.47388-.7511-.75138-1.3103-.99807-.5894-.26001-1.1573-.34764-1.7761-.34764-.7667 0-1.4386.15169-2.0168.45407-.5781.3028-1.0592.70278-1.4424 1.20066-.3831.49745-.6724 1.07241-.8675 1.72473s-.2921 1.32864-.2921 2.02752c0 .72664.097 1.42594.2921 2.09854.1946.6724.4834 1.2679.8666 1.7854.3826.518.8698.9283 1.4611 1.2311.5913.3025 1.2763.4506 2.0556.4536.5061.002 1.2035-.0649 1.7533-.2917.553-.2281.9988-.5072 1.411-1.066h.04v1.0954h2.7224v-14.401795zm-2.5134 12.564095c-1.8896 0-2.6843-1.7548-2.6843-3.38925 0-1.71388.6893-3.37931 2.6865-3.37931 1.976 0 2.6185 1.66544 2.6185 3.35965 0 1.71491-.6015 3.40891-2.6207 3.40891z"/><path d="m73.4238.708505v14.401495h2.7224v-1.0954h.0401c.4121.5588.8579.8379 1.4107 1.0661.5501.2266 1.2474.2935 1.7535.2916.7793-.003 1.4643-.1511 2.0556-.4536.5913-.3028 1.0785-.7131 1.4611-1.231.3831-.5176.672-1.1129.8666-1.7855.195-.6724.2921-1.3717.2921-2.09853 0-.69888-.0971-1.3752-.2921-2.02752-.1952-.65232-.4844-1.22728-.8676-1.72472-.3829-.49788-.8643-.89787-1.4424-1.20067-.5782-.30237-1.2502-.45407-2.0169-.45407-.6186 0-1.1865.08763-1.7759.34764-.5592.24684-.934.5242-1.3104.99807h-.0298v-5.033895zm2.7597 9.155185c0-1.69421.6423-3.35965 2.6184-3.35965 1.9972 0 2.6865 1.66544 2.6865 3.37931 0 1.63445-.7948 3.38925-2.6843 3.38925-2.019 0-2.6206-1.694-2.6206-3.40891z"/></g></svg>