<svg fill="none" height="24" viewBox="0 0 163 24" width="163" xmlns="http://www.w3.org/2000/svg"><path clip-rule="evenodd" d="m4.9032 4.89203v6.36597l.497.496 1.488-1.486v-4.14997l-1.985-1.228zm9.687-1.82h-8.46c-.53.135-.9.434-1.107.896l1.865 1.1h6.97l.732-1.997zm-2.22 15.79997h-5.483l-1.576 1.542c.206.218.477.37.812.456h7.326l-.033-.093-1.048-1.905zm.832-5.114v4.873l1.143 2.08c.432-.215.712-.58.842-1.096v-6.935l-.454-.453-1.53 1.53zm-7.01-1.495.696.707h5.916l1.19-1.192-.792-.806h-5.718l-1.29 1.29zm19.752 5.203 4.39 1.518c.21.054.327-.07.257-.277l-4.521-13.45397c-.07-.207-.183-.207-.252 0l-4.52 13.45397c-.07.207.044.33.256.277zm-23.81-17.359973c-1.091-.001-1.975997.884-1.975997 1.974003v19.77997c0 1.09.884997 1.976 1.977997 1.976h31.64c1.094 0 1.98-.885 1.98-1.977v-19.77897c0-1.092003-.886-1.977003-1.98-1.977003h-31.64zm0 .79h31.642c.656 0 1.187.530003 1.187 1.186003v19.77797c0 .654-.53 1.185-1.187 1.185h-31.64c-.657 0-1.187997-.53-1.187997-1.186v-19.77897c0-.655.529997-1.186003 1.186997-1.186003zm53.344 11.383973c0-3.17597-2.258-5.62797-5.387-5.62797-3 0-5.273 2.565-5.273 5.64597 0 2.984 2.258 5.63 5.322 5.63 3.128 0 5.338-2.55 5.338-5.63v-.017zm1-.047c0 1.903-.854 3.645-1.967 4.726-.37.354-1.032.854-1.806 1.193v.032c.387.242.936.484 1.42.693.45.194.87.34 1.258.468.177.08.42.13.564.177l.016.033-.677.677h-.033c-.42-.13-.935-.338-1.71-.693-.596-.274-1.322-.71-1.806-.984-.145.048-.403.096-.694.145-.29.033-.63.065-.983.065-3.566 0-6.243-2.92-6.243-6.387 0-3.65997 2.774-6.54797 6.516-6.54797 3.516 0 6.145 2.806 6.145 6.38697zm1.694-.919v-5.32397h.903v7.32397c0 1.403.194 2.403.678 3.16.597.92 1.774 1.437 2.87 1.437 1.227 0 2.26-.338 2.97-1.274.58-.774.853-1.92.853-3.516v-7.13097h.87v7.22697c0 1.79-.353 3.097-1.176 4.065-.807.967-2.08 1.467-3.565 1.467-1.45 0-2.71-.533-3.5-1.662-.63-.887-.903-1.87-.903-3.694v-2.08zm12.516 1.613v5.645h-.903v-12.57997h.903zm11.822 5.806h-.08c-3.435-4.306-5.37-6.774-6.515-8.226-.678-.85497-1.097-1.35497-1.79-2.35497h-.017v10.41997h-.84v-12.77497h.082c3.548 4.48497 5.532 7.01597 6.66 8.43597.614.79 1.05 1.34 1.63 2.162h.033v-10.40497h.838v12.74297zm5.244-11.91997h-3.936v-.823h8.79v.823h-3.95v11.75997h-.904v-11.76097zm16.4518 5.46697c0-3.17597-2.307-5.62797-5.3698-5.62797-2.985 0-5.292 2.5-5.292 5.64597 0 3.032 2.323 5.63 5.34 5.63 3.0638 0 5.3218-2.517 5.3218-5.63v-.017zm1-.047c0 3.532-2.646 6.532-6.4198 6.532-3.5 0-6.242-2.92-6.242-6.387 0-3.70997 2.774-6.54797 6.517-6.54797 3.5328 0 6.1458 2.806 6.1458 6.38697v.016zm6.464 2.145v-.032c-.646-1.63-.888-2.37-1-2.79h-.017c-.113.42-.37 1.16-1.032 2.79v.032h2.05zm-2.953 2.387c-.387.936-.677 1.646-.726 1.758v.05h-3.063v-.05c.048-.112.37-.822 2.5-5.612l3.16-7.14497h.42l3.13 7.14597c2.096 4.79 2.403 5.5 2.452 5.613v.05h-3.357v-.05c-.032-.112-.322-.822-.693-1.758h-3.823zm19.743 1.968h-.388c-2.63-2.21-4.21-3.58-5.29-4.564-.84-.76-1.436-1.308-2.435-2.324h-.033c.033.66.033 1.08.033 1.484v5.242h-2.775v-12.69297h.387c2.74 2.323 4.354 3.71 5.435 4.72597.726.677 1.45 1.355 2.274 2.194h.03c-.015-.823-.015-1.307-.015-1.807v-4.99997h2.775v12.74297zm9.468-6.629c0-1.145-.387-2.17797-1.194-2.82297-.564-.434-1.322-.692-2.29-.692-.307 0-.613.032-.823.048v7.19397c0 .032.018.032.033.032.242.032.5.048.742.048.726 0 1.436-.21 2.033-.628.87-.63 1.5-1.662 1.5-3.162v-.016zm3.097-.064c0 2.403-1.033 4.29-2.855 5.484-1.113.74-2.597 1.096-4.275 1.096-.806 0-1.58-.016-2.097-.032-.338-.016-.822-.048-1.16-.08v-12.45397c.322-.032.725-.08 1.467-.113.774-.032 1.387-.048 1.984-.048 1.918 0 3.32.387 4.37 1.032 1.952 1.21 2.565 3.25797 2.565 5.09797v.016zm6.113 2.338v-.032c-.645-1.63-.887-2.37-1-2.79h-.016c-.113.42-.37 1.16-1.032 2.79v.032zm-2.952 2.387c-.386.936-.677 1.646-.726 1.758v.05h-3.064v-.05c.048-.112.37-.822 2.5-5.612l3.16-7.14497h.42l3.13 7.14597c2.097 4.79 2.403 5.5 2.452 5.613v.05h-3.355v-.05c-.033-.112-.323-.822-.694-1.758h-3.824zm13.807-6.78997c0-.984-.596-1.565-1.564-1.565-.275 0-.42.016-.566.032v3.20997c.113.016.275.016.42.016.42 0 .79-.13 1.064-.322.29-.193.645-.66.645-1.35497v-.015zm-4.95 1.33997v-5.27697c.273-.033.725-.065 1.144-.08.355-.018 1.13-.033 1.565-.033 1.032 0 1.838.096 2.564.29 1.08.29 2.565 1.21 2.565 3.532 0 1.38597-.66 2.38597-1.16 2.78997-.29.258-.63.5-.84.58v.05c.114.16.323.5 2.71 4.015.34.5.84 1.226.92 1.355v.032h-3.355c-.903-1.452-1.968-3.178-3-4.84h-.29v4.84h-2.823v-7.258z" fill="#5063f0" fill-rule="evenodd"/></svg>