<svg fill="none" height="33" viewBox="0 0 120 33" width="120" xmlns="http://www.w3.org/2000/svg"><g clip-rule="evenodd" fill="#039" fill-rule="evenodd"><path d="m42.1119 26.7659c-.0172.9421-.1091 1.4447-.3569 1.9574-.5205 1.0699-1.4906 1.6465-2.7709 1.6465-1.9294 0-3.2556-1.3177-3.2556-3.2377 0-1.948 1.345-3.2743 3.3109-3.2743 1.299 0 2.1663.5486 2.7429 1.719l-1.5078.621c-.2751-.6576-.6959-.9685-1.3083-.9685-.9039 0-1.5818.8127-1.5818 1.9114 0 1.126.6779 1.92 1.627 1.92.7231 0 1.1524-.3561 1.253-1.0605h-1.2982v-1.2343z"/><path d="m44.5998 26.0073v.6771c.3397-.522.7325-.7324 1.3636-.7324.0998 0 .1364 0 .2829.0085v1.3995c-.2377-.1184-.3756-.1457-.6218-.1457-.685 0-1.0247.3935-1.0247 1.1618v1.7727h-1.4626v-4.1415z"/><path d="m51.9077 28.0732c0 1.3083-1.034 2.2317-2.4865 2.2317-1.4641 0-2.4974-.9234-2.4974-2.2317 0-1.2974 1.0333-2.2223 2.4974-2.2223 1.4525 0 2.4865.9249 2.4865 2.2223zm-3.4395-.0085c0 .5205.4208.9498.953.9498.5205 0 .9406-.4293.9406-.9498 0-.5307-.4201-.9507-.9406-.9507-.5322 0-.953.42-.953.9507z"/><path d="m54.3685 28.3571c0 .5033.247.7605.7503.7605.4933 0 .7395-.2572.7395-.7605v-2.3509h1.4642v2.6337c0 1.0987-.7683 1.6831-2.2037 1.6831-1.4454 0-2.2145-.5844-2.2145-1.6831v-2.6337h1.4642z"/><path d="m58.4751 32.2251v-6.2174h1.4634v.4558c.3202-.4122.7215-.5937 1.2802-.5937 1.1798 0 2.0938.9701 2.0938 2.2129 0 1.2437-.9047 2.2045-2.0852 2.2045-.5299 0-.9234-.1645-1.2888-.5408v2.4787zm1.4174-4.1509c0 .522.4301.9514.9506.9514.5221 0 .9429-.4208.9429-.9514 0-.5206-.4208-.9413-.9429-.9413-.5298 0-.9506.4207-.9506.9413z"/><path d="m40.1376 12.5033h.48c1.5421 0 3.8797-.2166 3.8797 1.9761 0 1.9995-2.3618 1.927-3.7589 1.927h-.6008zm2.5527 7.5078c3.3211 0 6.5673-1.2499 6.5673-5.0509 0-2.5286-1.1073-4.2881-3.7037-4.6247v-.0491c1.4798-.74805 2.0097-2.0813 2.0097-3.73559 0-3.47376-2.1647-4.72207-5.3954-4.72207h-6.7605v18.18236zm-2.5527-14.57847h.3382c1.281 0 2.7576.09663 2.7576 1.77663 0 1.5561-1.3059 1.77584-2.5636 1.77584h-.5322z"/><path d="m66.9929 20.0111h4.3839v-20.01116104h-4.3839zm-9.2556-8.961c1.7868 0 2.8247 1.2732 2.8247 2.7857 0 1.5623-1.0379 2.7615-2.8247 2.7615-1.7883 0-2.8262-1.1992-2.8262-2.7615 0-1.5125 1.0379-2.7857 2.8262-2.7857zm7.045-3.41302h-4.3839v1.21715c-.9149-1.08546-2.4071-1.61845-3.826-1.61845-3.6569 0-6.1808 3.04282-6.1808 6.57502 0 3.5346 2.573 6.6008 6.2275 6.6008 1.4447 0 2.9603-.5548 3.7309-1.7859h.0484v1.3846h4.3839z"/><path d="m80.191 11.0506c1.7782 0 2.8114 1.2725 2.8114 2.7849 0 1.5608-1.0332 2.7616-2.8114 2.7616-1.7774 0-2.8099-1.2008-2.8099-2.7616 0-1.5124 1.0325-2.7849 2.8099-2.7849zm0-3.81427c-3.967 0-7.4361 2.39143-7.4361 6.59917 0 4.211 3.4917 6.5767 7.4361 6.5767 3.9678 0 7.4384-2.3915 7.4384-6.5767 0-4.20774-3.4706-6.59917-7.4384-6.59917z"/><path d="m89.0204 20.0103h4.3839v-12.37243h-4.3839zm4.6519-17.11944c0 1.35039-1.1103 2.45844-2.4592 2.45844-1.3496 0-2.4592-1.10805-2.4592-2.45844 0-1.34961 1.1096-2.459219 2.4592-2.459219 1.3489 0 2.4592 1.109609 2.4592 2.459219z"/><path d="m103.751 10.823c-.675-.3623-1.612-.6023-2.36-.6023-.515 0-1.4045.2174-1.4045.8439 0 .8439 1.4045.9639 2.0075 1.0831 2.045.4114 3.588 1.3753 3.588 3.6655 0 3.2517-2.963 4.6005-5.8604 4.6005-1.754 0-3.4854-.5042-4.9784-1.4205l1.5896-3.06c.8891.6265 2.3813 1.253 3.462 1.253.5632 0 1.4032-.265 1.4032-.939 0-.9647-1.4031-1.0146-2.7738-1.3753-1.3706-.3616-2.7413-1.038-2.7413-3.2541 0-3.03502 2.7413-4.38385 5.4651-4.38385 1.399 0 2.796.2174 4.073.79636z"/><path d="m110.758 12.0216c.265-1.2686 1.325-1.9379 2.604-1.9379 1.179 0 2.266.7652 2.481 1.9379zm9.159 2.0712c0-4.20238-2.482-6.85641-6.773-6.85641-4.024 0-6.843 2.48415-6.843 6.59141 0 4.2686 3.06 6.5844 7.157 6.5844 2.82 0 5.592-1.3262 6.29-4.2452h-4.218c-.482.8159-1.157 1.1299-2.097 1.1299-1.808 0-2.748-.9639-2.748-2.7467h9.232z"/><path d="m0 15.7161 14.4522 14.4507 8.7709-8.7858-4.1602-4.1649-4.6123 4.6021-6.00696-5.9992 6.00936-6.01484 10.1852 10.18204h8.8917v-5.7335h-6.1037l-12.974-12.98958z"/></g></svg>