<svg fill="none" height="21" viewBox="0 0 102 21" width="102" xmlns="http://www.w3.org/2000/svg"><g fill="#212529"><path d="m6.63987 1.43952.27213 2.25864c-.29027.3447-.78917.65311-1.49669.92523v12.43611c.72566.2903 1.22456.5897 1.49669.8981l-.27213 2.2586h-6.367744l-.272126-2.2586c.235842-.3084.73474-.6078 1.49669-.8981v-12.43611c-.743808-.27212-1.242706-.58053-1.49669-.92523l.272126-2.25864z"/><path d="m8.77223 6.60991c.9978-.2177 1.89577-.32655 2.69407-.32655.7982 0 1.4604.01814 1.9865.05443v1.36063c.4535-.38098 1.0522-.68939 1.796-.92523.762-.25399 1.4876-.38098 2.177-.38098 1.7779 0 3.0206.41726 3.7282 1.25178.7256.83452 1.0885 2.27679 1.0885 4.32681v5.2248c.7075.2721 1.2064.5805 1.4967.9252l-.2722 2.0954h-6.2589l-.2721-2.0954c.254-.3447.7529-.6531 1.4967-.9252v-5.3881c0-.9796-.1633-1.6327-.4898-1.95929-.3084-.34469-.8708-.51704-1.6872-.51704s-1.6328.29027-2.4491.87083v6.9936c.7075.2721 1.2064.5805 1.4967.9252l-.2722 2.0954h-6.25887l-.27212-2.0954c.25398-.3447.75288-.6531 1.49669-.9252v-7.56509c-.63496-.2177-1.13386-.52611-1.49669-.92523z"/><path d="m29.6368 3.18113v3.42878h3.8914v2.28586h-3.8914v6.88483c0 .5805.0817 1.0068.245 1.2789.1632.254.5533.381 1.1701.381s1.279-.136 1.9865-.4082l.8164 2.1226c-1.3969.7075-2.8301 1.0613-4.2996 1.0613-1.4513 0-2.4401-.3084-2.9662-.9252-.5079-.635-.7619-1.5511-.7619-2.7485v-7.64673h-1.2246l-.2993-1.65997c.2902-.34469.8889-.68938 1.796-1.03408.2177-1.48762.7347-2.49448 1.5511-3.02059z"/><path d="m41.3402 20.4339c-2.177 0-3.8189-.5805-4.9255-1.7416-1.0885-1.1611-1.6328-2.8483-1.6328-5.0615 0-1.3425.1905-2.4945.5715-3.456.381-.97969.898-1.73257 1.5511-2.25868 1.2699-1.01594 2.7485-1.52391 4.4357-1.52391s2.9752.4354 3.8642 1.30621c.907.85266 1.3606 2.39468 1.3606 4.62618 0 1.3062-.644 1.9593-1.9321 1.9593h-5.9051c.0725 1.1429.3628 1.9502.8708 2.4219.5261.4717 1.3515.7075 2.4763.7075.6168 0 1.2064-.0726 1.7688-.2177s.9706-.2903 1.2246-.4354l.381-.2177.8164 2.177c-.1089.127-.2722.2903-.4899.4898-.1995.1815-.7256.4354-1.5783.762-.8345.3084-1.787.4626-2.8573.4626zm1.7144-8.572c.0362-.2539.0544-.5624.0544-.9252s-.1451-.7438-.4354-1.14292c-.2903-.41726-.7982-.62589-1.5239-.62589-.7075 0-1.2518.2177-1.6328.65311-.3809.4354-.6349 1.1701-.7619 2.2042z"/><path d="m56.1274 9.95706c-1.3787 0-2.3312.26304-2.8573.78914v6.2317c1.4695.2721 2.4764.6531 3.0206 1.1429l-.2721 2.0954h-7.7828l-.2721-2.0954c.254-.3447.7529-.6531 1.4967-.9252v-7.56509c-.635-.2177-1.1339-.52611-1.4967-.92523l.2721-2.09537c.9978-.2177 1.8958-.32655 2.694-.32655.7983 0 1.4605.01814 1.9866.05443v1.71439c.4172-.48983.9524-.88895 1.6055-1.19736.6531-.32655 1.2427-.48982 1.7688-.48982.5443 0 .9162.04535 1.1157.13606l-.0816 3.53764c-.3628-.05443-.7619-.08164-1.1974-.08164z"/><path d="m58.4594.895269c1.016-.235843 1.9594-.353765 2.8302-.353765s1.6055.027212 2.2042.081638v16.572458c.7075.2721 1.2064.5805 1.4967.9252l-.2722 2.0954h-6.2589l-.2721-2.0954c.254-.3447.7529-.6531 1.4967-.9252v-13.27973c-.6349-.2177-1.1338-.52611-1.4967-.92523z"/><path d="m66.4408 6.60991c1.0159-.23584 1.9593-.35376 2.8301-.35376s1.6056.02721 2.2042.08164v10.85781c.7076.2721 1.2065.5805 1.4967.9252l-.2721 2.0954h-6.2589l-.2721-2.0954c.254-.3447.7529-.6531 1.4967-.9252v-7.56509c-.635-.2177-1.1339-.52611-1.4967-.92523zm3.075-1.87767c-1.5057 0-2.2586-.68031-2.2586-2.04094 0-1.37877.7529-2.068158 2.2586-2.068158 1.5239 0 2.2859.689388 2.2859 2.068158 0 1.36063-.762 2.04094-2.2859 2.04094z"/><path d="m74.3322 6.60991c.9978-.2177 1.8959-.32655 2.6941-.32655s1.4604.01814 1.9865.05443v1.36063c.4536-.38098 1.0522-.68939 1.796-.92523.762-.25399 1.4877-.38098 2.1771-.38098 1.7778 0 3.0206.41726 3.7281 1.25178.7256.83452 1.0885 2.27679 1.0885 4.32681v5.2248c.7075.2721 1.2064.5805 1.4967.9252l-.2722 2.0954h-6.2588l-.2722-2.0954c.254-.3447.7529-.6531 1.4967-.9252v-5.3881c0-.9796-.1633-1.6327-.4898-1.95929-.3084-.34469-.8708-.51704-1.6872-.51704s-1.6327.29027-2.4491.87083v6.9936c.7075.2721 1.2064.5805 1.4967.9252l-.2722 2.0954h-6.2589l-.2721-2.0954c.254-.3447.7529-.6531 1.4967-.9252v-7.56509c-.6349-.2177-1.1338-.52611-1.4967-.92523z"/><path d="m96.7752 20.4339c-2.177 0-3.8188-.5805-4.9255-1.7416-1.0885-1.1611-1.6327-2.8483-1.6327-5.0615 0-1.3425.1904-2.4945.5714-3.456.381-.97969.898-1.73257 1.5511-2.25868 1.27-1.01594 2.7485-1.52391 4.4357-1.52391s2.9752.4354 3.8638 1.30621c.907.85266 1.361 2.39468 1.361 4.62618 0 1.3062-.644 1.9593-1.932 1.9593h-5.9052c.0725 1.1429.3628 1.9502.8708 2.4219.5261.4717 1.3515.7075 2.4763.7075.6168 0 1.2065-.0726 1.7688-.2177.5624-.1451.9703-.2903 1.2243-.4354l.381-.2177.817 2.177c-.109.127-.272.2903-.49.4898-.2.1815-.726.4354-1.5785.762-.8345.3084-1.7869.4626-2.8573.4626zm1.7144-8.572c.0363-.2539.0544-.5624.0544-.9252s-.1451-.7438-.4354-1.14292c-.2903-.41726-.7982-.62589-1.5239-.62589-.7075 0-1.2518.2177-1.6328.65311-.3809.4354-.6349 1.1701-.7619 2.2042z"/></g></svg>