<svg fill="none" height="29" viewBox="0 0 92 29" width="92" xmlns="http://www.w3.org/2000/svg"><path clip-rule="evenodd" d="m90.1135 26.9218c-.2963-.0012-.5802-.1194-.7897-.3289-.2096-.2096-.3278-.4935-.329-.7898.0129-.288.1364-.56.3448-.7593.2084-.1992.4856-.3104.7739-.3104s.5656.1112.7739.3104c.2084.1993.3319.4713.3448.7593 0 .6128-.5002 1.1187-1.1187 1.1187zm0-2.4413c-.7332 0-1.3282.5883-1.3282 1.3226 0 .7354.595 1.3104 1.3282 1.3104.7355 0 1.3293-.5761 1.3293-1.3104s-.595-1.3226-1.3293-1.3226zm-.2506 1.2234v-.4245h.2451c.1403 0 .2974.0422.2974.2039 0 .1806-.1748.2206-.3264.2206zm.8101-.216c0-.3188-.2729-.4368-.5527-.4368h-.5237v1.4909h.2662v-.6228h.1928l.35.6239h.3264l-.4034-.6529c.2118-.0455.344-.1862.344-.401zm-8.3648-18.90364c.3612.0073.7203-.05755 1.0562-.19073s.6418-.33204.8999-.58491.4631-.55467.6031-.88777.2122-.69076.2123-1.05209c.0001-.36132-.072-.71906-.2118-1.05221-.1399-.33315-.3448-.63505-.6028-.88803s-.5639-.45191-.8997-.58523c-.3358-.13331-.6949-.19833-1.0561-.19118-.711.01423-1.388.30664-1.8857.81445-.4978.50781-.7766 1.19055-.7766 1.90162 0 .71108.2788 1.39382.7766 1.90163.4977.50781 1.1747.80022 1.8857.81445zm-7.2874 2.34547v3.98467h5.0388v14.0087h4.496v-14.0087h5.0399v-3.98467zm-39.2259-2.34547c.3568.00008.71-.07009 1.0396-.20654.3297-.13646.6291-.33654.8814-.58876s.4524-.55165.589-.88122c.1365-.32957.2068-.68282.2068-1.03956 0-.35673-.0703-.70998-.2068-1.03955-.1366-.32957-.3367-.629-.589-.88122s-.5517-.45231-.8814-.58876c-.3296-.13646-.6828-.20663-1.0396-.20654-.7109.01423-1.3879.30664-1.8856.81445-.4978.50781-.7766 1.19055-.7766 1.90162 0 .71108.2788 1.39382.7766 1.90163.4977.50781 1.1747.80022 1.8856.81445zm-7.2884 6.32904h5.0398v14.0098h4.495v-14.0087h5.041v-3.98467h-14.5747v3.98467zm38.867 14.0098h4.4972v-17.98219h-4.4961v17.98219zm-9.0969-8.0919c0 2.3979-1.3505 4.8694-4.1964 4.8694-2.8848 0-3.3718-2.6587-3.3718-4.7947v-9.96499h-4.4961v11.23859c0 3.6726 1.9478 7.2684 6.6322 7.2684 2.6587 0 4.7947-1.6112 5.5814-3.4097h.0745v2.8849h4.2711v-17.98219h-4.495zm-38.691-10.41511c-2.6598 0-4.7947 1.61121-5.5814 3.40971h-.0758v-2.88489h-4.2699v17.98219h4.495v-9.8903c0-2.3979 1.3494-4.8705 4.1963-4.8705 2.8838 0 3.3718 2.6598 3.3718 4.7959v9.9649h4.495v-11.2408c0-3.6704-1.9466-7.2673-6.631-7.2673zm-19.028471 18.50701h4.494991v-17.98219h-4.494991z" fill="#0077c5" fill-rule="evenodd"/></svg>