<svg fill="none" height="20" viewBox="0 0 86 20" width="86" xmlns="http://www.w3.org/2000/svg"><g fill="#000"><path d="m.833496 18.8748v-1.0642c1.866384 0 2.394854-.5598 2.394854-2.0716v-11.47787c0-1.51188-.5292-2.07165-2.394854-2.07165v-1.06422h13.563304l.7243 2.52005c.0837.28025.139.53211.139.64421 0 .13976-.2504.42001-.5568.42001-.1951 0-.2788-.1121-.5846-.58816-1.2534-1.87584-2.8687-2.21141-5.34725-2.21141-1.72662 0-1.92171.28024-1.92171 1.39978v5.54311h2.2005c1.61526 0 2.22816-.36396 2.58996-1.98795.056-.30791.1113-.3363.5292-.36396.3341 0 .4731.08371.4731.53211v5.48705c0 .2802-.2227.364-.5292.364-.3064 0-.3618-.0837-.3901-.1958-.752-2.4641-1.2251-2.6038-2.67369-2.6038h-2.20049v5.9631c0 1.4842.27879 1.7637 2.86872 1.7637 3.42556 0 4.37266-1.0358 5.76516-3.4437.0837-.1398.139-.2242.4731-.2242.3065 0 .4178.0837.4178.1958s-.0276.2518-.0553.5037l-.6129 4.0319z"/><path d="m20.9412 4.26113c0-1.51188-.5292-2.07165-2.5623-2.07165v-1.06422h7.1853c4.5116 0 6.9625 1.51189 6.9625 4.1717 0 2.49167-2.3395 3.61194-3.9547 4.08727v.05605c3.3418.42 4.9578 2.65982 4.9578 4.73142 0 1.9043-1.4485 4.7039-6.4617 4.7039h-8.6892v-1.0643c2.0331 0 2.5623-.5597 2.5623-2.0716zm3.6206 3.66726c0 .81236.3902 1.09188 1.5316 1.09188 1.7266 0 3.0915-.75631 3.0915-3.44379 0-2.60376-1.2251-3.38773-3.2305-3.38773-1.1145 0-1.3926.44767-1.3926 1.45584zm0 7.95101c0 1.4835.4455 1.9319 2.1168 1.9319 2.2282 0 3.3419-1.5679 3.3419-3.8077 0-2.6875-1.7266-3.9198-4.0661-3.9198-1.1698 0-1.3926.2242-1.3926 1.3437z"/><path d="m46.3411 4.8209c0 .58816-.1113.70026-.4731.70026-.3065 0-.4178-.16815-.7796-.89607-.6406-1.31607-2.0608-2.65981-3.8434-2.65981-1.6153 0-3.0078 1.12027-3.0078 2.63215 0 3.94751 8.968 2.93934 8.968 9.07057 0 2.464-1.3649 5.4318-6.5171 5.4318-1.4762 0-3.9271-.5321-4.9018-1.0643-.1951-.2518-.4455-2.464-.4455-3.6679 0-.5882.1114-.784.5853-.784.4738 0 .5845.056.7796.784.3064 1.0918 1.4762 3.6679 4.5116 3.6679 1.7827 0 3.3703-.896 3.3703-2.8279 0-4.1717-8.968-3.6396-8.968-9.21111 0-3.47144 3.3419-5.095428 6.0716-5.095428 2.6183 0 4.3726.783968 4.54 1.008168.0277.39162.1114.75558.1114 1.84746v1.06421z"/><path d="m65.3075 15.795c-.0837.7279-.1951 1.0358-.4455 1.3437-.4178.5045-2.6743 1.9603-6.6007 1.9603-5.2083 0-9.3858-4.0872-9.3858-9.099 0-5.01167 4.1775-9.098938 9.3858-9.098938 3.2028 0 6.9072 1.343738 6.9072 2.603768 0 1.23164-.1951 2.29585-.1951 2.74352 0 .16815-.139.55977-.4731.55977-.2788 0-.3902-.08371-.7796-1.11954-.9194-2.37956-2.9241-3.72403-5.4587-3.72403-2.4786 0-5.4863 2.12771-5.4863 8.03545 0 5.9071 3.0077 8.0348 6.322 8.0348 3.0638 0 4.9018-2.9117 5.2643-3.8077.2504-.5882.3341-.6442.6682-.6442.2788 0 .4455.1397.4455.3639 0 .1682-.0277.42-.0553.8677z"/><path d="m76.6143.901062c5.2083 0 9.3858 4.087988 9.3858 9.098938 0 5.011-4.1775 9.099-9.3858 9.099s-9.3858-4.0872-9.3858-9.099c0-5.01167 4.1775-9.098938 9.3858-9.098938zm0 17.133738c2.4786 0 5.4863-2.1277 5.4863-8.0348 0-5.90774-3.0077-8.03545-5.4863-8.03545s-5.487 2.12844-5.487 8.03545c0 5.9071 3.0084 8.0348 5.487 8.0348z"/></g></svg>