<svg fill="none" height="57" viewBox="0 0 122 57" width="122" xmlns="http://www.w3.org/2000/svg"><g fill="#1a1a1a"><path d="m11.2476 22.8819h7.6807l-.0161 2.1067h-5.2544v2.7632h4.8205v2.123h-4.8205v4.2541h-2.4102z"/><path d="m31.3334 30.9849c.4323.4659 1.0123.6985 1.7354.6985.7022 0 1.2614-.2293 1.6792-.6904.4177-.4611.6258-1.0939.6258-1.9123v-6.604h2.4103v6.604c0 .9886-.1904 1.8394-.5729 2.5605-.3816.7237-.9319 1.2803-1.6389 1.6693-.7119.3914-1.5506.5858-2.5228.5858-.9641 0-1.8157-.1944-2.5388-.5858-.7231-.3906-1.2774-.9481-1.6631-1.6693-.3872-.7219-.58-1.5719-.58-2.5605v-6.604h2.4102v6.604c0 .8038.217 1.4423.6492 1.9042"/><path d="m47.4033 22.8819h8.9179v2.1554h-3.2699v9.0754h-2.4102v-9.0754h-3.2539z"/><path d="m102.837 22.8819h8.114v2.1067h-5.728v2.4391h5.142v2.1068h-5.142v2.4876h5.897v2.1068h-8.275z"/><path d="m90.7867 30.1746c.6507-.3209 1.1488-.7893 1.4863-1.4018.3406-.6151.5101-1.3533.5101-2.2203 0-1.2398-.3816-2.204-1.1408-2.8847-.7625-.6798-1.8398-1.021-3.2378-1.021h-4.6438v11.2633h2.4103v-9.1565h2.2255c.6724 0 1.189.1572 1.5506.4733.3607.3152.5423.7843.5423 1.4018 0 .632-.1816 1.1101-.5423 1.4342-.3608.3241-.8758.4894-1.5506.4894h-.8597l1.3016 2.512 1.4863 2.8199h2.7316z"/><path d="m68.2918 30.9849c.4331.4659 1.0124.6985 1.7354.6985.703 0 1.2614-.2293 1.6792-.6904s.625-1.0939.625-1.9123v-6.604h2.4103v6.604c0 .9886-.1904 1.8394-.5728 2.5605-.3817.7237-.932 1.2803-1.639 1.6693-.7126.3914-1.5506.5858-2.5228.5858-.9641 0-1.8157-.1944-2.5307-.5858-.7239-.3906-1.2775-.9481-1.6631-1.6693-.3881-.7219-.5809-1.5719-.5809-2.5605v-6.604h2.4103v6.604c0 .8038.2169 1.4423.6491 1.9042"/></g><path d="m8.03438.19324v8.03824h-7.9699269v3.18452h11.1675469v-11.182245z" fill="#aa1124"/><path d="m0 45.5704v3.1845h7.96993v8.0383h3.15747v-11.2633z" fill="#aa1124"/><path d="m110.873 45.5705v11.2632h3.157v-8.0382h7.97v-3.1845z" fill="#aa1124"/><path d="m110.873.193274v11.182226h11.087v-3.1845h-7.97v-8.038242z" fill="#aa1124"/></svg>