<svg fill="none" height="36" viewBox="0 0 101 36" width="101" xmlns="http://www.w3.org/2000/svg" xmlns:xlink="http://www.w3.org/1999/xlink"><clipPath id="a"><path d="m0 .324951h101v35.35h-101z"/></clipPath><g clip-path="url(#a)"><path d="m42.0834 23.4287 7.7433-14.98166c.0943-.27909.2765-.52012.5193-.68702.2427-.1669.533-.25068.8274-.23881.1794-.00972.3588.01845.5266.08269s.3201.1631.4472.29014c.127.12704.2259.27942.2901.44721.0643.16778.0924.34722.0827.52662v18.09583c.0115.1838-.0148.368-.0773.5412-.0625.1733-.1599.3318-.2861.4659s-.2786.2409-.4477.3138-.3514.1103-.5355.1099c-.1902.0084-.38-.0229-.5573-.0918-.1774-.069-.3385-.1741-.4731-.3087-.1345-.1345-.2396-.2956-.3086-.473-.0689-.1774-.1002-.3672-.0919-.5573v-12.625l-6.1441 11.7833c-.1511.2721-.37.5003-.6355.6626s-.5686.253-.8795.2633c-.3138.0022-.6218-.0834-.8895-.247s-.4844-.3987-.6255-.6789l-6.1442-11.7833v12.625c.0083.1901-.0229.3799-.0919.5573-.0689.1774-.174.3385-.3086.473-.1346.1346-.2957.2397-.4731.3087-.1773.0689-.3671.1002-.5572.0918-.1842.0004-.3665-.037-.5356-.1099s-.3215-.1797-.4477-.3138-.2236-.2926-.2861-.4659c-.0625-.1732-.0888-.3574-.0773-.5412v-18.01166c-.0169-.18106.0064-.3636.0681-.53465s.1604-.32639.2889-.45497c.1286-.12858.284-.22723.455-.28895.1711-.06171.3536-.08496.5347-.0681.2918-.00042.5769.0879.8174.25325.2406.16535.4251.39992.5292.67259zm23.9033 2.525c-1.5814 0-3.1273-.4689-4.4423-1.3475-1.3149-.8786-2.3397-2.1274-2.9449-3.5885-.6052-1.461-.7635-3.0687-.455-4.6197.3085-1.5511 1.07-2.9758 2.1883-4.094 1.1182-1.1183 2.5429-1.8798 4.094-2.1883 1.551-.30854 3.1587-.1502 4.6198.455 1.461.6052 2.7098 1.63 3.5884 2.9449s1.3475 2.8608 1.3475 4.4423c0 2.1206-.8424 4.1544-2.3419 5.6539s-3.5333 2.3419-5.6539 2.3419zm10.6892-7.9958c0-2.1141-.6269-4.1808-1.8015-5.9386-1.1745-1.7578-2.844-3.12789-4.7971-3.93693-1.9532-.80904-4.1025-1.02072-6.176-.60827-2.0735.41244-3.9781 1.43048-5.473 2.9254-1.4949 1.4949-2.5129 3.3995-2.9254 5.473-.4124 2.0735-.2007 4.2228.6083 6.1759.809 1.9532 2.1791 3.6227 3.9369 4.7972s3.8245 1.8014 5.9386 1.8014c2.8336-.0044 5.5498-1.132 7.5535-3.1357 2.0036-2.0036 3.1312-4.7198 3.1357-7.5534zm13.2141 7.9958c-1.5814 0-3.1273-.4689-4.4422-1.3475s-2.3398-2.1274-2.945-3.5885c-.6051-1.461-.7635-3.0687-.455-4.6197.3085-1.5511 1.0701-2.9758 2.1883-4.094 1.1183-1.1183 2.543-1.8798 4.094-2.1883 1.551-.30854 3.1587-.1502 4.6198.455 1.461.6052 2.7098 1.63 3.5884 2.9449s1.3476 2.8608 1.3476 4.4423c0 2.1206-.8425 4.1544-2.342 5.6539s-3.5332 2.3419-5.6539 2.3419zm10.689-7.9958c0-2.1141-.6267-4.1808-1.8013-5.9386-1.1745-1.7578-2.8439-3.12789-4.7971-3.93693s-4.1024-1.02072-6.1759-.60827c-2.0735.41244-3.9782 1.43048-5.4731 2.9254-1.4949 1.4949-2.5129 3.3995-2.9254 5.473-.4124 2.0735-.2007 4.2228.6083 6.1759.8091 1.9532 2.1791 3.6227 3.9369 4.7972 1.7579 1.1745 3.8245 1.8014 5.9386 1.8014 2.8336-.0044 5.5498-1.132 7.5535-3.1357 2.0036-2.0036 3.1315-4.7198 3.1355-7.5534zm-89.2165 12.8775c1.0863.0112 2.164-.1944 3.1698-.605 1.0058-.4105 1.9196-1.0176 2.6878-1.7858s1.3753-1.682 1.7858-2.6878c.4106-1.0058.6162-2.0834.605-3.1698-.0144-.5645-.0707-1.1271-.1684-1.6833-.3366-1.8517-1.7675-5.05-4.2083-9.3425-1.8517-3.28249-3.4508-5.63916-3.4508-5.63916l-.4209-.58917-.3366.505s-1.59921 2.44084-3.45087 5.63913c-2.525 4.2925-3.95584 7.4909-4.20834 9.3425-.0977.5562-.15397 1.1189-.16833 1.6834.00362 1.8205.59391 3.5914 1.68333 5.05.73654 1.0281 1.71026 1.8633 2.8385 2.4348 1.12825.5714 2.37771.8622 3.64231.8477zm0 2.8616c-1.68082.0172-3.34199-.3626-4.84838-1.1085s-2.81546-1.8368-3.82076-3.184c-1.4911-1.8937-2.292626-4.2389-2.272499-6.6491-.007447-.751.077354-1.5001.2525-2.2304.420829-2.4409 2.188329-6.3967 5.386669-11.86754 2.35666-4.04 4.29247-7.07 4.37667-7.07.1683-.33667.4208-.757504.9258-.757504s.7575.420834 1.01.757504c0 0 2.02 3.03 4.3767 7.07 3.1983 5.47084 4.9658 9.42664 5.3867 11.86754.1717.7166.2565 1.4514.2525 2.1883.0201 2.4102-.7814 4.7554-2.2725 6.6492-1.0479 1.3215-2.3775 2.3926-3.8917 3.1352-1.5143.7425-3.1752 1.1379-4.8617 1.1573" fill="#009870"/></g></svg>