<svg fill="none" height="63" viewBox="0 0 63 63" width="63" xmlns="http://www.w3.org/2000/svg"><path d="m63 0h-63v63h63z" fill="#009"/><path d="m19.4124 15.0958c-2.7616 0-4.6064 1.191-5.2359 2.8318v2.8011c.4826 1.2744 1.7921 1.9457 4.6064 2.5598.9235.2062 1.5662.3598 1.9259.4388.5484.1579 1.0222.4036 1.2152.8203v.8972c-.2698.6076-1.0968.93-2.1935.93-.7317.0157-1.4584-.1241-2.1321-.4102-.6427-.2566-1.4126-.7699-2.3624-1.5354l-1.9259 2.1562c2.0794 1.8491 3.8518 2.4918 6.3436 2.4918 2.8384 0 4.7775-1.1362 5.4048-2.9393 0-.4387 0-2.3097 0-2.7857-.533-1.4171-2.0092-2.1234-4.8783-2.7595-.9257-.2062-1.5662-.3597-1.926-.4628-.5396-.1536-.9059-.351-1.055-.6581v-.7523c.2391-.5747 1.0265-.9257 2.1321-.9257 1.4126 0 2.3887.3334 3.9307 1.5355l1.7965-2.1936c-1.8074-1.5003-3.3846-2.0399-5.6461-2.0399zm26.4626.4387v7.912c0 1.7723-1.0265 2.7221-2.6958 2.7221-1.439 0-2.1935-.8225-2.1935-2.1935v-8.4428h-3.3298v9.3751c0 2.5423 1.5355 4.1676 4.6503 4.1676 1.8732 0 3.1586-.669 3.8518-1.7986v1.3885h3.0555v-13.1326zm-17.2652 18.3992c-1.7226 0-3.0329.642-3.9307 1.9259-.7173-1.2328-1.9742-1.9259-3.6457-1.9259-1.7219 0-2.9788.6427-3.7509 1.9018v-1.4653h-3.106v13.1238h3.3385v-8.0656c0-1.5354.8467-2.6212 2.312-2.6212 1.3863 0 2.0795.8489 2.0795 2.5182v8.1664h3.3385v-8.0634c0-1.5354.8467-2.6212 2.312-2.6212 1.4652 0 2.0794.952 2.0794 2.5182v8.1664h3.3385v-9.1689c0-2.6958-1.5925-4.3914-4.3651-4.3914zm21.0885 4.2203c-.9673-2.5971-3.3319-4.2203-6.3283-4.2203-2.9963 0-5.3873 1.6232-6.3612 4.2203v5.5299c.9696 2.5993 3.3386 4.2225 6.3612 4.2225 3.0227 0 5.361-1.6232 6.3283-4.2225zm-9.4453.8336c.5199-1.3842 1.6364-2.2287 3.117-2.2287s2.5708.8445 3.0907 2.2287v3.8912c-.5199 1.3842-1.6298 2.1936-3.0885 2.1936s-2.5949-.8182-3.117-2.1936z" fill="#fff"/></svg>