<svg fill="none" height="36" viewBox="0 0 45 36" width="45" xmlns="http://www.w3.org/2000/svg" xmlns:xlink="http://www.w3.org/1999/xlink"><linearGradient id="a" gradientUnits="userSpaceOnUse" x1="3.18349" x2="27.2873" y1="37.1647" y2="-2.95044"><stop offset=".5" stop-color="#32b4ff"/><stop offset="1" stop-color="#9bd3ae"/></linearGradient><clipPath id="b"><path d="m0 .143188h45v35.7455h-45z"/></clipPath><g clip-path="url(#b)"><path d="m2.20757.462302 11.94023 6.893098c.2248.1286.4116.31432.5415.53834.13.22403.1984.47841.1984.7374 0 .25898-.0684.51336-.1984.73739-.1299.22403-.3167.40974-.5415.53834l-11.94023 6.89313c-.2255.1284-.41298.3142-.54339.5385s-.19911.4792-.19911.7387.0687.5143.19911.7387c.13041.2243.31789.4101.54339.5385l11.94023 6.8931c.2248.1286.4116.3143.5415.5383.13.2241.1984.4784.1984.7374s-.0684.5134-.1984.7374c-.1299.224-.3167.4098-.5415.5384l-11.94023 6.8872c-.22379.1306-.47812.1997-.73723.2003-.2591.0006-.513771-.0673-.738187-.1968-.224415-.1295-.4106-.316-.539689-.5407-.12909-.2247-.1964947-.4795-.19538009-.7386v-32.67236c0-1.405076.99353509-1.978275 2.21048609-1.275738zm27.89573 1.175798v13.7656c-.0016.2594.0654.5145.1943.7396s.315.412.5395.5419.4794.198.7387.1975c.2594-.0005.514-.0696.738-.2003l11.9402-6.89311c.2255-.12839.413-.3142.5434-.53853s.1991-.47919.1991-.73867c0-.25949-.0687-.51435-.1991-.73868s-.3179-.41014-.5434-.53853l-11.9402-6.893098c-.2244-.130986-.4796-.20012-.7395-.200363-.2598-.000242-.5151.068419-.7398.198986s-.4107.31837-.5392.544269c-.1284.225896-.1947.481816-.192.741666z" fill="url(#a)"/></g></svg>