<svg fill="none" height="34" viewBox="0 0 96 34" width="96" xmlns="http://www.w3.org/2000/svg" xmlns:xlink="http://www.w3.org/1999/xlink"><clipPath id="a"><path d="m0 0h95.3v33.144h-95.3z"/></clipPath><g clip-path="url(#a)"><path d="m62.6864 23.9741h-.022c-3.9331 2.7841-8.5733 5.7008-13.5891 8.7721l-.1988.1105c-.0217.0089-.0411.0226-.0567.0401s-.027.0383-.0334.0608c-.0064.0226-.0076.0463-.0035.0693.0041.0231.0134.0449.0272.0639.0138.0189.0317.0345.0524.0455s.0436.0172.067.0181c.0234.0008.0467-.0036.0681-.0131.0215-.0094.0405-.0236.0556-.0415l.1547-.0884c4.2645-2.2096 9.1477-4.839 14.053-7.5568l.0884-.0442c-.2895-.444-.5128-.9279-.6629-1.4363zm25.8082-20.90277c-6.1869-6.82766-46.0923-.68497-63.0399 3.02715l-.3977.08839c-.0389.01002-.0732.03298-.0973.06511s-.0366.07151-.0353.11165c.0022.01996.0088.03917.0195.05618.0106.01701.025.03137.042.04201.0171.01064.0363.01727.0562.0194.02.00213.0402-.0003.0591-.00711l.3977-.06628c14.053-2.49685 43.286-5.96592 49.5613.26515 1.9224 1.90025 1.4804 4.35292-.7513 7.24752 1.232.8048 2.1033 2.0564 2.4306 3.4911 8.6837-5.767 14.5171-11.29102 11.7551-14.34027z" fill="#cc2427"/><g fill="#013d5b"><path d="m65.2052 22.1844c.0662 2.4084 1.5909 4.375 3.5795 4.375 3.8447 0 5.4798-4.7286 5.3693-7.8883-.0884-2.4084-1.6351-4.375-3.6237-4.375-3.3144 0-5.4577 4.7065-5.3251 7.8883zm-2.0329-.1326c-.1546-4.1098 3.0714-8.3081 7.7336-8.3081 3.1376 0 5.1705 2.0991 5.281 5.281.1546 4.3308-2.8504 8.308-7.7336 8.308-3.1377 0-5.1705-2.077-5.281-5.2809z"/><path d="m18.8921 20.9691c-.206.0835-.4211.1428-.6408.1768l-1.4583.2651c-.3578.0254-.7052.1312-1.0164.3094-.0895.0548-.1657.1288-.223.2167s-.0944.1875-.1085.2915c-.0227.0972-.0135.1991.0263.2907.0398.0915.1081.1678.1947.2175.2824.1578.6057.2271.928.1988.3297-.0065.6569-.0586.9723-.1546.2906-.0851.5612-.2279.7954-.4199.1549-.1359.2695-.3117.3314-.5082.1073-.2838.1742-.5814.1989-.8838zm4.0657-2.519c-.0221.3757-.0884.7071-.1768 1.2816l-.685 3.8447c-.0364.1555-.0191.3188.0491.4633.0682.1444.1833.2615.3266.3322v.1546h-3.9552v-.9722c-.6004.338-1.2381.6049-1.9003.7955-.6122.1654-1.244.2471-1.8781.243-1.2816 0-2.0108-.1325-2.4969-.5745-.4861-.4419-.7733-.7512-.7512-1.392.0474-.4153.2165-.8074.4861-1.1269.2876-.3227.642-.5791 1.0385-.7513.5089-.2155 1.0437-.3641 1.5909-.4419.685-.1105 1.6572-.2209 2.9609-.3314.4415-.0133.8765-.1108 1.2815-.2873.2873-.1105.3757-.2209.4198-.4419.0442-.221-.0441-.6187-.5745-.7292-1.4141-.2651-4.0656.1768-5.4356.5303l.7292-2.0107c1.7471-.2769 3.5122-.4246 5.2809-.4419 2.8062 0 3.7122.8175 3.6901 1.856z"/><path d="m34.3594 24.5265 1.3699-7.7115h3.7784l-1.3699 7.7115zm1.5909-9.4791c.1105-.6408 1.1048-1.149 2.2317-1.149s1.9223.5082 1.8119 1.149c-.1105.6408-1.1048 1.149-2.2317 1.149s-1.9224-.5303-1.8119-1.149z"/><path d="m52.8757 20.9912-.6408.1768-1.4804.2651c-.3502.0287-.6897.1343-.9943.3094-.089.05-.1651.1199-.2226.2042s-.0948.1808-.1089.2819c-.0264.0981-.0214.202.0143.2971.0356.0951.1002.1766.1846.2332.1989.1325.5082.1767.9501.1767.3287.001.6559-.0437.9722-.1325.2907-.0851.5612-.2279.7955-.4199.1549-.1359.2695-.3117.3314-.5082.0932-.2879.1598-.5837.1989-.8838zm4.0657-2.5411c-.0221.3757-.0884.7292-.1768 1.2816l-.685 3.8668c-.0364.1555-.0191.3188.0491.4633.0682.1444.1833.2615.3266.3322v.1325h-3.9552v-.9943c-.5952.3541-1.234.6289-1.9003.8176-.6206.1588-1.2598.2332-1.9002.2209-1.2595 0-1.9887-.1325-2.4969-.5745-.5082-.4419-.7512-.7512-.7292-1.3699.0419-.4234.2114-.8241.4862-1.149.2889-.3158.6433-.5646 1.0385-.7292.4986-.2228 1.0271-.3717 1.5688-.4419.7071-.1105 1.6793-.2209 2.9829-.3314.4375-.0423.868-.1388 1.2816-.2873.2652-.1105.3756-.2209.4198-.4419s-.0442-.6187-.5745-.7292c-1.4141-.2872-4.0656.1768-5.4356.5082l.7292-1.9886c1.7469-.2778 3.5121-.4255 5.2809-.4419 2.8062.0221 3.7122.8396 3.6901 1.856z"/><path d="m10.9597 21.7646c-1.02967.2303-2.08246.3415-3.13758.3314-1.78978 0-3.22602-.8838-3.13763-2.541.04419-1.0827 1.34785-3.3807 4.61806-3.3807 1.03585-.024 2.05645.2523 2.93875.7954l.464-2.6736c-1.1791-.4683-2.4448-.6793-3.71209-.6187-4.30872.0442-8.440671 1.9887-8.9488783 5.9659-.5082077 3.9773 4.4191983 5.06 6.6066983 5.06 1.25947 0 2.58523-.0663 3.80047-.1767z"/><path d="m41.5846 16.7709.2651-1.5689 3.9331-.8396-.4198 2.4085h1.9444l-.3756 1.5688h-1.8782l-1.1269 6.1869h-3.8226l1.149-6.1869h-1.4362l.2872-1.5467h1.4805z"/><path d="m60.7641 24.5266h-3.8447l1.9445-10.7387 3.7342.0884z"/><path d="m29.3875 18.6269c-.4847.0015-.9564.1562-1.3479.4419-.4011.3346-.6614.8079-.7291 1.3258-.1326.685-.0663 1.149.1988 1.4583.1544.1501.3381.2668.5396.3428.2015.0761.4164.1098.6315.0991.3348.0068.667-.0611.9722-.1988.2947-.1363.5468-.3502.7292-.6187.2067-.3073.3494-.6529.4198-1.0164.1105-.6187.0221-1.0606-.2651-1.37-.1467-.1557-.3253-.2779-.5236-.358-.1984-.0801-.4118-.1163-.6254-.106zm-6.8719 8.5732 1.834-10.3409h3.3144l-.2652 1.3258c.363-.454.8449-.7982 1.3921-.9943.6811-.2782 1.4077-.4281 2.1433-.442.8617 0 1.392.0442 2.0328.3757.6075.3048 1.0801.8246 1.3258 1.4583.2604.668.3218 1.397.1768 2.0991-.092.6029-.3036 1.1812-.6223 1.7011-.3188.5198-.7383.9707-1.2338 1.3261-1.0164.7292-1.9224.928-3.226.928-.3945.0073-.7882-.0373-1.1711-.1326-.2635-.0573-.5168-.1541-.7513-.2872-.2291-.1653-.4369-.3582-.6187-.5745l-.6187 3.5574z"/><path d="m90.925 19.577c-.0221-.6186-.3315-1.0385-.9722-1.0385-1.5468 0-3.1819 3.0272-3.4691 4.2425 2.5189 0 4.5076-1.5026 4.4413-3.204zm.3314 4.7507.2873.1989c-.7513 1.5246-2.2759 2.7619-4.0878 2.7619-1.4804 0-2.6736-.9722-2.7399-2.8061-.1326-3.3144 2.983-6.3858 5.5019-6.3858 1.0827 0 2.0991.4861 2.1433 1.6572.0884 2.6294-3.6016 3.4249-6.0322 3.4691-.0796.3175-.1095.6455-.0884.9722.0442 1.1048.7071 2.0107 2.055 2.0107 1.3478 0 2.3642-.9501 2.9608-1.8781z"/><path d="m76.143 19.4887.8617-.0884c.2872 0 .5303.0663.5524.3314.0221.2652-.2872 1.3258-.3535 1.613l-.5966 2.5853c-.221 1.0606-.4861 2.1654-.7071 3.0492h1.5025l.8397-4.1098c2.6073-2.6958 3.6016-3.5796 4.1982-3.5796.0656-.007.1318.0008.194.0228.0621.022.1186.0576.1652.1042s.0822.103.1041.1652c.022.0621.0298.1284.0228.1939.0221.464-.2872 1.5467-.3756 1.8561l-.8838 2.9829c-.1768.685-.3315 1.2816-.3094 1.7235s.4198.9501.9943.9501c1.1048 0 1.9224-1.1489 2.6074-2.2758l-.1989-.3757c-.2873.4419-.928 1.4363-1.4583 1.4363-.1547 0-.3094-.1105-.3094-.3757.0178-.4132.0922-.8221.221-1.2152l.9722-3.5133c.2431-.9722.3756-1.5909.3756-1.9224 0-.3314-.4198-.9501-.9943-.9501-.9943 0-2.3201.7292-5.1042 3.9331h-.0442l.3536-1.5688c.1988-.8618.3756-1.7456.5524-2.3643-1.0469.372-2.1172.6747-3.2039.906z"/></g></g></svg>