<svg fill="none" height="53" viewBox="0 0 40 53" width="40" xmlns="http://www.w3.org/2000/svg" xmlns:xlink="http://www.w3.org/1999/xlink"><clipPath id="a"><path d="m0 .564697h40v52.1677h-40z"/></clipPath><g clip-path="url(#a)"><path d="m26.9123 1.23954v37.09616c0 .3681-.3068.6748-.6749.6748h-10.184c-.3681 0-.6749-.3067-.6749-.6748v-22.4949c0-.3681-.3067-.6749-.6748-.6749h-11.71782c-.3681 0-.67484.3068-.67484.6749v18.0777c.02045 10.3885 8.44576 18.8139 18.83436 18.8139 10.3885 0 18.8343-8.4254 18.8343-18.8139v-32.67896c0-.368094-.3067-.674843-.6748-.674843h-11.7178c-.3681 0-.6748.306749-.6748.674843z" fill="#2f384b"/><path d="m7.83231 7.70171h6.83029c.2454 0 .4703-.14315.593-.34765l3.4765-6.27812c.1432-.224944-.0204-.511243-.2863-.511243h-17.750504c-.388548 0-.695296.306749-.695296.695293v17.75051c0 .2659.286299.4295.511247.3068l6.278123-3.4765c.22494-.1227.34764-.3477.34764-.5931v-6.85069c0-.38855.30675-.6953.6953-.6953z" fill="#df0073"/></g></svg>