<svg width="140" height="20" viewBox="0 0 140 20" fill="none" xmlns="http://www.w3.org/2000/svg">
<path d="M17.8108 19.4595V0H22.2432V19.4595H17.8108ZM103.973 12.1892C103.973 7.48649 100.324 4.56757 96.0541 4.56757C91.7568 4.56757 88.1351 7.51351 88.1351 12.1892C88.1351 16.8919 91.7838 19.8378 96.0541 19.8378C100.324 19.8378 103.973 16.8649 103.973 12.1892ZM99.5946 12.1892C99.5946 14.6486 97.9459 16.027 96.027 16.027C94.1081 16.027 92.4595 14.6486 92.4595 12.1892C92.4595 9.7027 94.1081 8.37838 96.027 8.37838C97.9459 8.37838 99.5946 9.7027 99.5946 12.1892ZM16.027 13.8649C16.027 11.6757 14.8919 10 12.8649 9.24324C14.7838 8.18919 15.4595 6.81081 15.4595 5.18919C15.4595 2.35135 13.4054 0 8.81081 0.027027H0V19.4865H9.18919C13.8108 19.4595 16.027 17.1622 16.027 13.8649ZM10.7568 5.75676C10.7568 7.08108 9.91892 7.83784 8.2973 7.83784H4.62162V3.78378H8.2973C9.78378 3.78378 10.7568 4.43243 10.7568 5.75676ZM11.1622 13.5676C11.1622 14.8378 10.2703 15.6757 8.62162 15.6757H4.62162V11.4595H8.62162C10.2162 11.4595 11.1622 12.2703 11.1622 13.5676ZM54.6216 8.54054C53.4054 6 51.1351 4.59459 47.7027 4.59459C43.6486 4.59459 40.027 7.13513 40.027 12.1892C40.027 17.1081 43.2162 19.8378 47.6486 19.8378C50.7568 19.8378 53.3784 18.5946 54.6216 15.9189L51.0541 14.0811C50.4054 15.2703 49.4054 16.027 47.8108 16.027C45.7568 16.027 44.4324 14.5676 44.4324 12.1892C44.4324 9.81081 45.9459 8.37838 47.7838 8.37838C49.2162 8.37838 50.2973 9.02703 50.973 10.4324L54.6216 8.54054ZM119.946 8.54054C118.73 6 116.459 4.59459 113.027 4.59459C108.973 4.59459 105.351 7.13513 105.351 12.1892C105.351 17.1081 108.541 19.8378 112.973 19.8378C116.081 19.8378 118.703 18.5946 119.946 15.9189L116.378 14.0811C115.73 15.2703 114.73 16.027 113.135 16.027C111.081 16.027 109.757 14.5676 109.757 12.1892C109.757 9.81081 111.27 8.37838 113.108 8.37838C114.541 8.37838 115.622 9.02703 116.297 10.4324L119.946 8.54054ZM82.7838 19.4595L79.0811 12.9189H76.2432V19.4595H71.6757V0H79.9189C84.3784 0 87.4865 2.13514 87.4865 6.32432C87.4865 9 86.1622 10.8919 83.8108 12.0541L88.0811 19.4595H82.7838ZM76.2703 9.05405H79.6757C81.7838 9.05405 82.8108 7.86486 82.8108 6.45946C82.8108 4.78378 81.8378 3.86486 79.6757 3.86486H76.2703V9.05405ZM39.2973 19.2162V16.1622C39.1081 16.2162 38.8378 16.2703 38.5405 16.2703C37.973 16.2703 37.6757 15.973 37.6757 15.4595V10.4054C37.6757 6.62162 35.1351 4.62162 30.9459 4.62162C28.2162 4.62162 25.8919 5.62162 24.4324 6.91892L26.8919 9.67568C27.8649 8.81081 29.1622 8.27027 30.4324 8.27027C32.3784 8.27027 33.2973 9.24324 33.2973 10.8378V11.2973C32.3784 11.0811 31.2162 10.8649 29.8108 10.8649C26.2703 10.8649 23.973 12.5676 23.973 15.3784C23.973 18.2703 25.8919 19.7838 28.8649 19.7838C30.8919 19.7838 32.7027 18.9459 33.6486 17.8649C34.2162 19.2973 35.4595 19.6757 36.6757 19.6757C37.5135 19.7027 38.4865 19.5676 39.2973 19.2162ZM33.3243 14.6486C33.3243 15.973 32.0541 16.8378 30.5946 16.8378C29.2162 16.8378 28.5405 16.1351 28.5405 15.1622C28.5405 14.1351 29.2973 13.3784 30.8378 13.3784C31.7838 13.3784 32.6216 13.5405 33.3243 13.7027V14.6486ZM135.784 19.4595L130.568 10.4054L135.459 5.08108H130.541L125.378 10.8108V0.027027H120.973V19.4865H125.378V15.973L127.486 13.7297L130.784 19.4865H135.784V19.4595ZM70.5135 19.4595L65.2973 10.4054L70.1892 5.08108H65.2162L60.1081 10.8108V0.027027H55.7027V19.4865H60.1081V15.973L62.2162 13.7297L65.5135 19.4865H70.5135V19.4595ZM138.486 16.7568C139.405 16.7568 139.946 17.3243 139.946 18.1892C139.946 19.0541 139.405 19.6216 138.486 19.6216C137.568 19.6216 137.027 19.0541 137.027 18.1892C137.027 17.3243 137.568 16.7568 138.486 16.7568ZM138.486 19.4324C139.216 19.4324 139.703 19 139.703 18.1892C139.703 17.3784 139.189 16.9459 138.486 16.9459C137.757 16.9459 137.27 17.3784 137.27 18.1892C137.243 19.027 137.757 19.4324 138.486 19.4324ZM137.919 17.4595H138.514C138.865 17.4595 139.054 17.6486 139.054 17.9189C139.054 18.1622 138.946 18.2973 138.757 18.3784L139.027 18.8919H138.757L138.514 18.4324H138.189V18.8919H137.919V17.4595ZM138.189 17.6757V18.1892H138.486C138.676 18.1892 138.784 18.1351 138.784 17.9459C138.784 17.7838 138.703 17.7027 138.514 17.7027H138.189V17.6757Z" fill="black"/>
</svg>
