<svg fill="none" height="22" viewBox="0 0 127 22" width="127" xmlns="http://www.w3.org/2000/svg" xmlns:xlink="http://www.w3.org/1999/xlink"><clipPath id="a"><path d="m0 .525772h127v20.9485h-127z"/></clipPath><mask id="b" height="13" maskUnits="userSpaceOnUse" width="10" x="117" y="3"><path d="m117.6 3.50616h8.768v12.20964h-8.768z" fill="#fff"/></mask><mask id="c" height="21" maskUnits="userSpaceOnUse" width="21" x="0" y="0"><path d="m0 .558052h20.4756v19.830948h-20.4756z" fill="#fff"/></mask><mask id="d" height="19" maskUnits="userSpaceOnUse" width="7" x="52" y="3"><path d="m52.2749 3.63329h6.1569v17.42381h-6.1569z" fill="#fff"/></mask><mask id="e" height="19" maskUnits="userSpaceOnUse" width="14" x="25" y="3"><path d="m25.5908 3.62634h13.0018v17.43076h-13.0018z" fill="#fff"/></mask><g clip-path="url(#a)"><g clip-rule="evenodd" fill="#00aa13" fill-rule="evenodd"><path d="m92.0805 8.0151v5.6528c0 .599.2494.815.9643.815h1.38v1.1967h-1.397c-1.6458 0-2.3109-.582-2.3109-2.0287v-5.6358h-1.9122v-1.14758h1.9122v-1.97767h1.3636v1.97767h2.8261v1.14758z"/><path d="m88.8411 7.97871h1.9121v5.67249c0 1.4336.6377 1.9927 2.2749 1.9927h1.3604v-1.1253h-1.344c-.7293 0-1.0003-.2305-1.0003-.8511v-5.68879h2.8261v-1.07492h-2.8261v-1.97832h-1.291v1.97832h-1.9121zm5.6194 7.73719h-1.4324c-1.6673 0-2.3469-.5984-2.3469-2.0647v-5.60048h-1.9122v-1.21894h1.9122v-1.97832h1.435v1.97832h2.8261v1.21894h-2.8261v5.61678c0 .5827.2337.779.9283.779h1.416z"/><path d="m103.602 10.6586c-.117-1.61303-1.497-2.87648-3.192-2.87648-1.8457 0-3.1923 1.24709-3.2925 2.87648zm-7.8808.6651c0-2.82671 1.9279-4.70553 4.6888-4.70553 2.61 0 4.589 1.9122 4.589 4.63873v.4995h-7.8978c.0163 1.7787 1.4958 3.0088 3.3248 3.0088 1.38 0 2.478-.6147 3.225-1.8789l1.081.7149c-.931 1.5463-2.427 2.3279-4.306 2.3279-2.826 0-4.7048-1.812-4.7048-4.6054z"/><path d="m97.1567 10.6228h6.4063c-.134-1.57571-1.512-2.80447-3.153-2.80447-1.7719 0-3.1335 1.17704-3.2533 2.80447zm6.4843.072h-6.5616l.0027-.038c.1034-1.6863 1.503-2.91113 3.3279-2.91113 1.692 0 3.111 1.27851 3.228 2.91053zm-3.231-4.04041c-2.7826 0-4.6529 1.87685-4.6529 4.66891 0 2.7763 1.833 4.57 4.6699 4.57 1.874 0 3.345-.7888 4.257-2.2814l-1.021-.6743c-.744 1.2373-1.833 1.8638-3.236 1.8638-1.9002 0-3.3456-1.3093-3.362-3.0454v-.036h7.898v-.4628c0-2.66705-1.915-4.60281-4.553-4.60281zm.017 9.31091c-1.4 0-2.5888-.4379-3.4386-1.2654-.853-.8314-1.3033-1.9986-1.3033-3.3766 0-1.38983.4562-2.57865 1.3204-3.43819.8562-.85169 2.0339-1.30274 3.4045-1.30274 2.68 0 4.625 1.96589 4.625 4.67483v.5348h-7.8966c.0347 1.6772 1.4421 2.9367 3.2886 2.9367 1.388 0 2.463-.6258 3.194-1.8605l.019-.0327.032.0209 1.109.7339-.017.0294c-.924 1.5345-2.424 2.3456-4.337 2.3456z"/><path d="m106.596 11.2736c0-2.67678 2.011-4.6551 4.705-4.6551 2.178 0 3.974 1.23072 4.473 3.17565l-1.314.33255c-.449-1.56327-1.63-2.31087-3.159-2.31087-1.911 0-3.342 1.34594-3.342 3.45777 0 2.1119 1.431 3.4585 3.342 3.4585 1.529 0 2.71-.7476 3.159-2.3109l1.314.3326c-.499 1.9449-2.295 3.175-4.473 3.175-2.694 0-4.705-1.962-4.705-4.6552z"/><path d="m111.3 6.65471c-1.295 0-2.479.46675-3.337 1.3132-.859.84841-1.332 2.02284-1.332 3.30589 0 1.2897.473 2.4654 1.332 3.3119.856.8425 2.041 1.3073 3.337 1.3073 2.192 0 3.926-1.2209 4.429-3.1135l-1.245-.3149c-.44 1.4861-1.569 2.3037-3.184 2.3037-1.988 0-3.377-1.4369-3.377-3.4945 0-2.05749 1.389-3.49442 3.377-3.49442 1.615 0 2.744.81829 3.184 2.30372l1.245-.31493c-.503-1.89322-2.237-3.11346-4.429-3.11346zm0 9.31089c-1.315 0-2.519-.472-3.388-1.3289-.872-.8589-1.353-2.0536-1.353-3.3629 0-2.67416 2.038-4.6911 4.741-4.6911 2.24 0 4.009 1.2569 4.508 3.20184l.008.036-.034.00851-1.348.34105-.01-.034c-.423-1.47296-1.532-2.28471-3.124-2.28471-1.946 0-3.305 1.40747-3.305 3.42241 0 2.015 1.359 3.4218 3.305 3.4218 1.592 0 2.701-.8111 3.124-2.2847l.01-.034.034.0092 1.348.341-.008.0354c-.499 1.9456-2.268 3.2031-4.508 3.2031z"/><path d="m117.636 3.5426h1.363v4.42274h.034c.698-.86477 1.829-1.34724 3.125-1.34724 2.495 0 4.173 1.51352 4.173 3.7576v5.3039h-1.363v-5.0374c0-1.76298-1.098-2.82677-2.893-2.82677s-3.076 1.19668-3.076 2.89287v4.9713h-1.363z"/></g><g mask="url(#b)"><path clip-rule="evenodd" d="m125.005 15.6438h1.291v-5.2679c0-2.22573-1.663-3.72093-4.137-3.72093-1.285 0-2.413.48574-3.098 1.33285l-.011.01309h-.087v-4.42209h-1.29v12.06498h1.29v-4.9353c0-1.72498 1.281-2.92951 3.112-2.92951 1.807 0 2.93 1.09717 2.93 2.86271zm1.363.072h-1.436v-5.0741c0-1.74721-1.067-2.79005-2.857-2.79005-1.789 0-3.039 1.17508-3.039 2.85685v5.0073h-1.436v-12.20964h1.436v4.39852c.7-.84056 1.835-1.32237 3.123-1.32237 2.517 0 4.209 1.52465 4.209 3.79359z" fill="#00aa13" fill-rule="evenodd"/></g><path clip-rule="evenodd" d="m6.39941 10.7935c0-2.11969 1.71974-3.83943 3.84009-3.83943 2.1197 0 3.8395 1.71974 3.8395 3.83943 0 2.1204-1.7184 3.8395-3.8395 3.8395-2.12166 0-3.84009-1.7191-3.84009-3.8395z" fill="#00aa13" fill-rule="evenodd"/><g mask="url(#c)"><path clip-rule="evenodd" d="m10.2374.558052c-5.65411 0-10.23788828 4.583788-10.23788828 10.237948 0 4.2446 2.56290828 7.8674 6.28518828 9.4438.23502.0969.4864.1479.74105.1492 1.05986 0 1.91941-.8602 1.91941-1.92 0-.7731-.46545-1.471-1.17705-1.7708v-.0013c-2.30694-.9663-3.92849-3.2451-3.92849-5.9023 0-3.53435 2.86405-6.39971 6.39978-6.39971 3.535 0 6.3991 2.86536 6.3991 6.39971 0 2.6572-1.6216 4.936-3.9285 5.9023v.0013c-.9774.4111-1.4363 1.5364-1.0252 2.5131.2979.711.9938 1.1751 1.7643 1.1764.2546-.0013.5067-.0523.741-.1492 3.721-1.5764 6.2852-5.2011 6.2852-9.4439 0-5.65407-4.5831-10.237857-10.2379-10.236548z" fill="#00aa13" fill-rule="evenodd"/></g><path clip-rule="evenodd" d="m40.4937 9.65812c0-3.40085 2.6905-6.02726 6.437-6.02726 3.7675 0 6.4371 2.62641 6.4371 6.02726 0 3.40148-2.6696 6.02928-6.4371 6.02928-3.7465 0-6.437-2.6278-6.437-6.02928zm9.688 0c0-1.85197-1.2714-3.22868-3.251-3.22868s-3.2509 1.37867-3.2509 3.22868c0 1.85068 1.2713 3.23068 3.2509 3.23068s3.251-1.3787 3.251-3.23068z" fill="#00aa13" fill-rule="evenodd"/><g mask="url(#d)"><path clip-rule="evenodd" d="m52.2749 18.1493h1.723c.9257 0 1.2478-.3444 1.2478-1.162v-13.35401h3.1861v13.39721c0 2.8208-1.1411 4.0267-4.1773 4.0267h-1.9796z" fill="#00aa13" fill-rule="evenodd"/></g><g mask="url(#e)"><path clip-rule="evenodd" d="m35.5152 3.62634v1.34593h-.0433c-.8241-.86739-2.1897-1.34332-3.8152-1.34332-3.4886 0-6.0659 2.60088-6.0659 5.95853 0 3.48922 2.6441 6.04562 6.1746 6.04562 1.5809 0 2.9033-.4982 3.7065-1.3866h.0433v1.1607c0 1.56-1.3434 2.7089-3.1201 2.7089-1.7917 0-2.8339-.506-3.7399-1.3701l-2.0739 1.9966c1.3898 1.4762 3.4859 2.3148 5.88 2.3148 3.6404 0 6.1313-2.4424 6.1313-5.6921v-11.73766zm-.1297 6.65506c0 1.4081-1.4304 2.5361-3.2509 2.5361-2.0588 0-3.3367-1.2137-3.3367-3.22871 0-1.86245 1.3656-3.14227 3.4663-3.14227 1.668 0 3.12 1.16984 3.12 2.49156z" fill="#00aa13" fill-rule="evenodd"/></g><path clip-rule="evenodd" d="m66.9036 13.102c-1.9109 0-3.4107-1.2347-3.4513-2.4333h9.2573v-.90342c0-3.42245-2.3685-6.13659-6.2014-6.13659-3.6162 0-6.2001 2.54066-6.2001 6.05018 0 3.61753 2.7253 6.00693 6.731 6.00693 2.4542 0 4.2146-1.1764 5.133-2.3036l-2.1596-1.5136c-.9591.8975-1.831 1.2347-3.1089 1.2334zm-.3299-6.88879c1.7001 0 2.885.8818 3.0355 2.21792h-6.115c.1735-1.33612 1.3584-2.21792 3.0795-2.21792z" fill="#00aa13" fill-rule="evenodd"/><path clip-rule="evenodd" d="m74.5869.525772h3.0749l.0183 7.905418h.0419l5.1481-4.82927h4.1229l-5.336 5.05185 5.315 7.02363h-3.6817l-3.6496-5.0761h-.0412l-1.9377 1.8337v3.2509h-3.0749z" fill="#00aa13" fill-rule="evenodd"/></g></svg>