<svg fill="none" height="27" viewBox="0 0 147 27" width="147" xmlns="http://www.w3.org/2000/svg" xmlns:xlink="http://www.w3.org/1999/xlink"><clipPath id="a"><path d="m0 .77095h147v25.4581h-147z"/></clipPath><g clip-path="url(#a)"><g fill="#0058bf"><path d="m42.1632 18.6733c-.7592-.4045-1.3968-.9936-1.8503-1.7095-.8866-1.466-.8866-3.2826 0-4.7487.4495-.7181 1.0837-1.3105 1.8405-1.719.7859-.4185 1.6682-.63741 2.5648-.63628.8962-.00781 1.7794.20808 2.5649.62678.7501.3934 1.3787.9737 1.8208 1.6811.8744 1.4692.8744 3.2794 0 4.7486-.4418.715-1.0697 1.3046-1.8208 1.7095-.7865.4174-1.6685.6362-2.5649.6363-.8894.0179-1.7689-.1848-2.555-.5888zm3.8472-2.0039c.3628-.214.6629-.5149.8713-.8738.4299-.7736.4299-1.7051 0-2.4788-.2099-.3584-.5139-.6566-.8811-.8642-.3959-.2076-.8427-.3061-1.2922-.2849-.439.0034-.8701.1145-1.253.3229-.3726.2081-.6804.51-.8909.8737-.2163.3774-.3276.8029-.323 1.2347.0048.4288.1191.8497.3328 1.2251.2099.3667.5176.6717.8909.8833.3816.2115.8135.3228 1.253.3229.4568-.0024.904-.1273 1.2922-.3609z"/><path d="m63.5435 10.2682c.5048.2931.9072.7266 1.1552 1.2442.2817.595.419 1.2448.4013 1.8994v5.6224h-2.741v-5.2805c.029-.4237-.1112-.842-.3916-1.1681-.266-.2859-.6511-.4396-1.0475-.4179-.4165-.0145-.817.1569-1.0866.4653-.2991.3404-.4531.7785-.4308 1.2252v5.1855h-2.7606v-5.3185c.0261-.4233-.1138-.8406-.3916-1.1681-.2488-.2699-.6057-.4223-.9789-.4179-.4254-.0163-.8355.1547-1.116.4654-.2956.3417-.4461.7797-.421 1.2251v5.195h-2.7802l-.0489-8.7565 2.6725-.31338v1.05418c.3065-.3588.6909-.6474 1.1258-.8452.4511-.20105.9427-.30165 1.439-.29446.522-.0114 1.0391.09936 1.5076.32296.4319.2286.8012.5543 1.0769.9497.3341-.4163.7721-.7432 1.2726-.9497.5321-.23238 1.1101-.34907 1.6936-.34195.6442-.02475 1.2835.11962 1.8502.41785z"/><path d="m79.373 10.2682c.5085.2844.9125.7161 1.1551 1.2347.2804.5954.4176 1.2449.4014 1.8994v5.6224h-2.7411v-5.347c.0234-.4246-.1201-.842-.4013-1.1681-.2525-.265-.607-.4163-.979-.4179-.4194-.0147-.8228.1566-1.0964.4654-.2955.3417-.446.7797-.4209 1.2251v5.1855h-2.8488v-5.2805c.0278-.422-.1084-.8388-.3818-1.1681-.2462-.2745-.6039-.4307-.9789-.4274-.422-.0134-.8279.1574-1.1062.4654-.298.3446-.4517.7852-.4308 1.2346v5.1855h-2.7606v-8.7755l2.6725-.32287v1.06367c.3036-.3641.6886-.6564 1.1258-.8547.456-.19657.9499-.29693 1.4489-.29445.5202-.01399 1.0355.10039 1.4978.33245.4353.2239.8057.5505 1.0768.9497.3391-.4115.7757-.7373 1.2726-.9497.5377-.22483 1.1179-.33805 1.7034-.33245.6306-.00326 1.2502.16095 1.7915.47485z"/><path d="m84.6105 18.5783c-.7522-.3891-1.3866-.962-1.8405-1.662-.4576-.7116-.6954-1.5356-.6852-2.3743-.0088-.8432.2251-1.6721.6755-2.3933.4431-.7198 1.0747-1.3129 1.8306-1.719 1.5996-.84278 3.5301-.84278 5.1297 0 .7557.4014 1.3901.9874 1.8404 1.7.444.7269.6742 1.5579.6657 2.4028.0166.8386-.2108 1.6648-.6559 2.3838-.4463.7148-1.0773 1.3041-1.8306 1.7095-.7855.4197-1.6681.6387-2.5649.6363-.9014-.0096-1.785-.2451-2.5648-.6838zm3.8081-2.0039c.3656-.2137.6688-.5145.881-.8738.2188-.3798.3303-.809.3231-1.2441-.0024-.4321-.1168-.8567-.3329-1.2346-.2068-.3608-.5115-.6597-.881-.8643-.3899-.2162-.8335-.3246-1.2824-.3134-.4428-.0012-.8782.1101-1.2629.3229-.3699.2084-.6744.5104-.881.8737-.2151.3745-.3264.7966-.3231 1.2252-.0036.4317.1076.8569.3231 1.2346.2128.3645.5199.6689.8908.8833.3836.2142.8203.3226 1.2629.3134.4506.0145.8959-.0976 1.2824-.3229z"/><path d="m100.831 10.1922c.526.2971.943.7451 1.195 1.2822.295.6115.439 1.2814.421 1.9564v5.4799h-2.7806v-5.138c.0289-.4652-.133-.9227-.4503-1.2726-.3127-.3105-.7474-.4764-1.1943-.4559-.4792-.0179-.943.1655-1.2726.5034-.3332.3657-.5085.8418-.4895 1.3296v5.043h-2.7704v-8.785l2.6725-.32286v1.06366c.3407-.3635.7581-.6518 1.2237-.8452.4992-.20138 1.0355-.30157 1.5761-.29444.6554-.02533 1.3044.13293 1.8694.45584z"/><path d="m111.806 10.3347c.71.4024 1.295.9831 1.693 1.681.422.7203.638 1.5366.627 2.3648.022 1.7322-.952 3.3321-2.526 4.1503-.807.4163-1.709.6286-2.623.6173-.904.0177-1.796-.1882-2.595-.5983-.758-.3949-1.389-.9868-1.821-1.7095-.444-.7577-.674-1.6163-.665-2.4883v-9.09835l2.809-.57933v6.06878c.361-.3235.779-.581 1.234-.75981.485-.17811.999-.26825 1.517-.26593.827-.00984 1.641.20391 2.35.61734zm-1.498 6.2017c.37-.2084.674-.5104.881-.8738.217-.3841.328-.8158.323-1.2536.007-.4321-.104-.8583-.323-1.2346-.207-.3608-.512-.6597-.881-.8643-.785-.4244-1.741-.4244-2.526 0-.377.2026-.686.5058-.891.8738-.437.7752-.437 1.713 0 2.4882.211.3558.515.6509.881.8548.378.2109.808.3191 1.244.3134.451.0116.896-.0933 1.292-.3039z"/><path d="m117.689 18.5023c-.762-.4008-1.4-.9908-1.85-1.7095-.899-1.4626-.899-3.2859 0-4.7486.439-.7378 1.07-1.3504 1.831-1.776.782-.41853 1.661-.63748 2.555-.6363.896-.0104 1.78.20561 2.565.6268.76.3996 1.395.99 1.84 1.7095.874 1.4693.874 3.2794 0 4.7487-.438.7212-1.071 1.3124-1.831 1.7095-.782.4185-1.661.6375-2.555.6363-.887.0279-1.766-.165-2.555-.5604zm3.799-2.0039c.367-.2109.671-.5123.881-.8737.44-.7811.44-1.7262 0-2.5073-.217-.357-.523-.6545-.891-.8643-.378-.2108-.808-.3191-1.243-.3134-.44.0022-.871.1134-1.254.3229-.374.2055-.683.508-.89.8738-.216.3777-.327.803-.323 1.2346-.005.4301.11.8534.332 1.2252.21.3666.518.6717.891.8832.381.2129.814.3242 1.253.3229.435.0082.865-.0968 1.244-.3039z"/><path d="m133.822 10.1163c.52.3036.935.7497 1.194 1.2821.29.6132.434 1.2819.421 1.9564v5.4609h-2.77v-5.1475c.026-.4632-.131-.9187-.441-1.2726-.317-.3099-.754-.4755-1.204-.4559-.478-.0154-.941.1676-1.272.5034-.33.3672-.502.8431-.48 1.3296v5.043h-2.751v-8.7849l2.702-.27545v1.05425c.339-.3657.757-.6543 1.224-.84531.495-.20138 1.029-.30159 1.566-.29441.634-.00969 1.259.14437 1.811.44642z"/><path d="m141.302 9.64138c1.02-.01483 2.007.34864 2.76 1.01622v-6.06876l2.781.3324v9.32636c.017.8746-.21 1.7375-.656 2.4977-.421.7268-1.046 1.3228-1.802 1.719-1.635.8229-3.581.8229-5.217 0-1.569-.8127-2.539-2.4062-2.516-4.1313-.01-.8269.202-1.6421.617-2.3648.394-.7028.975-1.29 1.683-1.7.712-.40784 1.523-.6242 2.35-.62682zm.46 7.13242c.884.0229 1.709-.4302 2.144-1.1776.219-.3799.33-.8091.323-1.2442.004-.4317-.107-.8571-.323-1.2346-.211-.3665-.523-.6689-.901-.8738-.388-.2123-.827-.3205-1.272-.3134-.437-.0023-.867.1092-1.244.3229-.369.2047-.674.5036-.881.8643-.217.3769-.329.8027-.323 1.2346-.008.4395.107.8728.333 1.2537.208.3657.516.6683.891.8737.383.2055.816.3072 1.253.2944z"/><path d="m33.6173 18.6733c-.7542-.3958-1.3861-.9793-1.8307-1.6905-.4428-.7205-.6731-1.5451-.6656-2.3838-.0166-.8386.2107-1.6648.6559-2.3839.4375-.7158 1.0667-1.3033 1.8208-1.7.7801-.4135 1.6564-.62603 2.5453-.61729.996.02021 1.9727.27089 2.8487.73129l-.8125 2.0419c-.5699-.3173-1.2129-.4904-1.8698-.5033-.4626-.011-.9195.1007-1.3216.3229-.3754.2088-.6838.5145-.8908.8832-.4302.7601-.4302 1.6807 0 2.4408.215.3668.53.6691.9104.8738.4079.2166.8664.3278 1.3314.3229.6889-.0272 1.3608-.2162 1.9579-.5509l.8614 2.0134c-.9308.4843-1.9604.7631-3.0151.8168-.8839.0193-1.7567-.194-2.5257-.6173z"/></g><path d="m5.4919 5.94698c-4.12137 0-5.4919 1.32961-5.4919 5.32792v4.5682 9.9057h11.1013c4.1116 0 5.4821-1.3297 5.4821-5.328v-4.5777-9.89612z" fill="#f8ae9e"/><path d="m12.7263.77095c-4.11163 0-5.48216 1.32962-5.48216 5.32796v4.56819 9.8961h11.10126c4.1116 0 5.4821-1.3296 5.4821-5.3279v-4.5682-9.89615z" fill="#0058bf"/></g></svg>