<svg width="39" height="32" viewBox="0 0 39 32" fill="none" xmlns="http://www.w3.org/2000/svg">
<g clip-path="url(#clip0)">
<path d="M1.91283 0.802574L12.261 6.77659C12.4558 6.88805 12.6177 7.049 12.7304 7.24316C12.843 7.43731 12.9023 7.65778 12.9023 7.88223C12.9023 8.10668 12.843 8.32715 12.7304 8.5213C12.6177 8.71546 12.4558 8.87641 12.261 8.98787L1.91283 14.9619C1.71741 15.0732 1.55492 15.2342 1.4419 15.4286C1.32887 15.623 1.26934 15.8439 1.26934 16.0688C1.26934 16.2937 1.32887 16.5146 1.4419 16.709C1.55492 16.9034 1.71741 17.0644 1.91283 17.1757L12.261 23.1497C12.4558 23.2612 12.6177 23.4221 12.7304 23.6163C12.843 23.8105 12.9023 24.0309 12.9023 24.2554C12.9023 24.4798 12.843 24.7003 12.7304 24.8944C12.6177 25.0886 12.4558 25.2496 12.261 25.361L1.91283 31.3299C1.71888 31.4431 1.49847 31.503 1.27391 31.5035C1.04935 31.5041 0.828636 31.4453 0.634142 31.333C0.439649 31.2208 0.278289 31.0591 0.166411 30.8644C0.0545336 30.6697 -0.0038839 30.4489 -0.0029179 30.2243V1.90821C-0.0029179 0.690481 0.858146 0.193708 1.91283 0.802574ZM26.0891 1.8216V13.7518C26.0877 13.9766 26.1458 14.1977 26.2575 14.3928C26.3692 14.5878 26.5305 14.7499 26.7251 14.8624C26.9197 14.975 27.1406 15.034 27.3653 15.0336C27.5901 15.0332 27.8108 14.9733 28.0049 14.86L38.3531 8.88597C38.5485 8.77469 38.711 8.61366 38.824 8.41924C38.937 8.22482 38.9966 8.00394 38.9966 7.77905C38.9966 7.55417 38.937 7.33329 38.824 7.13887C38.711 6.94445 38.5485 6.78342 38.3531 6.67214L28.0049 0.698124C27.8104 0.584602 27.5893 0.524686 27.364 0.524476C27.1388 0.524265 26.9176 0.583772 26.7229 0.69693C26.5281 0.810088 26.3669 0.972851 26.2556 1.16863C26.1442 1.36441 26.0868 1.5862 26.0891 1.81141V1.8216Z" fill="url(#paint0_linear)"/>
</g>
<defs>
<linearGradient id="paint0_linear" x1="2.75863" y1="32.6114" x2="23.6486" y2="-2.15514" gradientUnits="userSpaceOnUse">
<stop offset="0.5" stop-color="#32B4FF"/>
<stop offset="1" stop-color="#9BD3AE"/>
</linearGradient>
<clipPath id="clip0">
<rect width="39" height="30.9794" fill="white" transform="translate(0 0.526245)"/>
</clipPath>
</defs>
</svg>
