<svg fill="none" height="14" viewBox="0 0 136 14" width="136" xmlns="http://www.w3.org/2000/svg" xmlns:xlink="http://www.w3.org/1999/xlink"><clipPath id="a"><path d="m0 .199997h136v13.6h-136z"/></clipPath><g clip-path="url(#a)" clip-rule="evenodd" fill-rule="evenodd"><path d="m13.4382 12.8561h-4.12507l-.43233-1.3691h-4.32332l-.43234 1.3691h-4.12514l4.43138-11.70747h4.57552zm-5.53018-4.45833-1.18889-3.77376-1.18891 3.77376zm34.47068 4.45833h-7.5477v-11.70747h7.2956c2.4859 0 3.5667 1.61482 3.5667 2.98391 0 1.45686-.8827 2.43979-2.0535 2.68553 1.2969.19307 2.2877 1.35153 2.2877 2.86105 0 1.63238-1.1349 3.17698-3.5488 3.17698zm-1.0988-7.38957c.3783 0 .7206-.28084.7206-.7021 0-.40371-.3423-.66699-.7206-.66699h-2.8101v1.36909zm.1081 4.44077c.5224 0 .8466-.29837.8466-.7372 0-.4213-.3242-.7548-.8466-.7548h-2.9182v1.492zm18.6139 2.9488h-4.1252l-.4323-1.3691h-4.3233l-.4323 1.3691h-4.1252l4.4314-11.70747h4.5755zm-5.5302-4.45833-1.1889-3.77376-1.1889 3.77376zm11.3183 4.66893c-2.5579 0-4.3053-.7372-5.5842-1.8605l1.8913-2.63291c.9007.84252 2.2518 1.50951 3.873 1.50951.6846 0 1.3331-.1755 1.3331-.63186 0-1.12336-6.7011.01753-6.7011-4.59875 0-1.98342 1.6932-3.879087 4.9897-3.879087 1.9636 0 3.7289.544127 5.0979 1.632377l-1.9455 2.50999c-1.0448-.7723-2.3958-1.15845-3.5306-1.15845-.7206 0-.9188.22818-.9188.52657 0 1.10581 6.6831.15797 6.6831 4.511 0 2.58021-1.9634 4.07211-5.1879 4.07211zm11.5162 0c-2.5576 0-4.305-.7372-5.584-1.8605l1.8914-2.63291c.9007.84252 2.2517 1.50951 3.8732 1.50951.6845 0 1.3328-.1755 1.3328-.63186 0-1.12336-6.7011.01753-6.7011-4.59875 0-1.98342 1.6933-3.879087 4.9897-3.879087 1.9637 0 3.7287.544127 5.0978 1.632377l-1.9456 2.50999c-1.0442-.7723-2.3959-1.15845-3.5307-1.15845-.7201 0-.918.22818-.918.52657 0 1.10581 6.6829.15797 6.6829 4.511 0 2.58021-1.9637 4.07211-5.1884 4.07211zm18.8126-.2106h-4.1254l-.4322-1.3691h-4.3232l-.4322 1.3691h-4.1254l4.4314-11.70747h4.5756zm-5.5307-4.45833-1.1885-3.77376-1.1892 3.77376zm12.0389 4.45833h-5.3862v-11.70747h5.3682c3.783 0 6.593 2.10629 6.593 5.84496 0 3.73871-2.81 5.86251-6.575 5.86251zm-.018-3.08926c1.819 0 2.901-1.29888 2.901-2.77325 0-1.57972-.937-2.75573-2.883-2.75573h-1.747v5.52898zm14.291 3.29986c-3.711 0-6.575-2.4573-6.575-6.05556 0-3.59825 2.864-6.055589 6.575-6.055589s6.574 2.457339 6.574 6.055589c0 3.59826-2.863 6.05556-6.574 6.05556zm0-3.12427c1.747 0 2.882-1.29895 2.882-2.93129 0-1.63238-1.135-2.93125-2.882-2.93125s-2.882 1.29887-2.882 2.93125c0 1.63234 1.135 2.93129 2.882 2.93129zm19.1 2.91367h-4.143l-1.657-3.686h-1.315v3.686h-3.64v-11.70747h6.414c2.809 0 4.323 1.82545 4.323 4.01951 0 2.01852-1.207 3.08925-2.162 3.54561zm-4.9-6.77524c.613 0 1.189-.28084 1.189-.93028 0-.63189-.576-.91272-1.189-.91272h-2.215v1.843z" fill="#000"/><path d="m14.3657.6763v12.6692l18.1972-12.6692v12.6692z" fill="#ff4329"/></g></svg>