<svg xmlns="http://www.w3.org/2000/svg" viewBox="0 0 430.28 106.18"><defs><style>.a{fill:#6553c0;}</style></defs><title>Asset 7</title><path class="a" d="M55.31,42.32,55.11,63c0,19.85-19.12,23.88-25.78,23.88C15.49,86.87,3.8,78.44,3.8,63V41.15c0-4.83,2.79-7.73,7.3-7.73s7.4,2.9,7.4,7.73V61.33c0,7.83,4,12.12,10.83,12.12,7.3,0,11.28-3.65,11.28-12.12v-19c0-4.82,2.79-7.72,7.41-7.72S55.31,37.5,55.31,42.32Z"/><path class="a" d="M305.84,41.15,305.63,63c0,19.85-19.12,23.88-25.77,23.88-13.84,0-25.53-8.43-25.53-23.88V41.15c0-4.83,2.79-7.73,7.3-7.73s7.4,2.9,7.4,7.73V61.33c0,7.83,4,12.12,10.83,12.12,7.3,0,11.28-3.65,11.28-12.12V41.15c0-4.83,2.79-7.73,7.4-7.73S305.84,36.32,305.84,41.15Z"/><path class="a" d="M121,59.82c0,16.42-9.87,27.05-24.79,27.05-6.76,0-12.23-2.36-15.88-6.44H80.1V98.35c0,4.83-2.78,7.83-7.4,7.83s-7.3-3-7.3-7.83V41.15c0-4.83,2.79-7.73,7.3-7.73,4,0,6.65,2.15,7.3,5.91h.21c3.65-4.19,9.12-6.55,16-6.55C111.12,32.78,121,43.4,121,59.82Zm-15,0c0-8.15-5.26-13.62-12.77-13.62S80.1,51.88,80.1,59.82s5.48,13.63,13.1,13.63S106,67.87,106,59.82Z"/><path class="a" d="M183.74,59.82c0,16.42-9.88,27.05-24.79,27.05-6.87,0-12.34-2.36-16-6.66h-.22a6.84,6.84,0,0,1-7.19,6c-4.61,0-7.4-3-7.4-7.83V17.65c0-4.83,2.79-7.83,7.4-7.83s7.3,3,7.3,7.83V39.33h.21c3.55-4.19,9-6.55,15.89-6.55C173.86,32.78,183.74,43.4,183.74,59.82Zm-15,0c0-8.15-5.26-13.62-12.77-13.62s-13.09,5.68-13.09,13.62,5.47,13.63,13.09,13.63S168.71,67.87,168.71,59.82Z"/><path class="a" d="M218.87,32.78c16.63,0,28,10.95,28,27s-11.37,27.05-28,27.05S191,75.81,191,59.82,202.34,32.78,218.87,32.78Zm0,40.67c7.72,0,13-5.58,13-13.63s-5.26-13.62-13-13.62S206,51.67,206,59.82,211.25,73.45,218.87,73.45Z"/><path class="a" d="M367.5,56.6V78.39c0,4.83-2.79,7.83-7.41,7.83s-7.29-3-7.29-7.83V58.32c0-7.94-3.65-12.12-10.73-12.12-7.41,0-11.7,5-11.7,13.52V78.39c0,4.83-2.79,7.83-7.41,7.83s-7.29-3-7.29-7.83V41.26c0-4.83,2.79-7.84,7.29-7.84a6.94,6.94,0,0,1,7.3,5.8h.22c3.54-4.19,8.69-6.44,15.45-6.44C360,32.78,367.5,41.15,367.5,56.6Z"/><path class="a" d="M430.28,17.65V78.39c0,4.83-2.79,7.83-7.41,7.83a6.85,6.85,0,0,1-7.19-6h-.21c-3.65,4.3-9.12,6.66-16,6.66-14.92,0-24.79-10.63-24.79-27.05s9.87-27,24.79-27c6.87,0,12.34,2.36,15.88,6.55h.22V17.65c0-4.83,2.79-7.83,7.29-7.83S430.28,12.82,430.28,17.65Zm-14.7,42.17c0-7.94-5.48-13.62-13.1-13.62s-12.77,5.47-12.77,13.62S395,73.45,402.48,73.45,415.58,67.77,415.58,59.82Z"/><circle class="a" cx="11.14" cy="11.14" r="11.14"/></svg>