<svg fill="none" height="44" viewBox="0 0 99 44" width="99" xmlns="http://www.w3.org/2000/svg" xmlns:xlink="http://www.w3.org/1999/xlink"><clipPath id="a"><path d="m0 .83989h99v42.3203h-99z"/></clipPath><g clip-path="url(#a)"><path clip-rule="evenodd" d="m20.1139 5.92262c.1234-1.04037-.0294-2.56272.7935-3.27982.241-1.1109 1.9867-.85228 1.7163-1.55762-.1705-.440834-.9933-.229232-1.3225-.152821-1.171.380851-2.3621.696771-3.5678.946331l-1.1756-.32328c-1.5047.19984-2.3511 1.39892-3.2093 2.35112-.7053.79351-1.6517 2.74494-.9052 3.91463-.0411.25862-.0823.51137-.1293.76999l1.7163 2.49805c.5878.4232.6701.7347 1.3049 1.1756l.3938.5878c.7311.3136 1.5497.3573 2.31.1234 2.4628.2292 2.1983-4.76103 2.9801-5.81316-.1358-.51216-.4589-.95472-.9052-1.24022zm-10.60948 15.01198c.63848-.0928 1.26768-.2403 1.88088-.4409.7465-.3703 3.3034-2.163 2.4922-3.6148-.2586-3.0683-3.97338-.4761-5.54864-1.5518-1.59876-.2057-3.3915-3.221-3.8676-4.5141-.07134-.2697-.19739-.5218-.3703-.7406 0-.0471-.1587.141-.1587.094-.46435.5466-.38794 1.0169-.45847 2.3511l-.62893-.0411c.01781.3558-.09274.7062-.31152.9875l-.14107.2409c-.39381-.1293-.19985.0588-.35855-.2762-1.46945.0764-1.357772 1.5517-2.03372 2.3923.0293891 2.7508 5.484 6.1482 9.50442 5.1137zm18.10368-8.37c-1.6954.2091-3.318.8131-4.7375 1.7633-.3741.2387-.6959.5506-.9464.9169-.1702.3121-.2263.6738-.1587 1.0228.0188.2175.0805.4292.1813.6229.1009.1937.239.3655.4065.5056 2.9389-.2116 7.9997-.3997 8.9872 2.0572.0529.341.1293.5467.1352.629.9698-.241.2645-.1528 1.6869.0705.5635-.0117 1.123-.0987 1.6634-.2586.1562-.0471.2912-.1468.3821-.2822-.0247-.1178-.0366-.2381-.0353-.3585.2414.0226.4844-.0179.7054-.1176 1.3519-.2233.6407-.8581 1.2813-1.5752-.3585-4.5847-5.0666-5.678-9.5514-4.9961zm-5.2195 9.9922c-.676.5173-.964.388-1.3578 1.1756-.0411 0 .0588.1176 0 .1176.4056.8111 1.3284 1.1344 2.0102 1.6986.2175.1823.7877 1.1756 1.0639 1.252.3057.3644.5055 1.3754.7053 1.3754.2116.288 0 .9581.1881 1.2167 0 1.1756-.1528 1.2873-.3644 1.5165 0 .0823.1176.2998.1176.3821s.5349.3997.7465.3585c.6524 0 3.3327 2.1101 3.5266 2.5157 1.9221.1411 1.7634-.4467 3.1035-1.0051.3586-.1587.6466 0 .8817-.2527.2351-.2528.2645-.7524.4996-1.0051.0941-4.7199-6.3715-9.1929-11.1208-9.3575zm-7.5648 1.0698c-.2703.2821-.9992.3879-1.2049.7112-.4637.7694-1.0011 1.4918-1.6046 2.1572-1.8163 1.728-5.71328 2.5921-7.64121.9404-.12343 0-.04702.0823.09993.5525.14106.8993.85816 2.9918.58778 3.5267.17633.5878.35267.3762.68182.7054.22336.2233.31153.8052.58778.9639l.8758-.0646c.0529.1645.11168.3291.16458.4937l1.11678-.0647c.2116.0471.85228.3762 1.04037.4232l1.25197-.0822c.9522.2527 1.7634-.147 2.5921-.6936.4526-.2998.9464-.2528 1.3402-.5878.6917-.6185 1.2862-1.3378 1.7633-2.1337.9052-1.6457.5878-5.5839-.2233-6.5537-.3468-.3644-.723-.3644-1.4284-.2939z" fill="#fe5815" fill-rule="evenodd"/><g fill="#09357a"><path d="m60.9291 12.8894c3.9558 0 6.6302 2.4981 6.6302 6.9711 0 5.6251-3.6736 7.2826-7.5236 7.2826h-5.1548c0-.3115 0-1.1403 0-2.1807v-9.8864c0-1.0404 0-1.7046 0-2.1866zm-1.1755 11.5499c2.1865 0 3.9616-.723 3.9616-4.5788 0-3.2798-1.7633-4.3672-3.9616-4.3672h-1.1227v8.946z"/><path d="m73.1607 24.9624c0 1.0404.0529 2.1807.0529 2.1807h-3.8205s0-1.1403 0-2.1807v-9.8864c0-1.0404 0-2.1866 0-2.1866h9.0342v2.7567s-2.022-.047-2.7038-.047h-2.5628v2.8683h2.5628 2.1277v2.6274s-1.4635-.0411-2.1277-.0411h-2.5628z"/><path d="m47.2513 24.263c-.417.0247-.8346-.0378-1.2262-.1836-.3915-.1458-.7483-.3717-1.0476-.6632-.2992-.2915-.5344-.6423-.6904-1.0298-.156-.3876-.2295-.8035-.2157-1.221v-.1646s3.3386-.0764 4.4731-.0764c1.9279 0 2.7214 0 4.2379-.0412v-1.0756c0-4.8609-2.0631-7.2238-6.3011-7.2238-1.9573 0-6.5067.7347-6.5067 7.5412 0 4.5377 2.2924 7.2473 6.2951 7.2473 3.1447 0 5.0785-.7993 6.4656-1.8221-.1587-.2351-1.3342-2.3511-1.4812-2.5686-1.1609.848-2.5652 1.2975-4.0028 1.2814zm-3.1799-5.9954c.0529-.8288.3527-2.7449 2.4335-2.7449 2.0807 0 2.2512 1.8045 2.2512 2.7508v.194s-1.4225.0411-2.2748.0411c-.8522 0-2.4216-.0411-2.4216-.0411z"/><path d="m40.6569 37.5292c0-.5114-.0411-1.0227-.0529-1.5224h1.1168l.0411 1.1051c.1514-.4001.4334-.7374.8004-.9572.367-.2197.7974-.3091 1.2216-.2537v1.1756c-.1451-.029-.2929-.0428-.4408-.0411-.9229-.0177-1.5106.7523-1.5106 2.2923v3.7324h-1.1756z"/><path d="m45.6112 39.8803c0 1.634.6348 2.3923 1.9221 2.3923.5866-.0331 1.1506-.2374 1.6223-.5878l.0529 1.0521c-.6227.2797-1.2983.422-1.9809.4174-1.8632 0-2.8331-1.4107-2.8331-3.6267 0-2.2159.964-3.6266 2.7273-3.6266 1.587 0 2.4746 1.2755 2.4746 3.3504v.623zm2.8214-.8875c0-1.4656-.4604-2.1983-1.3813-2.1983-.7465 0-1.4107.5525-1.4401 2.1983z"/><path d="m50.8846 37.5292c0-.5114-.0412-1.0228-.0588-1.5224h1.1227l.0411 1.0698c.1331-.3564.3751-.6618.6917-.8728.3165-.211.6915-.317 1.0716-.3028 1.2344 0 2.0632.7053 2.0632 2.2571v4.8962h-1.1756v-4.5435c0-1.1227-.4115-1.6047-1.1756-1.6047-.9169 0-1.4988.6348-1.4988 1.9103v4.2438h-1.1756z"/><path d="m58.4193 39.8803c0 1.634.6407 2.3923 1.928 2.3923.5848-.0332 1.1469-.2376 1.6164-.5878l.0529 1.0521c-.6204.2805-1.2942.4228-1.975.4173-1.8691 0-2.839-1.4106-2.839-3.6266 0-2.2159.9699-3.6266 2.7273-3.6266 1.5929 0 2.4746 1.2814 2.4746 3.3563v.623zm2.8096-.8875c0-1.4636-.4584-2.1983-1.3871-2.1983-.7465 0-1.4107.5525-1.4401 2.1983z"/><path d="m70.363 43.0602h-1.3284l-1.4812-5.9836h-.0294l-1.3578 5.9836h-1.3225l-1.8515-7.0534h1.1756l1.3401 5.8778h.0294l1.3401-5.8778h1.4048l1.3931 5.8778h.0293l1.3284-5.8778h1.1756z"/><path d="m73.1962 36.4888c.5964-.3779 1.2866-.5815 1.9926-.5878.6887-.0264 1.3615.2112 1.8809.6642.218.2278.3836.5005.4851.799s.1366.6156.1027.9291v3.6854c-.0013.3592.0163.7183.0529 1.0756h-1.0521l-.0706-.9522c-.2009.3411-.4923.6199-.8419.8056s-.7438.271-1.1389.2466c-.2729.0232-.5476-.0134-.8049-.1074s-.491-.2431-.6847-.4368-.3427-.4273-.4367-.6846-.1307-.532-.1074-.805c0-1.3695.8993-2.3511 3.321-2.3511h.6759v-.3409c.0473-.3974-.0463-.7989-.2645-1.1344-.1489-.1592-.3322-.2823-.536-.3597-.2037-.0774-.4225-.1072-.6396-.087-.3356-.0052-.6688.0573-.9798.1835s-.5934.3136-.8305.5512zm3.3739 3.1153c-.2721-.0169-.5449-.0169-.817 0-1.3695 0-2.0161.6524-2.0161 1.4694-.0207.1617-.005.326.0459.4808.051.1548.1359.2963.2486.4141.1127.1177.2503.2088.4028.2665.1524.0578.3158.0807.4783.0671.2253-.0028.4478-.0513.654-.1424.2061-.0911.3917-.223.5455-.3878.1537-.1648.2726-.359.3493-.5709.0767-.212.1097-.4372.0969-.6623z"/><path d="m79.2145 32.6859h1.1756v4.2908h.0294c.164-.3299.4187-.6063.7341-.7968s.6785-.2872 1.0469-.2789c1.4518 0 2.4334 1.1756 2.4334 3.6267 0 2.451-.9816 3.6266-2.4334 3.6266-.3852.0095-.7648-.0926-1.0933-.2938-.3285-.2013-.5918-.4932-.7582-.8406l-.0412 1.0344h-1.152c0-.429.0587-.8699.0587-1.299zm2.7097 9.5279c1.0639 0 1.5518-.911 1.5518-2.6803 0-1.7692-.4879-2.6861-1.5518-2.6861s-1.5517.9169-1.5517 2.6861c0 1.7693.4878 2.6803 1.5517 2.6803z"/><path d="m86.0923 32.6859h1.1755v10.3743h-1.1755z"/><path d="m89.9189 39.8803c0 1.634.6406 2.3923 1.9279 2.3923.5848-.0332 1.1469-.2376 1.6164-.5878l.0529 1.0521c-.6204.2805-1.2942.4228-1.975.4173-1.8691 0-2.839-1.4106-2.839-3.6266 0-2.2159.9699-3.6266 2.7274-3.6266 1.5928 0 2.4745 1.2755 2.4745 3.3504v.623zm2.8213-.8875c0-1.4636-.4526-2.1983-1.3813-2.1983-.7465 0-1.4107.5525-1.44 2.1983z"/><path d="m94.8861 41.6907c.4962.3231 1.0715.5041 1.6634.5231.8817 0 1.3401-.4526 1.3401-.9934 0-.5407-.2468-.817-.8993-1.105l-.7758-.3468c-1.011-.4585-1.3813-.911-1.3813-1.8104.0023-.2862.0636-.5688.1801-.8303.1164-.2614.2856-.496.4969-.6891s.4602-.3405.731-.4331c.2709-.0925.5579-.1281.8432-.1047.5088-.0062 1.0145.0794 1.493.2528l-.0529.9933c-.436-.1976-.9086-.3018-1.3872-.3056-.7582 0-1.1756.4173-1.1756.9698s.4115.8876 1.1756 1.1756l.4173.1645c.3948.11.7436.3444.9946.6685.251.324.3907.7204.3985 1.1302 0 1.2167-.6466 2.1865-2.2689 2.1865-.6587.0123-1.3111-.1307-1.9044-.4173z"/></g></g></svg>