<svg fill="none" height="39" viewBox="0 0 128 39" width="128" xmlns="http://www.w3.org/2000/svg"><g fill="#181a1d"><path d="m22.2183 9.57374 2.7095-4.70692c.7897-1.37801.3252-3.1431-1.0528-3.932752-1.378-.789647-3.1431-.325149-3.9328 1.052862l-2.725 4.70692c-5.7908-1.82703-12.27828.54191-15.43687 6.02295-2.012826 3.4838-2.260559 7.494-1.037381 11.0087l5.016581-8.7017c1.14576-1.9973 3.01924-3.4218 5.24887-4.0256 2.2296-.6039 4.552-.2942 6.5494.8671 4.1185 2.3844 5.543 7.6797 3.1586 11.7982-2.3844 4.1186-7.6642 5.543-11.79828 3.1586l2.87988-4.9856c1.378.7896 3.1431.3251 3.9328-1.0529.7896-1.378.3251-3.1431-1.0529-3.9327-1.378-.7897-3.1431-.3252-3.9328 1.0528l-9.16605 15.9014c-.78965 1.378-.32515 3.1431 1.05286 3.9327 1.37801.7897 3.1431.3252 3.93275-1.0528l2.72506-4.707c5.79078 1.8271 12.27828-.5419 15.43678-6.023 3.1586-5.4656 1.9664-12.2627-2.5082-16.38126z"/><path d="m34.4033 12.9956h4.4592c2.5857 0 4.7224 1.2851 4.7224 4.2579s-2.1367 4.2734-4.7224 4.2734h-1.8425v4.165h-2.6167zm4.3818 6.2398c1.2851 0 2.1057-.5729 2.1057-1.9819 0-1.4245-.8516-1.9509-2.1057-1.9509h-1.7651v3.9328z"/><path d="m47.4092 12.9956h8.3919v2.2915h-5.7752v2.9109h5.0939v2.2451h-5.0939v2.9418h6.0384v2.2915h-8.6551z"/><path d="m60.4463 12.9956h2.6012v10.3893h5.7443v2.2915h-8.3455z"/><path d="m71.7021 19.3437c0-3.747 2.9109-6.503 6.565-6.503 3.654 0 6.5649 2.756 6.5649 6.503 0 3.7469-2.9109 6.503-6.5649 6.503-3.6541 0-6.565-2.7561-6.565-6.503zm10.4358 0c0-2.369-1.5638-4.1805-3.8708-4.1805-2.3071 0-3.8709 1.8115-3.8709 4.1805 0 2.3689 1.5638 4.1805 3.8709 4.1805 2.307 0 3.8708-1.8116 3.8708-4.1805z"/><path d="m91.2583 15.2871h-3.623v-2.2915h9.8473v2.2915h-3.6231v10.3893h-2.6166v-10.3893z"/><path d="m100.269 19.3437c0-3.747 2.911-6.503 6.565-6.503s6.565 2.756 6.565 6.503c0 3.7469-2.911 6.503-6.565 6.503s-6.565-2.7561-6.565-6.503zm10.436 0c0-2.369-1.564-4.1805-3.871-4.1805s-3.871 1.8115-3.871 4.1805c0 2.3689 1.564 4.1805 3.871 4.1805s3.871-1.8116 3.871-4.1805z"/><path d="m121.358 19.7927c-.635-.6038-1.518-1.7341-1.518-1.7341s.186 1.3935.186 2.307v5.3108h-2.446v-12.7892h.263l6.394 6.0075c.62.5729 1.487 1.7341 1.487 1.7341s-.171-1.4399-.171-2.307v-5.3107h2.447v12.7892h-.263z"/></g></svg>