<svg fill="none" height="62" viewBox="0 0 61 62" width="61" xmlns="http://www.w3.org/2000/svg"><path d="m61 0h-61v61.0027h61z" fill="#f58220"/><g fill="#fff"><path d="m17.8222 47.4559-6.8379-12.6736.1131 12.6629h-4.47777v-21.2063h4.46977l6.846 12.6629-.1132-12.6629h4.4778v21.2143h-4.4778z"/><path d="m29.2109 47.4559h-4.5263v-21.217h7.2151c5.7145 0 7.6866 2.6026 7.5816 6.6466-.097 3.6265-1.4522 4.6395-3.6857 5.7145l5.1917 8.8532h-5.2941l-4.2865-7.9479h-2.1985v7.9479zm0-12.0512h3.0822c2.0099 0 2.2658-1.3472 2.2658-2.5165 0-1.1692-.2559-2.5164-2.2658-2.5164h-3.0822v5.0355z"/><path d="m49.9699 25.8428c2.4599 0 3.5645.4526 4.4132.7948v4.2703c-1.246-.5534-2.5974-.8292-3.9605-.8082-3.4513 0-5.0355 1.3848-5.0355 6.7598s1.5842 6.7598 5.0355 6.7598c1.3631.021 2.7145-.2548 3.9605-.8083v4.2488c-.8487.3395-1.9533.7894-4.4132.7894-6.1967 0-9.1361-3.0256-9.1603-11.0032.0242-7.9749 2.9663-11.0032 9.1603-11.0032z"/></g></svg>