<svg fill="none" height="35" viewBox="0 0 106 35" width="106" xmlns="http://www.w3.org/2000/svg" xmlns:xlink="http://www.w3.org/1999/xlink"><clipPath id="a"><path d="m0 .904053h106v33.1919h-106z"/></clipPath><g clip-path="url(#a)"><path d="m72.7455 15.4852c1.0678 0 2.0593.15 2.8983.5253.839.3001 1.6017.8254 2.2119 1.4258.6102.6003 1.0678 1.3508 1.3729 2.2513.4576.8255.6102 1.801.6102 2.8516 0 1.0507-.1526 1.9512-.3814 2.8517-.3051.9005-.6864 1.5759-1.1441 2.2513-.5339.6003-1.144 1.1257-1.9068 1.4258-.7627.3752-1.6017.5253-2.5932.5253-.6102 0-1.2204-.075-1.8305-.2251-.5339-.1501-.9916-.3002-1.3729-.5253v5.253h-3.2034v-17.8603c.6101-.1501 1.4491-.3752 2.3644-.5253.9152-.1501 1.9831-.2251 2.9746-.2251zm-14.5679-.0751c1.9068 0 3.3559.6004 4.4237 1.726 1.0678 1.1257 1.6017 2.8517 1.6017 5.178v.6004c0 .2251 0 .3752-.0762.6003h-9.0001c.0763 1.0506.4576 1.9511 1.1441 2.5515.6864.6003 1.678.9005 3.0509.9005.7627 0 1.4491-.075 2.1356-.2251.6101-.1501 1.144-.3002 1.5254-.4503l.4576 2.5515c-.1525.075-.3813.1501-.7627.3002-.3051.075-.6864.1501-1.0678.3001-.3814.0751-.839.1501-1.2966.2252-.4576.075-.9153.075-1.3729.075-1.2204 0-2.2882-.1501-3.1271-.5253-.9153-.3752-1.6018-.8255-2.2119-1.5009-.6102-.6003-.9916-1.3507-1.2967-2.2513-.3813-.9005-.5339-1.801-.5339-2.8516 0-1.2007.1526-2.2513.5339-3.1518.3814-.9006.839-1.651 1.4492-2.2513.6102-.6004 1.2966-1.0507 2.0594-1.3508.7627-.3002 1.5254-.4503 2.3644-.4503zm27.8392-3.7522v4.1274h4.8814v2.6265h-4.8814v5.4782c0 1.0506.1525 1.8761.5339 2.3264.3813.4502.9153.6754 1.8305.6754.6102 0 1.0678-.0751 1.5254-.1501.4577-.1501.839-.2251 1.0679-.3752l.5339 2.4764c-.3814.1501-.839.3002-1.4492.4503-.6102.15-1.2966.2251-2.1356.2251-.9915 0-1.8305-.1501-2.4407-.3752-.6865-.3002-1.1441-.6004-1.6017-1.1257-.3814-.5253-.6865-1.0506-.839-1.801-.1526-.6754-.2288-1.5009-.2288-2.4014v-11.6318zm14.1102 3.8273c1.144 0 2.059.15 2.822.4502s1.373.7505 1.831 1.2758c.457.5253.762 1.2006.915 1.9511.152.7504.305 1.5759.305 2.5515v7.6544h-3.203v-7.1291c0-.7505-.077-1.3508-.153-1.8761s-.229-.9005-.458-1.2758c-.228-.3001-.533-.5253-.915-.6754-.381-.15-.839-.2251-1.3727-.2251-.3814 0-.839 0-1.2967.0751-.4576.075-.7627.075-.9915.15v10.9564h-3.2034l.0763-13.1326c.6101-.1501 1.4491-.3752 2.3644-.5253.9915-.1501 2.0593-.2251 3.2796-.2251zm-73.6785-6.75396.5339 2.55146-14.7205 18.0105h-2.66947zm1.0678 5.10296 1.0678 4.6527c.1373.4728.0275 1.0063-.2739 1.4366l-.1074.1393-6.9408 8.555c-.339.3335-.7985.6077-1.325.6646l-.2004.0108h-4.8051zm14.1103-4.87783v11.93193c.3814-.4503.839-.9005 1.2966-1.3508s.9153-.9756 1.3729-1.4258c.4576-.4503.839-.9756 1.2966-1.4258.4577-.4503.7627-.8255.9916-1.1257h3.8136c-.9153.9756-1.8306 2.0262-2.8221 3.0017-.9915 1.0506-2.1356 2.4014-3.1272 3.377l6.2543 7.3543h-3.7373l-5.339-6.3037v6.3037h-3.2034v-19.81153zm-18.0002-3.15183 1.6018.75044c.0508.05002.1016.0667.1525.09449l.0763.05559-18.07645 22.13784c0-.0563-.0429-.1126-.09653-.1689l-.05601-.0562-1.14408-1.4259zm48.814 12.38216c-.3051 0-.6102 0-.9153.0751-.305 0-.6101.075-.9915.15v7.7295c.3051.1501.6865.3753 1.1441.5253.4576.1501.9915.2252 1.4492.2252 1.144 0 1.983-.3753 2.5169-1.1257.6865-.8255.9153-1.8761.9153-3.1518 0-1.4258-.3051-2.4765-.9915-3.3019-.6102-.7505-1.678-1.1257-3.1272-1.1257zm-52.6275-14.1832 1.8305.90052-16.85609 20.63698-1.29662-1.5759 8.16111-9.9808zm-4.6807-2.24297.1806.0667 2.5933 1.27574-5.7204 7.05413c-.2288-.52534-.6102-.9756-1.0678-1.35082-1.60174-1.35078-3.88989-1.05061-5.26279.5253-1.37289 1.57592-1.0678 3.90222.53391 5.17802.39225.3216.84054.533 1.29684.6813l.22859.0691-5.72038 7.0541-1.754256-2.2513c-.3432229-.4052-.5011055-.932-.4180455-1.4163l.0366867-.1596 2.5169648-10.65619c.07628-.22513.15255-.45026.30509-.67539.18305-.1801.36611-.36021.58821-.50189l.17451-.09845 9.99157-4.72775c.4746-.20011 1.0095-.22235 1.4974-.0667zm43.1979 16.35117c-.4576 0-.9152.075-1.2966.3001-.3814.1501-.6864.4503-.9153.7505-.2288.3002-.4576.6003-.6101.9756-.1526.3752-.2289.7504-.3051 1.1256l5.8729-.075c0-.4503-.0763-.8255-.1525-1.2007-.1526-.3753-.3051-.7505-.5339-.9756-.2289-.3002-.5339-.5253-.839-.6754s-.7627-.2251-1.2204-.2251zm-48.58512-7.7295c.71782.4944.82762 1.4541.32932 2.191l-.10051.1353-.11151.1137c-.61452.5768-1.53506.6765-2.25292.1115-.68644-.6004-.83899-1.5759-.22881-2.3264.61017-.67537 1.60171-.82545 2.36443-.2251z" fill="#006bb8"/></g></svg>