<svg fill="none" height="40" viewBox="0 0 176 40" width="176" xmlns="http://www.w3.org/2000/svg" xmlns:xlink="http://www.w3.org/1999/xlink"><clipPath id="a"><path d="m0 .64917h176v38.7016h-176z"/></clipPath><g clip-path="url(#a)"><path d="m13.7137 39.0055 11.9626-15.5901c1.0722-1.3989.8093-3.4029-.5896-4.4777l-.2757-.2119c-1.6186-1.2406-3.9366-.9368-5.1798.6816l-7.467 9.7315c-2.31546 3.0174-1.7462 7.3393 1.2713 9.6548z" fill="#4d6dd3"/><path d="m26.6285 19.7548c-.0408-3.9594-3.265-7.1581-7.2347-7.1581h-3.8063c-1.261 0-2.2848 1.0236-2.2848 2.2848v4.9499h10.8547l.0026.0026c.0229 0 .0485-.0026.0714-.0026 1.1156 0 2.0167.9037 2.0167 2.0167 0 .2298-.0382.4519-.1097.6587 0 0 .3191-.7761.4161-1.4603.0613-.4314.074-1.0134.0766-1.2177 0-.0076 0-.0153 0-.0229-.0026-.0332-.0026-.0511-.0026-.0511z" fill="#5f98ff"/><path d="m12.9148.64917-11.962551 15.59023c-1.072188 1.3988-.809248 3.4028.589701 4.4776l.27571.2119c1.61849 1.2406 3.93647.9368 5.1797-.6816l7.46704-9.7314c2.3154-3.01747 1.7462-7.33943-1.2713-9.654841z" fill="#4d6dd3"/><path d="m.00255533 19.9004c.04084537 3.9594 3.26507467 7.1581 7.23473467 7.1581h3.80631c1.2611 0 2.2848-1.0236 2.2848-2.2847v-4.95h-10.85471l-.00255-.0026c-.02297 0-.0485.0026-.07148.0026-1.11558 0-2.016735-.9037-2.016735-2.0167 0-.2298.038295-.4519.109774-.6587 0 0-.319106.7761-.4161132 1.4603-.061268.4314-.07403297 1.0134-.0765858 1.2177v.0229c.00255283.0306.00255533.0511.00255533.0511z" fill="#5f98ff"/><g fill="#0d1632"><path d="m41.333 16.8268c-.2399-.3855-.6994-.868-1.4474-.868-.337 0-.5795.12-.725.2655-.12.12-.217.3141-.217.5311 0 .2654.12.4339.337.5795.1455.0969.2884.1455.7964.4109l1.2075.6025c.531.2655 1.0364.5309 1.4245.942.554.554.748 1.182.748 1.8815 0 .9164-.337 1.7129-.8935 2.3153-.7965.868-1.7845 1.1335-2.8464 1.1335-.651 0-1.473-.097-2.1954-.651-.5795-.4339-1.062-1.1334-1.302-1.8584l1.9299-.9165c.12.337.337.771.554.965.1455.1455.4825.3854 1.0364.3854.3625 0 .748-.12.9651-.3369.1939-.194.3369-.5055.3369-.7965 0-.2885-.097-.531-.314-.771-.2885-.2884-.628-.4594-1.0135-.628l-.868-.4109c-.4595-.217-1.0134-.4825-1.3989-.8681-.531-.5054-.725-1.0619-.725-1.7129 0-.8194.314-1.6159.845-2.1724.4595-.4825 1.2305-.965 2.4839-.965.7225 0 1.3019.1455 1.8814.531.337.217.7965.6024 1.159 1.2559z"/><path d="m54.6741 21.9883c-.4339.771-1.062 1.4474-1.7129 1.8585-.8195.5309-1.907.7709-2.9919.7709-1.3505 0-2.461-.337-3.4259-1.3019-.965-.965-1.496-2.364-1.496-3.8854 0-1.5675.5539-3.0889 1.6159-4.1739.845-.8451 1.9555-1.376 3.403-1.376 1.6159 0 2.6549.6995 3.2574 1.3275 1.3019 1.3505 1.4245 3.2318 1.4245 4.2938v.2885h-7.2859c.0486.725.3625 1.5445.8681 2.0499.5539.554 1.2304.651 1.8099.651.6509 0 1.1335-.1455 1.616-.508.411-.314.725-.7225.9419-1.1105zm-2.3384-4.1254c-.0969-.5539-.3625-1.0364-.7249-1.3759-.3141-.2886-.8196-.5796-1.5931-.5796-.8194 0-1.3504.337-1.6644.6511-.337.3139-.6024.7964-.725 1.3019h4.7074z"/><path d="m64.64 14.1485h2.364v9.3383c0 2.3894-.2655 4.1024-1.6645 5.2844-.651.5309-1.7129 1.0849-3.3774 1.0849-1.182 0-2.364-.2885-3.3289-1.2559-.748-.7481-1.3275-1.93-1.4959-3.1605h2.2924c.097.554.3854 1.2075.7479 1.593.2886.314.8681.6995 1.833.6995.9905 0 1.5674-.3855 1.8584-.6765.771-.748.771-1.81.771-2.558v-1.3274c-1.0849 1.376-2.4124 1.4474-3.0889 1.4474-1.3019 0-2.3895-.3625-3.3544-1.3759-.9165-.965-1.519-2.341-1.519-4.0284 0-1.8585.6995-3.1374 1.496-3.9339 1.0135-1.0365 2.221-1.399 3.4515-1.399 1.0134 0 2.1469.337 3.0148 1.376zm-4.5108 2.5324c-.6025.554-1.0365 1.496-1.0365 2.581 0 1.0135.3855 2.004 1.0135 2.5579.434.3855 1.085.6765 1.81.6765.7479 0 1.3989-.217 1.9784-.8195.6995-.7479.8935-1.6159.8935-2.3894 0-1.1334-.3625-1.9784-.9649-2.5579-.5796-.5795-1.2306-.725-1.907-.725-.6535 0-1.2586.171-1.787.6764z"/><path d="m69.9961 14.1489h2.3639v.942c.7965-.9649 1.736-1.2075 2.5094-1.2075 1.062 0 2.0499.5054 2.6295 1.4959.8449-1.2075 2.1239-1.4959 3.0149-1.4959 1.2304 0 2.3154.5794 2.8949 1.593.194.3369.5309 1.0849.5309 2.5579v6.2723h-2.3638v-5.5984c0-1.1334-.1201-1.5929-.217-1.8099-.1455-.3855-.5055-.8935-1.3505-.8935-.5794 0-1.085.314-1.399.748-.411.5795-.4594 1.4474-.4594 2.3154v5.2359h-2.364v-5.5984c0-1.1335-.1199-1.593-.217-1.81-.1455-.3855-.5055-.8935-1.3505-.8935-.5794 0-1.0849.3141-1.3988.748-.4111.5795-.4596 1.4474-.4596 2.3155v5.2358h-2.3639z"/><path d="m96.0325 21.9883c-.434.771-1.0624 1.4474-1.713 1.8585-.8192.5309-1.9065.7709-2.9919.7709-1.3504 0-2.461-.337-3.4259-1.3019-.965-.965-1.4959-2.364-1.4959-3.8854 0-1.5675.5539-3.0889 1.6158-4.1739.845-.8451 1.9556-1.376 3.403-1.376 1.6159 0 2.6553.6995 3.257 1.3275 1.3021 1.3505 1.4246 3.2318 1.4246 4.2938v.2885h-7.2855c.0485.725.3625 1.5445.868 2.0499.554.554 1.2304.651 1.8099.651.6508 0 1.1337-.1455 1.6156-.508.411-.314.7252-.7225.9427-1.1105zm-2.3405-4.1254c-.0977-.5539-.3631-1.0364-.7234-1.3759-.3133-.2886-.8192-.5796-1.5925-.5796-.8195 0-1.3505.337-1.6645.6511-.337.3139-.6024.7964-.7224 1.3019h4.7028z"/><path d="m98.5415 14.1489h2.3645v.942c1.014-1.1335 2.172-1.2075 2.749-1.2075 1.881 0 2.678.9419 2.992 1.376.386.5539.628 1.2534.628 2.8234v6.2238h-2.364v-5.6469c0-2.5809-.965-2.6549-1.858-2.6549-1.062 0-2.147.1455-2.147 3.4259v4.8734h-2.3645z"/><path d="m112.704 16.3186v7.9853h-2.363v-7.9853h-.991v-2.1724h.991v-3.7144h2.363v3.7144h1.811v2.1724z"/><path d="m120.547 16.8268c-.242-.3855-.699-.868-1.448-.868-.336 0-.578.12-.722.2655-.12.12-.217.3141-.217.5311 0 .2654.12.4339.338.5795.145.0969.288.1455.796.4109l1.207.6025c.532.2655 1.037.5309 1.424.942.554.554.749 1.182.749 1.8815 0 .9164-.338 1.7129-.894 2.3153-.796.868-1.784 1.1335-2.847 1.1335-.65 0-1.472-.097-2.194-.651-.58-.4339-1.063-1.1334-1.302-1.8584l1.929-.9165c.121.337.337.771.555.965.144.1455.482.3854 1.036.3854.363 0 .748-.12.965-.3369.194-.194.337-.5055.337-.7965 0-.2885-.097-.531-.315-.771-.288-.2884-.627-.4594-1.012-.628l-.868-.4109c-.46-.217-1.014-.4825-1.4-.8681-.531-.5054-.723-1.0619-.723-1.7129 0-.8194.315-1.6159.845-2.1724.46-.4825 1.232-.965 2.488-.965.722 0 1.302.1455 1.881.531.336.217.796.6024 1.158 1.2559z"/><path d="m127.231 16.3186v7.9853h-2.364v-7.9853h-.991v-2.1724h.991v-3.7144h2.364v3.7144h1.809v2.1724z"/><path d="m130.631 14.1489h2.364v.9165c.266-.314.651-.651.991-.845.459-.2656.916-.337 1.447-.337.579 0 1.208.097 1.858.4825l-.965 2.1469c-.53-.337-.964-.3625-1.207-.3625-.508 0-1.013.0715-1.473.554-.651.6995-.651 1.6645-.651 2.3409v5.2589h-2.364z"/><path d="m146.989 21.9883c-.434.771-1.061 1.4474-1.713 1.8585-.819.5309-1.906.7709-2.992.7709-1.35 0-2.46-.337-3.426-1.3019-.964-.965-1.495-2.364-1.495-3.8854 0-1.5675.554-3.0889 1.616-4.1739.845-.8451 1.955-1.376 3.403-1.376 1.615 0 2.655.6995 3.257 1.3275 1.302 1.3505 1.424 3.2318 1.424 4.2938v.2885h-7.288c.049.725.362 1.5445.868 2.0499.554.554 1.23.651 1.81.651.651 0 1.133-.1455 1.616-.508.411-.314.725-.7225.942-1.1105zm-2.338-4.1254c-.097-.5539-.362-1.0364-.723-1.3759-.313-.2886-.819-.5796-1.592-.5796-.82 0-1.351.337-1.665.6511-.336.3139-.602.7964-.723 1.3019h4.703z"/><path d="m156.701 14.1489h2.363v10.1577h-2.363v-1.062c-1.037 1.2075-2.316 1.376-3.041 1.376-3.138 0-4.922-2.6064-4.922-5.4044 0-3.3058 2.267-5.3328 4.948-5.3328.748 0 2.049.194 3.015 1.4475zm-5.55 5.1133c0 1.7615 1.11 3.2344 2.823 3.2344 1.496 0 2.872-1.0849 2.872-3.2089 0-2.2209-1.376-3.2804-2.872-3.2804-1.713-.0025-2.823 1.4475-2.823 3.2549z"/><path d="m162.057 14.1489h2.363v.942c.797-.9649 1.736-1.2075 2.51-1.2075 1.062 0 2.05.5054 2.629 1.4959.845-1.2075 2.124-1.4959 3.015-1.4959 1.23 0 2.316.5794 2.895 1.593.194.3369.531 1.0849.531 2.5579v6.2723h-2.363v-5.5984c0-1.1334-.121-1.5929-.218-1.8099-.145-.3855-.505-.8935-1.35-.8935-.579 0-1.085.314-1.399.748-.411.5795-.459 1.4474-.459 2.3154v5.2359h-2.365v-5.5984c0-1.1335-.12-1.593-.216-1.81-.146-.3855-.508-.8935-1.351-.8935-.58 0-1.085.3141-1.399.748-.411.5795-.46 1.4474-.46 2.3155v5.2358h-2.363z"/></g></g></svg>