<svg fill="none" height="36" viewBox="0 0 136 36" width="136" xmlns="http://www.w3.org/2000/svg" xmlns:xlink="http://www.w3.org/1999/xlink"><clipPath id="a"><path d="m0 .222168h136v35.5556h-136z"/></clipPath><g clip-path="url(#a)" fill="#000"><path d="m39.0219 35.5999h-1.7778v-8.7111h1.7778zm6.0445 0-3.3778-6.1333v6.1333h-1.6889v-8.7111h2.2222l3.2889 6.1334v-6.1334h1.6889v8.7111zm3.2 0v-8.7111h3.0222c3.0222 0 4.3555 1.6 4.3555 4.1778.2667 2.2222-1.3333 4.2667-3.5555 4.4444-.2667 0-.6222 0-.8889 0h-2.9333zm2.7555-1.5111c1.9556 0 2.6667-1.0666 2.6667-2.9333 0-2.1333-.8-2.8445-2.4889-2.8445h-1.0667v5.6889h.8889zm7.2-.0889h3.9111v1.6h-5.6889v-8.7111h5.5111v1.5111h-3.6444v2.0445h3.4667v1.5111h-3.4667zm9.5111-2.8444 2.8445 4.3555h-2.1334l-1.7777-2.9333-1.7778 2.9333h-2.0445l2.8445-4.3555-2.6667-4.3556h2.0445l1.7777 2.9334 1.7778-2.9334h1.9556zm7.7334 2.8444h3.9111v1.6h-5.7778v-8.7111h5.5111v1.5111h-3.6444v2.0445h3.4666v1.5111h-3.4666zm9.5111-2.8444 2.8444 4.3555h-2.1333l-1.8667-2.9333-1.7778 2.9333h-2.0444l2.8444-4.3555-2.6666-4.3556h2.0444l1.7778 2.9334 1.7778-2.9334h1.9555zm2.6666.1778c0-2.7556 1.4223-4.6223 4.1778-4.6223 1.6889-.1777 3.2.9778 3.3778 2.5778v.5334l-1.6889.1777c-.0889-1.2444-.6222-1.7777-1.7778-1.7777-1.4222 0-2.2222.8888-2.2222 3.0222 0 2.1333.8 2.9333 2.1333 2.9333.9778.0889 1.7778-.6222 1.8667-1.5111l1.6889.2667c-.2667 1.7777-1.8667 2.9333-3.5556 2.7555-2.8444 0-4-1.6889-4-4.3555zm15.5559 4.2666h-1.867v-3.5555h-3.2889v3.5555h-1.8666v-8.7111h1.8666v3.5556h3.2889v-3.5556h1.867zm6.044-8.7111 3.111 8.7111h-2.044l-.711-2.1333h-2.934l-.622 2.1333h-1.955l2.844-8.7111zm-1.067 1.7778-1.066 3.3778h2.222zm9.956 6.9333-3.378-6.1333v6.1333h-1.689v-8.7111h2.223l3.288 6.1334v-6.1334h1.689v8.7111zm9.333-1.0666c-.533.8889-1.511 1.3333-2.489 1.2444-2.577 0-3.644-1.7778-3.644-4.3555 0-2.8445 1.422-4.6223 4.178-4.6223 1.689-.2666 3.2.9778 3.378 2.5778v.4445l-1.689.1777c-.089-.8889-.534-1.6889-1.778-1.6889-1.511 0-2.222 1.0667-2.222 2.9334 0 2.0444.622 3.0222 2.222 3.0222 1.155 0 1.778-.6222 1.778-1.5111v-.3556h-1.6v-1.4222h3.377v4.5333h-1.333zm4.445-.5334h3.822v1.6h-5.689v-8.7111h5.511v1.5111h-3.644v2.0445h3.466v1.5111h-3.466z"/><path d="m21.1556 16.3111v17.4222h-19.28893v-19.2889h17.42223v-1.8667h-19.2889v23.0222h23.0222v-19.2888zm14.2222-16.088932v10.488932h-1.8667v-8.62227h-10.4889v10.48887h8.6222v1.8667h-10.4888v-14.222232zm7.3778 12.355532v9.2445h-5.5112v-1.8667h3.7334v-5.5111h-5.6v3.7333h-1.8667v-5.5111h9.2445zm-7.4667 7.4667v6.8444h-6.8445v-6.8444z"/></g></svg>