<svg fill="none" height="19" viewBox="0 0 127 19" width="127" xmlns="http://www.w3.org/2000/svg" xmlns:xlink="http://www.w3.org/1999/xlink"><clipPath id="a"><path d="m.886719.689453h126.113v17.8861h-126.113z"/></clipPath><g clip-path="url(#a)" fill="#000"><path d="m79.7961 16.2763c2.3486 0 3.0747-1.6181 3.5665-3.5671h-1.102c-1.5249 0-4.0577.2596-4.0577 2.2992 0 .8452.7956 1.2679 1.5932 1.2679zm3.0747.1639h-.0475c-1.0785 1.3608-2.1575 2.1352-3.8948 2.1352-2.1805 0-3.7288-1.2204-3.7288-3.4478 0-3.9884 4.457-4.294 7.4127-4.294h1.102c.095-.3293.095-.6811.095-1.03141 0-1.22043-1.3139-1.57217-2.4175-1.57217-1.3833 0-2.7207.35173-3.9637.93823l.4463-2.51041c1.3359-.46861 2.6973-.72696 4.1052-.72696 2.4149 0 4.6914.89213 4.6914 3.72958 0 1.61934-1.1964 6.35724-1.4789 8.63394h-2.6497z"/><path d="m1.37938 6.20098h2.27527l.53936-2.48576 3.37867-1.10355-.77427 3.58931h2.81443l-.49227 2.29914h-2.81505l-1.14965 5.27878c-.07016.2817-.14026.7032-.14026 1.1718 0 .727.49263 1.1732 1.19553 1.1732.5642 0 1.12663-.1169 1.52509-.281l-.53878 2.4398c-.53972.1166-1.14902.282-1.68921.282-2.13458 0-3.63661-.8454-3.63661-3.169 0-.9374.1878-1.852.39845-2.8128l.89192-4.08278h-2.275281z"/><path d="m12.0538.992407h3.1437l-.6568 3.004073h-3.1439zm-1.1497 5.208833h3.144l-2.581 12.08176h-3.14435z"/><path d="m23.5402 8.96939c-.6095-.39888-1.4305-.60931-2.2991-.60931-2.5096 0-3.917 2.34542-3.917 4.62132 0 1.5707.5153 3.143 2.6741 3.143.7747 0 1.7367-.2111 2.5571-.6104l-.3524 2.4882c-.9618.4686-1.9941.563-3.0263.563-3.1197 0-5.1366-2.0881-5.1366-5.2086 0-4.22205 2.7912-7.43592 7.1305-7.43592 1.174 0 2.2995.21126 3.144.46835z"/><path d="m26.9881.689217h3.1438l-2.0887 9.899283h.0485l4.3866-4.38726h4.0814l-5.7934 5.51306 3.6348 6.5687h-3.5421l-3.1209-6.4044h-.0459l-1.3609 6.4044h-3.073z"/><path d="m47.8911 6.20147h2.2752l.5394-2.48576 3.3786-1.10355-.7741 3.58931h2.8152l-.4933 2.29914h-2.8147l-1.1498 5.27869c-.0703.2818-.1399.7033-.1399 1.1719 0 .727.492 1.1732 1.1962 1.1732.5628 0 1.1255-.1169 1.5238-.281l-.5382 2.4398c-.5403.1166-1.15.282-1.6898.282-2.1345 0-3.6364-.8454-3.6364-3.1691 0-.9373.1876-1.8519.3995-2.8128l.8905-4.08269h-2.2749z"/><path d="m46.8399 10.5179c0-3.07214-1.9702-4.59722-4.9494-4.59722-3.9645 0-6.8744 3.61275-6.8744 7.36522 0 3.5892 2.3462 5.2793 5.8191 5.2793 1.2896 0 2.6271-.3054 3.8469-.6811l.3984-2.4879c-1.1727.5415-2.4168.8698-3.7069.8698-2.0102 0-3.1852-.7149-3.3357-2.6137h-.0024c-.0055-.1101-.0164-.2182-.0164-.3338 0-.0224.0011-.0451.0011-.0673 0-.0129-.0011-.0224-.0011-.0353h.0023c.0141-.8269.1955-1.6427.5114-2.3968.6042-1.53713 1.4574-2.59928 3.3106-2.59928 1.3128 0 1.994.72592 1.994 2.01708 0 .281-.024.5394-.0701.8204h-4.3018c-.2791.9496-.3275 1.5856-.3331 2.1586h7.402c.1878-.8921.3055-1.7832.3055-2.698"/><path d="m57.4819 7.53871c.0929-.46882.1874-.96088.2573-1.33747h2.9333l-.2819 1.61843h.047c.8446-1.24184 2.228-1.89922 3.7058-1.89922 1.4314 0 2.9092.844 3.0737 2.29914h.0469c.7982-1.57223 2.5579-2.29914 4.2456-2.29914 1.8057 0 3.3556 1.47753 3.3556 3.30706 0 1.07869-.2835 2.29909-.5403 3.28369l-1.2669 5.7718h-3.1442l1.2675-5.8887c.1644-.7271.3988-1.8542.3988-2.5801 0-.89213-.6797-1.45435-1.4773-1.45435-2.1826 0-2.7218 2.53425-3.1212 4.17595l-1.2424 5.7472h-3.1436l1.2669-5.8887c.165-.7271.3989-1.8542.3989-2.5801 0-.89213-.6813-1.45435-1.4789-1.45435-2.134 0-2.7208 2.55675-3.1191 4.17595l-1.244 5.7472h-3.1425z"/><path d="m96.0076 8.6615c-.3372-.18438-1.2048-.44168-2.0959-.44168-.9392 0-2.1116.2573-2.1116 1.21818 0 1.5259 4.0817 2.0889 4.0817 5.0446 0 3.1446-2.7443 4.0826-5.4411 4.0826-1.268 0-2.5354-.1876-3.6839-.7282l.6813-2.5095c.8895.4914 1.7822.9385 3.0026.9385 1.0535 0 2.1576-.3527 2.1576-1.3372 0-1.9474-4.0823-2.1364-4.0823-5.16171 0-2.83724 2.7448-3.84641 5.2307-3.84641 1.1505 0 2.324.21126 2.9421.37194z"/><path d="m98.0173 6.20147h2.2757l.539-2.48576 3.377-1.10355-.774 3.58931h2.816l-.492 2.29914h-2.817l-1.149 5.27869c-.07.2818-.141.7033-.141 1.1719 0 .727.494 1.1732 1.197 1.1732.563 0 1.126-.1169 1.525-.281l-.54 2.4398c-.54.1166-1.149.282-1.688.282-2.136 0-3.637-.8454-3.637-3.1691 0-.9373.189-1.8519.3994-2.8128l.891-4.08269h-2.276z"/><path d="m119.329 7.81967c.093-.51508.188-1.05522.282-1.61843h3.003l-.423 2.27565h.048c.564-1.31361 2.11-2.55644 3.565-2.55644.399 0 .821.02239 1.196.11662l-.656 3.07256c-.351-.11703-.799-.18756-1.197-.18756-2.23 0-3.308 1.99453-3.706 3.94183l-1.127 5.4191h-3.143z"/><path d="m117.148 10.5179c0-3.07214-1.971-4.59722-4.95-4.59722-3.964 0-6.874 3.61275-6.874 7.36522 0 3.5892 2.346 5.2793 5.819 5.2793 1.289 0 2.627-.3054 3.847-.6811l.398-2.4879c-1.173.5415-2.416.8698-3.706.8698-2.011 0-3.185-.7149-3.337-2.6137h-.002c-.005-.1101-.016-.2182-.016-.3338 0-.0224.001-.0451.001-.0673 0-.0129-.001-.0224-.001-.0353h.001c.015-.8269.196-1.6427.512-2.3968.603-1.53713 1.458-2.59928 3.311-2.59928 1.313 0 1.994.72592 1.994 2.01708 0 .281-.024.5394-.07.8204h-4.301c-.281.9496-.328 1.5856-.335 2.1586h7.404c.188-.8921.305-1.7832.305-2.698"/></g></svg>