<svg fill="none" height="10" viewBox="0 0 112 10" width="112" xmlns="http://www.w3.org/2000/svg" xmlns:xlink="http://www.w3.org/1999/xlink"><clipPath id="a"><path d="m0 .417847h112v8.69424h-112z"/></clipPath><g clip-path="url(#a)"><path d="m1.89694 1.86127 3.85474 7.00334 4.46342.00346 3.7889-7.0078 1.8991.001v-1.270045h-5.7125v1.269045h1.6498l-2.75899 5.10164-2.79616-5.10064 2.00519-.001-.00047-1.269045h-8.28831107l-.00165893 1.270045zm49.11276-.00332-.0008-1.266678 7.6429.001014v1.265664h-1.9035v5.71693h1.7649c1.6355 0 2.7076-1.07999 2.7076-2.54575h1.2608v3.82811l-11.4727.00092v-1.28152h1.9268l-.0025-5.71869zm-18.5756 5.93826c-1.4014-.02533-2.0176-1.57436-1.9907-3.11352.0279-1.59405.7906-2.98399 2.1035-2.96113 1.3129.02304 2.006 1.43957 1.9779 3.03284-.0267 1.50316-.6472 3.06809-2.0907 3.04181zm.0426-7.379401c-3.8378 0-5.8762 1.914631-5.8762 4.317071 0 2.43563 1.9627 4.37727 5.8984 4.37727 3.9343 0 5.8762-1.94164 5.8762-4.37727 0-2.40244-2.0599-4.317071-5.8984-4.317071zm43.0425 1.444461 3.8546 7.00334 4.4635.00346 3.7889-7.0078 1.8991.001v-1.270045h-5.7127v1.269045h1.65l-2.7589 5.10164-2.7962-5.10064 2.0052-.001-.0004-1.269045h-8.2885l-.0016 1.270045zm30.5398 5.93494c-1.402-.02533-2.018-1.57436-1.991-3.11352.028-1.59405.791-2.98399 2.103-2.96113 1.313.02304 2.006 1.43957 1.978 3.03284-.026 1.50316-.647 3.06809-2.09 3.04181zm.042-7.379401c-3.838 0-5.876 1.914631-5.876 4.317071 0 2.43563 1.963 4.37727 5.898 4.37727s5.877-1.94164 5.877-4.37727c0-2.40244-2.06-4.317071-5.899-4.317071z" fill="#161618"/></g></svg>