<svg width="26" height="24" viewBox="0 0 26 24" fill="none" xmlns="http://www.w3.org/2000/svg">
<path d="M25.3067 23.7271V13.6035H22.7769V11.0729H20.2463V6.01154H17.7156V3.48088H15.184V8.54221H12.6533V11.0729H15.184V13.6035H12.6533V11.0729H10.1227V13.6035H7.592V16.1351H5.06133V18.6658H2.53067V16.1351H0V23.7271H25.3067ZM12.6533 3.48088H10.1227V6.01154H12.6533V3.48088ZM10.1227 6.01154H7.592V8.54221H10.1227V6.01154ZM7.592 8.54221H5.06133V11.0729H7.592V8.54221ZM5.06133 11.0729H2.53067V16.1342H5.06133V11.0729ZM12.6533 3.48088H15.184V0.950197H12.6533V3.48088Z" fill="#F25C24"/>
</svg>
