<svg fill="none" height="30" viewBox="0 0 107 30" width="107" xmlns="http://www.w3.org/2000/svg" xmlns:xlink="http://www.w3.org/1999/xlink"><mask id="a" height="4" maskUnits="userSpaceOnUse" width="13" x="94" y="19"><path d="m94.5742 19.6791h12.1488v3.0869h-12.1488z" fill="#fff"/></mask><mask id="b" height="22" maskUnits="userSpaceOnUse" width="17" x="0" y="2"><path d="m0 2.08224h16.6133v21.37446h-16.6133z" fill="#fff"/></mask><mask id="c" height="28" maskUnits="userSpaceOnUse" width="24" x="73" y="1"><path d="m73.4224 1.28687h23.5468v27.51203h-23.5468z" fill="#fff"/></mask><mask id="d" height="5" maskUnits="userSpaceOnUse" width="5" x="52" y="1"><path d="m52.8535 1.05307h4.0706v4.08816h-4.0706z" fill="#fff"/></mask><mask id="e" height="5" maskUnits="userSpaceOnUse" width="5" x="67" y="1"><path d="m67.1138 1.05307h4.0705v4.08816h-4.0705z" fill="#fff"/></mask><g mask="url(#a)"><path clip-rule="evenodd" d="m95.0908 22.766c-.1708 0-.3252-.0803-.4231-.221-.0979-.1402-.1204-.3125-.0605-.4733l.7584-2.0558c.0745-.2019.2691-.3368.484-.3368h10.3574c.285 0 .516.2307.516.5155v2.0561c0 .2842-.231.5153-.516.5153z" fill="#ffe400" fill-rule="evenodd"/></g><g mask="url(#b)"><path clip-rule="evenodd" d="m10.4044 23.4567c-5.73701 0-10.40488828-4.7943-10.40488828-10.6872 0-5.89262 4.66787828-10.68726 10.40488828-10.68726 2.1576 0 4.2271.6724 5.9856 1.94546.1206.08694.1976.21613.2176.36295.0207.14925-.0194.29577-.1131.4128-.6085.76724-1.2636 1.59041-1.8229 2.2853-.1052.13071-.2672.20883-.4335.20883-.1176 0-.2283-.03799-.3189-.11065-1.0359-.82773-2.2518-1.26545-3.5148-1.26545-3.3824 0-6.13401 3.12823-6.13401 6.97232 0 3.845 2.75161 6.9729 6.13401 6.9729 1.3101 0 2.5619-.4669 3.6191-1.3499.0942-.0788.2094-.1198.3341-.1198.1696 0 .3356.08.4432.214.5286.6593 1.1317 1.4159 1.6937 2.1245.0937.117.1338.2642.1131.4128-.02.1474-.097.2763-.2176.3636-1.7579 1.2721-3.8277 1.9448-5.9856 1.9448z" fill="#272a31" fill-rule="evenodd"/></g><g clip-rule="evenodd" fill="#272a31" fill-rule="evenodd"><path d="m24.7217 10.8945c-2.2734 0-4.1228 2.0023-4.1228 4.4627 0 2.4595 1.8494 4.4615 4.1228 4.4615 2.2735 0 4.1229-2.002 4.1229-4.4615 0-2.4604-1.8494-4.4627-4.1229-4.4627zm0 12.2491c-4.3356 0-7.8623-3.5277-7.8623-7.863 0-4.3356 3.5267-7.86236 7.8623-7.86236 4.3357 0 7.8624 3.52676 7.8624 7.86236 0 4.3353-3.5267 7.863-7.8624 7.863z"/><path d="m41.8461 10.8946c-2.2734 0-4.1225 2.0023-4.1225 4.4626 0 2.4595 1.8491 4.4615 4.1225 4.4615s4.1228-2.002 4.1228-4.4615c0-2.4603-1.8494-4.4626-4.1228-4.4626zm.1511 12.2472c-2.2358.0413-4.3208-.8326-5.8555-2.4504-1.4993-1.5797-2.2616-3.6522-2.147-5.836.2115-4.0195 3.5316-7.28423 7.5581-7.43196.1258-.00487.2504-.00578.3751-.00487 1.3025.01064 2.5807.35171 3.7207.98215.1437.07965.3203-.02431.3203-.18876v-6.38991c0-.29516.2399-.535.535-.535h2.6693c.2957 0 .5353.23984.5353.535v20.52755c0 .2295-.1864.4165-.4162.4165h-2.9066c-.2304 0-.4168-.187-.4168-.4165v-.366l-.1447.08c-1.1751.6505-2.4838 1.053-3.827 1.0782z"/><path d="m60.5855 22.766c-.2951 0-.5362-.2405-.5362-.5359v-20.40723c0-.29547.2411-.53561.5362-.53561h2.6671c.2958 0 .5362.24014.5362.53561v20.40723c0 .2954-.2404.5359-.5362.5359z"/><path d="m67.8163 22.766c-.2958 0-.5365-.2405-.5365-.5359v-13.77872c0-.29577.2407-.53591.5365-.53591h2.6668c.2961 0 .5365.24014.5365.53591v13.77872c0 .2954-.2404.5359-.5365.5359z"/><path d="m53.5476 22.766c-.297 0-.5383-.2414-.5383-.5384v-13.77409c0-.29729.2413-.53804.5383-.53804h2.6632c.2966 0 .538.24075.538.53804v13.77409c0 .297-.2414.5384-.538.5384z"/></g><g mask="url(#c)"><path clip-rule="evenodd" d="m86.4557 28.7989c-.1772 0-.3368-.0833-.4377-.2292-.1013-.145-.1241-.3237-.062-.49l1.6287-4.3693c.1912-.5135.1912-1.0789 0-1.5926l-4.0484-10.8617c-.0803-.2158-.2897-.3614-.5204-.3614h-3.4936c-.2815 0-.5113.2295-.5113.5113v6.5485c0 .9506.7736 1.7242 1.7241 1.7242h2.8793c.1879 0 .3575.1186.4225.2943l.7837 2.1238c.0571.1548.0356.3207-.0584.4563-.0948.1353-.2435.2128-.4082.2128h-5.1269c-2.1816 0-3.9559-1.7743-3.9559-3.955v-7.3675c0-.3025-.246-.5487-.5484-.5487h-.7624c-.2967 0-.538-.2411-.538-.5375v-1.90437c0-.29669.2413-.53744.538-.53744h.7599c.304 0 .5509-.24743.5509-.55141v-5.54151c0-.29546.2404-.5356.5365-.5356h2.6671c.2957 0 .5362.24014.5362.5356v5.46035c0 .34866.2839.63257.6329.63257h6.0023c.2128 0 .4052.13406.4797.33286l3.1829 8.53995c.0672.1802.235.2973.428.2973.1924 0 .3602-.1171.4277-.2973l3.189-8.55667c.0709-.18907.2539-.31614.4554-.31614h2.6735c.1617 0 .307.07569.3991.20853.0927.13314.1128.29608.0562.44746l-7.41 19.88102c-.0769.2073-.2775.3465-.4994.3465z" fill="#272a31" fill-rule="evenodd"/></g><g mask="url(#d)"><path clip-rule="evenodd" d="m54.8889 5.14114c-1.1219 0-2.0354-.9171-2.0354-2.04425s.9135-2.04394 2.0354-2.04394c1.122 0 2.0352.91679 2.0352 2.04394s-.9132 2.04425-2.0352 2.04425z" fill="#272a31" fill-rule="evenodd"/></g><g mask="url(#e)"><path clip-rule="evenodd" d="m69.1492 5.14114c-1.1223 0-2.0354-.9171-2.0354-2.04425s.9131-2.04394 2.0354-2.04394c1.122 0 2.0351.91679 2.0351 2.04394s-.9131 2.04425-2.0351 2.04425z" fill="#272a31" fill-rule="evenodd"/></g></svg>