<svg fill="none" height="32" viewBox="0 0 116 32" width="116" xmlns="http://www.w3.org/2000/svg"><g fill="#009fdf"><path d="m46.0973 22.5096-1.6045-4.0508h-5.5502l-1.6045 4.0245h-2.341l5.6948-14.3093h2.0517l5.6947 14.3488zm-4.3796-11.0345-1.9465 4.932h3.9456zm15.3878 9.3511c-.3648.6057-.8856 1.1022-1.508 1.4377-.6223.3355-1.3234.4976-2.0299.4693-.6839.0109-1.3605-.1424-1.9728-.4472v4.7479h-2.0912v-14.4672h2.0912v.3025c.6123-.3047 1.2889-.4581 1.9728-.4471.7065-.0283 1.4076.1338 2.0299.4693.6224.3354 1.1432.832 1.508 1.4377.5257 1.0123.7623 2.15.6839 3.288.0588 1.1113-.1771 2.2183-.6839 3.2091zm-1.8282-5.5107c-.1811-.2829-.4361-.5109-.7375-.6593-.3013-.1483-.6376-.2114-.9722-.1824-.3352-.0336-.6731.0275-.9753.1763s-.5566.3793-.7345.6654c-.1508.2852-.2404.5988-.263.9206v2.6304c.0229.3218.1125.6353.263.9207.1969.2665.4536.483.7494.6323s.6225.227.9538.227.658-.0777.9539-.227c.2958-.1493.5524-.3658.7493-.6323.3303-.6965.4709-1.4677.4077-2.2359.0589-.7666-.0768-1.5357-.3946-2.2358zm11.6395 5.5107c-.3647.6057-.8855 1.1022-1.5079 1.4377s-1.3235.4976-2.03.4693c-.6839.0109-1.3604-.1424-1.9728-.4472v4.7479h-2.0911v-14.4672h2.0911v.3025c.6124-.3047 1.2889-.4581 1.9728-.4471.7065-.0283 1.4076.1338 2.03.4693.6224.3354 1.1432.832 1.5079 1.4377.5257 1.0123.7624 2.15.6839 3.288.0589 1.1113-.1771 2.2183-.6839 3.2091zm-1.8281-5.5107c-.1811-.2829-.4362-.5109-.7375-.6593-.3014-.1483-.6376-.2114-.9723-.1824-.3351-.0336-.673.0275-.9752.1763s-.5567.3793-.7345.6654c-.1505.2853-.2401.5988-.2631.9206v2.6304c.0234.3217.1129.6352.2631.9207.1968.2665.4535.483.7493.6323s.6225.227.9539.227c.3313 0 .658-.0777.9538-.227s.5525-.3658.7493-.6323c.3303-.6965.4709-1.4677.4077-2.2359.059-.7666-.0768-1.5357-.3945-2.2358zm14.7564 3.1433c-.5129 3.4327-2.8934 4.0508-5.9578 4.0508h-4.5506v-14.3356h4.5375c3.0644 0 5.4449.59184 5.9578 4.0508.1295 1.0382.1867 2.0841.171 3.1302.0183 1.037-.0344 2.074-.1579 3.1038zm-5.9709-8.1673h-2.3674v10.0875h2.3674c4.0902 0 3.9455-1.3941 3.9455-5.0372s.1447-5.0503-3.9455-5.0503zm8.1673 12.2181v-10.1533h2.1175v10.1533zm0-11.9419v-2.49891h2.1175v2.49891zm9.6535 4.2217c-.3909-.2577-.847-.3991-1.3152-.4077-.8417 0-1.907.4998-1.907 1.4599v6.6812h-2.1043v-10.0613h2.0517v.3025c.599-.2713 1.2494-.4104 1.907-.4077.7893.0068 1.5669.1911 2.2753.5392zm3.2749 3.5116c.0121.5171.1521 1.0232.4077 1.473.2475.3085.5653.553.9269.7132s.7563.2313 1.1511.2074c.4019.0198.8029-.053 1.1723-.2126s.6972-.4018.9583-.708l1.6838 1.3152c-.479.5313-1.069.9505-1.7284 1.2278-.6592.2774-1.3714.406-2.086.3767-.746.0426-1.4907-.1024-2.1661-.4218-.6755-.3193-1.2601-.8028-1.7006-1.4063-.5787-1.0189-.8483-2.1842-.776-3.3537-.0723-1.1696.1973-2.3349.776-3.3538.4108-.5869.9647-1.0592 1.6091-1.3722.6445-.3131 1.3581-.4564 2.0734-.4164.6789-.0205 1.3516.1345 1.9529.4502.6014.3157 1.1107.7812 1.4797 1.3516.589 1.2869.803 2.7135.618 4.1165zm3.9455-3.025c-.1777-.2816-.4275-.5106-.7235-.6632s-.6274-.2233-.9599-.2048c-.2686-.0253-.5396.0025-.7975.0821-.2578.0795-.4974.2091-.7051.3813-.2077.1723-.3793.3838-.5052.6225-.1258.2387-.2033.4999-.228.7685h4.1691c-.0058-.3393-.0773-.6742-.2104-.9864zm8.2066 7.4046c-2.919 0-4.642-2.1964-4.642-5.2608s1.723-5.2608 4.642-5.2608c.756-.0055 1.501.1709 2.174.5142.673.3434 1.254.8437 1.693 1.4586l-1.539 1.3152c-1.105-1.1968-1.565-1.3152-2.328-1.3152-.375-.0192-.749.0549-1.089.2155-.339.1607-.634.4029-.857.7052-.43.7008-.619 1.5228-.539 2.341-.091.8314.098 1.6694.539 2.3805.22.3049.515.5491.855.7101.34.1609.716.2333 1.091.2105.763 0 1.21-.1709 2.328-1.3152l1.539 1.3152c-.439.6158-1.019 1.1174-1.692 1.463-.673.3455-1.418.5248-2.175.523zm5.077-10.3243v-2.36733l2.012-.34195v2.70928h1.789v1.8939h-1.789v5.5896c-.02.1483-.02.2988 0 .4471.02.0483.055.0887.1.1149.046.0261.098.0366.15.0298h1.315v2.078h-1.315c-.38.011-.756-.078-1.091-.2581-.334-.18-.616-.4447-.816-.7677-.277-.5019-.404-1.0722-.368-1.644v-7.4835z"/><path d="m1.6966 25.0611 8.5619-3.7351 4.1429-12.2708-4.1955-6.65487zm8.3252-24.791386 10.5084 16.610886 6.1682-2.683-9.8508-13.927886zm21.1483 13.072986-31.1701 13.5202 6.64172 4.5374 20.89838-8.8775z"/></g></svg>