<svg fill="none" height="44" viewBox="0 0 79 44" width="79" xmlns="http://www.w3.org/2000/svg" xmlns:xlink="http://www.w3.org/1999/xlink"><clipPath id="a"><path d="m0 .055542h79v43.8889h-79z"/></clipPath><g clip-path="url(#a)" clip-rule="evenodd" fill-rule="evenodd"><path d="m66.9758 13.0446c-7.9883-3.32333-14.7086-1.8012-20.237 1.4207 2.5106 5.0231 3.2207 10.8327 6.0102 14.6381 3.7533 5.0992 10.7018 9.2852 16.0527 9.2091 4.3619-.0508 6.7457-2.8921 7.2276-3.6786.0253-.0253.0253-.0507.0507-.0761 0 0 0 0 0-.0254.4564-.8118.7861-1.6743.9636-2.6384 1.2934-6.5452-2.3077-15.6275-10.0678-18.8494z" fill="#1ec4e9"/><path d="m16.4839 36.9679c6.7711-.7864 11.7923-3.0697 20.3639-12.5324 2.9163-3.1966 5.4777-7.3825 9.8903-9.9702-2.815-5.63194-6.7457-10.85802-14.7848-12.98904-10.1946-2.68914-17.4221-1.217725-24.396 5.02312-4.86907 4.36352-6.618891 9.43742-7.075366 11.41622-1.267986 5.5305.836866 10.6551 2.738846 13.9277.30432.5074 4.18436 6.1901 13.26312 5.1246z" fill="#a295ee"/><path d="m54.4732 43.3102c.1014 0 .2029-.0253.3297-.0253.1775-.0254.3296-.0254.4818-.0508 3.0939-.279 6.061-.6849 8.6984-1.2938.1268-.0254.2536-.0507.3804-.0761.0761-.0254.1268-.0254.2029-.0507 3.0178-.7358 5.4523-1.7505 7.405-3.0444.0254-.0253.0761-.0507.1014-.0761.0761-.0507.1268-.1014.2029-.1522.0507-.0254.0761-.0507.1268-.0761.1015-.0761.1775-.1268.279-.2029 1.0904-.8119 2.0034-1.7252 2.6881-2.6385.0254-.0253.0507-.0507.0761-.1014.0253-.0254.0253-.0508.0507-.0761.2029-.2791.3804-.5582.5579-.8626-.4818.7865-2.4599 3.019-6.8218 3.0697-5.3509.0761-11.8176-3.9323-15.5708-9.0569-2.7896-3.8053-4.3873-9.1583-6.8979-14.1814-4.3872 2.5877-8.039 6.2409-10.9554 9.4628-8.5716 9.4373-13.0095 11.5937-19.7805 12.3802-9.07883 1.0655-12.50239-3.9576-12.80671-4.4396 0 .0253.02536.0253.02536.0507.2536.4313 1.59766 2.5369 3.70252 4.5411.98903.9133 2.00342 1.6744 2.91637 2.2832 4.08296 2.4862 9.73816 4.9217 30.12736 5.0232 5.5284.0507 10.3214-.0762 14.4804-.406z" fill="#7a68e8"/></g></svg>