<svg fill="none" height="25" viewBox="0 0 116 25" width="116" xmlns="http://www.w3.org/2000/svg"><g fill="#409"><path d="m70.8776 22.5479c-.3951 0-.7739-.1569-1.0533-.4363-.2793-.2793-.4362-.6582-.4362-1.0532 0-.3951.1569-.774.4362-1.0533.2794-.2794.6582-.4363 1.0533-.4363.2999.0052.5908.1032.8328.2804.0961.1088.2305.1762.3751.1882.2289 0 .3751-.1354.3751-.3236-.0095-.1068-.0577-.2065-.1354-.2804-.4064-.3305-.9142-.5108-1.438-.5105-.3645-.0018-.7237.0878-1.0445.2608s-.5931.4238-.7918.7294c-.1988.3055-.3176.6561-.3457 1.0195s.0355.7281.185 1.0605c.1495.3325.38.6221.6705.8423s.6316.364.992.4181c.3605.0542.7288.0169 1.0711-.1082.3424-.1252.6478-.3343.8883-.6082l-.5105-.5105c-.1354.1666-.307.3001-.5018.3905-.1948.0903-.4076.135-.6222.1308z"/><path d="m67.3042 18.881c-.0666-.006-.1334.0088-.1914.0422-.0579.0335-.104.084-.1321.1447l-1.1145 2.7406-1.1145-2.7406c0-.0407-.0934-.1869-.3235-.1869-.0781.002-.1531.0313-.2119.0827-.0589.0514-.0979.1217-.1105.1989l-.6459 3.6669c-.0201.043-.0342.0886-.0419.1354 0 .187.1354.3224.3751.3224.0783-.0018.1535-.0309.2126-.0824.0591-.0514.0983-.1219.1109-.1992l.5105-2.6999.9227 2.4195c.019.0697.0617.1307.1207.1725.059.0417.1308.0617.2029.0563.0723.007.1446-.0123.2038-.0543s.1013-.104.1185-.1745l.9311-2.4195.5525 2.9276h.6974l-.7394-4.084c-.0194-.0745-.0623-.1408-.1222-.1892-.06-.0483-.1339-.0761-.2109-.0792z"/><path d="m50.7301 18.881c-.1354 0-.2816.0419-.3235.1869l-1.625 3.7149c-.0161.0183-.0281.0399-.0354.0632-.0072.0233-.0094.0479-.0065.0722-.005.0436-.0001.0879.0144.1293.0145.0415.0382.0791.0694.1102.0311.031.0688.0545.1104.0689.0415.0143.0857.0191.1293.0139.0665.0061.1332-.0086.191-.0421.0577-.0335.1036-.0841.1314-.1448l.5524-1.1564h1.625l.5524 1.3026h.7394l-1.7975-4.1367c-.0345-.0557-.0827-.1017-.1399-.1336-.0573-.0318-.1217-.0486-.1873-.0485zm-.5991 2.417.5512-1.2499.5524 1.2499z"/><path d="m60.8561 18.881c-.4306 0-.8516.1277-1.2097.3669-.3581.2393-.6371.5793-.8019.9772s-.208.8357-.124 1.258c.0841.4224.2914.8104.596 1.1149.3045.3045.6924.5119 1.1148.5959s.8602.0409 1.2581-.1239c.3978-.1648.7379-.4439.9771-.8019.2393-.3581.367-.7791.367-1.2097.0002-.286-.056-.5692-.1654-.8335-.1094-.2642-.2698-.5043-.472-.7065-.2022-.2023-.4423-.3626-.7066-.472-.2642-.1094-.5474-.1656-.8334-.1654zm0 3.6669c-.3941-.0034-.7711-.1614-1.0499-.44s-.4371-.6554-.4408-1.0495c.011-.3879.1728-.7563.451-1.0267.2783-.2705.6511-.4218 1.0391-.4218.3881 0 .7608.1513 1.0391.4218.2782.2704.4401.6388.4511 1.0267-.0108.7909-.7083 1.4368-1.4896 1.4895z"/><path d="m56.7188 22.5479c-.236.0049-.4698-.0464-.6821-.1497-.2122-.1032-.397-.2554-.5389-.444s-.2369-.4083-.2773-.6409c-.0403-.2325-.0248-.4714.0452-.6968.0701-.2254.1927-.4309.3578-.5996s.3679-.2958.5917-.3707c.2239-.075.4623-.0956.6957-.0603s.4551.1255.6467.2633c.0961.1088.2305.1762.3751.1882.2289 0 .3751-.1354.3751-.3236-.0096-.1068-.0577-.2065-.1354-.2804-.4064-.3305-.9143-.5108-1.4381-.5105-.3645-.0018-.7236.0878-1.0444.2608-.3209.173-.5931.4238-.7919.7294-.1987.3055-.3176.6561-.3456 1.0195-.0281.3634.0355.7281.185 1.0605.1495.3325.38.6221.6705.8423.2904.2202.6315.364.992.4181.3605.0542.7287.0169 1.0711-.1082.3423-.1252.6478-.3343.8883-.6082l-.5105-.5105c-.1369.1665-.3096.2998-.5053.3901-.1957.0902-.4093.1351-.6247.1312z"/><path d="m79.1902 20.8295c-.1882-.0947-.6987-.3236-.6987-.3236-.2804-.1354-.3751-.2816-.3751-.5105s.1882-.4685.6459-.4685c.1915.0067.3796.0528.5525.1354.083.0573.1807.0898.2816.0935.0426.0009.085-.0067.1245-.0226.0396-.0158.0755-.0395.1056-.0697.0302-.0301.0539-.066.0697-.1056.0159-.0395.0235-.0819.0225-.1245-.0008-.0711-.0231-.1402-.0639-.1984-.0409-.0582-.0984-.1026-.1649-.1275-.3034-.1535-.6391-.232-.9791-.2289-.7921 0-1.3445.4685-1.3445 1.1564 0 .5991.417.9275.9275 1.1564.0935.0419.4686.2289.5524.2816.2816.1354.4686.2804.4686.5512 0 .3236-.2816.5525-.6975.5525-.1874-.0024-.372-.0456-.5411-.1265-.169-.0809-.3185-.1976-.4379-.3421l-.465.4194c.0947.1354.5105.6459 1.3961.6459s1.48-.5105 1.48-1.2091c.0263-.4374-.1618-.8125-.8592-1.1348z"/><path d="m97.8582 18.8809c-.0665-.006-.1332.0087-.1909.0422-.0578.0335-.1037.0841-.1315.1448l-1.1144 2.7406-1.1157-2.7406c0-.0408-.0935-.187-.3223-.187-.0784.0018-.1536.031-.2127.0824s-.0983.1219-.1109.1993l-.6459 3.6669c-.0196.0431-.0333.0887-.0408.1354 0 .187.1355.3224.3751.3224.0781-.0021.1531-.0313.2119-.0828.0589-.0514.098-.1217.1105-.1988l.5105-2.6999.9263 2.4194c.0185.0698.0609.1309.1198.1727.0589.0419.1306.0617.2026.0562.0723.0068.1447-.0126.2041-.0545.0593-.042.1017-.1039.1194-.1744l.9275-2.4194.5525 2.9275h.6986l-.7406-4.0839c-.0194-.0745-.0623-.1409-.1223-.1892-.0599-.0483-.1339-.0761-.2108-.0793z"/><path d="m104.497 18.8809c-.136 0-.282.042-.324.187l-1.625 3.7149c-.016.0183-.028.0399-.035.0632s-.01.0479-.007.0722c-.005.0436 0 .0878.015.1293.014.0415.038.0791.069.1101.031.0311.069.0546.11.069.042.0143.086.0191.13.0139.066.0061.133-.0087.191-.0421.058-.0335.103-.0841.131-.1448l.553-1.1564h1.625l.552 1.3026h.739l-1.813-4.1319c-.029-.0573-.073-.1053-.129-.1384-.055-.033-.118-.0499-.182-.0486zm-.599 2.4171.551-1.2499.552 1.2499z"/><path d="m74.8248 18.881c-.1354 0-.2804.0419-.3224.1869l-1.6249 3.7149c-.0161.0183-.0282.0399-.0354.0632s-.0095.0479-.0066.0722c-.0052.0436-.0004.0878.0139.1293.0144.0414.038.0791.069.1102.0311.031.0688.0546.1102.0689.0415.0144.0857.0191.1293.0139.0666.006.1334-.0088.1914-.0422.0579-.0335.104-.084.1322-.1447l.5524-1.1564h1.625l.556 1.3074h.7394l-1.7976-4.1367c-.0334-.0581-.0818-.1062-.1402-.1391-.0585-.0329-.1247-.0494-.1917-.0478zm-.5992 2.417.5513-1.2499.5524 1.2499z"/><path d="m109.933 21.8912s-1.855-2.4578-2.136-2.7838c-.101-.1214-.23-.2178-.375-.2816-.043-.0015-.085.0059-.125.0216s-.076.0395-.107.0698c-.03.0304-.054.0667-.07.1066-.015.0399-.023.0827-.021.1256v3.7149c-.002.0428.006.0856.021.1255.016.04.04.0762.07.1066.031.0303.067.0541.107.0698.04.0158.082.0231.125.0216.092.0045.183-.0266.253-.0869.069-.0602.113-.1449.122-.2366v-2.6915s1.667 2.1774 2.136 2.7394c.093.1354.187.2816.375.2816.043.0015.086-.0058.125-.0216.04-.0157.076-.0395.107-.0699.03-.0303.054-.0666.069-.1066.016-.0399.023-.0826.021-.1255v-3.9893h-.697z"/><path d="m114.526 18.9229c-.054-.0021-.108.0092-.157.0328s-.091.0588-.123.1026l-1.209 1.7184-1.208-1.7184c-.042-.0947-.136-.1354-.282-.1354-.092-.0045-.182.0265-.252.0864-.07.06-.114.1444-.123.236-.005.0655.009.131.042.1881l1.438 2.0372v1.7604h.697v-1.8084l1.438-2.0371c0-.042.042-.1355.042-.187.004-.0396-.001-.0796-.015-.1168-.015-.0371-.038-.0704-.067-.0972s-.065-.0463-.103-.057-.079-.0123-.118-.0046z"/><path d="m102.681 20.2662c0-.7921-.51-1.396-1.583-1.396h-1.3024c-.0428-.0016-.0855.0058-.1254.0215-.0399.0158-.0761.0396-.1064.0699-.0302.0304-.0539.0667-.0695.1066-.0156.04-.0227.0827-.0211.1255v3.667c-.0052.0435-.0004.0877.0139.1292.0144.0415.038.0792.069.1102.0311.0311.0687.0546.1102.069s.0857.0191.1293.0139c.2284 0 .3754-.1354.3754-.3223v-1.2499h.927c1.121.0132 1.636-.5944 1.583-1.3446zm-1.572.6987h-.928v-1.3961h.928c.551 0 .884.2804.884.6974 0 .4171-.333.6987-.884.6987z"/><path d="m87.3164 22.5479c-.395 0-.7739-.1569-1.0532-.4363-.2794-.2793-.4363-.6582-.4363-1.0532 0-.3951.1569-.774.4363-1.0533.2793-.2794.6582-.4363 1.0532-.4363.302.004.5952.102.8389.2804.096.1088.2304.1762.3751.1882.0898-.0036.1759-.0376.244-.0963.0681-.0588.1143-.1389.131-.2273-.0095-.1068-.0576-.2065-.1354-.2804-.4063-.3305-.9142-.5108-1.438-.5105-.3645-.0018-.7236.0878-1.0445.2608-.3208.173-.5931.4238-.7918.7294-.1988.3055-.3176.6561-.3457 1.0195-.028.3634.0356.7281.185 1.0605.1495.3325.3801.6221.6705.8423.2905.2202.6316.364.9921.4181.3604.0542.7287.0169 1.071-.1082.3424-.1252.6478-.3343.8884-.6082l-.5189-.5105c-.136.1654-.3073.2981-.5015.3884-.1941.0902-.4061.1356-.6202.1329z"/><path d="m82.8574 18.9229h-2.2301c-.2289 0-.3739.1354-.3739.3223 0 .187.1354.3236.3739.3236h.7921v3.625h.6986v-3.625h.791c.23 0 .375-.1354.375-.3236-.0096-.2288-.145-.3643-.4266-.3223z"/><path d="m91.3991 18.881c-.4307 0-.8516.1277-1.2097.3669-.3581.2393-.6372.5793-.802.9772s-.2079.8357-.1239 1.258c.084.4224.2914.8104.5959 1.1149s.6925.5119 1.1149.5959.8602.0409 1.258-.1239c.3979-.1648.738-.4439.9772-.8019.2393-.3581.367-.7791.367-1.2097.0001-.286-.0561-.5692-.1655-.8335-.1093-.2642-.2697-.5043-.4719-.7065-.2022-.2023-.4423-.3626-.7066-.472-.2642-.1094-.5474-.1656-.8334-.1654zm0 3.6669c-.3939-.0037-.7706-.1619-1.0491-.4404-.2786-.2786-.4367-.6553-.4405-1.0491 0-.3951.157-.774.4363-1.0533.2794-.2794.6582-.4363 1.0533-.4363.395 0 .7739.1569 1.0532.4363.2794.2793.4363.6582.4363 1.0533 0 .7909-.6974 1.4368-1.4895 1.4895z"/><path d="m62.3655 2.21073-1.5734 8.58617c-.9263-2.29245-3.0522-7.5496-3.1457-7.71977-.074-.1565-.1903-.28916-.3358-.38298s-.3143-.14504-.4874-.14788c-.1673.00501-.3296.05762-.468.15165s-.2471.22558-.3133.37921c-.2086.44819-2.2086 5.37579-3.1565 7.71977l-1.5626-8.58617c-.0381-.20213-.1466-.38419-.3064-.51369-.1598-.12949-.3604-.19802-.566-.19334-.2318.01027-.4513.10738-.6148.27203-.0927.10603-.1619.23044-.2032.36508-.0413.13463-.0537.27647-.0365.41624.344 1.90537 2.0312 11.20935 2.1043 11.43825.0428.1956.1505.3711.3056.4977.1552.1266.3486.197.5489.1997h.0203c.1609-.0093.3164-.0615.4502-.1513.1339-.0898.2412-.2138.3108-.3592.1042-.1869 2.5417-6.07321 3.5004-8.44833l3.3553 8.20863.1043.2301c.0766.1689.2047.3091.366.4006s.3474.1295.5317.1086c.1842-.0209.3571-.0996.4938-.2249s.2302-.2907.267-.4724c.1198-.5309 1.48-7.94865 2.1043-11.44902.0224-.12487.0172-.25313-.0153-.37576-.0325-.12262-.0915-.23663-.1729-.33398-.0814-.09734-.1831-.17567-.298-.22944-.1149-.05378-.2402-.08171-.367-.08181-.2001-.00319-.3947.06522-.5487.19289-.1541.12767-.2574.30619-.2914.50335z"/><path d="m3.01648 14.6736v-5.65864h6.60529c.12453.00448.24869-.01618.36505-.06074.11638-.04457.22258-.11213.31228-.19864.0897-.08652.161-.19021.2097-.30491.0487-.11469.0738-.23802.0738-.36263s-.0251-.24794-.0738-.36263-.12-.21839-.2097-.30491c-.0897-.08651-.1959-.15407-.31228-.19863-.11636-.04457-.24052-.06523-.36505-.06075h-6.60529v-3.80236h6.60529c.246 0 .48193-.09772.65583-.27166.174-.17394.2717-.40986.2717-.65586 0-.24599-.0977-.48191-.2717-.65585-.1739-.17395-.40983-.27167-.65583-.27167h-7.59392c-.2256.00127-.44213.08893-.60507.24496-.16294.15602-.25989.36856-.27092.59389v12.34053h1.86462z"/><path d="m21.4499 5.42113c-.0015-1.04377-.4175-2.04422-1.1564-2.78137-.3639-.36825-.798-.65963-1.2766-.85684-.4786-.19722-.992-.29623-1.5096-.29117h-4.646c-.2268.01123-.4409.10801-.5992.27082-.1522.1626-.2377.37646-.2396.59918v.01078 11.41787.0204c.0006.1123.024.2234.069.3264.0449.103.1103.1958.1922.2727.1603.1572.3747.2468.5992.2505h.1198c.232 0 .4545-.0922.6186-.2562.164-.1641.2562-.3866.2562-.6186v-4.77063h3.5207l2.3069 5.65863h1.8862l-2.344-5.72095c.6622-.32178 1.2202-.82388 1.6098-1.44859s.5951-1.34668.5928-2.08293zm-3.7509 1.72921h-3.8071v-3.79157h3.8023c.5028 0 .985.19973 1.3406.55526.3555.35553.5552.83773.5552 1.34053 0 .50279-.1997.98499-.5552 1.34052-.3556.35553-.8378.55526-1.3406.55526z"/><path d="m75.3977 1.50372h-.103c-.1152-.00032-.2293.02212-.3358.06601-.1065.0439-.2033.10839-.2848.18978s-.1461.17808-.1901.28451c-.0441.10643-.0667.22051-.0665.33569v4.77062h-6.978v-4.77062c.0002-.11498-.0223-.22886-.0662-.33514-.0439-.10627-.1083-.20285-.1896-.28421-.0812-.08136-.1777-.1459-.2839-.18994-.1062-.04403-.2201-.0667-.3351-.0667h-.1042c-.1151-.00016-.2291.02239-.3354.06636-.1064.04397-.203.10848-.2844.18986-.0814.08137-.1459.17801-.1899.28436-.0439.10635-.0665.22033-.0663.33541v11.41789c0 .1149.0226.2288.0667.335.044.1062.1086.2027.1899.284.0814.0812.178.1456.2842.1895.1063.0439.2202.0664.3352.0663h.1042c.232 0 .4545-.0922.6186-.2563.1641-.164.2562-.3865.2562-.6185v-4.78264h6.978v4.72984c.0006.2458.0985.4814.2724.6552.1738.1738.4093.2717.6551.2724.2458-.0007.4814-.0986.6552-.2724s.2717-.4094.2723-.6552v-11.36509c.002-.11547-.0193-.23015-.0626-.33723-.0432-.10708-.1076-.20437-.1892-.28609-.0816-.08171-.1788-.14619-.2858-.1896s-.2217-.06485-.3372-.06307z"/><path d="m107.319 12.8173v-10.43758c0-.11509-.022-.22907-.066-.33542s-.109-.20298-.19-.28436c-.082-.08137-.178-.14589-.285-.18986-.106-.04396-.22-.06651-.335-.06636h-.103c-.115-.00015-.229.0224-.336.06636-.106.04397-.203.10849-.284.18986-.081.08138-.146.17801-.19.28436s-.066.22033-.066.33542v11.41788c0 .1149.023.2288.067.335s.108.2027.19.284c.081.0812.177.1456.284.1895.106.0439.22.0664.335.0663v.0107h8.521v-1.8658z"/><path d="m42.114 1.50372c-1.5742.00103-3.0963.56418-4.2922 1.588-1.1958 1.02381-1.9868 2.44101-2.2304 3.9963-.2257-1.46742-.9393-2.81595-2.0257-3.82787-1.0864-1.01191-2.4822-1.62816-3.9619-1.74924s-2.9571.26007-4.1936 1.08191c-1.2364.82185-2.1598 2.03642-2.6211 3.44763-.4612 1.4112-.4334 2.93668.079 4.33015.5124 1.3934 1.4794 2.5735 2.745 3.3498 1.2656.7762 2.7559 1.1032 4.2302.9283s2.8467-.8417 3.8955-1.8925l-1.3182-1.3182c-.6046.6088-1.3635 1.0415-2.1954 1.2517-.8318.2102-1.7052.1901-2.5264-.0584-.8213-.2484-1.5594-.7157-2.1352-1.3517-.5759-.636-.9677-1.41683-1.1336-2.25865h22.3252c-.2127 1.07545-.7922 2.04365-1.6396 2.73915s-1.9101 1.0751-3.0063 1.074c-.6232.0023-1.2406-.12-1.8158-.3597-.5752-.2398-1.0966-.5921-1.5336-1.0364l-1.3182 1.3182c.766.7661 1.709 1.3315 2.7457 1.6462 1.0366.3148 2.1348.3691 3.1974.1583s2.0569-.6803 2.8949-1.3669c.8379-.6866 1.4937-1.5692 1.9093-2.5697.4155-1.00046.5781-2.08793.4732-3.16618-.1048-1.07825-.4738-2.11404-1.0744-3.01569-.6005-.90165-1.414-1.64137-2.3686-2.15371-.9545-.51233-2.0206-.78147-3.104-.7836zm-17.678 5.64661c.2166-1.06979.7966-2.03175 1.6415-2.72274.8449-.691 1.9028-1.0685 2.9943-1.0685s2.1494.3775 2.9944 1.0685c.8449.69099 1.4248 1.65295 1.6414 2.72274zm13.0321 0c.2166-1.06979.7965-2.03175 1.6414-2.72274.845-.691 1.9029-1.0685 2.9944-1.0685s2.1494.3775 2.9943 1.0685c.8449.69099 1.4249 1.65295 1.6415 2.72274z"/><path d="m97.3791 1.50372c-1.574.00132-3.0959.56459-4.2915 1.58839-1.1956 1.02379-1.9863 2.44082-2.2299 3.99591-.2255-1.46744-.9389-2.81606-2.0251-3.82815s-2.4819-1.62856-3.9615-1.7499c-1.4797-.12134-2.9571.25954-4.1937 1.08115-1.2366.8216-2.1602 2.03599-2.6218 3.44709-.4615 1.4111-.434 2.93656.0781 4.33009.5122 1.3936 1.479 2.5738 2.7444 3.3503s2.7556 1.1039 4.2299.9292c1.4744-.1746 2.8469-.841 3.8959-1.8916l-1.3182-1.3182c-.6049.6101-1.3646 1.0439-2.1975 1.2545-.8329.2107-1.7075.1904-2.5297-.0588s-1.561-.7178-2.1368-1.3554-.967-1.42008-1.1314-2.26334h22.3147c-.213 1.07554-.792 2.04384-1.64 2.73944-.8472.6955-1.9099 1.075-3.0062 1.0737-.622.0025-1.2382-.1192-1.8125-.3579s-1.0952-.5896-1.5321-1.0322l-1.3182 1.3182c.7658.7655 1.7085 1.3305 2.7446 1.645 1.0361.3146 2.1337.3691 3.1959.1586 1.0621-.2105 2.0565-.6794 2.8935-1.3653.838-.686 1.494-1.5677 1.91-2.5674.416-.99971.58-2.08651.476-3.16433s-.472-2.11346-1.071-3.01537-1.411-1.64231-2.365-2.15572c-.9529-.51342-2.0181-.78405-3.1009-.78796zm-17.678 5.64661c.2166-1.06979.7965-2.03174 1.6415-2.72274.8449-.69099 1.9028-1.0685 2.9943-1.0685s2.1494.37751 2.9943 1.0685c.845.691 1.4249 1.65295 1.6415 2.72274zm13.032 0c.2166-1.06979.7966-2.03174 1.6415-2.72274.8449-.69099 1.9028-1.0685 2.9943-1.0685s2.1494.37751 2.9941 1.0685c.845.691 1.425 1.65295 1.642 2.72274z"/></g></svg>