<svg width="40" height="43" viewBox="0 0 40 43" fill="none" xmlns="http://www.w3.org/2000/svg">
<path d="M12.3348 10.5727C5.28634 15.5066 0 16.0352 0 24.3172C0 34.3612 8.28194 42.1145 19.9119 42.1145C31.3656 42.1145 39.8238 32.7753 40 22.2026C39.8238 11.8062 32.7753 0 24.3172 0C18.6784 0 20.2643 4.93392 12.3348 10.5727Z" fill="#56F24B"/>
<path d="M25.1978 17.6212C26.6075 18.6784 27.4885 20.2644 27.6648 22.0265H24.1405C23.9643 21.1454 23.4357 20.2644 22.7308 19.5595C21.8498 19.0309 20.9687 18.6785 19.9114 18.6785C18.678 18.6785 17.4445 19.2071 16.7396 20.0881C15.8586 20.9692 15.5062 22.3789 15.5062 24.141C15.5062 25.9031 15.8586 27.3128 16.7396 28.1939C17.6207 29.0749 18.678 29.6036 19.9114 29.6036C20.9687 29.6036 21.8498 29.2511 22.7308 28.7225C23.4357 28.1939 23.9643 27.3128 24.1405 26.2555H27.6648C27.3123 28.1939 26.4313 29.6036 25.1978 30.837C23.7881 31.8943 22.026 32.4229 20.0877 32.4229C18.678 32.4229 17.2683 32.0705 16.0348 31.3657C14.8013 30.6608 13.744 29.7798 13.0392 28.5463C12.1581 27.3128 11.9819 25.7269 11.9819 24.3172C11.9819 22.7313 12.3344 21.3216 13.0392 19.9119C13.744 18.6784 14.6251 17.6212 15.8586 17.0925C17.0921 16.3877 18.5018 16.0353 19.9114 16.0353C22.026 16.0353 23.7881 16.5639 25.1978 17.6212Z" fill="black"/>
</svg>
