<svg fill="none" height="22" viewBox="0 0 93 22" width="93" xmlns="http://www.w3.org/2000/svg" xmlns:xlink="http://www.w3.org/1999/xlink"><clipPath id="a"><path d="m0 .845032h93v20.1899h-93z"/></clipPath><g clip-path="url(#a)" fill="#000"><path d="m45.1241 12.9596c-.0828 5.4367-4.1741 8.0754-8.8722 8.0754-6.4817 0-9.5004-4.974-9.5004-9.9724-.0031-5.38461 3.5121-10.217568 9.8038-10.217568 4.7778 0 8.1581 2.773508 8.5136 7.388878h-4.597c-.1103-1.81427-1.5323-3.18724-4.0361-3.18724-3.6531 0-5.1364 2.91142-5.1364 5.93313 0 2.939 1.4006 5.7953 4.9985 5.7953 2.3628 0 4.2016-1.2259 4.2905-3.8155z"/><path d="m65.835 12.9596c-.0827 5.4367-4.1741 8.0754-8.8722 8.0754-6.4817 0-9.5004-4.974-9.5004-9.9724 0-5.38461 3.5152-10.217568 9.8069-10.217568 4.7778 0 8.1581 2.773508 8.5136 7.388878h-4.597c-.1072-1.81427-1.5323-3.18724-4.0361-3.18724-3.6531 0-5.1364 2.91142-5.1364 5.93313 0 2.939 1.4006 5.7953 4.9985 5.7953 2.3628 0 4.2016-1.2259 4.2905-3.8155z"/><path d="m69.1323 1.31085h8.9825c4.4223 0 6.3439 2.91142 6.3439 5.96075 0 2.52834-1.2903 4.597-3.5704 5.5164l4.8054 7.7444h-5.2467l-3.8155-6.6411h-2.9941v6.6472h-4.5051zm4.5051 4.29052v4.25374h3.7634c1.5323 0 2.4977-.9194 2.4977-2.19736 0-1.18296-.7417-2.05945-2.1974-2.05945z"/><path d="m93.0001 1.31085h-4.7472v4.50811h4.7472z"/><path d="m92.81 7.83551h-4.3671v12.70609h4.3671z"/><path d="m0 20.5538h13.3159l-13.3159-13.31592z"/><path d="m0 1.32617v5.91172h13.3159v13.31591h5.9117v-19.22763z"/></g></svg>