<svg fill="none" height="15" viewBox="0 0 130 15" width="130" xmlns="http://www.w3.org/2000/svg" xmlns:xlink="http://www.w3.org/1999/xlink"><clipPath id="a"><path d="m0 .250755h130v14.3705h-130z"/></clipPath><g clip-path="url(#a)"><g fill="#001021"><path d="m51.9314.416-4.6315 6.06667-4.5997-6.06667h-2.1279v14.04h1.9644v-11.07081l4.7638 6.29084 4.7955-6.29084v11.07081h1.9645v-14.04z"/><path d="m58.9648.416h-1.9633v14.0412h1.9633z"/><path d="m63.8712 7.28174h3.1356c1.2191 0 2.0534-.23727 2.5029-.71182.4597-.50324.7017-1.1679.6731-1.8489 0-1.72023-1.0862-2.58014-3.2586-2.57976h-3.0536zm-1.9645 7.17486v-14.040029h5.181c1.3257-.075895 2.6364.313864 3.7052 1.101849.4539.38301.8124.86642 1.047 1.41196.2347.54555.3391 1.13825.3051 1.73115.0525.99353-.2684 1.9708-.8996 2.73983-.5955.67556-1.3765 1.16099-2.2459 1.39588l3.7313 5.66226h-2.3111l-3.3927-5.34967h-3.1564v5.34497z"/><path d="m80.2675 2.86114 2.2313 5.82863h-4.4621zm-.9453-2.445719-5.6044 14.039979h2.1071l1.5109-3.9369h5.8598l1.5109 3.9369h2.1072l-5.5819-14.039979z"/><path d="m98.3746.416v11.1736l-7.8532-11.1736h-2.2314v14.04h1.9645v-11.24587l7.9155 11.24587h2.169v-14.04z"/><path d="m102.592.416v1.82925h4.708v12.21195h1.964v-12.21195h4.738v-1.82925z"/><path d="m118.223.416h-1.964v14.0412h1.964z"/><path d="m120.563 4.20856c-.008-.5251.095-1.04597.302-1.5288.206-.48284.512-.91687.897-1.27401.799-.770372 2.035-1.155558 3.709-1.155558 1.256-.000824 2.496.29199 3.619.855098v1.90666c-1.019-.61989-2.191-.94323-3.383-.93367-2.119 0-3.178.70931-3.178 2.12795.006.19881.06.39323.158.56667.097.17343.235.32074.401.42942.417.30566.884.53584 1.38.68004.547.16948 1.147.38923 1.799.65924.616.25229 1.217.53972 1.8.86088.567.32117 1.041.78205 1.379 1.33873.38.61888.572 1.33409.555 2.05979.023.5431-.088 1.0835-.323 1.5735-.235.4901-.587.9149-1.025 1.2368-1.098.7328-2.406 1.0881-3.724 1.0123-1.451-.0107-2.881-.3547-4.178-1.0054v-2.0182c1.197.7643 2.584 1.1776 4.004 1.1932 2.182 0 3.276-.6643 3.283-1.9928.011-.5379-.188-1.05906-.554-1.4531-.375-.40459-.849-.70482-1.375-.87129l-1.806-.61244c-.655-.22803-1.256-.46165-1.805-.70085-.55-.24192-1.025-.62726-1.376-1.11571-.381-.5352-.576-1.18014-.557-1.83673"/><path d="m9.47065 5.68129c2.16605.61417 3.69315 1.93787 5.27515 3.26329 1.4017-.78347 2.7883-1.59699 4.1744-2.36313.4757-.26269.9501-.51037 1.4231-.74302-.4761-.41947-.9545-.83721-1.4548-1.22316-1.8415-1.45041-4.0754-2.31577-6.4134-2.48444-2.2846-.12593-4.57073.21904-6.71649 1.01347-2.14575.79444-4.10535 2.02137-5.75714516 3.6047 1.42041516-.81962 2.99471516-1.33721 4.62437516-1.52044s3.27962-.02812 4.84658.45562"/><path d="m24.0061 8.46561c-.7933-.36447-1.5358-.83062-2.2088-1.38668-1.5109.83835-3.0044 1.71717-4.4945 2.54223-.3467.19067-.6934.37265-1.0342.54834.4069.3061.8292.5914 1.2653.8545 5.6195 3.3667 13.364 1.5172 17.9203-2.89986-3.4597 2.12796-7.826 1.93386-11.4486.34263"/></g><path d="m33.4092 2.65314c-5.1989-.30284-10.3727.92234-14.8836 3.52447-5.2439 2.89755-10.50403 6.47799-16.50021 6.56409 5.19882.3028 10.37261-.9224 14.88361-3.52441 5.2433-2.89756 10.5045-6.47806 16.4996-6.56415" fill="#ef2369"/></g></svg>