<svg fill="none" height="65" viewBox="0 0 65 65" width="65" xmlns="http://www.w3.org/2000/svg" xmlns:xlink="http://www.w3.org/1999/xlink"><clipPath id="a"><path d="m0 0h65v65h-65z"/></clipPath><g clip-path="url(#a)" fill="#000"><path d="m65 42.662c0-.0916-.0916-.2747-.0916-.3662v-.0916c-.0915-.0915-.0915-.1831-.1831-.2746l-9.5211-9.4296 9.4296-9.4296c.3662-.3662.5493-1.007.2746-1.4648-.2746-.4577-.7324-.8239-1.2816-.8239h-19.3169v-19.40846c0-.549296-.3662-1.098592-.824-1.2816907-.5493-.1830986-1.0986-.0915493-1.4648.2746477l-20.4155 20.415503h-20.23236c-.732395 0-1.37324.6408-1.37324 1.3732v20.7817c0 .7324.640845 1.3733 1.37324 1.3733h17.48596l-8.0564 8.0563c-.5493.5493-.5493 1.3732 0 1.9225l10.3451 10.3451c.0915.0915.0915.0916.1831.1831 0 0 .0915 0 .0915.0916.0916 0 .0916.0915.1831.0915h.0916.1831.2746 20.7817 20.7817c.7324 0 1.3732-.6408 1.3732-1.3732v-20.6902c-.0915-.0915-.0915-.1831-.0915-.2746zm-41.4718-19.1338h18.0352v18.0352h-18.0352zm20.7817 1.9225 16.1126 16.1127h-16.1126zm16.0211-1.9225-7.0493 7.0493-7.0493-7.0493zm-18.7676-18.85919v16.11269h-16.1127zm-38.81692 18.85919h18.03522v18.0352h-18.03522zm18.03522 22.7042v14.0986l-7.0493-7.0493zm2.7465-1.9225h18.0352v17.9436h-18.0352zm38.7253 17.9436h-17.9436v-17.9436h17.9436z"/><path d="m15.4721 27.7393c-.4578-.3662-1.0071-.6408-1.6479-.7324-.6409-.1831-1.3732-.2746-2.1056-.2746h-5.1268v11.5352h3.8451v-3.1127h1.2817c.8239 0 1.4647-.0915 2.1056-.2746.6408-.1831 1.1901-.4578 1.6479-.824.4577-.3662.8239-.8239 1.0986-1.3732.2746-.5493.3662-1.1901.3662-1.831 0-.6408-.0916-1.2817-.3662-1.831-.2747-.4577-.6409-.9155-1.0986-1.2817zm-2.3803 3.3874c0 .4577-.1831.7324-.4577.9155-.2747.1831-.7324.3662-1.1902.3662h-1.007v-2.5634h1.0986c.5493 0 .9155.0915 1.1901.3662.2746.1831.3662.4577.3662.9155z"/><path d="m31.3102 33.8731h5.676v-2.838h-5.676v-1.0986h6.0422v-3.2042h-9.7958v11.5352h9.8874v-3.1127h-6.1338z"/><path d="m30.5777 47.4226-4.8521 11.6268h4.1197l.5493-1.5564h4.0282l.6408 1.5564h4.2113l-4.8521-11.6268zm.8239 7.4155 1.0986-2.838 1.0986 2.838z"/><path d="m51.2674 56.5775 1.0071-1.1901 2.2887 3.662h4.5775l-4.1197-6.5 4.0281-5.0352h-4.4859l-3.2958 4.3028v-4.3028h-3.845v11.5352h3.845z"/></g></svg>