<?xml version="1.0" encoding="utf-8"?>
<!-- Generator: Adobe Illustrator 26.0.2, SVG Export Plug-In . SVG Version: 6.00 Build 0)  -->
<svg version="1.1" id="Layer_1" xmlns="http://www.w3.org/2000/svg" xmlns:xlink="http://www.w3.org/1999/xlink" x="0px" y="0px"
	 viewBox="0 0 411.02 269.29" style="enable-background:new 0 0 411.02 269.29;" xml:space="preserve">
<style type="text/css">
	.st0{fill:#2F4597;}
	.st1{fill:#FFFFFF;}
	.st2{fill:#FCC10E;}
	.st3{fill:#FCC10D;}
	.st4{fill-rule:evenodd;clip-rule:evenodd;fill:#FCC10C;}
	.st5{fill-rule:evenodd;clip-rule:evenodd;fill:#2F4597;}
	.st6{fill:none;stroke:#2F4597;stroke-width:4.8;stroke-miterlimit:10;}
</style>
<g>
	<path class="st0" d="M669.24-53.55v49.32h-11.16v-125.1h45.9c13.08,0,22.83,2.97,29.25,8.91c6.42,5.94,9.63,15.33,9.63,28.17
		c0,20.04-8.04,32.22-24.12,36.54l25.74,51.48h-12.42L707.4-53.55H669.24z M731.34-92.07c0-9.36-2.22-16.26-6.66-20.7
		c-4.44-4.44-11.34-6.66-20.7-6.66h-34.74v55.98h34.74C722.22-63.45,731.34-72.99,731.34-92.07z"/>
	<path class="st0" d="M822.6-13.23l5.4-0.54l0.36,8.82c-13.56,1.68-25.02,2.52-34.38,2.52c-12.96-0.12-22.02-3.96-27.18-11.52
		c-5.16-7.56-7.74-19.2-7.74-34.92c0-31.44,12.36-47.16,37.08-47.16c11.88,0,20.76,3.39,26.64,10.17
		c5.88,6.78,8.82,17.61,8.82,32.49l-0.36,8.64h-61.2c0,11.04,1.89,19.23,5.67,24.57c3.78,5.34,10.26,8.01,19.44,8.01
		S813.48-12.51,822.6-13.23z M770.04-53.73h50.76c0-11.88-1.95-20.34-5.85-25.38c-3.9-5.04-10.14-7.56-18.72-7.56
		c-8.58,0-15.09,2.61-19.53,7.83C772.26-73.62,770.04-65.25,770.04-53.73z"/>
	<path class="st0" d="M883.62-96.03c5.4,0,11.82,0.6,19.26,1.8l4.14,0.54l-0.54,9.18c-9.48-1.2-16.5-1.8-21.06-1.8
		c-10.68,0-18,2.61-21.96,7.83s-5.94,14.82-5.94,28.8c0,13.98,1.8,23.73,5.4,29.25c3.6,5.52,11.1,8.28,22.5,8.28l21.42-1.62
		l0.36,9.18c-10.68,1.44-18.6,2.16-23.76,2.16c-14.28,0-24.03-3.54-29.25-10.62c-5.22-7.08-7.83-19.26-7.83-36.54
		c0-17.28,2.85-29.34,8.55-36.18C860.61-92.61,870.18-96.03,883.62-96.03z"/>
	<path class="st0" d="M920.7-49.41c0-16.92,2.85-28.92,8.55-36c5.7-7.08,15.42-10.62,29.16-10.62c13.74,0,23.46,3.54,29.16,10.62
		c5.7,7.08,8.55,19.08,8.55,36c0,16.92-2.61,28.98-7.83,36.18c-5.22,7.2-15.15,10.8-29.79,10.8c-14.64,0-24.6-3.6-29.88-10.8
		C923.34-20.43,920.7-32.49,920.7-49.41z M931.86-49.68c0,14.22,1.65,24.06,4.95,29.52c3.3,5.46,10.5,8.19,21.6,8.19
		c11.1,0,18.33-2.76,21.69-8.28c3.36-5.52,5.04-15.33,5.04-29.43c0-14.1-1.89-23.76-5.67-28.98c-3.78-5.22-10.77-7.83-20.97-7.83
		c-10.2,0-17.19,2.58-20.97,7.74C933.75-73.59,931.86-63.9,931.86-49.68z"/>
</g>
<g>
	<path class="st0" d="M649.75,208.11V92.19h48.42c12.12,0,20.91,3.12,26.37,9.36c5.46,6.24,8.19,14.64,8.19,25.2
		c0,8.88-2.13,16.14-6.39,21.78c-4.26,5.64-10.65,9.3-19.17,10.98c2.76,1.32,4.77,2.94,6.03,4.86c1.26,1.92,2.61,4.44,4.05,7.56
		l15.48,36.18h-10.08l-15.3-34.92c-1.2-2.76-2.52-4.98-3.96-6.66c-1.44-1.68-3.42-2.91-5.94-3.69c-2.52-0.78-6.06-1.17-10.62-1.17
		h-27.18v46.44H649.75z M659.65,153.75h35.64c8.52,0,15.24-2.13,20.16-6.39c4.92-4.26,7.38-11.13,7.38-20.61
		c0-17.64-8.46-26.46-25.38-26.46h-37.8V153.75z"/>
	<path class="st0" d="M789.61,209.91c-15.36,0-26.55-3.63-33.57-10.89c-7.02-7.26-10.53-18.63-10.53-34.11
		c0-13.68,3.09-24.42,9.27-32.22c6.18-7.8,16.23-11.7,30.15-11.7c8.28,0,15,1.53,20.16,4.59c5.16,3.06,8.97,7.17,11.43,12.33
		c2.46,5.16,3.69,10.92,3.69,17.28v15.48h-64.8c0.48,11.04,3.36,18.99,8.64,23.85c5.28,4.86,14.46,7.29,27.54,7.29
		c7.92,0,15.6-1.5,23.04-4.5v8.1C807.3,208.41,798.96,209.91,789.61,209.91z M755.4,162.93h55.8v-8.1c0-7.92-2.04-14.16-6.12-18.72
		c-4.08-4.56-10.74-6.84-19.98-6.84c-11.28,0-19.05,2.91-23.31,8.73C757.53,143.82,755.4,152.13,755.4,162.93z"/>
	<path class="st0" d="M876.9,209.91c-14.76,0-25.5-3.9-32.22-11.7c-6.72-7.8-10.08-18.72-10.08-32.76c0-15,3.93-26.16,11.79-33.48
		c7.86-7.32,18.51-10.98,31.95-10.98c5.52,0,9.96,0.39,13.32,1.17c3.36,0.78,6.66,1.95,9.9,3.51v8.1c-6.36-3-13.56-4.5-21.6-4.5
		c-11.28,0-20.04,2.88-26.28,8.64c-6.24,5.76-9.36,14.94-9.36,27.54c0,12.36,2.67,21.51,8.01,27.45c5.34,5.94,14.31,8.91,26.91,8.91
		c3.84,0,7.71-0.42,11.61-1.26c3.9-0.84,7.53-1.98,10.89-3.42v8.28c-3.36,1.44-7.11,2.55-11.25,3.33
		C886.35,209.52,881.82,209.91,876.9,209.91z"/>
	<path class="st0" d="M949.08,209.91c-14.4,0-24.78-3.78-31.14-11.34c-6.36-7.56-9.54-18.6-9.54-33.12c0-14.4,3.24-25.41,9.72-33.03
		c6.48-7.62,16.8-11.43,30.96-11.43c14.28,0,24.66,3.81,31.14,11.43c6.48,7.62,9.72,18.63,9.72,33.03c0,14.52-3.21,25.56-9.63,33.12
		C973.89,206.13,963.48,209.91,949.08,209.91z M949.08,201.45c11.4,0,19.41-2.94,24.03-8.82c4.62-5.88,6.93-14.94,6.93-27.18
		c0-12.12-2.34-21.12-7.02-27c-4.68-5.88-12.66-8.82-23.94-8.82c-11.28,0-19.26,2.94-23.94,8.82c-4.68,5.88-7.02,14.88-7.02,27
		c0,12.24,2.34,21.3,7.02,27.18C929.82,198.51,937.8,201.45,949.08,201.45z"/>
</g>
<path class="st0" d="M701.68,774.98V659.06h46.08c11.76,0,20.22,2.97,25.38,8.91c5.16,5.94,7.74,14.01,7.74,24.21
	c0,9.24-2.19,16.68-6.57,22.32c-4.38,5.64-11.01,9.12-19.89,10.44c3,1.2,5.19,2.79,6.57,4.77c1.38,1.98,2.79,4.59,4.23,7.83
	l16.02,37.44h-5.04l-15.84-36.36c-1.32-3.12-2.79-5.61-4.41-7.47c-1.62-1.86-3.9-3.21-6.84-4.05c-2.94-0.84-7.05-1.26-12.33-1.26
	h-30.06v49.14H701.68z M706.72,721.34h39.24c9.24,0,16.56-2.25,21.96-6.75s8.1-11.97,8.1-22.41c0-19.08-9.24-28.62-27.72-28.62
	h-41.58V721.34z"/>
<path class="st0" d="M835.78,776.78c-15.6,0-26.64-3.63-33.12-10.89c-6.48-7.26-9.72-18.69-9.72-34.29
	c0-13.68,2.91-24.39,8.73-32.13c5.82-7.74,15.63-11.61,29.43-11.61c8.04,0,14.49,1.5,19.35,4.5c4.86,3,8.43,7.02,10.71,12.06
	c2.28,5.04,3.42,10.56,3.42,16.56v14.76h-66.6c0.24,8.28,1.59,15.12,4.05,20.52c2.46,5.4,6.48,9.42,12.06,12.06
	c5.58,2.64,13.11,3.96,22.59,3.96c7.32,0,14.7-1.5,22.14-4.5v4.68C851.49,775.34,843.81,776.78,835.78,776.78z M797.98,731.06h61.56
	v-9.36c0-8.88-2.25-15.99-6.75-21.33c-4.5-5.34-11.73-8.01-21.69-8.01c-12.36,0-20.97,3.45-25.83,10.35
	C800.41,709.61,797.98,719.06,797.98,731.06z"/>
<path class="st0" d="M916.06,776.78c-14.52,0-24.93-3.96-31.23-11.88s-9.45-18.78-9.45-32.58c0-15,3.81-26.16,11.43-33.48
	c7.62-7.32,17.97-10.98,31.05-10.98c5.28,0,9.45,0.36,12.51,1.08c3.06,0.72,6.09,1.8,9.09,3.24v4.68c-3.36-1.56-6.69-2.7-9.99-3.42
	c-3.3-0.72-6.99-1.08-11.07-1.08c-12.12,0-21.51,3.27-28.17,9.81c-6.66,6.54-9.99,16.59-9.99,30.15c0,13.44,2.82,23.46,8.46,30.06
	c5.64,6.6,15.18,9.9,28.62,9.9c3.84,0,7.68-0.42,11.52-1.26c3.84-0.84,7.38-1.92,10.62-3.24v4.68c-3.12,1.32-6.63,2.37-10.53,3.15
	C925.02,776.39,920.74,776.78,916.06,776.78z"/>
<path class="st0" d="M987.34,776.78c-13.8,0-23.73-3.78-29.79-11.34c-6.06-7.56-9.09-18.6-9.09-33.12c0-14.52,3.06-25.56,9.18-33.12
	c6.12-7.56,16.02-11.34,29.7-11.34c13.68,0,23.58,3.78,29.7,11.34c6.12,7.56,9.18,18.6,9.18,33.12c0,14.52-3,25.56-9,33.12
	C1011.21,773,1001.25,776.78,987.34,776.78z M987.34,772.28c12.48,0,21.27-3.33,26.37-9.99c5.1-6.66,7.65-16.65,7.65-29.97
	c0-13.32-2.55-23.31-7.65-29.97c-5.1-6.66-13.89-9.99-26.37-9.99c-12.36,0-21.12,3.33-26.28,9.99c-5.16,6.66-7.74,16.65-7.74,29.97
	c0,13.32,2.55,23.31,7.65,29.97C966.06,768.95,974.85,772.28,987.34,772.28z"/>
<g>
	<path class="st0" d="M654.43,382.98V267.06h46.08c11.76,0,20.22,2.97,25.38,8.91c5.16,5.94,7.74,14.01,7.74,24.21
		c0,9.24-2.19,16.68-6.57,22.32c-4.38,5.64-11.01,9.12-19.89,10.44c3,1.2,5.19,2.79,6.57,4.77c1.38,1.98,2.79,4.59,4.23,7.83
		l16.02,37.44h-5.04l-15.84-36.36c-1.32-3.12-2.79-5.61-4.41-7.47c-1.62-1.86-3.9-3.21-6.84-4.05c-2.94-0.84-7.05-1.26-12.33-1.26
		h-30.06v49.14H654.43z M659.47,329.34h39.24c9.24,0,16.56-2.25,21.96-6.75s8.1-11.97,8.1-22.41c0-19.08-9.24-28.62-27.72-28.62
		h-41.58V329.34z"/>
	<path class="st0" d="M791.22,384.78c-15.6,0-26.64-3.63-33.12-10.89c-6.48-7.26-9.72-18.69-9.72-34.29
		c0-13.68,2.91-24.39,8.73-32.13c5.82-7.74,15.63-11.61,29.43-11.61c8.04,0,14.49,1.5,19.35,4.5c4.86,3,8.43,7.02,10.71,12.06
		c2.28,5.04,3.42,10.56,3.42,16.56v14.76h-66.6c0.24,8.28,1.59,15.12,4.05,20.52c2.46,5.4,6.48,9.42,12.06,12.06
		c5.58,2.64,13.11,3.96,22.59,3.96c7.32,0,14.7-1.5,22.14-4.5v4.68C806.94,383.34,799.26,384.78,791.22,384.78z M753.42,339.06
		h61.56v-9.36c0-8.88-2.25-15.99-6.75-21.33c-4.5-5.34-11.73-8.01-21.69-8.01c-12.36,0-20.97,3.45-25.83,10.35
		C755.85,317.62,753.42,327.07,753.42,339.06z"/>
	<path class="st0" d="M875.1,384.78c-14.52,0-24.93-3.96-31.23-11.88s-9.45-18.78-9.45-32.58c0-15,3.81-26.16,11.43-33.48
		c7.62-7.32,17.97-10.98,31.05-10.98c5.28,0,9.45,0.36,12.51,1.08c3.06,0.72,6.09,1.8,9.09,3.24v4.68c-3.36-1.56-6.69-2.7-9.99-3.42
		c-3.3-0.72-6.99-1.08-11.07-1.08c-12.12,0-21.51,3.27-28.17,9.81c-6.66,6.54-9.99,16.59-9.99,30.15c0,13.44,2.82,23.46,8.46,30.06
		c5.64,6.6,15.18,9.9,28.62,9.9c3.84,0,7.68-0.42,11.52-1.26c3.84-0.84,7.38-1.92,10.62-3.24v4.68c-3.12,1.32-6.63,2.37-10.53,3.15
		C884.07,384.39,879.78,384.78,875.1,384.78z"/>
	<path class="st0" d="M946.38,384.78c-13.8,0-23.73-3.78-29.79-11.34c-6.06-7.56-9.09-18.6-9.09-33.12
		c0-14.52,3.06-25.56,9.18-33.12s16.02-11.34,29.7-11.34c13.68,0,23.58,3.78,29.7,11.34c6.12,7.56,9.18,18.6,9.18,33.12
		c0,14.52-3,25.56-9,33.12C970.26,381,960.3,384.78,946.38,384.78z M946.38,380.28c12.48,0,21.27-3.33,26.37-9.99
		c5.1-6.66,7.65-16.65,7.65-29.97s-2.55-23.31-7.65-29.97c-5.1-6.66-13.89-9.99-26.37-9.99c-12.36,0-21.12,3.33-26.28,9.99
		c-5.16,6.66-7.74,16.65-7.74,29.97s2.55,23.31,7.65,29.97C925.11,376.95,933.9,380.28,946.38,380.28z"/>
</g>
<rect x="538.81" y="-321.55" style="fill:none;" width="66.01" height="146.22"/>
<text transform="matrix(1 0 0 1 568.8539 -267.633)" class="st0" style="font-family:'Kanit-Light'; font-size:80px;">1</text>
<rect x="554.84" y="685.26" style="fill:none;" width="66.01" height="146.22"/>
<text transform="matrix(1 0 0 1 576.487 739.1816)" class="st0" style="font-family:'Kanit-Light'; font-size:80px;">3</text>
<g>
	<path class="st0" d="M700.53,1056.03c-2.29,0-4.19-0.43-5.69-1.3s-2.63-2.09-3.38-3.66c-0.75-1.57-1.12-3.42-1.12-5.53
		c0-2.31,0.35-4.32,1.06-6.04c0.7-1.72,1.8-3.04,3.3-3.98c1.5-0.93,3.43-1.4,5.81-1.4c1.23,0,2.35,0.09,3.35,0.26
		c1,0.18,1.94,0.42,2.82,0.73v2.38c-0.88-0.33-1.81-0.59-2.8-0.78c-0.99-0.19-2.04-0.28-3.13-0.28c-1.91,0-3.43,0.36-4.55,1.09
		c-1.12,0.73-1.93,1.77-2.41,3.14c-0.48,1.36-0.73,2.99-0.73,4.88c0,2.62,0.62,4.64,1.87,6.06c1.24,1.42,3.21,2.13,5.89,2.13
		c0.99,0,2-0.08,3.02-0.23c1.02-0.15,1.97-0.4,2.85-0.73v2.41c-0.86,0.26-1.79,0.47-2.79,0.63S701.77,1056.03,700.53,1056.03z"/>
	<path class="st0" d="M717.79,1056.03c-2.73,0-4.71-0.7-5.96-2.1c-1.24-1.4-1.87-3.42-1.87-6.06c0-2.62,0.63-4.63,1.88-6.04
		c1.25-1.41,3.23-2.11,5.94-2.11s4.69,0.71,5.94,2.11c1.25,1.41,1.88,3.42,1.88,6.04c0,2.64-0.62,4.66-1.85,6.06
		C722.53,1055.33,720.54,1056.03,717.79,1056.03z M717.79,1053.72c1.87,0,3.19-0.47,3.96-1.4c0.77-0.93,1.16-2.41,1.16-4.44
		c0-2.02-0.39-3.5-1.17-4.44c-0.78-0.93-2.1-1.4-3.94-1.4s-3.16,0.47-3.94,1.4c-0.78,0.94-1.17,2.42-1.17,4.44
		c0,2.02,0.38,3.5,1.16,4.44C714.6,1053.25,715.92,1053.72,717.79,1053.72z"/>
	<path class="st0" d="M732.97,1056.03c-1.06,0-1.89-0.28-2.49-0.84c-0.6-0.56-0.91-1.51-0.91-2.85v-18.88h2.71v18.58
		c0,0.66,0.11,1.11,0.33,1.35c0.22,0.24,0.56,0.36,1.02,0.36c0.51,0,1-0.07,1.48-0.2v2.15c-0.35,0.13-0.7,0.22-1.06,0.26
		C733.71,1056.01,733.35,1056.03,732.97,1056.03z"/>
	<path class="st0" d="M741.65,1056.03c-1.06,0-1.89-0.28-2.49-0.84c-0.6-0.56-0.91-1.51-0.91-2.85v-18.88h2.71v18.58
		c0,0.66,0.11,1.11,0.33,1.35c0.22,0.24,0.56,0.36,1.02,0.36c0.51,0,1-0.07,1.48-0.2v2.15c-0.35,0.13-0.7,0.22-1.06,0.26
		C742.39,1056.01,742.03,1056.03,741.65,1056.03z"/>
	<path class="st0" d="M751.78,1056.03c-0.99,0-1.9-0.18-2.74-0.53s-1.51-0.87-2.01-1.57s-0.76-1.57-0.76-2.62
		c0-1.43,0.47-2.6,1.42-3.51c0.95-0.91,2.49-1.37,4.62-1.37h5.44v-0.96c0-0.86-0.12-1.54-0.35-2.05c-0.23-0.51-0.67-0.87-1.3-1.09
		c-0.64-0.22-1.57-0.33-2.8-0.33c-0.95,0-1.86,0.08-2.74,0.23c-0.88,0.15-1.71,0.36-2.48,0.63v-2.24c0.7-0.26,1.54-0.48,2.49-0.64
		s1.99-0.25,3.08-0.25c2.22,0,3.89,0.45,5,1.35c1.11,0.9,1.67,2.37,1.67,4.39v10.23h-2.28l-0.2-1.78c-0.68,0.7-1.51,1.23-2.48,1.58
		S753.21,1056.03,751.78,1056.03z M752.47,1053.82c1.14,0,2.16-0.2,3.04-0.61c0.88-0.41,1.63-0.96,2.24-1.67v-3.04h-5.38
		c-1.23,0-2.11,0.23-2.64,0.69s-0.79,1.17-0.79,2.11c0,0.95,0.32,1.6,0.96,1.96C750.54,1053.64,751.4,1053.82,752.47,1053.82z"/>
	<path class="st0" d="M772.74,1056.03c-1.17,0-2.18-0.16-3.05-0.48c-0.87-0.32-1.67-0.82-2.39-1.5l-0.2,1.65h-2.31v-22.24h2.71v7.75
		c1.43-0.99,3.17-1.49,5.21-1.49c2.22,0,3.96,0.63,5.21,1.9c1.25,1.27,1.88,3.31,1.88,6.12c0,2.84-0.63,4.93-1.88,6.27
		C776.66,1055.36,774.94,1056.03,772.74,1056.03z M772.04,1053.85c1.83,0,3.12-0.51,3.89-1.52c0.77-1.01,1.16-2.54,1.16-4.59
		c0-2.13-0.41-3.64-1.24-4.52c-0.83-0.88-2.12-1.32-3.88-1.32c-0.95,0-1.79,0.14-2.54,0.41c-0.75,0.28-1.4,0.66-1.95,1.14v8.51
		c0.59,0.64,1.28,1.11,2.05,1.42C770.3,1053.7,771.14,1053.85,772.04,1053.85z"/>
	<path class="st0" d="M790.92,1056.03c-2.73,0-4.71-0.7-5.96-2.1c-1.24-1.4-1.87-3.42-1.87-6.06c0-2.62,0.63-4.63,1.88-6.04
		c1.25-1.41,3.23-2.11,5.94-2.11s4.69,0.71,5.94,2.11c1.25,1.41,1.88,3.42,1.88,6.04c0,2.64-0.62,4.66-1.85,6.06
		C795.66,1055.33,793.67,1056.03,790.92,1056.03z M790.92,1053.72c1.87,0,3.19-0.47,3.96-1.4c0.77-0.93,1.16-2.41,1.16-4.44
		c0-2.02-0.39-3.5-1.17-4.44c-0.78-0.93-2.1-1.4-3.94-1.4s-3.16,0.47-3.94,1.4c-0.78,0.94-1.17,2.42-1.17,4.44
		c0,2.02,0.38,3.5,1.16,4.44C787.73,1053.25,789.05,1053.72,790.92,1053.72z"/>
	<path class="st0" d="M802.7,1055.7v-15.64h2.44l0.2,1.98c0.77-0.51,1.68-0.97,2.72-1.39s2.07-0.73,3.09-0.92v2.11
		c-0.62,0.13-1.29,0.31-2.01,0.54c-0.73,0.23-1.42,0.49-2.08,0.78s-1.21,0.58-1.65,0.89v11.65H802.7z"/>
	<path class="st0" d="M818.97,1056.03c-0.99,0-1.9-0.18-2.74-0.53c-0.84-0.35-1.51-0.87-2.01-1.57c-0.51-0.69-0.76-1.57-0.76-2.62
		c0-1.43,0.47-2.6,1.42-3.51c0.95-0.91,2.49-1.37,4.62-1.37h5.45v-0.96c0-0.86-0.12-1.54-0.35-2.05c-0.23-0.51-0.67-0.87-1.3-1.09
		c-0.64-0.22-1.57-0.33-2.8-0.33c-0.95,0-1.86,0.08-2.74,0.23c-0.88,0.15-1.71,0.36-2.47,0.63v-2.24c0.7-0.26,1.53-0.48,2.49-0.64
		s1.99-0.25,3.09-0.25c2.22,0,3.89,0.45,5,1.35s1.67,2.37,1.67,4.39v10.23h-2.28l-0.2-1.78c-0.68,0.7-1.51,1.23-2.47,1.58
		C821.6,1055.85,820.4,1056.03,818.97,1056.03z M819.66,1053.82c1.14,0,2.16-0.2,3.04-0.61c0.88-0.41,1.63-0.96,2.24-1.67v-3.04
		h-5.38c-1.23,0-2.11,0.23-2.64,0.69c-0.53,0.46-0.79,1.17-0.79,2.11c0,0.95,0.32,1.6,0.96,1.96
		C817.73,1053.64,818.58,1053.82,819.66,1053.82z"/>
	<path class="st0" d="M837.68,1056.03c-1.54,0-2.7-0.41-3.48-1.24c-0.78-0.82-1.17-1.97-1.17-3.45v-9.14h-2.38v-2.15h2.38v-3.86
		l2.71-0.83v4.69h4.32l-0.17,2.15h-4.16v9.01c0,0.95,0.21,1.62,0.64,2.03c0.43,0.41,1.17,0.61,2.23,0.61c0.57,0,1.2-0.11,1.88-0.33
		v2.05C839.67,1055.88,838.73,1056.03,837.68,1056.03z"/>
	<path class="st0" d="M845.37,1055.7v-13.5h-2.41l0.26-2.15h4.85v15.64H845.37z M845.1,1036.4v-2.47h3v2.47H845.1z"/>
	<path class="st0" d="M859.89,1056.03c-2.73,0-4.71-0.7-5.96-2.1c-1.24-1.4-1.86-3.42-1.86-6.06c0-2.62,0.63-4.63,1.88-6.04
		c1.25-1.41,3.23-2.11,5.94-2.11c2.71,0,4.69,0.71,5.94,2.11c1.25,1.41,1.88,3.42,1.88,6.04c0,2.64-0.62,4.66-1.85,6.06
		C864.63,1055.33,862.64,1056.03,859.89,1056.03z M859.89,1053.72c1.87,0,3.19-0.47,3.96-1.4c0.77-0.93,1.15-2.41,1.15-4.44
		c0-2.02-0.39-3.5-1.17-4.44c-0.78-0.93-2.1-1.4-3.94-1.4c-1.85,0-3.16,0.47-3.94,1.4c-0.78,0.94-1.17,2.42-1.17,4.44
		c0,2.02,0.38,3.5,1.16,4.44C856.7,1053.25,858.02,1053.72,859.89,1053.72z"/>
	<path class="st0" d="M871.67,1055.7v-15.64h2.44l0.17,1.78c0.75-0.62,1.62-1.12,2.62-1.52c1-0.4,2.15-0.59,3.45-0.59
		c1.98,0,3.42,0.46,4.32,1.39s1.35,2.38,1.35,4.36v10.23h-2.71v-10.13c0-1.36-0.28-2.32-0.83-2.85s-1.61-0.81-3.17-0.81
		c-0.97,0-1.88,0.18-2.74,0.53c-0.86,0.35-1.59,0.84-2.21,1.45v11.81H871.67z"/>
	<path class="st0" d="M908.92,1056.03c-2.64,0-4.77-0.33-6.4-0.99v-2.41c0.92,0.35,1.91,0.62,2.95,0.81
		c1.04,0.19,2.12,0.28,3.22,0.28c1.89,0,3.31-0.26,4.26-0.78c0.95-0.52,1.42-1.45,1.42-2.79c0-0.84-0.19-1.5-0.58-2
		s-1.02-0.91-1.9-1.25c-0.88-0.34-2.06-0.69-3.53-1.04c-2.33-0.57-3.97-1.31-4.92-2.23c-0.95-0.91-1.42-2.14-1.42-3.68
		c0-1.8,0.65-3.23,1.95-4.27s3.28-1.57,5.94-1.57c1.23,0,2.38,0.09,3.43,0.26c1.06,0.18,1.87,0.36,2.44,0.56v2.38
		c-0.79-0.29-1.65-0.51-2.57-0.66s-1.88-0.23-2.87-0.23c-1.8,0-3.19,0.26-4.16,0.79c-0.97,0.53-1.45,1.44-1.45,2.74
		c0,0.73,0.17,1.31,0.51,1.77s0.92,0.84,1.73,1.16c0.81,0.32,1.95,0.65,3.4,1.01c1.74,0.42,3.09,0.92,4.06,1.5s1.65,1.27,2.05,2.06
		c0.4,0.79,0.59,1.69,0.59,2.71c0,1.87-0.68,3.32-2.05,4.34C913.66,1055.52,911.63,1056.03,908.92,1056.03z"/>
	<path class="st0" d="M928.72,1056.03c-2.79,0-4.88-0.67-6.27-2.01c-1.39-1.34-2.08-3.41-2.08-6.2c0-2.51,0.6-4.48,1.8-5.92
		c1.2-1.44,3.1-2.16,5.69-2.16c1.54,0,2.81,0.28,3.81,0.84c1,0.56,1.75,1.33,2.24,2.31c0.49,0.98,0.74,2.08,0.74,3.32v2.94h-11.58
		c0.09,1.19,0.35,2.12,0.78,2.8c0.43,0.68,1.08,1.17,1.95,1.47s2.02,0.45,3.45,0.45c1.61,0,3.08-0.27,4.42-0.82v2.11
		c-0.68,0.29-1.45,0.51-2.29,0.66C930.53,1055.95,929.65,1056.03,928.72,1056.03z M923.08,1047.19h9.17v-1.29
		c0-1.28-0.34-2.26-1.01-2.95c-0.67-0.69-1.78-1.04-3.32-1.04c-1.87,0-3.15,0.44-3.83,1.32
		C923.42,1044.11,923.08,1045.43,923.08,1047.19z"/>
	<path class="st0" d="M946.02,1056.03c-2.73,0-4.75-0.71-6.07-2.13s-1.98-3.43-1.98-6.02c0-2.75,0.75-4.8,2.24-6.14
		s3.51-2.01,6.04-2.01c1.03,0,1.89,0.07,2.57,0.21c0.68,0.14,1.34,0.37,1.98,0.68v2.14c-1.19-0.57-2.54-0.86-4.06-0.86
		c-1.94,0-3.43,0.46-4.49,1.37c-1.06,0.91-1.58,2.45-1.58,4.6c0,2.07,0.46,3.58,1.39,4.54s2.45,1.44,4.59,1.44
		c1.52,0,2.92-0.29,4.19-0.86v2.18c-0.68,0.29-1.41,0.5-2.19,0.64S946.98,1056.03,946.02,1056.03z"/>
	<path class="st0" d="M959.38,1056.03c-1.87,0-3.28-0.52-4.24-1.55c-0.96-1.03-1.44-2.54-1.44-4.52v-9.9h2.71v10
		c0,1.3,0.33,2.26,0.97,2.87c0.65,0.62,1.66,0.92,3.02,0.92c0.97,0,1.88-0.18,2.74-0.53s1.59-0.84,2.21-1.45v-11.81h2.71v15.64
		h-2.44l-0.17-1.78c-0.75,0.62-1.64,1.12-2.67,1.52C961.74,1055.83,960.61,1056.03,959.38,1056.03z"/>
	<path class="st0" d="M972.68,1055.7v-15.64h2.44l0.2,1.98c0.77-0.51,1.68-0.97,2.72-1.39c1.04-0.42,2.07-0.73,3.08-0.92v2.11
		c-0.62,0.13-1.29,0.31-2.01,0.54c-0.73,0.23-1.42,0.49-2.08,0.78s-1.21,0.58-1.65,0.89v11.65H972.68z"/>
	<path class="st0" d="M985.85,1055.7v-13.5h-2.41l0.26-2.15h4.85v15.64H985.85z M985.58,1036.4v-2.47h3v2.47H985.58z"/>
	<path class="st0" d="M998.91,1056.03c-1.54,0-2.7-0.41-3.48-1.24c-0.78-0.82-1.17-1.97-1.17-3.45v-9.14h-2.38v-2.15h2.38v-3.86
		l2.71-0.83v4.69h4.32l-0.16,2.15h-4.16v9.01c0,0.95,0.21,1.62,0.64,2.03c0.43,0.41,1.17,0.61,2.23,0.61c0.57,0,1.2-0.11,1.88-0.33
		v2.05C1000.9,1055.88,999.97,1056.03,998.91,1056.03z"/>
	<path class="st0" d="M1007.79,1061.51c-1.03,0-1.94-0.14-2.71-0.43v-2.18c0.37,0.13,0.72,0.22,1.04,0.26
		c0.32,0.04,0.64,0.07,0.97,0.07c0.75,0,1.34-0.13,1.77-0.4s0.81-0.67,1.14-1.2c0.33-0.54,0.69-1.24,1.09-2.1l-6.9-15.48h2.8
		l5.45,12.61l5.61-12.61h2.77l-6.57,14.95c-0.55,1.25-1.11,2.37-1.68,3.35c-0.57,0.98-1.23,1.75-1.98,2.31
		C1009.85,1061.23,1008.91,1061.51,1007.79,1061.51z"/>
</g>
<g>
	<path class="st0" d="M700.23,816.57c-1.87,0-3.42-0.36-4.66-1.07c-1.23-0.71-2.16-1.71-2.77-3s-0.92-2.79-0.92-4.52
		c0-1.89,0.29-3.54,0.86-4.94c0.58-1.4,1.48-2.49,2.7-3.25c1.22-0.77,2.81-1.15,4.75-1.15c1.01,0,1.92,0.07,2.74,0.22
		s1.59,0.34,2.31,0.59v1.94c-0.72-0.27-1.49-0.48-2.29-0.63c-0.81-0.15-1.67-0.23-2.57-0.23c-1.57,0-2.81,0.3-3.73,0.89
		s-1.58,1.45-1.97,2.57c-0.4,1.12-0.59,2.45-0.59,4c0,2.14,0.51,3.79,1.53,4.95c1.02,1.16,2.62,1.74,4.82,1.74
		c0.81,0,1.63-0.06,2.47-0.19c0.84-0.12,1.62-0.32,2.34-0.59v1.97c-0.7,0.22-1.46,0.39-2.28,0.51
		C702.15,816.51,701.23,816.57,700.23,816.57z"/>
	<path class="st0" d="M715.97,816.57c-2.72,0-4.73-0.72-6.05-2.15c-1.31-1.43-1.97-3.7-1.97-6.82c0-3.11,0.66-5.39,1.97-6.82
		c1.31-1.43,3.33-2.15,6.05-2.15c2.74,0,4.76,0.72,6.06,2.15c1.3,1.43,1.96,3.71,1.96,6.82c0,3.11-0.65,5.39-1.96,6.82
		C720.72,815.86,718.7,816.57,715.97,816.57z M715.97,814.68c1.31,0,2.4-0.22,3.25-0.68c0.85-0.45,1.49-1.19,1.92-2.23
		s0.63-2.43,0.63-4.17s-0.21-3.14-0.63-4.17s-1.06-1.78-1.92-2.23c-0.85-0.45-1.94-0.68-3.25-0.68c-1.31,0-2.4,0.23-3.25,0.68
		c-0.86,0.45-1.49,1.19-1.92,2.23s-0.63,2.43-0.63,4.17s0.21,3.14,0.63,4.17s1.06,1.78,1.92,2.23
		C713.57,814.46,714.65,814.68,715.97,814.68z"/>
	<path class="st0" d="M727.23,816.3v-17.39h2.21v15.66h9.26v1.73H727.23z"/>
	<path class="st0" d="M741.4,816.3v-17.39h2.21v15.66h9.26v1.73H741.4z"/>
	<path class="st0" d="M755.04,816.3l6.61-17.39h2.59l6.59,17.39h-2.27l-1.84-4.78h-7.56l-1.84,4.78H755.04z M759.54,809.77h6.78
		l-3.4-8.94L759.54,809.77z"/>
	<path class="st0" d="M773.53,816.3v-17.39h8.05c1.71,0,2.96,0.4,3.77,1.2c0.8,0.8,1.2,1.93,1.2,3.39c0,0.95-0.19,1.75-0.58,2.39
		c-0.39,0.64-0.92,1.12-1.61,1.45c0.88,0.21,1.58,0.63,2.09,1.25s0.77,1.53,0.77,2.74c0,1.69-0.44,2.94-1.32,3.75
		c-0.88,0.81-2.18,1.21-3.89,1.21H773.53z M775.74,806.53h5.7c1.1,0,1.88-0.27,2.34-0.8c0.46-0.53,0.69-1.22,0.69-2.07
		c0-1.01-0.23-1.77-0.7-2.28s-1.38-0.77-2.73-0.77h-5.29V806.53z M775.74,814.63h5.89c1.17,0,2.03-0.26,2.57-0.77
		c0.54-0.51,0.81-1.38,0.81-2.61c0-1.01-0.27-1.77-0.8-2.28c-0.53-0.51-1.51-0.77-2.93-0.77h-5.54V814.63z"/>
	<path class="st0" d="M797.4,816.57c-2.72,0-4.73-0.72-6.05-2.15c-1.31-1.43-1.97-3.7-1.97-6.82c0-3.11,0.66-5.39,1.97-6.82
		c1.31-1.43,3.33-2.15,6.05-2.15c2.74,0,4.76,0.72,6.06,2.15c1.3,1.43,1.96,3.71,1.96,6.82c0,3.11-0.65,5.39-1.96,6.82
		C802.15,815.86,800.13,816.57,797.4,816.57z M797.4,814.68c1.31,0,2.4-0.22,3.25-0.68c0.85-0.45,1.49-1.19,1.92-2.23
		c0.42-1.04,0.63-2.43,0.63-4.17s-0.21-3.14-0.63-4.17c-0.42-1.04-1.06-1.78-1.92-2.23c-0.86-0.45-1.94-0.68-3.25-0.68
		c-1.31,0-2.4,0.23-3.25,0.68c-0.86,0.45-1.5,1.19-1.92,2.23c-0.42,1.04-0.63,2.43-0.63,4.17s0.21,3.14,0.63,4.17
		c0.42,1.04,1.06,1.78,1.92,2.23C795,814.46,796.08,814.68,797.4,814.68z"/>
	<path class="st0" d="M808.66,816.3v-17.39h7.64c1.87,0,3.24,0.49,4.09,1.46c0.85,0.97,1.28,2.29,1.28,3.94
		c0,1.28-0.31,2.34-0.93,3.19c-0.62,0.85-1.54,1.41-2.77,1.7c0.36,0.22,0.63,0.46,0.82,0.74c0.19,0.28,0.38,0.65,0.58,1.12
		l2.27,5.24h-2.27l-2.21-5.05c-0.23-0.54-0.52-0.93-0.85-1.16c-0.33-0.23-0.92-0.35-1.77-0.35h-3.67v6.56H808.66z M810.87,808.01
		h4.81c1.17,0,2.09-0.29,2.77-0.88c0.67-0.58,1.01-1.53,1.01-2.82c0-2.43-1.16-3.65-3.48-3.65h-5.1V808.01z"/>
	<path class="st0" d="M824.37,816.3l6.61-17.39h2.59l6.59,17.39h-2.27l-1.84-4.78h-7.56l-1.84,4.78H824.37z M828.88,809.77h6.78
		l-3.4-8.94L828.88,809.77z"/>
	<path class="st0" d="M848.1,816.3v-15.63h-5.78v-1.75h13.77v1.75h-5.78v15.63H848.1z"/>
	<path class="st0" d="M858.8,816.3v-17.39h2.21v17.39H858.8z"/>
	<path class="st0" d="M872.27,816.57c-2.72,0-4.73-0.72-6.05-2.15c-1.31-1.43-1.97-3.7-1.97-6.82c0-3.11,0.66-5.39,1.97-6.82
		c1.31-1.43,3.33-2.15,6.05-2.15c2.74,0,4.76,0.72,6.06,2.15c1.3,1.43,1.96,3.71,1.96,6.82c0,3.11-0.65,5.39-1.96,6.82
		C877.02,815.86,875,816.57,872.27,816.57z M872.27,814.68c1.31,0,2.4-0.22,3.25-0.68c0.85-0.45,1.49-1.19,1.92-2.23
		s0.63-2.43,0.63-4.17s-0.21-3.14-0.63-4.17s-1.06-1.78-1.92-2.23c-0.85-0.45-1.94-0.68-3.25-0.68c-1.31,0-2.4,0.23-3.25,0.68
		c-0.86,0.45-1.49,1.19-1.92,2.23s-0.63,2.43-0.63,4.17s0.21,3.14,0.63,4.17s1.06,1.78,1.92,2.23
		C869.87,814.46,870.95,814.68,872.27,814.68z"/>
	<path class="st0" d="M883.53,816.3v-17.39h2l9.91,13.99v-13.99h2.21v17.39h-2.03l-9.88-13.96v13.96H883.53z"/>
	<path class="st0" d="M916.52,816.57c-2.16,0-3.91-0.27-5.24-0.81v-1.97c0.76,0.29,1.56,0.51,2.42,0.66
		c0.85,0.15,1.73,0.23,2.63,0.23c1.55,0,2.71-0.21,3.48-0.63c0.77-0.42,1.16-1.18,1.16-2.28c0-0.68-0.16-1.23-0.47-1.63
		c-0.32-0.41-0.83-0.75-1.55-1.03c-0.72-0.28-1.68-0.56-2.89-0.85c-1.91-0.47-3.25-1.08-4.02-1.82c-0.77-0.75-1.16-1.75-1.16-3.01
		c0-1.47,0.53-2.64,1.59-3.5c1.06-0.85,2.68-1.28,4.86-1.28c1.01,0,1.94,0.07,2.81,0.22s1.53,0.3,2,0.46v1.94
		c-0.65-0.23-1.35-0.41-2.11-0.54s-1.54-0.19-2.35-0.19c-1.48,0-2.61,0.22-3.4,0.65s-1.19,1.18-1.19,2.24
		c0,0.59,0.14,1.08,0.42,1.45s0.75,0.68,1.42,0.95c0.67,0.26,1.59,0.54,2.78,0.82c1.42,0.34,2.53,0.75,3.32,1.23
		c0.79,0.48,1.35,1.04,1.67,1.69c0.32,0.65,0.49,1.39,0.49,2.21c0,1.53-0.56,2.71-1.67,3.55
		C920.4,816.15,918.73,816.57,916.52,816.57z"/>
	<path class="st0" d="M926.43,816.3v-17.39h11.74v1.75h-9.53v6.08h8.56v1.73h-8.56v6.1h9.53v1.73H926.43z"/>
	<path class="st0" d="M949.22,816.57c-1.87,0-3.42-0.36-4.66-1.07c-1.23-0.71-2.16-1.71-2.77-3c-0.61-1.29-0.92-2.79-0.92-4.52
		c0-1.89,0.29-3.54,0.86-4.94c0.58-1.4,1.48-2.49,2.7-3.25c1.22-0.77,2.81-1.15,4.75-1.15c1.01,0,1.92,0.07,2.74,0.22
		s1.59,0.34,2.31,0.59v1.94c-0.72-0.27-1.48-0.48-2.29-0.63c-0.81-0.15-1.67-0.23-2.56-0.23c-1.57,0-2.81,0.3-3.73,0.89
		s-1.58,1.45-1.97,2.57c-0.4,1.12-0.59,2.45-0.59,4c0,2.14,0.51,3.79,1.53,4.95c1.02,1.16,2.62,1.74,4.82,1.74
		c0.81,0,1.63-0.06,2.47-0.19c0.84-0.12,1.62-0.32,2.33-0.59v1.97c-0.7,0.22-1.46,0.39-2.28,0.51
		C951.14,816.51,950.23,816.57,949.22,816.57z"/>
	<path class="st0" d="M964.66,816.57c-2.38,0-4.19-0.57-5.44-1.7c-1.25-1.13-1.88-2.78-1.88-4.94v-11.02h2.21v11.04
		c0,1.58,0.45,2.77,1.34,3.55c0.89,0.78,2.15,1.17,3.77,1.17c1.6,0,2.85-0.39,3.74-1.17c0.89-0.78,1.34-1.97,1.34-3.55v-11.04h2.21
		v11.02c0,2.16-0.63,3.81-1.88,4.94S967.02,816.57,964.66,816.57z"/>
	<path class="st0" d="M975.59,816.3v-17.39h7.64c1.87,0,3.24,0.49,4.09,1.46c0.86,0.97,1.28,2.29,1.28,3.94
		c0,1.28-0.31,2.34-0.93,3.19c-0.62,0.85-1.54,1.41-2.77,1.7c0.36,0.22,0.63,0.46,0.82,0.74c0.19,0.28,0.38,0.65,0.58,1.12
		l2.27,5.24h-2.27l-2.21-5.05c-0.23-0.54-0.52-0.93-0.85-1.16c-0.33-0.23-0.92-0.35-1.77-0.35h-3.67v6.56H975.59z M977.81,808.01
		h4.81c1.17,0,2.09-0.29,2.77-0.88c0.67-0.58,1.01-1.53,1.01-2.82c0-2.43-1.16-3.65-3.48-3.65h-5.1V808.01z"/>
	<path class="st0" d="M991.85,816.3v-17.39h2.21v17.39H991.85z"/>
	<path class="st0" d="M1002.54,816.3v-15.63h-5.78v-1.75h13.77v1.75h-5.78v15.63H1002.54z"/>
	<path class="st0" d="M1018.9,816.3v-6.48l-6.21-10.91h2.29l5.02,9.02l5.02-9.02h2.29l-6.21,10.91v6.48H1018.9z"/>
</g>
<rect x="708.29" y="649.97" class="st1" width="10.85" height="85.24"/>
<g>
	<path class="st2" d="M703.6,670.4c-3.97,0-7.21-3.23-7.21-7.21s3.23-7.21,7.21-7.21s7.21,3.23,7.21,7.21S707.57,670.4,703.6,670.4z
		"/>
	<path class="st0" d="M703.59,657.98c2.88,0,5.21,2.33,5.21,5.21s-2.33,5.21-5.21,5.21s-5.21-2.33-5.21-5.21
		S700.72,657.98,703.59,657.98 M703.59,653.98c-5.08,0-9.21,4.13-9.21,9.21s4.13,9.21,9.21,9.21s9.21-4.13,9.21-9.21
		S708.67,653.98,703.59,653.98L703.59,653.98z"/>
</g>
<g>
	<path class="st2" d="M703.6,730.36c-3.97,0-7.21-3.23-7.21-7.21s3.23-7.21,7.21-7.21s7.21,3.23,7.21,7.21
		S707.57,730.36,703.6,730.36z"/>
	<path class="st0" d="M703.59,717.94c2.88,0,5.21,2.33,5.21,5.21s-2.33,5.21-5.21,5.21s-5.21-2.33-5.21-5.21
		S700.72,717.94,703.59,717.94 M703.59,713.94c-5.08,0-9.21,4.13-9.21,9.21s4.13,9.21,9.21,9.21s9.21-4.13,9.21-9.21
		S708.67,713.94,703.59,713.94L703.59,713.94z"/>
</g>
<g>
	<path class="st2" d="M703.6,775.45c-3.97,0-7.21-3.23-7.21-7.21s3.23-7.21,7.21-7.21s7.21,3.23,7.21,7.21
		S707.57,775.45,703.6,775.45z"/>
	<path class="st0" d="M703.59,763.03c2.88,0,5.21,2.33,5.21,5.21s-2.33,5.21-5.21,5.21s-5.21-2.33-5.21-5.21
		S700.72,763.03,703.59,763.03 M703.59,759.03c-5.08,0-9.21,4.13-9.21,9.21s4.13,9.21,9.21,9.21s9.21-4.13,9.21-9.21
		S708.67,759.03,703.59,759.03L703.59,759.03z"/>
</g>
<g>
	<path class="st2" d="M776.02,775.45c-3.97,0-7.21-3.23-7.21-7.21s3.23-7.21,7.21-7.21s7.21,3.23,7.21,7.21
		S779.99,775.45,776.02,775.45z"/>
	<path class="st0" d="M776.02,763.03c2.88,0,5.21,2.33,5.21,5.21s-2.33,5.21-5.21,5.21s-5.21-2.33-5.21-5.21
		S773.14,763.03,776.02,763.03 M776.02,759.03c-5.08,0-9.21,4.13-9.21,9.21s4.13,9.21,9.21,9.21s9.21-4.13,9.21-9.21
		S781.1,759.03,776.02,759.03L776.02,759.03z"/>
</g>
<path class="st0" d="M831.42,1008.51c-15.6,0-26.64-3.63-33.12-10.89c-6.48-7.26-9.72-18.69-9.72-34.29
	c0-13.68,2.91-24.39,8.73-32.13c5.82-7.74,15.63-11.61,29.43-11.61c8.04,0,14.49,1.5,19.35,4.5c4.86,3,8.43,7.02,10.71,12.06
	c2.28,5.04,3.42,10.56,3.42,16.56v14.76h-66.6c0.24,8.28,1.59,15.12,4.05,20.52c2.46,5.4,6.48,9.42,12.06,12.06
	c5.58,2.64,13.11,3.96,22.59,3.96c7.32,0,14.7-1.5,22.14-4.5v4.68C847.14,1007.07,839.46,1008.51,831.42,1008.51z M793.62,962.79
	h61.56v-9.36c0-8.88-2.25-15.99-6.75-21.33c-4.5-5.34-11.73-8.01-21.69-8.01c-12.36,0-20.97,3.45-25.83,10.35
	C796.05,941.34,793.62,950.79,793.62,962.79z"/>
<path class="st0" d="M911.7,1008.51c-14.52,0-24.93-3.96-31.23-11.88s-9.45-18.78-9.45-32.58c0-15,3.81-26.16,11.43-33.48
	c7.62-7.32,17.97-10.98,31.05-10.98c5.28,0,9.45,0.36,12.51,1.08c3.06,0.72,6.09,1.8,9.09,3.24v4.68c-3.36-1.56-6.69-2.7-9.99-3.42
	c-3.3-0.72-6.99-1.08-11.07-1.08c-12.12,0-21.51,3.27-28.17,9.81c-6.66,6.54-9.99,16.59-9.99,30.15c0,13.44,2.82,23.46,8.46,30.06
	c5.64,6.6,15.18,9.9,28.62,9.9c3.84,0,7.68-0.42,11.52-1.26c3.84-0.84,7.38-1.92,10.62-3.24v4.68c-3.12,1.32-6.63,2.37-10.53,3.15
	C920.67,1008.12,916.38,1008.51,911.7,1008.51z"/>
<path class="st0" d="M982.98,1008.51c-13.8,0-23.73-3.78-29.79-11.34c-6.06-7.56-9.09-18.6-9.09-33.12
	c0-14.52,3.06-25.56,9.18-33.12c6.12-7.56,16.02-11.34,29.7-11.34c13.68,0,23.58,3.78,29.7,11.34c6.12,7.56,9.18,18.6,9.18,33.12
	c0,14.52-3,25.56-9,33.12C1006.86,1004.73,996.9,1008.51,982.98,1008.51z M982.98,1004.01c12.48,0,21.27-3.33,26.37-9.99
	c5.1-6.66,7.65-16.65,7.65-29.97c0-13.32-2.55-23.31-7.65-29.97c-5.1-6.66-13.89-9.99-26.37-9.99c-12.36,0-21.12,3.33-26.28,9.99
	c-5.16,6.66-7.74,16.65-7.74,29.97c0,13.32,2.55,23.31,7.65,29.97C961.71,1000.68,970.5,1004.01,982.98,1004.01z"/>
<g>
	<polygon class="st0" points="703.93,953.07 702.36,953.07 702.36,895.29 703.93,895.29 703.93,890.79 697.32,890.79 
		697.32,1006.71 702.36,1006.71 702.36,957.57 703.93,957.57 	"/>
	<path class="st0" d="M760.86,969.27c-1.44-3.24-2.85-5.85-4.23-7.83c-1.38-1.98-3.57-3.57-6.57-4.77
		c8.88-1.32,15.51-4.8,19.89-10.44c4.38-5.64,6.57-13.08,6.57-22.32c0-10.2-2.58-18.27-7.74-24.21c-5.16-5.94-13.62-8.91-25.38-8.91
		h-28.63v4.5h29.17c18.48,0,27.72,9.54,27.72,28.62c0,10.44-2.7,17.91-8.1,22.41s-12.72,6.75-21.96,6.75h-26.83v4.5h17.65
		c5.28,0,9.39,0.42,12.33,1.26c2.94,0.84,5.22,2.19,6.84,4.05c1.62,1.86,3.09,4.35,4.41,7.47l15.84,36.36h5.04L760.86,969.27z"/>
</g>
<g>
	<path class="st3" d="M699.24,902.13c-3.97,0-7.21-3.23-7.21-7.21s3.23-7.21,7.21-7.21s7.21,3.23,7.21,7.21
		S703.22,902.13,699.24,902.13z"/>
	<path class="st0" d="M699.24,889.71c2.88,0,5.21,2.33,5.21,5.21c0,2.88-2.33,5.21-5.21,5.21s-5.21-2.33-5.21-5.21
		C694.03,892.04,696.36,889.71,699.24,889.71 M699.24,885.71c-5.08,0-9.21,4.13-9.21,9.21s4.13,9.21,9.21,9.21s9.21-4.13,9.21-9.21
		S704.32,885.71,699.24,885.71L699.24,885.71z"/>
</g>
<g>
	<path class="st3" d="M699.24,962.09c-3.97,0-7.21-3.23-7.21-7.21s3.23-7.21,7.21-7.21s7.21,3.23,7.21,7.21
		S703.22,962.09,699.24,962.09z"/>
	<path class="st0" d="M699.24,949.67c2.88,0,5.21,2.33,5.21,5.21c0,2.88-2.33,5.21-5.21,5.21s-5.21-2.33-5.21-5.21
		C694.03,952,696.36,949.67,699.24,949.67 M699.24,945.67c-5.08,0-9.21,4.13-9.21,9.21s4.13,9.21,9.21,9.21s9.21-4.13,9.21-9.21
		S704.32,945.67,699.24,945.67L699.24,945.67z"/>
</g>
<g>
	<path class="st3" d="M699.24,1007.18c-3.97,0-7.21-3.23-7.21-7.21s3.23-7.21,7.21-7.21s7.21,3.23,7.21,7.21
		S703.22,1007.18,699.24,1007.18z"/>
	<path class="st0" d="M699.24,994.76c2.88,0,5.21,2.33,5.21,5.21c0,2.88-2.33,5.21-5.21,5.21s-5.21-2.33-5.21-5.21
		C694.03,997.1,696.36,994.76,699.24,994.76 M699.24,990.76c-5.08,0-9.21,4.13-9.21,9.21s4.13,9.21,9.21,9.21s9.21-4.13,9.21-9.21
		S704.32,990.76,699.24,990.76L699.24,990.76z"/>
</g>
<g>
	<path class="st3" d="M771.67,1007.18c-3.97,0-7.21-3.23-7.21-7.21s3.23-7.21,7.21-7.21s7.21,3.23,7.21,7.21
		S775.64,1007.18,771.67,1007.18z"/>
	<path class="st0" d="M771.67,994.76c2.88,0,5.21,2.33,5.21,5.21c0,2.88-2.33,5.21-5.21,5.21s-5.21-2.33-5.21-5.21
		C766.46,997.1,768.79,994.76,771.67,994.76 M771.67,990.76c-5.08,0-9.21,4.13-9.21,9.21s4.13,9.21,9.21,9.21s9.21-4.13,9.21-9.21
		S776.74,990.76,771.67,990.76L771.67,990.76z"/>
</g>
<g>
	<path class="st0" d="M677.27,589.4V473.49h48.42c12.12,0,20.91,3.12,26.37,9.36c5.46,6.24,8.19,14.64,8.19,25.2
		c0,8.88-2.13,16.14-6.39,21.78c-4.26,5.64-10.65,9.3-19.17,10.98c2.76,1.32,4.77,2.94,6.03,4.86c1.26,1.92,2.61,4.44,4.05,7.56
		l15.48,36.18h-10.08l-15.3-34.92c-1.2-2.76-2.52-4.98-3.96-6.66c-1.44-1.68-3.42-2.91-5.94-3.69c-2.52-0.78-6.06-1.17-10.62-1.17
		h-27.18v46.44H677.27z M687.17,535.05h35.64c8.52,0,15.24-2.13,20.16-6.39c4.92-4.26,7.38-11.13,7.38-20.61
		c0-17.64-8.46-26.46-25.38-26.46h-37.8V535.05z"/>
	<path class="st0" d="M814.43,591.2c-15.36,0-26.55-3.63-33.57-10.89c-7.02-7.26-10.53-18.63-10.53-34.11
		c0-13.68,3.09-24.42,9.27-32.22c6.18-7.8,16.23-11.7,30.15-11.7c8.28,0,15,1.53,20.16,4.59c5.16,3.06,8.97,7.17,11.43,12.33
		c2.46,5.16,3.69,10.92,3.69,17.28v15.48h-64.8c0.48,11.04,3.36,18.99,8.64,23.85c5.28,4.86,14.46,7.29,27.54,7.29
		c7.92,0,15.6-1.5,23.04-4.5v8.1C832.13,589.7,823.79,591.2,814.43,591.2z M780.23,544.22h55.8v-8.1c0-7.92-2.04-14.16-6.12-18.72
		c-4.08-4.56-10.74-6.84-19.98-6.84c-11.28,0-19.05,2.91-23.31,8.73C782.36,525.12,780.23,533.42,780.23,544.22z"/>
	<path class="st0" d="M899.93,591.2c-14.76,0-25.5-3.9-32.22-11.7c-6.72-7.8-10.08-18.72-10.08-32.76c0-15,3.93-26.16,11.79-33.48
		c7.86-7.32,18.51-10.98,31.95-10.98c5.52,0,9.96,0.39,13.32,1.17c3.36,0.78,6.66,1.95,9.9,3.51v8.1c-6.36-3-13.56-4.5-21.6-4.5
		c-11.28,0-20.04,2.88-26.28,8.64c-6.24,5.76-9.36,14.94-9.36,27.54c0,12.36,2.67,21.51,8.01,27.45c5.34,5.94,14.31,8.91,26.91,8.91
		c3.84,0,7.71-0.42,11.61-1.26c3.9-0.84,7.53-1.98,10.89-3.42v8.28c-3.36,1.44-7.11,2.55-11.25,3.33
		C909.38,590.81,904.85,591.2,899.93,591.2z"/>
	<path class="st0" d="M972.11,591.2c-14.4,0-24.78-3.78-31.14-11.34c-6.36-7.56-9.54-18.6-9.54-33.12c0-14.4,3.24-25.41,9.72-33.03
		c6.48-7.62,16.8-11.43,30.96-11.43c14.28,0,24.66,3.81,31.14,11.43c6.48,7.62,9.72,18.63,9.72,33.03c0,14.52-3.21,25.56-9.63,33.12
		C996.92,587.42,986.51,591.2,972.11,591.2z M972.11,582.74c11.4,0,19.41-2.94,24.03-8.82c4.62-5.88,6.93-14.94,6.93-27.18
		c0-12.12-2.34-21.12-7.02-27c-4.68-5.88-12.66-8.82-23.94-8.82c-11.28,0-19.26,2.94-23.94,8.82c-4.68,5.88-7.02,14.88-7.02,27
		c0,12.24,2.34,21.3,7.02,27.18C952.85,579.81,960.83,582.74,972.11,582.74z"/>
	<rect x="687.17" y="465.47" class="st1" width="10.85" height="85.24"/>
	
		<rect x="729.78" y="531.85" transform="matrix(0.1902 0.9817 -0.9817 0.1902 1129.0607 -278.8802)" class="st1" width="7.59" height="26.22"/>
	<g>
		<path class="st1" d="M682.48,485.9c-3.97,0-7.21-3.23-7.21-7.21c0-3.98,3.23-7.21,7.21-7.21c3.98,0,7.21,3.23,7.21,7.21
			C689.69,482.67,686.46,485.9,682.48,485.9z"/>
		<path class="st0" d="M682.48,473.49c2.88,0,5.21,2.33,5.21,5.21s-2.33,5.21-5.21,5.21c-2.88,0-5.21-2.33-5.21-5.21
			S679.6,473.49,682.48,473.49 M682.48,469.49c-5.08,0-9.21,4.13-9.21,9.21c0,5.08,4.13,9.21,9.21,9.21c5.08,0,9.21-4.13,9.21-9.21
			C691.69,473.62,687.56,469.49,682.48,469.49L682.48,469.49z"/>
	</g>
	<g>
		<path class="st1" d="M682.48,545.86c-3.97,0-7.21-3.23-7.21-7.21c0-3.98,3.23-7.21,7.21-7.21c3.98,0,7.21,3.23,7.21,7.21
			C689.69,542.63,686.46,545.86,682.48,545.86z"/>
		<path class="st0" d="M682.48,533.45c2.88,0,5.21,2.33,5.21,5.21s-2.33,5.21-5.21,5.21c-2.88,0-5.21-2.33-5.21-5.21
			S679.6,533.45,682.48,533.45 M682.48,529.45c-5.08,0-9.21,4.13-9.21,9.21s4.13,9.21,9.21,9.21c5.08,0,9.21-4.13,9.21-9.21
			S687.56,529.45,682.48,529.45L682.48,529.45z"/>
	</g>
	<g>
		<path class="st1" d="M682.48,590.95c-3.97,0-7.21-3.23-7.21-7.21s3.23-7.21,7.21-7.21c3.98,0,7.21,3.23,7.21,7.21
			S686.46,590.95,682.48,590.95z"/>
		<path class="st0" d="M682.48,578.54c2.88,0,5.21,2.33,5.21,5.21s-2.33,5.21-5.21,5.21c-2.88,0-5.21-2.33-5.21-5.21
			S679.6,578.54,682.48,578.54 M682.48,574.54c-5.08,0-9.21,4.13-9.21,9.21c0,5.08,4.13,9.21,9.21,9.21c5.08,0,9.21-4.13,9.21-9.21
			C691.69,578.67,687.56,574.54,682.48,574.54L682.48,574.54z"/>
	</g>
	<g>
		<path class="st1" d="M753,590.95c-3.97,0-7.21-3.23-7.21-7.21s3.23-7.21,7.21-7.21c3.98,0,7.21,3.23,7.21,7.21
			S756.98,590.95,753,590.95z"/>
		<path class="st0" d="M753,578.54c2.88,0,5.21,2.33,5.21,5.21s-2.33,5.21-5.21,5.21c-2.88,0-5.21-2.33-5.21-5.21
			S750.12,578.54,753,578.54 M753,574.54c-5.08,0-9.21,4.13-9.21,9.21c0,5.08,4.13,9.21,9.21,9.21c5.08,0,9.21-4.13,9.21-9.21
			C762.21,578.67,758.08,574.54,753,574.54L753,574.54z"/>
	</g>
</g>
<path class="st1" d="M756.63,955.17c0,0-6.83,2.64-21.02,2.46c-0.1,7.68,0,7.31,0,7.31s21.86,2.63,33.69-8.26
	C765.74,952.92,756.63,955.17,756.63,955.17z"/>
<path class="st0" d="M836.5-267c-3.71,6.27-9.01,11.33-15.12,14.77c-6.11,3.54-13.12,5.46-20.33,5.46
	c-11.52,0-21.93-4.75-29.45-12.34c-7.51-7.59-12.12-18.11-12.12-29.64c0-11.63,4.61-22.15,12.12-29.74
	c7.51-7.59,17.93-12.34,29.45-12.34c11.42,0,21.83,4.75,29.35,12.34c7.61,7.59,12.22,18.11,12.22,29.74v3.34h-3.41h-72.82
	c0.8,8.4,4.51,15.88,10.02,21.45c6.31,6.37,15.02,10.32,24.64,10.32c6.11,0,11.92-1.62,17.03-4.55s9.52-7.08,12.72-12.34L836.5-267z
	 M713.41-369.88h-0.7h-13.62v6.88h14.22c8.31,0.2,15.83,3.64,21.23,9.21c5.61,5.67,9.11,13.45,9.11,22.05
	c0,8.6-3.51,16.39-9.11,22.05c-5.41,5.56-12.92,9.1-21.23,9.21h-14.22v6.88h13.62h0.7l0,0c10.12-0.2,19.23-4.45,25.94-11.23
	c6.91-6.88,11.12-16.39,11.12-26.91s-4.21-20.03-11.12-26.91C732.64-365.43,723.53-369.68,713.41-369.88L713.41-369.88z M743.36-267
	c2.5,0,4.71,1.01,6.31,2.63l0,0c1.6,1.62,2.6,3.84,2.6,6.37c0,2.43-1,4.65-2.6,6.37l0,0c-1.6,1.62-3.81,2.63-6.31,2.63
	c-2.4,0-4.71-1.01-6.31-2.63l0,0c-1.6-1.72-2.6-3.95-2.6-6.37c0-1.01,0.2-1.92,0.5-2.83l-35.26-30.05H710l29.35,24.89
	C740.55-266.7,741.95-267,743.36-267L743.36-267z M744.96-259.51c-0.4-0.4-1-0.71-1.6-0.71s-1.1,0.3-1.5,0.71
	c-0.4,0.4-0.6,0.91-0.6,1.52s0.2,1.11,0.6,1.52l0,0c0.4,0.4,0.9,0.61,1.5,0.61s1.2-0.2,1.5-0.61h0.1c0.3-0.4,0.6-0.91,0.6-1.52
	s-0.3-1.11-0.7-1.52H744.96z M683.26-266.39c1.1,0.51,2.1,1.21,2.9,2.02l0,0c1.6,1.62,2.6,3.84,2.6,6.37c0,2.43-1,4.65-2.6,6.37l0,0
	c-1.6,1.62-3.81,2.63-6.31,2.63c-2.4,0-4.71-1.01-6.31-2.63l0,0c-1.6-1.72-2.6-3.95-2.6-6.37c0-2.53,1-4.75,2.6-6.37
	c0.9-0.81,1.8-1.52,2.9-2.02v-34.6c-1.1-0.51-2-1.21-2.9-2.02l0,0c-1.6-1.62-2.6-3.84-2.6-6.37c0-2.43,1-4.75,2.6-6.37
	c0.9-0.81,1.8-1.52,2.9-1.92v-34.8c-1.1-0.51-2-1.21-2.9-2.02l0,0c-1.6-1.62-2.6-3.84-2.6-6.37c0-2.43,1-4.75,2.6-6.37
	s3.91-2.63,6.31-2.63c2.5,0,4.71,1.01,6.31,2.63l0,0c1.6,1.62,2.6,3.95,2.6,6.37c0,2.53-1,4.75-2.6,6.37l0,0
	c-0.8,0.81-1.8,1.52-2.9,2.02v34.8c1.1,0.4,2.1,1.11,2.9,1.92l0,0c1.6,1.62,2.6,3.95,2.6,6.37c0,2.53-1,4.75-2.6,6.37l0,0
	c-0.8,0.81-1.8,1.52-2.9,2.02V-266.39z M681.36-259.51c-0.3-0.4-0.9-0.71-1.5-0.71s-1.1,0.3-1.5,0.71c-0.4,0.4-0.6,0.91-0.6,1.52
	s0.2,1.11,0.6,1.52l0,0c0.4,0.4,0.9,0.61,1.5,0.61s1.1-0.2,1.5-0.61l0,0c0.4-0.4,0.7-0.91,0.7-1.52S681.76-259.11,681.36-259.51
	L681.36-259.51z M681.36-362.39c-0.3-0.4-0.9-0.61-1.5-0.61s-1.1,0.2-1.5,0.61c-0.4,0.4-0.6,0.91-0.6,1.52c0,0.61,0.2,1.21,0.6,1.52
	l0,0c0.4,0.4,0.9,0.71,1.5,0.71s1.1-0.3,1.5-0.71l0,0c0.4-0.4,0.7-0.91,0.7-1.52C682.06-361.48,681.76-361.99,681.36-362.39
	L681.36-362.39z M681.36-310.9c-0.3-0.4-0.9-0.61-1.5-0.61s-1.1,0.2-1.5,0.61c-0.4,0.4-0.6,0.91-0.6,1.52s0.2,1.21,0.6,1.52l0,0
	c0.4,0.4,0.9,0.71,1.5,0.71s1.1-0.3,1.5-0.71l0,0c0.4-0.4,0.7-0.91,0.7-1.52S681.76-310.5,681.36-310.9L681.36-310.9z
	 M970.02-330.83c11.52,0,21.93,4.75,29.45,12.34c7.51,7.59,12.22,18.11,12.22,29.74c0,11.53-4.71,22.05-12.22,29.64
	c-7.51,7.59-17.93,12.34-29.45,12.34c-11.42,0-21.83-4.75-29.35-12.34c-7.51-7.59-12.22-18.11-12.22-29.64
	c0-11.63,4.71-22.15,12.22-29.74C948.18-326.08,958.6-330.83,970.02-330.83L970.02-330.83z M994.66-313.64
	c-6.31-6.37-15.02-10.32-24.64-10.32c-9.52,0-18.23,3.95-24.54,10.32c-6.31,6.37-10.22,15.17-10.22,24.89
	c0,9.61,3.91,18.41,10.22,24.78c6.31,6.37,15.02,10.32,24.54,10.32c9.62,0,18.33-3.95,24.64-10.32
	c6.31-6.37,10.22-15.17,10.22-24.78C1004.87-298.46,1000.97-307.26,994.66-313.64L994.66-313.64z M920.44-259.11
	c-8.11,8.19-18.73,12.34-29.35,12.34s-21.33-4.15-29.45-12.34l0,0c-8.11-8.19-12.12-18.92-12.12-29.64
	c0-10.82,4.01-21.55,12.12-29.74l0,0c8.11-8.19,18.83-12.34,29.45-12.34s21.23,4.15,29.35,12.34l-4.81,4.86
	c-6.71-6.88-15.62-10.32-24.54-10.32s-17.83,3.44-24.64,10.32l0,0c-6.81,6.88-10.22,15.88-10.22,24.89c0,8.9,3.41,17.91,10.22,24.78
	l0,0c6.81,6.88,15.72,10.32,24.64,10.32s17.83-3.44,24.54-10.32L920.44-259.11z M776.41-313.64c-5.51,5.56-9.21,13.05-10.02,21.45
	h69.31c-0.8-8.4-4.51-15.88-10.02-21.45c-6.31-6.37-15.02-10.32-24.64-10.32C791.43-323.95,782.72-320.01,776.41-313.64
	L776.41-313.64z"/>
<path class="st4" d="M680.06-364.72c1.9,0,3.51,1.62,3.51,3.64c0,1.92-1.6,3.54-3.51,3.54c-2,0-3.61-1.62-3.61-3.54
	C676.45-363.1,678.05-364.72,680.06-364.72L680.06-364.72z"/>
<path class="st4" d="M680.06-313.23c1.9,0,3.51,1.62,3.51,3.64c0,1.92-1.6,3.54-3.51,3.54c-2,0-3.61-1.62-3.61-3.54
	C676.45-311.61,678.05-313.23,680.06-313.23L680.06-313.23z"/>
<path class="st4" d="M680.06-261.33c1.9,0,3.51,1.62,3.51,3.64c0,1.92-1.6,3.54-3.51,3.54c-2,0-3.61-1.62-3.61-3.54
	C676.45-259.72,678.05-261.33,680.06-261.33L680.06-261.33z"/>
<path class="st4" d="M743.46-261.33c1.9,0,3.51,1.62,3.51,3.64c0,1.92-1.6,3.54-3.51,3.54c-2,0-3.61-1.62-3.61-3.54
	C739.85-259.72,741.45-261.33,743.46-261.33L743.46-261.33z"/>
<path class="st5" d="M681.26-209.24c-1,1.01-2.5,1.62-3.81,1.62c-3.81,0-5.21-2.73-5.31-5.26c0-2.53,1.6-5.36,5.31-5.36
	c1.3,0,2.7,0.51,3.71,1.52l1.9-1.92c-1.6-1.52-3.51-2.33-5.61-2.33c-5.51,0-8.11,4.05-8.11,8.09s2.4,7.99,8.11,7.99
	c2.2,0,4.21-0.71,5.81-2.33L681.26-209.24z M693.98-220.97c-5.31,0-7.81,4.05-7.81,8.09s2.4,7.99,7.81,7.99s7.81-4.05,7.81-7.99
	C701.89-216.92,699.19-220.97,693.98-220.97L693.98-220.97z M693.98-218.34c3.61,0,5.01,2.93,5.01,5.46
	c-0.1,2.53-1.4,5.26-5.01,5.26s-4.91-2.63-5.01-5.16C688.87-215.41,690.37-218.34,693.98-218.34L693.98-218.34z M705.9-220.67v15.38
	h10.72v-2.63h-7.91v-12.75H705.9z M720.52-220.67v15.38h10.82v-2.63h-7.91v-12.75H720.52z M747.36-205.29h3.21l-6.91-15.38h-3.1
	l-6.81,15.38h3.1l1.3-2.83h7.91L747.36-205.29z M744.96-210.85h-5.71l2.9-6.58L744.96-210.85z M756.28-211.97h4.41
	c1.2,0,2.9,0.81,2.9,2.12c0,1.52-1.7,1.92-2.9,1.92h-4.41V-211.97z M756.28-218.04h4.41c1.8,0,2.4,1.21,2.4,1.92
	c0,0.81-0.6,1.62-2.4,1.62h-4.41V-218.04z M760.68-220.67c-2.4,0-4.81,0-7.21,0v15.38c2.4,0,4.81,0,7.21,0
	c3.21,0,5.71-1.11,5.71-4.55c0-0.91-0.6-2.83-2.4-3.34c1.4-0.71,2-1.82,2-3.03C765.99-219.35,763.69-220.67,760.68-220.67
	L760.68-220.67z M777.81-220.97c-5.31,0-7.81,4.05-7.81,8.09s2.4,7.99,7.81,7.99c5.31,0,7.81-4.05,7.81-7.99
	C785.72-216.92,783.02-220.97,777.81-220.97L777.81-220.97z M777.81-218.34c3.61,0,5.01,2.93,5.01,5.46
	c-0.1,2.53-1.4,5.26-5.01,5.26s-5.01-2.63-5.01-5.16C772.7-215.41,774.21-218.34,777.81-218.34L777.81-218.34z M803.25-205.49
	l-4.61-5.26c2.9-0.61,3.81-2.73,3.81-4.86c0-2.63-1.9-5.06-5.51-5.06c-2.4,0-4.81,0-7.21,0v15.38h2.9v-5.16h2.7l4.51,5.16h3.41
	V-205.49z M796.94-218.04c1.8,0,2.6,1.32,2.6,2.53s-0.7,2.43-2.6,2.43h-4.31v-4.96H796.94z M818.48-205.29h3.1l-6.81-15.38h-3.1
	l-6.91,15.38h3.1l1.4-2.83h7.91L818.48-205.29z M816.07-210.85h-5.71l2.8-6.58L816.07-210.85z M826.29-205.29h2.9v-12.75H834v-2.63
	c-4.41,0-8.11,0-12.52,0v2.63h4.81V-205.29z M840.61-205.29v-15.38h-2.9v15.38H840.61z M852.93-220.97c-5.31,0-7.91,4.05-7.91,8.09
	s2.5,7.99,7.91,7.99c5.31,0,7.71-4.05,7.81-7.99C860.74-216.92,858.14-220.97,852.93-220.97L852.93-220.97z M852.93-218.34
	c3.51,0,5.01,2.93,4.91,5.46c0,2.53-1.4,5.26-4.91,5.26c-3.61,0-5.01-2.63-5.11-5.16C847.82-215.41,849.33-218.34,852.93-218.34
	L852.93-218.34z M874.77-211.16l-7.41-9.51h-2.4v15.38h2.9v-10.42l8.01,10.42l0,0h1.8v-15.38h-2.9V-211.16z M898.4-218.14
	c-1.2-2.43-3.61-3.03-6.01-3.03c-2.8,0-5.91,1.32-5.91,4.45c0,3.44,2.9,4.35,6.01,4.65c2,0.2,3.51,0.81,3.51,2.33
	c0,1.62-1.7,2.33-3.51,2.33s-3.61-0.81-4.31-2.53l-2.4,1.32c1.2,2.83,3.51,3.74,6.71,3.74c3.41,0,6.41-1.42,6.41-4.86
	c0-3.74-3-4.55-6.21-4.96c-1.8-0.2-3.41-0.61-3.41-1.92c0-1.11,1-2.02,3.21-2.02c1.6,0,3.1,0.81,3.61,1.72L898.4-218.14z
	 M914.43-208.12h-8.61v-3.44h8.31v-2.73h-8.31v-3.54h8.61v-2.83h-11.42c0,5.16,0,10.32,0,15.38h11.42V-208.12z M930.05-209.24
	c-1,1.01-2.5,1.62-3.81,1.62c-3.81,0-5.21-2.73-5.31-5.26c0-2.53,1.6-5.36,5.31-5.36c1.3,0,2.7,0.51,3.71,1.52l1.9-1.92
	c-1.6-1.52-3.51-2.33-5.61-2.33c-5.51,0-8.11,4.05-8.11,8.09s2.4,7.99,8.11,7.99c2.2,0,4.21-0.71,5.81-2.33L930.05-209.24z
	 M945.88-220.67v8.8c0,2.73-1.3,4.25-3.71,4.25s-3.91-1.42-3.91-4.25v-8.8h-2.9v8.8c0,4.65,3.1,6.98,6.81,6.98
	c3.81,0,6.61-2.33,6.61-6.98v-8.8H945.88z M967.11-205.49l-4.71-5.26c2.9-0.61,3.91-2.73,3.91-4.86c0-2.63-1.9-5.06-5.51-5.06
	c-2.4,0-4.81,0-7.21,0v15.38h2.8v-5.16h2.8l4.41,5.16h3.51V-205.49z M960.8-218.04c1.8,0,2.6,1.32,2.6,2.53s-0.8,2.43-2.6,2.43
	h-4.41v-4.96H960.8z M973.12-205.29v-15.38h-2.9v15.38H973.12z M982.34-205.29h2.9v-12.75h4.81v-2.63c-4.41,0-8.11,0-12.52,0v2.63
	h4.81V-205.29z M997.26-220.67h-3.41v0.1l5.81,8.9v6.37h2.9v-6.37l6.11-8.9v-0.1h-3.51l-4.01,6.37L997.26-220.67z"/>
<g>
	<g>
		<path class="st0" d="M-573.1,216.13c-2.29,0-4.19-0.43-5.69-1.3s-2.63-2.09-3.38-3.66c-0.75-1.57-1.12-3.42-1.12-5.53
			c0-2.31,0.35-4.32,1.06-6.04c0.7-1.72,1.8-3.04,3.3-3.98c1.5-0.93,3.43-1.4,5.81-1.4c1.23,0,2.35,0.09,3.35,0.26
			c1,0.18,1.94,0.42,2.82,0.73v2.38c-0.88-0.33-1.81-0.59-2.8-0.78c-0.99-0.19-2.04-0.28-3.14-0.28c-1.91,0-3.43,0.36-4.55,1.09
			c-1.12,0.73-1.93,1.77-2.41,3.14c-0.48,1.36-0.73,2.99-0.73,4.88c0,2.62,0.62,4.64,1.86,6.06c1.24,1.42,3.21,2.13,5.89,2.13
			c0.99,0,2-0.08,3.02-0.23s1.97-0.4,2.85-0.73v2.41c-0.86,0.26-1.79,0.47-2.79,0.63S-571.87,216.13-573.1,216.13z"/>
		<path class="st0" d="M-555.84,216.13c-2.73,0-4.71-0.7-5.96-2.1c-1.24-1.4-1.86-3.42-1.86-6.06c0-2.62,0.63-4.63,1.88-6.04
			c1.25-1.41,3.23-2.11,5.94-2.11c2.71,0,4.69,0.71,5.94,2.11c1.25,1.41,1.88,3.42,1.88,6.04c0,2.64-0.62,4.66-1.85,6.06
			C-551.1,215.43-553.1,216.13-555.84,216.13z M-555.84,213.82c1.87,0,3.19-0.47,3.96-1.4c0.77-0.93,1.15-2.41,1.15-4.44
			c0-2.02-0.39-3.5-1.17-4.44c-0.78-0.93-2.1-1.4-3.94-1.4c-1.85,0-3.16,0.47-3.94,1.4c-0.78,0.94-1.17,2.42-1.17,4.44
			c0,2.02,0.38,3.5,1.16,4.44C-559.03,213.35-557.72,213.82-555.84,213.82z"/>
		<path class="st0" d="M-540.67,216.13c-1.06,0-1.89-0.28-2.49-0.84s-0.91-1.51-0.91-2.85v-18.88h2.71v18.58
			c0,0.66,0.11,1.11,0.33,1.35c0.22,0.24,0.56,0.36,1.02,0.36c0.51,0,1-0.07,1.48-0.2v2.15c-0.35,0.13-0.7,0.22-1.06,0.26
			C-539.93,216.11-540.29,216.13-540.67,216.13z"/>
		<path class="st0" d="M-532.81,216.13c-1.06,0-1.89-0.28-2.49-0.84s-0.91-1.51-0.91-2.85v-18.88h2.71v18.58
			c0,0.66,0.11,1.11,0.33,1.35c0.22,0.24,0.56,0.36,1.02,0.36c0.51,0,1-0.07,1.48-0.2v2.15c-0.35,0.13-0.7,0.22-1.06,0.26
			C-532.08,216.11-532.44,216.13-532.81,216.13z"/>
		<path class="st0" d="M-522.68,216.13c-0.99,0-1.9-0.18-2.74-0.53c-0.84-0.35-1.51-0.87-2.01-1.57c-0.51-0.69-0.76-1.57-0.76-2.62
			c0-1.43,0.47-2.6,1.42-3.51s2.49-1.37,4.62-1.37h5.44v-0.96c0-0.86-0.12-1.54-0.35-2.05c-0.23-0.51-0.67-0.87-1.3-1.09
			s-1.57-0.33-2.8-0.33c-0.95,0-1.86,0.08-2.74,0.23c-0.88,0.15-1.71,0.36-2.48,0.63v-2.24c0.7-0.26,1.53-0.48,2.49-0.64
			s1.99-0.25,3.09-0.25c2.22,0,3.89,0.45,5,1.35c1.11,0.9,1.67,2.37,1.67,4.39v10.23h-2.28l-0.2-1.78c-0.68,0.7-1.51,1.23-2.48,1.58
			C-520.05,215.95-521.25,216.13-522.68,216.13z M-521.99,213.92c1.14,0,2.16-0.2,3.04-0.61c0.88-0.41,1.63-0.96,2.24-1.67v-3.04
			h-5.38c-1.23,0-2.11,0.23-2.64,0.69c-0.53,0.46-0.79,1.17-0.79,2.11c0,0.95,0.32,1.6,0.96,1.96S-523.07,213.92-521.99,213.92z"/>
		<path class="st0" d="M-501.73,216.13c-1.17,0-2.18-0.16-3.05-0.48c-0.87-0.32-1.67-0.82-2.39-1.5l-0.2,1.65h-2.31v-22.24h2.71
			v7.75c1.43-0.99,3.17-1.49,5.21-1.49c2.22,0,3.96,0.63,5.21,1.9c1.25,1.27,1.88,3.31,1.88,6.12c0,2.84-0.63,4.93-1.88,6.27
			C-497.8,215.46-499.53,216.13-501.73,216.13z M-502.42,213.95c1.83,0,3.12-0.51,3.89-1.52s1.16-2.54,1.16-4.59
			c0-2.13-0.41-3.64-1.24-4.52c-0.82-0.88-2.12-1.32-3.88-1.32c-0.95,0-1.79,0.14-2.54,0.41c-0.75,0.28-1.4,0.66-1.95,1.14v8.51
			c0.59,0.64,1.28,1.11,2.05,1.42C-504.16,213.8-503.32,213.95-502.42,213.95z"/>
		<path class="st0" d="M-483.54,216.13c-2.73,0-4.71-0.7-5.96-2.1c-1.24-1.4-1.86-3.42-1.86-6.06c0-2.62,0.63-4.63,1.88-6.04
			c1.25-1.41,3.23-2.11,5.94-2.11c2.71,0,4.69,0.71,5.94,2.11c1.25,1.41,1.88,3.42,1.88,6.04c0,2.64-0.62,4.66-1.85,6.06
			C-478.8,215.43-480.79,216.13-483.54,216.13z M-483.54,213.82c1.87,0,3.19-0.47,3.96-1.4c0.77-0.93,1.15-2.41,1.15-4.44
			c0-2.02-0.39-3.5-1.17-4.44c-0.78-0.93-2.1-1.4-3.94-1.4c-1.85,0-3.16,0.47-3.94,1.4c-0.78,0.94-1.17,2.42-1.17,4.44
			c0,2.02,0.38,3.5,1.16,4.44C-486.73,213.35-485.41,213.82-483.54,213.82z"/>
		<path class="st0" d="M-471.76,215.8v-15.64h2.44l0.2,1.98c0.77-0.51,1.68-0.97,2.72-1.39s2.07-0.73,3.09-0.92v2.11
			c-0.62,0.13-1.29,0.31-2.01,0.54c-0.73,0.23-1.42,0.49-2.08,0.78s-1.21,0.58-1.65,0.89v11.65H-471.76z"/>
		<path class="st0" d="M-456.48,216.13c-0.99,0-1.9-0.18-2.74-0.53c-0.84-0.35-1.51-0.87-2.01-1.57c-0.51-0.69-0.76-1.57-0.76-2.62
			c0-1.43,0.47-2.6,1.42-3.51c0.95-0.91,2.49-1.37,4.62-1.37h5.45v-0.96c0-0.86-0.12-1.54-0.35-2.05c-0.23-0.51-0.67-0.87-1.3-1.09
			c-0.64-0.22-1.57-0.33-2.8-0.33c-0.95,0-1.86,0.08-2.74,0.23c-0.88,0.15-1.71,0.36-2.47,0.63v-2.24c0.7-0.26,1.53-0.48,2.49-0.64
			s1.99-0.25,3.09-0.25c2.22,0,3.89,0.45,5,1.35s1.67,2.37,1.67,4.39v10.23h-2.28l-0.2-1.78c-0.68,0.7-1.51,1.23-2.47,1.58
			C-453.86,215.95-455.05,216.13-456.48,216.13z M-455.79,213.92c1.14,0,2.16-0.2,3.04-0.61c0.88-0.41,1.63-0.96,2.24-1.67v-3.04
			h-5.38c-1.23,0-2.11,0.23-2.64,0.69c-0.53,0.46-0.79,1.17-0.79,2.11c0,0.95,0.32,1.6,0.96,1.96
			C-457.73,213.74-456.87,213.92-455.79,213.92z"/>
		<path class="st0" d="M-437.77,216.13c-1.54,0-2.7-0.41-3.48-1.24c-0.78-0.82-1.17-1.97-1.17-3.45v-9.14h-2.38v-2.15h2.38v-3.86
			l2.71-0.83v4.69h4.32l-0.17,2.15h-4.16v9.01c0,0.95,0.21,1.62,0.64,2.03c0.43,0.41,1.17,0.61,2.23,0.61c0.57,0,1.2-0.11,1.88-0.33
			v2.05C-435.78,215.97-436.72,216.13-437.77,216.13z"/>
		<path class="st0" d="M-430.74,215.8v-13.5h-2.41l0.26-2.15h4.85v15.64H-430.74z M-431.01,196.49v-2.47h3v2.47H-431.01z"/>
		<path class="st0" d="M-416.22,216.13c-2.73,0-4.71-0.7-5.96-2.1c-1.24-1.4-1.87-3.42-1.87-6.06c0-2.62,0.63-4.63,1.88-6.04
			c1.25-1.41,3.23-2.11,5.94-2.11s4.69,0.71,5.94,2.11c1.25,1.41,1.88,3.42,1.88,6.04c0,2.64-0.62,4.66-1.85,6.06
			C-411.48,215.43-413.47,216.13-416.22,216.13z M-416.22,213.82c1.87,0,3.19-0.47,3.96-1.4c0.77-0.93,1.16-2.41,1.16-4.44
			c0-2.02-0.39-3.5-1.17-4.44c-0.78-0.93-2.1-1.4-3.94-1.4s-3.16,0.47-3.94,1.4c-0.78,0.94-1.17,2.42-1.17,4.44
			c0,2.02,0.38,3.5,1.16,4.44C-419.42,213.35-418.1,213.82-416.22,213.82z"/>
		<path class="st0" d="M-404.44,215.8v-15.64h2.44l0.17,1.78c0.75-0.62,1.62-1.12,2.62-1.52c1-0.4,2.15-0.59,3.45-0.59
			c1.98,0,3.42,0.46,4.32,1.39c0.9,0.92,1.35,2.38,1.35,4.36v10.23h-2.71v-10.13c0-1.36-0.28-2.32-0.83-2.85s-1.61-0.81-3.17-0.81
			c-0.97,0-1.88,0.18-2.74,0.53c-0.86,0.35-1.6,0.84-2.21,1.45v11.81H-404.44z"/>
		<path class="st0" d="M-367.19,216.13c-2.64,0-4.77-0.33-6.4-0.99v-2.41c0.92,0.35,1.91,0.62,2.95,0.81
			c1.04,0.19,2.12,0.28,3.22,0.28c1.89,0,3.31-0.26,4.26-0.78c0.95-0.52,1.42-1.45,1.42-2.79c0-0.84-0.19-1.5-0.58-2
			c-0.39-0.5-1.02-0.91-1.9-1.25c-0.88-0.34-2.06-0.69-3.53-1.04c-2.33-0.57-3.97-1.31-4.92-2.23c-0.95-0.91-1.42-2.14-1.42-3.68
			c0-1.8,0.65-3.23,1.95-4.27c1.3-1.04,3.28-1.57,5.94-1.57c1.23,0,2.38,0.09,3.43,0.26c1.06,0.18,1.87,0.36,2.44,0.56v2.38
			c-0.79-0.29-1.65-0.51-2.57-0.66c-0.92-0.15-1.88-0.23-2.87-0.23c-1.8,0-3.19,0.26-4.16,0.79c-0.97,0.53-1.45,1.44-1.45,2.74
			c0,0.73,0.17,1.31,0.51,1.77c0.34,0.45,0.92,0.84,1.73,1.16c0.81,0.32,1.95,0.65,3.4,1.01c1.74,0.42,3.09,0.92,4.06,1.5
			c0.97,0.58,1.65,1.27,2.05,2.06c0.4,0.79,0.59,1.69,0.59,2.71c0,1.87-0.68,3.32-2.05,4.34
			C-362.45,215.62-364.48,216.13-367.19,216.13z"/>
		<path class="st0" d="M-347.39,216.13c-2.79,0-4.88-0.67-6.27-2.01c-1.39-1.34-2.08-3.41-2.08-6.2c0-2.51,0.6-4.48,1.8-5.92
			c1.2-1.44,3.1-2.16,5.69-2.16c1.54,0,2.81,0.28,3.81,0.84c1,0.56,1.75,1.33,2.24,2.31c0.5,0.98,0.74,2.08,0.74,3.32v2.94h-11.58
			c0.09,1.19,0.35,2.12,0.78,2.8c0.43,0.68,1.08,1.17,1.95,1.47s2.02,0.45,3.45,0.45c1.61,0,3.08-0.27,4.42-0.82v2.11
			c-0.68,0.29-1.45,0.51-2.29,0.66S-346.46,216.13-347.39,216.13z M-353.03,207.28h9.17V206c0-1.28-0.34-2.26-1.01-2.95
			c-0.67-0.69-1.78-1.04-3.32-1.04c-1.87,0-3.15,0.44-3.83,1.32C-352.69,204.2-353.03,205.52-353.03,207.28z"/>
		<path class="st0" d="M-330.1,216.13c-2.73,0-4.75-0.71-6.07-2.13s-1.98-3.43-1.98-6.02c0-2.75,0.75-4.8,2.24-6.14
			s3.51-2.01,6.04-2.01c1.03,0,1.89,0.07,2.57,0.21c0.68,0.14,1.34,0.37,1.98,0.68v2.14c-1.19-0.57-2.54-0.86-4.06-0.86
			c-1.94,0-3.43,0.46-4.49,1.37c-1.06,0.91-1.58,2.45-1.58,4.6c0,2.07,0.46,3.58,1.39,4.54s2.45,1.44,4.59,1.44
			c1.52,0,2.92-0.29,4.19-0.86v2.18c-0.68,0.29-1.41,0.5-2.19,0.64S-329.13,216.13-330.1,216.13z"/>
		<path class="st0" d="M-316.73,216.13c-1.87,0-3.28-0.52-4.24-1.55c-0.96-1.03-1.44-2.54-1.44-4.52v-9.9h2.71v10
			c0,1.3,0.33,2.26,0.97,2.87c0.65,0.62,1.66,0.92,3.02,0.92c0.97,0,1.88-0.18,2.74-0.53s1.59-0.84,2.21-1.45v-11.81h2.71v15.64
			h-2.44l-0.17-1.78c-0.75,0.62-1.64,1.12-2.67,1.52C-314.37,215.93-315.5,216.13-316.73,216.13z"/>
		<path class="st0" d="M-303.43,215.8v-15.64h2.44l0.2,1.98c0.77-0.51,1.68-0.97,2.72-1.39c1.04-0.42,2.07-0.73,3.08-0.92v2.11
			c-0.62,0.13-1.29,0.31-2.01,0.54c-0.73,0.23-1.42,0.49-2.08,0.78s-1.21,0.58-1.65,0.89v11.65H-303.43z"/>
		<path class="st0" d="M-290.6,215.8v-13.5H-293l0.26-2.15h4.85v15.64H-290.6z M-290.86,196.49v-2.47h3v2.47H-290.86z"/>
		<path class="st0" d="M-277.53,216.13c-1.54,0-2.7-0.41-3.48-1.24c-0.78-0.82-1.17-1.97-1.17-3.45v-9.14h-2.38v-2.15h2.38v-3.86
			l2.71-0.83v4.69h4.32l-0.16,2.15h-4.16v9.01c0,0.95,0.21,1.62,0.64,2.03c0.43,0.41,1.17,0.61,2.23,0.61c0.57,0,1.2-0.11,1.88-0.33
			v2.05C-275.54,215.97-276.47,216.13-277.53,216.13z"/>
		<path class="st0" d="M-270.14,221.61c-1.03,0-1.94-0.14-2.71-0.43V219c0.37,0.13,0.72,0.22,1.04,0.26
			c0.32,0.04,0.64,0.07,0.97,0.07c0.75,0,1.34-0.13,1.77-0.4s0.81-0.67,1.14-1.2c0.33-0.54,0.69-1.24,1.09-2.1l-6.9-15.48h2.8
			l5.45,12.61l5.61-12.61h2.77l-6.57,14.95c-0.55,1.25-1.11,2.37-1.68,3.35c-0.57,0.98-1.23,1.75-1.98,2.31
			C-268.08,221.33-269.01,221.61-270.14,221.61z"/>
	</g>
	<path class="st0" d="M-443.36,166.61c-15.6,0-26.64-3.63-33.12-10.89c-6.48-7.26-9.72-18.69-9.72-34.29
		c0-13.68,2.91-24.39,8.73-32.13c5.82-7.74,15.63-11.61,29.43-11.61c8.04,0,14.49,1.5,19.35,4.5c4.86,3,8.43,7.02,10.71,12.06
		c2.28,5.04,3.42,10.56,3.42,16.56v14.76h-66.6c0.24,8.28,1.59,15.12,4.05,20.52c2.46,5.4,6.48,9.42,12.06,12.06
		c5.58,2.64,13.11,3.96,22.59,3.96c7.32,0,14.7-1.5,22.14-4.5v4.68C-427.64,165.17-435.32,166.61-443.36,166.61z M-481.16,120.89
		h61.56v-9.36c0-8.88-2.25-15.99-6.75-21.33c-4.5-5.34-11.73-8.01-21.69-8.01c-12.36,0-20.97,3.45-25.83,10.35
		C-478.73,99.44-481.16,108.89-481.16,120.89z"/>
	<path class="st0" d="M-363.08,166.61c-14.52,0-24.93-3.96-31.23-11.88s-9.45-18.78-9.45-32.58c0-15,3.81-26.16,11.43-33.48
		c7.62-7.32,17.97-10.98,31.05-10.98c5.28,0,9.45,0.36,12.51,1.08c3.06,0.72,6.09,1.8,9.09,3.24v4.68c-3.36-1.56-6.69-2.7-9.99-3.42
		c-3.3-0.72-6.99-1.08-11.07-1.08c-12.12,0-21.51,3.27-28.17,9.81c-6.66,6.54-9.99,16.59-9.99,30.15c0,13.44,2.82,23.46,8.46,30.06
		c5.64,6.6,15.18,9.9,28.62,9.9c3.84,0,7.68-0.42,11.52-1.26c3.84-0.84,7.38-1.92,10.62-3.24v4.68c-3.12,1.32-6.63,2.37-10.53,3.15
		C-354.11,166.22-358.4,166.61-363.08,166.61z"/>
	<path class="st0" d="M-291.8,166.61c-13.8,0-23.73-3.78-29.79-11.34c-6.06-7.56-9.09-18.6-9.09-33.12
		c0-14.52,3.06-25.56,9.18-33.12c6.12-7.56,16.02-11.34,29.7-11.34c13.68,0,23.58,3.78,29.7,11.34c6.12,7.56,9.18,18.6,9.18,33.12
		c0,14.52-3,25.56-9,33.12C-267.92,162.83-277.88,166.61-291.8,166.61z M-291.8,162.11c12.48,0,21.27-3.33,26.37-9.99
		c5.1-6.66,7.65-16.65,7.65-29.97c0-13.32-2.55-23.31-7.65-29.97c-5.1-6.66-13.89-9.99-26.37-9.99c-12.36,0-21.12,3.33-26.28,9.99
		c-5.16,6.66-7.74,16.65-7.74,29.97c0,13.32,2.55,23.31,7.65,29.97C-313.07,158.78-304.28,162.11-291.8,162.11z"/>
	<path class="st0" d="M-539.17,115.73c6.25,0.08,11.07-0.39,14.51-0.93c-0.02-0.01-0.03-0.02-0.05-0.02
		c8.88-1.32,15.51-4.8,19.89-10.44c4.38-5.64,6.57-13.08,6.57-22.32c0-10.2-2.58-18.27-7.74-24.21c-5.16-5.94-13.62-8.91-25.38-8.91
		H-560v4.5h29.17c18.48,0,27.72,9.54,27.72,28.62c0,10.44-2.7,17.91-8.1,22.41c-5.4,4.5-12.72,6.75-21.96,6.75H-560v4.5h17.65
		C-541.24,115.67-540.18,115.69-539.17,115.73C-539.17,115.73-539.17,115.73-539.17,115.73z"/>
	<g>
		<g>
			<g>
				<path class="st0" d="M-575.79,107.77c2.88,0,5.21,2.33,5.21,5.21c0,2.88-2.33,5.21-5.21,5.21s-5.21-2.33-5.21-5.21
					C-581,110.1-578.66,107.77-575.79,107.77 M-575.79,103.77c-5.08,0-9.21,4.13-9.21,9.21c0,5.08,4.13,9.21,9.21,9.21
					s9.21-4.13,9.21-9.21C-566.58,107.9-570.71,103.77-575.79,103.77L-575.79,103.77z"/>
			</g>
			<g>
				<path class="st0" d="M-575.79,152.86c2.88,0,5.21,2.33,5.21,5.21s-2.33,5.21-5.21,5.21s-5.21-2.33-5.21-5.21
					S-578.66,152.86-575.79,152.86 M-575.79,148.86c-5.08,0-9.21,4.13-9.21,9.21c0,5.08,4.13,9.21,9.21,9.21s9.21-4.13,9.21-9.21
					C-566.58,152.99-570.71,148.86-575.79,148.86L-575.79,148.86z"/>
			</g>
			<g>
				<path class="st0" d="M-576.03,47.69c2.88,0,5.21,2.33,5.21,5.21s-2.33,5.21-5.21,5.21s-5.21-2.33-5.21-5.21
					S-578.91,47.69-576.03,47.69 M-576.03,43.69c-5.08,0-9.21,4.13-9.21,9.21s4.13,9.21,9.21,9.21c5.08,0,9.21-4.13,9.21-9.21
					S-570.96,43.69-576.03,43.69L-576.03,43.69z"/>
			</g>
		</g>
		<g>
			<line class="st6" x1="-575.85" y1="60.94" x2="-575.85" y2="105.05"/>
		</g>
		<g>
			<line class="st6" x1="-575.85" y1="121.01" x2="-575.85" y2="151.27"/>
		</g>
	</g>
	<g>
		<path class="st0" d="M-499.28,161.57c-0.95,1.04-2.31,1.71-3.83,1.71c-0.17,0-0.34-0.03-0.51-0.05l0.69,1.58h5.04L-499.28,161.57z
			"/>
		<path class="st0" d="M-503.12,152.86c0.04,0,0.07,0.01,0.11,0.01l-10.91-25.5c-1.09-2.44-2.16-4.53-3.21-6.26
			c-1.67,0.51-3.35,0.9-5,1.21c1.21,1.66,2.32,3.7,3.35,6.13l11.53,26.48C-506.29,153.68-504.81,152.86-503.12,152.86z"/>
	</g>
	<g>
		<path class="st0" d="M-503.11,152.84c2.88,0,5.21,2.33,5.21,5.21s-2.33,5.21-5.21,5.21s-5.21-2.33-5.21-5.21
			S-505.98,152.84-503.11,152.84 M-503.11,148.84c-5.08,0-9.21,4.13-9.21,9.21s4.13,9.21,9.21,9.21s9.21-4.13,9.21-9.21
			S-498.03,148.84-503.11,148.84L-503.11,148.84z"/>
	</g>
</g>
<g>
	<g>
		<path class="st0" d="M50.52,216.13c-2.29,0-4.19-0.43-5.69-1.3s-2.63-2.09-3.38-3.66c-0.75-1.57-1.12-3.42-1.12-5.53
			c0-2.31,0.35-4.32,1.06-6.04c0.7-1.72,1.8-3.04,3.3-3.98c1.5-0.93,3.43-1.4,5.81-1.4c1.23,0,2.35,0.09,3.35,0.26
			c1,0.18,1.94,0.42,2.82,0.73v2.38c-0.88-0.33-1.81-0.59-2.8-0.78c-0.99-0.19-2.04-0.28-3.14-0.28c-1.91,0-3.43,0.36-4.55,1.09
			c-1.12,0.73-1.93,1.77-2.41,3.14c-0.48,1.36-0.73,2.99-0.73,4.88c0,2.62,0.62,4.64,1.86,6.06c1.24,1.42,3.21,2.13,5.89,2.13
			c0.99,0,2-0.08,3.02-0.23s1.97-0.4,2.85-0.73v2.41c-0.86,0.26-1.79,0.47-2.79,0.63S51.75,216.13,50.52,216.13z"/>
		<path class="st0" d="M67.78,216.13c-2.73,0-4.71-0.7-5.96-2.1c-1.24-1.4-1.86-3.42-1.86-6.06c0-2.62,0.63-4.63,1.88-6.04
			c1.25-1.41,3.23-2.11,5.94-2.11c2.71,0,4.69,0.71,5.94,2.11c1.25,1.41,1.88,3.42,1.88,6.04c0,2.64-0.62,4.66-1.85,6.06
			C72.52,215.43,70.53,216.13,67.78,216.13z M67.78,213.82c1.87,0,3.19-0.47,3.96-1.4c0.77-0.93,1.15-2.41,1.15-4.44
			c0-2.02-0.39-3.5-1.17-4.44c-0.78-0.93-2.1-1.4-3.94-1.4c-1.85,0-3.16,0.47-3.94,1.4c-0.78,0.94-1.17,2.42-1.17,4.44
			c0,2.02,0.38,3.5,1.16,4.44C64.59,213.35,65.91,213.82,67.78,213.82z"/>
		<path class="st0" d="M82.96,216.13c-1.06,0-1.89-0.28-2.49-0.84s-0.91-1.51-0.91-2.85v-18.88h2.71v18.58
			c0,0.66,0.11,1.11,0.33,1.35c0.22,0.24,0.56,0.36,1.02,0.36c0.51,0,1-0.07,1.48-0.2v2.15c-0.35,0.13-0.7,0.22-1.06,0.26
			C83.69,216.11,83.33,216.13,82.96,216.13z"/>
		<path class="st0" d="M90.81,216.13c-1.06,0-1.89-0.28-2.49-0.84s-0.91-1.51-0.91-2.85v-18.88h2.71v18.58
			c0,0.66,0.11,1.11,0.33,1.35c0.22,0.24,0.56,0.36,1.02,0.36c0.51,0,1-0.07,1.48-0.2v2.15c-0.35,0.13-0.7,0.22-1.06,0.26
			C91.55,216.11,91.18,216.13,90.81,216.13z"/>
		<path class="st0" d="M100.94,216.13c-0.99,0-1.9-0.18-2.74-0.53c-0.84-0.35-1.51-0.87-2.01-1.57c-0.51-0.69-0.76-1.57-0.76-2.62
			c0-1.43,0.47-2.6,1.42-3.51s2.49-1.37,4.62-1.37h5.44v-0.96c0-0.86-0.12-1.54-0.35-2.05c-0.23-0.51-0.67-0.87-1.3-1.09
			s-1.57-0.33-2.8-0.33c-0.95,0-1.86,0.08-2.74,0.23c-0.88,0.15-1.71,0.36-2.48,0.63v-2.24c0.7-0.26,1.53-0.48,2.49-0.64
			s1.99-0.25,3.09-0.25c2.22,0,3.89,0.45,5,1.35c1.11,0.9,1.67,2.37,1.67,4.39v10.23h-2.28l-0.2-1.78c-0.68,0.7-1.51,1.23-2.48,1.58
			C103.57,215.95,102.37,216.13,100.94,216.13z M101.63,213.92c1.14,0,2.16-0.2,3.04-0.61c0.88-0.41,1.63-0.96,2.24-1.67v-3.04
			h-5.38c-1.23,0-2.11,0.23-2.64,0.69c-0.53,0.46-0.79,1.17-0.79,2.11c0,0.95,0.32,1.6,0.96,1.96S100.56,213.92,101.63,213.92z"/>
		<path class="st0" d="M121.9,216.13c-1.17,0-2.18-0.16-3.05-0.48c-0.87-0.32-1.67-0.82-2.39-1.5l-0.2,1.65h-2.31v-22.24h2.71v7.75
			c1.43-0.99,3.17-1.49,5.21-1.49c2.22,0,3.96,0.63,5.21,1.9c1.25,1.27,1.88,3.31,1.88,6.12c0,2.84-0.63,4.93-1.88,6.27
			C125.82,215.46,124.1,216.13,121.9,216.13z M121.2,213.95c1.83,0,3.12-0.51,3.89-1.52s1.16-2.54,1.16-4.59
			c0-2.13-0.41-3.64-1.24-4.52c-0.82-0.88-2.12-1.32-3.88-1.32c-0.95,0-1.79,0.14-2.54,0.41c-0.75,0.28-1.4,0.66-1.95,1.14v8.51
			c0.59,0.64,1.28,1.11,2.05,1.42C119.46,213.8,120.3,213.95,121.2,213.95z"/>
		<path class="st0" d="M140.08,216.13c-2.73,0-4.71-0.7-5.96-2.1c-1.24-1.4-1.86-3.42-1.86-6.06c0-2.62,0.63-4.63,1.88-6.04
			c1.25-1.41,3.23-2.11,5.94-2.11c2.71,0,4.69,0.71,5.94,2.11c1.25,1.41,1.88,3.42,1.88,6.04c0,2.64-0.62,4.66-1.85,6.06
			C144.82,215.43,142.83,216.13,140.08,216.13z M140.08,213.82c1.87,0,3.19-0.47,3.96-1.4c0.77-0.93,1.15-2.41,1.15-4.44
			c0-2.02-0.39-3.5-1.17-4.44c-0.78-0.93-2.1-1.4-3.94-1.4c-1.85,0-3.16,0.47-3.94,1.4c-0.78,0.94-1.17,2.42-1.17,4.44
			c0,2.02,0.38,3.5,1.16,4.44C136.89,213.35,138.21,213.82,140.08,213.82z"/>
		<path class="st0" d="M151.86,215.8v-15.64h2.44l0.2,1.98c0.77-0.51,1.68-0.97,2.72-1.39s2.07-0.73,3.09-0.92v2.11
			c-0.62,0.13-1.29,0.31-2.01,0.54c-0.73,0.23-1.42,0.49-2.08,0.78s-1.21,0.58-1.65,0.89v11.65H151.86z"/>
		<path class="st0" d="M167.14,216.13c-0.99,0-1.9-0.18-2.74-0.53c-0.84-0.35-1.51-0.87-2.01-1.57c-0.51-0.69-0.76-1.57-0.76-2.62
			c0-1.43,0.47-2.6,1.42-3.51c0.95-0.91,2.49-1.37,4.62-1.37h5.45v-0.96c0-0.86-0.12-1.54-0.35-2.05c-0.23-0.51-0.67-0.87-1.3-1.09
			c-0.64-0.22-1.57-0.33-2.8-0.33c-0.95,0-1.86,0.08-2.74,0.23c-0.88,0.15-1.71,0.36-2.47,0.63v-2.24c0.7-0.26,1.53-0.48,2.49-0.64
			s1.99-0.25,3.09-0.25c2.22,0,3.89,0.45,5,1.35s1.67,2.37,1.67,4.39v10.23h-2.28l-0.2-1.78c-0.68,0.7-1.51,1.23-2.47,1.58
			C169.77,215.95,168.57,216.13,167.14,216.13z M167.83,213.92c1.14,0,2.16-0.2,3.04-0.61c0.88-0.41,1.63-0.96,2.24-1.67v-3.04
			h-5.38c-1.23,0-2.11,0.23-2.64,0.69c-0.53,0.46-0.79,1.17-0.79,2.11c0,0.95,0.32,1.6,0.96,1.96
			C165.9,213.74,166.75,213.92,167.83,213.92z"/>
		<path class="st0" d="M185.85,216.13c-1.54,0-2.7-0.41-3.48-1.24c-0.78-0.82-1.17-1.97-1.17-3.45v-9.14h-2.38v-2.15h2.38v-3.86
			l2.71-0.83v4.69h4.32l-0.17,2.15h-4.16v9.01c0,0.95,0.21,1.62,0.64,2.03c0.43,0.41,1.17,0.61,2.23,0.61c0.57,0,1.2-0.11,1.88-0.33
			v2.05C187.84,215.97,186.9,216.13,185.85,216.13z"/>
		<path class="st0" d="M192.88,215.8v-13.5h-2.41l0.26-2.15h4.85v15.64H192.88z M192.61,196.49v-2.47h3v2.47H192.61z"/>
		<path class="st0" d="M207.4,216.13c-2.73,0-4.71-0.7-5.96-2.1c-1.24-1.4-1.87-3.42-1.87-6.06c0-2.62,0.63-4.63,1.88-6.04
			c1.25-1.41,3.23-2.11,5.94-2.11s4.69,0.71,5.94,2.11c1.25,1.41,1.88,3.42,1.88,6.04c0,2.64-0.62,4.66-1.85,6.06
			C212.14,215.43,210.15,216.13,207.4,216.13z M207.4,213.82c1.87,0,3.19-0.47,3.96-1.4c0.77-0.93,1.16-2.41,1.16-4.44
			c0-2.02-0.39-3.5-1.17-4.44c-0.78-0.93-2.1-1.4-3.94-1.4s-3.16,0.47-3.94,1.4c-0.78,0.94-1.17,2.42-1.17,4.44
			c0,2.02,0.38,3.5,1.16,4.44C204.21,213.35,205.53,213.82,207.4,213.82z"/>
		<path class="st0" d="M219.18,215.8v-15.64h2.44l0.17,1.78c0.75-0.62,1.62-1.12,2.62-1.52c1-0.4,2.15-0.59,3.45-0.59
			c1.98,0,3.42,0.46,4.32,1.39c0.9,0.92,1.35,2.38,1.35,4.36v10.23h-2.71v-10.13c0-1.36-0.28-2.32-0.83-2.85s-1.61-0.81-3.17-0.81
			c-0.97,0-1.88,0.18-2.74,0.53c-0.86,0.35-1.6,0.84-2.21,1.45v11.81H219.18z"/>
		<path class="st0" d="M256.43,216.13c-2.64,0-4.77-0.33-6.4-0.99v-2.41c0.92,0.35,1.91,0.62,2.95,0.81
			c1.04,0.19,2.12,0.28,3.22,0.28c1.89,0,3.31-0.26,4.26-0.78c0.95-0.52,1.42-1.45,1.42-2.79c0-0.84-0.19-1.5-0.58-2
			c-0.39-0.5-1.02-0.91-1.9-1.25c-0.88-0.34-2.06-0.69-3.53-1.04c-2.33-0.57-3.97-1.31-4.92-2.23c-0.95-0.91-1.42-2.14-1.42-3.68
			c0-1.8,0.65-3.23,1.95-4.27c1.3-1.04,3.28-1.57,5.94-1.57c1.23,0,2.38,0.09,3.43,0.26c1.06,0.18,1.87,0.36,2.44,0.56v2.38
			c-0.79-0.29-1.65-0.51-2.57-0.66c-0.92-0.15-1.88-0.23-2.87-0.23c-1.8,0-3.19,0.26-4.16,0.79c-0.97,0.53-1.45,1.44-1.45,2.74
			c0,0.73,0.17,1.31,0.51,1.77c0.34,0.45,0.92,0.84,1.73,1.16c0.81,0.32,1.95,0.65,3.4,1.01c1.74,0.42,3.09,0.92,4.06,1.5
			c0.97,0.58,1.65,1.27,2.05,2.06c0.4,0.79,0.59,1.69,0.59,2.71c0,1.87-0.68,3.32-2.05,4.34
			C261.18,215.62,259.14,216.13,256.43,216.13z"/>
		<path class="st0" d="M276.24,216.13c-2.79,0-4.88-0.67-6.27-2.01c-1.39-1.34-2.08-3.41-2.08-6.2c0-2.51,0.6-4.48,1.8-5.92
			c1.2-1.44,3.1-2.16,5.69-2.16c1.54,0,2.81,0.28,3.81,0.84c1,0.56,1.75,1.33,2.24,2.31c0.5,0.98,0.74,2.08,0.74,3.32v2.94h-11.58
			c0.09,1.19,0.35,2.12,0.78,2.8c0.43,0.68,1.08,1.17,1.95,1.47s2.02,0.45,3.45,0.45c1.61,0,3.08-0.27,4.42-0.82v2.11
			c-0.68,0.29-1.45,0.51-2.29,0.66S277.16,216.13,276.24,216.13z M270.59,207.28h9.17V206c0-1.28-0.34-2.26-1.01-2.95
			c-0.67-0.69-1.78-1.04-3.32-1.04c-1.87,0-3.15,0.44-3.83,1.32C270.93,204.2,270.59,205.52,270.59,207.28z"/>
		<path class="st0" d="M293.53,216.13c-2.73,0-4.75-0.71-6.07-2.13s-1.98-3.43-1.98-6.02c0-2.75,0.75-4.8,2.24-6.14
			s3.51-2.01,6.04-2.01c1.03,0,1.89,0.07,2.57,0.21c0.68,0.14,1.34,0.37,1.98,0.68v2.14c-1.19-0.57-2.54-0.86-4.06-0.86
			c-1.94,0-3.43,0.46-4.49,1.37c-1.06,0.91-1.58,2.45-1.58,4.6c0,2.07,0.46,3.58,1.39,4.54s2.45,1.44,4.59,1.44
			c1.52,0,2.92-0.29,4.19-0.86v2.18c-0.68,0.29-1.41,0.5-2.19,0.64S294.49,216.13,293.53,216.13z"/>
		<path class="st0" d="M306.89,216.13c-1.87,0-3.28-0.52-4.24-1.55c-0.96-1.03-1.44-2.54-1.44-4.52v-9.9h2.71v10
			c0,1.3,0.33,2.26,0.97,2.87c0.65,0.62,1.66,0.92,3.02,0.92c0.97,0,1.88-0.18,2.74-0.53s1.59-0.84,2.21-1.45v-11.81h2.71v15.64
			h-2.44l-0.17-1.78c-0.75,0.62-1.64,1.12-2.67,1.52C309.26,215.93,308.12,216.13,306.89,216.13z"/>
		<path class="st0" d="M320.19,215.8v-15.64h2.44l0.2,1.98c0.77-0.51,1.68-0.97,2.72-1.39c1.04-0.42,2.07-0.73,3.08-0.92v2.11
			c-0.62,0.13-1.29,0.31-2.01,0.54c-0.73,0.23-1.42,0.49-2.08,0.78s-1.21,0.58-1.65,0.89v11.65H320.19z"/>
		<path class="st0" d="M333.03,215.8v-13.5h-2.41l0.26-2.15h4.85v15.64H333.03z M332.76,196.49v-2.47h3v2.47H332.76z"/>
		<path class="st0" d="M346.09,216.13c-1.54,0-2.7-0.41-3.48-1.24c-0.78-0.82-1.17-1.97-1.17-3.45v-9.14h-2.38v-2.15h2.38v-3.86
			l2.71-0.83v4.69h4.32l-0.16,2.15h-4.16v9.01c0,0.95,0.21,1.62,0.64,2.03c0.43,0.41,1.17,0.61,2.23,0.61c0.57,0,1.2-0.11,1.88-0.33
			v2.05C348.09,215.97,347.15,216.13,346.09,216.13z"/>
		<path class="st0" d="M353.49,221.61c-1.03,0-1.94-0.14-2.71-0.43V219c0.37,0.13,0.72,0.22,1.04,0.26
			c0.32,0.04,0.64,0.07,0.97,0.07c0.75,0,1.34-0.13,1.77-0.4s0.81-0.67,1.14-1.2c0.33-0.54,0.69-1.24,1.09-2.1l-6.9-15.48h2.8
			l5.45,12.61l5.61-12.61h2.77l-6.57,14.95c-0.55,1.25-1.11,2.37-1.68,3.35c-0.57,0.98-1.23,1.75-1.98,2.31
			C355.54,221.33,354.61,221.61,353.49,221.61z"/>
	</g>
	<path class="st0" d="M180.26,166.61c-15.6,0-26.64-3.63-33.12-10.89c-6.48-7.26-9.72-18.69-9.72-34.29
		c0-13.68,2.91-24.39,8.73-32.13c5.82-7.74,15.63-11.61,29.43-11.61c8.04,0,14.49,1.5,19.35,4.5c4.86,3,8.43,7.02,10.71,12.06
		c2.28,5.04,3.42,10.56,3.42,16.56v14.76h-66.6c0.24,8.28,1.59,15.12,4.05,20.52c2.46,5.4,6.48,9.42,12.06,12.06
		c5.58,2.64,13.11,3.96,22.59,3.96c7.32,0,14.7-1.5,22.14-4.5v4.68C195.98,165.17,188.3,166.61,180.26,166.61z M142.46,120.89h61.56
		v-9.36c0-8.88-2.25-15.99-6.75-21.33c-4.5-5.34-11.73-8.01-21.69-8.01c-12.36,0-20.97,3.45-25.83,10.35
		C144.89,99.44,142.46,108.89,142.46,120.89z"/>
	<path class="st0" d="M260.54,166.61c-14.52,0-24.93-3.96-31.23-11.88s-9.45-18.78-9.45-32.58c0-15,3.81-26.16,11.43-33.48
		c7.62-7.32,17.97-10.98,31.05-10.98c5.28,0,9.45,0.36,12.51,1.08c3.06,0.72,6.09,1.8,9.09,3.24v4.68c-3.36-1.56-6.69-2.7-9.99-3.42
		c-3.3-0.72-6.99-1.08-11.07-1.08c-12.12,0-21.51,3.27-28.17,9.81c-6.66,6.54-9.99,16.59-9.99,30.15c0,13.44,2.82,23.46,8.46,30.06
		c5.64,6.6,15.18,9.9,28.62,9.9c3.84,0,7.68-0.42,11.52-1.26c3.84-0.84,7.38-1.92,10.62-3.24v4.68c-3.12,1.32-6.63,2.37-10.53,3.15
		C269.51,166.22,265.22,166.61,260.54,166.61z"/>
	<path class="st0" d="M331.82,166.61c-13.8,0-23.73-3.78-29.79-11.34c-6.06-7.56-9.09-18.6-9.09-33.12
		c0-14.52,3.06-25.56,9.18-33.12c6.12-7.56,16.02-11.34,29.7-11.34c13.68,0,23.58,3.78,29.7,11.34c6.12,7.56,9.18,18.6,9.18,33.12
		c0,14.52-3,25.56-9,33.12C355.7,162.83,345.74,166.61,331.82,166.61z M331.82,162.11c12.48,0,21.27-3.33,26.37-9.99
		c5.1-6.66,7.65-16.65,7.65-29.97c0-13.32-2.55-23.31-7.65-29.97c-5.1-6.66-13.89-9.99-26.37-9.99c-12.36,0-21.12,3.33-26.28,9.99
		c-5.16,6.66-7.74,16.65-7.74,29.97c0,13.32,2.55,23.31,7.65,29.97C310.55,158.78,319.34,162.11,331.82,162.11z"/>
	<path class="st0" d="M84.45,115.73c6.25,0.08,11.07-0.39,14.51-0.93c-0.02-0.01-0.03-0.02-0.05-0.02
		c8.88-1.32,15.51-4.8,19.89-10.44c4.38-5.64,6.57-13.08,6.57-22.32c0-10.2-2.58-18.27-7.74-24.21c-5.16-5.94-13.62-8.91-25.38-8.91
		H63.62v4.5h29.17c18.48,0,27.72,9.54,27.72,28.62c0,10.44-2.7,17.91-8.1,22.41s-12.72,6.75-21.96,6.75H63.62v4.5h17.65
		C82.38,115.67,83.44,115.69,84.45,115.73C84.45,115.73,84.45,115.73,84.45,115.73z"/>
	<g>
		<g>
			<g>
				<circle class="st2" cx="47.83" cy="112.98" r="7.21"/>
				<path class="st0" d="M47.83,107.77c2.88,0,5.21,2.33,5.21,5.21c0,2.88-2.33,5.21-5.21,5.21s-5.21-2.33-5.21-5.21
					C42.63,110.1,44.96,107.77,47.83,107.77 M47.83,103.77c-5.08,0-9.21,4.13-9.21,9.21c0,5.08,4.13,9.21,9.21,9.21
					c5.08,0,9.21-4.13,9.21-9.21C57.04,107.9,52.91,103.77,47.83,103.77L47.83,103.77z"/>
			</g>
			<g>
				<path class="st2" d="M47.83,165.28c-3.98,0-7.21-3.23-7.21-7.21c0-3.97,3.23-7.21,7.21-7.21s7.21,3.23,7.21,7.21
					C55.04,162.04,51.81,165.28,47.83,165.28z"/>
				<path class="st0" d="M47.83,152.86c2.88,0,5.21,2.33,5.21,5.21s-2.33,5.21-5.21,5.21s-5.21-2.33-5.21-5.21
					S44.96,152.86,47.83,152.86 M47.83,148.86c-5.08,0-9.21,4.13-9.21,9.21c0,5.08,4.13,9.21,9.21,9.21c5.08,0,9.21-4.13,9.21-9.21
					C57.04,152.99,52.91,148.86,47.83,148.86L47.83,148.86z"/>
			</g>
			<g>
				<path class="st2" d="M47.59,60.1c-3.97,0-7.21-3.23-7.21-7.21s3.23-7.21,7.21-7.21c3.98,0,7.21,3.23,7.21,7.21
					S51.56,60.1,47.59,60.1z"/>
				<path class="st0" d="M47.59,47.69c2.88,0,5.21,2.33,5.21,5.21s-2.33,5.21-5.21,5.21s-5.21-2.33-5.21-5.21
					S44.71,47.69,47.59,47.69 M47.59,43.69c-5.08,0-9.21,4.13-9.21,9.21s4.13,9.21,9.21,9.21s9.21-4.13,9.21-9.21
					S52.67,43.69,47.59,43.69L47.59,43.69z"/>
			</g>
		</g>
		<g>
			<line class="st6" x1="47.78" y1="60.94" x2="47.78" y2="105.05"/>
			<line class="st2" x1="47.78" y1="60.94" x2="47.78" y2="105.05"/>
		</g>
		<g>
			<line class="st6" x1="47.78" y1="121.01" x2="47.78" y2="151.27"/>
			<line class="st2" x1="47.78" y1="121.01" x2="47.78" y2="151.27"/>
		</g>
	</g>
	<g>
		<path class="st0" d="M124.34,161.57c-0.95,1.04-2.31,1.71-3.83,1.71c-0.17,0-0.34-0.03-0.51-0.05l0.69,1.58h5.04L124.34,161.57z"
			/>
		<path class="st0" d="M120.51,152.86c0.04,0,0.07,0.01,0.11,0.01l-10.91-25.5c-1.09-2.44-2.16-4.53-3.21-6.26
			c-1.67,0.51-3.35,0.9-5,1.21c1.21,1.66,2.32,3.7,3.35,6.13l11.53,26.48C117.33,153.68,118.82,152.86,120.51,152.86z"/>
	</g>
	<g>
		<path class="st2" d="M120.51,165.25c-3.97,0-7.21-3.23-7.21-7.21c0-3.98,3.23-7.21,7.21-7.21c3.98,0,7.21,3.23,7.21,7.21
			C127.72,162.02,124.49,165.25,120.51,165.25z"/>
		<path class="st0" d="M120.51,152.84c2.88,0,5.21,2.33,5.21,5.21s-2.33,5.21-5.21,5.21s-5.21-2.33-5.21-5.21
			S117.64,152.84,120.51,152.84 M120.51,148.84c-5.08,0-9.21,4.13-9.21,9.21s4.13,9.21,9.21,9.21c5.08,0,9.21-4.13,9.21-9.21
			S125.59,148.84,120.51,148.84L120.51,148.84z"/>
	</g>
</g>
</svg>
