<svg width="96" height="34" viewBox="0 0 96 34" fill="none" xmlns="http://www.w3.org/2000/svg">
<g clip-path="url(#clip0)">
<path d="M62.6864 23.9741H62.6644C58.7313 26.7582 54.0911 29.6749 49.0753 32.7462L48.8765 32.8567C48.8548 32.8656 48.8354 32.8793 48.8198 32.8968C48.8042 32.9143 48.7928 32.9351 48.7864 32.9576C48.78 32.9802 48.7788 33.0039 48.7829 33.0269C48.787 33.05 48.7963 33.0718 48.8101 33.0908C48.8239 33.1097 48.8418 33.1253 48.8625 33.1363C48.8832 33.1473 48.9061 33.1535 48.9295 33.1544C48.9529 33.1552 48.9762 33.1508 48.9976 33.1413C49.0191 33.1319 49.0381 33.1177 49.0532 33.0998L49.2079 33.0114C53.4724 30.8018 58.3556 28.1724 63.2609 25.4546L63.3493 25.4104C63.0598 24.9664 62.8365 24.4825 62.6864 23.9741ZM88.4946 3.07133C82.3077 -3.75633 42.4023 2.38636 25.4547 6.09848L25.057 6.18687C25.0181 6.19689 24.9838 6.21985 24.9597 6.25198C24.9356 6.28411 24.9231 6.32349 24.9244 6.36363C24.9266 6.38359 24.9332 6.4028 24.9439 6.41981C24.9545 6.43682 24.9689 6.45118 24.9859 6.46182C25.003 6.47246 25.0222 6.47909 25.0421 6.48122C25.0621 6.48335 25.0823 6.48092 25.1012 6.47411L25.4989 6.40783C39.5519 3.91098 68.7849 0.44191 75.0602 6.67298C76.9826 8.57323 76.5406 11.0259 74.3089 13.9205C75.5409 14.7253 76.4122 15.9769 76.7395 17.4116C85.4232 11.6446 91.2566 6.12058 88.4946 3.07133Z" fill="#CC2427"/>
<path d="M65.2052 22.1844C65.2714 24.5928 66.7961 26.5594 68.7847 26.5594C72.6294 26.5594 74.2645 21.8308 74.154 18.6711C74.0656 16.2627 72.5189 14.2961 70.5303 14.2961C67.2159 14.2961 65.0726 19.0026 65.2052 22.1844ZM63.1723 22.0518C63.0177 17.942 66.2437 13.7437 70.9059 13.7437C74.0435 13.7437 76.0764 15.8428 76.1869 19.0247C76.3415 23.3555 73.3365 27.3327 68.4533 27.3327C65.3156 27.3327 63.2828 25.2557 63.1723 22.0518Z" fill="#013D5B"/>
<path d="M18.8921 20.9691C18.6861 21.0526 18.471 21.1119 18.2513 21.1459L16.793 21.411C16.4352 21.4364 16.0878 21.5422 15.7766 21.7204C15.6871 21.7752 15.6109 21.8492 15.5536 21.9371C15.4963 22.025 15.4592 22.1246 15.4451 22.2286C15.4224 22.3258 15.4316 22.4277 15.4714 22.5193C15.5112 22.6108 15.5795 22.6871 15.6661 22.7368C15.9485 22.8946 16.2718 22.9639 16.5941 22.9356C16.9238 22.9291 17.251 22.877 17.5664 22.781C17.857 22.6959 18.1276 22.5531 18.3618 22.3611C18.5167 22.2252 18.6313 22.0494 18.6932 21.8529C18.8005 21.5691 18.8674 21.2715 18.8921 20.9691ZM22.9578 18.4501C22.9357 18.8258 22.8694 19.1572 22.781 19.7317L22.096 23.5764C22.0596 23.7319 22.0769 23.8952 22.1451 24.0397C22.2133 24.1841 22.3284 24.3012 22.4717 24.3719V24.5265H18.5165V23.5543C17.9161 23.8923 17.2784 24.1592 16.6162 24.3498C16.004 24.5152 15.3722 24.5969 14.7381 24.5928C13.4565 24.5928 12.7273 24.4603 12.2412 24.0183C11.7551 23.5764 11.4679 23.2671 11.49 22.6263C11.5374 22.211 11.7065 21.8189 11.9761 21.4994C12.2637 21.1767 12.6181 20.9203 13.0146 20.7481C13.5235 20.5326 14.0583 20.384 14.6055 20.3062C15.2905 20.1957 16.2627 20.0853 17.5664 19.9748C18.0079 19.9615 18.4429 19.864 18.8479 19.6875C19.1352 19.577 19.2236 19.4666 19.2677 19.2456C19.3119 19.0246 19.2236 18.6269 18.6932 18.5164C17.2791 18.2513 14.6276 18.6932 13.2576 19.0467L13.9868 17.036C15.7339 16.7591 17.499 16.6114 19.2677 16.5941C22.0739 16.5941 22.9799 17.4116 22.9578 18.4501Z" fill="#013D5B"/>
<path d="M34.3594 24.5265L35.7293 16.815H39.5077L38.1378 24.5265H34.3594ZM35.9503 15.0474C36.0608 14.4066 37.0551 13.8984 38.182 13.8984C39.3089 13.8984 40.1043 14.4066 39.9939 15.0474C39.8834 15.6882 38.8891 16.1964 37.7622 16.1964C36.6353 16.1964 35.8398 15.6661 35.9503 15.0474Z" fill="#013D5B"/>
<path d="M52.8757 20.9912L52.2349 21.168L50.7545 21.4331C50.4043 21.4618 50.0648 21.5674 49.7602 21.7425C49.6712 21.7925 49.5951 21.8624 49.5376 21.9467C49.4801 22.031 49.4428 22.1275 49.4287 22.2286C49.4023 22.3267 49.4073 22.4306 49.443 22.5257C49.4786 22.6208 49.5432 22.7023 49.6276 22.7589C49.8265 22.8914 50.1358 22.9356 50.5777 22.9356C50.9064 22.9366 51.2336 22.8919 51.5499 22.8031C51.8406 22.718 52.1111 22.5752 52.3454 22.3832C52.5003 22.2473 52.6149 22.0715 52.6768 21.875C52.77 21.5871 52.8366 21.2913 52.8757 20.9912ZM56.9414 18.4501C56.9193 18.8258 56.853 19.1793 56.7646 19.7317L56.0796 23.5985C56.0432 23.754 56.0605 23.9173 56.1287 24.0618C56.1969 24.2062 56.312 24.3233 56.4553 24.394V24.5265H52.5001V23.5322C51.9049 23.8863 51.2661 24.1611 50.5998 24.3498C49.9792 24.5086 49.34 24.583 48.6996 24.5707C47.4401 24.5707 46.7109 24.4382 46.2027 23.9962C45.6945 23.5543 45.4515 23.245 45.4735 22.6263C45.5154 22.2029 45.6849 21.8022 45.9597 21.4773C46.2486 21.1615 46.603 20.9127 46.9982 20.7481C47.4968 20.5253 48.0253 20.3764 48.567 20.3062C49.2741 20.1957 50.2463 20.0853 51.5499 19.9748C51.9874 19.9325 52.4179 19.836 52.8315 19.6875C53.0967 19.577 53.2071 19.4666 53.2513 19.2456C53.2955 19.0246 53.2071 18.6269 52.6768 18.5164C51.2627 18.2292 48.6112 18.6932 47.2412 19.0246L47.9704 17.036C49.7173 16.7582 51.4825 16.6105 53.2513 16.5941C56.0575 16.6162 56.9635 17.4337 56.9414 18.4501Z" fill="#013D5B"/>
<path d="M10.9597 21.7646C9.93003 21.9949 8.87724 22.1061 7.82212 22.096C6.03234 22.096 4.5961 21.2122 4.68449 19.555C4.72868 18.4723 6.03234 16.1743 9.30255 16.1743C10.3384 16.1503 11.359 16.4266 12.2413 16.9697L12.7053 14.2961C11.5262 13.8278 10.2605 13.6168 8.99321 13.6774C4.68449 13.7216 0.552539 15.6661 0.0443317 19.6433C-0.463876 23.6206 4.46353 24.7033 6.65103 24.7033C7.9105 24.7033 9.23626 24.637 10.4515 24.5266L10.9597 21.7646Z" fill="#013D5B"/>
<path d="M41.5846 16.7709L41.8497 15.202L45.7828 14.3624L45.363 16.7709H47.3074L46.9318 18.3397H45.0536L43.9267 24.5266H40.1041L41.2531 18.3397H39.8169L40.1041 16.793H41.5846V16.7709Z" fill="#013D5B"/>
<path d="M60.7641 24.5266H56.9194L58.8639 13.7879L62.5981 13.8763L60.7641 24.5266Z" fill="#013D5B"/>
<path d="M29.3875 18.6269C28.9028 18.6284 28.4311 18.7831 28.0396 19.0688C27.6385 19.4034 27.3782 19.8767 27.3105 20.3946C27.1779 21.0796 27.2442 21.5436 27.5093 21.8529C27.6637 22.003 27.8474 22.1197 28.0489 22.1957C28.2504 22.2718 28.4653 22.3055 28.6804 22.2948C29.0152 22.3016 29.3474 22.2337 29.6526 22.096C29.9473 21.9597 30.1994 21.7458 30.3818 21.4773C30.5885 21.17 30.7312 20.8244 30.8016 20.4609C30.9121 19.8422 30.8237 19.4003 30.5365 19.0909C30.3898 18.9352 30.2112 18.813 30.0129 18.7329C29.8145 18.6528 29.6011 18.6166 29.3875 18.6269ZM22.5156 27.2001L24.3496 16.8592H27.664L27.3988 18.185C27.7618 17.731 28.2437 17.3868 28.7909 17.1907C29.472 16.9125 30.1986 16.7626 30.9342 16.7487C31.7959 16.7487 32.3262 16.7929 32.967 17.1244C33.5745 17.4292 34.0471 17.949 34.2928 18.5827C34.5532 19.2507 34.6146 19.9797 34.4696 20.6818C34.3776 21.2847 34.166 21.863 33.8473 22.3829C33.5285 22.9027 33.109 23.3536 32.6135 23.709C31.5971 24.4382 30.6911 24.637 29.3875 24.637C28.993 24.6443 28.5993 24.5997 28.2164 24.5044C27.9529 24.4471 27.6996 24.3503 27.4651 24.2172C27.236 24.0519 27.0282 23.859 26.8464 23.6427L26.2277 27.2001H22.5156Z" fill="#013D5B"/>
<path d="M90.925 19.577C90.9029 18.9584 90.5935 18.5385 89.9528 18.5385C88.406 18.5385 86.7709 21.5657 86.4837 22.781C89.0026 22.781 90.9913 21.2784 90.925 19.577ZM91.2564 24.3277L91.5437 24.5266C90.7924 26.0512 89.2678 27.2885 87.4559 27.2885C85.9755 27.2885 84.7823 26.3163 84.716 24.4824C84.5834 21.168 87.699 18.0966 90.2179 18.0966C91.3006 18.0966 92.317 18.5827 92.3612 19.7538C92.4496 22.3832 88.7596 23.1787 86.329 23.2229C86.2494 23.5404 86.2195 23.8684 86.2406 24.1951C86.2848 25.2999 86.9477 26.2058 88.2956 26.2058C89.6434 26.2058 90.6598 25.2557 91.2564 24.3277Z" fill="#013D5B"/>
<path d="M76.143 19.4887L77.0047 19.4003C77.2919 19.4003 77.535 19.4666 77.5571 19.7317C77.5792 19.9969 77.2699 21.0575 77.2036 21.3447L76.607 23.93C76.386 24.9906 76.1209 26.0954 75.8999 26.9792H77.4024L78.2421 22.8694C80.8494 20.1736 81.8437 19.2898 82.4403 19.2898C82.5059 19.2828 82.5721 19.2906 82.6343 19.3126C82.6964 19.3346 82.7529 19.3702 82.7995 19.4168C82.8461 19.4634 82.8817 19.5198 82.9036 19.582C82.9256 19.6441 82.9334 19.7104 82.9264 19.7759C82.9485 20.2399 82.6392 21.3226 82.5508 21.632L81.667 24.6149C81.4902 25.2999 81.3355 25.8965 81.3576 26.3384C81.3797 26.7803 81.7774 27.2885 82.3519 27.2885C83.4567 27.2885 84.2743 26.1396 84.9593 25.0127L84.7604 24.637C84.4731 25.0789 83.8324 26.0733 83.3021 26.0733C83.1474 26.0733 82.9927 25.9628 82.9927 25.6976C83.0105 25.2844 83.0849 24.8755 83.2137 24.4824L84.1859 20.9691C84.429 19.9969 84.5615 19.3782 84.5615 19.0467C84.5615 18.7153 84.1417 18.0966 83.5672 18.0966C82.5729 18.0966 81.2471 18.8258 78.463 22.0297H78.4188L78.7724 20.4609C78.9712 19.5991 79.148 18.7153 79.3248 18.0966C78.2779 18.4686 77.2076 18.7713 76.1209 19.0026L76.143 19.4887Z" fill="#013D5B"/>
</g>
<defs>
<clipPath id="clip0">
<rect width="95.3" height="33.144" fill="white"/>
</clipPath>
</defs>
</svg>
