<svg fill="none" height="34" viewBox="0 0 97 34" width="97" xmlns="http://www.w3.org/2000/svg" xmlns:xlink="http://www.w3.org/1999/xlink"><clipPath id="a"><path d="m0 .196854h97v33.6063h-97z"/></clipPath><g clip-path="url(#a)"><path clip-rule="evenodd" d="m95.7258 18.9409c-.7615 0-1.2778-.5774-1.2778-1.2915v-16.15015c0-.714894.5163-1.291547 1.2778-1.291547s1.2778.576653 1.2778 1.291547v16.15015c0 .7141-.5163 1.2915-1.2778 1.2915zm-3.9686-5.2739h-8.1274c.136 1.895 1.4138 3.3225 3.6692 3.3225 1.4138 0 2.257-.4942 3.1537-1.3443.2176-.22.5163-.4124.8424-.4124.5713 0 1.0601.4124 1.0601 1.0708 0 .2742-.1359.5217-.3261.7416-1.0326 1.2091-2.881 2.0049-4.8378 2.0049-4.0511 0-6.1973-2.8565-6.1973-6.2897 0-3.59815 2.5816-6.29047 6.0881-6.29047 3.4248 0 5.6535 2.80154 5.6535 6.31877 0 .4384-.2444.8783-.9784.8783zm-4.6751-5.13715c-1.8758 0-3.1529 1.34654-3.398 3.04975h6.6868c-.2169-1.64898-1.4404-3.04975-3.2888-3.04975zm-8.9156 10.41105c-.7065 0-1.277-.5774-1.277-1.2915v-5.7406c0-1.73-1.3596-3.0765-3.1537-3.0765-1.7933 0-3.1254 1.3465-3.1254 3.0765v5.7406c0 .7141-.5713 1.2915-1.2778 1.2915s-1.2778-.5774-1.2778-1.2915v-5.4381c0-3.21402 2.3922-5.74137 5.681-5.74137 3.2896 0 5.7085 2.52735 5.7085 5.74137v5.4381c0 .7141-.5713 1.2915-1.2778 1.2915zm-13.4005 0c-.7607 0-1.2503-.5774-1.2503-1.2915v-.6042c-.7615 1.1541-2.202 2.0049-3.9686 2.0049-3.8052 0-6.0071-2.8015-6.0071-6.2897 0-3.43393 2.4464-6.29047 6.279-6.29047 3.9144 0 6.224 2.58234 6.224 6.29047v4.889c0 .7141-.4888 1.2915-1.277 1.2915zm-4.9745-10.27357c-2.1745 0-3.6967 1.84147-3.6967 4.09307 0 2.3616 1.2778 4.0923 3.6967 4.0923 2.2562 0 3.6967-1.9499 3.6967-4.0923 0-2.5266-1.5222-4.09307-3.6967-4.09307zm-12.9109 10.38277c-1.8216 0-3.3164-.9608-4.1863-2.3616v6.0973c0 .7141-.5163 1.2908-1.277 1.2908-.7615 0-1.2778-.5767-1.2778-1.2908v-14.91433c0-.71414.4345-1.29079 1.2235-1.29079.7882 0 1.2503.60415 1.2503 1.31752v.9341c.815-1.42827 2.4457-2.36237 4.2673-2.36237 3.1254 0 5.681 2.63657 5.681 6.29047 0 3.7907-2.5556 6.2897-5.681 6.2897zm-.5163-10.437c-2.202 0-3.67 1.9499-3.67 4.1473s1.468 4.1473 3.67 4.1473c2.2012 0 3.6417-1.6749 3.6417-4.1473 0-2.4723-1.4405-4.1473-3.6417-4.1473zm-8.1274 9.202c0 .6309-.5438 1.1258-1.1419 1.1258-.3803 0-.6797-.1375-.8966-.4124l-3.2621-4.0923-3.2621 4.0923c-.217.2749-.5164.4124-.8967.4124-.5981 0-1.1419-.4949-1.1419-1.1258 0-.3307.1092-.5499.2994-.7699l3.615-4.3123-3.5607-4.28554c-.2177-.24594-.2995-.4934-.2995-.74087 0-.6599.4621-1.12581 1.1694-1.12581.3529 0 .6248.13748.8424.38418l3.2347 4.06564 3.2346-4.06564c.2176-.2467.4895-.38418.8424-.38418.7065 0 1.1686.46591 1.1686 1.12581 0 .24747-.081.49493-.2986.74087l-3.5608 4.28554 3.615 4.3123c.1902.22.2994.4392.2994.7699zm-13.7809-13.10263c-.8157 0-1.4947-.68663-1.4947-1.51075 0-.82336.679-1.51152 1.4947-1.51152.815 0 1.4947.68816 1.4947 1.51152 0 .82412-.6797 1.51075-1.4947 1.51075zm-4.5315 27.67863c-2.0003 0-3.6218-1.5803-3.6218-3.5302 0-1.9492 1.6215-3.5287 3.6218-3.5287s3.6218 1.5795 3.6218 3.5287c0 1.9499-1.6215 3.5302-3.6218 3.5302zm-.3345-13.4502c-.734 0-1.2771-.5774-1.2771-1.2915v-5.4939c0-1.8949-.8974-3.34993-2.9084-3.34993-2.0118 0-3.2346 1.56503-3.2346 3.37823v5.4656c0 .7141-.4896 1.2915-1.2771 1.2915-.7622 0-1.27856-.5774-1.27856-1.2915v-5.4939c0-1.8949-.9784-3.34993-2.98943-3.34993-2.06602 0-3.15364 1.56503-3.15364 3.37823v5.4656c0 .7141-.51632 1.2915-1.27704 1.2915-.734 0-1.277807-.5774-1.277807-1.2915v-9.7512c0-.76913.489587-1.31752 1.277807-1.31752.86994 0 1.27704.60415 1.27704 1.31752v.87987c.73399-1.45576 2.22947-2.30814 3.83264-2.30814 1.95757 0 3.42479.9891 4.15879 2.44486 1.0601-1.64747 2.6098-2.44486 4.5399-2.44486 3.2888 0 4.8653 2.28065 4.8653 5.49307v5.6864c0 .7141-.5163 1.2915-1.2778 1.2915zm-14.4706 4.8745c2.82828 0 5.1211 2.2348 5.1211 4.992 0 2.7557-2.29282 4.9898-5.1211 4.9898-2.82827 0-5.12037656-2.2341-5.12037656-4.9898 0-2.7572 2.29210656-4.992 5.12037656-4.992zm18.0588-15.94393c0-.71414.5431-1.29079 1.2778-1.29079.734 0 1.277.57665 1.277 1.29079v9.77793c0 .7141-.5163 1.2915-1.277 1.2915-.7615 0-1.2778-.5774-1.2778-1.2915zm9.0401 19.38623c.9074 0 1.6444.718 1.6444 1.6032 0 .8844-.737 1.6032-1.6444 1.6032-.9081 0-1.6452-.7188-1.6452-1.6032 0-.8852.7371-1.6032 1.6452-1.6032z" fill="#1f1f24" fill-rule="evenodd"/></g></svg>