<svg xmlns="http://www.w3.org/2000/svg" width="798" height="189" fill="none">
  <path fill="#000" d="M0 146.539h47.835v-5.084h-3.592c-6.992 0-8.675-1.908-8.675-8.883v-63.07C40.443 61.244 47 55.952 55.26 55.952c10.375 0 16.725 7.617 16.725 22.017v54.619c0 6.991-1.7 8.883-8.467 8.883h-3.816v5.084h46.776v-5.084h-3.383c-6.992 0-8.676-1.908-8.676-8.883v-56.96c0-1.908 0-3.816-.208-5.709 4.65-8.467 11.642-13.967 19.9-13.967 10.376 0 16.726 7.617 16.726 22.017v54.619c0 6.991-1.7 8.883-8.467 8.883h-3.817v5.084h46.777v-5.084h-3.175c-7.2 0-8.884-1.908-8.884-8.883v-56.96c0-21.376-12.059-33.226-29.634-33.226-13.118 0-24.551 7.2-30.693 21.584-3.592-13.967-14.176-21.584-28.16-21.584-12.491 0-23.283 6.767-29.216 20.317V44.935H0v5.084h4.233c7.2 0 8.884 1.908 8.884 8.884v73.669c0 6.991-1.7 8.883-8.884 8.883H0v5.084ZM193.473 28.002c7.617 0 13.967-6.35 13.967-13.968 0-7.617-6.35-13.967-13.967-13.967-7.617 0-13.967 6.35-13.967 13.967 0 7.617 6.35 13.968 13.967 13.968Zm-23.701 118.537h46.985v-5.084h-3.175c-6.992 0-8.676-1.908-8.676-8.883V44.935h-35.567v5.084h4.233c7.2 0 8.884 1.908 8.884 8.884v73.669c0 6.991-1.7 8.883-8.884 8.883h-3.816v5.084h.016Zm81.286-59.686h13.55c-3.384-2.116-4.65-5.083-6.35-10.583l-5.084-18.843c-2.325-8.466-4.233-12.492-13.55-12.492h-19.467v5.084h2.758c5.708 0 6.35 2.117 8.05 8.467l4.442 16.517c2.325 8.05 5.933 11.85 15.667 11.85h-.016Zm31.334 0h13.55c9.734 0 13.117-3.816 15.459-11.85l4.442-16.517c1.699-6.35 2.533-8.467 8.05-8.467h2.758v-5.084h-19.259c-9.526 0-11.434 3.817-13.551 12.492l-5.083 18.843c-1.7 5.708-2.983 8.467-6.366 10.583Zm-17.784 17.784h17.784V86.853h-17.784v17.784Zm-44.451 41.918h19.467c9.317 0 11.225-4.025 13.55-12.492l5.084-18.842c1.7-5.501 2.966-8.467 6.35-10.584h-13.55c-9.734 0-13.342 3.817-15.667 11.851l-4.442 16.517c-1.7 6.35-2.326 8.466-8.05 8.466h-2.758v5.084h.016Zm87.203 0h19.259v-5.084h-2.758c-5.501 0-6.351-2.116-8.05-8.466l-4.442-16.517c-2.326-8.05-5.709-11.851-15.459-11.851h-13.518c3.383 2.117 4.618 4.875 6.318 10.584l5.083 18.842c2.117 8.675 4.025 12.492 13.551 12.492h.016Zm22.017 42.335h49.102v-5.084h-5.084c-6.767 0-8.467-1.908-8.467-8.884v-40.426c6.142 9.108 16.517 14.609 28.785 14.609 23.075 0 41.485-20.318 41.485-55.452 0-31.752-17.351-51.22-39.801-51.22-13.118 0-24.134 7.618-30.485 21.168V44.968h-35.567v5.083h4.233c6.992 0 8.884 1.908 8.884 8.884v115.971c0 6.992-1.908 8.884-8.884 8.884h-4.233v5.084l.032.016Zm58.002-133.355c13.758 0 24.984 12.91 24.984 38.518 0 27.935-10.376 43.185-24.551 43.185-9.109 0-17.143-4.875-22.868-13.342V71.395c5.501-10.375 13.342-15.876 22.435-15.876v.016Zm81.286 93.137c13.758 0 24.759-6.559 33.017-21.376v2.325c0 12.7 8.05 18.201 21.376 18.201 4.025 0 9.109-.417 12.492-1.476v-5.291c-1.7.416-2.967.641-4.233.641-5.292 0-6.992-3.175-6.992-8.259v-54.2c0-24.985-13.967-36.835-37.46-36.835-15.667 0-30.901 7.2-40.635 14.817l3.384 5.933c10.167-6.991 20.109-11 30.901-11 13.967 0 21.167 7.617 21.167 25.4v4.65L475.64 92.37c-23.701 9.733-32.392 18.842-32.392 32.601 0 13.758 9.733 23.701 25.4 23.701h.017Zm-3.176-29.218c0-10.583 6.142-18.201 18.634-23.7l17.575-7.618v33.018c-6.558 9.108-14.175 14.4-22.434 14.4-8.258 0-13.759-5.709-13.759-16.084l-.016-.016Zm74.295 27.101h48.268v-5.084h-4.025c-6.992 0-8.676-1.908-8.676-8.883V69.711c4.875-8.467 12.059-13.759 20.526-13.759 11.001 0 17.992 7.617 17.992 22.017v54.619c0 6.991-1.699 8.883-8.467 8.883h-4.025v5.084h48.044v-5.084h-4.234c-7.2 0-8.883-1.908-8.883-8.883v-56.96c0-21.376-12.701-33.226-30.693-33.226-13.117 0-24.134 6.767-30.276 20.317V44.935h-35.567v5.084h4.233c7.2 0 8.884 1.908 8.884 8.884v73.669c0 6.991-1.7 8.883-8.884 8.883h-4.233v5.084l.016.016Zm164.672 2.534c13.967 0 27.101-6.351 36.626-13.968l-3.175-4.65c-8.467 6.142-17.992 8.884-26.876 8.884-21.585 0-34.285-15.234-34.285-44.869V90.67h66.886c-.417-28.576-17.993-48.044-43.602-48.044-25.609 0-46.151 23.076-46.151 53.56 0 33.451 19.051 52.919 50.593 52.919l-.016-.016Zm-4.233-101.187c12.7 0 20.525 13.759 21.808 37.043h-44.868c1.908-23.493 10.792-37.043 23.076-37.043h-.016Zm48.043 98.637h49.102v-5.084h-4.875c-6.992 0-8.675-1.908-8.675-8.883V2.601H748.25v5.083h4.233c6.992 0 8.884 1.908 8.884 8.884v116.004c0 6.991-1.908 8.883-8.884 8.883h-4.233v5.084h.016Z"/>
</svg>
