<svg fill="none" height="22" viewBox="0 0 122 22" width="122" xmlns="http://www.w3.org/2000/svg" xmlns:xlink="http://www.w3.org/1999/xlink"><clipPath id="a"><path d="m0 .833374h122v20.3333h-122z"/></clipPath><g clip-path="url(#a)"><path clip-rule="evenodd" d="m15.7399 9.15433c-.0857-.08564-.1339-.20185-.1339-.32302 0-.12118.0482-.23739.1339-.32303l3.3476-3.34945c.1787-.17864.4683-.17864.647 0l6.7636 6.76357c.4932.5123.4887 1.3242-.0102 1.831l-6.9429 6.9438c-.0856.0861-.202.1347-.3235.1349h-6.7017c-.1885.0001-.3576-.1157-.4258-.2915-.0681-.1758-.0212-.3754.1181-.5024l6.8819-6.8856c.0853-.0853.1333-.201.1333-.3216 0-.1207-.048-.2364-.1333-.3217l-3.355-3.35497zm-4.6138 3.35867c.0857.0857.1339.2019.1339.323 0 .1212-.0482.2374-.1339.3231l-3.34763 3.3494c-.17866.1787-.46831.1787-.64697 0l-6.765455-6.76358c-.492334-.51241-.487418-1.32359.011091-1.83l6.943834-6.945682c.08591-.085629.20219-.133805.32348-.134015h6.70075c.1885-.000045.3577.115775.4258.291547.0682.17577.0213.37535-.118.50238l-6.88192 6.8856c-.0851.08551-.13322.20101-.13402.32164 0 .11738.04621.23476.13402.32256l3.35502 3.35495zm23.729.1525c.6941.6322 1.7681 1.0111 2.7986 1.0111.7385 0 1.3059-.3586 1.3059-.8632 0-1.5361-4.9465-.9899-4.9465-4.27462 0-1.95754 1.8947-3.17847 3.916-3.17847 1.3263 0 2.7783.50649 3.4521 1.03146l-1.2838 1.97788c-.5268-.37709-1.22-.69318-1.9594-.69318-.757 0-1.3891.29575-1.3891.82257 0 1.32352 4.9483.79762 4.9483 4.33656 0 1.9566-1.9159 3.1572-4.0629 3.1572-1.4113 0-2.9068-.4852-4.1064-1.3679zm11.1565-.463c.5656.7984 1.4856 1.2701 2.464 1.2634 1.5361 0 2.6951-1.1793 2.6951-2.7792 0-1.47414-1.0314-2.79858-2.6322-2.79858-.9943-.00322-1.9315.46434-2.5269 1.26066zm-2.7357-6.63054h2.6313v.81981c.7994-.65252 1.8318-1.03146 2.989-1.03146 2.7801 0 5.0112 2.31616 5.0112 5.32639 0 1.3901-.4843 2.6526-1.2847 3.5796-.9057 1.0527-2.3568 1.7265-3.8735 1.7265-1.0314 0-1.9159-.2958-2.7376-.927v5.7691h-2.7357zm18.7833 3.78847c-.085-.90575-.9057-1.79025-2.0213-1.79025-1.1368 0-2.0638.86416-2.1904 1.79025zm2.5482 4.79957c-.9899 1.1794-2.611 1.8328-4.1905 1.8328-3.0528 0-5.3477-2.1054-5.3477-5.307 0-2.84112 1.9363-5.32549 4.9687-5.32549 2.8217 0 4.8218 2.37993 4.8218 5.22199 0 .2726-.0213.5471-.0638.7782h-7.0732c.1469 1.4326 1.3032 2.4206 2.757 2.4206 1.1581 0 2.0842-.6507 2.5694-1.1775zm1.8318 1.6221v-10.21014h2.6323v.81981c.811-.671 1.8319-1.03603 2.8845-1.03146 1.4095 0 2.6951.63126 3.5371 1.64238.6728.79855 1.0518 1.83 1.0518 3.57961v5.1998h-2.7358v-5.4105c0-1.01117-.231-1.53798-.6118-1.91692-.3577-.35769-.9049-.56656-1.5361-.56656-1.1581 0-2.1064.73477-2.4853 1.26066v6.63332zm19.4784-6.63332c-.5952-.79656-1.5325-1.26417-2.5269-1.26066-1.6007 0-2.6313 1.32444-2.6313 2.79768 0 1.5999 1.1572 2.7801 2.6942 2.7801.9785.0072 1.8987-.4646 2.464-1.2634zm.1045 6.63332v-.8208c-.8429.7163-1.8097 1.0315-2.8421 1.0315-1.5157 0-2.9474-.6747-3.8522-1.7265-.8497-.9988-1.3131-2.2692-1.306-3.5805 0-3.00933 2.2311-5.32549 5.0113-5.32549 1.1155 0 2.0832.31609 2.8836.94643v-5.473366h2.7376v14.948726zm11.2572-6.42167c-.0841-.90575-.9057-1.79025-2.0213-1.79025-1.1368 0-2.0638.86416-2.1895 1.79025zm2.5463 4.79957c-.9889 1.1794-2.61 1.8328-4.1886 1.8328-3.0528 0-5.3477-2.1054-5.3477-5.307 0-2.84112 1.9363-5.32549 4.9687-5.32549 2.8208 0 4.821 2.37993 4.821 5.22199 0 .2726-.02.5471-.062.7782h-7.0742c.146 1.4326 1.3041 2.4206 2.757 2.4206 1.1581 0 2.0851-.6507 2.5694-1.1775zm2.8194-1.4945c.695.6322 1.769 1.0111 2.801 1.0111.737 0 1.305-.3586 1.305-.8632 0-1.5361-4.948-.9899-4.948-4.27462 0-1.95754 1.894-3.17847 3.916-3.17847 1.326 0 2.78.50649 3.453 1.03146l-1.284 1.97788c-.526-.37709-1.221-.69318-1.959-.69318-.758 0-1.39.29575-1.39.82257 0 1.32352 4.949.79762 4.949 4.33656 0 1.9566-1.916 3.1572-4.063 3.1572-1.412 0-2.906-.4852-4.106-1.3679zm13.324-2.5047 5.623 5.6213h-3.685l-4.317-4.4216v4.4216h-2.736v-14.948726h2.736v8.042756l3.516-3.30417h3.854z" fill="#6000d7" fill-rule="evenodd"/></g></svg>