<svg fill="none" height="36" viewBox="0 0 108 36" width="108" xmlns="http://www.w3.org/2000/svg" xmlns:xlink="http://www.w3.org/1999/xlink"><clipPath id="a"><path d="m0 .124878h108v35.8002h-108z"/></clipPath><g clip-path="url(#a)"><path d="m56.623 35.5048v-9.4409h-8.4659v9.4409h-2.4553v-20.465h2.4553v8.8685h8.4659v-8.8685h2.4106v20.465zm6.4848 0v-20.465h2.4552v20.465zm6.4758 0v-20.465h10.5231v2.178h-8.05v6.7084h7.8533v2.1779h-7.8712v9.3917zm17.473 0v-18.287h-4.8792v-2.178h12.1868v2.178h-4.8836v18.287zm8.5822-2.2093 1.3417-1.8694c.5841.7042 1.315 1.2724 2.1415 1.6649.8266.3924 1.729.5995 2.644.607 2.576 0 3.743-1.6279 3.743-3.3765 0-4.9687-9.2664-3.6494-9.2664-10.2459 0-3.1306 2.4865-5.3667 5.8904-5.3667 2.271 0 4.141.7692 5.46 2.178l-1.257 1.8425c-.536-.5953-1.194-1.068-1.93-1.3859-.735-.318-1.531-.4737-2.332-.4566-1.9 0-3.3449 1.2254-3.3449 3.0679 0 4.3247 9.2619 3.3765 9.2619 10.2146 0 3.0053-1.963 5.7066-6.225 5.7066-1.147.0354-2.2878-.1768-3.3451-.6221s-2.0062-1.1133-2.7821-1.9584zm-64.9547 0 1.3417-1.8694c.5841.7042 1.3149 1.2724 2.1415 1.6649.8265.3924 1.7288.5995 2.6437.607 2.576 0 3.7433-1.6279 3.7433-3.3765.0089-4.9732-9.2486-3.6539-9.2486-10.2504 0-3.1306 2.4866-5.3667 5.89-5.3667 2.2719 0 4.1412.7692 5.4606 2.178l-1.2567 1.8425c-.5384-.5975-1.1996-1.0716-1.9383-1.3897-.7388-.318-1.5376-.4725-2.3417-.4528-1.9007 0-3.3452 1.2254-3.3452 3.0679 0 4.3247 9.262 3.3766 9.262 10.2146 0 3.0054-1.9633 5.7066-6.2254 5.7066-1.1463.036-2.287-.1755-3.3443-.62-1.0573-.4446-2.0064-1.1117-2.7826-1.956z" fill="#020202"/><g clip-rule="evenodd" fill-rule="evenodd"><path d="m24.7713 17.343h-12.5491v-2.4598h15.8764v1.7889l-9.5348 19.2306h-3.2245z" fill="#020202"/><path d="m20.6349 3.17047c.0211-.05278.0331-.10871.0358-.16547 0-.11181 0-.25045-.0448-.25045h1.8426c.3411-.02453.6606-.17585.8956-.42416.2351-.24831.3687-.57563.3745-.91751v-.25492c-.0089-.657414-.5769-1.033082-1.2746-1.033082h-7.965c-.7022 0-1.2701.375668-1.2701 1.033082v.24598c.0058.34188.1394.66919.3745.9175.235.24832.5545.39963.8956.42417h1.5787c-.0313 0-.0447.13864-.0447.25044-.0046.03863-.0046.07766 0 .11628-3.8719.50385-7.49383 2.19065-10.37115 4.83001-3.64934 3.32736-5.66185 7.67436-5.66185 12.24496 0 6.9901 4.32465 13.0321 10.5187 15.7155l1.2343-2.3882c-5.33534-2.2495-9.06966-7.3747-9.06966-13.3273 0-8.3049 8.10816-14.50791 15.35316-14.50791 3.9115.02991 7.7065 1.3347 10.8094 3.71643l1.2075-2.45526c-2.7768-2.0209-6.0142-3.31676-9.4185-3.77009z" fill="#fb7448"/></g></g></svg>