<svg width="109" height="30" viewBox="0 0 109 30" fill="none" xmlns="http://www.w3.org/2000/svg">
<path d="M43.3156 21.1068L41.8079 17.3005H36.5927L35.085 21.0821H32.8853L38.2364 7.63628H40.1643L45.5154 21.1192L43.3156 21.1068ZM39.2003 10.7382L37.3713 15.3726H41.0788L39.2003 10.7382ZM53.6595 19.5249C53.3168 20.0941 52.8274 20.5607 52.2426 20.8759C51.6578 21.1912 50.999 21.3435 50.3351 21.3169C49.6925 21.3272 49.0568 21.1831 48.4814 20.8967V25.358H46.5164V11.7639H48.4814V12.0482C49.0568 11.7618 49.6925 11.6177 50.3351 11.628C50.999 11.6014 51.6578 11.7537 52.2426 12.069C52.8274 12.3842 53.3168 12.8508 53.6595 13.42C54.1535 14.3712 54.3759 15.4402 54.3021 16.5095C54.3575 17.5537 54.1358 18.594 53.6595 19.5249ZM51.9417 14.3468C51.7715 14.081 51.5319 13.8668 51.2487 13.7273C50.9655 13.5879 50.6496 13.5286 50.3351 13.5559C50.0202 13.5244 49.7027 13.5818 49.4187 13.7216C49.1348 13.8614 48.8957 14.078 48.7286 14.3468C48.5868 14.6148 48.5026 14.9095 48.4814 15.2119V17.6836C48.503 17.9859 48.5871 18.2805 48.7286 18.5486C48.9135 18.7991 49.1547 19.0026 49.4327 19.1428C49.7106 19.2831 50.0176 19.3561 50.329 19.3561C50.6403 19.3561 50.9473 19.2831 51.2252 19.1428C51.5032 19.0026 51.7444 18.7991 51.9294 18.5486C52.2397 17.8942 52.3719 17.1695 52.3125 16.4477C52.3678 15.7274 52.2403 15.0047 51.9417 14.3468ZM62.8788 19.5249C62.5361 20.0941 62.0467 20.5607 61.4619 20.8759C60.877 21.1912 60.2183 21.3435 59.5544 21.3169C58.9118 21.3272 58.2761 21.1831 57.7007 20.8967V25.358H55.7357V11.7639H57.7007V12.0482C58.2761 11.7618 58.9118 11.6177 59.5544 11.628C60.2183 11.6014 60.877 11.7537 61.4619 12.069C62.0467 12.3842 62.5361 12.8508 62.8788 13.42C63.3728 14.3712 63.5951 15.4402 63.5214 16.5095C63.5767 17.5537 63.355 18.594 62.8788 19.5249ZM61.161 14.3468C60.9908 14.081 60.7512 13.8668 60.468 13.7273C60.1848 13.5879 59.8689 13.5286 59.5544 13.5559C59.2395 13.5244 58.922 13.5818 58.638 13.7216C58.354 13.8614 58.1149 14.078 57.9478 14.3468C57.8064 14.6149 57.7222 14.9095 57.7007 15.2119V17.6836C57.7226 17.9859 57.8067 18.2804 57.9478 18.5486C58.1328 18.7991 58.374 19.0026 58.652 19.1428C58.9299 19.2831 59.2369 19.3561 59.5482 19.3561C59.8596 19.3561 60.1666 19.2831 60.4445 19.1428C60.7225 19.0026 60.9637 18.7991 61.1486 18.5486C61.459 17.8942 61.5911 17.1695 61.5317 16.4477C61.5871 15.7274 61.4596 15.0047 61.161 14.3468ZM75.027 17.3005C74.545 20.526 72.3082 21.1068 69.4287 21.1068H65.1527V7.63628H69.4163C72.2958 7.63628 74.5326 8.1924 75.0146 11.4426C75.1364 12.4181 75.19 13.4009 75.1753 14.3839C75.1925 15.3583 75.143 16.3328 75.027 17.3005ZM69.4163 9.62596H67.1918V19.1048H69.4163C73.2597 19.1048 73.1238 17.7948 73.1238 14.3715C73.1238 10.9483 73.2597 9.62596 69.4163 9.62596ZM77.0908 21.1068V11.5662H79.0805V21.1068H77.0908ZM77.0908 9.88549V7.53741H79.0805V9.88549H77.0908ZM86.1618 13.8525C85.7944 13.6104 85.3659 13.4775 84.926 13.4694C84.135 13.4694 83.134 13.939 83.134 14.8412V21.1192H81.1567V11.6651H83.0846V11.9493C83.6474 11.6944 84.2586 11.5637 84.8765 11.5662C85.6182 11.5726 86.3489 11.7458 87.0145 12.0729L86.1618 13.8525ZM89.239 17.1522C89.2504 17.6381 89.382 18.1136 89.6221 18.5363C89.8547 18.8261 90.1534 19.0559 90.4931 19.2065C90.8329 19.357 91.2038 19.4238 91.5747 19.4014C91.9524 19.4199 92.3292 19.3516 92.6763 19.2016C93.0234 19.0516 93.3314 18.824 93.5768 18.5363L95.1586 19.7721C94.7087 20.2713 94.1543 20.6653 93.5349 20.9259C92.9154 21.1865 92.2462 21.3073 91.5747 21.2798C90.8738 21.3198 90.174 21.1836 89.5393 20.8835C88.9047 20.5834 88.3553 20.1291 87.9414 19.562C87.3976 18.6046 87.1443 17.5096 87.2122 16.4107C87.1443 15.3117 87.3976 14.2167 87.9414 13.2593C88.3274 12.7078 88.8479 12.264 89.4534 11.9698C90.0589 11.6757 90.7295 11.541 91.4017 11.5786C92.0396 11.5593 92.6717 11.705 93.2367 12.0016C93.8018 12.2982 94.2807 12.7357 94.6272 13.2717C95.1801 14.4809 95.3814 15.8215 95.208 17.1398L89.239 17.1522ZM92.9465 14.3098C92.7795 14.0451 92.5448 13.8299 92.2666 13.6865C91.9885 13.5431 91.6771 13.4767 91.3646 13.4941C91.1122 13.4703 90.8576 13.4965 90.6153 13.5712C90.373 13.6459 90.1479 13.7677 89.9527 13.9296C89.7576 14.0914 89.5962 14.2902 89.478 14.5145C89.3598 14.7388 89.287 14.9842 89.2637 15.2366H93.1813C93.1758 14.9178 93.1086 14.6031 92.9836 14.3098H92.9465ZM100.658 21.2675C97.9145 21.2675 96.2956 19.2036 96.2956 16.3241C96.2956 13.4447 97.9145 11.3808 100.658 11.3808C101.368 11.3756 102.069 11.5414 102.701 11.864C103.333 12.1867 103.879 12.6568 104.291 13.2346L102.845 14.4704C101.807 13.3458 101.375 13.2346 100.658 13.2346C100.305 13.2165 99.9539 13.2861 99.6347 13.4371C99.3156 13.588 99.0388 13.8157 98.829 14.0997C98.4251 14.7582 98.2471 15.5306 98.3223 16.2994C98.2369 17.0807 98.4153 17.8681 98.829 18.5363C99.0364 18.8228 99.3128 19.0523 99.6325 19.2035C99.9523 19.3547 100.305 19.4228 100.658 19.4014C101.375 19.4014 101.795 19.2407 102.845 18.1655L104.291 19.4014C103.879 19.98 103.334 20.4513 102.702 20.776C102.069 21.1007 101.369 21.2692 100.658 21.2675ZM105.428 11.5662V9.34172L107.319 9.02041V11.5662H109V13.3458H107.319V18.5981C107.3 18.7375 107.3 18.8788 107.319 19.0183C107.338 19.0636 107.371 19.1016 107.413 19.1262C107.456 19.1508 107.505 19.1606 107.554 19.1542H108.79V21.1068H107.554C107.197 21.1171 106.844 21.0335 106.529 20.8643C106.215 20.6951 105.95 20.4464 105.762 20.1429C105.502 19.6713 105.382 19.1354 105.416 18.5981V11.5662H105.428Z" fill="#009FDF"/>
<path d="M1.59422 23.5043L9.63946 19.9946L13.5323 8.46431L9.59002 2.21103L1.59422 23.5043ZM9.41701 0.208984L19.2913 15.8175L25.0873 13.2964L15.831 0.208984H9.41701ZM29.2891 12.4931L0 25.1974L6.24093 29.461L25.8782 21.1192L29.2891 12.4931Z" fill="#009FDF"/>
</svg>
