<svg fill="none" height="56" viewBox="0 0 69 56" width="69" xmlns="http://www.w3.org/2000/svg"><path d="m64.9849 1.85999h-60.82781c-1.53047.00249-2.7658 1.24903-2.76206 2.77825v46.72356c-.00374 1.5267 1.23159 2.7695 2.76206 2.7795h60.82531c1.5255-.0112 2.7595-1.254 2.7558-2.7795v-46.72356c.0062-1.52673-1.2279-2.76954-2.7533-2.77825z" fill="#000"/><g fill="#fff"><path d="m65.0051 55.3965h-60.86638c-2.21289-.0099-4.002386-1.8106-3.993669-4.021v-46.75223c-.008717-2.21289 1.780779-4.009853 3.993669-4.019815h60.86388c2.2104.008717 3.9999 1.806925 3.9974 4.019815v46.75223c.0012 2.2104-1.7857 4.0086-3.9949 4.021zm-60.86638-53.55273c-1.53047.00249-2.76829 1.25028-2.76455 2.7795v46.75223c-.00374 1.5279 1.23283 2.772 2.76455 2.7819h60.86388c1.5267-.0112 2.7621-1.2552 2.7583-2.7819v-46.75223c.0038-1.52922-1.2316-2.77203-2.7583-2.7795z"/><path d="m57.3676 39.9648c-.6202-.01-1.1295.4981-1.1332 1.1195-.0037.6227.4994 1.127 1.1195 1.1295.6202.005 1.1258-.4944 1.1295-1.117.0025-.6189-.4969-1.1245-1.1158-1.127zm0 .1818c.523-.0012.9552.4309.9576.9452.0025.5255-.4234.9539-.9464.9564-.5267.0025-.9452-.4209-.9551-.9427-.0013-.5255.4184-.9502.9439-.9527"/><path d="m57.3678 40.6622h-.2379v.3848h.2802c.1295 0 .1955-.0536.1955-.1968 0-.137-.0822-.1905-.2378-.188zm.3499.8941c.01.01.01.0212.01.0324 0 .0174-.01.0361-.0262.0485-.0137.0088-.0274.0175-.0411.0175-.0261-.0025-.0535-.0175-.0685-.0374l-.2191-.4346h-.2429v.406c0 .0324-.0286.066-.0685.066-.0361.0025-.0685-.0274-.0697-.0635v-.9539c0-.061.0548-.1109.1133-.1146h.2565c.269 0 .3886.1146.3886.3263.0199.1457-.0772.2851-.2204.32z"/><path d="m19.3959 42.215h-5.2614c-.4906-.0025-.8866-.3985-.8866-.8966v-10.6784c-.0212-.4969.3611-.9066.8505-.924.4919-.0212.9029.3661.924.8468v.0112c.0025.0236.0025.0535 0 .0672v9.7906h4.3748c.4931.0174.8767.4333.8567.9252-.0174.4658-.391.8431-.858.858z"/><path d="m24.2351 41.3185c.0025.4931-.3947.8941-.8841.8941-.4882 0-.8879-.396-.8879-.8941v-9.7906h-1.1756c-.4931-.0224-.8767-.4308-.8555-.9227.0199-.4645.3898-.8406.8555-.858h2.0635c.4918.0012.8866.396.8866.8879z"/><path d="m35.7352 40.4965c0 .8394-.5155 1.5155-1.3001 1.6762-.112.0261-.2179.0398-.3399.0398-.675-.0149-1.2727-.4308-1.523-1.0535l-4.0248-9.128v9.2849c.0174.4869-.3612.9016-.8518.9215-.4894.0212-.9041-.3636-.9203-.8443 0 0 0-.0087 0-.0099-.0025-.0237-.0025-.0473 0-.0685v-9.8453c0-.8443.5143-1.5205 1.3001-1.6837.782-.1656 1.523.2404 1.863 1.0112l4.0248 9.1293v-9.2937c-.0187-.4919.3574-.9003.848-.919.4956-.0249.9066.3562.924.8356v.0187.066z"/><path d="m40.0357 41.3184c0 .4932-.3972.8942-.8879.8942-.4919 0-.8829-.4023-.8841-.8942v-10.6821c.0012-.4932.396-.8817.8879-.8817.4894.0013.8841.3885.8841.8817z"/><path d="m46.2286 42.0308c-.3861.3014-.9415.2291-1.2429-.1669h-.0024l-4.0722-5.3186c-.2353-.3163-.2403-.7385-.0174-1.0685l3.8492-5.356c.2864-.3948.8393-.4882 1.2353-.2043.3923.2927.482.8481.2005 1.2466l-3.4594 4.818 3.6687 4.7932c.2963.396.2216.9526-.1644 1.2552"/><path d="m55.2365 40.7867c-.5044.6538-1.5205 1.4284-3.503 1.4284h-2.6724c-.4919 0-.8854-.3973-.8854-.8966 0-.4782.3935-.8755.8854-.878h2.6724c1.0074 0 1.7347-.259 2.1095-.7409.2864-.4085.3736-.9278.2279-1.4097-.1856-.7347-.4433-.863-1.9614-1.3349-.3785-.1171-.8057-.2491-1.2888-.4197-1.2192-.4309-2.8368-1.2515-2.8368-3.4196 0-.9639.2976-1.7795.8717-2.3536.6563-.6762 1.6363-1.0112 2.914-1.0112h2.5205c.4919 0 .8866.391.8866.8854 0 .4919-.3947.8867-.8866.8867h-2.5218c-1.7845 0-2.0248.8007-2.0248 1.5927 0 .5853.1295 1.2055 1.6562 1.7459.4521.1594.863.2852 1.2229.3985 1.513.4695 2.7197.8368 3.1531 2.589.2727 1.066.0735 2.1357-.5429 2.9351"/><path d="m29.3533 13.7239h4.4607c.4944.0013.8904.3998.8904.8942-.0013.4894-.3973.8891-.8904.8903h-1.3263v9.7831c-.0037.4906-.3985.8854-.8904.8842-.4894 0-.8816-.3936-.8854-.8842v-9.7831h-1.3623c-.4931-.0012-.8892-.4072-.8892-.8953 0-.4919.3985-.8879.8892-.8892"/><path d="m11.3887 14.6156c0-.4919.3873-.8879.8854-.8917h1.8617c.4907 0 .8879.3998.8879.8904v10.676c.0237.4906-.3599.9128-.8418.9289-.4956.0212-.9103-.3536-.9328-.8505-.0024-.0025-.0024-.0075-.0024-.0112 0-.0187 0-.0361 0-.0685v-9.783h-.9813c-.4907 0-.8767-.401-.8767-.8904z"/><path d="m26.798 24.4634c0 .8393-.5155 1.5155-1.2988 1.6811-.787.1656-1.5728-.2615-1.8617-1.0161l-4.0286-9.1256v9.2874c.0262.4895-.3574.9091-.848.9278-.4982.0224-.8991-.3562-.9215-.853 0-.0025 0-.0063-.0025-.0075-.0013-.0199-.0013-.0361 0-.0685v-9.8578c0-.843.5168-1.5205 1.3013-1.6786.7821-.1594 1.528.2416 1.863 1.0124l4.026 9.128v-9.2911c0-.4907.3973-.8854.8842-.8854.4906 0 .8841.3947.8841.8854v9.859h.0025z"/><path d="m46.7737 26.1856c-.0847 0-.1656-.01-.2441-.0324-.4695-.137-.7372-.6264-.6002-1.0996l2.9401-10.1591c.2043-.6999.873-1.1681 1.6662-1.1681.7958 0 1.4682.467 1.6725 1.1668l2.9326 10.1616c.1383.4733-.1257.9589-.5927 1.0959-.4682.1395-.9601-.1258-1.0996-.5952-.0013 0-.0013-.0025-.0013-.005l-2.909-10.0521h-.0099l-2.9053 10.0521c-.1096.386-.4533.6388-.8481.6413"/><path d="m42.7478 17.6055c.0012-1.1569-.9315-2.0983-2.0909-2.102h-2.5105v4.2053h2.5055c1.1607-.0037 2.0946-.9452 2.0921-2.1033zm-4.6051 7.686c.0012.4906-.3935.8854-.8854.8879-.4894.0012-.8867-.3885-.8867-.8842v-.0037-10.6747c0-.4471.33-.8269.7771-.8842.0311-.0062.0685-.0099.1046-.0099h3.4021c2.1494.0112 3.8741 1.7608 3.8617 3.9077-.0075 1.6488-1.0535 3.1108-2.6114 3.6512l2.2515 3.5305c.264.4146.1469.9638-.2628 1.2303-.4184.269-.9638.1445-1.2266-.2665v-.0025l-2.7247-4.2838h-1.7982v3.8019z"/></g></svg>