<svg width="63" height="17" viewBox="0 0 63 17" fill="none" xmlns="http://www.w3.org/2000/svg">
<g clip-path="url(#clip0)">
<path d="M9.89329 0.312057H6.81978L0 11.4034C0 11.4034 2.56663 16.2187 8.33119 16.2279C14.0957 16.2372 16.6762 11.4311 16.6762 11.4311L9.89329 0.312057ZM4.08265 11.3712L8.34962 4.42696L12.5935 11.3712H4.08265Z" fill="#AC27F9"/>
<path d="M26.4175 2.90634H24.4637L20.6299 13.4355H22.5238L23.3255 11.0624H27.5003L28.2975 13.4355H30.2144L26.4175 2.90634ZM25.4314 4.50069L26.9889 9.47729H23.8555L25.4314 4.50069Z" fill="#121212"/>
<path d="M34.1402 5.8416C33.8064 5.9425 33.5071 6.13428 33.276 6.3955C33.0449 6.65672 32.891 6.97708 32.8316 7.32076V5.93837H31.1865V13.4586H32.8823V9.27453C32.8747 8.96018 32.9399 8.64834 33.073 8.36343C33.2061 8.07853 33.4033 7.8283 33.6492 7.63236C33.8952 7.43642 34.1831 7.30008 34.4905 7.23403C34.798 7.16798 35.1165 7.174 35.4212 7.25164V5.79553C34.9946 5.74027 34.5618 5.75583 34.1402 5.8416Z" fill="#121212"/>
<path d="M55.3737 10.1316C55.3277 11.1684 54.9729 12.1729 53.6596 12.2605C52.2127 12.3573 52.056 11.2467 52.0606 10.2468V5.91994H50.3511V10.8735C50.3511 11.6845 50.5677 13.6383 52.8993 13.6383C54.3876 13.6383 55.1157 12.9425 55.4567 12.4033V13.4447H57.0418V5.92455H55.3691L55.3737 10.1316Z" fill="#121212"/>
<path d="M39.0111 11.3159V7.22399H40.9695V5.84161H39.0204V3.58831H37.3799V5.81857H36.1035V7.22399H37.3707V11.3712C37.3707 12.5554 37.8315 13.5645 39.7392 13.5645C40.1562 13.5753 40.5729 13.5319 40.9787 13.4355V12.0992C40.6504 12.1459 40.3196 12.1736 39.988 12.1822C39.8655 12.1972 39.7411 12.186 39.6232 12.1493C39.5053 12.1126 39.3966 12.0512 39.3042 11.9693C39.2118 11.8874 39.1379 11.7868 39.0874 11.6741C39.0369 11.5614 39.0109 11.4393 39.0111 11.3159Z" fill="#121212"/>
<path d="M46.3608 5.70798C45.8634 5.67583 45.3665 5.7767 44.9211 6.00022C44.4757 6.22374 44.0978 6.56184 43.8264 6.97977V2.90634H42.1353V13.4447H43.8356V9.44964C43.8356 8.3299 44.1766 7.29772 45.5728 7.20556C46.969 7.1134 47.1718 8.12715 47.1718 9.1363V13.4493H48.9274V8.38059C48.9136 7.74009 48.6878 5.71258 46.3608 5.70798Z" fill="#121212"/>
<path d="M61.7467 5.8416C61.4128 5.9425 61.1136 6.13428 60.8825 6.3955C60.6514 6.65672 60.4975 6.97708 60.438 7.32076V5.93837H58.793V13.4586H60.4887V9.27453C60.4811 8.96018 60.5464 8.64834 60.6794 8.36343C60.8125 8.07853 61.0097 7.8283 61.2557 7.63236C61.5016 7.43642 61.7896 7.30008 62.097 7.23403C62.4044 7.16798 62.723 7.174 63.0277 7.25164V5.79553C62.6011 5.74027 62.1682 5.75583 61.7467 5.8416Z" fill="#121212"/>
</g>
<defs>
<clipPath id="clip0">
<rect width="63" height="15.9159" fill="white" transform="translate(0 0.312057)"/>
</clipPath>
</defs>
</svg>
