<svg fill="none" height="28" viewBox="0 0 122 28" width="122" xmlns="http://www.w3.org/2000/svg" xmlns:xlink="http://www.w3.org/1999/xlink"><clipPath id="a"><path d="m0 .791138h122v26.2532h-122z"/></clipPath><g clip-path="url(#a)"><g fill="#012f51"><path d="m2.77975 21.0215c-1.15823-.3089-2.084813-.7335-2.77975-1.1968l.810759-1.8146c.308861-.7335 1.158231-1.081 1.891771-.7335.34747.1544.73355.2702 1.11962.4246.92658.2703 1.85317.4247 2.74114.4247 1.81456 0 2.70253-.4633 2.70253-1.4284 0-.4633-.23164-.7722-.73354-.9652-.5019-.1931-1.23544-.3475-2.27785-.5019-1.19683-.1931-2.20063-.4247-2.97278-.6564-.77216-.2702-1.46709-.6949-2.04621-1.3512-.579111-.6564-.849364-1.4285-.849364-2.6253 0-1.00385.270253-1.89182.810764-2.62537.5405-.77215 1.31265-1.35126 2.35506-1.77595 1.0424-.42468 2.23924-.65632 3.62911-.65632 1.04241 0 2.08481.11582 3.08859.34746 1.0424.23165 1.8918.57912 2.5481 1.0038l-.8493 1.81456c-.3089.73354-1.1197 1.0424-1.8146.77215-.96519-.38608-1.93038-.57911-3.0114-.57911-.92658 0-1.58291.15443-2.0462.42468s-.69493.61772-.69493 1.0424c0 .5019.23164.8108.73354 1.0038s1.27405.3861 2.35506.5405c1.19684.2317 2.16203.3475 2.93423.5791.7721.2317 1.4284.695 2.0075 1.3127.5792.6563.8494 1.5443.8494 2.7025 0 .9652-.2702 1.8532-.8107 2.5867-.5406.7722-1.3513 1.3513-2.3937 1.776-1.04242.4247-2.27787.6177-3.70635.6177-1.23544.0386-2.43228-.1158-3.5905-.4633z"/><path d="m31.4272 6.9683c.8493-.34747 1.8531-.5405 2.9728-.5405v2.93417c0 .54051-.4247.92663-.9652.92663-1.2355 0-2.1621.3474-2.857 1.0038-.6949.6949-1.0424 1.6987-1.0424 3.05v6.9107h-4.2468v-14.67087h4.0538v1.93038c.5019-.65633 1.1968-1.19684 2.0848-1.54431z"/><path d="m38.2602 20.5583c-1.2354-.6564-2.2006-1.5443-2.857-2.7026-.6563-1.1582-1.0424-2.4322-1.0424-3.8993s.3475-2.7412 1.0424-3.8994c.695-1.15822 1.6602-2.0462 2.857-2.70253 1.2354-.65633 2.6253-.96519 4.1696-.96519s2.9342.30886 4.131.96519c1.2355.65633 2.1621 1.54431 2.857 2.70253.6949 1.1582 1.0424 2.4323 1.0424 3.8994s-.3475 2.7411-1.0424 3.8993c-.6949 1.1583-1.6601 2.0462-2.857 2.7026-1.2354.6563-2.5867.9652-4.131.9652s-2.9342-.3475-4.1696-.9652zm6.8722-3.6291c.6949-.7336 1.0424-1.7374 1.0424-2.9728 0-1.2355-.3475-2.2393-1.0424-2.9728-.695-.7336-1.583-1.11963-2.7026-1.11963-1.081 0-2.0076.38603-2.7025 1.11963-.6949.7335-1.081 1.7373-1.081 2.9728 0 1.2354.3475 2.2392 1.081 2.9728.6949.7335 1.6215 1.1196 2.7025 1.1196 1.081-.0386 1.969-.3861 2.7026-1.1196z"/><path d="m64.9764 8.04944c1.1196 1.08102 1.6601 2.70256 1.6601 4.86456v6.9494c0 .8107-.6563 1.4284-1.4285 1.4284h-2.8183v-7.7215c0-1.1582-.2703-2.0462-.7722-2.5867-.5019-.5791-1.2354-.8493-2.2006-.8493-1.0811 0-1.9304.3474-2.5481 1.0038-.6178.6563-.9652 1.6601-.9652 2.9727v7.2583h-4.2469v-14.67092h4.0538v1.69873c.5791-.61772 1.2741-1.08101 2.0848-1.42848.8108-.34747 1.7374-.5019 2.7412-.5019 1.8532-.03861 3.3202.5019 4.4399 1.58291z"/><path d="m84.1644 6.62084v12.19996c0 2.7026-.6949 4.6716-2.0848 5.9842-1.3899 1.3127-3.4361 1.969-6.1386 1.969-1.4285 0-2.7798-.1544-4.0152-.5019-1.274-.3475-2.3165-.8494-3.1658-1.5057l.9652-1.7373c.386-.695 1.2354-.9266 1.9304-.5791.3474.193.7335.3474 1.1582.4632.9266.3089 1.8917.4633 2.8183.4633 1.4671 0 2.5481-.3474 3.2431-1.0038.6949-.6563 1.0424-1.6601 1.0424-3.0114v-.6177c-1.1196 1.2355-2.664 1.8146-4.6329 1.8146-1.3513 0-2.5867-.3089-3.7064-.888-1.1196-.5791-2.0076-1.4285-2.6639-2.5095s-.9652-2.3164-.9652-3.7063.3089-2.6253.9652-3.70635c.6563-1.08101 1.5443-1.89177 2.6639-2.50949 1.1197-.57911 2.3551-.88797 3.7064-.88797 2.1234 0 3.7449.69493 4.8645 2.08481v-1.89178h4.0152zm-5.2892 9.49746c.7335-.6563 1.081-1.5443 1.081-2.5867 0-1.081-.3475-1.9304-1.081-2.5867-.7336-.6563-1.6215-1.00381-2.7798-1.00381-1.1196 0-2.0462.34751-2.7797 1.00381-.7336.6563-1.081 1.5443-1.081 2.5867 0 1.081.3474 1.9304 1.081 2.5867.7335.6563 1.6601 1.0038 2.7797 1.0038 1.1583-.0386 2.0848-.3475 2.7798-1.0038z"/><path d="m22.2377 18.126c-.5791 0-1.0424-.1545-1.3513-.5019-.3088-.3475-.4633-.8108-.4633-1.4285v-6.1772h2.2007c.8107 0 1.4284-.65635 1.4284-1.42851v-1.81455h-3.6291v-3.39747h-4.2468v3.35886h-2.2779v3.28167h2.2779v6.2544c0 1.7373.4633 3.05 1.4285 3.938s2.3164 1.3512 4.0538 1.3512c.6563 0 1.3126-.0772 1.9303-.2316.1545-.0386.3475-.0772.5019-.1544v-3.5133c-.5019.2702-1.274.4633-1.8531.4633z"/></g><path d="m120.378 8.08797c-1.081-1.08101-2.548-1.62152-4.401-1.62152-1.313 0-2.471.27026-3.475.81076-.849.46329-1.506 1.04241-2.046 1.81456-.463-.77215-1.042-1.38987-1.815-1.81456-.926-.5405-2.007-.81076-3.243-.81076-1.196 0-2.277.23165-3.243.73355-.579.30886-1.119.69493-1.544 1.19683v-6.33164c0-.69494-.579-1.274052-1.274-1.274052h-1.2741v7.798732c-.5019-.57911-1.1196-1.0424-1.7759-1.38987-.9652-.5019-2.0462-.73355-3.2431-.73355-1.3512 0-2.6253.30886-3.7449.92659-1.1196.61772-2.0076 1.50569-2.6253 2.66396-.6177 1.1196-.9652 2.4322-.9652 3.8607s.3089 2.7412.9652 3.8608c.6177 1.1196 1.5057 2.0462 2.6253 2.6639s2.3937.9652 3.7449.9652c1.2355 0 2.3551-.2703 3.3203-.7722.6563-.3474 1.2354-.8107 1.7373-1.3898v1.6987l.0386.3475h2.5099v-7.7216c0-1.5056.386-2.6639 1.196-3.5132.773-.84941 1.815-1.23548 3.205-1.23548 1.197 0 2.123.34747 2.78 1.0424.656.69498.965 1.73738.965 3.12718v8.3007h2.548v-7.7216c0-1.5056.386-2.6639 1.158-3.5132.772-.84941 1.815-1.23548 3.205-1.23548 1.196 0 2.084.34747 2.741 1.0424.656.69498.965 1.73738.965 3.12718v8.3007h1.12c.772 0 1.428-.6564 1.428-1.4285v-7.0652c.039-2.0462-.502-3.62912-1.583-4.71013zm-27.141 11.00313c-.9266 0-1.776-.2316-2.5095-.6563-.7336-.4247-1.3127-1.0424-1.7374-1.8145-.4246-.7722-.6563-1.6988-.6563-2.7026s.2317-1.9304.6563-2.7025c.4247-.7722 1.0038-1.38989 1.7374-1.81457.7335-.42468 1.5829-.65633 2.5095-.65633s1.7373.23165 2.5095.65633c.7335.42468 1.3126 1.04237 1.7373 1.81457.4247.7721.6563 1.6987.6563 2.7025s-.2316 1.9304-.6563 2.7026c-.4247.7721-1.0038 1.3898-1.7373 1.8145-.7336.4247-1.5829.6563-2.5095.6563z" fill="#00b7ff"/></g></svg>