<svg fill="none" height="62" viewBox="0 0 73 62" width="73" xmlns="http://www.w3.org/2000/svg"><g clip-rule="evenodd" fill="#231f20" fill-rule="evenodd"><path d="m53.212.983978-20.0312 20.135522h-16.9959l-16.1849 16.1849h19.7996v20.1355l20.1355-20.1355h16.88l16.1849-16.1849h-19.788zm-4.0781 9.778122v10.3574h-10.3689zm-31.3155 14.4355h11.2959l-8.0403 8.0287h-11.28428zm17.1118 0h11.2958l-8.1562 8.0287h-11.2842zm16.9958 0h11.2959l-8.0403 8.0287h-11.2843zm-17.691 11.991-10.3574 10.3574v-10.2416z"/><path d="m39.8184 49.4228v11.9793h3.3829c3.6052 0 6.8702-1.157 6.8702-5.9317 0-4.8928-3.265-6.0476-6.8702-6.0476zm2.4445 1.8536h1.4018c1.985 0 3.9507 1.5115 3.9507 4.194 0 2.5644-1.9657 4.0781-3.9507 4.0781h-1.4018z"/><path d="m66.7318 49.3996c-.2816-.0077-.5578.0085-.8341.0232h-4.3098v11.9794h2.4445v-4.4257h.3476 1.4018c1.0408 0 1.3945.3525 1.7378 1.286l1.2976 3.1397h2.908l-1.9811-4.1824c-.3541-.6974-.4749-.9319-1.0543-1.286 0 0 2.0991-.5796 1.9811-2.9079 0-2.8541-1.9675-3.5724-3.9391-3.6263zm-2.6994 1.9927h1.6336c1.2768 0 2.3256.3567 2.4329 1.6336v.336c-.1073 1.2875-1.1561 1.6335-2.4329 1.6335h-1.6336z"/><path d="m52.5142 61.4023h7.103v-1.9743h-4.6675v-10.0109h-2.4355z"/></g></svg>