<svg fill="none" height="56" viewBox="0 0 55 56" width="55" xmlns="http://www.w3.org/2000/svg" xmlns:xlink="http://www.w3.org/1999/xlink"><clipPath id="a"><path d="m0 .5h55v55h-55z"/></clipPath><g clip-path="url(#a)" fill="#31006f"><path d="m16.3486 10.8931h2.9965c1.631.0379 2.9586 1.3655 2.9586 2.9965v5.9173c-.0379 1.631-1.3276 2.9586-2.9586 2.9586h-2.9965z"/><path d="m32.6968 36.1551c0-1.631 1.3276-2.9586 2.9587-2.9586 1.631 0 2.9586 1.3276 2.9586 2.9966v5.462l-1.9724-1.9724-2.0862 2.0862 2.7689 2.769c-.4931.3414-1.062.531-1.6689.531-1.6311 0-2.9587-1.3276-2.9587-2.9586z"/><path clip-rule="evenodd" d="m0 55.5v-55h55v55zm20.8241-22.3035h4.4759v-2.9586h-11.9103v2.9586h4.4379v11.8725h-4.4379v2.9586h11.9103v-2.9586h-4.4759zm-1.4793-7.3965c3.2621-.0379 5.9173-2.6931 5.9173-5.9552v-5.9551c0-3.2621-2.6552-5.91729-5.9173-5.91729h-5.9551v17.82759zm15.5897-10.431c-2.8828.0379-5.1966 2.3517-5.1966 5.2344l-.0379 5.1587h11.9103v-2.9587h-8.9138v-2.2379c0-1.2517 1.0242-2.2379 2.238-2.2379h1.4793c2.6931-.1517 4.8552-2.2759 4.969-4.969.1138-2.8448-2.0862-5.27239-4.969-5.42412h-6.6759v2.95862h6.6759c1.2517 0 2.2379 1.0241 2.2379 2.2379 0 1.2518-1.0241 2.238-2.2379 2.238zm4.5138 31.3689 2.2379 2.238 2.1241-2.1242-2.5793-2.5793c.2655-.6827.3793-1.4034.3793-2.1241v-5.9552c-.0758-3.1862-2.6551-5.7276-5.8034-5.8034-3.3-.0759-6.031 2.5034-6.1069 5.8034v5.9552c0 1.4034.4931 2.731 1.3655 3.7931 2.0862 2.5414 5.8414 2.8827 8.3828.7965z" fill-rule="evenodd"/></g></svg>