<svg fill="none" height="54" viewBox="0 0 54 54" width="54" xmlns="http://www.w3.org/2000/svg" xmlns:xlink="http://www.w3.org/1999/xlink"><mask id="a" height="54" maskUnits="userSpaceOnUse" width="54" x="0" y="0"><path d="m0 0h54v54h-54z" fill="#fff"/></mask><g mask="url(#a)"><path clip-rule="evenodd" d="m46.8437 54h-39.6887c-1.89775-.0004-3.71765-.7545-5.05943-2.0965-1.341785-1.3421-2.09557003-3.1621-2.09557-5.0598v-39.6887c.000358-1.89775.754486-3.71765 2.09652-5.05943 1.34204-1.341785 3.16208-2.09557003 5.05983-2.09557h39.68865c1.8977.000358 3.7176.754486 5.0594 2.09652 1.3418 1.34204 2.0956 3.16208 2.0956 5.05983v39.68865c-.0004 1.8977-.7545 3.7176-2.0965 5.0594-1.3421 1.3418-3.1621 2.0956-5.0598 2.0956z" fill="#23d2aa" fill-rule="evenodd"/></g><path clip-rule="evenodd" d="m38.3331 26.8839c-.3483-.2322-.3483-.6952 0-1.0435 2.0898-2.0885 2.9605-4.7561 2.9605-7.5411 0-6.3221-4.9342-11.60057-12.0163-11.60057h-10.4139c-1.0252-.00036-2.0086.40647-2.7339 1.13101-.7253.72455-1.1332 1.70749-1.1339 2.73266v32.8752c.0002.5077.1004 1.0104.2949 1.4793.1944.469.4794.895.8386 1.2538s.7855.6433 1.2546.8373c.4692.194.972.2937 1.4797.2933h10.4139c7.7206 0 12.4807-4.9302 12.4807-12.6454 0-2.8418-1.0449-5.9157-3.4249-7.772zm-5.2245-8.235c0 2.0291-1.7996 3.8853-3.8313 3.8853h-5.5728c-.3483 0-.5805-.2322-.5805-.5805v-6.5542c0-.3483.2322-.5805.5805-.5805h5.5728c2.0317 0 3.8313 1.7982 3.8313 3.8286zm-3.6072 20.5322h-5.7956c-.3483 0-.5805-.2322-.5805-.5805v-7.83c0-.3483.2322-.5805.5805-.5805h5.7969c2.4381 0 4.0635 2.2045 4.0635 4.4658 0 2.322-1.566 4.5252-4.0635 4.5252" fill="#000028" fill-rule="evenodd"/></svg>