<svg xmlns="http://www.w3.org/2000/svg" viewBox="0 0 333 447.67"><defs><style>.cls-1{fill:#3cadee;}.cls-2{fill:#1b7ad5;}.cls-3{fill:#1b73d1;}.cls-4{fill:#85d2f8;}.cls-5{fill:#248ee0;}.cls-6{fill:#1769cb;}.cls-7{fill:#1d78d3;}.cls-8{fill:#48b7f2;}.cls-9{fill:#3caeef;}.cls-10{fill:#1c7dd6;}.cls-11{fill:#1d81d9;}.cls-12{fill:#1e7fd8;}.cls-13{fill:#6dcaf6;}</style></defs><g id="Layer_2" data-name="Layer 2"><g id="Layer_1-2" data-name="Layer 1"><polygon class="cls-1" points="185.35 42.71 185.35 0 222.26 21.36 259.18 42.71 222.26 64.06 185.35 85.42 185.35 42.71"/><polygon class="cls-2" points="185.35 128.13 185.35 85.42 222.26 106.78 259.18 128.13 222.26 149.48 185.35 170.84 185.35 128.13"/><polygon class="cls-3" points="185.35 213.55 185.35 170.84 222.26 192.19 259.18 213.55 222.26 234.9 185.35 256.26 185.35 213.55"/><polygon class="cls-4" points="259.18 85.42 259.18 42.71 296.09 64.06 333 85.42 296.09 106.78 259.18 128.13 259.18 85.42"/><polygon class="cls-5" points="259.18 170.84 259.18 128.13 296.09 149.48 333 170.84 296.09 192.19 259.18 213.55 259.18 170.84"/><polygon class="cls-5" points="259.18 256.26 259.18 213.55 296.09 234.9 333 256.26 296.09 277.61 259.18 298.97 259.18 256.26"/><polygon class="cls-6" points="333 213.55 333 256.26 296.09 234.9 259.18 213.55 296.09 192.19 333 170.84 333 213.55"/><polygon class="cls-7" points="333 128.13 333 170.84 296.09 149.48 259.18 128.13 296.09 106.78 333 85.42 333 128.13"/><polygon class="cls-6" points="259.18 256.26 259.18 298.97 222.26 277.61 185.35 256.26 222.26 234.9 259.18 213.55 259.18 256.26"/><polygon class="cls-6" points="259.18 170.84 259.18 213.55 222.26 192.19 185.35 170.84 222.26 149.48 259.18 128.13 259.18 170.84"/><polygon class="cls-8" points="259.18 85.42 259.18 128.13 222.26 106.78 185.35 85.42 222.26 64.06 259.18 42.71 259.18 85.42"/><polygon class="cls-9" points="0 234.12 0 191.41 36.91 212.76 73.82 234.12 36.91 255.47 0 276.83 0 234.12"/><polygon class="cls-10" points="0 319.54 0 276.83 36.91 298.18 73.82 319.54 36.91 340.89 0 362.25 0 319.54"/><polygon class="cls-9" points="73.82 191.41 73.82 148.7 110.73 170.05 147.65 191.41 110.73 212.76 73.82 234.12 73.82 191.41"/><polygon class="cls-2" points="73.82 276.83 73.82 234.12 110.73 255.47 147.65 276.83 110.73 298.18 73.82 319.54 73.82 276.83"/><polygon class="cls-3" points="73.82 362.25 73.82 319.54 110.73 340.89 147.65 362.25 110.73 383.6 73.82 404.96 73.82 362.25"/><polygon class="cls-6" points="221.47 362.25 221.47 404.96 184.56 383.6 147.65 362.25 184.56 340.89 221.47 319.54 221.47 362.25"/><polygon class="cls-5" points="147.65 319.54 147.65 276.83 184.56 298.18 221.47 319.54 184.56 340.89 147.65 362.25 147.65 319.54"/><polygon class="cls-11" points="147.65 404.96 147.65 362.25 184.56 383.6 221.47 404.96 184.56 426.31 147.65 447.67 147.65 404.96"/><polygon class="cls-6" points="147.65 319.54 147.65 362.25 110.73 340.89 73.82 319.54 110.73 298.18 147.65 276.83 147.65 319.54"/><polygon class="cls-6" points="147.65 404.95 147.65 447.66 110.73 426.3 73.82 404.95 110.73 383.59 147.65 362.24 147.65 404.95"/><polygon class="cls-8" points="147.65 234.12 147.65 276.83 110.73 255.47 73.82 234.12 110.73 212.76 147.65 191.41 147.65 234.12"/><polygon class="cls-12" points="73.82 362.25 73.82 404.96 36.91 383.6 0 362.25 36.91 340.89 73.82 319.54 73.82 362.25"/><polygon class="cls-7" points="73.82 276.83 73.82 319.54 36.91 298.18 0 276.83 36.91 255.47 73.82 234.12 73.82 276.83"/><polygon class="cls-13" points="73.82 191.41 73.82 234.12 36.91 212.76 0 191.41 36.91 170.05 73.82 148.7 73.82 191.41"/></g></g></svg>