<svg fill="none" height="24" viewBox="0 0 108 24" width="108" xmlns="http://www.w3.org/2000/svg" xmlns:xlink="http://www.w3.org/1999/xlink"><clipPath id="a"><path d="m0 .602905h108v23.0816h-108z"/></clipPath><g clip-path="url(#a)"><path d="m21.9133.602905-4.0078 14.953495-4.9314-14.953495h-6.79054l-6.18356 23.072595h5.64075l4.29131-16.02559 5.26444 16.02559h6.1684l6.1835-23.072595zm80.4517 0-6.1837 23.072595h5.6347l6.184-23.072595zm-71.4376 0-6.187 23.072595h5.6346l6.1875-23.072595zm63.0827 13.600095 1.1497-4.29072h-9.6007l1.2375-4.62037h10.7544l1.2577-4.689005h-16.3895l-6.0458 22.556295-4.4471-11.88h-1.7505l10.5525-10.676295h-6.6515l-9.8494 9.795895 2.6257-9.795895h-5.6357l-6.0795 22.684495-4.4938-12.0082h-1.7505l10.5525-10.676295h-6.6515l-9.8494 9.795895 2.6257-9.795895h-5.6334l-6.1875 23.072595h5.6368l3.3227-12.3963h1.9929l4.0562 12.3963h11.9104l3.3227-12.3963h1.9929l4.0562 12.3963h22.743l1.255-4.6822h-10.9125l1.2836-4.7903z" fill="#003e70"/></g></svg>