<svg fill="none" height="49" viewBox="0 0 120 49" width="120" xmlns="http://www.w3.org/2000/svg" xmlns:xlink="http://www.w3.org/1999/xlink"><clipPath id="a"><path d="m0 .340012h120v48.24h-120z"/></clipPath><g clip-path="url(#a)" fill="#ff1243"><path d="m104.688 34.078 2.487 1.434c.147.084.237.243.237.414l-.003 2.871c0 .243-.264.396-.474.273l-2.487-1.434c-.147-.084-.234-.243-.234-.414v-2.871c-.003-.243.261-.396.474-.273zm1.998-3.462 2.487 1.437c.147.084.33.084.477 0l2.487-1.437c.21-.123.21-.426 0-.549l-2.487-1.437c-.147-.084-.33-.084-.477 0l-2.487 1.437c-.21.123-.21.426 0 .549zm-9.0059-.585-5.595-3.237c-.165-.096-.369-.096-.537 0l-5.595 3.237c-.237.138-.237.48 0 .618l5.595 3.237c.165.096.369.096.537 0l5.595-3.237c.237-.138.237-.48 0-.618zm2.178 3.978-3.735 2.151c-.111.063-.18.183-.18.309v4.311c0 .183.204.297.36.207l3.7349-2.151c.111-.063.174-.183.174-.309v-4.311c.003-.183-.195-.297-.3539-.207zm18.4379-32.99401-13.443 7.743c-.399.228-.645.654-.642 1.113v15.51301c0 .657.729 1.071 1.299.741l13.443-7.743c.399-.228.63-.654.627-1.113v-15.51302c0-.65699-.714-1.067995-1.284-.74099zm-28.7579 8.41499v10.77602c0 .318.159.615.435.774l9.336 5.379c.396.228.8999-.057.9029-.516v-10.776c0-.318-.171-.615-.4469-.774l-9.336-5.37902c-.396-.228-.891.06-.891.516z"/><path d="m79.3771 31.24c-.099-.246-.309-.336-.543-.198-.234.141-4.647 2.769-4.647 2.769v-2.421c0-.273-.174-.372-.42-.273l-1.434.519c-.198.075-.273.222-.273.42v10.65c0 .222.147.372.372.372h1.383c.222 0 .372-.147.372-.372v-6.522s5.202-3.21 5.412-3.336.318-.234.222-.471c-.102-.261-.444-1.137-.444-1.137z"/><path d="m11.9223 36.379c0-2.967-2.02803-5.463-5.41203-5.463-3.336 0-6.104997 2.397-6.104997 6.303 0 3.558 2.321997 6.153 6.227997 6.153 1.779 0 3.55803-.618 4.89303-1.803.174-.147.174-.345.048-.519l-.666-1.038c-.123-.198-.321-.222-.519-.075-1.21203.891-2.44803 1.335-3.75603 1.335-2.496 0-3.855-1.632-4.029-3.684h8.95203c.228 0 .366-.165.366-.366zm-9.16803-.645c.471-1.704 1.803-2.742 3.684-2.742 2.052 0 3.138 1.212 3.237 2.742z"/><path d="m23.9702 48.019h1.383c.222 0 .372-.147.372-.372v-16.263c0-.273-.174-.372-.444-.273l-1.41.519c-.198.075-.273.222-.273.42v.519c-.765-1.038-2.274-1.656-3.906-1.656-3.237 0-6.054 2.421-6.054 6.228 0 3.36 2.175 6.228 5.931 6.228 1.704 0 3.336-.765 4.029-1.632v5.907c.003.228.15.375.372.375zm-4.251-6.747c-2.1 0-3.906-1.434-3.906-4.152s1.803-4.128 3.906-4.128c2.199 0 3.906 1.41 3.906 4.128 0 2.742-1.707 4.152-3.906 4.152z"/><path d="m32.7662 43.372c1.284 0 2.694-.42 3.609-1.755v1.089c0 .222.147.372.372.372h1.383c.222 0 .372-.147.372-.372v-11.295c0-.297-.174-.396-.42-.297l-1.434.519c-.198.075-.273.222-.273.42v5.931c0 2.1-1.359 3.288-3.213 3.288-1.83 0-3.066-1.161-3.066-3.288v-6.6c0-.273-.174-.372-.42-.273l-1.434.519c-.198.075-.273.222-.273.42v6.006c.003 3.513 2.127 5.316 4.797 5.316z"/><path d="m41.3921 29.854 1.509-.495c.246-.075.345-.198.345-.444v-1.803c0-.222-.174-.396-.444-.297l-1.482.543c-.222.075-.345.174-.345.42v1.731c-.003.27.147.444.417.345z"/><path d="m41.4199 43.075h1.383c.222 0 .372-.147.372-.372v-11.319c0-.273-.174-.372-.42-.273l-1.434.519c-.198.075-.273.222-.273.42v10.653c0 .225.15.372.372.372z"/><path d="m46.0902 43.075h1.383c.222 0 .372-.147.372-.372v-6.402c0-2.1 1.359-3.288 3.213-3.288 1.83 0 3.066 1.161 3.066 3.288v6.402c0 .222.147.372.372.372h1.383c.222 0 .372-.147.372-.372v-6.477c0-3.51-2.127-5.313-4.794-5.313-1.284 0-2.694.42-3.609 1.755v-1.284c0-.273-.174-.372-.42-.273l-1.434.519c-.198.075-.273.222-.273.42v10.653c-.003.225.144.372.369.372z"/><path d="m64.167 30.916c-3.558 0-6.105 2.646-6.105 6.228 0 3.585 2.547 6.228 6.105 6.228s6.081-2.646 6.081-6.228c0-3.585-2.523-6.228-6.081-6.228zm0 10.38c-2.448 0-3.93-1.83-3.93-4.152s1.482-4.152 3.93-4.152c2.421 0 3.906 1.83 3.906 4.152s-1.485 4.152-3.906 4.152z"/></g></svg>