<svg xmlns="http://www.w3.org/2000/svg" height="60" viewBox="0 0 440.98853 538.71611"><defs><style>.cls-1{fill:none;}.cls-2{fill:#3959cc;}.cls-3{fill:#f777a6;}.cls-4{fill:#3d4454;}</style></defs><g id="レイヤー_2" data-name="レイヤー 2"><g id="レイヤー_1-2" data-name="レイヤー 1"><rect class="cls-1" width="440.98853" height="538.71611"/><g id="logo"><g id="logo_mark"><path class="cls-2" d="M137.7911,83.511a11.83838,11.83838,0,1,0,11.83838,11.83887A11.85173,11.85173,0,0,0,137.7911,83.511Z"/><path class="cls-3" d="M232.16436,93.23335l-42.388,30.7967a101.36382,101.36382,0,0,0-22.42489,141.58521l24.46676,33.67562a22.52531,22.52531,0,0,0,31.46339,4.98331l106.16972-77.13683A82.75714,82.75714,0,0,0,347.75983,111.542l-.0001-.00013A82.75714,82.75714,0,0,0,232.16436,93.23335Z"/><path class="cls-2" d="M163.57528,107.14685A62.041,62.041,0,0,1,184.214,117.016l7.6518,5.496,17.04339-12.38269-12.98425-9.32617a81.88926,81.88926,0,0,0-27.22461-12.98828,9.99991,9.99991,0,0,0-5.125,19.332Z"/><path class="cls-2" d="M191.8182,299.29089l-24.46673-33.67566a102.05664,102.05664,0,0,1-8.49848-13.91394l-47.61462-34.45093a61.92833,61.92833,0,0,1,4.03613-102.96875A10.00042,10.00042,0,0,0,104.82919,97.225a81.9633,81.9633,0,0,0-5.33106,136.2168L193.96237,301.79A22.5752,22.5752,0,0,1,191.8182,299.29089Z"/><path class="cls-2" d="M173.92465,138.30395l-3.44507-2.47449a37.95048,37.95048,0,0,0-22.73242-7.4375,38.886,38.886,0,0,0-31.37891,15.958,38.69767,38.69767,0,0,0,8.49316,54.00586l.01465.01074,23.54145,17.03357A101.49132,101.49132,0,0,1,173.92465,138.30395Z"/></g></g><g id="logo_type"><path class="cls-4" d="M250.88817,354.4452l-4.21008,3.0588a10.06769,10.06769,0,0,0-2.22729,14.06256l2.4301,3.34474a2.23727,2.23727,0,0,0,3.125.495l10.545-7.6614a8.21963,8.21963,0,0,0,1.81844-11.48119v0A8.21963,8.21963,0,0,0,250.88817,354.4452Z"/><path class="cls-4" d="M346.60886,400.42286s-43.5105.00609-44.11088.04148h-4.4571a12.15417,12.15417,0,0,0-12.15415,12.15416v4.9911a2.70087,2.70087,0,0,0,2.70092,2.70092h58.02121c2.82283,0,10.77821,0,10.77821-9.75105C357.38707,400.551,349.56029,400.42286,346.60886,400.42286Z"/><path class="cls-4" d="M181.5697,433.94914l-19.21138.01339a.30778.30778,0,0,1-.30314-.36223l7.861-43.7358a43.5591,43.5591,0,0,0,.50766-6.34846c0-9.26873-5.71355-14.22047-15.10952-14.22047l-49.64282-.00994a2.71933,2.71933,0,0,0-2.71928,2.71935v5.025A12.23677,12.23677,0,0,0,115.189,389.26674l28.571-.03659c2.79337,0,4.19006.63435,4.19006,3.80871,0,.60557-6.63332,37.2897-7.24557,40.67436a.30387.30387,0,0,1-.3025.24932l-38.77814-.03686a12.31285,12.31285,0,0,0-1.95763.15772,9.43022,9.43022,0,0,0-5.21308,2.16612,12.21733,12.21733,0,0,0-5.066,9.91288l0,5.0249a2.71925,2.71925,0,0,0,2.71928,2.71935l89.46335-.00981a9.97384,9.97384,0,0,0,9.97382-9.97385h0A9.97382,9.97382,0,0,0,181.5697,433.94914Z"/><path class="cls-4" d="M276.593,354.4452l-4.21007,3.0588a10.06768,10.06768,0,0,0-2.2273,14.06256l2.4301,3.34474a2.23727,2.23727,0,0,0,3.125.495l10.545-7.6614a8.21963,8.21963,0,0,0,1.81844-11.48119v0A8.21963,8.21963,0,0,0,276.593,354.4452Z"/><path class="cls-4" d="M267.54141,434.09109s-20.33887.01908-20.57164.03552c-21.55871.13837-21.48744.17495-21.48744-10.78646V413.29629a.30777.30777,0,0,1,.22715-.297l37.06522-10.0617.003-.0008a12.00832,12.00832,0,0,0,8.55824-14.63823l-1.23-4.722a2.6604,2.6604,0,0,0-3.24509-1.90389L255.418,384.65324l-.008-.01988-2.34339.63249-1.20467.31372c-.08556.02227-.16568.05448-.25007.07887l-25.74156,6.94688a.30778.30778,0,0,1-.388-.29715V368.08229A12.80824,12.80824,0,0,0,212.67409,355.274h-5.25973a2.84629,2.84629,0,0,0-2.84629,2.84629v16.58252l.00033.00623.00961,52.922c0,26.19437-3.49226,26.19437,42.76062,26.19437h20.20278a9.86716,9.86716,0,0,0,9.86709-9.86715h0A9.86717,9.86717,0,0,0,267.54141,434.09109Z"/></g></g></g></svg>
