<svg fill="none" height="66" viewBox="0 0 65 66" width="65" xmlns="http://www.w3.org/2000/svg" xmlns:xlink="http://www.w3.org/1999/xlink"><clipPath id="a"><path d="m0 .5h65v65h-65z"/></clipPath><g clip-path="url(#a)" clip-rule="evenodd" fill-rule="evenodd"><path d="m32.5.5c-17.9493 0-32.5 14.5507-32.5 32.5s14.5507 32.5 32.5 32.5 32.5-14.5507 32.5-32.5-14.5507-32.5-32.5-32.5z" fill="#00c4cc"/><path d="m54.2282 33.9286c-.3714 0-1.0214-.0929-1.0214-.4643s.8357-.1857.7428-1.0214c-.0928-.5572-.65-.7429-1.2071-.7429-1.8571 0-3.0643 2.4143-2.7857 4.3643.0928.7428.4643 1.5786 1.2071 1.5786.5572 0 1.3929-.8358 1.7643-2.0429.1857-.7429.9286-1.3929 1.5786-1.3929.2786 0 .4643.0929.5571.4643 0 .1857 0 .5572-.3714 1.7643-.4643.8357-.4643 1.3-.3714 1.6714.0928.7429.4643 1.3.8357 1.5786.0928.0929.1857.2786.1857.2786 0 .1857-.0929.3714-.3714.3714-.0929 0-.1857 0-.2786-.0928-1.3929-.5572-1.95-1.4858-2.1357-2.4143-.5572.65-1.2072 1.0214-1.95 1.0214-1.2072 0-2.4143-1.1143-2.6-2.5071-.065-.559.0186-1.1608.2015-1.7578-.5507.3528-1.1422.5506-1.6863.5506h-.4643c-1.2071 1.7643-2.5071 2.9714-3.4357 3.5286-.3714.1857-.7429.2786-1.0214.2786-.1857 0-.4643-.0929-.5572-.2786-.2553-.4123-.4215-1.0642-.5228-1.8079-1.3027 1.4272-3.1014 2.1793-3.9334 2.1793-.9286 0-1.4857-.5571-1.5786-1.4857v-1.0214c.2786-2.0429 1.0215-3.25 1.0215-3.6214 0-.0929-.0929-.1858-.1857-.1858-.65 0-2.7858 2.2286-3.1572 3.7143l-.2786 1.2072c-.1857.8357-1.0214 1.3928-1.5785 1.3928-.2786 0-.4643-.0928-.5572-.4643v-.3714l.1263-.6314c-1.1774.8394-2.3586 1.3743-2.9111 1.3743-.8357 0-1.3-.4643-1.3928-1.1143-.5572.7428-1.2072 1.1143-2.0429 1.1143-.9527 0-1.885-.65-2.3353-1.6037-.6593.7429-1.4142 1.495-2.3057 2.0689-1.3.8357-2.7857 1.4857-4.55 1.4857-1.5785 0-2.9714-.8357-3.7143-1.5786-1.1142-1.0214-1.76425-2.6-1.8571-4.0857-.55715-4.55 2.2286-10.4 6.5-13 1.0214-.5571 2.0429-.9286 3.0643-.9286 2.0428 0 3.6214 1.4857 3.8071 3.25.1857 1.5786-.4643 2.9715-2.2285 3.8072-.9286.4643-1.3.4643-1.4858.1857-.0928-.1857 0-.3714.1858-.5572 1.6714-1.3928 1.6714-2.5071 1.4857-4.0857-.0929-1.0214-.8357-1.6714-1.5786-1.6714-3.25 0-7.8929 7.2429-7.2429 12.5357.2786 2.0429 1.4858 4.4572 4.0858 4.4572.8357 0 1.7642-.2786 2.6-.65 1.3557-.715 2.1635-1.2722 2.9714-2.1636-.1978-2.3985 1.9073-5.5436 5.0143-5.5436 1.3928 0 2.5071.5572 2.6 1.5786.1857 1.3928-1.0215 1.5786-1.3929 1.5786s-1.0214-.0929-1.0214-.4643c-.0929-.3714.8357-.1857.7428-1.0215-.0928-.5571-.65-.7428-1.2071-.7428-1.95 0-3.0643 2.6928-2.7857 4.3643.0928.7428.4643 1.4857 1.2071 1.4857.5572 0 1.3929-.8357 1.6715-2.0429.1857-.8357.9285-1.3928 1.5785-1.3928.2786 0 .4643.0928.5572.4643v.3714c-.0929.3714-.3715 1.4857-.2786 1.7643 0 .1857.0929.4643.4643.4643.2461 0 1.1793-.4885 2.1023-1.2443.3157-1.5972.6843-3.5147.6843-3.6753.0929-.65.3715-1.3 1.6715-1.3.2785 0 .4642.0928.5571.4643v.3714l-.3714 1.6714c1.2071-1.5785 2.9714-2.6928 4.0857-2.6928.4643 0 .8357.2785.8357.7428 0 .2786 0 .7429-.1857 1.2072-.3714 1.0214-.8357 2.6-1.1143 3.9928 0 .3715.0929.7429.5571.7429.4643 0 1.8572-.5572 2.9715-2.0429l.0185-.0111c-.0055-.182-.0185-.3622-.0185-.5451 0-1.1143.0928-2.0428.2785-2.6928.1858-.7429 1.1143-1.3929 1.6715-1.3929.2785 0 .5571.1857.5571.4643 0 .0928 0 .2786-.0928.3714-.3715 1.2072-.65 2.3214-.65 3.4357 0 .65.0928 1.5786.2785 2.1357 0 .0929.0929.1858.1857.1858.1858 0 1.4858-1.2072 2.4143-2.7858-.8357-.5571-1.3-1.4857-1.3-2.5999 0-1.95 1.2072-2.9715 2.3215-2.9715.9285 0 1.6714.65 1.6714 1.95 0 .8357-.2786 1.7643-.7429 2.6h.2786c.7429 0 1.2071-.2785 1.5786-.65.0859-.1406.2134-.2509.3649-.3157.9063-1.1514 2.2471-2.0057 3.8164-2.0057 1.3 0 2.5044.5571 2.6 1.5786.1857 1.3928-1.0233 1.6714-1.3956 1.6714z" fill="#fff"/><path d="m45.3144 30.2143c-.2786 0-.4643.4642-.4643.9285 0 .7429.3714 1.5786.8357 2.0429.1857-.5571.2786-1.0214.2786-1.5786 0-.9286-.3714-1.3928-.65-1.3928" fill="#00c4cc"/></g></svg>