<svg fill="none" height="28" viewBox="0 0 96 28" width="96" xmlns="http://www.w3.org/2000/svg" xmlns:xlink="http://www.w3.org/1999/xlink"><clipPath id="a"><path d="m0-.000717h96v27.4014h-96z"/></clipPath><g clip-path="url(#a)"><path d="m62.5197 23.5066c-.1425 0-.2375-.095-.2375-.2375v-9.1892c0-1.6859.5224-2.9918 1.5434-3.9179 1.0211-.92601 2.4932-1.37716 4.3216-1.37716.9735-.04749 1.9471.11872 2.8494.47489.6648.28494.9972.73609.9972 1.35347 0 .2849-.0949.5936-.2374.8311-.1187.1899-.3087.3086-.5224.3086-.0712 0-.1425-.0237-.2137-.0475-.2137-.0712-.4274-.1424-.6648-.2137-.5462-.1424-1.1161-.2137-1.6859-.2137-2.3508 0-3.538 1.2585-3.538 3.728v8.2631c0 .1425-.095.2375-.2374.2375zm-21.0854-.1425c.4512-.095.8786-.2137 1.306-.3799.3324-.1187.6649-.2849.9735-.4749.2612-.1662.3562-.5224.19-.7836l-.5224-.8785c-.095-.1662-.2612-.285-.4511-.3087h-.0713c-.0712 0-.1662.0237-.2374.0475-.1425.0475-.2849.1187-.4512.1662-.5223.1899-1.0685.2612-1.6146.2612-.3562 0-.6886-.0475-1.021-.1187-.3325-.0713-.6411-.2137-.9023-.4274s-.4749-.4987-.6174-.8311c-.1662-.4037-.2374-.8548-.2137-1.2822v-6.0787c0-.2612.2137-.4749.4749-.4749h2.7306c.7361 0 1.306-.5936 1.306-1.3297 0-.2374-.0712-.47488-.19-.66484-.2137-.37991-.5936-.59362-1.0447-.59362h-2.7782c-.2611 0-.4749-.2137-.4749-.47489v-2.56443c0-.66486-.5223-1.18724-1.1872-1.18724h-.4749c-.6648 0-1.1872.52238-1.1872 1.18724v12.82218c0 1.3534.4036 2.4457 1.2347 3.2768.8311.831 2.0421 1.2347 3.6567 1.2347.5224 0 1.0448-.0475 1.5671-.1425zm45.7799-7.2184c0 4.0604-3.3005 7.3609-7.3609 7.3609-4.0603 0-7.3608-3.3005-7.3608-7.3609 0-4.0603 3.3005-7.36086 7.3608-7.36086 4.0604 0 7.3609 3.30056 7.3609 7.36086zm-2.7306 0c0-2.5644-2.0658-4.6302-4.6303-4.6302-2.5644 0-4.6302 2.0658-4.6302 4.6302s2.0658 4.6302 4.6302 4.6302c2.5645 0 4.6303-2.0658 4.6303-4.6302zm-24.8133 0c0 4.0604-3.3005 7.3609-7.3609 7.3609-4.0603 0-7.3608-3.3005-7.3608-7.3609 0-4.0603 3.3005-7.36086 7.3608-7.36086 4.0604 0 7.3609 3.30056 7.3609 7.36086zm-2.7306 0c0-2.5644-2.0658-4.6302-4.6303-4.6302-2.5644 0-4.6302 2.0658-4.6302 4.6302s2.0658 4.6302 4.6302 4.6302c2.5645 0 4.6303-2.0658 4.6303-4.6302zm-41.6721 0c0 4.0604-3.3005 7.3609-7.36083 7.3609-4.06035 0-7.360872-3.3005-7.360872-7.3609 0-4.0603 3.300522-7.36086 7.360872-7.36086 4.06033 0 7.36083 3.30056 7.36083 7.36086zm-2.7306 0c0-2.5644-2.0658-4.6302-4.63023-4.6302s-4.63023 2.0658-4.63023 4.6302 2.0658 4.6302 4.63023 4.6302 4.63023-2.0658 4.63023-4.6302zm19.7794.7598c-.4274 4.0367-4.0366 6.981-8.0732 6.5536-1.3772-.1425-2.6595-.6649-3.7517-1.4959v5.1051c0 .1425-.095.2374-.2375.2374h-2.3744c-.1425 0-.2375-.0949-.2375-.2374v-11.2788c-.0237-2.6119 1.4722-5.0338 3.8229-6.1736 5.77-2.75439 11.4212 1.7334 10.8514 7.2896zm-2.6832-.7598c0-2.5644-2.0658-4.6302-4.6302-4.6302s-4.6302 2.0658-4.6302 4.6302 2.0658 4.6302 4.6302 4.6302 4.6302-2.0658 4.6302-4.6302z" fill="#373737"/><path d="m81.041.141753c0-.0712345.0713-.14247016.1425-.14247016h14.8167v14.81671716c0 .0712-.0712.1425-.1425.1425-.0712 0-.1424-.0475-.1424-.1425-.6411-7.74078-6.791-13.890673-14.5318-14.531781-.095 0-.1425-.047487-.1425-.142466z" fill="#faa818"/></g></svg>