<svg fill="none" height="35" viewBox="0 0 100 35" width="100" xmlns="http://www.w3.org/2000/svg" xmlns:xlink="http://www.w3.org/1999/xlink"><clipPath id="a"><path d="m0 0h100v34.1h-100z"/></clipPath><g clip-path="url(#a)"><path d="m42.5 12.4h3.8l-5.4 13.6h-3.4l-5.5-13.6h3.9l3.3 9.1zm5 13.5h3.7v-13.5h-3.7zm5.4-4.4h3.7c.1.9.7 1.8 2.3 1.8 1.4 0 2.1-.5 2.1-1.2 0-2.3-7.5-.1-7.5-5.5 0-2.5 2.1-4.5 5.4-4.5 4.1 0 5.5 2.6 5.6 4.6h-3.5c-.1-.9-.7-1.6-2-1.6-1.2 0-1.9.6-1.9 1.3 0 2.3 7.5 0 7.5 5.6 0 2.4-2.1 4.3-5.7 4.3-4.3-.1-5.8-2.2-6-4.8zm13.5 4.4h3.7v-13.5h-3.7zm12.4-2.9c1.9 0 3.4-1.4 3.4-3.9 0-2.4-1.5-3.9-3.4-3.9s-3.4 1.4-3.4 3.9 1.5 3.9 3.4 3.9zm-7.1-3.9c0-3.9 2.8-7.1 7.1-7.1s7.1 3.2 7.1 7.1-2.8 7.1-7.1 7.1-7.1-3.2-7.1-7.1zm19.3-5.1c.6-1.2 2-2 4-2 3.3 0 5 2.2 5 5.4v8.5h-3.7v-8.1c0-1.6-.7-2.7-2.3-2.7-1.8 0-2.8 1.1-2.8 3v7.8h-3.7v-13.5h3.5z" fill="#f36"/><path d="m0 34.1h34.1v-34.1h-34.1z" fill="#f36"/><path d="m12 10.7c1.1 0 2-.79999 2-1.99999 0-1.1-.9-2-2-2s-2 .8-2 2 .9 1.99999 2 1.99999zm-4.2 10.6c-.1.5-.2 1-.2 1.5 0 1.7.9 2.9 2.9 2.9 1.7 0 3-1 4-2.6l-.6 2.4h3.3l1.9-7.5c.5-1.9 1.4-2.9 2.8-2.9 1.1 0 1.8.7 1.8 1.8 0 .3 0 .7-.1 1.1l-1 3.5c-.1.5-.2 1-.2 1.5 0 1.6 1 2.8 3 2.8 1.7 0 3.1-1.1 3.9-3.8l-1.3-.5c-.6 1.8-1.2 2.1-1.6 2.1s-.7-.3-.7-.9c0-.3.1-.6.1-.9l.9-3.4c.2-.8.3-1.5.3-2.1 0-2.5-1.5-3.8-3.4-3.8-1.7 0-3.5 1.6-4.4 3.2l.6-2.9h-5l-.7 2.6h2.3l-1.4 5.5c-1.1 2.5-3.2 2.6-3.5 2.5-.4-.1-.7-.3-.7-.8 0-.3.1-.8.2-1.3l2.2-8.7h-5.5l-.7 2.6h2.3z" fill="#fff"/></g></svg>