<svg width="98" height="37" viewBox="0 0 98 37" fill="none" xmlns="http://www.w3.org/2000/svg">
<path d="M7.16553 22.1552C7.32079 22.1726 7.46151 22.1867 7.60176 22.2022C8.34659 22.2956 9.09911 22.3113 9.84719 22.2491C10.5652 22.19 11.2733 22.0433 11.9557 21.8124C13.2146 21.3822 14.301 20.6753 15.2237 19.7245C16.2462 18.6738 17.0389 17.473 17.5371 16.0883C17.9214 15.0185 18.0891 13.8829 18.0306 12.7476C17.9719 11.5126 17.675 10.3338 17.2275 9.18739C17.2003 9.11749 17.1731 9.04667 17.1473 8.97771C17.1426 8.9589 17.1393 8.93978 17.1375 8.92049C17.1803 8.9153 17.2236 8.9153 17.2664 8.92049C17.4616 8.97255 17.6581 9.02227 17.85 9.0856C18.8819 9.42802 19.8426 9.91163 20.7061 10.5791C21.8455 11.4596 22.694 12.5684 23.2926 13.8734C23.7002 14.7454 23.9806 15.6714 24.1252 16.6231C24.2243 17.2914 24.2485 17.9687 24.1974 18.6424C24.0567 20.4624 23.4469 22.1093 22.3526 23.5676C21.011 25.3501 19.244 26.4923 17.069 26.996C16.2344 27.1918 15.3741 27.2541 14.5201 27.1804C11.8046 26.9426 9.62907 25.7174 7.97983 23.5526C7.71348 23.1989 7.4748 22.8252 7.26591 22.4348C7.22228 22.3555 7.17069 22.28 7.16553 22.1552Z" fill="black"/>
<path d="M79.7612 18.4154C79.724 18.4078 79.6864 18.4023 79.6486 18.399C75.3482 18.399 71.0484 18.399 66.7492 18.399C66.7259 18.4028 66.7031 18.4098 66.6817 18.4196C66.6733 18.439 66.6682 18.4596 66.6666 18.4806C66.7032 18.8315 66.7379 19.1842 66.7802 19.5322C66.8562 20.205 67.0619 20.8566 67.3857 21.4512C67.6756 21.9784 67.9918 22.4883 68.3942 22.9377C69.3324 23.987 70.4966 24.662 71.862 24.9917C72.55 25.157 73.2619 25.1983 73.9644 25.1137C75.7 24.9096 77.1231 24.1254 78.2329 22.7744C78.3708 22.6065 78.4914 22.425 78.6199 22.2491C78.6509 22.2069 78.6771 22.1604 78.7137 22.121C78.7731 22.0524 78.8515 22.0029 78.939 21.9787C79.0265 21.9546 79.1191 21.957 79.2053 21.9855C79.3962 22.0488 79.4905 22.235 79.4267 22.4386C79.4016 22.5091 79.3677 22.5763 79.3259 22.6384C79.1681 22.8852 78.9879 23.1168 78.7874 23.3303C78.4589 23.6912 78.1035 24.0268 77.7245 24.3341C76.7982 25.0828 75.6992 25.5877 74.5278 25.8027C73.0647 26.0692 71.6603 25.8581 70.3155 25.2366C69.6241 24.9171 68.9787 24.5245 68.4172 24.0034C68.0643 23.6771 67.7444 23.3168 67.4622 22.9278C67.2506 22.6361 67.0475 22.3387 66.8397 22.0446C66.806 21.9977 66.7694 21.9508 66.7196 21.8842C66.7051 21.9129 66.694 21.9433 66.6868 21.9747C66.6826 22.0422 66.684 22.1098 66.684 22.1773C66.684 23.213 66.684 24.2487 66.684 25.2844C66.6859 25.3968 66.6769 25.5091 66.6573 25.6198C66.6416 25.7056 66.5953 25.7829 66.5269 25.8371C66.4586 25.8914 66.3729 25.919 66.2858 25.9149C66.2023 25.9118 66.1224 25.8803 66.0592 25.8257C65.9961 25.771 65.9536 25.6964 65.9386 25.6142C65.9214 25.4955 65.914 25.3757 65.9166 25.2558C65.9166 24.2501 65.9166 23.2444 65.9166 22.2388C65.9166 22.159 65.9316 22.076 65.8899 21.9742C65.8505 22.0211 65.8218 22.0521 65.7998 22.0858C65.6173 22.3607 65.4452 22.6431 65.2524 22.9105C64.2336 24.3233 62.8601 25.2244 61.1926 25.6869C60.5078 25.8769 59.8075 25.9346 59.0978 25.9078C58.1203 25.8726 57.1606 25.6368 56.2782 25.215C56.0331 25.1017 55.7953 24.9732 55.5661 24.8304C54.18 23.9424 53.1457 22.7594 52.5542 21.2092C52.5233 21.1285 52.5073 21.0384 52.4299 20.9568C52.3957 21.0272 52.3643 21.0844 52.3399 21.1444C52.1672 21.5599 51.9693 21.9646 51.7475 22.356C50.7788 24.0728 49.0222 25.2314 47.591 25.6437C46.9472 25.8306 46.2792 25.9212 45.6088 25.9125C44.4483 25.8989 43.3474 25.6433 42.3309 25.0743C41.0541 24.3599 40.0592 23.365 39.3894 22.0572C39.0183 21.3325 38.7327 20.5773 38.5793 19.7752C38.4514 19.1108 38.4232 18.431 38.4958 17.7582C38.6079 16.7085 38.8959 15.7089 39.41 14.7886C40.4725 12.886 42.0584 11.6458 44.2001 11.187C46.1388 10.7738 47.9386 11.1678 49.5813 12.2748C50.6522 12.9972 51.4444 13.9606 52.0139 15.1136C52.1269 15.3421 52.2353 15.5733 52.3474 15.8022C52.3694 15.8491 52.4004 15.8876 52.4412 15.9547C52.4848 15.8482 52.5191 15.767 52.551 15.6859C52.7917 15.0456 53.1265 14.4449 53.5445 13.9034C54.5506 12.6276 55.8255 11.7457 57.3955 11.3062C58.1465 11.0886 58.9287 10.9987 59.7094 11.0402C60.7414 11.1012 61.7227 11.3447 62.6411 11.8283C63.4174 12.2373 64.1243 12.7369 64.7083 13.3987C64.9572 13.6801 65.1869 13.9778 65.3959 14.2899C65.5212 14.4776 65.6459 14.6652 65.7712 14.8528C65.7998 14.895 65.8326 14.934 65.8786 14.9935C65.8913 14.9603 65.9009 14.9259 65.9072 14.8908C65.911 14.8237 65.9072 14.7557 65.9072 14.6882C65.9072 12.2643 65.9072 9.84082 65.9072 7.41762C65.9072 6.73528 65.9086 6.05247 65.9114 5.36919C65.9114 5.27913 65.9157 5.18907 65.9236 5.09948C65.9325 4.99417 65.97 4.89328 66.032 4.80772C66.1727 4.61118 66.4241 4.61118 66.5592 4.81335C66.6039 4.8823 66.6337 4.95977 66.6469 5.04085C66.6647 5.16701 66.6728 5.29433 66.6713 5.42173C66.6741 8.54385 66.6759 11.6658 66.6765 14.7876C66.6765 14.8767 66.6765 14.9654 66.6793 15.0475C66.7314 15.0709 66.7468 15.0423 66.7609 15.0184C66.8031 14.9471 66.8425 14.8749 66.8838 14.8031C67.3525 13.9788 67.9699 13.2484 68.7047 12.6491C69.6226 11.8999 70.7128 11.3913 71.8766 11.1692C73.7059 10.8193 75.4265 11.1411 77.0298 12.0839C77.2692 12.225 77.4975 12.3842 77.7127 12.56C78.4862 13.1914 79.1598 13.9114 79.6359 14.8008C79.8053 15.119 79.9536 15.448 80.0797 15.7858C80.1059 15.8547 80.1364 15.9223 80.1669 15.995C80.2476 15.9481 80.2579 15.8679 80.2842 15.8027C80.5797 15.0723 81.0009 14.4166 81.5037 13.8148C82.4452 12.6857 83.6267 11.9043 85.0218 11.446C85.9489 11.1352 86.9255 10.9984 87.9023 11.0426C89.4423 11.1176 90.8668 11.5482 92.131 12.4545C92.198 12.5014 92.2717 12.5441 92.3383 12.5891C92.4218 12.6413 92.4841 12.7217 92.5137 12.8157C92.541 12.8904 92.5458 12.9715 92.5278 13.0489C92.5097 13.1264 92.4694 13.1969 92.4119 13.2519C92.2909 13.3729 92.1375 13.3626 91.9898 13.3016C91.9087 13.2635 91.8322 13.2163 91.7618 13.1609C91.3443 12.8542 90.8939 12.595 90.4189 12.3883C89.7283 12.0913 88.9955 11.9042 88.2471 11.8339C86.9559 11.6984 85.6524 11.9217 84.48 12.4793C83.4691 12.9568 82.5892 13.6164 81.9156 14.5188C81.2025 15.4642 80.7409 16.5751 80.5741 17.7474C80.4784 18.4563 80.5201 19.1769 80.6969 19.87C80.9249 20.8081 81.2978 21.6792 81.8973 22.4391C82.741 23.5254 83.8891 24.3358 85.1953 24.767C86.1645 25.0975 87.193 25.2178 88.2124 25.1198C89.444 25.0051 90.6238 24.5683 91.6333 23.8533C91.6922 23.8069 91.7536 23.7637 91.8171 23.7238C91.8874 23.6818 91.963 23.6493 92.0418 23.6272C92.13 23.6045 92.2234 23.6141 92.3052 23.6542C92.387 23.6942 92.4518 23.7622 92.4879 23.8458C92.5733 24.0334 92.5348 24.2032 92.3805 24.3303C92.3688 24.3402 92.3566 24.3486 92.3444 24.3575C91.3636 25.0485 90.2978 25.5415 89.112 25.7648C88.3748 25.9102 87.6206 25.9498 86.8722 25.8825C85.6996 25.7709 84.594 25.4364 83.578 24.8308C83.3204 24.6775 83.07 24.5119 82.8218 24.343C82.5189 24.1341 82.2373 23.8958 81.9813 23.6314C81.4816 23.1217 81.0457 22.5531 80.6833 21.9381C80.2143 21.1449 79.9469 20.2832 79.839 19.3709C79.8118 19.1401 79.8006 18.9074 79.7818 18.6757L79.7612 18.4154ZM52.8268 18.4745C52.8109 18.7877 52.8237 19.1018 52.8652 19.4126C52.9825 20.1664 53.1903 20.8902 53.5421 21.5703C53.8733 22.2102 54.324 22.759 54.825 23.2698C55.1601 23.6144 55.5372 23.9156 55.9475 24.1662C56.9757 24.79 58.0864 25.1343 59.2934 25.1512C60.5623 25.1804 61.8087 24.8124 62.8583 24.0986C63.7289 23.524 64.4569 22.812 64.9752 21.8982C65.3633 21.2113 65.6399 20.4672 65.7946 19.6936C65.9445 18.9951 65.9694 18.2755 65.8683 17.5683C65.6769 16.3018 65.1567 15.176 64.3673 14.1731C63.9249 13.6135 63.3766 13.1698 62.7767 12.7945C61.4562 11.9643 60.0157 11.6495 58.4734 11.8564C57.3298 12.0121 56.2974 12.4662 55.3743 13.1557C54.6923 13.6647 54.1608 14.3134 53.718 15.0358C53.3804 15.5867 53.1341 16.1886 52.9886 16.8182C52.8629 17.3609 52.8085 17.9177 52.8268 18.4745ZM51.9825 18.5101C52.0064 18.1407 51.9864 17.7697 51.9229 17.405C51.7859 16.5607 51.5289 15.7591 51.0983 15.0161C50.6634 14.2655 50.0818 13.644 49.4049 13.1093C48.4232 12.333 47.2974 11.9235 46.0577 11.8095C45.4809 11.7571 44.8994 11.8001 44.3366 11.9366C43.043 12.249 41.9167 12.8504 41.0231 13.856C40.3613 14.6005 39.8505 15.4298 39.5625 16.389C39.3163 17.2254 39.2221 18.0992 39.2843 18.9689C39.3191 19.5537 39.4294 20.1316 39.6127 20.688C39.9921 21.8358 40.6718 22.7819 41.5588 23.5883C41.9767 23.9662 42.4474 24.2813 42.9562 24.5236C43.5698 24.8246 44.2279 25.0248 44.9052 25.1165C45.5992 25.2052 46.3037 25.1639 46.9827 24.9945C47.8645 24.7778 48.6891 24.4274 49.4082 23.8646C50.2274 23.224 50.8888 22.4042 51.3417 21.4681C51.785 20.5525 51.9881 19.5838 51.9839 18.5101H51.9825ZM79.7391 17.6306C79.7426 17.5855 79.7426 17.5402 79.7391 17.4951C79.7063 17.2957 79.6791 17.0945 79.634 16.8975C79.4053 15.8908 78.9314 14.9563 78.2545 14.1769C76.9758 12.6867 75.3618 11.8785 73.3851 11.8358C72.6639 11.8154 71.9445 11.919 71.2583 12.1421C69.5697 12.6974 68.3159 13.7787 67.4551 15.3242C67.1391 15.8879 66.9192 16.5003 66.8045 17.1362C66.7759 17.2967 66.7365 17.4576 66.7515 17.6245C66.7728 17.6355 66.7956 17.6433 66.8191 17.6475C71.0942 17.6475 75.3693 17.6475 79.6444 17.6475C79.6768 17.6447 79.709 17.639 79.7405 17.6306H79.7391Z" fill="black"/>
<path d="M34.0192 25.9186C32.1265 25.8862 30.3797 25.2797 28.8867 24.0128C27.9955 23.2566 27.2876 22.3462 26.8228 21.2645C26.3766 20.2175 26.1868 19.0791 26.2693 17.944C26.3584 16.5504 26.8566 15.3083 27.6765 14.1839C28.2886 13.3457 29.0551 12.6871 29.9374 12.1524C30.7555 11.6556 31.6425 11.3479 32.5778 11.1697C33.1308 11.0624 33.6941 11.018 34.2571 11.0374C35.8453 11.0956 37.3144 11.5238 38.6161 12.462C38.6827 12.5089 38.7568 12.5502 38.8225 12.598C38.9013 12.6508 38.9602 12.7284 38.9899 12.8184C39.0195 12.9085 39.0182 13.0059 38.9862 13.0952C38.9168 13.3077 38.6958 13.402 38.4702 13.3049C38.3894 13.2661 38.3128 13.2189 38.2418 13.1642C37.7966 12.8448 37.3182 12.5744 36.8149 12.3578C36.1453 12.0707 35.4338 11.8933 34.7078 11.8325C33.2434 11.7133 31.854 11.969 30.5599 12.6768C29.0645 13.4958 28.0269 14.7107 27.4171 16.305C27.094 17.1325 26.9577 18.0212 27.0179 18.9074C27.0678 19.5365 27.2101 20.1548 27.4401 20.7424C28.1718 22.659 29.5364 23.9382 31.4272 24.6789C32.021 24.9134 32.6455 25.0615 33.2814 25.1188C35.0169 25.2703 36.6169 24.881 38.0584 23.8861C38.1522 23.8219 38.2413 23.7543 38.3361 23.6938C38.3969 23.6559 38.4657 23.6326 38.5371 23.6256C38.6085 23.6187 38.6804 23.6284 38.7474 23.6539C39.0547 23.7534 39.0674 24.1699 38.8764 24.3158C38.8469 24.3383 38.8169 24.3627 38.785 24.381C38.4796 24.5714 38.1794 24.7703 37.8675 24.9495C37.1639 25.3529 36.403 25.5992 35.6131 25.7596C34.9475 25.8951 34.6741 25.9008 34.0192 25.9186Z" fill="black"/>
<path d="M16.5359 16.7488C16.5336 16.8857 16.489 16.9603 16.3994 17.0025C16.3594 17.0243 16.3141 17.0345 16.2687 17.0317C16.2232 17.029 16.1794 17.0135 16.1424 16.9871C16.0837 16.9406 16.0291 16.8893 15.9791 16.8337C14.7761 15.5972 13.5734 14.3603 12.371 13.1229L9.31272 9.98011C9.26377 9.93354 9.21786 9.88387 9.17528 9.83142C9.13796 9.78408 9.11882 9.72495 9.12131 9.66472C9.12381 9.6045 9.14778 9.54715 9.18888 9.50307C9.23137 9.4542 9.29146 9.42411 9.35605 9.41936C9.42063 9.41462 9.48447 9.4356 9.53365 9.47774C9.59103 9.52613 9.64481 9.57865 9.69454 9.63488C11.5664 11.5596 13.4382 13.4844 15.3098 15.4091L16.3609 16.488C16.4052 16.5283 16.4454 16.573 16.481 16.6212C16.5039 16.6616 16.5223 16.7044 16.5359 16.7488Z" fill="black"/>
<path d="M7.23535 12.2833C7.23535 12.1519 7.27616 12.075 7.36059 12.0257C7.39869 12.0009 7.44318 11.9877 7.48865 11.9877C7.53412 11.9877 7.57861 12.0009 7.6167 12.0257C7.67702 12.07 7.73252 12.1205 7.78229 12.1763C8.65037 13.0679 9.51831 13.96 10.3861 14.8528L14.3216 18.9014C14.3633 18.944 14.4069 18.9853 14.4463 19.0308C14.5641 19.1654 14.5697 19.3052 14.4646 19.4112C14.3596 19.5172 14.2156 19.514 14.0852 19.3972C14.0514 19.3671 14.0209 19.3338 13.9913 19.3033L7.40422 12.5305C7.36525 12.4953 7.32975 12.4565 7.29821 12.4146C7.27367 12.3726 7.25265 12.3287 7.23535 12.2833Z" fill="black"/>
<path d="M9.48092 10.877C9.53195 10.8975 9.58108 10.9224 9.62774 10.9516C9.674 10.9897 9.71656 11.0321 9.75485 11.0782L15.765 17.2591C15.8085 17.3004 15.849 17.3448 15.886 17.3919C15.9258 17.4429 15.9439 17.5077 15.9362 17.5719C15.9286 17.6362 15.8959 17.6949 15.8452 17.7352C15.7988 17.7738 15.7403 17.7949 15.6799 17.7949C15.6195 17.7949 15.561 17.7738 15.5145 17.7352C15.4583 17.6855 15.4046 17.6329 15.3537 17.5776C14.0202 16.2061 12.6865 14.8344 11.3525 13.4625C10.688 12.7795 10.0239 12.0961 9.36037 11.4122C9.31166 11.3656 9.26708 11.3149 9.22715 11.2607C9.2012 11.2233 9.18691 11.1791 9.18607 11.1336C9.18524 11.0881 9.1979 11.0433 9.22246 11.005C9.27124 10.9183 9.34958 10.8779 9.48092 10.877Z" fill="black"/>
<path d="M11.8001 20.8625C11.8058 21.0084 11.7561 21.0891 11.6594 21.136C11.6199 21.1585 11.5745 21.1688 11.5292 21.1656C11.4838 21.1624 11.4403 21.1459 11.4043 21.1182C11.3462 21.0709 11.2915 21.0196 11.2405 20.9648C9.78487 19.4732 8.32967 17.9814 6.87493 16.4894C6.43525 16.0382 5.99574 15.5872 5.55638 15.1366C5.50725 15.0904 5.46235 15.0398 5.42222 14.9856C5.39143 14.938 5.3776 14.8814 5.38297 14.8249C5.38833 14.7685 5.41257 14.7155 5.45177 14.6746C5.49175 14.628 5.54802 14.5985 5.60906 14.592C5.67009 14.5856 5.73129 14.6027 5.78012 14.6399C5.83898 14.6861 5.89361 14.7374 5.94336 14.7933C7.23142 16.1132 8.51933 17.4333 9.80707 18.7536C10.4037 19.3653 11.0004 19.9771 11.597 20.5891C11.6465 20.635 11.6926 20.6843 11.7349 20.7368C11.7607 20.7765 11.7826 20.8186 11.8001 20.8625Z" fill="black"/>
<path d="M13.5153 20.1294C13.4715 20.1131 13.4296 20.0918 13.3906 20.066C13.3389 20.0229 13.2906 19.9758 13.2461 19.9253L7.71718 14.2529C7.67351 14.2116 7.63217 14.1679 7.59335 14.122C7.50235 14.0047 7.50798 13.8725 7.6032 13.7749C7.69842 13.6773 7.84242 13.6689 7.96626 13.7749C7.9991 13.8045 8.03041 13.8359 8.06007 13.8687L13.6537 19.604C13.697 19.6455 13.737 19.6904 13.7733 19.7382C13.8012 19.7741 13.8177 19.8175 13.8208 19.8629C13.8239 19.9082 13.8134 19.9535 13.7907 19.9929C13.74 20.0881 13.6612 20.135 13.5153 20.1294Z" fill="black"/>
<path d="M9.36718 12.3724C9.39931 12.3705 9.43147 12.3754 9.46161 12.3867C9.49174 12.398 9.51917 12.4155 9.54214 12.4381C9.58061 12.4737 9.61672 12.5117 9.65331 12.5492L15.1414 18.1931C15.1677 18.2198 15.1954 18.2456 15.2193 18.2742C15.3323 18.4088 15.3328 18.5524 15.2216 18.6546C15.1105 18.7569 14.9796 18.7484 14.8576 18.6391C14.8107 18.5997 14.7727 18.5547 14.731 18.5116L12.7553 16.4796C11.6004 15.2913 10.4454 14.1029 9.29025 12.9146C9.23532 12.8639 9.18652 12.8069 9.14484 12.7448C9.12328 12.7065 9.11224 12.6631 9.11281 12.6191C9.11339 12.5751 9.12558 12.532 9.14814 12.4942C9.17069 12.4564 9.20283 12.4253 9.24129 12.4039C9.27975 12.3825 9.32318 12.3716 9.36718 12.3724Z" fill="black"/>
<path d="M16.9253 14.6328C16.8824 14.6181 16.8414 14.5981 16.8034 14.5733C16.7515 14.5304 16.7032 14.4833 16.6589 14.4326C14.8905 12.6144 13.1221 10.7962 11.3538 8.97776C11.3048 8.93155 11.2599 8.88117 11.2196 8.82718C11.1839 8.77721 11.1685 8.71562 11.1763 8.65473C11.1841 8.59384 11.2147 8.53816 11.2618 8.49884C11.3034 8.46021 11.357 8.43693 11.4136 8.43284C11.4702 8.42875 11.5265 8.44408 11.5733 8.47632C11.6319 8.52308 11.6865 8.5747 11.7365 8.63064C12.851 9.77611 13.9654 10.9219 15.0796 12.068C15.7341 12.7403 16.3881 13.4126 17.0417 14.085C17.0905 14.1315 17.136 14.1815 17.1777 14.2346C17.2077 14.2739 17.225 14.3213 17.2275 14.3706C17.2299 14.42 17.2173 14.4689 17.1913 14.5109C17.1439 14.5967 17.0665 14.6394 16.9253 14.6328Z" fill="black"/>
<path d="M7.92198 15.3463C7.96552 15.3635 8.00731 15.3848 8.04675 15.4101C8.09289 15.4485 8.13588 15.4905 8.17528 15.5358L12.7271 20.2058C12.7704 20.2472 12.8112 20.2912 12.8491 20.3376C12.8901 20.3876 12.9106 20.4513 12.9062 20.5158C12.9018 20.5803 12.873 20.6408 12.8256 20.6847C12.7781 20.7282 12.716 20.7523 12.6516 20.7523C12.5872 20.7523 12.5251 20.7282 12.4776 20.6847C12.4383 20.6498 12.401 20.6127 12.3659 20.5736C10.843 19.01 9.32027 17.4477 7.79768 15.8866C7.74923 15.8398 7.70409 15.7896 7.66259 15.7365C7.63474 15.7006 7.61825 15.6571 7.61525 15.6118C7.61224 15.5664 7.62284 15.5211 7.6457 15.4818C7.6973 15.3885 7.77563 15.3406 7.92198 15.3463Z" fill="black"/>
<path d="M10.3727 21.5262C10.3291 21.511 10.2872 21.491 10.2479 21.4667C10.2012 21.4293 10.158 21.3877 10.1189 21.3424L5.56897 16.6719C5.52561 16.6304 5.48458 16.5865 5.44608 16.5405C5.40451 16.4913 5.38305 16.4282 5.38601 16.3638C5.38897 16.2995 5.41612 16.2386 5.46202 16.1934C5.50718 16.1471 5.56858 16.1203 5.63321 16.1185C5.69784 16.1168 5.7606 16.1403 5.8082 16.184C5.84786 16.2184 5.8853 16.2552 5.9203 16.2943L10.5036 20.9967C10.5468 21.0382 10.5871 21.0827 10.6241 21.1299C10.6549 21.1683 10.6727 21.2155 10.6751 21.2647C10.6776 21.3138 10.6645 21.3625 10.6377 21.4038C10.5861 21.4883 10.5111 21.5309 10.3727 21.5262Z" fill="black"/>
<path d="M12.2769 10.8245C12.3231 10.8401 12.3676 10.8606 12.4096 10.8854C12.4568 10.9233 12.5002 10.9657 12.5391 11.0121C13.941 12.4537 15.3429 13.8951 16.7448 15.3364C16.7884 15.3776 16.8288 15.422 16.8658 15.4692C16.9038 15.5189 16.9222 15.581 16.9172 15.6434C16.9123 15.7058 16.8844 15.7642 16.839 15.8074C16.7936 15.8505 16.7339 15.8753 16.6713 15.8771C16.6087 15.8788 16.5476 15.8573 16.4999 15.8168C16.4427 15.7667 16.3888 15.713 16.3386 15.6559C15.0674 14.349 13.7964 13.0419 12.5255 11.7345C12.3895 11.5937 12.253 11.4558 12.1179 11.3123C12.0804 11.276 12.0479 11.2348 12.0212 11.1899C11.9335 11.0271 12.056 10.8273 12.2769 10.8245Z" fill="black"/>
<path d="M13.7627 9.2709C13.8079 9.28801 13.8513 9.30953 13.8922 9.33517C13.9389 9.37289 13.9821 9.41482 14.0212 9.46041L17.2385 12.7687C17.2875 12.8153 17.3336 12.8648 17.3764 12.917C17.4151 12.9659 17.4345 13.0274 17.4308 13.0897C17.4271 13.152 17.4007 13.2108 17.3564 13.2548C17.3122 13.2988 17.2534 13.3251 17.191 13.3285C17.1287 13.332 17.0673 13.3124 17.0185 13.2735C16.9723 13.2352 16.9289 13.1937 16.8886 13.1492C15.8054 12.0372 14.7224 10.9236 13.6398 9.80846C13.5918 9.76111 13.5479 9.7098 13.5085 9.65507C13.4824 9.61775 13.4682 9.57339 13.4678 9.52785C13.4674 9.4823 13.4807 9.4377 13.5062 9.3999C13.5559 9.31594 13.6305 9.27278 13.7627 9.2709Z" fill="black"/>
<path d="M17.2705 11.4558C17.2644 11.6688 17.0627 11.7875 16.8953 11.6955C16.8446 11.6636 16.7988 11.6246 16.7592 11.5797C15.7507 10.5446 14.7422 9.50731 13.7337 8.46786C13.7069 8.44172 13.6818 8.41383 13.6587 8.38436C13.6184 8.33401 13.5988 8.2702 13.6038 8.20589C13.6089 8.14159 13.6382 8.08163 13.6859 8.03819C13.7295 7.99618 13.787 7.97159 13.8475 7.96908C13.908 7.96658 13.9673 7.98632 14.0142 8.02459C14.0381 8.04304 14.0604 8.06344 14.0808 8.08557C15.1062 9.13878 16.131 10.1925 17.1551 11.2466C17.1832 11.2715 17.2074 11.3004 17.2269 11.3325C17.2443 11.3725 17.2589 11.4137 17.2705 11.4558Z" fill="black"/>
<path d="M5.92774 18.3347C5.92791 18.2896 5.94076 18.2455 5.96481 18.2073C5.98886 18.1692 6.02315 18.1385 6.06377 18.1189C6.10359 18.0973 6.14865 18.0872 6.19389 18.0898C6.23912 18.0924 6.28275 18.1075 6.31988 18.1335C6.36207 18.1647 6.40118 18.1999 6.43667 18.2385C7.40921 19.2373 8.38284 20.2358 9.35756 21.234C9.39503 21.2706 9.42852 21.311 9.45747 21.3546C9.48889 21.402 9.50241 21.4592 9.49562 21.5157C9.48883 21.5722 9.46218 21.6245 9.42042 21.6632C9.38206 21.7054 9.32981 21.7323 9.27323 21.7391C9.21664 21.7459 9.1595 21.7321 9.11224 21.7003C9.05189 21.6562 8.99625 21.6061 8.94619 21.5506C8.13314 20.7188 7.32181 19.8867 6.51219 19.0542C6.3499 18.8877 6.18854 18.7207 6.0253 18.5552C5.99448 18.5273 5.96986 18.4933 5.95305 18.4553C5.93625 18.4173 5.92762 18.3762 5.92774 18.3347Z" fill="black"/>
<path d="M7.37974 20.84C7.41228 20.838 7.44487 20.8432 7.47518 20.8552C7.5055 20.8672 7.53281 20.8857 7.55517 20.9094C7.70762 21.0623 7.86147 21.2143 8.00548 21.3747C8.04876 21.4222 8.072 21.4846 8.07034 21.5489C8.06868 21.6132 8.04225 21.6743 7.99657 21.7195C7.97324 21.7437 7.94532 21.7631 7.91443 21.7764C7.88354 21.7897 7.8503 21.7967 7.81666 21.797C7.78303 21.7973 7.74967 21.7909 7.71854 21.7782C7.68741 21.7654 7.65914 21.7466 7.63538 21.7228C7.47918 21.5736 7.33049 21.4165 7.18367 21.2584C7.14906 21.2235 7.12649 21.1785 7.11923 21.1299C7.11197 21.0813 7.12042 21.0317 7.14333 20.9882C7.16245 20.942 7.19549 20.9029 7.23786 20.8763C7.28023 20.8498 7.32982 20.8371 7.37974 20.84Z" fill="black"/>
<path d="M16.8908 9.54484C16.8936 9.59224 16.8829 9.63947 16.8599 9.681C16.8369 9.72253 16.8026 9.75666 16.7609 9.77938C16.7225 9.80293 16.6782 9.81508 16.6332 9.81441C16.5882 9.81375 16.5443 9.8003 16.5066 9.77562C16.4872 9.76485 16.4692 9.7516 16.4532 9.73622C16.3068 9.58753 16.1605 9.4393 16.0174 9.28779C15.9869 9.25514 15.9646 9.21577 15.9522 9.17287C15.938 9.12609 15.9385 9.0761 15.9535 9.02958C15.9685 8.98306 15.9973 8.94223 16.0362 8.91254C16.0775 8.8806 16.1272 8.86134 16.1792 8.85709C16.2312 8.85285 16.2834 8.8638 16.3293 8.88861C16.3547 8.90449 16.3778 8.92356 16.3983 8.94537C16.5343 9.08328 16.6689 9.22212 16.804 9.36097C16.8301 9.38424 16.8512 9.41251 16.8661 9.4441C16.881 9.47569 16.8894 9.50994 16.8908 9.54484Z" fill="black"/>
</svg>
