<svg fill="none" height="41" viewBox="0 0 80 41" width="80" xmlns="http://www.w3.org/2000/svg" xmlns:xlink="http://www.w3.org/1999/xlink"><linearGradient id="a" gradientUnits="userSpaceOnUse" x1="39.5504" x2="39.5504" y1=".934784" y2="40.0661"><stop offset="0" stop-color="#00aeef"/><stop offset=".212" stop-color="#0097dc"/><stop offset=".519" stop-color="#007cc5"/><stop offset=".792" stop-color="#006cb8"/><stop offset="1" stop-color="#0066b3"/></linearGradient><clipPath id="b"><path d="m0 .934784h80v39.1304h-80z"/></clipPath><g clip-path="url(#b)" clip-rule="evenodd" fill-rule="evenodd"><path d="m0 40.0652h39.9774l39.1235-39.130416h-79.1009z" fill="url(#a)"/><path d="m46.9428 8.76087h-7.8122l.0261 18.37393-6.8026-18.38002h-6.7453l-5.8069 15.35042c-.6174-3.9061-4.6557-5.2539-7.8331-6.2635-2.09822-.6739-4.32518-1.6652-4.30257-2.7608.01739-.8992 1.19131-1.7331 3.52437-1.6087 1.5652.0843 2.9478.2104 5.6982 1.5391l2.7044-4.713c-2.5078-1.27656-5.9757-2.08265-8.8191-2.08526h-.0174c-3.31569 0-6.07656 1.07392-7.78786 2.84346-1.19304 1.2348-1.83652 2.8052-1.86261 4.5418-.04348 2.3895.83218 4.0834 2.67217 5.4374 1.55479 1.1391 3.54348 1.8782 5.29566 2.4208 2.16084.6696 3.92604 1.2522 3.90434 2.4922-.0174.4522-.1878.8748-.513 1.2156-.5392.5566-1.3653.7653-2.50873.7879-2.20609.0469-3.84087-.3-6.44609-1.84l-2.40609 4.7739c2.60261 1.48 5.36522 2.2226 8.50435 2.2226l.70606-.0052c2.7322-.0496 4.9496-.7044 6.7113-2.1218.1009-.0808.1913-.1626.2852-.2452l-.2956 1.5235 6.5913-.0209 1.1826-3.0278c1.2435.4244 2.6574.6591 4.1583.6591 1.4626 0 2.8382-.2226 4.0582-.6226l.8244 2.9913 11.8261.0113.0287-6.9026h2.5165c6.0826 0 9.6782-3.0956 9.6782-8.2869-.0017-5.7818-3.4973-8.30003-10.9373-8.30003zm-17.9948 15.70613c-.9087 0-1.7609-.1583-2.4939-.4366l2.466-7.7869h.0479l2.4261 7.8087c-.7305.2608-1.5627.4148-2.447.4148zm18.4521-4.474h-1.7165v-6.2756h1.7174c2.287 0 4.1131.7617 4.1131 3.0974-.0018 2.4174-1.8261 3.1782-4.1131 3.1782" fill="#fff"/></g></svg>