<svg fill="none" height="22" viewBox="0 0 145 22" width="145" xmlns="http://www.w3.org/2000/svg"><path d="m4.55525.967637c-1.52756.308533-3.15385 1.533043-3.849063 2.871373-.6952167 1.33832-.706187 1.66605-.706187 7.29499l.126154 5.8689c.448394 2.2899 2.239226 4.0821 4.530566 4.5305.69384.1262 9.73028.1893 9.73028.0508 0-.1015-.7679-3.1292-.8227-3.1539-.0137-.0247-1.6153-.3784-3.5584-.7953-4.53055-.9845-4.39206-.9599-4.77189-1.4014l-.3291-.3908v-9.16259l.3291-.41137c.37846-.45251.23996-.41686 4.77189-1.40141l3.5584-.79531c.0384-.0384.8227-3.06609.8227-3.153849 0-.119298-9.22567-.063078-9.83175.063076zm14.62695.019197c.0137.227626.7199 3.016716.7953 3.079796.0247.03839 1.7552.4292 3.8395.87073l4.0767.98455c.2222.12912.4088.31149.543.53067.2016.35378.2276.73224.2276 4.79522l-.2276 4.7952c-.1376.2165-.3234.3981-.543.5307-.1646.0877-1.9938.5306-4.0767.9845l-3.8395.8708c-.3129 1.0136-.5783 2.0413-.7953 3.0798 0 .1371.9092.1645 4.8953.1261 5.5028-.0507 5.5673-.0631 6.9659-1.0092 1.0064-.6925 1.7666-1.687 2.1707-2.8399.2907-.846.2907-.9214.2907-6.5366l-.2907-6.54083c-.4041-1.15287-1.1643-2.1474-2.1707-2.83983-1.4014-.959867-1.4645-.959867-6.9659-1.009231-3.9875-.038395-4.8953-.019199-4.8953.126152zm23.4852 4.291966c-.8707 1.81689-1.7415 4.06298-2.6369 6.7876l-1.7922 6.1459c.3359.0329.6856.0453 1.0092.0384h.9969l.1371-.543.4937-1.7278.34-1.1984h6.9289l.3538 1.2615.4799 1.7278.1262.4799h.9969l1.0092-.0384c0-.0247-.2523-.9599-.5677-2.0952-1.1477-4.1522-2.6122-8.22746-3.8491-10.80264l-.6582-1.32462h-2.7507zm2.9893 2.52308 1.7922 4.84592c0 .0247-1.2341.0508-2.7768.0508-1.5426 0-2.7767-.0508-2.7767-.1015 0-.2139 1.2752-3.6091 1.8923-5.07358.4799-1.12442.7199-1.52756.8831-1.52756.1631 0 .4168.46622.9845 1.7922zm6.7136 3.31842v7.1304h2.0198v-14.26086h-2.0198zm4.5429-6.96591c-.2366.15864-.428.37599-.5554.63077-.2016.42919-.2139.53067-.0507.95986.2194.63351.8995.97907 1.5399.78161.6307-.20157.8954-.56769.8954-1.22452 0-.47993-.0631-.61705-.4169-.93244-.4415-.3908-.8954-.46622-1.4123-.20157zm3.6612 6.94121v7.1304l1.5522.1138 2.9276.1138c1.2752 0 1.4508-.0246 2.1199-.3661.7885-.3565 1.3795-1.0462 1.6153-1.8786.0755-.3016.1138-1.64.0878-3.4692-.0384-2.81378-.0507-3.01672-.3154-3.52134-.4936-.90913-1.2368-1.35066-2.6122-1.53989-.7322-.10148-2.5505-.00001-3.1045.17826-.2399.07541-.2523.02468-.2523-1.8786v-1.98281h-2.0198zm5.7413-1.36302c.2467.0896.4498.27012.5677.50462.1646.4292.1646 5.1243 0 5.5398-.1892.5169-.8227.7569-2.0198.7569-.5571.0062-1.1139-.0277-1.6661-.1015l-.6061-.0877v-6.52436l.7323-.12616c1.1244-.18923 2.4984-.17826 2.9893.0384zm14.324 1.37532v7.1305l1.2368.063 2.5738.1646c1.7278.1015 2.8138-.1783 3.5214-.9215.9091-.9324.9324-1.0476.9598-4.2275.0384-2.3092.0137-3.0167-.1371-3.53369-.3401-1.18612-1.3246-1.9307-2.8275-2.10759-.7569-.08776-2.7383.01372-3.1429.17826-.1261.0384-.1645-.3908-.1645-1.8923v-1.95676h-2.0198zm5.6659-1.43291c.2139.07541.4525.23996.517.36611.1371.2523.1782 5.5261.0507 5.8689-.2139.5553-1.9197.7953-3.6091.517l-.6061-.0878v-6.51612l.7323-.12615c1.0092-.16455 2.4353-.17826 2.9152-.0192zm20.0534-5.559c-1.262.22763-1.92.53067-2.562 1.18612-1.009 1.00923-1.072 1.37535-1.072 5.94429 0 4.569.063 4.9337 1.097 5.9567.53.543.823.7062 1.577.9598.822.2523 1.198.2907 2.89.2907 1.465 0 2.222-.063 2.979-.2399.402-.0802.799-.1897 1.186-.3278.101-.063.087-.2907-.063-.8954-.071-.3062-.169-.6058-.291-.8954-.051-.0507-.366-.0137-.694.0878-1.124.34-3.092.4799-4.317.3291-1.224-.1509-1.678-.3538-2.056-.8461-.253-.3291-.265-.4662-.265-4.4044 0-3.93818.014-4.07668.265-4.4044.39-.49365.832-.68151 2.056-.84606 1.225-.16455 3.193-.01371 4.317.3291l.682.18923c.101 0 .543-1.75518.466-1.82923-.039-.03839-.505-.17826-1.06-.3291-1.097-.2907-4.077-.42919-5.124-.23996zm7.975 7.00431v7.1304h1.892v-14.26086h-1.892zm28.659-5.23815v1.8923l-.72-.07542-1.01-.12615c-.429-.07542-2.019.17826-2.473.40452-.588.31218-1.071.79054-1.388 1.37535-.252.46622-.277.73225-.315 3.29095-.051 3.4446.05 3.9492.959 4.846.82.7953 1.793 1.0599 3.445.9598l2.348-.1371 1.161-.0754v-14.23345h-2.018zm-.214 3.84906c.201.08776.214.36609.214 3.35679v3.2553l-.467.0878c-.822.1645-2.347.1261-2.789-.0631-.227-.1015-.466-.277-.53-.4045-.065-.1276-.127-1.4645-.127-2.9783 0-3.01677.025-3.10453.694-3.31844.405-.12615 2.625-.07542 3.017.06308zm-69.193-2.07468c-.5646.07558-1.1248.18086-1.6784.31538-.6815.16455-.846.25231-.7953.41686.0384.11381.1262.47993.2139.83234.0878.3524.1783.66916.2277.70618.0493.03703.5937-.02468 1.2121-.13712 2.1076-.44154 3.5337-.23997 3.7353.51693.0636.3369.0976.6788.1014 1.0216l.0138.7062-1.1985-.0631c-3.206-.1645-5.1367 1.0353-5.1613 3.1922-.0138 1.0216.3153 1.8169.9968 2.4477.7954.7322 1.64.9599 3.2691.8461l2.6369-.1372 1.363-.0877-.0754-8.48112-.3538-.59375c-.7062-1.19297-2.386-1.74833-4.5059-1.47682zm2.94 6.38587c.1261.0754.1138 2.3091-.0138 2.3091-.063 0-.7061.0631-1.4398.1372-2.1075.2015-2.8768-.1139-2.8768-1.1985 0-.4662.0631-.6061.3785-.8831.2742-.2125.628-.3469.9845-.3908l.7816-.1261c.2276-.0508 2.0569.0685 2.183.1577zm17.1884-6.4037-1.6784.3291c-.8461.20157-.9215.2523-.8584.49364l.2276.93244c.1372.63082.1646.66912.4663.59375 1.6907-.44154 3.3183-.56769 3.9765-.3291.5938.22763.7199.47997.7199 1.43977v.9092h-1.5659c-1.9815 0-2.8906.2523-3.7613 1.0352-.3613.3051-.6398.6964-.8098 1.1376-.1699.4413-.2258.9183-.1624 1.3869.2139 2.0568 1.6784 3.0537 4.3029 2.8906l2.6369-.1372 1.363-.0877-.0384-4.1768c-.0384-4.0136-.0507-4.20285-.3154-4.69513-.7199-1.35067-2.3475-1.95675-4.5182-1.70307zm2.4984 6.3077h.3401v2.3859l-.7199.0878c-1.3877.1783-2.7384.1371-3.0922-.1015-.7062-.4662-.6815-1.6907.0384-2.0568.4937-.2523 1.6661-.4292 2.4477-.3538l.9845.0507zm24.4572-6.31044c-.766.16672-1.454.5841-1.957 1.18612-.644.84605-.706 1.26152-.706 4.29192 0 3.1045.088 3.4693.922 4.3414.822.846 1.212.9598 3.117.9598 1.956 0 2.399-.1371 3.205-1.0969.768-.9092.859-1.3631.823-4.5553-.038-2.5999-.063-2.85216-.315-3.33209-.374-.68857-.951-1.24433-1.654-1.59064-.644-.2907-2.537-.41685-3.42-.22762zm2.777 2.09525c.644.32909.744.78159.744 3.26899 0 2.3586-.087 2.8015-.63 3.2814-.391.3538-2.171.4415-2.814.1262-.757-.3538-.846-.7199-.846-3.4076 0-2.5738.075-2.9152.732-3.26899.48-.26465 2.309-.26465 2.814 0zm-66.8986 3.26899v5.2382h1.8923v-10.47629h-1.8923zm71.0986-5.07354c-.038.10147-.051 1.99378-.025 4.20284.039 3.6338.063 4.063.277 4.4675.745 1.4014 2.006 1.9814 4.063 1.8429l3.587-.2153v-10.44878h-1.919v8.57018l-.594.0878c-1.097.1783-2.461.1138-2.903-.1138l-.441-.2523c-.014-.0137-.064-1.8676-.102-4.1137l-.063-4.11373-.922-.03839c-.693-.02468-.932 0-.984.13712zm-114.0964 3.05374c-.0412.135-.0496.2779-.0247.4169.0384.2139.2646.2276 3.2306.2646l3.1813.0247v-.8831h-3.1539c-2.6369 0-3.1812.0247-3.2306.1783z" fill="#373c41"/></svg>