<svg fill="none" height="27" viewBox="0 0 111 27" width="111" xmlns="http://www.w3.org/2000/svg"><path d="m12.5301 15.5905c-.278 1.7682-.8841 3.0822-1.8441 4.0169-.9347.9349-2.17284 1.3894-3.68842 1.3894-1.86937 0-3.259-.783-4.1684-2.3749-.90964-1.5659-1.36434-4.0167-1.36434-7.2754 0-3.41049.4547-5.91158 1.41492-7.50327.95997-1.61673 2.45051-2.39993 4.44608-2.39993 1.43996 0 2.57695.40412 3.41046 1.18732.8588.7832 1.44 1.99557 1.7685 3.63783l-3.38546 1.11147c-.1009-1.01055-.27792-1.74318-.58089-2.19788-.30321-.45494-.70758-.68229-1.26319-.68229-.75791 0-1.28847.47999-1.59169 1.46525-.30297.98502-.4547 2.75347-.4547 5.381 0 2.5011.15173 4.244.42966 5.1787.30321.9347.80849 1.4147 1.54111 1.4147.53056 0 .95997-.2779 1.28823-.8591.32826-.5811.55585-1.4652.68205-2.6526" fill="#002f66"/><path d="m21.7514 8.23925c-.8335-1.18757-2.0967-1.79375-3.7893-1.79375-1.6673 0-2.9305.60618-3.7387 1.79375-.8085 1.21261-1.2127 3.03145-1.2127 5.45665s.4042 4.2442 1.2127 5.4063c.8082 1.2128 2.0714 1.7937 3.7387 1.7937 1.6926 0 2.9558-.5809 3.7893-1.7684.8085-1.1621 1.2126-2.9809 1.2126-5.4314 0-2.4257-.4041-4.24448-1.2126-5.45685zm-2.6273 8.86715c-.2273.657-.6064 1.0105-1.162 1.0105-.5306 0-.9094-.3535-1.1368-1.0358-.2526-.7074-.3537-1.8441-.3537-3.4358 0-1.5914.1011-2.7284.3537-3.4358.2274-.68202.6062-1.03557 1.1368-1.03557s.9347.32851 1.162 1.03557c.2274.6823.3536 1.8188.3536 3.4358.0002 1.642-.126 2.7788-.3536 3.4611z" fill="#002f66"/><path d="m24.2266 20.5927v-13.84423h3.2084v3.46083h.1517c.2779-1.21263.7326-2.14756 1.3391-2.80408.6314-.63171 1.4144-.95997 2.324-.95997h.1518v3.61255c-.1012-.0253-.2023-.0253-.3285-.0253-.1265 0-.278 0-.48 0-1.0106 0-1.7685.2526-2.2485.7579s-.7326 1.3138-.7326 2.4v7.4021" fill="#002f66"/><path d="m36.2773 14.3526h4.9008v-1.4399c0-2.1223-.4295-3.73879-1.2379-4.80016-.8338-1.08617-2.0464-1.64202-3.6629-1.64202-1.6926 0-2.9558.60643-3.739 1.79351-.8085 1.18732-1.2126 3.03167-1.2126 5.55777 0 2.4508.4043 4.2696 1.2126 5.3813.7832 1.1618 2.0211 1.7426 3.7134 1.7426h.0253c1.2377 0 2.223-.3533 2.9809-1.0355.7832-.7071 1.3135-1.7179 1.6167-3.0823l-3.082-.7073c-.0758.682-.2526 1.2126-.5305 1.5917-.2527.3535-.5812.5305-.9851.5305h-.0253c-.5558 0-.9852-.2779-1.2379-.8588-.2526-.5811-.379-1.5411-.379-2.8549v-.1767h1.6425zm-1.2126-4.54722c.2526-.53056.657-.78319 1.162-.78319h.0506c.5556 0 .9597.25263 1.2376.7579.278.47971.4042 1.28821.4042 2.37461h-1.6418-1.6423c.0253-1.0611.1517-1.844.4297-2.34932z" fill="#002f66"/><g fill="#4087c8"><path d="m42.3662 20.6177v-18.79531h7.9072v2.95554h-4.2694v4.52218h4.2694v2.90519h-4.2694v8.4124"/><path d="m51.0806 3.56536c0-.53056.177-.98501.5558-1.36409.3538-.35379.7832-.55585 1.3138-.55585s.9852.20206 1.3388.55585c.3791.35355.5558.80824.5558 1.36409 0 .50528-.1767.95998-.5558 1.31377-.3788.35355-.8338.53056-1.3388.53056-.5053 0-.9347-.17701-1.3138-.55585-.3791-.35355-.5558-.80825-.5558-1.28848zm.2273 17.05244v-13.86906h3.3346v13.86906z"/><path d="m59.9988 1.82239h-3.3093v18.79531h3.3093z"/><path d="m61.8174 3.56536c0-.53056.1768-.98501.5301-1.36409.3795-.35379.8085-.55585 1.339-.55585.5306 0 .9858.20206 1.3391.55585.3788.35355.5556.80824.5556 1.36409 0 .50528-.2021.95998-.5556 1.31377-.3791.35355-.8338.53056-1.3391.53056s-.9347-.17701-1.3135-.55585c-.3788-.35355-.5556-.80825-.5556-1.28848zm.2271 17.05244v-13.86906h3.3346v13.86906z"/><path d="m67.1987 20.5927v-13.84425h3.1832v2.22316c.4041-.83353.8843-1.46525 1.4146-1.86938.5559-.42965 1.1874-.63147 1.92-.63147.9855 0 1.6671.30322 2.0717.9094.4041.60618.6064 1.6926.6064 3.28404v9.9285h-3.3602v-8.6653c0-1.0106-.1011-1.6924-.2779-2.0464-.1515-.35379-.4802-.53056-.9094-.53056-.4296 0-.7574.20206-.9602.63147-.2018.40409-.3283 1.03579-.3283 1.86939v8.7411"/><path d="m83.822 6.74869v2.62728c-.2784-1.01055-.6572-1.74293-1.1377-2.19787-.025-.05058-.0754-.07586-.1007-.10115-.4547-.40436-1.01-.60643-1.6675-.60643-1.0859 0-1.8944.60643-2.425 1.79351-.5301 1.16203-.808 2.98107-.808 5.38097 0 2.3244.3027 4.0926.8586 5.2799.5811 1.2381 1.4147 1.8446 2.5013 1.8446.5807 0 1.0859-.2023 1.5406-.6065.0253-.0253.0759-.0503.1007-.1011.4552-.4802.8593-1.1623 1.1377-2.0714v2.0969c0 .985-.1267 1.7429-.4299 2.2232-.177.3535-.4547.5556-.8085.6567-.1514.0504-.3285.0759-.505.0759-.3538 0-.657-.1012-.9349-.3032-.2527-.2018-.4798-.5053-.6565-.9094l-2.5262 1.7176c.4037.7076.9848 1.2632 1.7174 1.6423.7577.3791 1.5915.5809 2.5514.5809h.3536c.8843-.0503 1.6673-.2522 2.299-.6312.7326-.4297 1.3135-1.0612 1.7181-1.92.2021-.4299.3529-1.0105.4543-1.7176.1014-.7076.1517-1.6929.1517-2.9308v-11.82286h-3.3845zm-.177 9.97881c-.2529.6821-.6067 1.0103-1.0614 1.0358h-.0501c-.4804 0-.834-.3285-1.0616-.9852-.2018-.657-.3282-1.6673-.3282-3.0317 0-1.4905.1264-2.5767.3282-3.2084.2279-.65675.5814-.98526 1.0867-.98526h.0253c.4547.02529.8085.3538 1.0363 1.03586.2522.682.3791 1.6926.3791 2.9811-.0005 1.4144-.1272 2.4758-.3543 3.1578z"/></g><path clip-rule="evenodd" d="m101.748 9.5875 7.875 1.2972v-9.17175h-9.172z" fill="#002f66" fill-rule="evenodd"/><path clip-rule="evenodd" d="m98.6324 9.5875 1.297-7.87455h-9.1716v9.17175z" fill="#002f66" fill-rule="evenodd"/><path clip-rule="evenodd" d="m98.6324 12.703-7.8746-1.297v9.1718h9.1716z" fill="#002f66" fill-rule="evenodd"/><path clip-rule="evenodd" d="m101.748 12.703-1.297 7.8748h9.172v-9.1718z" fill="#4087c8" fill-rule="evenodd"/></svg>