<?xml version="1.0" encoding="UTF-8"?>
<svg id="Capa_1" data-name="Capa 1" xmlns="http://www.w3.org/2000/svg" viewBox="0 0 1000 327">
  <defs>
    <style>
      .cls-1 {
        fill: #f69520;
      }

      .cls-2 {
        fill: #23273d;
      }

      .cls-3 {
        fill: #5565ae;
      }

      .cls-4 {
        fill: #262262;
      }
    </style>
  </defs>
  <g>
    <path class="cls-2" d="M568.03,95.09c3.06,14.97-7.39,28.01-22.85,28.27-13.64,.22-27.29,.03-40.94,.06-9,.02-15.44,5.77-15.68,13.92-.23,7.96,6.12,14.43,15.04,14.7,9.31,.28,18.64,.05,27.96,.09,24.41,.1,43.14,18.71,43.12,42.82-.02,23.94-19.04,42.86-43.2,42.9-19.31,.03-38.61,0-57.92,0h-4.79c-3.98-13.53,7.06-28.09,21.64-28.5,13.14-.37,26.29-.11,39.44-.14,9.52-.02,16.3-6.06,16.22-14.41-.08-8.19-6.68-14.06-16.01-14.16-10.31-.11-20.65,.25-30.94-.35-21.73-1.25-39.3-20.59-39.31-42.71-.02-22.09,18.09-42.05,39.95-42.7,22.28-.66,44.6-.15,66.9-.14,.47,0,.93,.23,1.36,.35Z"/>
    <path class="cls-2" d="M967.3,194.26h-82.54c3.48,10.44,16.42,18.44,28.37,17.75,2.96-.17,6.23-.32,8.74-1.65,5.05-2.68,9.39-1.42,14.09,.66,6.06,2.68,12.31,4.97,18.51,7.45-12.9,19.63-46.98,25.38-70.54,12.04-25.88-14.65-36.09-46.88-23.35-73.75,12.81-27.04,44.49-39.57,72.47-28.68,26.59,10.35,41.41,38.93,34.25,66.18Zm-27.7-26.18c-3.26-11.01-16.17-18.63-29.75-17.79-11.37,.7-23.37,9.29-24.84,17.79h54.59Z"/>
    <path class="cls-2" d="M797.11,165.19c3.36-3.83,6.58-7.8,10.12-11.44,6.84-7.04,13.81-13.93,20.84-20.78,1.22-1.19,2.97-2.59,4.49-2.62,11.13-.22,22.27-.12,33.6-.12-17.8,17.76-35.34,35.26-53.67,53.54,18.57,18.5,36.15,36.02,54.28,54.08-11.67,0-22.76,.1-33.84-.12-1.52-.03-3.26-1.45-4.48-2.65-9.61-9.44-19.1-18.99-28.65-28.5-1.14-1.13-2.36-2.19-4.38-4.05v34.94h-25.9V87.22h25.46v76.57c.7,.46,1.41,.93,2.11,1.39Z"/>
    <path class="cls-2" d="M650.57,236.94c-11.07,0-21.69,1.25-31.88-.29-15.12-2.3-26.85-17.39-26.95-32.91-.2-30.57-.09-61.14,.04-91.72,0-1.43,1.12-3.83,2.2-4.14,7.49-2.16,15.1-3.89,23.36-5.92v41.2c4.38,0,8.19-.28,11.93,.14,1.48,.16,3.66,1.6,4.04,2.89,2.15,7.28,3.86,14.7,5.89,22.76h-21.51c0,11.99-.35,23.4,.15,34.78,.23,5.27,4.4,8.17,10.11,8.42,4.32,.19,8.66-.06,12.98,.13,1.29,.06,3.45,.68,3.67,1.47,2.19,7.76,4.06,15.61,5.96,23.19Z"/>
    <path class="cls-2" d="M685.32,237.66h-25.55v-107.49h25.26c.19,2.36,.37,4.59,.49,6.08,7.56-2.92,14.99-5.97,22.56-8.62,2.38-.83,5.14-.6,8.12-.9v25.55c-2.65,.49-5.27,.8-7.8,1.46-13.41,3.48-22.97,15.94-23.06,30.24-.1,15.95-.02,31.9-.02,47.85,0,1.8,0,3.59,0,5.83Z"/>
    <path class="cls-2" d="M754.04,130.47v107.04h-25.31v-107.04h25.31Z"/>
    <path class="cls-2" d="M728.62,112.45v-25.27h25.31v25.27h-25.31Z"/>
  </g>
  <path class="cls-1" d="M224.19,188.88c-16.55,15.35-39.36,20.54-61.98,21.14-29.78,.79-59.59,.33-89.39,.42-1.82,0-3.67,.04-5.46,.31-4.4,.68-6.82,3.32-6.86,7.79-.04,4.19,3.18,7.28,7.76,7.45,4.16,.16,8.32,.02,12.49,.05,5.9,.03,9.36,2.66,9.52,7.21,.16,4.57-3.64,7.59-9.69,7.6-13.32,.02-26.64-.02-39.96,.02-6.12,.02-9.67,2.84-9.72,7.57-.05,4.93,3.3,7.69,9.49,7.72,6.66,.03,13.32-.1,19.98,.05,5.09,.11,8.2,3.12,8.2,7.51,0,4.34-3.21,7.18-8.32,7.27-3.83,.06-7.66-.05-11.49,.03-5.56,.12-9.12,3.21-9.12,7.8,0,2.57,1.19,4.72,3.25,6.1,1.32,.88,2.92,1.26,4.51,1.26h15.21s.05,0,.08,0h-.1c44.65-6.93,84.05-25.26,118.11-54.99,7-6.11,13.59-12.72,20.27-19.19,8.97-8.68,17.84-17.48,26.77-26.21-1.6,1.33-3.06,2.64-3.56,3.1Zm-124.62,81.76c-6.1,.41-12.27,.44-18.37,0-4.07-.29-6.53-3.15-6.65-7.38-.11-3.84,3.17-6.99,7.39-7.21,2.97-.15,5.96-.03,8.95-.03,2.65,0,5.31-.12,7.95,.03,4.23,.24,7.54,3.39,7.39,7.2-.17,4.17-2.52,7.11-6.66,7.39Zm1.31-29.79c-3.95,.04-7.31-3.23-7.4-7.21-.1-4.15,3.42-7.71,7.52-7.59,3.84,.11,7.31,3.66,7.28,7.45-.02,3.8-3.56,7.31-7.4,7.35Z"/>
  <path class="cls-3" d="M180.7,231.18c-34.06,29.73-73.46,48.05-118.11,54.99h.1c43.41,0,86.81,.02,130.22-.04,3.47,0,6.94-.51,10.4-.84,24.82-2.31,47.46-10.8,68.39-24.1,15.91-10.11,28.49-23.84,41.17-37.49,22.06-23.75,44.24-47.38,66.43-71,2.94-3.13,3.87-6.63,2.42-10.5-1.51-4.06-5.03-5.73-9.13-5.69-21.61,.19-43.25-.03-64.83,.93-19.72,.87-37.44,8.35-51.93,21.59-9.55,8.72-18.85,17.71-28.1,26.76-8.92,8.73-17.79,17.53-26.77,26.21-6.69,6.47-13.27,13.07-20.27,19.19Z"/>
  <path class="cls-4" d="M452.75,43.98c-.23-.54-.66-1.07-1.2-1.54-1.23-1.07-2.84-1.6-4.48-1.6h-34.95s-.03,0-.04,0c1.62,0,3.23,0,4.85,0h.1c-44.65,6.93-84.05,25.26-118.11,54.99-7,6.11-13.59,12.72-20.27,19.19-7.4,7.16-14.74,14.4-22.09,21.62,0,0,0,0,0,0-1.56,1.53-3.11,3.06-4.68,4.59,1.6-1.33,3.06-2.64,3.56-3.1,1.1-1.02,2.24-2,3.4-2.94,10.47-8.46,23.06-13.35,36.35-15.9,11.75-3.04,23.92-4.4,36.49-4.26,12.42,.14,24.91,.96,37.24-1.43,11.45-2.22,22.1-6.21,31.65-12.28,.16-.11,.33-.23,.49-.35,2.66-1.86,5.24-3.89,7.71-6.16,3.07-2.82,6.07-5.72,9.03-8.66,5.03-4.99,9.93-10.11,14.77-15.3,6.37-6.83,12.66-13.76,19.04-20.58,1.28-1.37,1.86-4.61,1.14-6.29Z"/>
  <path class="cls-3" d="M416.93,40.84c-1.62,0-3.23,0-4.85,0-41.79,0-83.58-.02-125.37,.04-3.47,0-6.94,.51-10.4,.84-24.82,2.31-47.46,10.8-68.39,24.1-15.91,10.11-28.49,23.84-41.17,37.49-22.06,23.75-44.24,47.38-66.43,71-2.94,3.13-3.87,6.63-2.42,10.5,1.51,4.06,5.03,5.73,9.13,5.69,21.61-.19,43.25,.03,64.83-.93,19.72-.87,37.44-8.35,51.93-21.59,9.55-8.72,18.85-17.71,28.1-26.76,1.56-1.53,3.12-3.06,4.68-4.59,7.35-7.22,14.69-14.46,22.09-21.62,6.69-6.47,13.27-13.07,20.27-19.19,34.06-29.73,73.46-48.05,118.11-54.99h-.1Z"/>
</svg>