<svg fill="none" height="27" viewBox="0 0 117 27" width="117" xmlns="http://www.w3.org/2000/svg" xmlns:xlink="http://www.w3.org/1999/xlink"><linearGradient id="a"><stop offset="0" stop-color="#161a20"/><stop offset=".1" stop-color="#181c23"/><stop offset="1" stop-color="#292e36"/></linearGradient><linearGradient id="b" gradientUnits="userSpaceOnUse" x1="6.63635" x2="6.63635" xlink:href="#a" y1="25.9282" y2="8.80164"/><linearGradient id="c" gradientUnits="userSpaceOnUse" x1="679.891" x2="679.891" xlink:href="#a" y1="2156.74" y2=".897461"/><linearGradient id="d" gradientUnits="userSpaceOnUse" x1="1516.75" x2="1516.75" xlink:href="#a" y1="1507.48" y2="502.429"/><linearGradient id="e" gradientUnits="userSpaceOnUse" x1="6168.77" x2="6168.77" xlink:href="#a" y1="1523.25" y2="497.315"/><path d="m8.93074 15.8475c-1.84281-.6255-3.57342-.8415-3.3883-2.0251.22159-1.683 2.31964-1.8793 5.41346.3309l2.0363-3.1947c-2.1373-1.28745-3.5089-2.15696-6.23524-2.15696-3.01805 0-5.63501 2.03916-5.63501 4.94776 0 3.0546 2.13452 4.011 5.2283 4.9703 1.17805.3674 2.31964.7349 2.31964 1.9129 0 1.9887-3.53415 1.8793-5.85379-.7713l-2.8161 2.8525c.965765.9995 2.1197 1.7981 3.39537 2.3498 1.27566.5516 2.64786.8455 4.03756.8646 3.23967 0 5.84257-2.6422 5.84257-5.1834 0-2.7375-2.0981-4.2354-4.34476-4.8973z" fill="url(#b)"/><path d="m40.6819.897461h-4.7122v24.590439h4.7122z" fill="url(#c)"/><path d="m28.753 11.1268c-1.2219-1.0348-2.7144-1.69858-4.3012-1.91301-1.5869-.21442-3.202.02947-4.6548.7029-1.4527.67341-2.6826 1.74831-3.5445 3.09781s-1.3199 2.9174-1.3199 4.5187.458 3.1692 1.3199 4.5187 2.0918 2.4244 3.5445 3.0978c1.4528.6734 3.0679.9173 4.6548.7029 1.5868-.2144 3.0793-.8782 4.3012-1.9131v1.5483h3.9044v-15.86998h-3.5341zm-4.8777 10.7147c-.8576 0-1.696-.2543-2.4091-.7308s-1.2689-1.1537-1.5971-1.9461-.4141-1.6643-.2468-2.5054c.1673-.8412.5803-1.6139 1.1868-2.2203.6064-.6065 1.3791-1.0195 2.2203-1.1868.8411-.1673 1.713-.0814 2.5054.2468.7923.3282 1.4696.884 1.9461 1.5971s.7308 1.5515.7308 2.4091c0 1.1501-.4569 2.2531-1.2701 3.0663s-1.9162 1.2701-3.0663 1.2701z" fill="url(#d)"/><path d="m86.8499.897461v9.256139c-1.2874-.7637-2.7541-1.17294-4.2509-1.18617s-2.9704.37002-4.2712 1.11077c-1.3007.7408-2.3821 1.8127-3.1344 3.1069-.7522 1.2941-1.1485 2.7643-1.1485 4.2612 0 1.4968.3963 2.967 1.1485 4.2612.7523 1.2941 1.8337 2.366 3.1344 3.1068 1.3008.7408 2.7744 1.124 4.2712 1.1108s2.9635-.4225 4.2509-1.1862v.7489h4.3448v-24.590339zm-4.3279 20.887939c-.8528.0013-1.6871-.2488-2.3984-.7192-.7114-.4703-1.2683-1.14-1.601-1.9252-.3328-.7852-.4266-1.6511-.2698-2.4894.1569-.8382.5574-1.6116 1.1515-2.2234s1.3554-1.0349 2.1887-1.2163c.8333-.1813 1.7015-.113 2.4962.1965.7946.3096 1.4803.8466 1.9714 1.5438.491.6972.7656 1.5238.7893 2.3763v.244c-.0307 1.1275-.5001 2.1986-1.3083 2.9854-.8083.7868-1.8917 1.2272-3.0196 1.2275z" fill="#ffcd1c"/><path d="m64.1703 8.96989c-1.9768.0014-3.8905.69621-5.4078 1.96341.437.5737.8361 1.1752 1.1949 1.8007.3297.6354.6182 1.2912.8639 1.9635.6484-.7876 1.5539-1.3209 2.557-1.5062 1.0031-.1852 2.0394-.0104 2.9263.4936.8868.504 1.5673 1.3049 1.9215 2.2616.3541.9566.3592 2.0075.0144 2.9675s-1.0174 1.7675-1.8993 2.2802c-.8819.5126-1.9165.6975-2.9214.5221-1.0048-.1755-1.9155-.7-2.5715-1.4812-.656-.7811-1.0152-1.7688-1.0143-2.7889 0-.1402 0-.2805 0-.4179v-.1374c0-.0898-.014-.1823-.0224-.2805-.0085-.0982 0-.1122-.0197-.1711-.0196-.0589-.0168-.1543-.028-.2328-.0112-.0786-.0197-.1234-.0309-.1851s-.0252-.1403-.0364-.2104l-.0421-.1992c-.014-.0617-.0281-.1234-.0449-.1851s-.0337-.1402-.0533-.2103c-.0196-.0702-.0308-.1094-.0449-.1655-.014-.0561-.0448-.1487-.0701-.2244-.0252-.0758-.0308-.0898-.0449-.1347-.014-.0448-.0561-.1626-.0869-.244l-.0365-.0925c-.0364-.0926-.0729-.1852-.1122-.2805-.3458-.7962-.8112-1.5349-1.38-2.1906-.1939-.2234-.3989-.4368-.6143-.6396-1.1907-1.1162-2.6782-1.86512-4.2841-2.15696-1.6058-.29185-3.2617-.1142-4.7691.51165-1.5073.62581-2.8021 1.67331-3.729 3.01671s-1.4465 2.9257-1.4965 4.557c-.05 1.6314.3717 3.2425 1.2146 4.6402.8428 1.3976 2.0711 2.5224 3.5373 3.2394s3.1081.9957 4.7288.8028c1.6207-.193 3.1513-.8494 4.4082-1.8906-.4325-.5705-.8279-1.1683-1.1837-1.7895-.3337-.6429-.6241-1.3072-.8695-1.9887-.6431.7927-1.5455 1.3327-2.548 1.5248s-2.0407.0239-2.9312-.4749c-.8906-.4988-1.5764-1.2961-1.9363-2.2513-.36-.9551-.371-2.0067-.0311-2.9692.3398-.9625 1.0087-1.774 1.8887-2.2913.8799-.5173 1.9143-.7072 2.9206-.5362 1.0063.1711 1.9198.6921 2.5794 1.4711s1.0228 1.7659 1.0256 2.7866v.418.1374c0 .0926 0 .1823.0196.2805s.014.115.0197.1711c.0056.0561.0196.1571.0308.2328s.0196.1262.0309.1879c.0112.0617.0224.1375.0364.2076l.0421.1991.0421.188c.0168.0701.0364.1402.0561.2103l.0448.1627c.0225.0757.0449.1515.0702.2244.0252.0729.028.0926.0448.1374.0169.0449.0561.1627.087.2413l.0365.0925c.0364.0926.0729.1879.1122.2805.3563.7989.8341 1.5378 1.4164 2.1906.0898.1038.1823.2076.2805.3057-.0005.0075-.0005.015 0 .0225.0954.0982.1907.1935.2805.2805l.0308.028c1.0112.9419 2.2372 1.6224 3.5714 1.9822 1.3342.3599 2.7361.3882 4.0838.0825 1.3476-.3057 2.6001-.9361 3.6484-1.8364 1.0484-.9003 1.8608-2.0431 2.3666-3.3291s.6896-2.6761.5355-4.0494c-.1541-1.3732-.6416-2.688-1.4199-3.8298-.7783-1.1419-1.8238-2.0762-3.0457-2.72166-1.2218-.64547-2.5829-.98254-3.9648-.98187z" fill="url(#e)"/><path d="m109.747 20.3044c.594-1.7232.617-3.5923.065-5.3296s-1.65-3.2501-3.131-4.3135c.145.5912.115 1.2116-.084 1.7867-.154.4424-.403.8456-.729 1.181-.327.3354-.724.5949-1.162.7599.644.6067 1.086 1.3958 1.268 2.2614.182.8655.095 1.766-.251 2.5804-.345.8143-.931 1.5034-1.679 1.9747-.749.4713-1.624.7021-2.507.6614-.254-.006-.506-.0399-.752-.101-.158-.0339-.313-.077-.466-.129l-.033-.0169c-.5111-.1104-1.0448-.0235-1.4943.2432-.4494.2668-.7813.6937-.929 1.1951-.1477.5013-.1003 1.04.1327 1.5078.233.4679.6344.8303 1.1235 1.0144l.3338.115c2.0793.5818 4.3033.3479 6.2163-.654s3.371-2.6962 4.078-4.737z" fill="#d51130"/><path d="m96.7684 22.5876c.1495-.4394.3935-.8406.7148-1.1755.3213-.3348.7121-.5952 1.1448-.7627-.7258-.6775-1.1969-1.5837-1.3346-2.5669-.1377-.9833.0664-1.9841.5782-2.8349s1.3002-1.5 2.2334-1.8391c.933-.3391 1.954-.3475 2.893-.0238h.02c.505.1143 1.035.0348 1.484-.2229s.786-.6746.942-1.1684c.157-.4938.122-1.0283-.096-1.4978-.219-.4696-.606-.8399-1.085-1.03768l-.331-.115c-1.925-.55649-3.9852-.41267-5.8143.40593-1.8292.81855-3.309 2.25895-4.1767 4.06535s-1.0671 3.8618-.5628 5.8013c.5042 1.9395 1.6796 3.6375 3.3173 4.7924-.1552-.6007-.1298-1.2339.0729-1.8203z" fill="#ffcd1c"/><path d="m112.568 25.4879v-4.3308h4.432v4.3308zm.101-6.5466v-18.043839h4.331v18.043839z" fill="#d51130"/></svg>