<svg width="76" height="19" viewBox="0 0 76 19" fill="none" xmlns="http://www.w3.org/2000/svg">
<path d="M8.57912 10.9598C8.38883 12.1705 7.97379 13.0702 7.31651 13.7102C6.67654 14.3503 5.8288 14.6615 4.79111 14.6615C3.51118 14.6615 2.55972 14.1254 1.93707 13.0354C1.31425 11.9632 1.00293 10.2853 1.00293 8.05403C1.00293 5.71893 1.31426 4.00647 1.9717 2.91667C2.62898 1.80971 3.64953 1.27347 5.01586 1.27347C6.00178 1.27347 6.78026 1.55016 7.35097 2.08641C7.93899 2.62265 8.33689 3.45274 8.56181 4.57718L6.24385 5.33818C6.17476 4.64627 6.05356 4.14465 5.84612 3.83333C5.63851 3.52184 5.36165 3.36617 4.98123 3.36617C4.4623 3.36617 4.09903 3.69481 3.89143 4.36941C3.68399 5.04384 3.5801 6.25467 3.5801 8.0537C3.5801 9.76615 3.68399 10.9595 3.87428 11.5995C4.08189 12.2394 4.42784 12.5681 4.92946 12.5681C5.29273 12.5681 5.58674 12.3778 5.81149 11.9799C6.03624 11.582 6.19207 10.9767 6.27848 10.1637" fill="#002F66"/>
<path d="M14.8928 5.92655C14.3221 5.11344 13.4572 4.69839 12.2983 4.69839C11.1567 4.69839 10.2919 5.11344 9.73846 5.92655C9.1849 6.75681 8.9082 8.0021 8.9082 9.66262C8.9082 11.3231 9.1849 12.5686 9.73846 13.3642C10.2919 14.1946 11.1567 14.5924 12.2983 14.5924C13.4572 14.5924 14.3221 14.1946 14.8928 13.3815C15.4464 12.5859 15.7231 11.3406 15.7231 9.66278C15.7231 8.00194 15.4464 6.75664 14.8928 5.92655ZM13.0939 11.9977C12.9383 12.4476 12.6787 12.6896 12.2983 12.6896C11.9351 12.6896 11.6757 12.4476 11.52 11.9804C11.347 11.4961 11.2778 10.7178 11.2778 9.62799C11.2778 8.53835 11.347 7.75987 11.52 7.27557C11.6757 6.80858 11.9351 6.56651 12.2983 6.56651C12.6616 6.56651 12.9383 6.79143 13.0939 7.27557C13.2496 7.74272 13.336 8.52087 13.336 9.62799C13.3362 10.7523 13.2498 11.5306 13.0939 11.9977Z" fill="#002F66"/>
<path d="M16.5874 14.3848V4.90582H18.7842V7.27539H18.888C19.0783 6.44513 19.3897 5.805 19.8049 5.35549C20.2372 4.92296 20.7733 4.69821 21.3961 4.69821H21.5V7.17167C21.4308 7.15435 21.3615 7.15436 21.2751 7.15436C21.1885 7.15436 21.0848 7.15436 20.9465 7.15436C20.2545 7.15436 19.7356 7.32733 19.407 7.67328C19.0783 8.01924 18.9054 8.5728 18.9054 9.31648V14.3846" fill="#002F66"/>
<path d="M24.8385 10.1123H28.194V9.12635C28.194 7.67328 27.9 6.56648 27.3464 5.83978C26.7756 5.0961 25.9453 4.71552 24.8385 4.71552C23.6796 4.71552 22.8147 5.13073 22.2785 5.9435C21.7249 6.75645 21.4482 8.01923 21.4482 9.74883C21.4482 11.4268 21.7251 12.6721 22.2785 13.4333C22.8147 14.2288 23.6623 14.6265 24.821 14.6265H24.8384C25.6858 14.6265 26.3604 14.3846 26.8793 13.9174C27.4155 13.4333 27.7786 12.7412 27.9862 11.8071L25.8761 11.3228C25.8241 11.7898 25.7031 12.153 25.5128 12.4126C25.3398 12.6546 25.1149 12.7758 24.8384 12.7758H24.821C24.4405 12.7758 24.1465 12.5856 23.9735 12.1878C23.8005 11.7899 23.7139 11.1326 23.7139 10.2331V10.1121H24.8385V10.1123ZM24.0083 6.99884C24.1812 6.63558 24.4581 6.4626 24.8039 6.4626H24.8385C25.2189 6.4626 25.4956 6.63558 25.6859 6.98153C25.8762 7.31 25.9626 7.86357 25.9626 8.60742H24.8385H23.7141C23.7314 7.88088 23.818 7.3448 24.0083 6.99884Z" fill="#002F66"/>
<path d="M29.0073 14.4019V1.53302H34.4212V3.55663H31.4981V6.6529H34.4212V8.64206H31.4981V14.4019" fill="#4087C8"/>
<path d="M34.9741 2.72639C34.9741 2.36312 35.0953 2.05197 35.3547 1.79242C35.5969 1.55018 35.891 1.41183 36.2542 1.41183C36.6175 1.41183 36.9288 1.55018 37.1709 1.79242C37.4304 2.03449 37.5515 2.34581 37.5515 2.72639C37.5515 3.07235 37.4304 3.38367 37.1709 3.62591C36.9115 3.86798 36.6 3.98917 36.2542 3.98917C35.9083 3.98917 35.6143 3.86798 35.3547 3.60859C35.0952 3.36653 34.9741 3.0552 34.9741 2.72639ZM35.1298 14.4019V4.906H37.4129V14.4019H35.1298Z" fill="#4087C8"/>
<path d="M41.0803 1.53302H38.8145V14.4019H41.0803V1.53302Z" fill="#4087C8"/>
<path d="M42.3257 2.72639C42.3257 2.36312 42.4467 2.05197 42.6886 1.79242C42.9485 1.55018 43.2422 1.41183 43.6054 1.41183C43.9687 1.41183 44.2804 1.55018 44.5223 1.79242C44.7817 2.03449 44.9027 2.34581 44.9027 2.72639C44.9027 3.07235 44.7643 3.38367 44.5223 3.62591C44.2627 3.86798 43.9514 3.98917 43.6054 3.98917C43.2595 3.98917 42.9655 3.86798 42.7061 3.60859C42.4467 3.36653 42.3257 3.0552 42.3257 2.72639ZM42.4812 14.4019V4.906H44.7643V14.4019H42.4812Z" fill="#4087C8"/>
<path d="M46.0098 14.3848V4.90582H48.1892V6.42799C48.4659 5.85728 48.7947 5.42475 49.1578 5.14805C49.5384 4.85388 49.9708 4.7157 50.4724 4.7157C51.1471 4.7157 51.6138 4.9233 51.8908 5.33835C52.1675 5.75339 52.306 6.49725 52.306 7.58688V14.3848H50.0054V8.45177C50.0054 7.75986 49.9361 7.29304 49.8151 7.05064C49.7114 6.8084 49.4863 6.68737 49.1924 6.68737C48.8983 6.68737 48.6738 6.82572 48.535 7.11973C48.3968 7.39643 48.3102 7.82895 48.3102 8.39966V14.3846" fill="#4087C8"/>
<path d="M57.3917 4.90598V6.70483C57.2011 6.01293 56.9417 5.51148 56.6127 5.19998C56.5956 5.16536 56.5611 5.14804 56.5438 5.13073C56.2325 4.85387 55.8522 4.71552 55.402 4.71552C54.6585 4.71552 54.105 5.13073 53.7417 5.9435C53.3788 6.73913 53.1885 7.9846 53.1885 9.6278C53.1885 11.2192 53.3957 12.4299 53.7763 13.2428C54.1742 14.0906 54.7449 14.5058 55.489 14.5058C55.8865 14.5058 56.2325 14.3673 56.5438 14.0906C56.5611 14.0733 56.5957 14.0561 56.6127 14.0213C56.9244 13.6925 57.2011 13.2255 57.3917 12.603V14.0388C57.3917 14.7132 57.305 15.2322 57.0974 15.561C56.9762 15.803 56.786 15.9414 56.5438 16.0106C56.4401 16.0451 56.3189 16.0626 56.198 16.0626C55.9558 16.0626 55.7482 15.9933 55.5579 15.855C55.3849 15.7168 55.2294 15.509 55.1084 15.2323L53.3788 16.4084C53.6551 16.8928 54.053 17.2732 54.5546 17.5328C55.0734 17.7923 55.6443 17.9305 56.3016 17.9305C56.3881 17.9305 56.4572 17.9305 56.5436 17.9305C57.1491 17.8961 57.6852 17.7579 58.1177 17.4983C58.6194 17.2042 59.0171 16.7718 59.2941 16.1838C59.4325 15.8894 59.5357 15.4919 59.6051 15.0077C59.6745 14.5233 59.709 13.8487 59.709 13.0011V4.90614H57.3917V4.90598ZM57.2705 11.7383C57.0974 12.2053 56.8551 12.4301 56.5438 12.4475H56.5095C56.1805 12.4475 55.9385 12.2226 55.7826 11.7729C55.6445 11.3231 55.5579 10.6314 55.5579 9.69722C55.5579 8.67667 55.6445 7.93299 55.7826 7.50046C55.9386 7.05079 56.1807 6.82587 56.5266 6.82587H56.544C56.8553 6.84318 57.0975 7.0681 57.2535 7.53509C57.4262 8.00208 57.5131 8.69399 57.5131 9.57619C57.5127 10.5446 57.426 11.2713 57.2705 11.7383Z" fill="#4087C8"/>
<path fill-rule="evenodd" clip-rule="evenodd" d="M69.6654 6.84968L75.0571 7.73787V1.4581H68.7773L69.6654 6.84968Z" fill="#002F66"/>
<path fill-rule="evenodd" clip-rule="evenodd" d="M67.5327 6.84971L68.4207 1.45813H62.1411V7.73791L67.5327 6.84971Z" fill="#002F66"/>
<path fill-rule="evenodd" clip-rule="evenodd" d="M67.5322 8.98285L62.1406 8.09482V14.3746H68.4202L67.5322 8.98285Z" fill="#002F66"/>
<path fill-rule="evenodd" clip-rule="evenodd" d="M69.6654 8.98285L68.7773 14.3746H75.0571V8.09482L69.6654 8.98285Z" fill="#4087C8"/>
</svg>
