<svg fill="none" height="74" viewBox="0 0 74 74" width="74" xmlns="http://www.w3.org/2000/svg" xmlns:xlink="http://www.w3.org/1999/xlink"><clipPath id="a"><path d="m0 .592957h74v73.364h-74z"/></clipPath><g clip-path="url(#a)"><path d="m25.626 17.2004 1.0956 27.2827 19.7071-25.1503c.148-.1892.3321-.3472.5417-.4647.2095-.1174.4403-.1922.679-.2197.2386-.0276.4803-.0076.7112.059.2308.0666.4461.1783.6334.3288l12.2919 9.8656-4.0082-17.532z" fill="#4279f4"/><path d="m27.4028 49.4881h17.4813l-10.7341-8.6124z" fill="#0028aa"/><path d="m48.1471 23.0178-11.7575 15.0014 12.5271 10.05 11.8831-14.8999z" fill="#014bd1"/><path d="m22.3285 14.5683.0027-.0027 10.3385-12.96526-16.6715 8.02983-4.1178 18.03973z" fill="#bedcff"/><path d="m12.1104 33.2066 11.0734 13.8845-1.0555-26.4489z" fill="#6ca1ff"/><path d="m54.0606 8.27006-15.9421-7.677103-9.9217 12.441543z" fill="#a1c3ff"/><g stroke-miterlimit="10" stroke-width=".85509"><path d="m.427734 73.2756v-11.9659h1.533816v6.2555l5.47258-6.2555h1.71018l-4.64688 5.2641 5.07709 6.6991h-1.79836l-4.25407-5.5581-1.56054 1.777v3.7838zm10.693966-2.6161v-5.9348h1.451v5.9829c-.0066.226.0483.4496.159.6468.1106.1972.2727.3606.4689.4729.4469.2579.9538.3938 1.4697.3938.516 0 1.0229-.1359 1.4697-.3938.1949-.1134.3556-.2772.4652-.4743.1096-.197.164-.42.1574-.6454v-5.9829h1.451v5.9295c.0126.415-.0816.8262-.2734 1.1944s-.4749.6811-.8222.9086c-.722.4969-1.5779.763-2.4544.763s-1.7323-.2661-2.4543-.763c-.3452-.2278-.6264-.5402-.8168-.9073-.1903-.3672-.2836-.777-.2708-1.1904zm9.577 2.6161v-12.8264h1.451v4.4919c.7995-.2883 1.6407-.4444 2.4904-.4623.5748-.0123 1.1438.1171 1.6568.3768.4545.228.84.5729 1.1169.9994.2669.4175.4678.8735.5959 1.3521.1308.4862.1964.9876.1951 1.4911 0 1.5017-.3901 2.6409-1.1704 3.4177-.7803.7767-2.0113 1.1632-3.6929 1.1597zm1.451-1.3014h1.2158c1.206 0 2.0718-.2627 2.5974-.7883.5255-.5255.7927-1.3726.8016-2.5412.0123-.7065-.1728-1.4024-.5344-2.0094-.1627-.2767-.3983-.5032-.6811-.655-.2827-.1517-.6018-.2228-.9222-.2055-.8426-.0217-1.6816.118-2.4718.4115zm7.8748-2.9901c0-1.3735.3643-2.4691 1.0929-3.2868.3608-.4047.8066-.7245 1.3056-.9366.4989-.212 1.0386-.311 1.5804-.2899 2.3782 0 3.5682 1.6799 3.57 5.0397h-6.0979c.0512.696.3226 1.3577.7749 1.8892.4614.554 1.1651.8302 2.111.8284.9674.0288 1.9294-.1536 2.8192-.5345v1.3361c-.8406.3254-1.7335.4947-2.6348.4997-.7033.0158-1.4028-.1087-2.0575-.3661-.546-.2135-1.0306-.5586-1.4109-1.0047-.3567-.4236-.6288-.9116-.8017-1.4376-.175-.5621-.2598-1.1483-.2512-1.7369zm1.5018-.5665h4.6121c-.0454-.6778-.2634-1.3328-.6333-1.9026-.1663-.2415-.3915-.4365-.6544-.5665-.2628-.13-.5545-.1907-.8473-.1763-.3125-.0042-.6222.0585-.9084.1838-.2862.1254-.5423.3105-.751.543-.4756.532-.7613 1.2068-.8124 1.9186z" fill="#4279f4" stroke="#4279f4"/><path d="m39.3662 66.0314v-1.3067h1.3361v-2.0282c-.0132-.2974.0348-.5943.1409-.8724.1062-.278.2683-.5314.4764-.7443.199-.199.4364-.3557.6977-.4604.2614-.1047.5412-.1554.8227-.1488h2.1003v1.3147h-1.3361c-.5905 0-.9806.1202-1.1677.3581-.187.2378-.2832.6814-.2832 1.336v1.2453h2.2606v1.3013h-2.2606v7.2496h-1.4537v-7.2416zm7.466 7.2442v-12.8264h1.451v12.8264zm5.1172-1.0555c-.8048-.7632-1.3187-1.7828-1.4534-2.8837-.1346-1.1009.1184-2.2144.7155-3.149.5972-.9346 1.5012-1.6321 2.5568-1.9725 1.0555-.3405 2.1967-.3026 3.2274.107s1.8866 1.1654 2.4205 2.1375c.534.9721.7127 2.0999.5054 3.1894-.2073 1.0896-.7876 2.073-1.6412 2.7811-.8535.7082-1.9271 1.097-3.0362 1.0995-.6098.0205-1.2172-.0852-1.7842-.3105s-1.0813-.5654-1.5106-.9988zm1.0261-5.518c-.5514.6386-.8548 1.4543-.8548 2.298 0 .8438.3034 1.6594.8548 2.2981.6041.5992 1.4205.9354 2.2713.9354.8509 0 1.6673-.3362 2.2714-.9354.555-.637.8608-1.4532.8608-2.2981 0-.8448-.3058-1.6611-.8608-2.298-.6041-.5992-1.4205-.9354-2.2714-.9354-.8508 0-1.6672.3362-2.2713.9354zm8.0699-1.9774h1.5365l1.9507 6.7659 1.9854-6.7659h1.4323l1.9613 6.7712 1.9694-6.7712h1.5338l-2.6828 8.5509h-1.6354l-1.8251-6.5682-1.8037 6.5682h-1.7289z" fill="#0028aa" stroke="#0028aa"/></g></g></svg>