<svg fill="none" height="25" viewBox="0 0 76 25" width="76" xmlns="http://www.w3.org/2000/svg" xmlns:xlink="http://www.w3.org/1999/xlink"><clipPath id="a"><path d="m0 .485229h76v24.5087h-76z"/></clipPath><g clip-path="url(#a)" fill="#e03d52"><path d="m28.8334 6.75989c.36.00981.7184-.05156 1.0546-.18057.3363-.12901.6437-.32313.9047-.57123.2611-.2481.4706-.54529.6165-.87453s.2254-.68404.2339-1.04407c-.0388-.71573-.3504-1.38939-.8707-1.88234-.5204-.49295-1.2099-.7677-1.9267-.7677s-1.4063.27475-1.9266.7677c-.5204.49295-.832 1.16661-.8708 1.88234.0075.35823.0854.71149.2295 1.03959.144.3281.3512.62461.6098.8726.2587.24798.5636.44258.8975.57268s.6901.19314 1.0483.18553z"/><path d="m70.4469 9.00434c-.9333-.03384-1.8619.14726-2.7141.52932-.8522.38207-1.6052.95484-2.2008 1.67414-.4537-.7072-1.0852-1.28299-1.8313-1.66968-.746-.38668-1.5805-.57074-2.42-.53378-.8091-.02264-1.6126.13973-2.3494.47475-.7367.33502-1.3872.83381-1.902 1.45841v-1.32699c-.0104-.11296-.0638-.21761-.1492-.29231-.0853-.07471-.1962-.11375-.3095-.10907h-.1884l-3.3994.40957c-.1043.01889-.1987.07327-.2674.1539s-.1074.18254-.1094.2884v14.0647c0 .1217.0483.2383.1343.3244.086.086.2027.1343.3244.1343h3.6206c.1216 0 .2383-.0483.3243-.1343.0861-.0861.1344-.2027.1344-.3244v-8.3471c0-1.7693 1.0731-2.8669 2.5475-2.8669 1.4745 0 2.31.9665 2.31 2.7031v8.4863c0 .1217.0483.2384.1344.3244.086.086.2027.1344.3243.1344h3.6616c.1136.0006.2234-.0409.3082-.1166.0847-.0756.1383-.1801.1505-.293v-8.3717c0-1.7693 1.0403-2.8669 2.5148-2.8669 1.4744 0 2.3427.9665 2.3427 2.7031v8.5601c.0122.1129.0659.2173.1506.293s.1945.1172.3081.1165h3.6452c.1124.0009.2211-.0395.3057-.1135.0846-.0739.139-.1764.1531-.2879v-9.1416c0-3.6697-2.0069-6.03706-5.562-6.03706"/><path d="m49.1487 9.61045c0-.06024-.0119-.11989-.0349-.17554-.0231-.05566-.0569-.10622-.0995-.14882s-.0931-.07639-.1488-.09944c-.0556-.02305-.1153-.03492-.1755-.03492h-.1147l-3.6288.45053c-.1071.01744-.2045.07227-.275.15475s-.1095.18728-.11.29579v7.8965c.0383.3942-.0074.7919-.134 1.1671-.1267.3752-.3315.7193-.6008 1.0096-.2694.2902-.5972.5201-.9619.6744s-.758.2295-1.1539.2207c-1.5728 0-2.6458-1.0649-2.6458-2.8998v-8.51904c-.0042-.11739-.0533-.22871-.1371-.31101s-.196-.1293-.3135-.13132h-.1966l-3.5305.44233c-.107.01744-.2045.07227-.275.15475s-.1094.18728-.11.29579v8.6419c0 3.8336 2.0397 6.2665 5.6275 6.2665.8535.0235 1.702-.1369 2.4878-.4705.7859-.3336 1.4908-.8324 2.0667-1.4627v1.114c0 .1203.0472.2357.1314.3215.0843.0858.1989.1351.3191.1373h3.5551c.1202-.0022.2348-.0515.3191-.1373.0842-.0858.1314-.2012.1314-.3215v-14.53155z"/><path d="m30.6524 9.15173h-.1638l-3.5879.44234c-.1056.01916-.2011.07474-.2699.15705-.0689.08232-.1067.18617-.1069.29348v14.0892c.0122.113.0658.2174.1506.2931.0847.0756.1945.1172.3081.1165h3.6616c.1136.0007.2234-.0409.3082-.1165.0847-.0757.1384-.1801.1505-.2931v-14.54792c-.0083-.1159-.0602-.22432-.1454-.30338-.0851-.07907-.1971-.12287-.3133-.12257"/><path d="m22.4605.485229h-.1638l-3.5879.45872c-.1055.019163-.2011.074741-.2699.157051-.0689.08232-.1067.18617-.1069.29348v22.75572c.0122.113.0659.2174.1506.2931.0847.0756.1945.1172.3082.1165h3.6615c.1136.0007.2234-.0409.3082-.1165.0847-.0757.1384-.1801.1505-.2931v-23.239017c-.0082-.114493-.059-.221756-.1424-.300615-.0834-.078858-.1933-.123581-.3081-.125339"/><path d="m15.6463 15.1643c-.9912-4.3988-4.2923-6.70054-8.78121-6.11895-1.22863.18007-2.39835.64415-3.41625 1.35535-1.0179.7113-1.85593 1.65-2.44754 2.7418-.591611 1.0918-.9204927 2.3065-.9605267 3.5476-.04003396 1.2411.2098827 2.4744.7299007 3.6021 2.760506 5.5865 9.461126 5.9388 13.974526 2.4574.1271-.0769.2215-.1979.2653-.3398.0438-.142.0339-.295-.0277-.4302-.2376-.7208-.4997-1.4335-.8192-2.1789-.0517-.0782-.1195-.1446-.1989-.1947-.0793-.0501-.1683-.0828-.2612-.096-.0929-.0131-.1875-.0064-.2777.0197-.0901.0261-.1736.071-.2451.1317l-.77.5407c-1.3627.9819-3.04022 1.4253-4.71008 1.2451-.57617-.0609-1.13182-.2481-1.62738-.5483-.49555-.3001-.91881-.7059-1.23962-1.1883.7618-.2621 1.44988-.5079 2.13796-.7291 2.62125-.8191 5.24252-1.7038 7.86372-2.5721.8192-.2785.9748-.5406.8192-1.2451zm-11.3697 1.2042c-.40138-1.1878 1.01574-3.2766 2.68679-3.8336.76889-.2937 1.61836-.2978 2.39002-.0114.77169.2863 1.41279.8436 1.80399 1.5678z"/></g></svg>