<svg fill="none" height="26" viewBox="0 0 90 26" width="90" xmlns="http://www.w3.org/2000/svg"><g fill="#000"><path d="m3.13673 14.782c.22859 1.9684 2.34937 3.4161 5.04162 3.4161 2.57795 0 4.26695-1.4477 4.26695-3.2129 0-1.5493-1.1302-2.5018-3.75897-3.1367l-2.65416-.6096c-3.74629-.889-5.498799-2.61607-5.498799-5.40992 0-3.44151 3.085929-5.82898 7.441799-5.82898 4.30503 0 7.27673 2.38747 7.35293 5.82898h-3.0733c-.1651-1.99379-1.9811-3.32722-4.44473-3.32722-2.46366 0-4.01298 1.35883-4.01298 3.12403 0 1.40963 1.07944 2.15889 3.7082 2.80655l2.23508.52067c4.19073.96515 5.94323 2.88279 5.94323 5.62579 0 3.7463-3.0605 6.1084-7.89892 6.1084-4.52096 0-7.581491-2.2986-7.78468-5.9052z"/><path d="m30.9471 6.20972-8.1784 19.30298h-3.0605l2.4002-5.3845-6.0957-13.91848h3.3907l4.2416 10.70548 4.2162-10.70548z"/><path d="m35.165 20.357h-3.0224v-14.147h2.9081v1.66361c1.016-1.10484 2.4637-1.8033 4.6099-1.8033 4.5844 0 5.1559 3.25102 5.1559 5.54959v8.7371h-3.0224v-7.8227c0-.3937 0-.8636-.0254-1.3589-.2032-1.68897-.762-2.90811-2.8066-2.90811-3.3145 0-3.7971 3.11131-3.7971 5.05431z"/><path d="m64.9307 3.59414h-3.3145v-2.806542h3.3145zm-.1397 16.76306h-3.0224v-14.147h3.0224z"/><path d="m69.5928 13.9312v.0889c0 1.8541.9397 4.6606 4.0129 4.6606 1.8922 0 2.8828-1.1683 3.2257-2.4382l.0254-.1397h2.9081l-.0508.2159c-.5715 2.3367-2.4637 4.3558-6.2862 4.3558-5.6258 0-6.8703-4.2415-6.8703-7.1878 0-2.9081 1.2953-7.49256 6.9592-7.49256 5.7401 0 6.4259 4.99086 6.4259 7.73386v.1905h-10.3499zm7.3275-1.9811c-.0508-1.6382-.8255-3.93677-3.4289-3.93677-2.6033 0-3.5939 2.27317-3.8225 3.93677z"/><path d="m84.9326 20.357h-3.0224v-14.14702h2.8827v1.8922c.8762-1.05404 2.1843-1.96839 4.1273-1.96839.3048 0 .5968.0254.8762.08889l.2032.0254v2.66686l-.3429-.0635c-.3682-.08889-.7619-.11429-1.1302-.11429-3.1367 0-3.5939 2.41285-3.5939 4.30505z"/><path d="m60.0677 15.6584v.165c-.3429 3.1749-2.9082 4.8385-6.1973 4.8385-4.7369 0-7.0735-3.1748-7.0735-7.2132 0-4.1146 2.2859-7.59421 7.2132-7.59421 3.3272 0 5.5877 1.60011 5.9814 4.72411l.0254.1651h-2.959v-.1143c-.2032-1.60008-1.2445-2.60333-3.0478-2.60333-3.0986 0-4.0892 2.70493-4.0892 5.30833 0 2.4637 1.0667 5.194 3.9749 5.194 1.8541 0 2.9843-1.1048 3.2129-2.7684v-.1143h2.959z"/></g></svg>