<svg fill="none" height="33" viewBox="0 0 114 33" width="114" xmlns="http://www.w3.org/2000/svg" xmlns:xlink="http://www.w3.org/1999/xlink"><clipPath id="a"><path d="m0 .689331h114v31.6326h-114z"/></clipPath><g clip-path="url(#a)" fill="#028da5"><path d="m64.8372.689303c-1.0402-.001027-2.0574.306531-2.9227.883757-.8654.57723-1.5401 1.39818-1.9388 2.35898-.3987.96081-.5034 2.01828-.3009 3.03861s.7031 1.95766 1.4385 2.6934c.7354.73575 1.6724 1.23685 2.6927 1.43985 1.0202.203 2.0777.0988 3.0387-.2994s1.7823-1.07254 2.36-1.93763c.5776-.8651.8857-1.88211.8852-2.92234 0-1.39332-.5533-2.72962-1.5383-3.71509s-2.321-1.539448-3.7144-1.540137zm0 8.355397c-.6162 0-1.2186-.18274-1.731-.5251s-.9117-.82898-1.1475-1.3983c-.2359-.56933-.2976-1.19581-.1773-1.8002.1202-.6044.4169-1.15957.8527-1.59531.4357-.43575.9909-.7325 1.5953-.85272s1.2309-.05852 1.8002.17731c.5693.23582 1.0559.63517 1.3983 1.14756.3424.51238.5251 1.11477.5251 1.73101 0 .82545-.3276 1.61717-.9108 2.20133-.5832.58417-1.3743.91304-2.1998.91442z"/><path d="m5.6604 12.5213c.74795-.0105 1.49006.133 2.18019.4215.69012.2886 1.31349.7161 1.83133 1.2559.52008.5199.93218 1.1376 1.21258 1.8175.2899.6804.4383 1.4128.4362 2.1524v1.3294c.0028.1525-.0252.304-.0822.4455-.0571.1414-.1421.2699-.25.3778-.1078.1079-.2363.1929-.3778.2499-.1414.0571-.2929.0851-.4455.0822h-7.90616v.4362c-.00117.4521.09167.8995.27263 1.3138.35252.8151 1.0025 1.465 1.81752 1.8176.41344.1839.8613.2777 1.3138.2752h2.97814c.1459-.006.2915.0176.42804.0694s.2612.1306.36648.2318c.10046.1027.17915.2246.23135.3585.0522.1338.07684.2768.07243.4204.00772.1506-.01522.3012-.06744.4427s-.13263.2709-.23634.3804c-.10493.1017-.22953.1808-.36616.2326-.13662.0518-.28239.0752-.42836.0686h-2.97554c-.74187.0065-1.47764-.1346-2.16452-.4149-.68689-.2804-1.31119-.6945-1.83662-1.2183-.51417-.5154-.926431-1.1232-1.215138-1.7915-.29844-.6901-.45135417-1.4344-.44918748-2.1863v-2.9599c-.00493964-.7423.13713448-1.4783.41802948-2.1655.289055-.6866.717916-1.3056 1.259286-1.8175v.0286c.51625-.5427 1.14077-.9708 1.83309-1.2567.68575-.2647 1.4148-.3995 2.14987-.3973zm3.37539 5.6343c-.00117-.4462-.09082-.8877-.26374-1.2991-.17292-.4113-.42569-.7843-.74368-1.0974-.30255-.32-.66905-.5727-1.07567-.7418s-.84427-.2508-1.28451-.2396c-.44465-.0096-.8865.0726-1.29795.2415-.41145.1688-.78366.4207-1.09339.7399-.32099.3168-.57526.6946-.74778 1.1113-.17253.4065-.26086.8437-.25964 1.2852v.2311h6.75598z"/><path d="m19.7669 12.5214c.6379-.0043 1.2699.123 1.8564.3738.5665.2402 1.0833.5836 1.5242 1.0127.4417.4279.7946.9387 1.0385 1.5033.2525.5834.3807 1.213.3765 1.8487v8.3476c.0069.1544-.0207.3085-.0809.4509s-.1514.2695-.267.3722c-.2046.1928-.4745.3012-.7556.3038-.3137.0104-.6198-.0981-.8568-.3038-.1124-.1039-.2005-.2312-.258-.3731-.0574-.1418-.0828-.2946-.0744-.4474v-8.3606c.003-.3328-.0661-.6623-.2025-.9659-.1295-.29-.3107-.5539-.5348-.7789-.2265-.2224-.4901-.4034-.779-.5349-.3047-.1358-.6349-.2049-.9685-.2025h-1.8045c-.3199-.0054-.6375.0545-.9334.1759-.296.1214-.5641.3019-.788.5303-.4693.4527-.7479 1.0676-.779 1.7189v8.4047c.0074.1515-.0172.3029-.0723.4443-.055.1413-.1392.2695-.247.3762-.1091.1011-.237.1798-.3764.2314-.1395.0517-.2877.0754-.4363.0698-.3045.0091-.6008-.0987-.8283-.3012-.1136-.1042-.2026-.2323-.2605-.3751-.058-.1428-.0834-.2967-.0745-.4506v-11.9437c-.0088-.1532.0164-.3065.0739-.4488.0574-.1423.1457-.2701.2585-.3743.2269-.2071.5265-.3163.8335-.3037.2344-.0249.4701.0339.6653.166.1953.1321.3376.3289.4018.5558.7624-.484 1.6494-.7349 2.5523-.7218z"/><path d="m32.3415 12.5214c.7483-.0109 1.491.1324 2.1816.4209.6906.2886 1.3143.7163 1.8325 1.2564.5192.5206.9312 1.1381 1.2125 1.8175.289.6807.4366 1.413.4336 2.1525v1.3293c.0028.1523-.025.3036-.0819.4449s-.1417.2697-.2493.3775-.2358.1929-.3769.2501c-.1412.0572-.2924.0854-.4447.083h-7.9062v.4362c-.0024.4522.0905.8998.2726 1.3138.3506.8163 1.0012 1.467 1.8176 1.8175.4134.1839.8613.2777 1.3138.2752h2.9755c.1459-.006.2915.0177.428.0694.1366.0518.2612.1306.3665.2318.1001.1028.1784.2248.2302.3587.0517.1339.0759.2768.071.4202.0076.1504-.0151.3008-.0669.4422-.0517.1414-.1314.271-.2343.3809-.1049.1017-.2295.1809-.3661.2327-.1367.0518-.2824.0751-.4284.0685h-2.9729c-.7419.0065-1.4777-.1345-2.1646-.4149s-1.3112-.6945-1.8366-1.2183c-.5142-.5154-.9264-1.1232-1.2151-1.7915-.3016-.6973-.4546-1.4499-.4492-2.2096v-2.9366c-.0062-.7424.1359-1.4786.418-2.1654.2891-.6867.7179-1.3057 1.2593-1.8176v.0286c.5157-.5433 1.1404-.9715 1.8331-1.2567.6847-.2652 1.413-.3999 2.1473-.3972zm3.3754 5.6343c-.0006-.4414-.0888-.8783-.2597-1.2853-.1746-.4168-.4306-.7946-.753-1.1113-.3023-.3202-.6688-.5731-1.0754-.7423-.4067-.1691-.8445-.2506-1.2847-.2391-.4446-.0091-.8863.0733-1.2977.2422-.4114.1688-.7837.4204-1.0937.7392-.3191.3183-.5731.6958-.7478 1.1113-.1713.4068-.2596.8438-.2596 1.2853v.2311h6.7664z"/><path d="m46.7494 12.5214c.1461-.0061.292.0177.4286.0699.1366.0523.2611.1318.3659.2338.1036.11.1837.24.2355.3819.0518.142.0741.293.0657.4438.01.2984-.0982.5886-.3012.8075-.1021.1067-.2258.1903-.3628.2454s-.2842.0803-.4317.074h-1.8461c-.3212-.0012-.6398.0569-.9399.1713-.2966.11-.5633.2879-.7789.5193-.4665.4584-.7357 1.0807-.7504 1.7345v8.4047c.0078.1532-.0184.3062-.0768.4481-.0583.1419-.1474.269-.2607.3724-.226.2033-.5219.3112-.8257.3012-.2874-.0037-.5639-.1106-.779-.3012-.1196-.1007-.2146-.2275-.2776-.3706-.0631-.1432-.0924-.2988-.0859-.4551v-11.9437c-.0069-.1559.0223-.3113.0854-.4541.063-.1428.1582-.2691.2781-.369.2142-.1924.4911-.3004.779-.3038.2415-.0098.48.0556.6829.187.182.128.327.3018.4206.5037.7597-.4682 1.6366-.7112 2.5289-.701z"/><path d="m59.9218 26.711c.0069.7559-.1471 1.5047-.4517 2.1966-.2936.6662-.7123 1.27-1.2333 1.7785-1.0808 1.0497-2.5283 1.6365-4.0349 1.6358h-3.4533c-.2883-.0015-.5658-.1097-.779-.3038-.1112-.0965-.1998-.2163-.2595-.3509s-.089-.2808-.0858-.428c-.0072-.1542.02-.3082.0797-.4505.0598-.1424.1505-.2697.2656-.3726.2128-.1944.4908-.3019.779-.3012h3.4533c.4459.0037.8879-.0847 1.2982-.2596.4044-.1723.7739-.4169 1.0905-.7218.32-.3097.5758-.6794.753-1.088.1857-.4138.2804-.8627.2778-1.3164v-1.0801c-.9789.7476-2.1858 1.1346-3.4169 1.0957-.7452.0013-1.4832-.1461-2.1707-.4336-.6761-.2759-1.2879-.6888-1.7967-1.2125v.0285c-.5528-.5091-.9833-1.1367-1.2593-1.8357-.2787-.6933-.4215-1.4337-.4206-2.181v-2.9625c-.0026-.7374.1404-1.4679.4206-2.1499.2806-.6913.7106-1.312 1.2593-1.8175h-.026c.5054-.5483 1.1261-.9775 1.8175-1.2567.6905-.2788 1.4286-.4208 2.1733-.418.6186-.0019 1.2331.1008 1.8175.3037.5678.1985 1.1045.4765 1.5942.8257-.0098-.1524.0137-.3051.0688-.4476.0552-.1424.1408-.2711.2508-.3771.1099-.106.2417-.1868.386-.2367.1444-.05.2979-.0679.4498-.0525.3041-.009.6.0998.8257.3038.1126.105.2011.2333.2594.3758.0583.1426.0849.296.0781.4499v13.0654zm-5.7122-2.207c.4474.0013.8899-.0925 1.2983-.2752.4023-.1789.7698-.4277 1.0853-.7348.3191-.3085.5748-.6763.753-1.0828.1877-.4151.2834-.866.2804-1.3216v-2.9417c.0029-.4529-.0919-.901-.2778-1.3138-.1749-.4046-.4312-.7687-.753-1.0698-.3193-.2997-.6861-.5445-1.0853-.7244-.4092-.1786-.8519-.2671-1.2983-.2596-.9103.0093-1.7815.3713-2.4302 1.01v-.026c-.3204.3141-.5685.6942-.727 1.1139-.1545.4153-.2327.8551-.2311 1.2982v2.9132c-.0058.8928.337 1.7527.9555 2.3966.6479.6408 1.519 1.0056 2.4302 1.0178z"/><path d="m77.4257 21.287c.307.289.5522.6374.7207 1.0239.1684.3866.2566.8033.2593 1.225.0027.4216-.0803.8395-.2438 1.2281-.1636.3887-.4043.7401-.7076 1.033-.283.303-.6274.542-1.0103.701s-.7953.2342-1.2097.2208h-5.2916c-.1459.0059-.2915-.0177-.428-.0694-.1366-.0518-.2612-.1306-.3665-.2318-.1037-.1089-.1839-.2379-.2357-.379s-.0741-.2914-.0655-.4415c-.0079-.1459.0151-.2917.0674-.4281s.1328-.2602.2362-.3633c.1034-.1032.2274-.1834.3639-.2354s.2824-.0746.4282-.0663h5.2916c.1268-.0039.2506-.0386.3609-.1013.122-.0675.2441-.1298.3609-.1895.0789-.085.1328-.1901.1558-.3038.0203-.1.0308-.2017.0312-.3038-.0119-.2487-.0919-.4894-.2311-.6958-.9451-.8101-1.8972-1.6341-2.8561-2.4719-.959-.8378-1.905-1.6721-2.8379-2.5029-.3175-.2949-.5694-.6533-.7394-1.0518-.17-.3986-.2542-.8284-.2473-1.2617-.0015-.419.087-.8334.2596-1.2151.1654-.3719.3908-.714.6673-1.0126.2897-.3069.6415-.5483 1.0319-.7081.3905-.1599.8106-.2345 1.2322-.2189h4.6373c.3031-.0053.5963.1073.8179.3142.1095.1007.196.2238.2538.3608.0578.1371.0855.285.0811.4337.0095.1582-.0156.3165-.0735.464-.0578.1475-.147.2806-.2614.3902-.2249.2037-.5198.3125-.8231.3038h-4.6295c-.1227-.0053-.2453.015-.3597.0597-.1145.0447-.2183.1128-.305.2-.1526.1767-.2365.4025-.2362.6361-.0156.109-.0067.2201.0261.3252s.0886.2016.1634.2824c.0182.0181.5063.4492 1.4644 1.2852.9581.8361 2.3628 2.0902 4.2478 3.7649z"/><path d="m95.3467 12.5214c.6251-.0016 1.2438.1257 1.8175.3738 1.1409.4829 2.0546 1.3827 2.5549 2.516.2603.5814.3929 1.2117.3899 1.8487v8.3476c.008.1531-.018.3061-.075.4483-.0579.1422-.1457.2701-.2578.3748-.226.2051-.5231.3141-.8282.3038-.301.0088-.5935-.1002-.8153-.3038-.108-.1066-.1923-.2348-.2473-.3762s-.0796-.2928-.0721-.4443v-8.3606c.0038-.3326-.0644-.6621-.1999-.9659-.1256-.2883-.3014-.5521-.5193-.7789-.225-.2241-.4889-.4054-.7789-.5349-.3027-.1364-.6314-.2055-.9633-.2025h-1.0931c-.3328-.0027-.6622.0664-.9659.2025-.2896.1302-.5535.3113-.7789.5349-.222.2235-.3984.4881-.5193.7789-.1249.3067-.1884.6348-.187.9659v8.3476c.007.1556-.0223.3106-.0853.453-.0631.1423-.1583.2681-.2782.3675-.2205.1944-.5044.3017-.7984.3017s-.5779-.1073-.7984-.3017c-.1124-.1041-.2008-.2314-.259-.3731-.0583-.1417-.0851-.2943-.0785-.4474v-8.3476c.0054-.333-.0638-.6631-.2026-.9659-.1236-.2894-.2997-.5535-.5193-.7789-.2254-.2236-.4893-.4047-.7789-.5349-.3037-.1361-.6331-.2052-.9659-.2025h-1.1216c-.3173-.0065-.6325.053-.9257.1745-.2932.1216-.558.3026-.7776.5317-.4556.4595-.7232 1.0724-.7504 1.7189v8.4047c.0085.1528-.0169.3056-.0744.4474-.0574.1419-.1455.2693-.2579.3731-.2266.2024-.5221.3102-.8257.3012-.1459.0059-.2915-.0177-.4281-.0694-.1365-.0518-.2611-.1306-.3664-.2318-.1039-.1099-.1845-.2397-.2367-.3817-.0522-.1419-.075-.293-.0671-.444v-11.9437c-.0082-.1506.0145-.3014.0668-.4429.0522-.1416.1329-.2709.237-.3802.1421-.1277.3131-.2191.4982-.2664s.379-.0491.565-.0052c.1859.0439.3585.1321.503.2572s.2565.2833.3266.461c.7406-.5028 1.6183-.7648 2.5134-.7503h1.1242c.7058-.0061 1.4034.1512 2.0382.4595.6086.2961 1.1536.708 1.6047 1.2126.4418-.5003.9749-.9118 1.5708-1.2126.6232-.3099 1.3111-.4674 2.0071-.4595z"/><path d="m108.34 12.5213c.748-.0105 1.49.133 2.18.4215.69.2886 1.313.7161 1.831 1.2559.52.5199.932 1.1376 1.213 1.8175.289.6806.436 1.413.433 2.1524v1.3294c.003.1523-.025.3036-.082.4449s-.141.2696-.249.3775c-.107.1078-.236.1928-.377.2501-.141.0572-.292.0854-.444.0829h-7.907v.4362c-.007.4515.081.8993.26 1.3138.352.8151 1.002 1.465 1.817 1.8176.414.1839.862.2777 1.314.2752h2.973c.146-.006.292.0176.428.0694.137.0518.261.1306.367.2318.1.1028.178.2248.23.3587.052.1338.076.2768.071.4202.008.1504-.015.3008-.067.4422s-.131.2709-.234.3809c-.105.1017-.23.1808-.366.2326-.137.0518-.283.0752-.429.0686h-2.957c-.758.006-1.51-.1415-2.21-.4336-.669-.2818-1.278-.689-1.794-1.1996-.513-.5155-.925-1.1233-1.212-1.7915-.302-.6974-.455-1.4499-.45-2.2096v-2.9366c-.006-.7425.136-1.4787.418-2.1655.289-.686.717-1.3048 1.257-1.8175v.0286c.516-.5427 1.141-.9708 1.833-1.2567.687-.2654 1.417-.4002 2.153-.3973zm3.375 5.6343c.001-.4415-.088-.8786-.26-1.2852-.174-.4155-.428-.793-.747-1.1113-.304-.3197-.672-.5723-1.079-.7413s-.846-.2508-1.287-.2401c-.444-.0091-.886.0733-1.297.2421-.412.1689-.784.4205-1.094.7393-.319.3189-.574.6962-.75 1.1113-.172.4068-.26.8438-.26 1.2852v.2311h6.769v-.2311z"/><path d="m65.5475 12.9342c-.1049-.1017-.2295-.1808-.3661-.2326-.1367-.0518-.2824-.0752-.4284-.0686-.3034-.0077-.5985.1-.8257.3012-.1087.102-.1942.2262-.2507.3642-.0564.138-.0825.2865-.0764.4355v11.9229c-.008.1511.0149.3021.0671.4441.0522.1419.1327.2717.2366.3816.105.1017.2296.1809.3662.2327s.2824.0751.4284.0685c.3026.0078.5969-.0999.823-.3012.1092-.1018.1952-.2259.2521-.3639s.0834-.2866.0777-.4358v-11.9229c.0079-.151-.0149-.3021-.0671-.444-.0523-.142-.1328-.2718-.2367-.3817z"/></g></svg>