<svg fill="none" height="27" viewBox="0 0 91 27" width="91" xmlns="http://www.w3.org/2000/svg" xmlns:xlink="http://www.w3.org/1999/xlink"><clipPath id="a"><path d="m0 .93335h91v25.1333h-91z"/></clipPath><g clip-path="url(#a)"><path clip-rule="evenodd" d="m19.6629 18.1613c-2.6697 0-4.8336-2.1628-4.8336-4.83 0-2.6678 2.1639-4.83055 4.8336-4.83055 2.6698 0 4.8337 2.16275 4.8337 4.83055 0 2.6672-2.1639 4.83-4.8337 4.83zm-10.60885 0c-2.66924 0-4.83368-2.1628-4.83368-4.83 0-2.6678 2.16444-4.83055 4.83368-4.83055 2.66975 0 4.83365 2.16275 4.83365 4.83055 0 2.6672-2.1639 4.83-4.83365 4.83zm18.87425-5.6985-6.0323-10.44041c-.31-.53714-.884-.86849-1.505-.86849h-12.06518c-.62098 0-1.19442.33135-1.50491.86849l-6.032868 10.44041c-.310488.5371-.310488 1.1993 0 1.737l6.032868 10.4404c.31049.5371.88393.8684 1.50491.8684h12.06518c.621 0 1.195-.3313 1.505-.8684l6.0323-10.4404c.311-.5377.311-1.1999 0-1.737zm-8.2654 2.7173c-1.0218 0-1.8502-.8278-1.8502-1.8488s.8284-1.8489 1.8502-1.8489c1.0217 0 1.8503.8279 1.8503 1.8489s-.8286 1.8488-1.8503 1.8488zm0-4.4633c-1.4452 0-2.6164 1.1703-2.6164 2.6145 0 1.4441 1.1712 2.6145 2.6164 2.6145 1.4453 0 2.6165-1.1704 2.6165-2.6145 0-1.4442-1.1712-2.6145-2.6165-2.6145zm-10.60885 0c-1.44472 0-2.61644 1.1703-2.61644 2.6145 0 1.4441 1.17172 2.6145 2.61644 2.6145 1.44525 0 2.61645-1.1704 2.61645-2.6145 0-1.4442-1.1712-2.6145-2.61645-2.6145zm77.27865 5.9908c0-3.2877-1.3961-5.6795-4.4872-5.6795-2.9581 0-4.4868 2.1259-4.4868 5.6795 0 3.3547 1.3624 5.7455 4.4868 5.7455 2.958 0 4.4872-2.1258 4.4872-5.7455zm-12.4775 0c0-6.5084 3.6699-9.16609 7.9903-9.16609 4.2877 0 8.6084 2.65769 8.6084 9.16609 0 6.4425-4.3207 9.1656-8.6084 9.1656-4.2872 0-7.9903-2.7231-7.9903-9.1656zm-5.8523-8.83318 4.2375-.00053v17.63471h-4.1208zm-.0332-6.27783 4.3041-.33136v4.0549h-4.1874zm-5.7833 15.11101c0-3.7187-1.5957-5.6795-4.2205-5.6795-1.6956 0-3.3235 1.0638-4.2878 2.2256v7.0736c1.0963 1.4282 2.692 2.1923 4.1546 2.1923 3.0912 0 4.3537-1.8932 4.3537-5.812zm-8.5082 6.8414v1.9596h-4.0875l-.1168-24.24337 4.2043-.33188v9.26585c1.1632-1.39507 2.9913-2.65771 5.6168-2.65771 4.021 0 6.9791 3.02231 6.9791 9.13291 0 6.1111-3.0236 9.1001-7.5442 9.1001-1.894 0-3.7554-.7639-5.0517-2.2255zm-22.3102-3.0223-.1167-12.32092 4.2376-.33189v11.68981c0 1.9602.8311 2.8556 2.6264 2.8556 1.7943 0 3.2897-.9286 4.7856-2.2905l-.1166-11.92302 4.2375-.33189v17.63471h-4.1209v-2.3918c-1.1305 1.1962-3.2579 2.7242-6.4479 2.7242-3.0911 0-5.085-1.8272-5.085-5.3143z" fill="#ff5a5f" fill-rule="evenodd"/></g></svg>