<svg fill="none" height="76" viewBox="0 0 75 76" width="75" xmlns="http://www.w3.org/2000/svg" xmlns:xlink="http://www.w3.org/1999/xlink"><clipPath id="a"><path d="m0 .5h75v75h-75z"/></clipPath><g clip-path="url(#a)"><path d="m75 .5h-75v75h75z" fill="#fff"/><path d="m3.85156 4.35138h67.50004v67.50002h-67.50004z" fill="#fc0"/><path d="m37.4991 51.1757c17.6352 0 31.8244-5.8784 31.8244-13.1757s-14.1892-13.1757-31.8244-13.1757c-17.6351 0-31.8243 5.8784-31.8243 13.1757s14.1892 13.1757 31.8243 13.1757z" fill="#00678f"/><path d="m45.6085 34.7569.8109-3.2432h-10.946l-.8108 3.2432h3.6486l-1.8243 7.0946h3.8514l1.8243-7.0946z" fill="#fc0"/><path d="m34.4593 31.5137h-5.473l-3.4459 7.7027v-7.7027h-5.2703l-3.2432 13.1756h3.6486l2.2297-8.5135v8.5135h2.8379l4.054-8.5135-2.027 8.5135h3.4459z" fill="#fff"/><path d="m57.9733 31.5137h-3.4459l-1.8244 6.8919-1.6216-6.8919h-3.8513l-3.2433 13.1756h3.446l1.8243-7.0945 1.8243 7.0945h3.6487z" fill="#fff"/><path d="m36.2843 42.6622-.4054 1.8244h3.6487l.4054-1.8244z" fill="#f00"/></g></svg>