<svg fill="none" height="26" viewBox="0 0 103 26" width="103" xmlns="http://www.w3.org/2000/svg" xmlns:xlink="http://www.w3.org/1999/xlink"><clipPath id="a"><path d="m0 .522339h103v25.1679h-103z"/></clipPath><g clip-path="url(#a)"><path d="m61.5676.522339h-4.98v5.283551h-3.7263v5.00101h3.7263v14.0984h4.98v-14.0984h3.7271v-5.00101h-3.7271z" fill="#717271"/><path d="m21.1294 4.98193c-2.5276 0-4.7165 1.05708-6.1878 2.75435-1.396-1.69727-3.5472-2.75435-6.18778-2.75435-5.3202 0-8.75382 3.73611-8.75382 8.67847v11.2442h4.98006v-11.3581c0-2.1873 1.54805-3.69627 3.77376-3.69627 3.28258 0 3.62168 2.60287 3.62168 3.69627v11.3581h4.9799v-11.3581c0-2.1873 1.5863-3.69627 3.7738-3.69627 3.2825 0 3.6601 2.60287 3.6601 3.69627v11.3581h4.9807v-11.2442c0-5.093-3.2067-8.67847-8.6408-8.67847" fill="#717271"/><path d="m79.8159 17.1629c0 2.1498-1.5843 3.6971-3.7722 3.6971-3.2838 0-3.6602-2.6029-3.6602-3.6971v-11.35809h-4.9816v11.20749c0 5.0931 3.2076 8.6777 8.6416 8.6777 5.2825 0 8.7538-3.7361 8.7538-8.6777v-11.20689h-4.9814v11.35819z" fill="#717271"/><path d="m94.1979 25.69c-2.7589 0-5.8474-.9201-8.4582-2.9779l2.3899-3.6789c2.1331 1.545 4.3769 2.3546 6.2155 2.3546 1.619 0 2.3544-.5881 2.3544-1.4713v-.0739c0-1.2138-1.9131-1.6172-4.0824-2.2791-2.759-.8102-5.8851-2.097-5.8851-5.9207v-.0748c0-4.00753 3.237-6.25318 7.2096-6.25318 2.5006 0 5.2231.84582 7.3564 2.2815l-2.1345 3.86178c-1.9492-1.1409-3.8986-1.83867-5.3331-1.83867-1.3612 0-2.0592.58867-2.0592 1.36197v.0731c0 1.1022 1.8755 1.6181 4.0086 2.353 2.759.9193 5.9582 2.243 5.9582 5.848v.0731c0 4.3769-3.2739 6.3624-7.5401 6.3624" fill="#717271"/><path d="m49.2861 9.52279c.1536.06773.3279.07167.4844.01094.1566-.06072.2826-.18114.3503-.33477.0188-.04209.0188-.08579.0286-.12949-.2056-.25919-.4247-.50991-.6567-.74916-.2251.01732-.4344.14601-.5308.36733-.0337.07607-.0521.15804-.054.2412-.002.08317.0125.16591.0426.24347.0301.07757.0752.14843.1327.20854.0575.0601.1263.10827.2025.14173" fill="#fff"/><path d="m50.7767 11.2457c.1089.0482.2262.0745.3452.0774.119.0028.2374-.0178.3484-.0607-.2434-.5477-.5347-1.0728-.8706-1.56916-.1196.09102-.2257.20138-.29.34776-.0486.1098-.0751.228-.078.348s.018.2394.0614.3513c.0433.1119.1084.2142.1913.3009.083.0867.1823.1562.2921.2045" fill="#fff"/><g fill="#00aeef"><path d="m47.9826 14.382c.1742.077.3673.1006.5549.0678.1876-.0327.3613-.1204.499-.2519.1378-.1315.2334-.3008.2749-.4867s.0269-.3799-.0419-.5574c-.0688-.1776-.1887-.3308-.3446-.4402s-.3407-.1701-.5311-.1744-.3778.0479-.5384.1501c-.1607.1021-.2875.2497-.3643.4239-.1022.2336-.1078.498-.0157.7357s.2744.4293.5072.5331z"/><path d="m47.9158 8.03935c.0749.03302.1579.04309.2385.02894s.1552-.05188.2144-.10843c.0591-.05655.1002-.12937.118-.20926s.0115-.16326-.0181-.23957c-.0296-.0763-.0812-.14212-.1482-.18913s-.1464-.0731-.2282-.07497c-.0819-.00186-.1624.02057-.2315.06448-.069.0439-.1235.1073-.1566.18218-.0223.04968-.0346.1033-.036.15774-.0014.05445.008.10863.0277.15941s.0493.09714.087.13638c.0378.03925.083.0706.133.09223z"/><path d="m46.405 6.36206c.0469.02065.1001.02195.1481.00363.0479-.01832.0866-.05479.1078-.1015-.1158-.05639-.2259-.11902-.3423-.17178-.005.00361-.0096.00773-.0137.01228-.0207.04743-.0218.1011-.003.14931.0187.04822.0558.08706.1031.10806z"/><path d="m50.777 11.2453c.1088.0483.226.0746.345.0776s.2375-.0175.3486-.0603c-.2435-.5482-.5348-1.0738-.8704-1.57083-.1199.09163-.226.20139-.29.34783-.0489.1097-.0755.2281-.0785.3482-.0029.1201.0179.2396.0613.3516.0433.1121.1084.2145.1915.3013s.1825.1563.2925.2046z"/><path d="m49.2856 9.52314c.1538.06764.3281.07143.4846.01055.1566-.06088.2825-.18144.3502-.33518.0187-.04128.0187-.08579.0286-.12848-.2056-.25979-.4244-.50978-.6566-.74996-.2251.01812-.4343.14661-.5306.36813-.0337.07607-.052.15804-.0539.2412s.0125.16589.0426.24344c.0301.07756.0752.14842.1327.20853s.1263.10829.2024.14177z"/><path d="m48.9968 11.5658c-.0727.1653-.0948.3484-.0635.5263s.1146.3425.2395.473c.1248.1305.2856.2211.4619.2603s.3602.0253.5286-.0401c.1684-.0653.3137-.1791.4174-.3269.1037-.1479.1613-.3232.1655-.5037.0041-.1806-.0454-.3583-.1422-.5108-.0968-.1524-.2367-.2728-.4019-.3458-.1098-.0486-.2281-.075-.3482-.0778s-.2395.0181-.3515.0615c-.1119.0435-.2142.1086-.301.1916-.0868.0831-.1563.1824-.2046.2924z"/><path d="m47.9658 11.3111c.1367.0604.2883.0788.4355.053s.2835-.0946.3916-.1979c.108-.1032.1831-.2362.2156-.3821.0324-.1458.0209-.2981-.0331-.4374-.054-.1394-.1482-.2596-.2705-.3454-.1224-.08584-.2674-.13346-.4169-.13685-.1494-.00338-.2965.03762-.4226.11783-.1261.08022-.2256.19602-.2859.33272-.0401.0908-.0619.1886-.0642.2878-.0022.0992.015.1978.0509.2903s.0896.1771.1582.2488.1506.1292.2414.1692z"/><path d="m46.4472 9.49581c.0836.03698.1763.04834.2664.03265.09-.01569.1734-.05772.2395-.12079.0662-.06307.1122-.14434.1321-.23354.02-.08919.0131-.18231-.0199-.26757-.0329-.08526-.0904-.15884-.1651-.21143-.0748-.05259-.1635-.08183-.2549-.08403-.0913-.0022-.1813.02274-.2585.07168-.0772.04893-.1382.11966-.1752.20323-.0493.11214-.0523.23927-.0081.35356s.1318.20643.2437.25624z"/><path d="m43.5724 9.58778c.0354.01541.0745.02.1125.01318s.0731-.02473.1008-.05148c.0278-.02675.0471-.06114.0553-.09881.0083-.03768.0052-.07696-.0089-.11288-.014-.03592-.0384-.06687-.07-.08894-.0317-.02207-.0691-.03427-.1077-.03506s-.0765.00986-.109.03062-.0581.05068-.0736.086c-.0105.02349-.0161.04881-.0167.0745-.0005.02569.004.05124.0134.07517.0093.02393.0233.04577.0412.06425.0178.01849.0392.03325.0627.04345z"/><path d="m52.1815 17.3862c.1146-.5789.1789-1.1666.1922-1.7565-.0968-.098-.2109-.1771-.3366-.2334-.1607-.0704-.3356-.1022-.5107-.0931-.1752.0091-.3459.059-.4984.1456.0744-.1959.0926-.4087.0524-.6144s-.1371-.3961-.2798-.5496c.0202.0107.0377.0242.058.0333.2488.1091.5306.1153.7839.0172s.4574-.2926.5676-.5408c.0083-.0182.0113-.0377.0182-.0564-.0607-.3657-.1408-.7278-.2401-1.0849-.1886-.1921-.4455-.3019-.7147-.3055-.2692-.0037-.529.0991-.7228.286s-.3059.4428-.312.7119c-.0061.2692.0943.5299.2794.7254-.0294-.0151-.0564-.0341-.0872-.0492-.1357-.0598-.2819-.0923-.4302-.0956-.1482-.0033-.2957.0227-.434.0764-.1382.0537-.2645.1341-.3717.2367-.1071.1025-.193.2251-.2527.3609-.1054.2396-.1227.5087-.049.7598-.1493-.0527-.3081-.0731-.466-.06-.1578.013-.311.0594-.4497.1359.1227-.4509-.0821-.935-.5236-1.1277-.0604-.0264-.1236-.0272-.1853-.0403.1386.5978.171 1.2153.0957 1.8244-.0412.2862-.1011.5694-.1792.8478-.0622.2147-.1378.4253-.2262.6305-.0219.0496-.0513.0925-.0745.1422-.087.1831-.1843.361-.2914.5331-.0506.0805-.1086.1528-.1627.2296-.9647 1.3666-2.551 2.2603-4.35 2.2438-2.9168-.024-5.2624-2.4096-5.236-5.3273.0262-2.9144 2.4124-5.2577 5.3277-5.2336l.0445-4.96733c-5.6589-.04894-10.2882 4.49895-10.3387 10.15743-.0506 5.6586 4.4989 10.2896 10.1589 10.3388 3.9318.0344 7.3515-2.1549 9.0961-5.3919.0024.0022.0047.003.0061.0044.0684-.1257.1289-.2582.1951-.3885.0173-.0354.0363-.0707.0526-.1067.0384-.0769.0821-.1512.1176-.2312.0654-.1498.1208-.3021.177-.4531.0009-.0018.0016-.0036.0022-.0054.1068-.2874.2048-.5782.2892-.8704-.2894-.0709-.5951-.0243-.8502.1295.0574-.1586.0783-.328.0613-.4958-.0171-.1678-.0717-.3295-.1598-.4733.0338.0187.0654.0413.1007.0572.1689.0747.3536.1068.5379.0936.1842-.0133.3624-.0715.5189-.1695zm-3.1518.1566c-.1073.2471-.1223.5245-.0421.7816-.2581-.0904-.5404-.0827-.7931.0218.0403-.152.0483-.3107.0234-.466-.0248-.1552-.082-.3035-.1678-.4352.005.0032.0102.006.0157.0082.1693.0751.3544.1073.5391.0938.1846-.0135.3631-.0723.5196-.1713-.0359.0532-.0676.1091-.0948.1671zm1.4902-.5783c-.1693-.075-.3545-.1071-.5391-.0935-.1847.0136-.3631.0726-.5196.1716.0362-.0525.0677-.1081.0941-.1661.1047-.24.1217-.5092.0481-.7605.1509.0535.3115.0741.4709.0604.1595-.0136.3143-.0612.4539-.1395-.0609.1603-.0841.3326-.0678.5033.0163.1708.0717.3355.1618.4815-.0354-.0188-.0662-.0413-.1031-.0572z"/><path d="m44.8881 7.93127c.0235.01113.0491.01742.0751.0185.026.00109.052-.00306.0764-.01219.0244-.00912.0467-.02305.0657-.04095.0189-.0179.034-.03941.0445-.06326.0105-.02386.0161-.04957.0164-.07561.0004-.02605-.0045-.05191-.0143-.07605-.0097-.02414-.0243-.04607-.0427-.0645s-.0403-.03298-.0645-.04279c-.047-.01913-.0996-.01915-.1467-.00006-.047.01909-.0848.05578-.1052.10227s-.0219.09911-.0041.14667c.0178.04755.0535.08629.0994.10797z"/><path d="m47.3671 12.485c.0799-.1805.0857-.385.0161-.5697-.0695-.1846-.2088-.3346-.3878-.4175-.1791-.0829-.3835-.0922-.5693-.0259-.1859.0664-.3382.2031-.4241.3807.2966.3223.5519.6804.7598 1.066.258-.0309.494-.1793.6053-.4336z"/><path d="m44.8245 10.5526c-.0443.107-.0514.2258-.0201.3373.1956.116.3832.2451.5616.3862.1141-.012.2209-.0615.3038-.1407.083-.0793.1372-.1838.1544-.2972.0171-.1134-.0039-.2293-.0597-.3295s-.1432-.179-.2486-.2242c-.1273-.0559-.2715-.0591-.4011-.0089-.1296.0503-.234.1499-.2903.277z"/></g><path d="m102.254 4.56824c.129.00089.255.03428.368.09707.118.06279.215.15869.279.27589.065.11331.099.24167.099.37238.001.1307-.033.2592-.098.37275-.064.11669-.159.21266-.276.2765-.113.0645-.241.09842-.371.09842-.131 0-.259-.03392-.372-.09842-.116-.06389-.212-.15984-.276-.2765-.065-.11344-.099-.24198-.099-.37275s.035-.25918.1-.37238c.065-.11715.162-.21302.28-.27589.112-.06256.238-.09594.366-.09707zm0 .12365c-.107.0006-.213.02831-.306.08055-.098.05287-.179.13294-.233.23059-.054.09429-.083.20137-.084.31045 0 .10907.029.21628.083.31082.054.09711.134.177.231.23039.094.05413.201.08262.31.08262.108 0 .215-.02849.309-.08262.097-.05332.177-.13324.231-.23039.054-.09467.082-.20183.082-.31082 0-.109-.029-.21603-.084-.31045-.053-.0978-.134-.17785-.233-.23039-.093-.0523-.199-.08008-.306-.08075zm-.327 1.03572v-.80332h.275c.094 0 .163.00745.205.02235.041.01416.077.04147.101.07774.024.03443.037.07547.038.1176 0 .02844-.006.05665-.016.08296-.011.02632-.027.05021-.047.0703-.045.0446-.104.07073-.167.0731.025.00985.048.02425.068.04249.045.04866.085.10207.119.1593l.098.15728h-.159l-.071-.12667c-.056-.09962-.101-.16191-.135-.18688-.031-.02051-.068-.03028-.104-.0278h-.076v.34135h-.13zm.129-.45211h.157c.075 0 .127-.01121.154-.03363.022-.01834.036-.04411.04-.07233s-.003-.0569-.019-.08052c-.013-.01921-.032-.03387-.054-.04209-.043-.01161-.087-.0163-.131-.01389h-.147v.24166z" fill="#717271"/></g></svg>