<svg fill="none" height="32" viewBox="0 0 101 32" width="101" xmlns="http://www.w3.org/2000/svg" xmlns:xlink="http://www.w3.org/1999/xlink"><clipPath id="a"><path d="m0 .849976h101v30.3h-101z"/></clipPath><g clip-path="url(#a)" clip-rule="evenodd" fill-rule="evenodd"><path d="m95.4705 19.5236c0-2.2081-1.5037-3.5122-3.3444-3.5122-2.1084 0-3.4138 1.5049-3.4138 3.5791-.053 1.8509 1.4052 3.3949 3.2573 3.4467.0517.0025.1048.0025.1565 0 1.8407 0 3.3456-1.4052 3.3456-3.5136zm5.3215 8.1053-5.0198.0442v-2.3824c-.5681 1.7423-2.6765 2.828-4.7167 2.828-4.4844 0-7.8982-3.2118-7.8982-8.6986 0-5.05 3.5476-8.633 7.7972-8.633 2.275 0 4.016 1.4317 4.5172 2.7371v-2.4227h5.3203v16.5299zm-18.877-5.6573c0 3.7711-2.828 6.262-7.7467 6.262-4.2773 0-6.2986-1.5503-7.3755-3.9415-.0682-.2361-.0682-.4381.101-.505l3.6701-1.414c.1199-.0379.25.0189.303.1326.3724 1.01 1.4834 1.818 2.7295 1.818 1.515 0 2.1892-.606 2.1892-1.3471 0-.909-.707-1.3812-3.3002-2.02-3.2004-.808-5.4237-1.9531-5.4237-5.3202 0-3.5375 2.8962-5.5247 7.5788-5.5247 3.7395 0 5.9615 1.414 6.6344 3.636.0341.202.0341.404-.1679.4722l-3.7395 1.3231c-.202.101-.2336.101-.3699-.101-.5732-.909-1.4481-1.515-2.5591-1.515-1.3143 0-1.8862.4368-1.8862 1.1779 0 .6742.7752.9772 3.6701 1.5844 3.3696.6717 5.6926 2.1147 5.6926 5.2823zm-22.2869-2.4492c0-2.2081-1.5062-3.5123-3.3469-3.5123-2.1071 0-3.4113 1.5049-3.4113 3.5792-.0542 1.8495 1.4014 3.3936 3.2522 3.4466.0531.0025.1061.0025.1591.0013 1.8407 0 3.3469-1.4065 3.3469-3.5148zm5.3214 8.1052-5.0209.0429v-2.381c-.5682 1.7422-2.6765 2.828-4.718 2.828-4.4844 0-7.8957-3.2118-7.8957-8.6987 0-5.05 3.5477-8.6329 7.7972-8.6329 2.2738 0 4.0135 1.4329 4.516 2.7371v-2.424h5.3214v16.5299z" fill="#000"/><path d="m41.6497 10.647h-.1515l-.0833.1225-4.978 7.0422.0126-11.23621v-.28154h-.2816l-5.3845-.00379h-.2816v.28028l-.0189 20.88426v.2828h.2803l5.3845.0025.2816.0026v-.2816l.0063-6.1686 4.3102 6.3302.0833.1237h6.5006l-.2929-.438-5.3719-8.0194 5.7822-8.1975.3005-.438h-.5315l-5.5676-.0064z" fill="#000"/><path d="m0 3.9633 8.57869-3.113324v26.306724l-8.57869 3.1095zm10.9383 16.8127-.0252-9.6758 9.8904-3.36329v9.74019l-5.7318 1.9165 5.7318 1.9354v9.7162l-9.8652-3.2749z" fill="#1d6ff2"/></g></svg>