<?xml version="1.0" encoding="UTF-8" standalone="no"?>
<svg
   class="show-for-tablet-landscape"
   id="wehkamp_1_"
   height="40"
   width="194"
   x="0px"
   y="0px"
   viewBox="0 0 1940 400"
   xml:space="preserve"
   version="1.1"
   sodipodi:docname="logo.svg"
   inkscape:version="1.1 (c68e22c387, 2021-05-23)"
   xmlns:inkscape="http://www.inkscape.org/namespaces/inkscape"
   xmlns:sodipodi="http://sodipodi.sourceforge.net/DTD/sodipodi-0.dtd"
   xmlns="http://www.w3.org/2000/svg"
   xmlns:svg="http://www.w3.org/2000/svg"><defs
     id="defs1118" /><sodipodi:namedview
     id="namedview1116"
     pagecolor="#ffffff"
     bordercolor="#666666"
     borderopacity="1.0"
     inkscape:pageshadow="2"
     inkscape:pageopacity="0.0"
     inkscape:pagecheckerboard="0"
     showgrid="false"
     inkscape:zoom="8.2216495"
     inkscape:cx="96.939185"
     inkscape:cy="19.4"
     inkscape:window-width="3730"
     inkscape:window-height="2126"
     inkscape:window-x="-11"
     inkscape:window-y="-11"
     inkscape:window-maximized="1"
     inkscape:current-layer="wehkamp_1_" /><style
     id="style1111">.st0{fill-rule:evenodd;clip-rule:evenodd;fill:#f55}</style><path
     id="wehkamp_text"
     class="st0"
     d="M1857.6 128.5c45.4 0 82.4 36.5 82.4 81.5s-37 81.5-82.4 81.5c-20.9 0-40-7.8-54.6-20.5v59h-27.8V130.7h27.8V149c14.6-12.7 33.7-20.5 54.6-20.5zm-492.9 0c20.9 0 40 7.8 54.6 20.5v-18.3h27.8v119.6c0 9.6 7.6 18.9 10.6 21.6l-19 20.1c-1.4-1.3-11-10.4-16.1-24.2a82.562 82.562 0 01-57.9 23.6c-45.4 0-82.4-36.6-82.4-81.5 0-44.8 36.9-81.4 82.4-81.4zm-197-38.5v103.5l66.5-62.9h40.3l-68.8 65c4.6 4.8 13.5 14.2 22.9 24.1l1.1 1.2c.6.6 1.2 1.2 1.7 1.8l1.7 1.8c8.3 8.7 16.4 17.2 21.7 22.8 7.5 7.1 21.6 17 30 17v27.5c-23.1 0-46.9-22.4-49.6-25l-.4-.4c-12.3-12.9-39.7-41.7-49.3-51.9l-17.9 16.9v57.8h-27.8V90h27.9zm-302.8 38.5c45.4 0 82.4 36.6 82.4 81.5v13.8H812.1c6.2 23.1 27.5 40.2 52.8 40.2v27.5c-45.4 0-82.4-36.5-82.4-81.5s36.9-81.5 82.4-81.5zm811.5 0c42.6 0 77.2 34.2 77.2 76.3v84.6h-27.8v-84.6c0-26.9-22.1-48.8-49.3-48.8s-49.3 21.9-49.3 48.8v84.6h-27.8v-84.6c0-26.9-22.1-48.8-49.3-48.8-27.2 0-49.3 21.9-49.3 48.8v84.6H1473V130.6h27.8v15.5c13.4-11 30.6-17.7 49.3-17.7 26.2 0 49.3 12.9 63.3 32.7 13.7-19.7 36.9-32.6 63-32.6zM991.8 90v56.1c13.4-11 30.6-17.7 49.3-17.7 42.6 0 77.2 34.2 77.2 76.3v84.6h-27.8v-84.6c0-26.9-22.1-48.8-49.3-48.8-27.2 0-49.3 21.9-49.3 48.8v84.6h-27.8V90h27.7zm-481.5 40.6l54.3 123.8 54.3-123.8h30.6l54.3 123.8L758 130.6h30.3L718.9 289l.1.3h-30.6l.1-.3-54.4-124.1L579.8 289l.1.3h-30.6l.1-.3L480 130.6h30.3zM1857.6 156c-30.1 0-54.6 24.2-54.6 54s24.5 54 54.6 54 54.6-24.2 54.6-54-24.5-54-54.6-54zm-492.9 0c-30.1 0-54.6 24.2-54.6 54s24.5 54 54.6 54 54.6-24.2 54.6-54-24.5-54-54.6-54zm-499.8 0c-25.3 0-46.6 17.1-52.8 40.2h105.6c-6.2-23.1-27.5-40.2-52.8-40.2z" /><path
     id="wehkamp_icon"
     class="st0"
     d="M200 0c110.5 0 200 89.5 200 200s-89.5 200-200 200S0 310.5 0 200 89.5 0 200 0zM78.8 131.7H49.2l67.9 156.7-.1.3h29.9l-.1-.3L200 165.6l53.2 122.8-.1.3H283l-.1-.3 67.9-156.7h-29.7L268 254.2l-53-122.5h-30l-53.1 122.5-53.1-122.5z" /><path
     style="fill:#ffffff;stroke-width:0.12163"
     d="m 8.4176394,21.072414 -3.359225,-7.753919 1.3527023,-0.03458 c 0.7439862,-0.01902 1.3916057,0.0083 1.4391545,0.06081 0.047549,0.05247 1.2514047,2.791021 2.6752358,6.085677 1.423831,3.294655 2.623613,5.990282 2.666183,5.990282 0.04257,0 1.256276,-2.722994 2.697124,-6.051098 l 2.619723,-6.051097 h 1.491337 1.491337 l 2.619214,6.051097 c 1.440567,3.328104 2.653101,6.05096 2.69452,6.050791 0.04142,-1.21e-4 1.250921,-2.716004 2.687785,-6.03519 1.436864,-3.319186 2.671886,-6.05768 2.744494,-6.085542 0.07261,-0.02786 0.710579,-0.03502 1.417714,-0.01591 l 1.285699,0.03475 -3.35815,7.753919 -3.358151,7.753918 H 26.807203 25.39007 l -1.912532,-4.409091 c -1.051892,-2.425 -2.248631,-5.189044 -2.659419,-6.142319 -0.410787,-0.953276 -0.777886,-1.733229 -0.815773,-1.733229 -0.03789,0 -1.265968,2.764044 -2.729069,6.14232 l -2.660184,6.142319 h -1.418114 -1.418114 z"
     id="path1157"
     transform="scale(10)" /></svg>
