<svg fill="none" height="29" viewBox="0 0 122 29" width="122" xmlns="http://www.w3.org/2000/svg" xmlns:xlink="http://www.w3.org/1999/xlink"><clipPath id="a"><path d="m0 .349365h122v28.3112h-122z"/></clipPath><g clip-path="url(#a)" fill="#0074ff"><path d="m14.6101 13.0981c-.4052 0-.7331.4832-.7331 1.0811 0 .5978.3279 1.0804.7331 1.0804s.7318-.4833.7318-1.0804c0-.5972-.3293-1.0811-.7318-1.0811z"/><path d="m12.1465 13.0981c-.4045 0-.7324.4832-.7324 1.0811 0 .5978.3272 1.0804.7324 1.0804.4053 0 .7325-.4833.7325-1.0804 0-.5972-.3307-1.0811-.7325-1.0811z"/><path d="m13.3769 1.90678c-2.6457 0-5.23198.78455-7.4318 2.25442s-3.91437 3.55906-4.92684 6.0034c-1.01246397 2.4443-1.277371 5.1339-.76122 7.7288s1.79018 4.9784 3.66097 6.8492c1.8708 1.8708 4.25433 3.1448 6.84919 3.661 2.5949.5161 5.2845.2512 7.7288-.7613 2.4443-1.0124 4.5335-2.727 6.0034-4.9268s2.2544-4.7861 2.2544-7.4318c0-3.5478-1.4093-6.95025-3.918-9.45891-2.5086-2.50866-5.9111-3.91801-9.4589-3.91801zm7.2418 19.29462c-.8442.2782-1.7572.2659-2.5936-.035s-1.548-.873-2.0214-1.6253c.3624.8977.9635 1.679 1.7383 2.2595 1.4.99 1.9489.8415 2.1359 1.1805.2534.4584-1.0873 1.1694-2.5888.9437-.8819-.1086-1.7152-.4644-2.4037-1.0263-.6884-.5619-1.204-1.307-1.4871-2.1493h-.0483c-.2831.8423-.7987 1.5874-1.4871 2.1493-.6885.5619-1.5217.9177-2.40372 1.0263-1.5022.2257-2.84217-.4832-2.58881-.9437.18777-.3397.73522-.1905 2.14008-1.1805.77531-.5802 1.37695-1.3616 1.73965-2.2595-.4733.7524-1.18481 1.3248-2.02117 1.6259-.83636.3012-1.74945.3137-2.59378.0358-1.35516-.3977-1.63682-1.3117-1.32824-1.496.30859-.1844 1.14667.109 2.57225-.3818.63691-.2434 1.19645-.6539 1.61971-1.1885.42327-.5345.69461-1.1733.78546-1.849.04049-.5753-.07569-1.1507-.3362-1.6652-.43285-.9057-1.07763-1.6485-1.07763-3.2446-.00757-.6206.10717-1.2366.33768-1.81277.23051-.57622.57226-1.10138 1.00575-1.54551.43347-.44413.95017-.79852 1.52067-1.04293s1.1835-.37406 1.804-.38154c.1167 0 .2327 0 .3494.00828 3.2632 0 5.0174 2.29473 5.0174 4.77447 0 1.5961-.6351 2.3424-1.0762 3.2446-.272.5122-.3963 1.0899-.359 1.6686.0904.6757.3614 1.3146.7844 1.8491.4231.5346.9825.9452 1.6194 1.1885 1.4256.4908 2.2664.1967 2.5736.3817s.0262 1.097-1.3282 1.4926z"/><path d="m35.3226 8.25391c-1.4804.01199-2.8975.60157-3.9495 1.64311-1.052 1.04158-1.6556 2.45268-1.6824 3.93288v3.0313c-.0187.7549.1139 1.5059.39 2.2089.276.7029.6898 1.3434 1.2172 1.884.5273.5405 1.1575.9701 1.8534 1.2633.6958.2933 1.4434.4444 2.1985.4444.7552 0 1.5027-.1511 2.1986-.4444.6959-.2932 1.326-.7228 1.8534-1.2633.5273-.5406.9412-1.1811 1.2172-1.884.276-.703.4086-1.454.39-2.2089v-3.0313c-.0342-1.4872-.6477-2.9023-1.7099-3.94383-1.0621-1.04152-2.489-1.62716-3.9765-1.63216zm0 11.84639c-.8296-.044-1.6107-.4045-2.1823-1.0073-.5717-.6027-.8904-1.4018-.8905-2.2325v-3.0313c.0108-.8195.3355-1.6035.9072-2.1907.5716-.5872 1.3467-.9328 2.1656-.9656.8234.0348 1.6034.3793 2.1837.9646.5804.5852.9183 1.368.9463 2.1917v3.032c-.0068.8379-.3352 1.6412-.9173 2.244s-1.3735.959-2.2107.9951z"/><path d="m51.4756 19.0434c-.2983.0291-.5804.1496-.8077.3452-.6716.5017-1.4974.7532-2.3347.711-2.1553 0-3.2951-1.1204-3.2951-3.2398v-2.9754c0-2.1014 1.1301-3.2115 3.2675-3.2115.804-.0339 1.5953.2098 2.2408.6903.2217.192.4978.31.7898.3376.3187-.0274.6159-.1719.8343-.4056s.3424-.54.3483-.8598c0-1.03552-1.7646-2.18288-4.2968-2.18288-3.5953 0-5.743 2.10558-5.743 5.63118v2.9754c0 3.5436 2.1567 5.6609 5.7706 5.6609 2.613 0 4.4348-1.1653 4.4348-2.2091.0028-.327-.1218-.6421-.3475-.8788-.2256-.2366-.5346-.376-.8613-.3887z"/><path d="m59.6512 19.9332h-.7787c-1.7141 0-2.2091-.4646-2.2091-2.071v-7.188h3.2115c.2834-.0162.549-.1437.7389-.3546.1899-.211.2888-.48846.2752-.772.0134-.28372-.0858-.56125-.2759-.77224-.1902-.21098-.456-.33835-.7396-.35441h-3.2101v-5.21352c-.042-.3059-.1992-.58421-.4396-.77808-.2403-.19387-.5455-.28868-.8534-.26504-.3043-.02086-.605.07563-.8404.26964-.2353.19401-.3874.47079-.425.77348v14.65477c0 2.9616 1.6044 4.4638 4.7689 4.4638h.7787c.1572.0016.3132-.0277.4591-.0864.1458-.0586.2787-.1454.391-.2554.1124-.11.2019-.2411.2636-.3857.0616-.1446.0942-.3.0958-.4572v-.0255c-.0003-.3138-.1252-.6146-.3472-.8363s-.523-.3463-.8367-.3463z"/><path d="m67.3085 8.25391c-1.7259 0-4.1297.68275-4.1297 1.79489-.0266.3233.0734.6443.2787.8954.2054.2511.5002.4127.8224.4508.2542-.0234.4992-.1072.7145-.2444.691-.3825 1.4705-.5763 2.2602-.5619 2.7656 0 2.9057 2.838 2.9057 3.4062v.2913h-1.0424c-3.1915 0-6.8552.4756-6.8552 4.1856 0 2.4956 1.5933 4.0461 4.1573 4.0461 1.4321-.0185 2.8018-.5893 3.8231-1.5933v.3003c.0037.149.0367.2958.0973.4321.0605.1362.1473.2591.2554.3618.1082.1026.2355.1828.3747.2362.1392.0533.2876.0786.4366.0744h.0462c.3039.0305.6073-.061.8437-.2543.2364-.1932.3864-.4725.4169-.7763 0-.0221 0-.0449.0048-.0691v-7.2335c.0007-3.596-2.022-5.74229-5.4102-5.74229zm-.4446 11.98519c-.4767.0627-.9588-.0666-1.3402-.3593s-.6309-.7249-.6936-1.2016c-.0165-.1233-.02-.2481-.0104-.3721 0-1.6789 1.7397-2.0158 4.5467-2.0158h.7918v1.4041c0 1.0307-1.7355 2.5447-3.295 2.5447z"/><path d="m84.1715.356279c-.7532 0-1.3214.448727-1.3214 1.043121v8.20066c-.4302-.43458-.9439-.77767-1.5102-1.00865-.5662-.23099-1.1733-.34509-1.7848-.33546-1.4484.03208-2.8251.63694-3.8285 1.68208-1.0033 1.04517-1.5515 2.44537-1.5245 3.89387v3.0306c0 3.0148 2.4763 5.6609 5.2978 5.6609 1.2854.0043 2.5202-.5006 3.4345-1.4042v.1119c.027.3065.1703.5911.4004.7953.2302.2043.5298.3127.8374.303.3084.0133.6099-.0939.8407-.2989.2309-.2049.373-.4916.3964-.7994v-19.8317c-.0081-.14625-.045-.28947-.1086-.42144-.0635-.131974-.1525-.250114-.2617-.347653-.1093-.097539-.2368-.172561-.3751-.220768s-.2848-.068652-.431-.060164c-.0207 0-.0407.004832-.0614.006904zm-1.3214 13.473521v3.8929c-.2004.6566-.5968 1.2363-1.1361 1.6612-.5392.425-1.1954.6749-1.8807.7164-.8262-.0534-1.6018-.4168-2.1715-1.0175-.5698-.6007-.8916-1.3945-.9012-2.2223v-3.0307c.0241-.82.3569-1.6007.9319-2.1859.5749-.5852 1.3496-.9317 2.1691-.9703.395.0022.7857.0823 1.1498.2355.364.1533.6943.3767.972.6576.2778.2809.4974.6138.6465.9796.149.3658.2246.7574.2223 1.1524v.1311z"/><path d="m95.3533 16.2909c1.0452 0 2.7946 0 2.7946-2.6005-.0202-1.4591-.618-2.8506-1.6625-3.8697-1.0444-1.01906-2.4502-1.5825-3.9093-1.56683-1.4818-.02365-2.9126.54124-3.9785 1.57083-1.066 1.0296-1.6802 2.4399-1.708 3.9216v3.1149c0 3.3323 2.6123 5.6608 6.3513 5.6608 2.8173 0 4.5466-1.2875 4.5466-2.2091-.0103-.311-.133-.6077-.3452-.8352-.2122-.2276-.4996-.3706-.8091-.4026-.3247.0312-.6324.1597-.8829.3687-.7125.5141-1.5762.7758-2.4542.7435-2.3037 0-3.8508-1.302-3.8508-3.2392v-.6517zm-2.809-5.7844c.8253.0056 1.6148.3379 2.1958.9241.581.5861.9062 1.3785.9046 2.2039 0 .4715 0 .5702-1.0142.5702h-5.1859v-.6807c.012-.8108.3451-1.5838.9261-2.1495.5811-.5656 1.3627-.8778 2.1736-.868z"/><path d="m104.927 14.195c-1.598-.4646-2.578-.8028-2.578-1.8639 0-.6662.507-1.7949 2.406-1.7949.756.0081 1.499.1907 2.173.5336.238.134.502.2175.774.2451.699 0 1.126-.8553 1.126-1.32133 0-1.11906-2.425-1.73831-4.101-1.73831-3.295 0-4.7701 2.08834-4.7701 4.15734 0 2.7158 2.2091 3.3744 3.9871 3.9039 1.779.5295 2.882.9292 2.882 2.3251 0 1.3213-1.354 1.5988-2.485 1.5988-1.008.0499-1.999-.2692-2.788-.8974-.243-.227-.553-.3696-.884-.4066-.289.0394-.553.1851-.7404.4088-.1875.2236-.285.509-.2734.8007 0 1.1245 1.9478 2.3775 4.7408 2.3775 2.994 0 4.853-1.5188 4.853-3.9626-.001-3.1114-2.395-3.8066-4.322-4.3658z"/><path d="m121.847 20.5656-4.649-6.8048 3.83-3.3613c.111-.0983.198-.2203.255-.3569.057-.13659.083-.28433.075-.4322-.02-.33127-.165-.6427-.404-.87215-.24-.22944-.558-.36001-.89-.36564-.22.01585-.431.09232-.61.22091l-6.216 5.52278v-12.70863c0-.604058-.544-1.04312-1.294-1.04312-.15-.016498-.301-.003404-.445.038535-.144.041938-.279.111899-.396.205884s-.215.210153-.287.341867c-.073.131714-.118.276394-.135.425764v.03107 19.82753c.028.3114.175.5999.411.8048s.542.3101.855.2935c.315.0199.627-.0835.868-.2883s.394-.4951.425-.81v-3.9723l2.112-1.8591 4.425 6.5045c.088.1544.215.2828.368.3723.154.0896.328.1371.506.1379.343-.0182.667-.1587.915-.396.247-.2373.402-.5557.434-.8971-.006-.196-.059-.3878-.153-.5598z"/></g></svg>