<svg width="80" height="46" viewBox="0 0 80 46" fill="none" xmlns="http://www.w3.org/2000/svg">
<g clip-path="url(#clip0)">
<path d="M73.2285 0.964185H7.01219C5.2568 0.95869 3.56993 1.64503 2.31702 2.87451C1.69777 3.49473 1.20826 4.23209 0.877077 5.04355C0.545892 5.855 0.379661 6.7243 0.388086 7.6007V37.1487C0.378552 38.0219 0.543743 38.8882 0.87394 39.6967C1.20414 40.5051 1.69267 41.2394 2.31081 41.8563C2.9281 42.4734 3.66116 42.9626 4.46794 43.2957C5.27472 43.6288 6.13934 43.7994 7.01219 43.7976H73.2285C74.9859 43.7894 76.6685 43.0851 77.9077 41.8389C79.147 40.5927 79.8418 38.9062 79.8402 37.1487V7.5945C79.8467 6.72352 79.6804 5.85991 79.3506 5.05373C79.0209 4.24755 78.5345 3.51485 77.9195 2.89809C77.3044 2.28134 76.5731 1.79282 75.7678 1.46084C74.9626 1.12887 74.0995 0.960056 73.2285 0.964185V0.964185Z" fill="white"/>
<path d="M77.5143 7.59458C77.5209 7.02905 77.4147 6.46788 77.2019 5.94388C76.9891 5.41987 76.674 4.94355 76.2749 4.54277C75.8759 4.14199 75.4009 3.82478 74.8779 3.6097C74.3548 3.39463 73.7941 3.28599 73.2285 3.29015H54.7207L65.3391 21.0351L66.3191 21.1591L66.9393 21.9716V22.7283L67.6092 22.8648L68.2294 23.7083V24.4402L68.9241 24.5642L69.6249 25.3271V27.0141C70.4593 27.7675 71.3997 28.3944 72.416 28.8748C73.3526 29.2346 73.458 30.7355 74.0224 31.5357C74.7295 32.7017 75.697 33.1669 75.4924 33.8181C75.021 35.561 73.2347 38.5009 71.5725 38.6373H64.998V41.4532H73.2347C73.8016 41.4508 74.3623 41.3364 74.8849 41.1167C75.4074 40.8969 75.8814 40.5762 76.2796 40.1727C76.6778 39.7693 76.9924 39.2913 77.2054 38.7659C77.4183 38.2406 77.5254 37.6784 77.5205 37.1116V7.59458" fill="#BF0D3E"/>
<path d="M32.2372 38.6807H29.0554C29.0554 30.7293 31.7411 26.3318 34.9601 25.4573C35.4004 25.3767 35.1896 23.2059 34.6313 22.5422H32.7706C32.4729 22.5422 32.6466 21.984 32.6466 21.984L34.1538 18.765L33.9491 17.8842H28.3794L32.9567 14.6838C33.1676 6.24243 41.8261 5.58498 47.0422 9.10171C50.1434 11.1547 50.3791 15.2234 50.1434 18.0331C50.1062 18.213 49.3371 18.0951 49.3371 18.0951C49.3371 18.0951 48.8099 21.1963 50.1868 21.1963H56.2713C58.7523 21.0971 61.1464 22.7779 61.1464 22.7779L61.7294 20.6505L48.4006 3.29011H7.01229C5.86736 3.28342 4.76613 3.72926 3.94833 4.53058C3.54958 4.93416 3.23468 5.41268 3.02177 5.93855C2.80887 6.46442 2.70218 7.02724 2.70786 7.59454V37.1487C2.70072 37.7144 2.80679 38.2758 3.01983 38.7998C3.23286 39.3239 3.54855 39.8 3.94833 40.2003C4.76109 41.013 5.86293 41.4702 7.01229 41.4718H33.8809C33.2234 40.3429 32.4729 39.0591 32.2434 38.6807" fill="#041E42"/>
<path d="M8.67448 32.41C8.6745 31.8275 8.84757 31.2581 9.17172 30.7741C9.49587 30.2902 9.9565 29.9134 10.4951 29.6916C11.0338 29.4698 11.6262 29.4131 12.1971 29.5285C12.7681 29.644 13.2919 29.9265 13.702 30.3401C14.1122 30.7538 14.3902 31.2799 14.5008 31.8518C14.6114 32.4237 14.5497 33.0156 14.3233 33.5524C14.097 34.0891 13.7163 34.5465 13.2296 34.8666C12.7429 35.1866 12.1721 35.3549 11.5896 35.3499C11.2044 35.3508 10.823 35.2751 10.4673 35.1274C10.1116 34.9796 9.7888 34.7627 9.51762 34.4892C9.24643 34.2157 9.03226 33.8911 8.88752 33.5342C8.74279 33.1773 8.67037 32.7952 8.67448 32.41V32.41ZM79.2696 44.1821C79.2696 43.8472 79.0711 43.8037 78.7858 43.8037H78.1656V45.0442H78.4261V44.5542H78.637L78.9223 45.0442H79.2138L78.9161 44.5542C78.9629 44.5555 79.0094 44.5467 79.0524 44.5282C79.0954 44.5098 79.1339 44.4822 79.1652 44.4474C79.1964 44.4125 79.2198 44.3713 79.2335 44.3266C79.2473 44.2819 79.2511 44.2347 79.2448 44.1883L79.2696 44.1821ZM78.7672 44.3309H78.4199V44.027H78.7052C78.8292 44.027 78.9843 44.027 78.9843 44.1635C78.9843 44.2999 78.9099 44.3309 78.7672 44.3309Z" fill="white"/>
<path d="M78.6806 43.233C78.4453 43.233 78.2153 43.3027 78.0196 43.4333C77.8239 43.5638 77.6713 43.7494 77.581 43.9667C77.4907 44.1839 77.4667 44.423 77.5122 44.6539C77.5576 44.8847 77.6704 45.0969 77.8364 45.2637C78.0023 45.4305 78.2139 45.5444 78.4445 45.591C78.6751 45.6377 78.9143 45.615 79.132 45.5258C79.3497 45.4366 79.5361 45.285 79.6677 45.0899C79.7993 44.8949 79.8702 44.6653 79.8714 44.43C79.8739 44.2727 79.8449 44.1164 79.786 43.9704C79.7271 43.8245 79.6396 43.6918 79.5286 43.5802C79.4176 43.4687 79.2854 43.3805 79.1397 43.3208C78.9941 43.2612 78.838 43.2313 78.6806 43.233V43.233ZM78.6806 45.3604C78.4338 45.3604 78.1972 45.2624 78.0227 45.0879C77.8483 44.9134 77.7502 44.6768 77.7502 44.43C77.7502 44.1833 77.8483 43.9466 78.0227 43.7722C78.1972 43.5977 78.4338 43.4997 78.6806 43.4997C78.9273 43.4997 79.164 43.5977 79.3384 43.7722C79.5129 43.9466 79.6109 44.1833 79.6109 44.43C79.6109 44.6768 79.5129 44.9134 79.3384 45.0879C79.164 45.2624 78.9273 45.3604 78.6806 45.3604Z" fill="white"/>
</g>
<defs>
<clipPath id="clip0">
<rect width="79.4836" height="44.6506" fill="white" transform="translate(0.387695 0.964111)"/>
</clipPath>
</defs>
</svg>
