<svg width="81" height="24" viewBox="0 0 81 24" fill="none" xmlns="http://www.w3.org/2000/svg">
<g clip-path="url(#clip0)">
<path d="M8.56507 4.71066C3.83684 4.71066 0 8.5475 0 13.2757C0 15.2523 0.697606 17.0738 1.82153 18.5465C1.89904 18.6628 2.01531 18.7791 2.09282 18.8566C2.20909 19.0116 2.36411 19.1667 2.51914 19.3217C4.14689 21.0657 6.23971 22.3834 8.56507 23.081C10.8905 22.3834 12.9833 21.0657 14.611 19.3217C14.766 19.1667 14.8823 19.0116 15.0373 18.8566C15.1148 18.7403 15.2311 18.624 15.3086 18.5465C16.4325 17.1126 17.1301 15.291 17.1301 13.2757C17.1301 8.5475 13.2933 4.71066 8.56507 4.71066ZM8.56507 16.5312C6.74354 16.5312 5.27081 15.0585 5.27081 13.237C5.27081 11.4154 6.74354 9.94273 8.56507 9.94273C10.3866 9.94273 11.8206 11.4154 11.8206 13.237C11.8206 15.0585 10.3866 16.5312 8.56507 16.5312Z" fill="#FF8A3D"/>
<path d="M11.3554 4.51686C11.9367 4.40059 12.3631 3.89676 12.3631 3.27667C12.3631 2.57906 11.7818 2.03647 11.1229 2.03647C10.9291 2.03647 10.7353 2.07523 10.5803 2.15274C10.3478 1.2226 9.53388 0.524994 8.56499 0.524994C7.59609 0.524994 6.78225 1.2226 6.58844 2.15274C6.43341 2.07523 6.23963 2.03647 6.04586 2.03647C5.34825 2.03647 4.80566 2.61782 4.80566 3.27667C4.80566 3.89676 5.23198 4.40059 5.81332 4.51686C6.70471 4.20682 7.63484 4.05179 8.60373 4.05179C9.57263 4.05179 10.464 4.20682 11.3554 4.51686Z" fill="#56C271"/>
<path d="M23.2536 13.3919H28.4856C29.1445 13.3919 29.6483 13.0044 29.6483 12.1905C29.6483 11.3766 29.1445 10.989 28.4856 10.989H23.9124C23.6799 10.989 23.5248 10.8341 23.5248 10.6403V8.58618C23.5248 8.35364 23.6799 8.2374 23.9124 8.2374H28.4856C29.1445 8.2374 29.6483 7.84982 29.6483 7.03595C29.6483 6.22208 29.1445 5.83452 28.4856 5.83452H23.2536C21.4708 5.83452 20.6182 6.60963 20.6182 8.1211V11.1441C20.6182 12.6168 21.4708 13.3919 23.2536 13.3919Z" fill="#FF8A3D"/>
<path d="M29.8034 14.3609H24.6488C22.3235 14.3609 20.812 15.6398 20.812 17.5001C20.812 19.3216 22.3235 20.6006 24.6488 20.6006H29.8034C32.1288 20.6006 33.679 19.3216 33.679 17.5001C33.679 15.6398 32.1288 14.3609 29.8034 14.3609ZM29.8034 18.1977H24.6488C24.0675 18.1977 23.7575 17.8876 23.7575 17.5001C23.7575 17.0738 24.0675 16.7637 24.6488 16.7637H29.8034C30.3847 16.7637 30.6948 17.0738 30.6948 17.5001C30.6948 17.8876 30.3847 18.1977 29.8034 18.1977Z" fill="#FF8A3D"/>
<path d="M34.1827 8.27617H33.3688V6.68719C33.3688 5.98958 32.7875 5.48575 31.8961 5.48575C31.0434 5.48575 30.4233 5.98958 30.4233 6.68719V12.7719C30.4233 13.4695 31.0434 13.9733 31.8961 13.9733C32.7487 13.9733 33.3688 13.4695 33.3688 12.7719V11.1054H34.1827C34.8415 11.1054 35.3841 10.5241 35.3841 9.6714C35.3841 8.89629 34.8415 8.27617 34.1827 8.27617Z" fill="#FF8A3D"/>
<path d="M48.7936 14.7484H36.8181C36.1204 14.7484 35.5391 14.2833 35.5391 13.4307C35.5391 12.6556 36.1204 12.1518 36.8181 12.1518H48.7936C49.4912 12.1518 50.0726 12.6556 50.0726 13.4307C50.0726 14.2833 49.53 14.7484 48.7936 14.7484ZM46.352 10.5241V8.97378C46.352 8.7025 46.197 8.54745 45.9644 8.54745H37.6319C36.8955 8.54745 36.3142 8.08238 36.3142 7.22977C36.3142 6.37713 36.9343 5.87331 37.6319 5.87331H46.5846C48.3673 5.87331 49.2587 6.80345 49.2587 8.43122V10.5628C49.2587 11.2604 48.6773 11.7642 47.786 11.7642C46.8946 11.7642 46.352 11.2216 46.352 10.5241ZM39.3372 16.4149V17.4614C39.3372 17.6551 39.4922 17.8101 39.7247 17.8101H48.2898C49.0262 17.8101 49.6075 18.2752 49.6075 19.1279C49.6075 19.9805 48.9874 20.4455 48.2898 20.4455H39.1434C37.3606 20.4455 36.4305 19.7092 36.4305 18.0814V16.4149C36.4305 15.7173 37.0118 15.2135 37.9032 15.2135C38.7171 15.2135 39.3372 15.756 39.3372 16.4149Z" fill="#FF8A3D"/>
<path d="M51.5845 17.7714V7.88864C51.5845 6.53216 52.2821 5.83455 53.6773 5.83455H57.5141C58.9094 5.83455 59.607 6.53216 59.607 7.88864V17.7714C59.607 19.1279 58.9094 19.8255 57.5141 19.8255H53.6773C52.2433 19.8255 51.5845 19.1279 51.5845 17.7714ZM56.8165 16.8412V8.81879C56.8165 8.625 56.7002 8.50869 56.5453 8.50869H54.6462C54.4912 8.50869 54.3749 8.625 54.3749 8.81879V16.8025C54.3749 16.9963 54.4912 17.1125 54.6462 17.1125H56.5453C56.7002 17.1513 56.8165 16.9963 56.8165 16.8412ZM61.351 19.3604V6.80345C61.351 6.06709 61.9711 5.52451 62.8237 5.52451C63.6764 5.52451 64.2964 6.10584 64.2964 6.80345V10.9116H65.1103C65.7692 10.9116 66.3118 11.5317 66.3118 12.3455C66.3118 13.1982 65.7692 13.8183 65.1103 13.8183H64.2964V19.3991C64.2964 20.1355 63.7151 20.6781 62.8237 20.6781C61.9711 20.6393 61.351 20.0968 61.351 19.3604Z" fill="#FF8A3D"/>
<path d="M73.8298 8.93502H74.411V6.68718C74.411 6.02833 74.9537 5.60202 75.7286 5.60202C76.5042 5.60202 77.0462 6.02833 77.0462 6.68718V13.4695C77.0462 14.1283 76.5427 14.5547 75.7286 14.5547C74.9152 14.5547 74.411 14.0896 74.411 13.4307V11.4542H73.8298C73.52 11.4542 73.2095 11.2991 73.0158 11.0279C72.2017 12.8106 70.8065 14.2446 68.8301 15.136C68.2105 15.4073 67.5125 15.2523 67.1637 14.6322C66.8149 14.012 67.0474 13.2757 67.5901 13.0044C68.4811 12.6169 69.2176 12.0742 69.7994 11.4154H68.365C67.8223 11.4154 67.3187 11.1054 67.3187 10.369C67.3187 9.71013 67.7839 9.32261 68.365 9.32261H70.8841C70.9618 9.05133 71.0394 8.77998 71.0394 8.50869C71.0779 8.27616 70.9618 8.12118 70.7296 8.12118H68.4042C67.7454 8.12118 67.28 7.73359 67.28 6.99723C67.28 6.26087 67.7454 5.83455 68.4042 5.83455H71.1946C73.0549 5.83455 73.9075 6.72594 73.6361 8.74123C73.6361 8.81879 73.6361 8.89628 73.597 8.97377C73.7137 8.93502 73.7522 8.93502 73.8298 8.93502ZM79.0618 20.368C77.2791 19.9805 75.1474 19.0116 73.7522 17.8877C72.4731 19.1666 70.768 20.0968 68.9462 20.4455C68.3266 20.5618 67.6286 20.2905 67.3963 19.5154C67.2025 18.779 67.551 18.159 68.2105 17.9652C70.1869 17.4614 71.8143 16.2987 72.6283 14.7872C72.8997 14.3221 73.5585 14.012 74.3725 14.2446C75.1859 14.5159 75.5349 15.291 75.2635 15.8336V15.8723C76.4266 16.8025 78.0931 17.5388 79.7597 17.9264C80.3794 18.0814 80.7668 18.7015 80.5731 19.4379C80.3794 20.213 79.6821 20.5231 79.0618 20.368ZM77.7057 13.8958V6.60967C77.7057 5.95082 78.2477 5.52451 79.0618 5.52451C79.8758 5.52451 80.4185 5.95082 80.4185 6.60967V13.8958C80.4185 14.5547 79.8758 14.9809 79.0618 14.9809C78.2477 14.9809 77.7057 14.5547 77.7057 13.8958Z" fill="#FF8A3D"/>
</g>
<defs>
<clipPath id="clip0">
<rect width="81" height="22.95" fill="white" transform="translate(0 0.524994)"/>
</clipPath>
</defs>
</svg>
