<svg fill="none" height="36" viewBox="0 0 124 36" width="124" xmlns="http://www.w3.org/2000/svg" xmlns:xlink="http://www.w3.org/1999/xlink"><clipPath id="a"><path d="m0 .897339h124v35.0691h-124z"/></clipPath><g clip-path="url(#a)"><g fill="#001a3e"><path d="m49.1926 19.4927h-3.5743v6.7016h-3.0226v-18.39616h7.359c.7774-.00317 1.5477.1476 2.2665.44363.7189.29602 1.372.73144 1.9217 1.28114.5497.54969.9851 1.20279 1.2811 1.92159.296.7189.4468 1.4892.4436 2.2666-.0107 1.1516-.3638 2.2739-1.0144 3.2242-.6506.9502-1.5692 1.6854-2.6389 2.112l4.1785 7.1479h-3.3117zm-3.5743-2.7067h4.3364c.7823-.0489 1.5165-.3942 2.0532-.9655s.8354-1.3256.8354-2.1094-.2987-1.5382-.8354-2.1095c-.5367-.5712-1.2709-.9165-2.0532-.9654h-4.3364z"/><path d="m70.5603 13.0545v13.1406h-2.8389v-1.8923c-.5226.7229-1.2162 1.3051-2.0187 1.6945-.8026.3893-1.6891.5738-2.5803.5368-1.7679-.0965-3.4316-.8668-4.649-2.1525-1.2173-1.2856-1.8958-2.9888-1.8958-4.7593 0-1.7706.6785-3.4738 1.8958-4.7594 1.2174-1.2857 2.8811-2.056 4.649-2.1525.8885-.0355 1.7722.1472 2.5739.5319.8016.3848 1.4969.96 2.0251 1.6753v-1.8631zm-2.8389 6.5703c-.0103-.819-.2627-1.6168-.7252-2.2928-.4626-.676-1.1148-1.2001-1.8745-1.5064s-1.5931-.381-2.3952-.2149c-.8021.1662-1.5371.5659-2.1126 1.1488s-.9658 1.3229-1.1218 2.1271c-.1559.8042-.0706 1.6365.2454 2.3922.3159.7558.8483 1.4012 1.5301 1.8552.6819.4539 1.4827.6961 2.3019.696.553.0124 1.1028-.0884 1.6155-.296.5127-.2077.9776-.5179 1.3661-.9117.3886-.3937.6925-.8627.8933-1.3782.2008-.5154.2942-1.0665.2744-1.6193z"/><path d="m85.3508 13.0546-5.1251 13.1406h-3.2852l-5.1251-13.1406h3.1015l3.6791 9.9867 3.6533-9.9867z"/><path d="m92.522 23.9347c.6553.026 1.3069-.109 1.8979-.3933.591-.2842 1.1033-.7091 1.492-1.2373l2.3394 1.3663c-.6381.926-1.5011 1.6747-2.5079 2.1758-1.0069.501-2.1245.7381-3.248.6888-4.3365 0-7.1488-2.9702-7.1488-6.9119-.0291-.9178.1306-1.8318.4694-2.6853.3387-.8536.8492-1.6284 1.4998-2.2765.6505-.6481 1.4273-1.1556 2.2821-1.491.8549-.3355 1.7695-.4917 2.6872-.459 3.916 0 6.597 3.1538 6.597 6.9384-.0077.3962-.0427.7913-.1048 1.1826h-10.4605c.4463 2.0511 2.1026 3.1024 4.2052 3.1024zm3.4954-5.4135c-.1059-.9125-.5515-1.7516-1.2479-2.3506-.6965-.599-1.5929-.914-2.511-.8822-.9442-.0478-1.8727.2563-2.6057.8535-.733.5971-1.2184 1.4449-1.3625 2.3793z"/><path d="m100.849 7.0094h2.837v19.1883h-2.838z"/><path d="m106.051 9.2699c0-.35865.107-.70924.306-1.00745.199-.2982.482-.53063.814-.66787.331-.13725.696-.17316 1.047-.10319.352.06997.675.24267.929.49627.253.25361.426.57671.496.92847s.034.71636-.103 1.04771c-.137.33136-.37.61456-.668.81386-.298.1992-.649.3056-1.007.3056-.481-.0009-.942-.1923-1.282-.5322-.339-.3398-.531-.80055-.532-1.2812zm.395 3.7846h2.838v13.1406h-2.841z"/><path d="m124 18.1265v8.067h-2.839v-7.7804c.047-.4026.005-.8108-.125-1.1949s-.343-.7347-.625-1.0263c-.281-.2916-.624-.5171-1.004-.6601-.379-.1431-.785-.2001-1.189-.167-1.866 0-3.338 1.1037-3.338 3.7838v7.044h-2.838v-13.138h2.838v1.682c.44-.667 1.049-1.2056 1.764-1.5611.716-.3554 1.513-.515 2.31-.4625 2.943 0 5.046 1.997 5.046 5.4135z"/></g><path d="m24.6893 14.7976-6.5995-4.7252-6.5986 4.7252 2.5308 7.6782h8.1331zm-9.3079 5.7911-1.6769-5.0771 4.3853-3.1307 4.3854 3.141-1.6726 5.0685z" fill="#2a4afc"/><path d="m30.8554 15.4179 2.4887-3.4327-4.0429-1.3251v-9.11998l-8.7115 2.78054-2.5016-3.423321-2.5085 3.438771-8.70549-2.81315v9.13114l-4.0335 1.3199 2.4982 3.4628-5.33881 7.3736 8.64799 2.8518v4.2643l4.06611-1.3165 5.386 7.3556 5.3637-7.3667 4.0695 1.3276v-4.2995l8.6532-2.814zm-4.0798 5.0462.4145-1.2873.7638.2489 1.7447-2.403 3.4619 4.7973-5.6297 1.8331v-2.9444zm-12.1864 7.5289 2.8321-.9114v-.8007h1.343v.8007l2.8218.9123-3.4911 4.7827zm.9441-3.5847v1.3122l-5.017 1.6306v-5.2779l1.2486-.4051-1.5756-4.8479-1.24609.4051-3.08005-4.2652 4.99724-1.6418.7724 1.0616 4.1193-2.99248-.7724-1.06244 3.1084-4.24375 3.1023 4.24289-.7723 1.06673 4.1296 2.99255.7724-1.0668 4.9963 1.6366-3.0817 4.2609-1.2487-.405-1.5791 4.8565 1.2487.405v5.2659l-5.0195-1.6237v-1.301zm11.8868-14.3661-2.8175-.91224-.466.6385-1.0899-.79211.4729-.65051-1.7576-2.40294 5.6581-1.81593zm-14.7515-1.71636.3433.47973.1287.17163-1.0907.79297-.4729-.65051-2.83204.92344v-5.94042l5.66404 1.82966zm-3.26454 12.13826-.75607.242v2.9779l-5.62201-1.8468 3.47052-4.799 1.73269 2.3961.76465-.2489z" fill="#2a4afc"/></g></svg>