<svg fill="none" height="31" viewBox="0 0 91 31" width="91" xmlns="http://www.w3.org/2000/svg" xmlns:xlink="http://www.w3.org/1999/xlink"><clipPath id="a"><path d="m.731445.541016h89.3303v30.2147h-89.3303z"/></clipPath><g clip-path="url(#a)"><path d="m38.7456 16.0358c0 4.194-3.281 7.2844-7.3074 7.2844s-7.3073-3.0904-7.3073-7.2844c0-4.2235 3.2809-7.28434 7.3073-7.28434s7.3074 3.06084 7.3074 7.28434zm-3.1988 0c0-2.6208-1.9016-4.4139-4.1086-4.4139s-4.1085 1.7931-4.1085 4.4139c0 2.5946 1.9015 4.414 4.1085 4.414s4.1086-1.8227 4.1086-4.414z" fill="#ea4335"/><path d="m54.5102 16.0358c0 4.194-3.2809 7.2844-7.3073 7.2844-4.0265 0-7.3074-3.0904-7.3074-7.2844 0-4.2202 3.2809-7.28434 7.3074-7.28434 4.0264 0 7.3073 3.06084 7.3073 7.28434zm-3.1988 0c0-2.6208-1.9016-4.4139-4.1085-4.4139-2.207 0-4.1086 1.7931-4.1086 4.4139 0 2.5946 1.9016 4.414 4.1086 4.414 2.2069 0 4.1085-1.8227 4.1085-4.414z" fill="#fbbc05"/><path d="m69.6173 9.19155v13.07765c0 5.3796-3.1726 7.5767-6.9231 7.5767-3.5306 0-5.6554-2.3613-6.4568-4.2924l2.785-1.1594c.4959 1.1856 1.7111 2.5847 3.6685 2.5847 2.4007 0 3.8885-1.4812 3.8885-4.2695v-1.0476h-.1117c-.7159.8834-2.0953 1.6552-3.8359 1.6552-3.6422 0-6.979-3.1725-6.979-7.2548 0-4.1118 3.3368-7.31064 6.979-7.31064 1.7373 0 3.1167.77179 3.8359 1.62894h.1117v-1.18557h3.0379zm-2.8113 6.87055c0-2.565-1.7111-4.4402-3.8885-4.4402-2.207 0-4.056 1.8752-4.056 4.4402 0 2.5387 1.849 4.3877 4.056 4.3877 2.1774 0 3.8885-1.849 3.8885-4.3877z" fill="#4285f4"/><path d="m74.6259 1.52637v21.34733h-3.12v-21.34733z" fill="#34a853"/><path d="m86.7841 18.4334 2.4829 1.6552c-.8014 1.1856-2.7325 3.2284-6.0692 3.2284-4.1381 0-7.2286-3.1988-7.2286-7.2843 0-4.3319 3.1167-7.28441 6.8706-7.28441 3.7801 0 5.6291 3.00831 6.2334 4.63401l.3317.8276-9.7376 4.033c.7455 1.4615 1.9048 2.207 3.5305 2.207 1.6289 0 2.7587-.8013 3.5863-2.0165zm-7.6423-2.6208 6.5093-2.7029c-.358-.9097-1.4352-1.5436-2.7029-1.5436-1.6257 0-3.8885 1.4352-3.8064 4.2465z" fill="#ea4335"/><path d="m12.3208 14.1408v-3.0904h10.4143c.1018.5386.1543 1.1758.1543 1.8654 0 2.3187-.6338 5.1858-2.6766 7.2286-1.987 2.069-4.5256 3.1725-7.8887 3.1725-6.23339 0-11.474979-5.0774-11.474979-11.3108 0-6.23341 5.241589-11.310788 11.474979-11.310788 3.4484 0 5.905 1.353088 7.7508 3.116708l-2.1808 2.18071c-1.3235-1.24143-3.1167-2.20698-5.5733-2.20698-4.55186 0-8.11194 3.66845-8.11194 8.22035s3.56008 8.2204 8.11194 8.2204c2.9525 0 4.6341-1.1856 5.7113-2.2628.8736-.8736 1.4483-2.1216 1.6749-3.8261z" fill="#4285f4"/></g></svg>