<svg fill="none" height="45" viewBox="0 0 119 45" width="119" xmlns="http://www.w3.org/2000/svg"><g fill="#000"><path d="m8.57959 27.0888c.19083.0213.36378.0386.53616.0576.91545.1149 1.84035.1342 2.75975.0577.8825-.0726 1.7527-.2529 2.5915-.5367 1.5473-.5287 2.8825-1.3975 4.0165-2.5661 1.2568-1.2914 2.2311-2.7673 2.8434-4.4692.4723-1.3149.6785-2.7106.6065-4.1059-.0721-1.5179-.437-2.9667-.987-4.3757-.0334-.0859-.0669-.173-.0986-.2577-.0058-.0231-.0098-.0467-.0121-.0704.0527-.0063.1059-.0063.1585 0 .2399.064.4814.1251.7172.203 1.2684.4208 2.4491 1.0152 3.5104 1.8356 1.4004 1.0821 2.4433 2.445 3.1789 4.0489.5011 1.0717.8457 2.2098 1.0233 3.3795.1218.8214.1516 1.6538.0888 2.4819-.1729 2.2368-.9224 4.261-2.2674 6.0534-1.6488 2.1907-3.8206 3.5945-6.4939 4.2137-1.0257.2407-2.0831.3171-3.1327.2266-3.3375-.2923-6.0114-1.7982-8.03838-4.4588-.32736-.4347-.62071-.894-.87746-1.3738-.05361-.0974-.11703-.1903-.12337-.3436z"/><path d="m97.804 22.4923c-.0457-.0093-.0919-.0161-.1384-.0202-5.2854 0-10.5702 0-15.8541 0-.0287.0047-.0566.0132-.083.0254-.0103.0237-.0166.0491-.0185.0749.045.4312.0877.8648.1396 1.2925.0935.8269.3462 1.6278.7442 2.3586.3563.648.7449 1.2746 1.2395 1.8269 1.1531 1.2897 2.584 2.1193 4.2622 2.5246.8456.2031 1.7206.2538 2.5839.1499 2.1331-.2508 3.8823-1.2147 5.2463-2.8751.1695-.2064.3177-.4295.4756-.6457.0381-.0519.0704-.1089.1153-.1574.073-.0843.1694-.1452.2769-.1749.1075-.0296.2214-.0267.3273.0083.2347.0778.3506.3067.2721.5569-.0309.0867-.0725.1692-.1239.2456-.1939.3033-.4154.588-.6618.8504-.4038.4436-.8405.856-1.3064 1.2337-1.1385.9202-2.4892 1.5408-3.929 1.8051-1.7981.3274-3.5242.068-5.1771-.6959-.8497-.3926-1.643-.8751-2.3331-1.5156-.4337-.4011-.8269-.8439-1.1738-1.322-.26-.3586-.5096-.7241-.765-1.0855-.0415-.0577-.0865-.1153-.1476-.1972-.0179.0353-.0315.0727-.0404.1113-.0052.083-.0034.166-.0034.249v3.8188c.0023.1382-.0087.2762-.0329.4122-.0193.1055-.0762.2004-.1602.2671s-.1893.1007-.2964.0956c-.1026-.0038-.2008-.0424-.2784-.1097-.0776-.0672-.1299-.1589-.1482-.2599-.0212-.1458-.0302-.2931-.0271-.4404 0-1.2361 0-2.4721 0-3.7082 0-.098.0184-.2-.0329-.3251-.0484.0576-.0836.0957-.1107.1372-.2242.3378-.4358.6849-.6728 1.0135-1.2521 1.7365-2.9402 2.8439-4.9897 3.4124-.8417.2335-1.7024.3044-2.5747.2715-1.2013-.0433-2.3809-.3331-3.4654-.8515-.3013-.1392-.5935-.2971-.8752-.4727-1.7036-1.0914-2.9748-2.5453-3.7018-4.4507-.038-.0992-.0576-.2099-.1527-.3102-.0421.0865-.0807.1568-.1107.2306-.2123.5107-.4554 1.008-.7282 1.4892-1.1905 2.11-3.3495 3.534-5.1085 4.0407-.7913.2298-1.6123.3411-2.4363.3304-1.4263-.0167-2.7794-.3309-4.0287-1.0302-1.5693-.8781-2.792-2.1009-3.6153-3.7082-.456-.8907-.8071-1.8189-.9956-2.8047-.1573-.8167-.1918-1.6522-.1027-2.479.1378-1.2903.4918-2.5188 1.1237-3.6499 1.3058-2.3384 3.255-3.8627 5.8873-4.4265 2.3828-.5079 4.5948-.0237 6.6138 1.3369 1.3162.8879 2.2899 2.072 2.9898 3.4891.1389.2807.2721.565.4099.8463.0271.0577.0651.1049.1153.1874.0536-.1309.0957-.2306.1349-.3304.2959-.7869.7074-1.5252 1.2211-2.1907 1.2366-1.5681 2.8035-2.652 4.7331-3.1922.923-.2674 1.8844-.3779 2.844-.3269 1.2683.075 2.4744.3742 3.6032.9686.9541.5027 1.8229 1.1167 2.5407 1.9301.3059.3459.5882.7118.8452 1.0954.1539.2306.3072.4612.4612.6918.0351.0519.0755.0998.132.173.0157-.0409.0274-.0832.0352-.1263.0046-.0824 0-.166 0-.249 0-2.9791 0-5.9577 0-8.93598 0-.83864.0017-1.67785.0051-2.51764 0-.11069.0052-.22138.015-.33149.0109-.12944.057-.25344.1332-.3586.173-.24156.482-.24156.648.00692.0549.08475.0916.17996.1078.27961.0218.15506.0319.31155.03.46813.0035 3.83725.0056 7.67435.0063 11.51125 0 .1095 0 .2185.0035.3194.064.0288.083-.0063.1003-.0357.0519-.0877.1003-.1765.1511-.2647.576-1.0131 1.3348-1.9107 2.238-2.6473 1.1281-.9208 2.468-1.546 3.8984-1.8189 2.2484-.4301 4.363-.0346 6.3336 1.1242.2942.1734.5748.3691.8394.5851.9506.776 1.7785 1.661 2.3637 2.754.2082.3912.3904.7956.5454 1.2107.0322.0848.0697.1678.1072.2572.0991-.0577.1118-.1563.1441-.2364.3632-.8976.8809-1.7036 1.499-2.4433 1.1572-1.3877 2.6092-2.3481 4.3242-2.9114 1.139-.382 2.339-.5501 3.54-.4958 1.893.0923 3.644.6215 5.197 1.7353.083.0577.173.1101.255.1655.103.0642.179.1629.216.2784.033.0919.039.1915.017.2867-.022.0953-.072.1819-.142.2495-.149.1487-.338.1361-.519.0611-.1-.0468-.194-.1048-.28-.1729-.514-.377-1.067-.6955-1.651-.9496-.849-.3651-1.749-.595-2.669-.6814-1.587-.1666-3.189.1079-4.63.7933-1.243.5869-2.324 1.3975-3.152 2.5067-.8765 1.1619-1.4438 2.5272-1.6489 3.9681-.1175.8712-.0663 1.7569.1511 2.6087.2801 1.1531.7385 2.2236 1.4748 3.1576 1.037 1.3352 2.449 2.3313 4.054 2.8612 1.191.4062 2.455.554 3.708.4336 1.514-.141 2.964-.6778 4.205-1.5566.072-.057.147-.1101.226-.1591.086-.0517.179-.0917.276-.1188.108-.0279.223-.0161.323.0332.101.0492.181.1327.225.2355.105.2306.058.4393-.132.5955-.014.0121-.029.0225-.044.0334-1.206.8492-2.516 1.4552-3.973 1.7296-.906.1787-1.833.2274-2.753.1447-1.441-.1372-2.8-.5483-4.049-1.2926-.316-.1885-.624-.392-.929-.5995-.373-.2568-.719-.5497-1.033-.8746-.6145-.6265-1.1502-1.3254-1.5956-2.0812-.5765-.9749-.9051-2.034-1.0377-3.1553-.0334-.2836-.0473-.5696-.0703-.8544zm-33.104.0726c-.0196.385-.0037.7709.0473 1.153.1441.9265.3995 1.8161.8319 2.652.407.7864.961 1.4609 1.5767 2.0887.4119.4236.8754.7938 1.3796 1.1017 1.2638.7668 2.6289 1.19 4.1123 1.2107 1.5596.0359 3.0915-.4164 4.3815-1.2937 1.07-.7062 1.9648-1.5814 2.6018-2.7044.477-.8442.817-1.7588 1.0072-2.7096.1841-.8586.2148-1.743.0905-2.6122-.2352-1.5566-.8746-2.9402-1.8448-4.1728-.5437-.6878-1.2176-1.2332-1.955-1.6944-1.6229-1.0204-3.3934-1.4073-5.2889-1.153-1.4056.1914-2.6745.7494-3.8091 1.5969-.8382.6255-1.4914 1.4229-2.0356 2.3107-.4149.6772-.7177 1.417-.8965 2.1907-.1545.6671-.2213 1.3514-.1989 2.0357zm-1.0377.0438c.0293-.454.0048-.91-.0732-1.3582-.1684-1.0378-.4843-2.023-1.0136-2.9362-.5344-.9225-1.2493-1.6863-2.0812-2.3436-1.2066-.9541-2.5903-1.4574-4.114-1.5975-.7089-.0643-1.4235-.0116-2.1152.1563-1.59.3839-2.9742 1.123-4.0725 2.359-.8135.915-1.4413 1.9343-1.7953 3.1132-.3025 1.028-.4183 2.102-.3418 3.1709.0427.7187.1783 1.4289.4035 2.1129.4664 1.4107 1.3018 2.5735 2.392 3.5646.5136.4645 1.0922.8518 1.7174 1.1495.7542.37 1.563.616 2.3954.7287.8531.1091 1.719.0582 2.5534-.1498 1.0839-.2664 2.0974-.6971 2.9812-1.3889 1.0068-.7873 1.8197-1.7949 2.3763-2.9454.5449-1.1253.7945-2.3158.7893-3.6355zm34.1146-1.0809c.0044-.0555.0044-.1112 0-.1667-.0403-.245-.0738-.4923-.1291-.7344-.2812-1.2373-.8636-2.3859-1.6956-3.3438-1.5715-1.8316-3.5553-2.8249-5.9848-2.8774-.8864-.0251-1.7705.1022-2.6139.3765-2.0754.6826-3.6164 2.0114-4.6743 3.911-.3884.6928-.6587 1.4455-.7997 2.2271-.0351.1972-.0836.3949-.0651.6002.0261.0135.0541.023.083.0282h15.763c.04-.0035.0795-.0105.1182-.0207z"/><path d="m41.5844 31.7142c-2.3262-.0398-4.4732-.7853-6.3082-2.3424-1.0954-.9294-1.9653-2.0484-2.5367-3.3778-.5484-1.2868-.7816-2.686-.6803-4.0812.1096-1.7128.7218-3.2394 1.7296-4.6213.7523-1.0302 1.6944-1.8396 2.7788-2.4969 1.0054-.6105 2.0956-.9887 3.2452-1.2078.6796-.1318 1.372-.1864 2.0639-.1625 1.9521.0714 3.7577.5978 5.3575 1.7508.0819.0577.173.1084.2537.1672.0969.0649.1693.1602.2057.271.0365.1107.0349.2304-.0045.3401-.0853.2612-.3568.3771-.6342.2577-.0993-.0477-.1934-.1057-.2807-.1729-.5472-.3926-1.1352-.7248-1.7538-.9911-.8229-.3529-1.6974-.571-2.5897-.6457-1.7998-.1464-3.5075.1678-5.0981 1.0378-1.8379 1.0066-3.1132 2.4997-3.8626 4.4593-.3971 1.017-.5647 2.1092-.4906 3.1985.0613.7732.2361 1.5331.5188 2.2553.8994 2.3557 2.5765 3.9278 4.9004 4.8381.7299.2883 1.4974.4704 2.279.5408 2.1331.1862 4.0995-.2923 5.8712-1.5151.1153-.079.2248-.162.3413-.2363.0748-.0467.1593-.0753.247-.0838s.1762.0034.2586.0348c.3776.1222.3931.6341.1585.8134-.0363.0277-.0732.0577-.1124.0801-.3753.2341-.7443.4786-1.1277.6988-.8647.4958-1.7999.7985-2.7707.9956-.8181.1666-1.1542.1736-1.959.1955z"/><path d="m20.0962 20.4439c-.0029.1683-.0577.26-.1678.3119-.0491.0268-.1048.0392-.1607.0359-.0559-.0034-.1097-.0224-.1552-.0549-.0721-.0571-.1392-.1202-.2007-.1886-1.4785-1.5197-2.9567-3.0399-4.4345-4.5608l-3.7589-3.8626c-.0601-.0572-.1166-.1183-.1689-.1828-.0459-.0581-.0694-.1308-.0663-.2048.003-.0741.0325-.1445.083-.1987.0522-.0601.1261-.0971.2055-.1029s.1578.02.2183.0717c.0705.0595.1366.1241.1977.1932 2.3007 2.3656 4.6012 4.7312 6.9015 7.0969l1.2919 1.3259c.0545.0497.1039.1045.1476.1638.0282.0496.0508.1022.0675.1568z"/><path d="m8.66504 14.9555c0-.1614.05016-.256.15393-.3165.04682-.0305.1015-.0468.15739-.0468.05588 0 .11056.0163.15739.0468.07413.0544.14234.1164.2035.185 1.06695 1.0958 2.13365 2.1923 3.20025 3.2896l4.8369 4.9759c.0513.0525.105.1032.1534.1591.1447.1655.1516.3373.0225.4676-.1292.1303-.3062.1263-.4664-.0173-.0415-.0369-.079-.0778-.1153-.1153l-8.09602-8.3243c-.04789-.0432-.09152-.0909-.13029-.1424-.03016-.0516-.056-.1056-.07725-.1614z"/><path d="m11.4254 13.2271c.0627.0252.1231.0559.1805.0917.0568.0468.1091.099.1562.1556l7.3869 7.5968c.0534.0507.1031.1052.1487.1631.0489.0628.0711.1423.0617.2213s-.0496.1512-.1118.2007c-.0572.0474-.129.0734-.2033.0734-.0742 0-.1461-.026-.2032-.0734-.0691-.0612-.1351-.1258-.1977-.1937-1.6389-1.6857-3.2781-3.3716-4.9177-5.0577-.8167-.8394-1.6329-1.6794-2.4484-2.52-.0599-.0572-.1147-.1195-.1638-.1862-.0319-.0459-.0494-.1003-.0505-.1562-.001-.0559.0146-.1109.0448-.158.0599-.1067.1562-.1562.3176-.1574z"/><path d="m14.2757 25.5c.0069.1792-.0542.2784-.1729.3361-.0487.0276-.1044.0402-.1602.0363s-.1091-.0241-.1535-.0582c-.0713-.0582-.1385-.1212-.2012-.1886-1.7891-1.8333-3.5776-3.6668-5.36559-5.5005-.54039-.5546-1.08058-1.1088-1.62058-1.6627-.06038-.0568-.11556-.1189-.16488-.1856-.03785-.0585-.05485-.1281-.04825-.1974.00659-.0694.03638-.1345.08457-.1848.04913-.0573.11829-.0936.1933-.1015.07502-.0079.15024.0131.21026.0588.07234.0568.13948.1199.20062.1885 1.58311 1.6223 3.16605 3.2448 4.74875 4.8675.7333.7518 1.4667 1.5038 2.2 2.2559.0607.0564.1174.1171.1695.1816.0317.0488.0585.1006.0801.1546z"/><path d="m16.3838 24.5988c-.0539-.02-.1053-.0461-.1533-.0778-.0635-.053-.1229-.1109-.1776-.1729l-6.79539-6.9718c-.05367-.0508-.10448-.1045-.1522-.1609-.11184-.1441-.10492-.3067.01211-.4266s.29402-.1303.44622 0c.04037.0365.07885.0749.11531.1153l6.87495 7.0491c.0532.051.1023.1061.147.1648.0342.0442.0545.0976.0583.1533.0038.0558-.009.1114-.037.1598-.0622.117-.1591.1747-.3384.1677z"/><path d="m11.2858 15.065c.0395-.0022.079.0038.1161.0177.037.0139.0707.0354.0989.0631.0473.0438.0917.0905.1367.1366l6.7452 6.9366c.0323.0329.0663.0646.0957.0997.1389.1655.1395.3419.0029.4676-.1367.1257-.2975.1153-.4474-.019-.0577-.0485-.1044-.1038-.1557-.1568l-2.4282-2.4975c-1.4194-1.4605-2.839-2.921-4.2587-4.3815-.0676-.0624-.1275-.1324-.1788-.2087-.0265-.0472-.04-.1005-.0393-.1546.0007-.054.0157-.107.0434-.1534.0277-.0465.0672-.0848.1145-.1111.0472-.0263.1006-.0396.1547-.0387z"/><path d="m20.5747 17.8433c-.0528-.0181-.1032-.0427-.1499-.0732-.0638-.0528-.1231-.1106-.1775-.173-2.1735-2.2345-4.347-4.4693-6.5204-6.7042-.0602-.0568-.1154-.1188-.1649-.1851-.0438-.0614-.0628-.1371-.0532-.212.0096-.0748.0472-.1432.1051-.1916.0511-.0474.1169-.076.1865-.0811.0696-.005.1389.0138.1963.0535.0721.0574.1392.1209.2006.1896 1.3698 1.4079 2.7394 2.8161 4.1088 4.2247.8045.8264 1.6083 1.6527 2.4116 2.479.06.0573.1159.1187.1672.1839.0368.0483.0581.1066.0611.1672.003.0607-.0125.1208-.0444.1724-.0582.1055-.1534.158-.3269.1499z"/><path d="m9.50945 18.7202c.05351.0211.10487.0474.15335.0784.05671.0471.10954.0988.15796.1545l5.59454 5.7397c.0532.0509.1032.105.1499.162.0504.0614.0755.1398.0702.2191-.0054.0793-.0408.1535-.0991.2076-.0584.0534-.1347.083-.2139.083-.0791 0-.1554-.0296-.2138-.083-.0483-.0429-.0941-.0886-.1373-.1367-1.8717-1.9217-3.7433-3.8419-5.61463-5.7605-.05955-.0576-.11503-.1192-.16604-.1845-.03422-.0442-.05448-.0976-.05818-.1533-.0037-.0558.00934-.1114.03743-.1597.06342-.1148.15969-.1736.33957-.1666z"/><path d="m12.5214 26.3157c-.0537-.0188-.1051-.0433-.1534-.0732-.0574-.046-.1105-.0971-.1585-.1528l-5.59221-5.7404c-.05329-.0509-.10372-.1048-.15105-.1614-.05109-.0605-.07745-.138-.07382-.2171.00364-.0791.037-.1539.09343-.2095.05549-.0569.13096-.0899.21039-.092.07943-.0022.15658.0267.21507.0805.04875.0422.09477.0874.13779.1355l5.6331 5.7795c.0531.0511.1026.1058.1482.1637.0377.0473.0597.1053.0627.1657s-.0131.1202-.046.171c-.0634.1038-.1557.1563-.3257.1505z"/><path d="m14.8615 13.1625c.0569.0193.1115.0444.1632.075.058.0465.1113.0987.1591.1556 1.723 1.7719 3.446 3.5435 5.169 5.3149.0536.0506.1033.1051.1488.1632.0467.0611.0693.1374.0632.2141-.0061.0768-.0403.1485-.0961.2016-.0558.053-.1293.0835-.2062.0856-.077.0021-.152-.0243-.2106-.0741-.0704-.0616-.1366-.1276-.1983-.1978-1.5624-1.6061-3.1246-3.2127-4.6865-4.8196-.1672-.173-.335-.3425-.501-.5189-.0461-.0446-.0861-.0952-.1188-.1505-.1078-.2.0427-.4456.3142-.4491z"/><path d="m16.6882 11.2531c.0555.0211.1088.0475.1591.079.0575.0464.1105.0979.1586.154l3.9543 4.0661c.0602.0572.1168.118.1695.1822.0475.0601.0713.1357.0668.2123-.0045.0765-.0371.1488-.0914.2029-.0544.0541-.1267.0864-.2033.0906s-.152-.0198-.212-.0677c-.0568-.047-.1102-.098-.1597-.1527-1.3314-1.3668-2.6623-2.7354-3.9929-4.106-.059-.0582-.113-.1212-.1615-.1885-.032-.0459-.0495-.1004-.05-.1564-.0005-.0559.0159-.1108.0472-.1572.0611-.1032.1527-.1563.3153-.1586z"/><path d="m20.9993 13.9385c-.0075.2618-.2554.4076-.4613.2946-.0622-.0392-.1185-.0871-.1671-.1424-1.2395-1.2721-2.479-2.547-3.7186-3.8246-.0329-.0321-.0638-.0664-.0922-.1026-.0495-.0619-.0737-.1403-.0674-.21932.0062-.07903.0422-.15273.1008-.20612.0536-.05164.1243-.08186.1986-.08494.0744-.00308.1473.02119.205.06822.0293.02268.0567.04775.0819.07495 1.2602 1.29451 2.5197 2.58951 3.7784 3.88511.0345.0306.0643.0661.0882.1055.0215.0492.0394.0999.0537.1516z"/><path d="m7.05811 22.3931c.00021-.0555.016-.1097.04556-.1566s.07171-.0845.12163-.1086c.04895-.0266.10433-.039.15992-.0358.0556.0032.10922.0217.15485.0537.05186.0383.09993.0816.14355.1291 1.19531 1.2276 2.39198 2.4548 3.58998 3.6816.046.0449.0872.0946.1228.1482.0386.0583.0552.1285.0469.198-.0084.0695-.0411.1338-.0925.1813-.0471.0518-.1113.0849-.1809.0933-.0695.0084-.1398-.0086-.1978-.0477-.0742-.0542-.1426-.1158-.2041-.1839-.99932-1.0224-1.99649-2.0451-2.99156-3.0682-.19947-.2047-.39779-.4099-.59842-.6135-.03788-.0342-.06813-.076-.08879-.1227s-.03127-.0972-.03112-.1482z"/><path d="m8.84283 25.4723c.03999-.0025.08004.0039.1173.0186.03726.0148.07083.0375.09831.0667.18737.1879.37647.3747.55345.5719.05321.0584.08177.1351.07973.2141-.00204.0789-.03453.154-.09068.2096-.02866.0298-.06298.0536-.10095.07-.03797.0163-.07882.0249-.12016.0253s-.08234-.0075-.1206-.0232c-.03826-.0156-.073-.0388-.1022-.068-.19198-.1834-.37474-.3765-.55519-.5708-.04253-.0429-.07028-.0982-.0792-.1579s.00146-.1207.02962-.1742c.0235-.0568.06411-.1048.11618-.1375.05208-.0326.11303-.0482.17439-.0446z"/><path d="m20.5325 11.5898c.0035.0582-.0097.1163-.038.1673-.0282.0511-.0705.093-.1217.1209-.0472.029-.1016.0439-.1569.0431-.0554-.0008-.1093-.0173-.1556-.0477-.0239-.0132-.046-.0295-.0657-.0484-.1799-.1827-.3598-.3649-.5356-.5511-.0374-.0402-.0649-.0886-.0801-.1413-.0174-.0575-.0169-.1189.0016-.1761.0184-.0572.0538-.1074.1016-.1439.0507-.0392.1118-.0629.1758-.0681.0639-.0052.128.0082.1845.0387.0311.0196.0596.043.0847.0698.1672.1695.3327.3401.4987.5108.032.0286.058.0634.0763.1022s.0286.0809.0304.1238z"/></g></svg>