<svg fill="none" height="35" viewBox="0 0 150 35" width="150" xmlns="http://www.w3.org/2000/svg"><g fill="#000"><path d="m46.8622 9.3548h-2.0404v16.0425h10.1746v-1.9955h-8.1342z"/><path d="m132.821 15.1108-1.361-1.1824-3.903 4.4904-3.869-4.4521-.035-.0383-1.359 1.1824 4.069 4.6817-4.036 4.6415-.033.0392 1.359 1.1824 3.904-4.4904 3.87 4.4512.033.0392 1.361-1.1824-4.07-4.6807 4.036-4.6425z"/><path d="m106.154 20.8868-10.9417-11.532h-.4037v16.0425h2.0405v-11.5321l10.9419 11.5321h.403v-16.0425h-2.04z"/><path d="m136.791 14.1867h-1.929v11.2106h1.929z"/><path d="m136.881 9.3548h-2.109v1.8051h2.109z"/><path d="m116.218 14.0068c-3.139 0-5.628 2.5341-5.628 5.7847 0 3.2286 2.444 5.7847 5.763 5.7847 1.951 0 3.542-.8074 4.507-1.8167l-.01-.0105-1.373-1.1929c-.722.6563-1.806 1.2034-3.124 1.2034-2.04 0-3.587-1.5018-3.767-3.4973h9.103c-.045-3.9901-2.332-6.2554-5.471-6.2554zm-3.542 4.5746c.403-1.7038 1.793-2.8029 3.43-2.8029 1.704-.022 3.139.9643 3.409 2.8029z"/><path d="m143.887 19.0071-.955-.3368c-1.352-.4706-1.702-1.0092-1.702-1.7037 0-.7854.769-1.2331 1.655-1.2331.818 0 1.396.3339 1.89.8744l1.307-1.1355c-.817-.9806-1.908-1.4656-3.196-1.4656-2.121 0-3.636 1.3001-3.636 2.9818 0 1.345.722 2.5781 2.773 3.3185l.909.3367c1.375.4707 1.981.9414 1.981 1.7937s-.933 1.4129-2.074 1.4129c-1.231 0-2.02-.5692-2.751-1.4129l-1.377 1.1977c1.007 1.2225 2.439 1.9419 4.081 1.9419 2.541 0 4.125-1.4129 4.125-3.2066 0-1.6587-1.05-2.668-3.03-3.3634z"/><path d="m78.0168 15.1108-1.3593-1.1824-3.904 4.4904-3.8695-4.4521-.0344-.0383-1.3603 1.1824 4.0704 4.6817-4.036 4.6415-.0344.0392 1.3603 1.1824 3.9039-4.4904 3.8695 4.4512.0345.0392 1.3593-1.1824-4.0694-4.6807 4.0359-4.6425z"/><path d="m81.9871 14.1867h-1.9285v11.2106h1.9285z"/><path d="m82.0776 9.3548h-2.1093v1.8051h2.1093z"/><path d="m61.4134 14.0068c-3.1386 0-5.6278 2.5341-5.6278 5.7847 0 3.2286 2.4442 5.7847 5.7627 5.7847 1.9505 0 3.5424-.8074 4.5066-1.8167l-.0095-.0105-1.3728-1.1929c-.7222.6563-1.8061 1.2034-3.1243 1.2034-2.0405 0-3.5873-1.5018-3.7671-3.4973h9.1031c-.044-3.9901-2.3313-6.2554-5.4709-6.2554zm-3.5423 4.5746c.4037-1.7038 1.7936-2.8029 3.4304-2.8029 1.7047-.022 3.1396.9643 3.4084 2.8029z"/><path d="m89.0825 19.0071-.9557-.3368c-1.3517-.4706-1.7008-1.0092-1.7008-1.7037 0-.7854.7691-1.2331 1.6549-1.2331.8179 0 1.3967.3339 1.8903.8744l1.3058-1.1355c-.816-.9806-1.9075-1.4656-3.1961-1.4656-2.1208 0-3.6361 1.3001-3.6361 2.9818 0 1.345.7223 2.5781 2.7733 3.3185l.9087.3367c1.3747.4707 1.9812.9414 1.9812 1.7937s-.9327 1.4129-2.0739 1.4129c-1.2312 0-2.0204-.5692-2.7503-1.4129l-1.3776 1.1977c1.0074 1.2225 2.4394 1.9419 4.081 1.9419 2.5408 0 4.1249-1.4129 4.1249-3.2066.001-1.6587-1.0484-2.668-3.0296-3.3634z"/><path d="m148.514 11.1571c-.822 0-1.492.6715-1.492 1.498 0 .8399.656 1.4991 1.492 1.4991.834 0 1.486-.6592 1.486-1.4991s-.652-1.498-1.486-1.498zm0 2.756c-.694 0-1.239-.5529-1.239-1.258 0-.6935.555-1.2579 1.239-1.2579.683 0 1.238.5644 1.238 1.2579 0 .7041-.543 1.258-1.238 1.258z"/><path d="m149.14 12.2696c0-.3061-.219-.4811-.601-.4811h-.594v1.6826h.278v-.7012h.293l.386.7012h.298l-.402-.7413c.228-.0584.342-.2134.342-.4602zm-.613.2593h-.303v-.4869h.296c.24 0 .347.0727.347.2334 0 .1769-.101.2535-.34.2535z"/><path d="m35.1286 6.35773c-.8227 0-1.4924.67154-1.4924 1.49806 0 .83991.6563 1.49902 1.4924 1.49902.8332 0 1.4856-.65911 1.4856-1.49902s-.6524-1.49806-1.4856-1.49806zm0 2.75601c-.6945 0-1.2389-.55292-1.2389-1.25795 0-.69355.5549-1.25795 1.2389-1.25795.683 0 1.2378.5644 1.2378 1.25795 0 .70503-.5433 1.25795-1.2378 1.25795z"/><path d="m35.7539 7.47028c0-.30611-.2191-.48117-.6008-.48117h-.594v1.68268h.2774v-.7012h.2937l.3855.7012h.2985l-.4028-.74137c.2287-.05836.3425-.21333.3425-.46014zm-.6132.25925h-.3032v-.48692h.2965c.2401 0 .3473.0727.3473.23341 0 .17698-.1014.25351-.3406.25351z"/></g><path d="m6.29332 15.7517c1.77835-3.5452 4.70278-6.39307 8.15038-8.04994.4027-.19323.8122-.37021 1.2273-.53092.0373-.01435.0211-.06983-.0181-.06313-12.27248 2.06533-17.5377 17.31859-9.34236 23.84749.03061.0249.07175-.0134.04879-.0459-1.19099-1.632-3.99866-7.2588-.06601-15.1576z" fill="#e8171f"/><path d="m9.11234 25.9215c-.32142-2.0127-.31664-4.0589.00287-6.0334.64189-3.9566 2.55319-7.5831 5.30249-10.2712.5099-.50318 1.0533-.96905 1.6167-1.40145.0306-.02391.0029-.0727-.0335-.05644-6.41599 2.86699-10.1181 10.02339-9.64266 16.54179.26115 2.9799 1.4311 8.4671 7.14496 9.5499.0364.0067.0555-.0401.0249-.0612-2.3504-1.6157-4.00346-5.3953-4.41576-8.268z" fill="#e8171f"/><path d="m1.18311 11.225c2.86794-4.05131 8.75688-6.78533 14.50809-6.07456.0401.00478.0516-.05261.0134-.06409-4.39-1.28283-8.95589-.42187-11.74634 1.83192-1.19673.96618-2.12656 2.63452-2.83254 4.27513-.01627.0363.03443.065.05739.0316z" fill="#e8171f"/><path d="m33.5788 16.2817c-.7586-9.27254-9.1137-16.2988887-18.3785-15.453239-3.22.293679-6.66379 1.625289-9.23231 3.796809-.03157.02679.00287.07558.03826.05549 2.19544-1.25795 5.22315-1.22639 7.00815-1.0188.9404.11001 1.8693.30707 2.7704.58545.9002.28029 1.7726.64189 2.6029 1.07811.4305.22767.8505.47544 1.257.74138 1.5153-.67346 3.1129-1.12116 4.7238-1.34788l.0038-.00095c.1148-.01627.2315.04496.2698.15401.0507.14254-.0383.28794-.176.31664-.8657.18272-1.7181.43144-2.5465.74425-.0364.01339-.0268.06792.0124.06792 1.1747.00383 2.3418.12914 3.4773.36734l.0058.00096c.1004.02104.1827.10044.1951.2028.0191.16836-.1234.29081-.2726.26881-.9978-.15019-2.0099-.21046-3.0182-.17793-.0401.00095-.0468.0574-.0086.06887.4716.14445.9366.30995 1.3919.49266.8581.35012 1.6827.77295 2.4662 1.25508l.0095.00574c.0747.04592.1234.1301.1129.21811-.022.18941-.2133.27073-.3549.19228-.7806-.43143-1.5956-.80164-2.4355-1.10011-.354-.1234-.7118-.23532-1.0724-.33481-.0392-.01053-.0622.04209-.0277.06409.5892.37212 1.1536.7806 1.6855 1.22638.7098.59502 1.3661 1.24839 1.9601 1.95154l.0058.0067c.0574.0679.0765.1626.0392.2429-.0804.1741-.2889.1904-.3989.0699-.5998-.6601-1.257-1.26754-1.9601-1.81569-.4162-.32429-.8505-.62467-1.2991-.90209-.0354-.022-.0727.02392-.044.05453.1282.13488.2535.27168.3759.41135.6132.69833 1.1633 1.4502 1.6387 2.2442.4745.795.8763 1.6301 1.1977 2.4939l.0029.0067c.0306.0832.0172.1808-.046.244-.1358.1368-.3386.0803-.4008-.0727-.3319-.8275-.7404-1.6244-1.2168-2.3792-.4764-.7538-1.0236-1.46262-1.6291-2.11791-.6055-.65432-1.2723-1.25316-1.985-1.78791-.2018-.15019-.507-.36161-.6275-.43909-13.94559 7.77541-9.1061 28.19441.9575 27.13351 7.9954-1.8951 13.6108-9.393 12.922-17.8141z" fill="#e8171f"/><path d="m3.29797 13.7342c3.21615-5.09781 8.82093-7.29229 12.25423-7.62136.0402-.00383.0393-.06314-.0009-.06601-1.4187-.12245-2.7312-.02966-4.4512.32908-1.73813.39795-3.41317 1.08384-4.91123 2.05385-1.50189.96236-2.82585 2.19834-3.90013 3.62174-.01052.0144-.02104.0287-.03252.0431-2.071078 2.7751-2.735927 6.3404-1.913236 9.7039.093748.3855.355862 1.1824.532836 1.6884.013392.0373.068876.0249.06505-.0143-.427608-3.9834.73086-7.1594 2.3571-9.7384z" fill="#e8171f"/></svg>