<svg fill="none" height="27" viewBox="0 0 113 27" width="113" xmlns="http://www.w3.org/2000/svg" xmlns:xlink="http://www.w3.org/1999/xlink"><clipPath id="a"><path d="m0 .269043h113v26.462h-113z"/></clipPath><g clip-path="url(#a)" fill="#000"><path d="m8.83159 12.0627c-1.44325-1.5969-2.43164-2.50633-3.87346-3.87835-.46154-.366-.71655-.93381-.68373-1.52239v-2.3559c-.00233-.16214.06097-.31832.17548-.43298.11452-.11466.2705-.17803.43244-.17569h.15162c.31261.02516.54828.29511.53138.60867v3.80239h3.95v-3.80239c0-2.81349-2.20279-3.802398-4.633-3.802398-2.35441.075905-4.557194 1.064818-4.557194 3.878298v2.96601c-.015506.74437.167952 1.47936.531386 2.12891 1.063488 1.67272 3.189748 3.19372 4.177428 4.33442.38671.4073.58022.9612.53138 1.521v3.2696c-.07581.1518-.07581.2284-.22814.3043-.0607.0585-.14455.0864-.22815.076h-.1509c-.30236-.0123-.55538-.2337-.60792-.5321v-.1518-4.5629h-4.025084v4.4863c0 2.8135 2.202784 3.8024 4.633004 3.8024 2.43021 0 4.633-1.0648 4.633-3.9542v-3.4222c.15142-.9326-.12794-1.8837-.75954-2.5858"/><path d="m32.9098.503662h-3.5695v21.140138h3.5695z"/><path d="m8.75786 12.0627c-1.44325-1.5969-2.43164-2.50633-3.87346-3.87835-.46154-.366-.71655-.93381-.68373-1.52239v-2.3559c-.00233-.16214.06097-.31832.17548-.43298.11452-.11466.2705-.17803.43244-.17569h.15162c.31261.02516.54828.29511.53138.60867v3.80239h3.95v-3.80239c0-2.81349-2.20279-3.802398-4.633-3.802398-2.35441.075905-4.557194 1.064818-4.557194 3.878298v2.96601c-.015506.74437.167952 1.47936.531386 2.12891 1.063488 1.67272 3.189748 3.19372 4.177428 4.33442.38671.4073.58022.9612.53138 1.521v3.2696c-.07581.1518-.07581.2284-.22814.3043-.0607.0585-.14455.0864-.22815.076h-.1509c-.30236-.0123-.55538-.2337-.60792-.5321v-.1518-4.5629h-4.025084v4.4863c0 2.8135 2.202784 3.8024 4.633004 3.8024 2.43021 0 4.633-1.0648 4.633-3.9542v-3.4222c.15142-.9326-.12794-1.8837-.75954-2.5858"/><path d="m18.9344 10.6204v-2.28431c0-2.50629-1.9746-3.8024-4.1774-3.8024-2.2786 0-4.1774 1.29253-4.1774 3.8024v9.65991c0 2.5063 1.8988 3.8024 4.1774 3.8024 2.2028 0 4.1774-1.2925 4.1774-3.8024v-3.044h-3.5695v3.4221c-.0122.3027-.2334.5561-.5314.6087h-.0758c-.1408-.0028-.2758-.0567-.3797-.1518-.1473-.1045-.2328-.2755-.2282-.4562v-10.41895c0-.33616.2722-.60867.6079-.60867.3358 0 .6079.27251.6079.60867v2.73615h3.5696z"/><path d="m25.8459 4.61039c-1.0528-.02999-1.9918.65872-2.2807 1.67277h-.1516v-5.779498h-3.5674v21.140138h3.5695v-13.38354c.0031-.23938.1546-.45157.3798-.53205h.1516c.3261.02217.5858.28213.6079.60867v13.38352h3.5695v-13.46229c.0758-1.9012 0-3.65202-2.2786-3.65202"/><path d="m38.8359 4.76233v13.30767c-.0221.3265-.2817.5865-.6079.6087h-.1516c-.0758 0-.0758 0-.1516-.0759-.2252-.0805-.3767-.2927-.3798-.5321v-13.30837h-3.5723v13.99227c0 1.7486.6837 3.0419 2.5031 3.0419 1.1955-.0119 2.1842-.9356 2.2786-2.1289h.0815v1.9012h3.5696v-16.80647z"/><path d="m51.8959 6.35915c-.4549-1.36844-1.0621-1.74868-2.2743-1.74868-1.4433 0-1.823.60867-2.4317 1.67277h-.0758v-1.52096h-3.5716v16.80572h3.5695v-13.30551c0-.33616.2722-.60867.6079-.60867s.6079.27251.6079.60867v13.30551h3.5695v-13.2339c0-.33616.2722-.60867.6079-.60867.3358 0 .608.27251.608.60867v13.3105h3.5695v-13.91631c.0751-1.29252-.1531-3.11782-2.3552-3.11782-1.4432 0-1.823.60867-2.4316 1.74868z"/><path d="m63.7446 4.61039c-1.0333-.02417-1.9462.66975-2.2006 1.67277h-.0759v-5.779498h-3.5716v21.140138h3.5695v-1.7486h.078c.177 1.0845 1.1053 1.8857 2.2027 1.9012 2.2028 0 2.5032-1.9012 2.5032-3.8024v-9.73374c0-1.9012-.304-3.65202-2.5032-3.65202zm-1.0635 5.09492v8.13609.2285c-.0221.3265-.2818.5865-.6079.6086-.1516 0-.2282 0-.304-.0759-.185-.1141-.2995-.3145-.3039-.532v-1.4458-8.36454c0-.33616.2722-.60867.6079-.60867s.6079.27251.6079.60867z"/><path d="m75.6683 8.41287c0-2.50629-1.9746-3.8024-4.1774-3.8024-2.2786 0-4.1774 1.29253-4.1774 3.8024v9.58113c0 2.5063 1.8988 3.8024 4.1774 3.8024 2.2028 0 4.1774-1.2925 4.1774-3.8024v-3.0419h-3.5695v3.4981c0 .3361-.2722.6087-.6079.6087s-.6079-.2726-.6079-.6087v-.3058-4.4089h4.7846zm-3.5695 2.81353h-1.2158v-3.26968c-.0023-.16213.061-.31831.1755-.43297s.2705-.17803.4324-.1757c.3261.02217.5858.28214.6079.60867v.22843z"/><path d="m82.8831 4.61043c-1.1021-.0228-2.1014.64501-2.5032 1.67277h-.0758v-1.52096h-3.5717v16.80576h3.5695v-13.30555c.0032-.23938.1546-.45158.3798-.53205h.1516c.3262.02216.5858.28213.6079.60867v5.55103h3.5695v-6.31366c.0759-1.82529-.3797-2.96601-2.1262-2.96601"/><path d="m103.694 8.41287c0-2.50629-1.974-3.8024-4.1772-3.8024-2.2786 0-4.1774 1.29253-4.1774 3.8024v9.58113c0 2.5063 1.8988 3.8024 4.1774 3.8024 2.2032 0 4.1772-1.2925 4.1772-3.8024v-3.0419h-3.569v2.0537 1.4451c0 .3362-.2725.6087-.6082.6087-.3358 0-.6079-.2725-.6079-.6087v-1.4451-3.1937h4.7841zm-3.569.98819v1.82534h-1.2161v-1.82534-1.44434c0-.33616.2721-.60867.6079-.60867.3357 0 .6082.27251.6082.60867z"/><path d="m110.756 4.61043c-1.102-.0228-2.102.64501-2.504 1.67277h-.075v-1.52096h-3.572v16.80576h3.569v-13.30555c0-.21746.116-.4184.304-.52713.189-.10873.42-.10873.608 0s.304.30967.304.52713v5.62695h3.57v-6.31296c.076-1.82529-.381-2.96601-2.204-2.96601z"/><path d="m90.7862 4.76228v1.59687h-.1516c-.4121-.99882-1.3548-1.67676-2.4317-1.74868-1.5949 0-2.2786 1.36915-2.2786 3.04192v10.11391c0 1.5969.6079 2.8135 2.2786 2.8135 1.0464-.0309 1.9865-.6482 2.4317-1.5968h.1516v4.0308c0 .3361-.2722.6086-.6079.6086-.3358 0-.6079-.2725-.6079-.6086v-1.4458h-3.5696v.9123c0 2.7376 1.7465 3.8024 4.1775 3.8024 2.5031 0 4.1774-1.0648 4.1774-3.8024v-17.71802zm0 12.31662c0 .3361-.2722.6087-.6079.6087-.3358 0-.6079-.2726-.6079-.6087v-1.4408-7.37561c0-.33616.2721-.60867.6079-.60867.3357 0 .6079.27251.6079.60867v7.37561z"/></g></svg>