<svg fill="none" height="66" viewBox="0 0 62 66" width="62" xmlns="http://www.w3.org/2000/svg"><path d="m19.1189 16.9097c-10.92507 7.6476-19.1189 8.467-19.1189 21.304 0 15.5682 12.837 27.5859 30.8634 27.5859 17.7533 0 30.8635-14.4758 31.1366-30.8635-.2731-16.1145-11.1982-34.414066-24.3084-34.414066-8.7401 0-6.2819 7.647576-18.5727 16.387666z" fill="#56f24b"/><path d="m39.0564 27.8349c2.185 1.6387 3.5506 4.0969 3.8237 6.8282h-5.4625c-.2731-1.3657-1.0925-2.7313-2.185-3.8238-1.3657-.8194-2.7313-1.3657-4.3701-1.3657-1.9119 0-3.8238.8194-4.9163 2.185-1.3656 1.3657-1.9119 3.5507-1.9119 6.282s.5463 4.9163 1.9119 6.2819c1.3657 1.3657 3.0044 2.185 4.9163 2.185 1.6388 0 3.0044-.5462 4.3701-1.3656 1.0925-.8194 1.9119-2.185 2.185-3.8238h5.4625c-.5462 3.0044-1.9118 5.1894-3.8237 7.1013-2.1851 1.6388-4.9163 2.4582-7.9207 2.4582-2.1851 0-4.3701-.5463-6.282-1.6388s-3.5506-2.4581-4.6432-4.37c-1.3656-1.9119-1.6387-4.3701-1.6387-6.5551 0-2.4581.5462-4.6432 1.6387-6.8282 1.0926-1.9119 2.4582-3.5506 4.3701-4.37 1.9119-1.0925 4.0969-1.6388 6.2819-1.6388 3.2776 0 6.0088.8194 8.1939 2.4582z" fill="#000"/></svg>