<?xml version="1.0" encoding="utf-8"?>
<!-- Generator: Adobe Illustrator 24.3.0, SVG Export Plug-In . SVG Version: 6.00 Build 0)  -->
<svg version="1.1" id="Layer_1" xmlns="http://www.w3.org/2000/svg" xmlns:xlink="http://www.w3.org/1999/xlink" x="0px" y="0px"
	 viewBox="0 0 1324 366" style="enable-background:new 0 0 1324 366;" xml:space="preserve">
<style type="text/css">
	.st0{fill:#1D1F26;}
	.st1{fill-rule:evenodd;clip-rule:evenodd;fill:#EBC22E;}
	.st2{fill-rule:evenodd;clip-rule:evenodd;fill:#7494CC;}
	.st3{fill-rule:evenodd;clip-rule:evenodd;fill:#C09A28;}
	.st4{fill-rule:evenodd;clip-rule:evenodd;fill:#536FA7;}
</style>
<g>
	<g>
		<path class="st0" d="M487.3,295.3c-25.6,0.7-50.1-10.3-66.5-30c-17.2-20-25.8-48.5-25.8-85.5s8.6-65.4,25.8-85.2
			c16.4-19.6,40.9-30.6,66.5-29.9c25.6-0.7,50.1,10.3,66.6,29.9c17.2,19.9,25.9,48.4,25.9,85.2s-8.6,65.4-25.9,85.5
			C537.4,284.9,512.9,295.9,487.3,295.3z M487.3,273.5c18.9,0.4,36.6-9.3,46.3-25.6c11.1-17,16.7-39.7,16.7-67.9
			s-5.6-50.8-16.7-67.7c-16.1-25.6-49.9-33.2-75.5-17.1c-6.9,4.4-12.7,10.2-17.1,17.1c-11.2,17.1-16.8,39.7-16.7,67.7
			c0,28,5.6,50.7,16.7,67.9C450.7,264.2,468.4,274,487.3,273.5L487.3,273.5z"/>
		<path class="st0" d="M637.3,349.5h-26.1V132.2h26.1v27.2c4-7.4,9.3-14.1,15.6-19.6c5-3.9,10.7-6.9,16.8-8.8
			c6.2-2,12.7-3.1,19.2-3.1c11.7-0.1,23.2,3.3,33,9.8c10.5,7.1,18.6,17.3,23.3,29.1c5.7,13.8,8.5,28.5,8.3,43.4
			c0,23.7-5.8,43.5-17.3,59.3c-11.5,15.8-27.7,23.7-48.6,23.6c-6.5,0-12.9-0.9-19-2.9c-5.8-1.8-11.2-4.7-15.9-8.5
			c-6.2-5.8-11.4-12.7-15.4-20.2V349.5z M637.3,210.6c0,17.7,3.9,32.3,11.6,43.7c7.1,11.1,19.6,17.6,32.7,17.1
			c12.5,0.2,24.3-5.4,32.1-15.1c8.5-10.1,12.8-25.2,12.8-45.2c0-23.4-4.5-39.7-13.5-48.8c-7.9-8.6-19-13.6-30.7-13.6
			c-8.4,0-16.5,2.6-23.3,7.5c-7.6,5.5-13.3,13.3-16.2,22.3C639,188.6,637.2,199.5,637.3,210.6L637.3,210.6z"/>
		<path class="st0" d="M776.4,247.3h26v0.6c-0.1,6.4,2.7,12.6,7.7,16.7c5.1,4.4,13.7,6.7,25.9,6.7c9.3,0.4,18.4-2.3,25.9-7.8
			c6.1-4.2,9.8-11.1,9.9-18.5c0-9.5-6.5-16.3-19.5-20.4l-13.2-4.1l-8.8-2.8l-17.8-5.6c-20.5-7.6-30.8-20.1-30.8-37.7
			c0.1-12.5,5.5-24.3,14.9-32.5c9.9-9.3,24.7-14,44.3-14c19.6,0,33.3,4,41.2,12c7.6,6.7,12,16.4,12.3,26.5v0.6H868v-0.6
			c0-5.3-3.1-10.1-7.8-12.3c-6.4-3.2-13.5-4.8-20.7-4.5c-10.4,0-18.3,2.2-23.8,6.5c-5.2,3.7-8.3,9.7-8.3,16
			c-0.1,4.6,1.9,8.9,5.4,11.8c5.4,3.9,11.5,6.7,18,8.2l12.5,3.6l9,2.7c8,2.1,15.9,4.7,23.6,7.7c3.3,1.6,6.5,3.5,9.4,5.7
			c4.2,3.2,7.6,7.4,9.7,12.2c2.2,5.3,3.3,11,3.1,16.7c0.2,14.1-5.6,27.7-16,37.3c-10.5,10.1-26,15.1-46.3,15.1
			c-11,0.4-21.9-1.6-32.1-5.7c-8-3.5-15-8.9-20.2-15.9c-5-6.8-7.7-15-7.5-23.5L776.4,247.3z"/>
		<path class="st0" d="M956.1,288.7h-24V71.4H960l67.4,155.3l62.2-155.3h27.4v217.3H1092V159.1l0.3-38.8h-0.6l-14.1,39l-38.4,96.8
			h-28.5l-41.9-97.2l-13-35.4h-0.6l0.6,35.3L956.1,288.7z"/>
		<path class="st0" d="M1172.3,288.7h-27.2l54.3-79.2l-51.1-77.2h30l36.4,54.9l37.6-54.9h27l-51.3,75l54,81.5h-30.1l-39.2-59.1
			L1172.3,288.7z"/>
	</g>
	<g>
		<path class="st1" d="M34.9,144.7v29.8c11.3-13,15.1-59.7,76.7-90.4c40.8-20.2,28.1-6.9,35,3.1c7.7-9.7,22.9-23.4,29.3-34.5
			c-6.8-14.7-22.9-19.9-25.7-30c-0.8,0.6-1.4,1.3-2,2.1c-15.9,18.9-1,7.3-34.8,22.6C47.6,77.3,43.8,130.1,34.9,144.7z"/>
		<path class="st2" d="M321.3,170.2l-3.9-1.9c7.4,37.5-20.6,67.7-37.7,84.1c-10.2,10.1-22.2,18.3-35.3,24.2
			c-7.3,3.4-14.9,6.2-22.6,8.4c-14.2,0.5-2.5,1.7-7.1-3l-5.3-9.3c-9.8,15.7-19.9,21-29.4,35.3c9.3,14.5,21.2,21,33,29.7
			c7.1-19-7.8-9.4,13.9-19.1c9.4-4.2,15.4-5,24.9-10.2C331.6,265,316.4,200.5,321.3,170.2z"/>
		<path class="st3" d="M34.9,215.5l3.8,8.1C67,294,91,314.7,179.1,327.4l-1.3-36c-54.2-3.9-97.6-24.9-123-66.2
			c-7.6-12.4-11.5-30.3-19.8-38.9V215.5L34.9,215.5z"/>
		<path class="st4" d="M317.4,168.2l3.9,1.9c-1-78.9-59.2-137.1-139.7-136.2c-3.6,8.6-2.6,2.1-3.6,16c-0.2,6.3,0.4,12.5,1.9,18.6
			c74,6.2,118.7,38.3,137.4,99.7H317.4z"/>
	</g>
</g>
</svg>
