<svg fill="none" height="46" viewBox="0 0 103 46" width="103" xmlns="http://www.w3.org/2000/svg" xmlns:xlink="http://www.w3.org/1999/xlink"><clipPath id="a"><path d="m0 .891296h103v44.7826h-103z"/></clipPath><g clip-path="url(#a)" fill="#000"><path clip-rule="evenodd" d="m12.9182 29.4192c7.1347 0 12.9183-5.7922 12.9183-12.9372 0-7.14503-5.7836-12.9372-12.9183-12.9372-7.13449 0-12.9182 5.79217-12.9182 12.9372 0 7.145 5.78371 12.9372 12.9182 12.9372zm-.0016-2.1359c5.9568 0 10.7856-4.8359 10.7856-10.8014 0-5.9654-4.8288-10.80136-10.7856-10.80136-5.95668 0-10.78555 4.83596-10.78555 10.80136 0 5.9655 4.82887 10.8014 10.78555 10.8014z" fill-rule="evenodd"/><path clip-rule="evenodd" d="m26.2083 4.73067c1.0587 0 1.9169-.85948 1.9169-1.91969s-.8582-1.919684-1.9169-1.919684c-1.0586 0-1.9168.859474-1.9168 1.919684s.8582 1.91969 1.9168 1.91969zm-.0014-.88935c.5681 0 1.0288-.46132 1.0288-1.03038 0-.56908-.4607-1.03039-1.0288-1.03039-.5683 0-1.0289.46131-1.0289 1.03039 0 .56906.4606 1.03038 1.0289 1.03038z" fill-rule="evenodd"/><path d="m13.6639 27.8746h-1.4906v6.9662h1.4906z"/><path d="m25.9031 4.28601-1.054-1.05554-4.2416 4.24787 1.054 1.05554z"/><path clip-rule="evenodd" d="m12.9149 45.6741c3.2929 0 5.9623-2.6733 5.9623-5.971s-2.6694-5.971-5.9623-5.971c-3.29286 0-5.96226 2.6733-5.96226 5.971s2.6694 5.971 5.96226 5.971zm-.0001-1.8509c2.2723 0 4.1144-1.8448 4.1144-4.1205s-1.8421-4.1204-4.1144-4.1204-4.11441 1.8447-4.11441 4.1204 1.84211 4.1205 4.11441 4.1205z" fill-rule="evenodd"/><path d="m50.4606 26.4734v1.4947h5.1776v.3934c-.0799 1.1408-.3798 2.0258-.8796 2.6945-.5197.6687-1.1195 1.1408-1.7992 1.3964-.6997.2754-1.3993.3934-2.099.3934-1.0596 0-1.9991-.236-2.8388-.708-.8396-.4721-1.4793-1.1408-1.9591-2.0061-.4798-.8458-.6997-1.8095-.6997-2.8716 0-1.062.2399-2.0259.7197-2.9109.4797-.8654 1.1195-1.5537 1.9591-2.0651.8396-.5113 1.7592-.767 2.7588-.767 1.1595 0 2.179.2753 3.0586.826.8797.5507 1.5194 1.3177 1.9192 2.3011l1.6192-.5703c-.5197-1.2981-1.3594-2.3011-2.5188-3.0486-1.1595-.7277-2.5189-1.1014-4.0782-1.1014-1.3195 0-2.5188.3343-3.5984.9834-1.0996.6688-1.9592 1.5538-2.5989 2.6749-.6397 1.121-.9395 2.3405-.9395 3.6779 0 1.3767.2998 2.5962.8995 3.6976.5998 1.1014 1.4395 1.9471 2.539 2.5766 1.0795.6293 2.3389.944 3.7583.944.9196 0 1.8191-.177 2.6588-.531.8396-.354 1.5592-.9048 2.119-1.6129v1.8882h1.6194v-7.7492z"/><path d="m73.6133 20.2582-1.6193-.0196-5.0777 12.0762-5.0978-12.0762h-1.5993v13.9644h1.5993v-9.9915l4.2982 9.9915h1.5993l4.278-9.9915v9.9915h1.6193z"/><path d="m85.6036 30.1513.02-.6293c0-.1967-.04-.5114-.08-.9442-.0399-.4327-.1598-.8457-.3198-1.2587-.3398-.8654-.8996-1.5734-1.6793-2.0848-.7996-.5113-1.6792-.7868-2.6588-.7868-.8596 0-1.6592.2362-2.3989.6885-.7397.4524-1.3194 1.0621-1.7592 1.8291-.4399.767-.6397 1.5931-.6397 2.4979 0 .9047.1998 1.7504.6397 2.4978.4398.767 1.0195 1.3768 1.7592 1.8291.7397.4524 1.5393.6687 2.3989.6687.9596 0 1.8192-.236 2.5789-.708.7596-.472 1.3194-1.1212 1.6592-1.9275l-1.3994-.531c-.2399.5113-.5997.9243-1.0995 1.2193-.4998.3147-1.0795.4524-1.7392.4524-.7996 0-1.4993-.2557-2.0991-.7867-.5996-.531-.9795-1.1997-1.1195-2.0258zm-1.4993-1.2588h-6.4572c.12-.8457.4799-1.5537 1.0995-2.1241.5998-.5507 1.3194-.8457 2.1391-.8457.5997 0 1.1395.1573 1.6193.4327.4798.2753.8596.6687 1.0995 1.1407.1199.1967.2399.4327.3199.6884.0799.2753.1399.5113.1799.708z"/><path d="m89.6662 26.139h2.039v-1.3768h-2.039v-2.9895h-1.5993v2.9895h-1.7393v1.3768h1.7393v5.7824c0 1.5341.6397 2.2815 1.9392 2.2815h1.6991v-1.4554l-1.1794-.0197c-.2998 0-.5197-.059-.6597-.2164-.1399-.1573-.1999-.4326-.1999-.826z"/><path d="m98.9038 24.7622c-1.5193-.0393-2.6188.3737-3.2585 1.2588v-1.2588h-1.5594l.0201 9.4408h1.5592v-5.2515c.02-.826.2799-1.4947.7997-2.0061.4998-.5113 1.1395-.767 1.9391-.767.12 0 .2799.0197.4998.0393z"/><path d="m100.82 22.2841c.24.2557.56.3737.92.3737.32 0 .62-.118.879-.3737.24-.236.38-.531.38-.885 0-.3345-.14-.6295-.38-.8852-.259-.2557-.559-.3933-.879-.3933-.36 0-.68.1376-.92.3933-.26.2557-.38.5507-.38.8852 0 .354.12.649.38.885zm1.659 2.4781h-1.599v9.4408h1.599z"/></g></svg>