<svg fill="none" height="27" viewBox="0 0 100 27" width="100" xmlns="http://www.w3.org/2000/svg" xmlns:xlink="http://www.w3.org/1999/xlink"><clipPath id="a"><path d="m0 .553848h100v26.1538h-100z"/></clipPath><g clip-path="url(#a)"><g fill="#000"><path d="m32.7011 13.4996h4.8194c-.108.4701-.2877.904-.5036 1.3018-.2518.5063-.6114.9402-1.0429 1.3018-.4316.3616-.9711.6871-1.5825.904-.6114.217-1.3307.3255-2.1219.3255-.7553 0-1.4746-.1446-2.1219-.4339-.6474-.2893-1.2229-.7233-1.6904-1.2656-.4675-.5425-.8632-1.2296-1.1508-2.0613-.2878-.8317-.4317-1.7719-.4317-2.8206 0-1.04861.1439-1.98884.4317-2.78437.2876-.79556.6833-1.48262 1.1868-2.02504.5035-.54243 1.0789-.97636 1.7263-1.22949.6473-.28929 1.3666-.43394 2.0859-.43394 1.115 0 2.086.25313 2.8053.79556.6473.43393 1.1149.97635 1.4386 1.5911.036.07231.1079.21696.1438.32544.036.07233.1079.14465.2159.14465h3.9201c.1439 0 .2518-.14465.2158-.28929-.036-.10849-.0719-.21696-.0719-.25313-.2518-.83171-.6114-1.5911-1.079-2.27816-.5035-.75939-1.1149-1.44646-1.8702-1.98887-.7192-.54243-1.5824-.97637-2.5534-1.30181-.9351-.325456-1.9781-.470102-3.165-.470102-1.3666 0-2.6614.253129-3.8482.795542-1.1868.54243-2.1938 1.26565-3.057 2.16969-.8632.90403-1.5465 1.98887-2.014 3.21836s-.7193 2.60364-.7193 4.01386c0 1.4465.2518 2.7845.7193 4.0501.5035 1.2295 1.1508 2.3505 1.978 3.2545.8272.9041 1.8342 1.6273 3.0211 2.1697 1.1508.5424 2.4096.7956 3.7403.7956 1.3667 0 2.5895-.2894 3.6324-.8317.7554-.434 1.3667-1.121 1.8343-1.6997v1.989c0 .1084.1079.2169.2157.2169h3.3807c.108 0 .2158-.1085.2158-.2169v-10.4506c0-.10858-.1078-.21704-.2158-.21704h-8.4877c-.1078 0-.2157.10846-.2157.21704v3.2183c0 .1447.1079.2531.2157.2531z"/><path d="m43.2379 20.8042h3.5605c.1079 0 .2158-.1085.2158-.217v-19.816384c0-.108484-.1079-.216968-.2158-.216968h-3.5605c-.1079 0-.2158.108484-.2158.216968v19.816384c-.036.1085.0719.217.2158.217z"/><path d="m62.1558 17.4049v-6.6898c0-.72325-.1079-1.41033-.2877-2.06118-.2158-.65093-.5754-1.22951-1.079-1.69961-.5034-.4701-1.1508-.83171-1.978-1.121-.7913-.25313-1.7983-.39778-3.021-.39778-1.007 0-1.9062.10849-2.6974.36162-.7913.25313-1.4746.57857-2.0859 1.01251-.5755.43394-1.043.97636-1.4027 1.55496-.2877.50623-.5035 1.04869-.6473 1.59107 0 .07231-.036.21701-.072.36161s.072.2532.2158.2532h3.6684c.1079 0 .1798-.0723.2158-.1447.036-.1085.072-.2893.1439-.3978.1797-.32546.4315-.61469.7912-.79554.4675-.25315 1.1149-.39777 1.8702-.39777.7912 0 1.4026.10846 1.7982.32546.3596.217.5395.50624.5395.94015 0 .5063-.2877.8679-.8991 1.0849-.6834.2531-1.7623.5063-3.2369.687-.6834.1086-1.3667.217-2.05.3978-.6834.1808-1.3307.4339-1.8701.7594-.5755.3254-1.0071.7956-1.3667 1.338-.3597.5424-.5395 1.2656-.5395 2.0974 0 .7955.1439 1.5187.4676 2.0973s.7193 1.0487 1.2587 1.4103c.5035.3616 1.079.6148 1.7263.7955.6474.1809 1.2947.2532 1.9781.2532 1.2588 0 2.3017-.2532 3.1289-.6871.6114-.3616 1.115-.7955 1.5465-1.3018.036.2893.3237 1.6996.3237 1.6996h3.4886c.0719 0 .0719-2.6036.0719-3.3269zm-3.9561-2.4951c0 .8317-.3237 1.4826-.971 1.9527-.6834.5063-1.5825.7594-2.6615.7594-.7912 0-1.4026-.1085-1.7263-.3616-.3237-.217-.4675-.5425-.4675-.9402 0-.5063.1798-.8317.5394-1.0125.4317-.217 1.0071-.3978 1.7983-.5424.7912-.1447 1.5105-.3255 2.122-.4701.5034-.1447.971-.3255 1.4026-.5425v1.1572z"/><path d="m78.304.553848h-3.5242c-.1079 0-.2158.108484-.2158.216968v6.581364c-.3237-.39778-.7913-.79555-1.2947-1.15716-.7913-.54243-1.7623-.79556-2.9492-.79556-.8991 0-1.7982.21697-2.6254.61475s-1.5465.94019-2.1938 1.62726c-.6115.68707-1.1149 1.51876-1.4746 2.49513-.3596.9763-.5395 2.025-.5395 3.1099 0 1.121.1799 2.1697.5395 3.1099.3597.9401.8272 1.7718 1.4386 2.4589s1.3307 1.2295 2.1579 1.6273 1.7263.5786 2.6614.5786c1.1149 0 2.1219-.2532 2.9491-.7956.5754-.3616 1.043-.7955 1.4026-1.2656v1.4826c0 .1085.1079.2169.2158.2169h3.4169c.1077 0 .2154-.1084.2154-.2169v-19.671784c.0361-.108484-.0716-.216968-.18-.216968zm-4.0637 14.500652c-.1798.5063-.4316.9403-.7553 1.3019-.3236.3616-.6833.6147-1.1149.7955-.8631.3616-1.8341.3616-2.6973 0-.4316-.1808-.7912-.4339-1.1149-.7955s-.5755-.7956-.7553-1.3019c-.1798-.5062-.2877-1.121-.2877-1.7719 0-.6508.1079-1.2656.2877-1.8081.1798-.5423.4316-.9763.7553-1.3379s.6833-.65091 1.1149-.83167c.4316-.18085.8632-.28931 1.3307-.28931s.9351.10846 1.3307.28931c.4315.18076.7912.47007 1.1149.83167.3236.3616.5754.7956.7553 1.3379.1798.5425.2876 1.1573.2876 1.8081.036.6871-.0359 1.2657-.2517 1.7719z"/><path d="m80.2821 20.7318h3.5246c.1077 0 .2154-.1084.2154-.2169v-19.744084c0-.108484-.1077-.216968-.2154-.216968h-3.5246c-.1077 0-.2162.108484-.2162.216968v19.707984c0 .1446.1085.253.2162.253z"/><path d="m96.2148 5.79733c-.1077 0-.18.07232-.2154.14465l-2.8053 8.31712c-.1077.2893-.18.5786-.2516.8679-.0723.2531-.1438.5062-.18.7232-.0361-.217-.1077-.4701-.18-.7594s-.18-.5786-.2877-.8679l-2.9492-8.31708c-.0362-.07233-.1077-.14465-.2154-.14465h-3.7769c-.1439 0-.2515.14465-.2154.28929l5.5385 14.64534-.18.4701c-.4677 1.2656-1.51 1.9166-3.1647 1.9166h-.5753c-.1077 0-.2162.1084-.2162.217v3.0375c0 .1085.1085.2169.2162.2169h.6469c1.6908 0 3.0569-.3254 4.1-.9763s1.8346-1.6635 2.3377-2.9652l6.15-16.56194c.036-.14464-.0354-.28929-.2154-.28929h-3.5608z"/></g><path d="m9.66654 1.22054c-5.31839 0-9.66654 4.31226-9.66654 9.66666s4.34815 9.6666 9.66654 9.6666c5.35436 0 9.66656-4.3481 9.66656-9.6666.036-5.3544-4.3122-9.66666-9.66656-9.66666z" fill="#009b00"/><path d="m15.5838 10.2486h-5.2424v-5.24237h-1.32855v5.24237h-5.24234v1.2926h5.24234v5.2783h1.32855v-5.2783h5.2424z" fill="#fff"/></g></svg>