<svg fill="none" height="24" viewBox="0 0 145 24" width="145" xmlns="http://www.w3.org/2000/svg" xmlns:xlink="http://www.w3.org/1999/xlink"><clipPath id="a"><path d="m0 .873047h145v22.9544h-145z"/></clipPath><g clip-path="url(#a)" fill="#000e9c"><path clip-rule="evenodd" d="m35.5836 2.18181c1.8764 3.382 2.7053 7.24541 2.3813 11.09949-.324 3.8541-1.7862 7.5249-4.2009 10.5462h-10.4312l3.2111-5.6778h-4.2474l5.0064-8.82079h4.2717l4.009-7.13737zm-20.5996 21.64569h-10.6355c-2.45973-3.0082-3.952149-6.6899-4.2812373-10.5617-.3290887-3.87176.5205403-7.75255 2.4372973-11.13264l6.89897 11.98314 7.60447-13.243253h11.1901l-13.2092 22.944653z" fill-rule="evenodd"/><path d="m44.3765 13.1725c0-6.12537 3.0505-9.06886 8.0617-9.06886 5.0113 0 8.0569 2.94349 8.0569 9.06886 0 6.1254-3.0699 9.0349-8.0569 9.0349-4.9869 0-8.0617-2.9679-8.0617-9.0349zm1.8099 0c0 5.0356 2.2964 7.4342 6.2518 7.4342 3.9555 0 6.2471-2.3986 6.2471-7.4342 0-5.03554-2.2965-7.46818-6.2471-7.46818s-6.2518 2.40345-6.2518 7.46818z"/><path d="m73.6651 4.82853c.0641-.16746.1774-.31154.3251-.41318s.3227-.15606.502-.15606c.1156-.00065.2302.02172.3371.0658.1068.04409.2038.109.2854.19097.0815.08197.1459.17934.1893.28645.0435.10711.0653.2218.064.3374-.0043.13157-.0306.26149-.0779.38435l-6.0426 15.93384c-.0561.1747-.1661.3271-.3143.4352s-.327.1664-.5104.1664c-.1835 0-.3622-.0583-.5104-.1664s-.2583-.2605-.3143-.4352l-6.0427-15.93384c-.0472-.12286-.0735-.25278-.0778-.38435-.0013-.1156.0204-.23029.0639-.3374s.1079-.20448.1894-.28645.1785-.14688.2854-.19097c.1069-.04408.2214-.06645.337-.0658.1793 0 .3544.05442.5021.15606s.261.24572.325.41318l5.24 13.89527z"/><path d="m79.0366 13.7369v7.439c.009.1208-.007.2422-.0471.3565-.04.1144-.1032.2192-.1856.308-.0825.0888-.1823.1596-.2934.2081-.111.0484-.2309.0734-.352.0734-.1212 0-.2411-.025-.3521-.0734-.1111-.0485-.2109-.1193-.2934-.2081-.0824-.0888-.1456-.1936-.1857-.308-.04-.1143-.056-.2357-.047-.3565v-16.05544c-.009-.12082.007-.24219.047-.35654.0401-.11434.1033-.21919.1857-.30798.0825-.0888.1823-.15963.2934-.20806.111-.04844.2309-.07344.3521-.07344.1211 0 .241.025.352.07344.1111.04843.2109.11926.2934.20806.0824.08879.1456.19364.1856.30798.0401.11435.0561.23572.0471.35654v7.01574h8.9911v-6.99627c-.009-.12082.007-.2422.0471-.35655.04-.11434.1032-.21919.1857-.30798.0824-.0888.1822-.15963.2933-.20806.1111-.04844.2309-.07344.3521-.07344.1211 0 .241.025.352.07344.1111.04843.2109.11926.2934.20806.0824.08879.1456.19364.1857.30798.04.11435.056.23573.047.35655v16.05547c.009.1208-.007.2422-.047.3565-.0401.1143-.1033.2192-.1857.308-.0825.0888-.1823.1596-.2934.208-.111.0485-.2309.0735-.352.0735-.1212 0-.241-.025-.3521-.0735-.1111-.0484-.2109-.1192-.2933-.208-.0825-.0888-.1457-.1937-.1857-.308-.0401-.1143-.0561-.2357-.0471-.3565v-7.4585z"/><path d="m98.0741 9.76193c.7553-.03245 1.5079.1116 2.1979.42067.69.3091 1.298.7748 1.777 1.36.115.136.179.3083.18.4865.002.099-.016.1973-.053.2891s-.092.1752-.162.2452-.153.1251-.245.162c-.092.037-.19.055-.289.053-.121.0008-.239-.027-.347-.0812-.107-.0541-.2-.133-.271-.2302-.336-.4065-.764-.7268-1.2494-.9341-.485-.2074-1.0125-.2958-1.5385-.2579-2.3791 0-3.6441 1.5229-3.6441 4.6999s1.265 4.7242 3.6441 4.7242c1.0961-.0103 2.1539-.4026 2.9919-1.1093.136-.1153.308-.179.487-.18.198 0 .389.0789.53.2194.14.1405.219.3311.219.5298-.001.1261-.032.25-.09.3617-.059.1117-.143.2079-.246.2806-1.085.9223-2.468 1.4186-3.8919 1.3963-3.3327 0-5.3226-1.9899-5.3226-6.2227s1.9899-6.21297 5.3226-6.21297z"/><path d="m106.311 4.28354v14.77586c0 1.0314.336 1.4596 1.032 1.4596.107-.0085.215.0053.316.0404.102.0352.195.0909.274.1638s.141.1613.185.2597c.043.0984.065.2047.065.3121s-.022.2137-.065.3121c-.044.0984-.106.1868-.185.2597s-.172.1286-.274.1638c-.101.0351-.209.0489-.316.0404-1.727 0-2.686-1.0363-2.686-3.0213v-14.76616c.006-.21695.096-.42325.25-.57626.154-.15302.36-.24107.577-.24598.219 0 .428.08647.583.24053s.243.36319.244.58171z"/><path d="m120.387 15.9603c0 4.2328-2.068 6.2227-5.425 6.2227s-5.42-1.9899-5.42-6.2227 2.092-6.19834 5.42-6.19834 5.425 1.96074 5.425 6.19834zm-1.679 0c0-3.2548-1.367-4.6998-3.746-4.6998s-3.741 1.4596-3.741 4.6998c0 3.2403 1.367 4.7242 3.741 4.7242s3.766-1.4206 3.766-4.7242z"/><path d="m124.366 10.7447v6.7384c0 1.6786.54 3.1235 3.148 3.1235s3.153-1.4595 3.153-3.1235v-6.7384c.001-.1103.024-.2193.068-.3206.043-.1014.106-.1932.185-.27.08-.0769.173-.1374.276-.17794.102-.04058.212-.06048.322-.05855.107.00127.213.02371.312.06602.098.04227.187.10367.262.18057.074.0768.133.1677.172.2673.04.0997.059.2061.057.3132v6.7384c0 2.4327-.803 4.6999-4.807 4.6999s-4.802-2.2478-4.802-4.6999v-6.7384c-.002-.1091.018-.2176.059-.3188.041-.1013.102-.1932.179-.2704s.169-.1381.27-.17896c.102-.04086.21-.06091.319-.05893.219.00128.429.08879.584.24369.154.1548.242.3644.243.5834z"/><path d="m143.346 11.4405v-7.15686c0-.21936.087-.42974.242-.58485s.365-.24225.585-.24225c.219 0 .429.08714.585.24225.155.15511.242.36549.242.58485v12.82976c0 3.4057-2.117 5.0891-5.06 5.0891-3.333 0-5.298-1.9899-5.298-6.2227s1.863-6.19839 5.191-6.19839c.674-.01238 1.341.13089 1.95.41869.61.2877 1.144.7122 1.563 1.2404zm0 2.092s-.973-2.272-3.406-2.272-3.644 1.5228-3.644 4.6998 1.265 4.7242 3.644 4.7242c1.985 0 3.406-1.1336 3.406-3.5906z"/></g></svg>