<svg fill="none" height="29" viewBox="0 0 75 29" width="75" xmlns="http://www.w3.org/2000/svg" xmlns:xlink="http://www.w3.org/1999/xlink"><clipPath id="a"><path d="m0 .295471h75v28.4091h-75z"/></clipPath><g clip-path="url(#a)" clip-rule="evenodd" fill="#00dc00" fill-rule="evenodd"><path d="m60.1924 9.37188c0-3.57018 2.6731-5.29568 5.5557-5.29568 2.882 0 5.4811 1.75508 5.4811 5.29568zm5.0458-9.076409c-5.8741 0-9.7192 4.078689-9.7192 10.805829 0 8.3503 5.8811 10.7459 10.0812 10.7459 5.3206 0 8.3536-3.6192 8.3536-3.6192l-2.7063-2.746c-1.4358 1.3052-3.101 2.0861-5.5806 2.0861-3.2741 0-5.4811-1.9383-5.4811-4.5898h14.5897s2.5475-12.682829-9.5373-12.682829z"/><path d="m12.2193 9.01204c-1.8181-.23617-7.08559-.0234-7.08559-2.51706 0-1.47836 2.20762-2.27383 4.24317-2.27383 3.25282 0 5.39672 1.35123 6.02002 1.80017l2.7327-2.83931c-.8089-.67848-3.8212-2.886539-8.75272-2.886539-4.493 0-8.535212 2.440689-8.535212 6.355339 0 6.00619 6.975522 6.00439 9.888432 6.30019 1.7641.1787 3.3752.305 3.3752 2.1021 0 1.6708-2.4639 2.6005-4.3711 2.6005-3.10835 0-4.97098-1.0612-6.79325-2.7634l-2.94095 3.0591c2.6975 2.706 6.11473 3.8979 9.4814 3.8979 5.2136 0 9.0251-2.3904 9.0251-7.2002 0-3.1885-2.0628-5.0867-6.2872-5.63496z"/><path d="m31.8861 13.896c0 3.9912-2.7468 3.7763-5.1999 3.7763-2.483 0-4.0687-.6847-4.0687-2.4742 0-1.6676 1.2916-2.2203 3.96-2.2203h5.3086zm-4.59-13.600529c-4.549 0-7.4979 2.398219-8.0465 2.882009l2.7575 2.85552c.549-.45112 2.4203-1.78773 5.3236-1.78773 3.4842 0 4.5243 1.43857 4.5243 3.06564v2.0261l-6.2106.00397c-2.2963 0-6.8133.599-6.8133 5.83242 0 3.8443 2.1291 6.6738 7.2118 6.6738 2.5516 0 4.4809-.8564 5.8121-2.5077v2.0866h4.5085v-13.80576c0-4.82822-2.8589-7.324869-9.0674-7.324869z"/><path d="m50.5056 10.7315c0 1.56-.0263 2.7151-.1549 3.3031-.2844 1.2993-1.7941 3.0073-4.5345 3.0073-.686 0-4.2012-.3851-4.5949-3.3638-.0797-.5966-.14-1.3866-.14-2.9466 0-2.31958.0975-3.05697.2191-3.64628.242-1.16836 1.8038-2.88666 4.5158-2.88666 3.3209 0 4.3875 2.21346 4.5437 3.06897.1085.59188.1457 1.90404.1457 3.46397zm0-10.006347v2.245987c-1.5759-1.79105-3.457-2.675669-6.0255-2.675669-4.3862 0-6.645 2.406479-7.4097 4.968729-.2839.95224-.3819 2.77068-.3819 5.4583 0 2.5323.0236 4.8352.9239 6.6062 1.2587 2.4779 4.315 3.862 6.8677 3.862 2.4735 0 4.5726-.9381 6.0255-2.5661v1.2573c0 1.4774-.5176 2.4476-1.4835 3.2145-.9682.7691-2.1827 1.2403-3.8683 1.2403-1.529 0-2.9946-.8157-3.8297-1.3836l-3.1097 3.0415c2.016 1.5994 4.4265 2.6885 7.0278 2.7095 2.7566.0223 4.9751-.7947 6.9188-2.2896 1.8606-1.4316 3.034-4.1227 3.034-6.9776v-18.711747z"/></g></svg>