<svg fill="none" height="22" viewBox="0 0 118 22" width="118" xmlns="http://www.w3.org/2000/svg"><path clip-rule="evenodd" d="m67.7335 6.70775c1.8498 0 3.2684.93533 3.8584 1.79169v-6.83272c.0001-.06577.0194-.13008.0557-.18497.0362-.0549.0877-.09797.1482-.12391.0401-.017.0831-.02585.1267-.02603h3.0107c.0657-.00015.13.01945.1845.05628.0544.03682.0966.08916.1209.15022.0164.04081.0247.08443.0243.12841v18.38548c-.0004.0876-.0352.1716-.0969.2338-.0616.0623-.1452.098-.2328.0993h-2.911c-.0568.0002-.1131-.011-.1656-.0328s-.1001-.0538-.1402-.0942c-.04-.0403-.0716-.0882-.093-.1409s-.0321-.109-.0315-.1659v-1.0655c-.5883.8573-2.0086 1.7943-3.8584 1.7943-3.5635 0-6.2966-3.1929-6.2966-6.9906 0-3.79942 2.7331-6.98195 6.2966-6.98195zm-2.5995 6.98195c0 2.0867 1.3665 3.6381 3.3769 3.6381 2.012 0 3.376-1.5514 3.376-3.6381 0-2.0876-1.3657-3.6389-3.376-3.6389-2.0104 0-3.3769 1.5513-3.3769 3.6389zm-8.8778 1.2841v-4.4284c0-.0885.0347-.1736.0972-.236.0305-.031.0669-.0555.1069-.0724.0401-.0168.0831-.0255.1265-.0257h2.5786c.0436 0 .0866-.0086.1268-.0253.0402-.0168.0767-.0413.1073-.0722.0307-.0309.0549-.0675.0713-.1078.0164-.04033.0247-.08348.0243-.127v-2.54481c-.0004-.08763-.0352-.17159-.0968-.23388-.0616-.06228-.1452-.09793-.2329-.09929h-2.5786c-.0436 0-.0868-.00864-.127-.02543-.0402-.01678-.0767-.04138-.1074-.07237-.0306-.03098-.0549-.06774-.0712-.10814-.0164-.0404-.0246-.08365-.0241-.12724v-3.05412c-.0009-.0877-.0361-.17157-.098-.23368-.062-.0621-.1458-.0975-.2335-.09863h-3.0107c-.0657-.00015-.13.01946-.1845.05628-.0544.03682-.0966.08916-.1209.15022-.0163.04054-.0246.08386-.0243.12755 0 3.18773-.0824 3.37341-2.2776 3.38382-.0563.00019-.112.01147-.164.0332-.0519.02174-.0991.0535-.1388.09348-.0804.08103-.1259.19037-.1267.30454v2.34872c.0002.08526.0254.16858.0727.23958.0472.071.1143.1265.1928.1595.052.0215.1078.0324.164.0321h1.947c.0437 0 .0869.0087.1272.0255.0403.0169.0768.0416.1075.0726.0307.0311.0549.068.0712.1085s.0244.0838.0238.1275v5.1503c0 3.2719 2.2785 4.8432 5.1191 4.8432.7003.0155 1.3996-.0594 2.0807-.2229.0718-.018.1355-.0596.1809-.1181.0453-.0586.0696-.1307.069-.2047v-2.5396c-.0007-.076-.0271-.1495-.0751-.2085-.0479-.059-.1145-.0999-.1887-.116-.0494-.0104-.1004-.0092-.1492.0035-.3566.0809-.7216.1193-1.0872.1145-1.5809 0-2.2776-.6412-2.2776-2.2732zm-35.6776-1.2841c0-3.95993 2.976-6.98195 7.0496-6.98195 3.5122 0 6.5915 2.24721 6.5976 6.58895 0 .2568 0 .5501-.0278.944-.0058.0842-.043.1631-.1042.2213-.0612.0581-.1419.0912-.2263.0928h-9.7177c.2143 1.7925 1.7934 2.7816 3.5643 2.7816 1.5036 0 2.635-.6368 3.2736-1.4325.053-.0637.1282-.1048.2104-.115.0823-.0102.1653.0114.2321.0604l2.203 1.6355c.0534.0391.0939.0933.1163.1556.0225.0623.0257.1299.0095.1941-.0106.0426-.0294.0827-.0555.118-1.2607 1.6415-3.3509 2.7278-6.0215 2.7278-3.9938 0-7.1026-2.7643-7.1026-6.9906zm6.9446-3.9556c-1.3709 0-2.8971.6915-3.245 2.3279h6.2731c-.321-1.5843-1.6572-2.3279-3.0281-2.3279zm17.1734-2.73222h3.54c.0603-.00047.1196.01573.1714.04681.0517.03107.0939.07583.1218.12933.0282.0534.0415.11343.0384.17374-.003.06032-.0223.11869-.0557.16898l-4.0814 6.11086c-.0389.0559-.0597.1223-.0597.1904s.0208.1345.0597.1905l4.1673 5.8375c.0352.0498.0562.1083.0606.1692.0045.0609-.0078.1218-.0355.1762s-.0697.1002-.1216.1325c-.0518.0322-.1115.0497-.1725.0505h-3.54c-.0527-.0002-.1046-.013-.1512-.0375-.0467-.0245-.0868-.0598-.1169-.1031l-2.6993-3.8193-2.6983 3.8193c-.0304.0431-.0705.0783-.1171.1027-.0466.0245-.0984.0374-.151.0379h-3.5678c-.0613.0002-.1214-.0167-.1736-.0489-.0521-.0322-.0942-.0784-.1214-.1333-.0276-.0546-.0398-.1157-.0352-.1767s.0258-.1196.0612-.1695l4.1734-5.8375c.0384-.0563.059-.1228.059-.1909s-.0206-.1347-.059-.1909l-4.0831-6.10996c-.025-.03751-.0421-.07967-.0504-.12395-.0082-.04428-.0075-.08978.0022-.13376.0097-.04399.0282-.08556.0544-.12223s.0594-.06769.0979-.09119c.0512-.03116.11-.04767.17-.04773h3.5105c.0546-.00018.1084.0133.1564.03922.0481.02591.0889.06344.1187.10915l2.6263 3.94515 2.6281-3.94515c.03-.04537.0707-.08265.1186-.10853.0478-.02588.1012-.03956.1556-.03984zm70.7604-.16051c-1.501 0-2.867.98912-3.323 2.301v-1.80731c0-.0436-.009-.08681-.025-.12717-.017-.04035-.041-.07706-.072-.10801-.03-.03095-.067-.05554-.107-.07235-.04-.01682-.083-.02553-.127-.02565h-3.009c-.044-.00023-.087.00824-.128.02493-.04.01668-.077.04124-.108.07225-.03.03101-.055.06784-.071.10836-.017.04052-.025.08391-.024.12764v12.70844c0 .0881.034.1725.097.235.062.0624.146.0977.234.0982h3.009c.044-.0002.087-.0089.127-.0257s.077-.0414.107-.0723c.031-.031.055-.0677.072-.108.016-.0404.025-.0836.025-.1272v-6.0614c0-2.1934 1.154-3.5573 2.895-3.5573.422 0 .841.0563 1.247.1674.073.0203.152.014.221-.0177.07-.0317.126-.0869.159-.1558.022-.0455.034-.0952.034-.1458v-3.01332c.001-.07701-.026-.15168-.075-.21132-.048-.05963-.116-.10055-.192-.11579-.318-.0657-.642-.09625-.966-.0911zm-38.3703 6.84833c0-3.90614 3.1608-6.98195 7.047-6.98195 3.8853 0 7.0479 3.068 7.0479 6.98195 0 3.9131-3.1608 6.9906-7.0479 6.9906-3.887 0-7.0479-3.0853-7.0479-6.9906zm3.697 0c0 2.0598 1.4212 3.5574 3.35 3.5574 1.9297 0 3.3222-1.4976 3.3222-3.5574 0-2.0607-1.3925-3.5582-3.3222-3.5582-1.9296 0-3.3491 1.4975-3.3491 3.5573zm18.8098-6.98195c-3.8854 0-7.0479 3.07581-7.0479 6.98195 0 3.9053 3.1625 6.9906 7.0479 6.9906 3.8855 0 7.0475-3.0775 7.0475-6.9906 0-3.91308-3.162-6.98195-7.0475-6.98195zm0 10.53935c-1.9297 0-3.35-1.4976-3.35-3.5574 0-2.0607 1.4203-3.5582 3.35-3.5582 1.9295 0 3.3235 1.4975 3.3235 3.5573 0 2.0607-1.394 3.5583-3.3235 3.5583zm-93.3528-7.8106c1.18-1.74917 3.28491-2.891 5.7525-2.891 3.8177 0 6.7642 2.73309 6.7642 6.2098v7.2882c-.0002.0877-.0349.1718-.0966.2341s-.1454.0979-.2331.0991h-3.0368c-.0436 0-.0867-.0087-.127-.0255-.0402-.0167-.0767-.0413-.1074-.0723-.0306-.031-.0548-.0678-.0712-.1082s-.0246-.0836-.0241-.1272v-6.7807c0-1.5071-1.1505-3.2163-3.068-3.2163-2.00947 0-3.068 1.7092-3.068 3.2163v6.779c-.00068.088-.03588.1722-.09803.2345s-.14627.0977-.23428.0986h-3.03503c-.06546.0005-.12957-.0187-.18401-.055-.05445-.0364-.09674-.0882-.1214-.1489-.01666-.0404-.02521-.0838-.02516-.1275v-6.562c-.00119-.0958-.03373-.1886-.09265-.2641s-.14097-.1297-.23359-.1541c-2.66975-.7315-3.65279-2.7739-3.72133-5.69787-.00088-.06654.01804-.13183.05434-.1876s.08836-.09949.14955-.12562c.04062-.01723.0843-.02608.12842-.02603h2.3947v.01735h.72449c.08584.00062.16814.03434.22973.09415s.09771.14109.10084.22688c.03471 1.19562.27244 1.83768.83641 2.17953.07344.04278.16061.05538.24316.03515.08254-.02023.15401-.07172.19934-.14361z" fill="#8ed500" fill-rule="evenodd"/></svg>