<svg fill="none" height="35" viewBox="0 0 136 35" width="136" xmlns="http://www.w3.org/2000/svg"><path d="m0 27.1106v-14.9394h9.8783v2.7439h-6.58553v3.6282h4.69524v2.5915h-4.69524v5.9453h-3.29277zm11.4027-14.848h3.2623v2.622h-3.2623zm.0305 4.0855h3.2318v10.7625h-3.2318zm5.244 5.3965c0-4.177 3.2014-5.6099 5.427-5.6099 2.2257 0 4.9392 1.0976 4.9392 6.0062v.4878h-7.1344c.1525 1.7684 1.1586 2.4696 2.5001 2.4696 1.2805 0 2.4696-.6403 3.2013-1.2805l1.25 1.9513c-1.25 1.0671-2.8049 1.6159-4.6952 1.6159-2.805-.061-5.488-1.494-5.488-5.6404zm7.4393-1.0671c-.1525-1.5245-.8537-2.2562-2.0733-2.2562-1.0061 0-1.8903.6708-2.1342 2.2562zm4.9086-8.5063h3.2318v14.9394h-3.2318zm5.2441 9.6648c0-3.7196 1.7073-5.7013 4.1769-5.7013 1.4634 0 2.5001.5183 3.2623 1.5854v-5.5489h3.2623v12.3173c0 1.2806.0914 2.0733.3353 2.6221h-3.3232c-.1525-.2744-.2439-1.0671-.2439-1.6159-.7013.9756-1.7074 1.7683-3.3233 1.7683-2.4696 0-4.1464-1.7378-4.1464-5.427zm7.4392 1.9513v-3.994c-.7013-.6707-1.2805-.9756-2.1342-.9756-1.3415 0-2.0732 1.0366-2.0732 2.9878 0 1.7989.6402 3.0184 2.1037 3.0184.8232 0 1.5854-.4878 2.1037-1.0366zm4.6952 4.9392c0-1.0367.8537-1.7684 1.8598-2.1647-.4573-.3049-.7317-.7318-.7317-1.2806 0-.8841.7012-1.6463 1.5549-2.1951-1.1586-.7013-1.7683-1.7989-1.7683-3.0794 0-2.1647 1.7378-3.872 4.8477-3.872 1.5854 0 2.8049.4573 3.6281 1.1585.7317-.6402 1.8903-1.0671 2.7745-1.0976v2.4696c-.3964 0-1.0367.0305-1.8294.2439.122.2744.2135.6403.2135 1.0671 0 2.1952-1.6769 3.8416-4.7563 3.8416-.6097 0-1.1585-.0915-1.6463-.1829-.2135.1829-.3659.3353-.3659.5488 0 .3963.4268.4878 1.2195.5183l1.6159.0914c3.6892.1525 5.1831 1.0366 5.1831 3.0489 0 2.2257-2.5915 3.2927-6.1892 3.2927-4.2379.0305-5.6099-.8841-5.6099-2.4085zm8.9027-.3049c0-.6708-.3354-.9757-2.8659-1.0976l-1.7074-.0915-.7012-.061c-.3964.2744-.6098.6098-.6098.9757 0 .9451.8537 1.372 3.0793 1.372 1.6464 0 2.805-.3964 2.805-1.0976zm-1.2805-8.3234c0-1.0976-.6098-1.9208-1.8294-1.9208-1.189 0-1.8293.8232-1.8293 1.9208s.6708 1.9208 1.8293 1.9208c1.1891 0 1.8294-.8232 1.8294-1.9208zm6.0672-7.9575h3.2318v14.9699h-3.2318zm5.1221 12.2259c0-2.5001 2.1037-3.8721 6.8294-4.2379v-.2744c0-.7927-.3963-1.2805-1.4634-1.2805-1.372 0-2.5611.5792-3.5367 1.3415l-1.372-1.8598c1.0671-.9757 2.683-1.9208 5.366-1.9208 2.9574 0 4.1464 1.4634 4.1464 4.2074v4.1464c0 1.2806.0915 2.0733.3049 2.6221h-3.2318c-.1524-.4574-.2439-.9757-.2439-1.5854-.9756 1.0975-2.1647 1.7378-3.7501 1.7378-1.6159 0-3.0488-1.0671-3.0488-2.8964zm6.8294-.4573v-2.0123c-2.561.2744-3.6586.9147-3.6586 1.8903 0 .7012.4878 1.0366 1.189 1.0366 1.1586 0 1.9513-.3658 2.4696-.9146zm4.7562 1.7683 1.2805-1.8293c.9757.8537 2.4391 1.4025 3.7501 1.4025 1.0062 0 1.7074-.3354 1.7074-1.0367 0-.7622-.5793-1.0366-2.0427-1.2805-2.0428-.3658-4.2075-.8537-4.2075-3.3842 0-2.1647 1.7684-3.4147 4.177-3.4147 2.1952 0 3.5366.5793 4.7257 1.5244l-1.2805 1.8293c-1.0976-.7622-2.1647-1.1586-3.1708-1.1586-.9147 0-1.4635.3659-1.4635.9452 0 .6403.5793.9146 1.9208 1.1586 2.1342.3658 4.3599.8536 4.3599 3.2927 0 2.5916-2.2562 3.6282-4.7562 3.6282-2.3172-.0305-3.9026-.7318-5.0002-1.6769zm10.7015 0 1.2805-1.8293c.9757.8537 2.4391 1.4025 3.7501 1.4025 1.0062 0 1.7074-.3354 1.7074-1.0367 0-.7622-.5793-1.0366-2.0427-1.2805-2.0428-.3658-4.2075-.8537-4.2075-3.3842 0-2.1647 1.7684-3.4147 4.177-3.4147 2.1951 0 3.5366.5793 4.7257 1.5244l-1.2805 1.8293c-1.0976-.7622-2.1647-1.1586-3.1708-1.1586-.9452 0-1.4635.3659-1.4635.9452 0 .6403.5793.9146 1.9208 1.1586 2.1342.3658 4.3599.8536 4.3599 3.2927 0 2.5916-2.2562 3.6282-4.7563 3.6282-2.3476-.0305-3.933-.7318-5.0001-1.6769z" fill="#0074c9"/><path clip-rule="evenodd" d="m112.594 28.1472c.366 1.1281 1.067 3.6281.701 4.8172-.366 1.1585-1.494.4573-1.921 0-.152-.1525-.244-.1829-.335-.3049-.274-.2439-.976-1.0976-1.189-1.372l-1.037-1.5549c-.091-.1525-.152-.2439-.244-.3964l-1.555-2.8964c-.396-.9146-.792-1.7683-1.128-2.7135-.183-.4878-.487-1.4329-.64-1.9207-.213-.8232-1.311-5.2746.823-4.3294.305.1219.519.3354.732.5488.213.1829.793.7622.945.9756.214.2744.671.8537.823 1.0976.122.2134.915 1.2805.976 1.5244l-.671-.8232c-1.067-1.2805-2.164-1.5549-1.86.4879.153.9451.305 1.5244.58 2.4086l.427 1.0975c.122.3659.304.6708.457 1.0062.64 1.4329 1.677 3.2622 2.835 4.2989 1.189 1.0366 1.433.0609 1.281-1.1281l-.244-1.2196c.122.0305.213.3049.244.3964zm15.427-19.2383c-.061-.18293-.366-.60977-.488-.82319-1.341-2.16469-2.774-4.14644-4.604-5.97576-.091-.12195-.182-.18293-.335-.30488-.457-.45733-1.372-1.128079-1.982-1.371987-.183-.091466-.396-.121955-.609-.152443h-.427c-.397.060977-.702.243903-.915.5183-.396.60977-.488 1.21954-.549 2.10371-.061.42684.061 2.04274.122 2.46958.153 1.09758.61 3.17081.945 4.32938.305.94519.641 2.07319.976 2.98789.457 1.311.976 2.5 1.494 3.8111.122.3353.274.6097.396.9146.427 1.0976 1.616 3.4452 2.134 4.4818.427.8232 1.433 2.5916 1.921 3.3538l1.006 1.6159c.61 1.0061 1.769 2.5 2.531 3.4147.518.6403 1.006 1.1586 1.585 1.7378.732.7318 3.11 2.7745 4.208 1.2196.457-.6708.427-1.3415.549-2.1037.061-.4574-.031-.8537-.031-1.2805 0-.3354-.061-.8232-.122-1.1586-.091-.6098-.396-2.2257-.518-2.7745l-.427-1.5549c-.061-.3049-.793-2.7745-1.006-2.9879l.305 1.2805c.244 1.0367.914 4.7867-.671 4.7867-.61.0305-1.189-.4268-1.616-.7317-.427-.3353-1.006-.9451-1.341-1.372-.275-.3353-.641-.7317-.885-1.0976l-.64-.9146c-.335-.4573-.64-.9147-.914-1.4025-.183-.3353-.366-.6707-.58-.9756-.457-.7012-1.158-2.2562-1.585-3.0794l-.732-1.6159c-.183-.3353-1.006-2.4695-1.128-2.8049l-.396-1.1891c-.366-1.0975-.732-2.62197-.884-3.78054-.122-.88417-.183-2.04273.152-2.74397.061-.15244.213-.36586.335-.42684 1.159-.73172 3.293 1.79883 3.994 2.74398.153.12195.61.76221.732.85367zm-6.189 16.1894.366 1.8293c.091.6403.122 1.555-.092 2.0123-.579 1.2195-2.317-.6708-2.622-1.0671-.335-.4268-.579-.7012-.975-1.25-.153-.2135-.305-.4574-.458-.6708-.305-.4573-.549-.9146-.823-1.4025-.152-.2744-.274-.4268-.396-.7317l-.945-1.8598c-.305-.6403-.58-1.311-.824-1.9818-.487-1.25-.762-2.1341-1.067-3.4452-.183-.7317-.427-2.2256-.03-2.9269.335-.6707 1.097-.2744 1.494.0305 1.158.8842 1.982 2.2562 2.134 2.3781-.031-.1829-.244-.4268-.305-.5792l-.762-1.1586c-.244-.3659-.915-1.311-1.22-1.6464-.487-.6098-.609-.7012-1.006-1.1586-.64-.7927-2.469-2.40855-3.384-1.4634-.64.6707-.518 2.3781-.427 3.2318.396 2.622 1.311 5.6404 2.409 8.1099.579 1.3415.884 1.9818 1.524 3.2623.701 1.372 1.22 2.2562 2.073 3.6891.244.3964.488.7927.732 1.1281l.793 1.1281c.274.3659.975 1.25 1.311 1.5854.64.6707 1.86 1.9208 2.927 1.8598 1.494-.0915 1.097-3.2928.884-4.3904-.214-1.0061-.671-2.9878-1.006-3.811l-.153-.5183c-.091-.122-.091-.0915-.152-.183zm5.122-12.043c0 1.8294 2.591 6.799 3.293 6.799.549 0-.061-1.9208-.153-2.1647l-.579-1.4939c-.091-.183-.152-.2744-.244-.4574-.457-.9146-.945-1.7683-1.616-2.5305-.091-.1829-.701-.7317-.701-.1525zm-9.878 6.0063c0 1.0061 1.616 4.3904 2.164 4.3904.61 0-.518-2.5306-.701-2.927-.213-.3658-.823-1.4024-1.158-1.5854-.122-.0304-.305 0-.305.122zm-7.836 4.8477c0 .4268.366 1.2195.518 1.5244.031.122.061.2134.153.3354.091.1524.396.6707.549.7012.518.1525-.366-1.9513-.915-2.5305-.061-.061-.305-.2134-.305-.0305zm12.592 1.189v-.1524h-.061c0 .2439 0 .061.061.1524zm-4.299-9.0856v.061l.061-.061zm10.519-7.1038h-.061zm0 .12195v-.12195z" fill="#ff9e00" fill-rule="evenodd"/></svg>