<svg width="68" height="51" viewBox="0 0 68 51" fill="none" xmlns="http://www.w3.org/2000/svg">
<g clip-path="url(#clip0)">
<path d="M66.9558 48.5289C66.9558 49.252 66.4249 49.7372 65.7964 49.7372V49.7328C65.15 49.7372 64.6289 49.252 64.6289 48.5291C64.6289 47.8064 65.15 47.3225 65.7964 47.3225C66.4251 47.3223 66.9558 47.8063 66.9558 48.5289ZM67.4261 48.5289C67.4261 47.5367 66.6553 46.9607 65.7964 46.9607C64.9314 46.9607 64.1606 47.5367 64.1606 48.5289C64.1606 49.5206 64.9316 50.0989 65.7964 50.0989C66.6555 50.0989 67.4261 49.5206 67.4261 48.5289ZM65.526 48.6616H65.7005L66.1049 49.3716H66.5489L66.101 48.6317C66.3325 48.6152 66.5229 48.505 66.5229 48.1934C66.5229 47.8063 66.256 47.6818 65.8038 47.6818H65.1498V49.3716H65.5258V48.6616H65.526ZM65.526 48.3755V47.9687H65.7875C65.9298 47.9687 66.1237 47.9802 66.1237 48.1537C66.1237 48.3425 66.0234 48.3755 65.8556 48.3755H65.526" fill="black"/>
<path d="M56.4507 39.8849L58.4827 45.4439H54.3558L56.4507 39.8849ZM54.2745 37.7204L49.5917 49.5851H52.8984L53.6391 47.4886H59.1809L59.8818 49.5851H63.4716L58.7539 37.7188L54.2745 37.7204ZM44.873 49.5895H48.2278V37.7167L44.8724 37.716L44.873 49.5895ZM21.5832 37.716L18.7843 47.126L16.103 37.7167L12.4832 37.716L16.3126 49.5895H21.1457L25.0059 37.716H21.5832V37.716ZM35.1439 40.3013H36.5857C38.6776 40.3013 40.0305 41.2405 40.0305 43.6776C40.0305 46.1154 38.6776 47.0547 36.5857 47.0547H35.1439V40.3013ZM31.8172 37.716V49.5895H37.2561C40.1538 49.5895 41.1 49.1078 42.1231 48.0272C42.8458 47.2685 43.3132 45.6035 43.3132 43.7833C43.3132 42.1138 42.9177 40.6258 42.228 39.6985C40.9854 38.0402 39.1953 37.716 36.5238 37.716H31.8172V37.716ZM0.0380859 37.6995V49.5895H3.42129V40.5613L6.04273 40.5621C6.91072 40.5621 7.52946 40.7784 7.94745 41.2249C8.4776 41.7896 8.69407 42.7011 8.69407 44.3685V49.5895H11.9724V43.0202C11.9724 38.3316 8.98398 37.6995 6.05999 37.6995H0.0380859V37.6995ZM26.4179 37.716L26.4192 49.5895H29.7725V37.716H26.4179V37.716Z" fill="black"/>
<path d="M9.05411 14.0746C9.05411 14.0746 13.369 7.70829 21.9843 7.04967V4.74C12.4417 5.50638 4.17822 13.5885 4.17822 13.5885C4.17822 13.5885 8.85853 27.1185 21.9843 28.3573V25.9023C12.352 24.6905 9.05411 14.0746 9.05411 14.0746ZM21.9843 21.0199V23.2682C14.7044 21.9703 12.6837 14.4028 12.6837 14.4028C12.6837 14.4028 16.1791 10.5307 21.9843 9.90273V12.3698C21.9799 12.3698 21.9768 12.3685 21.9732 12.3685C18.9263 12.0028 16.5461 14.8492 16.5461 14.8492C16.5461 14.8492 17.8802 19.6409 21.9843 21.0199ZM21.9843 0.47998V4.74C22.2644 4.71853 22.5446 4.70031 22.8262 4.69073C33.6751 4.32508 40.7439 13.5885 40.7439 13.5885C40.7439 13.5885 32.6252 23.4607 24.1669 23.4607C23.3917 23.4607 22.6659 23.3888 21.9843 23.268V25.9023C22.5672 25.9763 23.1715 26.0198 23.8022 26.0198C31.6732 26.0198 37.3653 22 42.877 17.2424C43.7908 17.9743 47.532 19.7548 48.301 20.5342C43.0605 24.9217 30.847 28.4585 23.9228 28.4585C23.2553 28.4585 22.6144 28.418 21.9843 28.3573V32.059H51.9015V0.47998H21.9843ZM21.9843 9.90273V7.04986C22.2616 7.0305 22.5409 7.01554 22.8262 7.00653C30.6276 6.76149 35.7459 13.7106 35.7459 13.7106C35.7459 13.7106 30.2177 21.3884 24.2903 21.3884C23.4373 21.3884 22.6725 21.2513 21.9841 21.0199V12.3698C25.0212 12.7368 25.6325 14.0784 27.4584 17.1222L31.5194 13.698C31.5194 13.698 28.555 9.81012 23.5577 9.81012C23.0145 9.80993 22.4947 9.84808 21.9843 9.90273Z" fill="#77B900"/>
</g>
<defs>
<clipPath id="clip0">
<rect width="67.3879" height="49.6188" fill="white" transform="translate(0.0380859 0.47998)"/>
</clipPath>
</defs>
</svg>
