<svg fill="none" height="62" viewBox="0 0 61 62" width="61" xmlns="http://www.w3.org/2000/svg" xmlns:xlink="http://www.w3.org/1999/xlink"><clipPath id="a"><path d="m0 .5h61v61h-61z"/></clipPath><g clip-path="url(#a)"><path clip-rule="evenodd" d="m21.106 51.6683c-.1678.2547-.5238.3759-.841.3759-.6314 0-.976-.4376-1.0279-1.0652h3.6066v.6893h-1.7385zm-.8609-2.636c.5651 0 .931.4065.931.9341h-1.9291c.0976-.6107.443-.9341.9989-.9341zm2.5986.559c-.3507-1.1705-1.2139-1.8163-2.687-1.8163-1.1377 0-2.0039.5772-2.4431 1.4282l.4026-1.2963h-2.0206l-.7206 3.2742h-.0396l-.6939-3.2734h-1.8201l-.6549 3.2734h-.029l-.7724-3.2734h-2.01837l1.60277 5.262h1.9901l.7717-3.2551h.0282l.7526 3.2558h1.9901l.9447-3.0423c-.0206.1411-.0316.2835-.0328.4262 0 1.753 1.2101 2.7473 2.8518 2.7473 1.1293 0 2.1495-.4682 2.5978-1.4732v1.342h1.9292v-7.2407h-1.9292zm26.3719-.559c.5642 0 .9279.4065.9279.9341h-1.9283c.0999-.6107.4468-.9341 1.0004-.9341zm.0198 3.0119c-.6352 0-.9791-.4376-1.0286-1.0652h3.7896c-.0091-2.0381-.8898-3.204-2.8693-3.204-1.3771 0-2.3561.8464-2.6596 2v-.2241c0-.8533-.4445-1.7759-1.7537-1.7759-.7595 0-1.2277.273-1.4945.536-.0275.0321-.058.0626-.0778.0915-.0991.1037-.1487.1739-.1883.2143-.2463-.5475-.8419-.8418-1.3855-.8418-.7114 0-1.2864.2234-1.6912.8418h-.0305v-.7091h-1.8712v5.262h1.9314v-2.8495c0-.5574.1677-.9729.6824-.9729.6238 0 .6619.4758.6619.9729v2.8495h1.9413v-2.8495c0-.5574.1678-.9729.6809-.9729.6138 0 .6634.4758.6634.9729v2.8495h1.9314v-1.801c.3187 1.2421 1.3809 1.9329 2.7488 1.9329 1.1888 0 2.257-.5162 2.6627-1.6333h-1.8033c-.1663.2547-.5231.3759-.8396.3759zm-14.0613-.1731c-.7625 0-.8715-.7701-.8715-1.3381 0-.5666.1098-1.3283.8715-1.3283.7602 0 .8693.7617.8693 1.3283 0 .568-.1091 1.3381-.8693 1.3381zm-4.3523-.7823c-.0503.427-.3157.7823-.8212.7823-.6238 0-.8518-.4857-.8518-1.329 0-.639.1579-1.3374.8906-1.3374.4576 0 .732.305.732.8326h1.6364c-.0505.3489-.0474.7035.0091 1.0515zm4.3523-3.3138c-1.4411 0-2.2928.7259-2.6306 1.7004-.2837-1.1834-1.3649-1.7004-2.5041-1.7004-1.4335 0-2.5215.8509-2.7686 2.1807v-4.026h-1.9306v7.24h1.9306v-1.9848c.2432 1.3954 1.2985 2.1167 2.7092 2.1167 1.207 0 2.2013-.5993 2.5696-1.692.3431.9699 1.1918 1.692 2.6245 1.692 1.9291 0 2.7999-1.3077 2.7999-2.7679 0-1.4594-.8708-2.7587-2.7999-2.7587zm7.1828-36.6587-4.0649 15.4429c-1.0583-4.0331-2.1281-8.0632-3.2094-12.0902-.6214-2.2631-2.1274-3.3504-4.35-3.3504-2.4057 0-4.1458-.0023-4.1458-.0023h-.019l-4.068 15.4559-4.0679-15.4559-9.1233 1.0599s5.0112 19.0792 5.9269 22.541c.5856 2.2158 1.7606 3.7134 4.0001 4.3211 2.3157.629 7.0844 2.0496 7.0844 2.0496l4.0748-15.4994c1.2352 4.697 2.1807 8.1496 2.5513 9.5061.5536 2.0275 1.8849 3.3184 4.2014 3.9993 3.1338.9211 6.7275 1.994 6.7275 1.994l7.6189-28.9674-9.1378-1.0042zm-42.3569 50.3837h60.8048v-60.80481h-60.8048z" fill="#000" fill-rule="evenodd"/></g></svg>