<svg fill="none" height="36" viewBox="0 0 130 36" width="130" xmlns="http://www.w3.org/2000/svg" xmlns:xlink="http://www.w3.org/1999/xlink"><linearGradient id="a" gradientUnits="userSpaceOnUse" x1="0" x2="34.0202" y1="17.9342" y2="17.9342"><stop offset="0" stop-color="#3bb6b5"/><stop offset=".99" stop-color="#40d5a0"/><stop offset="1" stop-color="#40d5a0"/></linearGradient><clipPath id="b"><path d="m0 .9375h130v34.125h-130z"/></clipPath><g clip-path="url(#b)"><g fill="#002129"><path d="m42.8105 10.6469h3.0225l2.7544 5.265 2.7056-5.2893h2.9982l-4.2982 8.3443v6.3619h-2.795v-6.3619z"/><path d="m56.3633 10.6469h2.795v14.7062h-2.795z"/><path d="m62.3105 10.6469h8.0438v2.7543h-5.2244v2.6163h5.2244v2.7544h-5.2244v3.8512h5.2244v2.7544h-8.0438z"/><path d="m72.9541 10.6469h2.795v12.0412h4.0788v2.665h-6.8738z"/><path clip-rule="evenodd" d="m81.9893 10.6469h3.5425c2.5837 0 4.4118.3087 5.9962 1.8687 1.3244 1.3 2.1369 3.3475 2.1369 5.6794 0 2.5106-.9425 4.6069-2.5106 5.8337-1.6738 1.3244-3.4125 1.3244-5.5738 1.3244h-3.5912zm2.795 2.7543v9.2219h1.4787c1.5438 0 2.6244-.195 3.4775-1.1212.6825-.7313 1.0806-1.9175 1.0806-3.3719 0-3.0794-1.6981-4.7288-4.8912-4.7288z" fill-rule="evenodd"/><path d="m96.3135 10.6469h2.795v12.0412h4.0785v2.665h-6.8735z"/><path clip-rule="evenodd" d="m109.817 10.6469h2.82l5.687 14.7062h-2.908l-1.146-3.0387h-5.996l-1.211 3.0387h-2.909zm1.43 3.9-1.933 5.0375h3.9z" fill-rule="evenodd"/><path clip-rule="evenodd" d="m120.477 25.3531v-14.7062h2.689c1.544 0 2.779.1543 3.705.7231 1.105.6662 1.764 1.8119 1.764 3.0631 0 1.17-.529 2.0475-1.544 2.8194 1.722.8125 2.575 1.9987 2.575 3.7862 0 1.2107-.414 2.2019-1.275 3.0388-.991.9668-2.048 1.2756-3.551 1.2756zm2.828-8.9619h.617c1.316 0 1.983-.5687 1.983-1.6087 0-.9425-.642-1.495-1.902-1.495l-.698.0244zm0 2.5107v3.7862h.942c1.763 0 2.714-.4794 2.714-1.7387 0-1.3-.991-2.0475-2.958-2.0475z" fill-rule="evenodd"/></g><path clip-rule="evenodd" d="m34.0194 6.24313v23.38377c0 2.9006-2.3806 5.3056-5.3056 5.3056h-23.40005c-2.93312-.0487-5.31375-2.4213-5.31375-5.33v-23.38375c0-2.90062 2.38063-5.28125 5.31375-5.28125h23.40005c2.9087 0 5.3056 2.38063 5.3056 5.30563zm-17.5581 20.60497-3.4369-4.5337c-.3331-.4388-.975-.4388-1.3 0l-3.77003 5.0862c-.4225.5931.00001 1.43.72313 1.43h6.5487c.2844 0 .5526-.13.7069-.3493l.5282-.7069c.2193-.26.195-.6582 0-.9263zm5.0456-7.1987-6.24-8.9131c-.26-.3738-.6825-.5932-1.1457-.5932h-7.35308c-.38187 0-.60124.4388-.38187.7475l10.79815 14.6413c.2437.325.7312.325.975 0l3.3231-4.4282c.3088-.4387.3331-1.0156.0244-1.4543zm5.4844-9.49h-9.2788c-.5444 0-.8531.6419-.5281 1.0806l5.265 6.8737c.3087.4144.9262.4144 1.235 0l4.3631-5.9231c.6419-.8368.0244-2.0475-1.0562-2.0312z" fill="url(#a)" fill-rule="evenodd"/></g></svg>