<svg fill="none" height="64" viewBox="0 0 50 64" width="50" xmlns="http://www.w3.org/2000/svg" xmlns:xlink="http://www.w3.org/1999/xlink"><clipPath id="a"><path d="m0 0h49.2843v63.7453h-49.2843z"/></clipPath><g clip-path="url(#a)" fill="#e82127"><path d="m42.105 59.8623v3.8752h1.2427v-2.5801h4.5231v2.5801h1.2419v-3.8685z"/><path d="m43.2089 58.6088h4.7787c.6637-.132 1.1573-.7177 1.2965-1.2843h-7.3715c.1378.5668.6386 1.1523 1.2963 1.2843z"/><path d="m38.3413 63.74c.6266-.2656.9637-.7251 1.0928-1.2627h-5.5739l.0035-5.1497-1.2494.0036v6.4088z"/><path d="m23.323 58.5916h4.4132c.6653-.1933 1.224-.7001 1.3602-1.262h-7.0105v3.7873h5.7378v1.3291l-4.5007.0035c-.7053.1967-1.3035.6703-1.6018 1.2958l.3647-.0067h6.9707v-3.8809h-5.7336z"/><path d="m12.4274 58.6037h4.777c.6647-.1325 1.1586-.7177 1.2971-1.2849h-7.3711c.1376.5672.6388 1.1524 1.297 1.2849"/><path d="m12.4269 61.1366h4.7771c.6646-.131 1.1585-.7168 1.297-1.2843h-7.3711c.1376.5677.6388 1.1533 1.297 1.2843"/><path d="m12.4269 63.7396h4.7771c.6646-.1321 1.1585-.7177 1.297-1.2845h-7.3711c.1376.567.6388 1.1524 1.297 1.2845"/><path d="m0 57.3356c.143606.5601.628541 1.1326 1.29387 1.276h2.01084l.10257.0405v5.0742h1.25567v-5.0742l.11407-.0405h2.01261c.67275-.1733 1.14725-.7159 1.28838-1.276v-.0124h-8.07801z"/><path d="m24.6448 44.6563 6.2741-35.28591c5.9804 0 7.8667.65581 8.1391 3.33251 0 0 4.0117-1.4959 6.0351-4.53388-7.8958-3.65877-15.8293-3.82378-15.8293-3.82378l-4.6294 5.63848.0104-.0007-4.6293-5.63866s-7.9337.16518-15.82849 3.82395c2.02163 3.03799 6.03499 4.53389 6.03499 4.53389.2739-2.6769 2.158-3.33269 8.0982-3.33694z"/><path d="m24.642 2.71649c6.3827-.04881 13.6884.98738 21.1672 4.24698.9996-1.79914 1.2566-2.59428 1.2566-2.59428-8.1755-3.23449-15.8317-4.3414238-22.4247-4.36919-6.5926.0277662-14.2484 1.13488-22.42284 4.36919 0 0 .36468.97943 1.25567 2.59428 7.47737-3.2596 14.78437-4.29579 21.16717-4.24698z"/></g></svg>