<svg fill="none" height="28" viewBox="0 0 141 28" width="141" xmlns="http://www.w3.org/2000/svg" xmlns:xlink="http://www.w3.org/1999/xlink"><clipPath id="a"><path d="m0 .333801h141v26.7324h-141z"/></clipPath><g clip-path="url(#a)"><path d="m24.4126.333801h-14.3919c-5.539 0-10.0207 4.481699-10.0207 10.020699v14.3762c0 1.2782 1.04152 2.3355 2.33553 2.3355h14.39197c5.539 0 10.0207-4.4817 10.0207-10.0207v-14.37616c-.0158-1.29402-1.0573-2.335539-2.3356-2.335539zm-2.5722 10.541499h-5.6495v5.6494h5.6495c0 3.1246-2.5249 5.6495-5.6495 5.6495v-5.6495h-5.6494v5.6495h-3.97675c-.91528 0-1.65697-.7417-1.65697-1.657v-9.6262c0-3.10874 2.5249-5.64942 5.63372-5.64942v5.64942h5.6494v-5.64942h4.0399c.8837 0 1.6096.71013 1.6096 1.59384z" fill="#ffe000"/><g fill="#10121f"><path d="m48.2256 20.5015h-3.74l-4.9867-6.5648v6.5648h-3.0614v-13.42937h3.0614v6.21757l4.6396-6.21757h3.5664l-4.8131 6.43847z"/><path d="m53.1966 20.8013c-1.0416.0158-2.0831-.2367-3.0142-.7101-.8679-.4419-1.6096-1.1363-2.1146-1.9726-1.5465-2.5092-.7574-5.8073 1.7517-7.3538.1105-.0789.2367-.142.3629-.2052 1.8937-.94679 4.1346-.94679 6.0283 0 .8679.4419 1.6096 1.1205 2.1146 1.9568 1.0257 1.7201 1.0257 3.8663 0 5.5864-.5208.8364-1.2467 1.5149-2.1146 1.9726-.9311.4892-1.9726.7417-3.0141.7259zm-2.0989-3.4244c1.1994 1.0573 2.9826 1.0573 4.1819 0 .5523-.5366.8521-1.2783.8206-2.0515.0315-.7733-.2683-1.5149-.8206-2.0515-1.1993-1.0573-2.9825-1.0573-4.1819 0-.5523.5366-.8521 1.2782-.8206 2.0515-.0157.7732.2841 1.5149.8206 2.0515z"/><path d="m72.9856 9.89687c1.1362 0 2.0515.37873 2.7616 1.13623.7102.7574 1.0731 1.7516 1.0731 2.9667v6.5017h-2.951v-6.0282c0-.6944-.142-1.2152-.4103-1.5781-.2998-.363-.7417-.5681-1.2151-.5366-.5839-.0315-1.152.221-1.5465.6628-.3787.4419-.5523 1.0731-.5523 1.8779v5.6022h-2.8721v-6.0282c0-.6944-.142-1.2152-.4103-1.5781-.284-.363-.7417-.5681-1.1993-.5366-.6628 0-1.1993.221-1.5623.6628-.3787.4419-.5681 1.0731-.5681 1.8779v5.6022h-2.951v-10.3521h2.0515l.5523 1.2782c.3946-.4734.8838-.8522 1.4519-1.1204.5681-.2683 1.1835-.41033 1.8147-.41033.647-.01578 1.294.14203 1.8621.44183.5366.2841.9942.6944 1.2941 1.2151.3787-.5207.8837-.931 1.4676-1.2151.5838-.284 1.2466-.44183 1.9094-.44183z"/><path d="m84.8526 9.84952c1.0258-.01578 2.0199.22088 2.9194.71008.8522.4577 1.5623 1.1363 2.0515 1.9568.9784 1.7359.9784 3.8663 0 5.6022-.4892.8363-1.1993 1.5149-2.0515 1.9726-.8995.4734-1.9094.7259-2.9194.7101-1.0573.0158-2.1146-.2841-2.9983-.868v4.2924h-2.951v-14.0764h1.941l.505.9469c.9784-.8206 2.2251-1.26246 3.5033-1.24668zm-2.3671 7.51158c1.2151 1.0731 3.0457 1.0731 4.245 0 1.1204-1.1204 1.1204-2.9352 0-4.0556-1.2151-1.0731-3.0456-1.0731-4.245 0-1.1204 1.1204-1.1204 2.9352-.0158 4.0556 0-.0158 0-.0158.0158 0z"/><path d="m92.0327 8.76067v-2.60381h2.9352v2.60381zm0 11.74083v-10.3521h2.951v10.3678h-2.951z"/><path d="m106.962 7.07213v2.69849h-3.93v10.74658h-3.0611v-10.74658h-3.9294v-2.69849z"/><path d="m117.282 15.2938c0 .2683-.016.5524-.064.8206h-8.253c.079.6313.411 1.2151.9 1.6254.505.3946 1.136.5839 1.783.5681.473 0 .947-.0946 1.373-.3156.394-.2051.726-.505.947-.8837h3.093c-.363 1.1047-1.089 2.0515-2.052 2.6985-1.878 1.2151-4.261 1.3256-6.233.2841-.852-.4577-1.547-1.1363-2.036-1.9726-.978-1.7359-.978-3.8505 0-5.5706.474-.8364 1.184-1.5149 2.02-1.9726 1.831-.96259 4.024-.94681 5.839.0316.836.4576 1.531 1.1362 2.004 1.9726.442.8206.694 1.7516.679 2.7142zm-5.65-3.0456c-.6-.0158-1.183.1578-1.657.5207-.473.363-.805.868-.931 1.4361h5.287c-.332-1.1994-1.452-2.0199-2.699-1.9568z"/><path d="m123.831 20.8013c-.789 0-1.563-.142-2.289-.4261-.678-.2683-1.309-.6628-1.846-1.152-.521-.4892-.931-1.0888-1.215-1.7516-.3-.6786-.442-1.4203-.442-2.162s.142-1.4834.442-2.1619c.284-.6628.694-1.2467 1.215-1.7359.537-.4892 1.168-.8837 1.846-1.1362.742-.28406 1.515-.42608 2.304-.4103 1.405 0 2.62.3945 3.63 1.1678.994.7574 1.688 1.8621 1.925 3.093h-2.935c-.221-.4892-.584-.9153-1.057-1.1994-.474-.284-1.026-.4418-1.578-.426-.742-.0158-1.468.2682-2.005.8048-.536.5365-.82 1.2624-.804 2.0041-.016.7575.268 1.4834.804 2.0357.521.5523 1.247.8522 2.005.8364.552.0158 1.104-.142 1.578-.4419.473-.3156.836-.7574 1.057-1.2782h2.967c-.237 1.2625-.916 2.3829-1.926 3.1561-1.041.7733-2.256 1.1836-3.676 1.1836z"/><path d="m136.991 9.89687c1.231 0 2.21.39453 2.92 1.16773.71.7733 1.073 1.8306 1.073 3.1562v6.2964h-2.951v-5.8388c0-.789-.158-1.3729-.458-1.7516-.299-.3788-.789-.5682-1.451-.5682-.679-.0315-1.326.2368-1.784.726-.442.4892-.662 1.1519-.662 1.9883v5.4443h-2.951v-14.10785h2.951v4.70265c.915-.8048 2.004-1.21513 3.313-1.21513z"/></g></g></svg>