<svg width="983" height="293" viewBox="0 0 983 293" fill="none" xmlns="http://www.w3.org/2000/svg">
<path d="M290.417 144.297C290.417 151.776 289.016 158.181 286.215 163.513C283.436 168.822 279.64 172.889 274.828 175.713C270.038 178.537 264.605 179.949 258.527 179.949C252.45 179.949 247.005 178.537 242.193 175.713C237.403 172.866 233.607 168.788 230.806 163.479C228.027 158.147 226.638 151.753 226.638 144.297C226.638 136.819 228.027 130.425 230.806 125.116C233.607 119.784 237.403 115.706 242.193 112.882C247.005 110.058 252.45 108.646 258.527 108.646C264.605 108.646 270.038 110.058 274.828 112.882C279.64 115.706 283.436 119.784 286.215 125.116C289.016 130.425 290.417 136.819 290.417 144.297ZM277.776 144.297C277.776 139.033 276.952 134.594 275.303 130.979C273.676 127.342 271.417 124.596 268.525 122.744C265.633 120.869 262.3 119.931 258.527 119.931C254.754 119.931 251.422 120.869 248.53 122.744C245.638 124.596 243.368 127.342 241.718 130.979C240.092 134.594 239.278 139.033 239.278 144.297C239.278 149.562 240.092 154.012 241.718 157.65C243.368 161.265 245.638 164.01 248.53 165.885C251.422 167.737 254.754 168.664 258.527 168.664C262.3 168.664 265.633 167.737 268.525 165.885C271.417 164.01 273.676 161.265 275.303 157.65C276.952 154.012 277.776 149.562 277.776 144.297ZM320.772 180.017C315.575 180.017 311.113 178.876 307.385 176.594C303.68 174.312 300.822 171.16 298.811 167.139C296.823 163.095 295.829 158.441 295.829 153.176C295.829 147.89 296.846 143.224 298.879 139.18C300.913 135.113 303.782 131.95 307.487 129.691C311.215 127.409 315.62 126.268 320.704 126.268C324.929 126.268 328.668 127.048 331.921 128.607C335.197 130.143 337.807 132.323 339.75 135.147C341.693 137.949 342.8 141.225 343.071 144.975H331.345C330.871 142.467 329.741 140.378 327.956 138.706C326.194 137.011 323.833 136.164 320.873 136.164C318.365 136.164 316.163 136.842 314.265 138.197C312.367 139.53 310.887 141.451 309.825 143.959C308.786 146.466 308.266 149.471 308.266 152.973C308.266 156.52 308.786 159.57 309.825 162.123C310.865 164.654 312.322 166.608 314.197 167.986C316.095 169.342 318.32 170.019 320.873 170.019C322.681 170.019 324.296 169.68 325.719 169.003C327.165 168.302 328.374 167.297 329.346 165.987C330.317 164.676 330.984 163.083 331.345 161.208H343.071C342.777 164.891 341.693 168.155 339.817 171.002C337.942 173.826 335.389 176.04 332.158 177.644C328.928 179.226 325.132 180.017 320.772 180.017ZM375.442 126.946V136.435H345.517V126.946H375.442ZM352.905 114.475H365.173V163.343C365.173 164.992 365.422 166.258 365.919 167.139C366.438 167.997 367.116 168.585 367.952 168.901C368.788 169.217 369.714 169.375 370.731 169.375C371.499 169.375 372.2 169.319 372.832 169.206C373.487 169.093 373.984 168.991 374.323 168.901L376.391 178.492C375.735 178.718 374.798 178.966 373.578 179.237C372.38 179.508 370.912 179.666 369.172 179.712C366.1 179.802 363.332 179.339 360.869 178.322C358.407 177.283 356.452 175.679 355.006 173.51C353.583 171.341 352.883 168.63 352.905 165.377V114.475ZM404.153 180.017C399.069 180.017 394.664 178.898 390.936 176.662C387.208 174.425 384.316 171.296 382.26 167.274C380.227 163.253 379.21 158.553 379.21 153.176C379.21 147.799 380.227 143.089 382.26 139.045C384.316 135 387.208 131.86 390.936 129.623C394.664 127.387 399.069 126.268 404.153 126.268C409.236 126.268 413.641 127.387 417.369 129.623C421.097 131.86 423.978 135 426.011 139.045C428.067 143.089 429.095 147.799 429.095 153.176C429.095 158.553 428.067 163.253 426.011 167.274C423.978 171.296 421.097 174.425 417.369 176.662C413.641 178.898 409.236 180.017 404.153 180.017ZM404.22 170.189C406.977 170.189 409.281 169.432 411.134 167.918C412.986 166.382 414.364 164.326 415.268 161.75C416.194 159.175 416.658 156.306 416.658 153.143C416.658 149.957 416.194 147.076 415.268 144.501C414.364 141.903 412.986 139.835 411.134 138.299C409.281 136.763 406.977 135.995 404.22 135.995C401.396 135.995 399.047 136.763 397.171 138.299C395.319 139.835 393.929 141.903 393.003 144.501C392.099 147.076 391.647 149.957 391.647 153.143C391.647 156.306 392.099 159.175 393.003 161.75C393.929 164.326 395.319 166.382 397.171 167.918C399.047 169.432 401.396 170.189 404.22 170.189ZM435.812 198.52V126.946H447.876V135.554H448.588C449.221 134.289 450.113 132.945 451.265 131.521C452.417 130.075 453.976 128.844 455.942 127.827C457.908 126.788 460.415 126.268 463.465 126.268C467.487 126.268 471.113 127.296 474.344 129.352C477.597 131.386 480.173 134.402 482.071 138.401C483.991 142.377 484.951 147.257 484.951 153.041C484.951 158.757 484.014 163.614 482.138 167.613C480.263 171.612 477.71 174.662 474.479 176.763C471.249 178.864 467.589 179.915 463.499 179.915C460.517 179.915 458.043 179.418 456.077 178.424C454.112 177.43 452.53 176.232 451.333 174.832C450.158 173.408 449.243 172.064 448.588 170.799H448.08V198.52H435.812ZM447.842 152.973C447.842 156.339 448.317 159.288 449.266 161.818C450.237 164.349 451.627 166.325 453.434 167.749C455.264 169.15 457.478 169.85 460.076 169.85C462.788 169.85 465.058 169.127 466.888 167.681C468.718 166.212 470.096 164.213 471.023 161.683C471.972 159.13 472.446 156.226 472.446 152.973C472.446 149.742 471.983 146.873 471.057 144.365C470.13 141.857 468.752 139.892 466.922 138.468C465.092 137.045 462.81 136.333 460.076 136.333C457.456 136.333 455.23 137.023 453.4 138.401C451.57 139.779 450.181 141.711 449.232 144.196C448.306 146.681 447.842 149.607 447.842 152.973ZM524.939 157.108V126.946H537.207V179H525.311V169.748H524.769C523.594 172.663 521.663 175.046 518.974 176.899C516.308 178.751 513.021 179.678 509.112 179.678C505.701 179.678 502.685 178.921 500.064 177.407C497.466 175.871 495.432 173.646 493.964 170.731C492.495 167.794 491.761 164.247 491.761 160.09V126.946H504.029V158.192C504.029 161.491 504.933 164.111 506.74 166.054C508.548 167.997 510.92 168.969 513.857 168.969C515.664 168.969 517.415 168.528 519.11 167.647C520.804 166.766 522.194 165.456 523.278 163.716C524.385 161.954 524.939 159.751 524.939 157.108ZM587.268 140.705L576.084 141.925C575.768 140.796 575.214 139.734 574.424 138.74C573.655 137.745 572.616 136.943 571.306 136.333C569.995 135.723 568.391 135.418 566.494 135.418C563.941 135.418 561.794 135.972 560.055 137.079C558.338 138.186 557.49 139.621 557.513 141.383C557.49 142.897 558.044 144.128 559.173 145.077C560.326 146.026 562.223 146.805 564.867 147.415L573.746 149.313C578.671 150.375 582.331 152.058 584.726 154.363C587.143 156.667 588.363 159.683 588.386 163.411C588.363 166.687 587.403 169.579 585.505 172.087C583.63 174.572 581.021 176.515 577.677 177.916C574.333 179.316 570.492 180.017 566.155 180.017C559.783 180.017 554.655 178.684 550.769 176.018C546.883 173.329 544.567 169.59 543.822 164.8L555.785 163.648C556.327 165.998 557.479 167.771 559.241 168.969C561.003 170.166 563.297 170.765 566.121 170.765C569.035 170.765 571.374 170.166 573.136 168.969C574.921 167.771 575.813 166.292 575.813 164.529C575.813 163.038 575.237 161.807 574.085 160.835C572.955 159.864 571.193 159.118 568.798 158.599L559.919 156.735C554.926 155.695 551.232 153.945 548.837 151.482C546.442 148.997 545.256 145.856 545.279 142.061C545.256 138.853 546.126 136.074 547.888 133.724C549.673 131.352 552.147 129.522 555.31 128.234C558.496 126.924 562.167 126.268 566.324 126.268C572.424 126.268 577.225 127.567 580.727 130.166C584.251 132.764 586.432 136.277 587.268 140.705ZM638.843 179H615.324V109.595H639.318C646.209 109.595 652.128 110.984 657.076 113.763C662.046 116.52 665.864 120.485 668.53 125.658C671.196 130.832 672.529 137.023 672.529 144.23C672.529 151.459 671.185 157.672 668.497 162.869C665.831 168.065 661.979 172.053 656.94 174.832C651.925 177.611 645.892 179 638.843 179ZM627.897 168.122H638.233C643.068 168.122 647.101 167.24 650.332 165.478C653.563 163.693 655.991 161.039 657.618 157.514C659.245 153.967 660.058 149.539 660.058 144.23C660.058 138.92 659.245 134.515 657.618 131.013C655.991 127.488 653.585 124.856 650.4 123.117C647.237 121.354 643.306 120.473 638.606 120.473H627.897V168.122ZM703.282 180.017C698.063 180.017 693.556 178.932 689.76 176.763C685.987 174.572 683.084 171.477 681.051 167.478C679.017 163.456 678.001 158.723 678.001 153.278C678.001 147.924 679.017 143.224 681.051 139.18C683.107 135.113 685.976 131.95 689.659 129.691C693.341 127.409 697.668 126.268 702.638 126.268C705.846 126.268 708.874 126.788 711.72 127.827C714.59 128.844 717.12 130.425 719.312 132.572C721.526 134.718 723.265 137.452 724.531 140.773C725.796 144.071 726.428 148.003 726.428 152.566V156.328H683.762V148.059H714.669C714.646 145.709 714.138 143.62 713.144 141.79C712.15 139.937 710.76 138.48 708.975 137.418C707.213 136.356 705.157 135.825 702.808 135.825C700.3 135.825 698.097 136.435 696.199 137.655C694.301 138.853 692.822 140.434 691.76 142.4C690.72 144.343 690.189 146.478 690.167 148.805V156.023C690.167 159.051 690.72 161.649 691.827 163.818C692.935 165.964 694.482 167.613 696.47 168.765C698.458 169.895 700.786 170.46 703.451 170.46C705.236 170.46 706.852 170.211 708.298 169.714C709.744 169.195 710.997 168.438 712.059 167.444C713.121 166.45 713.923 165.218 714.465 163.75L725.92 165.038C725.197 168.065 723.819 170.708 721.786 172.968C719.775 175.204 717.199 176.944 714.059 178.187C710.918 179.407 707.326 180.017 703.282 180.017ZM733.111 198.52V126.946H745.176V135.554H745.888C746.52 134.289 747.413 132.945 748.565 131.521C749.717 130.075 751.276 128.844 753.241 127.827C755.207 126.788 757.715 126.268 760.765 126.268C764.786 126.268 768.413 127.296 771.643 129.352C774.897 131.386 777.472 134.402 779.37 138.401C781.29 142.377 782.251 147.257 782.251 153.041C782.251 158.757 781.313 163.614 779.438 167.613C777.563 171.612 775.01 174.662 771.779 176.763C768.548 178.864 764.888 179.915 760.799 179.915C757.817 179.915 755.343 179.418 753.377 178.424C751.411 177.43 749.83 176.232 748.633 174.832C747.458 173.408 746.543 172.064 745.888 170.799H745.379V198.52H733.111ZM745.142 152.973C745.142 156.339 745.616 159.288 746.565 161.818C747.537 164.349 748.926 166.325 750.734 167.749C752.564 169.15 754.778 169.85 757.376 169.85C760.087 169.85 762.358 169.127 764.188 167.681C766.018 166.212 767.396 164.213 768.322 161.683C769.271 159.13 769.746 156.226 769.746 152.973C769.746 149.742 769.282 146.873 768.356 144.365C767.43 141.857 766.052 139.892 764.222 138.468C762.392 137.045 760.11 136.333 757.376 136.333C754.755 136.333 752.53 137.023 750.7 138.401C748.87 139.779 747.48 141.711 746.531 144.196C745.605 146.681 745.142 149.607 745.142 152.973ZM801.329 109.595V179H789.061V109.595H801.329ZM832.954 180.017C827.87 180.017 823.465 178.898 819.737 176.662C816.009 174.425 813.117 171.296 811.061 167.274C809.028 163.253 808.011 158.553 808.011 153.176C808.011 147.799 809.028 143.089 811.061 139.045C813.117 135 816.009 131.86 819.737 129.623C823.465 127.387 827.87 126.268 832.954 126.268C838.037 126.268 842.443 127.387 846.171 129.623C849.898 131.86 852.779 135 854.812 139.045C856.868 143.089 857.896 147.799 857.896 153.176C857.896 158.553 856.868 163.253 854.812 167.274C852.779 171.296 849.898 174.425 846.171 176.662C842.443 178.898 838.037 180.017 832.954 180.017ZM833.022 170.189C835.778 170.189 838.082 169.432 839.935 167.918C841.788 166.382 843.166 164.326 844.07 161.75C844.996 159.175 845.459 156.306 845.459 153.143C845.459 149.957 844.996 147.076 844.07 144.501C843.166 141.903 841.788 139.835 839.935 138.299C838.082 136.763 835.778 135.995 833.022 135.995C830.198 135.995 827.848 136.763 825.973 138.299C824.12 139.835 822.731 141.903 821.804 144.501C820.901 147.076 820.449 149.957 820.449 153.143C820.449 156.306 820.901 159.175 821.804 161.75C822.731 164.326 824.12 166.382 825.973 167.918C827.848 169.432 830.198 170.189 833.022 170.189ZM870.467 198.52C868.796 198.52 867.248 198.385 865.825 198.114C864.424 197.865 863.305 197.571 862.47 197.232L865.316 187.676C867.101 188.195 868.694 188.444 870.095 188.421C871.495 188.399 872.727 187.958 873.789 187.1C874.873 186.264 875.788 184.863 876.534 182.897L877.584 180.084L858.708 126.946H871.721L883.718 166.258H884.26L896.291 126.946H909.338L888.496 185.303C887.525 188.06 886.237 190.421 884.633 192.386C883.029 194.374 881.063 195.888 878.736 196.927C876.432 197.989 873.676 198.52 870.467 198.52Z" fill="#0A151E"/>
<path d="M76.6351 183.449C87.0978 176.544 99.2687 164.892 94.7847 151.297C92.2224 143.745 88.806 137.487 88.1654 129.287C87.7383 122.382 88.806 115.477 91.1547 109.219C100.55 83.7567 128.522 71.6728 153.717 79.2253C176.992 86.3461 193.006 113.751 183.397 137.487C177.846 151.297 175.283 162.086 187.668 172.66C191.084 175.465 199.198 179.996 199.198 185.175C199.198 191.865 185.96 183.665 184.679 182.586C186.387 185.607 202.828 202.87 192.365 204.164C182.757 205.243 174.216 191.649 168.451 185.823C158.629 175.897 160.337 197.691 160.337 202.222C160.337 209.343 155.212 223.801 146.458 214.306C139.198 206.538 141.974 194.238 136.849 185.607C131.297 176.112 121.902 195.101 119.554 198.554C116.991 202.438 103.966 220.995 98.8416 211.069C94.5711 203.085 101.404 190.354 104.607 183.017C103.326 185.607 94.7847 189.491 92.4359 190.786C87.0978 193.807 80.9055 195.317 74.7133 194.886C61.2613 194.022 71.2969 186.902 76.6351 183.449Z" fill="#0D80D8"/>
</svg>
