<svg fill="none" height="41" viewBox="0 0 159 41" width="159" xmlns="http://www.w3.org/2000/svg"><g fill="#1a2f4d"><path clip-rule="evenodd" d="m12.0704 40.0966h20.416v-1.3843h-20.416zm7.3376-6.9233-3.2639-3.2458v-7.8012l.9544-6.4429c.0448-.2196-.0918-.3281-.2645-.3678l-5.1607-.8975c-.1687-.0369-.2596.0561-.2644.2244v2.7402c-.0012.2252-.1343.4227-.3679.4295h-2.77505l.01202-12.64454 2.42253.50445c.3453.09135.7084.36421.7084.78853v7.21976c-.0012.1743.0765.2136.2075.2569l5.2978.8891c.1935.0248.2796-.0561.3205-.2725l1.8908-13.67829 2.9406.68075c.5477.15626.7652.46959.8814 1.12229l1.8103 13.23755c.0328.1907.1218.2636.2973.3045l8.5901 1.4669c.0553.0128.1086.0485.0998.1202l-.0421.3109c-.0112.0637-.0757.0737-.1378.0645l-8.4471-1.462c-.1575-.0277-.2416.0677-.2228.2015l.72 5.2092v11.041h-.0008 18.9428v1.3848h-44.5572v-1.3848h19.408zm-13.0132 2.7691h31.7676v1.3847h-31.7676z" fill-rule="evenodd"/><path d="m53.0327 22.9188c-.2813 0-.5421-.0525-.7833-.1583-.2409-.1054-.452-.2484-.6327-.4291-.1807-.1811-.3238-.3919-.4291-.6327-.1058-.2412-.1583-.5024-.1583-.7837 0-.2809.0525-.5421.1583-.7829.1053-.2416.2484-.4524.4291-.6331s.3918-.3237.6327-.4291c.2412-.1054.502-.1583.7833-.1583h9.1442c.2012 0 .3718.0701.5125.2108.1406.141.2107.3113.2107.512 0 .2012-.0701.3719-.2107.5125-.1407.1407-.3113.2112-.5125.2112h-9.1743c-.1506 0-.2837.0525-.399.1578-.1154.1054-.1735.2384-.1735.3991 0 .1511.0581.2813.1735.3919.1153.1102.2484.1659.399.1659h8.3309c.2809 0 .5449.0524.7909.1582.246.1054.4596.2484.6403.4291s.3238.3943.4291.6403c.1058.2456.1583.5093.1583.791 0 .2808-.0525.5421-.1583.7833-.1053.2412-.2484.4519-.4291.6326-.1807.1808-.3943.3214-.6403.4216-.246.1005-.51.1506-.7909.1506h-9.1294c-.2008 0-.3714-.0701-.5121-.2107-.1406-.1407-.2107-.3114-.2107-.5121s.0701-.3714.2107-.5125c.1407-.1402.3113-.2107.5121-.2107h9.1895c.1507 0 .2813-.0529.3919-.1583.1101-.1054.1658-.2332.1658-.3838 0-.1607-.0557-.2965-.1658-.4071-.1106-.1102-.2412-.1655-.3919-.1655zm12.8845 2.3271c-.1506.1807-.3361.2713-.5573.2713-.2011 0-.3718-.0705-.5121-.2108-.1406-.1406-.2111-.3117-.2111-.5124 0-.1807.0505-.3262.1506-.4368l3.661-4.9263c.1707-.2308.3967-.4191.6776-.5649.2812-.1455.5825-.2184.9039-.2184.3013 0 .5878.0653.859.1959.2713.1306.4921.3117.6627.5421l3.6606 4.8963c.0605.0701.1106.1482.1507.2336.0404.0853.0605.1779.0605.2785 0 .2007-.0705.3718-.2112.5124-.1402.1403-.3109.2108-.5124.2108-.2404 0-.4316-.0954-.5722-.2861l-3.5099-4.6851c-.0706-.0801-.1583-.1683-.2637-.2637-.1054-.0953-.2135-.143-.3241-.143-.1102 0-.2184.0477-.3238.143-.1053.0954-.1879.1836-.2484.2637zm12.3617-.4892c0 .2007-.0705.3714-.2112.5121-.1402.1406-.3113.2107-.5116.2107-.2012 0-.3722-.0701-.5125-.2107-.1406-.1407-.2111-.3114-.2111-.5121v-5.1223c0-.2007.0705-.371.2111-.512.1403-.1407.3113-.2108.5125-.2108.2003 0 .3714.0701.5116.2108.1407.141.2112.3113.2112.512zm3.6081.7228c-.2813 0-.5473-.0525-.7982-.1578-.2516-.1054-.4695-.2485-.6555-.4296-.1859-.1807-.3341-.3914-.4443-.6326-.1106-.2408-.1659-.5021-.1659-.7834v-3.8417c0-.2007.0701-.371.2112-.512.1402-.1407.3109-.2108.512-.2108.1908 0 .359.0701.5049.2108.1454.141.2184.3113.2184.512v3.8417c0 .1507.0576.2813.173.3919s.2485.1655.3991.1655h9.0389c.2007 0 .3714.0705.512.2107.1411.1411.2112.3118.2112.5125s-.0701.3714-.2112.5121c-.1406.1406-.3113.2107-.512.2107zm20.314-1.446c.342 0 .623-.0629.844-.1883.221-.1255.394-.2785.52-.4592.125-.1807.211-.3795.256-.5954.045-.216.068-.4143.068-.595s-.023-.3791-.068-.595c-.045-.216-.131-.4143-.256-.595-.126-.1807-.299-.3338-.52-.4596-.221-.1254-.502-.1879-.844-.1879h-8.466c-.2007 0-.3714-.0705-.5117-.2112-.141-.1406-.2111-.3113-.2111-.5125 0-.2007.0701-.371.2111-.512.1403-.1407.311-.2108.5117-.2108h8.783c.431 0 .818.1006 1.16.3013.342.2008.632.4596.874.7761.24.3162.424.6676.549 1.0542.126.3867.189.7709.189 1.1524 0 .3714-.06.7484-.181 1.1299-.121.3814-.294.728-.52 1.0397-.226.311-.5.5698-.821.7753-.321.2064-.688.3194-1.1.339h-8.933c-.2007 0-.3714-.0701-.5117-.2107-.141-.1407-.2111-.3114-.2111-.5121v-2.5611c0-.2008.0701-.3715.2111-.5125.1403-.1402.311-.2103.5117-.2103s.3718.0701.5121.2103c.1406.141.2111.3117.2111.5125v1.8379zm14.142-1.1147c.271.1707.547.3542.828.5497.281.196.568.4091.859.6403.11.0805.206.1731.286.2789.081.1054.12.2284.12.369 0 .2007-.07.3714-.21.5121-.141.1406-.312.2107-.513.2107-.17 0-.341-.0701-.512-.2107-.411-.3013-.834-.5926-1.265-.8735-.432-.2813-.881-.5321-1.348-.7533s-.952-.3967-1.454-.5273-1.024-.1959-1.567-.1959h-2.998c-.13.02-.241.0805-.331.1807-.091.1006-.136.226-.136.3766v1.2806c0 .2007-.073.3714-.218.5121-.146.1406-.314.2107-.505.2107-.201 0-.372-.0701-.512-.2107-.14-.1407-.211-.3114-.211-.5121v-1.446c0-.2513.048-.4901.143-.7161.095-.2259.224-.4215.384-.5873.161-.1659.352-.2961.572-.3915.221-.0954.463-.143.724-.143h7.984c.151 0 .284-.0529.399-.1583.115-.1058.174-.2388.174-.3995 0-.1506-.059-.2809-.174-.3915-.115-.1105-.248-.1654-.399-.1654h-9.084c-.201 0-.372-.0705-.512-.2112-.14-.1406-.211-.3113-.211-.5125 0-.2007.071-.371.211-.512.14-.1407.311-.2108.512-.2108h9.024c.281 0 .545.0529.79.1583.246.1054.463.2484.648.4291.186.1807.332.3915.437.6331.106.2408.158.502.158.7829 0 .2813-.052.5425-.158.7837-.105.2408-.251.4516-.437.6327-.185.1807-.402.3237-.648.4291-.245.1058-.509.1583-.79.1583zm12.786 1.1147c.341 0 .622-.0629.843-.1883.221-.1255.394-.2785.519-.4592.126-.1807.212-.3795.257-.5954.045-.216.068-.4143.068-.595s-.023-.3791-.068-.595c-.045-.216-.131-.4143-.257-.595-.125-.1807-.298-.3338-.519-.4596-.221-.1254-.502-.1879-.843-.1879h-6.087c-.351 0-.635.0625-.851.1879-.216.1258-.387.2789-.512.4596s-.211.379-.256.595c-.045.2159-.068.4143-.068.595s.023.379.068.595c.045.2159.131.4147.256.5954s.296.3337.512.4592c.216.1254.5.1883.851.1883zm3.088-1.8379c0 .3814-.063.7657-.189 1.1523-.125.3867-.308.7381-.549 1.0546s-.533.575-.874.7757c-.342.2011-.728.3013-1.16.3013h-6.87c-.412-.0196-.778-.1326-1.099-.339-.322-.2055-.596-.4643-.822-.7753-.226-.3117-.399-.6583-.519-1.0397-.121-.3815-.181-.7585-.181-1.1299 0-.3815.063-.7657.188-1.1524.126-.3866.309-.738.55-1.0542.241-.3165.533-.5753.874-.7761.341-.2007.728-.3013 1.16-.3013h6.869c.412.0201.779.1331 1.1.339.322.2059.595.4648.821.7757.226.3113.399.6579.52 1.0398.121.3814.181.758.181 1.1295zm11.584-2.5612c0-.2007.07-.371.211-.512.14-.1407.311-.2108.512-.2108s.371.0701.512.2108c.141.141.211.3113.211.512v4.3842c0 .4119-.138.7581-.414 1.0394s-.62.4215-1.032.4215c-.141 0-.279-.0196-.414-.0597-.136-.0405-.259-.0957-.369-.1659l-6.9-4.2179c-.191-.111-.349-.1987-.475-.264-.125-.0653-.228-.0978-.309-.0978-.15 0-.245.0954-.286.2861-.04.1911-.06.4672-.06.8286v2.9678c0 .2007-.07.3714-.211.5121-.141.1406-.311.2107-.512.2107s-.372-.0701-.512-.2107c-.141-.1407-.211-.3114-.211-.5121v-4.3838c0-.4119.138-.7585.414-1.0394.276-.2812.62-.4219 1.032-.4219.141 0 .279.0201.415.0601.135.0405.258.0954.369.1659l6.899 4.2179c.191.1106.349.1984.475.2637.125.0653.228.0977.309.0977.15 0 .246-.0953.286-.2856.04-.1912.06-.4672.06-.829zm3.072 0c0-.2007.07-.371.211-.512.141-.1407.311-.2108.512-.2108h10.681c.201 0 .372.0701.512.2108.14.141.211.3113.211.512 0 .2012-.071.3719-.211.5125-.14.1407-.311.2112-.512.2112h-10.681c-.201 0-.371-.0705-.512-.2112-.141-.1406-.211-.3113-.211-.5125zm1.838 5.8451c-.221 0-.442-.0473-.663-.143-.221-.0954-.417-.2284-.587-.3987-.171-.1711-.312-.377-.422-.6178-.111-.2412-.166-.5125-.166-.8138v-1.3559c0-.2709.078-.4516.233-.5421.156-.0902.4-.1354.731-.1354h10.108c.202 0 .372.0701.512.2103.142.141.212.3117.212.5125 0 .2011-.07.3714-.212.5124-.14.1407-.31.2108-.512.2108h-9.626v.738c0 .1006.043.1884.128.2637s.199.113.339.113h9.491c.201 0 .372.0705.512.2107.14.1411.211.3118.211.5125s-.071.3714-.211.5121c-.14.1406-.311.2107-.512.2107z"/></g></svg>