<svg fill="none" height="32" viewBox="0 0 126 32" width="126" xmlns="http://www.w3.org/2000/svg" xmlns:xlink="http://www.w3.org/1999/xlink"><clipPath id="a"><path d="m0 0h126v31.3248h-126z"/></clipPath><g clip-path="url(#a)" clip-rule="evenodd" fill-rule="evenodd"><g fill="#241f20"><path d="m48.2097 16.0861c0 1.939-.9012 2.95-2.2687 2.95-1.1747 0-1.9391-.8742-1.9391-2.1856v-7.45576h-5.1284v8.54736c0 3.4946 2.0758 5.6534 5.1895 5.6534.78.0096 1.5532-.146 2.2687-.4566.7156-.3106 1.3572-.7692 1.8829-1.3456v1.392h5.1064v-13.79056h-5.1113z"/><path d="m63.861 8.98447c-1.6948 0-3.06.54703-4.0441 1.52873v-1.11846h-5.1138v19.80296l5.1065-1.3651v-5.7634c.9768.9769 2.3492 1.5288 4.0441 1.5288 3.795 0 6.6644-2.9501 6.6644-7.2921 0-4.3421-2.8719-7.32143-6.6571-7.32143zm-1.2211 10.35203c-1.5556 0-2.8133-1.3114-2.8133-3.0306 0-1.7193 1.2577-3.06 2.8133-3.06 1.6949 0 2.7865 1.3114 2.7865 3.06 0 1.7485-1.1014 3.0306-2.7962 3.0306z"/><path d="m71.5337 23.1877h5.1089v-21.03377l-5.1089 1.36758z"/><path d="m88.3331 10.5254c-.9768-.97681-2.3493-1.52873-4.0417-1.52873-3.7974 0-6.6644 2.95003-6.6644 7.32633 0 4.3762 2.867 7.2921 6.6644 7.2921 1.6924 0 3.06-.5471 4.0417-1.5288v1.1185h5.1089v-13.81007h-5.1089zm-2.8133 8.8111c-1.6924 0-2.7864-1.3114-2.7864-3.0306 0-1.7193 1.094-3.06 2.7864-3.06 1.5581 0 2.8133 1.3114 2.8133 3.06 0 1.7485-1.2552 3.0306-2.8133 3.0306z"/><path d="m104.068 8.98445c-.78-.00991-1.554.14558-2.269.45623-.716.31065-1.358.76942-1.883 1.34602v-1.39197h-5.1089v13.79297h5.1089v-6.6914c0-1.939.901-2.95 2.266-2.95 1.175 0 1.939.8743 1.939 2.1857v7.4557h5.129v-8.5473c.007-3.4996-2.069-5.65595-5.182-5.65595z"/><path d="m120.884 3.5215v7.0039c-.977-.9768-2.349-1.52871-4.044-1.52871-3.798 0-6.665 2.95001-6.665 7.32631 0 4.3762 2.867 7.2921 6.665 7.2921 1.695 0 3.06-.5471 4.044-1.5288v1.1185h5.128v-21.04843zm-2.804 15.815c-1.694 0-2.786-1.3114-2.786-3.0306 0-1.7193 1.092-3.06 2.786-3.06 1.556 0 2.814 1.3114 2.814 3.06 0 1.7485-1.258 3.0306-2.814 3.0306z"/></g><path d="m15.6636.00000019c-3.0985-.00048248-6.1275.91800881-8.7039 2.63928981-2.5764 1.72128-4.58442 4.16801-5.77005 7.03068-1.18562608 2.86263-1.495595 6.01273-.890695 9.05153.6049 3.0389 2.097495 5.8301 4.288965 8.0205 2.19148 2.1905 4.98337 3.6818 8.02248 4.2853 3.0392.6034 6.1891.292 9.0512-.895 2.8621-1.1869 5.3079-3.1961 7.028-5.7733 1.72-2.5772 2.6371-5.6067 2.6352-8.7052-.0026-4.1521-1.6537-8.13331-4.5904-11.06863-2.9367-2.93531-6.9187-4.58452326-11.0708-4.58516981zm5.8855 17.22899981c0 3.6924-2.3249 5.9782-5.8122 5.9782-3.5777 0-5.96851-2.2858-5.96851-5.9782v-5.27l3.90731-1.0404v6.3104c0 1.6118.8255 2.5129 2.0612 2.5129 1.1453 0 1.9121-.9011 1.9121-2.5129v-7.3727l3.9074-1.04277z" fill="#2574db"/></g></svg>