<svg xmlns="http://www.w3.org/2000/svg" width="46" height="46" viewBox="0 0 46 46">
    <g fill="none" fill-rule="evenodd">
        <path fill="#6EB92C" d="M9.1 0h27.8a44.42 44.42 0 0 1 1.85.05c.62.06 1.23.16 1.83.33a7.7 7.7 0 0 1 3.19 1.85 7.05 7.05 0 0 1 1.85 3.2 9.77 9.77 0 0 1 .37 2.79l.01.89v28.68l-.05.96a9.77 9.77 0 0 1-.33 1.83 7.7 7.7 0 0 1-1.85 3.19 7.05 7.05 0 0 1-3.2 1.85 9.77 9.77 0 0 1-2.79.37l-.89.01H8.21c-.32-.01-.64-.02-.96-.05a9.77 9.77 0 0 1-1.83-.33 7.7 7.7 0 0 1-3.19-1.85 7.05 7.05 0 0 1-1.85-3.2 9.77 9.77 0 0 1-.37-2.79L0 36.9V9.11v-.9l.05-.96c.06-.62.16-1.23.33-1.83a7.7 7.7 0 0 1 1.85-3.19A7.05 7.05 0 0 1 5.43.38 9.77 9.77 0 0 1 8.21.01L9.1 0z"/>
        <g fill="#FFF">
            <path d="M34.47 18.03h6.28v-1.92h-7.4c.1-.3.18-.62.23-.96h-2.59c0 .16-.05.66-.15.96h-7.02v1.92h6.14c-.94 1.28-3.1 2.1-6.46 2.44l1.18 2.05c3.82-.42 6.38-1.62 7.64-3.6 1.6 2.09 4.1 3.3 7.43 3.6l1.32-2.27c-3.1-.15-5.32-.89-6.6-2.22M40.9 12.87h-7.4v-.96h6.07V10h-6.06V8.95h7.02V7.1h-4.21c.39-.52.78-1.07 1.18-1.48l-2.52-.67-1.4 2.15h-2.59l-1.4-2.15-2.52.67c.4.41.8.96 1.18 1.48h-4.21v1.85h7.02V10H25v1.92h6.06v.96h-7.39v1.93H40.9v-1.93zM24.52 31.93c3.06-.99 5.57-2.36 7.4-4.14v-1.4H29.4v-.74h3.03v-1.4H29.4v-.75h-1.92v2.89h-.96l.44-.82-1.5-.4a8.16 8.16 0 0 1-1.82 2.68l.86 1.48c.54-.44 1.1-1.1 1.45-1.54h3.65s-.6.52-1.67 1.1c-.97-.43-1.82-.73-1.82-.73l-.68 1.16.84.35c-.77.3-1.65.57-2.63.73l.88 1.53z"/>
            <path d="M28.4 36.5h7.34v-.91h-7.35v.92zm2.79 2.08s-1.84.2-2.8.38v-1.39h3.3l-.5 1zm-2.8-4.06h7.35v-.92h-7.35v.92zm3.97-4.14c.69.74 1.55 1.52 2.59 2.16h-1.7s-.18-.66-.22-.96h-1.95c.15.3.34.96.34.96h-1.94c.98-.64 1.94-1.42 2.88-2.16zm7.87 7.68l-.75-1.3c-1.03.6-2.5 1.38-3.59 1.82 0 0-1.94-.53-3.46-1h5.52v-3.52c.7.3 1.29.55 2.07.85l1.05-1.81a18.22 18.22 0 0 1-6.27-2.7c.26-.12 1.47-.6 1.7-.71.47.24 2.97 1.71 3.22 1.86l1-1.73-2.6-1.32a9.43 9.43 0 0 0 2.08-2.36v-1.7h-7.17v1.7h4.95a8.85 8.85 0 0 1-1.55 1.48c-1.48-.74-3.16-1.35-3.16-1.35l-.8 1.4s2.06.83 2.18.9c-.7.3-1.55.42-1.55.42h-1.63a22.97 22.97 0 0 1-7.97 4.44l.98 1.7 1.7-.85v4.04c0 .58-.41 1.02-.8 1.3l.84 1.45c.75-.24 3.07-.55 5.8-.93v-1.18a78.3 78.3 0 0 1 7.45 2.1l.85-1.46c-.74-.15-1.77-.37-2.56-.57.64-.21 1.83-.72 2.47-.97z"/>
        </g>
    </g>
</svg>
