<svg fill="none" height="30" viewBox="0 0 118 30" width="118" xmlns="http://www.w3.org/2000/svg" xmlns:xlink="http://www.w3.org/1999/xlink"><clipPath id="a"><path d="m0 .648621h118v28.7027h-118z"/></clipPath><g clip-path="url(#a)" clip-rule="evenodd" fill-rule="evenodd"><path d="m13.3848.648621-9.6641 4.934739 11.5966 12.07424 9.6647-4.9347z" fill="#000"/><path d="m11.6939 28.2883-3.72076-1.0101v-5.8998l3.72076 1.01z" fill="#000"/><path d="m0 13.0989v12.0002l7.97297-3.9463v-11.99966z" fill="#1d66a8"/><path d="m15.4146 17.6738v11.6776l9.5675-4.7999v-11.6776z" fill="#1d66a8"/><path d="m13.3848.648621-9.6641 4.934739 11.5966 12.07424 9.6647-4.9347z" fill="#247ddc"/><path d="m11.6939 28.2883-3.72076-1.0101v-5.8998l3.72076 1.01z" fill="#247ddc"/><g fill="#33322b"><path d="m43.6105 16.0921h-8.5541v-6.40741h-2.1013v14.88291h2.1013v-6.5114h8.5541v6.5114h2.1013v-14.88291h-2.1013z"/><path d="m62.6682 20.9298c-1.0189 1.0048-2.4381 1.5586-3.9976 1.5586-1.5553 0-2.9713-.5538-3.9886-1.5586-1.0371-1.0242-1.6076-2.4777-1.6076-4.0922 0-1.6151.5705-3.068 1.6076-4.0922 1.0173-1.0054 2.4333-1.5586 3.9886-1.5586 1.5595 0 2.9787.5532 3.9976 1.5586 1.0376 1.0236 1.6079 2.4771 1.6079 4.0922s-.5703 3.0686-1.6079 4.0922zm-3.9976-11.73772c-4.4957 0-7.758 3.21532-7.758 7.64552s3.2623 7.6456 7.758 7.6456c4.4951 0 7.7582-3.2154 7.7582-7.6456s-3.2631-7.64552-7.7582-7.64552z"/><path d="m76.8293 21.9328-5.4769-12.53369h-2.2181l6.4565 14.75899.0516.1177h2.3408l6.498-14.87669h-2.166z"/><path d="m90.7863 17.7572h7.7338v-1.9428h-7.7338v-4.4622h9.1147v-1.95303h-11.1935v14.87663h11.2876v-1.9531h-9.2088z"/><path d="m107.528 16.0729v-4.7208h3.839c2.117 0 3.191.7839 3.191 2.3293 0 1.5871-1.074 2.3915-3.191 2.3915zm5.359 1.832c1.887-.2894 3.812-1.5106 3.812-4.2235 0-1.3667-.469-2.4355-1.395-3.1771-.914-.7336-2.233-1.10525-3.917-1.10525h-5.938v14.87715h2.079v-6.3016h3.036l4.525 6.3016h2.5z"/></g></g></svg>