<svg fill="none" height="30" viewBox="0 0 99 30" width="99" xmlns="http://www.w3.org/2000/svg" xmlns:xlink="http://www.w3.org/1999/xlink"><clipPath id="a"><path d="m0 .974991h99v28.05h-99z"/></clipPath><g clip-path="url(#a)"><path d="m10.4684 6.09081c-5.77893 0-10.4684 4.68949-10.4684 10.46839 0 2.4158.852629 4.6421 2.22631 6.4421.09474.1421.23685.2842.33159.379.1421.1895.33157.379.52105.5684 1.98947 2.1315 4.54737 3.7421 7.38945 4.5947 2.8421-.8526 5.4001-2.4632 7.3895-4.5947.1895-.1894.3315-.3789.521-.5684.0947-.1421.2369-.2843.3316-.379 1.3737-1.7526 2.2263-3.9789 2.2263-6.4421 0-5.7789-4.6894-10.46839-10.4684-10.46839zm0 14.44729c-2.2263 0-4.0263-1.8-4.0263-4.0262 0-2.2264 1.8-4.0263 4.0263-4.0263 2.2264 0 3.979 1.7999 3.979 4.0263 0 2.2262-1.7526 4.0262-3.979 4.0262z" fill="#ff8a3d"/><path d="m13.8793 5.85394c.7105-.1421 1.2316-.7579 1.2316-1.5158 0-.85262-.7105-1.51578-1.5158-1.51578-.2369 0-.4737.04737-.6631.1421-.2843-1.13684-1.279-1.989469-2.4632-1.989469-1.18425 0-2.17895.852629-2.41583 1.989469-.18948-.09473-.42632-.1421-.66316-.1421-.85263 0-1.51579.71053-1.51579 1.51578 0 .7579.52106 1.3737 1.23158 1.5158 1.08948-.37895 2.2263-.56842 3.4105-.56842s2.2737.18947 3.3632.56842z" fill="#56c271"/><g fill="#ff8a3d"><path d="m28.4208 16.7012h6.3947c.8053 0 1.4211-.4736 1.4211-1.4684 0-.9947-.6158-1.4684-1.4211-1.4684h-5.5895c-.2842 0-.4737-.1894-.4737-.4263v-2.5105c0-.2843.1895-.4263.4737-.4263h5.5895c.8053 0 1.4211-.47374 1.4211-1.46847s-.6158-1.46841-1.4211-1.46841h-6.3947c-2.179 0-3.2211.94736-3.2211 2.79468v3.6948c0 1.8 1.0421 2.7473 3.2211 2.7473z"/><path d="m36.426 17.8855h-6.3c-2.8421 0-4.6895 1.5632-4.6895 3.8369 0 2.2262 1.8474 3.7894 4.6895 3.7894h6.3c2.8421 0 4.7368-1.5632 4.7368-3.7894 0-2.2737-1.8947-3.8369-4.7368-3.8369zm0 4.6895h-6.3c-.7105 0-1.0894-.379-1.0894-.8526 0-.5211.3789-.9 1.0894-.9h6.3c.7105 0 1.0895.3789 1.0895.9 0 .4736-.379.8526-1.0895.8526z"/><path d="m41.7793 10.4487h-.9948v-1.94213c0-.85263-.7104-1.46842-1.7999-1.46842-1.0422 0-1.8.61579-1.8 1.46842v7.43683c0 .8526.7578 1.4684 1.8 1.4684 1.0421 0 1.7999-.6158 1.7999-1.4684v-2.0368h.9948c.8052 0 1.4684-.7105 1.4684-1.7527 0-.9473-.6632-1.7052-1.4684-1.7052z"/><path d="m59.6366 18.3592h-14.6369c-.8526 0-1.5632-.5685-1.5632-1.6105 0-.9474.7106-1.5632 1.5632-1.5632h14.6369c.8526 0 1.5631.6158 1.5631 1.5632 0 1.042-.6632 1.6105-1.5631 1.6105zm-2.9842-5.1631v-1.8948c0-.3316-.1895-.5211-.4738-.5211h-10.1842c-.9 0-1.6104-.5684-1.6104-1.61048 0-1.04211.7578-1.65789 1.6104-1.65789h10.9422c2.1789 0 3.2684 1.13684 3.2684 3.12637v2.6052c0 .8527-.7106 1.4684-1.8 1.4684-1.0895 0-1.7526-.6632-1.7526-1.5157zm-8.5738 7.1999v1.279c0 .2368.1895.4263.4737.4263h10.4685c.9 0 1.6105.5684 1.6105 1.6106 0 1.042-.7579 1.6104-1.6105 1.6104h-11.179c-2.1789 0-3.3158-.9-3.3158-2.8894v-2.0369c0-.8526.7106-1.4684 1.8-1.4684.9948 0 1.7526.6631 1.7526 1.4684z"/><path d="m63.0479 22.0539v-12.07891c0-1.65792.8526-2.51055 2.5579-2.51055h4.6894c1.7053 0 2.5579.85263 2.5579 2.51055v12.07891c0 1.6579-.8526 2.5106-2.5579 2.5106h-4.6894c-1.7527 0-2.5579-.8527-2.5579-2.5106zm6.3947-1.1369v-9.8052c0-.2368-.1422-.379-.3316-.379h-2.321c-.1895 0-.3316.1422-.3316.379v9.7579c0 .2369.1421.3789.3316.3789h2.321c.1894.0475.3316-.142.3316-.3316zm5.5421 3.079v-15.34735c0-.9.7579-1.56316 1.8-1.56316s1.8.71053 1.8 1.56316v5.02105h.9947c.8053 0 1.4685.7579 1.4685 1.7526 0 1.0421-.6632 1.8001-1.4685 1.8001h-.9947v6.821c0 .9-.7105 1.5631-1.8 1.5631-1.0421-.0473-1.8-.7105-1.8-1.6105z"/><path d="m90.2366 11.2539h.7103v-2.74736c0-.80526.6633-1.32631 1.6104-1.32631.9479 0 1.6104.52105 1.6104 1.32631v8.28946c0 .8053-.6154 1.3264-1.6104 1.3264-.9941 0-1.6104-.5685-1.6104-1.3737v-2.4158h-.7103c-.3787 0-.7582-.1895-.995-.5211-.9949 2.1789-2.7002 3.9316-5.1158 5.0211-.7573.3315-1.6104.1421-2.0367-.6158-.4263-.758-.1421-1.6579.5212-1.9895 1.089-.4736 1.9891-1.1369 2.7002-1.9421h-1.7531c-.6633 0-1.2789-.379-1.2789-1.279 0-.8052.5686-1.2789 1.2789-1.2789h3.0789c.0949-.3315.1897-.6632.1897-.9948.0471-.2842-.0948-.4736-.3786-.4736h-2.8422c-.8052 0-1.374-.47371-1.374-1.3737 0-.9.5688-1.42106 1.374-1.42106h3.4106c2.2737 0 3.3157 1.08947 2.984 3.55256 0 .0948 0 .1896-.0478.2843.1427-.0474.1897-.0474.2846-.0474zm6.3946 13.9737c-2.1789-.4737-4.7842-1.6579-6.4895-3.0316-1.5634 1.5632-3.6473 2.7-5.874 3.1263-.7573.1422-1.6104-.1894-1.8944-1.1368-.2368-.9.1891-1.6579.9952-1.8947 2.4156-.6158 4.4046-2.0369 5.3996-3.8842.3316-.5685 1.1368-.9475 2.1318-.6632.9941.3315 1.4206 1.279 1.089 1.9421v.0473c1.4215 1.1369 3.4584 2.0369 5.4953 2.5106.7574.1894 1.2309.9473.9941 1.8473-.2367.9474-1.089 1.3264-1.8471 1.1369zm-1.6575-7.9105v-8.90529c0-.80526.6625-1.32632 1.6575-1.32632.9949 0 1.6582.52106 1.6582 1.32632v8.90529c0 .8053-.6633 1.3263-1.6582 1.3263-.995 0-1.6575-.521-1.6575-1.3263z"/></g></g></svg>