<svg fill="none" height="28" viewBox="0 0 114 28" width="114" xmlns="http://www.w3.org/2000/svg" xmlns:xlink="http://www.w3.org/1999/xlink"><clipPath id="a"><path d="m0 .655518h114v26.899h-114z"/></clipPath><g clip-path="url(#a)" fill="#000"><path d="m13.4444.655521c2.6619-.002029 5.2646.785609 7.4788 2.263239s3.9403 3.57885 4.9599 6.03778c1.0196 2.45896 1.2869 5.16506.7681 7.77596s-1.8004 5.0092-3.6827 6.8915-4.2806 3.1639-6.8915 3.6827c-2.6109.5189-5.317.2516-7.77597-.7681-2.45894-1.0196-4.56016-2.7457-6.03779-4.9599-1.477632-2.2141-2.26526578-4.8169-2.26323609-7.4788.00271814-3.5648 1.42004609-6.9829 3.94076609-9.50361 2.52072-2.52072 5.93877-3.93805 9.50363-3.940769zm7.4816 16.964579c-.3877 0-.7667.1149-1.089.3303-.3224.2154-.5736.5215-.722.8797s-.1872.7523-.1115 1.1326c.0756.3802.2623.7295.5364 1.0036.2742.2742.6234.4609 1.0037.5365.3802.0756.7744.0368 1.1325-.1115.3582-.1484.6644-.3997.8798-.722.2153-.3224.3303-.7013.3303-1.089 0-.5199-.2065-1.0185-.5741-1.3861s-.8662-.5741-1.3861-.5741zm-12.85938-13.37257c-.39015-.00203-.77213.1118-1.09752.32708s-.57954.52231-.73026.88218c-.15071.35988-.1912.75639-.11633 1.1393.07486.38291.26172.73497.53688 1.01157.27516.27661.62625.4653 1.00876.54216.38251.07687.77923.03845 1.13989-.11038.36065-.14884.66901-.40139.88598-.72565.21698-.32426.33278-.70563.33278-1.09579 0-.52083-.20615-1.02048-.57347-1.38972s-.86589-.57804-1.38671-.58075zm-2.93518 3.52016c-5.71642 6.96851-.46183 16.52321 7.67666 16.76951h.1642c1.1062.0562 2.211-.1367 3.2328-.5644.6879-.2307 1.2901-.6637 1.7277-1.2424.4377-.5787.6904-1.276.7251-2.0007v-.431c-.0903-.7336-.39-1.4257-.8632-1.9935-.4732-.5679-1.0998-.9874-1.8051-1.2086h-.1848c-.8826-.2257-1.8062-.4002-2.6991-.5952-1.3635-.2937-2.6941-.7235-3.97174-1.2829-1.30656-.4823-2.41726-1.3827-3.15958-2.5611-.74233-1.1784-1.07473-2.569-.94557-3.95579.01753-.31291.05179-.62466.10263-.93392zm18.07296 9.40081c1.2418-4.5362-.8416-9.82159-5.0596-11.65864-.8688-.3761-1.8039-.57498-2.7505-.58498-2.5041-.08211-5.1314.75945-5.2443 3.75621v.11289c.0159.56912.1893 1.12269.5009 1.59922.3116.4765.7493.8572 1.2643 1.0999 1.9539.8014 3.992 1.3798 6.0756 1.7242 2.7402.6055 4.4233 1.8986 5.193 3.9512z"/><path d="m39.5118 13.7406c-.2548-.3277-.5767-.5971-.9441-.7903-.3999-.2176-.8482-.3306-1.3034-.3284-.3915-.0065-.7788.0815-1.1289.2566-.163.0746-.2994.1971-.391.3511-.0917.1539-.1343.3322-.1222.511-.0084.1822.0419.3623.1435.5138s.2492.2664.421.3277c.5367.2108 1.0892.3789 1.6523.5029.3977.0844.7887.1976 1.17.3387.3669.1433.7123.3367 1.0262.5747.3225.2313.5919.5287.7903.8724.2137.3759.3301.7992.3387 1.2315.0145.5552-.1089 1.1053-.3592 1.601-.2292.4087-.5486.7597-.934 1.0263-.4193.2765-.8852.4747-1.3752.585-.5281.1239-1.0688.1859-1.6113.1847-.793.0411-1.5867-.0668-2.3399-.3181-.7161-.2633-1.3596-.6924-1.8781-1.2521l1.6934-1.5805c.3135.3834.708.6927 1.1551.9056s.9359.3242 1.4311.326c.1898-.0002.3791-.0208.5645-.0616.1874-.0405.3674-.1097.5336-.2053.1639-.09.3017-.2208.4003-.3797.1069-.1722.1605-.3721.1539-.5747.0096-.1968-.0426-.3917-.1494-.5574-.1067-.1656-.2626-.2937-.4458-.3663-.5685-.2429-1.1599-.4285-1.7652-.5542-.3802-.0828-.754-.1925-1.1187-.3284-.3499-.128-.6785-.3079-.9749-.5337-.2854-.2254-.5197-.5087-.6877-.8312-.1664-.3738-.2404-.7822-.2155-1.1905-.0089-.5141.1111-1.0221.349-1.4779.2257-.4111.5458-.7628.9339-1.0263.3996-.2625.84-.4567 1.3034-.5747.4895-.1263.9928-.1918 1.4983-.195.7426.0012 1.4791.1332 2.1758.39.6621.2247 1.2462.6343 1.6831 1.1802zm13.6805 2.5247v.6773h-7.8409c.027.359.1283.7085.2976 1.0263.1653.3008.3845.5686.6466.7902.2812.2179.5922.3942.9237.5234.3284.123.6755.189 1.0262.195.5782.0268 1.1537-.0932 1.6729-.3489.4433-.245.8175-.598 1.0879-1.0263l1.7139 1.3752c-.5083.6807-1.1775 1.2246-1.9477 1.5828-.7703.3583-1.6174.5197-2.4654.4698-.7506.0192-1.4984-.0991-2.2065-.3489-.6423-.2197-1.2327-.5691-1.7344-1.0263-.5054-.4692-.9013-1.0438-1.1597-1.6831-.2897-.717-.4328-1.4847-.4208-2.2579-.0082-.7728.1348-1.5398.4208-2.2578.2594-.6488.6468-1.2386 1.1392-1.7344.4988-.476 1.084-.8522 1.7241-1.1084.6879-.2788 1.4233-.4217 2.1655-.4208.6768-.0045 1.3486.1173 1.9807.3592.5924.2227 1.1285.5731 1.5702 1.0263.4597.5.8093 1.0909 1.0263 1.7344.2726.7883.4012 1.6191.3798 2.4529zm-2.576-1.1597c.0032-.3197-.0418-.638-.1334-.9442-.0865-.293-.2373-.563-.4414-.7903-.2079-.2372-.4678-.4234-.7594-.5439-.3413-.1417-.7081-.2116-1.0776-.2053-.7172-.0174-1.4154.2312-1.9602.6979-.2611.2225-.4747.4953-.6281.8021s-.2434.6413-.2648.9837zm4.6285-4.1052h2.4426v1.6421c.2626-.5538.675-1.0231 1.1905-1.3547.6023-.4141 1.3221-.6229 2.0526-.5953.5914-.015 1.1782.108 1.7139.3592.4594.2173.8631.5368 1.1802.9339.3134.3907.5439.8412.6773 1.324.1434.5005.216 1.0187.2156 1.5394v6.4245h-2.5863v-5.6959c-.0011-.3157-.0216-.631-.0616-.9441-.0345-.3094-.1286-.6091-.2771-.8826-.1409-.2618-.3412-.4867-.5849-.6569-.3068-.1909-.6658-.2807-1.0263-.2565-.3742-.0098-.7448.0749-1.0776.2463-.2901.151-.54.3691-.7287.6363-.2033.2626-.3532.5624-.4413.8826-.1022.3325-.1541.6784-.1539 1.0263v5.6548h-2.5658zm22.4757 10.2731h-2.4426v-1.5394c-.353.5898-.87 1.0641-1.4881 1.365-.6374.3169-1.3407.4787-2.0525.4721-.7354.0346-1.4689-.0987-2.145-.39-.6033-.2791-1.1416-.6811-1.5805-1.1803-.4533-.5046-.8022-1.0941-1.0263-1.7344-.2458-.7124-.3605-1.4634-.3386-2.2168.0003-.7007.1254-1.3957.3694-2.0525.2287-.632.5772-1.214 1.0263-1.7139.4395-.4908.9782-.8826 1.5805-1.1495.6456-.2874 1.346-.4309 2.0526-.4208.4013-.0031.8014.0452 1.1905.1437.3594.0838.705.2186 1.0263.4003.2597.1407.501.3131.7184.5131.1833.1592.3485.3382.4926.5337h.0616v-7.18402h2.5759zm-8.4566-5.2238c.0017.4072.0639.8119.1847 1.2008.1146.3735.2992.7218.544 1.0263.2654.3329.6051.599.9918.7772s.8097.2635 1.2352.2491c.4287.045.8619-.0148 1.2623-.1745.3637-.1855.6851-.444.9442-.7595.2645-.301.4699-.6492.6055-1.0262.1337-.3828.203-.7851.2053-1.1905-.0032-.4087-.0725-.8142-.2053-1.2008-.1365-.3766-.3418-.7247-.6055-1.0263-.2643-.3128-.5844-.5738-.9442-.7697-.3899-.2015-.8234-.3037-1.2623-.2976-.4515-.0131-.8992.0856-1.3034.2873-.363.1776-.6793.4377-.9236.7595-.2436.3053-.428.6533-.544 1.0263-.1143.3622-.1765.7389-.1847 1.1186zm10.7863-8.53867c-.002-.20335.038-.40492.1174-.59211.0795-.18719.1967-.35596.3444-.49576.1553-.14917.3387-.26593.5396-.34346.2008-.07753.4152-.11428.6304-.1081.4341-.013.8566.14132 1.1802.43104.1567.13817.281.30905.3644.50058.0833.19152.1236.39901.118.60781.007.20748-.0327.41389-.1162.60396-.0835.19008-.2087.35896-.3662.49416-.3197.29722-.744.45587-1.1802.44131-.2163.0072-.4317-.03007-.6329-.10951-.2013-.07944-.3841-.19936-.5371-.35232-.1464-.13862-.2629-.30573-.3423-.49105-.0795-.18532-.1201-.38493-.1195-.58655zm.3695 3.48937h2.5657v10.2629h-2.5247zm7.9126-5.91141v7.18401h.0616c.1498-.1906.3146-.3691.4926-.5337.2193-.1977.4603-.3698.7184-.5131.3222-.1797.6675-.3144 1.0263-.4003.4114-.1117.8361-.1669 1.2623-.1642.7068-.0115 1.4074.1322 2.0526.4208.5757.2856 1.0859.6875 1.4984 1.1802.4534.5047.8022 1.0942 1.0263 1.7345.2355.6588.3569 1.3529.3592 2.0525.0094.7374-.1123 1.4706-.3592 2.1655-.2275.6387-.5759 1.2276-1.0263 1.7344-.4623.521-1.0318.9357-1.6696 1.2157-.6378.2799-1.3286.4184-2.025.4059-.7121.009-1.416-.1529-2.0526-.4721-.6008-.3066-1.0999-.7807-1.4368-1.365v1.5394h-2.4939v-16.18451zm5.8909 10.96071c-.0011-.4038-.0634-.8052-.1847-1.1905-.1239-.3695-.3077-.7162-.544-1.0262-.2643-.3342-.6038-.6012-.9907-.7796-.387-.1783-.8105-.2628-1.2363-.2467-.4388-.0061-.8724.0961-1.2623.2976-.361.1984-.6841.459-.9545.7697-.2604.3022-.4622.6502-.5952 1.0263-.1377.3853-.2072.7916-.2053 1.2008-.0028.4058.0667.809.2053 1.1904.1318.3766.3338.7249.5952 1.0263.2643.3143.5889.5725.9545.7595.4001.1928.8386.2929 1.2828.2929s.8827-.1001 1.2829-.2929c.3598-.187.6749-.4496.9236-.7697.2373-.3094.4211-.6563.544-1.0263.1238-.3987.1861-.814.1847-1.2316zm4.7004-10.96071h2.5764v16.18451h-2.5764zm15.0764 11.17631v.3386c.01.1127.01.226 0 .3387h-7.81c.023.3583.121.7079.287 1.0263.169.3011.392.5689.657.7902.278.2221.59.3988.924.5234.328.123.675.189 1.026.195.562.0159 1.119-.1075 1.621-.3592.47-.2301.87-.5807 1.16-1.016l1.714 1.3752c-.508.6807-1.177 1.2246-1.948 1.5828-.77.3583-1.617.5197-2.465.4698-.753.0093-1.5-.1194-2.207-.3797-.643-.2229-1.237-.5718-1.744-1.0263-.502-.4698-.895-1.0444-1.15-1.6831-.289-.717-.432-1.4847-.42-2.2578-.009-.7729.134-1.5399.42-2.2579.252-.6478.637-1.2355 1.13-1.7252.494-.4897 1.084-.8704 1.734-1.1176.686-.2704 1.417-.4063 2.155-.4002.677-.0036 1.348.1181 1.981.3592.592.2226 1.128.573 1.57 1.0262.459.5.809 1.0909 1.026 1.7345.255.7951.37 1.6286.339 2.4631zm-2.576-1.1597c.003-.3197-.042-.638-.134-.9442-.091-.291-.241-.56-.441-.7903-.211-.2339-.47-.4194-.759-.5439-.326-.135-.674-.2047-1.027-.2053-.717-.0174-1.415.2312-1.96.6979-.261.2225-.475.4953-.628.8021s-.243.6413-.265.9837z"/></g></svg>