<svg fill="none" height="35" viewBox="0 0 135 35" width="135" xmlns="http://www.w3.org/2000/svg" xmlns:xlink="http://www.w3.org/1999/xlink"><linearGradient id="a" gradientUnits="userSpaceOnUse" x1="46.4241" x2="21.3535" y1="15.3688" y2="15.3688"><stop offset=".3554" stop-color="#2075bc"/><stop offset=".6455" stop-color="#2390b2"/><stop offset=".8762" stop-color="#26a1a9"/><stop offset="1" stop-color="#28a7a4"/></linearGradient><linearGradient id="b" gradientUnits="userSpaceOnUse" x1="7.11829" x2="20.9643" y1="7.42701" y2="7.42701"><stop offset="0" stop-color="#e55948"/><stop offset=".541" stop-color="#e55b47"/><stop offset="1" stop-color="#f28e34"/></linearGradient><linearGradient id="c" gradientUnits="userSpaceOnUse" x1="16.4258" x2="38.5604" y1="16.1741" y2="20.879"><stop offset="0" stop-color="#2075bc"/><stop offset=".2755" stop-color="#27a6a5"/><stop offset="1" stop-color="#2ab59d"/></linearGradient><linearGradient id="d" gradientUnits="userSpaceOnUse" x1="2.09679" x2="20.9528" y1="17.2191" y2="17.2191"><stop offset=".4796" stop-color="#fab824"/><stop offset="1" stop-color="#f08438"/></linearGradient><path d="m47.282 2.05505s-22.9974 1.52146-24.5189 4.09623l-4.1547 22.58782z" fill="#2175bc"/><path d="m47.3406 1.99658s-22.9389 1.57998-24.5189 4.09623l-4.1547 22.58779z" fill="url(#a)" opacity=".61"/><path d="m20.9498 5.7417s.8778-1.75553-13.81015-.87776l1.81404 4.50585 11.17681.87781z" fill="url(#b)"/><path d="m33.4719 7.67274s-10.1235-.05851-10.6502-1.3459c0-.05852 0-.05852 0-.11703 0-1.40443-4.1547 22.52929-4.1547 22.52929z" fill="url(#c)"/><path d="m2.10645 9.25275s17.67225-.76073 18.84265-3.51105l-4.1547 22.9389z" fill="url(#d)"/><g fill="#262626"><path d="m54.4793 12.8223h2.2237l-5.9688 13.8102h-2.1066l-5.9103-13.8102h2.3407l4.6814 11.411z"/><path d="m58.8682 26.6325v-13.8686h2.2236v13.8686z"/><path d="m64.3101 25.0525.7607-1.6385c.7607.5852 1.5214.9948 2.2822 1.2874.7607.2341 1.6385.4096 2.5747.4096 1.0534 0 1.8141-.1755 2.3993-.5266.5266-.3511.8192-.8778.8192-1.58 0-.5267-.1755-.9948-.5267-1.3459-.3511-.3511-.9947-.5852-1.814-.7607l-2.3407-.5267c-1.1703-.2341-2.0481-.7022-2.6918-1.4044-.6437-.6437-.9363-1.463-.9363-2.3992 0-1.2289.4682-2.2237 1.463-2.9844.9948-.7608 2.2821-1.1704 3.8621-1.1704.9948 0 1.8726.1756 2.7503.4682.8778.2925 1.58.7607 2.1652 1.3459l-.7607 1.6385c-1.2874-1.1119-2.6918-1.6385-4.1548-1.6385-.9948 0-1.7555.1755-2.2822.5851-.5266.3511-.8192.8778-.8192 1.58 0 .5852.1755.9948.5266 1.3459s.8778.5852 1.6385.7607l2.3407.5852c1.2874.2926 2.2237.7607 2.8674 1.3459.6437.6437.9363 1.4044.9363 2.3992 0 1.1704-.4682 2.1652-1.463 2.8674s-2.2821 1.0533-3.9792 1.0533c-2.3992.1171-4.2717-.5266-5.6176-1.697z"/><path d="m88.6535 13.3489c.9363.5852 1.6385 1.463 2.1652 2.5748.5266 1.1118.7607 2.3407.7607 3.8036 0 1.463-.2341 2.6919-.7607 3.7452-.5267 1.0533-1.2289 1.931-2.1652 2.5162s-1.9896.8778-3.2185.8778c-1.1118 0-2.0481-.2341-2.8088-.7022-.8193-.4682-1.4044-1.1704-1.8726-2.0481v8.5435h-2.2236v-15.9753c0-1.4629-.0585-2.7503-.2341-3.8621h2.1066l.2341 2.6918c.4096-.9363.9948-1.697 1.814-2.2237.8193-.5266 1.8141-.7607 2.9844-.7607 1.2289-.117 2.2822.2341 3.2185.8192zm-.4681 10.2406c.7607-.9363 1.1118-2.2237 1.1118-3.9207s-.3511-2.9844-1.1118-3.9792c-.7608-.9362-1.8141-1.4044-3.16-1.4044-1.4044 0-2.4577.4682-3.1599 1.4044-.7608.9363-1.1119 2.2237-1.1119 3.9207s.3511 3.0429 1.1119 3.9792c.7607.9363 1.814 1.4044 3.1599 1.4044s2.3992-.4681 3.16-1.4044z"/><path d="m106.384 20.0785h-10.182c0 1.7555.4097 2.6918 1.2289 3.5696.8192.8777 1.9311 1.3459 3.4521 1.3459 1.639 0 3.102-.5267 4.448-1.6385l.761 1.6385c-.586.5852-1.405.9948-2.341 1.3459s-1.931.4681-2.926.4681c-2.1652 0-3.8622-.6437-5.0911-1.9311-1.2289-1.2873-1.8726-3.0429-1.8726-5.2665 0-1.4045.2926-2.6918.8193-3.7452.5266-1.1118 1.3459-1.931 2.3407-2.5747.9948-.5852 2.1066-.9363 3.3937-.9363 1.814 0 3.277.5852 4.331 1.814 1.053 1.2289 1.58 2.8674 1.58 4.974v.9363zm-8.719-4.857c-.7022.7023-1.1704 1.6971-1.4044 2.9259h8.0754c-.117-1.2874-.468-2.2822-1.17-2.9844-.644-.7022-1.58-.9948-2.692-.9948s-2.0483.3511-2.809 1.0533z"/><path d="m117.152 12.5883-.059 2.0481c-.409-.1755-.936-.2341-1.463-.2341-1.346 0-2.34.4097-2.984 1.2289-.644.8193-.995 1.8726-.995 3.0429v7.9584h-2.224v-9.948c0-1.4629-.058-2.7503-.234-3.8621h2.107l.234 2.5747c.351-.9362.936-1.6385 1.697-2.1651.761-.4682 1.639-.7607 2.633-.7607.527-.0586.937 0 1.288.117z"/><path d="m131.079 12.7638v13.8687h-2.224v-2.5163c-.41.8778-.995 1.5215-1.814 1.9896-.819.4682-1.756.7022-2.867.7022-1.229 0-2.283-.2926-3.219-.8777-.936-.5852-1.638-1.4045-2.165-2.5163-.527-1.0533-.761-2.3407-.761-3.7451 0-1.463.234-2.6918.761-3.8037.527-1.1118 1.229-1.931 2.165-2.5747.936-.5852 1.99-.9363 3.219-.9363 1.053 0 2.048.2341 2.808.7022.82.4681 1.405 1.1703 1.873 1.9896v-2.3992h2.224zm-3.336 10.8258c.761-.9363 1.112-2.2237 1.112-3.9792 0-1.697-.351-3.0429-1.112-3.9207-.761-.9363-1.755-1.4044-3.16-1.4044-1.346 0-2.399.4681-3.16 1.4044-.76.9363-1.17 2.2822-1.17 3.9792s.351 2.9844 1.112 3.9207c.761.9362 1.814 1.4044 3.218 1.4044 1.405 0 2.458-.4682 3.16-1.4044z"/><path d="m59.9806 9.72089c.7756 0 1.4044-.62878 1.4044-1.40442s-.6288-1.40442-1.4044-1.40442-1.4044.62878-1.4044 1.40442.6288 1.40442 1.4044 1.40442z"/></g></svg>