<svg fill="none" height="62" viewBox="0 0 54 62" width="54" xmlns="http://www.w3.org/2000/svg" xmlns:xlink="http://www.w3.org/1999/xlink"><clipPath id="a"><path d="m0 0h53.8531v61.6628h-53.8531z"/></clipPath><g clip-path="url(#a)"><g fill="#000"><path d="m50.1629 3.11381h.3743c.4614 0 .8394-.15303.8394-.55766 0-.30433-.2232-.58607-.8093-.58607-.1833 0-.3082 0-.4046.01335v1.13038zm0 1.9659h-.6276v-3.48585c.2912-.04154.5844-.09836 1.0454-.09836.5576 0 .9054.11343 1.1284.28174.1948.15303.3063.38741.3063.72403 0 .44617-.2929.73716-.6672.83552v.02647c.3043.05682.4989.33468.569.85252.0833.54431.1531.7505.2099.86393h-.641c-.0833-.11343-.1549-.43283-.2249-.8904-.068-.42142-.3043-.58779-.7373-.58779h-.3612v1.47819zm.571-4.419725c-1.38 0-2.4953 1.156855-2.4953 2.606855 0 1.44999 1.1153 2.60685 2.5084 2.60685 1.3799.01506 2.4821-1.15686 2.4821-2.60685 0-1.45-1.1022-2.606855-2.4821-2.606855zm.0131-.529248c1.726 0 3.106 1.395113 3.106 3.122973 0 1.75626-1.38 3.14944-3.1191 3.14944-1.7412 0-3.1494-1.39318-3.1494-3.14944 0-1.72786 1.4082-3.122973 3.1494-3.122973z"/><path d="m5.99796 56.033-.52365-3.1019c-.14937-.894-.34028-2.2913-.48577-3.2592h-.05682c-.15303.9752-.36675 2.4121-.52365 3.2668l-.56347 3.0943zm-2.43467 2.0212-.68055 3.4424h-2.514088l3.136098-14.3216h3.08122l2.84876 14.3216h-2.52721l-.66549-3.4424z"/><path d="m15.1574 55.0993c0-.1909 0-.4141-.0379-.6183-.1001-.7071-.4763-1.3439-1.0813-1.3439-1.0378 0-1.4197 1.4952-1.4197 3.2439 0 2.0094.5444 3.1531 1.3837 3.1531.3838 0 .8261-.1967 1.0663-1.04.0585-.1681.0889-.393.0889-.6558zm2.5804-8.3044v11.7317c0 .9298.0473 2.0737.0852 2.9678h-2.2287l-.1455-1.193h-.0529c-.3743.7356-1.189 1.3611-2.1627 1.3611-2.1342 0-3.1927-2.3553-3.1927-5.3291 0-3.6236 1.5783-5.3856 3.2986-5.3856.8999 0 1.4821.4405 1.7752 1.0778h.0435v-5.2307z"/><path d="m23.112 59.6835c.9849 0 1.2288-1.8564 1.2288-3.3933 0-1.4612-.2439-3.3651-1.272-3.3651-1.0891 0-1.3179 1.9039-1.3179 3.3651 0 1.7638.2874 3.3933 1.3383 3.3933zm-.049 1.9792c-2.3781 0-3.8696-1.9093-3.8696-5.3269 0-3.7299 1.9149-5.3878 3.93-5.3878 2.346 0 3.8167 2.0023 3.8167 5.3273 0 4.2723-2.3042 5.3874-3.8563 5.3874z"/><path d="m30.9627 57.7892c0 .259.0474.5011.1023.6634.2589.868.6975 1.0815 1.049 1.0815.9982 0 1.4009-1.2649 1.4009-3.2876 0-1.8413-.4255-3.1094-1.4123-3.1094-.4894 0-.9016.5314-1.0434 1.1022-.0493.1795-.0965.459-.0965.6519zm-2.5806-10.9943h2.5804v5.4064h.0416c.5083-.7979 1.1852-1.2535 2.1682-1.2535 1.9452 0 2.9226 2.2119 2.9226 5.1041 0 3.6544-1.4576 5.6106-3.3462 5.6106-.8999 0-1.4991-.399-2.0397-1.41h-.0545l-.1435 1.2419h-2.2156c.0379-.8601.0867-2.038.0867-2.9678z"/><path d="m42.2789 55.3166c.0133-1.4573-.4141-2.4786-1.2326-2.4786-.9339 0-1.331 1.3672-1.3592 2.4786zm-2.6013 1.8245c.0304 1.877 1.0172 2.4879 2.2421 2.4879.7767 0 1.4422-.1724 1.9338-.3573l.3478 1.8563c-.6844.2947-1.7412.48-2.7545.48-2.7693 0-4.2818-1.8925-4.2818-5.1248 0-3.4689 1.7544-5.5523 4.0455-5.5523 2.2136 0 3.4404 1.8413 3.4404 4.847 0 .688-.0284 1.0757-.0738 1.3779z"/></g><path d="m28.146.00036621h16.5068v39.51863379z" fill="#ed1c24"/><path d="m16.5162 0h-16.5162v39.5186z" fill="#ed1c24"/><path d="m15.1138 31.5677 7.2194-17.0061 10.5161 24.955h-6.8904l-3.1458-7.9489z" fill="#ed1c24"/></g></svg>