<svg width="37" height="14" viewBox="0 0 37 14" fill="none" xmlns="http://www.w3.org/2000/svg">
<g clip-path="url(#clip0)">
<path d="M35.7636 1.50005C35.5292 1.45246 35.3021 1.60404 35.2549 1.8377C35.2544 1.84029 35.254 1.84266 35.2534 1.84524C35.1919 2.15018 35.1319 2.45755 35.0733 2.76413C34.7999 4.08924 34.3364 5.69865 33.0769 5.80742C32.7538 5.83514 32.6309 5.73228 32.5594 5.63947C32.1287 5.08009 32.488 3.28681 32.8805 2.19208C32.961 1.96777 32.8446 1.72069 32.6202 1.64004C32.4259 1.5702 32.2139 1.64866 32.1085 1.81731L31.9867 1.92259C31.4752 2.36481 30.8045 2.94472 30.1169 3.34948C30.0312 3.17622 29.9276 3.01693 29.8066 2.87695C29.3427 2.34055 28.6579 2.10597 27.9278 2.23307C27.3931 2.32602 26.9691 2.73127 26.8969 3.21826C26.8655 3.43021 26.8884 3.60277 26.9441 3.74681C26.8734 3.79779 26.8093 3.85386 26.7498 3.91322C26.709 3.92789 26.67 3.94905 26.6338 3.97695C26.1649 4.33852 25.7892 4.54924 25.4805 4.40119C25.2518 4.29148 25.2153 4.09472 25.2085 3.47546C25.2079 3.41872 25.2074 3.36139 25.2061 3.30402C25.2015 3.06875 25.0092 2.881 24.7748 2.881C24.7718 2.881 24.7691 2.881 24.7661 2.88117C24.763 2.88117 24.7601 2.88152 24.7569 2.88173C24.5617 2.88466 24.386 3.0206 24.3421 3.21994C24.1859 3.92813 24.0175 4.64753 23.8545 5.34302C23.838 5.41355 23.8215 5.4852 23.8048 5.55594C23.7939 5.58039 23.7849 5.60615 23.7785 5.63311C23.6839 6.03106 23.2592 6.67714 22.851 7.04402C22.2855 7.55213 21.517 7.813 20.8818 7.73433C21.2931 7.3552 21.653 6.92495 21.9063 6.48939C22.0707 6.20705 22.5823 5.22479 22.264 4.44163C22.0784 3.98533 21.7097 3.68497 21.2255 3.59548C20.6357 3.48671 19.95 3.72443 19.5179 4.18698C18.9317 4.81514 18.6253 5.85323 18.7897 6.65546C18.8834 7.1127 19.0643 7.5036 19.3205 7.81331C19.1718 7.89526 19.0236 7.96541 18.8788 8.02055C18.667 8.10103 18.1339 8.24947 17.7572 7.88427C17.3331 7.47238 17.4644 6.61921 17.5153 6.3648L17.5159 6.36264C17.7804 5.048 18.1247 3.72848 18.4848 2.42948C20.0487 2.20758 21.0246 2.12141 21.0447 2.11976C21.2822 2.09934 21.4582 1.89029 21.4378 1.65274C21.4175 1.4152 21.2093 1.23957 20.9709 1.25958C20.9519 1.26132 20.1106 1.33549 18.7385 1.52285C18.7963 1.31806 18.8542 1.11376 18.9119 0.910577L19.0139 0.551068C19.0788 0.321801 18.9457 0.0831761 18.7162 0.0181251C18.4866 -0.0468909 18.2483 0.0862838 18.1833 0.315726L18.0813 0.674885C17.9891 1.00004 17.8965 1.32777 17.8041 1.65662C16.1195 1.90886 13.9031 2.29903 11.5058 2.87698C11.2741 2.93285 11.1315 3.16596 11.1874 3.3976C11.235 3.59548 11.4117 3.72827 11.6066 3.72827C11.64 3.72827 11.674 3.72425 11.708 3.71615C13.902 3.18733 15.9414 2.81773 17.5511 2.56821C17.2258 3.75714 16.9179 4.96354 16.6737 6.1729C16.6032 6.40175 16.5472 6.63339 16.4933 6.85735C16.3863 7.30376 16.285 7.72553 16.0809 8.08965C15.9404 8.3406 15.6055 8.65147 15.3095 8.71683C15.1716 8.74732 15.0971 8.70985 15.0477 8.67424C14.943 8.59846 14.8999 8.37513 14.9259 8.04632C14.9542 7.69323 15.0136 7.34011 15.0914 6.98892C15.2845 6.43869 15.4275 5.87694 15.5475 5.34256C15.5983 5.11623 15.4611 4.89004 15.2368 4.83075C15.0124 4.77121 14.7813 4.89999 14.7135 5.12171C14.6615 5.29165 14.6094 5.46268 14.5582 5.63479C14.2904 5.19773 13.872 4.88895 13.4125 4.80347C12.5546 4.64383 11.804 5.23715 11.3873 5.84562C11.1321 6.21853 10.9443 6.63573 10.83 7.07219C10.8079 7.11043 10.7913 7.15194 10.7813 7.19713C10.7337 7.41431 10.7001 7.62591 10.6675 7.83053C10.5549 8.5382 10.4661 9.09663 9.88915 9.50523C9.70123 9.63827 9.40897 9.70217 9.24562 9.57797C9.14496 9.5015 9.07641 9.33948 9.0665 9.15466C9.03657 8.594 9.31343 8.05023 9.65066 7.44804C9.75982 7.25373 9.70269 7.00795 9.51903 6.88151C9.47028 6.84809 9.37332 6.79188 9.15875 6.66823C8.85804 6.49484 8.08679 6.05009 7.88402 5.88144C7.82194 5.77159 7.71258 5.68985 7.57832 5.66775C7.34319 5.62885 7.12108 5.78793 7.08232 6.02328C6.91129 7.05823 6.71803 8.06315 6.23746 8.97983C5.85938 9.70136 5.1442 10.265 4.32451 10.488C3.59352 10.686 2.86476 10.5924 2.27235 10.2231C1.58895 9.7969 1.08447 9.02124 0.922798 8.14866C0.773107 7.34039 0.903349 6.4257 1.2895 5.57239C1.60086 4.88406 2.28255 3.66171 3.34847 3.20772C3.93009 2.96008 4.58426 2.97168 5.05582 3.23803C5.48237 3.47924 5.7608 4.01382 5.71751 4.50926C5.69526 4.76479 5.57494 5.10265 5.128 5.26103C4.9033 5.34054 4.78556 5.58726 4.86528 5.81192C4.94482 6.03658 5.19141 6.15411 5.4162 6.07461C6.09248 5.83507 6.51593 5.29183 6.57766 4.58419C6.64983 3.75491 6.19867 2.89245 5.48038 2.48647C4.76964 2.08492 3.84615 2.05751 3.01009 2.41349C1.67495 2.98208 0.866267 4.41373 0.503092 5.2163C0.0449064 6.2289 -0.107403 7.32601 0.0740973 8.30589C0.279132 9.41249 0.929991 10.403 1.81542 10.9553C2.34418 11.2848 2.94856 11.4531 3.577 11.4531C3.89755 11.4531 4.22458 11.4094 4.55085 11.3209C5.59816 11.0365 6.51449 10.3112 7.00205 9.38058C7.4264 8.5712 7.64627 7.73161 7.80979 6.87187C8.09709 7.05194 8.43732 7.24849 8.69564 7.39773C8.39727 7.96974 8.16965 8.55098 8.20456 9.20096C8.22831 9.64518 8.41749 10.0331 8.72354 10.2657C9.17415 10.6078 9.8586 10.5846 10.388 10.2099C10.7079 9.9828 10.9289 9.7234 11.0867 9.44856C11.2237 9.63596 11.3944 9.7844 11.595 9.88503C11.7914 9.98426 12.013 10.0339 12.242 10.0339C12.4452 10.0339 12.6545 9.99495 12.8574 9.91632C13.1721 9.7947 13.4712 9.5838 13.7718 9.2715C13.9066 9.13113 14.0317 8.98308 14.1477 8.8284C14.2274 9.05913 14.3588 9.24101 14.5415 9.37325C14.816 9.57203 15.146 9.6367 15.4952 9.55953C16.0841 9.42985 16.602 8.92543 16.8339 8.51166C16.8792 8.43048 16.9189 8.34853 16.9566 8.26584C17.0163 8.35184 17.0823 8.43156 17.1561 8.50363C17.482 8.81963 17.9106 8.9827 18.3771 8.9827C18.6386 8.9827 18.9119 8.93126 19.1856 8.82731C19.4709 8.71858 19.763 8.56613 20.0485 8.38163C20.1337 8.42203 20.2225 8.45803 20.3147 8.4882C21.2402 8.79313 22.4179 8.51428 23.297 7.79638C23.2253 8.1502 23.1636 8.51246 23.1045 8.8652C23.0692 9.07495 23.0336 9.28658 22.9955 9.49783C21.9155 9.6389 20.8135 9.805 19.8391 10.2694C19.2962 10.5277 18.8869 10.9256 18.6871 11.3893C18.4916 11.843 18.4931 12.3468 18.6911 12.8075C18.8834 13.255 19.2363 13.6077 19.685 13.801C19.9461 13.9131 20.2342 13.9685 20.5291 13.9685C20.969 13.9685 21.4236 13.8451 21.824 13.6055C22.3736 13.2763 22.8346 12.7392 23.157 12.0514C23.4219 11.4867 23.5926 10.8844 23.7235 10.2738C23.8233 10.2606 23.9221 10.2469 24.0201 10.2331C25.5257 10.0196 27.017 9.8961 28.4043 9.7947C28.6421 9.77706 28.8206 9.5706 28.8033 9.3325C28.7859 9.09513 28.5792 8.91656 28.3413 8.93346C26.9389 9.03633 25.4299 9.16123 23.8988 9.37838C23.8968 9.37873 23.8947 9.37873 23.8927 9.3795C23.914 9.2553 23.935 9.13113 23.9558 9.00798C24.0289 8.57339 24.0978 8.16263 24.186 7.76066C24.3483 7.01957 24.5245 6.26745 24.6948 5.53981C24.7368 5.3602 24.7793 5.17887 24.8219 4.99664C24.9024 5.0648 24.9965 5.12632 25.107 5.17943C25.3055 5.27441 25.5016 5.31351 25.6908 5.31351C25.867 5.31351 26.0366 5.27894 26.1968 5.22531C26.1564 5.7489 26.2693 6.25792 26.4512 6.55646C26.8019 7.13236 27.454 7.48911 28.1231 7.48911C28.1966 7.48911 28.2703 7.48509 28.3439 7.47629C29.1695 7.37713 29.8397 6.81272 30.1824 5.92729C30.3998 5.36547 30.4593 4.75065 30.3739 4.1876C30.8351 3.93665 31.2766 3.62177 31.6732 3.30908C31.4691 4.27839 31.3605 5.49725 31.8751 6.16574C32.0765 6.42752 32.4611 6.72714 33.1511 6.66743C33.6646 6.62298 34.0818 6.43429 34.4233 6.15212C34.3515 6.49899 34.2765 6.84471 34.1975 7.18749C34.1524 7.38366 34.1081 7.61292 34.0613 7.85539C33.8462 8.97086 33.521 10.6566 32.6649 11.0122C32.3339 11.1496 31.963 11.1298 31.647 10.9578C31.3415 10.7917 31.1308 10.5033 31.0691 10.1664C31.0171 9.88349 31.0766 9.60422 31.2324 9.40073C31.3798 9.20819 31.5983 9.09429 31.8647 9.07226C32.1022 9.05201 32.2787 8.84334 32.2587 8.60566C32.2387 8.36829 32.0295 8.19189 31.7925 8.21179C31.284 8.25474 30.8416 8.49064 30.5466 8.87644C30.2433 9.27324 30.1242 9.80049 30.2199 10.3222C30.3291 10.917 30.6989 11.4252 31.2346 11.7162C31.5403 11.8822 31.8757 11.966 32.2123 11.966C32.4773 11.966 32.7433 11.9142 32.9958 11.8095C34.2808 11.276 34.6438 9.39339 34.9089 8.01887C34.9542 7.78409 34.997 7.56257 35.0387 7.38104C35.2974 6.25949 35.5112 5.11375 35.7181 4.00565C35.7844 3.64925 35.8522 3.28642 35.9217 2.92286C35.9609 2.73256 35.9959 2.55016 36.0284 2.38042C36.0535 2.24948 36.0774 2.12469 36.101 2.00841C36.1481 1.77496 35.9969 1.54715 35.7634 1.49995L35.7636 1.50005ZM14.0095 7.36756C13.7865 7.85186 13.5078 8.3009 13.1498 8.67305C12.9385 8.89275 12.7412 9.03605 12.5465 9.11137C12.3447 9.18923 12.1342 9.1907 11.9836 9.1143C11.6941 8.96876 11.5778 8.53118 11.5655 8.17003C11.5433 7.52154 11.733 6.86901 12.0999 6.33331C12.3279 6.00009 12.7228 5.64076 13.1312 5.64076C13.1723 5.64076 13.2135 5.64446 13.2546 5.652C13.5208 5.70158 13.7765 5.93675 13.906 6.25108C14.0258 6.54124 14.0596 6.90648 14.0095 7.36756H14.0095ZM20.0374 7.32461C19.8423 7.11706 19.7077 6.83559 19.6353 6.48216C19.5265 5.95051 19.7521 5.20118 20.1489 4.7761C20.3464 4.56468 20.6565 4.43216 20.9306 4.43216C20.978 4.43216 21.0245 4.43601 21.0687 4.44432C21.2613 4.47979 21.3906 4.58521 21.4642 4.76671C21.5723 5.03232 21.4471 5.56212 21.1602 6.05502C20.8992 6.50363 20.4919 6.95501 20.0374 7.32461ZM22.3756 11.6851C22.2018 12.0558 21.8882 12.5614 21.3807 12.8649C20.9457 13.1257 20.4265 13.1801 20.0262 13.0082C19.785 12.9041 19.5875 12.7068 19.4843 12.467C19.3808 12.2263 19.3792 11.9647 19.4799 11.731C19.5969 11.4595 19.8563 11.2174 20.2103 11.0484C20.9822 10.681 21.8956 10.5186 22.8106 10.3936C22.7013 10.8456 22.5643 11.2828 22.3756 11.6851ZM27.7509 3.34501C27.768 3.22891 27.9137 3.1117 28.0757 3.08359C28.1565 3.06945 28.2357 3.06246 28.3127 3.06246C28.6457 3.06246 28.9388 3.19305 29.1535 3.44146C29.2231 3.5219 29.2837 3.61485 29.3353 3.71702C28.8017 3.89503 28.291 3.8921 27.872 3.55738C27.7354 3.44823 27.7365 3.44055 27.7509 3.34501H27.7509ZM29.3774 5.61579C29.2461 5.95547 28.9237 6.53747 28.2416 6.61897C27.835 6.66785 27.4017 6.45751 27.1886 6.10743C27.0997 5.96154 27.0234 5.61415 27.0577 5.2581C27.079 5.03637 27.162 4.63353 27.4794 4.42612C27.501 4.41181 27.5209 4.3962 27.5391 4.37892C28.1677 4.77722 28.8599 4.77006 29.542 4.55141C29.5611 4.90477 29.508 5.27839 29.3774 5.61586L29.3774 5.61579Z" fill="#38BFC3"/>
<path d="M25.2037 1.63159C25.2085 1.63159 25.2203 1.63141 25.2252 1.63124C25.5576 1.62041 25.8195 1.35511 25.8092 1.03974C25.7988 0.730512 25.535 0.48822 25.2089 0.48822C25.2039 0.48822 25.192 0.488395 25.1872 0.488569C24.8549 0.499813 24.5931 0.764905 24.6034 1.08014C24.6139 1.38951 24.8775 1.63159 25.2037 1.63159ZM17.3953 10.5338C15.3479 10.8123 9.99727 11.6172 4.5427 13.0707C4.31235 13.1321 4.17547 13.3683 4.23682 13.599C4.28826 13.792 4.46281 13.9195 4.65367 13.9195C4.69043 13.9195 4.7279 13.9147 4.76498 13.9048C8.5166 12.9051 13.2816 11.9645 17.5116 11.3891C17.7479 11.3572 17.9134 11.1396 17.8812 10.9031C17.8491 10.6672 17.6307 10.5019 17.3953 10.5338L17.3953 10.5338Z" fill="#38BFC3"/>
</g>
<defs>
<clipPath id="clip0">
<rect width="36.11" height="13.9691" fill="white"/>
</clipPath>
</defs>
</svg>
