<svg width="46" height="45" viewBox="0 0 46 45" fill="none" xmlns="http://www.w3.org/2000/svg">
<path d="M21.8848 37.2887C21.8673 37.2645 21.8441 37.2449 21.8174 37.2315C21.7907 37.2181 21.7611 37.2114 21.7312 37.2119C21.5998 37.2181 21.4708 37.2497 21.3514 37.3049C21.2982 37.3319 21.2408 37.3496 21.1816 37.3574C21.0967 37.3735 21.0078 37.3978 20.9149 37.4139C20.5835 37.4665 20.1188 37.4827 20.1188 37.4827C20.2158 37.3048 20.3855 37.0017 20.4623 36.8684C20.539 36.735 20.6118 36.5855 20.6967 36.4319C20.7816 36.2784 20.8785 36.0965 20.9917 35.8944C21.1048 35.6924 21.2544 35.4337 21.4281 35.1347C21.4895 35.0406 21.541 34.9404 21.5817 34.8356C21.6066 34.7767 21.6203 34.7137 21.6221 34.6497C21.6176 34.5687 21.5911 34.4905 21.5453 34.4235C21.5 34.3437 21.4443 34.2703 21.3796 34.2052C21.3113 34.1427 21.2368 34.0871 21.1573 34.0395C21.0878 34.0017 21.0102 33.9809 20.9311 33.9789C20.8504 33.9678 20.7683 33.9851 20.699 34.0279C20.6297 34.0706 20.5774 34.1362 20.5512 34.2133C20.5512 34.2133 20.5067 34.3305 20.4906 34.3669C20.4744 34.4032 20.4461 34.4881 20.4299 34.5245C20.4138 34.5609 20.3653 34.6497 20.3653 34.6497C20.2077 34.9932 20.0743 35.2802 19.9652 35.4984C19.8561 35.7247 19.751 35.9308 19.6621 36.1289C19.5651 36.3188 19.4681 36.5209 19.363 36.735C19.258 36.9492 19.1246 37.22 18.9589 37.5392C18.9226 37.5473 18.8983 37.5473 18.87 37.5514C18.8417 37.5554 18.8094 37.5594 18.7771 37.5675C18.7448 37.5756 18.6679 37.5797 18.5992 37.5837C18.5305 37.5877 18.4578 37.5999 18.3446 37.6039C18.3097 37.6059 18.2746 37.6059 18.2396 37.6039C18.183 37.6039 18.1062 37.5958 17.9971 37.5877C17.9607 37.5797 17.8354 37.5716 17.8354 37.5716C17.7628 37.5679 17.6903 37.5805 17.6232 37.6085C17.556 37.6364 17.496 37.6791 17.4475 37.7332C17.3484 37.8535 17.2967 38.0059 17.302 38.1616C17.2947 38.2348 17.3083 38.3085 17.3412 38.3743C17.3741 38.4401 17.425 38.4953 17.4879 38.5334C17.6777 38.6195 17.8867 38.6543 18.0941 38.6344C18.1914 38.6326 18.2885 38.6258 18.385 38.6142C18.3972 38.6142 18.4093 38.6102 18.4215 38.6102C18.3406 38.8163 18.2679 38.9779 18.2113 39.1032C18.1547 39.2285 18.086 39.3901 17.9971 39.5881C17.7708 40.0852 17.5809 40.5136 17.4394 40.8611C17.2899 41.2087 17.1767 41.5118 17.0919 41.7664C17.0153 41.9886 16.9585 42.2172 16.9221 42.4494C16.8871 42.6549 16.8709 42.8632 16.8736 43.0717C16.8736 43.8355 17.1161 44.2114 17.6051 44.2114C17.6522 44.2138 17.6992 44.2052 17.7425 44.1865C17.7857 44.1678 17.8241 44.1393 17.8546 44.1034C17.8851 44.0674 17.9069 44.0249 17.9183 43.9792C17.9297 43.9334 17.9304 43.8856 17.9203 43.8396C17.9213 43.8134 17.9172 43.7874 17.9082 43.7628C17.8726 43.6732 17.8429 43.5814 17.8193 43.488C17.8142 43.4437 17.8115 43.3992 17.8112 43.3546C17.8317 43.0085 17.9011 42.667 18.0173 42.3403C18.1694 41.8539 18.3516 41.3774 18.5629 40.9137C18.7407 40.5217 18.8821 40.1984 18.9953 39.9519C19.1084 39.7053 19.1852 39.5275 19.2377 39.4144C19.3024 39.2689 19.351 39.1517 19.3873 39.0628C19.4237 38.9739 19.452 38.9011 19.4803 38.8405C19.5086 38.7799 19.5368 38.7153 19.5651 38.6506C19.5853 38.6102 19.6136 38.5495 19.6459 38.4849C19.9781 38.4435 20.3056 38.3704 20.6239 38.2666C20.6667 38.2585 20.7087 38.2464 20.7492 38.2303C20.8907 38.1697 21.0887 38.1212 21.3392 38.008C21.7474 37.81 21.9454 37.6403 21.9454 37.4908C21.9502 37.4183 21.9287 37.3465 21.8848 37.2887ZM44.9361 33.9708C44.8238 33.9653 44.7128 33.9978 44.6212 34.063C44.5295 34.1283 44.4625 34.2225 44.431 34.3305C44.4148 34.4032 44.1279 35.1024 44.0107 35.3529C43.9177 35.5509 43.946 35.5267 43.7924 35.8217C43.6389 36.1167 43.4894 36.44 43.3318 36.7835C43.1742 37.127 43.0286 37.4746 42.8831 37.8181C42.7377 38.1616 42.6165 38.4768 42.5235 38.7597C42.3779 39.1427 42.2604 39.5357 42.1719 39.9357C42.1122 40.254 42.0865 40.5778 42.0951 40.9016C42.0987 40.9513 42.1128 40.9997 42.1365 41.0436C42.1602 41.0875 42.1929 41.1258 42.2325 41.1562C42.3097 41.2264 42.4111 41.264 42.5154 41.2612C42.611 41.2473 42.6991 41.2014 42.7651 41.1309C42.8312 41.0604 42.8714 40.9696 42.8791 40.8733C43.0205 40.3681 43.1701 39.8832 43.3398 39.4104C43.5095 38.9375 43.6914 38.4728 43.9016 38C44.1117 37.5271 44.3461 37.0502 44.6088 36.5612C44.8715 36.0723 45.3928 35.1428 45.4898 34.9569C45.5669 34.8361 45.6153 34.6992 45.6312 34.5568C45.6247 34.4766 45.6011 34.3987 45.5621 34.3283C45.5231 34.2579 45.4695 34.1967 45.4049 34.1486C45.3423 34.0896 45.2687 34.0434 45.1883 34.0129C45.1078 33.9824 45.0221 33.9681 44.9361 33.9708ZM42.1921 43.1566C41.9473 43.1523 41.7071 43.2243 41.5051 43.3627C41.4195 43.409 41.3471 43.4763 41.2948 43.5583C41.2424 43.6403 41.2119 43.7343 41.2061 43.8315C41.2166 43.8917 41.2385 43.9493 41.2707 44.0012C41.2934 44.062 41.3309 44.1161 41.3798 44.1588C41.4748 44.227 41.5906 44.2598 41.7072 44.2518C41.9621 44.2591 42.2135 44.1916 42.4305 44.0578C42.5167 44.0106 42.5892 43.9418 42.6409 43.8582C42.6926 43.7747 42.7218 43.6791 42.7256 43.5809C42.7248 43.5222 42.7101 43.4645 42.6827 43.4125C42.6553 43.3605 42.616 43.3157 42.568 43.2819C42.4611 43.1977 42.3281 43.1534 42.1921 43.1566ZM23.5942 33.9708C23.5023 33.9666 23.412 33.9957 23.3399 34.0529C23.2679 34.1101 23.2189 34.1915 23.2022 34.282C22.9883 34.9088 22.6699 35.495 22.2606 36.0157C22.1354 36.1733 22.0626 36.2662 22.0424 36.2986C22.0199 36.3364 22.0087 36.3799 22.0101 36.4239C22.0101 36.5693 22.1151 36.6421 22.3253 36.6421C22.4736 36.6436 22.6194 36.603 22.7456 36.5249C22.9175 36.4046 23.0712 36.2603 23.2022 36.0965C23.4576 35.8094 23.6862 35.4997 23.8852 35.1711C24.0203 34.9636 24.1086 34.7291 24.1438 34.484C24.1458 34.4173 24.1327 34.351 24.1054 34.2902C24.0781 34.2293 24.0373 34.1754 23.9862 34.1324C23.882 34.029 23.7411 33.971 23.5942 33.9708ZM15.9523 37.5958C15.8428 37.6245 15.7449 37.6866 15.6725 37.7736C15.6 37.8605 15.5566 37.9679 15.5481 38.0808C15.3735 38.4702 15.1792 38.8506 14.9662 39.2204C14.9338 39.273 14.8813 39.382 14.8005 39.5477C14.7196 39.7134 14.6388 39.8993 14.5499 40.1014C14.461 40.3035 14.3721 40.5055 14.2872 40.7035C14.2023 40.9016 14.1296 41.0551 14.0892 41.1562C13.7936 41.784 13.6234 42.4636 13.5881 43.1566C13.5781 43.4266 13.6546 43.6928 13.8063 43.9164C13.8629 44.0074 13.9413 44.0828 14.0345 44.1358C14.1277 44.1887 14.2326 44.2175 14.3397 44.2195C14.4219 44.2213 14.502 44.1941 14.5661 44.1426C14.5957 44.124 14.6204 44.0985 14.638 44.0682C14.6556 44.0379 14.6656 44.0039 14.6671 43.9689C14.6685 43.9375 14.6644 43.906 14.655 43.8759C14.6307 43.7628 14.6186 43.6901 14.6146 43.6658C14.6097 43.6378 14.607 43.6094 14.6065 43.5809C14.6228 43.0392 14.7336 42.5045 14.9338 42.0008C14.9985 41.8351 15.0955 41.6047 15.2248 41.3057C15.3541 41.0066 15.4956 40.7035 15.6492 40.3923C15.8027 40.0812 15.9441 39.7862 16.0775 39.5154C16.2109 39.2447 16.32 39.0467 16.3927 38.9214C16.482 38.7906 16.5604 38.6527 16.6271 38.5092C16.6663 38.4226 16.6883 38.3293 16.6918 38.2343C16.6861 38.1475 16.6619 38.0629 16.6208 37.9862C16.5797 37.9095 16.5226 37.8425 16.4534 37.7898C16.3881 37.7242 16.3097 37.673 16.2234 37.6396C16.1371 37.6062 16.0447 37.5913 15.9523 37.5958ZM40.6928 38.6587C40.7008 38.5163 40.6807 38.3738 40.6335 38.2393C40.5864 38.1047 40.5131 37.9808 40.418 37.8747C40.3144 37.7779 40.1922 37.7032 40.0588 37.6553C39.9253 37.6073 39.7836 37.5871 39.6421 37.5958C39.4358 37.605 39.2342 37.6603 39.052 37.7575C38.7985 37.8873 38.56 38.0444 38.3408 38.2262C38.0642 38.4547 37.8024 38.7004 37.5568 38.9618C37.271 39.266 37.0038 39.5872 36.7566 39.9236C36.3986 40.3903 36.0898 40.8927 35.8352 41.4229C35.6465 41.8084 35.5445 42.2305 35.5362 42.6595C35.5343 42.8617 35.5771 43.0618 35.6614 43.2455C35.7447 43.4263 35.8582 43.5917 35.9969 43.7345C36.1343 43.878 36.2974 43.9945 36.4778 44.078C36.653 44.1622 36.8451 44.2051 37.0395 44.2033C37.3569 44.1994 37.6707 44.1364 37.965 44.0174C38.2816 43.8946 38.5838 43.7373 38.8662 43.5486C39.1248 43.378 39.3563 43.1695 39.5532 42.9303C39.7163 42.7592 39.8137 42.5359 39.828 42.2999C39.8292 42.2589 39.8215 42.2182 39.8055 42.1805C39.7894 42.1428 39.7654 42.1091 39.735 42.0816C39.7103 42.0537 39.6797 42.0317 39.6455 42.017C39.6113 42.0023 39.5742 41.9954 39.537 41.9968C39.4095 42.0102 39.2922 42.0725 39.2097 42.1705C38.9995 42.3685 38.846 42.6272 38.6803 42.7686C38.5252 42.9005 38.3558 43.0144 38.1751 43.1081C38.021 43.1861 37.8582 43.2458 37.6901 43.2859C37.527 43.3224 37.3602 43.34 37.1931 43.3384C37.0112 43.3485 36.8309 43.2988 36.6798 43.197C36.5743 43.0384 36.5233 42.8497 36.5343 42.6595C36.5387 42.5293 36.5604 42.4001 36.599 42.2756C36.6337 42.1422 36.6838 42.0134 36.7485 41.8917C36.9041 41.9286 37.0621 41.9543 37.2213 41.9684C37.3071 41.9797 37.3935 41.9852 37.48 41.9846C37.9233 41.9695 38.3528 41.8263 38.7166 41.5724C39.1903 41.2554 39.6081 40.8621 39.9532 40.4085C40.1632 40.1255 40.3395 39.819 40.4786 39.4952C40.6038 39.233 40.6766 38.9488 40.6928 38.6587ZM39.8078 38.6425C39.7906 38.8271 39.7385 39.0068 39.6542 39.1719C39.5692 39.3731 39.4578 39.562 39.3228 39.7336C39.0347 40.1173 38.7069 40.4695 38.3448 40.7844C38.1471 40.9763 37.8847 41.0872 37.6093 41.0955C37.5245 41.0996 37.1446 41.0955 37.1446 41.0955C37.3062 40.8531 37.4355 40.6591 37.5325 40.5096C37.6295 40.36 37.7104 40.2388 37.775 40.1458C37.8397 40.0529 37.8922 39.9802 37.9407 39.9236C37.9892 39.867 38.0377 39.8023 38.0943 39.7336C38.3497 39.401 38.6337 39.0914 38.9429 38.8082C39.1007 38.6312 39.3052 38.5023 39.533 38.4364C39.6132 38.4384 39.6914 38.4622 39.7593 38.5051C39.7889 38.545 39.8058 38.5929 39.8078 38.6425ZM17.3909 34.8922C17.3215 34.8931 17.2532 34.9096 17.1909 34.9403C17.1287 34.9711 17.0741 35.0154 17.0312 35.07C16.9309 35.1792 16.8747 35.3218 16.8736 35.4701C16.8767 35.5642 16.9017 35.6563 16.9466 35.7391C16.9915 35.8219 17.0551 35.893 17.1323 35.947C17.296 36.0851 17.5041 36.1597 17.7183 36.1571C17.8621 36.1612 18.0022 36.1107 18.1103 36.0157C18.1615 35.9711 18.2022 35.9157 18.2294 35.8535C18.2567 35.7913 18.2698 35.7239 18.2679 35.656C18.2672 35.552 18.2428 35.4496 18.1966 35.3565C18.1503 35.2634 18.0835 35.182 18.0011 35.1185C17.8331 34.9697 17.6154 34.889 17.3909 34.8922ZM25.8695 38.5253C25.8119 38.1848 25.6511 37.8702 25.4088 37.6241C25.2073 37.4128 24.9598 37.251 24.6854 37.1513C24.6854 37.1513 24.6288 37.1311 24.6086 37.123C24.5047 37.0913 24.3976 37.071 24.2893 37.0624C24.0599 37.0588 23.8371 37.1393 23.663 37.2887C23.4409 37.5017 23.2601 37.7537 23.1295 38.0323C22.978 38.3743 22.8602 38.7302 22.7779 39.0951C22.6897 39.4741 22.645 39.8618 22.6445 40.2509C22.6469 40.4467 22.659 40.6423 22.6809 40.8369C22.7092 41.0713 22.7415 41.3097 22.7779 41.5562C22.8143 41.8027 22.8547 42.0291 22.9032 42.2433C22.937 42.4173 22.987 42.5878 23.0527 42.7525C23.0897 42.8488 23.1207 42.9473 23.1457 43.0475C23.1457 43.1202 23.0891 43.1566 22.9719 43.1566C22.8072 43.1574 22.6434 43.1315 22.4869 43.0798C22.1997 42.989 21.9546 42.7983 21.7959 42.5423C21.7262 42.4322 21.6884 42.3049 21.6868 42.1746C21.69 42.0718 21.712 41.9705 21.7514 41.8755C21.7757 41.8218 21.7907 41.7644 21.7959 41.7058C21.7903 41.6231 21.7563 41.5449 21.6995 41.4845C21.6428 41.424 21.5669 41.3851 21.4847 41.3744C21.407 41.3705 21.3293 41.3825 21.2564 41.4096C21.1834 41.4367 21.1167 41.4783 21.0604 41.532C20.9592 41.6609 20.88 41.8057 20.826 41.9604C20.7178 42.2331 20.7036 42.5342 20.7855 42.8159C20.8675 43.0977 21.041 43.3441 21.2786 43.5163C21.5664 43.733 21.887 43.9022 22.2283 44.0174C22.5682 44.1387 22.9262 44.2015 23.2871 44.2033C23.5379 44.218 23.7869 44.1529 23.9984 44.0174C24.0802 43.9625 24.1469 43.8877 24.1921 43.8001C24.2374 43.7125 24.2597 43.6148 24.257 43.5163C24.253 43.4195 24.2395 43.3234 24.2166 43.2293C24.1872 43.0827 24.1481 42.9383 24.0994 42.7969C24.0711 42.6716 24.0347 42.5181 23.9984 42.3281C23.962 42.1382 23.9297 41.9483 23.8973 41.7422C23.865 41.5361 23.8408 41.338 23.8246 41.136C23.8084 40.9339 23.8044 40.752 23.8044 40.5944C23.8034 40.3284 23.8183 40.0626 23.8488 39.7983C23.8812 39.5275 23.9216 39.281 23.966 39.0547C24.0042 38.8681 24.0597 38.6855 24.1318 38.5092C24.1854 38.3456 24.2833 38.2002 24.4146 38.0889C24.4737 38.0755 24.5351 38.0752 24.5943 38.0877C24.6536 38.1003 24.7095 38.1255 24.7581 38.1616C24.8947 38.2535 25.0003 38.3845 25.0612 38.5374C25.1257 38.6707 25.1562 38.8179 25.1501 38.9658C25.1465 39.0682 25.126 39.1692 25.0895 39.2649C25.0625 39.3178 25.0461 39.3754 25.041 39.4346C25.04 39.5231 25.0733 39.6086 25.134 39.673C25.1927 39.7294 25.2708 39.7612 25.3522 39.7619C25.4279 39.7712 25.5048 39.7617 25.576 39.7342C25.6472 39.7067 25.7105 39.6621 25.7603 39.6043C25.8585 39.4786 25.9112 39.3233 25.9099 39.1638C25.9349 38.9503 25.9212 38.734 25.8695 38.5253ZM34.0126 40.3681C34.0288 40.3358 34.0449 40.2954 34.0611 40.2631C34.1581 40.0772 34.6067 39.2568 34.6067 39.2527C34.3763 39.5195 32.0809 42.3807 31.8869 42.6272C31.6929 42.8737 31.3696 43.294 31.1474 43.5971C31.0211 43.7766 30.8551 43.9245 30.6624 44.0295C30.5659 44.073 30.4607 44.0938 30.355 44.0903C30.2492 44.0868 30.1456 44.0591 30.0522 44.0093C29.9808 43.9496 29.9249 43.8737 29.8891 43.7879C29.8532 43.7021 29.8384 43.609 29.846 43.5163C29.8925 43.1953 29.9837 42.8825 30.1168 42.5868C30.2946 42.122 31.7859 39.1598 31.8707 38.982C31.3777 39.5033 30.2825 40.8086 29.9229 41.2168C29.5632 41.6249 29.2399 42.0574 28.9933 42.3847C28.7801 42.682 28.5857 42.9925 28.4114 43.3142C28.2659 43.5648 28.1528 43.8274 28.0881 43.9527C28.0399 44.0336 27.9728 44.1016 27.8926 44.1508C27.8123 44.2001 27.7213 44.2292 27.6274 44.2356C27.5479 44.2385 27.469 44.2215 27.3978 44.1863C27.3265 44.151 27.2651 44.0985 27.2192 44.0335C27.1575 43.9642 27.1139 43.8808 27.092 43.7906C27.0702 43.7004 27.0708 43.6062 27.094 43.5163C27.0988 43.3977 27.1262 43.281 27.1748 43.1727C27.2354 43.0273 27.3324 42.8252 27.4658 42.5665C27.5305 42.4413 27.7244 42.021 27.7891 41.8593C27.8537 41.6977 27.9426 41.4956 28.0518 41.2249C28.1649 40.9622 28.9691 39.0628 29.0661 38.8123C29.1631 38.5617 29.3733 37.8949 29.4258 37.8019C29.4517 37.7595 29.4888 37.725 29.5329 37.7022C29.5771 37.6794 29.6267 37.6691 29.6763 37.6726C29.7644 37.6758 29.8509 37.6964 29.9309 37.7332C30.0651 37.819 30.1739 37.9389 30.2462 38.0808C30.3356 38.2098 30.3886 38.3606 30.3997 38.5173C30.3595 38.7498 30.2802 38.9738 30.1653 39.18C30.0077 39.5114 29.4379 40.4934 29.3773 40.6308C29.9835 39.96 30.4199 39.475 30.7998 39.0749C31.1716 38.6829 31.4707 38.4566 31.6848 38.2505C31.8244 38.0994 31.9787 37.9627 32.1455 37.8423C32.2171 37.7918 32.3008 37.7612 32.388 37.7534C32.4762 37.7565 32.5624 37.7808 32.6391 37.8244C32.7158 37.8681 32.7808 37.9297 32.8285 38.004C33.0669 38.2424 32.9093 38.7354 32.8932 38.8324C32.85 38.9714 32.7987 39.1077 32.7396 39.2406C32.6628 39.4225 32.5456 39.677 32.388 39.9882L31.5353 41.625C31.8182 41.334 32.5294 40.449 32.784 40.1782C33.0386 39.8994 33.168 39.7175 33.3782 39.4831C33.5883 39.2487 33.7701 39.0749 33.9237 38.8931C34.0773 38.7112 34.1864 38.5981 34.2591 38.5011C34.4086 38.3152 34.5218 38.2424 34.6228 38.1252C34.7031 38.0294 34.788 37.9377 34.8774 37.8504C34.93 37.797 34.9916 37.7532 35.0593 37.7211C35.1064 37.7003 35.1573 37.6894 35.2088 37.6888C35.2838 37.6938 35.3562 37.718 35.4192 37.7591C35.4822 37.8001 35.5336 37.8566 35.5685 37.9231C35.6515 38.0415 35.7232 38.1673 35.7827 38.299C35.8054 38.364 35.8177 38.4322 35.819 38.5011C35.8182 38.5868 35.8018 38.6717 35.7705 38.7516C35.7085 38.9074 35.6356 39.0587 35.5523 39.2042C35.4917 39.3214 35.4351 39.4265 35.3826 39.5316C35.3301 39.6366 35.2775 39.7458 35.225 39.8549C35.1724 39.964 35.1159 40.0812 35.0593 40.2105C35.0027 40.3398 34.8492 40.6712 34.6835 41.1036C34.5178 41.536 34.1702 42.5908 34.7441 43.4314C35.3099 44.2639 34.4087 44.474 33.8752 43.9891C33.3418 43.5041 33.2205 42.1503 34.0126 40.3681ZM34.049 23.0311C33.2536 21.9256 32.6686 20.6831 32.3233 19.3657H28.0841C28.0881 19.3859 28.1002 19.4303 28.1002 19.4303C28.6139 21.7336 29.7279 23.8599 31.3292 25.5933C29.5064 27.4994 28.2438 29.8708 27.6799 32.4473H31.8101C32.2785 31.0245 33.0413 29.7163 34.049 28.6081C35.0566 29.7163 35.8195 31.0245 36.2878 32.4473H40.4261C39.8622 29.8708 38.5996 27.4994 36.7768 25.5933C38.3918 23.8421 39.5119 21.6927 40.022 19.3657H35.7746C35.4293 20.6831 34.8444 21.9256 34.049 23.0311ZM24.8309 22.3118C24.8147 22.3118 24.7945 22.3158 24.7783 22.3158C24.6935 22.3199 24.6046 22.3239 24.5157 22.3239C24.4267 22.3239 24.3378 22.3199 24.253 22.3158C24.2368 22.3158 24.2166 22.3118 24.2004 22.3118C23.5565 22.2578 22.9385 22.0332 22.4102 21.6611V32.4473H26.6211V21.6611C26.0928 22.0332 25.4748 22.2578 24.8309 22.3118ZM18.6801 19.099C16.9891 19.1068 15.3162 19.4487 13.7578 20.1053V32.4473H17.9688V22.8735C18.4077 22.6985 18.879 22.62 19.3509 22.6432C19.777 22.6186 20.2027 22.6976 20.5916 22.8735L21.1978 19.3778C21.117 19.3495 21.028 19.3253 20.9311 19.3011C20.1903 19.1518 19.4356 19.0841 18.6801 19.099ZM5.85311 19.099C3.97789 19.12 2.12124 19.473 0.369141 20.1416V36.8118H4.64477V32.5039C5.20906 32.6659 5.79613 32.7341 6.38253 32.7059C10.2056 32.7059 12.7717 29.9942 12.7717 25.8115C12.7717 21.5844 10.056 19.099 5.85311 19.099ZM5.72381 29.2102C5.35596 29.2222 4.98932 29.1618 4.64477 29.0324V22.7725C4.95872 22.6976 5.27985 22.657 5.60255 22.6513C7.6151 22.6513 8.41934 23.8636 8.41934 25.9408C8.41934 28.1433 7.61511 29.2102 5.72381 29.2102ZM32.3233 17.8462V8.41792C32.8171 8.24656 33.3364 8.16047 33.859 8.16332C35.0674 8.16332 35.7705 8.77356 35.7705 10.3941V17.8462H40.0502V10.087C40.0502 6.49429 37.7346 4.61918 33.9075 4.61918C31.9094 4.62905 29.9276 4.98029 28.0477 5.65776V17.8462H32.3233ZM24.5157 14.989C25.0309 14.9898 25.5403 15.0985 26.0109 15.3083C26.6809 14.1271 27.0175 12.7862 26.9849 11.4287C26.9849 7.32681 24.4106 4.61918 20.3127 4.61918C16.2149 4.61918 13.6083 7.32681 13.6083 11.4287C13.6083 15.5589 16.2109 18.2705 20.3127 18.2705C20.4744 18.2705 20.628 18.2665 20.7856 18.2584C20.8123 18.2537 20.8393 18.251 20.8664 18.2503C20.9668 17.353 21.3946 16.5241 22.0679 15.9224C22.7412 15.3207 23.6127 14.9884 24.5157 14.989ZM18.0658 11.4287C18.0658 9.37573 18.9185 8.16737 20.3127 8.16737C21.707 8.16737 22.5273 9.37573 22.5273 11.4287C22.5273 13.5059 21.7029 14.7223 20.3127 14.7223C18.9225 14.7223 18.0658 13.5059 18.0658 11.4287ZM6.05517 4.61918C5.58381 4.61117 5.11248 4.63681 4.64477 4.69594V0H0.369141V17.3087C1.65022 18.0159 3.88908 18.2705 5.87738 18.2705C10.0803 18.2705 12.7717 15.6073 12.7717 11.3074C12.7717 7.15302 10.0803 4.61918 6.05517 4.61918ZM5.67531 14.7223C5.32531 14.7345 4.97601 14.6825 4.64477 14.5688V8.29267C4.98322 8.21649 5.32848 8.1745 5.67531 8.16737C7.68786 8.16737 8.41934 9.3757 8.41934 11.4529C8.41934 13.5059 7.61512 14.7223 5.67531 14.7223Z" fill="#D21929"/>
</svg>
