<svg xmlns="http://www.w3.org/2000/svg" viewBox="0 0 557.65 191.65"><defs><style>.a{fill:none;}</style></defs><rect class="a" width="557.65" height="191.65"/><path d="M119,108.92c0,13.48-10.24,20.84-27.95,20.84-22.84,0-31.57-10.23-32.19-23.21H77.6c.63,6.37,4.87,9.49,12.73,9.49,5.61,0,8.73-1.88,8.73-5.49,0-5.49-6-6.24-16.09-8.49C72.11,99.69,60.13,95.7,60.13,82.35c0-11.61,10-20.46,27.95-20.46,20.46,0,28.45,10.35,29.07,21.58H98.44c-.63-5.11-3.37-7.86-9.86-7.86-5.61,0-8.48,2-8.48,5.12,0,4.49,4,4.61,13.85,6.73C106.55,90.21,119,94.45,119,108.92Z"/><path d="M142.85,38.55V85.47l18.72-21.59H185.4l-22.58,24L188,127.76H164.31l-15.09-25.45-6.37,6.61v18.84h-20V38.55Z"/><path d="M218.25,75.61c-7.23,0-10.73,2.75-11.35,8.86H188.19c.62-12.23,9.35-22.58,30.19-22.58,18,0,28,7,28,27.07v29.32c0,3.37,1.25,4.74,3.74,4.74v4.74a31.51,31.51,0,0,1-11.6,2c-9,0-11.48-4.24-11.48-8.73h-.25a27.28,27.28,0,0,1-20.09,8.73c-13.47,0-21-7.61-21-18.34,0-12.73,9.36-18.59,24.33-21.59,8.23-1.62,16.35-2.87,16.35-8.23C226.37,77.86,223.75,75.61,218.25,75.61Zm8.12,28.82V96.7a65.74,65.74,0,0,1-10.24,2.87c-7.86,1.74-10.48,5-10.48,9,0,5.24,3.12,7.49,8,7.49C222.25,116,226.37,110.55,226.37,104.43Z"/><path d="M289.58,129c-5.49,16.35-11.48,20.84-25,20.84a53.26,53.26,0,0,1-11.1-1.25v-15h.25c5.49,1.25,10,.62,12.1-2.62,1.87-2.87,1.5-6.87-.5-12.48L244.54,63.88h20L279,105.8h.25l12.1-41.92h20Z"/><path d="M334.45,38.55v89.21h-20V38.55Z"/><path d="M341.56,47.41c0-5.74,4.37-8.86,10-8.86s10,3.12,10,8.86-4.37,8.86-10,8.86S341.56,53.28,341.56,47.41Zm20,16.47v63.88h-20V63.88Z"/><path d="M430.39,84.59v43.17h-20V91c0-9.61-3.37-12.85-10-12.85-7.62,0-12,3.86-12,12.72v36.93h-20V63.88h20v9.23h.25c3.37-5.86,9.6-11.22,21-11.22C422,61.89,430.39,70,430.39,84.59Z"/><path d="M456.84,38.55V85.47l18.71-21.59h23.84l-22.59,24L502,127.76H478.3l-15.1-25.45-6.36,6.61v18.84h-20V38.55Z"/></svg>