<svg fill="none" height="38" viewBox="0 0 94 38" width="94" xmlns="http://www.w3.org/2000/svg"><g fill="#595c5e"><path d="m81.1674 2.33638c5.9938 0 10.8787 4.88483 10.8787 10.87862v11.0899c0 5.9938-4.8849 10.8787-10.8787 10.8787h-59.8854c-5.9938 0-10.8786-4.8849-10.8786-10.8787v-1.2938l-1.18823-.5017-6.70674-2.9045c-.50169-.2112-.5545-.6601-.5545-.8449 0-.1849.05281-.6337.5545-.845l6.70674-2.9045 1.18823-.5016v-1.2939c0-5.99379 4.8848-10.87862 10.8786-10.87862zm0-1.953934h-59.8854c-7.1028 0-12.83256 5.756184-12.83256 12.832554l-6.70674 2.9045c-2.323599 1.0034-2.323599 4.2776 0 5.2809l6.70674 2.9045c0 7.1028 5.75616 12.8326 12.83256 12.8326h59.8854c7.1028 0 12.8326-5.7562 12.8326-12.8326v-11.0899c0-7.07637-5.7562-12.832554-12.8326-12.832554z"/><path d="m27.5928 18.7337c-.7394-.5545-1.1882-.7921-2.0332-1.2146l-1.1882-.6073c-.2376-.132-.5017-.3169-.8185-.5281l-.0264-.0264c-.6073-.4753-.845-.9506-.845-1.6635 0-.977.7658-1.7691 1.7163-1.7691.9506 0 1.5579.3433 2.1388 1.241.0792.1056.1848.1848.3168.2112.1321.0265.2641 0 .3697-.0792l.9242-.6073c.2112-.132.2904-.4488.1584-.6601-.8714-1.5314-2.086-2.1916-3.9079-2.1916-1.0562 0-1.9539.3697-2.746 1.1618-.7658.7658-1.1618 1.7163-1.1618 2.8781 0 1.1882.3696 2.0596 1.1882 2.7725.7657.6601 1.373 1.0298 2.614 1.5843 1.7955.8449 2.8253 1.5842 2.8253 2.8781 0 .6865-.1848 1.2938-.5545 1.7427-.4753.5545-1.1354.8449-1.9803.8449-1.4787 0-2.4029-.8185-3.0366-2.7725-.0528-.1584-.1584-.264-.2904-.3168s-.2905-.0264-.4225.0528l-1.0034.6073c-.1848.1056-.2904.3432-.2376.5545.2905 1.1354.8714 2.0595 1.6899 2.7725.9242.7921 2.0331 1.1882 3.3006 1.1882 1.4258 0 2.614-.5017 3.5118-1.4787.8185-.8713 1.2146-1.9539 1.2146-3.2213-.1057-1.5315-.6073-2.5349-1.7163-3.3534z"/><path d="m43.6994 15.0898c-1.5314 0-2.7196.713-3.5382 2.1124-.4224-1.3466-1.505-2.1124-2.9837-2.1124-1.4258 0-2.5348.6338-3.3005 1.8748v-1.1882c0-.2641-.2113-.5017-.5017-.5017h-1.0826c-.264 0-.5017.2112-.5017.5017v10.2713c0 .2641.2113.5017.5017.5017h1.0826c.264 0 .5017-.2112.5017-.5017v-4.1455c0-2.8781 1.1618-4.8848 2.7988-4.8848 1.109 0 1.6371.6601 1.6371 2.0331v6.9972c0 .2641.2113.5017.5017.5017h1.0826c.264 0 .5017-.2112.5017-.5017v-4.1455c0-2.8781 1.1618-4.8848 2.7989-4.8848 1.1089 0 1.637.6601 1.637 2.0331v6.9972c0 .2641.2113.5017.5017.5017h1.0826c.2641 0 .5017-.2112.5017-.5017v-7.3932c0-2.2708-1.1618-3.5647-3.2214-3.5647z"/><path d="m51.3042 10.8122c-.7922.0792-1.3467.7129-1.3467 1.505 0 .845.6337 1.4787 1.5051 1.4787.8449 0 1.4786-.6073 1.505-1.4258 0-.4225-.1584-.845-.5017-1.1618-.3168-.2905-.7393-.4489-1.1617-.3961z"/><path d="m51.9905 15.2745h-1.0826c-.264 0-.5017.2113-.5017.5017v10.2714c0 .264.2113.5017.5017.5017h1.0826c.2641 0 .5017-.2113.5017-.5017v-10.2714c0-.2904-.2376-.5017-.5017-.5017z"/><path d="m57.43 10.8123h-1.0826c-.2641 0-.5017.2112-.5017.5016v14.7338c0 .264.2112.5016.5017.5016h1.0826c.264 0 .5017-.2112.5017-.5016v-14.7338c-.0264-.2904-.2377-.5016-.5017-.5016z"/><path d="m65.6151 15.0898c-1.6634 0-2.9044.5545-3.8022 1.7163-.8713 1.109-1.3202 2.5085-1.3202 4.0927 0 1.6107.4224 2.9573 1.3202 4.1191.8978 1.109 2.1652 1.6899 3.8022 1.6899 2.1916 0 3.5911-.8185 4.6208-2.7724.0528-.1321.0792-.2641.0264-.3961s-.132-.2377-.264-.2905l-.9242-.396c-.2376-.1057-.5281 0-.6337.2376-.6073 1.2146-1.4522 1.7163-2.7988 1.7163-1.7163 0-2.8253-1.2674-2.9838-3.3798h7.5781c.2641 0 .5017-.2112.5017-.5017v-.4752c0-1.5051-.4489-2.7461-1.373-3.7759-.8978-1.0562-2.1652-1.5843-3.7495-1.5843zm-2.8516 4.4096c.396-1.6107 1.3994-2.5084 2.8516-2.5084 1.4787 0 2.5085.8977 2.9045 2.5084z"/><path d="m81.8802 16.6741c-.8977-1.0562-2.1388-1.5843-3.7494-1.5843-1.6635 0-2.9045.5545-3.8023 1.7163-.8713 1.109-1.3202 2.5085-1.3202 4.0927 0 1.6107.4225 2.9573 1.3202 4.1191.8978 1.109 2.1652 1.6899 3.8023 1.6899 2.1915 0 3.591-.8185 4.6208-2.7724.0528-.1321.0792-.2641.0264-.3961s-.1321-.2377-.2641-.2905l-.9241-.396c-.2377-.1057-.5281 0-.6337.2376-.6073 1.2146-1.4523 1.7163-2.7989 1.7163-1.7163 0-2.8253-1.2674-2.9837-3.3798h7.5781c.264 0 .5016-.2112.5016-.5017v-.4752c0-1.5051-.4488-2.7461-1.373-3.7759zm-.8185 2.8253h-5.7562c.3961-1.6107 1.3994-2.5084 2.8517-2.5084 1.4786 0 2.5084.8977 2.9045 2.5084z"/></g></svg>