<svg fill="none" height="65" viewBox="0 0 64 65" width="64" xmlns="http://www.w3.org/2000/svg" xmlns:xlink="http://www.w3.org/1999/xlink"><clipPath id="a"><path d="m0 .973877h64v63.9994h-64z"/></clipPath><g clip-path="url(#a)" fill="#612ba6"><path d="m28.5869 16.839c1.5773-1.0758 3.6099-.6515 3.2702-.3289-.3478.3307-.2611.4322-.0914.6308.1468.1718.3556.4162.3988.9444.0683.8394-.2059 1.3028-.4416 1.5662-.4922.0642-1.091.1857-1.8118.4192-.4264.1385-.7972.2932-1.122.4463-.0858-.0556-.1774-.1236-.2892-.219-1.1136-.9642-1.0764-2.6652.087-3.459z"/><path d="m40.8018 22.7039c.6326-.0751 1.5329-.1173 1.7252-.0108.3819.2112.382.8627.1214 1.4661-.3807.8764-.9189 1.8419-1.5289 1.9223-.9934.1311-1.9347-.4068-3.0087-1.209-.3832-.2869-.6186-.9854-.1003-1.386.2851-.2224 1.586-.6404 2.7913-.7826z"/><path d="m38.3844 15.621c.0092-.0186.0183-.0372.0268-.0566.0174-.04.0466-.0783.0749-.1154.0865-.1133.1643-.215-.1309-.3175-.0335-.0112-.0756-.0208-.123-.027.2593-.3214 1.0369-.4006 1.5913-.1435 1.285.5982 1.2991 1.6681 1.3093 2.4379.0014.1099.0028.2136.0078.309.0115.219.0078.3674-.0105.4687-.2034-.11-.5246-.1904-1.0333-.1681-.15.0075-.2949.0236-.4354.0469-.5416-.2903-.8655-.8593-1.1605-1.4624l-.0684-.1547-.0258-.0667-.0105-.0295c-.1438-.4526-.0772-.5879-.0118-.7211z"/><path d="m43.7136 34.2188 4.1965 2.768 3.1895-6.6869 1.1323 12.1789-19.492 3.5913-.1835-1.7221 3.5851-5.4717 4.0714 1.1904z"/><path clip-rule="evenodd" d="m52.2692 26.2769 1.2649-.241 2.0275 19.7807-24.8569 2.9932-.5419-3.8559-1.5019.2177c.1329 2.1485-.3708 4.1882-1.3192 5.164-1.1112 1.141-2.7258 1.4363-4.4274 1.2053-1.1459-.1559-1.9966-.9842-2.6264-1.9966 2.3575 1.664 5.2755.895 6.2749-.4972 1.4049-1.9581 1.0441-3.8053.522-5.5323-.4081-1.3513-1.5152-3.5954-2.8894-4.4643-1.4-.8867-2.7631-1.0535-3.9174-.9336l.1065-.1236c1.6605-.3289 3.3953-.1469 4.6528.6615 1.4261.9162 2.7307 2.4898 3.4127 4.8994.3986-.0566.6212-.0973.84-.1372.206-.0376.4085-.0746.7513-.1237l-1.595-12.4162 3.3733-.3708c-1.5823-1.0161-3.2193-2.4739-3.9336-3.2798-.1216-.0904-.1018-.4922-.1018-.4922.6463.5031 3.3261 2.4183 6.1596 3.2922.9985.309 2.5324.4255 3.8631-.3289 1.0168-.5773 2.2407-1.5823 2.9714-2.617l.1323.2323c-.0034.1546-.3409.9037-.5105 1.204.2666.1546.4764.2113.7512.2856.0421.0114.0858.0232.1314.0358l2.3478-.3658c.8406-1.3612 1.4444-3.5556.8022-5.6438-.3683-1.1978-2.282-3.5826-2.4193-3.7149-.2034-.1949-.2212-.6251-.2451-1.2034-.0329-.7937-.0774-1.8667-.6291-2.9938-1.0071-2.0586-3.6269-4.2055-4.7715-5.1434l-.0043-.00354c.084.06121.2752.15878.5299.28874.769.3924 2.117 1.0803 2.8406 1.9551.0481-.0635.0813-.2687.1142-.4712.0292-.1801.0581-.358.0967-.4326-.8283-1.0841-.8929-3.0152-.8929-3.53197 0-.94566-.481-2.01895-.481-2.01895s.8295.65528 1.0428 1.78541c.2528 1.33882.7923 2.39224 1.5056 3.28351 1.3504 1.6826 2.5684 2.5454 3.1858 1.9249.7366-.7478-.7466-4.08729-2.6451-5.95283-2.1597-2.12153-2.7643-1.90482-3.9997-1.46198-.0301.0108-.0607.02174-.0916.03279-.3609.12866-.6641.5695-1.0201 1.08704-.6664.969-1.5179 2.20691-3.2793 2.16824-.4574-.05186-1.6369-.08166-2.2186-.0767.304-.42391.563-.75155.563-.75155s-.9065.36459-1.6779.82702l-.0605-.09037c.2615-.55.5419-.89628.5419-.89628s-.7242.43509-1.3854.95559c.1217-.65404.5755-1.0705.5755-1.0705s-.9153.16553-2.0808 1.44752c-.9908.27019-1.4195.47242-2.0138.75283-.2001.09444-.4191.19774-.6847.3155-1.7164-.37454-2.5263-.9792-3.2975-2.09193-.5879-.84907-1.6332-.9792-2.7034-.54007-1.5565.64659-3.527 1.52796-3.527 1.52796s.6413-.02486 1.3108.00495c-.9152.34752-1.7981.82454-1.7981.82454s.4301-.01487.9596-.00616c-.3655.30435-.5689.44999-.9164.68009-.8382.6084-1.5177 1.3118-1.5177 1.3118s.5692-.2596 1.0801-.4055c-.1103.2531-.2542.4856-.3964.7155-.3182.5143-.6286 1.0159-.5387 1.7087.1252.9161 1.2475 2.8015 2.6985 3.9574.0067.0055.019.0162.0363.0312.3024.2616 2.1518 1.8615 3.5637 1.1496 1.4931-.7503 2.0823-1.4218 2.3276-2.4478.2891-1.1808.1242-2.0721-.491-4.6327-.2034-.8444-.7329-2.58506-.9894-3.41581l.0581-.04192c.4876 1.03106 1.7376 3.74843 2.2423 5.57333.7863 2.8459.5394 4.29.1798 4.8189-1.0839 1.5976-3.8656 1.8075-5.1292.9224-.1706 2.7038.3417 4.0722.6232 4.824.0377.1007.0713.1904.0985.2707-.1152.7814.3907 2.2317.3907 2.2317s.0584-.6602.2891-1.0078c.0631.7767.4525 1.6963.4525 1.6963s-.0236-.5686.155-1.0593c.1524.2578.2805.3963.4104.5367.0837.0905.1681.1819.2604.3065.2369.8282.7133 1.4351.7133 1.4351s-.0782-.4451-.0348-.9075c1.1593 1.114 1.3578 2.7398 1.4745 3.9885.2068 2.1866-2.0442 4.088-3.9948 5.7356-1.1132.9403-2.1285 1.798-2.5331 2.5787-.8422 1.2721-1.3469 3.2861.0805 4.4718 1.0295.8553 1.632 1.5242 2.0189 2.0767l-4.8463.7034-5.1006-41.39138 41.4022-4.80063zm-19.4091 5.0292-3.1276.4304 1.8987 15.842 21.9513-3.9562-1.3071-15.8199-12.8128 2.3245c-.3174.409-1.1025 1.1273-1.4795 1.314-1.6196.8161-2.7134.5798-3.6584.3338l-.0515-.0131c-.5753-.1463-.9217-.2344-1.4131-.4555z" fill-rule="evenodd"/><path d="m62.0384 63.0869v-2.2223h-1.6801l.5953-1.5621h2.8473v4.9667c-.7668.337-1.7255.5053-2.8811.5053-3.3575 0-5.0364-1.6509-5.0364-4.9475 0-3.123 1.7091-4.6826 5.1237-4.6826 1.0428 0 1.9739.1559 2.7938.4649v1.5941c-.8199-.355-1.7069-.5323-2.6606-.5323-2.2832 0-3.4261 1.0515-3.4261 3.1559 0 2.2795 1.077 3.4183 3.2335 3.4183.3193 0 .6842-.0518 1.0907-.1584z"/><path clip-rule="evenodd" d="m49.9794 55.1444c-3.1842 0-4.778 1.609-4.778 4.8286.1432 3.2003 1.7345 4.8015 4.778 4.8015 3.1357 0 4.7028-1.6012 4.7028-4.8015 0-3.2196-1.5671-4.8286-4.7028-4.8286zm2.8736 4.7879c0 2.2084-.9581 3.3118-2.8736 3.3118-1.9649 0-2.9469-1.1034-2.9469-3.3118 0-2.1743.982-3.2625 2.9469-3.2625 1.9155 0 2.8736 1.0882 2.8736 3.2625z" fill-rule="evenodd"/><path clip-rule="evenodd" d="m35.4253 64.7062h4.1243c2.9723 0 4.4584-1.6699 4.4584-5.0059 0-2.9913-1.4861-4.4876-4.4584-4.4876h-4.1243zm3.8581-1.528h-2.0956v-6.4413h2.0956c1.9727 0 2.9609.987 2.9609 2.9625 0 2.3195-.9882 3.4788-2.9609 3.4788z" fill-rule="evenodd"/><path d="m24.1949 64.7062h1.8105l3.132-7.6817 1.5572 3.5665h-1.9764l-.6044 1.5254h3.0469l1.1975 2.5898h1.8966l-4.1254-9.4935h-1.8954z"/><path d="m25.0995 55.2127h-7.2192v1.5267h2.7292v7.9668h1.7621v-7.9668h2.7279z"/><path d="m8.81751 64.7062h1.81059l3.1332-7.6817 1.5572 3.5665h-1.9764l-.6059 1.5254h3.0472l1.1975 2.5898h1.8966l-4.1267-9.4935h-1.8954z"/><path clip-rule="evenodd" d="m.198242 64.7062h4.123918c2.97113 0 4.45871-1.6699 4.45871-5.0059 0-2.9913-1.48758-4.4876-4.45871-4.4876h-4.123918zm3.858078-1.528h-2.09441v-6.4413h2.09441c1.97392 0 2.95964.987 2.95964 2.9625 0 2.3195-.98572 3.4788-2.95964 3.4788z" fill-rule="evenodd"/></g></svg>