<svg fill="none" height="40" viewBox="0 0 90 40" width="90" xmlns="http://www.w3.org/2000/svg" xmlns:xlink="http://www.w3.org/1999/xlink"><clipPath id="a"><path d="m0 .262299h90v39.0984h-90z"/></clipPath><g clip-path="url(#a)"><path clip-rule="evenodd" d="m89.9878 15.5703c-.177-.3265-1.5647-.3946-2.3002-.7076-.2854-.1089-.4212.1089-.5709.313-.1771.313-.3541.6396-.5991.9526-1.0615 1.3471-2.1223 2.6942-3.1979 4.0822-.5031.7076-1.2106 1.1702-1.8502 1.7009-.2862.2449-.6396.3538-.9524.5307-1.0342-1.2791-.8579-2.5854-.5311-3.9734.6396.0409 1.1294-.2449 1.5647-.5715 1.1294-.7484 2.205-1.5921 3.1979-2.5174 1.2113-1.1294 1.8509-2.4901 2.028-4.0823.1357-1.49676-.5717-2.44928-2.028-2.62618-.5983-.0408-1.2113-.1769-1.769-.31301-1.1021-.2177-2.0545-.0408-2.9117.63959-.5312.42182-1.0616.85729-1.5241 1.3471-.5039.5307-.9524 1.1022-1.3065 1.7009-.5304.9118-.9251 1.8779-1.2519 2.8713-.2309.2041-.4079.6395-.4079.6395-.5717 1.3472-1.2386 2.6263-2.0277 3.8645-.5988.9934-1.388 1.8098-2.3405 2.7351 0-.4218-.0409-.6803 0-.9525.1088-1.5648.2177-3.1569.3129-4.7218.0408-.2449.1361-.5034.245-.7075.3946-.5307.7756-1.0615 1.1703-1.5649 1.7688-2.3813 3.3334-4.89877 4.1501-7.81074.2176-.74841.4625-1.49682.6396-2.23162.1091-.46266.177-.92531.2176-1.41518.0413-1.10221-.5983-2.490176-2.2043-2.340494-.4625.068038-.9251-.040822-1.347-.10886-1.2111-.176897-2.2998.10886-3.157.884484-1.1703.99335-1.9867 2.3405-2.5854 3.75567-.9525 2.27246-1.5241 4.65376-1.9187 7.10304-.1769 1.0615-.2857 2.1229-.3538 3.1842 0 0 0 .0137-.0136.0137-.5307 1.0613-1.0342 1.8506-1.4832 2.4085-1.1702 1.3471-2.4085 2.3404-2.4085 2.3404l1.456-5.6062c.1089-.4219.2177-.8845.2177-1.3064.0408-.4218-.1361-.5715-.5715-.6395-.7484-.1497-1.5241-.2858-2.2725-.4627-.2858-.068-.4626-.068-.6803.1089-.1362.1088-.245.1769-.3946.2449-.4627-.4627-.8846-.9253-1.3064-1.388-.5307-.5715-1.2111-.8844-1.9867-1.03407-.5715-.06809-1.1702-.21777-1.7689-.31301-1.1703-.24492-2.3813-.2177-3.3339.63958-.5307.4626-.9934 1.0341-1.3472 1.5921-.7075 1.211-1.3471 2.4901-2.0275 3.6876-.2313.3946-.4218.8164-.5851 1.2247-.7892 1.1974-1.5921 2.3813-2.3949 3.5651-.1769.2177-.3538.3946-.6395.7076 0-.313-.0409-.4899 0-.6803.4626-1.8779.9525-3.7966 1.4151-5.6744.313-1.3879.8165-2.6942.6804-4.1502-.0408-.66686-.2177-.85734-.9253-.92535-.5307-.06809-1.1022-.10889-1.5921-.28579-.8164-.32658-1.456-.06802-1.9867.46269-.8572.88445-1.701 1.76895-2.4494 2.76225-.7484.9525-1.3063 2.0547-1.9866 3.0889-.1089.1769-.1769.313-.2858.5035 0-.6804.1089-1.2791.2177-1.9186.1769-.9525.3538-1.9187.5035-2.8712.1361-.9526-.2449-1.85064-1.4151-1.85064-.8165-.04079-1.6329-.24492-2.5583-.3946-.1361.2177-.4218.46262-.5307.77563-.4626.95251-.8845 1.94581-1.211 2.98001-.2722.8437-.4763 1.6874-.6396 2.531-.0681.0545-.1224.1225-.1769.2041-.245.4626-.4627.9526-.7484 1.388-.7076 1.2383-1.456 2.4901-2.2044 3.6876-.4627.7485-.9525 1.4152-1.456 2.1636-.0681-.0408-.1089-.068-.1769-.068.068-.7076.136-1.388.2177-2.0956.2449-1.7417.5307-3.4835.7076-5.2117.1361-1.3199.6395-2.912.2857-3.7964-.136-.3538-.6804-.3538-.9253-.3538-.5715-.0409-1.1294-.1361-1.7009-.2178-.5987-.068-.9933.1361-1.2791.6804-.1769.2858-.3538.5987-.5307.8845-.6804 1.1022-1.3879 2.1636-2.0547 3.2658-1.0342 1.6329-2.0548 3.2658-3.1161 4.8987-.1089.1769-.245.313-.3947.5035-.068-.2858 0-.5035.0409-.7076.4218-2.1228.7484-4.2592 1.3471-6.3139.2449-.8572.3946-1.7417.5307-2.5854.1769-1.1023-.4218-1.70098-1.5921-1.4152-.9525.2177-1.9186 0-2.8439-.39459-.5715-.24499-.8845-.04087-1.1703.31289-.1088.1769-.1769.3538-.2177.5715-.4626 1.3608-.8164 2.7488-1.143 4.1639-.0409.0545-.0681.1089-.1089.1769-.2177.2858-.3946.6396-.5987.9253-.8573 1.1023-1.7418 2.2045-2.5855 3.3067l.0408-3.6605-.068-1.592c-.068-.7484-.31291-1.0342-.85726-1.0614-.85721-.1088-1.70093-.1769-2.55818-.3129-.77563-.1497-.85728-.1769-.95253.7484-.1769 1.7009-.35379 5.4293-.50347 7.1303l-.13608 2.9801v.0407c0 .177-.10886.4219-.24493.5715-1.48323 1.5922-2.91201 3.2659-3.83732 5.2526-.952526 2.1363-1.347143 4.3271-.748413 6.5996.136075.6396.530691 1.2383.925313 1.769.39461.5307.88448.9525 1.59208 1.0342.81644.1088 1.63289.2857 2.44935.4626.85727.1769 1.56485-.0408 2.16357-.6395.92531-.9253 1.45601-1.9867 1.70093-3.2251.59872-2.98.7484-5.96.92534-8.9808l.0681-1.1023.0407-1.9187c.1769-.1088.3539-.2449.5308-.4218.6667-.6396 1.3199-1.2927 1.905-2.0003.0136.4491.0544.9117.1225 1.3607.1088.5988.2857 1.2383.5715 1.8098.313.7077.8845 1.1703 1.7418 1.2792.9253.1088 1.8098.2857 2.7351.3946.3129 0 .7075 0 .9525-.1361.4626-.313.9525-.6668 1.3063-1.1022.5715-.6804 1.0614-1.4152 1.5648-2.1227.5035-.7485.9526-1.4969 1.4153-2.2317.068 0 .1088.0408.1769.0408v1.3472c0 1.1703-.0681 2.3405.3537 3.4835.2178.5987.5988.9253 1.1703.9934.6667.068 1.3471.1088 1.9458.2857 1.0614.313 1.769-.1088 2.4902-.8164 1.0614-1.0887 1.8779-2.3406 2.6535-3.6197 0 .0409 0 .0681.0135.1089.1089.8164.3947 1.5921.8165 2.2997.245.3538.5307.6804.9934.7756.8164.1769 1.6737.3946 2.4766.5987.3946.1089.6395 0 .8164-.3129.1089-.2178.2449-.3947.3129-.5987.4627-.9934.9254-2.0275 1.3472-3.0209.9526-2.2725 1.8506-4.5721 3.157-6.6677.4218-.6804.8573-1.3471 1.4151-1.9186.0409.0408.0681.068.1361.1088-.1361.4627-.2449.9525-.3538 1.456-.4218 1.5921-.8573 3.225-1.2383 4.8578-.136.6804-.136 1.3472-.136 2.0276.0408.9253.6395 1.5241 1.524 1.701.5307.1088 1.0614.1496 1.5649.3538.7756.3129 1.3879.1088 1.9866-.4219.1906-.1633.3675-.3538.5444-.5307.2312.4082.5578.6668 1.1294.7484.7075.1088 1.4151.2177 2.0547.4626.6395.245 1.1703.1362 1.701-.2176.2177-.1497.4218-.2858.5987-.4219 1.2791-.9525 2.4085-2.0275 3.5107-3.1569.5307-.5987 1.1702-1.1022 1.7417-1.6329.0409.0408.1089.0408.1361.068-.068.2858-.1769.5715-.2449.8573-.2449.8164-.4899 1.592-.7076 2.3813-.1089.4218-.2858.7484-.5987 1.0342-.9934.8844-1.9459 1.7689-2.844 2.7623-1.4151 1.5921-2.6942 3.2658-3.5788 5.1845-.7076 1.592-.9933 3.2657-.6395 5.0075.2177 1.1022 1.211 2.1636 2.2997 2.3813.6395.1361 1.2382.2449 1.8506.4218.7484.245 1.4152.1361 2.1227-.1088.9934-.3946 1.7418-1.0614 2.1636-1.9867.4899-1.1703.9526-2.3813 1.3064-3.6196.6803-2.4085 1.2383-4.8579 1.8506-7.3072.1089-.4219.2177-.8573.3538-1.2791 1.6465-.7621 3.4835-2.2589 5.1436-4.1095.0817.5988.1905 1.2111.3266 1.8098.1769.8845.5307 1.5921 1.1294 2.2316.2857.3538.6395.5716 1.1022.5987.7757.1089 1.5921.2178 2.3813.313.4219.0681.7757.0681 1.1023-.2857.5987-.5715 1.238-1.1295 1.8098-1.769.6255-.6396 1.1567-1.3608 1.6465-2.0955.0133.0544.0273.0952.0546.1497.5304 1.2382 1.4555 1.9866 2.762 2.2724.6396.136 1.2792.2858 1.9188.4626 1.347.3266 2.6668.245 3.7283-.8164.7488-.7484 1.5241-1.4968 2.2043-2.3405 1.1161-1.5376 3.4834-4.7627 3.2798-5.2253zm-34.3863 12.6414c-.5035 2.1636-.9934 4.368-1.4968 6.5316-.1361.7076-.5307 1.3199-1.1703 1.8506-.7076-1.0342-.7756-2.0955-.5715-3.1569.2858-1.4561.9253-2.7624 1.8778-3.8646.3538-.4626.6804-.9253 1.0342-1.4151.0681-.0681.1089-.2178.1361-.313.068.0408.1088.068.1769.1089v.2585zm-50.94649 6.5588c-.06804.7076-.24494 1.2111-.68037 1.8098-.74842-.6396-.85728-1.5649-.95253-2.4494-.1769-1.7009.39461-3.2657 1.2791-4.6809.1769-.313.3538-.6396.57151-.9253.04083 0 .06804.0407.14969.0407 0 .5308.06804 1.0342.04082 1.5649-.12247 1.5241-.27215 3.0753-.40822 4.6402zm53.06929-20.2616c-1.5241 1.4968-3.0481 2.9528-4.613 4.4361-.1769.1769-.313.3946-.5034.5715-.1769.1769-.3947.313-.5988.5034-.0408-.0407-.0681-.068-.1361-.1088.1089-.2177.1769-.4627.2449-.6668.7077-1.6737 1.4153-3.3338 2.1228-5.0075.245-.5987.4219-1.2111.6804-1.8098.2177-.5307.5307-.9526 1.0614-1.3064.8845.7077 1.6329 1.5241 1.9186 2.6944.1089.2721.0817.4762-.1768.6939zm25.9355-4.1911c.4633 1.5649-.6389 3.6196-2.6941 4.9667.1497-1.4832 1.7417-4.3951 2.6941-4.9667zm-77.76651-1.23824c.04082.53071.28576.85729.74841.95254.92529.136 1.8098.3129 2.7351.5035.06802 0 .13611-.0409.24492-.0681.04087-.1088.06809-.2177.06809-.3538l.31289-2.66706c.0408-.39461-.06797-.70758-.50344-.77562-.24492-.04083-.42182-.1769-.63951-.21772-.63959-.10887-1.30633-.1769-1.91869-.31297-.95252-.17691-1.12941-.04083-1.21106.9253 0 .21773.04082.46266.04082.68038zm69.04461-7.06231c.2176.28576.1357.59873.1357.92531-.1084 1.21107-.571 2.34049-.9524 3.48352-.2854.85728-.6803 1.67374-1.0341 2.49016-.1089.313-.313.5715-.4627.85728-.1632-2.28606 1.1431-7.00785 2.3135-7.75627z" fill="#000" fill-rule="evenodd"/></g></svg>