<svg fill="none" height="55" viewBox="0 0 68 55" width="68" xmlns="http://www.w3.org/2000/svg"><g fill="#000"><path d="m14 .0124092c0 .0122261.4402.9007338.9782 1.9767308l.9782 1.95635 12.7448.01223c14.208.01222 13.0627-.01223 14.5829.29345 2.0257.40349 3.5541 1.17788 4.7279 2.39245 1.0678 1.09637 1.6914 2.45767 1.9156 4.16948.0815.6195.0937 1.9237.0244 2.4862-.2282 1.7892-.8559 3.1954-1.9278 4.3203-1.6507 1.7281-4.0227 2.5962-7.479 2.7348-.3872.0163-.7051.0367-.7051.0448 0 .0082 2.2947 3.2973 5.0988 7.3119l5.0987 7.2915h2.4862c1.9767 0 2.4781-.0123 2.4536-.053-.0163-.0245-1.8789-2.6655-4.1409-5.865-2.258-3.1994-4.1084-5.8324-4.1084-5.8487 0-.0204.1712-.0937.3791-.1671 3.7007-1.3409 6.1706-3.9575 7.0999-7.5279.5013-1.9237.5543-4.2387.1345-6.27658-.9986-4.89496-4.952-8.19222-10.8333-9.044052-1.4958-.2160108-.4932-.2037847-15.5775-.2160108-7.6623-.00815201-13.9308-.00407791-13.9308.008152z"/><path d="m25.2286 11.1188c-1.9034 2.3313-3.4685 4.255-3.4766 4.2713-.0041.0204.3301.7051.7458 1.5244l.7541 1.4876 1.1697.0285c2.2457.053 3.4114.212 4.7075.6358 1.7077.5625 2.8611 1.4347 3.6233 2.7389.9415 1.6099 1.0026 4.0798.1508 5.7998-.4646.9293-1.2268 1.7689-2.1316 2.3313-.2446.1549-1.2024.6236-1.2716.6236-.0245 0-.0612.0204-.0734.0408-.0204.0366 1.7689 3.6274 1.8544 3.7211.0734.0815 1.3369-.4972 2.0542-.9415 1.6751-1.0311 2.8693-2.2905 3.6886-3.8923 1.5324-2.9998 1.4509-6.9736-.1998-9.7125-.6888-1.1371-1.6995-2.1723-2.853-2.9223-1.5691-1.0148-3.8393-1.7281-6.1829-1.9482-.2975-.0285-.542-.0611-.542-.0774 0-.0122 1.4387-1.7893 3.1994-3.9494 1.7607-2.15606 3.1995-3.93716 3.1995-3.96161 0-.02038-.9619-.03668-2.474-.03668l-2.478.00407z"/><path d="m.529813 43.8378v.5142l2.284427-.0031c1.25285 0 2.38728-.0125 2.51817-.0218l.23686-.0218-.33347.3584c-.18388.1963-.9225 1.044-1.63619 1.8855-.7168.8383-1.3183 1.5489-1.34323 1.5739-.03117.0374-.01558.1028.10285.3802l.14024.3366h.57033c.61708 0 .94431.0405 1.30895.1651.84147.2868 1.41491.8602 1.59256 1.5957.07168.2961.07168.8664.00311 1.1375-.12466.4706-.3958.8945-.76667 1.1968-.8664.7106-2.04757.7947-3.21316.2337-.42073-.2025-.7729-.4394-1.068975-.7136l-.233741-.2182-.345937.427-.345937.4269.134012.1372c.610843.6326 1.661118 1.1655 2.624128 1.3338.41762.0717 1.15001.0717 1.524 0 .78225-.1527 1.36816-.4581 1.90421-1.0004.58591-.589.90691-1.2684.98171-2.0756.09661-1.0316-.22128-1.9728-.87887-2.6023-.47995-.4613-1.26532-.8197-2.10055-.9568l-.41138-.0686 1.63307-1.8917 1.63307-1.8917v-.3771-.374h-3.25679-3.256797z"/><path d="m16.2993 48.8836v5.5661h.5454.5454v-2.3374-2.3374l1.39.0062 1.3869.0094 1.2403 2.3218 1.2404 2.3218.642.0094c.3553.0031.6452-.0031.6452-.0187 0-.0499-2.406-4.4847-2.5525-4.6998l-.1465-.2181.2338-.0842c.6233-.2213 1.2092-.7729 1.5302-1.4367.4862-1.0067.4488-2.3561-.0873-3.2693-.134-.2306-.4893-.6108-.7417-.7885-.3865-.2742-.8851-.455-1.5084-.5422-.1714-.025-.9786-.0437-2.3125-.053l-2.0507-.0156zm4.332-4.4567c.7355.1652 1.284.7012 1.4866 1.4523.0748.2774.0748.9568-.0031 1.2622-.1527.6295-.5766 1.1656-1.1251 1.4211-.4114.1933-.4207.1933-2.0787.2089l-1.5209.0093v-2.2159-2.2189l1.5053.0155c1.2622.0094 1.5396.0219 1.7359.0655z"/><path d="m32.5986 48.8867v5.563h3.288 3.2879v-.5142-.5143h-2.7269-2.727v-2.0413-2.0413h2.1037 2.1036v-.4987-.4986h-2.1036-2.1037v-1.9946-1.9946h2.5711 2.5712v-.5142-.5143h-3.1321-3.1322z"/><path d="m48.0259 48.8867v5.563h.561.5609v-5.563-5.5631h-.5609-.561z"/><path d="m58.9336 48.8867v5.563h.5454.5454v-4.3039c0-2.8486-.0125-4.4287-.0343-4.6749-.0187-.2025-.028-.3864-.0218-.4051s.2057.2867.4457.6794c.3241.5329 1.1655 1.7421 3.2692 4.7091l2.833 3.9954h.5422.5392v-5.563-5.5631h-.561-.5641l.0156 4.4629c.0062 2.6242.0249 4.5689.0436 4.7154.0156.1371.0281.2524.0219.2586-.0032.0032-.2057-.321-.4488-.723-.3429-.5641-1.0815-1.6268-3.2693-4.7122l-2.8298-3.9861-.5361-.0093-.536-.0063z"/></g></svg>