<svg fill="none" height="19" viewBox="0 0 145 19" width="145" xmlns="http://www.w3.org/2000/svg"><path d="m0 12.7046c.457129 1.1886 1.18854 2.2857 2.13327 3.2609.94473.9447 2.07232 1.6761 3.26085 2.1333l3.16943-3.1695c-1.37139-.0609-2.68183-.6399-3.71798-1.6761-1.03616-1.0362-1.58472-2.3771-1.67614-3.71798z" fill="#703cca"/><path d="m17.7667 12.7046c-.4572 1.1886-1.1886 2.2857-2.1333 3.2609-.9447.9447-2.0723 1.6761-3.2608 2.1333l-3.16948-3.1695c1.37138-.0609 2.68178-.6399 3.71798-1.6761s1.5847-2.3771 1.6761-3.71798z" fill="#703cca"/><path d="m12.3726.30127c1.1885.457128 2.2856 1.18853 3.2608 2.13327.9447.94473 1.6761 2.07232 2.1333 3.26085l-3.1695 3.1999c-.0609-1.37138-.6399-2.68182-1.6761-3.71798s-2.3771-1.58471-3.71798-1.67614l.51808-.51808z" fill="#703cca"/><path d="m5.39412.30127c-1.18853.457128-2.28564 1.18853-3.26085 2.13327-.94473.94473-1.676141 2.07232-2.13327 3.26085l3.16943 3.1999c.06095-1.37138.63998-2.68182 1.67614-3.71798 1.03615-1.03616 2.37707-1.58471 3.71798-1.67614z" fill="#703cca"/><g fill="#323232"><path d="m52.3868 5.40677c.8533-.12191 1.6762-.33523 2.499-.36571 1.9809-.06095 3.5961.60951 4.6932 2.37707.3962.63998.64 1.37139.64 2.13327.0304 1.28.0609 2.5904 0 3.8704-.1219 2.5904-2.0114 4.3884-4.6932 4.5712-1.8895.1219-3.718-.1828-5.5161-.7923-.3047-.0914-.3657-.3048-.3657-.579 0-.9752 0-1.9505 0-2.9257 0-4.11412 0-8.25876 0-12.37292 0-.70093.0305-.731405.701-.731405h1.5847c.3657 0 .4876.152376.4876.518075v3.96179c-.0305.1219-.0305.27427-.0305.33523zm0 6.24743v3.1389c0 .3353.0914.4876.3962.5181.8228.061 1.6457.2134 2.438.1829 1.3105-.0914 2.0114-.7619 2.1333-2.0723.0914-1.28.0914-2.6209 0-3.90087-.061-.88379-.5486-1.58472-1.4628-1.82852-1.1276-.33523-2.2247-.21333-3.2609.33523-.1219.06095-.2438.30475-.2438.45713z"/><path d="m99.6843 5.40675c1.0667-.33523 2.1027-.42666 3.1697-.36571 2.621.15238 4.419 1.82852 4.571 4.44939.122 2.28567.061 4.57127.091 6.85697v.9447c0 .3047-.121.4571-.457.4571-.609-.0304-1.188-.0304-1.798 0-.426 0-.548-.1828-.548-.5485 0-2.1942 0-4.358 0-6.5522 0-.3657-.031-.76189-.092-1.12759-.183-1.15806-.792-1.76757-1.95-1.91995-.884-.1219-1.737-.03047-2.621.21333-.3048.09143-.3962.2438-.3962.57903v8.68548c0 .6704-.0305.7009-.7009.7009-.4267 0-.8838 0-1.3104 0-.7924 0-.7924 0-.7924-.7619 0-3.1389 0-6.3084 0-9.44731 0-2.10279 0-4.23606 0-6.33885 0-.548558.0609-.609509.6095-.609509h1.6152c.4876 0 .579.091426.579.579029v3.74846c.0305.09142.0305.2438.0305.45713z"/><path d="m137.108 10.039c1.249-1.37138 2.469-2.62087 3.596-3.9313.518-.60951.945-.76188 1.859-.79236.427-.03048 1.067-.03048 1.585-.03048.548.03048.305.39618.213.51808-1.341 1.43234-2.682 2.86468-4.023 4.26656-.152.1524-.304.3352-.487.5181.487.6399.975 1.2799 1.463 1.9199 1.158 1.5238 2.346 3.0171 3.504 4.5408.214.2743.366.6095-.304.64-.701 0-1.433 0-2.134 0-.335 0-.548-.1219-.762-.3657-1.097-1.4628-2.224-2.9256-3.352-4.3884-.091-.1219-.183-.2438-.305-.3657-.243.2438-.487.4571-.701.7314-.091.0914-.122.2742-.122.4266v3.4132c0 .5181-.06.5791-.579.6095-.548 0-1.066 0-1.615 0-.548 0-.579-.0304-.579-.6095 0-1.3713 0-2.7123 0-4.0836 0-3.93135 0-7.86266 0-11.79397 0-.63998.031-.670455.671-.670455h1.523c.519 0 .579.091426.579.609505v8.28927c-.03.1219-.03.27428-.03.54855z"/><path d="m82.6796 5.34581c.2133-2.28565 1.798-4.08369 4.0227-4.693191 2.6209-.7314065 5.0589-.304753 7.375 1.127581.4266.27428.4571.36571.1524.82284-.3048.45712-.6095.88378-.9143 1.34091-.1828.27427-.3962.33522-.6704.15237-.8838-.57903-1.8895-.91425-2.9561-1.00568-1.1886-.09143-2.3162.06095-3.2609.91426-.6704.6095-.9447 1.40186-.9447 2.28564-.0305 1.91994-.0305 3.87036 0 5.79026.0304 1.859 1.2799 3.1085 3.1694 3.2304 1.5542.0914 3.0171-.2438 4.3275-1.0971.4571-.3047.4876-.3047.7923.1829.3048.4571.64.9142.9448 1.3713.1524.2134.1828.4267-.061.6096-2.3161 1.9199-6.796 2.2551-9.3864.7314-1.7675-1.0362-2.5599-2.6514-2.6818-4.6628-.0609-1.0666 0-2.1637 0-3.23033.0305-.06095-.0305-2.62088.0915-3.87036z"/><path d="m72.5002 12.6903c-.1524 1.6457.4876 2.6513 1.859 2.8037.7009.061 1.4323.0305 2.1028-.1219.64-.1524 1.219-.4876 1.798-.8228.3353-.1829.5181-.1829.7315.1524.2742.3961.5485.7618.8228 1.1275.1524.2134.1524.3962-.0914.5791-2.2247 1.6456-4.6628 2.1028-7.2532 1.158-1.6761-.6095-2.6818-1.8894-2.7732-3.7179-.0914-1.5238-.0914-3.0476 0-4.54086.1829-2.22469 1.6152-3.71798 3.8094-4.11416 1.3714-.2438 2.7123-.21333 3.9923.39618 1.6761.79236 2.4685 2.13327 2.5599 3.93131.0609.88383 0 1.79803.0305 2.68183 0 .4266-.1524.5485-.5486.5485-2.1942 0-4.358 0-6.5522 0-.1219-.0609-.3047-.0609-.4876-.0609zm4.9065-2.1942c.061-1.09713 0-2.16377-1.0666-2.71232-1.0057-.51808-2.0723-.51808-3.017.15238-.8533.6095-.8229 1.58471-.8229 2.55994z"/><path d="m112.849 12.6903c-.243 1.8895.823 2.9866 2.652 2.8647 1.127-.0609 2.133-.3657 3.047-1.0057.336-.2133.549-.1828.762.1524.244.3657.549.7314.823 1.0971.152.2133.183.3962-.061.579-2.255 1.6762-4.724 2.1333-7.375 1.1276-1.646-.64-2.59-1.9199-2.682-3.6875-.061-1.4933-.091-3.017 0-4.51032.183-2.2247 1.585-3.71798 3.779-4.14464 1.372-.27427 2.712-.21332 3.992.36571 1.677.76188 2.469 2.13326 2.591 3.9313.061.88375.03 1.79805.03 2.68185 0 .4876-.061.5485-.579.5485-2.194 0-4.358 0-6.552 0-.091 0-.244 0-.427 0zm4.846-2.1942c.183-1.219-.152-2.19421-.945-2.65134-.975-.54855-2.011-.57902-2.986.03048-.976.60951-.945 1.61519-.945 2.62086z"/><path d="m43.9455 10.3438c.0305-.70098.0305-1.34096-.2743-1.91999-.3047-.6095-.9142-.85331-1.5542-.88378-1.219-.09143-2.3771.06095-3.4437.63998-.3657.18285-.579.15237-.7924-.21333-.2133-.39618-.4876-.76188-.7314-1.12758-.2133-.30476-.1828-.48761.1524-.67046 1.4628-.88378 3.078-1.15806 4.7846-1.09711 1.1276.03048 2.1943.27428 3.1085.97521 1.0057.76188 1.4628 1.82852 1.5238 3.04753.0914 1.67613.0609 3.35223.0609 5.02843v2.6513c0 .3048-.0914.5486-.4266.64-2.1943.579-4.3885.9143-6.6436.4571-1.219-.2438-2.3162-.7618-2.9561-1.9504-1.1886-2.2247-.061-4.6932 2.377-5.3636 1.3714-.3962 2.7428-.3657 4.1447-.2133.1828-.0305.3961-.0305.6704 0zm0 2.2551c-.3352-.0305-.6095-.0914-.8838-.1219-.9752-.0609-1.9809-.1828-2.9561.1219-.6399.2133-.9752.6705-1.0056 1.28-.0305.6704.2438 1.1276.8837 1.4018 1.3105.5486 2.6209.2743 3.9313.0305.0305-.9142.0305-1.798.0305-2.7123z"/><path d="m29.2865 3.24298c-1.1276 0-4.2361 0-4.7237 0-.3048 0-.4876-.1219-.4876-.45713 0-.6095 0-1.18853 0-1.798039 0-.304753.1524-.426654.4571-.426654h.3048 11.8244c.6704 0 .7009.030476.7009.700933v1.37138c0 .54856-.0609.60951-.6095.60951-1.3409 0-2.6818 0-4.0532 0-.1524 0-.3048 0-.5486 0v.54855 13.19577c0 .7314 0 .7314-.7314.7314-.579 0-1.1276 0-1.7066 0-.3047 0-.4571-.1219-.4266-.4266 0-.1219 0-.2438 0-.3962 0-4.358 0-8.7464 0-13.10437 0-.1219 0-.30475 0-.54855z"/><path d="m122.724 8.6676c.396-1.95042 1.737-3.07801 3.626-3.47418 1.859-.39618 3.657-.1219 5.333.8533.457.27428.457.36571.183.79236-.183.30475-.396.57903-.579.88378-.396.63998-.396.60951-1.067.30475-.761-.3657-1.554-.54855-2.407-.51807-1.585.06095-2.377.88378-2.408 2.43802 0 1.06664-.03 2.16374 0 3.23034.031 1.4019.823 2.1943 2.195 2.2857 1.097.0914 2.072-.1829 2.986-.7619.366-.2438.61-.1829.823.1828.244.3962.549.7924.823 1.1886.183.2438.152.4266-.122.6095-2.164 1.4323-4.48 1.7066-6.887.7314-1.738-.7009-2.53-2.1333-2.652-3.9618-.03-.6704 0-1.3714 0-2.0418 0-.2438-.03-1.82855.153-2.7428z"/><path d="m62.7485 7.50952c0-2.13327 0-4.26654 0-6.36933 0-.487607.061-.579033.5486-.579033h1.6457c.4876 0 .579.091426.579.579033v5.02842c0 2.46849 0 4.96749.0305 7.43599 0 .2133.0304.4571.0914.6704.1828.8229.579 1.1581 1.4323 1.1886.3048 0 .6095 0 .8838-.0305.2743 0 .4267.1219.4267.3962 0 .579.0304 1.1275-.0305 1.7066 0 .1524-.1829.3962-.3048.3962-.9447.0914-1.9199.1828-2.8646-.1829-1.4629-.5486-2.1028-1.7371-2.3466-3.1694-.0915-.5791-.0915-1.1581-.0915-1.7371 0-1.7676 0-3.53514 0-5.33318z"/></g></svg>