<svg fill="none" height="54" viewBox="0 0 74 54" width="74" xmlns="http://www.w3.org/2000/svg" xmlns:xlink="http://www.w3.org/1999/xlink"><clipPath id="a"><path d="m.63916.529785h72.6186v53.4702h-72.6186z"/></clipPath><g clip-path="url(#a)"><path d="m72.7509 52.3081c0 .7792-.5722 1.3021-1.2495 1.3021v-.0047c-.6965.0047-1.2581-.5182-1.2581-1.2972 0-.7787.5616-1.3002 1.2581-1.3002.6776-.0003 1.2495.5213 1.2495 1.3zm.5068 0c0-1.0692-.8306-1.6899-1.7563-1.6899-.932 0-1.7626.6207-1.7626 1.6899 0 1.0687.8308 1.6918 1.7626 1.6918.9259 0 1.7563-.6231 1.7563-1.6918zm-2.0476.143h.188l.4358.7651h.4785l-.4826-.7973c.2494-.0178.4545-.1366.4545-.4724 0-.4171-.2876-.5512-.7748-.5512h-.7048v1.8209h.4052v-.7651zm0-.3083v-.4384h.2818c.1534 0 .3622.0124.3622.1994 0 .2035-.108.239-.2888.239z" fill="#000"/><path d="m61.4305 42.9932 2.1898 5.9906h-4.4473zm-2.3451-2.3325-5.0463 12.7857h3.5634l.7982-2.2592h5.9719l.7554 2.2592h3.8684l-5.0839-12.7873zm-10.1312 12.7904h3.6152v-12.7943l-3.6158-.0008zm-25.0975-12.7951-3.0163 10.1405-2.8894-10.1397-3.9007-.0008 4.1266 12.7951h5.2083l4.1598-12.7951zm14.6132 2.786h1.5538c2.2542 0 3.7121 1.012 3.7121 3.6384 0 2.627-1.4579 3.6392-3.7121 3.6392h-1.5538zm-3.5849-2.786v12.7951h5.861c3.1227 0 4.1423-.519 5.2448-1.6835.7788-.8176 1.2825-2.6119 1.2825-4.5734 0-1.799-.4262-3.4026-1.1694-4.4018-1.3391-1.7871-3.2681-2.1364-6.147-2.1364zm-34.24584-.0178v12.8129h3.64581v-9.7289l2.82491.0008c.93537 0 1.60214.2331 2.05257.7143.57131.6085.80458 1.5908.80458 3.3876v5.6262h3.53277v-7.0792c0-5.0525-3.2204-5.7337-6.37132-5.7337zm28.42744.0178.0014 12.7951h3.6136v-12.7951z" fill="#000"/><path d="m10.3549 15.1796s4.6498-6.86044 13.9339-7.57018v-2.48895c-10.2833.82586-19.18821 9.53533-19.18821 9.53533s5.04361 14.5801 19.18821 15.9151v-2.6455c-10.38-1.3059-13.9339-12.7458-13.9339-12.7458zm13.9339 7.4844v2.4228c-7.845-1.3986-10.0225-9.5535-10.0225-9.5535s3.7666-4.1727 10.0225-4.8494v2.6586c-.0048 0-.0081-.0014-.012-.0014-3.2834-.3941-5.8484 2.6732-5.8484 2.6732s1.4377 5.1637 5.8604 6.6497zm0-22.134215v4.590685c.3019-.02314.6037-.04277.9073-.0531 11.6909-.39402 19.3084 9.58843 19.3084 9.58843s-8.7489 10.6385-17.8638 10.6385c-.8353 0-1.6174-.0775-2.3519-.2077v2.8388c.6281.0797 1.2794.1266 1.959.1266 8.4819 0 14.6159-4.3318 20.5554-9.4586.9847.7886 5.0163 2.7073 5.845 3.5472-5.6473 4.7281-18.8088 8.5394-26.2705 8.5394-.7192 0-1.41-.0436-2.0889-.1091v3.989h32.2393v-34.030115zm0 10.154115v-3.07427c.2988-.02087.5998-.03699.9073-.0467 8.4069-.26406 13.9224 7.22447 13.9224 7.22447s-5.9572 8.2737-12.3447 8.2737c-.9192 0-1.7435-.1477-2.4852-.3971v-9.3215c3.2728.3955 3.9315 1.8412 5.8992 5.1213l4.3762-3.69s-3.1945-4.1897-8.5797-4.1897c-.5853-.0002-1.1455.0409-1.6955.0998z" fill="#77b900"/></g></svg>