<svg width="46" height="46" viewBox="0 0 46 46" fill="none" xmlns="http://www.w3.org/2000/svg">
<path d="M13.6733 8.69238H16.1795C17.5437 8.72411 18.654 9.83445 18.654 11.1986V16.1476C18.6223 17.5117 17.5437 18.622 16.1795 18.622H13.6733V8.69238Z" fill="#31006F"/>
<path d="M27.3464 29.8207C27.3464 28.4565 28.4568 27.3462 29.8209 27.3462C31.1851 27.3462 32.2954 28.4565 32.2954 29.8524V34.4207L30.6458 32.771L28.9009 34.5158L31.2168 36.8317C30.8044 37.1172 30.3285 37.2758 29.8209 37.2758C28.4568 37.2758 27.3464 36.1655 27.3464 34.8013V29.8207Z" fill="#31006F"/>
<path fill-rule="evenodd" clip-rule="evenodd" d="M0 46V0H46V46H0ZM17.4166 27.3462H21.16V24.8717H11.1986V27.3462H14.9103V37.2759H11.1986V39.7503H21.16V37.2759H17.4166V27.3462ZM16.1793 21.16C18.9076 21.1283 21.1283 18.9076 21.1283 16.1793V11.1986C21.1283 8.47034 18.9076 6.24966 16.1793 6.24966H11.1986V21.16H16.1793ZM29.2179 12.4359C26.8069 12.4676 24.8717 14.4028 24.8717 16.8138L24.84 21.1283H34.8014V18.6538H27.3462V16.7821C27.3462 15.7352 28.2028 14.9103 29.2179 14.9103H30.4552C32.7076 14.7834 34.5159 13.0069 34.611 10.7545C34.7062 8.37517 32.8662 6.34483 30.4552 6.21793H24.8717V8.69241H30.4552C31.5021 8.69241 32.3269 9.54897 32.3269 10.5641C32.3269 11.611 31.4703 12.4359 30.4552 12.4359H29.2179ZM32.9931 38.6717L34.8648 40.5434L36.6414 38.7669L34.4841 36.6097C34.7062 36.0386 34.8014 35.4359 34.8014 34.8331V29.8524C34.7379 27.1876 32.5807 25.0621 29.9476 24.9986C27.1876 24.9352 24.9034 27.0924 24.84 29.8524V34.8331C24.84 36.0069 25.2524 37.1172 25.9821 38.0055C27.7269 40.131 30.8676 40.4165 32.9931 38.6717Z" fill="#31006F"/>
</svg>
