<svg fill="none" height="18" viewBox="0 0 122 18" width="122" xmlns="http://www.w3.org/2000/svg" xmlns:xlink="http://www.w3.org/1999/xlink"><clipPath id="a"><path d="m0 .285706h122v17.4286h-122z"/></clipPath><g clip-path="url(#a)"><path d="m15.5208 17.2432v-16.957494h3.8626v16.957494zm75.0842-6.3355c0-4.09806-3.1795-6.64169-6.9007-6.64169-3.7448 0-6.9008 2.56719-6.9008 6.64169 0 4.0981 3.1795 6.6653 6.9008 6.6653 3.7212 0 6.9007-2.5908 6.9007-6.6653zm-3.8154 0c0 2.1433-1.4367 3.3444-3.1089 3.3444s-3.1089-1.2011-3.1089-3.3444c0-2.16678 1.4367-3.32084 3.1089-3.32084s3.1089 1.15406 3.1089 3.32084zm-72.8232 1.4602c0-1.9077-.9892-3.36791-2.7556-4.02737 1.6722-.91853 2.261-2.11969 2.261-3.53282 0-2.47297-1.7899-4.522004-5.79381-4.498452h-7.67799v16.957542h8.00772c4.02738-.0236 5.95868-2.0255 5.95868-4.8989zm-4.59265-7.06559c0 1.15405-.73012 1.81351-2.14325 1.81351h-3.20309v-3.53282h3.20309c1.29537 0 2.14325.56525 2.14325 1.71931zm.35328 6.80659c0 1.1069-.77722 1.837-2.2139 1.837h-3.48572v-3.6741h3.48572c1.38957 0 2.2139.7066 2.2139 1.8371zm37.87177-4.38072c-1.0598-2.2139-3.0382-3.43861-6.0293-3.43861-3.5328 0-6.6888 2.2139-6.6888 6.61813 0 4.2865 2.7791 6.6653 6.6417 6.6653 2.7085 0 4.993-1.0834 6.0764-3.4151l-3.1088-1.6015c-.5653 1.0363-1.4367 1.6957-2.8263 1.6957-1.79 0-2.944-1.2718-2.944-3.3444 0-2.07257 1.3189-3.32084 2.9205-3.32084 1.2482 0 2.1903.56525 2.7791 1.78996zm56.9252 0c-1.06-2.2139-3.038-3.43861-6.029-3.43861-3.5328 0-6.6888 2.2139-6.6888 6.61813 0 4.2865 2.7791 6.6653 6.6417 6.6653 2.7081 0 4.9931-1.0834 6.0761-3.4151l-3.109-1.6015c-.565 1.0363-1.4362 1.6957-2.8258 1.6957-1.79 0-2.944-1.2718-2.944-3.3444 0-2.07257 1.3189-3.32084 2.9204-3.32084 1.2483 0 2.1904.56525 2.7794 1.78996zm-32.3838 9.51502-3.2267-5.6996h-2.473v5.6996h-3.9803v-16.957494h7.1834c3.8861 0 6.5946 1.860614 6.5946 5.511194 0 2.33166-1.154 3.98031-3.2031 4.9931l3.7213 6.4532zm-5.6761-9.06753h2.9676c1.837 0 2.732-1.0363 2.732-2.26101 0-1.46023-.8479-2.261-2.732-2.261h-2.9676zm-32.2193 8.85563v-2.6614c-.1649.0471-.4004.0942-.6595.0942-.4946 0-.7536-.2591-.7536-.7066v-4.40423c0-3.29729-2.2139-5.04015-5.8645-5.04015-2.3788 0-4.4043.87143-5.6761 2.00193l2.1433 2.40232c.8478-.75367 1.9783-1.22471 3.0853-1.22471 1.6957 0 2.4965.84787 2.4965 2.23745v.40039c-.8008-.18842-1.8135-.37684-3.0382-.37684-3.0853 0-5.0873 1.48374-5.0873 3.93324 0 2.52 1.6722 3.839 4.263 3.839 1.7664 0 3.3444-.7302 4.1687-1.6722.4946 1.2482 1.578 1.578 2.6378 1.578.7301.0235 1.578-.0943 2.2846-.4004zm-5.205-3.9803c0 1.154-1.107 1.9077-2.3788 1.9077-1.2012 0-1.79-.6124-1.79-1.4603 0-.8949.6595-1.5544 2.002-1.5544.8243 0 1.5544.1413 2.1668.2826zm89.2862 4.1922-4.546-7.88993 4.263-4.63977h-4.286l-4.499 4.99305v-9.397292h-3.839v16.957542h3.839v-3.0618l1.837-1.9548 2.874 5.0166h4.357zm-56.8785 0-4.5456-7.88993 4.263-4.63977h-4.3336l-4.4514 4.99305v-9.397292h-3.839v16.957542h3.839v-3.0618l1.8371-1.9548 2.8733 5.0166h4.3572zm59.2335-2.3552c.801 0 1.272.4946 1.272 1.2483s-.471 1.2482-1.272 1.2482-1.272-.4945-1.272-1.2482.471-1.2483 1.272-1.2483zm0 2.3317c.636 0 1.06-.3769 1.06-1.0834 0-.7066-.448-1.0834-1.06-1.0834-.636 0-1.06.3768-1.06 1.0834-.023.7301.424 1.0834 1.06 1.0834zm-.495-1.7193h.519c.306 0 .471.1648.471.4004 0 .2119-.095.3297-.259.4003l.235.4475h-.235l-.212-.4003h-.283v.4003h-.236zm.236.1884v.4475h.259c.165 0 .259-.0471.259-.212 0-.1413-.07-.212-.235-.212h-.283z" fill="#000"/></g></svg>