<svg fill="none" height="20" viewBox="0 0 147 20" width="147" xmlns="http://www.w3.org/2000/svg" xmlns:xlink="http://www.w3.org/1999/xlink"><clipPath id="a"><path d="m0 .200012h147v19.6h-147z"/></clipPath><g clip-path="url(#a)"><path d="m135.458 12.0144c1.47-.8167 3.212-1.9055 4.628-3.70221-1.416-1.74222-3.376-2.77666-4.792-3.59333 3.485-.76222 6.534 2.66778 6.534 2.66778l.816.92555-.816.92556c-3.158 3.42995-6.37 2.77665-6.37 2.77665z" fill="#fb7c32"/><path d="m134.097 10c.902 0 1.633-.73126 1.633-1.63333 0-.90206-.731-1.63333-1.633-1.63333s-1.634.73127-1.634 1.63333c0 .90207.732 1.63333 1.634 1.63333z" fill="#32515b"/><path d="m136.383 15.4445c-6.043 0-10.072-6.26114-10.29-6.53337l-.381-.59889.381-.59888c.163-.27223 4.192-6.42445 10.236-6.42445 3.593 0 6.968 2.12333 10.126 6.37l.49.65333-.49.65334c-3.103 4.30112-6.533 6.47892-10.072 6.47892zm-7.949-7.13226c1.089 1.41556 4.083 4.89996 7.949 4.89996 2.613 0 5.281-1.6333 7.84-4.89996-2.559-3.21222-5.227-4.84555-7.84-4.84555-3.866 0-6.86 3.43-7.949 4.84555z" fill="#fb7c32"/><path d="m131.756 15.4445c-5.88-.1634-9.691-6.37003-9.855-6.64226l-.326-.59889.381-.59888c.163-.27223 3.92-6.15223 9.745-6.37-4.519 2.12333-7.731 7.07777-7.731 7.07777s2.722 4.51886 7.786 7.13226z" fill="#fb7c32"/><path d="m115.368 12.7767c.272 0 1.034.5444 2.014.5444.871 0 1.252-.3266 1.252-.9255 0-1.7967-4.029-.7623-4.029-4.41003 0-2.01444 1.416-3.32111 3.757-3.32111.653 0 2.995.16333 2.995 1.30667 0 .27222-.49 1.52444-.872 1.52444-.217 0-.816-.43555-1.742-.43555-.708 0-1.089.21777-1.089.76222 0 1.47 4.029.70777 4.029 4.35556 0 2.1233-1.524 3.5389-3.811 3.5389-1.797 0-3.539-.49-3.539-1.47-.054-.3267.599-1.47 1.035-1.47z" fill="#fb7c32"/><path d="m85.3145 2.10558c0-.54445.2177-.81667.8166-.81667h7.4045c.4355 0 .5989.32667.5989 1.03444v.59889c0 .70778-.1634 1.03445-.5989 1.03445h-5.1178v2.94h4.5733c.4356 0 .5989.32666.5989 1.03444v.65334c0 .70777-.1633 1.03444-.5989 1.03444h-4.5733v3.32109h5.1722c.4356 0 .5989.3267.5989 1.0345v.6533c0 .7078-.1633 1.0344-.5989 1.0344h-7.4589c-.5444 0-.8166-.2177-.8166-.8166z" fill="#fb7c32"/><path d="m94.8425 5.6989c-.0544-.16333-.0544-.27222-.0544-.38111 0-.27222.3811-.43556 1.2522-.43556h.6533c.5989 0 1.0345.10889 1.1434.43556l1.1977 3.75666c.1634.49.3812 1.57885.5445 2.45005h.0544c.1634-.8712.4354-2.01449.5444-2.45005l1.198-3.75666c.109-.32667.544-.43556 1.143-.43556h.49c.871 0 1.198.16334 1.198.43556 0 .10889 0 .21778-.054.38111l-4.6827 13.6656c-.1089.3266-.5444.4355-1.1433.4355h-.3267c-.8167 0-1.2522-.1633-1.2522-.4355 0-.1089 0-.2178.0544-.3812l1.3067-3.43z" fill="#fb7c32"/><path d="m109.324 4.77335c3.213 0 4.41 2.45 4.41 5.28115 0 .3266-.762 1.1977-1.034 1.1977h-5.172c.163 1.6334 1.034 2.1234 2.341 2.1234 1.306 0 2.178-.6534 2.45-.6534.435 0 1.034 1.1434 1.034 1.5245 0 1.0344-2.504 1.47-3.648 1.47-3.702 0-5.281-2.1234-5.281-5.4445 0-3.97441 2.015-5.49885 4.9-5.49885zm1.47 4.41c0-1.19778-.435-2.06889-1.47-2.06889-.871 0-1.579.49-1.851 2.06889z" fill="#fb7c32"/><g fill="#32515b"><path d="m73.7173 10.2178c0-3.32112 1.5244-5.4989 4.3011-5.4989.98 0 1.6333.32667 2.0689.65333v-4.518884c0-.435556.3811-.653334 1.1978-.653334h.5444c.8711 0 1.1978.217778 1.1978.653334v11.161154c0 2.1233.2178 2.5044.2178 2.94 0 .49-1.7967.6533-2.2867.6533-.6533 0-.7078-.8711-.8167-1.4156-.49.8711-1.47 1.5245-2.7222 1.5245-2.1233.0544-3.7022-1.9056-3.7022-5.4989zm6.3155 1.8511v-4.57333c-.3266-.16334-.8166-.38111-1.4155-.38111-1.3067 0-1.9056 1.03444-1.9056 3.10334 0 1.96.5445 3.0489 1.6334 3.0489.8166 0 1.3611-.5445 1.6877-1.1978z"/><path d="m63.5913 8.53001c0-2.01444-.2178-2.45-.2178-2.88555 0-.49 1.7967-.65334 2.2867-.65334.6533 0 .7078.81667.8167 1.30667.5989-.76222 1.7422-1.52444 3.0489-1.52444 2.0144 0 2.9944 1.03444 2.9944 3.32111v6.91444c0 .4356-.3811.6533-1.2522.6533h-.5445c-.8711 0-1.1977-.2177-1.1977-.6533v-6.47889c0-.81666-.3267-1.25222-1.2523-1.25222-.8166 0-1.3611.70778-1.6333 1.19778v6.53333c0 .4356-.3811.6533-1.1978.6533h-.5444c-.8711 0-1.1978-.2177-1.1978-.6533z"/><path d="m58.3644 8.96557v-.65334c0-.76222-.49-1.14333-1.5789-1.14333-1.47 0-2.3411.65334-2.6133.65334-.4356 0-1.0345-1.19778-1.0345-1.63334 0-.70778 1.6333-1.41555 3.8656-1.41555 3.2122 0 4.3555 1.41555 4.3555 3.43v3.86555c0 2.1233.2178 2.5044.2178 2.94 0 .49-1.7967.6533-2.2867.6533-.6533 0-.7077-.8711-.8166-1.4155-.1634.2722-1.0889 1.5244-2.9945 1.5244-2.1778 0-2.9944-1.3066-2.9944-2.9944.0544-1.6878.7078-3.81113 5.88-3.81113zm-1.8511 4.41003c.7622 0 1.5244-.5445 1.8511-1.3067v-1.1433c-1.9056 0-2.8311.5444-2.8311 1.5244 0 .5445.3266.9256.98.9256z"/><path d="m44.971 12.7767c.2722 0 1.0344.5444 2.0144.5444.8711 0 1.2522-.3266 1.2522-.9255 0-1.7967-4.0289-.7623-4.0289-4.41003 0-2.01444 1.4156-3.32111 3.7567-3.32111.6533 0 2.9945.16333 2.9945 1.30667 0 .27222-.49 1.52444-.8712 1.52444-.2177 0-.8166-.43555-1.7422-.43555-.7078 0-1.0889.21777-1.0889.76222 0 1.47 4.0289.70777 4.0289 4.35556 0 2.1233-1.5244 3.5389-3.8111 3.5389-1.7967 0-3.5389-.49-3.5389-1.47 0-.3267.6534-1.47 1.0345-1.47z"/><path d="m33.592 5.53557c0-.43556.3812-.65334 1.1978-.65334h.5445c.8711 0 1.1977.21778 1.1977.65334v6.47893c0 .8166.3267 1.2522 1.1978 1.2522.8167 0 1.3611-.7078 1.6334-1.1978v-6.53333c0-.43556.3811-.65334 1.1977-.65334h.5445c.8711 0 1.1978.21778 1.1978.65334v6.47893c0 2.1233.2722 2.5044.2722 2.94 0 .49-1.7967.6533-2.2867.6533-.6533 0-.7078-.8711-.8167-1.4156-.5988.7623-1.7422 1.5245-3.0488 1.5245-2.0145 0-2.9945-1.0345-2.9945-3.3211v-6.86003z"/><path d="m27.0042 4.77335c3.2123 0 4.9 1.96 4.9 5.49885 0 3.5389-1.6877 5.4989-4.9 5.4989-3.2122 0-4.9544-1.96-4.9544-5.4989 0-3.53885 1.7422-5.49885 4.9544-5.49885zm1.9056 5.44445c0-2.01445-.5444-3.10334-1.8511-3.10334s-1.9056 1.03444-1.9056 3.10334.5989 3.1033 1.9056 3.1033c1.2522.0545 1.8511-1.0344 1.8511-3.1033z"/><path d="m11.9233.853346c0-.435556.3812-.653334 1.2523-.653334h.5444c.8711 0 1.1978.217778 1.1978.653334v5.281114c.5989-.76223 1.6333-1.41556 2.8855-1.41556 2.0145 0 3.0489 1.03445 3.0489 3.32111v6.91449c0 .4355-.3811.6533-1.1977.6533h-.5445c-.8711 0-1.1978-.2178-1.1978-.6533v-6.42449c0-.81666-.4355-1.25222-1.3066-1.25222-.8167 0-1.3611.70778-1.6334 1.19778v6.53333c0 .4356-.3811.6533-1.1977.6533h-.5445c-.8711 0-1.1978-.2177-1.1978-.6533z"/><path d="m3.86556 3.95669h-3.266671c-.435556 0-.598889-.27222-.598889-.98v-.65334c0-.70777.163333-1.03444.598889-1.03444h9.636711c.4355 0 .5988.32667.5988 1.03444v.65334c0 .70778-.1633 1.03444-.5988 1.03444h-3.21227v10.99777c0 .4356-.38111.6533-1.19777.6533h-.76223c-.87111 0-1.25222-.2177-1.25222-.6533.05445-.0544.05445-11.05221.05445-11.05221z"/></g></g></svg>