<svg fill="none" height="50" viewBox="0 0 115 50" width="115" xmlns="http://www.w3.org/2000/svg"><g clip-rule="evenodd" fill-rule="evenodd"><path d="m35.3332 27.6646c-.2711-.0611-.6624-.2711-.9634-.5122-2.7395-2.6186.7521-5.689 4.7859-7.4644v-5.0571c.9635.5721 1.4445.6319 1.505.7223l3.0704-3.0704-1.0239-2.58866c9.0304-3.13018 12.6722-4.33415 20.0163-5.56869l-1.3236-1.20397 2.1674-1.26377c4.9368 1.65579 9.5421 2.07705 8.7601 6.20125.2099-2.7694-3.2525-3.85311-8.6092-5.35807l-.994.63189 1.9568 1.62522c-8.7893 1.53553-14.2071 3.22122-20.619 5.4484l.8432 2.287-3.1914 3.1608c.5422.1508 6.1408 2.0471 12.0105-2.0465.0299-.0299.1203-.0605.1203-.1209-.2107-.301-.5721-.5721-1.0532-1.0239 1.6857.1209 2.7993 1.6252 2.5887 3.1906h-.7827c.0903-.4817-.0299-1.0531-.2406-1.4146-4.4849 3.3109-9.7526 3.7927-14.2376 2.2279v3.9129c-2.198.7521-6.0803 3.1608-6.0504 5.4783.1501 1.1136.7222 1.5057 1.2644 1.8066z" fill="#000"/><path d="m53.6637 26.6408c-4.8464 2.4983-9.4822 4.4551-16.706 4.7262-9.3016-.1814-10.7461-6.382-6.3215-12.8537 4.1534-6.5314 10.7765-12.46157 21.3412-16.16384 3.0099-1.0538 7.556-2.3175716 11.8603-2.3481359 6.2304-.0597998 12.2802 1.8963159 11.8902 7.8264659-.2113 4.57531-6.8026 11.04701-10.265 15.68281-1.5056 2.0173-1.7455 3.3109.7827 3.2199 9.1813-.6007 17.5791-3.792 25.2853-7.1029-5.178 3.5216-32.3277 16.9758-32.4785 7.7959.0299-1.1435.6019-2.378 1.4743-3.6724.8731-1.2943 2.0778-2.679 3.3116-4.0936 1.8365-2.1069 6.4106-7.164 7.9461-10.20382 2.5887-5.71885-3.2212-6.02051-8.2172-7.7959l-2.1674 1.26377 1.2937 1.20397c-7.3142 1.23387-10.9567 2.43784-19.9871 5.56869l1.0239 2.58869-3.0704 3.0704c-.0604-.0904-.5415-.1502-1.5049-.7223v5.0571c-4.0332 1.7754-7.5255 4.8458-4.786 7.4643.301.2412.6923.4518.9634.5123h-.0305c4.9673 2.7993 18.3917-1.0239 18.3618-1.0239zm-30.9437 13.3048v-2.3475h3.4318v2.3475zm.1508 9.6616v-8.3666h3.1907v8.3666zm71.7305-7.3739c1.6857 0 3.0704 1.3847 3.0704 3.0703.0008.4035-.0781.8031-.2321 1.176-.154.3728-.3802.7116-.6654.9969-.2853.2853-.6241.5114-.997.6654-.3728.154-.7724.2329-1.1759.2321-.4041.0034-.8049-.0737-1.1789-.2268-.3741-.1531-.7139-.3792-.9997-.665-.2858-.2857-.5118-.6256-.6649-.9996s-.2302-.7748-.2269-1.179c-.0007-.4034.0781-.803.2322-1.1759.154-.3728.3801-.7116.6654-.9969.2852-.2853.624-.5114.9969-.6654s.7725-.2329 1.1759-.2321zm0 7.5852c2.4684 0 4.485-2.0166 4.485-4.5149 0-2.4684-2.0166-4.4849-4.485-4.4849-2.4983 0-4.5149 2.0165-4.5149 4.4849-.0007.5932.1155 1.1806.3421 1.7288.2266.5481.5592 1.0461.9786 1.4655s.9174.7519 1.4655.9786c.5481.2266 1.1356.3428 1.7287.342zm-16.4044-.2113h1.4146v-1.2936h-1.4146zm10.7454-1.0823c-.4518.3907-1.3847 1.2936-3.1302 1.2936-2.2877 0-4.485-1.8066-4.485-4.5149 0-2.6783 2.1973-4.4849 4.485-4.4849 1.6558 0 2.6784.9029 3.1302 1.2936-.2711.3608-.5116 1.1136-.6319 1.4445-.8425-1.1435-1.8664-1.3235-2.4983-1.3235-1.6857 0-3.0704 1.4146-3.0704 3.0703 0 1.6857 1.3847 3.1003 3.0704 3.1003.9329 0 1.8365-.4219 2.5282-1.3249.21.7529.4512 1.1748.602 1.4459zm12.1607 1.0823v-8.3666h1.264v1.1734c.265-.4118.627-.7526 1.053-.9927.459-.26.979-.3951 1.506-.392.602 0 1.114.1508 1.504.392.392.2698.693.6319.844 1.0837.662-.9641 1.536-1.4757 2.589-1.4757.813 0 1.474.2412 1.896.693.452.4817.692 1.1734.692 2.1362v5.7487h-1.415v-5.2663c0-.5721-.059-.994-.151-1.2339-.087-.2497-.257-.4621-.481-.602-.263-.1608-.565-.2444-.873-.2412-.571 0-1.053.21-1.445.602s-.602 1.0239-.602 1.8664v4.8757h-1.414v-5.4478c0-.6318-.121-1.1136-.331-1.4146-.241-.3009-.632-.4817-1.145-.4817-.391 0-.752.121-1.112.3309-.333.2113-.572.5123-.723.903-.151.4219-.242.994-.242 1.7767v4.3328zm10.806-10.2031v-1.596h-.602v-.21h1.445v.21h-.603v1.596zm1.054 0v-1.8067h.361l.452 1.2937c.03.1209.06.2113.089.2711 0-.0598.032-.1801.092-.301l.421-1.2638h.331v1.8067h-.241v-1.5057l-.511 1.5057h-.24l-.513-1.5356v1.5356zm-40.7567 8.9699c-.3309.4505-.8438.8127-1.5056 1.0525-.1456.0642-.2969.1147-.4518.1508-.5721.1522-1.204.2113-1.9256.2113-1.0538 0-1.8664-.2113-2.4385-.6617-.602-.422-.8731-1.0539-.8731-1.8665 0-.5123.121-.9641.3309-1.3548.2113-.392.5422-.7229.9641-.994.3309-.2099.8126-.3608 1.4146-.4518.5409-.0598 1.3847-.1196 2.5282-.1196h1.8957v-.1209-.1209c0-.4519-.1196-.7828-.3907-1.024-.2711-.2398-.6618-.3607-1.1747-.3607h-.3309c-.422.0299-.723.1209-.9628.2411-.2711.1509-.4518.4206-.5116.7529h-3.2212c.0897-.903.572-1.5661 1.3847-2.018.7528-.3906 1.8664-.6019 3.3102-.6318.1209-.0299.2412-.0299.392-.0299 1.5648 0 2.7395.2711 3.4611.7827.7528.5422 1.1435 1.3249 1.1435 2.4385v4.2438c0 .2412 0 .4518.0312.602.0299.1813.0598.3621.121.5116h-2.9807c-.0684-.1647-.1189-.3362-.1509-.5116-.0362-.1882-.0562-.3792-.0598-.5708v-.1502zm-1.9568-.392c.5422-.0598.994-.2099 1.3249-.5116.3608-.301.5708-.7827.5708-1.4146v-.1801h-.2698c-.6319 0-1.1747 0-1.6259.0598-.3885.0216-.7727.0921-1.1435.21-.5123.1801-.7528.4817-.7528.903 0 .301.1209.5422.3907.693.2711.1495.6631.2399 1.204.2399zm-9.6317-2.7986c0-.7528-.21-1.3548-.6319-1.8066-.4219-.4519-.9628-.6618-1.6558-.6618h-.0299c-.7528 0-1.3249.2099-1.7162.6618-.3914.4219-.602 1.0837-.602 1.9268 0 .8127.2106 1.4445.602 1.8964.4205.4518.9634.6617 1.6863.6617h.0299c.7229 0 1.2937-.2398 1.6857-.6916.4212-.4818.6319-1.1449.6319-1.9867zm-2.3183-4.0039c.3907-.121.8426-.1509 1.2937-.1509 1.3249 0 2.3787.392 3.1302 1.1748.784.7528 1.1747 1.8066 1.1747 3.16 0 1.3847-.3907 2.4685-1.1136 3.2512-.7528.7827-1.8066 1.1747-3.1302 1.1747-.483 0-.9342-.0598-1.3548-.1814-.2421-.0582-.4752-.1489-.693-.2698-.6319-.301-1.1435-.7229-1.5953-1.2936v.2398c0 .2412 0 .4519-.0299.6618 0 .2113-.0299.4518-.0598.6618h-3.2212c.0299-.3608.0605-.6917.0904-.9927.0292-.3309.0292-.6319.0292-.9016v-10.1148h3.1906v4.8458c.4818-.4818 1.0246-.8426 1.6253-1.0539.2126-.0903.4225-.1813.6637-.2112zm-10.6862 7.1945c-.3608.4505-.8432.8127-1.5348 1.0525-.142.0732-.2944.124-.4519.1508-.5415.1522-1.2039.2113-1.8963.2113-1.0538 0-1.8963-.2113-2.4684-.6617-.5721-.422-.8731-1.0539-.8731-1.8665 0-.5123.1203-.9641.3615-1.3548.2106-.392.5415-.7229.9628-.994.3315-.2099.7827-.3608 1.3847-.4518.5721-.0598 1.4146-.1196 2.5288-.1196h1.8964c0-.0312 0-.091.0305-.1209v-.1209c0-.4519-.1508-.7828-.3913-1.024-.2711-.2398-.6625-.3607-1.1734-.3607h-.3615c-.3914.0299-.7222.1209-.9329.2411-.301.1509-.4518.4206-.5123.7529h-3.2511c.121-.903.5721-1.5661 1.4146-2.018.7522-.3906 1.8359-.6019 3.281-.6318.1509-.0299.2705-.0299.3914-.0299 1.5953 0 2.7388.2711 3.4916.7827.7528.5422 1.1143 1.3249 1.1143 2.4385v4.2438c0 .2412.0299.4518.0299.602.0299.1813.0904.3621.1508.5116h-2.98c-.0897-.1495-.1203-.3296-.1502-.5116-.0299-.1801-.0604-.3608-.0604-.5708v-.1502zm-1.986-.392c.5714-.0598 1.0232-.2099 1.3249-.5116.3907-.301.5714-.7827.5714-1.4146v-.1801h-.2405c-.6326 0-1.204 0-1.6558.0598-.3788.0211-.7532.0917-1.1136.21-.5116.1801-.7827.4817-.7827.903 0 .301.1508.5422.3913.693.2711.1495.6625.2399 1.204.2399zm-9.6324-2.7986c0-.7528-.1801-1.3548-.602-1.8066-.4219-.4519-.9634-.6618-1.6558-.6618h-.0605c-.7222 0-1.2943.2099-1.6856.6618-.4213.4219-.602 1.0837-.602 1.9268 0 .8127.1807 1.4445.602 1.8964.3907.4518.9634.6617 1.6856.6617.7522 0 1.3243-.2398 1.7163-.6916.4213-.4818.602-1.1449.602-1.9867zm-2.3183-4.0039c.4213-.121.8432-.1509 1.3243-.1509 1.3249 0 2.3481.392 3.1308 1.1748.7522.7528 1.1442 1.8066 1.1442 3.16 0 1.3847-.3615 2.4685-1.1143 3.2512-.7521.7827-1.7754 1.1747-3.1003 1.1747-.4817 0-.9335-.0598-1.3847-.1814-.2385-.0685-.4703-.1588-.6923-.2698-.6026-.301-1.1442-.7229-1.5654-1.2936v.2398c0 .2412-.0299.4519-.0299.6618-.0299.2113-.0598.4518-.0904.6618h-3.2205c.0574-.3278.0876-.6599.0903-.9927.0299-.3309.0605-.6319.0605-.9016v-10.1148h3.1906v4.8458c.4818-.4818 1.0233-.8426 1.5954-1.0539.2106-.0903.4511-.1813.6617-.2112zm-24.83347-3.5814h2.28837l5.869 12.0091h-3.8525l-1.0531-2.4371h-6.53279l-1.1136 2.4371h-3.612572l6.231132-12.0091zm0 7.2544h2.13747l-2.04711-4.6059-.09103.2099-2.16674 4.3953h2.16741zm8.70017 4.7547v-12.0091h3.19v12.0091z" fill="#d9783e"/></g></svg>