<svg width="59" height="61" viewBox="0 0 59 61" fill="none" xmlns="http://www.w3.org/2000/svg">
<g clip-path="url(#clip0)">
<path d="M42.9595 42.7051V52.7441L40.1321 54.3763V42.7051L35.5214 40.0428L30.2041 43.1133L29.4976 43.5218L28.7902 43.1133L23.4729 40.0428L18.8621 42.7051V54.3763L16.0349 52.7441V42.7051L12.838 40.8591V50.8981L10.011 49.266V38.4151V35.9711L12.1314 37.1951L17.4486 40.2656L22.0599 37.6033V32.8722H17.4486V30.0452H23.4729H24.8868V31.4587V37.6033L29.4976 40.2656L34.8149 37.1951L35.5214 36.7869L36.2284 37.1951L41.5456 40.2656L46.8637 37.1951L48.9833 35.9711V38.4151V49.266L46.1564 50.8981V40.8591L42.9595 42.7051ZM41.5456 32.8722H34.108V30.0452H41.5456V32.8722ZM48.9833 22.6072V28.6317H10.011V22.6072H5.40022H4.59084L4.18025 21.8949L0.703282 15.8694L0 14.6507L1.21631 13.9486L22.7664 1.50669L24.8868 0.282633V2.72659V8.30325L29.4976 10.966L34.108 8.30325V2.7242V0.280549L36.2284 1.5042L57.7812 13.9486L59 14.6523L58.2939 15.8751L54.814 21.9006L54.406 22.6072H53.5941H48.9833ZM12.838 22.6072V25.8044H46.1564V22.6072H12.838ZM22.0599 5.17067L3.84609 15.6857L6.20879 19.7802H52.7823L55.1482 15.6845L36.9349 5.16858V9.1151V9.92736L36.2284 10.3351L30.2041 13.8133L29.4976 14.2218L28.7902 13.8133L22.7664 10.3351L22.0599 9.92736V9.1151V5.17067ZM30.9111 52.5206V59.7005L29.4976 60.5164L28.0837 59.7005V52.5206H30.9111ZM22.0599 56.2227V45.7812H36.9349V56.2227L34.108 57.8545V48.6082H24.8868V57.8545L22.0599 56.2227Z" fill="#006DB8"/>
</g>
<defs>
<clipPath id="clip0">
<rect width="59" height="60.2359" fill="white" transform="translate(0 0.280546)"/>
</clipPath>
</defs>
</svg>
