<svg width="54" height="62" viewBox="0 0 54 62" fill="none" xmlns="http://www.w3.org/2000/svg">
<g clip-path="url(#clip0)">
<path d="M50.1629 3.11381H50.5372C50.9986 3.11381 51.3766 2.96078 51.3766 2.55615C51.3766 2.25182 51.1534 1.97008 50.5673 1.97008C50.384 1.97008 50.2591 1.97008 50.1627 1.98343V3.11381H50.1629ZM50.1629 5.07971H49.5353V1.59386C49.8265 1.55232 50.1197 1.4955 50.5807 1.4955C51.1383 1.4955 51.4861 1.60893 51.7091 1.77724C51.9039 1.93027 52.0154 2.16465 52.0154 2.50127C52.0154 2.94744 51.7225 3.23843 51.3482 3.33679V3.36326C51.6525 3.42008 51.8471 3.69794 51.9172 4.21578C52.0005 4.76009 52.0703 4.96628 52.1271 5.07971H51.4861C51.4028 4.96628 51.3312 4.64688 51.2612 4.18931C51.1932 3.76789 50.9569 3.60152 50.5239 3.60152H50.1627V5.07971H50.1629ZM50.7339 0.659985C49.3539 0.659985 48.2386 1.81684 48.2386 3.26684C48.2386 4.71683 49.3539 5.87369 50.747 5.87369C52.1269 5.88875 53.2291 4.71683 53.2291 3.26684C53.2291 1.81684 52.1269 0.659985 50.747 0.659985H50.7339V0.659985ZM50.747 0.130737C52.473 0.130737 53.853 1.52585 53.853 3.25371C53.853 5.00997 52.473 6.40315 50.7339 6.40315C48.9927 6.40315 47.5845 5.00997 47.5845 3.25371C47.5845 1.52585 48.9927 0.130737 50.7339 0.130737H50.747V0.130737Z" fill="black"/>
<path d="M5.99796 56.033L5.47431 52.9311C5.32494 52.0371 5.13403 50.6398 4.98854 49.6719H4.93172C4.77869 50.6471 4.56497 52.084 4.40807 52.9387L3.8446 56.033H5.99796ZM3.56329 58.0542L2.88274 61.4966H0.368652L3.50475 47.175H6.58597L9.43473 61.4966H6.90752L6.24203 58.0542H3.56329V58.0542Z" fill="black"/>
<path d="M15.1574 55.0993C15.1574 54.9084 15.1574 54.6852 15.1195 54.481C15.0194 53.7739 14.6432 53.1371 14.0382 53.1371C13.0004 53.1371 12.6185 54.6323 12.6185 56.381C12.6185 58.3904 13.1629 59.5341 14.0022 59.5341C14.386 59.5341 14.8283 59.3374 15.0685 58.4941C15.127 58.326 15.1574 58.1011 15.1574 57.8383V55.0993V55.0993ZM17.7378 46.7949V58.5266C17.7378 59.4564 17.7851 60.6003 17.823 61.4944H15.5943L15.4488 60.3014H15.3959C15.0216 61.037 14.2069 61.6625 13.2332 61.6625C11.099 61.6625 10.0405 59.3072 10.0405 56.3334C10.0405 52.7098 11.6188 50.9478 13.3391 50.9478C14.239 50.9478 14.8212 51.3883 15.1143 52.0256H15.1578V46.7949H17.7378V46.7949Z" fill="black"/>
<path d="M23.112 59.6835C24.0969 59.6835 24.3408 57.8271 24.3408 56.2902C24.3408 54.829 24.0969 52.9251 23.0688 52.9251C21.9797 52.9251 21.7509 54.829 21.7509 56.2902C21.7509 58.054 22.0383 59.6835 23.0892 59.6835H23.112ZM23.063 61.6627C20.6849 61.6627 19.1934 59.7534 19.1934 56.3358C19.1934 52.6059 21.1083 50.948 23.1234 50.948C25.4694 50.948 26.9401 52.9503 26.9401 56.2753C26.9401 60.5476 24.6359 61.6627 23.0838 61.6627H23.063V61.6627Z" fill="black"/>
<path d="M30.9627 57.7892C30.9627 58.0482 31.0101 58.2903 31.065 58.4526C31.3239 59.3206 31.7625 59.5341 32.114 59.5341C33.1122 59.5341 33.5149 58.2692 33.5149 56.2465C33.5149 54.4052 33.0894 53.1371 32.1026 53.1371C31.6132 53.1371 31.201 53.6685 31.0592 54.2393C31.0099 54.4188 30.9627 54.6983 30.9627 54.8912V57.7892V57.7892ZM28.3821 46.7949H30.9625V52.2013H31.0041C31.5124 51.4034 32.1893 50.9478 33.1723 50.9478C35.1175 50.9478 36.0949 53.1597 36.0949 56.0519C36.0949 59.7063 34.6373 61.6625 32.7487 61.6625C31.8488 61.6625 31.2496 61.2635 30.709 60.2525H30.6545L30.511 61.4944H28.2954C28.3333 60.6343 28.3821 59.4564 28.3821 58.5266V46.7949V46.7949Z" fill="black"/>
<path d="M42.2789 55.3166C42.2922 53.8593 41.8648 52.838 41.0463 52.838C40.1124 52.838 39.7153 54.2052 39.6871 55.3166H42.2789ZM39.6776 57.1411C39.708 59.0181 40.6948 59.629 41.9197 59.629C42.6964 59.629 43.3619 59.4566 43.8535 59.2717L44.2013 61.128C43.5169 61.4227 42.4601 61.608 41.4468 61.608C38.6775 61.608 37.165 59.7155 37.165 56.4832C37.165 53.0143 38.9194 50.9309 41.2105 50.9309C43.4241 50.9309 44.6509 52.7722 44.6509 55.7779C44.6509 56.4659 44.6225 56.8536 44.5771 57.1558L39.6776 57.1411V57.1411Z" fill="black"/>
<path d="M28.146 0.000366211H44.6528V39.519L28.146 0.000366211Z" fill="#ED1C24"/>
<path d="M16.5162 0H0V39.5186L16.5162 0Z" fill="#ED1C24"/>
<path d="M15.1138 31.5677L22.3332 14.5616L32.8493 39.5166H25.9589L22.8131 31.5677H15.1138Z" fill="#ED1C24"/>
</g>
<defs>
<clipPath id="clip0">
<rect width="53.8531" height="61.6628" fill="white"/>
</clipPath>
</defs>
</svg>
