<svg width="42" height="49" viewBox="0 0 42 49" fill="none" xmlns="http://www.w3.org/2000/svg">
<g clip-path="url(#clip0)">
<path d="M39.1231 2.89974H39.415C39.7747 2.89974 40.0694 2.78042 40.0694 2.46494C40.0694 2.22766 39.8954 2.008 39.4384 2.008C39.2955 2.008 39.1981 2.008 39.123 2.01841V2.89974H39.1231ZM39.1231 4.4325H38.6338V1.71467C38.8609 1.68229 39.0894 1.63799 39.4489 1.63799C39.8836 1.63799 40.1548 1.72642 40.3287 1.85765C40.4805 1.97696 40.5675 2.1597 40.5675 2.42215C40.5675 2.77002 40.3391 2.9969 40.0473 3.07359V3.09423C40.2845 3.13853 40.4362 3.35517 40.4909 3.75891C40.5559 4.1833 40.6103 4.34406 40.6546 4.4325H40.1548C40.0899 4.34406 40.034 4.09503 39.9795 3.73827C39.9264 3.4097 39.7422 3.27999 39.4045 3.27999H39.123V4.4325H39.1231ZM39.5683 0.986554C38.4923 0.986554 37.6228 1.88852 37.6228 3.01905C37.6228 4.14957 38.4923 5.05154 39.5786 5.05154C40.6544 5.06329 41.5137 4.14957 41.5137 3.01905C41.5137 1.88852 40.6544 0.986554 39.5786 0.986554H39.5683ZM39.5786 0.573914C40.9242 0.573914 42.0002 1.66165 42.0002 3.00881C42.0002 4.37813 40.9242 5.46435 39.5683 5.46435C38.2108 5.46435 37.1128 4.37813 37.1128 3.00881C37.1128 1.66165 38.2108 0.573914 39.5683 0.573914H39.5786Z" fill="black"/>
<path d="M4.68883 44.1594L4.28055 41.741C4.16409 41.0439 4.01525 39.9545 3.90181 39.1999H3.85751C3.7382 39.9602 3.57156 41.0805 3.44923 41.7469L3.00991 44.1594H4.68883ZM2.79058 45.7353L2.25997 48.4192H0.299805L2.74494 37.2531H5.14728L7.36839 48.4192H5.39799L4.87912 45.7353H2.79058Z" fill="black"/>
<path d="M11.8298 43.4315C11.8298 43.2827 11.8298 43.1086 11.8003 42.9494C11.7222 42.3981 11.4289 41.9016 10.9572 41.9016C10.148 41.9016 9.85034 43.0674 9.85034 44.4308C9.85034 45.9975 10.2747 46.8892 10.9292 46.8892C11.2284 46.8892 11.5732 46.7358 11.7605 46.0783C11.8061 45.9473 11.8298 45.7719 11.8298 45.567V43.4315ZM13.8417 36.9568V46.1037C13.8417 46.8286 13.8786 47.7205 13.9081 48.4176H12.1705L12.057 47.4874H12.0157C11.7239 48.061 11.0888 48.5486 10.3296 48.5486C8.66561 48.5486 7.84033 46.7123 7.84033 44.3937C7.84033 41.5685 9.07087 40.1946 10.4122 40.1946C11.1138 40.1946 11.5677 40.5382 11.7962 41.035H11.8301V36.9568H13.8417Z" fill="black"/>
<path d="M18.0318 47.0057C18.7997 47.0057 18.9899 45.5583 18.9899 44.36C18.9899 43.2207 18.7997 41.7363 17.9981 41.7363C17.149 41.7363 16.9706 43.2207 16.9706 44.36C16.9706 45.7352 17.1947 47.0057 18.0141 47.0057H18.0318ZM17.9936 48.5488C16.1395 48.5488 14.9766 47.0602 14.9766 44.3956C14.9766 41.4874 16.4696 40.1948 18.0407 40.1948C19.8699 40.1948 21.0165 41.7559 21.0165 44.3484C21.0165 47.6794 19.2199 48.5488 18.0099 48.5488H17.9936Z" fill="black"/>
<path d="M24.1529 45.5288C24.1529 45.7306 24.1898 45.9194 24.2326 46.0459C24.4345 46.7227 24.7765 46.8892 25.0505 46.8892C25.8288 46.8892 26.1428 45.903 26.1428 44.3259C26.1428 42.8903 25.811 41.9016 25.0416 41.9016C24.66 41.9016 24.3387 42.3159 24.2281 42.7609C24.1896 42.9009 24.1529 43.1189 24.1529 43.2692V45.5288ZM22.1409 36.9568H24.1527V41.172H24.1851C24.5815 40.5499 25.1092 40.1946 25.8756 40.1946C27.3923 40.1946 28.1543 41.9192 28.1543 44.1742C28.1543 47.0234 27.0179 48.5486 25.5454 48.5486C24.8438 48.5486 24.3766 48.2375 23.955 47.4493H23.9126L23.8007 48.4176H22.0732C22.1028 47.747 22.1409 46.8286 22.1409 46.1037V36.9568Z" fill="black"/>
<path d="M32.9759 43.601C32.9863 42.4648 32.653 41.6685 32.0149 41.6685C31.2867 41.6685 30.9771 42.7344 30.9551 43.601H32.9759ZM30.9478 45.0235C30.9714 46.487 31.7408 46.9632 32.6958 46.9632C33.3014 46.9632 33.8203 46.8288 34.2036 46.6847L34.4748 48.132C33.9411 48.3617 33.1172 48.5062 32.3271 48.5062C30.168 48.5062 28.9888 47.0307 28.9888 44.5105C28.9888 41.806 30.3566 40.1816 32.1429 40.1816C33.8688 40.1816 34.8253 41.6172 34.8253 43.9606C34.8253 44.4971 34.8032 44.7993 34.7677 45.0349L30.9478 45.0235Z" fill="black"/>
<path d="M21.9565 0.472229H34.8264V31.2838L21.9565 0.472229Z" fill="#ED1C24"/>
<path d="M12.8895 0.471802H0.012207V31.2834L12.8895 0.471802Z" fill="#ED1C24"/>
<path d="M11.7959 25.0846L17.4247 11.8254L25.6238 31.2821H20.2516L17.7989 25.0846H11.7959Z" fill="#ED1C24"/>
</g>
<defs>
<clipPath id="clip0">
<rect width="41.988" height="48.0765" fill="white" transform="translate(0.012207 0.472229)"/>
</clipPath>
</defs>
</svg>
