<svg width="115" height="50" viewBox="0 0 115 50" fill="none" xmlns="http://www.w3.org/2000/svg">
<path fill-rule="evenodd" clip-rule="evenodd" d="M35.3332 27.6646C35.0621 27.6035 34.6708 27.3935 34.3698 27.1524C31.6303 24.5338 35.1219 21.4634 39.1557 19.688V14.6309C40.1192 15.203 40.6002 15.2628 40.6607 15.3532L43.7311 12.2828L42.7072 9.69414C51.7376 6.56396 55.3794 5.35999 62.7235 4.12545L61.3999 2.92148L63.5673 1.65771C68.5041 3.3135 73.1094 3.73476 72.3274 7.85896C72.5373 5.08956 69.0749 4.00585 63.7182 2.50089L62.7242 3.13278L64.681 4.758C55.8917 6.29353 50.4739 7.97922 44.062 10.2064L44.9052 12.4934L41.7138 15.6542C42.256 15.805 47.8546 17.7013 53.7243 13.6077C53.7542 13.5778 53.8446 13.5472 53.8446 13.4868C53.6339 13.1858 53.2725 12.9147 52.7914 12.4629C54.4771 12.5838 55.5907 14.0881 55.3801 15.6535H54.5974C54.6877 15.1718 54.5675 14.6004 54.3568 14.2389C49.8719 17.5498 44.6042 18.0316 40.1192 16.4668V20.3797C37.9212 21.1318 34.0389 23.5405 34.0688 25.858C34.2189 26.9716 34.791 27.3637 35.3332 27.6646Z" fill="black"/>
<path fill-rule="evenodd" clip-rule="evenodd" d="M53.6637 26.6408C48.8173 29.1391 44.1815 31.0959 36.9577 31.367C27.6561 31.1856 26.2116 24.985 30.6362 18.5133C34.7896 11.9819 41.4127 6.05173 51.9774 2.34946C54.9873 1.29566 59.5334 0.0318884 63.8377 0.0013241C70.0681 -0.0584757 76.1179 1.89764 75.7279 7.82779C75.5166 12.4031 68.9253 18.8748 65.4629 23.5106C63.9573 25.5279 63.7174 26.8215 66.2456 26.7305C75.4269 26.1298 83.8247 22.9385 91.5309 19.6276C86.3529 23.1492 59.2032 36.6034 59.0524 27.4235C59.0823 26.28 59.6543 25.0455 60.5267 23.7511C61.3998 22.4568 62.6045 21.0721 63.8383 19.6575C65.6748 17.5506 70.2489 12.4935 71.7844 9.45368C74.3731 3.73483 68.5632 3.43317 63.5672 1.65778L61.3998 2.92155L62.6935 4.12552C55.3793 5.35939 51.7368 6.56336 42.7064 9.69421L43.7303 12.2829L40.6599 15.3533C40.5995 15.2629 40.1184 15.2031 39.155 14.631V19.6881C35.1218 21.4635 31.6295 24.5339 34.369 27.1524C34.67 27.3936 35.0613 27.6042 35.3324 27.6647H35.3019C40.2692 30.464 53.6936 26.6408 53.6637 26.6408V26.6408ZM22.72 39.9456V37.5981H26.1518V39.9456H22.72ZM22.8708 49.6072V41.2406H26.0615V49.6072H22.8708ZM94.6013 42.2333C96.287 42.2333 97.6717 43.618 97.6717 45.3036C97.6725 45.7071 97.5936 46.1067 97.4396 46.4796C97.2856 46.8524 97.0594 47.1912 96.7742 47.4765C96.4889 47.7618 96.1501 47.9879 95.7772 48.1419C95.4044 48.2959 95.0048 48.3748 94.6013 48.374C94.1972 48.3774 93.7964 48.3003 93.4224 48.1472C93.0483 47.9941 92.7085 47.768 92.4227 47.4822C92.1369 47.1965 91.9109 46.8566 91.7578 46.4826C91.6047 46.1086 91.5276 45.7078 91.5309 45.3036C91.5302 44.9002 91.609 44.5006 91.7631 44.1277C91.9171 43.7549 92.1432 43.4161 92.4285 43.1308C92.7137 42.8455 93.0525 42.6194 93.4254 42.4654C93.7983 42.3114 94.1979 42.2325 94.6013 42.2333V42.2333ZM94.6013 49.8185C97.0697 49.8185 99.0863 47.8019 99.0863 45.3036C99.0863 42.8352 97.0697 40.8187 94.6013 40.8187C92.103 40.8187 90.0864 42.8352 90.0864 45.3036C90.0857 45.8968 90.2019 46.4842 90.4285 47.0324C90.6551 47.5805 90.9877 48.0785 91.4071 48.4979C91.8265 48.9173 92.3245 49.2498 92.8726 49.4765C93.4207 49.7031 94.0082 49.8193 94.6013 49.8185V49.8185ZM78.1969 49.6072H79.6115V48.3136H78.1969V49.6072ZM88.9423 48.5249C88.4905 48.9156 87.5576 49.8185 85.8121 49.8185C83.5244 49.8185 81.3271 48.0119 81.3271 45.3036C81.3271 42.6253 83.5244 40.8187 85.8121 40.8187C87.4679 40.8187 88.4905 41.7216 88.9423 42.1123C88.6712 42.4731 88.4307 43.2259 88.3104 43.5568C87.4679 42.4133 86.444 42.2333 85.8121 42.2333C84.1264 42.2333 82.7417 43.6479 82.7417 45.3036C82.7417 46.9893 84.1264 48.4039 85.8121 48.4039C86.745 48.4039 87.6486 47.982 88.3403 47.079C88.5503 47.8319 88.7915 48.2538 88.9423 48.5249V48.5249ZM101.103 49.6072V41.2406H102.367V42.414C102.632 42.0022 102.994 41.6614 103.42 41.4213C103.879 41.1613 104.399 41.0262 104.926 41.0293C105.528 41.0293 106.04 41.1801 106.43 41.4213C106.822 41.6911 107.123 42.0532 107.274 42.505C107.936 41.5409 108.81 41.0293 109.863 41.0293C110.676 41.0293 111.337 41.2705 111.759 41.7223C112.211 42.204 112.451 42.8957 112.451 43.8585V49.6072H111.036V44.3409C111.036 43.7688 110.977 43.3469 110.885 43.107C110.798 42.8573 110.628 42.6449 110.404 42.505C110.141 42.3442 109.839 42.2606 109.531 42.2638C108.96 42.2638 108.478 42.4738 108.086 42.8658C107.694 43.2578 107.484 43.8897 107.484 44.7322V49.6079H106.07V44.1601C106.07 43.5283 105.949 43.0465 105.739 42.7455C105.498 42.4446 105.107 42.2638 104.594 42.2638C104.203 42.2638 103.842 42.3848 103.482 42.5947C103.149 42.806 102.91 43.107 102.759 43.4977C102.608 43.9196 102.517 44.4917 102.517 45.2744V49.6072H101.103V49.6072ZM111.909 39.4041V37.8081H111.307V37.5981H112.752V37.8081H112.149V39.4041H111.909ZM112.963 39.4041V37.5974H113.324L113.776 38.8911C113.806 39.012 113.836 39.1024 113.865 39.1622C113.865 39.1024 113.897 38.9821 113.957 38.8612L114.378 37.5974H114.709V39.4041H114.468V37.8984L113.957 39.4041H113.717L113.204 37.8685V39.4041H112.963ZM72.2063 48.374C71.8754 48.8245 71.3625 49.1867 70.7007 49.4265C70.5551 49.4907 70.4038 49.5412 70.2489 49.5773C69.6768 49.7295 69.0449 49.7886 68.3233 49.7886C67.2695 49.7886 66.4569 49.5773 65.8848 49.1269C65.2828 48.7049 65.0117 48.073 65.0117 47.2604C65.0117 46.7481 65.1327 46.2963 65.3426 45.9056C65.5539 45.5136 65.8848 45.1827 66.3067 44.9116C66.6376 44.7017 67.1193 44.5508 67.7213 44.4598C68.2622 44.4 69.106 44.3402 70.2495 44.3402H72.1452V44.2193V44.0984C72.1452 43.6465 72.0256 43.3156 71.7545 43.0744C71.4834 42.8346 71.0927 42.7137 70.5798 42.7137H70.2489C69.8269 42.7436 69.5259 42.8346 69.2861 42.9548C69.015 43.1057 68.8343 43.3754 68.7745 43.7077H65.5533C65.643 42.8047 66.1253 42.1416 66.938 41.6897C67.6908 41.2991 68.8044 41.0878 70.2482 41.0579C70.3691 41.028 70.4894 41.028 70.6402 41.028C72.205 41.028 73.3797 41.2991 74.1013 41.8107C74.8541 42.3529 75.2448 43.1356 75.2448 44.2492V48.493C75.2448 48.7342 75.2448 48.9448 75.276 49.095C75.3059 49.2763 75.3358 49.4571 75.397 49.6066H72.4163C72.3479 49.4419 72.2974 49.2704 72.2654 49.095C72.2292 48.9068 72.2092 48.7158 72.2056 48.5242V48.374H72.2063V48.374ZM70.2495 47.982C70.7917 47.9222 71.2435 47.7721 71.5744 47.4704C71.9352 47.1694 72.1452 46.6877 72.1452 46.0558V45.8757H71.8754C71.2435 45.8757 70.7007 45.8757 70.2495 45.9355C69.861 45.9571 69.4768 46.0276 69.106 46.1455C68.5937 46.3256 68.3532 46.6272 68.3532 47.0485C68.3532 47.3495 68.4741 47.5907 68.7439 47.7415C69.015 47.891 69.407 47.9814 69.9479 47.9814L70.2495 47.982V47.982ZM60.6178 45.1834C60.6178 44.4306 60.4078 43.8286 59.9859 43.3768C59.564 42.9249 59.0231 42.715 58.3301 42.715H58.3002C57.5474 42.715 56.9753 42.9249 56.584 43.3768C56.1926 43.7987 55.982 44.4605 55.982 45.3036C55.982 46.1163 56.1926 46.7481 56.584 47.2C57.0045 47.6518 57.5474 47.8617 58.2703 47.8617H58.3002C59.0231 47.8617 59.5939 47.6219 59.9859 47.1701C60.4071 46.6883 60.6178 46.0252 60.6178 45.1834V45.1834ZM58.2995 41.1795C58.6902 41.0585 59.1421 41.0286 59.5932 41.0286C60.9181 41.0286 61.9719 41.4206 62.7234 42.2034C63.5074 42.9562 63.8981 44.01 63.8981 45.3634C63.8981 46.7481 63.5074 47.8319 62.7845 48.6146C62.0317 49.3973 60.9779 49.7893 59.6543 49.7893C59.1713 49.7893 58.7201 49.7295 58.2995 49.6079C58.0574 49.5497 57.8243 49.459 57.6065 49.3381C56.9746 49.0371 56.463 48.6152 56.0112 48.0445V48.2843C56.0112 48.5255 56.0112 48.7362 55.9813 48.9461C55.9813 49.1574 55.9514 49.3979 55.9215 49.6079H52.7003C52.7302 49.2471 52.7608 48.9162 52.7907 48.6152C52.8199 48.2843 52.8199 47.9833 52.8199 47.7136V37.5988H56.0105V42.4446C56.4923 41.9628 57.0351 41.602 57.6358 41.3907C57.8484 41.3004 58.0583 41.2094 58.2995 41.1795V41.1795ZM47.6133 48.374C47.2525 48.8245 46.7701 49.1867 46.0785 49.4265C45.9365 49.4997 45.7841 49.5505 45.6266 49.5773C45.0851 49.7295 44.4227 49.7886 43.7303 49.7886C42.6765 49.7886 41.834 49.5773 41.2619 49.1269C40.6898 48.7049 40.3888 48.073 40.3888 47.2604C40.3888 46.7481 40.5091 46.2963 40.7503 45.9056C40.9609 45.5136 41.2918 45.1827 41.7131 44.9116C42.0446 44.7017 42.4958 44.5508 43.0978 44.4598C43.6699 44.4 44.5124 44.3402 45.6266 44.3402H47.523C47.523 44.309 47.523 44.2492 47.5535 44.2193V44.0984C47.5535 43.6465 47.4027 43.3156 47.1622 43.0744C46.8911 42.8346 46.4997 42.7137 45.9888 42.7137H45.6273C45.2359 42.7436 44.9051 42.8346 44.6944 42.9548C44.3934 43.1057 44.2426 43.3754 44.1821 43.7077H40.931C41.052 42.8047 41.5031 42.1416 42.3456 41.6897C43.0978 41.2991 44.1815 41.0878 45.6266 41.0579C45.7775 41.028 45.8971 41.028 46.018 41.028C47.6133 41.028 48.7568 41.2991 49.5096 41.8107C50.2624 42.3529 50.6239 43.1356 50.6239 44.2492V48.493C50.6239 48.7342 50.6538 48.9448 50.6538 49.095C50.6837 49.2763 50.7442 49.4571 50.8046 49.6066H47.8246C47.7349 49.4571 47.7043 49.277 47.6744 49.095C47.6445 48.9149 47.614 48.7342 47.614 48.5242V48.374H47.6133V48.374ZM45.6273 47.982C46.1987 47.9222 46.6505 47.7721 46.9522 47.4704C47.3429 47.1694 47.5236 46.6877 47.5236 46.0558V45.8757H47.2831C46.6505 45.8757 46.0791 45.8757 45.6273 45.9355C45.2485 45.9566 44.8741 46.0272 44.5137 46.1455C44.0021 46.3256 43.731 46.6272 43.731 47.0485C43.731 47.3495 43.8818 47.5907 44.1223 47.7415C44.3934 47.891 44.7848 47.9814 45.3263 47.9814L45.6273 47.982ZM35.9949 45.1834C35.9949 44.4306 35.8148 43.8286 35.3929 43.3768C34.971 42.9249 34.4295 42.715 33.7371 42.715H33.6766C32.9544 42.715 32.3823 42.9249 31.991 43.3768C31.5697 43.7987 31.389 44.4605 31.389 45.3036C31.389 46.1163 31.5697 46.7481 31.991 47.2C32.3817 47.6518 32.9544 47.8617 33.6766 47.8617C34.4288 47.8617 35.0009 47.6219 35.3929 47.1701C35.8142 46.6883 35.9949 46.0252 35.9949 45.1834V45.1834ZM33.6766 41.1795C34.0979 41.0585 34.5198 41.0286 35.0009 41.0286C36.3258 41.0286 37.349 41.4206 38.1317 42.2034C38.8839 42.9562 39.2759 44.01 39.2759 45.3634C39.2759 46.7481 38.9144 47.8319 38.1616 48.6146C37.4095 49.3973 36.3862 49.7893 35.0613 49.7893C34.5796 49.7893 34.1278 49.7295 33.6766 49.6079C33.4381 49.5394 33.2063 49.4491 32.9843 49.3381C32.3817 49.0371 31.8401 48.6152 31.4189 48.0445V48.2843C31.4189 48.5255 31.389 48.7362 31.389 48.9461C31.3591 49.1574 31.3292 49.3979 31.2986 49.6079H28.0781C28.1355 49.2801 28.1657 48.948 28.1684 48.6152C28.1983 48.2843 28.2289 47.9833 28.2289 47.7136V37.5988H31.4195V42.4446C31.9013 41.9628 32.4428 41.602 33.0149 41.3907C33.2255 41.3004 33.466 41.2094 33.6766 41.1795V41.1795ZM8.84313 37.5981H11.1315L17.0005 49.6072H13.148L12.0949 47.1701H5.56211L4.44851 49.6072H0.835938L7.06707 37.5981H8.84313ZM8.84313 44.8525H10.9806L8.93349 40.2466L8.84246 40.4565L6.67572 44.8518H8.84313V44.8525ZM17.5433 49.6072V37.5981H20.7333V49.6072H17.5433Z" fill="#D9783E"/>
</svg>
