<svg width="145" height="22" viewBox="0 0 145 22" fill="none" xmlns="http://www.w3.org/2000/svg">
<path d="M4.55525 0.967637C3.02769 1.27617 1.4014 2.50068 0.706187 3.83901C0.0109703 5.17733 0 5.50506 0 11.134L0.126154 17.0029C0.574548 19.2928 2.36538 21.085 4.65672 21.5334C5.35056 21.6596 14.387 21.7227 14.387 21.5842C14.387 21.4827 13.6191 18.455 13.5643 18.4303C13.5506 18.4056 11.949 18.0519 10.0059 17.635C5.47535 16.6505 5.61384 16.6751 5.23401 16.2336L4.90491 15.8428V6.68021L5.23401 6.26884C5.61247 5.81633 5.47397 5.85198 10.0059 4.86743L13.5643 4.07212C13.6027 4.03372 14.387 1.00603 14.387 0.918271C14.387 0.798973 5.16133 0.855193 4.55525 0.981347V0.967637ZM19.1822 0.986834C19.1959 1.21446 19.9021 4.00355 19.9775 4.06663C20.0022 4.10502 21.7327 4.49583 23.817 4.93736L27.8937 5.92191C28.1159 6.05103 28.3025 6.2334 28.4367 6.45258C28.6383 6.80636 28.6643 7.18482 28.6643 11.2478L28.4367 16.043C28.2991 16.2595 28.1133 16.4411 27.8937 16.5737C27.7291 16.6614 25.8999 17.1043 23.817 17.5582L19.9775 18.429C19.6646 19.4426 19.3992 20.4703 19.1822 21.5088C19.1822 21.6459 20.0914 21.6733 24.0775 21.6349C29.5803 21.5842 29.6448 21.5718 31.0434 20.6257C32.0498 19.9332 32.81 18.9387 33.2141 17.7858C33.5048 16.9398 33.5048 16.8644 33.5048 11.2492L33.2141 4.70837C32.81 3.5555 32.0498 2.56097 31.0434 1.86854C29.642 0.908673 29.5789 0.908673 24.0775 0.859309C20.09 0.820914 19.1822 0.84011 19.1822 0.985461V0.986834ZM42.6674 5.2788C41.7967 7.09569 40.9259 9.34178 40.0305 12.0664L38.2383 18.2123C38.5742 18.2452 38.9239 18.2576 39.2475 18.2507H40.2444L40.3815 17.7077L40.8752 15.9799L41.2152 14.7815H48.1441L48.4979 16.043L48.9778 17.7708L49.104 18.2507H50.1009L51.1101 18.2123C51.1101 18.1876 50.8578 17.2524 50.5424 16.1171C49.3947 11.9649 47.9302 7.88964 46.6933 5.31446L46.0351 3.98984H43.2844L42.6674 5.2788ZM45.6567 7.80188L47.4489 12.6478C47.4489 12.6725 46.2148 12.6986 44.6721 12.6986C43.1295 12.6986 41.8954 12.6478 41.8954 12.5971C41.8954 12.3832 43.1706 8.988 43.7877 7.52352C44.2676 6.3991 44.5076 5.99596 44.6708 5.99596C44.8339 5.99596 45.0876 6.46218 45.6553 7.78816L45.6567 7.80188ZM52.3703 11.1203V18.2507H54.3901V3.98984H52.3703V11.1203ZM56.9132 4.15439C56.6766 4.31303 56.4852 4.53038 56.3578 4.78516C56.1562 5.21435 56.1439 5.31583 56.3071 5.74502C56.5265 6.37853 57.2066 6.72409 57.847 6.52663C58.4777 6.32506 58.7424 5.95894 58.7424 5.30211C58.7424 4.82218 58.6793 4.68506 58.3255 4.36967C57.884 3.97887 57.4301 3.90345 56.9132 4.1681V4.15439ZM60.5744 11.0956V18.226L62.1266 18.3398L65.0542 18.4536C66.3294 18.4536 66.505 18.429 67.1741 18.0875C67.9626 17.731 68.5536 17.0413 68.7894 16.2089C68.8649 15.9073 68.9032 14.5689 68.8772 12.7397C68.8388 9.92592 68.8265 9.72298 68.5618 9.21836C68.0682 8.30923 67.325 7.8677 65.9496 7.67847C65.2174 7.57699 63.3991 7.67846 62.8451 7.85673C62.6052 7.93214 62.5928 7.88141 62.5928 5.97813V3.99532H60.573L60.5744 11.0956ZM66.3157 9.73258C66.5624 9.82218 66.7655 10.0027 66.8834 10.2372C67.048 10.6664 67.048 15.3615 66.8834 15.777C66.6942 16.2939 66.0607 16.5339 64.8636 16.5339C64.3065 16.5401 63.7497 16.5062 63.1975 16.4324L62.5914 16.3447V9.82034L63.3237 9.69418C64.4481 9.50495 65.8221 9.51592 66.313 9.73258H66.3157ZM80.6397 11.1079V18.2384L81.8765 18.3014L84.4503 18.466C86.1781 18.5675 87.2641 18.2877 87.9717 17.5445C88.8808 16.6121 88.9041 16.4969 88.9315 13.317C88.9699 11.0078 88.9452 10.3003 88.7944 9.78331C88.4543 8.59719 87.4698 7.85261 85.9669 7.67572C85.21 7.58796 83.2286 7.68944 82.824 7.85398C82.6979 7.89238 82.6595 7.46318 82.6595 5.96168V4.00492H80.6397V11.1079ZM86.3056 9.67499C86.5195 9.7504 86.7581 9.91495 86.8226 10.0411C86.9597 10.2934 87.0008 15.5672 86.8733 15.91C86.6594 16.4653 84.9536 16.7053 83.2642 16.427L82.6581 16.3392V9.82308L83.3904 9.69693C84.3996 9.53238 85.8257 9.51867 86.3056 9.67773V9.67499ZM106.359 4.11599C105.097 4.34362 104.439 4.64666 103.797 5.30211C102.788 6.31134 102.725 6.67746 102.725 11.2464C102.725 15.8154 102.788 16.1801 103.822 17.2031C104.352 17.7461 104.645 17.9093 105.399 18.1629C106.221 18.4152 106.597 18.4536 108.289 18.4536C109.754 18.4536 110.511 18.3906 111.268 18.2137C111.67 18.1335 112.067 18.024 112.454 17.8859C112.555 17.8229 112.541 17.5952 112.391 16.9905C112.32 16.6843 112.222 16.3847 112.1 16.0951C112.049 16.0444 111.734 16.0814 111.406 16.1829C110.282 16.5229 108.314 16.6628 107.089 16.512C105.865 16.3611 105.411 16.1582 105.033 15.6659C104.78 15.3368 104.768 15.1997 104.768 11.2615C104.768 7.32332 104.782 7.18482 105.033 6.8571C105.423 6.36345 105.865 6.17559 107.089 6.01104C108.314 5.84649 110.282 5.99733 111.406 6.34014L112.088 6.52937C112.189 6.52937 112.631 4.77419 112.554 4.70014C112.515 4.66175 112.049 4.52188 111.494 4.37104C110.397 4.08034 107.417 3.94185 106.37 4.13108L106.359 4.11599ZM114.334 11.1203V18.2507H116.226V3.98984H114.334V11.1203ZM142.993 5.88215V7.77445L142.273 7.69903L141.263 7.57288C140.834 7.49746 139.244 7.75114 138.79 7.9774C138.202 8.28958 137.719 8.76794 137.402 9.35275C137.15 9.81897 137.125 10.085 137.087 12.6437C137.036 16.0883 137.137 16.5929 138.046 17.4897C138.866 18.285 139.839 18.5496 141.491 18.4495L143.839 18.3124L145 18.237V4.00355H142.982L142.993 5.88215ZM142.779 9.73121C142.98 9.81897 142.993 10.0973 142.993 13.088V16.3433L142.526 16.4311C141.704 16.5956 140.179 16.5572 139.737 16.368C139.51 16.2665 139.271 16.091 139.207 15.9635C139.142 15.8359 139.08 14.499 139.08 12.9852C139.08 9.96843 139.105 9.88067 139.774 9.66676C140.179 9.54061 142.399 9.59134 142.791 9.72984L142.779 9.73121ZM73.586 7.65653C73.0214 7.73211 72.4612 7.83739 71.9076 7.97191C71.2261 8.13646 71.0616 8.22422 71.1123 8.38877C71.1507 8.50258 71.2385 8.8687 71.3262 9.22111C71.414 9.57351 71.5045 9.89027 71.5539 9.92729C71.6032 9.96432 72.1476 9.90261 72.766 9.79017C74.8736 9.34863 76.2997 9.5502 76.5013 10.3071C76.5649 10.644 76.5989 10.9859 76.6027 11.3287L76.6165 12.0349L75.418 11.9718C72.212 11.8073 70.2813 13.0071 70.2567 15.164C70.2429 16.1856 70.572 16.9809 71.2535 17.6117C72.0489 18.3439 72.8935 18.5716 74.5226 18.4578L77.1595 18.3206L78.5225 18.2329L78.4471 9.75178L78.0933 9.15803C77.3871 7.96506 75.7073 7.4097 73.5874 7.68121L73.586 7.65653ZM76.526 14.0424C76.6521 14.1178 76.6398 16.3515 76.5122 16.3515C76.4492 16.3515 75.8061 16.4146 75.0724 16.4887C72.9649 16.6902 72.1956 16.3748 72.1956 15.2902C72.1956 14.824 72.2587 14.6841 72.5741 14.4071C72.8483 14.1946 73.2021 14.0602 73.5586 14.0163L74.3402 13.8902C74.5678 13.8394 76.3971 13.9587 76.5232 14.0479L76.526 14.0424ZM93.7144 7.6387L92.036 7.9678C91.1899 8.16937 91.1145 8.2201 91.1776 8.46144L91.4052 9.39388C91.5424 10.0247 91.5698 10.063 91.8715 9.98763C93.5622 9.54609 95.1898 9.41994 95.848 9.65853C96.4418 9.88616 96.5679 10.1385 96.5679 11.0983V12.0075H95.002C93.0205 12.0075 92.1114 12.2598 91.2407 13.0427C90.8794 13.3478 90.6009 13.7391 90.4309 14.1803C90.261 14.6216 90.2051 15.0986 90.2685 15.5672C90.4824 17.624 91.9469 18.6209 94.5714 18.4578L97.2083 18.3206L98.5713 18.2329L98.5329 14.0561C98.4945 10.0425 98.4822 9.85325 98.2175 9.36097C97.4976 8.0103 95.87 7.40422 93.6993 7.6579L93.7144 7.6387ZM96.2128 13.9464H96.5529V16.3323L95.833 16.4201C94.4453 16.5984 93.0946 16.5572 92.7408 16.3186C92.0346 15.8524 92.0593 14.6279 92.7792 14.2618C93.2729 14.0095 94.4453 13.8326 95.2269 13.908L96.2114 13.9587L96.2128 13.9464ZM120.67 7.63596C119.904 7.80268 119.216 8.22006 118.713 8.82208C118.069 9.66813 118.007 10.0836 118.007 13.114C118.007 16.2185 118.095 16.5833 118.929 17.4554C119.751 18.3014 120.141 18.4152 122.046 18.4152C124.002 18.4152 124.445 18.2781 125.251 17.3183C126.019 16.4091 126.11 15.9552 126.074 12.763C126.036 10.1631 126.011 9.91084 125.759 9.43091C125.385 8.74234 124.808 8.18658 124.105 7.84027C123.461 7.54957 121.568 7.42342 120.685 7.61265L120.67 7.63596ZM123.447 9.73121C124.091 10.0603 124.191 10.5128 124.191 13.0002C124.191 15.3588 124.104 15.8017 123.561 16.2816C123.17 16.6354 121.39 16.7231 120.747 16.4078C119.99 16.054 119.901 15.6879 119.901 13.0002C119.901 10.4264 119.976 10.085 120.633 9.73121C121.113 9.46656 122.942 9.46656 123.447 9.73121V9.73121ZM56.5484 13.0002V18.2384H58.4407V7.76211H56.5484V13.0002ZM127.647 7.92666C127.609 8.02813 127.596 9.92044 127.622 12.1295C127.661 15.7633 127.685 16.1925 127.899 16.597C128.644 17.9984 129.905 18.5784 131.962 18.4399L135.549 18.2246V7.77582H133.63V16.346L133.036 16.4338C131.939 16.6121 130.575 16.5476 130.133 16.32L129.692 16.0677C129.678 16.054 129.628 14.2001 129.59 11.954L129.527 7.84027L128.605 7.80188C127.912 7.7772 127.673 7.80188 127.621 7.939L127.647 7.92666ZM13.5506 10.9804C13.5094 11.1154 13.501 11.2583 13.5259 11.3973C13.5643 11.6112 13.7905 11.6249 16.7565 11.6619L19.9378 11.6866V10.8035H16.7839C14.147 10.8035 13.6027 10.8282 13.5533 10.9818L13.5506 10.9804Z" fill="#373C41"/>
</svg>
