<svg width="136" height="14" viewBox="0 0 136 14" fill="none" xmlns="http://www.w3.org/2000/svg">
<g clip-path="url(#clip0)">
<path fill-rule="evenodd" clip-rule="evenodd" d="M13.4382 12.8561H9.31313L8.8808 11.487H4.55748L4.12514 12.8561H0L4.43138 1.14863H9.0069L13.4382 12.8561ZM7.90802 8.39777L6.71913 4.62401L5.53022 8.39777H7.90802ZM42.3787 12.8561H34.831V1.14863H42.1266C44.6125 1.14863 45.6933 2.76345 45.6933 4.13254C45.6933 5.5894 44.8106 6.57233 43.6398 6.81807C44.9367 7.01114 45.9275 8.1696 45.9275 9.67912C45.9275 11.3115 44.7926 12.8561 42.3787 12.8561ZM41.2799 5.46653C41.6582 5.46653 42.0005 5.18569 42.0005 4.76443C42.0005 4.36072 41.6582 4.09744 41.2799 4.09744H38.4698V5.46653H41.2799ZM41.388 9.9073C41.9104 9.9073 42.2346 9.60893 42.2346 9.1701C42.2346 8.7488 41.9104 8.4153 41.388 8.4153H38.4698V9.9073H41.388ZM60.0019 12.8561H55.8767L55.4444 11.487H51.1211L50.6888 12.8561H46.5636L50.995 1.14863H55.5705L60.0019 12.8561ZM54.4717 8.39777L53.2828 4.62401L52.0939 8.39777H54.4717ZM65.79 13.0667C63.2321 13.0667 61.4847 12.3295 60.2058 11.2062L62.0971 8.57329C62.9978 9.41581 64.3489 10.0828 65.9701 10.0828C66.6547 10.0828 67.3032 9.9073 67.3032 9.45094C67.3032 8.32758 60.6021 9.46847 60.6021 4.85219C60.6021 2.86877 62.2953 0.973103 65.5918 0.973103C67.5554 0.973103 69.3207 1.51723 70.6897 2.60548L68.7442 5.11547C67.6994 4.34317 66.3484 3.95702 65.2136 3.95702C64.493 3.95702 64.2948 4.1852 64.2948 4.48359C64.2948 5.5894 70.9779 4.64156 70.9779 8.99459C70.9779 11.5748 69.0145 13.0667 65.79 13.0667ZM77.3062 13.0667C74.7486 13.0667 73.0012 12.3295 71.7222 11.2062L73.6136 8.57329C74.5143 9.41581 75.8653 10.0828 77.4868 10.0828C78.1713 10.0828 78.8196 9.9073 78.8196 9.45094C78.8196 8.32758 72.1185 9.46847 72.1185 4.85219C72.1185 2.86877 73.8118 0.973103 77.1082 0.973103C79.0719 0.973103 80.8369 1.51723 82.206 2.60548L80.2604 5.11547C79.2162 4.34317 77.8645 3.95702 76.7297 3.95702C76.0096 3.95702 75.8117 4.1852 75.8117 4.48359C75.8117 5.5894 82.4946 4.64156 82.4946 8.99459C82.4946 11.5748 80.5309 13.0667 77.3062 13.0667ZM96.1188 12.8561H91.9934L91.5612 11.487H87.238L86.8058 12.8561H82.6804L87.1118 1.14863H91.6874L96.1188 12.8561ZM90.5881 8.39777L89.3996 4.62401L88.2104 8.39777H90.5881ZM102.627 12.8561H97.2408V1.14863H102.609C106.392 1.14863 109.202 3.25492 109.202 6.99359C109.202 10.7323 106.392 12.8561 102.627 12.8561ZM102.609 9.76684C104.428 9.76684 105.51 8.46796 105.51 6.99359C105.51 5.41387 104.573 4.23786 102.627 4.23786H100.88V9.76684H102.609ZM116.9 13.0667C113.189 13.0667 110.325 10.6094 110.325 7.01114C110.325 3.41289 113.189 0.955551 116.9 0.955551C120.611 0.955551 123.474 3.41289 123.474 7.01114C123.474 10.6094 120.611 13.0667 116.9 13.0667ZM116.9 9.94243C118.647 9.94243 119.782 8.64348 119.782 7.01114C119.782 5.37876 118.647 4.07989 116.9 4.07989C115.153 4.07989 114.018 5.37876 114.018 7.01114C114.018 8.64348 115.153 9.94243 116.9 9.94243ZM136 12.8561H131.857L130.2 9.1701H128.885V12.8561H125.245V1.14863H131.659C134.468 1.14863 135.982 2.97408 135.982 5.16814C135.982 7.18666 134.775 8.25739 133.82 8.71375L136 12.8561ZM131.1 6.08086C131.713 6.08086 132.289 5.80002 132.289 5.15058C132.289 4.51869 131.713 4.23786 131.1 4.23786H128.885V6.08086H131.1Z" fill="black"/>
<path fill-rule="evenodd" clip-rule="evenodd" d="M14.3657 0.6763V13.3455L32.5629 0.6763V13.3455L14.3657 0.6763Z" fill="#FF4329"/>
</g>
<defs>
<clipPath id="clip0">
<rect width="136" height="13.6" fill="white" transform="translate(0 0.199997)"/>
</clipPath>
</defs>
</svg>
