<svg width="116" height="32" viewBox="0 0 116 32" fill="none" xmlns="http://www.w3.org/2000/svg">
<path d="M46.0973 22.5096L44.4928 18.4588H38.9426L37.3381 22.4833H34.9971L40.6919 8.174H42.7436L48.4383 22.5228L46.0973 22.5096ZM41.7177 11.4751L39.7712 16.4071H43.7168L41.7177 11.4751ZM57.1055 20.8262C56.7407 21.4319 56.2199 21.9284 55.5975 22.2639C54.9752 22.5994 54.2741 22.7615 53.5676 22.7332C52.8837 22.7441 52.2071 22.5908 51.5948 22.286V27.0339H49.5036V12.5667H51.5948V12.8692C52.2071 12.5645 52.8837 12.4111 53.5676 12.4221C54.2741 12.3938 54.9752 12.5559 55.5975 12.8914C56.2199 13.2268 56.7407 13.7234 57.1055 14.3291C57.6312 15.3414 57.8678 16.4791 57.7894 17.6171C57.8482 18.7284 57.6123 19.8354 57.1055 20.8262V20.8262ZM55.2773 15.3155C55.0962 15.0326 54.8412 14.8046 54.5398 14.6562C54.2385 14.5079 53.9022 14.4448 53.5676 14.4738C53.2324 14.4402 52.8945 14.5013 52.5923 14.6501C52.2901 14.7989 52.0357 15.0294 51.8578 15.3155C51.707 15.6007 51.6174 15.9143 51.5948 16.2361V18.8665C51.6177 19.1883 51.7073 19.5018 51.8578 19.7872C52.0547 20.0537 52.3114 20.2702 52.6072 20.4195C52.903 20.5688 53.2297 20.6465 53.561 20.6465C53.8923 20.6465 54.219 20.5688 54.5149 20.4195C54.8107 20.2702 55.0673 20.0537 55.2642 19.7872C55.5945 19.0907 55.7351 18.3195 55.6719 17.5513C55.7308 16.7847 55.5951 16.0156 55.2773 15.3155V15.3155ZM66.9168 20.8262C66.5521 21.4319 66.0313 21.9284 65.4089 22.2639C64.7865 22.5994 64.0854 22.7615 63.3789 22.7332C62.695 22.7441 62.0185 22.5908 61.4061 22.286V27.0339H59.315V12.5667H61.4061V12.8692C62.0185 12.5645 62.695 12.4111 63.3789 12.4221C64.0854 12.3938 64.7865 12.5559 65.4089 12.8914C66.0313 13.2268 66.5521 13.7234 66.9168 14.3291C67.4425 15.3414 67.6792 16.4791 67.6007 17.6171C67.6596 18.7284 67.4236 19.8354 66.9168 20.8262V20.8262ZM65.0887 15.3155C64.9076 15.0326 64.6525 14.8046 64.3512 14.6562C64.0498 14.5079 63.7136 14.4448 63.3789 14.4738C63.0438 14.4402 62.7059 14.5013 62.4037 14.6501C62.1015 14.7989 61.847 15.0294 61.6692 15.3155C61.5187 15.6008 61.4291 15.9143 61.4061 16.2361V18.8665C61.4295 19.1882 61.519 19.5017 61.6692 19.7872C61.866 20.0537 62.1227 20.2702 62.4185 20.4195C62.7143 20.5688 63.041 20.6465 63.3724 20.6465C63.7037 20.6465 64.0304 20.5688 64.3262 20.4195C64.622 20.2702 64.8787 20.0537 65.0755 19.7872C65.4058 19.0907 65.5464 18.3195 65.4832 17.5513C65.5422 16.7847 65.4064 16.0156 65.0887 15.3155V15.3155ZM79.8451 18.4588C79.3322 21.8915 76.9517 22.5096 73.8873 22.5096H69.3367V8.174H73.8742C76.9386 8.174 79.3191 8.76584 79.832 12.2248C79.9615 13.263 80.0187 14.3089 80.003 15.355C80.0213 16.392 79.9686 17.429 79.8451 18.4588V18.4588ZM73.8742 10.2915H71.5068V20.379H73.8742C77.9644 20.379 77.8197 18.9849 77.8197 15.3418C77.8197 11.6987 77.9644 10.2915 73.8742 10.2915V10.2915ZM82.0415 22.5096V12.3563H84.159V22.5096H82.0415ZM82.0415 10.5677V8.06879H84.159V10.5677H82.0415ZM91.695 14.7894C91.3041 14.5317 90.848 14.3903 90.3798 14.3817C89.5381 14.3817 88.4728 14.8815 88.4728 15.8416V22.5228H86.3685V12.4615H88.4202V12.764C89.0192 12.4927 89.6696 12.3536 90.3272 12.3563C91.1165 12.3631 91.8941 12.5474 92.6025 12.8955L91.695 14.7894ZM94.9699 18.301C94.982 18.8181 95.122 19.3242 95.3776 19.774C95.6251 20.0825 95.9429 20.327 96.3045 20.4872C96.6661 20.6474 97.0608 20.7185 97.4556 20.6946C97.8575 20.7144 98.2585 20.6416 98.6279 20.482C98.9973 20.3224 99.3251 20.0802 99.5862 19.774L101.27 21.0892C100.791 21.6205 100.201 22.0397 99.5416 22.317C98.8824 22.5944 98.1702 22.723 97.4556 22.6937C96.7096 22.7363 95.9649 22.5913 95.2895 22.2719C94.614 21.9526 94.0294 21.4691 93.5889 20.8656C93.0102 19.8467 92.7406 18.6814 92.8129 17.5119C92.7406 16.3423 93.0102 15.177 93.5889 14.1581C93.9997 13.5712 94.5536 13.0989 95.198 12.7859C95.8425 12.4728 96.5561 12.3295 97.2714 12.3695C97.9503 12.349 98.623 12.504 99.2243 12.8197C99.8257 13.1354 100.335 13.6009 100.704 14.1713C101.293 15.4582 101.507 16.8848 101.322 18.2878L94.9699 18.301ZM98.9154 15.276C98.7377 14.9944 98.4879 14.7654 98.1919 14.6128C97.8959 14.4602 97.5645 14.3895 97.232 14.408C96.9634 14.3827 96.6924 14.4105 96.4345 14.4901C96.1767 14.5696 95.9371 14.6992 95.7294 14.8714C95.5217 15.0437 95.3501 15.2552 95.2242 15.4939C95.0984 15.7326 95.0209 15.9938 94.9962 16.2624H99.1653C99.1595 15.9231 99.088 15.5882 98.9549 15.276H98.9154ZM107.122 22.6806C104.203 22.6806 102.48 20.4842 102.48 17.4198C102.48 14.3554 104.203 12.159 107.122 12.159C107.878 12.1535 108.623 12.3299 109.296 12.6732C109.969 13.0166 110.55 13.5169 110.989 14.1318L109.45 15.447C108.345 14.2502 107.885 14.1318 107.122 14.1318C106.747 14.1126 106.373 14.1867 106.033 14.3473C105.694 14.508 105.399 14.7502 105.176 15.0525C104.746 15.7533 104.557 16.5753 104.637 17.3935C104.546 18.2249 104.735 19.0629 105.176 19.774C105.396 20.0789 105.691 20.3231 106.031 20.4841C106.371 20.645 106.747 20.7174 107.122 20.6946C107.885 20.6946 108.332 20.5237 109.45 19.3794L110.989 20.6946C110.55 21.3104 109.97 21.812 109.297 22.1576C108.624 22.5031 107.879 22.6824 107.122 22.6806ZM112.199 12.3563V9.98897L114.211 9.64702V12.3563H116V14.2502H114.211V19.8398C114.191 19.9881 114.191 20.1386 114.211 20.2869C114.231 20.3352 114.266 20.3756 114.311 20.4018C114.357 20.4279 114.409 20.4384 114.461 20.4316H115.776V22.5096H114.461C114.081 22.5206 113.705 22.4316 113.37 22.2515C113.036 22.0715 112.754 21.8068 112.554 21.4838C112.277 20.9819 112.15 20.4116 112.186 19.8398V12.3563H112.199Z" fill="#009FDF"/>
<path d="M1.6966 25.0611L10.2585 21.326L14.4014 9.0552L10.2059 2.40033L1.6966 25.0611ZM10.0218 0.269714L20.5302 16.8806L26.6984 14.1976L16.8476 0.269714H10.0218ZM31.1701 13.3427L0 26.8629L6.64172 31.4003L27.5401 22.5228L31.1701 13.3427V13.3427Z" fill="#009FDF"/>
</svg>
