<svg width="106" height="28" viewBox="0 0 106 28" fill="none" xmlns="http://www.w3.org/2000/svg">
<g clip-path="url(#clip0)">
<path d="M16.6458 0.880447H11.4745L0 19.5421C0 19.5421 4.31846 27.6441 14.0176 27.6596C23.7166 27.6751 28.0584 19.5886 28.0584 19.5886L16.6458 0.880447ZM6.86922 19.4878L14.0486 7.80394L21.1891 19.4878H6.86922Z" fill="#AC27F9"/>
<path d="M44.4483 5.24542H41.161L34.7104 22.9612H37.897L39.246 18.9684H46.2703L47.6116 22.9612H50.8368L44.4483 5.24542ZM42.7891 7.92799L45.4097 16.3013H40.1376L42.7891 7.92799Z" fill="#121212"/>
<path d="M57.4424 10.1841C56.8806 10.3539 56.3772 10.6766 55.9883 11.1161C55.5995 11.5556 55.3405 12.0946 55.2405 12.6729V10.3469H52.4727V23H55.3258V15.9602C55.313 15.4313 55.4229 14.9066 55.6467 14.4272C55.8706 13.9478 56.2025 13.5268 56.6162 13.1971C57.03 12.8675 57.5145 12.6381 58.0318 12.5269C58.5491 12.4158 59.085 12.4259 59.5977 12.5566V10.1066C58.8799 10.0136 58.1517 10.0398 57.4424 10.1841Z" fill="#121212"/>
<path d="M93.1686 17.4022C93.0911 19.1467 92.4941 20.8369 90.2845 20.9842C87.85 21.147 87.5864 19.2785 87.5942 17.5961V10.3159H84.7178V18.6505C84.7178 20.015 85.0822 23.3023 89.0052 23.3023C91.5095 23.3023 92.7345 22.1316 93.3082 21.2245V22.9767H95.9752V10.3237H93.1609L93.1686 17.4022Z" fill="#121212"/>
<path d="M65.6378 19.3948V12.51H68.9329V10.1841H65.6533V6.39288H62.8932V10.1454H60.7456V12.51H62.8777V19.4878C62.8777 21.4804 63.653 23.1783 66.8628 23.1783C67.5644 23.1964 68.2655 23.1234 68.9484 22.9612V20.7128C68.3959 20.7914 67.8393 20.838 67.2814 20.8524C67.0752 20.8776 66.866 20.8588 66.6677 20.797C66.4693 20.7353 66.2863 20.6321 66.1309 20.4943C65.9755 20.3564 65.8511 20.1871 65.7661 19.9975C65.6811 19.808 65.6374 19.6025 65.6378 19.3948V19.3948Z" fill="#121212"/>
<path d="M78.0036 9.95929C77.1669 9.90521 76.3308 10.0749 75.5814 10.451C74.8319 10.8271 74.1962 11.396 73.7394 12.0991V5.24542H70.894V22.9767H73.7549V16.2548C73.7549 14.3708 74.3287 12.6341 76.6778 12.479C79.027 12.324 79.3682 14.0297 79.3682 15.7276V22.9845H82.3221V14.4561C82.2988 13.3784 81.9189 9.96704 78.0036 9.95929Z" fill="#121212"/>
<path d="M103.891 10.1841C103.329 10.3539 102.826 10.6766 102.437 11.1161C102.048 11.5556 101.789 12.0946 101.689 12.6729V10.3469H98.9214V23H101.775V15.9602C101.762 15.4313 101.872 14.9066 102.095 14.4272C102.319 13.9478 102.651 13.5268 103.065 13.1971C103.479 12.8675 103.963 12.6381 104.481 12.5269C104.998 12.4158 105.534 12.4259 106.046 12.5566V10.1066C105.329 10.0136 104.6 10.0398 103.891 10.1841Z" fill="#121212"/>
</g>
<defs>
<clipPath id="clip0">
<rect width="106" height="26.7791" fill="white" transform="translate(0 0.880447)"/>
</clipPath>
</defs>
</svg>
