<svg width="120" height="33" viewBox="0 0 120 33" fill="none" xmlns="http://www.w3.org/2000/svg">
<path fill-rule="evenodd" clip-rule="evenodd" d="M42.1119 26.7659C42.0947 27.708 42.0028 28.2106 41.755 28.7233C41.2345 29.7932 40.2644 30.3698 38.9841 30.3698C37.0547 30.3698 35.7285 29.0521 35.7285 27.1321C35.7285 25.1841 37.0735 23.8578 39.0394 23.8578C40.3384 23.8578 41.2057 24.4064 41.7823 25.5768L40.2745 26.1978C39.9994 25.5402 39.5786 25.2293 38.9662 25.2293C38.0623 25.2293 37.3844 26.042 37.3844 27.1407C37.3844 28.2667 38.0623 29.0607 39.0114 29.0607C39.7345 29.0607 40.1638 28.7046 40.2644 28.0002H38.9662V26.7659H42.1119Z" fill="#003399"/>
<path fill-rule="evenodd" clip-rule="evenodd" d="M44.5998 26.0073V26.6844C44.9395 26.1624 45.3323 25.952 45.9634 25.952C46.0632 25.952 46.0998 25.952 46.2463 25.9605V27.36C46.0086 27.2416 45.8707 27.2143 45.6245 27.2143C44.9395 27.2143 44.5998 27.6078 44.5998 28.3761V30.1488H43.1372V26.0073H44.5998Z" fill="#003399"/>
<path fill-rule="evenodd" clip-rule="evenodd" d="M51.9077 28.0732C51.9077 29.3815 50.8737 30.3049 49.4212 30.3049C47.9571 30.3049 46.9238 29.3815 46.9238 28.0732C46.9238 26.7758 47.9571 25.8509 49.4212 25.8509C50.8737 25.8509 51.9077 26.7758 51.9077 28.0732ZM48.4682 28.0647C48.4682 28.5852 48.889 29.0145 49.4212 29.0145C49.9417 29.0145 50.3618 28.5852 50.3618 28.0647C50.3618 27.534 49.9417 27.114 49.4212 27.114C48.889 27.114 48.4682 27.534 48.4682 28.0647Z" fill="#003399"/>
<path fill-rule="evenodd" clip-rule="evenodd" d="M54.3685 28.3571C54.3685 28.8604 54.6155 29.1176 55.1188 29.1176C55.6121 29.1176 55.8583 28.8604 55.8583 28.3571V26.0062H57.3225V28.6399C57.3225 29.7386 56.5542 30.323 55.1188 30.323C53.6734 30.323 52.9043 29.7386 52.9043 28.6399V26.0062H54.3685V28.3571Z" fill="#003399"/>
<path fill-rule="evenodd" clip-rule="evenodd" d="M58.4751 32.2251V26.0077H59.9385V26.4635C60.2587 26.0513 60.66 25.8698 61.2187 25.8698C62.3985 25.8698 63.3125 26.8399 63.3125 28.0827C63.3125 29.3264 62.4078 30.2872 61.2273 30.2872C60.6974 30.2872 60.3039 30.1227 59.9385 29.7464V32.2251H58.4751ZM59.8925 28.0742C59.8925 28.5962 60.3226 29.0256 60.8431 29.0256C61.3652 29.0256 61.786 28.6048 61.786 28.0742C61.786 27.5536 61.3652 27.1329 60.8431 27.1329C60.3133 27.1329 59.8925 27.5536 59.8925 28.0742Z" fill="#003399"/>
<path fill-rule="evenodd" clip-rule="evenodd" d="M40.1376 12.5033H40.6176C42.1597 12.5033 44.4973 12.2867 44.4973 14.4794C44.4973 16.4789 42.1355 16.4064 40.7384 16.4064H40.1376V12.5033ZM42.6903 20.0111C46.0114 20.0111 49.2576 18.7612 49.2576 14.9602C49.2576 12.4316 48.1503 10.6721 45.5539 10.3355V10.2864C47.0337 9.53835 47.5636 8.2051 47.5636 6.55081C47.5636 3.07705 45.3989 1.82874 42.1682 1.82874H35.4077V20.0111H42.6903ZM40.1376 5.43263H40.4758C41.7568 5.43263 43.2334 5.52926 43.2334 7.20926C43.2334 8.76536 41.9275 8.9851 40.6698 8.9851H40.1376V5.43263Z" fill="#003399"/>
<path fill-rule="evenodd" clip-rule="evenodd" d="M66.9929 20.0111H71.3768V-6.10352e-05H66.9929V20.0111ZM57.7373 11.0501C59.5241 11.0501 60.562 12.3233 60.562 13.8358C60.562 15.3981 59.5241 16.5973 57.7373 16.5973C55.949 16.5973 54.9111 15.3981 54.9111 13.8358C54.9111 12.3233 55.949 11.0501 57.7373 11.0501ZM64.7823 7.63708H60.3984V8.85423C59.4835 7.76877 57.9913 7.23578 56.5724 7.23578C52.9155 7.23578 50.3916 10.2786 50.3916 13.8108C50.3916 17.3454 52.9646 20.4116 56.6191 20.4116C58.0638 20.4116 59.5794 19.8568 60.35 18.6257H60.3984V20.0103H64.7823V7.63708Z" fill="#003399"/>
<path fill-rule="evenodd" clip-rule="evenodd" d="M80.191 11.0506C81.9692 11.0506 83.0024 12.3231 83.0024 13.8355C83.0024 15.3963 81.9692 16.5971 80.191 16.5971C78.4136 16.5971 77.3811 15.3963 77.3811 13.8355C77.3811 12.3231 78.4136 11.0506 80.191 11.0506ZM80.191 7.23633C76.224 7.23633 72.7549 9.62776 72.7549 13.8355C72.7549 18.0465 76.2466 20.4122 80.191 20.4122C84.1588 20.4122 87.6294 18.0207 87.6294 13.8355C87.6294 9.62776 84.1588 7.23633 80.191 7.23633Z" fill="#003399"/>
<path fill-rule="evenodd" clip-rule="evenodd" d="M89.0204 20.0103H93.4043V7.63787H89.0204V20.0103ZM93.6723 2.89086C93.6723 4.24125 92.562 5.3493 91.2131 5.3493C89.8635 5.3493 88.7539 4.24125 88.7539 2.89086C88.7539 1.54125 89.8635 0.431641 91.2131 0.431641C92.562 0.431641 93.6723 1.54125 93.6723 2.89086Z" fill="#003399"/>
<path fill-rule="evenodd" clip-rule="evenodd" d="M103.751 10.823C103.076 10.4607 102.139 10.2207 101.391 10.2207C100.876 10.2207 99.9865 10.4381 99.9865 11.0646C99.9865 11.9085 101.391 12.0285 101.994 12.1477C104.039 12.5591 105.582 13.523 105.582 15.8132C105.582 19.0649 102.619 20.4137 99.7216 20.4137C97.9676 20.4137 96.2362 19.9095 94.7432 18.9932L96.3328 15.9332C97.2219 16.5597 98.7141 17.1862 99.7948 17.1862C100.358 17.1862 101.198 16.9212 101.198 16.2472C101.198 15.2825 99.7949 15.2326 98.4242 14.8719C97.0536 14.5103 95.6829 13.8339 95.6829 11.6178C95.6829 8.58278 98.4242 7.23395 101.148 7.23395C102.547 7.23395 103.944 7.45135 105.221 8.03031L103.751 10.823Z" fill="#003399"/>
<path fill-rule="evenodd" clip-rule="evenodd" d="M110.758 12.0216C111.023 10.753 112.083 10.0837 113.362 10.0837C114.541 10.0837 115.628 10.8489 115.843 12.0216H110.758ZM119.917 14.0928C119.917 9.89042 117.435 7.23639 113.144 7.23639C109.12 7.23639 106.301 9.72054 106.301 13.8278C106.301 18.0964 109.361 20.4122 113.458 20.4122C116.278 20.4122 119.05 19.086 119.748 16.167H115.53C115.048 16.9829 114.373 17.2969 113.433 17.2969C111.625 17.2969 110.685 16.333 110.685 14.5502H119.917V14.0928Z" fill="#003399"/>
<path fill-rule="evenodd" clip-rule="evenodd" d="M0 15.7161L14.4522 30.1668L23.2231 21.381L19.0629 17.2161L14.4506 21.8182L8.44364 15.819L14.453 9.80416L24.6382 19.9862H33.5299V14.2527H27.4262L14.4522 1.26312L0 15.7161Z" fill="#003399"/>
</svg>
