<svg width="45" height="36" viewBox="0 0 45 36" fill="none" xmlns="http://www.w3.org/2000/svg">
<g clip-path="url(#clip0)">
<path d="M2.20757 0.462302L14.1478 7.3554C14.3726 7.484 14.5594 7.66972 14.6893 7.89374C14.8193 8.11777 14.8877 8.37215 14.8877 8.63114C14.8877 8.89012 14.8193 9.1445 14.6893 9.36853C14.5594 9.59256 14.3726 9.77827 14.1478 9.90687L2.20757 16.8C1.98207 16.9284 1.79459 17.1142 1.66418 17.3385C1.53377 17.5628 1.46507 17.8177 1.46507 18.0772C1.46507 18.3367 1.53377 18.5915 1.66418 18.8159C1.79459 19.0402 1.98207 19.226 2.20757 19.3544L14.1478 26.2475C14.3726 26.3761 14.5594 26.5618 14.6893 26.7858C14.8193 27.0099 14.8877 27.2642 14.8877 27.5232C14.8877 27.7822 14.8193 28.0366 14.6893 28.2606C14.5594 28.4846 14.3726 28.6704 14.1478 28.799L2.20757 35.6862C1.98378 35.8168 1.72945 35.8859 1.47034 35.8865C1.21124 35.8871 0.956569 35.8192 0.732153 35.6897C0.507738 35.5602 0.321553 35.3737 0.192464 35.149C0.063374 34.9243 -0.0040307 34.6695 -0.00291609 34.4104V1.73804C-0.00291609 0.332964 0.990619 -0.240235 2.20757 0.462302ZM30.1033 1.6381V15.4037C30.1017 15.6631 30.1687 15.9182 30.2976 16.1433C30.4265 16.3684 30.6126 16.5553 30.8371 16.6852C31.0616 16.8151 31.3165 16.8832 31.5758 16.8827C31.8352 16.8822 32.0898 16.8131 32.3138 16.6824L44.254 9.78929C44.4795 9.6609 44.667 9.47509 44.7974 9.25076C44.9278 9.02643 44.9965 8.77157 44.9965 8.51209C44.9965 8.2526 44.9278 7.99774 44.7974 7.77341C44.667 7.54908 44.4795 7.36327 44.254 7.23488L32.3138 0.341782C32.0894 0.210796 31.8342 0.141662 31.5743 0.141419C31.3145 0.141177 31.0592 0.209838 30.8345 0.340405C30.6098 0.470972 30.4238 0.658775 30.2953 0.884674C30.1669 1.11057 30.1006 1.36649 30.1033 1.62634V1.6381Z" fill="url(#paint0_linear)"/>
</g>
<defs>
<linearGradient id="paint0_linear" x1="3.18349" y1="37.1647" x2="27.2873" y2="-2.95044" gradientUnits="userSpaceOnUse">
<stop offset="0.5" stop-color="#32B4FF"/>
<stop offset="1" stop-color="#9BD3AE"/>
</linearGradient>
<clipPath id="clip0">
<rect width="45" height="35.7455" fill="white" transform="translate(0 0.143188)"/>
</clipPath>
</defs>
</svg>
