<svg width="54" height="54" viewBox="0 0 54 54" fill="none" xmlns="http://www.w3.org/2000/svg">
<mask id="mask0" mask-type="alpha" maskUnits="userSpaceOnUse" x="0" y="0" width="54" height="54">
<path d="M0 0H54V54H0V0Z" fill="white"/>
</mask>
<g mask="url(#mask0)">
<path fill-rule="evenodd" clip-rule="evenodd" d="M46.8437 54H7.155C5.25725 53.9996 3.43735 53.2455 2.09557 51.9035C0.753785 50.5614 -3.3767e-08 48.7414 0 46.8437L0 7.155C0.000357998 5.25725 0.754486 3.43735 2.09652 2.09557C3.43856 0.753785 5.2586 -3.3767e-08 7.15635 0L46.845 0C48.7427 0.000357998 50.5626 0.754486 51.9044 2.09652C53.2462 3.43856 54 5.2586 54 7.15635V46.845C53.9996 48.7427 53.2455 50.5626 51.9035 51.9044C50.5614 53.2462 48.7414 54 46.8437 54Z" fill="#23D2AA"/>
</g>
<path fill-rule="evenodd" clip-rule="evenodd" d="M38.3331 26.8839C37.9848 26.6517 37.9848 26.1887 38.3331 25.8404C40.4229 23.7519 41.2936 21.0843 41.2936 18.2993C41.2936 11.9772 36.3594 6.69873 29.2773 6.69873H18.8634C17.8382 6.69837 16.8548 7.1052 16.1295 7.82974C15.4042 8.55429 14.9963 9.53723 14.9956 10.5624V43.4376C14.9958 43.9453 15.096 44.448 15.2905 44.9169C15.4849 45.3859 15.7699 45.8119 16.1291 46.1707C16.4883 46.5295 16.9146 46.814 17.3837 47.008C17.8529 47.202 18.3557 47.3017 18.8634 47.3013H29.2773C36.9979 47.3013 41.758 42.3711 41.758 34.6559C41.758 31.8141 40.7131 28.7402 38.3331 26.8839ZM33.1086 18.6489C33.1086 20.678 31.309 22.5342 29.2773 22.5342H23.7045C23.3562 22.5342 23.124 22.302 23.124 21.9537V15.3995C23.124 15.0512 23.3562 14.819 23.7045 14.819H29.2773C31.309 14.819 33.1086 16.6172 33.1086 18.6476V18.6489ZM29.5014 39.1811H23.7058C23.3575 39.1811 23.1253 38.9489 23.1253 38.6006V30.7706C23.1253 30.4223 23.3575 30.1901 23.7058 30.1901H29.5027C31.9408 30.1901 33.5662 32.3946 33.5662 34.6559C33.5662 36.9779 32.0002 39.1811 29.5027 39.1811" fill="#000028"/>
</svg>
