<svg width="122" height="18" viewBox="0 0 122 18" fill="none" xmlns="http://www.w3.org/2000/svg">
<g clip-path="url(#clip0)">
<path d="M15.5208 17.2432V0.285706H19.3834V17.2432H15.5208ZM90.605 10.9077C90.605 6.80964 87.4255 4.26601 83.7043 4.26601C79.9595 4.26601 76.8035 6.8332 76.8035 10.9077C76.8035 15.0058 79.983 17.573 83.7043 17.573C87.4255 17.573 90.605 14.9822 90.605 10.9077ZM86.7896 10.9077C86.7896 13.051 85.3529 14.2521 83.6807 14.2521C82.0085 14.2521 80.5718 13.051 80.5718 10.9077C80.5718 8.74092 82.0085 7.58686 83.6807 7.58686C85.3529 7.58686 86.7896 8.74092 86.7896 10.9077ZM13.9664 12.3679C13.9664 10.4602 12.9772 8.99999 11.2108 8.34053C12.883 7.422 13.4718 6.22084 13.4718 4.80771C13.4718 2.33474 11.6819 0.285706 7.67799 0.309258H0V17.2668H8.00772C12.0351 17.2432 13.9664 15.2413 13.9664 12.3679ZM9.37375 5.30231C9.37375 6.45636 8.64363 7.11582 7.2305 7.11582H4.02741V3.583H7.2305C8.52587 3.583 9.37375 4.14825 9.37375 5.30231ZM9.72703 12.1089C9.72703 13.2158 8.94981 13.9459 7.51313 13.9459H4.02741V10.2718H7.51313C8.9027 10.2718 9.72703 10.9784 9.72703 12.1089ZM47.5988 7.72818C46.539 5.51428 44.5606 4.28957 41.5695 4.28957C38.0367 4.28957 34.8807 6.50347 34.8807 10.9077C34.8807 15.1942 37.6598 17.573 41.5224 17.573C44.2309 17.573 46.5154 16.4896 47.5988 14.1579L44.49 12.5564C43.9247 13.5927 43.0533 14.2521 41.6637 14.2521C39.8737 14.2521 38.7197 12.9803 38.7197 10.9077C38.7197 8.83513 40.0386 7.58686 41.6402 7.58686C42.8884 7.58686 43.8305 8.15211 44.4193 9.37682L47.5988 7.72818ZM104.524 7.72818C103.464 5.51428 101.486 4.28957 98.495 4.28957C94.9622 4.28957 91.8062 6.50347 91.8062 10.9077C91.8062 15.1942 94.5853 17.573 98.4479 17.573C101.156 17.573 103.441 16.4896 104.524 14.1579L101.415 12.5564C100.85 13.5927 99.9788 14.2521 98.5892 14.2521C96.7992 14.2521 95.6452 12.9803 95.6452 10.9077C95.6452 8.83513 96.9641 7.58686 98.5656 7.58686C99.8139 7.58686 100.756 8.15211 101.345 9.37682L104.524 7.72818ZM72.1402 17.2432L68.9135 11.5436H66.4405V17.2432H62.4602V0.285706H69.6436C73.5297 0.285706 76.2382 2.14632 76.2382 5.7969C76.2382 8.12856 75.0842 9.77721 73.0351 10.79L76.7564 17.2432H72.1402ZM66.4641 8.17567H69.4317C71.2687 8.17567 72.1637 7.13937 72.1637 5.91466C72.1637 4.45443 71.3158 3.65366 69.4317 3.65366H66.4641V8.17567ZM34.2448 17.0313V14.3699C34.0799 14.417 33.8444 14.4641 33.5853 14.4641C33.0907 14.4641 32.8317 14.205 32.8317 13.7575V9.35327C32.8317 6.05598 30.6178 4.31312 26.9672 4.31312C24.5884 4.31312 22.5629 5.18455 21.2911 6.31505L23.4344 8.71737C24.2822 7.9637 25.4127 7.49266 26.5197 7.49266C28.2154 7.49266 29.0162 8.34053 29.0162 9.73011V10.1305C28.2154 9.94208 27.2027 9.75366 25.978 9.75366C22.8927 9.75366 20.8907 11.2374 20.8907 13.6869C20.8907 16.2069 22.5629 17.5259 25.1537 17.5259C26.9201 17.5259 28.4981 16.7957 29.3224 15.8537C29.817 17.1019 30.9004 17.4317 31.9602 17.4317C32.6903 17.4552 33.5382 17.3374 34.2448 17.0313ZM29.0398 13.051C29.0398 14.205 27.9328 14.9587 26.661 14.9587C25.4598 14.9587 24.871 14.3463 24.871 13.4984C24.871 12.6035 25.5305 11.944 26.873 11.944C27.6973 11.944 28.4274 12.0853 29.0398 12.2266V13.051ZM118.326 17.2432L113.78 9.35327L118.043 4.7135H113.757L109.258 9.70655V0.309258H105.419V17.2668H109.258V14.205L111.095 12.2502L113.969 17.2668H118.326V17.2432ZM61.4475 17.2432L56.9019 9.35327L61.1649 4.7135H56.8313L52.3799 9.70655V0.309258H48.5409V17.2668H52.3799V14.205L54.217 12.2502L57.0903 17.2668H61.4475V17.2432ZM120.681 14.888C121.482 14.888 121.953 15.3826 121.953 16.1363C121.953 16.89 121.482 17.3845 120.681 17.3845C119.88 17.3845 119.409 16.89 119.409 16.1363C119.409 15.3826 119.88 14.888 120.681 14.888ZM120.681 17.2197C121.317 17.2197 121.741 16.8428 121.741 16.1363C121.741 15.4297 121.293 15.0529 120.681 15.0529C120.045 15.0529 119.621 15.4297 119.621 16.1363C119.598 16.8664 120.045 17.2197 120.681 17.2197ZM120.186 15.5004H120.705C121.011 15.5004 121.176 15.6652 121.176 15.9008C121.176 16.1127 121.081 16.2305 120.917 16.3011L121.152 16.7486H120.917L120.705 16.3483H120.422V16.7486H120.186V15.5004ZM120.422 15.6888V16.1363H120.681C120.846 16.1363 120.94 16.0892 120.94 15.9243C120.94 15.783 120.87 15.7123 120.705 15.7123H120.422V15.6888Z" fill="black"/>
</g>
<defs>
<clipPath id="clip0">
<rect width="122" height="17.4286" fill="white" transform="translate(0 0.285706)"/>
</clipPath>
</defs>
</svg>
