<svg width="66" height="66" viewBox="0 0 66 66" fill="none" xmlns="http://www.w3.org/2000/svg">
<path d="M31.3736 55.2356C31.348 55.2003 31.3143 55.1718 31.2753 55.1523C31.2363 55.1328 31.1932 55.1229 31.1496 55.1236C30.958 55.1327 30.7699 55.1788 30.5957 55.2592C30.5182 55.2986 30.4345 55.3245 30.3482 55.3358C30.2245 55.3593 30.0948 55.3947 29.9593 55.4183C29.4761 55.4949 28.7984 55.5185 28.7984 55.5185C28.9398 55.2592 29.1873 54.8172 29.2993 54.6228C29.4112 54.4283 29.5174 54.2103 29.6411 53.9864C29.7649 53.7624 29.9063 53.4972 30.0713 53.2026C30.2363 52.9079 30.4543 52.5308 30.7077 52.0947C30.7972 51.9575 30.8723 51.8114 30.9316 51.6586C30.9679 51.5727 30.9879 51.4808 30.9905 51.3876C30.984 51.2694 30.9453 51.1553 30.8786 51.0576C30.8125 50.9413 30.7312 50.8343 30.637 50.7394C30.5373 50.6482 30.4287 50.5672 30.3128 50.4978C30.2114 50.4426 30.0983 50.4123 29.9829 50.4093C29.8652 50.3932 29.7456 50.4184 29.6445 50.4808C29.5434 50.5431 29.4672 50.6388 29.4289 50.7512C29.4289 50.7512 29.3641 50.9221 29.3406 50.9751C29.317 51.0281 29.2757 51.1519 29.2522 51.2049C29.2286 51.258 29.1578 51.3876 29.1578 51.3876C28.928 51.8885 28.7336 52.3069 28.5745 52.6251C28.4154 52.9551 28.2621 53.2556 28.1325 53.5444C27.9911 53.8214 27.8496 54.116 27.6964 54.4283C27.5432 54.7406 27.3488 55.1355 27.1071 55.601C27.0541 55.6128 27.0188 55.6128 26.9775 55.6187C26.9363 55.6246 26.8891 55.6304 26.842 55.6422C26.7949 55.654 26.6828 55.6599 26.5827 55.6658C26.4825 55.6717 26.3764 55.6894 26.2114 55.6953C26.1604 55.6982 26.1092 55.6982 26.0582 55.6953C25.9757 55.6953 25.8637 55.6835 25.7046 55.6717C25.6516 55.6599 25.4689 55.6481 25.4689 55.6481C25.363 55.6427 25.2573 55.6611 25.1594 55.7019C25.0615 55.7427 24.974 55.8049 24.9032 55.8838C24.7588 56.0593 24.6834 56.2814 24.6911 56.5085C24.6805 56.6153 24.7003 56.7228 24.7483 56.8187C24.7962 56.9146 24.8704 56.9951 24.9621 57.0506C25.2388 57.1761 25.5436 57.2269 25.8461 57.1979C25.9879 57.1952 26.1295 57.1854 26.2703 57.1685C26.288 57.1685 26.3057 57.1626 26.3234 57.1626C26.2056 57.4631 26.0995 57.6988 26.017 57.8815C25.9345 58.0642 25.8343 58.2999 25.7046 58.5886C25.3746 59.3135 25.0977 59.9381 24.8914 60.4449C24.6734 60.9517 24.5084 61.3936 24.3846 61.7649C24.273 62.0889 24.1901 62.4222 24.1371 62.7608C24.0861 63.0606 24.0624 63.3643 24.0664 63.6683C24.0664 64.782 24.42 65.3301 25.1331 65.3301C25.2017 65.3336 25.2702 65.3212 25.3333 65.2938C25.3964 65.2665 25.4524 65.2251 25.4969 65.1726C25.5414 65.1202 25.5731 65.0582 25.5897 64.9915C25.6063 64.9248 25.6074 64.8551 25.5927 64.7879C25.5941 64.7498 25.5881 64.7118 25.575 64.676C25.5231 64.5454 25.4798 64.4115 25.4454 64.2753C25.438 64.2107 25.434 64.1458 25.4336 64.0808C25.4634 63.5761 25.5646 63.0781 25.7341 62.6017C25.9559 61.8925 26.2216 61.1977 26.5297 60.5215C26.7889 59.9499 26.9952 59.4785 27.1602 59.119C27.3252 58.7595 27.4371 58.5003 27.5137 58.3353C27.608 58.1231 27.6788 57.9523 27.7318 57.8226C27.7849 57.693 27.8261 57.5869 27.8673 57.4985C27.9086 57.4101 27.9498 57.3158 27.9911 57.2215C28.0205 57.1626 28.0618 57.0742 28.1089 56.9799C28.5933 56.9195 29.0709 56.8129 29.535 56.6617C29.5974 56.6499 29.6586 56.6321 29.7177 56.6086C29.924 56.5203 30.2127 56.4496 30.578 56.2846C31.1732 55.9958 31.462 55.7483 31.462 55.5303C31.469 55.4246 31.4376 55.32 31.3736 55.2356V55.2356ZM64.9864 50.3976C64.8226 50.3896 64.6608 50.4369 64.5271 50.5321C64.3935 50.6272 64.2959 50.7646 64.2498 50.922C64.2263 51.0281 63.8079 52.0476 63.637 52.4129C63.5014 52.7017 63.5427 52.6663 63.3187 53.0965C63.0948 53.5267 62.8768 53.9981 62.647 54.499C62.4172 54.9999 62.205 55.5067 61.9928 56.0076C61.7807 56.5085 61.604 56.9681 61.4684 57.3806C61.2561 57.939 61.0847 58.5121 60.9557 59.0954C60.8687 59.5596 60.8312 60.0317 60.8438 60.5038C60.849 60.5763 60.8696 60.6469 60.9041 60.7109C60.9386 60.7749 60.9864 60.8309 61.0441 60.8751C61.1566 60.9775 61.3045 61.0324 61.4566 61.0283C61.5961 61.008 61.7244 60.941 61.8208 60.8382C61.9171 60.7355 61.9757 60.603 61.9869 60.4626C62.1932 59.726 62.4112 59.0188 62.6587 58.3294C62.9062 57.6399 63.1714 56.9622 63.4778 56.2728C63.7843 55.5833 64.1261 54.8879 64.5091 54.1749C64.8921 53.4619 65.6523 52.1065 65.7938 51.8354C65.9062 51.6593 65.9768 51.4597 66 51.2521C65.9905 51.1351 65.9561 51.0215 65.8992 50.9189C65.8423 50.8162 65.7641 50.7269 65.67 50.6569C65.5787 50.5707 65.4714 50.5035 65.3541 50.459C65.2368 50.4145 65.1119 50.3936 64.9864 50.3976V50.3976ZM60.9852 63.7921C60.6281 63.7857 60.278 63.8908 59.9834 64.0926C59.8586 64.16 59.753 64.2582 59.6767 64.3778C59.6004 64.4975 59.5559 64.6345 59.5474 64.7761C59.5626 64.8639 59.5946 64.948 59.6416 65.0237C59.6748 65.1123 59.7294 65.1912 59.8007 65.2535C59.9392 65.3529 60.108 65.4008 60.2781 65.389C60.6497 65.3997 61.0163 65.3013 61.3328 65.1062C61.4585 65.0373 61.5642 64.9371 61.6396 64.8152C61.715 64.6933 61.7576 64.554 61.7631 64.4108C61.7619 64.3251 61.7404 64.241 61.7005 64.1652C61.6605 64.0894 61.6032 64.0241 61.5332 63.9747C61.3774 63.852 61.1835 63.7874 60.9852 63.7921ZM33.8662 50.3976C33.7322 50.3914 33.6005 50.4339 33.4954 50.5173C33.3903 50.6007 33.319 50.7194 33.2946 50.8513C32.9827 51.7653 32.5185 52.6201 31.9216 53.3794C31.739 53.6092 31.6329 53.7447 31.6034 53.7918C31.5705 53.847 31.5542 53.9104 31.5563 53.9746C31.5563 54.1867 31.7094 54.2928 32.0159 54.2928C32.2322 54.295 32.4448 54.2357 32.6287 54.1219C32.8794 53.9465 33.1036 53.7361 33.2946 53.4972C33.667 53.0786 34.0003 52.627 34.2905 52.1478C34.4875 51.8452 34.6163 51.5033 34.6677 51.146C34.6705 51.0487 34.6513 50.952 34.6115 50.8633C34.5717 50.7745 34.5123 50.6959 34.4378 50.6333C34.2858 50.4825 34.0804 50.3978 33.8662 50.3976ZM22.7229 55.6835C22.5632 55.7253 22.4206 55.8159 22.315 55.9427C22.2093 56.0695 22.1459 56.226 22.1336 56.3906C21.879 56.9585 21.5957 57.5132 21.285 58.0524C21.2379 58.129 21.1612 58.2881 21.0434 58.5297C20.9255 58.7713 20.8077 59.0424 20.678 59.337C20.5484 59.6317 20.4187 59.9263 20.295 60.2151C20.1712 60.5038 20.0652 60.7277 20.0062 60.8751C19.5752 61.7906 19.327 62.7815 19.2755 63.7921C19.261 64.1858 19.3725 64.5739 19.5938 64.8999C19.6762 65.0327 19.7906 65.1427 19.9264 65.2199C20.0623 65.2971 20.2153 65.339 20.3716 65.3419C20.4913 65.3446 20.6082 65.3049 20.7016 65.2299C20.7448 65.2027 20.7808 65.1655 20.8064 65.1213C20.8321 65.0772 20.8467 65.0275 20.8489 64.9765C20.851 64.9307 20.845 64.8848 20.8312 64.8409C20.7959 64.6759 20.7782 64.5699 20.7723 64.5346C20.7652 64.4937 20.7612 64.4523 20.7605 64.4108C20.7843 63.6208 20.9459 62.8411 21.2379 62.1067C21.3322 61.8651 21.4736 61.5292 21.6621 61.0931C21.8507 60.657 22.057 60.2151 22.2809 59.7613C22.5049 59.3076 22.7111 58.8774 22.9055 58.4826C23.1 58.0878 23.2591 57.7991 23.3652 57.6164C23.4954 57.4257 23.6097 57.2247 23.707 57.0153C23.7641 56.8891 23.7962 56.753 23.8013 56.6145C23.793 56.4879 23.7577 56.3645 23.6977 56.2527C23.6378 56.1409 23.5545 56.0433 23.4536 55.9663C23.3584 55.8706 23.2441 55.796 23.1182 55.7473C22.9924 55.6986 22.8577 55.6768 22.7229 55.6835V55.6835ZM58.7989 57.2333C58.8107 57.0258 58.7812 56.8179 58.7125 56.6217C58.6437 56.4256 58.5369 56.2449 58.3982 56.0901C58.2472 55.9489 58.0689 55.8401 57.8744 55.7702C57.6798 55.7003 57.4731 55.6708 57.2668 55.6835C56.966 55.6969 56.672 55.7775 56.4064 55.9192C56.0367 56.1085 55.6889 56.3376 55.3693 56.6027C54.966 56.9358 54.5842 57.2941 54.2261 57.6753C53.8094 58.119 53.4198 58.5873 53.0593 59.0778C52.5373 59.7583 52.087 60.4909 51.7157 61.264C51.4406 61.8261 51.2918 62.4416 51.2797 63.0673C51.2769 63.3621 51.3393 63.6538 51.4623 63.9217C51.5837 64.1854 51.7492 64.4265 51.9515 64.6347C52.1519 64.844 52.3897 65.0139 52.6527 65.1356C52.9081 65.2584 53.1884 65.3209 53.4718 65.3183C53.9345 65.3127 54.3922 65.2208 54.8213 65.0473C55.283 64.8681 55.7236 64.6389 56.1354 64.3637C56.5124 64.1148 56.8501 63.8109 57.1371 63.462C57.3751 63.2126 57.5171 62.8869 57.5379 62.5428C57.5397 62.4831 57.5285 62.4237 57.5051 62.3688C57.4817 62.3138 57.4466 62.2646 57.4023 62.2246C57.3663 62.1839 57.3217 62.1517 57.2718 62.1303C57.2219 62.1089 57.1679 62.0989 57.1136 62.1008C56.9277 62.1204 56.7566 62.2112 56.6362 62.3542C56.3298 62.6429 56.1059 63.0201 55.8643 63.2263C55.6383 63.4186 55.3911 63.5847 55.1277 63.7214C54.9029 63.8351 54.6656 63.9221 54.4205 63.9806C54.1826 64.0338 53.9395 64.0595 53.6957 64.0572C53.4304 64.0718 53.1676 63.9994 52.9473 63.851C52.7934 63.6197 52.719 63.3446 52.7352 63.0673C52.7415 62.8773 52.7732 62.689 52.8295 62.5074C52.88 62.3129 52.9532 62.125 53.0475 61.9476C53.2743 62.0015 53.5047 62.0389 53.7369 62.0595C53.862 62.076 53.988 62.0839 54.1141 62.0831C54.7606 62.061 55.3869 61.8522 55.9173 61.482C56.608 61.0198 57.2173 60.4463 57.7205 59.7849C58.0266 59.3722 58.2838 58.9252 58.4866 58.4531C58.6692 58.0707 58.7753 57.6564 58.7989 57.2333V57.2333ZM57.5084 57.2097C57.4833 57.4789 57.4073 57.7409 57.2844 57.9817C57.1606 58.2751 56.9981 58.5505 56.8013 58.8008C56.3812 59.3603 55.9031 59.8739 55.3752 60.333C55.0868 60.6127 54.7043 60.7745 54.3027 60.7867C54.1789 60.7926 53.625 60.7867 53.625 60.7867C53.8607 60.4331 54.0493 60.1503 54.1907 59.9322C54.3321 59.7142 54.45 59.5374 54.5443 59.4019C54.6386 59.2663 54.7152 59.1603 54.7859 59.0778C54.8566 58.9953 54.9273 58.9009 55.0098 58.8008C55.3823 58.3158 55.7963 57.8643 56.2473 57.4514C56.4774 57.1933 56.7756 57.0054 57.1077 56.9092C57.2247 56.9122 57.3387 56.9468 57.4377 57.0094C57.4809 57.0675 57.5055 57.1373 57.5084 57.2097V57.2097ZM24.8207 51.7411C24.7195 51.7425 24.6198 51.7665 24.5291 51.8113C24.4383 51.8562 24.3588 51.9208 24.2962 52.0005C24.1499 52.1597 24.068 52.3676 24.0664 52.5838C24.0709 52.7211 24.1074 52.8553 24.1729 52.976C24.2383 53.0967 24.331 53.2005 24.4436 53.2792C24.6823 53.4806 24.9857 53.5894 25.2981 53.5856C25.5078 53.5916 25.7121 53.5179 25.8697 53.3794C25.9443 53.3143 26.0036 53.2336 26.0434 53.1429C26.0831 53.0522 26.1023 52.9539 26.0995 52.8549C26.0984 52.7033 26.0629 52.554 25.9955 52.4182C25.9281 52.2824 25.8306 52.1637 25.7105 52.0712C25.4654 51.8541 25.1481 51.7364 24.8207 51.7411V51.7411ZM37.1839 57.0388C37.1 56.5423 36.8655 56.0835 36.5121 55.7247C36.2184 55.4166 35.8574 55.1807 35.4573 55.0353C35.4573 55.0353 35.3748 55.0058 35.3453 54.994C35.1938 54.9478 35.0377 54.9181 34.8798 54.9056C34.5452 54.9004 34.2204 55.0178 33.9664 55.2356C33.6427 55.5462 33.379 55.9137 33.1885 56.3199C32.9677 56.8186 32.796 57.3377 32.6759 57.8697C32.5473 58.4223 32.4821 58.9877 32.4814 59.5551C32.4848 59.8406 32.5025 60.1258 32.5344 60.4096C32.5757 60.7514 32.6228 61.099 32.6759 61.4585C32.7289 61.8179 32.7879 62.148 32.8586 62.4603C32.9078 62.7141 32.9808 62.9627 33.0766 63.2028C33.1305 63.3433 33.1757 63.4869 33.2121 63.633C33.2121 63.739 33.1297 63.7921 32.9588 63.7921C32.7186 63.7933 32.4797 63.7554 32.2516 63.6801C31.8328 63.5477 31.4754 63.2696 31.2439 62.8963C31.1423 62.7358 31.0872 62.5501 31.0848 62.3601C31.0896 62.2102 31.1215 62.0625 31.1791 61.924C31.2145 61.8457 31.2364 61.762 31.2439 61.6765C31.2358 61.5559 31.1862 61.4419 31.1035 61.3538C31.0207 61.2657 30.91 61.209 30.7902 61.1933C30.6768 61.1876 30.5636 61.2051 30.4572 61.2446C30.3508 61.2841 30.2535 61.3448 30.1714 61.4231C30.0239 61.6111 29.9085 61.8222 29.8296 62.0477C29.6719 62.4455 29.6511 62.8845 29.7707 63.2953C29.8902 63.7061 30.1432 64.0655 30.4896 64.3165C30.9092 64.6325 31.3768 64.8792 31.8744 65.0473C32.3701 65.2241 32.8921 65.3157 33.4184 65.3183C33.784 65.3397 34.1471 65.2449 34.4555 65.0473C34.5749 64.9672 34.6721 64.8581 34.7381 64.7304C34.804 64.6026 34.8366 64.4603 34.8327 64.3165C34.8269 64.1755 34.8071 64.0353 34.7738 63.8981C34.7309 63.6844 34.6738 63.4737 34.6028 63.2676C34.5616 63.0849 34.5086 62.861 34.4555 62.584C34.4025 62.307 34.3553 62.0301 34.3082 61.7296C34.2611 61.429 34.2257 61.1403 34.2022 60.8456C34.1786 60.551 34.1727 60.2858 34.1727 60.056C34.1713 59.668 34.1929 59.2804 34.2375 58.8951C34.2846 58.5003 34.3436 58.1408 34.4084 57.8108C34.4641 57.5387 34.545 57.2724 34.65 57.0153C34.7283 56.7768 34.8711 56.5647 35.0625 56.4024C35.1487 56.383 35.2381 56.3824 35.3246 56.4008C35.411 56.4191 35.4924 56.4558 35.5634 56.5085C35.7625 56.6425 35.9166 56.8335 36.0053 57.0565C36.0993 57.2509 36.1439 57.4655 36.135 57.6812C36.1296 57.8304 36.0998 57.9777 36.0466 58.1173C36.0073 58.1944 35.9832 58.2784 35.9759 58.3647C35.9744 58.4938 36.023 58.6184 36.1114 58.7124C36.1971 58.7946 36.3109 58.8409 36.4296 58.8421C36.5401 58.8556 36.6522 58.8417 36.756 58.8016C36.8598 58.7615 36.9521 58.6965 37.0248 58.6122C37.168 58.4289 37.2448 58.2025 37.2428 57.9699C37.2793 57.6586 37.2593 57.3431 37.1839 57.0388V57.0388ZM49.058 59.726C49.0816 59.6788 49.1052 59.6199 49.1287 59.5728C49.2702 59.3017 49.9243 58.1054 49.9243 58.0996C49.5884 58.4885 46.2412 62.6606 45.9584 63.0201C45.6755 63.3795 45.2041 63.9924 44.88 64.4344C44.6959 64.6961 44.4539 64.9119 44.1728 65.0649C44.0321 65.1283 43.8788 65.1586 43.7245 65.1535C43.5703 65.1484 43.4192 65.108 43.283 65.0355C43.179 64.9484 43.0975 64.8377 43.0452 64.7126C42.9929 64.5875 42.9713 64.4517 42.9825 64.3165C43.0503 63.8486 43.1832 63.3923 43.3773 62.9612C43.6366 62.2835 45.811 57.964 45.9348 57.7047C45.2159 58.4649 43.6189 60.3683 43.0945 60.9635C42.57 61.5587 42.0985 62.1892 41.7391 62.6665C41.4281 63.1001 41.1447 63.5528 40.8905 64.0219C40.6784 64.3873 40.5134 64.7703 40.4191 64.953C40.3488 65.0709 40.2509 65.17 40.1339 65.2418C40.0169 65.3137 39.8843 65.356 39.7473 65.3654C39.6314 65.3696 39.5164 65.3449 39.4124 65.2935C39.3085 65.242 39.219 65.1655 39.1521 65.0708C39.0621 64.9697 38.9984 64.848 38.9666 64.7165C38.9347 64.585 38.9357 64.4476 38.9695 64.3165C38.9765 64.1436 39.0165 63.9735 39.0873 63.8156C39.1757 63.6035 39.3172 63.3088 39.5116 62.9317C39.6059 62.749 39.8887 62.1361 39.983 61.9004C40.0773 61.6647 40.207 61.3701 40.3661 60.9753C40.5311 60.5922 41.7038 57.8226 41.8452 57.4573C41.9866 57.0919 42.2931 56.1196 42.3697 55.984C42.4075 55.9222 42.4615 55.8718 42.5259 55.8386C42.5903 55.8053 42.6627 55.7904 42.735 55.7954C42.8634 55.8001 42.9895 55.8302 43.1063 55.8838C43.3019 56.0088 43.4605 56.1838 43.5659 56.3906C43.6963 56.5788 43.7736 56.7987 43.7899 57.0271C43.7311 57.3662 43.6155 57.6928 43.448 57.9935C43.2182 58.4767 42.3873 59.9087 42.2989 60.109C43.1829 59.1308 43.8193 58.4236 44.3732 57.8402C44.9154 57.2686 45.3514 56.9387 45.6637 56.6381C45.8672 56.4178 46.0923 56.2184 46.3355 56.043C46.4399 55.9693 46.5619 55.9246 46.6891 55.9133C46.8177 55.9177 46.9434 55.9532 47.0552 56.0168C47.1671 56.0805 47.2619 56.1704 47.3314 56.2787C47.6791 56.6264 47.4493 57.3452 47.4257 57.4867C47.3627 57.6893 47.288 57.888 47.2018 58.0819C47.0898 58.347 46.9189 58.7183 46.6891 59.172L45.4457 61.5587C45.8582 61.1344 46.8953 59.8439 47.2666 59.449C47.6378 59.0424 47.8265 58.7772 48.1329 58.4354C48.4393 58.0936 48.7045 57.8403 48.9284 57.5751C49.1523 57.3099 49.3114 57.1449 49.4175 57.0035C49.6355 56.7324 49.8005 56.6263 49.9479 56.4554C50.0648 56.3157 50.1887 56.182 50.3191 56.0548C50.3958 55.9768 50.4855 55.913 50.5843 55.8661C50.653 55.8359 50.7272 55.8199 50.8023 55.819C50.9116 55.8264 51.0173 55.8617 51.1091 55.9215C51.2009 55.9814 51.2759 56.0637 51.3268 56.1608C51.4478 56.3333 51.5523 56.5168 51.6391 56.7088C51.6723 56.8036 51.6902 56.9031 51.6921 57.0035C51.6909 57.1286 51.667 57.2524 51.6214 57.3688C51.5309 57.596 51.4246 57.8165 51.3033 58.0288C51.2149 58.1997 51.1323 58.3529 51.0557 58.5061C50.9791 58.6593 50.9025 58.8185 50.8259 58.9776C50.7493 59.1367 50.6668 59.3076 50.5843 59.4962C50.5018 59.6847 50.2779 60.1679 50.0363 60.7985C49.7947 61.429 49.2879 62.967 50.1247 64.1927C50.9497 65.4067 49.6356 65.7131 48.8577 65.006C48.0798 64.2988 47.903 62.3247 49.058 59.726ZM49.1111 34.4456C47.9512 32.8336 47.0982 31.0218 46.5948 29.1008H40.4132C40.4191 29.1303 40.4368 29.1951 40.4368 29.1951C41.1857 32.5536 42.8102 35.6541 45.1452 38.1817C42.4872 40.9612 40.6461 44.4191 39.8239 48.176H45.8465C46.5294 46.1013 47.6417 44.1938 49.1111 42.5778C50.5804 44.1938 51.6928 46.1013 52.3757 48.176H58.41C57.5878 44.4191 55.7467 40.9612 53.0887 38.1817C55.4437 35.6281 57.0769 32.494 57.8207 29.1008H51.6273C51.1239 31.0218 50.2709 32.8336 49.1111 34.4456ZM35.6695 33.3967C35.6459 33.3967 35.6164 33.4026 35.5929 33.4026C35.4691 33.4085 35.3395 33.4144 35.2098 33.4144C35.0802 33.4144 34.9505 33.4085 34.8268 33.4026C34.8032 33.4026 34.7737 33.3967 34.7502 33.3967C33.8112 33.3179 32.9101 32.9905 32.1397 32.4479V48.176H38.28V32.4479C37.5095 32.9905 36.6085 33.3179 35.6695 33.3967V33.3967ZM26.7006 28.7119C24.2348 28.7232 21.7955 29.2219 19.523 30.1792V48.176H25.6634V34.2158C26.3034 33.9607 26.9906 33.8461 27.6787 33.8799C28.3 33.8441 28.9208 33.9593 29.4879 34.2158L30.3718 29.1185C30.254 29.0772 30.1243 29.0419 29.9829 29.0065C28.9028 28.7889 27.8021 28.6901 26.7006 28.7119V28.7119ZM7.99658 28.7119C5.26218 28.7426 2.55487 29.2573 0 30.2322V54.5402H6.23462V48.2585C7.05744 48.4947 7.9135 48.5943 8.76857 48.5532C14.3432 48.5532 18.0851 44.599 18.0851 38.4999C18.0851 32.336 14.1251 28.7119 7.99658 28.7119ZM7.80804 43.4558C7.27165 43.4733 6.73703 43.3852 6.23462 43.1965V34.0685C6.6924 33.9593 7.16067 33.9 7.63122 33.8917C10.5659 33.8917 11.7386 35.6595 11.7386 38.6884C11.7386 41.9001 10.5659 43.4558 7.80804 43.4558ZM46.5948 26.8851V13.137C47.3148 12.8872 48.072 12.7616 48.8341 12.7658C50.5961 12.7658 51.6214 13.6556 51.6214 16.0186V26.8851H57.8619V15.5708C57.8619 10.332 54.4854 7.5978 48.9048 7.5978C45.9911 7.61219 43.1013 8.12435 40.3602 9.11223V26.8851H46.5948V26.8851ZM35.2098 22.7188C35.9612 22.7199 36.7039 22.8785 37.3902 23.1844V23.1844C38.3671 21.4621 38.858 19.5068 38.8103 17.5272C38.8103 11.546 35.0566 7.5978 29.0812 7.5978C23.1059 7.5978 19.305 11.546 19.305 17.5272C19.305 23.5497 23.1 27.5038 29.0812 27.5038C29.317 27.5038 29.5409 27.498 29.7707 27.4862C29.8097 27.4793 29.849 27.4754 29.8886 27.4744C30.035 26.1659 30.6588 24.9573 31.6406 24.0799C32.6223 23.2025 33.8931 22.7179 35.2098 22.7188V22.7188ZM25.8048 17.5272C25.8048 14.5337 27.0482 12.7717 29.0812 12.7717C31.1143 12.7717 32.3105 14.5337 32.3105 17.5272C32.3105 20.5562 31.1084 22.3299 29.0812 22.3299C27.0541 22.3299 25.8048 20.5562 25.8048 17.5272V17.5272ZM8.29122 7.5978C7.60389 7.58612 6.91661 7.6235 6.23462 7.70973V0.862228H0V26.1013C1.86804 27.1326 5.13268 27.5038 8.03197 27.5038C14.1605 27.5038 18.0851 23.6204 18.0851 17.3504C18.0851 11.2926 14.1605 7.5978 8.29122 7.5978V7.5978ZM7.73732 22.3299C7.22696 22.3478 6.71762 22.2719 6.23462 22.106V12.9544C6.72813 12.8433 7.23158 12.7821 7.73732 12.7717C10.672 12.7717 11.7386 14.5336 11.7386 17.5626C11.7386 20.5561 10.5659 22.3299 7.73732 22.3299V22.3299Z" fill="#D21929"/>
</svg>
