<svg width="65" height="66" viewBox="0 0 65 66" fill="none" xmlns="http://www.w3.org/2000/svg">
<g clip-path="url(#clip0)">
<path fill-rule="evenodd" clip-rule="evenodd" d="M32.5 0.5C14.5507 0.5 0 15.0507 0 33C0 50.9493 14.5507 65.5 32.5 65.5C50.4493 65.5 65 50.9493 65 33C65 15.0507 50.4493 0.5 32.5 0.5Z" fill="#00C4CC"/>
<path fill-rule="evenodd" clip-rule="evenodd" d="M54.2282 33.9286C53.8568 33.9286 53.2068 33.8357 53.2068 33.4643C53.2068 33.0929 54.0425 33.2786 53.9496 32.4429C53.8568 31.8857 53.2996 31.7 52.7425 31.7C50.8854 31.7 49.6782 34.1143 49.9568 36.0643C50.0496 36.8071 50.4211 37.6429 51.1639 37.6429C51.7211 37.6429 52.5568 36.8071 52.9282 35.6C53.1139 34.8571 53.8568 34.2071 54.5068 34.2071C54.7854 34.2071 54.9711 34.3 55.0639 34.6714C55.0639 34.8571 55.0639 35.2286 54.6925 36.4357C54.2282 37.2714 54.2282 37.7357 54.3211 38.1071C54.4139 38.85 54.7854 39.4071 55.1568 39.6857C55.2496 39.7786 55.3425 39.9643 55.3425 39.9643C55.3425 40.15 55.2496 40.3357 54.9711 40.3357C54.8782 40.3357 54.7854 40.3357 54.6925 40.2429C53.2996 39.6857 52.7425 38.7571 52.5568 37.8286C51.9996 38.4786 51.3496 38.85 50.6068 38.85C49.3996 38.85 48.1925 37.7357 48.0068 36.3429C47.9418 35.7839 48.0254 35.1821 48.2083 34.5851C47.6576 34.9379 47.0661 35.1357 46.522 35.1357H46.0577C44.8506 36.9 43.5506 38.1071 42.622 38.6643C42.2506 38.85 41.8791 38.9429 41.6006 38.9429C41.4149 38.9429 41.1363 38.85 41.0434 38.6643C40.7881 38.252 40.6219 37.6001 40.5206 36.8564C39.2179 38.2836 37.4192 39.0357 36.5872 39.0357C35.6586 39.0357 35.1015 38.4786 35.0086 37.55V36.5286C35.2872 34.4857 36.0301 33.2786 36.0301 32.9072C36.0301 32.8143 35.9372 32.7214 35.8444 32.7214C35.1944 32.7214 33.0586 34.95 32.6872 36.4357L32.4086 37.6429C32.2229 38.4786 31.3872 39.0357 30.8301 39.0357C30.5515 39.0357 30.3658 38.9429 30.2729 38.5714V38.2L30.3992 37.5686C29.2218 38.408 28.0406 38.9429 27.4881 38.9429C26.6524 38.9429 26.1881 38.4786 26.0953 37.8286C25.5381 38.5714 24.8881 38.9429 24.0524 38.9429C23.0997 38.9429 22.1674 38.2929 21.7171 37.3392C21.0578 38.0821 20.3029 38.8342 19.4114 39.4081C18.1114 40.2438 16.6257 40.8938 14.8614 40.8938C13.2829 40.8938 11.89 40.0581 11.1471 39.3152C10.0329 38.2938 9.38285 36.7152 9.29 35.2295C8.73285 30.6795 11.5186 24.8295 15.79 22.2295C16.8114 21.6724 17.8329 21.3009 18.8543 21.3009C20.8971 21.3009 22.4757 22.7866 22.6614 24.5509C22.8471 26.1295 22.1971 27.5224 20.4329 28.3581C19.5043 28.8224 19.1329 28.8224 18.9471 28.5438C18.8543 28.3581 18.9471 28.1724 19.1329 27.9866C20.8043 26.5938 20.8043 25.4795 20.6186 23.9009C20.5257 22.8795 19.7829 22.2295 19.04 22.2295C15.79 22.2295 11.1471 29.4724 11.7971 34.7652C12.0757 36.8081 13.2829 39.2224 15.8829 39.2224C16.7186 39.2224 17.6471 38.9438 18.4829 38.5724C19.8386 37.8574 20.6464 37.3002 21.4543 36.4088C21.2565 34.0103 23.3616 30.8652 26.4686 30.8652C27.8614 30.8652 28.9757 31.4224 29.0686 32.4438C29.2543 33.8366 28.0471 34.0224 27.6757 34.0224C27.3043 34.0224 26.6543 33.9295 26.6543 33.5581C26.5614 33.1867 27.49 33.3724 27.3971 32.5366C27.3043 31.9795 26.7471 31.7938 26.19 31.7938C24.24 31.7938 23.1257 34.4866 23.4043 36.1581C23.4971 36.9009 23.8686 37.6438 24.6114 37.6438C25.1686 37.6438 26.0043 36.8081 26.2829 35.6009C26.4686 34.7652 27.2114 34.2081 27.8614 34.2081C28.14 34.2081 28.3257 34.3009 28.4186 34.6724V35.0438C28.3257 35.4152 28.0471 36.5295 28.14 36.8081C28.14 36.9938 28.2329 37.2724 28.6043 37.2724C28.8504 37.2724 29.7836 36.7839 30.7066 36.0281C31.0223 34.4309 31.3909 32.5134 31.3909 32.3528C31.4838 31.7028 31.7624 31.0528 33.0624 31.0528C33.3409 31.0528 33.5266 31.1456 33.6195 31.5171V31.8885L33.2481 33.5599C34.4552 31.9814 36.2195 30.8671 37.3338 30.8671C37.7981 30.8671 38.1695 31.1456 38.1695 31.6099C38.1695 31.8885 38.1695 32.3528 37.9838 32.8171C37.6124 33.8385 37.1481 35.4171 36.8695 36.8099C36.8695 37.1814 36.9624 37.5528 37.4266 37.5528C37.8909 37.5528 39.2838 36.9956 40.3981 35.5099L40.4166 35.4988C40.4111 35.3168 40.3981 35.1366 40.3981 34.9537C40.3981 33.8394 40.4909 32.9109 40.6766 32.2609C40.8624 31.518 41.7909 30.868 42.3481 30.868C42.6266 30.868 42.9052 31.0537 42.9052 31.3323C42.9052 31.4251 42.9052 31.6109 42.8124 31.7037C42.4409 32.9109 42.1624 34.0251 42.1624 35.1394C42.1624 35.7894 42.2552 36.718 42.4409 37.2751C42.4409 37.368 42.5338 37.4609 42.6266 37.4609C42.8124 37.4609 44.1124 36.2537 45.0409 34.6751C44.2052 34.118 43.7409 33.1894 43.7409 32.0752C43.7409 30.1252 44.9481 29.1037 46.0624 29.1037C46.9909 29.1037 47.7338 29.7537 47.7338 31.0537C47.7338 31.8894 47.4552 32.818 46.9909 33.6537H47.2695C48.0124 33.6537 48.4766 33.3752 48.8481 33.0037C48.934 32.8631 49.0615 32.7528 49.213 32.688C50.1193 31.5366 51.4601 30.6823 53.0294 30.6823C54.3294 30.6823 55.5338 31.2394 55.6294 32.2609C55.8151 33.6537 54.6061 33.9323 54.2338 33.9323L54.2282 33.9286Z" fill="white"/>
<path fill-rule="evenodd" clip-rule="evenodd" d="M45.3144 30.2143C45.0358 30.2143 44.8501 30.6785 44.8501 31.1428C44.8501 31.8857 45.2215 32.7214 45.6858 33.1857C45.8715 32.6286 45.9644 32.1643 45.9644 31.6071C45.9644 30.6785 45.593 30.2143 45.3144 30.2143" fill="#00C4CC"/>
</g>
<defs>
<clipPath id="clip0">
<rect width="65" height="65" fill="white" transform="translate(0 0.5)"/>
</clipPath>
</defs>
</svg>
