<svg width="93" height="22" viewBox="0 0 93 22" fill="none" xmlns="http://www.w3.org/2000/svg">
<g clip-path="url(#clip0)">
<path d="M45.1241 12.9596C45.0413 18.3963 40.95 21.035 36.2519 21.035C29.7702 21.035 26.7515 16.061 26.7515 11.0626C26.7484 5.67799 30.2636 0.845032 36.5553 0.845032C41.3331 0.845032 44.7134 3.61854 45.0689 8.23391H40.4719C40.3616 6.41964 38.9396 5.04667 36.4358 5.04667C32.7827 5.04667 31.2994 7.95809 31.2994 10.9798C31.2994 13.9188 32.7 16.7751 36.2979 16.7751C38.6607 16.7751 40.4995 15.5492 40.5884 12.9596H45.1241Z" fill="black"/>
<path d="M65.835 12.9596C65.7523 18.3963 61.6609 21.035 56.9628 21.035C50.4811 21.035 47.4624 16.061 47.4624 11.0626C47.4624 5.67799 50.9776 0.845032 57.2693 0.845032C62.0471 0.845032 65.4274 3.61854 65.7829 8.23391H61.1859C61.0787 6.41964 59.6536 5.04667 57.1498 5.04667C53.4967 5.04667 52.0134 7.95809 52.0134 10.9798C52.0134 13.9188 53.414 16.7751 57.0119 16.7751C59.3747 16.7751 61.2135 15.5492 61.3024 12.9596H65.835Z" fill="black"/>
<path d="M69.1323 1.31085H78.1148C82.5371 1.31085 84.4587 4.22227 84.4587 7.2716C84.4587 9.79994 83.1684 11.8686 80.8883 12.788L85.6937 20.5324H80.447L76.6315 13.8913H73.6374V20.5385H69.1323V1.31085ZM73.6374 5.60137V9.85511H77.4008C78.9331 9.85511 79.8985 8.93571 79.8985 7.65775C79.8985 6.47479 79.1568 5.5983 77.7011 5.5983L73.6374 5.60137Z" fill="black"/>
<path d="M93.0001 1.31085H88.2529V5.81896H93.0001V1.31085Z" fill="black"/>
<path d="M92.81 7.83551H88.4429V20.5416H92.81V7.83551Z" fill="black"/>
<path d="M0 20.5538H13.3159L0 7.23788V20.5538Z" fill="black"/>
<path d="M0 1.32617V7.23789H13.3159V20.5538H19.2276V1.32617H0Z" fill="black"/>
</g>
<defs>
<clipPath id="clip0">
<rect width="93" height="20.1899" fill="white" transform="translate(0 0.845032)"/>
</clipPath>
</defs>
</svg>
