<svg width="62" height="66" viewBox="0 0 62 66" fill="none" xmlns="http://www.w3.org/2000/svg">
<path d="M19.1189 16.9097C8.19383 24.5573 0 25.3767 0 38.2137C0 53.7819 12.837 65.7996 30.8634 65.7996C48.6167 65.7996 61.7269 51.3238 62 34.9361C61.7269 18.8216 50.8018 0.522034 37.6916 0.522034C28.9515 0.522034 31.4097 8.16961 19.1189 16.9097Z" fill="#56F24B"/>
<path d="M39.0564 27.8349C41.2414 29.4736 42.607 31.9318 42.8801 34.6631H37.4176C37.1445 33.2974 36.3251 31.9318 35.2326 30.8393C33.8669 30.0199 32.5013 29.4736 30.8625 29.4736C28.9506 29.4736 27.0387 30.293 25.9462 31.6586C24.5806 33.0243 24.0343 35.2093 24.0343 37.9406C24.0343 40.6719 24.5806 42.8569 25.9462 44.2225C27.3119 45.5882 28.9506 46.4075 30.8625 46.4075C32.5013 46.4075 33.8669 45.8613 35.2326 45.0419C36.3251 44.2225 37.1445 42.8569 37.4176 41.2181H42.8801C42.3339 44.2225 40.9683 46.4075 39.0564 48.3194C36.8713 49.9582 34.1401 50.7776 31.1357 50.7776C28.9506 50.7776 26.7656 50.2313 24.8537 49.1388C22.9418 48.0463 21.3031 46.6807 20.2105 44.7688C18.8449 42.8569 18.5718 40.3987 18.5718 38.2137C18.5718 35.7556 19.118 33.5705 20.2105 31.3855C21.3031 29.4736 22.6687 27.8349 24.5806 27.0155C26.4925 25.923 28.6775 25.3767 30.8625 25.3767C34.1401 25.3767 36.8713 26.1961 39.0564 27.8349Z" fill="black"/>
</svg>
