<svg width="119" height="45" viewBox="0 0 119 45" fill="none" xmlns="http://www.w3.org/2000/svg">
<path d="M8.57959 27.0888C8.77042 27.1101 8.94337 27.1274 9.11575 27.1464C10.0312 27.2613 10.9561 27.2806 11.8755 27.2041C12.758 27.1315 13.6282 26.9512 14.467 26.6674C16.0143 26.1387 17.3495 25.2699 18.4835 24.1013C19.7403 22.8099 20.7146 21.334 21.3269 19.6321C21.7992 18.3172 22.0054 16.9215 21.9334 15.5262C21.8613 14.0083 21.4964 12.5595 20.9464 11.1505C20.913 11.0646 20.8795 10.9775 20.8478 10.8928C20.842 10.8697 20.838 10.8461 20.8357 10.8224C20.8884 10.8161 20.9416 10.8161 20.9942 10.8224C21.2341 10.8864 21.4756 10.9475 21.7114 11.0254C22.9798 11.4462 24.1605 12.0406 25.2218 12.861C26.6222 13.9431 27.6651 15.306 28.4007 16.9099C28.9018 17.9816 29.2464 19.1197 29.424 20.2894C29.5458 21.1108 29.5756 21.9432 29.5128 22.7713C29.3399 25.0081 28.5904 27.0323 27.2454 28.8247C25.5966 31.0154 23.4248 32.4192 20.7515 33.0384C19.7258 33.2791 18.6684 33.3555 17.6188 33.265C14.2813 32.9727 11.6074 31.4668 9.58042 28.8062C9.25306 28.3715 8.95971 27.9122 8.70296 27.4324C8.64935 27.335 8.58593 27.2421 8.57959 27.0888Z" fill="black"/>
<path d="M97.804 22.4923C97.7583 22.483 97.7121 22.4762 97.6656 22.4721C92.3802 22.4721 87.0954 22.4721 81.8115 22.4721C81.7828 22.4768 81.7549 22.4853 81.7285 22.4975C81.7182 22.5212 81.7119 22.5466 81.71 22.5724C81.755 23.0036 81.7977 23.4372 81.8496 23.8649C81.9431 24.6918 82.1958 25.4927 82.5938 26.2235C82.9501 26.8715 83.3387 27.4981 83.8333 28.0504C84.9864 29.3401 86.4173 30.1697 88.0955 30.575C88.9411 30.7781 89.8161 30.8288 90.6794 30.7249C92.8125 30.4741 94.5617 29.5102 95.9257 27.8498C96.0952 27.6434 96.2434 27.4203 96.4013 27.2041C96.4394 27.1522 96.4717 27.0952 96.5166 27.0467C96.5896 26.9624 96.686 26.9015 96.7935 26.8718C96.901 26.8422 97.0149 26.8451 97.1208 26.8801C97.3555 26.9579 97.4714 27.1868 97.3929 27.437C97.362 27.5237 97.3204 27.6062 97.269 27.6826C97.0751 27.9859 96.8536 28.2706 96.6072 28.533C96.2034 28.9766 95.7667 29.389 95.3008 29.7667C94.1623 30.6869 92.8116 31.3075 91.3718 31.5718C89.5737 31.8992 87.8476 31.6398 86.1947 30.8759C85.345 30.4833 84.5517 30.0008 83.8616 29.3603C83.4279 28.9592 83.0347 28.5164 82.6878 28.0383C82.4278 27.6797 82.1782 27.3142 81.9228 26.9528C81.8813 26.8951 81.8363 26.8375 81.7752 26.7556C81.7573 26.7909 81.7437 26.8283 81.7348 26.8669C81.7296 26.9499 81.7314 27.0329 81.7314 27.1159C81.7314 28.3888 81.7314 29.6618 81.7314 30.9347C81.7337 31.0729 81.7227 31.2109 81.6985 31.3469C81.6792 31.4524 81.6223 31.5473 81.5383 31.614C81.4543 31.6807 81.349 31.7147 81.2419 31.7096C81.1393 31.7058 81.0411 31.6672 80.9635 31.5999C80.8859 31.5327 80.8336 31.441 80.8153 31.34C80.7941 31.1942 80.7851 31.0469 80.7882 30.8996C80.7882 29.6635 80.7882 28.4275 80.7882 27.1914C80.7882 27.0934 80.8066 26.9914 80.7553 26.8663C80.7069 26.9239 80.6717 26.962 80.6446 27.0035C80.4204 27.3413 80.2088 27.6884 79.9718 28.017C78.7197 29.7535 77.0316 30.8609 74.9821 31.4294C74.1404 31.6629 73.2797 31.7338 72.4074 31.7009C71.2061 31.6576 70.0265 31.3678 68.942 30.8494C68.6407 30.7102 68.3485 30.5523 68.0668 30.3767C66.3632 29.2853 65.092 27.8314 64.365 25.926C64.327 25.8268 64.3074 25.7161 64.2123 25.6158C64.1702 25.7023 64.1316 25.7726 64.1016 25.8464C63.8893 26.3571 63.6462 26.8544 63.3734 27.3356C62.1829 29.4456 60.0239 30.8696 58.2649 31.3763C57.4736 31.6061 56.6526 31.7174 55.8286 31.7067C54.4023 31.69 53.0492 31.3758 51.7999 30.6765C50.2306 29.7984 49.0079 28.5756 48.1846 26.9683C47.7286 26.0776 47.3775 25.1494 47.189 24.1636C47.0317 23.3469 46.9972 22.5114 47.0863 21.6846C47.2241 20.3943 47.5781 19.1658 48.21 18.0347C49.5158 15.6963 51.465 14.172 54.0973 13.6082C56.4801 13.1003 58.6921 13.5845 60.7111 14.9451C62.0273 15.833 63.001 17.0171 63.7009 18.4342C63.8398 18.7149 63.973 18.9992 64.1108 19.2805C64.1379 19.3382 64.1759 19.3854 64.2261 19.4679C64.2797 19.337 64.3218 19.2373 64.361 19.1375C64.6569 18.3506 65.0684 17.6123 65.5821 16.9468C66.8187 15.3787 68.3856 14.2948 70.3152 13.7546C71.2382 13.4872 72.1996 13.3767 73.1592 13.4277C74.4275 13.5027 75.6336 13.8019 76.7624 14.3963C77.7165 14.899 78.5853 15.513 79.3031 16.3264C79.609 16.6723 79.8913 17.0382 80.1483 17.4218C80.3022 17.6524 80.4555 17.883 80.6095 18.1136C80.6446 18.1655 80.685 18.2134 80.7415 18.2866C80.7572 18.2457 80.7689 18.2034 80.7767 18.1603C80.7813 18.0779 80.7767 17.9943 80.7767 17.9113C80.7767 14.9322 80.7767 11.9536 80.7767 8.97532C80.7767 8.13668 80.7784 7.29747 80.7818 6.45768C80.7818 6.34699 80.787 6.2363 80.7968 6.12619C80.8077 5.99675 80.8538 5.87275 80.93 5.76759C81.103 5.52603 81.412 5.52603 81.578 5.77451C81.6329 5.85926 81.6696 5.95447 81.6858 6.05412C81.7076 6.20918 81.7177 6.36567 81.7158 6.52225C81.7193 10.3595 81.7214 14.1966 81.7221 18.0335C81.7221 18.143 81.7221 18.252 81.7256 18.3529C81.7896 18.3817 81.8086 18.3466 81.8259 18.3172C81.8778 18.2295 81.9262 18.1407 81.977 18.0525C82.553 17.0394 83.3118 16.1418 84.215 15.4052C85.3431 14.4844 86.683 13.8592 88.1134 13.5863C90.3618 13.1562 92.4764 13.5517 94.447 14.7105C94.7412 14.8839 95.0218 15.0796 95.2864 15.2956C96.237 16.0716 97.0649 16.9566 97.6501 18.0496C97.8583 18.4408 98.0405 18.8452 98.1955 19.2603C98.2277 19.3451 98.2652 19.4281 98.3027 19.5175C98.4018 19.4598 98.4145 19.3612 98.4468 19.2811C98.81 18.3835 99.3277 17.5775 99.9458 16.8378C101.103 15.4501 102.555 14.4897 104.27 13.9264C105.409 13.5444 106.609 13.3763 107.81 13.4306C109.703 13.5229 111.454 14.0521 113.007 15.1659C113.09 15.2236 113.18 15.276 113.262 15.3314C113.365 15.3956 113.441 15.4943 113.478 15.6098C113.511 15.7017 113.517 15.8013 113.495 15.8965C113.473 15.9918 113.423 16.0784 113.353 16.146C113.204 16.2947 113.015 16.2821 112.834 16.2071C112.734 16.1603 112.64 16.1023 112.554 16.0342C112.04 15.6572 111.487 15.3387 110.903 15.0846C110.054 14.7195 109.154 14.4896 108.234 14.4032C106.647 14.2366 105.045 14.5111 103.604 15.1965C102.361 15.7834 101.28 16.594 100.452 17.7032C99.5755 18.8651 99.0082 20.2304 98.8031 21.6713C98.6856 22.5425 98.7368 23.4282 98.9542 24.28C99.2343 25.4331 99.6927 26.5036 100.429 27.4376C101.466 28.7728 102.878 29.7689 104.483 30.2988C105.674 30.705 106.938 30.8528 108.191 30.7324C109.705 30.5914 111.155 30.0546 112.396 29.1758C112.468 29.1188 112.543 29.0657 112.622 29.0167C112.708 28.965 112.801 28.925 112.898 28.8979C113.006 28.87 113.121 28.8818 113.221 28.9311C113.322 28.9803 113.402 29.0638 113.446 29.1666C113.551 29.3972 113.504 29.6059 113.314 29.7621C113.3 29.7742 113.285 29.7846 113.27 29.7955C112.064 30.6447 110.754 31.2507 109.297 31.5251C108.391 31.7038 107.464 31.7525 106.544 31.6698C105.103 31.5326 103.744 31.1215 102.495 30.3772C102.179 30.1887 101.871 29.9852 101.566 29.7777C101.193 29.5209 100.847 29.228 100.533 28.9031C99.9185 28.2766 99.3828 27.5777 98.9374 26.8219C98.3609 25.847 98.0323 24.7879 97.8997 23.6666C97.8663 23.383 97.8524 23.097 97.8294 22.8122L97.804 22.4923ZM64.7 22.5649C64.6804 22.9499 64.6963 23.3358 64.7473 23.7179C64.8914 24.6444 65.1468 25.534 65.5792 26.3699C65.9862 27.1563 66.5402 27.8308 67.1559 28.4586C67.5678 28.8822 68.0313 29.2524 68.5355 29.5603C69.7993 30.3271 71.1644 30.7503 72.6478 30.771C74.2074 30.8069 75.7393 30.3546 77.0293 29.4773C78.0993 28.7711 78.9941 27.8959 79.6311 26.7729C80.1081 25.9287 80.4481 25.0141 80.6383 24.0633C80.8224 23.2047 80.8531 22.3203 80.7288 21.4511C80.4936 19.8945 79.8542 18.5109 78.884 17.2783C78.3403 16.5905 77.6664 16.0451 76.929 15.5839C75.3061 14.5635 73.5356 14.1766 71.6401 14.4309C70.2345 14.6223 68.9656 15.1803 67.831 16.0278C66.9928 16.6533 66.3396 17.4507 65.7954 18.3385C65.3805 19.0157 65.0777 19.7555 64.8989 20.5292C64.7444 21.1963 64.6776 21.8806 64.7 22.5649V22.5649ZM63.6623 22.6087C63.6916 22.1547 63.6671 21.6987 63.5891 21.2505C63.4207 20.2127 63.1048 19.2275 62.5755 18.3143C62.0411 17.3918 61.3262 16.628 60.4943 15.9707C59.2877 15.0166 57.904 14.5133 56.3803 14.3732C55.6714 14.3089 54.9568 14.3616 54.2651 14.5295C52.6751 14.9134 51.2909 15.6525 50.1926 16.8885C49.3791 17.8035 48.7513 18.8228 48.3973 20.0017C48.0948 21.0297 47.979 22.1037 48.0555 23.1726C48.0982 23.8913 48.2338 24.6015 48.459 25.2855C48.9254 26.6962 49.7608 27.859 50.851 28.8501C51.3646 29.3146 51.9432 29.7019 52.5684 29.9996C53.3226 30.3696 54.1314 30.6156 54.9638 30.7283C55.8169 30.8374 56.6828 30.7865 57.5172 30.5785C58.6011 30.3121 59.6146 29.8814 60.4984 29.1896C61.5052 28.4023 62.3181 27.3947 62.8747 26.2442C63.4196 25.1189 63.6692 23.9284 63.664 22.6087H63.6623ZM97.7769 21.5278C97.7813 21.4723 97.7813 21.4166 97.7769 21.3611C97.7366 21.1161 97.7031 20.8688 97.6478 20.6267C97.3666 19.3894 96.7842 18.2408 95.9522 17.2829C94.3807 15.4513 92.3969 14.458 89.9674 14.4055C89.081 14.3804 88.1969 14.5077 87.3535 14.782C85.2781 15.4646 83.7371 16.7934 82.6792 18.693C82.2908 19.3858 82.0205 20.1385 81.8795 20.9201C81.8444 21.1173 81.7959 21.315 81.8144 21.5203C81.8405 21.5338 81.8685 21.5433 81.8974 21.5485C87.1518 21.5485 92.4061 21.5485 97.6604 21.5485C97.7004 21.545 97.7399 21.538 97.7786 21.5278H97.7769Z" fill="black"/>
<path d="M41.5844 31.7142C39.2582 31.6744 37.1112 30.9289 35.2762 29.3718C34.1808 28.4424 33.3109 27.3234 32.7395 25.994C32.1911 24.7072 31.9579 23.308 32.0592 21.9128C32.1688 20.2 32.781 18.6734 33.7888 17.2915C34.5411 16.2613 35.4832 15.4519 36.5676 14.7946C37.573 14.1841 38.6632 13.8059 39.8128 13.5868C40.4924 13.455 41.1848 13.4004 41.8767 13.4243C43.8288 13.4957 45.6344 14.0221 47.2342 15.1751C47.3161 15.2328 47.4072 15.2835 47.4879 15.3423C47.5848 15.4072 47.6572 15.5025 47.6936 15.6133C47.7301 15.724 47.7285 15.8437 47.6891 15.9534C47.6038 16.2146 47.3323 16.3305 47.0549 16.2111C46.9556 16.1634 46.8615 16.1054 46.7742 16.0382C46.227 15.6456 45.639 15.3134 45.0204 15.0471C44.1975 14.6942 43.323 14.4761 42.4307 14.4014C40.6309 14.255 38.9232 14.5692 37.3326 15.4392C35.4947 16.4458 34.2194 17.9389 33.47 19.8985C33.0729 20.9155 32.9053 22.0077 32.9794 23.097C33.0407 23.8702 33.2155 24.6301 33.4982 25.3523C34.3976 27.708 36.0747 29.2801 38.3986 30.1904C39.1285 30.4787 39.896 30.6608 40.6776 30.7312C42.8107 30.9174 44.7771 30.4389 46.5488 29.2161C46.6641 29.1371 46.7736 29.0541 46.8901 28.9798C46.9649 28.9331 47.0494 28.9045 47.1371 28.896C47.2248 28.8875 47.3133 28.8994 47.3957 28.9308C47.7733 29.053 47.7888 29.5649 47.5542 29.7442C47.5179 29.7719 47.481 29.8019 47.4418 29.8243C47.0665 30.0584 46.6975 30.3029 46.3141 30.5231C45.4494 31.0189 44.5142 31.3216 43.5434 31.5187C42.7253 31.6853 42.3892 31.6923 41.5844 31.7142Z" fill="black"/>
<path d="M20.0962 20.4439C20.0933 20.6122 20.0385 20.7039 19.9284 20.7558C19.8793 20.7826 19.8236 20.795 19.7677 20.7917C19.7118 20.7883 19.658 20.7693 19.6125 20.7368C19.5404 20.6797 19.4733 20.6166 19.4118 20.5482C17.9333 19.0285 16.4551 17.5083 14.9773 15.9874L11.2184 12.1248C11.1583 12.0676 11.1018 12.0065 11.0495 11.942C11.0036 11.8839 10.9801 11.8112 10.9832 11.7372C10.9862 11.6631 11.0157 11.5927 11.0662 11.5385C11.1184 11.4784 11.1923 11.4414 11.2717 11.4356C11.3511 11.4298 11.4295 11.4556 11.49 11.5073C11.5605 11.5668 11.6266 11.6314 11.6877 11.7005C13.9884 14.0661 16.2889 16.4317 18.5892 18.7974L19.8811 20.1233C19.9356 20.173 19.985 20.2278 20.0287 20.2871C20.0569 20.3367 20.0795 20.3893 20.0962 20.4439V20.4439Z" fill="black"/>
<path d="M8.66504 14.9555C8.66504 14.7941 8.7152 14.6995 8.81897 14.639C8.86579 14.6085 8.92047 14.5922 8.97636 14.5922C9.03224 14.5922 9.08692 14.6085 9.13375 14.639C9.20788 14.6934 9.27609 14.7554 9.33725 14.824C10.4042 15.9198 11.4709 17.0163 12.5375 18.1136L17.3744 23.0895C17.4257 23.142 17.4794 23.1927 17.5278 23.2486C17.6725 23.4141 17.6794 23.5859 17.5503 23.7162C17.4211 23.8465 17.2441 23.8425 17.0839 23.6989C17.0424 23.662 17.0049 23.6211 16.9686 23.5836L8.87258 15.2593C8.82469 15.2161 8.78106 15.1684 8.74229 15.1169C8.71213 15.0653 8.68629 15.0113 8.66504 14.9555V14.9555Z" fill="black"/>
<path d="M11.4254 13.2271C11.4881 13.2523 11.5485 13.283 11.6059 13.3188C11.6627 13.3656 11.715 13.4178 11.7621 13.4744L19.149 21.0712C19.2024 21.1219 19.2521 21.1764 19.2977 21.2343C19.3466 21.2971 19.3688 21.3766 19.3594 21.4556C19.35 21.5346 19.3098 21.6068 19.2476 21.6563C19.1904 21.7037 19.1186 21.7297 19.0443 21.7297C18.9701 21.7297 18.8982 21.7037 18.8411 21.6563C18.772 21.5951 18.706 21.5305 18.6434 21.4626C17.0045 19.7769 15.3653 18.091 13.7257 16.4049C12.909 15.5655 12.0928 14.7255 11.2773 13.8849C11.2174 13.8277 11.1626 13.7654 11.1135 13.6987C11.0816 13.6528 11.0641 13.5984 11.063 13.5425C11.062 13.4866 11.0776 13.4316 11.1078 13.3845C11.1677 13.2778 11.264 13.2283 11.4254 13.2271Z" fill="black"/>
<path d="M14.2757 25.5C14.2826 25.6792 14.2215 25.7784 14.1028 25.8361C14.0541 25.8637 13.9984 25.8763 13.9426 25.8724C13.8868 25.8685 13.8335 25.8483 13.7891 25.8142C13.7178 25.756 13.6506 25.693 13.5879 25.6256C11.7988 23.7923 10.0103 21.9588 8.22231 20.1251C7.68192 19.5705 7.14173 19.0163 6.60173 18.4624C6.54135 18.4056 6.48617 18.3435 6.43685 18.2768C6.399 18.2183 6.382 18.1487 6.3886 18.0794C6.39519 18.01 6.42498 17.9449 6.47317 17.8946C6.5223 17.8373 6.59146 17.801 6.66647 17.7931C6.74149 17.7852 6.81671 17.8062 6.87673 17.8519C6.94907 17.9087 7.01621 17.9718 7.07735 18.0404C8.66046 19.6627 10.2434 21.2852 11.8261 22.9079C12.5594 23.6597 13.2928 24.4117 14.0261 25.1638C14.0868 25.2202 14.1435 25.2809 14.1956 25.3454C14.2273 25.3942 14.2541 25.446 14.2757 25.5V25.5Z" fill="black"/>
<path d="M16.3838 24.5988C16.3299 24.5788 16.2785 24.5527 16.2305 24.521C16.167 24.468 16.1076 24.4101 16.0529 24.3481L9.25751 17.3763C9.20384 17.3255 9.15303 17.2718 9.10531 17.2154C8.99347 17.0713 9.00039 16.9087 9.11742 16.7888C9.23445 16.6689 9.41144 16.6585 9.56364 16.7888C9.60401 16.8253 9.64249 16.8637 9.67895 16.9041L16.5539 23.9532C16.6071 24.0042 16.6562 24.0593 16.7009 24.118C16.7351 24.1622 16.7554 24.2156 16.7592 24.2713C16.763 24.3271 16.7502 24.3827 16.7222 24.4311C16.66 24.5481 16.5631 24.6058 16.3838 24.5988Z" fill="black"/>
<path d="M11.2858 15.065C11.3253 15.0628 11.3648 15.0688 11.4019 15.0827C11.4389 15.0966 11.4726 15.1181 11.5008 15.1458C11.5481 15.1896 11.5925 15.2363 11.6375 15.2824L18.3827 22.219C18.415 22.2519 18.449 22.2836 18.4784 22.3187C18.6173 22.4842 18.6179 22.6606 18.4813 22.7863C18.3446 22.912 18.1838 22.9016 18.0339 22.7673C17.9762 22.7188 17.9295 22.6635 17.8782 22.6105L15.45 20.113C14.0306 18.6525 12.611 17.192 11.1913 15.7315C11.1237 15.6691 11.0638 15.5991 11.0125 15.5228C10.986 15.4756 10.9725 15.4223 10.9732 15.3682C10.9739 15.3142 10.9889 15.2612 11.0166 15.2148C11.0443 15.1683 11.0838 15.13 11.1311 15.1037C11.1783 15.0774 11.2317 15.0641 11.2858 15.065V15.065Z" fill="black"/>
<path d="M20.5747 17.8433C20.5219 17.8252 20.4715 17.8006 20.4248 17.7701C20.361 17.7173 20.3017 17.6595 20.2473 17.5971C18.0738 15.3626 15.9003 13.1278 13.7269 10.8929C13.6667 10.8361 13.6115 10.7741 13.562 10.7078C13.5182 10.6464 13.4992 10.5707 13.5088 10.4958C13.5184 10.421 13.556 10.3526 13.6139 10.3042C13.665 10.2568 13.7308 10.2282 13.8004 10.2231C13.87 10.2181 13.9393 10.2369 13.9967 10.2766C14.0688 10.334 14.1359 10.3975 14.1973 10.4662C15.5671 11.8741 16.9367 13.2823 18.3061 14.6909C19.1106 15.5173 19.9144 16.3436 20.7177 17.1699C20.7777 17.2272 20.8336 17.2886 20.8849 17.3538C20.9217 17.4021 20.943 17.4604 20.946 17.521C20.949 17.5817 20.9335 17.6418 20.9016 17.6934C20.8434 17.7989 20.7482 17.8514 20.5747 17.8433Z" fill="black"/>
<path d="M9.50945 18.7202C9.56296 18.7413 9.61432 18.7676 9.6628 18.7986C9.71951 18.8457 9.77234 18.8974 9.82076 18.9531L15.4153 24.6928C15.4685 24.7437 15.5185 24.7978 15.5652 24.8548C15.6156 24.9162 15.6407 24.9946 15.6354 25.0739C15.63 25.1532 15.5946 25.2274 15.5363 25.2815C15.4779 25.3349 15.4016 25.3645 15.3224 25.3645C15.2433 25.3645 15.167 25.3349 15.1086 25.2815C15.0603 25.2386 15.0145 25.1929 14.9713 25.1448C13.0996 23.2231 11.228 21.3029 9.35667 19.3843C9.29712 19.3267 9.24164 19.2651 9.19063 19.1998C9.15641 19.1556 9.13615 19.1022 9.13245 19.0465C9.12875 18.9907 9.14179 18.9351 9.16988 18.8868C9.2333 18.772 9.32957 18.7132 9.50945 18.7202Z" fill="black"/>
<path d="M12.5214 26.3157C12.4677 26.2969 12.4163 26.2724 12.368 26.2425C12.3106 26.1965 12.2575 26.1454 12.2095 26.0897L6.61729 20.3493C6.564 20.2984 6.51357 20.2445 6.46624 20.1879C6.41515 20.1274 6.38879 20.0499 6.39242 19.9708C6.39606 19.8917 6.42942 19.8169 6.48585 19.7613C6.54134 19.7044 6.61681 19.6714 6.69624 19.6693C6.77567 19.6671 6.85282 19.696 6.91131 19.7498C6.96006 19.792 7.00608 19.8372 7.0491 19.8853L12.6822 25.6648C12.7353 25.7159 12.7848 25.7706 12.8304 25.8285C12.8681 25.8758 12.8901 25.9338 12.8931 25.9942C12.8961 26.0546 12.88 26.1144 12.8471 26.1652C12.7837 26.269 12.6914 26.3215 12.5214 26.3157Z" fill="black"/>
<path d="M14.8615 13.1625C14.9184 13.1818 14.973 13.2069 15.0247 13.2375C15.0827 13.284 15.136 13.3362 15.1838 13.3931C16.9068 15.165 18.6298 16.9366 20.3528 18.708C20.4064 18.7586 20.4561 18.8131 20.5016 18.8712C20.5483 18.9323 20.5709 19.0086 20.5648 19.0853C20.5587 19.1621 20.5245 19.2338 20.4687 19.2869C20.4129 19.3399 20.3394 19.3704 20.2625 19.3725C20.1855 19.3746 20.1105 19.3482 20.0519 19.2984C19.9815 19.2368 19.9153 19.1708 19.8536 19.1006C18.2912 17.4945 16.729 15.8879 15.1671 14.281C14.9999 14.108 14.8321 13.9385 14.6661 13.7621C14.62 13.7175 14.58 13.6669 14.5473 13.6116C14.4395 13.4116 14.59 13.166 14.8615 13.1625Z" fill="black"/>
<path d="M16.6882 11.2531C16.7437 11.2742 16.797 11.3006 16.8473 11.3321C16.9048 11.3785 16.9578 11.43 17.0059 11.4861L20.9602 15.5522C21.0204 15.6094 21.077 15.6702 21.1297 15.7344C21.1772 15.7945 21.201 15.8701 21.1965 15.9467C21.192 16.0232 21.1594 16.0955 21.1051 16.1496C21.0507 16.2037 20.9784 16.236 20.9018 16.2402C20.8252 16.2444 20.7498 16.2204 20.6898 16.1725C20.633 16.1255 20.5796 16.0745 20.5301 16.0198C19.1987 14.653 17.8678 13.2844 16.5372 11.9138C16.4782 11.8556 16.4242 11.7926 16.3757 11.7253C16.3437 11.6794 16.3262 11.6249 16.3257 11.5689C16.3252 11.513 16.3416 11.4581 16.3729 11.4117C16.434 11.3085 16.5256 11.2554 16.6882 11.2531Z" fill="black"/>
<path d="M20.9993 13.9385C20.9918 14.2003 20.7439 14.3461 20.538 14.2331C20.4758 14.1939 20.4195 14.146 20.3709 14.0907C19.1314 12.8186 17.8919 11.5437 16.6523 10.2661C16.6194 10.234 16.5885 10.1997 16.5601 10.1635C16.5106 10.1016 16.4864 10.0232 16.4927 9.94418C16.4989 9.86515 16.5349 9.79145 16.5935 9.73806C16.6471 9.68642 16.7178 9.6562 16.7921 9.65312C16.8665 9.65004 16.9394 9.67431 16.9971 9.72134C17.0264 9.74402 17.0538 9.76909 17.079 9.79629C18.3392 11.0908 19.5987 12.3858 20.8574 13.6814C20.8919 13.712 20.9217 13.7475 20.9456 13.7869C20.9671 13.8361 20.985 13.8868 20.9993 13.9385V13.9385Z" fill="black"/>
<path d="M7.05811 22.3931C7.05832 22.3376 7.07411 22.2834 7.10367 22.2365C7.13323 22.1896 7.17538 22.152 7.2253 22.1279C7.27425 22.1013 7.32963 22.0889 7.38522 22.0921C7.44082 22.0953 7.49444 22.1138 7.54007 22.1458C7.59193 22.1841 7.64 22.2274 7.68362 22.2749C8.87893 23.5025 10.0756 24.7297 11.2736 25.9565C11.3196 26.0014 11.3608 26.0511 11.3964 26.1047C11.435 26.163 11.4516 26.2332 11.4433 26.3027C11.4349 26.3722 11.4022 26.4365 11.3508 26.484C11.3037 26.5358 11.2395 26.5689 11.1699 26.5773C11.1004 26.5857 11.0301 26.5687 10.9721 26.5296C10.8979 26.4754 10.8295 26.4138 10.768 26.3457C9.76868 25.3233 8.77151 24.3006 7.77644 23.2775C7.57697 23.0728 7.37865 22.8676 7.17802 22.664C7.14014 22.6298 7.10989 22.588 7.08923 22.5413C7.06857 22.4946 7.05796 22.4441 7.05811 22.3931V22.3931Z" fill="black"/>
<path d="M8.84283 25.4723C8.88282 25.4698 8.92287 25.4762 8.96013 25.4909C8.99739 25.5057 9.03096 25.5284 9.05844 25.5576C9.24581 25.7455 9.43491 25.9323 9.61189 26.1295C9.6651 26.1879 9.69366 26.2646 9.69162 26.3436C9.68958 26.4225 9.65709 26.4976 9.60094 26.5532C9.57228 26.583 9.53796 26.6068 9.49999 26.6232C9.46202 26.6395 9.42117 26.6481 9.37983 26.6485C9.33849 26.6489 9.29749 26.641 9.25923 26.6253C9.22097 26.6097 9.18623 26.5865 9.15703 26.5573C8.96505 26.3739 8.78229 26.1808 8.60184 25.9865C8.55931 25.9436 8.53156 25.8883 8.52264 25.8286C8.51372 25.7689 8.5241 25.7079 8.55226 25.6544C8.57576 25.5976 8.61637 25.5496 8.66844 25.5169C8.72052 25.4843 8.78147 25.4687 8.84283 25.4723V25.4723Z" fill="black"/>
<path d="M20.5325 11.5898C20.536 11.648 20.5228 11.7061 20.4945 11.7571C20.4663 11.8082 20.424 11.8501 20.3728 11.878C20.3256 11.907 20.2712 11.9219 20.2159 11.9211C20.1605 11.9203 20.1066 11.9038 20.0603 11.8734C20.0364 11.8602 20.0143 11.8439 19.9946 11.825C19.8147 11.6423 19.6348 11.4601 19.459 11.2739C19.4216 11.2337 19.3941 11.1853 19.3789 11.1326C19.3615 11.0751 19.362 11.0137 19.3805 10.9565C19.3989 10.8993 19.4343 10.8491 19.4821 10.8126C19.5328 10.7734 19.5939 10.7497 19.6579 10.7445C19.7218 10.7393 19.7859 10.7527 19.8424 10.7832C19.8735 10.8028 19.902 10.8262 19.9271 10.853C20.0943 11.0225 20.2598 11.1931 20.4258 11.3638C20.4578 11.3924 20.4838 11.4272 20.5021 11.466C20.5204 11.5048 20.5307 11.5469 20.5325 11.5898V11.5898Z" fill="black"/>
</svg>
