<svg width="98" height="60" viewBox="0 0 98 60" fill="none" xmlns="http://www.w3.org/2000/svg">
<path d="M50.5444 10.0518C53.7673 13.8147 55.083 18.8496 54.1131 23.7082C59.1721 21.6904 61.1347 18.3072 61.7319 14.924C61.7319 14.924 63.4563 8.51277 66.1371 5.84778C60.84 6.67911 60.3047 4.60078 50.5444 10.057" fill="#19B99A"/>
<path d="M42.4413 16.6052C41.3823 13.334 39.5562 10.3636 37.1153 7.94198C37.1153 7.94198 44.4815 9.87824 48.7223 23.6267C44.7209 22.4192 43.0135 18.4704 42.4334 16.6052H42.4413ZM51.5557 25.6025C51.6741 24.9448 53.6261 18.2941 49.7589 12.8931C43.2832 5.71633 33.5229 4.70874 33.5229 4.70874C35.4276 8.39184 35.4881 11.8303 37.5691 18.8413C40.0907 26.0997 49.3945 26.589 50.0838 26.6022C50.7086 27.5887 52.141 28.9173 55.4203 29.6039L55.7834 27.8755C52.954 27.2835 51.9187 26.1944 51.5636 25.5946" fill="#19B99A"/>
<path d="M34.5671 2.59622C30.4512 4.53511 28.8004 9.2679 28.8004 16.5026C28.8004 23.6057 30.4486 28.3674 34.5671 30.4457L34.1054 32.2215C27.7797 30.0038 24.9121 25.0737 24.9121 16.5315C24.9121 7.92356 27.7797 2.99083 34.1054 0.820435L34.5671 2.59622Z" fill="#0A2540"/>
<path d="M65.0468 0.820435C71.3778 2.9882 74.2388 7.92356 74.2388 16.5289C74.2388 25.0789 71.3712 30.0038 65.0455 32.2031L64.5522 30.43C68.6734 28.3595 70.3189 23.5899 70.3189 16.4868C70.3189 9.25211 68.6707 4.52458 64.5522 2.58569L65.0468 0.820435Z" fill="#0A2540"/>
<path d="M9.0198 54.5675C7.67541 55.0837 6.24283 55.3312 4.80318 55.2959C1.25658 55.2959 -0.447669 53.7594 0.100955 49.8783C0.606949 46.2177 2.00631 44.7219 5.71693 44.7219C7.17475 44.6979 8.62436 44.9448 9.99194 45.4504L9.4878 47.693L6.18401 47.6727C4.68363 47.6727 4.17671 48.1786 3.93298 49.9969C3.66886 51.9986 4.01546 52.3619 5.47413 52.3619C6.57073 52.3684 7.66686 52.3146 8.75754 52.2007L9.0198 54.5675Z" fill="#0A2540"/>
<path d="M14.9405 50.1805C14.657 52.2434 14.8386 52.7271 16.1583 52.7271C17.4353 52.7271 17.8421 52.1822 18.1656 49.8969C18.489 47.7951 18.2675 47.3021 17.0294 47.3021C15.6921 47.3021 15.2862 47.8062 14.9405 50.1749V50.1805ZM21.9735 50.1823C21.4174 53.9634 19.8865 55.296 16.0267 55.296C12.1668 55.296 10.5404 53.8411 11.1067 49.8988C11.6367 46.0788 13.1751 44.722 17.0896 44.722C20.9606 44.722 22.5425 46.2196 21.9753 50.1823" fill="#0A2540"/>
<path d="M29.8595 47.0833C28.3183 47.0833 27.9541 47.4058 27.6493 49.7318C27.4065 51.5519 27.3657 52.2785 28.2776 52.2192C29.1319 52.1362 29.9327 51.7657 30.549 51.1683L31.0948 47.0907L29.8595 47.0833ZM33.6897 55.0531H30.7909L30.751 53.3554C29.7234 54.4749 28.3127 55.1675 26.7985 55.2959C24.4474 55.2959 23.3937 53.6371 23.8988 49.7967C24.4548 45.5912 26.109 44.7219 28.2776 44.7219C29.3654 44.7216 30.451 44.8196 31.5211 45.0148C31.5107 44.3244 31.5584 43.6343 31.6638 42.9519L32.0077 40.9131H35.6933L33.6897 55.0531Z" fill="#0A2540"/>
<path d="M42.3251 49.0684C43.2379 48.9868 43.7226 48.846 43.8079 47.9767C43.869 47.3095 43.6049 47.1871 42.5901 47.2075C41.352 47.2279 40.947 47.5912 40.6236 49.2296L42.3251 49.0684ZM46.3601 54.4879C44.8878 55.0615 43.3161 55.3362 41.7366 55.296C37.4394 55.296 36.2689 53.4166 36.6479 49.8987C37.1113 45.7155 39.0213 44.7239 42.6485 44.7239C46.6223 44.7239 47.6668 46.038 47.3507 48.3381C47.0662 50.2194 45.7892 50.7569 43.1267 50.9663L40.3892 51.1684C40.4318 52.2415 40.9572 52.4435 42.0934 52.4435C42.9831 52.4435 44.881 52.3416 46.1052 52.2007L46.3601 54.4879Z" fill="#0A2540"/>
<path d="M55.2792 42.1622C54.041 42.1622 53.536 42.4458 53.3534 43.7376L53.131 45.2H56.1892L55.9844 46.7069H52.9262L51.588 56.1892C51.5618 57.0061 51.2028 57.7768 50.5943 58.3225C49.9858 58.8682 49.1807 59.1414 48.3657 59.0787C47.5462 59.0731 46.7277 59.0186 45.9146 58.9156L46.2194 57.4588H47.7393C48.957 57.4588 49.4621 57.1752 49.6465 55.8834L50.9439 46.7087H49.1831L49.3685 45.2927L51.1728 45.1926L51.4165 43.4318C51.4408 42.6143 51.8016 41.8431 52.4136 41.3006C53.0256 40.7581 53.8345 40.4924 54.649 40.5664C55.6169 40.5544 56.5847 40.6015 57.5469 40.7072L57.2234 42.1715L55.2792 42.1622Z" fill="#19B99A"/>
<path d="M64.5236 46.7644H63.9675C62.8555 46.7644 61.7786 47.5058 60.0651 48.7662L59.193 55.0531H57.2256L58.6231 45.1871H60.1244L60.0225 47.4521C61.5979 45.8359 63.1428 44.924 64.4828 44.924H65.0101L64.5236 46.7644Z" fill="#19B99A"/>
<path d="M71.3556 49.5131C72.5723 49.4334 73.0987 49.0905 73.26 47.9562C73.4453 46.6013 72.7549 46.5661 71.173 46.5661C69.1685 46.5661 68.4781 47.111 68.0527 49.8208L71.3556 49.5131ZM74.1932 54.7306C72.8725 55.1339 71.4962 55.3253 70.1156 55.2977C66.6867 55.2977 65.5144 53.537 65.9991 49.8597C66.5273 46.0175 67.884 44.9258 71.4668 44.9258C74.7103 44.9258 75.5017 46.1398 75.2172 48.1211C74.8938 50.0821 73.7586 50.7901 71.3463 50.9718L67.9174 51.2757C67.897 53.2571 68.8293 53.6593 70.4094 53.6593C71.5057 53.6593 72.9236 53.5388 74.0597 53.4165L74.1932 54.7306Z" fill="#19B99A"/>
<path d="M79.6235 50.16C78.2056 49.4927 77.5365 48.7254 77.7182 47.2871C77.9415 45.4077 79.3001 44.8776 81.895 44.9221C83.3126 44.9461 84.7272 45.0612 86.1301 45.2668L85.8864 46.6569C84.6307 46.618 83.4537 46.5754 81.9543 46.555C80.3316 46.555 79.7236 46.5958 79.6217 47.4243C79.5216 48.1656 79.9924 48.3751 80.7996 48.7384L83.476 49.9524C85.0153 50.6604 85.6454 51.2869 85.4406 52.803C85.1376 55.0475 83.5353 55.27 80.7569 55.27C79.4749 55.2727 78.1944 55.1779 76.9268 54.9864L77.1501 53.5314C78.0629 53.6111 79.339 53.6334 80.2519 53.6334C82.7457 53.6334 83.3944 53.4313 83.5149 52.6214C83.6363 51.8948 83.1442 51.7725 82.2777 51.3684L79.6235 50.16Z" fill="#19B99A"/>
<path d="M91.4655 44.7831C91.3507 45.6006 91.1882 46.4107 90.979 47.2093C92.698 45.6932 94.1345 44.9221 95.5561 44.9221C96.2837 44.8279 97.0096 45.1084 97.4847 45.6675C97.9598 46.2267 98.1195 46.9883 97.9091 47.6912L96.8554 55.0494H94.9092L95.8619 48.1768C96.0241 46.9424 95.8007 46.5791 94.95 46.5791C93.7323 46.5791 92.5581 47.4076 90.8613 48.7421L89.9892 55.0439H88.0181L90.0244 40.8927H91.9706L91.4655 44.7831Z" fill="#19B99A"/>
</svg>
