<svg width="107" height="30" viewBox="0 0 107 30" fill="none" xmlns="http://www.w3.org/2000/svg">
<mask id="mask0" mask-type="alpha" maskUnits="userSpaceOnUse" x="94" y="19" width="13" height="4">
<path d="M94.5742 19.6791H106.723V22.766H94.5742V19.6791Z" fill="white"/>
</mask>
<g mask="url(#mask0)">
<path fill-rule="evenodd" clip-rule="evenodd" d="M95.0908 22.766C94.92 22.766 94.7656 22.6857 94.6677 22.545C94.5698 22.4048 94.5473 22.2325 94.6072 22.0717L95.3656 20.0159C95.4401 19.814 95.6347 19.6791 95.8496 19.6791H106.207C106.492 19.6791 106.723 19.9098 106.723 20.1946V22.2507C106.723 22.5349 106.492 22.766 106.207 22.766H95.0908Z" fill="#FFE400"/>
</g>
<mask id="mask1" mask-type="alpha" maskUnits="userSpaceOnUse" x="0" y="2" width="17" height="22">
<path d="M0 2.08224H16.6133V23.4567H0V2.08224Z" fill="white"/>
</mask>
<g mask="url(#mask1)">
<path fill-rule="evenodd" clip-rule="evenodd" d="M10.4044 23.4567C4.66739 23.4567 -0.000488281 18.6624 -0.000488281 12.7695C-0.000488281 6.87688 4.66739 2.08224 10.4044 2.08224C12.562 2.08224 14.6315 2.75464 16.39 4.0277C16.5106 4.11464 16.5876 4.24383 16.6076 4.39065C16.6283 4.5399 16.5882 4.68642 16.4945 4.80345C15.886 5.57069 15.2309 6.39386 14.6716 7.08875C14.5664 7.21946 14.4044 7.29758 14.2381 7.29758C14.1205 7.29758 14.0098 7.25959 13.9192 7.18693C12.8833 6.3592 11.6674 5.92148 10.4044 5.92148C7.022 5.92148 4.27039 9.04971 4.27039 12.8938C4.27039 16.7388 7.022 19.8667 10.4044 19.8667C11.7145 19.8667 12.9663 19.3998 14.0235 18.5168C14.1177 18.438 14.2329 18.397 14.3576 18.397C14.5272 18.397 14.6932 18.477 14.8008 18.611C15.3294 19.2703 15.9325 20.0269 16.4945 20.7355C16.5882 20.8525 16.6283 20.9997 16.6076 21.1483C16.5876 21.2957 16.5106 21.4246 16.39 21.5119C14.6321 22.784 12.5623 23.4567 10.4044 23.4567Z" fill="#272A31"/>
</g>
<path fill-rule="evenodd" clip-rule="evenodd" d="M24.7217 10.8945C22.4483 10.8945 20.5989 12.8968 20.5989 15.3572C20.5989 17.8167 22.4483 19.8187 24.7217 19.8187C26.9952 19.8187 28.8446 17.8167 28.8446 15.3572C28.8446 12.8968 26.9952 10.8945 24.7217 10.8945ZM24.7217 23.1436C20.3861 23.1436 16.8594 19.6159 16.8594 15.2806C16.8594 10.945 20.3861 7.41824 24.7217 7.41824C29.0574 7.41824 32.5841 10.945 32.5841 15.2806C32.5841 19.6159 29.0574 23.1436 24.7217 23.1436Z" fill="#272A31"/>
<path fill-rule="evenodd" clip-rule="evenodd" d="M41.8461 10.8946C39.5727 10.8946 37.7236 12.8969 37.7236 15.3572C37.7236 17.8167 39.5727 19.8187 41.8461 19.8187C44.1195 19.8187 45.9689 17.8167 45.9689 15.3572C45.9689 12.8969 44.1195 10.8946 41.8461 10.8946ZM41.9972 23.1418C39.7614 23.1831 37.6764 22.3092 36.1417 20.6914C34.6424 19.1117 33.8801 17.0392 33.9947 14.8554C34.2062 10.8359 37.5263 7.57117 41.5528 7.42344C41.6786 7.41857 41.8032 7.41766 41.9279 7.41857C43.2304 7.42921 44.5086 7.77028 45.6486 8.40072C45.7923 8.48037 45.9689 8.37641 45.9689 8.21196V1.82205C45.9689 1.52689 46.2088 1.28705 46.5039 1.28705H49.1732C49.4689 1.28705 49.7085 1.52689 49.7085 1.82205V22.3496C49.7085 22.5791 49.5221 22.7661 49.2923 22.7661H46.3857C46.1553 22.7661 45.9689 22.5791 45.9689 22.3496V21.9836L45.8242 22.0636C44.6491 22.7141 43.3404 23.1166 41.9972 23.1418Z" fill="#272A31"/>
<path fill-rule="evenodd" clip-rule="evenodd" d="M60.5855 22.766C60.2904 22.766 60.0493 22.5255 60.0493 22.2301V1.82287C60.0493 1.5274 60.2904 1.28726 60.5855 1.28726H63.2526C63.5484 1.28726 63.7888 1.5274 63.7888 1.82287V22.2301C63.7888 22.5255 63.5484 22.766 63.2526 22.766H60.5855Z" fill="#272A31"/>
<path fill-rule="evenodd" clip-rule="evenodd" d="M67.8163 22.766C67.5205 22.766 67.2798 22.5255 67.2798 22.2301V8.45138C67.2798 8.15561 67.5205 7.91547 67.8163 7.91547H70.4831C70.7792 7.91547 71.0196 8.15561 71.0196 8.45138V22.2301C71.0196 22.5255 70.7792 22.766 70.4831 22.766H67.8163Z" fill="#272A31"/>
<path fill-rule="evenodd" clip-rule="evenodd" d="M53.5476 22.766C53.2506 22.766 53.0093 22.5246 53.0093 22.2276V8.45351C53.0093 8.15622 53.2506 7.91547 53.5476 7.91547H56.2108C56.5074 7.91547 56.7488 8.15622 56.7488 8.45351V22.2276C56.7488 22.5246 56.5074 22.766 56.2108 22.766H53.5476Z" fill="#272A31"/>
<mask id="mask2" mask-type="alpha" maskUnits="userSpaceOnUse" x="73" y="1" width="24" height="28">
<path d="M73.4224 1.28687H96.9692V28.7989H73.4224V1.28687Z" fill="white"/>
</mask>
<g mask="url(#mask2)">
<path fill-rule="evenodd" clip-rule="evenodd" d="M86.4557 28.7989C86.2785 28.7989 86.1189 28.7156 86.018 28.5697C85.9167 28.4247 85.8939 28.246 85.956 28.0797L87.5847 23.7104C87.7759 23.1969 87.7759 22.6315 87.5847 22.1178L83.5363 11.2561C83.456 11.0403 83.2466 10.8947 83.0159 10.8947H79.5223C79.2408 10.8947 79.011 11.1242 79.011 11.406V17.9545C79.011 18.9051 79.7846 19.6787 80.7351 19.6787H83.6144C83.8023 19.6787 83.9719 19.7973 84.0369 19.973L84.8206 22.0968C84.8777 22.2516 84.8562 22.4175 84.7622 22.5531C84.6674 22.6884 84.5187 22.7659 84.354 22.7659H79.2271C77.0455 22.7659 75.2712 20.9916 75.2712 18.8109V11.4434C75.2712 11.1409 75.0252 10.8947 74.7228 10.8947H73.9604C73.6637 10.8947 73.4224 10.6536 73.4224 10.3572V8.45283C73.4224 8.15614 73.6637 7.91539 73.9604 7.91539H74.7203C75.0243 7.91539 75.2712 7.66796 75.2712 7.36398V1.82247C75.2712 1.52701 75.5116 1.28687 75.8077 1.28687H78.4748C78.7705 1.28687 79.011 1.52701 79.011 1.82247V7.28282C79.011 7.63148 79.2949 7.91539 79.6439 7.91539H85.6462C85.859 7.91539 86.0514 8.04945 86.1259 8.24825L89.3088 16.7882C89.376 16.9684 89.5438 17.0855 89.7368 17.0855C89.9292 17.0855 90.097 16.9684 90.1645 16.7882L93.3535 8.23153C93.4244 8.04246 93.6074 7.91539 93.8089 7.91539H96.4824C96.6441 7.91539 96.7894 7.99108 96.8815 8.12392C96.9742 8.25706 96.9943 8.42 96.9377 8.57138L89.5277 28.4524C89.4508 28.6597 89.2502 28.7989 89.0283 28.7989H86.4557Z" fill="#272A31"/>
</g>
<mask id="mask3" mask-type="alpha" maskUnits="userSpaceOnUse" x="52" y="1" width="5" height="5">
<path d="M52.8535 1.05307H56.9241V5.14123H52.8535V1.05307Z" fill="white"/>
</mask>
<g mask="url(#mask3)">
<path fill-rule="evenodd" clip-rule="evenodd" d="M54.8889 5.14114C53.767 5.14114 52.8535 4.22404 52.8535 3.09689C52.8535 1.96974 53.767 1.05295 54.8889 1.05295C56.0109 1.05295 56.9241 1.96974 56.9241 3.09689C56.9241 4.22404 56.0109 5.14114 54.8889 5.14114Z" fill="#272A31"/>
</g>
<mask id="mask4" mask-type="alpha" maskUnits="userSpaceOnUse" x="67" y="1" width="5" height="5">
<path d="M67.1138 1.05307H71.1843V5.14123H67.1138V1.05307Z" fill="white"/>
</mask>
<g mask="url(#mask4)">
<path fill-rule="evenodd" clip-rule="evenodd" d="M69.1492 5.14114C68.0269 5.14114 67.1138 4.22404 67.1138 3.09689C67.1138 1.96974 68.0269 1.05295 69.1492 1.05295C70.2712 1.05295 71.1843 1.96974 71.1843 3.09689C71.1843 4.22404 70.2712 5.14114 69.1492 5.14114Z" fill="#272A31"/>
</g>
</svg>
