<svg width="147" height="27" viewBox="0 0 147 27" fill="none" xmlns="http://www.w3.org/2000/svg">
<g clip-path="url(#clip0)">
<path d="M42.1632 18.6733C41.404 18.2688 40.7664 17.6797 40.3129 16.9638C39.4263 15.4978 39.4263 13.6812 40.3129 12.2151C40.7624 11.497 41.3966 10.9046 42.1534 10.4961C42.9393 10.0776 43.8216 9.85869 44.7182 9.85982C45.6144 9.85201 46.4976 10.0679 47.2831 10.4866C48.0332 10.88 48.6618 11.4603 49.1039 12.1677C49.9783 13.6369 49.9783 15.4471 49.1039 16.9163C48.6621 17.6313 48.0342 18.2209 47.2831 18.6258C46.4966 19.0432 45.6146 19.262 44.7182 19.2621C43.8288 19.28 42.9493 19.0773 42.1632 18.6733ZM46.0104 16.6694C46.3732 16.4554 46.6733 16.1545 46.8817 15.7956C47.3116 15.022 47.3116 14.0905 46.8817 13.3168C46.6718 12.9584 46.3678 12.6602 46.0006 12.4526C45.6047 12.245 45.1579 12.1465 44.7084 12.1677C44.2694 12.1711 43.8383 12.2822 43.4554 12.4906C43.0828 12.6987 42.775 13.0006 42.5645 13.3643C42.3482 13.7417 42.2369 14.1672 42.2415 14.599C42.2463 15.0278 42.3606 15.4487 42.5743 15.8241C42.7842 16.1908 43.0919 16.4958 43.4652 16.7074C43.8468 16.9189 44.2787 17.0302 44.7182 17.0303C45.175 17.0279 45.6222 16.903 46.0104 16.6694Z" fill="#0058BF"/>
<path d="M63.5435 10.2682C64.0483 10.5613 64.4507 10.9948 64.6987 11.5124C64.9804 12.1074 65.1177 12.7572 65.1 13.4118V19.0342H62.359V13.7537C62.388 13.33 62.2478 12.9117 61.9674 12.5856C61.7014 12.2997 61.3163 12.146 60.9199 12.1677C60.5034 12.1532 60.1029 12.3246 59.8333 12.633C59.5342 12.9734 59.3802 13.4115 59.4025 13.8582V19.0437H56.6419V13.7252C56.668 13.3019 56.5281 12.8846 56.2503 12.5571C56.0015 12.2872 55.6446 12.1348 55.2714 12.1392C54.846 12.1229 54.4359 12.2939 54.1554 12.6046C53.8598 12.9463 53.7093 13.3843 53.7344 13.8297V19.0247H50.9542L50.9053 10.2682L53.5778 9.95482V11.009C53.8843 10.6502 54.2687 10.3616 54.7036 10.1638C55.1547 9.96275 55.6463 9.86215 56.1426 9.86934C56.6646 9.85794 57.1817 9.9687 57.6502 10.1923C58.0821 10.4209 58.4514 10.7466 58.7271 11.142C59.0612 10.7257 59.4992 10.3988 59.9997 10.1923C60.5318 9.95992 61.1098 9.84323 61.6933 9.85035C62.3375 9.8256 62.9768 9.96997 63.5435 10.2682Z" fill="#0058BF"/>
<path d="M79.373 10.2682C79.8815 10.5526 80.2855 10.9843 80.5281 11.5029C80.8085 12.0983 80.9457 12.7478 80.9295 13.4023V19.0247H78.1884V13.6777C78.2118 13.2531 78.0683 12.8357 77.7871 12.5096C77.5346 12.2446 77.1801 12.0933 76.8081 12.0917C76.3887 12.077 75.9853 12.2483 75.7117 12.5571C75.4162 12.8988 75.2657 13.3368 75.2908 13.7822V18.9677H72.442V13.6872C72.4698 13.2652 72.3336 12.8484 72.0602 12.5191C71.814 12.2446 71.4563 12.0884 71.0813 12.0917C70.6593 12.0783 70.2534 12.2491 69.9751 12.5571C69.6771 12.9017 69.5234 13.3423 69.5443 13.7917V18.9772H66.7837V10.2017L69.4562 9.87883V10.9425C69.7598 10.5784 70.1448 10.2861 70.582 10.0878C71.038 9.89123 71.5319 9.79087 72.0309 9.79335C72.5511 9.77936 73.0664 9.89374 73.5287 10.1258C73.964 10.3497 74.3344 10.6763 74.6055 11.0755C74.9446 10.664 75.3812 10.3382 75.8781 10.1258C76.4158 9.90097 76.996 9.78775 77.5815 9.79335C78.2121 9.79009 78.8317 9.9543 79.373 10.2682Z" fill="#0058BF"/>
<path d="M84.6105 18.5783C83.8583 18.1892 83.2239 17.6163 82.77 16.9163C82.3124 16.2047 82.0746 15.3807 82.0848 14.542C82.076 13.6988 82.3099 12.8699 82.7603 12.1487C83.2034 11.4289 83.835 10.8358 84.5909 10.4297C86.1905 9.58692 88.121 9.58692 89.7206 10.4297C90.4763 10.8311 91.1107 11.4171 91.561 12.1297C92.005 12.8566 92.2352 13.6876 92.2267 14.5325C92.2433 15.3711 92.0159 16.1973 91.5708 16.9163C91.1245 17.6311 90.4935 18.2204 89.7402 18.6258C88.9547 19.0455 88.0721 19.2645 87.1753 19.2621C86.2739 19.2525 85.3903 19.017 84.6105 18.5783ZM88.4186 16.5744C88.7842 16.3607 89.0874 16.0599 89.2996 15.7006C89.5184 15.3208 89.6299 14.8916 89.6227 14.4565C89.6203 14.0244 89.5059 13.5998 89.2898 13.2219C89.083 12.8611 88.7783 12.5622 88.4088 12.3576C88.0189 12.1414 87.5753 12.033 87.1264 12.0442C86.6836 12.043 86.2482 12.1543 85.8635 12.3671C85.4936 12.5755 85.1891 12.8775 84.9825 13.2408C84.7674 13.6153 84.6561 14.0374 84.6594 14.466C84.6558 14.8977 84.767 15.3229 84.9825 15.7006C85.1953 16.0651 85.5024 16.3695 85.8733 16.5839C86.2569 16.7981 86.6936 16.9065 87.1362 16.8973C87.5868 16.9118 88.0321 16.7997 88.4186 16.5744Z" fill="#0058BF"/>
<path d="M100.831 10.1922C101.357 10.4893 101.774 10.9373 102.026 11.4744C102.321 12.0859 102.465 12.7558 102.447 13.4308V18.9107H99.6664V13.7727C99.6953 13.3075 99.5334 12.85 99.2161 12.5001C98.9034 12.1896 98.4687 12.0237 98.0218 12.0442C97.5426 12.0263 97.0788 12.2097 96.7492 12.5476C96.416 12.9133 96.2407 13.3894 96.2597 13.8772V18.9202H93.4893V10.1352L96.1618 9.81234V10.876C96.5025 10.5125 96.9199 10.2242 97.3855 10.0308C97.8847 9.82942 98.421 9.72923 98.9616 9.73636C99.617 9.71103 100.266 9.86929 100.831 10.1922Z" fill="#0058BF"/>
<path d="M111.806 10.3347C112.516 10.7371 113.101 11.3178 113.499 12.0157C113.921 12.736 114.137 13.5523 114.126 14.3805C114.148 16.1127 113.174 17.7126 111.6 18.5308C110.793 18.9471 109.891 19.1594 108.977 19.1481C108.073 19.1658 107.181 18.9599 106.382 18.5498C105.624 18.1549 104.993 17.563 104.561 16.8403C104.117 16.0826 103.887 15.224 103.896 14.352V5.25365L106.705 4.67432V10.7431C107.066 10.4196 107.484 10.1621 107.939 9.98329C108.424 9.80518 108.938 9.71504 109.456 9.71736C110.283 9.70752 111.097 9.92127 111.806 10.3347ZM110.308 16.5364C110.678 16.328 110.982 16.026 111.189 15.6626C111.406 15.2785 111.517 14.8468 111.512 14.409C111.519 13.9769 111.408 13.5507 111.189 13.1744C110.982 12.8136 110.677 12.5147 110.308 12.3101C109.523 11.8857 108.567 11.8857 107.782 12.3101C107.405 12.5127 107.096 12.8159 106.891 13.1839C106.454 13.9591 106.454 14.8969 106.891 15.6721C107.102 16.0279 107.406 16.323 107.772 16.5269C108.15 16.7378 108.58 16.846 109.016 16.8403C109.467 16.8519 109.912 16.747 110.308 16.5364Z" fill="#0058BF"/>
<path d="M117.689 18.5023C116.927 18.1015 116.289 17.5115 115.839 16.7928C114.94 15.3302 114.94 13.5069 115.839 12.0442C116.278 11.3064 116.909 10.6938 117.67 10.2682C118.452 9.84967 119.331 9.63072 120.225 9.6319C121.121 9.6215 122.005 9.83751 122.79 10.2587C123.55 10.6583 124.185 11.2487 124.63 11.9682C125.504 13.4375 125.504 15.2476 124.63 16.7169C124.192 17.4381 123.559 18.0293 122.799 18.4264C122.017 18.8449 121.138 19.0639 120.244 19.0627C119.357 19.0906 118.478 18.8977 117.689 18.5023ZM121.488 16.4984C121.855 16.2875 122.159 15.9861 122.369 15.6247C122.809 14.8436 122.809 13.8985 122.369 13.1174C122.152 12.7604 121.846 12.4629 121.478 12.2531C121.1 12.0423 120.67 11.934 120.235 11.9397C119.795 11.9419 119.364 12.0531 118.981 12.2626C118.607 12.4681 118.298 12.7706 118.091 13.1364C117.875 13.5141 117.764 13.9394 117.768 14.371C117.763 14.8011 117.878 15.2244 118.1 15.5962C118.31 15.9628 118.618 16.2679 118.991 16.4794C119.372 16.6923 119.805 16.8036 120.244 16.8023C120.679 16.8105 121.109 16.7055 121.488 16.4984Z" fill="#0058BF"/>
<path d="M133.822 10.1163C134.342 10.4199 134.757 10.866 135.016 11.3984C135.306 12.0116 135.45 12.6803 135.437 13.3548V18.8157H132.667V13.6682C132.693 13.205 132.536 12.7495 132.226 12.3956C131.909 12.0857 131.472 11.9201 131.022 11.9397C130.544 11.9243 130.081 12.1073 129.75 12.4431C129.42 12.8103 129.248 13.2862 129.27 13.7727V18.8157H126.519V10.0308L129.221 9.75535V10.8096C129.56 10.4439 129.978 10.1553 130.445 9.96429C130.94 9.76291 131.474 9.6627 132.011 9.66988C132.645 9.66019 133.27 9.81425 133.822 10.1163Z" fill="#0058BF"/>
<path d="M141.302 9.64138C142.322 9.62655 143.309 9.99002 144.062 10.6576V4.58884L146.843 4.92124V14.2476C146.86 15.1222 146.633 15.9851 146.187 16.7453C145.766 17.4721 145.141 18.0681 144.385 18.4643C142.75 19.2872 140.804 19.2872 139.168 18.4643C137.599 17.6516 136.629 16.0581 136.652 14.333C136.642 13.5061 136.854 12.6909 137.269 11.9682C137.663 11.2654 138.244 10.6782 138.952 10.2682C139.664 9.86036 140.475 9.644 141.302 9.64138ZM141.762 16.7738C142.646 16.7967 143.471 16.3436 143.906 15.5962C144.125 15.2163 144.236 14.7871 144.229 14.352C144.233 13.9203 144.122 13.4949 143.906 13.1174C143.695 12.7509 143.383 12.4485 143.005 12.2436C142.617 12.0313 142.178 11.9231 141.733 11.9302C141.296 11.9279 140.866 12.0394 140.489 12.2531C140.12 12.4578 139.815 12.7567 139.608 13.1174C139.391 13.4943 139.279 13.9201 139.285 14.352C139.277 14.7915 139.392 15.2248 139.618 15.6057C139.826 15.9714 140.134 16.274 140.509 16.4794C140.892 16.6849 141.325 16.7866 141.762 16.7738Z" fill="#0058BF"/>
<path d="M33.6173 18.6733C32.8631 18.2775 32.2312 17.694 31.7866 16.9828C31.3438 16.2623 31.1135 15.4377 31.121 14.599C31.1044 13.7604 31.3317 12.9342 31.7769 12.2151C32.2144 11.4993 32.8436 10.9118 33.5977 10.5151C34.3778 10.1016 35.2541 9.88907 36.143 9.89781C37.139 9.91802 38.1157 10.1687 38.9917 10.6291L38.1792 12.671C37.6093 12.3537 36.9663 12.1806 36.3094 12.1677C35.8468 12.1567 35.3899 12.2684 34.9878 12.4906C34.6124 12.6994 34.304 13.0051 34.097 13.3738C33.6668 14.1339 33.6668 15.0545 34.097 15.8146C34.312 16.1814 34.627 16.4837 35.0074 16.6884C35.4153 16.905 35.8738 17.0162 36.3388 17.0113C37.0277 16.9841 37.6996 16.7951 38.2967 16.4604L39.1581 18.4738C38.2273 18.9581 37.1977 19.2369 36.143 19.2906C35.2591 19.3099 34.3863 19.0966 33.6173 18.6733Z" fill="#0058BF"/>
<path d="M5.4919 5.94698C1.37053 5.94698 0 7.27659 0 11.2749V15.8431V25.7488H11.1013C15.2129 25.7488 16.5834 24.4191 16.5834 20.4208V15.8431V5.94698H5.4919Z" fill="#F8AE9E"/>
<path d="M12.7263 0.77095C8.61467 0.77095 7.24414 2.10057 7.24414 6.09891V10.6671V20.5632H18.3454C22.457 20.5632 23.8275 19.2336 23.8275 15.2353V10.6671V0.77095H12.7263Z" fill="#0058BF"/>
</g>
<defs>
<clipPath id="clip0">
<rect width="147" height="25.4581" fill="white" transform="translate(0 0.77095)"/>
</clipPath>
</defs>
</svg>
