<svg width="111" height="27" viewBox="0 0 111 27" fill="none" xmlns="http://www.w3.org/2000/svg">
<path d="M12.5301 15.5905C12.2521 17.3587 11.646 18.6727 10.686 19.6074C9.7513 20.5423 8.51316 20.9968 6.99758 20.9968C5.12821 20.9968 3.73858 20.2138 2.82918 18.6219C1.91954 17.056 1.46484 14.6052 1.46484 11.3465C1.46484 7.93601 1.91954 5.43492 2.87976 3.84323C3.83973 2.2265 5.33027 1.4433 7.32584 1.4433C8.7658 1.4433 9.90279 1.84742 10.7363 2.63062C11.5951 3.41382 12.1763 4.62619 12.5048 6.26845L9.11934 7.37992C9.01844 6.36937 8.84142 5.63674 8.53845 5.18204C8.23524 4.7271 7.83087 4.49975 7.27526 4.49975C6.51735 4.49975 5.98679 4.97974 5.68357 5.965C5.3806 6.95002 5.22887 8.71847 5.22887 11.346C5.22887 13.8471 5.3806 15.59 5.65853 16.5247C5.96174 17.4594 6.46702 17.9394 7.19964 17.9394C7.7302 17.9394 8.15961 17.6615 8.48787 17.0803C8.81613 16.4992 9.04372 15.6151 9.16992 14.4277" fill="#002F66"/>
<path d="M21.7514 8.23925C20.9179 7.05168 19.6547 6.4455 17.9621 6.4455C16.2948 6.4455 15.0316 7.05168 14.2234 8.23925C13.4149 9.45186 13.0107 11.2707 13.0107 13.6959C13.0107 16.1211 13.4149 17.9401 14.2234 19.1022C15.0316 20.315 16.2948 20.8959 17.9621 20.8959C19.6547 20.8959 20.9179 20.315 21.7514 19.1275C22.5599 17.9654 22.964 16.1466 22.964 13.6961C22.964 11.2704 22.5599 9.45162 21.7514 8.23925ZM19.1241 17.1064C18.8968 17.7634 18.5177 18.1169 17.9621 18.1169C17.4315 18.1169 17.0527 17.7634 16.8253 17.0811C16.5727 16.3737 16.4716 15.237 16.4716 13.6453C16.4716 12.0539 16.5727 10.9169 16.8253 10.2095C17.0527 9.52748 17.4315 9.17393 17.9621 9.17393C18.4927 9.17393 18.8968 9.50244 19.1241 10.2095C19.3515 10.8918 19.4777 12.0283 19.4777 13.6453C19.4779 15.2873 19.3517 16.4241 19.1241 17.1064Z" fill="#002F66"/>
<path d="M24.2266 20.5927V6.74847H27.435V10.2093H27.5867C27.8646 8.99667 28.3193 8.06174 28.9258 7.40522C29.5572 6.77351 30.3402 6.44525 31.2498 6.44525H31.4016V10.0578C31.3004 10.0325 31.1993 10.0325 31.0731 10.0325C30.9466 10.0325 30.7951 10.0325 30.5931 10.0325C29.5825 10.0325 28.8246 10.2851 28.3446 10.7904C27.8646 11.2957 27.612 12.1042 27.612 13.1904V20.5925" fill="#002F66"/>
<path d="M36.2773 14.3526H41.1781V12.9127C41.1781 10.7904 40.7486 9.17391 39.9402 8.11254C39.1064 7.02637 37.8938 6.47052 36.2773 6.47052C34.5847 6.47052 33.3215 7.07695 32.5383 8.26403C31.7298 9.45135 31.3257 11.2957 31.3257 13.8218C31.3257 16.2726 31.73 18.0914 32.5383 19.2031C33.3215 20.3649 34.5594 20.9457 36.2517 20.9457H36.277C37.5147 20.9457 38.5 20.5924 39.2579 19.9102C40.0411 19.2031 40.5714 18.1923 40.8746 16.8279L37.7926 16.1206C37.7168 16.8026 37.54 17.3332 37.2621 17.7123C37.0094 18.0658 36.6809 18.2428 36.277 18.2428H36.2517C35.6959 18.2428 35.2665 17.9649 35.0138 17.384C34.7612 16.8029 34.6348 15.8429 34.6348 14.5291V14.3524H36.2773V14.3526ZM35.0647 9.80538C35.3173 9.27482 35.7217 9.02219 36.2267 9.02219H36.2773C36.8329 9.02219 37.237 9.27482 37.5149 9.78009C37.7929 10.2598 37.9191 11.0683 37.9191 12.1547H36.2773H34.635C34.6603 11.0936 34.7867 10.3107 35.0647 9.80538Z" fill="#002F66"/>
<path d="M42.3662 20.6177V1.82239H50.2734V4.77793H46.004V9.30011H50.2734V12.2053H46.004V20.6177" fill="#4087C8"/>
<path d="M51.0806 3.56536C51.0806 3.0348 51.2576 2.58035 51.6364 2.20127C51.9902 1.84748 52.4196 1.64542 52.9502 1.64542C53.4808 1.64542 53.9354 1.84748 54.289 2.20127C54.6681 2.55482 54.8448 3.00951 54.8448 3.56536C54.8448 4.07064 54.6681 4.52534 54.289 4.87913C53.9102 5.23268 53.4552 5.40969 52.9502 5.40969C52.4449 5.40969 52.0155 5.23268 51.6364 4.85384C51.2573 4.50029 51.0806 4.04559 51.0806 3.56536ZM51.3079 20.6178V6.74874H54.6425V20.6178H51.3079Z" fill="#4087C8"/>
<path d="M59.9988 1.82239H56.6895V20.6177H59.9988V1.82239Z" fill="#4087C8"/>
<path d="M61.8174 3.56536C61.8174 3.0348 61.9942 2.58035 62.3475 2.20127C62.727 1.84748 63.156 1.64542 63.6865 1.64542C64.2171 1.64542 64.6723 1.84748 65.0256 2.20127C65.4044 2.55482 65.5812 3.00951 65.5812 3.56536C65.5812 4.07064 65.3791 4.52534 65.0256 4.87913C64.6465 5.23268 64.1918 5.40969 63.6865 5.40969C63.1812 5.40969 62.7518 5.23268 62.373 4.85384C61.9942 4.50029 61.8174 4.04559 61.8174 3.56536ZM62.0445 20.6178V6.74874H65.3791V20.6178H62.0445Z" fill="#4087C8"/>
<path d="M67.1987 20.5927V6.74845H70.3819V8.97161C70.786 8.13808 71.2662 7.50636 71.7965 7.10223C72.3524 6.67258 72.9839 6.47076 73.7165 6.47076C74.702 6.47076 75.3836 6.77398 75.7882 7.38016C76.1923 7.98634 76.3946 9.07276 76.3946 10.6642V20.5927H73.0344V11.9274C73.0344 10.9168 72.9333 10.235 72.7565 9.881C72.605 9.52721 72.2763 9.35044 71.8471 9.35044C71.4175 9.35044 71.0897 9.5525 70.8869 9.98191C70.6851 10.386 70.5586 11.0177 70.5586 11.8513V20.5924" fill="#4087C8"/>
<path d="M83.822 6.74869V9.37597C83.5436 8.36542 83.1648 7.63304 82.6843 7.1781C82.6593 7.12752 82.6089 7.10224 82.5836 7.07695C82.1289 6.67259 81.5736 6.47052 80.9161 6.47052C79.8302 6.47052 79.0217 7.07695 78.4911 8.26403C77.961 9.42606 77.6831 11.2451 77.6831 13.645C77.6831 15.9694 77.9858 17.7376 78.5417 18.9249C79.1228 20.163 79.9564 20.7695 81.043 20.7695C81.6237 20.7695 82.1289 20.5672 82.5836 20.163C82.6089 20.1377 82.6595 20.1127 82.6843 20.0619C83.1395 19.5817 83.5436 18.8996 83.822 17.9905V20.0874C83.822 21.0724 83.6953 21.8303 83.3921 22.3106C83.2151 22.6641 82.9374 22.8662 82.5836 22.9673C82.4322 23.0177 82.2551 23.0432 82.0786 23.0432C81.7248 23.0432 81.4216 22.942 81.1437 22.74C80.891 22.5382 80.6639 22.2347 80.4872 21.8306L77.961 23.5482C78.3647 24.2558 78.9458 24.8114 79.6784 25.1905C80.4361 25.5696 81.2699 25.7714 82.2298 25.7714C82.3563 25.7714 82.4572 25.7714 82.5834 25.7714C83.4677 25.7211 84.2507 25.5192 84.8824 25.1402C85.615 24.7105 86.1959 24.079 86.6005 23.2202C86.8026 22.7903 86.9534 22.2097 87.0548 21.5026C87.1562 20.795 87.2065 19.8097 87.2065 18.5718V6.74894H83.822V6.74869ZM83.645 16.7275C83.3921 17.4096 83.0383 17.7378 82.5836 17.7633H82.5335C82.0531 17.7633 81.6995 17.4348 81.4719 16.7781C81.2701 16.1211 81.1437 15.1108 81.1437 13.7464C81.1437 12.2559 81.2701 11.1697 81.4719 10.538C81.6998 9.88125 82.0533 9.55274 82.5586 9.55274H82.5839C83.0386 9.57803 83.3924 9.90654 83.6202 10.5886C83.8724 11.2706 83.9993 12.2812 83.9993 13.5697C83.9988 14.9841 83.8721 16.0455 83.645 16.7275Z" fill="#4087C8"/>
<path fill-rule="evenodd" clip-rule="evenodd" d="M101.748 9.5875L109.623 10.8847V1.71295H100.451L101.748 9.5875Z" fill="#002F66"/>
<path fill-rule="evenodd" clip-rule="evenodd" d="M98.6324 9.5875L99.9294 1.71295H90.7578V10.8847L98.6324 9.5875Z" fill="#002F66"/>
<path fill-rule="evenodd" clip-rule="evenodd" d="M98.6324 12.703L90.7578 11.406V20.5778H99.9294L98.6324 12.703Z" fill="#002F66"/>
<path fill-rule="evenodd" clip-rule="evenodd" d="M101.748 12.703L100.451 20.5778H109.623V11.406L101.748 12.703Z" fill="#4087C8"/>
</svg>
