<svg width="85" height="34" viewBox="0 0 85 34" fill="none" xmlns="http://www.w3.org/2000/svg">
<g clip-path="url(#clip0)">
<path d="M84.1847 4.07357C83.6329 3.96154 83.0985 4.31834 82.9874 4.86837C82.986 4.87445 82.9852 4.88004 82.9839 4.88612C82.839 5.60391 82.6977 6.32745 82.5598 7.0491C81.9162 10.1683 80.8252 13.9567 77.8605 14.2128C77.0999 14.278 76.8107 14.0359 76.6424 13.8174C75.6284 12.5007 76.4743 8.27944 77.3983 5.70254C77.5877 5.17454 77.3136 4.59294 76.7855 4.40308C76.3281 4.23869 75.829 4.42338 75.5809 4.82037L75.2942 5.06818C74.0903 6.10915 72.5114 7.4742 70.8928 8.42698C70.6913 8.01914 70.4473 7.64418 70.1624 7.31467C69.0706 6.05202 67.4586 5.49985 65.74 5.79904C64.4812 6.01783 63.4832 6.97176 63.3133 8.1181C63.2393 8.61701 63.2934 9.0232 63.4244 9.36225C63.2579 9.48225 63.1071 9.61425 62.9669 9.75398C62.8709 9.7885 62.7793 9.83831 62.694 9.90398C61.5902 10.7551 60.7058 11.2511 59.9792 10.9026C59.4408 10.6444 59.3549 10.1812 59.3389 8.72353C59.3375 8.58997 59.3363 8.45501 59.3333 8.31996C59.3225 7.76615 58.8698 7.3242 58.3179 7.3242C58.311 7.3242 58.3045 7.3242 58.2976 7.32461C58.2902 7.32461 58.2833 7.32543 58.2759 7.32593C57.8163 7.33283 57.4029 7.65281 57.2995 8.12204C56.9319 9.78907 56.5354 11.4825 56.1518 13.1196C56.1129 13.2856 56.074 13.4543 56.0346 13.6208C56.0091 13.6783 55.9879 13.739 55.9728 13.8025C55.7501 14.7392 54.7504 16.26 53.7895 17.1236C52.4584 18.3197 50.6495 18.9337 49.1542 18.7486C50.1224 17.8561 50.9695 16.8433 51.5657 15.8181C51.9529 15.1535 53.1571 12.8413 52.4078 10.9978C51.9709 9.9237 51.1031 9.21668 49.9632 9.00603C48.575 8.75 46.9609 9.30956 45.9438 10.3984C44.5637 11.877 43.8426 14.3206 44.2296 16.209C44.4502 17.2853 44.8761 18.2054 45.479 18.9345C45.1291 19.1274 44.7801 19.2925 44.4392 19.4223C43.9407 19.6117 42.6858 19.9611 41.7992 19.1015C40.8008 18.1319 41.11 16.1237 41.2298 15.5248L41.2311 15.5197C41.8538 12.4252 42.6642 9.3191 43.5118 6.26137C47.1932 5.73904 49.4904 5.53618 49.5376 5.53232C50.0968 5.48424 50.511 4.99215 50.4631 4.433C50.4152 3.87384 49.9251 3.46041 49.3639 3.50751C49.3193 3.51162 47.3388 3.68619 44.109 4.12724C44.2452 3.64518 44.3814 3.16427 44.5172 2.68599L44.7572 1.83974C44.9101 1.30006 44.5967 0.738358 44.0566 0.585234C43.516 0.432191 42.9552 0.745674 42.8021 1.28576L42.5621 2.13119C42.345 2.89657 42.1271 3.66803 41.9095 4.44212C37.9442 5.03588 32.727 5.9543 27.0838 7.31475C26.5384 7.44626 26.2029 7.99497 26.3343 8.54024C26.4464 9.00603 26.8623 9.3186 27.3211 9.3186C27.3999 9.3186 27.4798 9.30915 27.5598 9.29008C32.7243 8.04528 37.5249 7.17527 41.3141 6.58792C40.5482 9.38658 39.8235 12.2263 39.2488 15.0731C39.0827 15.6118 38.9508 16.157 38.8242 16.6842C38.5721 17.735 38.3337 18.7278 37.8533 19.5849C37.5225 20.1757 36.7342 20.9074 36.0375 21.0613C35.7128 21.133 35.5376 21.0448 35.4213 20.961C35.1747 20.7827 35.0732 20.257 35.1346 19.4829C35.2012 18.6518 35.3409 17.8206 35.5242 16.9939C35.9787 15.6987 36.3151 14.3764 36.5976 13.1185C36.7173 12.5858 36.3943 12.0533 35.8663 11.9138C35.3382 11.7736 34.7943 12.0767 34.6346 12.5987C34.5122 12.9987 34.3895 13.4013 34.2689 13.8064C33.6387 12.7776 32.6536 12.0508 31.5721 11.8496C29.5527 11.4738 27.7859 12.8704 26.805 14.3027C26.2042 15.1805 25.7621 16.1625 25.4932 17.1899C25.4412 17.2799 25.402 17.3777 25.3784 17.484C25.2664 17.9953 25.1873 18.4933 25.1107 18.975C24.8456 20.6408 24.6364 21.9553 23.2784 22.9171C22.8361 23.2303 22.1481 23.3807 21.7636 23.0883C21.5267 22.9083 21.3653 22.5269 21.342 22.0919C21.2715 20.7721 21.9232 19.4921 22.717 18.0747C22.974 17.6173 22.8395 17.0387 22.4072 16.7411C22.2924 16.6624 22.0642 16.5301 21.5591 16.2391C20.8513 15.8309 19.0358 14.784 18.5585 14.387C18.4124 14.1284 18.155 13.936 17.8389 13.884C17.2854 13.7924 16.7626 14.1669 16.6714 14.7209C16.2688 17.1571 15.8139 19.5226 14.6826 21.6804C13.7927 23.3788 12.1092 24.7055 10.1797 25.2304C8.45903 25.6966 6.74358 25.4762 5.34911 24.6069C3.74043 23.6037 2.55292 21.7778 2.17236 19.7239C1.82 17.8213 2.12658 15.6681 3.03555 13.6595C3.76846 12.0393 5.37311 9.16194 7.8822 8.09328C9.25128 7.51037 10.7912 7.53766 11.9012 8.16462C12.9052 8.73241 13.5606 9.99077 13.4587 11.157C13.4064 11.7585 13.1231 12.5538 12.0711 12.9266C11.5421 13.1138 11.265 13.6945 11.4526 14.2234C11.6399 14.7522 12.2203 15.0288 12.7495 14.8417C14.3414 14.2779 15.3381 12.9991 15.4834 11.3334C15.6533 9.38132 14.5913 7.35116 12.9005 6.39551C11.2275 5.45029 9.05369 5.38577 7.08567 6.22372C3.94287 7.56215 2.03929 10.9321 1.18441 12.8213C0.105879 15.2049 -0.252645 17.7874 0.174592 20.094C0.657227 22.6988 2.1893 25.0304 4.27353 26.3304C5.51818 27.1061 6.94085 27.5023 8.42015 27.5023C9.17468 27.5023 9.94449 27.3994 10.7125 27.191C13.1778 26.5215 15.3348 24.8144 16.4824 22.6237C17.4813 20.7185 17.9989 18.7421 18.3838 16.7184C19.0601 17.1423 19.8609 17.6049 20.469 17.9562C19.7667 19.3027 19.2309 20.6709 19.313 22.2009C19.3689 23.2465 19.8143 24.1598 20.5347 24.7073C21.5954 25.5124 23.2065 25.4579 24.4528 24.5758C25.2057 24.0413 25.726 23.4307 26.0973 22.7837C26.4199 23.2248 26.8216 23.5742 27.2939 23.8111C27.7561 24.0447 28.2777 24.1615 28.8169 24.1615C29.2952 24.1615 29.7877 24.0699 30.2655 23.8848C31.0063 23.5985 31.7103 23.102 32.4178 22.3669C32.7353 22.0365 33.0297 21.688 33.3026 21.3239C33.4904 21.867 33.7996 22.2952 34.2298 22.6064C34.8758 23.0743 35.6525 23.2266 36.4746 23.0449C37.8609 22.7397 39.0799 21.5523 39.6257 20.5783C39.7325 20.3872 39.8259 20.1943 39.9146 19.9997C40.0552 20.2021 40.2105 20.3898 40.3842 20.5594C41.1513 21.3033 42.1602 21.6871 43.2584 21.6871C43.8738 21.6871 44.5173 21.566 45.1616 21.3213C45.8331 21.0654 46.5207 20.7065 47.1928 20.2722C47.3933 20.3673 47.6022 20.4521 47.8193 20.5231C49.9979 21.2409 52.7702 20.5845 54.8394 18.8946C54.6707 19.7275 54.5254 20.5802 54.3862 21.4105C54.3031 21.9043 54.2193 22.4024 54.1297 22.8997C51.5875 23.2317 48.9933 23.6227 46.6998 24.7159C45.4219 25.3239 44.4584 26.2605 43.988 27.352C43.5279 28.4201 43.5313 29.6059 43.9975 30.6903C44.4502 31.7437 45.281 32.574 46.337 33.0289C46.9518 33.2928 47.6299 33.4233 48.324 33.4233C49.3596 33.4233 50.4295 33.1328 51.3722 32.5689C52.6659 31.794 53.751 30.5295 54.5099 28.9105C55.1334 27.5812 55.5351 26.1636 55.8434 24.7263C56.0783 24.6951 56.311 24.663 56.5414 24.6303C60.0856 24.1278 63.596 23.8372 66.8617 23.5985C67.4212 23.557 67.8414 23.071 67.8009 22.5105C67.7598 21.9518 67.2732 21.5314 66.7133 21.5712C63.4122 21.8133 59.8601 22.1074 56.256 22.6185C56.2512 22.6193 56.2464 22.6193 56.2417 22.6211C56.2918 22.3288 56.3411 22.0365 56.3901 21.7466C56.5622 20.7236 56.7244 19.7567 56.932 18.8105C57.3142 17.0661 57.7289 15.2956 58.1297 13.5828C58.2287 13.16 58.3286 12.7332 58.4289 12.3042C58.6184 12.4647 58.8399 12.6095 59.1001 12.7345C59.5672 12.9581 60.0288 13.0501 60.4743 13.0501C60.8891 13.0501 61.2882 12.9688 61.6653 12.8425C61.5701 14.075 61.836 15.2732 62.2642 15.976C63.0897 17.3316 64.6247 18.1713 66.1997 18.1713C66.3726 18.1713 66.5461 18.1619 66.7195 18.1411C68.6628 17.9077 70.2403 16.5792 71.0472 14.4949C71.5588 13.1724 71.699 11.7252 71.4978 10.3998C72.5835 9.80913 73.6228 9.06792 74.5564 8.33188C74.0759 10.6135 73.8203 13.4826 75.0315 15.0562C75.5055 15.6724 76.411 16.3777 78.0352 16.2372C79.2438 16.1325 80.2259 15.6884 81.0298 15.0242C80.8607 15.8407 80.6843 16.6545 80.4983 17.4613C80.3921 17.9231 80.2879 18.4628 80.1776 19.0335C79.6713 21.6592 78.9058 25.6272 76.8907 26.4644C76.1115 26.7879 75.2384 26.7411 74.4947 26.3363C73.7755 25.9454 73.2795 25.2665 73.1342 24.4734C73.0119 23.8075 73.152 23.1501 73.5187 22.6711C73.8656 22.2179 74.3801 21.9498 75.007 21.8979C75.5662 21.8503 75.9817 21.3591 75.9346 20.7996C75.8875 20.2408 75.395 19.8256 74.8371 19.8725C73.6402 19.9736 72.5988 20.5288 71.9043 21.437C71.1903 22.371 70.9101 23.6121 71.1354 24.8402C71.3924 26.2403 72.2628 27.4365 73.5238 28.1215C74.2434 28.5124 75.0329 28.7096 75.8252 28.7096C76.4492 28.7096 77.0753 28.5877 77.6696 28.3412C80.6943 27.0854 81.5487 22.6538 82.1728 19.4183C82.2796 18.8657 82.3803 18.3442 82.4785 17.9169C83.0874 15.2769 83.5907 12.5799 84.0777 9.97154C84.2338 9.1326 84.3933 8.27854 84.5568 7.42275C84.6493 6.9748 84.7315 6.54543 84.8081 6.14589C84.8673 5.83767 84.9235 5.54391 84.9789 5.27021C85.0898 4.72067 84.734 4.18445 84.1842 4.07332L84.1847 4.07357ZM32.9774 17.8852C32.4524 19.0252 31.7964 20.0822 30.9536 20.9582C30.4564 21.4754 29.992 21.8127 29.5335 21.99C29.0587 22.1733 28.5632 22.1767 28.2086 21.9969C27.527 21.6543 27.2533 20.6243 27.2243 19.7742C27.172 18.2477 27.6187 16.7117 28.4823 15.4507C29.019 14.6663 29.9486 13.8205 30.9099 13.8205C31.0067 13.8205 31.1036 13.8292 31.2005 13.8469C31.827 13.9636 32.4289 14.5172 32.7338 15.2571C33.0157 15.9401 33.0954 16.7998 32.9773 17.8852H32.9774ZM47.1666 17.7841C46.7074 17.2956 46.3905 16.633 46.22 15.801C45.9641 14.5496 46.495 12.7857 47.4291 11.7851C47.8939 11.2874 48.6239 10.9755 49.2691 10.9755C49.3806 10.9755 49.49 10.9846 49.5943 11.0041C50.0475 11.0876 50.3519 11.3358 50.5253 11.763C50.7796 12.3882 50.485 13.6354 49.8096 14.7956C49.1951 15.8516 48.2364 16.9141 47.1666 17.7841V17.7841ZM52.6706 28.0483C52.2615 28.921 51.5233 30.1111 50.3286 30.8254C49.3046 31.4394 48.0826 31.5674 47.1403 31.1628C46.5724 30.9178 46.1076 30.4534 45.8645 29.8888C45.6211 29.3223 45.6171 28.7065 45.8542 28.1565C46.1297 27.5173 46.7402 26.9474 47.5736 26.5496C49.3906 25.6847 51.5407 25.3024 53.6945 25.0083C53.4373 26.0722 53.1146 27.1013 52.6706 28.0483V28.0483ZM65.3236 8.41646C65.3637 8.14317 65.7066 7.86725 66.088 7.80108C66.2783 7.76779 66.4647 7.75136 66.6459 7.75136C67.4299 7.75136 68.1196 8.05876 68.6251 8.64347C68.789 8.83285 68.9317 9.05164 69.0532 9.29214C67.797 9.71115 66.5948 9.70425 65.6085 8.91635C65.2871 8.65942 65.2897 8.64134 65.3235 8.41646H65.3236ZM69.1521 13.7617C68.8431 14.5613 68.0841 15.9312 66.4786 16.1231C65.5215 16.2381 64.5014 15.743 63.9999 14.919C63.7906 14.5756 63.6111 13.7578 63.6917 12.9197C63.7418 12.3978 63.9372 11.4495 64.6844 10.9613C64.7354 10.9276 64.7822 10.8909 64.8249 10.8502C66.3047 11.7877 67.9341 11.7709 69.5397 11.2562C69.5846 12.088 69.4597 12.9675 69.1522 13.7618L69.1521 13.7617Z" fill="#38BFC3"/>
<path d="M59.3274 4.38414C59.3386 4.38414 59.3663 4.38373 59.3779 4.38332C60.1602 4.35784 60.7768 3.73334 60.7527 2.99098C60.728 2.26308 60.1071 1.69275 59.3395 1.69275C59.3278 1.69275 59.2998 1.69316 59.2885 1.69357C58.5062 1.72004 57.89 2.34404 57.9142 3.08608C57.9389 3.8143 58.5595 4.38414 59.3274 4.38414ZM40.9469 25.3391C36.1275 25.9947 23.5326 27.8896 10.693 31.311C10.1508 31.4554 9.82856 32.0114 9.97297 32.5546C10.094 33.0087 10.5049 33.3089 10.9542 33.3089C11.0407 33.3089 11.1289 33.2977 11.2162 33.2743C20.0472 30.9212 31.2636 28.7069 41.2208 27.3526C41.7769 27.2774 42.1665 26.7653 42.0908 26.2085C42.0152 25.6532 41.501 25.2641 40.947 25.3392L40.9469 25.3391Z" fill="#38BFC3"/>
</g>
<defs>
<clipPath id="clip0">
<rect width="85" height="32.882" fill="white" transform="translate(0 0.543518)"/>
</clipPath>
</defs>
</svg>
