<svg width="81" height="24" viewBox="0 0 81 24" fill="none" xmlns="http://www.w3.org/2000/svg">
<g clip-path="url(#clip0)">
<path d="M20.9925 9.46665C20.9925 9.46665 23.1525 7.64415 25.785 7.64415V11.1542C20.655 11.0867 20.9925 15.2042 20.9925 15.2042V23.3042H17.82V7.91415H20.9925V9.46665ZM39.6225 7.91415H42.7275V16.4867C42.7275 20.4017 39.6225 23.7091 35.7075 23.7091C31.7925 23.7091 28.6875 20.4017 28.6875 16.4867V7.91415H31.7925V16.4867C31.7925 18.6467 33.5475 20.4692 35.7075 20.4692C37.8675 20.4692 39.6225 18.6467 39.6225 16.4867V7.91415ZM45.8325 23.3042V7.91415H49.005V23.3716H45.8325V23.3042ZM8.43754 10.7492C5.80504 10.7492 3.64504 12.9092 3.64504 15.5417C3.64504 18.1742 5.80504 20.3342 8.43754 20.3342C10.0575 20.3342 11.475 19.5242 12.42 18.2417L14.9175 20.1317C13.365 22.2242 11.0025 23.5067 8.43754 23.5067C4.05004 23.5742 0.540039 19.9967 0.540039 15.5417C0.540039 11.0867 4.11754 7.57665 8.43754 7.57665C11.0025 7.57665 13.5 8.85915 14.9175 10.9517L12.42 12.8417C11.5425 11.5592 10.0575 10.7492 8.43754 10.7492ZM68.2425 14.1242H77.4225C76.545 10.3442 72.8325 10.4792 72.8325 10.4792C72.8325 10.4792 69.4575 10.2092 68.2425 14.1242ZM72.765 7.64415C72.765 7.64415 80.865 7.37415 80.46 16.7567H68.175C68.445 17.9042 68.985 18.8492 69.8625 19.6592C70.74 20.4692 71.8875 20.8742 73.17 20.8742C73.17 20.8742 75.8025 21.0092 77.355 18.7817L79.65 20.4692C79.0425 21.3467 78.03 22.0892 76.68 22.7642C75.5325 23.3042 74.1825 23.6417 72.9 23.6417C68.5125 23.6417 65.205 20.0642 65.205 15.6767C65.1375 11.2217 68.5125 7.64415 72.765 7.64415ZM61.6275 15.5417C61.6275 15.5417 63.315 16.5542 63.2475 18.9167C63.2475 18.9167 63.3825 22.2242 59.7375 23.3042C59.7375 23.3042 55.4175 24.7217 51.9075 21.2117L53.5275 18.9842C57.105 21.9542 59.4675 20.2667 59.4675 20.2667C59.8725 19.9292 60.075 19.5242 60.075 19.0517C60.075 17.8367 58.5225 17.4317 58.5225 17.4317C58.05 17.2967 57.5775 17.0942 56.97 16.9592C56.97 16.9592 55.08 16.4867 53.6625 15.6092C53.19 15.2717 52.785 14.8667 52.4475 14.3267C52.11 13.7867 51.975 13.1117 51.975 12.3017C51.975 12.3017 51.84 9.26415 54.675 7.98165C54.675 7.98165 58.6575 6.29415 62.37 9.26415L60.75 11.6267C59.0625 10.3442 57.375 10.4117 57.375 10.4117C56.6325 10.4117 56.16 10.5467 55.755 10.8842C55.4175 11.2217 55.215 11.4917 55.215 11.8967C55.215 11.8967 55.08 12.8417 56.7675 13.5167C57.24 13.6517 57.7125 13.8542 58.32 13.9892C58.86 14.1242 59.4675 14.3942 60.0075 14.5292C60.615 14.9342 61.155 15.2717 61.6275 15.5417ZM47.385 0.69165C48.6 0.69165 49.545 1.63665 49.545 2.91915C49.545 4.20165 48.6 5.14665 47.385 5.14665C46.17 5.14665 45.225 4.20165 45.225 2.91915C45.225 1.63665 46.17 0.69165 47.385 0.69165Z" fill="#FF4D37"/>
</g>
<defs>
<clipPath id="clip0">
<rect width="81" height="22.95" fill="white" transform="translate(0 0.69165)"/>
</clipPath>
</defs>
</svg>
