<svg width="61" height="59" viewBox="0 0 61 59" fill="none" xmlns="http://www.w3.org/2000/svg">
<g clip-path="url(#clip0)">
<path d="M5.56439 43.3815C6.25324 43.3815 6.80076 43.5608 7.06707 43.6701L7.24784 43.7445L7.76337 41.9785L7.6369 41.919C7.18238 41.7084 6.33582 41.5552 5.62241 41.5552C2.31205 41.5552 0 44.0264 0 47.5682C0 51.2319 1.95349 53.4204 5.22145 53.4204C6.13124 53.4204 7.01426 53.256 7.5826 52.9838L7.69567 52.928L7.34752 51.2564L7.16006 51.3234C6.5947 51.5272 6.13496 51.615 5.62241 51.615C3.6905 51.615 2.53745 50.1019 2.53745 47.5682C2.53745 45.4852 3.47402 43.3815 5.56513 43.3815H5.56439ZM14.5113 48.2198C14.3422 48.8001 14.182 49.3828 14.0307 49.968L14.0032 49.8512C13.8787 49.2957 13.736 48.7444 13.5755 48.1982L11.6465 41.5552H8.87252L12.56 52.2592C12.6091 52.3738 12.6091 52.4965 12.6091 52.6252C12.6091 52.7591 12.5883 52.8558 12.473 53.1296C12.2595 53.6161 11.7998 54.3905 11.2039 54.9819C10.5909 55.5993 9.8939 56.0948 9.24299 56.3752L9.0823 56.4451L10.0613 58.2744L10.2153 58.2164C10.4451 58.1308 11.654 57.6436 12.8546 56.4384C14.608 54.662 15.5907 51.8158 16.4477 49.0575L18.8542 41.5552H16.2282L14.5113 48.2198V48.2198ZM25.5828 41.3871C24.3531 41.3871 23.418 41.7947 22.7366 42.6272V36.7012H20.159V50.36C20.159 50.906 20.1151 51.7214 20.0809 52.376C20.066 52.6393 20.0526 52.8826 20.0445 53.0708L20.037 53.2367H22.2881L22.4086 51.9974C22.8921 52.7189 23.6561 53.4256 25.1476 53.4256C27.3555 53.4256 29.5828 51.528 29.5828 47.2885C29.5828 43.7043 28.0131 41.3871 25.5821 41.3871H25.5828ZM27.0066 47.3844C27.0066 48.9615 26.712 51.6068 24.7407 51.6068C24.1285 51.6068 23.2983 51.281 22.8095 49.7099C22.7366 49.5559 22.7366 49.3074 22.7366 49.0708V45.907C22.7366 45.6504 22.7366 45.3848 22.7932 45.1356C22.9583 44.228 23.7677 43.2535 24.7139 43.2535C26.782 43.2535 27.0066 46.1421 27.0066 47.3844ZM36.1053 41.3863C32.51 41.3863 31.235 44.6409 31.235 47.4313C31.235 51.8508 33.6765 53.4256 35.961 53.4256C38.1949 53.4256 40.8023 51.8493 40.8023 47.4067C40.8023 42.9694 38.3772 41.3863 36.1053 41.3863V41.3863ZM36.0778 51.6752C34.1064 51.6752 33.8119 49.0002 33.8119 47.4067C33.8119 46.1295 34.0276 43.159 36.0183 43.159C37.9851 43.159 38.1964 46.1295 38.1964 47.4067C38.1964 48.69 37.9911 51.6752 36.0778 51.6752ZM42.1384 43.4045H47.0221C46.8807 43.6292 46.723 43.862 46.5623 44.1016C46.3823 44.3701 46.1963 44.6476 46.0223 44.9251L41.6169 52.0561L41.5908 52.0926V53.4204H49.9092V51.5689H44.5382C44.6758 51.3479 44.8335 51.1151 44.9949 50.877C45.1765 50.6063 45.3632 50.328 45.5358 50.0468L49.8861 43.0155L49.9084 42.9768V41.5552H42.1391V43.4045H42.1384ZM60.5239 53.0708C60.5135 52.7751 60.4999 52.4795 60.483 52.1841C60.4473 51.5495 60.4086 50.8302 60.4086 49.9844V41.576H57.831V49.2114C57.831 49.6169 57.7938 49.942 57.7164 50.2105C57.6123 50.6844 57.0915 51.583 55.8857 51.583C54.6672 51.583 54.1717 50.7327 54.1717 48.6483V41.576H51.5934V48.9079C51.5934 51.9907 52.7352 53.4256 55.1894 53.4256C56.5098 53.4256 57.5483 52.8209 58.1315 52.222L58.2565 53.2374H60.5291L60.5239 53.0708V53.0708Z" fill="#A6A4A5"/>
<path d="M48.2183 22.2502C48.2183 26.9993 44.4036 30.849 39.6977 30.849C34.991 30.849 31.1763 26.9993 31.1763 22.2495C31.1763 17.5004 34.991 13.6499 39.6977 13.6499C44.4036 13.6499 48.2183 17.5004 48.2183 22.2495V22.2502ZM39.6895 18.7792C37.7896 18.7792 36.2504 20.3339 36.2504 22.2502C36.2504 24.1672 37.7903 25.7183 39.6895 25.7183C41.5864 25.7183 43.1263 24.1672 43.1263 22.2502C43.1263 20.3332 41.5864 18.7792 39.6895 18.7792V18.7792Z" fill="#92D0E1"/>
<path d="M55.7917 7.23377C55.7917 10.1737 53.4306 12.5586 50.5152 12.5586C47.6028 12.5586 45.2417 10.1737 45.2417 7.23377C45.2417 4.29536 47.6028 1.9119 50.5152 1.9119C53.4306 1.9119 55.7917 4.29536 55.7917 7.23377ZM50.5078 5.08836C49.3347 5.08836 48.3825 6.04874 48.3825 7.23377C48.3825 8.42179 49.3347 9.38216 50.5078 9.38216C50.7889 9.38129 51.067 9.32499 51.3263 9.21651C51.5856 9.10802 51.821 8.94947 52.0189 8.74992C52.2169 8.55037 52.3735 8.31375 52.48 8.05359C52.5864 7.79344 52.6404 7.51485 52.6391 7.23377C52.64 6.95295 52.5857 6.67468 52.4791 6.41487C52.3725 6.15505 52.2158 5.91878 52.0179 5.71955C51.8199 5.52032 51.5847 5.36203 51.3256 5.25373C51.0665 5.14543 50.7886 5.08924 50.5078 5.08836V5.08836Z" fill="#B1DEEA"/>
<path d="M21.7068 9.28247C18.72 9.28247 16.2986 11.7254 16.2986 14.7397C16.2986 17.7563 18.72 20.2022 21.7068 20.2022C24.6965 20.2022 27.1187 17.7563 27.1187 14.7397C27.1187 11.7254 24.6965 9.28247 21.7068 9.28247V9.28247ZM35.2339 14.7427C35.2339 22.2829 29.1778 28.3918 21.709 28.3918C14.238 28.3918 8.18262 22.2829 8.18262 14.7427C8.18262 7.20401 14.238 1.09285 21.709 1.09285C29.1778 1.09285 35.2331 7.20401 35.2331 14.7427H35.2339Z" fill="#64BDD4"/>
</g>
<defs>
<clipPath id="clip0">
<rect width="61" height="58.0244" fill="white" transform="translate(0 0.621948)"/>
</clipPath>
</defs>
</svg>
