<svg width="119" height="27" viewBox="0 0 119 27" fill="none" xmlns="http://www.w3.org/2000/svg">
<g clip-path="url(#clip0)">
<path d="M83.2548 18.1417L79.5628 12.6251H76.5454V18.1433H72.7539V0.774972H73.1441C75.8298 0.774972 78.5249 0.746536 81.2153 0.786031C82.9262 0.811308 84.5045 1.27419 85.7557 2.53645C86.7035 3.48433 87.1111 4.67076 87.1949 5.98041C87.2822 6.91248 87.1691 7.85244 86.8631 8.73716C86.326 10.1811 85.2659 11.1274 83.9073 11.7751C83.8157 11.8178 83.7225 11.8557 83.6308 11.8999C83.5919 11.9237 83.5554 11.9512 83.5218 11.9821L87.7304 18.1433L83.2548 18.1417ZM76.5565 9.18583H77.4191C78.6671 9.17003 79.9183 9.20952 81.16 9.11474C82.1427 9.04207 82.9199 8.52389 83.2027 7.51914C83.6466 5.93934 82.9815 4.41799 80.991 4.27423C79.5597 4.17154 78.1173 4.22526 76.6797 4.21104C76.6384 4.22042 76.5986 4.2353 76.5612 4.25527L76.5565 9.18583Z" fill="#284C90"/>
<path d="M88.9507 0.792351H92.7643V1.25207C92.7643 4.33584 92.7454 7.41329 92.7801 10.5034C92.7864 11.2347 92.897 11.9614 93.1087 12.6614C93.521 14.0074 94.7501 14.8368 96.2257 14.8842C97.2731 14.9173 98.262 14.7546 99.0835 14.0216C99.7502 13.426 100.055 12.6535 100.177 11.7972C100.223 11.4601 100.246 11.1202 100.246 10.7798V0.80025H104.109V1.21416C104.109 4.41167 104.123 7.60919 104.109 10.8067C104.123 12.0205 103.897 13.2252 103.445 14.3518C102.63 16.3028 101.188 17.5446 99.1578 18.088C97.262 18.5967 95.3663 18.6062 93.4926 17.9916C91.0076 17.1749 89.5779 15.4087 89.1339 12.851C89.0195 12.1803 88.9609 11.5013 88.9586 10.8209C88.9412 7.62341 88.9586 4.42589 88.9586 1.22838L88.9507 0.792351Z" fill="#284C90"/>
<path d="M105.229 15.5809L107.441 12.9315C108.062 13.3296 108.658 13.7467 109.286 14.1101C110.623 14.9072 112.208 15.1828 113.735 14.8842C114.76 14.6914 115.239 14.0279 115.136 13.069C115.126 12.8775 115.063 12.6927 114.954 12.5347C114.845 12.3768 114.695 12.2517 114.52 12.1732C113.73 11.832 112.94 11.5271 112.128 11.2522C110.972 10.8573 109.771 10.5792 108.653 10.1116C106.997 9.41963 106.051 8.16843 105.921 6.31217C105.82 4.78292 106.181 3.43851 107.233 2.30895C108.06 1.42423 109.163 0.844772 110.361 0.66438C113.282 0.173062 115.942 0.82236 118.315 2.60911C118.356 2.63913 118.4 2.66599 118.473 2.71022C117.802 3.68654 117.152 4.6281 116.487 5.59652C116.013 5.32005 115.552 5.03885 115.08 4.7845C114.019 4.21419 112.906 3.83662 111.68 3.91087C111.133 3.94404 110.598 4.02935 110.176 4.42904C109.478 5.09256 109.557 6.25055 110.41 6.68026C111.146 7.05151 111.963 7.26005 112.746 7.53177C113.971 7.95832 115.233 8.30113 116.414 8.82247C117.753 9.41963 118.666 10.4465 118.907 11.9473C119.402 15.0011 117.882 17.4261 114.862 18.1085C111.301 18.9205 108.092 18.0517 105.301 15.682C105.274 15.6507 105.25 15.6168 105.229 15.5809V15.5809Z" fill="#284C90"/>
<path d="M51.3121 12.9631L53.8208 15.3328C53.1984 16.0396 52.4794 16.6549 51.6849 17.1607C50.2094 18.088 48.5822 18.4245 46.8555 18.4514C44.6327 18.4798 42.6501 17.8337 40.9344 16.4276C39.2659 15.0758 38.1746 13.1395 37.8822 11.0121C37.4699 8.30115 38.0497 5.8098 39.8127 3.66601C41.5331 1.57594 43.7907 0.556967 46.4842 0.473237C47.9061 0.429003 49.3073 0.583824 50.6454 1.10516C51.7997 1.55685 52.8398 2.25817 53.6913 3.1589L51.2916 5.92355C50.7086 5.51754 50.1652 5.09099 49.5759 4.74028C47.756 3.65495 45.3357 3.7292 43.7306 5.08625C42.3309 6.26794 41.7243 7.82247 41.797 9.6187C41.8839 11.7577 42.7449 13.5161 44.7575 14.4434C46.6375 15.306 48.4748 15.0279 50.1668 13.8494C50.5854 13.5556 50.9804 13.2206 51.3121 12.9631Z" fill="#284C90"/>
<path d="M60.3845 18.1401V17.5224C60.3845 15.5761 60.3818 13.6277 60.3766 11.6772C60.3735 11.4423 60.3087 11.2124 60.1886 11.0105C58.0959 7.6887 55.9963 4.37112 53.8899 1.05776C53.8441 0.986665 53.803 0.910835 53.7319 0.797089H58.2122L62.3197 7.71503L66.5094 0.79393H70.8585C70.669 1.09883 70.5031 1.37214 70.3309 1.64228C68.3709 4.72079 66.4125 7.79718 64.4556 10.8715C64.3166 11.1047 64.2424 11.3709 64.2408 11.6424C64.2234 13.6519 64.2313 15.6614 64.2313 17.6709V18.1449L60.3845 18.1401Z" fill="#284C90"/>
<path d="M27.4063 0.868178C20.6005 2.29 14.0554 4.26949 8.41394 8.65817L1.06787 2.16993L1.10579 2.07672C1.6524 2.04671 2.19743 2.01195 2.74404 1.98826C4.53237 1.91085 6.32071 1.83818 8.11536 1.75919C9.73939 1.68652 11.3618 1.60121 12.9859 1.53169L17.9275 1.3042C19.5515 1.22837 21.174 1.1557 22.798 1.07671C24.2578 1.00562 25.7159 0.928211 27.1756 0.85396C27.2528 0.853843 27.3298 0.858591 27.4063 0.868178V0.868178Z" fill="#284C90"/>
<path d="M27.541 2.44798C27.4036 2.74341 27.2772 3.04199 27.1303 3.33109C25.4188 6.70765 23.7063 10.081 21.9927 13.4513C19.9148 17.543 17.83 21.6341 15.7383 25.7248C15.6751 25.8341 15.6055 25.9396 15.5298 26.0407V26.0565C16.4697 23.3301 17.2266 20.544 17.7952 17.7167C18.1807 15.7405 18.4288 13.7399 18.5377 11.7293C18.6398 9.68298 18.5414 7.63157 18.2439 5.60442C19.3497 5.21263 20.4303 4.81452 21.5235 4.43853C23.4088 3.79608 25.2966 3.16416 27.1871 2.54277C27.307 2.50963 27.4289 2.4843 27.5521 2.46694L27.541 2.44798Z" fill="#284C90"/>
<path d="M0.00830078 3.37533C0.436427 3.86349 0.866132 4.34849 1.29268 4.83823C4.00678 7.99782 6.94994 10.9094 10.367 13.3123C11.9604 14.4493 13.6654 15.4212 15.4556 16.2128C15.5567 16.257 15.6546 16.3123 15.8079 16.3881C15.0622 19.5614 14.3171 22.7326 13.5725 25.9017L13.4729 25.9222C13.3845 25.7816 13.2944 25.641 13.2091 25.4988L3.92147 9.97573C2.69027 7.91989 1.46119 5.86141 0.234212 3.8003C0.152063 3.66127 0.0888708 3.51119 0.0177798 3.36743L0.00830078 3.37533Z" fill="#284C90"/>
<path d="M44.0763 23.3866C44.5266 23.6205 44.9674 23.9175 45.0511 24.5352C45.1838 25.5178 44.664 26.2334 43.6293 26.4104C43.1682 26.4749 42.703 26.5055 42.2375 26.502C41.4965 26.5162 40.7556 26.502 39.9941 26.502V20.5288C41.1174 20.5288 42.2311 20.4466 43.3275 20.5525C44.4239 20.6583 44.9958 21.5936 44.6609 22.5241C44.5361 22.8385 44.2707 23.096 44.0763 23.3866ZM41.258 24.0565V24.9475C41.258 25.0581 41.269 25.1687 41.2754 25.284C41.9231 25.284 42.5392 25.3077 43.1711 25.2745C43.2485 25.2741 43.325 25.2584 43.3964 25.2284C43.4677 25.1984 43.5324 25.1547 43.5869 25.0997C43.6413 25.0447 43.6843 24.9795 43.7136 24.9078C43.7428 24.8362 43.7576 24.7595 43.7572 24.6821V24.6552C43.7472 24.4946 43.6762 24.3438 43.5587 24.2337C43.4413 24.1236 43.2863 24.0625 43.1253 24.0628C42.5218 24.0359 41.9199 24.0628 41.2517 24.0628L41.258 24.0565ZM41.2864 21.6267V22.9475C41.8536 22.9143 42.3923 22.9048 42.9231 22.8432C43.0575 22.8327 43.1824 22.7699 43.271 22.6682C43.3597 22.5666 43.4049 22.4343 43.397 22.2997C43.397 21.9838 43.2391 21.7484 42.9231 21.7168C42.3891 21.6662 41.852 21.6552 41.2801 21.6267H41.2864Z" fill="#284C90"/>
<path d="M80.4121 20.5067H81.6033L82.9603 22.2982L84.3821 24.1576V20.524H85.6618V26.4815H84.5559L81.6759 22.7105V26.4815H80.4121V20.5067Z" fill="#284C90"/>
<path d="M102.605 26.581C100.784 26.581 99.4203 25.2666 99.4219 23.5051C99.4219 21.8874 100.618 20.3819 102.623 20.3803C104.509 20.3803 105.782 21.7358 105.811 23.4735C105.839 25.2113 104.411 26.5842 102.605 26.581ZM102.627 21.6283C101.578 21.6283 100.817 22.404 100.809 23.4846C100.818 23.8398 100.932 24.1844 101.136 24.4753C101.34 24.7663 101.625 24.9908 101.956 25.1207C102.286 25.2507 102.648 25.2804 102.995 25.2061C103.343 25.1318 103.661 24.9568 103.909 24.703C104.158 24.4491 104.326 24.1277 104.394 23.7788C104.461 23.4299 104.423 23.0689 104.287 22.741C104.15 22.4131 103.92 22.1326 103.625 21.9348C103.329 21.7369 102.983 21.6303 102.627 21.6283V21.6283Z" fill="#284C90"/>
<path d="M90.0121 26.5826C88.1985 26.5826 86.8525 25.2555 86.8525 23.4846C86.8525 21.8574 88.0974 20.3629 90.0738 20.3803C92.1133 20.3992 93.2792 21.9727 93.2334 23.5731C93.1749 25.284 91.8289 26.5857 90.0121 26.5826ZM88.2649 23.4799C88.2649 24.562 89.0295 25.3756 90.0485 25.3756C91.0675 25.3756 91.8289 24.5857 91.8305 23.5193C91.8321 22.453 91.0801 21.6394 90.0406 21.6346C89.0011 21.6299 88.2696 22.3819 88.2649 23.4799Z" fill="#284C90"/>
<path d="M51.9191 26.581C50.1008 26.581 48.8037 25.2919 48.7453 23.5415C48.7283 22.7213 49.0376 21.9279 49.6051 21.3355C50.1726 20.7431 50.952 20.4001 51.7722 20.3819H51.9428C53.8386 20.3913 55.1214 21.7437 55.1261 23.5178C55.1356 25.2571 53.739 26.581 51.9191 26.581ZM53.7138 23.4957C53.7138 22.4056 52.9602 21.6267 51.908 21.6283C50.8907 21.6283 50.1339 22.4182 50.1324 23.4893C50.1243 23.7296 50.1638 23.969 50.2486 24.194C50.3333 24.4189 50.4616 24.6249 50.6262 24.8002C50.7907 24.9754 50.9882 25.1165 51.2074 25.2152C51.4265 25.314 51.663 25.3685 51.9033 25.3756H51.9491C52.9697 25.363 53.7138 24.5715 53.7138 23.4957V23.4957Z" fill="#284C90"/>
<path d="M112.18 21.2429C111.902 21.573 111.638 21.8874 111.377 22.2002C110.055 21.4198 109.165 21.4435 108.5 22.2587C107.917 22.9727 107.947 24.1544 108.562 24.8069C108.891 25.1374 109.326 25.3404 109.791 25.3798C110.256 25.4191 110.719 25.2922 111.099 25.0217V24.2097H109.835V23.0533H112.379V25.6442C111.115 26.8875 108.789 26.9254 107.576 25.7074C106.363 24.4893 106.418 22.5478 107.59 21.3013C108.763 20.0548 111.156 20.1623 112.18 21.2429Z" fill="#284C90"/>
<path d="M61.8457 26.4815V20.5114H66.3197V21.6852H63.1917V22.8479H65.9405V24.0454H63.1917V25.295H66.3513V26.4815H61.8457Z" fill="#284C90"/>
<path d="M77.6115 24.0928H75.1897V26.4815H73.8848V20.5162H75.1676V22.8369H77.5831V20.5256H78.9085V26.4815H77.6084L77.6115 24.0928Z" fill="#284C90"/>
<path d="M72.761 21.3503L71.9711 22.2697C70.5746 21.4482 69.7183 21.4451 69.0991 22.2492C68.5051 23.0217 68.5682 24.2381 69.2349 24.8938C69.9458 25.5936 70.919 25.5257 71.9743 24.6947L72.7642 25.5494C71.8795 26.7879 69.6646 26.9933 68.3945 25.9127C68.0788 25.6434 67.8192 25.3145 67.6306 24.9448C67.4421 24.5751 67.3282 24.1719 67.2955 23.7582C67.2628 23.3445 67.3119 22.9284 67.44 22.5337C67.5681 22.1389 67.7727 21.7733 68.0422 21.4577C68.0896 21.404 68.1385 21.3503 68.1891 21.2997C69.3929 20.0659 71.6725 20.0738 72.761 21.3503Z" fill="#284C90"/>
<path d="M116.021 22.8748L117.46 20.5051H118.97C118.471 21.295 118.046 22.0644 117.517 22.7611C116.885 23.6078 116.558 24.4988 116.697 25.5636C116.716 25.8635 116.716 26.1642 116.697 26.4641H115.333C115.333 25.7895 115.346 25.1244 115.333 24.4593C115.331 24.2507 115.277 24.0459 115.175 23.8638C114.495 22.7579 113.795 21.6631 113.073 20.5209H114.623L116.021 22.8748Z" fill="#284C90"/>
<path d="M60.7956 20.5146V21.7247H59.0121V26.472H57.674V21.7421H55.8604V20.5146H60.7956Z" fill="#284C90"/>
<path d="M94.4346 20.5082H95.6984V25.2634H98.7V26.4815H94.4346V20.5082Z" fill="#284C90"/>
<path d="M47.5178 26.4894H46.2129V20.513H47.5178V26.4894Z" fill="#284C90"/>
<path d="M0.0173521 3.36739L0 3.34057L0.0141971 3.36896L0.0173521 3.36739Z" fill="#284C90"/>
<path d="M15.5285 26.0391L15.5461 26.0583H15.5269L15.5285 26.0391Z" fill="#284C90"/>
</g>
<defs>
<clipPath id="clip0">
<rect width="119" height="26.1488" fill="white" transform="translate(0 0.463737)"/>
</clipPath>
</defs>
</svg>
