<svg width="55" height="56" viewBox="0 0 55 56" fill="none" xmlns="http://www.w3.org/2000/svg">
<g clip-path="url(#clip0)">
<path d="M16.3486 10.8931H19.3451C20.9761 10.931 22.3037 12.2586 22.3037 13.8896V19.8069C22.2658 21.4379 20.9761 22.7655 19.3451 22.7655H16.3486V10.8931Z" fill="#31006F"/>
<path d="M32.6968 36.1551C32.6968 34.5241 34.0244 33.1965 35.6555 33.1965C37.2865 33.1965 38.6141 34.5241 38.6141 36.1931V41.6551L36.6417 39.6827L34.5555 41.7689L37.3244 44.5379C36.8313 44.8793 36.2624 45.0689 35.6555 45.0689C34.0244 45.0689 32.6968 43.7413 32.6968 42.1103V36.1551Z" fill="#31006F"/>
<path fill-rule="evenodd" clip-rule="evenodd" d="M0 55.5V0.5H55V55.5H0ZM20.8241 33.1965H25.3V30.2379H13.3897V33.1965H17.8276V45.069H13.3897V48.0276H25.3V45.069H20.8241V33.1965ZM19.3448 25.8C22.6069 25.7621 25.2621 23.1069 25.2621 19.8448V13.8897C25.2621 10.6276 22.6069 7.97241 19.3448 7.97241H13.3897V25.8H19.3448ZM34.9345 15.369C32.0517 15.4069 29.7379 17.7207 29.7379 20.6034L29.7 25.7621H41.6103V22.8034H32.6965V20.5655C32.6965 19.3138 33.7207 18.3276 34.9345 18.3276H36.4138C39.1069 18.1759 41.269 16.0517 41.3828 13.3586C41.4966 10.5138 39.2966 8.08621 36.4138 7.93448H29.7379V10.8931H36.4138C37.6655 10.8931 38.6517 11.9172 38.6517 13.131C38.6517 14.3828 37.6276 15.369 36.4138 15.369H34.9345ZM39.4483 46.7379L41.6862 48.9759L43.8103 46.8517L41.231 44.2724C41.4965 43.5897 41.6103 42.869 41.6103 42.1483V36.1931C41.5345 33.0069 38.9552 30.4655 35.8069 30.3897C32.5069 30.3138 29.7759 32.8931 29.7 36.1931V42.1483C29.7 43.5517 30.1931 44.8793 31.0655 45.9414C33.1517 48.4828 36.9069 48.8241 39.4483 46.7379Z" fill="#31006F"/>
</g>
<defs>
<clipPath id="clip0">
<rect width="55" height="55" fill="white" transform="translate(0 0.5)"/>
</clipPath>
</defs>
</svg>
