<svg width="99" height="30" viewBox="0 0 99 30" fill="none" xmlns="http://www.w3.org/2000/svg">
<g clip-path="url(#clip0)">
<path d="M10.4684 6.09081C4.68947 6.09081 0 10.7803 0 16.5592C0 18.975 0.852629 21.2013 2.22631 23.0013C2.32105 23.1434 2.46316 23.2855 2.5579 23.3803C2.7 23.5698 2.88947 23.7593 3.07895 23.9487C5.06842 26.0802 7.62632 27.6908 10.4684 28.5434C13.3105 27.6908 15.8685 26.0802 17.8579 23.9487C18.0474 23.7593 18.1894 23.5698 18.3789 23.3803C18.4736 23.2382 18.6158 23.096 18.7105 23.0013C20.0842 21.2487 20.9368 19.0224 20.9368 16.5592C20.9368 10.7803 16.2474 6.09081 10.4684 6.09081ZM10.4684 20.5381C8.2421 20.5381 6.4421 18.7381 6.4421 16.5119C6.4421 14.2855 8.2421 12.4856 10.4684 12.4856C12.6948 12.4856 14.4474 14.2855 14.4474 16.5119C14.4474 18.7381 12.6948 20.5381 10.4684 20.5381Z" fill="#FF8A3D"/>
<path d="M13.8793 5.85394C14.5898 5.71184 15.1109 5.09604 15.1109 4.33814C15.1109 3.48552 14.4004 2.82236 13.5951 2.82236C13.3582 2.82236 13.1214 2.86973 12.932 2.96446C12.6477 1.82762 11.653 0.974991 10.4688 0.974991C9.28455 0.974991 8.28985 1.82762 8.05297 2.96446C7.86349 2.86973 7.62665 2.82236 7.38981 2.82236C6.53718 2.82236 5.87402 3.53289 5.87402 4.33814C5.87402 5.09604 6.39508 5.71184 7.1056 5.85394C8.19508 5.47499 9.3319 5.28552 10.5161 5.28552C11.7003 5.28552 12.7898 5.47499 13.8793 5.85394Z" fill="#56C271"/>
<path d="M28.4208 16.7012H34.8155C35.6208 16.7012 36.2366 16.2276 36.2366 15.2328C36.2366 14.2381 35.6208 13.7644 34.8155 13.7644H29.226C28.9418 13.7644 28.7523 13.575 28.7523 13.3381V10.8276C28.7523 10.5433 28.9418 10.4013 29.226 10.4013H34.8155C35.6208 10.4013 36.2366 9.92756 36.2366 8.93283C36.2366 7.9381 35.6208 7.46442 34.8155 7.46442H28.4208C26.2418 7.46442 25.1997 8.41178 25.1997 10.2591V13.9539C25.1997 15.7539 26.2418 16.7012 28.4208 16.7012Z" fill="#FF8A3D"/>
<path d="M36.426 17.8855H30.126C27.2839 17.8855 25.4365 19.4487 25.4365 21.7224C25.4365 23.9486 27.2839 25.5118 30.126 25.5118H36.426C39.2681 25.5118 41.1628 23.9486 41.1628 21.7224C41.1628 19.4487 39.2681 17.8855 36.426 17.8855ZM36.426 22.575H30.126C29.4155 22.575 29.0366 22.196 29.0366 21.7224C29.0366 21.2013 29.4155 20.8224 30.126 20.8224H36.426C37.1365 20.8224 37.5155 21.2013 37.5155 21.7224C37.5155 22.196 37.1365 22.575 36.426 22.575Z" fill="#FF8A3D"/>
<path d="M41.7793 10.4487H40.7845V8.50657C40.7845 7.65394 40.0741 7.03815 38.9846 7.03815C37.9424 7.03815 37.1846 7.65394 37.1846 8.50657V15.9434C37.1846 16.796 37.9424 17.4118 38.9846 17.4118C40.0267 17.4118 40.7845 16.796 40.7845 15.9434V13.9066H41.7793C42.5845 13.9066 43.2477 13.1961 43.2477 12.1539C43.2477 11.2066 42.5845 10.4487 41.7793 10.4487Z" fill="#FF8A3D"/>
<path d="M59.6366 18.3592H44.9997C44.1471 18.3592 43.4365 17.7907 43.4365 16.7487C43.4365 15.8013 44.1471 15.1855 44.9997 15.1855H59.6366C60.4892 15.1855 61.1997 15.8013 61.1997 16.7487C61.1997 17.7907 60.5365 18.3592 59.6366 18.3592ZM56.6524 13.1961V11.3013C56.6524 10.9697 56.4629 10.7802 56.1786 10.7802H45.9944C45.0944 10.7802 44.384 10.2118 44.384 9.16972C44.384 8.12761 45.1418 7.51183 45.9944 7.51183H56.9366C59.1155 7.51183 60.205 8.64867 60.205 10.6382V13.2434C60.205 14.0961 59.4944 14.7118 58.405 14.7118C57.3155 14.7118 56.6524 14.0486 56.6524 13.1961ZM48.0786 20.396V21.675C48.0786 21.9118 48.2681 22.1013 48.5523 22.1013H59.0208C59.9208 22.1013 60.6313 22.6697 60.6313 23.7119C60.6313 24.7539 59.8734 25.3223 59.0208 25.3223H47.8418C45.6629 25.3223 44.526 24.4223 44.526 22.4329V20.396C44.526 19.5434 45.2366 18.9276 46.326 18.9276C47.3208 18.9276 48.0786 19.5907 48.0786 20.396Z" fill="#FF8A3D"/>
<path d="M63.0479 22.0539V9.97499C63.0479 8.31707 63.9005 7.46444 65.6058 7.46444H70.2952C72.0005 7.46444 72.8531 8.31707 72.8531 9.97499V22.0539C72.8531 23.7118 72.0005 24.5645 70.2952 24.5645H65.6058C63.8531 24.5645 63.0479 23.7118 63.0479 22.0539ZM69.4426 20.917V11.1118C69.4426 10.875 69.3004 10.7328 69.111 10.7328H66.79C66.6005 10.7328 66.4584 10.875 66.4584 11.1118V20.8697C66.4584 21.1066 66.6005 21.2486 66.79 21.2486H69.111C69.3004 21.2961 69.4426 21.1066 69.4426 20.917ZM74.9847 23.996V8.64865C74.9847 7.74865 75.7426 7.08549 76.7847 7.08549C77.8268 7.08549 78.5847 7.79602 78.5847 8.64865V13.6697H79.5794C80.3847 13.6697 81.0479 14.4276 81.0479 15.4223C81.0479 16.4644 80.3847 17.2224 79.5794 17.2224H78.5847V24.0434C78.5847 24.9434 77.8742 25.6065 76.7847 25.6065C75.7426 25.5592 74.9847 24.896 74.9847 23.996Z" fill="#FF8A3D"/>
<path d="M90.2366 11.2539H90.9469V8.50654C90.9469 7.70128 91.6102 7.18023 92.5573 7.18023C93.5052 7.18023 94.1677 7.70128 94.1677 8.50654V16.796C94.1677 17.6013 93.5523 18.1224 92.5573 18.1224C91.5632 18.1224 90.9469 17.5539 90.9469 16.7487V14.3329H90.2366C89.8579 14.3329 89.4784 14.1434 89.2416 13.8118C88.2467 15.9907 86.5414 17.7434 84.1258 18.8329C83.3685 19.1644 82.5154 18.975 82.0891 18.2171C81.6628 17.4591 81.947 16.5592 82.6103 16.2276C83.6993 15.754 84.5994 15.0907 85.3105 14.2855H83.5574C82.8941 14.2855 82.2785 13.9065 82.2785 13.0065C82.2785 12.2013 82.8471 11.7276 83.5574 11.7276H86.6363C86.7312 11.3961 86.826 11.0644 86.826 10.7328C86.8731 10.4486 86.7312 10.2592 86.4474 10.2592H83.6052C82.8 10.2592 82.2312 9.78549 82.2312 8.8855C82.2312 7.9855 82.8 7.46444 83.6052 7.46444H87.0158C89.2895 7.46444 90.3315 8.55391 89.9998 11.017C89.9998 11.1118 89.9998 11.2066 89.952 11.3013C90.0947 11.2539 90.1417 11.2539 90.2366 11.2539ZM96.6312 25.2276C94.4523 24.7539 91.847 23.5697 90.1417 22.196C88.5783 23.7592 86.4944 24.896 84.2677 25.3223C83.5104 25.4645 82.6573 25.1329 82.3733 24.1855C82.1365 23.2855 82.5624 22.5276 83.3685 22.2908C85.7841 21.675 87.7731 20.2539 88.7681 18.4066C89.0997 17.8381 89.9049 17.4591 90.8999 17.7434C91.894 18.0749 92.3205 19.0224 91.9889 19.6855V19.7328C93.4104 20.8697 95.4473 21.7697 97.4842 22.2434C98.2416 22.4328 98.7151 23.1907 98.4783 24.0907C98.2416 25.0381 97.3893 25.4171 96.6312 25.2276ZM94.9737 17.3171V8.41181C94.9737 7.60655 95.6362 7.08549 96.6312 7.08549C97.6261 7.08549 98.2894 7.60655 98.2894 8.41181V17.3171C98.2894 18.1224 97.6261 18.6434 96.6312 18.6434C95.6362 18.6434 94.9737 18.1224 94.9737 17.3171Z" fill="#FF8A3D"/>
</g>
<defs>
<clipPath id="clip0">
<rect width="99" height="28.05" fill="white" transform="translate(0 0.974991)"/>
</clipPath>
</defs>
</svg>
