<svg width="111" height="19" viewBox="0 0 111 19" fill="none" xmlns="http://www.w3.org/2000/svg">
<g clip-path="url(#clip0)">
<path d="M13.7731 3.0198C13.0834 2.33009 12.2265 1.82849 11.1815 1.49409C10.1365 1.15969 8.90342 0.992493 7.46131 0.992493H0V17.6498H7.46131C8.8825 17.6498 10.1365 17.4826 11.1815 17.1482C12.2265 16.8138 13.0834 16.3122 13.7731 15.6225C14.4628 14.9328 14.9644 14.0759 15.2988 13.0309C15.6332 11.9859 15.8004 10.7528 15.8004 9.31072C15.8004 7.86861 15.6332 6.63551 15.2988 5.5905C14.9644 4.5455 14.4628 3.68859 13.7731 3.0198ZM11.2442 11.6306C11.077 12.2576 10.8053 12.7592 10.4291 13.1354C10.0529 13.5116 9.55133 13.7833 8.92429 13.9505C8.29731 14.1177 7.54489 14.2013 6.62531 14.2013H4.11731V4.4619H6.62531C7.54489 4.4619 8.29731 4.5455 8.92429 4.7127C9.55133 4.8799 10.0529 5.1516 10.4291 5.5278C10.8053 5.904 11.077 6.4056 11.2442 7.03261C11.4114 7.6596 11.495 8.41201 11.495 9.33159C11.495 10.2512 11.4114 11.0036 11.2442 11.6306Z" fill="black"/>
<path d="M28.8214 6.63545C28.4034 6.21748 27.8809 5.90398 27.233 5.71588C26.5851 5.50688 25.8118 5.42328 24.934 5.42328H18.3087V8.43288H24.725C25.1848 8.43288 25.4983 8.53738 25.7073 8.72547C25.8954 8.91356 25.9999 9.24801 25.9999 9.6869V9.8332H21.381C20.1061 9.8332 19.1447 10.1676 18.4759 10.8364C17.8071 11.5052 17.4727 12.4875 17.4727 13.7415C17.4727 14.9955 17.8071 15.9569 18.4759 16.6466C19.1447 17.3363 20.127 17.6498 21.381 17.6498H30.0545V10.5229C30.0545 9.62418 29.95 8.87177 29.7619 8.22386C29.5529 7.57596 29.2394 7.05348 28.8214 6.63545ZM26.0417 14.682H22.5305C22.2379 14.682 21.9871 14.5984 21.8199 14.4312C21.6527 14.264 21.5691 14.0341 21.5691 13.7415C21.5691 13.428 21.6527 13.1981 21.8199 13.0309C21.9871 12.8637 22.217 12.7801 22.5305 12.7801H26.0417V14.682Z" fill="black"/>
<path d="M37.6203 14.3894C37.453 14.2222 37.3695 13.9505 37.3695 13.5325V8.43285H41.1315V5.42327H37.3695V2.14197H33.294V5.40237H31.6011V8.41199H33.294V13.7415C33.294 14.4521 33.3567 15.0582 33.5029 15.5598C33.6492 16.0614 33.8583 16.4585 34.1718 16.772C34.4852 17.0855 34.8823 17.3154 35.384 17.4408C35.8856 17.5871 36.4917 17.6498 37.2022 17.6498H41.1733V14.6402H38.4772C38.0592 14.6402 37.7875 14.5566 37.6203 14.3894Z" fill="black"/>
<path d="M53.922 6.63545C53.504 6.21748 52.9815 5.90398 52.3336 5.71588C51.6857 5.50688 50.9124 5.42328 50.0345 5.42328H43.4092V8.43288H49.8256C50.2854 8.43288 50.5989 8.53738 50.8079 8.72547C50.996 8.91356 51.1005 9.24801 51.1005 9.6869V9.8332H46.4816C45.2067 9.8332 44.2453 10.1676 43.5765 10.8364C42.9077 11.5052 42.5732 12.4875 42.5732 13.7415C42.5732 14.9955 42.9077 15.9569 43.5765 16.6466C44.2453 17.3363 45.2276 17.6498 46.4816 17.6498H55.1551V10.5229C55.1551 9.62418 55.0506 8.87177 54.8625 8.22386C54.6535 7.57596 54.34 7.05348 53.922 6.63545ZM51.1214 14.682H47.6101C47.3175 14.682 47.0667 14.5984 46.8996 14.4312C46.7324 14.264 46.6488 14.0341 46.6488 13.7415C46.6488 13.428 46.7324 13.1981 46.8996 13.0309C47.0667 12.8637 47.2967 12.7801 47.6101 12.7801H51.1214V14.682Z" fill="black"/>
<path d="M65.9393 7.55509H62.8252C62.3235 7.55509 61.9266 7.42972 61.6758 7.15799C61.4038 6.88632 61.2784 6.5101 61.2784 6.0085C61.2784 5.5069 61.4038 5.13069 61.6758 4.85899C61.9472 4.58729 62.3235 4.4619 62.8252 4.4619H70.2866V0.992493H61.9266C60.2544 0.992493 59.0007 1.41049 58.1643 2.22559C57.3285 3.04069 56.9316 4.2947 56.9316 5.9876C56.9316 7.68052 57.3496 8.93449 58.1643 9.77048C58.9796 10.6065 60.2339 11.0245 61.9266 11.0245H65.1035C66.1485 11.0245 66.6919 11.547 66.6919 12.6129C66.6919 13.6788 66.1691 14.2013 65.1035 14.2013H57.3912V17.6707H65.9182C67.5904 17.6707 68.8442 17.2527 69.7011 16.3958C70.558 15.5389 70.997 14.2849 70.997 12.6129C70.997 10.9409 70.558 9.6869 69.7011 8.8509C68.8442 8.01491 67.5904 7.55509 65.9393 7.55509Z" fill="black"/>
<path d="M78.3749 14.3894C78.2079 14.2222 78.1241 13.9505 78.1241 13.5325V8.43285H81.8864V5.42327H78.1241V2.14197H74.0487V5.40237H72.356V8.41199H74.0487V13.7415C74.0487 14.4521 74.1114 15.0582 74.2579 15.5598C74.4039 16.0614 74.6131 16.4585 74.9267 16.772C75.2403 17.0855 75.6371 17.3154 76.1388 17.4408C76.6406 17.5871 77.2466 17.6498 77.957 17.6498H81.928V14.6402H79.2318C78.835 14.6402 78.5425 14.5566 78.3749 14.3894Z" fill="black"/>
<path d="M94.6773 6.63545C94.2593 6.21748 93.7371 5.90398 93.0888 5.71588C92.4412 5.50688 91.668 5.42328 90.79 5.42328H84.1644V8.43288H90.5808C91.0409 8.43288 91.3545 8.53738 91.5631 8.72547C91.7513 8.91356 91.8556 9.24801 91.8556 9.6869V9.8332H87.2369C85.9621 9.8332 85.0008 10.1676 84.3321 10.8364C83.6633 11.5052 83.3286 12.4875 83.3286 13.7415C83.3286 14.9955 83.6633 15.9569 84.3321 16.6466C85.0008 17.3363 85.9832 17.6498 87.2369 17.6498H95.9105V10.5229C95.9105 9.62418 95.8061 8.87177 95.618 8.22386C95.4087 7.57596 95.0952 7.05348 94.6773 6.63545ZM91.8767 14.682H88.3658C88.0727 14.682 87.8224 14.5984 87.6548 14.4312C87.4878 14.264 87.404 14.0341 87.404 13.7415C87.404 13.428 87.4878 13.1981 87.6548 13.0309C87.8224 12.8637 88.0522 12.7801 88.3658 12.7801H91.8767V14.682Z" fill="black"/>
<path d="M106.214 11.4843L110.728 5.42328H106.381L103.894 8.95535L101.407 5.42328H96.8925L101.407 11.4843L96.6416 17.6498H101.198L103.768 13.9923L106.319 17.6498H110.979L106.214 11.4843Z" fill="black"/>
</g>
<defs>
<clipPath id="clip0">
<rect width="111" height="17.205" fill="white" transform="translate(0 0.992493)"/>
</clipPath>
</defs>
</svg>
