<svg width="64" height="65" viewBox="0 0 64 65" fill="none" xmlns="http://www.w3.org/2000/svg">
<g clip-path="url(#clip0)">
<path d="M28.5869 16.839C30.1642 15.7632 32.1968 16.1875 31.8571 16.5101C31.5093 16.8408 31.596 16.9423 31.7657 17.1409C31.9125 17.3127 32.1213 17.5571 32.1645 18.0853C32.2328 18.9247 31.9586 19.3881 31.7229 19.6515C31.2307 19.7157 30.6319 19.8372 29.9111 20.0707C29.4847 20.2092 29.1139 20.3639 28.7891 20.517C28.7033 20.4614 28.6117 20.3934 28.4999 20.298C27.3863 19.3338 27.4235 17.6328 28.5869 16.839Z" fill="#612BA6"/>
<path d="M40.8018 22.7039C41.4344 22.6288 42.3347 22.5866 42.527 22.6931C42.9089 22.9043 42.909 23.5558 42.6484 24.1592C42.2677 25.0356 41.7295 26.0011 41.1195 26.0815C40.1261 26.2126 39.1848 25.6747 38.1108 24.8725C37.7276 24.5856 37.4922 23.8871 38.0105 23.4865C38.2956 23.2641 39.5965 22.8461 40.8018 22.7039Z" fill="#612BA6"/>
<path d="M38.3844 15.621C38.3936 15.6024 38.4027 15.5838 38.4112 15.5644C38.4286 15.5244 38.4578 15.4861 38.4861 15.449C38.5726 15.3357 38.6504 15.234 38.3552 15.1315C38.3217 15.1203 38.2796 15.1107 38.2322 15.1045C38.4915 14.7831 39.2691 14.7039 39.8235 14.961C41.1085 15.5592 41.1226 16.6291 41.1328 17.3989C41.1342 17.5088 41.1356 17.6125 41.1406 17.7079C41.1521 17.9269 41.1484 18.0753 41.1301 18.1766C40.9267 18.0666 40.6055 17.9862 40.0968 18.0085C39.9468 18.016 39.8019 18.0321 39.6614 18.0554C39.1198 17.7651 38.7959 17.1961 38.5009 16.593L38.4325 16.4383L38.4067 16.3716L38.3962 16.3421C38.2524 15.8895 38.319 15.7542 38.3844 15.621Z" fill="#612BA6"/>
<path d="M43.7136 34.2188L47.9101 36.9868L51.0996 30.2999L52.2319 42.4788L32.7399 46.0701L32.5564 44.348L36.1415 38.8763L40.2129 40.0667L43.7136 34.2188Z" fill="#612BA6"/>
<path fill-rule="evenodd" clip-rule="evenodd" d="M52.2692 26.2769L53.5341 26.0359L55.5616 45.8166L30.7047 48.8098L30.1628 44.9539L28.6609 45.1716C28.7938 47.3201 28.2901 49.3598 27.3417 50.3356C26.2305 51.4766 24.6159 51.7719 22.9143 51.5409C21.7684 51.385 20.9177 50.5567 20.2879 49.5443C22.6454 51.2083 25.5634 50.4393 26.5628 49.0471C27.9677 47.089 27.6069 45.2418 27.0848 43.5148C26.6767 42.1635 25.5696 39.9194 24.1954 39.0505C22.7954 38.1638 21.4323 37.997 20.278 38.1169L20.3845 37.9933C22.045 37.6644 23.7798 37.8464 25.0373 38.6548C26.4634 39.571 27.768 41.1446 28.45 43.5542C28.8486 43.4976 29.0712 43.4569 29.29 43.417C29.496 43.3794 29.6985 43.3424 30.0413 43.2933L28.4463 30.8771L31.8196 30.5063C30.2373 29.4902 28.6003 28.0324 27.886 27.2265C27.7644 27.1361 27.7842 26.7343 27.7842 26.7343C28.4305 27.2374 31.1103 29.1526 33.9438 30.0265C34.9423 30.3355 36.4762 30.452 37.8069 29.6976C38.8237 29.1203 40.0476 28.1153 40.7783 27.0806L40.9106 27.3129C40.9072 27.4675 40.5697 28.2166 40.4001 28.5169C40.6667 28.6715 40.8765 28.7282 41.1513 28.8025C41.1934 28.8139 41.2371 28.8257 41.2827 28.8383L43.6305 28.4725C44.4711 27.1113 45.0749 24.9169 44.4327 22.8287C44.0644 21.6309 42.1507 19.2461 42.0134 19.1138C41.81 18.9189 41.7922 18.4887 41.7683 17.9104C41.7354 17.1167 41.6909 16.0437 41.1392 14.9166C40.1321 12.858 37.5123 10.7111 36.3677 9.7732L36.3634 9.76966C36.4474 9.83087 36.6386 9.92844 36.8933 10.0584C37.6623 10.4508 39.0103 11.1387 39.7339 12.0135C39.782 11.95 39.8152 11.7448 39.8481 11.5423C39.8773 11.3622 39.9062 11.1843 39.9448 11.1097C39.1165 10.0256 39.0519 8.0945 39.0519 7.57773C39.0519 6.63207 38.5709 5.55878 38.5709 5.55878C38.5709 5.55878 39.4004 6.21406 39.6137 7.34419C39.8665 8.68301 40.406 9.73643 41.1193 10.6277C42.4697 12.3103 43.6877 13.1731 44.3051 12.5526C45.0417 11.8048 43.5585 8.46531 41.66 6.59977C39.5003 4.47824 38.8957 4.69495 37.6603 5.13779C37.6302 5.14859 37.5996 5.15953 37.5687 5.17058C37.2078 5.29924 36.9046 5.74008 36.5486 6.25762C35.8822 7.22662 35.0307 8.46453 33.2693 8.42586C32.8119 8.374 31.6324 8.3442 31.0507 8.34916C31.3547 7.92525 31.6137 7.59761 31.6137 7.59761C31.6137 7.59761 30.7072 7.9622 29.9358 8.42463L29.8753 8.33426C30.1368 7.78426 30.4172 7.43798 30.4172 7.43798C30.4172 7.43798 29.693 7.87307 29.0318 8.39357C29.1535 7.73953 29.6073 7.32307 29.6073 7.32307C29.6073 7.32307 28.692 7.4886 27.5265 8.77059C26.5357 9.04078 26.107 9.24301 25.5127 9.52342C25.3126 9.61786 25.0936 9.72116 24.828 9.83892C23.1116 9.46438 22.3017 8.85972 21.5305 7.74699C20.9426 6.89792 19.8973 6.76779 18.8271 7.20692C17.2706 7.85351 15.3001 8.73488 15.3001 8.73488C15.3001 8.73488 15.9414 8.71002 16.6109 8.73983C15.6957 9.08735 14.8128 9.56437 14.8128 9.56437C14.8128 9.56437 15.2429 9.5495 15.7724 9.55821C15.4069 9.86256 15.2035 10.0082 14.856 10.2383C14.0178 10.8467 13.3383 11.5501 13.3383 11.5501C13.3383 11.5501 13.9075 11.2905 14.4184 11.1446C14.3081 11.3977 14.1642 11.6302 14.022 11.8601C13.7038 12.3744 13.3934 12.876 13.4833 13.5688C13.6085 14.4849 14.7308 16.3703 16.1818 17.5262C16.1885 17.5317 16.2008 17.5424 16.2181 17.5574C16.5205 17.819 18.3699 19.4189 19.7818 18.707C21.2749 17.9567 21.8641 17.2852 22.1094 16.2592C22.3985 15.0784 22.2336 14.1871 21.6184 11.6265C21.415 10.7821 20.8855 9.04144 20.629 8.21069L20.6871 8.16877C21.1747 9.19983 22.4247 11.9172 22.9294 13.7421C23.7157 16.588 23.4688 18.0321 23.1092 18.561C22.0253 20.1586 19.2436 20.3685 17.98 19.4834C17.8094 22.1872 18.3217 23.5556 18.6032 24.3074C18.6409 24.4081 18.6745 24.4978 18.7017 24.5781C18.5865 25.3595 19.0924 26.8098 19.0924 26.8098C19.0924 26.8098 19.1508 26.1496 19.3815 25.802C19.4446 26.5787 19.834 27.4983 19.834 27.4983C19.834 27.4983 19.8104 26.9297 19.989 26.439C20.1414 26.6968 20.2695 26.8353 20.3994 26.9757C20.4831 27.0662 20.5675 27.1576 20.6598 27.2822C20.8967 28.1104 21.3731 28.7173 21.3731 28.7173C21.3731 28.7173 21.2949 28.2722 21.3383 27.8098C22.4976 28.9238 22.6961 30.5496 22.8128 31.7983C23.0196 33.9849 20.7686 35.8863 18.818 37.5339C17.7048 38.4742 16.6895 39.3319 16.2849 40.1126C15.4427 41.3847 14.938 43.3987 16.3654 44.5844C17.3949 45.4397 17.9974 46.1086 18.3843 46.6611L13.538 47.3645L8.4374 5.97312L49.8396 1.17249L52.2692 26.2769ZM32.8601 31.3061L29.7325 31.7365L31.6312 47.5785L53.5825 43.6223L52.2754 27.8024L39.4626 30.1269C39.1452 30.5359 38.3601 31.2542 37.9831 31.4409C36.3635 32.257 35.2697 32.0207 34.3247 31.7747L34.2732 31.7616C33.6979 31.6153 33.3515 31.5272 32.8601 31.3061Z" fill="#612BA6"/>
<path d="M62.0384 63.0869V60.8646H60.3583L60.9536 59.3025H63.8009V64.2692C63.0341 64.6062 62.0754 64.7745 60.9198 64.7745C57.5623 64.7745 55.8834 63.1236 55.8834 59.827C55.8834 56.704 57.5925 55.1444 61.0071 55.1444C62.0499 55.1444 62.981 55.3003 63.8009 55.6093V57.2034C62.981 56.8484 62.094 56.6711 61.1403 56.6711C58.8571 56.6711 57.7142 57.7226 57.7142 59.827C57.7142 62.1065 58.7912 63.2453 60.9477 63.2453C61.267 63.2453 61.6319 63.1935 62.0384 63.0869Z" fill="#612BA6"/>
<path fill-rule="evenodd" clip-rule="evenodd" d="M49.9794 55.1444C46.7952 55.1444 45.2014 56.7534 45.2014 59.973C45.3446 63.1733 46.9359 64.7745 49.9794 64.7745C53.1151 64.7745 54.6822 63.1733 54.6822 59.973C54.6822 56.7534 53.1151 55.1444 49.9794 55.1444ZM52.853 59.9323C52.853 62.1407 51.8949 63.2441 49.9794 63.2441C48.0145 63.2441 47.0325 62.1407 47.0325 59.9323C47.0325 57.758 48.0145 56.6698 49.9794 56.6698C51.8949 56.6698 52.853 57.758 52.853 59.9323Z" fill="#612BA6"/>
<path fill-rule="evenodd" clip-rule="evenodd" d="M35.4253 64.7062H39.5496C42.5219 64.7062 44.008 63.0363 44.008 59.7003C44.008 56.709 42.5219 55.2127 39.5496 55.2127H35.4253V64.7062ZM39.2834 63.1782H37.1878V56.7369H39.2834C41.2561 56.7369 42.2443 57.7239 42.2443 59.6994C42.2443 62.0189 41.2561 63.1782 39.2834 63.1782Z" fill="#612BA6"/>
<path d="M24.1949 64.7062H26.0054L29.1374 57.0245L30.6946 60.591H28.7182L28.1138 62.1164H31.1607L32.3582 64.7062H34.2548L30.1294 55.2127H28.234L24.1949 64.7062Z" fill="#612BA6"/>
<path d="M25.0995 55.2127H17.8803V56.7394H20.6095V64.7062H22.3716V56.7394H25.0995V55.2127Z" fill="#612BA6"/>
<path d="M8.81751 64.7062H10.6281L13.7613 57.0245L15.3185 60.591H13.3421L12.7362 62.1164H15.7834L16.9809 64.7062H18.8775L14.7508 55.2127H12.8554L8.81751 64.7062Z" fill="#612BA6"/>
<path fill-rule="evenodd" clip-rule="evenodd" d="M0.198242 64.7062H4.32216C7.29329 64.7062 8.78087 63.0363 8.78087 59.7003C8.78087 56.709 7.29329 55.2127 4.32216 55.2127H0.198242V64.7062ZM4.05632 63.1782H1.96191V56.7369H4.05632C6.03024 56.7369 7.01596 57.7239 7.01596 59.6994C7.01596 62.0189 6.03024 63.1782 4.05632 63.1782Z" fill="#612BA6"/>
</g>
<defs>
<clipPath id="clip0">
<rect width="64" height="63.9994" fill="white" transform="translate(0 0.973877)"/>
</clipPath>
</defs>
</svg>
