<svg width="73" height="62" viewBox="0 0 73 62" fill="none" xmlns="http://www.w3.org/2000/svg">
<path fill-rule="evenodd" clip-rule="evenodd" d="M53.212 0.983978L33.1808 21.1195H16.1849L0 37.3044H19.7996V57.4399L39.9351 37.3044H56.8151L73 21.1195H53.212V0.983978ZM49.1339 10.7621V21.1195H38.765L49.1339 10.7621ZM17.8184 25.1976H29.1143L21.074 33.2263H9.78972L17.8184 25.1976ZM34.9302 25.1976H46.226L38.0698 33.2263H26.7856L34.9302 25.1976ZM51.926 25.1976H63.2219L55.1816 33.2263H43.8973L51.926 25.1976ZM34.235 37.1886L23.8776 47.546V37.3044L34.235 37.1886Z" fill="#231F20"/>
<path fill-rule="evenodd" clip-rule="evenodd" d="M39.8184 49.4228V61.4021H43.2013C46.8065 61.4021 50.0715 60.2451 50.0715 55.4704C50.0715 50.5776 46.8065 49.4228 43.2013 49.4228H39.8184ZM42.2629 51.2764H43.6647C45.6497 51.2764 47.6154 52.7879 47.6154 55.4704C47.6154 58.0348 45.6497 59.5485 43.6647 59.5485H42.2629V51.2764Z" fill="#231F20"/>
<path fill-rule="evenodd" clip-rule="evenodd" d="M66.7318 49.3996C66.4502 49.3919 66.174 49.4081 65.8977 49.4228H61.5879V61.4022H64.0324V56.9765H64.38H65.7818C66.8226 56.9765 67.1763 57.329 67.5196 58.2625L68.8172 61.4022H71.7252L69.7441 57.2198C69.39 56.5224 69.2692 56.2879 68.6898 55.9338C68.6898 55.9338 70.7889 55.3542 70.6709 53.0259C70.6709 50.1718 68.7034 49.4535 66.7318 49.3996ZM64.0324 51.3923H65.666C66.9428 51.3923 67.9916 51.749 68.0989 53.0259V53.3619C67.9916 54.6494 66.9428 54.9954 65.666 54.9954H64.0324V51.3923Z" fill="#231F20"/>
<path fill-rule="evenodd" clip-rule="evenodd" d="M52.5142 61.4023H59.6172V59.428H54.9497V49.4171H52.5142V61.4023Z" fill="#231F20"/>
</svg>
