<svg width="86" height="20" viewBox="0 0 86 20" fill="none" xmlns="http://www.w3.org/2000/svg">
<path d="M0.833496 18.8748V17.8106C2.69988 17.8106 3.22835 17.2508 3.22835 15.739V4.26113C3.22835 2.74925 2.69915 2.18948 0.833496 2.18948V1.12526H14.3968L15.1211 3.64531C15.2048 3.92556 15.2601 4.17742 15.2601 4.28952C15.2601 4.42928 15.0097 4.70953 14.7033 4.70953C14.5082 4.70953 14.4245 4.59743 14.1187 4.12137C12.8653 2.24553 11.25 1.90996 8.77145 1.90996C7.04483 1.90996 6.84974 2.1902 6.84974 3.30974V8.85285H9.05024C10.6655 8.85285 11.2784 8.48889 11.6402 6.8649C11.6962 6.55699 11.7515 6.5286 12.1694 6.50094C12.5035 6.50094 12.6425 6.58465 12.6425 7.03305V12.5201C12.6425 12.8003 12.4198 12.8841 12.1133 12.8841C11.8069 12.8841 11.7515 12.8004 11.7232 12.6883C10.9712 10.2242 10.4981 10.0845 9.04951 10.0845H6.84902V16.0476C6.84902 17.5318 7.12781 17.8113 9.71774 17.8113C13.1433 17.8113 14.0904 16.7755 15.4829 14.3676C15.5666 14.2278 15.6219 14.1434 15.956 14.1434C16.2625 14.1434 16.3738 14.2271 16.3738 14.3392C16.3738 14.4513 16.3462 14.591 16.3185 14.8429L15.7056 18.8748H0.833496Z" fill="black"/>
<path d="M20.9412 4.26113C20.9412 2.74925 20.412 2.18948 18.3789 2.18948V1.12526H25.5642C30.0758 1.12526 32.5267 2.63715 32.5267 5.29696C32.5267 7.78863 30.1872 8.9089 28.572 9.38423V9.44028C31.9138 9.86028 33.5298 12.1001 33.5298 14.1717C33.5298 16.076 32.0813 18.8756 27.0681 18.8756H18.3789V17.8113C20.412 17.8113 20.9412 17.2516 20.9412 15.7397V4.26113ZM24.5618 7.92839C24.5618 8.74075 24.952 9.02027 26.0934 9.02027C27.82 9.02027 29.1849 8.26396 29.1849 5.57648C29.1849 2.97272 27.9598 2.18875 25.9544 2.18875C24.8399 2.18875 24.5618 2.63642 24.5618 3.64459V7.92839ZM24.5618 15.8794C24.5618 17.3629 25.0073 17.8113 26.6786 17.8113C28.9068 17.8113 30.0205 16.2434 30.0205 14.0036C30.0205 11.3161 28.2939 10.0838 25.9544 10.0838C24.7846 10.0838 24.5618 10.308 24.5618 11.4275V15.8794Z" fill="black"/>
<path d="M46.3411 4.8209C46.3411 5.40906 46.2298 5.52116 45.868 5.52116C45.5615 5.52116 45.4502 5.35301 45.0884 4.62509C44.4478 3.30902 43.0276 1.96528 41.245 1.96528C39.6297 1.96528 38.2372 3.08555 38.2372 4.59743C38.2372 8.54494 47.2052 7.53677 47.2052 13.668C47.2052 16.132 45.8403 19.0998 40.6881 19.0998C39.2119 19.0998 36.761 18.5677 35.7863 18.0355C35.5912 17.7837 35.3408 15.5715 35.3408 14.3676C35.3408 13.7794 35.4522 13.5836 35.9261 13.5836C36.3999 13.5836 36.5106 13.6396 36.7057 14.3676C37.0121 15.4594 38.1819 18.0355 41.2173 18.0355C43 18.0355 44.5876 17.1395 44.5876 15.2076C44.5876 11.0359 35.6196 11.568 35.6196 5.99649C35.6196 2.52505 38.9615 0.901062 41.6912 0.901062C44.3095 0.901062 46.0638 1.68503 46.2312 1.90923C46.2589 2.30085 46.3426 2.66481 46.3426 3.75669V4.8209H46.3411Z" fill="black"/>
<path d="M65.3075 15.795C65.2238 16.5229 65.1124 16.8308 64.862 17.1387C64.4442 17.6432 62.1877 19.099 58.2613 19.099C53.053 19.099 48.8755 15.0118 48.8755 10C48.8755 4.98833 53.053 0.901062 58.2613 0.901062C61.4641 0.901062 65.1685 2.2448 65.1685 3.50483C65.1685 4.73647 64.9734 5.80068 64.9734 6.24835C64.9734 6.4165 64.8344 6.80812 64.5003 6.80812C64.2215 6.80812 64.1101 6.72441 63.7207 5.68858C62.8013 3.30902 60.7966 1.96455 58.262 1.96455C55.7834 1.96455 52.7757 4.09226 52.7757 10C52.7757 15.9071 55.7834 18.0348 59.0977 18.0348C62.1615 18.0348 63.9995 15.1231 64.362 14.2271C64.6124 13.6389 64.6961 13.5829 65.0302 13.5829C65.309 13.5829 65.4757 13.7226 65.4757 13.9468C65.4757 14.115 65.448 14.3668 65.4204 14.8145L65.3075 15.795Z" fill="black"/>
<path d="M76.6143 0.901062C81.8226 0.901062 86.0001 4.98905 86.0001 10C86.0001 15.011 81.8226 19.099 76.6143 19.099C71.406 19.099 67.2285 15.0118 67.2285 10C67.2285 4.98833 71.406 0.901062 76.6143 0.901062ZM76.6143 18.0348C79.0929 18.0348 82.1006 15.9071 82.1006 10C82.1006 4.09226 79.0929 1.96455 76.6143 1.96455C74.1357 1.96455 71.1273 4.09299 71.1273 10C71.1273 15.9071 74.1357 18.0348 76.6143 18.0348Z" fill="black"/>
</svg>
