<svg width="99" height="44" viewBox="0 0 99 44" fill="none" xmlns="http://www.w3.org/2000/svg">
<g clip-path="url(#clip0)">
<path fill-rule="evenodd" clip-rule="evenodd" d="M20.1139 5.92262C20.2373 4.88225 20.0845 3.3599 20.9074 2.6428C21.1484 1.5319 22.8941 1.79052 22.6237 1.08518C22.4532 0.644346 21.6304 0.855948 21.3012 0.932359C20.1302 1.31321 18.9391 1.62913 17.7334 1.87869L16.5578 1.55541C15.0531 1.75525 14.2067 2.95433 13.3485 3.90653C12.6432 4.70004 11.6968 6.65147 12.4433 7.82116C12.4022 8.07978 12.361 8.33253 12.314 8.59115L14.0303 11.0892C14.6181 11.5124 14.7004 11.8239 15.3352 12.2648L15.729 12.8526C16.4601 13.1662 17.2787 13.2099 18.039 12.976C20.5018 13.2052 20.2373 8.21497 21.0191 7.16284C20.8833 6.65068 20.5602 6.20812 20.1139 5.92262V5.92262ZM9.50442 20.9346C10.1429 20.8418 10.7721 20.6943 11.3853 20.4937C12.1318 20.1234 14.6887 18.3307 13.8775 16.8789C13.6189 13.8106 9.90412 16.4028 8.32886 15.3271C6.7301 15.1214 4.93736 12.1061 4.46126 10.813C4.38992 10.5433 4.26387 10.2912 4.09096 10.0724C4.09096 10.0253 3.93226 10.2134 3.93226 10.1664C3.46791 10.713 3.54432 11.1833 3.47379 12.5175L2.84486 12.4764C2.86267 12.8322 2.75212 13.1826 2.53334 13.4639L2.39227 13.7048C1.99846 13.5755 2.19242 13.7636 2.03372 13.4286C0.56427 13.505 0.675948 14.9803 0 15.8209C0.0293891 18.5717 5.484 21.9691 9.50442 20.9346ZM27.6081 12.5646C25.9127 12.7737 24.2901 13.3777 22.8706 14.3279C22.4965 14.5666 22.1747 14.8785 21.9242 15.2448C21.754 15.5569 21.6979 15.9186 21.7655 16.2676C21.7843 16.4851 21.846 16.6968 21.9468 16.8905C22.0477 17.0842 22.1858 17.256 22.3533 17.3961C25.2922 17.1845 30.353 16.9964 31.3405 19.4533C31.3934 19.7943 31.4698 20 31.4757 20.0823C32.4455 19.8413 31.7402 19.9295 33.1626 20.1528C33.7261 20.1411 34.2856 20.0541 34.826 19.8942C34.9822 19.8471 35.1172 19.7474 35.2081 19.612C35.1834 19.4942 35.1715 19.3739 35.1728 19.2535C35.4142 19.2761 35.6572 19.2356 35.8782 19.1359C37.2301 18.9126 36.5189 18.2778 37.1595 17.5607C36.801 12.976 32.0929 11.8827 27.6081 12.5646ZM22.3886 22.5568C21.7126 23.0741 21.4246 22.9448 21.0308 23.7324C20.9897 23.7324 21.0896 23.85 21.0308 23.85C21.4364 24.6611 22.3592 24.9844 23.041 25.5486C23.2585 25.7309 23.8287 26.7242 24.1049 26.8006C24.4106 27.165 24.6104 28.176 24.8102 28.176C25.0218 28.464 24.8102 29.1341 24.9983 29.3927C24.9983 30.5683 24.8455 30.68 24.6339 30.9092C24.6339 30.9915 24.7515 31.209 24.7515 31.2913C24.7515 31.3736 25.2864 31.691 25.498 31.6498C26.1504 31.6498 28.8307 33.7599 29.0246 34.1655C30.9467 34.3066 30.788 33.7188 32.1281 33.1604C32.4867 33.0017 32.7747 33.1604 33.0098 32.9077C33.2449 32.6549 33.2743 32.1553 33.5094 31.9026C33.6035 27.1827 27.1379 22.7097 22.3886 22.5451V22.5568ZM14.8238 23.6266C14.5535 23.9087 13.8246 24.0145 13.6189 24.3378C13.1552 25.1072 12.6178 25.8296 12.0143 26.495C10.198 28.223 6.30102 29.0871 4.37309 27.4354C4.24966 27.4354 4.32607 27.5177 4.47302 27.9879C4.61408 28.8872 5.33118 30.9797 5.0608 31.5146C5.23713 32.1024 5.41347 31.8908 5.74262 32.22C5.96598 32.4433 6.05415 33.0252 6.3304 33.1839L7.2062 33.1193C7.2591 33.2838 7.31788 33.4484 7.37078 33.613L8.48756 33.5483C8.69916 33.5954 9.33984 33.9245 9.52793 33.9715L10.7799 33.8893C11.7321 34.142 12.5433 33.7423 13.372 33.1957C13.8246 32.8959 14.3184 32.9429 14.7122 32.6079C15.4039 31.9894 15.9984 31.2701 16.4755 30.4742C17.3807 28.8285 17.0633 24.8903 16.2522 23.9205C15.9054 23.5561 15.5292 23.5561 14.8238 23.6266Z" fill="#FE5815"/>
<path d="M60.9291 12.8894C64.8849 12.8894 67.5593 15.3875 67.5593 19.8605C67.5593 25.4856 63.8857 27.1431 60.0357 27.1431H54.8809C54.8809 26.8316 54.8809 26.0028 54.8809 24.9624V15.076C54.8809 14.0356 54.8809 13.3714 54.8809 12.8894H60.9291ZM59.7536 24.4393C61.9401 24.4393 63.7152 23.7163 63.7152 19.8605C63.7152 16.5807 61.9519 15.4933 59.7536 15.4933H58.6309V24.4393H59.7536Z" fill="#09357A"/>
<path d="M73.1607 24.9624C73.1607 26.0028 73.2136 27.1431 73.2136 27.1431H69.3931C69.3931 27.1431 69.3931 26.0028 69.3931 24.9624V15.076C69.3931 14.0356 69.3931 12.8894 69.3931 12.8894H78.4273V15.6461C78.4273 15.6461 76.4053 15.5991 75.7235 15.5991H73.1607V18.4674H75.7235C76.1996 18.4674 77.8512 18.4674 77.8512 18.4674V21.0948C77.8512 21.0948 76.3877 21.0537 75.7235 21.0537H73.1607V24.9624Z" fill="#09357A"/>
<path d="M47.2513 24.263C46.8343 24.2877 46.4167 24.2252 46.0251 24.0794C45.6336 23.9336 45.2768 23.7077 44.9775 23.4162C44.6783 23.1247 44.4431 22.7739 44.2871 22.3864C44.1311 21.9988 44.0576 21.5829 44.0714 21.1654V21.0008C44.0714 21.0008 47.41 20.9244 48.5445 20.9244C50.4724 20.9244 51.2659 20.9244 52.7824 20.8832V19.8076C52.7824 14.9467 50.7193 12.5838 46.4813 12.5838C44.524 12.5838 39.9746 13.3185 39.9746 20.125C39.9746 24.6627 42.267 27.3723 46.2697 27.3723C49.4144 27.3723 51.3482 26.573 52.7353 25.5502C52.5766 25.3151 51.4011 23.1991 51.2541 22.9816C50.0932 23.8296 48.6889 24.2791 47.2513 24.263ZM44.0714 18.2676C44.1243 17.4388 44.4241 15.5227 46.5049 15.5227C48.5856 15.5227 48.7561 17.3272 48.7561 18.2735V18.4675C48.7561 18.4675 47.3336 18.5086 46.4813 18.5086C45.6291 18.5086 44.0597 18.4675 44.0597 18.4675L44.0714 18.2676Z" fill="#09357A"/>
<path d="M40.6569 37.5292C40.6569 37.0178 40.6158 36.5065 40.604 36.0068H41.7208L41.7619 37.1119C41.9133 36.7118 42.1953 36.3745 42.5623 36.1547C42.9293 35.935 43.3597 35.8456 43.7839 35.901V37.0766C43.6388 37.0476 43.491 37.0338 43.3431 37.0355C42.4202 37.0178 41.8325 37.7878 41.8325 39.3278V43.0602H40.6569V37.5292Z" fill="#09357A"/>
<path d="M45.6112 39.8803C45.6112 41.5143 46.246 42.2726 47.5333 42.2726C48.1199 42.2395 48.6839 42.0352 49.1556 41.6848L49.2085 42.7369C48.5858 43.0166 47.9102 43.1589 47.2276 43.1543C45.3644 43.1543 44.3945 41.7436 44.3945 39.5276C44.3945 37.3117 45.3585 35.901 47.1218 35.901C48.7088 35.901 49.5964 37.1765 49.5964 39.2514V39.8744L45.6112 39.8803ZM48.4326 38.9928C48.4326 37.5272 47.9722 36.7945 47.0513 36.7945C46.3048 36.7945 45.6406 37.347 45.6112 38.9928H48.4326Z" fill="#09357A"/>
<path d="M50.8846 37.5292C50.8846 37.0178 50.8434 36.5064 50.8258 36.0068H51.9485L51.9896 37.0766C52.1227 36.7202 52.3647 36.4148 52.6813 36.2038C52.9978 35.9928 53.3728 35.8868 53.7529 35.901C54.9873 35.901 55.8161 36.6063 55.8161 38.1581V43.0543H54.6405V38.5108C54.6405 37.3881 54.229 36.9061 53.4649 36.9061C52.548 36.9061 51.9661 37.5409 51.9661 38.8164V43.0602H50.7905L50.8846 37.5292Z" fill="#09357A"/>
<path d="M58.4193 39.8803C58.4193 41.5143 59.06 42.2726 60.3473 42.2726C60.9321 42.2394 61.4942 42.035 61.9637 41.6848L62.0166 42.7369C61.3962 43.0174 60.7224 43.1597 60.0416 43.1542C58.1725 43.1542 57.2026 41.7436 57.2026 39.5276C57.2026 37.3117 58.1725 35.901 59.9299 35.901C61.5228 35.901 62.4045 37.1824 62.4045 39.2573V39.8803H58.4193ZM61.2289 38.9928C61.2289 37.5292 60.7705 36.7945 59.8418 36.7945C59.0953 36.7945 58.4311 37.347 58.4017 38.9928H61.2289Z" fill="#09357A"/>
<path d="M70.363 43.0602H69.0346L67.5534 37.0766H67.524L66.1662 43.0602H64.8437L62.9922 36.0068H64.1678L65.5079 41.8846H65.5373L66.8774 36.0068H68.2822L69.6753 41.8846H69.7046L71.033 36.0068H72.2086L70.363 43.0602Z" fill="#09357A"/>
<path d="M73.1962 36.4888C73.7926 36.1109 74.4828 35.9073 75.1888 35.901C75.8775 35.8746 76.5503 36.1122 77.0697 36.5652C77.2877 36.793 77.4533 37.0657 77.5548 37.3642C77.6563 37.6627 77.6914 37.9798 77.6575 38.2933V41.9787C77.6562 42.3379 77.6738 42.697 77.7104 43.0543H76.6583L76.5877 42.1021C76.3868 42.4432 76.0954 42.722 75.7458 42.9077C75.3962 43.0934 75.002 43.1787 74.6069 43.1543C74.334 43.1775 74.0593 43.1409 73.802 43.0469C73.5447 42.9529 73.311 42.8038 73.1173 42.6101C72.9236 42.4164 72.7746 42.1828 72.6806 41.9255C72.5866 41.6682 72.5499 41.3935 72.5732 41.1205C72.5732 39.751 73.4725 38.7694 75.8942 38.7694H76.5701V38.4285C76.6174 38.0311 76.5238 37.6296 76.3056 37.2941C76.1567 37.1349 75.9734 37.0118 75.7696 36.9344C75.5659 36.857 75.3471 36.8272 75.13 36.8474C74.7944 36.8422 74.4612 36.9047 74.1502 37.0309C73.8392 37.1571 73.5568 37.3445 73.3197 37.5821L73.1962 36.4888ZM76.5701 39.6041C76.298 39.5872 76.0252 39.5872 75.7531 39.6041C74.3836 39.6041 73.737 40.2565 73.737 41.0735C73.7163 41.2352 73.732 41.3995 73.7829 41.5543C73.8339 41.7091 73.9188 41.8506 74.0315 41.9684C74.1442 42.0861 74.2818 42.1772 74.4343 42.2349C74.5867 42.2927 74.7501 42.3156 74.9126 42.302C75.1379 42.2992 75.3604 42.2507 75.5666 42.1596C75.7727 42.0685 75.9583 41.9366 76.1121 41.7718C76.2658 41.607 76.3847 41.4128 76.4614 41.2009C76.5381 40.9889 76.5711 40.7637 76.5583 40.5386L76.5701 39.6041Z" fill="#09357A"/>
<path d="M79.2145 32.6859H80.3901V36.9767H80.4195C80.5835 36.6468 80.8382 36.3704 81.1536 36.1799C81.469 35.9894 81.8321 35.8927 82.2005 35.901C83.6523 35.901 84.6339 37.0766 84.6339 39.5277C84.6339 41.9787 83.6523 43.1543 82.2005 43.1543C81.8153 43.1638 81.4357 43.0617 81.1072 42.8605C80.7787 42.6592 80.5154 42.3673 80.349 42.0199L80.3078 43.0543H79.1558C79.1558 42.6253 79.2145 42.1844 79.2145 41.7553V32.6859ZM81.9242 42.2138C82.9881 42.2138 83.476 41.3028 83.476 39.5335C83.476 37.7643 82.9881 36.8474 81.9242 36.8474C80.8603 36.8474 80.3725 37.7643 80.3725 39.5335C80.3725 41.3028 80.8603 42.2138 81.9242 42.2138V42.2138Z" fill="#09357A"/>
<path d="M86.0923 32.6859H87.2678V43.0602H86.0923V32.6859Z" fill="#09357A"/>
<path d="M89.9189 39.8803C89.9189 41.5143 90.5595 42.2726 91.8468 42.2726C92.4316 42.2394 92.9937 42.035 93.4632 41.6848L93.5161 42.7369C92.8957 43.0174 92.2219 43.1597 91.5411 43.1542C89.672 43.1542 88.7021 41.7436 88.7021 39.5276C88.7021 37.3117 89.672 35.901 91.4295 35.901C93.0223 35.901 93.904 37.1765 93.904 39.2514V39.8744L89.9189 39.8803ZM92.7402 38.9928C92.7402 37.5292 92.2876 36.7945 91.3589 36.7945C90.6124 36.7945 89.9482 37.347 89.9189 38.9928H92.7402Z" fill="#09357A"/>
<path d="M94.8861 41.6907C95.3823 42.0138 95.9576 42.1948 96.5495 42.2138C97.4312 42.2138 97.8896 41.7612 97.8896 41.2204C97.8896 40.6797 97.6428 40.4034 96.9903 40.1154L96.2145 39.7686C95.2035 39.3101 94.8332 38.8576 94.8332 37.9582C94.8355 37.672 94.8968 37.3894 95.0133 37.1279C95.1297 36.8665 95.2989 36.6319 95.5102 36.4388C95.7215 36.2457 95.9704 36.0983 96.2412 36.0057C96.5121 35.9132 96.7991 35.8776 97.0844 35.901C97.5932 35.8948 98.0989 35.9804 98.5774 36.1538L98.5245 37.1471C98.0885 36.9495 97.6159 36.8453 97.1373 36.8415C96.3791 36.8415 95.9617 37.2588 95.9617 37.8113C95.9617 38.3638 96.3732 38.6989 97.1373 38.9869L97.5546 39.1514C97.9494 39.2614 98.2982 39.4958 98.5492 39.8199C98.8002 40.1439 98.9399 40.5403 98.9477 40.9501C98.9477 42.1668 98.3011 43.1366 96.6788 43.1366C96.0201 43.1489 95.3677 43.0059 94.7744 42.7193L94.8861 41.6907Z" fill="#09357A"/>
</g>
<defs>
<clipPath id="clip0">
<rect width="99" height="42.3203" fill="white" transform="translate(0 0.83989)"/>
</clipPath>
</defs>
</svg>
