<svg width="72" height="42" viewBox="0 0 72 42" fill="none" xmlns="http://www.w3.org/2000/svg">
<g clip-path="url(#clip0)">
<path d="M46.0262 7.57832L47.4131 0.941944H6.68065L0 32.8489H34.057L32.1817 41.4061H64.805L72 7.57832H46.0262Z" fill="#02262B"/>
<path d="M13.8825 28.7754C12.9592 28.7754 12.0867 28.6243 11.2662 28.3209C10.4458 28.0188 9.72954 27.5721 9.11878 26.9822C8.50801 26.3922 8.02617 25.6669 7.67195 24.8048C7.31773 23.9427 7.14062 22.9529 7.14062 21.8343C7.14062 20.3054 7.3529 18.912 7.77874 17.6553C8.20458 16.3986 8.79711 15.3216 9.55634 14.423C10.3156 13.5258 11.2259 12.8304 12.2885 12.3381C13.3499 11.8459 14.5128 11.5997 15.7747 11.5997C16.6264 11.5997 17.4338 11.7482 18.1995 12.0464C18.964 12.3446 19.6333 12.777 20.2076 13.3474C20.7819 13.9165 21.239 14.6171 21.5776 15.4479C21.9162 16.2788 22.0855 17.2334 22.0855 18.3103C22.0855 18.4744 22.0803 18.6672 22.0699 18.8872C22.0595 19.1086 22.0438 19.3339 22.023 19.5644C22.0022 19.7949 21.9813 20.0215 21.9618 20.2416C21.9409 20.4617 21.9162 20.6492 21.8849 20.8029H9.92618C9.91577 20.9474 9.90795 21.0855 9.90274 21.2183C9.89753 21.3524 9.89493 21.4905 9.89493 21.6337C9.89493 22.4854 10.0186 23.2108 10.2648 23.8111C10.5109 24.4115 10.8313 24.9011 11.2272 25.2814C11.6217 25.6617 12.0658 25.9351 12.5581 26.1044C13.0503 26.2737 13.5478 26.3584 14.0505 26.3584C15.1483 26.3584 16.0312 26.1682 16.698 25.7893C17.3648 25.4103 17.8726 24.8972 18.2217 24.25H21.0385C20.864 24.8868 20.5762 25.4819 20.1764 26.0354C19.7766 26.5889 19.2713 27.0694 18.6605 27.4744C18.0498 27.8794 17.3413 28.1985 16.5365 28.429C15.7317 28.6595 14.8462 28.7754 13.8825 28.7754ZM19.2843 18.6632C19.2947 18.6125 19.3025 18.5174 19.3077 18.378C19.313 18.24 19.3156 18.1033 19.3156 17.9704C19.3156 17.4261 19.2361 16.9104 19.0772 16.4233C18.9184 15.9363 18.6801 15.5078 18.361 15.138C18.0432 14.7682 17.6474 14.4764 17.1759 14.2603C16.7032 14.0454 16.1549 13.9373 15.5286 13.9373C14.8917 13.9373 14.2966 14.0506 13.7431 14.2759C13.1884 14.5012 12.6857 14.8228 12.2351 15.2383C11.7832 15.6537 11.3938 16.1512 11.0657 16.7307C10.7375 17.3102 10.4757 17.9548 10.2804 18.6619H19.2843V18.6632Z" fill="white"/>
<path d="M29.6374 28.7754C28.8066 28.7754 28.0265 28.6191 27.2972 28.3053C26.568 27.9927 25.9299 27.5434 25.3816 26.9587C24.832 26.374 24.3984 25.6656 24.0806 24.8347C23.7629 24.0039 23.604 23.0754 23.604 22.0492C23.604 21.0542 23.7043 20.1023 23.9035 19.1946C24.1028 18.2869 24.388 17.4456 24.7578 16.6708C25.1277 15.8959 25.5704 15.1953 26.0887 14.5702C26.607 13.9438 27.1813 13.4112 27.8129 12.9697C28.4445 12.5283 29.1256 12.1897 29.8601 11.954C30.5933 11.7182 31.3603 11.5997 32.1612 11.5997C32.7564 11.5997 33.3229 11.6818 33.862 11.8459C34.4011 12.01 34.8882 12.2378 35.3244 12.5309C35.7607 12.8239 36.1345 13.1768 36.4483 13.5922C36.7609 14.0076 36.9901 14.4621 37.1333 14.9544H37.3794L39.4266 5.30325H42.1197L37.1945 28.4837H34.6395L35.1161 26.2216H34.87C34.2644 27.0121 33.5052 27.6346 32.5923 28.0917C31.6794 28.5462 30.6936 28.7754 29.6374 28.7754ZM30.4839 26.3896C31.346 26.3896 32.143 26.1878 32.8775 25.7815C33.6107 25.3765 34.2501 24.8217 34.7931 24.1198C35.3375 23.4166 35.7633 22.5909 36.0707 21.6416C36.378 20.6922 36.533 19.6686 36.533 18.5708C36.533 17.8624 36.4353 17.2269 36.2399 16.6617C36.0446 16.0978 35.7672 15.6172 35.4091 15.2227C35.0497 14.8281 34.6134 14.522 34.1003 14.3072C33.5872 14.091 33.0077 13.9842 32.3605 13.9842C31.5088 13.9842 30.7183 14.1743 29.9903 14.5533C29.2611 14.9336 28.6308 15.461 28.0968 16.1382C27.5629 16.8153 27.1423 17.624 26.8349 18.5617C26.5276 19.4993 26.3726 20.5294 26.3726 21.6481C26.3726 22.3461 26.4729 22.9868 26.6735 23.5715C26.874 24.1562 27.1527 24.6563 27.5121 25.0717C27.8715 25.4872 28.3026 25.8101 28.8053 26.0419C29.308 26.2737 29.8679 26.3896 30.4839 26.3896Z" fill="white"/>
<path d="M66.278 11.9396H60.2707L53.7176 20.0528H53.3947L49.9293 11.9396H43.8529L49.062 23.7239L37.8169 37.0448H43.7435L50.9607 28.4876H51.4478L55.3468 37.0448H61.3099L55.5434 24.3138L66.278 11.9396Z" fill="white"/>
</g>
<defs>
<clipPath id="clip0">
<rect width="72" height="40.4642" fill="white" transform="translate(0 0.941944)"/>
</clipPath>
</defs>
</svg>
