<svg width="76" height="25" viewBox="0 0 76 25" fill="none" xmlns="http://www.w3.org/2000/svg">
<g clip-path="url(#clip0)">
<path d="M28.8334 6.75989C29.1934 6.7697 29.5518 6.70833 29.888 6.57932C30.2243 6.45031 30.5317 6.25619 30.7927 6.00809C31.0538 5.75999 31.2633 5.4628 31.4092 5.13356C31.5551 4.80432 31.6346 4.44952 31.6431 4.08949C31.6043 3.37376 31.2927 2.7001 30.7724 2.20715C30.252 1.7142 29.5625 1.43945 28.8457 1.43945C28.1289 1.43945 27.4394 1.7142 26.9191 2.20715C26.3987 2.7001 26.0871 3.37376 26.0483 4.08949C26.0558 4.44772 26.1337 4.80098 26.2778 5.12908C26.4218 5.45718 26.629 5.75369 26.8876 6.00168C27.1463 6.24966 27.4512 6.44426 27.7851 6.57436C28.119 6.70446 28.4752 6.7675 28.8334 6.75989Z" fill="#E03D52"/>
<path d="M70.4469 9.00434C69.5136 8.9705 68.585 9.1516 67.7328 9.53366C66.8806 9.91573 66.1276 10.4885 65.532 11.2078C65.0783 10.5006 64.4468 9.92481 63.7007 9.53812C62.9547 9.15144 62.1202 8.96738 61.2807 9.00434C60.4716 8.9817 59.6681 9.14407 58.9313 9.47909C58.1946 9.81411 57.5441 10.3129 57.0293 10.9375V9.61051C57.0189 9.49755 56.9655 9.3929 56.8801 9.3182C56.7948 9.24349 56.6839 9.20445 56.5706 9.20913H56.3822L52.9828 9.6187C52.8785 9.63759 52.7841 9.69197 52.7154 9.7726C52.6467 9.85323 52.608 9.95514 52.606 10.061V24.1257C52.606 24.2474 52.6543 24.364 52.7403 24.4501C52.8263 24.5361 52.943 24.5844 53.0647 24.5844H56.6853C56.8069 24.5844 56.9236 24.5361 57.0096 24.4501C57.0957 24.364 57.144 24.2474 57.144 24.1257V15.7786C57.144 14.0093 58.2171 12.9117 59.6915 12.9117C61.166 12.9117 62.0015 13.8782 62.0015 15.6148V24.1011C62.0015 24.2228 62.0498 24.3395 62.1359 24.4255C62.2219 24.5115 62.3386 24.5599 62.4602 24.5599H66.1218C66.2354 24.5605 66.3452 24.519 66.43 24.4433C66.5147 24.3677 66.5683 24.2632 66.5805 24.1503V15.7786C66.5805 14.0093 67.6208 12.9117 69.0953 12.9117C70.5697 12.9117 71.438 13.8782 71.438 15.6148V24.1749C71.4502 24.2878 71.5039 24.3922 71.5886 24.4679C71.6733 24.5436 71.7831 24.5851 71.8967 24.5844H75.5419C75.6543 24.5853 75.763 24.5449 75.8476 24.4709C75.9322 24.397 75.9866 24.2945 76.0007 24.183V15.0414C76.0007 11.3717 73.9938 9.00434 70.4387 9.00434" fill="#E03D52"/>
<path d="M49.1487 9.61045C49.1487 9.55021 49.1368 9.49056 49.1138 9.43491C49.0907 9.37925 49.0569 9.32869 49.0143 9.28609C48.9717 9.24349 48.9212 9.2097 48.8655 9.18665C48.8099 9.1636 48.7502 9.15173 48.69 9.15173H48.5753L44.9465 9.60226C44.8394 9.6197 44.742 9.67453 44.6715 9.75701C44.601 9.83949 44.562 9.94429 44.5615 10.0528V17.9493C44.5998 18.3435 44.5541 18.7412 44.4275 19.1164C44.3008 19.4916 44.096 19.8357 43.8267 20.126C43.5573 20.4162 43.2295 20.6461 42.8648 20.8004C42.5001 20.9547 42.1068 21.0299 41.7109 21.0211C40.1381 21.0211 39.0651 19.9562 39.0651 18.1213V9.60226C39.0609 9.48487 39.0118 9.37355 38.928 9.29125C38.8442 9.20895 38.732 9.16195 38.6145 9.15993H38.4179L34.8874 9.60226C34.7804 9.6197 34.6829 9.67453 34.6124 9.75701C34.5419 9.83949 34.503 9.94429 34.5024 10.0528V18.6947C34.5024 22.5283 36.5421 24.9612 40.1299 24.9612C40.9834 24.9847 41.8319 24.8243 42.6177 24.4907C43.4036 24.1571 44.1085 23.6583 44.6844 23.028V24.142C44.6844 24.2623 44.7316 24.3777 44.8158 24.4635C44.9001 24.5493 45.0147 24.5986 45.1349 24.6008H48.69C48.8102 24.5986 48.9248 24.5493 49.0091 24.4635C49.0933 24.3777 49.1405 24.2623 49.1405 24.142V9.61045H49.1487Z" fill="#E03D52"/>
<path d="M30.6524 9.15173H30.4886L26.9007 9.59407C26.7951 9.61323 26.6996 9.66881 26.6308 9.75112C26.5619 9.83344 26.5241 9.93729 26.5239 10.0446V24.1338C26.5361 24.2468 26.5897 24.3512 26.6745 24.4269C26.7592 24.5025 26.869 24.5441 26.9826 24.5434H30.6442C30.7578 24.5441 30.8676 24.5025 30.9524 24.4269C31.0371 24.3512 31.0908 24.2468 31.1029 24.1338V9.58588C31.0946 9.46998 31.0427 9.36156 30.9575 9.2825C30.8724 9.20343 30.7604 9.15963 30.6442 9.15993" fill="#E03D52"/>
<path d="M22.4605 0.485229H22.2967L18.7088 0.943949C18.6033 0.963112 18.5077 1.01869 18.4389 1.101C18.37 1.18332 18.3322 1.28717 18.332 1.39448V24.1502C18.3442 24.2632 18.3979 24.3676 18.4826 24.4433C18.5673 24.5189 18.6771 24.5605 18.7908 24.5598H22.4523C22.5659 24.5605 22.6757 24.5189 22.7605 24.4433C22.8452 24.3676 22.8989 24.2632 22.911 24.1502V0.911183C22.9028 0.79669 22.852 0.689427 22.7686 0.610568C22.6852 0.53171 22.5753 0.486987 22.4605 0.485229" fill="#E03D52"/>
<path d="M15.6463 15.1643C14.6551 10.7655 11.354 8.46376 6.86509 9.04535C5.63646 9.22542 4.46674 9.6895 3.44884 10.4007C2.43094 11.112 1.59291 12.0507 1.0013 13.1425C0.409689 14.2343 0.0808073 15.449 0.0407733 16.6901C0.000739335 17.9312 0.250656 19.1645 0.770674 20.2922C3.53118 25.8787 10.2318 26.231 14.7452 22.7496C14.8723 22.6727 14.9667 22.5517 15.0105 22.4098C15.0543 22.2678 15.0444 22.1148 14.9828 21.9796C14.7452 21.2588 14.4831 20.5461 14.1636 19.8007C14.1119 19.7225 14.0441 19.6561 13.9647 19.606C13.8854 19.5559 13.7964 19.5232 13.7035 19.51C13.6106 19.4969 13.516 19.5036 13.4258 19.5297C13.3357 19.5558 13.2522 19.6007 13.1807 19.6614L12.4107 20.2021C11.048 21.184 9.37048 21.6274 7.70062 21.4472C7.12445 21.3863 6.5688 21.1991 6.07324 20.8989C5.57769 20.5988 5.15443 20.193 4.83362 19.7106C5.59542 19.4485 6.2835 19.2027 6.97158 18.9815C9.59283 18.1624 12.2141 17.2777 14.8353 16.4094C15.6545 16.1309 15.8101 15.8688 15.6545 15.1643H15.6463ZM4.2766 16.3685C3.87522 15.1807 5.29234 13.0919 6.96339 12.5349C7.73228 12.2412 8.58175 12.2371 9.35341 12.5235C10.1251 12.8098 10.7662 13.3671 11.1574 14.0913L4.2766 16.3685" fill="#E03D52"/>
</g>
<defs>
<clipPath id="clip0">
<rect width="76" height="24.5087" fill="white" transform="translate(0 0.485229)"/>
</clipPath>
</defs>
</svg>
