<svg width="114" height="33" viewBox="0 0 114 33" fill="none" xmlns="http://www.w3.org/2000/svg">
<g clip-path="url(#clip0)">
<path d="M64.8372 0.689303C63.797 0.688276 62.7798 0.995834 61.9145 1.57306C61.0491 2.15029 60.3744 2.97124 59.9757 3.93204C59.577 4.89285 59.4723 5.95032 59.6748 6.97065C59.8773 7.99098 60.3779 8.92831 61.1133 9.66405C61.8487 10.3998 62.7857 10.9009 63.806 11.1039C64.8262 11.3069 65.8837 11.2027 66.8447 10.8045C67.8057 10.4063 68.627 9.73196 69.2047 8.86687C69.7823 8.00177 70.0904 6.98476 70.0899 5.94453C70.0899 4.55121 69.5366 3.21491 68.5516 2.22944C67.5666 1.24397 66.2306 0.689992 64.8372 0.689303ZM64.8372 9.0447C64.221 9.0447 63.6186 8.86196 63.1062 8.5196C62.5938 8.17724 62.1945 7.69062 61.9587 7.1213C61.7228 6.55197 61.6611 5.92549 61.7814 5.3211C61.9016 4.7167 62.1983 4.16153 62.6341 3.72579C63.0698 3.29004 63.625 2.99329 64.2294 2.87307C64.8338 2.75285 65.4603 2.81455 66.0296 3.05038C66.5989 3.2862 67.0855 3.68555 67.4279 4.19794C67.7703 4.71032 67.953 5.31271 67.953 5.92895C67.953 6.7544 67.6254 7.54612 67.0422 8.13028C66.459 8.71445 65.6679 9.04332 64.8424 9.0447H64.8372Z" fill="#028DA5"/>
<path d="M5.6604 12.5213C6.40835 12.5108 7.15046 12.6543 7.84059 12.9428C8.53071 13.2314 9.15408 13.6589 9.67192 14.1987C10.192 14.7186 10.6041 15.3363 10.8845 16.0162C11.1744 16.6966 11.3228 17.429 11.3207 18.1686V19.498C11.3235 19.6505 11.2955 19.802 11.2385 19.9435C11.1814 20.0849 11.0964 20.2134 10.9885 20.3213C10.8807 20.4292 10.7522 20.5142 10.6107 20.5712C10.4693 20.6283 10.3178 20.6563 10.1652 20.6534H2.25904V21.0896C2.25787 21.5417 2.35071 21.9891 2.53167 22.4034C2.88419 23.2185 3.53417 23.8684 4.34919 24.221C4.76263 24.4049 5.21049 24.4987 5.66299 24.4962H8.64113C8.78703 24.4902 8.93263 24.5138 9.06917 24.5656C9.20571 24.6174 9.33037 24.6962 9.43565 24.7974C9.53611 24.9001 9.6148 25.022 9.667 25.1559C9.7192 25.2897 9.74384 25.4327 9.73943 25.5763C9.74715 25.7269 9.72421 25.8775 9.67199 26.019C9.61977 26.1605 9.53936 26.2899 9.43565 26.3994C9.33072 26.5011 9.20612 26.5802 9.06949 26.632C8.93287 26.6838 8.7871 26.7072 8.64113 26.7006H5.66559C4.92372 26.7071 4.18795 26.566 3.50107 26.2857C2.81418 26.0053 2.18988 25.5912 1.66445 25.0674C1.15028 24.552 0.738019 23.9442 0.449312 23.2759C0.150872 22.5858 -0.00204217 21.8415 0.000124516 21.0896V18.1297C-0.00481512 17.3874 0.137259 16.6514 0.418154 15.9642C0.707209 15.2776 1.13607 14.6586 1.67744 14.1467V14.1753C2.19369 13.6326 2.81821 13.2045 3.51053 12.9186C4.19628 12.6539 4.92533 12.5191 5.6604 12.5213V12.5213ZM9.03579 18.1556C9.03462 17.7094 8.94497 17.2679 8.77205 16.8565C8.59913 16.4452 8.34636 16.0722 8.02837 15.7591C7.72582 15.4391 7.35932 15.1864 6.9527 15.0173C6.54608 14.8482 6.10843 14.7665 5.66819 14.7777C5.22354 14.7681 4.78169 14.8503 4.37024 15.0192C3.95879 15.188 3.58658 15.4399 3.27685 15.7591C2.95586 16.0759 2.70159 16.4537 2.52907 16.8704C2.35654 17.2769 2.26821 17.7141 2.26943 18.1556V18.3867H9.02541L9.03579 18.1556Z" fill="#028DA5"/>
<path d="M19.7669 12.5214C20.4048 12.5171 21.0368 12.6444 21.6233 12.8952C22.1898 13.1354 22.7066 13.4788 23.1475 13.9079C23.5892 14.3358 23.9421 14.8466 24.186 15.4112C24.4385 15.9946 24.5667 16.6242 24.5625 17.2599V25.6075C24.5694 25.7619 24.5418 25.916 24.4816 26.0584C24.4214 26.2008 24.3302 26.3279 24.2146 26.4306C24.01 26.6234 23.7401 26.7318 23.459 26.7344C23.1453 26.7448 22.8392 26.6363 22.6022 26.4306C22.4898 26.3267 22.4017 26.1994 22.3442 26.0575C22.2868 25.9157 22.2614 25.7629 22.2698 25.6101V17.2495C22.2728 16.9167 22.2037 16.5872 22.0673 16.2836C21.9378 15.9936 21.7566 15.7297 21.5325 15.5047C21.306 15.2823 21.0424 15.1013 20.7535 14.9698C20.4488 14.834 20.1186 14.7649 19.785 14.7673H17.9805C17.6606 14.7619 17.343 14.8218 17.0471 14.9432C16.7511 15.0646 16.483 15.2451 16.2591 15.4735C15.7898 15.9262 15.5112 16.5411 15.4801 17.1924V25.5971C15.4875 25.7486 15.4629 25.9 15.4078 26.0414C15.3528 26.1827 15.2686 26.3109 15.1608 26.4176C15.0517 26.5187 14.9238 26.5974 14.7844 26.649C14.6449 26.7007 14.4967 26.7244 14.3481 26.7188C14.0436 26.7279 13.7473 26.6201 13.5198 26.4176C13.4062 26.3134 13.3172 26.1853 13.2593 26.0425C13.2013 25.8997 13.1759 25.7458 13.1848 25.5919V13.6482C13.176 13.495 13.2012 13.3417 13.2587 13.1994C13.3161 13.0571 13.4044 12.9293 13.5172 12.8251C13.7441 12.618 14.0437 12.5088 14.3507 12.5214C14.5851 12.4965 14.8208 12.5553 15.016 12.6874C15.2113 12.8195 15.3536 13.0163 15.4178 13.2432C16.1802 12.7592 17.0672 12.5083 17.9701 12.5214H19.7669Z" fill="#028DA5"/>
<path d="M32.3415 12.5214C33.0898 12.5105 33.8325 12.6538 34.5231 12.9423C35.2137 13.2309 35.8374 13.6586 36.3556 14.1987C36.8748 14.7193 37.2868 15.3368 37.5681 16.0162C37.8571 16.6969 38.0047 17.4292 38.0017 18.1687V19.498C38.0045 19.6503 37.9767 19.8016 37.9198 19.9429C37.8629 20.0842 37.7781 20.2126 37.6705 20.3204C37.5629 20.4282 37.4347 20.5133 37.2936 20.5705C37.1524 20.6277 37.0012 20.6559 36.8489 20.6535H28.9427V21.0897C28.9403 21.5419 29.0332 21.9895 29.2153 22.4035C29.5659 23.2198 30.2165 23.8705 31.0329 24.221C31.4463 24.4049 31.8942 24.4987 32.3467 24.4962H35.3222C35.4681 24.4902 35.6137 24.5139 35.7502 24.5656C35.8868 24.6174 36.0114 24.6962 36.1167 24.7974C36.2168 24.9002 36.2951 25.0222 36.3469 25.1561C36.3986 25.29 36.4228 25.4329 36.4179 25.5763C36.4255 25.7267 36.4028 25.8771 36.351 26.0185C36.2993 26.1599 36.2196 26.2895 36.1167 26.3994C36.0118 26.5011 35.8872 26.5803 35.7506 26.6321C35.6139 26.6839 35.4682 26.7072 35.3222 26.7006H32.3493C31.6074 26.7071 30.8716 26.5661 30.1847 26.2857C29.4978 26.0053 28.8735 25.5912 28.3481 25.0674C27.8339 24.552 27.4217 23.9442 27.133 23.2759C26.8314 22.5786 26.6784 21.826 26.6838 21.0663V18.1297C26.6776 17.3873 26.8197 16.6511 27.1018 15.9643C27.3909 15.2776 27.8197 14.6586 28.3611 14.1467V14.1753C28.8768 13.632 29.5015 13.2038 30.1942 12.9186C30.8789 12.6534 31.6072 12.5187 32.3415 12.5214V12.5214ZM35.7169 18.1557C35.7163 17.7143 35.6281 17.2774 35.4572 16.8704C35.2826 16.4536 35.0266 16.0758 34.7042 15.7591C34.4019 15.4389 34.0354 15.186 33.6288 15.0168C33.2221 14.8477 32.7843 14.7662 32.3441 14.7777C31.8995 14.7686 31.4578 14.851 31.0464 15.0199C30.635 15.1887 30.2627 15.4403 29.9527 15.7591C29.6336 16.0774 29.3796 16.4549 29.2049 16.8704C29.0336 17.2772 28.9453 17.7142 28.9453 18.1557V18.3868H35.7117L35.7169 18.1557Z" fill="#028DA5"/>
<path d="M46.7494 12.5214C46.8955 12.5153 47.0414 12.5391 47.178 12.5913C47.3146 12.6436 47.4391 12.7231 47.5439 12.8251C47.6475 12.9351 47.7276 13.0651 47.7794 13.207C47.8312 13.349 47.8535 13.5 47.8451 13.6508C47.8551 13.9492 47.7469 14.2394 47.5439 14.4583C47.4418 14.565 47.3181 14.6486 47.1811 14.7037C47.0441 14.7588 46.8969 14.784 46.7494 14.7777H44.9033C44.5821 14.7765 44.2635 14.8346 43.9634 14.949C43.6668 15.059 43.4001 15.2369 43.1845 15.4683C42.718 15.9267 42.4488 16.549 42.4341 17.2028V25.6075C42.4419 25.7607 42.4157 25.9137 42.3573 26.0556C42.299 26.1975 42.2099 26.3246 42.0966 26.428C41.8706 26.6313 41.5747 26.7392 41.2709 26.7292C40.9835 26.7255 40.707 26.6186 40.4919 26.428C40.3723 26.3273 40.2773 26.2005 40.2143 26.0574C40.1512 25.9142 40.1219 25.7586 40.1284 25.6023V13.6586C40.1215 13.5027 40.1507 13.3473 40.2138 13.2045C40.2768 13.0617 40.372 12.9354 40.4919 12.8355C40.7061 12.6431 40.983 12.5351 41.2709 12.5317C41.5124 12.5219 41.7509 12.5873 41.9538 12.7187C42.1358 12.8467 42.2808 13.0205 42.3744 13.2224C43.1341 12.7542 44.011 12.5112 44.9033 12.5214H46.7494Z" fill="#028DA5"/>
<path d="M59.9218 26.711C59.9287 27.4669 59.7747 28.2157 59.4701 28.9076C59.1765 29.5738 58.7578 30.1776 58.2368 30.6861C57.156 31.7358 55.7085 32.3226 54.2019 32.3219H50.7486C50.4603 32.3204 50.1828 32.2122 49.9696 32.0181C49.8584 31.9216 49.7698 31.8018 49.7101 31.6672C49.6504 31.5326 49.6211 31.3864 49.6243 31.2392C49.6171 31.085 49.6443 30.931 49.704 30.7887C49.7638 30.6463 49.8545 30.519 49.9696 30.4161C50.1824 30.2217 50.4604 30.1142 50.7486 30.1149H54.2019C54.6478 30.1186 55.0898 30.0302 55.5001 29.8553C55.9045 29.683 56.274 29.4384 56.5906 29.1335C56.9106 28.8238 57.1664 28.4541 57.3436 28.0455C57.5293 27.6317 57.624 27.1828 57.6214 26.7291V25.649C56.6425 26.3966 55.4356 26.7836 54.2045 26.7447C53.4593 26.746 52.7213 26.5986 52.0338 26.3111C51.3577 26.0352 50.7459 25.6223 50.2371 25.0986V25.1271C49.6843 24.618 49.2538 23.9904 48.9778 23.2914C48.6991 22.5981 48.5563 21.8577 48.5572 21.1104V18.1479C48.5546 17.4105 48.6976 16.68 48.9778 15.998C49.2584 15.3067 49.6884 14.686 50.2371 14.1805H50.2111C50.7165 13.6322 51.3372 13.203 52.0286 12.9238C52.7191 12.645 53.4572 12.503 54.2019 12.5058C54.8205 12.5039 55.435 12.6066 56.0194 12.8095C56.5872 13.008 57.1239 13.286 57.6136 13.6352C57.6038 13.4828 57.6273 13.3301 57.6824 13.1876C57.7376 13.0452 57.8232 12.9165 57.9332 12.8105C58.0431 12.7045 58.1749 12.6237 58.3192 12.5738C58.4636 12.5238 58.6171 12.5059 58.769 12.5213C59.0731 12.5123 59.369 12.6211 59.5947 12.8251C59.7073 12.9301 59.7958 13.0584 59.8541 13.2009C59.9124 13.3435 59.939 13.4969 59.9322 13.6508V26.7162L59.9218 26.711ZM54.2096 24.504C54.657 24.5053 55.0995 24.4115 55.5079 24.2288C55.9102 24.0499 56.2777 23.8011 56.5932 23.494C56.9123 23.1855 57.168 22.8177 57.3462 22.4112C57.5339 21.9961 57.6296 21.5452 57.6266 21.0896V18.1479C57.6295 17.695 57.5347 17.2469 57.3488 16.8341C57.1739 16.4295 56.9176 16.0654 56.5958 15.7643C56.2765 15.4646 55.9097 15.2198 55.5105 15.0399C55.1013 14.8613 54.6586 14.7728 54.2122 14.7803C53.3019 14.7896 52.4307 15.1516 51.782 15.7903V15.7643C51.4616 16.0784 51.2135 16.4585 51.055 16.8782C50.9005 17.2935 50.8223 17.7333 50.8239 18.1764V21.0896C50.8181 21.9824 51.1609 22.8423 51.7794 23.4862C52.4273 24.127 53.2984 24.4918 54.2096 24.504V24.504Z" fill="#028DA5"/>
<path d="M77.4257 21.287C77.7327 21.576 77.9779 21.9244 78.1464 22.3109C78.3148 22.6975 78.403 23.1142 78.4057 23.5359C78.4084 23.9575 78.3254 24.3754 78.1619 24.764C77.9983 25.1527 77.7576 25.5041 77.4543 25.797C77.1713 26.1 76.8269 26.339 76.444 26.498C76.0611 26.657 75.6487 26.7322 75.2343 26.7188H69.9427C69.7968 26.7247 69.6512 26.7011 69.5147 26.6494C69.3781 26.5976 69.2535 26.5188 69.1482 26.4176C69.0445 26.3087 68.9643 26.1797 68.9125 26.0386C68.8607 25.8975 68.8384 25.7472 68.847 25.5971C68.8391 25.4512 68.8621 25.3054 68.9144 25.169C68.9667 25.0326 69.0472 24.9088 69.1506 24.8057C69.254 24.7025 69.378 24.6223 69.5145 24.5703C69.651 24.5183 69.7969 24.4957 69.9427 24.504H75.2343C75.3611 24.5001 75.4849 24.4654 75.5952 24.4027C75.7172 24.3352 75.8393 24.2729 75.9561 24.2132C76.035 24.1282 76.0889 24.0231 76.1119 23.9094C76.1322 23.8094 76.1427 23.7077 76.1431 23.6056C76.1312 23.3569 76.0512 23.1162 75.912 22.9098C74.9669 22.0997 74.0148 21.2757 73.0559 20.4379C72.0969 19.6001 71.1509 18.7658 70.218 17.935C69.9005 17.6401 69.6486 17.2817 69.4786 16.8832C69.3086 16.4846 69.2244 16.0548 69.2313 15.6215C69.2298 15.2025 69.3183 14.7881 69.4909 14.4064C69.6563 14.0345 69.8817 13.6924 70.1582 13.3938C70.4479 13.0869 70.7997 12.8455 71.1901 12.6857C71.5806 12.5258 72.0007 12.4512 72.4223 12.4668H77.0596C77.3627 12.4615 77.6559 12.5741 77.8775 12.781C77.987 12.8817 78.0735 13.0048 78.1313 13.1418C78.1891 13.2789 78.2168 13.4268 78.2124 13.5755C78.2219 13.7337 78.1968 13.892 78.1389 14.0395C78.0811 14.187 77.9919 14.3201 77.8775 14.4297C77.6526 14.6334 77.3577 14.7422 77.0544 14.7335H72.4249C72.3022 14.7282 72.1796 14.7485 72.0652 14.7932C71.9507 14.8379 71.8469 14.906 71.7602 14.9932C71.6076 15.1699 71.5237 15.3957 71.524 15.6293C71.5084 15.7383 71.5173 15.8494 71.5501 15.9545C71.5829 16.0596 71.6387 16.1561 71.7135 16.2369C71.7317 16.255 72.2198 16.6861 73.1779 17.5221C74.136 18.3582 75.5407 19.6123 77.4257 21.287Z" fill="#028DA5"/>
<path d="M95.3467 12.5214C95.9718 12.5198 96.5905 12.6471 97.1642 12.8952C98.3051 13.3781 99.2188 14.2779 99.7191 15.4112C99.9794 15.9926 100.112 16.6229 100.109 17.2599V25.6075C100.117 25.7606 100.091 25.9136 100.034 26.0558C99.9761 26.198 99.8883 26.3259 99.7762 26.4306C99.5502 26.6357 99.2531 26.7447 98.948 26.7344C98.647 26.7432 98.3545 26.6342 98.1327 26.4306C98.0247 26.324 97.9404 26.1958 97.8854 26.0544C97.8304 25.913 97.8058 25.7616 97.8133 25.6101V17.2495C97.8171 16.9169 97.7489 16.5874 97.6134 16.2836C97.4878 15.9953 97.312 15.7315 97.0941 15.5047C96.8691 15.2806 96.6052 15.0993 96.3152 14.9698C96.0125 14.8334 95.6838 14.7643 95.3519 14.7673H94.2588C93.926 14.7646 93.5966 14.8337 93.2929 14.9698C93.0033 15.1 92.7394 15.2811 92.514 15.5047C92.292 15.7282 92.1156 15.9928 91.9947 16.2836C91.8698 16.5903 91.8063 16.9184 91.8077 17.2495V25.5971C91.8147 25.7527 91.7854 25.9077 91.7224 26.0501C91.6593 26.1924 91.5641 26.3182 91.4442 26.4176C91.2237 26.612 90.9398 26.7193 90.6458 26.7193C90.3518 26.7193 90.0679 26.612 89.8474 26.4176C89.735 26.3135 89.6466 26.1862 89.5884 26.0445C89.5301 25.9028 89.5033 25.7502 89.5099 25.5971V17.2495C89.5153 16.9165 89.4461 16.5864 89.3073 16.2836C89.1837 15.9942 89.0076 15.7301 88.788 15.5047C88.5626 15.2811 88.2987 15.1 88.0091 14.9698C87.7054 14.8337 87.376 14.7646 87.0432 14.7673H85.9216C85.6043 14.7608 85.2891 14.8203 84.9959 14.9418C84.7027 15.0634 84.4379 15.2444 84.2183 15.4735C83.7627 15.933 83.4951 16.5459 83.4679 17.1924V25.5971C83.4764 25.7499 83.451 25.9027 83.3935 26.0445C83.3361 26.1864 83.248 26.3138 83.1356 26.4176C82.909 26.62 82.6135 26.7278 82.3099 26.7188C82.164 26.7247 82.0184 26.7011 81.8818 26.6494C81.7453 26.5976 81.6207 26.5188 81.5154 26.4176C81.4115 26.3077 81.3309 26.1779 81.2787 26.0359C81.2265 25.894 81.2037 25.7429 81.2116 25.5919V13.6482C81.2034 13.4976 81.2261 13.3468 81.2784 13.2053C81.3306 13.0637 81.4113 12.9344 81.5154 12.8251C81.6575 12.6974 81.8285 12.606 82.0136 12.5587C82.1987 12.5114 82.3926 12.5096 82.5786 12.5535C82.7645 12.5974 82.9371 12.6856 83.0816 12.8107C83.2261 12.9358 83.3381 13.094 83.4082 13.2717C84.1488 12.7689 85.0265 12.5069 85.9216 12.5214H87.0458C87.7516 12.5153 88.4492 12.6726 89.084 12.9809C89.6926 13.277 90.2376 13.6889 90.6887 14.1935C91.1305 13.6932 91.6636 13.2817 92.2595 12.9809C92.8827 12.671 93.5706 12.5135 94.2666 12.5214H95.3467Z" fill="#028DA5"/>
<path d="M108.34 12.5213C109.088 12.5108 109.83 12.6543 110.52 12.9428C111.21 13.2314 111.833 13.6589 112.351 14.1987C112.871 14.7186 113.283 15.3363 113.564 16.0162C113.853 16.6968 114 17.4292 113.997 18.1686V19.498C114 19.6503 113.972 19.8016 113.915 19.9429C113.858 20.0842 113.774 20.2125 113.666 20.3204C113.559 20.4282 113.43 20.5132 113.289 20.5705C113.148 20.6277 112.997 20.6559 112.845 20.6534H104.938V21.0896C104.931 21.5411 105.019 21.9889 105.198 22.4034C105.55 23.2185 106.2 23.8684 107.015 24.221C107.429 24.4049 107.877 24.4987 108.329 24.4962H111.302C111.448 24.4902 111.594 24.5138 111.73 24.5656C111.867 24.6174 111.991 24.6962 112.097 24.7974C112.197 24.9002 112.275 25.0222 112.327 25.1561C112.379 25.2899 112.403 25.4329 112.398 25.5763C112.406 25.7267 112.383 25.8771 112.331 26.0185C112.279 26.1599 112.2 26.2894 112.097 26.3994C111.992 26.5011 111.867 26.5802 111.731 26.632C111.594 26.6838 111.448 26.7072 111.302 26.7006H108.345C107.587 26.7066 106.835 26.5591 106.135 26.267C105.466 25.9852 104.857 25.578 104.341 25.0674C103.828 24.5519 103.416 23.9441 103.129 23.2759C102.827 22.5785 102.674 21.826 102.679 21.0663V18.1297C102.673 17.3872 102.815 16.651 103.097 15.9642C103.386 15.2782 103.814 14.6594 104.354 14.1467V14.1753C104.87 13.6326 105.495 13.2045 106.187 12.9186C106.874 12.6532 107.604 12.5184 108.34 12.5213ZM111.715 18.1556C111.716 17.7141 111.627 17.277 111.455 16.8704C111.281 16.4549 111.027 16.0774 110.708 15.7591C110.404 15.4394 110.036 15.1868 109.629 15.0178C109.222 14.8488 108.783 14.767 108.342 14.7777C107.898 14.7686 107.456 14.851 107.045 15.0198C106.633 15.1887 106.261 15.4403 105.951 15.7591C105.632 16.078 105.377 16.4553 105.201 16.8704C105.029 17.2772 104.941 17.7142 104.941 18.1556V18.3867H111.71V18.1556H111.715Z" fill="#028DA5"/>
<path d="M65.5475 12.9342C65.4426 12.8325 65.318 12.7534 65.1814 12.7016C65.0447 12.6498 64.899 12.6264 64.753 12.633C64.4496 12.6253 64.1545 12.733 63.9273 12.9342C63.8186 13.0362 63.7331 13.1604 63.6766 13.2984C63.6202 13.4364 63.5941 13.5849 63.6002 13.7339V25.6568C63.5922 25.8079 63.6151 25.9589 63.6673 26.1009C63.7195 26.2428 63.8 26.3726 63.9039 26.4825C64.0089 26.5842 64.1335 26.6634 64.2701 26.7152C64.4067 26.767 64.5525 26.7903 64.6985 26.7837C65.0011 26.7915 65.2954 26.6838 65.5215 26.4825C65.6307 26.3807 65.7167 26.2566 65.7736 26.1186C65.8305 25.9806 65.857 25.832 65.8513 25.6828V13.7599C65.8592 13.6089 65.8364 13.4578 65.7842 13.3159C65.7319 13.1739 65.6514 13.0441 65.5475 12.9342V12.9342Z" fill="#028DA5"/>
</g>
<defs>
<clipPath id="clip0">
<rect width="114" height="31.6326" fill="white" transform="translate(0 0.689331)"/>
</clipPath>
</defs>
</svg>
