<svg width="120" height="49" viewBox="0 0 120 49" fill="none" xmlns="http://www.w3.org/2000/svg">
<g clip-path="url(#clip0)">
<path d="M104.688 34.078L107.175 35.512C107.322 35.596 107.412 35.755 107.412 35.926L107.409 38.797C107.409 39.04 107.145 39.193 106.935 39.07L104.448 37.636C104.301 37.552 104.214 37.393 104.214 37.222V34.351C104.211 34.108 104.475 33.955 104.688 34.078ZM106.686 30.616L109.173 32.053C109.32 32.137 109.503 32.137 109.65 32.053L112.137 30.616C112.347 30.493 112.347 30.19 112.137 30.067L109.65 28.63C109.503 28.546 109.32 28.546 109.173 28.63L106.686 30.067C106.476 30.19 106.476 30.493 106.686 30.616ZM97.6801 30.031L92.0851 26.794C91.9201 26.698 91.7161 26.698 91.5481 26.794L85.9531 30.031C85.7161 30.169 85.7161 30.511 85.9531 30.649L91.5481 33.886C91.7131 33.982 91.9171 33.982 92.0851 33.886L97.6801 30.649C97.9171 30.511 97.9171 30.169 97.6801 30.031ZM99.8581 34.009L96.1231 36.16C96.0121 36.223 95.9431 36.343 95.9431 36.469V40.78C95.9431 40.963 96.1471 41.077 96.3031 40.987L100.038 38.836C100.149 38.773 100.212 38.653 100.212 38.527V34.216C100.215 34.033 100.017 33.919 99.8581 34.009ZM118.296 1.01499L104.853 8.75799C104.454 8.98599 104.208 9.41199 104.211 9.87099V25.384C104.211 26.041 104.94 26.455 105.51 26.125L118.953 18.382C119.352 18.154 119.583 17.728 119.58 17.269V1.75598C119.58 1.09899 118.866 0.687985 118.296 1.01499ZM89.5381 9.42998V20.206C89.5381 20.524 89.6971 20.821 89.9731 20.98L99.3091 26.359C99.7051 26.587 100.209 26.302 100.212 25.843V15.067C100.212 14.749 100.041 14.452 99.7651 14.293L90.4291 8.91398C90.0331 8.68598 89.5381 8.97398 89.5381 9.42998Z" fill="#FF1243"/>
<path d="M79.3771 31.24C79.2781 30.994 79.0681 30.904 78.8341 31.042C78.6001 31.183 74.1871 33.811 74.1871 33.811V31.39C74.1871 31.117 74.0131 31.018 73.7671 31.117L72.3331 31.636C72.1351 31.711 72.0601 31.858 72.0601 32.056V42.706C72.0601 42.928 72.2071 43.078 72.4321 43.078H73.8151C74.0371 43.078 74.1871 42.931 74.1871 42.706V36.184C74.1871 36.184 79.3891 32.974 79.5991 32.848C79.8091 32.722 79.9171 32.614 79.8211 32.377C79.7191 32.116 79.3771 31.24 79.3771 31.24Z" fill="#FF1243"/>
<path d="M11.9223 36.379C11.9223 33.412 9.89427 30.916 6.51027 30.916C3.17427 30.916 0.405273 33.313 0.405273 37.219C0.405273 40.777 2.72727 43.372 6.63327 43.372C8.41227 43.372 10.1913 42.754 11.5263 41.569C11.7003 41.422 11.7003 41.224 11.5743 41.05L10.9083 40.012C10.7853 39.814 10.5873 39.79 10.3893 39.937C9.17727 40.828 7.94127 41.272 6.63327 41.272C4.13727 41.272 2.77827 39.64 2.60427 37.588H11.5563C11.7843 37.588 11.9223 37.423 11.9223 37.222V36.379V36.379ZM2.75427 35.734C3.22527 34.03 4.55727 32.992 6.43827 32.992C8.49027 32.992 9.57627 34.204 9.67527 35.734H2.75427Z" fill="#FF1243"/>
<path d="M23.9702 48.019H25.3532C25.5752 48.019 25.7252 47.872 25.7252 47.647V31.384C25.7252 31.111 25.5512 31.012 25.2812 31.111L23.8712 31.63C23.6732 31.705 23.5982 31.852 23.5982 32.05V32.569C22.8332 31.531 21.3242 30.913 19.6922 30.913C16.4552 30.913 13.6382 33.334 13.6382 37.141C13.6382 40.501 15.8132 43.369 19.5692 43.369C21.2732 43.369 22.9052 42.604 23.5982 41.737V47.644C23.6012 47.872 23.7482 48.019 23.9702 48.019ZM19.7192 41.272C17.6192 41.272 15.8132 39.838 15.8132 37.12C15.8132 34.402 17.6162 32.992 19.7192 32.992C21.9182 32.992 23.6252 34.402 23.6252 37.12C23.6252 39.862 21.9182 41.272 19.7192 41.272Z" fill="#FF1243"/>
<path d="M32.7662 43.372C34.0502 43.372 35.4602 42.952 36.3752 41.617V42.706C36.3752 42.928 36.5222 43.078 36.7472 43.078H38.1302C38.3522 43.078 38.5022 42.931 38.5022 42.706V31.411C38.5022 31.114 38.3282 31.015 38.0822 31.114L36.6482 31.633C36.4502 31.708 36.3752 31.855 36.3752 32.053V37.984C36.3752 40.084 35.0162 41.272 33.1622 41.272C31.3322 41.272 30.0962 40.111 30.0962 37.984V31.384C30.0962 31.111 29.9222 31.012 29.6762 31.111L28.2422 31.63C28.0442 31.705 27.9692 31.852 27.9692 32.05V38.056C27.9722 41.569 30.0962 43.372 32.7662 43.372Z" fill="#FF1243"/>
<path d="M41.3921 29.854L42.9011 29.359C43.1471 29.284 43.2461 29.161 43.2461 28.915V27.112C43.2461 26.89 43.0721 26.716 42.8021 26.815L41.3201 27.358C41.0981 27.433 40.9751 27.532 40.9751 27.778V29.509C40.9721 29.779 41.1221 29.953 41.3921 29.854Z" fill="#FF1243"/>
<path d="M41.4199 43.075H42.8029C43.0249 43.075 43.1749 42.928 43.1749 42.703V31.384C43.1749 31.111 43.0009 31.012 42.7549 31.111L41.3209 31.63C41.1229 31.705 41.0479 31.852 41.0479 32.05V42.703C41.0479 42.928 41.1979 43.075 41.4199 43.075Z" fill="#FF1243"/>
<path d="M46.0902 43.075H47.4732C47.6952 43.075 47.8452 42.928 47.8452 42.703V36.301C47.8452 34.201 49.2042 33.013 51.0582 33.013C52.8882 33.013 54.1242 34.174 54.1242 36.301V42.703C54.1242 42.925 54.2712 43.075 54.4962 43.075H55.8792C56.1012 43.075 56.2512 42.928 56.2512 42.703V36.226C56.2512 32.716 54.1242 30.913 51.4572 30.913C50.1732 30.913 48.7632 31.333 47.8482 32.668V31.384C47.8482 31.111 47.6742 31.012 47.4282 31.111L45.9942 31.63C45.7962 31.705 45.7212 31.852 45.7212 32.05V42.703C45.7182 42.928 45.8652 43.075 46.0902 43.075Z" fill="#FF1243"/>
<path d="M64.167 30.916C60.609 30.916 58.062 33.562 58.062 37.144C58.062 40.729 60.609 43.372 64.167 43.372C67.725 43.372 70.248 40.726 70.248 37.144C70.248 33.559 67.725 30.916 64.167 30.916ZM64.167 41.296C61.719 41.296 60.237 39.466 60.237 37.144C60.237 34.822 61.719 32.992 64.167 32.992C66.588 32.992 68.073 34.822 68.073 37.144C68.073 39.466 66.588 41.296 64.167 41.296Z" fill="#FF1243"/>
</g>
<defs>
<clipPath id="clip0">
<rect width="120" height="48.24" fill="white" transform="translate(0 0.340012)"/>
</clipPath>
</defs>
</svg>
