<svg width="110" height="21" viewBox="0 0 110 21" fill="none" xmlns="http://www.w3.org/2000/svg">
<path d="M16.3357 5.69049H0V0.275452H19.1226V2.90367C19.1226 4.44435 17.8764 5.69049 16.3357 5.69049Z" fill="black"/>
<path d="M9.38002 13.326H0V7.91092H12.1668V10.5391C12.1668 12.0798 10.9207 13.326 9.38002 13.326Z" fill="black"/>
<path d="M2.62822 20.9614H0V15.5463H5.41504V18.1745C5.39238 19.7152 4.14624 20.9614 2.62822 20.9614Z" fill="black"/>
<path d="M27.4839 17.6308V4.01387H35.8443V4.96547C35.8443 5.80378 35.1646 6.50615 34.3037 6.50615H30.1348V9.56485H33.8958V10.3578C33.8958 11.2868 33.1481 12.0571 32.1966 12.0571H30.1348V16.3846C30.1348 17.0643 29.5683 17.6308 28.8886 17.6308H27.4839Z" fill="black"/>
<path d="M36.4111 14.844C36.4111 14.3908 36.4791 14.0057 36.6377 13.6885C36.7963 13.3486 37.0002 13.0767 37.2948 12.8728C37.5893 12.6462 37.9065 12.4876 38.2464 12.3517C38.6089 12.2158 38.994 12.1251 39.4698 12.0572L42.0301 11.604V11.2642C42.0301 10.811 41.9168 10.4712 41.6676 10.2219C41.441 9.97271 41.0785 9.85942 40.648 9.85942C40.2175 9.85942 39.8777 9.97271 39.6058 10.1766C39.3339 10.4032 39.198 10.6751 39.198 11.0376H36.751C36.819 10.018 37.1815 9.17971 37.9065 8.54531C38.6089 7.91092 39.5378 7.57106 40.6933 7.57106C41.8941 7.57106 42.8457 7.8656 43.5481 8.47734C44.2505 9.08908 44.613 9.97271 44.613 11.1509V17.6308H43.5481C42.9137 17.6308 42.3926 17.155 42.302 16.5433L42.2793 16.294C41.6676 17.3363 40.716 17.8347 39.4698 17.8347C38.5862 17.8347 37.8612 17.5628 37.2948 17.0191C36.7057 16.4979 36.4111 15.7729 36.4111 14.844ZM38.9487 14.6854C38.9487 14.9573 39.0394 15.1612 39.2433 15.3198C39.4472 15.4784 39.7191 15.5463 40.0816 15.5463C40.3988 15.5463 40.6933 15.4784 40.9652 15.3424C41.2371 15.2065 41.4637 15.0026 41.6449 14.7307C41.8715 14.4135 41.9848 14.0057 41.9848 13.5299V13.258L40.0136 13.6658C39.6511 13.7338 39.3792 13.8471 39.198 14.0057C39.0394 14.1869 38.9487 14.3908 38.9487 14.6854Z" fill="black"/>
<path d="M46.8105 4.92017C46.8105 4.51234 46.9691 4.10451 47.2637 3.80997C47.5582 3.53809 47.8981 3.37949 48.3059 3.37949C48.7137 3.37949 49.1216 3.51543 49.4161 3.80997C49.7333 4.10451 49.8919 4.46703 49.8919 4.89751C49.8919 5.32799 49.7333 5.66785 49.4388 5.96239C49.1442 6.25693 48.7817 6.39288 48.3512 6.39288C47.9207 6.39288 47.5582 6.25693 47.2637 5.96239C46.9691 5.66785 46.8332 5.32799 46.8105 4.92017ZM47.0824 17.6308V7.77496H49.62V16.3846C49.62 17.0644 49.0536 17.6308 48.3739 17.6308H47.0824Z" fill="black"/>
<path d="M52.1113 17.6308V7.77494H54.2864L54.5356 9.31562C54.7169 8.83982 55.0567 8.43199 55.5325 8.13745C56.0083 7.82025 56.6427 7.66165 57.4131 7.66165V10.1539C56.6201 10.1539 55.963 10.3578 55.4646 10.743C54.9661 11.1282 54.6942 11.7399 54.6716 12.5782V16.362C54.6716 17.0417 54.1052 17.6081 53.4254 17.6081H52.1113V17.6308Z" fill="black"/>
<path d="M58.728 7.77493H61.4242L62.9196 13.6884L63.1008 14.7306L63.3274 13.6884L65.004 7.77493H67.2471L68.9237 13.6884L69.1276 14.7306L69.3089 13.6884L70.8269 7.77493H73.5231L70.8269 16.7018C70.6683 17.2456 70.1472 17.6308 69.5808 17.6308H67.8815L66.0916 11.8305L64.4829 16.7245C64.3017 17.2456 63.8032 17.6081 63.2594 17.6081H61.6734L58.728 7.77493Z" fill="black"/>
<path d="M74.792 4.87485C74.792 4.46703 74.9506 4.10451 75.2451 3.80997C75.5397 3.51543 75.9022 3.37949 76.3327 3.37949C76.7405 3.37949 77.103 3.51543 77.4202 3.80997C77.7148 4.10451 77.8734 4.44437 77.8734 4.87485C77.8734 5.30534 77.7148 5.64519 77.4202 5.93973C77.1257 6.23428 76.7632 6.37022 76.3327 6.37022C75.9022 6.37022 75.5397 6.23428 75.2451 5.93973C74.9506 5.66785 74.792 5.30534 74.792 4.87485ZM75.0639 17.6308V7.77496H77.6015V16.3846C77.6015 17.0644 77.035 17.6308 76.3553 17.6308H75.0639Z" fill="black"/>
<path d="M80.2974 17.6308V7.77497H82.4724L82.6764 9.08908C82.9256 8.63594 83.2654 8.27343 83.7186 7.97889C84.1717 7.707 84.7155 7.5484 85.3499 7.5484C86.3695 7.5484 87.1624 7.8656 87.7062 8.52265C88.25 9.17971 88.5219 10.0633 88.5219 11.2188V16.3167C88.5219 17.0417 87.9328 17.6081 87.2304 17.6081H85.9843V11.8306C85.9843 11.2642 85.871 10.811 85.6218 10.5165C85.3952 10.2219 85.0327 10.0633 84.5795 10.0633C84.0584 10.0633 83.6506 10.2672 83.3334 10.6751C83.0162 11.0829 82.8349 11.672 82.8349 12.465V16.3393C82.8349 17.0644 82.2459 17.6308 81.5435 17.6308H80.2974Z" fill="black"/>
<path d="M90.3345 12.6915C90.3345 11.2415 90.765 10.018 91.6259 9.04374C92.4869 8.06949 93.5971 7.57103 94.9112 7.57103C95.5683 7.57103 96.1573 7.68432 96.6784 7.93355C97.1996 8.18277 97.5847 8.47732 97.8566 8.86249V3.44745H100.394V17.6308H99.3067C98.6949 17.6308 98.1738 17.1776 98.0832 16.5659L98.0379 16.294C97.3355 17.3136 96.2933 17.8347 94.8885 17.8347C94.0276 17.8347 93.2346 17.6081 92.5322 17.155C91.8298 16.7018 91.2861 16.0901 90.9009 15.2971C90.5157 14.5267 90.3345 13.6431 90.3345 12.6915ZM92.9174 12.6915C92.9174 13.5298 93.1439 14.1869 93.6197 14.708C94.0955 15.2291 94.6846 15.4783 95.387 15.4783C96.044 15.4783 96.6331 15.2291 97.1316 14.7533C97.63 14.2549 97.8793 13.5978 97.8793 12.7595V12.6462C97.8793 12.0798 97.7433 11.604 97.4941 11.1735C97.2449 10.743 96.9277 10.4485 96.5652 10.2446C96.2027 10.0407 95.7948 9.95002 95.387 9.95002C94.6846 9.95002 94.0955 10.1993 93.6197 10.7204C93.1439 11.2415 92.9174 11.8759 92.9174 12.6915Z" fill="black"/>
<path d="M102.365 14.6401H103.929C104.382 14.6401 104.767 14.9119 105.016 15.2971C105.061 15.3877 105.152 15.4557 105.22 15.5237C105.469 15.7276 105.809 15.8409 106.24 15.8409C106.625 15.8409 106.919 15.7503 107.146 15.5917C107.35 15.4331 107.463 15.1838 107.463 14.9119C107.463 14.5947 107.35 14.3455 107.101 14.1643C106.851 13.983 106.376 13.8244 105.696 13.6885C104.608 13.5072 103.815 13.1674 103.317 12.6916C102.796 12.2158 102.546 11.5814 102.546 10.7657C102.546 9.85942 102.864 9.08908 103.498 8.47734C104.132 7.8656 105.039 7.5484 106.194 7.5484C107.237 7.5484 108.097 7.84294 108.755 8.40937C109.412 8.9758 109.774 9.72348 109.819 10.6524H107.304C107.282 9.90474 106.919 9.51957 106.172 9.51957C105.832 9.51957 105.56 9.61019 105.379 9.79145C105.197 9.97271 105.084 10.1993 105.084 10.4938C105.084 10.811 105.197 11.0376 105.447 11.1962C105.696 11.3548 106.149 11.4907 106.806 11.604C107.962 11.8079 108.8 12.1478 109.276 12.6236C109.774 13.0994 110.001 13.7564 110.001 14.5947C110.001 15.1385 109.91 15.6143 109.706 16.0448C109.502 16.4526 109.23 16.7925 108.868 17.0417C108.505 17.2909 108.12 17.4948 107.667 17.6081C107.214 17.7441 106.738 17.7894 106.194 17.7894C104.993 17.7894 104.065 17.4948 103.407 16.9284C102.75 16.4073 102.388 15.637 102.365 14.6401Z" fill="black"/>
</svg>
