<svg width="136" height="35" viewBox="0 0 136 35" fill="none" xmlns="http://www.w3.org/2000/svg">
<path d="M0 27.1106V12.1712H9.8783V14.9151H3.29277V18.5433H7.98801V21.1348H3.29277V27.0801H0V27.1106ZM11.4027 12.2626H14.665V14.8846H11.4027V12.2626ZM11.4332 16.3481H14.665V27.1106H11.4332V16.3481ZM16.6772 21.7446C16.6772 17.5676 19.8786 16.1347 22.1042 16.1347C24.3299 16.1347 27.0434 17.2323 27.0434 22.1409V22.6287H19.909C20.0615 24.3971 21.0676 25.0983 22.4091 25.0983C23.6896 25.0983 24.8787 24.458 25.6104 23.8178L26.8604 25.7691C25.6104 26.8362 24.0555 27.385 22.1652 27.385C19.3602 27.324 16.6772 25.891 16.6772 21.7446ZM24.1165 20.6775C23.964 19.153 23.2628 18.4213 22.0432 18.4213C21.0371 18.4213 20.1529 19.0921 19.909 20.6775H24.1165ZM29.0251 12.1712H32.2569V27.1106H29.0251V12.1712ZM34.2692 21.836C34.2692 18.1164 35.9765 16.1347 38.4461 16.1347C39.9095 16.1347 40.9462 16.653 41.7084 17.7201V12.1712H44.9707V24.4885C44.9707 25.7691 45.0621 26.5618 45.306 27.1106H41.9828C41.8303 26.8362 41.7389 26.0435 41.7389 25.4947C41.0376 26.4703 40.0315 27.263 38.4156 27.263C35.946 27.263 34.2692 25.5252 34.2692 21.836ZM41.7084 23.7873V19.7933C41.0071 19.1226 40.4279 18.8177 39.5742 18.8177C38.2327 18.8177 37.501 19.8543 37.501 21.8055C37.501 23.6044 38.1412 24.8239 39.6047 24.8239C40.4279 24.8239 41.1901 24.3361 41.7084 23.7873ZM46.4036 28.7265C46.4036 27.6898 47.2573 26.9581 48.2634 26.5618C47.8061 26.2569 47.5317 25.83 47.5317 25.2812C47.5317 24.3971 48.2329 23.6349 49.0866 23.0861C47.928 22.3848 47.3183 21.2872 47.3183 20.0067C47.3183 17.842 49.0561 16.1347 52.166 16.1347C53.7514 16.1347 54.9709 16.592 55.7941 17.2932C56.5258 16.653 57.6844 16.2261 58.5686 16.1956V18.6652C58.1722 18.6652 57.5319 18.6957 56.7392 18.9091C56.8612 19.1835 56.9527 19.5494 56.9527 19.9762C56.9527 22.1714 55.2758 23.8178 52.1964 23.8178C51.5867 23.8178 51.0379 23.7263 50.5501 23.6349C50.3366 23.8178 50.1842 23.9702 50.1842 24.1837C50.1842 24.58 50.611 24.6715 51.4037 24.702L53.0196 24.7934C56.7088 24.9459 58.2027 25.83 58.2027 27.8423C58.2027 30.068 55.6112 31.135 52.0135 31.135C47.7756 31.1655 46.4036 30.2509 46.4036 28.7265ZM55.3063 28.4216C55.3063 27.7508 54.9709 27.4459 52.4404 27.324L50.733 27.2325L50.0318 27.1715C49.6354 27.4459 49.422 27.7813 49.422 28.1472C49.422 29.0923 50.2757 29.5192 52.5013 29.5192C54.1477 29.5192 55.3063 29.1228 55.3063 28.4216ZM54.0258 20.0982C54.0258 19.0006 53.416 18.1774 52.1964 18.1774C51.0074 18.1774 50.3671 19.0006 50.3671 20.0982C50.3671 21.1958 51.0379 22.019 52.1964 22.019C53.3855 22.019 54.0258 21.1958 54.0258 20.0982ZM60.093 12.1407H63.3248V27.1106H60.093V12.1407ZM65.2151 24.3666C65.2151 21.8665 67.3188 20.4945 72.0445 20.1287V19.8543C72.0445 19.0616 71.6482 18.5738 70.5811 18.5738C69.2091 18.5738 68.02 19.153 67.0444 19.9153L65.6724 18.0555C66.7395 17.0798 68.3554 16.1347 71.0384 16.1347C73.9958 16.1347 75.1848 17.5981 75.1848 20.3421V24.4885C75.1848 25.7691 75.2763 26.5618 75.4897 27.1106H72.2579C72.1055 26.6532 72.014 26.1349 72.014 25.5252C71.0384 26.6227 69.8493 27.263 68.2639 27.263C66.648 27.263 65.2151 26.1959 65.2151 24.3666ZM72.0445 23.9093V21.897C69.4835 22.1714 68.3859 22.8117 68.3859 23.7873C68.3859 24.4885 68.8737 24.8239 69.5749 24.8239C70.7335 24.8239 71.5262 24.4581 72.0445 23.9093ZM76.8007 25.6776L78.0812 23.8483C79.0569 24.702 80.5203 25.2508 81.8313 25.2508C82.8375 25.2508 83.5387 24.9154 83.5387 24.2141C83.5387 23.4519 82.9594 23.1775 81.496 22.9336C79.4532 22.5678 77.2885 22.0799 77.2885 19.5494C77.2885 17.3847 79.0569 16.1347 81.4655 16.1347C83.6607 16.1347 85.0021 16.714 86.1912 17.6591L84.9107 19.4884C83.8131 18.7262 82.746 18.3298 81.7399 18.3298C80.8252 18.3298 80.2764 18.6957 80.2764 19.275C80.2764 19.9153 80.8557 20.1896 82.1972 20.4336C84.3314 20.7994 86.5571 21.2872 86.5571 23.7263C86.5571 26.3179 84.3009 27.3545 81.8009 27.3545C79.4837 27.324 77.8983 26.6227 76.8007 25.6776ZM87.5022 25.6776L88.7827 23.8483C89.7584 24.702 91.2218 25.2508 92.5328 25.2508C93.539 25.2508 94.2402 24.9154 94.2402 24.2141C94.2402 23.4519 93.6609 23.1775 92.1975 22.9336C90.1547 22.5678 87.99 22.0799 87.99 19.5494C87.99 17.3847 89.7584 16.1347 92.167 16.1347C94.3621 16.1347 95.7036 16.714 96.8927 17.6591L95.6122 19.4884C94.5146 18.7262 93.4475 18.3298 92.4414 18.3298C91.4962 18.3298 90.9779 18.6957 90.9779 19.275C90.9779 19.9153 91.5572 20.1896 92.8987 20.4336C95.0329 20.7994 97.2586 21.2872 97.2586 23.7263C97.2586 26.3179 95.0024 27.3545 92.5023 27.3545C90.1547 27.324 88.5693 26.6227 87.5022 25.6776Z" fill="#0074C9"/>
<path fill-rule="evenodd" clip-rule="evenodd" d="M112.594 28.1472C112.96 29.2753 113.661 31.7753 113.295 32.9644C112.929 34.1229 111.801 33.4217 111.374 32.9644C111.222 32.8119 111.13 32.7815 111.039 32.6595C110.765 32.4156 110.063 31.5619 109.85 31.2875L108.813 29.7326C108.722 29.5801 108.661 29.4887 108.569 29.3362L107.014 26.4398C106.618 25.5252 106.222 24.6715 105.886 23.7263C105.703 23.2385 105.399 22.2934 105.246 21.8056C105.033 20.9824 103.935 16.531 106.069 17.4762C106.374 17.5981 106.588 17.8116 106.801 18.025C107.014 18.2079 107.594 18.7872 107.746 19.0006C107.96 19.275 108.417 19.8543 108.569 20.0982C108.691 20.3116 109.484 21.3787 109.545 21.6226L108.874 20.7994C107.807 19.5189 106.71 19.2445 107.014 21.2873C107.167 22.2324 107.319 22.8117 107.594 23.6959L108.021 24.7934C108.143 25.1593 108.325 25.4642 108.478 25.7996C109.118 27.2325 110.155 29.0618 111.313 30.0985C112.502 31.1351 112.746 30.1594 112.594 28.9704L112.35 27.7508C112.472 27.7813 112.563 28.0557 112.594 28.1472ZM128.021 8.9089C127.96 8.72597 127.655 8.29913 127.533 8.08571C126.192 5.92102 124.759 3.93927 122.929 2.10995C122.838 1.988 122.747 1.92702 122.594 1.80507C122.137 1.34774 121.222 0.676991 120.612 0.433083C120.429 0.341617 120.216 0.311128 120.003 0.28064H119.576C119.179 0.341617 118.874 0.524543 118.661 0.79894C118.265 1.40871 118.173 2.01848 118.112 2.90265C118.051 3.32949 118.173 4.94539 118.234 5.37223C118.387 6.46981 118.844 8.54304 119.179 9.70161C119.484 10.6468 119.82 11.7748 120.155 12.6895C120.612 14.0005 121.131 15.1895 121.649 16.5006C121.771 16.8359 121.923 17.1103 122.045 17.4152C122.472 18.5128 123.661 20.8604 124.179 21.897C124.606 22.7202 125.612 24.4886 126.1 25.2508L127.106 26.8667C127.716 27.8728 128.875 29.3667 129.637 30.2814C130.155 30.9217 130.643 31.44 131.222 32.0192C131.954 32.751 134.332 34.7937 135.43 33.2388C135.887 32.568 135.857 31.8973 135.979 31.1351C136.04 30.6777 135.948 30.2814 135.948 29.8546C135.948 29.5192 135.887 29.0314 135.826 28.696C135.735 28.0862 135.43 26.4703 135.308 25.9215L134.881 24.3666C134.82 24.0617 134.088 21.5921 133.875 21.3787L134.18 22.6592C134.424 23.6959 135.094 27.4459 133.509 27.4459C132.899 27.4764 132.32 27.0191 131.893 26.7142C131.466 26.3789 130.887 25.7691 130.552 25.3422C130.277 25.0069 129.911 24.6105 129.667 24.2446L129.027 23.33C128.692 22.8727 128.387 22.4153 128.113 21.9275C127.93 21.5922 127.747 21.2568 127.533 20.9519C127.076 20.2507 126.375 18.6957 125.948 17.8725L125.216 16.2566C125.033 15.9213 124.21 13.7871 124.088 13.4517L123.692 12.2626C123.326 11.1651 122.96 9.64063 122.808 8.48206C122.686 7.59789 122.625 6.43933 122.96 5.73809C123.021 5.58565 123.173 5.37223 123.295 5.31125C124.454 4.57953 126.588 7.11008 127.289 8.05523C127.442 8.17718 127.899 8.81744 128.021 8.9089ZM121.832 25.0983L122.198 26.9276C122.289 27.5679 122.32 28.4826 122.106 28.9399C121.527 30.1594 119.789 28.2691 119.484 27.8728C119.149 27.446 118.905 27.1716 118.509 26.6228C118.356 26.4093 118.204 26.1654 118.051 25.952C117.746 25.4947 117.502 25.0374 117.228 24.5495C117.076 24.2751 116.954 24.1227 116.832 23.8178L115.887 21.958C115.582 21.3177 115.307 20.647 115.063 19.9762C114.576 18.7262 114.301 17.8421 113.996 16.531C113.813 15.7993 113.569 14.3054 113.966 13.6041C114.301 12.9334 115.063 13.3297 115.46 13.6346C116.618 14.5188 117.442 15.8908 117.594 16.0127C117.563 15.8298 117.35 15.5859 117.289 15.4335L116.527 14.2749C116.283 13.909 115.612 12.9639 115.307 12.6285C114.82 12.0187 114.698 11.9273 114.301 11.4699C113.661 10.6772 111.832 9.06135 110.917 10.0065C110.277 10.6772 110.399 12.3846 110.49 13.2383C110.886 15.8603 111.801 18.8787 112.899 21.3482C113.478 22.6897 113.783 23.33 114.423 24.6105C115.124 25.9825 115.643 26.8667 116.496 28.2996C116.74 28.696 116.984 29.0923 117.228 29.4277L118.021 30.5558C118.295 30.9217 118.996 31.8058 119.332 32.1412C119.972 32.8119 121.192 34.062 122.259 34.001C123.753 33.9095 123.356 30.7082 123.143 29.6106C122.929 28.6045 122.472 26.6228 122.137 25.7996L121.984 25.2813C121.893 25.1593 121.893 25.1898 121.832 25.0983ZM126.954 13.0553C126.954 14.8847 129.545 19.8543 130.247 19.8543C130.796 19.8543 130.186 17.9335 130.094 17.6896L129.515 16.1957C129.424 16.0127 129.363 15.9213 129.271 15.7383C128.814 14.8237 128.326 13.97 127.655 13.2078C127.564 13.0249 126.954 12.4761 126.954 13.0553ZM117.076 19.0616C117.076 20.0677 118.692 23.452 119.24 23.452C119.85 23.452 118.722 20.9214 118.539 20.525C118.326 20.1592 117.716 19.1226 117.381 18.9396C117.259 18.9092 117.076 18.9396 117.076 19.0616ZM109.24 23.9093C109.24 24.3361 109.606 25.1288 109.758 25.4337C109.789 25.5557 109.819 25.6471 109.911 25.7691C110.002 25.9215 110.307 26.4398 110.46 26.4703C110.978 26.6228 110.094 24.519 109.545 23.9398C109.484 23.8788 109.24 23.7264 109.24 23.9093ZM121.832 25.0983V24.9459H121.771C121.771 25.1898 121.771 25.0069 121.832 25.0983ZM117.533 16.0127V16.0737L117.594 16.0127H117.533ZM128.052 8.9089H127.991H128.052ZM128.052 9.03085V8.9089V9.03085Z" fill="#FF9E00"/>
</svg>
