<svg width="102" height="19" viewBox="0 0 102 19" fill="none" xmlns="http://www.w3.org/2000/svg">
<g clip-path="url(#clip0)">
<path d="M10.7291 10.6386C10.2 10.2271 9.64149 10.3741 9.14178 10.7856C8.20115 11.5793 7.37809 11.785 6.61383 11.6674C5.58501 11.5205 4.35043 10.6386 4.35043 8.84554C4.35043 7.05245 5.6438 5.93545 6.70201 5.84726C7.26051 5.78847 7.81902 5.90605 8.28933 6.2C8.70086 6.43516 9.0536 6.72911 9.40634 7.08185C9.81786 7.46398 10.4645 7.43458 11.0231 7.08185C11.7579 6.61153 12.4046 5.52392 12.5516 4.78905C12.6986 4.05418 12.5516 3.58386 11.8461 3.28992C11.4934 3.14294 11.17 2.99597 10.8467 2.8196C9.84726 2.2317 8.67147 1.40865 6.46685 1.49683C3.11585 1.55562 0.440918 4.87724 0.440918 8.93372C0.440918 12.9902 3.11585 16.1354 6.52564 16.0767C7.55446 16.0473 8.55389 15.8121 9.46513 15.3418C9.96484 15.1066 10.4939 14.9009 11.0524 14.7539C11.6403 14.5775 12.0813 14.166 12.0225 13.2254C11.9343 12.3729 11.317 11.0795 10.7291 10.6386Z" fill="#82BE28"/>
<path d="M21.8992 14.4305C21.7816 14.019 21.6052 13.6369 21.3701 13.2841C21.1643 12.9314 20.9586 12.5493 20.8116 12.1377C20.2531 10.7268 19.8416 9.28644 19.5476 7.8167C19.1949 6.22938 18.7539 4.02477 18.607 3.2899C18.4306 2.43745 18.0191 1.90834 17.5194 1.70258C17.1372 1.585 16.7551 1.52621 16.3436 1.52621H14.3153C13.9038 1.49681 13.5217 1.5556 13.1395 1.70258C12.6398 1.93774 12.2283 2.46684 12.0519 3.2899V3.34869C12.6104 3.64263 12.728 4.11295 12.581 4.75964C12.4047 5.49451 11.758 6.58212 11.0525 7.02304C10.494 7.37578 9.84732 7.40517 9.43579 7.02304C9.11245 6.6703 8.73032 6.37635 8.31879 6.14119C7.84847 5.84725 7.28997 5.72967 6.73147 5.78846C5.67325 5.87664 4.37988 7.02304 4.37988 8.78673C4.37988 10.5504 5.61447 11.4617 6.64328 11.6086C7.40755 11.7262 8.2306 11.5204 9.17124 10.7268C9.67095 10.3153 10.2295 10.1683 10.7586 10.5798C11.2877 10.9913 11.9637 12.3141 12.0225 13.1372C12.0813 14.0778 11.6404 14.4599 11.0525 14.6657C10.494 14.8127 9.9649 15.0184 9.46519 15.2536L9.377 15.283C9.58276 15.6357 9.99429 15.7827 10.5822 15.8415C11.2289 15.8709 11.8756 15.9003 12.5222 15.8709C13.2865 15.8415 13.8156 15.5181 14.0214 14.989C14.1096 14.6657 14.2565 14.3717 14.4329 14.0778C14.6387 13.8132 14.962 13.6663 15.3148 13.6957C15.6675 13.6663 15.9908 13.8132 16.1966 14.0778C16.373 14.3717 16.5199 14.6657 16.6375 14.989C16.8433 15.4887 17.3724 15.8415 18.1367 15.8709C19.0479 15.9003 19.9885 15.8709 20.6058 15.8415C20.9586 15.8709 21.2819 15.7533 21.5465 15.5181C21.8698 15.283 22.0168 14.8421 21.8992 14.4305V14.4305ZM15.3148 10.815C14.1096 10.815 13.845 9.60978 14.1978 8.46338C14.5799 7.17001 14.9914 6.99364 15.3148 6.99364C15.6381 6.99364 16.0496 7.17001 16.4318 8.46338C16.7845 9.60978 16.5199 10.815 15.3148 10.815Z" fill="#2D8C3C"/>
<path d="M54.4391 8.19884C54.4391 6.19999 52.8811 5.90604 51.9405 5.90604C49.3538 5.90604 48.178 8.16944 48.178 10.2565C48.178 12.8432 49.3832 14.166 51.7641 14.166C52.6166 14.166 53.4396 13.9602 54.2039 13.5487V11.8732C53.5866 12.3141 52.8517 12.5493 52.0875 12.6081C51.1762 12.6081 50.3826 12.079 50.3238 10.8444C52.499 10.7562 54.4391 10.0801 54.4391 8.19884ZM50.2944 9.69797C50.3532 7.66973 51.235 7.34639 51.7935 7.34639C52.2344 7.34639 52.6166 7.69912 52.6166 8.14005V8.22823C52.6166 9.05129 51.7053 9.58039 50.2944 9.69797ZM30.3941 11.2559L31.9814 12.4317C31.1878 13.5487 29.8944 14.1954 28.5422 14.166C26.0731 14.166 24.0742 12.3141 24.0742 8.81613C24.0742 5.46512 26.0731 3.49567 28.5422 3.49567C29.8944 3.49567 31.1584 4.14235 31.952 5.22996L30.3647 6.40575C29.9826 5.78846 29.3359 5.40633 28.601 5.37693C27.337 5.37693 26.3376 6.67031 26.3376 8.84552C26.3376 11.1089 27.3664 12.3141 28.601 12.3141C29.3359 12.2553 30.012 11.8732 30.3941 11.2559V11.2559ZM39.0656 6.19999H36.8904V10.9619C36.8904 11.8438 36.5082 12.1965 35.8321 12.1965C35.1561 12.1965 34.7739 11.8144 34.7739 10.9619V6.19999H32.5987V9.66858C32.5693 10.4034 32.6281 11.1089 32.7457 11.8438C32.9808 12.6962 33.6275 13.2547 34.8327 13.4017C33.7745 14.0778 33.0102 15.0184 33.0102 16.2236C33.0102 17.517 34.0097 18.2225 35.6264 18.2225C37.7722 18.2225 38.801 16.8409 38.9774 14.8127C39.0656 13.6663 39.0656 12.8138 39.0656 12.3729V6.19999V6.19999ZM36.9491 14.7245C36.9198 15.4594 36.8904 16.7233 35.8028 16.7233C35.303 16.7233 34.8915 16.3412 34.8915 15.8415V15.7239C34.8915 14.7245 35.6852 13.5487 36.9491 13.0196C36.9491 13.2547 36.9785 14.019 36.9491 14.7245ZM92.2996 8.52218V13.9014H90.1244V9.19826C90.1244 8.63976 89.9774 7.8167 89.0662 7.8167C88.3313 7.8167 87.8904 8.49278 87.8904 9.34523V13.9014H85.7151V6.19999H87.6846V7.34639C88.2137 6.28817 89.0368 5.90604 89.9186 5.90604C91.4471 5.90604 92.2996 6.78789 92.2996 8.52218V8.52218ZM44.3272 5.90604C43.71 5.90604 43.1221 6.11181 42.6223 6.46454V3.70143H40.4471V13.5781C41.4172 13.9602 42.446 14.166 43.5042 14.166C45.944 14.166 47.2373 12.6081 47.2373 9.66858C47.2373 7.22881 46.2379 5.90604 44.3272 5.90604V5.90604ZM43.6218 12.755C43.269 12.755 42.9457 12.6668 42.6223 12.5199C42.593 11.7556 42.593 9.02189 42.6223 8.34581C42.6223 7.78731 43.0633 7.34639 43.6218 7.34639H43.6512C45.0915 7.34639 45.0915 9.28645 45.0915 10.0213C45.0915 11.3735 44.9151 12.755 43.6218 12.755ZM95.8564 6.19999H97.7964V7.8461H95.8564V10.6974C95.827 11.1383 95.8564 11.5498 95.9739 11.9908C96.1503 12.4023 96.5618 12.6668 97.0028 12.6081C97.2673 12.5787 97.5319 12.5199 97.7964 12.4023V13.872C97.2967 14.0778 96.7382 14.1954 96.2091 14.1954C94.6512 14.1954 94.0633 13.6369 93.8281 12.7844C93.6811 12.1671 93.6811 10.9326 93.6811 9.84495V3.70143H95.8564V6.19999V6.19999ZM77.1613 6.46454C76.1912 6.11181 75.1918 5.90604 74.163 5.90604C71.6644 5.90604 70.3417 7.58155 70.3417 9.87434C70.3417 11.8438 71.5762 13.0784 72.9872 13.3429C71.8996 14.019 71.1059 14.9596 71.1059 16.1648C71.1059 17.4582 72.1053 18.1637 73.7221 18.1637C75.8679 18.1637 76.8967 16.7821 77.0731 14.7539C77.1613 13.6075 77.1613 12.755 77.1613 12.3141V6.46454V6.46454ZM72.4875 10.0507C72.4875 8.28702 73.2224 6.87607 74.986 7.52276V10.9913C74.986 11.8732 74.6039 12.2259 73.9278 12.2259C73.2517 12.2259 72.4875 11.785 72.4875 10.0507V10.0507ZM75.0448 14.7539C75.0154 15.4888 74.986 16.7527 73.8984 16.7527C73.3987 16.7527 72.9872 16.3706 72.9872 15.8709V15.7533C72.9872 14.7539 73.6927 13.6957 75.0448 13.049C75.0448 13.2547 75.0742 14.019 75.0448 14.7539ZM84.4806 8.16944C84.4806 6.17059 82.9226 5.87665 81.982 5.87665C79.3953 5.87665 78.2195 8.14005 78.2195 10.2271C78.2195 12.8138 79.4247 14.1366 81.8056 14.1366C82.6581 14.1366 83.4811 13.9308 84.2454 13.5193V11.8732C83.6281 12.3141 82.8932 12.5493 82.129 12.6081C81.2471 12.6081 80.4241 12.079 80.3653 10.8444C82.5699 10.7562 84.4806 10.0801 84.4806 8.16944ZM80.3653 9.66858C80.4241 7.64034 81.3059 7.31699 81.8644 7.31699C82.3053 7.31699 82.6875 7.66973 82.6875 8.11065V8.19884C82.6875 9.05129 81.7762 9.58039 80.3653 9.66858V9.66858ZM64.3451 3.70143L61.1411 13.9014H63.2281L63.9042 11.7556H67.4904L68.1664 13.9014H70.2535L67.02 3.70143H64.3451V3.70143ZM64.4039 10.1095L65.6679 6.05302L66.9319 10.1095H64.4039V10.1095ZM59.4362 6.08241C59.8183 6.05302 60.2004 6.1412 60.5532 6.34696V8.28702C60.1711 8.05186 59.7301 7.96368 59.2892 7.99307C58.4662 8.05186 57.8195 8.75734 57.8489 9.58039V13.9014H55.6736V6.19999H57.6137V7.43457C57.9076 6.67031 58.6131 6.1412 59.4362 6.08241V6.08241ZM100.883 12.5787C100.912 12.5199 100.942 12.4317 100.942 12.3729C100.942 12.2553 100.883 12.1671 100.824 12.1083C100.736 12.0202 100.589 11.9614 100.442 11.9908H99.8247V13.4017H100.03V12.755H100.266L100.677 13.3723H100.942L100.53 12.755C100.677 12.755 100.795 12.6962 100.883 12.5787V12.5787ZM100.06 12.1671H100.471C100.53 12.1671 100.618 12.1965 100.677 12.2259C100.736 12.2553 100.765 12.3141 100.765 12.3729C100.765 12.4317 100.736 12.4905 100.707 12.5199C100.648 12.5787 100.56 12.6081 100.471 12.5787H100.089L100.06 12.1671V12.1671ZM100.354 11.4911C99.7071 11.4911 99.1486 12.0496 99.178 12.6962C99.2074 13.3429 99.7365 13.9014 100.383 13.872C101.03 13.872 101.559 13.3429 101.559 12.6668C101.559 12.0202 101.03 11.4911 100.354 11.4911ZM100.354 13.6663C99.8247 13.6663 99.3837 13.2254 99.3837 12.6668C99.3837 12.1377 99.8247 11.6968 100.383 11.6968C100.912 11.6968 101.353 12.1377 101.353 12.6668C101.324 13.2254 100.883 13.6663 100.354 13.6663Z" fill="black"/>
</g>
<defs>
<clipPath id="clip0">
<rect width="102" height="18.2248" fill="white" transform="translate(0 0.40921)"/>
</clipPath>
</defs>
</svg>
