<svg width="116" height="25" viewBox="0 0 116 25" fill="none" xmlns="http://www.w3.org/2000/svg">
<path d="M70.8776 22.5479C70.4825 22.5479 70.1037 22.391 69.8243 22.1116C69.545 21.8323 69.3881 21.4534 69.3881 21.0584C69.3881 20.6633 69.545 20.2844 69.8243 20.0051C70.1037 19.7257 70.4825 19.5688 70.8776 19.5688C71.1775 19.574 71.4684 19.672 71.7104 19.8492C71.8065 19.958 71.9409 20.0254 72.0855 20.0374C72.3144 20.0374 72.4606 19.902 72.4606 19.7138C72.4511 19.607 72.4029 19.5073 72.3252 19.4334C71.9188 19.1029 71.411 18.9226 70.8872 18.9229C70.5227 18.9211 70.1635 19.0107 69.8427 19.1837C69.5219 19.3567 69.2496 19.6075 69.0509 19.9131C68.8521 20.2186 68.7333 20.5692 68.7052 20.9326C68.6771 21.296 68.7407 21.6607 68.8902 21.9931C69.0397 22.3256 69.2702 22.6152 69.5607 22.8354C69.8512 23.0556 70.1923 23.1994 70.5527 23.2535C70.9132 23.3077 71.2815 23.2704 71.6238 23.1453C71.9662 23.0201 72.2716 22.811 72.5121 22.5371L72.0016 22.0266C71.8662 22.1932 71.6946 22.3267 71.4998 22.4171C71.305 22.5074 71.0922 22.5521 70.8776 22.5479V22.5479Z" fill="#440099"/>
<path d="M67.3042 18.881C67.2376 18.875 67.1708 18.8898 67.1128 18.9232C67.0549 18.9567 67.0088 19.0072 66.9807 19.0679L65.8662 21.8085L64.7517 19.0679C64.7517 19.0272 64.6583 18.881 64.4282 18.881C64.3501 18.883 64.2751 18.9123 64.2163 18.9637C64.1574 19.0151 64.1184 19.0854 64.1058 19.1626L63.4599 22.8295C63.4398 22.8725 63.4257 22.9181 63.418 22.9649C63.418 23.1519 63.5534 23.2873 63.7931 23.2873C63.8714 23.2855 63.9466 23.2564 64.0057 23.2049C64.0648 23.1535 64.104 23.083 64.1166 23.0057L64.6271 20.3058L65.5498 22.7253C65.5688 22.795 65.6115 22.856 65.6705 22.8978C65.7295 22.9395 65.8013 22.9595 65.8734 22.9541C65.9457 22.9611 66.018 22.9418 66.0772 22.8998C66.1364 22.8578 66.1785 22.7958 66.1957 22.7253L67.1268 20.3058L67.6793 23.2334H68.3767L67.6373 19.1494C67.6179 19.0749 67.575 19.0086 67.5151 18.9602C67.4551 18.9119 67.3812 18.8841 67.3042 18.881V18.881Z" fill="#440099"/>
<path d="M50.7301 18.881C50.5947 18.881 50.4485 18.9229 50.4066 19.0679L48.7816 22.7828C48.7655 22.8011 48.7535 22.8227 48.7462 22.846C48.739 22.8693 48.7368 22.8939 48.7397 22.9182C48.7347 22.9618 48.7396 23.0061 48.7541 23.0475C48.7686 23.089 48.7923 23.1266 48.8235 23.1577C48.8546 23.1887 48.8923 23.2122 48.9339 23.2266C48.9754 23.2409 49.0196 23.2457 49.0632 23.2405C49.1297 23.2466 49.1964 23.2319 49.2542 23.1984C49.3119 23.1649 49.3578 23.1143 49.3856 23.0536L49.938 21.8972H51.563L52.1154 23.1998H52.8548L51.0573 19.0631C51.0228 19.0074 50.9746 18.9614 50.9174 18.9295C50.8601 18.8977 50.7957 18.8809 50.7301 18.881ZM50.131 21.298L50.6822 20.0481L51.2346 21.298H50.131Z" fill="#440099"/>
<path d="M60.8561 18.881C60.4255 18.881 60.0045 19.0087 59.6464 19.2479C59.2883 19.4872 59.0093 19.8272 58.8445 20.2251C58.6797 20.623 58.6365 21.0608 58.7205 21.4831C58.8046 21.9055 59.0119 22.2935 59.3165 22.598C59.621 22.9025 60.0089 23.1099 60.4313 23.1939C60.8537 23.2779 61.2915 23.2348 61.6894 23.07C62.0872 22.9052 62.4273 22.6261 62.6665 22.2681C62.9058 21.91 63.0335 21.489 63.0335 21.0584C63.0337 20.7724 62.9775 20.4892 62.8681 20.2249C62.7587 19.9607 62.5983 19.7206 62.3961 19.5184C62.1939 19.3161 61.9538 19.1558 61.6895 19.0464C61.4253 18.937 61.1421 18.8808 60.8561 18.881V18.881ZM60.8561 22.5479C60.462 22.5445 60.085 22.3865 59.8062 22.1079C59.5274 21.8293 59.3691 21.4525 59.3654 21.0584C59.3764 20.6705 59.5382 20.3021 59.8164 20.0317C60.0947 19.7612 60.4675 19.6099 60.8555 19.6099C61.2436 19.6099 61.6163 19.7612 61.8946 20.0317C62.1728 20.3021 62.3347 20.6705 62.3457 21.0584C62.3349 21.8493 61.6374 22.4952 60.8561 22.5479Z" fill="#440099"/>
<path d="M56.7188 22.5479C56.4828 22.5528 56.249 22.5015 56.0367 22.3982C55.8245 22.295 55.6397 22.1428 55.4978 21.9542C55.3559 21.7656 55.2609 21.5459 55.2205 21.3133C55.1802 21.0808 55.1957 20.8419 55.2657 20.6165C55.3358 20.3911 55.4584 20.1856 55.6235 20.0169C55.7886 19.8482 55.9914 19.7211 56.2152 19.6462C56.4391 19.5712 56.6775 19.5506 56.9109 19.5859C57.1443 19.6212 57.366 19.7114 57.5576 19.8492C57.6537 19.958 57.7881 20.0254 57.9327 20.0374C58.1616 20.0374 58.3078 19.902 58.3078 19.7138C58.2982 19.607 58.2501 19.5073 58.1724 19.4334C57.766 19.1029 57.2581 18.9226 56.7343 18.9229C56.3698 18.9211 56.0107 19.0107 55.6899 19.1837C55.369 19.3567 55.0968 19.6075 54.898 19.9131C54.6993 20.2186 54.5804 20.5692 54.5524 20.9326C54.5243 21.296 54.5879 21.6607 54.7374 21.9931C54.8869 22.3256 55.1174 22.6152 55.4079 22.8354C55.6983 23.0556 56.0394 23.1994 56.3999 23.2535C56.7604 23.3077 57.1286 23.2704 57.471 23.1453C57.8133 23.0201 58.1188 22.811 58.3593 22.5371L57.8488 22.0266C57.7119 22.1931 57.5392 22.3264 57.3435 22.4167C57.1478 22.5069 56.9342 22.5518 56.7188 22.5479Z" fill="#440099"/>
<path d="M79.1902 20.8295C79.002 20.7348 78.4915 20.5059 78.4915 20.5059C78.2111 20.3705 78.1164 20.2243 78.1164 19.9954C78.1164 19.7665 78.3046 19.5269 78.7623 19.5269C78.9538 19.5336 79.1419 19.5797 79.3148 19.6623C79.3978 19.7196 79.4955 19.7521 79.5964 19.7558C79.639 19.7567 79.6814 19.7491 79.7209 19.7332C79.7605 19.7174 79.7964 19.6937 79.8265 19.6635C79.8567 19.6334 79.8804 19.5975 79.8962 19.5579C79.9121 19.5184 79.9197 19.476 79.9187 19.4334C79.9179 19.3623 79.8956 19.2932 79.8548 19.235C79.8139 19.1768 79.7564 19.1324 79.6899 19.1075C79.3865 18.954 79.0508 18.8755 78.7108 18.8786C77.9187 18.8786 77.3663 19.3471 77.3663 20.035C77.3663 20.6341 77.7833 20.9625 78.2938 21.1914C78.3873 21.2333 78.7624 21.4203 78.8462 21.473C79.1278 21.6084 79.3148 21.7534 79.3148 22.0242C79.3148 22.3478 79.0332 22.5767 78.6173 22.5767C78.4299 22.5743 78.2453 22.5311 78.0762 22.4502C77.9072 22.3693 77.7577 22.2526 77.6383 22.1081L77.1733 22.5275C77.268 22.6629 77.6838 23.1734 78.5694 23.1734C79.455 23.1734 80.0494 22.6629 80.0494 21.9643C80.0757 21.5269 79.8876 21.1518 79.1902 20.8295Z" fill="#440099"/>
<path d="M97.8582 18.8809C97.7917 18.8749 97.725 18.8896 97.6673 18.9231C97.6095 18.9566 97.5636 19.0072 97.5358 19.0679L96.4214 21.8085L95.3057 19.0679C95.3057 19.0271 95.2122 18.8809 94.9834 18.8809C94.905 18.8827 94.8298 18.9119 94.7707 18.9633C94.7116 19.0147 94.6724 19.0852 94.6598 19.1626L94.0139 22.8295C93.9943 22.8726 93.9806 22.9182 93.9731 22.9649C93.9731 23.1519 94.1086 23.2873 94.3482 23.2873C94.4263 23.2852 94.5013 23.256 94.5601 23.2045C94.619 23.1531 94.6581 23.0828 94.6706 23.0057L95.1811 20.3058L96.1074 22.7252C96.1259 22.795 96.1683 22.8561 96.2272 22.8979C96.2861 22.9398 96.3578 22.9596 96.4298 22.9541C96.5021 22.9609 96.5745 22.9415 96.6339 22.8996C96.6932 22.8576 96.7356 22.7957 96.7533 22.7252L97.6808 20.3058L98.2333 23.2333H98.9319L98.1913 19.1494C98.1719 19.0749 98.129 19.0085 98.069 18.9602C98.0091 18.9119 97.9351 18.8841 97.8582 18.8809V18.8809Z" fill="#440099"/>
<path d="M104.497 18.8809C104.361 18.8809 104.215 18.9229 104.173 19.0679L102.548 22.7828C102.532 22.8011 102.52 22.8227 102.513 22.846C102.506 22.8693 102.503 22.8939 102.506 22.9182C102.501 22.9618 102.506 23.006 102.521 23.0475C102.535 23.089 102.559 23.1266 102.59 23.1576C102.621 23.1887 102.659 23.2122 102.7 23.2266C102.742 23.2409 102.786 23.2457 102.83 23.2405C102.896 23.2466 102.963 23.2318 103.021 23.1984C103.079 23.1649 103.124 23.1143 103.152 23.0536L103.705 21.8972H105.33L105.882 23.1998H106.621L104.808 19.0679C104.779 19.0106 104.735 18.9626 104.679 18.9295C104.624 18.8965 104.561 18.8796 104.497 18.8809ZM103.898 21.298L104.449 20.0481L105.001 21.298H103.898Z" fill="#440099"/>
<path d="M74.8248 18.881C74.6894 18.881 74.5444 18.9229 74.5024 19.0679L72.8775 22.7828C72.8614 22.8011 72.8493 22.8227 72.8421 22.846C72.8349 22.8693 72.8326 22.8939 72.8355 22.9182C72.8303 22.9618 72.8351 23.006 72.8494 23.0475C72.8638 23.0889 72.8874 23.1266 72.9184 23.1577C72.9495 23.1887 72.9872 23.2123 73.0286 23.2266C73.0701 23.241 73.1143 23.2457 73.1579 23.2405C73.2245 23.2465 73.2913 23.2317 73.3493 23.1983C73.4072 23.1648 73.4533 23.1143 73.4815 23.0536L74.0339 21.8972H75.6589L76.2149 23.2046H76.9543L75.1567 19.0679C75.1233 19.0098 75.0749 18.9617 75.0165 18.9288C74.958 18.8959 74.8918 18.8794 74.8248 18.881V18.881ZM74.2256 21.298L74.7769 20.0481L75.3293 21.298H74.2256Z" fill="#440099"/>
<path d="M109.933 21.8912C109.933 21.8912 108.078 19.4334 107.797 19.1074C107.696 18.986 107.567 18.8896 107.422 18.8258C107.379 18.8243 107.337 18.8317 107.297 18.8474C107.257 18.8631 107.221 18.8869 107.19 18.9172C107.16 18.9476 107.136 18.9839 107.12 19.0238C107.105 19.0637 107.097 19.1065 107.099 19.1494V22.8643C107.097 22.9071 107.105 22.9499 107.12 22.9898C107.136 23.0298 107.16 23.066 107.19 23.0964C107.221 23.1267 107.257 23.1505 107.297 23.1662C107.337 23.182 107.379 23.1893 107.422 23.1878C107.514 23.1923 107.605 23.1612 107.675 23.1009C107.744 23.0407 107.788 22.956 107.797 22.8643V20.1728C107.797 20.1728 109.464 22.3502 109.933 22.9122C110.026 23.0476 110.12 23.1938 110.308 23.1938C110.351 23.1953 110.394 23.188 110.433 23.1722C110.473 23.1565 110.509 23.1327 110.54 23.1023C110.57 23.072 110.594 23.0357 110.609 22.9957C110.625 22.9558 110.632 22.9131 110.63 22.8702V18.8809H109.933V21.8912Z" fill="#440099"/>
<path d="M114.526 18.9229C114.472 18.9208 114.418 18.9321 114.369 18.9557C114.32 18.9793 114.278 19.0145 114.246 19.0583L113.037 20.7767L111.829 19.0583C111.787 18.9636 111.693 18.9229 111.547 18.9229C111.455 18.9184 111.365 18.9494 111.295 19.0093C111.225 19.0693 111.181 19.1537 111.172 19.2453C111.167 19.3108 111.181 19.3763 111.214 19.4334L112.652 21.4706V23.231H113.349V21.4226L114.787 19.3855C114.787 19.3435 114.829 19.25 114.829 19.1985C114.833 19.1589 114.828 19.1189 114.814 19.0817C114.799 19.0446 114.776 19.0113 114.747 18.9845C114.718 18.9577 114.682 18.9382 114.644 18.9275C114.606 18.9168 114.565 18.9152 114.526 18.9229V18.9229Z" fill="#440099"/>
<path d="M102.681 20.2662C102.681 19.4741 102.171 18.8702 101.098 18.8702H99.7956C99.7528 18.8686 99.7101 18.876 99.6702 18.8917C99.6303 18.9075 99.5941 18.9313 99.5638 18.9616C99.5336 18.992 99.5099 19.0283 99.4943 19.0682C99.4787 19.1082 99.4716 19.1509 99.4732 19.1937V22.8607C99.468 22.9042 99.4728 22.9484 99.4871 22.9899C99.5015 23.0314 99.5251 23.0691 99.5561 23.1001C99.5872 23.1312 99.6248 23.1547 99.6663 23.1691C99.7078 23.1835 99.752 23.1882 99.7956 23.183C100.024 23.183 100.171 23.0476 100.171 22.8607V21.6108H101.098C102.219 21.624 102.734 21.0164 102.681 20.2662ZM101.109 20.9649H100.181V19.5688H101.109C101.66 19.5688 101.993 19.8492 101.993 20.2662C101.993 20.6833 101.66 20.9649 101.109 20.9649Z" fill="#440099"/>
<path d="M87.3164 22.5479C86.9214 22.5479 86.5425 22.391 86.2632 22.1116C85.9838 21.8323 85.8269 21.4534 85.8269 21.0584C85.8269 20.6633 85.9838 20.2844 86.2632 20.0051C86.5425 19.7257 86.9214 19.5688 87.3164 19.5688C87.6184 19.5728 87.9116 19.6708 88.1553 19.8492C88.2513 19.958 88.3857 20.0254 88.5304 20.0374C88.6202 20.0338 88.7063 19.9998 88.7744 19.9411C88.8425 19.8823 88.8887 19.8022 88.9054 19.7138C88.8959 19.607 88.8478 19.5073 88.77 19.4334C88.3637 19.1029 87.8558 18.9226 87.332 18.9229C86.9675 18.9211 86.6084 19.0107 86.2875 19.1837C85.9667 19.3567 85.6944 19.6075 85.4957 19.9131C85.2969 20.2186 85.1781 20.5692 85.15 20.9326C85.122 21.296 85.1856 21.6607 85.335 21.9931C85.4845 22.3256 85.7151 22.6152 86.0055 22.8354C86.296 23.0556 86.6371 23.1994 86.9976 23.2535C87.358 23.3077 87.7263 23.2704 88.0686 23.1453C88.411 23.0201 88.7164 22.811 88.957 22.5371L88.4381 22.0266C88.3021 22.192 88.1308 22.3247 87.9366 22.415C87.7425 22.5052 87.5305 22.5506 87.3164 22.5479V22.5479Z" fill="#440099"/>
<path d="M82.8574 18.9229H80.6273C80.3984 18.9229 80.2534 19.0583 80.2534 19.2452C80.2534 19.4322 80.3888 19.5688 80.6273 19.5688H81.4194V23.1938H82.118V19.5688H82.909C83.139 19.5688 83.284 19.4334 83.284 19.2452C83.2744 19.0164 83.139 18.8809 82.8574 18.9229Z" fill="#440099"/>
<path d="M91.3991 18.881C90.9684 18.881 90.5475 19.0087 90.1894 19.2479C89.8313 19.4872 89.5522 19.8272 89.3874 20.2251C89.2226 20.623 89.1795 21.0608 89.2635 21.4831C89.3475 21.9055 89.5549 22.2935 89.8594 22.598C90.1639 22.9025 90.5519 23.1099 90.9743 23.1939C91.3967 23.2779 91.8345 23.2348 92.2323 23.07C92.6302 22.9052 92.9703 22.6261 93.2095 22.2681C93.4488 21.91 93.5765 21.489 93.5765 21.0584C93.5766 20.7724 93.5204 20.4892 93.411 20.2249C93.3017 19.9607 93.1413 19.7206 92.9391 19.5184C92.7369 19.3161 92.4968 19.1558 92.2325 19.0464C91.9683 18.937 91.6851 18.8808 91.3991 18.881V18.881ZM91.3991 22.5479C91.0052 22.5442 90.6285 22.386 90.35 22.1075C90.0714 21.8289 89.9133 21.4522 89.9095 21.0584C89.9095 20.6633 90.0665 20.2844 90.3458 20.0051C90.6252 19.7257 91.004 19.5688 91.3991 19.5688C91.7941 19.5688 92.173 19.7257 92.4523 20.0051C92.7317 20.2844 92.8886 20.6633 92.8886 21.0584C92.8886 21.8493 92.1912 22.4952 91.3991 22.5479Z" fill="#440099"/>
<path d="M62.3655 2.21073L60.7921 10.7969C59.8658 8.50445 57.7399 3.2473 57.6464 3.07713C57.5724 2.92063 57.4561 2.78797 57.3106 2.69415C57.1651 2.60033 56.9963 2.54911 56.8232 2.54627C56.6559 2.55128 56.4936 2.60389 56.3552 2.69792C56.2168 2.79195 56.1081 2.9235 56.0419 3.07713V3.07713C55.8333 3.52532 53.8333 8.45292 52.8854 10.7969L51.3228 2.21073C51.2847 2.0086 51.1762 1.82654 51.0164 1.69704C50.8566 1.56755 50.656 1.49902 50.4504 1.5037C50.2186 1.51397 49.9991 1.61108 49.8356 1.77573C49.7429 1.88176 49.6737 2.00617 49.6324 2.14081C49.5911 2.27544 49.5787 2.41728 49.5959 2.55705C49.9399 4.46242 51.6271 13.7664 51.7002 13.9953C51.743 14.1909 51.8507 14.3664 52.0058 14.493C52.161 14.6196 52.3544 14.69 52.5547 14.6927H52.575C52.7359 14.6834 52.8914 14.6312 53.0252 14.5414C53.1591 14.4516 53.2664 14.3276 53.336 14.1822C53.4402 13.9953 55.8777 8.10899 56.8364 5.73387L60.1917 13.9425L60.296 14.1726C60.3726 14.3415 60.5007 14.4817 60.662 14.5732C60.8233 14.6647 61.0094 14.7027 61.1937 14.6818C61.3779 14.6609 61.5508 14.5822 61.6875 14.4569C61.8242 14.3316 61.9177 14.1662 61.9545 13.9845V13.9845C62.0743 13.4536 63.4345 6.03585 64.0588 2.53548C64.0812 2.41061 64.076 2.28235 64.0435 2.15972C64.011 2.0371 63.952 1.92309 63.8706 1.82574C63.7892 1.7284 63.6875 1.65007 63.5726 1.5963C63.4577 1.54252 63.3324 1.51459 63.2056 1.51449V1.51449C63.0055 1.5113 62.8109 1.57971 62.6569 1.70738C62.5028 1.83505 62.3995 2.01357 62.3655 2.21073V2.21073Z" fill="#440099"/>
<path d="M3.01648 14.6736V9.01496H9.62177C9.7463 9.01944 9.87046 8.99878 9.98682 8.95422C10.1032 8.90965 10.2094 8.84209 10.2991 8.75558C10.3888 8.66906 10.4601 8.56537 10.5088 8.45067C10.5575 8.33598 10.5826 8.21265 10.5826 8.08804C10.5826 7.96343 10.5575 7.8401 10.5088 7.72541C10.4601 7.61072 10.3888 7.50702 10.2991 7.4205C10.2094 7.33399 10.1032 7.26643 9.98682 7.22187C9.87046 7.1773 9.7463 7.15664 9.62177 7.16112H3.01648V3.35876H9.62177C9.86777 3.35876 10.1037 3.26104 10.2776 3.0871C10.4516 2.91316 10.5493 2.67724 10.5493 2.43124C10.5493 2.18525 10.4516 1.94933 10.2776 1.77539C10.1037 1.60144 9.86777 1.50372 9.62177 1.50372H2.02785C1.80225 1.50499 1.58572 1.59265 1.42278 1.74868C1.25984 1.9047 1.16289 2.11724 1.15186 2.34257V14.6831H3.01648V14.6736Z" fill="#440099"/>
<path d="M21.4499 5.42113C21.4484 4.37736 21.0324 3.37691 20.2935 2.63976C19.9296 2.27151 19.4955 1.98013 19.0169 1.78292C18.5383 1.5857 18.0249 1.48669 17.5073 1.49175H12.8613C12.6345 1.50298 12.4204 1.59976 12.2621 1.76257C12.1099 1.92517 12.0244 2.13903 12.0225 2.36175V2.37253V13.7904V13.8108C12.0231 13.9231 12.0465 14.0342 12.0915 14.1372C12.1364 14.2402 12.2018 14.333 12.2837 14.4099C12.444 14.5671 12.6584 14.6567 12.8829 14.6604H13.0027C13.2347 14.6604 13.4572 14.5682 13.6213 14.4042C13.7853 14.2401 13.8775 14.0176 13.8775 13.7856V9.01497H17.3982L19.7051 14.6736H21.5913L19.2473 8.95265C19.9095 8.63087 20.4675 8.12877 20.8571 7.50406C21.2467 6.87935 21.4522 6.15738 21.4499 5.42113V5.42113ZM17.699 7.15034H13.8919V3.35877H17.6942C18.197 3.35877 18.6792 3.5585 19.0348 3.91403C19.3903 4.26956 19.59 4.75176 19.59 5.25456C19.59 5.75735 19.3903 6.23955 19.0348 6.59508C18.6792 6.95061 18.197 7.15034 17.6942 7.15034H17.699Z" fill="#440099"/>
<path d="M75.3977 1.50372H75.2947C75.1795 1.5034 75.0654 1.52584 74.9589 1.56973C74.8524 1.61363 74.7556 1.67812 74.6741 1.75951C74.5926 1.8409 74.528 1.93759 74.484 2.04402C74.4399 2.15045 74.4173 2.26453 74.4175 2.37971V7.15033H67.4395V2.37971C67.4397 2.26473 67.4172 2.15085 67.3733 2.04457C67.3294 1.9383 67.265 1.84172 67.1837 1.76036C67.1025 1.679 67.006 1.61446 66.8998 1.57042C66.7936 1.52639 66.6797 1.50372 66.5647 1.50372H66.4605C66.3454 1.50356 66.2314 1.52611 66.1251 1.57008C66.0187 1.61405 65.9221 1.67856 65.8407 1.75994C65.7593 1.84131 65.6948 1.93795 65.6508 2.0443C65.6069 2.15065 65.5843 2.26463 65.5845 2.37971V13.7976C65.5845 13.9125 65.6071 14.0264 65.6512 14.1326C65.6952 14.2388 65.7598 14.3353 65.8411 14.4166C65.9225 14.4978 66.0191 14.5622 66.1253 14.6061C66.2316 14.65 66.3455 14.6725 66.4605 14.6724H66.5647C66.7967 14.6724 67.0192 14.5802 67.1833 14.4161C67.3474 14.2521 67.4395 14.0296 67.4395 13.7976V9.01496H74.4175V13.7448C74.4181 13.9906 74.516 14.2262 74.6899 14.4C74.8637 14.5738 75.0992 14.6717 75.345 14.6724V14.6724C75.5908 14.6717 75.8264 14.5738 76.0002 14.4C76.174 14.2262 76.2719 13.9906 76.2725 13.7448V2.37971C76.2745 2.26424 76.2532 2.14956 76.2099 2.04248C76.1667 1.9354 76.1023 1.83811 76.0207 1.75639C75.9391 1.67468 75.8419 1.6102 75.7349 1.56679C75.6279 1.52338 75.5132 1.50194 75.3977 1.50372V1.50372Z" fill="#440099"/>
<path d="M107.319 12.8173V2.37972C107.319 2.26463 107.297 2.15065 107.253 2.0443C107.209 1.93795 107.144 1.84132 107.063 1.75994C106.981 1.67857 106.885 1.61405 106.778 1.57008C106.672 1.52612 106.558 1.50357 106.443 1.50372H106.34C106.225 1.50357 106.111 1.52612 106.004 1.57008C105.898 1.61405 105.801 1.67857 105.72 1.75994C105.639 1.84132 105.574 1.93795 105.53 2.0443C105.486 2.15065 105.464 2.26463 105.464 2.37972V13.7976C105.464 13.9125 105.487 14.0264 105.531 14.1326C105.575 14.2388 105.639 14.3353 105.721 14.4166C105.802 14.4978 105.898 14.5622 106.005 14.6061C106.111 14.65 106.225 14.6725 106.34 14.6724V14.6831H114.861V12.8173H107.319Z" fill="#440099"/>
<path d="M42.114 1.50372C40.5398 1.50475 39.0177 2.0679 37.8218 3.09172C36.626 4.11553 35.835 5.53273 35.5914 7.08802C35.3657 5.6206 34.6521 4.27207 33.5657 3.26015C32.4793 2.24824 31.0835 1.63199 29.6038 1.51091C28.1241 1.38983 26.6467 1.77098 25.4102 2.59282C24.1738 3.41467 23.2504 4.62924 22.7891 6.04045C22.3279 7.45165 22.3557 8.97713 22.8681 10.3706C23.3805 11.764 24.3475 12.9441 25.6131 13.7204C26.8787 14.4966 28.369 14.8236 29.8433 14.6487C31.3176 14.4738 32.69 13.807 33.7388 12.7562L32.4206 11.438C31.816 12.0468 31.0571 12.4795 30.2252 12.6897C29.3934 12.8999 28.52 12.8798 27.6988 12.6313C26.8775 12.3829 26.1394 11.9156 25.5636 11.2796C24.9877 10.6436 24.5959 9.86277 24.43 9.02095H46.7552C46.5425 10.0964 45.963 11.0646 45.1156 11.7601C44.2682 12.4556 43.2055 12.8352 42.1093 12.8341C41.4861 12.8364 40.8687 12.7141 40.2935 12.4744C39.7183 12.2346 39.1969 11.8823 38.7599 11.438L37.4417 12.7562C38.2077 13.5223 39.1507 14.0877 40.1874 14.4024C41.224 14.7172 42.3222 14.7715 43.3848 14.5607C44.4474 14.3499 45.4417 13.8804 46.2797 13.1938C47.1176 12.5072 47.7734 11.6246 48.189 10.6241C48.6045 9.62364 48.7671 8.53617 48.6622 7.45792C48.5574 6.37967 48.1884 5.34388 47.5878 4.44223C46.9873 3.54058 46.1738 2.80086 45.2192 2.28852C44.2647 1.77619 43.1986 1.50705 42.1152 1.50492L42.114 1.50372ZM24.436 7.15033C24.6526 6.08054 25.2326 5.11858 26.0775 4.42759C26.9224 3.73659 27.9803 3.35909 29.0718 3.35909C30.1633 3.35909 31.2212 3.73659 32.0662 4.42759C32.9111 5.11858 33.491 6.08054 33.7076 7.15033H24.436ZM37.4681 7.15033C37.6847 6.08054 38.2646 5.11858 39.1095 4.42759C39.9545 3.73659 41.0124 3.35909 42.1039 3.35909C43.1954 3.35909 44.2533 3.73659 45.0982 4.42759C45.9431 5.11858 46.5231 6.08054 46.7397 7.15033H37.4681Z" fill="#440099"/>
<path d="M97.3791 1.50372C95.8051 1.50504 94.2832 2.06831 93.0876 3.09211C91.892 4.1159 91.1013 5.53293 90.8577 7.08802C90.6322 5.62058 89.9188 4.27196 88.8326 3.25987C87.7464 2.24778 86.3507 1.63131 84.8711 1.50997C83.3914 1.38863 81.914 1.76951 80.6774 2.59112C79.4408 3.41272 78.5172 4.62711 78.0556 6.03821C77.5941 7.44931 77.6216 8.97477 78.1337 10.3683C78.6459 11.7619 79.6127 12.9421 80.8781 13.7186C82.1435 14.4951 83.6337 14.8225 85.108 14.6478C86.5824 14.4732 87.9549 13.8068 89.0039 12.7562L87.6857 11.438C87.0808 12.0481 86.3211 12.4819 85.4882 12.6925C84.6553 12.9032 83.7807 12.8829 82.9585 12.6337C82.1363 12.3845 81.3975 11.9159 80.8217 11.2783C80.2459 10.6407 79.8547 9.85822 79.6903 9.01496H102.005C101.792 10.0905 101.213 11.0588 100.365 11.7544C99.5178 12.4499 98.4551 12.8294 97.3588 12.8281C96.7368 12.8306 96.1206 12.7089 95.5463 12.4702C94.972 12.2315 94.4511 11.8806 94.0142 11.438L92.696 12.7562C93.4618 13.5217 94.4045 14.0867 95.4406 14.4012C96.4767 14.7158 97.5743 14.7703 98.6365 14.5598C99.6986 14.3493 100.693 13.8804 101.53 13.1945C102.368 12.5085 103.024 11.6268 103.44 10.6271C103.856 9.62739 104.02 8.54059 103.916 7.46277C103.812 6.38495 103.444 5.34931 102.845 4.4474C102.246 3.54549 101.434 2.80509 100.48 2.29168C99.5271 1.77826 98.4619 1.50763 97.3791 1.50372V1.50372ZM79.7011 7.15033C79.9177 6.08054 80.4976 5.11859 81.3426 4.42759C82.1875 3.7366 83.2454 3.35909 84.3369 3.35909C85.4284 3.35909 86.4863 3.7366 87.3312 4.42759C88.1762 5.11859 88.7561 6.08054 88.9727 7.15033H79.7011ZM92.7331 7.15033C92.9497 6.08054 93.5297 5.11859 94.3746 4.42759C95.2195 3.7366 96.2774 3.35909 97.3689 3.35909C98.4604 3.35909 99.5183 3.7366 100.363 4.42759C101.208 5.11859 101.788 6.08054 102.005 7.15033H92.7331Z" fill="#440099"/>
</svg>
