<svg width="122" height="57" viewBox="0 0 122 57" fill="none" xmlns="http://www.w3.org/2000/svg">
<path d="M11.2476 22.8819H18.9283L18.9122 24.9886H13.6578V27.7518H18.4783V29.8748H13.6578V34.1289H11.2476V22.8819Z" fill="#1A1A1A"/>
<path d="M31.3334 30.9849C31.7657 31.4508 32.3457 31.6834 33.0688 31.6834C33.771 31.6834 34.3302 31.4541 34.748 30.993C35.1657 30.5319 35.3738 29.8991 35.3738 29.0807V22.4767H37.7841V29.0807C37.7841 30.0693 37.5937 30.9201 37.2112 31.6412C36.8296 32.3649 36.2793 32.9215 35.5723 33.3105C34.8604 33.7019 34.0217 33.8963 33.0495 33.8963C32.0854 33.8963 31.2338 33.7019 30.5107 33.3105C29.7876 32.9199 29.2333 32.3624 28.8476 31.6412C28.4604 30.9193 28.2676 30.0693 28.2676 29.0807V22.4767H30.6778V29.0807C30.6778 29.8845 30.8948 30.523 31.327 30.9849" fill="#1A1A1A"/>
<path d="M47.4033 22.8819H56.3212V25.0373H53.0513V34.1127H50.6411V25.0373H47.3872L47.4033 22.8819Z" fill="#1A1A1A"/>
<path d="M102.837 22.8819H110.951V24.9886H105.223V27.4277H110.365V29.5345H105.223V32.0221H111.12V34.1289H102.845L102.837 22.8819Z" fill="#1A1A1A"/>
<path d="M90.7867 30.1746C91.4374 29.8537 91.9355 29.3853 92.273 28.7728C92.6136 28.1577 92.7831 27.4195 92.7831 26.5525C92.7831 25.3127 92.4015 24.3485 91.6423 23.6678C90.8798 22.988 89.8025 22.6468 88.4045 22.6468H83.7607V33.9101H86.171V24.7536H88.3965C89.0689 24.7536 89.5855 24.9108 89.9471 25.2269C90.3078 25.5421 90.4894 26.0112 90.4894 26.6287C90.4894 27.2607 90.3078 27.7388 89.9471 28.0629C89.5863 28.387 89.0713 28.5523 88.3965 28.5523H87.5368L88.8384 31.0643L90.3247 33.8842H93.0563L90.7867 30.1746Z" fill="#1A1A1A"/>
<path d="M68.2918 30.9849C68.7249 31.4508 69.3042 31.6834 70.0272 31.6834C70.7302 31.6834 71.2886 31.4541 71.7064 30.993C72.1242 30.5319 72.3314 29.8991 72.3314 29.0807V22.4767H74.7417V29.0807C74.7417 30.0693 74.5513 30.9201 74.1689 31.6412C73.7872 32.3649 73.2369 32.9215 72.5299 33.3105C71.8173 33.7019 70.9793 33.8963 70.0071 33.8963C69.043 33.8963 68.1914 33.7019 67.4764 33.3105C66.7525 32.9199 66.1989 32.3624 65.8133 31.6412C65.4252 30.9193 65.2324 30.0693 65.2324 29.0807V22.4767H67.6427V29.0807C67.6427 29.8845 67.8596 30.523 68.2918 30.9849" fill="#1A1A1A"/>
<path d="M8.03438 0.19324V8.23148H0.0644531V11.416H11.232V0.233755L8.03438 0.19324Z" fill="#AA1124"/>
<path d="M0 45.5704V48.7549H7.96993V56.7932H11.1274V45.5299L0 45.5704Z" fill="#AA1124"/>
<path d="M110.873 45.5705V56.8337H114.03V48.7955H122V45.611L110.873 45.5705Z" fill="#AA1124"/>
<path d="M110.873 0.193274V11.3755H121.96V8.191H113.99V0.152758L110.873 0.193274Z" fill="#AA1124"/>
</svg>
