<svg width="94" height="27" viewBox="0 0 94 27" fill="none" xmlns="http://www.w3.org/2000/svg">
<g clip-path="url(#clip0)">
<path d="M18.1038 11.8658H10.2013C10.1034 11.8664 10.0098 11.9058 9.9409 11.9752C9.87196 12.0446 9.83328 12.1385 9.83328 12.2363V16.0989C9.83328 16.1965 9.87205 16.2901 9.94106 16.3591C10.0101 16.4281 10.1037 16.4668 10.2013 16.4668H13.2834V21.2663C13.2834 21.2663 12.5918 21.5012 10.6736 21.5012C8.41615 21.5012 5.26351 20.6765 5.26351 13.7448C5.26351 6.81317 8.54663 5.89713 11.6288 5.89713C14.296 5.89713 15.447 6.3669 16.1777 6.59395C16.2313 6.60432 16.2864 6.60274 16.3393 6.58932C16.3922 6.57591 16.4415 6.55099 16.4836 6.51633C16.5257 6.48168 16.5597 6.43816 16.5831 6.38887C16.6064 6.33958 16.6186 6.28573 16.6188 6.23119L17.5009 2.49916C17.5026 2.44345 17.4906 2.38816 17.4661 2.33813C17.4415 2.28809 17.4051 2.24482 17.36 2.21208C17.0624 2.00069 15.2512 0.985474 10.6736 0.985474C5.39922 0.985474 -0.00830078 3.22991 -0.00830078 14.0136C-0.00830078 24.7973 6.18476 26.4076 11.4018 26.4076C15.7236 26.4076 18.3465 24.5599 18.3465 24.5599C18.3879 24.5269 18.4203 24.484 18.4408 24.4352C18.4614 24.3864 18.4693 24.3333 18.4639 24.2806V12.2442C18.466 12.1463 18.4293 12.0516 18.3618 11.9807C18.2944 11.9098 18.2016 11.8685 18.1038 11.8658V11.8658Z" fill="#100E0F"/>
<path d="M58.8121 2.28575C58.8124 2.23743 58.8033 2.18951 58.7851 2.14473C58.7669 2.09996 58.7401 2.0592 58.7062 2.02478C58.6722 1.99037 58.6319 1.96298 58.5873 1.94417C58.5428 1.92536 58.495 1.9155 58.4467 1.91516H54.01C53.9122 1.91585 53.8186 1.9552 53.7497 2.02463C53.6807 2.09405 53.6421 2.18792 53.6421 2.28575V10.8825H46.7V2.28575C46.7 2.18792 46.6613 2.09405 46.5924 2.02463C46.5234 1.9552 46.4298 1.91585 46.332 1.91516H41.8953C41.7975 1.91585 41.7039 1.9552 41.635 2.02463C41.566 2.09405 41.5274 2.18792 41.5274 2.28575V25.56C41.527 25.6087 41.5363 25.6569 41.5546 25.702C41.5729 25.7471 41.5999 25.7882 41.634 25.8228C41.6682 25.8575 41.7089 25.8851 41.7537 25.904C41.7985 25.9229 41.8467 25.9329 41.8953 25.9332H46.332C46.3807 25.9329 46.4288 25.9229 46.4736 25.904C46.5185 25.8851 46.5591 25.8575 46.5933 25.8228C46.6275 25.7882 46.6545 25.7471 46.6728 25.702C46.6911 25.6569 46.7003 25.6087 46.7 25.56V15.6062H53.6316V25.56C53.6316 25.6585 53.6706 25.7531 53.74 25.823C53.8094 25.8929 53.9037 25.9325 54.0022 25.9332H58.4598C58.5083 25.9329 58.5563 25.9229 58.601 25.904C58.6457 25.885 58.6862 25.8574 58.7201 25.8227C58.7541 25.788 58.7809 25.7469 58.7989 25.7018C58.8169 25.6567 58.8258 25.6086 58.8251 25.56L58.8121 2.28575Z" fill="#100E0F"/>
<path d="M26.4973 5.34188C26.4922 4.77523 26.3194 4.22278 26.0009 3.75413C25.6823 3.28548 25.2322 2.92159 24.7072 2.7083C24.1822 2.49501 23.6058 2.44187 23.0506 2.55557C22.4955 2.66927 21.9864 2.94473 21.5875 3.34723C21.1886 3.74974 20.9178 4.26129 20.8091 4.81745C20.7005 5.3736 20.7588 5.94948 20.9769 6.47253C21.1949 6.99557 21.5628 7.4424 22.0344 7.7567C22.5059 8.07101 23.0599 8.23874 23.6265 8.23877C24.0057 8.23878 24.3812 8.16367 24.7312 8.01777C25.0812 7.87187 25.3988 7.65807 25.6658 7.38873C25.9327 7.11938 26.1436 6.79982 26.2863 6.4485C26.4291 6.09718 26.5008 5.72107 26.4973 5.34188Z" fill="#100E0F"/>
<path d="M26.179 20.6511V9.90648C26.179 9.80864 26.1403 9.71477 26.0714 9.64535C26.0025 9.57592 25.9089 9.53658 25.811 9.53589H21.3744C21.2705 9.54554 21.1738 9.59325 21.103 9.66985C21.0322 9.74645 20.9922 9.84653 20.9907 9.95085V25.3487C20.9907 25.8002 21.2726 25.9333 21.6353 25.9333H25.631C26.0694 25.9333 26.1764 25.7193 26.1764 25.3409L26.179 20.6511Z" fill="#100E0F"/>
<path d="M75.7077 9.57239H71.3024C71.2046 9.57308 71.111 9.61242 71.042 9.68185C70.9731 9.75127 70.9344 9.84514 70.9344 9.94298V21.3557C70.1289 21.8854 69.1869 22.1701 68.2228 22.1751C66.6308 22.1751 66.208 21.4548 66.208 19.8968V9.94298C66.2084 9.89466 66.1992 9.84673 66.181 9.80196C66.1629 9.75718 66.136 9.71642 66.1021 9.68201C66.0682 9.64759 66.0278 9.6202 65.9833 9.60139C65.9388 9.58259 65.891 9.57273 65.8427 9.57239H61.3538C61.256 9.57308 61.1624 9.61242 61.0935 9.68185C61.0245 9.75127 60.9858 9.84514 60.9858 9.94298V20.6432C60.9858 25.273 63.5669 26.4056 67.1163 26.4056C70.0262 26.4056 72.3724 24.7954 72.3724 24.7954C72.4103 25.1147 72.4651 25.4318 72.5368 25.7454C72.569 25.8038 72.6157 25.853 72.6724 25.8882C72.729 25.9234 72.7938 25.9434 72.8605 25.9463L75.7104 25.9333C75.8082 25.9326 75.9018 25.8932 75.9707 25.8238C76.0397 25.7544 76.0783 25.6605 76.0783 25.5627V9.94298C76.0783 9.84469 76.0393 9.75043 75.9698 9.68093C75.9003 9.61143 75.806 9.57239 75.7077 9.57239V9.57239Z" fill="#100E0F"/>
<path d="M87.7783 9.04776C86.3004 9.03886 84.8469 9.42542 83.5687 10.1674V2.28575C83.5687 2.18792 83.53 2.09405 83.4611 2.02463C83.3921 1.9552 83.2985 1.91585 83.2007 1.91516H78.7405C78.6427 1.91585 78.5491 1.9552 78.4802 2.02463C78.4112 2.09405 78.3726 2.18792 78.3726 2.28575V25.56C78.3722 25.6087 78.3815 25.6569 78.3998 25.702C78.4181 25.7471 78.4451 25.7882 78.4793 25.8228C78.5134 25.8575 78.5541 25.8851 78.5989 25.904C78.6438 25.9229 78.6919 25.9329 78.7405 25.9332H81.8358C81.9025 25.9321 81.9678 25.9131 82.0247 25.8782C82.0816 25.8434 82.1281 25.7938 82.1594 25.7349C82.2482 25.3824 82.311 25.0239 82.3473 24.6622C82.3473 24.6622 84.1742 26.3899 87.6217 26.3899C91.6747 26.3899 94.0001 24.3334 94.0001 17.1616C94.0001 9.9899 90.2889 9.04776 87.7783 9.04776ZM86.0376 22.162C85.1323 22.1385 84.2481 21.8833 83.4695 21.4209V14.0508C84.1706 13.6491 84.9472 13.3968 85.7505 13.3096C87.3399 13.1686 88.8822 13.6489 88.8822 17.4383C88.8718 21.4365 88.1802 22.2273 86.0376 22.162Z" fill="#100E0F"/>
<path d="M38.9617 9.53589H35.6264V5.12792C35.6264 4.9609 35.5402 4.86694 35.3471 4.86694H30.7956C30.6181 4.86694 30.5346 4.94524 30.5346 5.11488V9.66899C30.5346 9.66899 28.2563 10.2197 28.1023 10.264C28.0263 10.2871 27.9599 10.3341 27.9128 10.3981C27.8658 10.4621 27.8407 10.5396 27.8413 10.619V13.4897C27.841 13.5384 27.8502 13.5867 27.8685 13.6318C27.8868 13.6769 27.9138 13.7179 27.948 13.7526C27.9822 13.7872 28.0228 13.8148 28.0677 13.8337C28.1125 13.8527 28.1606 13.8626 28.2093 13.8629H30.5399V20.7398C30.5399 25.855 34.1257 26.3561 36.5424 26.3561C37.4334 26.3294 38.317 26.1855 39.1705 25.9281C39.2348 25.9006 39.2893 25.8541 39.3266 25.7949C39.3639 25.7357 39.3822 25.6665 39.3793 25.5966V22.4466C39.3786 22.349 39.3397 22.2555 39.2709 22.1862C39.2021 22.1169 39.1089 22.0774 39.0113 22.076C38.8156 22.076 38.3197 22.1543 37.8056 22.1543C36.1692 22.1543 35.6133 21.3922 35.6133 20.4057V13.8629H38.9617C39.0104 13.8626 39.0585 13.8527 39.1033 13.8337C39.1482 13.8148 39.1888 13.7872 39.223 13.7526C39.2572 13.7179 39.2842 13.6769 39.3025 13.6318C39.3208 13.5867 39.33 13.5384 39.3297 13.4897V9.90648C39.33 9.85794 39.3208 9.8098 39.3024 9.76486C39.2841 9.71991 39.257 9.67904 39.2228 9.64459C39.1886 9.61014 39.1479 9.5828 39.1031 9.56415C39.0583 9.54549 39.0102 9.53589 38.9617 9.53589V9.53589Z" fill="#100E0F"/>
</g>
<defs>
<clipPath id="clip0">
<rect width="94" height="25.4221" fill="white" transform="translate(0 0.993896)"/>
</clipPath>
</defs>
</svg>
