<svg width="100" height="27" viewBox="0 0 100 27" fill="none" xmlns="http://www.w3.org/2000/svg">
<g clip-path="url(#clip0)">
<path d="M32.7011 13.4996H37.5205C37.4125 13.9697 37.2328 14.4036 37.0169 14.8014C36.7651 15.3077 36.4055 15.7416 35.974 16.1032C35.5424 16.4648 35.0029 16.7903 34.3915 17.0072C33.7801 17.2242 33.0608 17.3327 32.2696 17.3327C31.5143 17.3327 30.795 17.1881 30.1477 16.8988C29.5003 16.6095 28.9248 16.1755 28.4573 15.6332C27.9898 15.0907 27.5941 14.4036 27.3065 13.5719C27.0187 12.7402 26.8748 11.8 26.8748 10.7513C26.8748 9.70269 27.0187 8.76246 27.3065 7.96693C27.5941 7.17137 27.9898 6.48431 28.4933 5.94189C28.9968 5.39946 29.5722 4.96553 30.2196 4.7124C30.8669 4.42311 31.5862 4.27846 32.3055 4.27846C33.4205 4.27846 34.3915 4.53159 35.1108 5.07402C35.7581 5.50795 36.2257 6.05037 36.5494 6.66512C36.5854 6.73743 36.6573 6.88208 36.6932 6.99056C36.7292 7.06289 36.8011 7.13521 36.9091 7.13521H40.8292C40.9731 7.13521 41.081 6.99056 41.045 6.84592C41.009 6.73743 40.9731 6.62896 40.9731 6.59279C40.7213 5.76108 40.3617 5.00169 39.8941 4.31463C39.3906 3.55524 38.7792 2.86817 38.0239 2.32576C37.3047 1.78333 36.4415 1.34939 35.4705 1.02395C34.5354 0.698494 33.4924 0.553848 32.3055 0.553848C30.9389 0.553848 29.6441 0.806977 28.4573 1.34939C27.2705 1.89182 26.2635 2.61504 25.4003 3.51908C24.5371 4.42311 23.8538 5.50795 23.3863 6.73744C22.9188 7.96693 22.667 9.34108 22.667 10.7513C22.667 12.1978 22.9188 13.5358 23.3863 14.8014C23.8898 16.0309 24.5371 17.1519 25.3643 18.0559C26.1915 18.96 27.1985 19.6832 28.3854 20.2256C29.5362 20.768 30.795 21.0212 32.1257 21.0212C33.4924 21.0212 34.7152 20.7318 35.7581 20.1895C36.5135 19.7555 37.1248 19.0685 37.5924 18.4898V20.4788C37.5924 20.5872 37.7003 20.6957 37.8081 20.6957H41.1888C41.2968 20.6957 41.4046 20.5872 41.4046 20.4788V10.0282C41.4046 9.91962 41.2968 9.81116 41.1888 9.81116H32.7011C32.5933 9.81116 32.4854 9.91962 32.4854 10.0282V13.2465C32.4854 13.3912 32.5933 13.4996 32.7011 13.4996Z" fill="black"/>
<path d="M43.2379 20.8042H46.7984C46.9063 20.8042 47.0142 20.6957 47.0142 20.5872V0.770816C47.0142 0.662332 46.9063 0.553848 46.7984 0.553848H43.2379C43.13 0.553848 43.0221 0.662332 43.0221 0.770816V20.5872C42.9861 20.6957 43.094 20.8042 43.2379 20.8042Z" fill="black"/>
<path d="M62.1558 17.4049V10.7151C62.1558 9.99185 62.0479 9.30477 61.8681 8.65392C61.6523 8.00299 61.2927 7.42441 60.7891 6.95431C60.2857 6.48421 59.6383 6.1226 58.8111 5.83331C58.0198 5.58018 57.0128 5.43553 55.7901 5.43553C54.7831 5.43553 53.8839 5.54402 53.0927 5.79715C52.3014 6.05028 51.6181 6.37572 51.0068 6.80966C50.4313 7.2436 49.9638 7.78602 49.6041 8.36462C49.3164 8.87085 49.1006 9.41331 48.9568 9.95569C48.9568 10.028 48.9208 10.1727 48.8848 10.3173C48.8488 10.4619 48.9568 10.5705 49.1006 10.5705H52.769C52.8769 10.5705 52.9488 10.4982 52.9848 10.4258C53.0208 10.3173 53.0568 10.1365 53.1287 10.028C53.3084 9.70254 53.5602 9.41331 53.9199 9.23246C54.3874 8.97931 55.0348 8.83469 55.7901 8.83469C56.5813 8.83469 57.1927 8.94315 57.5883 9.16015C57.9479 9.37715 58.1278 9.66639 58.1278 10.1003C58.1278 10.6066 57.8401 10.9682 57.2287 11.1852C56.5453 11.4383 55.4664 11.6915 53.9918 11.8722C53.3084 11.9808 52.6251 12.0892 51.9418 12.27C51.2584 12.4508 50.6111 12.7039 50.0717 13.0294C49.4962 13.3548 49.0646 13.825 48.705 14.3674C48.3453 14.9098 48.1655 15.633 48.1655 16.4648C48.1655 17.2603 48.3094 17.9835 48.6331 18.5621C48.9568 19.1407 49.3524 19.6108 49.8918 19.9724C50.3953 20.334 50.9708 20.5872 51.6181 20.7679C52.2655 20.9488 52.9128 21.0211 53.5962 21.0211C54.855 21.0211 55.8979 20.7679 56.7251 20.334C57.3365 19.9724 57.8401 19.5385 58.2716 19.0322C58.3076 19.3215 58.5953 20.7318 58.5953 20.7318H62.0839C62.1558 20.7318 62.1558 18.1282 62.1558 17.4049ZM58.1997 14.9098C58.1997 15.7415 57.876 16.3924 57.2287 16.8625C56.5453 17.3688 55.6462 17.6219 54.5672 17.6219C53.776 17.6219 53.1646 17.5134 52.8409 17.2603C52.5172 17.0433 52.3734 16.7178 52.3734 16.3201C52.3734 15.8138 52.5532 15.4884 52.9128 15.3076C53.3445 15.0906 53.9199 14.9098 54.7111 14.7652C55.5023 14.6205 56.2216 14.4397 56.8331 14.2951C57.3365 14.1504 57.8041 13.9696 58.2357 13.7526V14.9098H58.1997Z" fill="black"/>
<path d="M78.304 0.553848H74.7798C74.6719 0.553848 74.564 0.662332 74.564 0.770816V7.35218C74.2403 6.9544 73.7727 6.55663 73.2693 6.19502C72.478 5.65259 71.507 5.39946 70.3201 5.39946C69.421 5.39946 68.5219 5.61643 67.6947 6.01421C66.8675 6.41199 66.1482 6.9544 65.5009 7.64147C64.8894 8.32854 64.386 9.16023 64.0263 10.1366C63.6667 11.1129 63.4868 12.1616 63.4868 13.2465C63.4868 14.3675 63.6667 15.4162 64.0263 16.3564C64.386 17.2965 64.8535 18.1282 65.4649 18.8153C66.0763 19.5024 66.7956 20.0448 67.6228 20.4426C68.45 20.8404 69.3491 21.0212 70.2842 21.0212C71.3991 21.0212 72.4061 20.768 73.2333 20.2256C73.8087 19.864 74.2763 19.4301 74.6359 18.96V20.4426C74.6359 20.5511 74.7438 20.6595 74.8517 20.6595H78.2686C78.3763 20.6595 78.484 20.5511 78.484 20.4426V0.770816C78.5201 0.662332 78.4124 0.553848 78.304 0.553848ZM74.2403 15.0545C74.0605 15.5608 73.8087 15.9948 73.485 16.3564C73.1614 16.718 72.8017 16.9711 72.3701 17.1519C71.507 17.5135 70.536 17.5135 69.6728 17.1519C69.2412 16.9711 68.8816 16.718 68.5579 16.3564C68.2342 15.9948 67.9824 15.5608 67.8026 15.0545C67.6228 14.5483 67.5149 13.9335 67.5149 13.2826C67.5149 12.6318 67.6228 12.017 67.8026 11.4745C67.9824 10.9322 68.2342 10.4982 68.5579 10.1366C68.8816 9.775 69.2412 9.48569 69.6728 9.30493C70.1044 9.12408 70.536 9.01562 71.0035 9.01562C71.471 9.01562 71.9386 9.12408 72.3342 9.30493C72.7657 9.48569 73.1254 9.775 73.4491 10.1366C73.7727 10.4982 74.0245 10.9322 74.2044 11.4745C74.3842 12.017 74.492 12.6318 74.492 13.2826C74.528 13.9697 74.4561 14.5483 74.2403 15.0545Z" fill="black"/>
<path d="M80.2821 20.7318H83.8067C83.9144 20.7318 84.0221 20.6234 84.0221 20.5149V0.770816C84.0221 0.662332 83.9144 0.553848 83.8067 0.553848H80.2821C80.1744 0.553848 80.0659 0.662332 80.0659 0.770816V20.4788C80.0659 20.6234 80.1744 20.7318 80.2821 20.7318Z" fill="black"/>
<path d="M96.2148 5.79733C96.1071 5.79733 96.0348 5.86965 95.9994 5.94198L93.1941 14.2591C93.0864 14.5484 93.0141 14.8377 92.9425 15.127C92.8702 15.3801 92.7987 15.6332 92.7625 15.8502C92.7264 15.6332 92.6548 15.3801 92.5825 15.0908C92.5102 14.8015 92.4025 14.5122 92.2948 14.2229L89.3456 5.90582C89.3094 5.83349 89.2379 5.76117 89.1302 5.76117H85.3533C85.2094 5.76117 85.1018 5.90582 85.1379 6.05046L90.6764 20.6958L90.4964 21.1659C90.0287 22.4315 88.9864 23.0825 87.3317 23.0825H86.7564C86.6487 23.0825 86.5402 23.1909 86.5402 23.2995V26.337C86.5402 26.4455 86.6487 26.5539 86.7564 26.5539H87.4033C89.0941 26.5539 90.4602 26.2285 91.5033 25.5776C92.5464 24.9267 93.3379 23.9141 93.841 22.6124L99.991 6.05046C100.027 5.90582 99.9556 5.76117 99.7756 5.76117H96.2148V5.79733Z" fill="black"/>
<path d="M9.66654 1.22054C4.34815 1.22054 0 5.5328 0 10.8872C0 16.2416 4.34815 20.5538 9.66654 20.5538C15.0209 20.5538 19.3331 16.2057 19.3331 10.8872C19.3691 5.5328 15.0209 1.22054 9.66654 1.22054Z" fill="#009B00"/>
<path d="M15.5838 10.2486H10.3414V5.00623H9.01285V10.2486H3.77051V11.5412H9.01285V16.8195H10.3414V11.5412H15.5838V10.2486Z" fill="white"/>
</g>
<defs>
<clipPath id="clip0">
<rect width="100" height="26.1538" fill="white" transform="translate(0 0.553848)"/>
</clipPath>
</defs>
</svg>
