<svg width="103" height="46" viewBox="0 0 103 46" fill="none" xmlns="http://www.w3.org/2000/svg">
<g clip-path="url(#clip0)">
<path fill-rule="evenodd" clip-rule="evenodd" d="M12.9182 29.4192C20.0529 29.4192 25.8365 23.627 25.8365 16.482C25.8365 9.33697 20.0529 3.5448 12.9182 3.5448C5.78371 3.5448 0 9.33697 0 16.482C0 23.627 5.78371 29.4192 12.9182 29.4192ZM12.9166 27.2833C18.8734 27.2833 23.7022 22.4474 23.7022 16.4819C23.7022 10.5165 18.8734 5.68054 12.9166 5.68054C6.95992 5.68054 2.13105 10.5165 2.13105 16.4819C2.13105 22.4474 6.95992 27.2833 12.9166 27.2833Z" fill="black"/>
<path fill-rule="evenodd" clip-rule="evenodd" d="M26.2083 4.73067C27.267 4.73067 28.1252 3.87119 28.1252 2.81098C28.1252 1.75077 27.267 0.891296 26.2083 0.891296C25.1497 0.891296 24.2915 1.75077 24.2915 2.81098C24.2915 3.87119 25.1497 4.73067 26.2083 4.73067ZM26.2069 3.84132C26.775 3.84132 27.2357 3.38 27.2357 2.81094C27.2357 2.24186 26.775 1.78055 26.2069 1.78055C25.6386 1.78055 25.178 2.24186 25.178 2.81094C25.178 3.38 25.6386 3.84132 26.2069 3.84132Z" fill="black"/>
<path d="M13.6639 27.8746H12.1733V34.8408H13.6639V27.8746Z" fill="black"/>
<path d="M25.9031 4.28601L24.8491 3.23047L20.6075 7.47834L21.6615 8.53388L25.9031 4.28601Z" fill="black"/>
<path fill-rule="evenodd" clip-rule="evenodd" d="M12.9149 45.6741C16.2078 45.6741 18.8772 43.0008 18.8772 39.7031C18.8772 36.4054 16.2078 33.7321 12.9149 33.7321C9.62204 33.7321 6.95264 36.4054 6.95264 39.7031C6.95264 43.0008 9.62204 45.6741 12.9149 45.6741ZM12.9148 43.8232C15.1871 43.8232 17.0292 41.9784 17.0292 39.7027C17.0292 37.427 15.1871 35.5823 12.9148 35.5823C10.6425 35.5823 8.80039 37.427 8.80039 39.7027C8.80039 41.9784 10.6425 43.8232 12.9148 43.8232Z" fill="black"/>
<path d="M50.4606 26.4734V27.9681H55.6382V28.3615C55.5583 29.5023 55.2584 30.3873 54.7586 31.056C54.2389 31.7247 53.6391 32.1968 52.9594 32.4524C52.2597 32.7278 51.5601 32.8458 50.8604 32.8458C49.8008 32.8458 48.8613 32.6098 48.0216 32.1378C47.182 31.6657 46.5423 30.997 46.0625 30.1317C45.5827 29.2859 45.3628 28.3222 45.3628 27.2601C45.3628 26.1981 45.6027 25.2342 46.0825 24.3492C46.5622 23.4838 47.202 22.7955 48.0416 22.2841C48.8812 21.7728 49.8008 21.5171 50.8004 21.5171C51.9599 21.5171 52.9794 21.7924 53.859 22.3431C54.7387 22.8938 55.3784 23.6608 55.7782 24.6442L57.3974 24.0739C56.8777 22.7758 56.038 21.7728 54.8786 21.0253C53.7191 20.2976 52.3597 19.9239 50.8004 19.9239C49.4809 19.9239 48.2816 20.2582 47.202 20.9073C46.1024 21.5761 45.2428 22.4611 44.6031 23.5822C43.9634 24.7032 43.6636 25.9227 43.6636 27.2601C43.6636 28.6368 43.9634 29.8563 44.5631 30.9577C45.1629 32.0591 46.0026 32.9048 47.1021 33.5343C48.1816 34.1636 49.441 34.4783 50.8604 34.4783C51.78 34.4783 52.6795 34.3013 53.5192 33.9473C54.3588 33.5933 55.0784 33.0425 55.6382 32.3344V34.2226H57.2576V26.4734H50.4606Z" fill="black"/>
<path d="M73.6133 20.2582L71.994 20.2386L66.9163 32.3148L61.8185 20.2386H60.2192V34.203H61.8185V24.2115L66.1167 34.203H67.716L71.994 24.2115V34.203H73.6133V20.2582Z" fill="black"/>
<path d="M85.6036 30.1513L85.6236 29.522C85.6236 29.3253 85.5836 29.0106 85.5436 28.5778C85.5037 28.1451 85.3838 27.7321 85.2238 27.3191C84.884 26.4537 84.3242 25.7457 83.5445 25.2343C82.7449 24.723 81.8653 24.4475 80.8857 24.4475C80.0261 24.4475 79.2265 24.6837 78.4868 25.136C77.7471 25.5884 77.1674 26.1981 76.7276 26.9651C76.2877 27.7321 76.0879 28.5582 76.0879 29.463C76.0879 30.3677 76.2877 31.2134 76.7276 31.9608C77.1674 32.7278 77.7471 33.3376 78.4868 33.7899C79.2265 34.2423 80.0261 34.4586 80.8857 34.4586C81.8453 34.4586 82.7049 34.2226 83.4646 33.7506C84.2242 33.2786 84.784 32.6294 85.1238 31.8231L83.7244 31.2921C83.4845 31.8034 83.1247 32.2164 82.6249 32.5114C82.1251 32.8261 81.5454 32.9638 80.8857 32.9638C80.0861 32.9638 79.3864 32.7081 78.7866 32.1771C78.187 31.6461 77.8071 30.9774 77.6671 30.1513H85.6036ZM84.1043 28.8925H77.6471C77.7671 28.0468 78.127 27.3388 78.7466 26.7684C79.3464 26.2177 80.066 25.9227 80.8857 25.9227C81.4854 25.9227 82.0252 26.08 82.505 26.3554C82.9848 26.6307 83.3646 27.0241 83.6045 27.4961C83.7244 27.6928 83.8444 27.9288 83.9244 28.1845C84.0043 28.4598 84.0643 28.6958 84.1043 28.8925Z" fill="black"/>
<path d="M89.6662 26.139H91.7052V24.7622H89.6662V21.7727H88.0669V24.7622H86.3276V26.139H88.0669V31.9214C88.0669 33.4555 88.7066 34.2029 90.0061 34.2029H91.7052V32.7475L90.5258 32.7278C90.226 32.7278 90.0061 32.6688 89.8661 32.5114C89.7262 32.3541 89.6662 32.0788 89.6662 31.6854V26.139Z" fill="black"/>
<path d="M98.9038 24.7622C97.3845 24.7229 96.285 25.1359 95.6453 26.021V24.7622H94.0859L94.106 34.203H95.6652V28.9515C95.6852 28.1255 95.9451 27.4568 96.4649 26.9454C96.9647 26.4341 97.6044 26.1784 98.404 26.1784C98.524 26.1784 98.6839 26.1981 98.9038 26.2177V24.7622Z" fill="black"/>
<path d="M100.82 22.2841C101.06 22.5398 101.38 22.6578 101.74 22.6578C102.06 22.6578 102.36 22.5398 102.619 22.2841C102.859 22.0481 102.999 21.7531 102.999 21.3991C102.999 21.0646 102.859 20.7696 102.619 20.5139C102.36 20.2582 102.06 20.1206 101.74 20.1206C101.38 20.1206 101.06 20.2582 100.82 20.5139C100.56 20.7696 100.44 21.0646 100.44 21.3991C100.44 21.7531 100.56 22.0481 100.82 22.2841ZM102.479 24.7622H100.88V34.203H102.479V24.7622Z" fill="black"/>
</g>
<defs>
<clipPath id="clip0">
<rect width="103" height="44.7826" fill="white" transform="translate(0 0.891296)"/>
</clipPath>
</defs>
</svg>
