<svg width="127" height="22" viewBox="0 0 127 22" fill="none" xmlns="http://www.w3.org/2000/svg">
<g clip-path="url(#clip0)">
<path fill-rule="evenodd" clip-rule="evenodd" d="M92.0805 8.0151V13.6679C92.0805 14.2669 92.3299 14.4829 93.0448 14.4829H94.4248V15.6796H93.0278C91.382 15.6796 90.7169 15.0976 90.7169 13.6509V8.0151H88.8047V6.86752H90.7169V4.88985H92.0805V6.86752H94.9066V8.0151H92.0805Z" fill="#00AA13"/>
<path fill-rule="evenodd" clip-rule="evenodd" d="M88.8411 7.97871H90.7532V13.6512C90.7532 15.0848 91.3909 15.6439 93.0281 15.6439H94.3885V14.5186H93.0445C92.3152 14.5186 92.0442 14.2881 92.0442 13.6675V7.97871H94.8703V6.90379H92.0442V4.92547H90.7532V6.90379H88.8411V7.97871ZM94.4605 15.7159H93.0281C91.3608 15.7159 90.6812 15.1175 90.6812 13.6512V8.05072H88.769V6.83178H90.6812V4.85346H92.1162V6.83178H94.9423V8.05072H92.1162V13.6675C92.1162 14.2502 92.3499 14.4465 93.0445 14.4465H94.4605V15.7159Z" fill="#00AA13"/>
<path fill-rule="evenodd" clip-rule="evenodd" d="M103.602 10.6586C103.485 9.04557 102.105 7.78212 100.41 7.78212C98.5643 7.78212 97.2177 9.02921 97.1175 10.6586H103.602ZM95.7212 11.3237C95.7212 8.49699 97.6491 6.61817 100.41 6.61817C103.02 6.61817 104.999 8.53037 104.999 11.2569V11.7564H97.1012C97.1175 13.5351 98.597 14.7652 100.426 14.7652C101.806 14.7652 102.904 14.1505 103.651 12.8863L104.732 13.6012C103.801 15.1475 102.305 15.9291 100.426 15.9291C97.6 15.9291 95.7212 14.1171 95.7212 11.3237Z" fill="#00AA13"/>
<path fill-rule="evenodd" clip-rule="evenodd" d="M97.1567 10.6228H103.563C103.429 9.04709 102.051 7.81833 100.41 7.81833C98.6381 7.81833 97.2765 8.99537 97.1567 10.6228ZM103.641 10.6948H97.0794L97.0821 10.6568C97.1855 8.9705 98.5851 7.74567 100.41 7.74567C102.102 7.74567 103.521 9.02418 103.638 10.6562L103.641 10.6948ZM100.41 6.65439C97.6274 6.65439 95.7571 8.53124 95.7571 11.3233C95.7571 14.0996 97.5901 15.8933 100.427 15.8933C102.301 15.8933 103.772 15.1045 104.684 13.6119L103.663 12.9376C102.919 14.1749 101.83 14.8014 100.427 14.8014C98.5268 14.8014 97.0814 13.4921 97.065 11.756V11.72H104.963V11.2572C104.963 8.59015 103.048 6.65439 100.41 6.65439ZM100.427 15.9653C99.027 15.9653 97.8382 15.5274 96.9884 14.6999C96.1354 13.8685 95.6851 12.7013 95.6851 11.3233C95.6851 9.93347 96.1413 8.74465 97.0055 7.88511C97.8617 7.03342 99.0394 6.58237 100.41 6.58237C103.09 6.58237 105.035 8.54826 105.035 11.2572V11.792H97.1384C97.1731 13.4692 98.5805 14.7287 100.427 14.7287C101.815 14.7287 102.89 14.1029 103.621 12.8682L103.64 12.8355L103.672 12.8564L104.781 13.5903L104.764 13.6197C103.84 15.1542 102.34 15.9653 100.427 15.9653Z" fill="#00AA13"/>
<path fill-rule="evenodd" clip-rule="evenodd" d="M106.596 11.2736C106.596 8.59682 108.607 6.6185 111.301 6.6185C113.479 6.6185 115.275 7.84922 115.774 9.79415L114.46 10.1267C114.011 8.56343 112.83 7.81583 111.301 7.81583C109.39 7.81583 107.959 9.16177 107.959 11.2736C107.959 13.3855 109.39 14.7321 111.301 14.7321C112.83 14.7321 114.011 13.9845 114.46 12.4212L115.774 12.7538C115.275 14.6987 113.479 15.9288 111.301 15.9288C108.607 15.9288 106.596 13.9668 106.596 11.2736Z" fill="#00AA13"/>
<path fill-rule="evenodd" clip-rule="evenodd" d="M111.3 6.65471C110.005 6.65471 108.821 7.12146 107.963 7.96791C107.104 8.81632 106.631 9.99075 106.631 11.2738C106.631 12.5635 107.104 13.7392 107.963 14.5857C108.819 15.4282 110.004 15.893 111.3 15.893C113.492 15.893 115.226 14.6721 115.729 12.7795L114.484 12.4646C114.044 13.9507 112.915 14.7683 111.3 14.7683C109.312 14.7683 107.923 13.3314 107.923 11.2738C107.923 9.21631 109.312 7.77938 111.3 7.77938C112.915 7.77938 114.044 8.59767 114.484 10.0831L115.729 9.76817C115.226 7.87495 113.492 6.65471 111.3 6.65471ZM111.3 15.9656C109.985 15.9656 108.781 15.4936 107.912 14.6367C107.04 13.7778 106.559 12.5831 106.559 11.2738C106.559 8.59964 108.597 6.5827 111.3 6.5827C113.54 6.5827 115.309 7.8396 115.808 9.78454L115.816 9.82054L115.782 9.82905L114.434 10.1701L114.424 10.1361C114.001 8.66314 112.892 7.85139 111.3 7.85139C109.354 7.85139 107.995 9.25886 107.995 11.2738C107.995 13.2888 109.354 14.6956 111.3 14.6956C112.892 14.6956 114.001 13.8845 114.424 12.4109L114.434 12.3769L114.468 12.3861L115.816 12.7271L115.808 12.7625C115.309 14.7081 113.54 15.9656 111.3 15.9656Z" fill="#00AA13"/>
<path fill-rule="evenodd" clip-rule="evenodd" d="M117.636 3.5426H118.999V7.96534H119.033C119.731 7.10057 120.862 6.6181 122.158 6.6181C124.653 6.6181 126.331 8.13162 126.331 10.3757V15.6796H124.968V10.6422C124.968 8.87922 123.87 7.81543 122.075 7.81543C120.28 7.81543 118.999 9.01211 118.999 10.7083V15.6796H117.636V3.5426Z" fill="#00AA13"/>
<mask id="mask0" mask-type="alpha" maskUnits="userSpaceOnUse" x="117" y="3" width="10" height="13">
<path d="M117.6 3.50616H126.368V15.7158H117.6V3.50616Z" fill="white"/>
</mask>
<g mask="url(#mask0)">
<path fill-rule="evenodd" clip-rule="evenodd" d="M125.005 15.6438H126.296V10.3759C126.296 8.15017 124.633 6.65497 122.159 6.65497C120.874 6.65497 119.746 7.14071 119.061 7.98782L119.05 8.00091H118.963V3.57882H117.673V15.6438H118.963V10.7085C118.963 8.98352 120.244 7.77899 122.075 7.77899C123.882 7.77899 125.005 8.87616 125.005 10.6417V15.6438ZM126.368 15.7158H124.932V10.6417C124.932 8.89449 123.865 7.85165 122.075 7.85165C120.286 7.85165 119.036 9.02673 119.036 10.7085V15.7158H117.6V3.50616H119.036V7.90468C119.736 7.06412 120.871 6.58231 122.159 6.58231C124.676 6.58231 126.368 8.10696 126.368 10.3759V15.7158Z" fill="#00AA13"/>
</g>
<path fill-rule="evenodd" clip-rule="evenodd" d="M6.39941 10.7935C6.39941 8.67381 8.11915 6.95407 10.2395 6.95407C12.3592 6.95407 14.079 8.67381 14.079 10.7935C14.079 12.9139 12.3606 14.633 10.2395 14.633C8.11784 14.633 6.39941 12.9139 6.39941 10.7935Z" fill="#00AA13"/>
<mask id="mask1" mask-type="alpha" maskUnits="userSpaceOnUse" x="0" y="0" width="21" height="21">
<path d="M0 0.558052H20.4756V20.389H0V0.558052Z" fill="white"/>
</mask>
<g mask="url(#mask1)">
<path fill-rule="evenodd" clip-rule="evenodd" d="M10.2374 0.558052C4.58329 0.558052 -0.000488281 5.14184 -0.000488281 10.796C-0.000488281 15.0406 2.56242 18.6634 6.2847 20.2398C6.51972 20.3367 6.7711 20.3877 7.02575 20.389C8.08561 20.389 8.94516 19.5288 8.94516 18.469C8.94516 17.6959 8.47971 16.998 7.76811 16.6982V16.6969C5.46117 15.7306 3.83962 13.4518 3.83962 10.7946C3.83962 7.26025 6.70367 4.39489 10.2394 4.39489C13.7744 4.39489 16.6385 7.26025 16.6385 10.7946C16.6385 13.4518 15.0169 15.7306 12.71 16.6969V16.6982C11.7326 17.1093 11.2737 18.2346 11.6848 19.2113C11.9827 19.9223 12.6786 20.3864 13.4491 20.3877C13.7037 20.3864 13.9558 20.3354 14.1901 20.2385C17.9111 18.6621 20.4753 15.0374 20.4753 10.7946C20.4753 5.14053 15.8922 0.556743 10.2374 0.558052Z" fill="#00AA13"/>
</g>
<path fill-rule="evenodd" clip-rule="evenodd" d="M40.4937 9.65812C40.4937 6.25727 43.1842 3.63086 46.9307 3.63086C50.6982 3.63086 53.3678 6.25727 53.3678 9.65812C53.3678 13.0596 50.6982 15.6874 46.9307 15.6874C43.1842 15.6874 40.4937 13.0596 40.4937 9.65812ZM50.1817 9.65812C50.1817 7.80615 48.9103 6.42944 46.9307 6.42944C44.9511 6.42944 43.6798 7.80811 43.6798 9.65812C43.6798 11.5088 44.9511 12.8888 46.9307 12.8888C48.9103 12.8888 50.1817 11.5101 50.1817 9.65812Z" fill="#00AA13"/>
<mask id="mask2" mask-type="alpha" maskUnits="userSpaceOnUse" x="52" y="3" width="7" height="19">
<path d="M52.2749 3.63329H58.4318V21.0571H52.2749V3.63329Z" fill="white"/>
</mask>
<g mask="url(#mask2)">
<path fill-rule="evenodd" clip-rule="evenodd" d="M52.2749 18.1493H53.9979C54.9236 18.1493 55.2457 17.8049 55.2457 16.9873V3.63329H58.4318V17.0305C58.4318 19.8513 57.2907 21.0572 54.2545 21.0572H52.2749V18.1493Z" fill="#00AA13"/>
</g>
<mask id="mask3" mask-type="alpha" maskUnits="userSpaceOnUse" x="25" y="3" width="14" height="19">
<path d="M25.5908 3.62634H38.5926V21.0571H25.5908V3.62634Z" fill="white"/>
</mask>
<g mask="url(#mask3)">
<path fill-rule="evenodd" clip-rule="evenodd" d="M35.5152 3.62634V4.97227H35.4719C34.6478 4.10488 33.2822 3.62895 31.6567 3.62895C28.1681 3.62895 25.5908 6.22983 25.5908 9.58748C25.5908 13.0767 28.2349 15.6331 31.7654 15.6331C33.3463 15.6331 34.6687 15.1349 35.4719 14.2465H35.5152V15.4072C35.5152 16.9672 34.1718 18.1161 32.3951 18.1161C30.6034 18.1161 29.5612 17.6101 28.6552 16.746L26.5813 18.7426C27.9711 20.2188 30.0672 21.0574 32.4613 21.0574C36.1017 21.0574 38.5926 18.615 38.5926 15.3653V3.62764L35.5152 3.62634ZM35.3855 10.2814C35.3855 11.6895 33.9551 12.8175 32.1346 12.8175C30.0758 12.8175 28.7979 11.6038 28.7979 9.58879C28.7979 7.72634 30.1635 6.44652 32.2642 6.44652C33.9322 6.44652 35.3842 7.61636 35.3842 8.93808L35.3855 10.2814Z" fill="#00AA13"/>
</g>
<path fill-rule="evenodd" clip-rule="evenodd" d="M66.9036 13.102C64.9927 13.102 63.4929 11.8673 63.4523 10.6687H72.7096V9.76528C72.7096 6.34283 70.3411 3.62869 66.5082 3.62869C62.892 3.62869 60.3081 6.16935 60.3081 9.67887C60.3081 13.2964 63.0334 15.6858 67.0391 15.6858C69.4933 15.6858 71.2537 14.5094 72.1721 13.3822L70.0125 11.8686C69.0534 12.7661 68.1815 13.1033 66.9036 13.102ZM66.5737 6.21321C68.2738 6.21321 69.4587 7.09501 69.6092 8.43113H63.4942C63.6677 7.09501 64.8526 6.21321 66.5737 6.21321Z" fill="#00AA13"/>
<path fill-rule="evenodd" clip-rule="evenodd" d="M74.5869 0.525772H77.6618L77.6801 8.43119H77.722L82.8701 3.60192H86.993L81.657 8.65377L86.972 15.6774H83.2903L79.6407 10.6013H79.5995L77.6618 12.435V15.6859H74.5869V0.525772Z" fill="#00AA13"/>
</g>
<defs>
<clipPath id="clip0">
<rect width="127" height="20.9485" fill="white" transform="translate(0 0.525772)"/>
</clipPath>
</defs>
</svg>
