<svg width="91" height="31" viewBox="0 0 91 31" fill="none" xmlns="http://www.w3.org/2000/svg">
<g clip-path="url(#clip0)">
<path d="M38.7456 16.0358C38.7456 20.2298 35.4646 23.3202 31.4382 23.3202C27.4118 23.3202 24.1309 20.2298 24.1309 16.0358C24.1309 11.8123 27.4118 8.75146 31.4382 8.75146C35.4646 8.75146 38.7456 11.8123 38.7456 16.0358ZM35.5468 16.0358C35.5468 13.415 33.6452 11.6219 31.4382 11.6219C29.2312 11.6219 27.3297 13.415 27.3297 16.0358C27.3297 18.6304 29.2312 20.4498 31.4382 20.4498C33.6452 20.4498 35.5468 18.6271 35.5468 16.0358Z" fill="#EA4335"/>
<path d="M54.5102 16.0358C54.5102 20.2298 51.2293 23.3202 47.2029 23.3202C43.1764 23.3202 39.8955 20.2298 39.8955 16.0358C39.8955 11.8156 43.1764 8.75146 47.2029 8.75146C51.2293 8.75146 54.5102 11.8123 54.5102 16.0358ZM51.3114 16.0358C51.3114 13.415 49.4098 11.6219 47.2029 11.6219C44.9959 11.6219 43.0943 13.415 43.0943 16.0358C43.0943 18.6304 44.9959 20.4498 47.2029 20.4498C49.4098 20.4498 51.3114 18.6271 51.3114 16.0358Z" fill="#FBBC05"/>
<path d="M69.6173 9.19155V22.2692C69.6173 27.6488 66.4447 29.8459 62.6942 29.8459C59.1636 29.8459 57.0388 27.4846 56.2374 25.5535L59.0224 24.3941C59.5183 25.5797 60.7335 26.9788 62.6909 26.9788C65.0916 26.9788 66.5794 25.4976 66.5794 22.7093V21.6617H66.4677C65.7518 22.5451 64.3724 23.3169 62.6318 23.3169C58.9896 23.3169 55.6528 20.1444 55.6528 16.0621C55.6528 11.9503 58.9896 8.75146 62.6318 8.75146C64.3691 8.75146 65.7485 9.52325 66.4677 10.3804H66.5794V9.19483H69.6173V9.19155ZM66.806 16.0621C66.806 13.4971 65.0949 11.6219 62.9175 11.6219C60.7105 11.6219 58.8615 13.4971 58.8615 16.0621C58.8615 18.6008 60.7105 20.4498 62.9175 20.4498C65.0949 20.4498 66.806 18.6008 66.806 16.0621Z" fill="#4285F4"/>
<path d="M74.6259 1.52637V22.8737H71.5059V1.52637H74.6259Z" fill="#34A853"/>
<path d="M86.7841 18.4334L89.267 20.0886C88.4656 21.2742 86.5345 23.317 83.1978 23.317C79.0597 23.317 75.9692 20.1182 75.9692 16.0327C75.9692 11.7008 79.0859 8.74829 82.8398 8.74829C86.6199 8.74829 88.4689 11.7566 89.0732 13.3823L89.4049 14.2099L79.6673 18.2429C80.4128 19.7044 81.5721 20.4499 83.1978 20.4499C84.8267 20.4499 85.9565 19.6486 86.7841 18.4334ZM79.1418 15.8126L85.6511 13.1097C85.2931 12.2 84.2159 11.5661 82.9482 11.5661C81.3225 11.5661 79.0597 13.0013 79.1418 15.8126Z" fill="#EA4335"/>
<path d="M12.3208 14.1408V11.0504H22.7351C22.8369 11.589 22.8894 12.2262 22.8894 12.9158C22.8894 15.2345 22.2556 18.1016 20.2128 20.1444C18.2258 22.2134 15.6872 23.3169 12.3241 23.3169C6.09071 23.3169 0.849121 18.2395 0.849121 12.0061C0.849121 5.77269 6.09071 0.695312 12.3241 0.695312C15.7725 0.695312 18.2291 2.0484 20.0749 3.81202L17.8941 5.99273C16.5706 4.7513 14.7774 3.78575 12.3208 3.78575C7.76894 3.78575 4.20886 7.4542 4.20886 12.0061C4.20886 16.558 7.76894 20.2265 12.3208 20.2265C15.2733 20.2265 16.9549 19.0409 18.0321 17.9637C18.9057 17.0901 19.4804 15.8421 19.707 14.1376L12.3208 14.1408Z" fill="#4285F4"/>
</g>
<defs>
<clipPath id="clip0">
<rect width="89.3303" height="30.2147" fill="white" transform="translate(0.731445 0.541016)"/>
</clipPath>
</defs>
</svg>
