<svg width="132" height="32" viewBox="0 0 132 32" fill="none" xmlns="http://www.w3.org/2000/svg">
<g clip-path="url(#clip0)">
<path d="M11.1663 11.6823C11.1663 12.9759 10.6194 14.1195 9.72369 15.0143C8.72897 16.009 7.2864 16.2589 7.2864 17.1037C7.2864 18.2474 9.12686 17.8995 10.8928 19.6654C12.062 20.8346 12.7823 22.3761 12.7823 24.1666C12.7823 27.6976 9.94714 30.5083 6.39163 30.5083C2.83517 30.5073 0 27.7005 0 24.1676C0 22.3771 0.721286 20.8355 1.89043 19.6664C3.65546 17.9013 5.49591 18.2493 5.49591 17.1056C5.49591 16.2598 4.05334 16.0109 3.05863 15.0162C2.16291 14.1205 1.61606 12.9768 1.61606 11.6342C1.61606 9.04791 3.72994 6.95854 6.3162 6.95854C6.81403 6.95854 7.26189 7.03397 7.63431 7.03397C8.30657 7.03397 8.65449 6.73508 8.65449 6.26271C8.65449 5.98928 8.53003 5.64042 8.53003 5.268C8.53003 4.42225 9.25131 3.72548 10.1216 3.72548C10.9918 3.72548 11.6886 4.44677 11.6886 5.31702C11.6886 6.23725 10.9673 6.6606 10.4205 6.85954C9.9726 7.00851 9.62374 7.20745 9.62374 7.65531C9.62374 8.49822 11.1663 9.31851 11.1663 11.6813V11.6823ZM10.6684 24.1685C10.6684 21.7077 8.85343 19.7173 6.39163 19.7173C3.92889 19.7173 2.11389 21.7067 2.11389 24.1685C2.11389 26.6058 3.92889 28.6207 6.39163 28.6207C8.85249 28.6207 10.6684 26.603 10.6684 24.1685ZM9.20229 11.6323C9.20229 10.0662 7.93414 8.7726 6.39257 8.7726C4.85006 8.7726 3.58286 10.0662 3.58286 11.6323C3.58286 13.1993 4.85006 14.4929 6.39257 14.4929C7.93414 14.4929 9.20229 13.1993 9.20229 11.6323V11.6323ZM20.1177 7.20557C20.9135 7.20557 21.5103 7.8024 21.5103 8.5482C21.5103 9.294 20.938 9.89082 20.1432 9.89082C19.322 9.89082 18.8741 9.36943 18.0538 9.36943C17.2581 9.36943 16.6358 9.9408 16.6358 10.911V18.7443C16.6358 19.0246 16.5244 19.2934 16.3262 19.4916C16.128 19.6898 15.8591 19.8012 15.5788 19.8012C15.2985 19.8012 15.0297 19.6898 14.8315 19.4916C14.6332 19.2934 14.5219 19.0246 14.5219 18.7443V8.20028C14.5201 8.06145 14.5458 7.92363 14.5974 7.79472C14.649 7.66581 14.7255 7.54834 14.8225 7.44903C14.9195 7.34971 15.0352 7.27051 15.1629 7.21596C15.2905 7.1614 15.4277 7.13256 15.5666 7.13108C16.6358 7.13108 16.4368 8.15031 17.506 8.15031C18.5262 8.15031 18.8986 7.20557 20.1177 7.20557V7.20557ZM22.4315 13.4727C22.4315 9.71734 25.0178 7.00662 28.5742 7.00662C31.8318 7.00662 34.4181 9.39394 34.4181 12.6525C34.4181 13.4228 33.9212 13.9451 33.1999 13.9451H25.1177C24.7689 13.9451 24.6444 14.0696 24.6444 14.343C24.6444 14.9653 25.1422 16.109 25.889 16.8548C26.6338 17.6006 27.654 18.0484 29.0966 18.0484C30.1658 18.0484 31.1105 17.6505 31.8318 17.1282C32.0553 16.9547 32.3042 16.8548 32.5531 16.8548C33.0754 16.8548 33.4978 17.3271 33.4978 17.825C33.4978 18.1229 33.3988 18.3718 33.1499 18.5953C32.1052 19.4665 30.6381 19.9389 29.0466 19.9389C25.1922 19.9389 22.4315 17.1537 22.4315 13.4727V13.4727ZM31.235 9.89177C30.5382 9.195 29.6434 8.84708 28.5742 8.84708C27.505 8.84708 26.5094 9.27042 25.789 9.99077C25.2167 10.5631 24.8188 11.3089 24.8188 11.8067C24.8188 12.0556 24.9678 12.1556 25.2912 12.1556H31.7573C32.0553 12.1556 32.2052 12.0556 32.2052 11.8067C32.2052 11.2099 31.7328 10.3887 31.235 9.89177V9.89177ZM36.5574 13.4727C36.5574 9.71734 39.1427 7.00662 42.6992 7.00662C45.9577 7.00662 48.5439 9.39394 48.5439 12.6525C48.5439 13.4228 48.0461 13.9451 47.3248 13.9451H39.2427C38.8938 13.9451 38.7703 14.0696 38.7703 14.343C38.7703 14.9653 39.2672 16.109 40.0139 16.8548C40.7597 17.6006 41.7789 18.0484 43.2215 18.0484C44.2907 18.0484 45.2364 17.6505 45.9567 17.1282C46.1811 16.9547 46.4301 16.8548 46.678 16.8548C47.2004 16.8548 47.6237 17.3271 47.6237 17.825C47.6237 18.1229 47.5238 18.3718 47.2749 18.5953C46.2311 19.4665 44.764 19.9389 43.1715 19.9389C39.3171 19.9389 36.5574 17.1537 36.5574 13.4727V13.4727ZM45.3599 9.89177C44.6641 9.195 43.7684 8.84708 42.6992 8.84708C41.63 8.84708 40.6353 9.27042 39.914 9.99077C39.3426 10.5631 38.9438 11.3089 38.9438 11.8067C38.9438 12.0556 39.0937 12.1556 39.4171 12.1556H45.8823C46.1811 12.1556 46.3301 12.0556 46.3301 11.8067C46.3301 11.2099 45.8577 10.3887 45.3599 9.89177V9.89177ZM61.0029 19.8144C60.8621 19.8155 60.7225 19.7886 60.5922 19.7353C60.4619 19.682 60.3436 19.6033 60.244 19.5038C60.1444 19.4043 60.0656 19.286 60.0121 19.1558C59.9587 19.0255 59.9317 18.886 59.9327 18.7452V11.9811C59.9327 10.2152 58.5401 8.87254 56.7496 8.87254C54.9346 8.87254 53.542 10.2397 53.542 11.9811V18.7452C53.542 19.0255 53.4307 19.2944 53.2325 19.4926C53.0342 19.6908 52.7654 19.8021 52.4851 19.8021C52.2048 19.8021 51.9359 19.6908 51.7377 19.4926C51.5395 19.2944 51.4281 19.0255 51.4281 18.7452V8.17577C51.4281 7.60345 51.9005 7.13108 52.4474 7.13108C53.4921 7.13108 53.4421 8.07677 53.9899 8.07677C54.5367 8.07677 55.2825 7.00662 57.222 7.00662C59.9327 7.00662 62.0466 9.26948 62.0466 11.9811V18.7452C62.0483 18.884 62.0227 19.0217 61.9712 19.1505C61.9197 19.2794 61.8433 19.3968 61.7463 19.4961C61.6494 19.5954 61.5338 19.6746 61.4063 19.7293C61.2787 19.7839 61.1416 19.8128 61.0029 19.8144V19.8144ZM75.2777 19.8144C75.1369 19.8155 74.9974 19.7886 74.8671 19.7353C74.7368 19.682 74.6184 19.6033 74.5188 19.5038C74.4192 19.4043 74.3404 19.286 74.287 19.1558C74.2336 19.0255 74.2066 18.886 74.2076 18.7452V11.9802C74.2076 10.2152 72.815 8.8716 71.0245 8.8716C69.2095 8.8716 67.8169 10.2387 67.8169 11.9802V18.7452C67.8169 19.0255 67.7055 19.2944 67.5073 19.4926C67.3091 19.6908 67.0403 19.8021 66.7599 19.8021C66.4796 19.8021 66.2108 19.6908 66.0126 19.4926C65.8144 19.2944 65.703 19.0255 65.703 18.7452V1.98308C65.703 1.70276 65.8144 1.43393 66.0126 1.23571C66.2108 1.03749 66.4796 0.926139 66.7599 0.926139C67.0403 0.926139 67.3091 1.03749 67.5073 1.23571C67.7055 1.43393 67.8169 1.70276 67.8169 1.98308V7.47994C67.8169 7.77788 67.9404 7.95137 68.2638 7.95137C68.8107 7.95137 69.5574 7.00662 71.4978 7.00662C74.2076 7.00662 76.3215 9.26948 76.3215 11.9802V18.7452C76.3232 18.884 76.2975 19.0218 76.246 19.1508C76.1944 19.2797 76.1179 19.3971 76.0209 19.4965C75.9238 19.5958 75.8082 19.675 75.6805 19.7295C75.5528 19.7841 75.4156 19.8129 75.2768 19.8144H75.2777ZM79.2283 13.4727C79.2283 9.86725 82.1134 7.00662 85.7434 7.00662C89.3753 7.00662 92.2595 9.86725 92.2595 13.4727C92.2595 17.0792 89.3744 19.9389 85.7444 19.9389C82.1153 19.9389 79.2292 17.0792 79.2292 13.4727H79.2283ZM90.1485 13.4727C90.1485 10.961 88.2835 8.89705 85.7463 8.89705C83.2345 8.89705 81.3695 10.9619 81.3695 13.4727C81.3695 15.9845 83.2345 18.0484 85.7463 18.0484C88.2825 18.0484 90.1485 15.9845 90.1485 13.4727V13.4727ZM96.2139 7.13108C96.8107 7.13108 97.2831 7.60251 97.2831 8.20028V14.9643C97.2831 16.7303 98.6757 18.0729 100.467 18.0729C102.282 18.0729 103.675 16.7058 103.675 14.9643V8.20028C103.675 7.91996 103.786 7.65113 103.984 7.45291C104.182 7.25469 104.451 7.14334 104.732 7.14334C105.012 7.14334 105.281 7.25469 105.479 7.45291C105.677 7.65113 105.789 7.91996 105.789 8.20028V18.7697C105.789 19.3411 105.316 19.8135 104.769 19.8135C103.725 19.8135 103.775 18.8687 103.227 18.8687C102.68 18.8687 101.934 19.9379 99.9938 19.9379C97.2831 19.9379 95.1701 17.6751 95.1701 14.9643V8.20028C95.172 7.60345 95.6425 7.13108 96.2139 7.13108V7.13108ZM109.543 19.0186C109.071 18.7197 108.747 18.4218 108.747 17.8495C108.747 17.3026 109.17 16.8802 109.692 16.8802C110.314 16.8802 110.588 17.2527 111.11 17.5261C111.756 17.8995 112.503 18.0984 113.423 18.0984C115.113 18.0984 115.959 17.3271 115.959 16.3824C115.959 15.0398 114.716 14.7909 113.025 14.343C110.936 13.7961 108.922 13.1739 108.922 10.762C108.922 8.62362 110.562 7.00662 113.472 7.00662C114.617 7.00662 115.686 7.30551 116.531 7.82691C116.829 8.00134 117.128 8.37471 117.128 8.79805C117.128 9.34491 116.68 9.81634 116.108 9.81634C115.735 9.81634 115.437 9.56837 115.063 9.31945C114.691 9.07148 114.143 8.84802 113.397 8.84802C111.731 8.84802 111.01 9.56837 111.01 10.5386C111.01 11.8067 112.229 12.1047 113.97 12.528C116.009 13.0249 118.023 13.6717 118.023 16.1335C118.023 18.2728 116.432 19.9389 113.373 19.9389C111.88 19.9389 110.538 19.64 109.543 19.0186V19.0186ZM120.013 13.4727C120.013 9.71734 122.6 7.00662 126.156 7.00662C129.414 7.00662 132 9.39394 132 12.6525C132 13.4228 131.503 13.9451 130.782 13.9451H122.7C122.351 13.9451 122.227 14.0696 122.227 14.343C122.227 14.9653 122.724 16.109 123.47 16.8548C124.217 17.6006 125.236 18.0484 126.679 18.0484C127.748 18.0484 128.692 17.6505 129.414 17.1282C129.638 16.9547 129.886 16.8548 130.135 16.8548C130.657 16.8548 131.08 17.3271 131.08 17.825C131.08 18.1229 130.981 18.3718 130.732 18.5953C129.687 19.4665 128.22 19.9389 126.629 19.9389C122.776 19.9389 120.013 17.1537 120.013 13.4727V13.4727ZM128.82 9.89177C128.123 9.195 127.228 8.84708 126.159 8.84708C125.089 8.84708 124.094 9.27042 123.373 9.99077C122.801 10.5631 122.404 11.3089 122.404 11.8067C122.404 12.0556 122.553 12.1556 122.876 12.1556H129.342C129.64 12.1556 129.789 12.0556 129.789 11.8067C129.789 11.2099 129.317 10.3887 128.82 9.89177V9.89177Z" fill="#008561"/>
</g>
<defs>
<clipPath id="clip0">
<rect width="132" height="30.1714" fill="white" transform="translate(0 0.914286)"/>
</clipPath>
</defs>
</svg>
