<svg width="115" height="27" viewBox="0 0 115 27" fill="none" xmlns="http://www.w3.org/2000/svg">
<g clip-path="url(#clip0)">
<path fill-rule="evenodd" clip-rule="evenodd" d="M0.0839844 15.9048V15.8625C0.0839844 11.6455 3.31832 8.19135 7.74121 8.19135C10.3705 8.19135 11.9563 8.91192 13.4793 10.2259L11.4553 12.705C10.3285 11.7516 9.32698 11.2005 7.63713 11.2005C5.30062 11.2005 3.44321 13.2984 3.44321 15.8202V15.8625C3.44321 18.575 5.27946 20.5672 7.86679 20.5672C9.03522 20.5672 10.0781 20.2705 10.8919 19.6771V17.5581H7.6576V14.7396H14.0007V21.1814C12.4985 22.4745 10.433 23.5337 7.76203 23.5337C3.21355 23.5337 0.0839844 20.2917 0.0839844 15.9048Z" fill="#149347"/>
<path fill-rule="evenodd" clip-rule="evenodd" d="M15.7129 11.9208H18.8848V14.2098C19.5314 12.6418 20.575 11.6245 22.4525 11.7091V15.0783H22.2856C20.1781 15.0783 18.8848 16.3711 18.8848 19.0839V23.2794H15.7129V11.9208Z" fill="#149347"/>
<path fill-rule="evenodd" clip-rule="evenodd" d="M30.9442 16.71C30.7568 15.2693 29.9221 14.2946 28.5868 14.2946C27.2724 14.2946 26.4165 15.2481 26.1664 16.71H30.9442ZM23.0576 17.6635V17.6212C23.0576 14.3792 25.3317 11.709 28.5868 11.709C32.3214 11.709 34.0324 14.6547 34.0324 17.876C34.0324 18.13 34.0116 18.4267 33.9905 18.7234H26.2083C26.5213 20.1853 27.5228 20.9485 28.9414 20.9485C30.0057 20.9485 30.7773 20.6092 31.6536 19.783L33.469 21.4147C32.4259 22.7287 30.9233 23.5338 28.8994 23.5338C25.5405 23.5338 23.0576 21.1392 23.0576 17.6635Z" fill="#149347"/>
<path fill-rule="evenodd" clip-rule="evenodd" d="M42.9002 16.71C42.7125 15.2693 41.8778 14.2946 40.5425 14.2946C39.2281 14.2946 38.3729 15.2481 38.1228 16.71H42.9002ZM35.0137 17.6635V17.6212C35.0137 14.3792 37.2877 11.709 40.5425 11.709C44.2775 11.709 45.9882 14.6547 45.9882 17.876C45.9882 18.13 45.9673 18.4267 45.9465 18.7234H38.1641C38.4773 20.1853 39.4785 20.9485 40.8974 20.9485C41.9614 20.9485 42.7333 20.6092 43.6097 19.783L45.4251 21.4147C44.3819 22.7287 42.8791 23.5338 40.8555 23.5338C37.4966 23.5338 35.0137 21.1392 35.0137 17.6635Z" fill="#149347"/>
<path fill-rule="evenodd" clip-rule="evenodd" d="M47.0952 11.9209H50.2664V13.5315C50.9967 12.578 51.9358 11.7091 53.5424 11.7091C55.9417 11.7091 57.3398 13.3197 57.3398 15.9264V23.2794H54.1679V16.9434C54.1679 15.4176 53.4584 14.6333 52.2487 14.6333C51.0383 14.6333 50.2664 15.4176 50.2664 16.9434V23.2794H47.0952V11.9209Z" fill="#149347"/>
<path fill-rule="evenodd" clip-rule="evenodd" d="M67.3317 17.6214V17.5791C67.3317 15.6933 66.0803 14.4428 64.5986 14.4428C63.1173 14.4428 61.8864 15.6933 61.8864 17.5791V17.6214C61.8864 19.5072 63.1173 20.7577 64.5986 20.7577C66.0803 20.7577 67.3317 19.5287 67.3317 17.6214ZM58.7568 11.921H61.928V13.5527C62.7003 12.4932 63.7643 11.7092 65.4122 11.7092C68.0206 11.7092 70.5032 13.786 70.5032 17.5791V17.6214C70.5032 21.4145 68.0619 23.4913 65.4122 23.4913C63.7223 23.4913 62.6795 22.7077 61.928 21.7961V26.6703H58.7568V11.921Z" fill="#149347"/>
<path fill-rule="evenodd" clip-rule="evenodd" d="M78.4114 19.2745V18.7022C77.8688 18.4478 77.1597 18.2784 76.3878 18.2784C75.0314 18.2784 74.1967 18.8291 74.1967 19.8464V19.889C74.1967 20.7579 74.9061 21.2667 75.9288 21.2667C77.4098 21.2667 78.4114 20.4401 78.4114 19.2745ZM71.1299 20.0162V19.9736C71.1299 17.4944 72.9869 16.3499 75.6364 16.3499C76.7635 16.3499 77.5767 16.5405 78.3694 16.8161V16.6255C78.3694 15.2904 77.5562 14.5487 75.9701 14.5487C74.7601 14.5487 73.9049 14.7819 72.8822 15.1635L72.0895 12.7051C73.3203 12.154 74.5307 11.7939 76.4291 11.7939C78.1613 11.7939 79.4133 12.2601 80.206 13.0652C81.04 13.913 81.4157 15.1635 81.4157 16.6892V23.2797H78.3489V22.0503C77.5767 22.9193 76.5127 23.4915 74.9692 23.4915C72.8614 23.4915 71.1299 22.2621 71.1299 20.0162Z" fill="#149347"/>
<path fill-rule="evenodd" clip-rule="evenodd" d="M82.5435 21.7749L83.8992 19.6559C85.1096 20.5459 86.3825 21.0121 87.4257 21.0121C88.344 21.0121 88.761 20.6731 88.761 20.1647V20.122C88.761 19.4226 87.6758 19.1897 86.4449 18.8081C84.88 18.3419 83.1062 17.6006 83.1062 15.3962V15.3539C83.1062 13.0442 84.9428 11.7514 87.1957 11.7514C88.6146 11.7514 90.1587 12.2388 91.3691 13.0654L90.1587 15.2905C89.0534 14.6334 87.9471 14.2306 87.1332 14.2306C86.3617 14.2306 85.9648 14.5699 85.9648 15.015V15.0573C85.9648 15.6933 87.0291 15.9896 88.2395 16.4135C89.8038 16.9434 91.6196 17.7063 91.6196 19.7827V19.8254C91.6196 22.3472 89.7625 23.4913 87.3424 23.4913C85.7771 23.4913 84.0245 22.9617 82.5435 21.7749Z" fill="#149347"/>
<path fill-rule="evenodd" clip-rule="evenodd" d="M92.3921 21.7749L93.7485 19.6559C94.9583 20.5459 96.2311 21.0121 97.2743 21.0121C98.1926 21.0121 98.6096 20.6731 98.6096 20.1647V20.122C98.6096 19.4226 97.5251 19.1897 96.2936 18.8081C94.7289 18.3419 92.9555 17.6006 92.9555 15.3962V15.3539C92.9555 13.0442 94.7914 11.7514 97.045 11.7514C98.4635 11.7514 100.008 12.2388 101.218 13.0654L100.008 15.2905C98.9017 14.6334 97.7957 14.2306 96.9825 14.2306C96.21 14.2306 95.8141 14.5699 95.8141 15.015V15.0573C95.8141 15.6933 96.8781 15.9896 98.0878 16.4135C99.6531 16.9434 101.468 17.7063 101.468 19.7827V19.8254C101.468 22.3472 99.6112 23.4913 97.191 23.4913C95.6264 23.4913 93.8738 22.9617 92.3921 21.7749Z" fill="#149347"/>
<path fill-rule="evenodd" clip-rule="evenodd" d="M114.297 5.76745C112.441 2.12959 105.481 0.646168 92.6738 0.57061C99.5428 2.76351 105.748 5.29296 107.749 9.21467C109.762 13.1593 108.177 21.6165 106.005 26.691C113.335 16.0363 116.144 9.38658 114.297 5.76745Z" fill="#149347"/>
</g>
<defs>
<clipPath id="clip0">
<rect width="115" height="26.6878" fill="white" transform="translate(0 0.286919)"/>
</clipPath>
</defs>
</svg>
