<svg width="138" height="16" viewBox="0 0 138 16" fill="none" xmlns="http://www.w3.org/2000/svg">
<g clip-path="url(#clip0)">
<path d="M3.16573 0.713153V6.23813H8.98932V0.713153H12.155V15.108H8.98932V8.89615H3.16573V15.108H0V0.713153H3.16573Z" fill="#005FA0"/>
<path d="M14.2204 6.21584C14.5157 5.77161 14.8919 5.41458 15.3485 5.14532C15.8048 4.87606 16.3186 4.68431 16.8893 4.5695C17.46 4.45511 18.034 4.39771 18.6117 4.39771C19.1353 4.39771 19.6658 4.43501 20.2029 4.50876C20.74 4.58295 21.23 4.72755 21.6733 4.94273C22.1163 5.1579 22.4789 5.45695 22.761 5.84059C23.0428 6.22365 23.184 6.73136 23.184 7.36373V12.7907L23.1869 14.1427C23.2103 14.6737 23.2112 14.6974 23.3054 15.1093L20.5549 15.1089C20.4952 14.8773 20.4989 14.87 20.4727 14.6907C20.4485 14.5241 20.4499 14.2761 20.4363 14.1025C19.9799 14.5735 19.4429 14.9028 18.8252 15.0909C18.2076 15.2791 17.5767 15.3732 16.9323 15.3732C16.4355 15.3732 15.9724 15.3126 15.543 15.1917C15.1132 15.0708 14.7372 14.8823 14.415 14.6266C14.0927 14.3708 13.8411 14.0479 13.66 13.6573C13.4787 13.2673 13.3882 12.803 13.3882 12.2644C13.3882 11.6723 13.4923 11.1845 13.7004 10.801C13.9085 10.4175 14.1772 10.1113 14.5061 9.8822C14.8351 9.65343 15.2109 9.48164 15.6339 9.3674C16.0569 9.25316 16.4832 9.16249 16.913 9.09496C17.3424 9.02772 17.7656 8.97407 18.1817 8.93343C18.5981 8.89338 18.9674 8.83264 19.2896 8.75195C19.6118 8.67126 19.867 8.55355 20.0551 8.39868C20.2431 8.2438 20.3305 8.01836 20.317 7.72206C20.317 7.41275 20.2668 7.16721 20.1665 6.98529C20.0661 6.80381 19.9322 6.66239 19.7649 6.5616C19.5976 6.46081 19.4034 6.39356 19.1827 6.36002C18.962 6.32647 18.7246 6.30911 18.4704 6.30911C17.9083 6.30911 17.4667 6.43087 17.1456 6.67453C16.8246 6.91805 16.6372 7.32411 16.5837 7.89198H13.7167C13.7571 7.21912 13.9251 6.66007 14.2204 6.21584V6.21584ZM19.8647 10.2615C19.6836 10.3222 19.4893 10.3727 19.2816 10.4128C19.0737 10.4528 18.8559 10.4865 18.6281 10.5135C18.4001 10.5406 18.1722 10.5741 17.9444 10.6142C17.7297 10.6542 17.5186 10.7079 17.3109 10.7751C17.1033 10.8424 16.9222 10.9333 16.7681 11.0477C16.6139 11.1621 16.49 11.3063 16.3961 11.4808C16.3024 11.6558 16.2554 11.8775 16.2554 12.1463C16.2554 12.4015 16.3023 12.6167 16.3961 12.7912C16.49 12.9662 16.6171 13.1039 16.7782 13.2047C16.9391 13.3053 17.1268 13.3759 17.3413 13.4165C17.5556 13.4566 17.7768 13.4767 18.005 13.4767C18.5678 13.4767 19.0034 13.383 19.3118 13.1943C19.6201 13.0063 19.848 12.7814 19.9955 12.5191C20.143 12.2574 20.2334 11.9919 20.267 11.723C20.3005 11.4542 20.3174 11.239 20.3174 11.0777V10.0094C20.1963 10.1169 20.0456 10.2009 19.8647 10.2615Z" fill="#005FA0"/>
<path d="M85.4333 6.21584C85.7287 5.77161 86.1047 5.41458 86.5614 5.14532C87.0177 4.87606 87.5315 4.68431 88.1023 4.5695C88.6728 4.45511 89.2467 4.39771 89.8245 4.39771C90.3482 4.39771 90.8786 4.43501 91.4158 4.50876C91.953 4.58295 92.4428 4.72755 92.8862 4.94273C93.3292 5.1579 93.6919 5.45695 93.9737 5.84059C94.2556 6.22365 94.3969 6.73136 94.3969 7.36373V12.7907L94.3998 14.1427C94.4232 14.6737 94.424 14.6974 94.5183 15.1093L91.7679 15.1089C91.708 14.8773 91.7117 14.87 91.6858 14.6907C91.6615 14.5241 91.6629 14.2761 91.6493 14.1025C91.193 14.5735 90.6557 14.9028 90.0383 15.0909C89.4207 15.2791 88.7896 15.3732 88.1451 15.3732C87.6485 15.3732 87.1853 15.3126 86.7559 15.1917C86.3259 15.0708 85.9501 14.8823 85.6281 14.6266C85.3057 14.3708 85.0538 14.0479 84.8728 13.6573C84.6914 13.2673 84.6011 12.803 84.6011 12.2644C84.6011 11.6723 84.705 11.1845 84.9131 10.801C85.1212 10.4175 85.3899 10.1113 85.7189 9.8822C86.0479 9.65343 86.4235 9.48164 86.8467 9.3674C87.2698 9.25316 87.6959 9.16249 88.1259 9.09496C88.5555 9.02772 88.9783 8.97407 89.3945 8.93343C89.8108 8.89338 90.1803 8.83264 90.5025 8.75195C90.8245 8.67126 91.0797 8.55355 91.2679 8.39868C91.456 8.2438 91.5432 8.01836 91.5298 7.72206C91.5298 7.41275 91.4794 7.16721 91.3792 6.98529C91.279 6.80381 91.1451 6.66239 90.9776 6.5616C90.8105 6.46081 90.6164 6.39356 90.3956 6.36002C90.1751 6.32647 89.9375 6.30911 89.6833 6.30911C89.1212 6.30911 88.6796 6.43087 88.3587 6.67453C88.0375 6.91805 87.8499 7.32411 87.7966 7.89198H84.9296C84.9698 7.21912 85.1379 6.66007 85.4333 6.21584V6.21584ZM91.0774 10.2615C90.8964 10.3222 90.702 10.3727 90.4945 10.4128C90.2866 10.4528 90.0686 10.4865 89.8409 10.5135C89.613 10.5406 89.3851 10.5741 89.157 10.6142C88.9424 10.6542 88.7315 10.7079 88.5235 10.7751C88.3159 10.8424 88.1348 10.9333 87.9807 11.0477C87.8265 11.1621 87.7024 11.3063 87.6087 11.4808C87.515 11.6558 87.468 11.8775 87.468 12.1463C87.468 12.4015 87.5149 12.6167 87.6087 12.7912C87.7024 12.9662 87.8298 13.1039 87.9909 13.2047C88.1519 13.3053 88.3394 13.3759 88.5539 13.4165C88.7682 13.4566 88.9894 13.4767 89.2176 13.4767C89.7806 13.4767 90.216 13.383 90.5244 13.1943C90.8329 13.0063 91.0608 12.7814 91.2083 12.5191C91.3558 12.2574 91.4462 11.9919 91.4797 11.723C91.513 11.4542 91.53 11.239 91.53 11.0777V10.0094C91.409 10.1169 91.2582 10.2009 91.0774 10.2615V10.2615Z" fill="#005FA0"/>
<path d="M27.4355 4.68244V5.88036H27.4957C27.9114 5.34922 28.2809 5.02761 28.8638 4.76168C29.4547 4.49213 30.0789 4.40248 30.6841 4.40248C31.4508 4.40248 32.0798 4.50703 32.5712 4.71512C33.0621 4.92364 33.449 5.21256 33.7312 5.58218C34.0141 5.95179 34.2123 6.4021 34.3267 6.93309C34.4411 7.46409 34.4985 8.05206 34.4985 8.69744V15.109H31.6314V9.21918C31.6314 8.35877 31.4965 7.71657 31.2274 7.29287C30.9577 6.86918 30.4793 6.65733 29.7925 6.65733C29.0113 6.65733 28.4453 6.88971 28.0952 7.35346C27.7448 7.81736 27.5698 8.58031 27.5698 9.64273V15.109H24.7178V4.68244H27.4355Z" fill="#005FA0"/>
<path d="M98.6393 4.68244V5.88036H98.6994C99.1152 5.34922 99.4846 5.02761 100.068 4.76168C100.658 4.49213 101.283 4.40248 101.888 4.40248C102.655 4.40248 103.284 4.50703 103.775 4.71512C104.266 4.92364 104.653 5.21256 104.935 5.58218C105.218 5.95179 105.416 6.4021 105.531 6.93309C105.645 7.46409 105.702 8.05206 105.702 8.69744V15.109H102.835V9.21918C102.835 8.35877 102.7 7.71657 102.431 7.29287C102.162 6.86918 101.683 6.65733 100.996 6.65733C100.215 6.65733 99.6491 6.88971 99.2991 7.35346C98.9486 7.81736 98.7738 8.58031 98.7738 9.64273V15.109H95.9214V4.68244H98.6393Z" fill="#005FA0"/>
<path d="M130.937 4.68244V5.88036H130.997C131.413 5.34922 131.782 5.02761 132.365 4.76168C132.956 4.49213 133.58 4.40248 134.185 4.40248C134.952 4.40248 135.581 4.50703 136.072 4.71512C136.563 4.92364 136.95 5.21256 137.232 5.58218C137.515 5.95179 137.714 6.4021 137.828 6.93309C137.942 7.46409 138 8.05206 138 8.69744V15.109H135.133V9.21918C135.133 8.35877 134.998 7.71657 134.729 7.29287C134.459 6.86918 133.98 6.65733 133.294 6.65733C132.512 6.65733 131.946 6.88971 131.596 7.35346C131.246 7.81736 131.071 8.58031 131.071 9.64273V15.109H128.219V4.68244H130.937V4.68244Z" fill="#005FA0"/>
<path d="M50.7652 12.6171C51.1949 13.0343 51.8133 13.2424 52.6196 13.2424C53.1973 13.2424 53.6948 13.0974 54.1115 12.8064C54.5283 12.5158 54.7834 12.2082 54.8778 11.8834H57.3976C56.9944 13.136 56.3761 14.0314 55.5427 14.5699C54.7093 15.1086 53.7013 15.3777 52.5188 15.3777C51.6989 15.3777 50.9598 15.2467 50.3008 14.9842C49.6419 14.722 49.0834 14.3491 48.626 13.8648C48.1682 13.3804 47.8149 12.8022 47.5658 12.13C47.3165 11.4575 47.1924 10.7172 47.1924 9.90996C47.1924 9.1301 47.3202 8.40359 47.576 7.73117C47.8317 7.05875 48.1948 6.47686 48.6661 5.98592C49.1373 5.49498 49.6987 5.10873 50.3512 4.82588C51.0035 4.54347 51.7258 4.40219 52.5187 4.40219C53.4057 4.40219 54.1786 4.57398 54.8369 4.91684C55.4954 5.26028 56.0367 5.72129 56.4599 6.3C56.8832 6.87872 57.1889 7.53798 57.3769 8.27807C57.565 9.01817 57.6327 9.79182 57.5789 10.599H50.0593C50.0997 11.5275 50.3348 12.2005 50.7652 12.6171V12.6171ZM54.0003 7.1192C53.6577 6.74163 53.137 6.55278 52.4384 6.55278C51.981 6.55278 51.6017 6.63072 51.2994 6.78559C50.997 6.94046 50.7548 7.13279 50.5733 7.36185C50.3917 7.5909 50.2643 7.83413 50.1907 8.09038C50.1165 8.34648 50.0731 8.57568 50.0595 8.77769H54.7161C54.5818 8.04974 54.3433 7.49677 54.0003 7.1192Z" fill="#005FA0"/>
<path d="M61.5292 0.714145V15.109H58.6621V0.714145H61.5292Z" fill="#005FA0"/>
<path d="M65.5857 12.5275C65.7135 12.7487 65.8783 12.9293 66.0804 13.0698C66.282 13.2103 66.5144 13.3143 66.7765 13.381C67.0387 13.4482 67.3113 13.4813 67.5941 13.4813C67.7957 13.4813 68.0076 13.458 68.2297 13.4109C68.4518 13.3637 68.6534 13.29 68.835 13.1892C69.0166 13.0884 69.1682 12.9536 69.2891 12.7856C69.4106 12.6176 69.4711 12.4057 69.4711 12.1501C69.4711 11.7196 69.1851 11.3968 68.6139 11.1816C68.0423 10.9667 67.2458 10.7508 66.2239 10.536C65.8067 10.4417 65.3998 10.3309 65.0031 10.2032C64.6064 10.0752 64.2536 9.90721 63.9443 9.69869C63.635 9.49017 63.3863 9.22785 63.1981 8.91145C63.0096 8.59549 62.9158 8.20866 62.9158 7.75142C62.9158 7.079 63.047 6.5279 63.3092 6.09712C63.5713 5.66692 63.9177 5.32724 64.3479 5.07851C64.7781 4.82979 65.2625 4.65481 65.8005 4.55402C66.3385 4.45323 66.8896 4.40233 67.4548 4.40233C68.0194 4.40233 68.5676 4.45656 69.0988 4.56386C69.6298 4.67159 70.1039 4.85307 70.5211 5.10888C70.9377 5.36454 71.2839 5.70437 71.56 6.12792C71.8356 6.55162 72.0003 7.08637 72.0545 7.73233H69.3369C69.2963 7.17834 69.0877 6.80367 68.7105 6.60773C68.3335 6.41178 67.8893 6.31374 67.3778 6.31374C67.2164 6.31374 67.0415 6.32401 66.8529 6.34396C66.6643 6.3645 66.4927 6.40831 66.3381 6.47556C66.1832 6.5428 66.0521 6.64026 65.9442 6.76809C65.8365 6.89593 65.7828 7.06772 65.7828 7.28275C65.7828 7.53856 65.8765 7.74708 66.0651 7.90861C66.2531 8.06999 66.4986 8.20115 66.8014 8.30194C67.1038 8.40316 67.4501 8.49368 67.8403 8.57452C68.2298 8.65521 68.6266 8.74298 69.0302 8.83712C69.447 8.93141 69.8538 9.04579 70.2504 9.18013C70.6472 9.31505 71.0001 9.49335 71.3092 9.71532C71.6188 9.93744 71.8673 10.2132 72.0554 10.5428C72.2441 10.8726 72.3381 11.2801 72.3381 11.7644C72.3381 12.4507 72.2 13.0258 71.925 13.4901C71.6491 13.9545 71.2893 14.3281 70.8455 14.6105C70.4018 14.8932 69.894 15.0921 69.3229 15.2065C68.7513 15.3203 68.1698 15.3777 67.5782 15.3777C66.9729 15.3777 66.3813 15.3175 65.8032 15.1966C65.2249 15.0757 64.7107 14.8746 64.2605 14.5928C63.8097 14.3109 63.4402 13.9386 63.1508 13.4755C62.8619 13.0126 62.7039 12.432 62.6772 11.734H65.395C65.3944 12.0423 65.4579 12.307 65.5857 12.5275Z" fill="#005FA0"/>
<path d="M110.097 0.714145V8.43613L113.705 4.6862H117.092L113.161 8.51682L117.535 15.109H114.068L111.205 10.4525L110.096 11.5212V15.1091H107.229V0.714145H110.097Z" fill="#005FA0"/>
<path d="M120.365 12.6171C120.796 13.0343 121.414 13.2424 122.22 13.2424C122.798 13.2424 123.295 13.0974 123.712 12.8064C124.129 12.5158 124.384 12.2082 124.478 11.8834H126.998C126.595 13.136 125.976 14.0314 125.143 14.5699C124.31 15.1086 123.302 15.3777 122.12 15.3777C121.3 15.3777 120.56 15.2467 119.901 14.9842C119.242 14.722 118.684 14.3491 118.226 13.8648C117.769 13.3804 117.415 12.8022 117.167 12.13C116.917 11.4575 116.793 10.7172 116.793 9.90996C116.793 9.1301 116.921 8.40359 117.176 7.73117C117.432 7.05875 117.796 6.47686 118.267 5.98592C118.738 5.49498 119.3 5.10873 119.952 4.82588C120.604 4.54347 121.327 4.40219 122.12 4.40219C123.007 4.40219 123.779 4.57398 124.438 4.91684C125.096 5.26028 125.637 5.72129 126.06 6.3C126.483 6.87857 126.79 7.53798 126.978 8.27807C127.166 9.01817 127.233 9.79182 127.179 10.599H119.66C119.701 11.5275 119.936 12.2005 120.365 12.6171V12.6171ZM123.601 7.1192C123.258 6.74163 122.737 6.55278 122.039 6.55278C121.582 6.55278 121.202 6.63072 120.9 6.78559C120.597 6.94046 120.355 7.13279 120.174 7.36185C119.992 7.5909 119.864 7.83413 119.791 8.09038C119.717 8.34648 119.673 8.57568 119.66 8.77769H124.317C124.183 8.04974 123.944 7.49677 123.601 7.1192V7.1192Z" fill="#005FA0"/>
<path d="M43.2571 0.708505V5.74269H43.2272C42.8509 5.26881 42.4761 4.99131 41.9169 4.74462C41.3275 4.48461 40.7596 4.39698 40.1408 4.39698C39.3741 4.39698 38.7022 4.54867 38.124 4.85105C37.5459 5.15385 37.0648 5.55383 36.6816 6.05171C36.2985 6.54916 36.0092 7.12412 35.8141 7.77644C35.619 8.42876 35.522 9.10508 35.522 9.80396C35.522 10.5306 35.619 11.2299 35.8141 11.9025C36.0087 12.5749 36.2975 13.1704 36.6807 13.6879C37.0633 14.2059 37.5505 14.6162 38.1418 14.919C38.7331 15.2215 39.4181 15.3696 40.1974 15.3726C40.7035 15.3746 41.4009 15.3077 41.9507 15.0809C42.5037 14.8528 42.9495 14.5737 43.3617 14.0149H43.4017V15.1103H46.1241V0.708505H43.2571V0.708505ZM40.7437 13.2726C38.8541 13.2726 38.0594 11.5178 38.0594 9.88335C38.0594 8.16947 38.7487 6.50404 40.7459 6.50404C42.7219 6.50404 43.3644 8.16948 43.3644 9.86369C43.3644 11.5786 42.7629 13.2726 40.7437 13.2726V13.2726Z" fill="#005FA0"/>
<path d="M73.4238 0.708505V15.11H76.1462V14.0146H76.1863C76.5984 14.5734 77.0442 14.8525 77.597 15.0807C78.1471 15.3073 78.8444 15.3742 79.3505 15.3723C80.1298 15.3693 80.8148 15.2212 81.4061 14.9187C81.9974 14.6159 82.4846 14.2056 82.8672 13.6877C83.2503 13.1701 83.5392 12.5748 83.7338 11.9022C83.9288 11.2298 84.0259 10.5305 84.0259 9.80367C84.0259 9.10479 83.9288 8.42847 83.7338 7.77615C83.5386 7.12383 83.2494 6.54887 82.8662 6.05143C82.4833 5.55355 82.0019 5.15356 81.4238 4.85076C80.8456 4.54839 80.1736 4.39669 79.4069 4.39669C78.7883 4.39669 78.2204 4.48432 77.631 4.74433C77.0718 4.99117 76.697 5.26853 76.3206 5.7424H76.2908V0.708505H73.4238V0.708505ZM76.1835 9.86369C76.1835 8.16948 76.8258 6.50404 78.8019 6.50404C80.7991 6.50404 81.4884 8.16948 81.4884 9.88335C81.4884 11.5178 80.6936 13.2726 78.8041 13.2726C76.7851 13.2726 76.1835 11.5786 76.1835 9.86369V9.86369Z" fill="#005FA0"/>
</g>
<defs>
<clipPath id="clip0">
<rect width="138" height="14.6692" fill="white" transform="translate(0 0.708508)"/>
</clipPath>
</defs>
</svg>
