<svg width="72" height="29" viewBox="0 0 72 29" fill="none" xmlns="http://www.w3.org/2000/svg">
<path d="M3.98237 17.0233C4.05103 14.8947 5.25266 13.2469 7.44994 13.2469C9.95606 13.2469 10.8831 14.8947 10.8831 16.9547V26.8421H14.8654V16.2681C14.8654 12.5946 12.8744 9.64206 8.75443 9.64206C7.00354 9.64206 5.11534 10.26 3.98237 11.7362V1.98615H0V26.8421H3.98237V17.0233ZM22.4949 16.6456C22.6319 14.8605 24.0737 12.9379 26.5801 12.9379C29.3266 12.9379 30.6311 14.6887 30.6998 16.6456H22.4946H22.4949ZM31.1459 21.0057C30.5967 22.6537 29.3606 23.924 26.9576 23.924C24.4857 23.924 22.4943 22.1045 22.3915 19.5639H34.6135C34.6477 19.4953 34.7163 18.946 34.7163 18.2936C34.7163 13.0065 31.6952 9.60786 26.5454 9.60786C22.3228 9.60786 18.4089 13.1096 18.4089 18.3967C18.4089 24.0613 22.4257 27.3571 26.9576 27.3571C30.9741 27.3571 33.6178 24.9883 34.5104 22.07L31.1462 21.0057H31.1459ZM42.5047 26.8421V1.98615H38.5223V26.8421H42.5047ZM51.5898 26.8421V10.1227H47.6416V26.8421H51.5898ZM47.0237 4.25209C47.0237 5.69389 48.1909 6.82686 49.5985 6.82686C51.0405 6.82686 52.2077 5.69389 52.2077 4.25209C52.2079 3.90939 52.1405 3.57002 52.0094 3.25338C51.8784 2.93674 51.6862 2.64903 51.4439 2.40671C51.2015 2.16439 50.9138 1.9722 50.5972 1.84113C50.2806 1.71007 49.9412 1.64269 49.5985 1.64286C48.1909 1.64286 47.0237 2.81029 47.0237 4.25209V4.25209Z" fill="#221035"/>
<path d="M63.1241 27.3031C68.0256 27.3031 71.9991 23.3296 71.9991 18.4281C71.9991 13.5266 68.0256 9.55308 63.1241 9.55308C58.2225 9.55308 54.249 13.5266 54.249 18.4281C54.249 23.3296 58.2225 27.3031 63.1241 27.3031Z" fill="#FF7A00"/>
</svg>
