<svg width="118" height="30" viewBox="0 0 118 30" fill="none" xmlns="http://www.w3.org/2000/svg">
<g clip-path="url(#clip0)">
<path fill-rule="evenodd" clip-rule="evenodd" d="M13.3848 0.648621L3.7207 5.58336L15.3173 17.6576L24.982 12.7229L13.3848 0.648621Z" fill="black"/>
<path fill-rule="evenodd" clip-rule="evenodd" d="M11.6939 28.2883L7.97314 27.2782V21.3784L11.6939 22.3884V28.2883Z" fill="black"/>
<path fill-rule="evenodd" clip-rule="evenodd" d="M0 13.0989V25.0991L7.97297 21.1528V9.15314L0 13.0989Z" fill="#1D66A8"/>
<path fill-rule="evenodd" clip-rule="evenodd" d="M15.4146 17.6738V29.3514L24.9821 24.5515V12.8739L15.4146 17.6738Z" fill="#1D66A8"/>
<path fill-rule="evenodd" clip-rule="evenodd" d="M13.3848 0.648621L3.7207 5.58336L15.3173 17.6576L24.982 12.7229L13.3848 0.648621Z" fill="#247DDC"/>
<path fill-rule="evenodd" clip-rule="evenodd" d="M11.6939 28.2883L7.97314 27.2782V21.3784L11.6939 22.3884V28.2883Z" fill="#247DDC"/>
<path fill-rule="evenodd" clip-rule="evenodd" d="M43.6105 16.0921H35.0564V9.68469H32.9551V24.5676H35.0564V18.0562H43.6105V24.5676H45.7118V9.68469H43.6105V16.0921Z" fill="#33322B"/>
<path fill-rule="evenodd" clip-rule="evenodd" d="M62.6682 20.9298C61.6493 21.9346 60.2301 22.4884 58.6706 22.4884C57.1153 22.4884 55.6993 21.9346 54.682 20.9298C53.6449 19.9056 53.0744 18.4521 53.0744 16.8376C53.0744 15.2225 53.6449 13.7696 54.682 12.7454C55.6993 11.74 57.1153 11.1868 58.6706 11.1868C60.2301 11.1868 61.6493 11.74 62.6682 12.7454C63.7058 13.769 64.2761 15.2225 64.2761 16.8376C64.2761 18.4527 63.7058 19.9062 62.6682 20.9298ZM58.6706 9.19208C54.1749 9.19208 50.9126 12.4074 50.9126 16.8376C50.9126 21.2678 54.1749 24.4832 58.6706 24.4832C63.1657 24.4832 66.4288 21.2678 66.4288 16.8376C66.4288 12.4074 63.1657 9.19208 58.6706 9.19208Z" fill="#33322B"/>
<path fill-rule="evenodd" clip-rule="evenodd" d="M76.8293 21.9328L71.3524 9.39911H69.1343L75.5908 24.1581L75.6424 24.2758H77.9832L84.4812 9.39911H82.3152L76.8293 21.9328Z" fill="#33322B"/>
<path fill-rule="evenodd" clip-rule="evenodd" d="M90.7863 17.7572H98.5201V15.8144H90.7863V11.3522H99.901V9.39917H88.7075V24.2758H99.9951V22.3227H90.7863V17.7572Z" fill="#33322B"/>
<path fill-rule="evenodd" clip-rule="evenodd" d="M107.528 16.0729V11.3521H111.367C113.484 11.3521 114.558 12.136 114.558 13.6814C114.558 15.2685 113.484 16.0729 111.367 16.0729H107.528ZM112.887 17.9049C114.774 17.6155 116.699 16.3943 116.699 13.6814C116.699 12.3147 116.23 11.2459 115.304 10.5043C114.39 9.7707 113.071 9.39905 111.387 9.39905H105.449V24.2762H107.528V17.9746H110.564L115.089 24.2762H117.589L112.887 17.9049Z" fill="#33322B"/>
</g>
<defs>
<clipPath id="clip0">
<rect width="118" height="28.7027" fill="white" transform="translate(0 0.648621)"/>
</clipPath>
</defs>
</svg>
