<svg width="103" height="29" viewBox="0 0 103 29" fill="none" xmlns="http://www.w3.org/2000/svg">
<g clip-path="url(#clip0)">
<path d="M41.6041 0.642761H13.8896V28.3572H41.6041V0.642761Z" fill="white"/>
<path d="M55.4612 14.5326L41.604 0.642761V28.3898L55.4612 14.5326Z" fill="#DB0011"/>
<path d="M27.7469 14.5326L41.6041 0.642761H13.8896L27.7469 14.5326Z" fill="#DB0011"/>
<path d="M0 14.5326L13.8898 28.3898V0.642761L0 14.5326Z" fill="#DB0011"/>
<path d="M27.7469 14.5326L13.8896 28.3899H41.6041L27.7469 14.5326Z" fill="#DB0011"/>
<path d="M67.6231 15.3477H62.6019V20.3037H60.0913V8.69626H62.6019V13.4566H67.6231V8.69626H70.1337V20.3037H67.6231V15.3477Z" fill="black"/>
<path d="M76.1984 20.532C73.6878 20.532 71.6337 19.5212 71.6011 16.7498H74.1117C74.1443 17.9888 74.8616 18.7387 76.231 18.7387C77.2418 18.7387 78.4156 18.217 78.4156 17.0758C78.4156 16.1629 77.633 15.902 76.3288 15.5108L75.4811 15.2825C73.6552 14.7609 71.8293 14.0435 71.8293 11.9568C71.8293 9.38098 74.2421 8.50064 76.4266 8.50064C78.6764 8.50064 80.6327 9.28317 80.6653 11.859H78.1547C78.0569 10.8156 77.4374 10.1961 76.2636 10.1961C75.3181 10.1961 74.4051 10.6852 74.4051 11.7286C74.4051 12.5763 75.1877 12.8371 76.8179 13.3588L77.7961 13.6523C79.785 14.2718 81.0566 14.9565 81.0566 16.9128C81.024 19.5212 78.4808 20.532 76.1984 20.532Z" fill="black"/>
<path d="M82.4585 8.72889H86.5015C87.2515 8.69629 88.034 8.72889 88.7839 8.85931C90.1859 9.18537 91.2619 10.0983 91.2619 11.6634C91.2619 13.1632 90.3164 13.9131 88.9469 14.2718C90.512 14.5652 91.6858 15.3478 91.6858 17.0758C91.6858 19.7169 89.0774 20.3038 87.0558 20.3038H82.4911L82.4585 8.72889ZM86.5015 13.5545C87.6101 13.5545 88.7513 13.3262 88.7513 11.9894C88.7513 10.783 87.7079 10.457 86.6646 10.457H84.9039V13.5545H86.5015V13.5545ZM86.7298 18.5757C87.9036 18.5757 89.0448 18.3148 89.0448 16.8802C89.0448 15.4456 88.0666 15.1847 86.8602 15.1847H84.8713V18.5757H86.7298Z" fill="black"/>
<path d="M98.2069 20.532C94.4573 20.532 92.7944 18.1518 92.7944 14.5978C92.7944 11.0438 94.6529 8.46802 98.3373 8.46802C100.652 8.46802 102.902 9.51139 102.967 12.1198H100.359C100.228 10.946 99.4459 10.3591 98.3373 10.3591C96.055 10.3591 95.3702 12.8045 95.3702 14.663C95.3702 16.5215 96.055 18.6735 98.2395 18.6735C99.3807 18.6735 100.228 18.054 100.391 16.8802H103C102.739 19.5538 100.62 20.532 98.2069 20.532Z" fill="black"/>
</g>
<defs>
<clipPath id="clip0">
<rect width="103" height="27.7145" fill="white" transform="translate(0 0.642761)"/>
</clipPath>
</defs>
</svg>
