<svg width="77" height="31" viewBox="0 0 77 31" fill="none" xmlns="http://www.w3.org/2000/svg">
<path d="M0 0V2.08435H14.8257V0H0ZM16.9275 0V2.08435H38.0568C38.0568 2.08435 35.8985 0 33.0404 0H16.9275ZM42.2012 0V2.08435H54.9824L54.2241 0H42.2012ZM64.148 0L63.3897 2.08435H76.0572V0H64.148ZM0 4.05397V6.13831H14.8257V4.05397H0ZM16.9275 4.05689V6.13734H40.5067C40.5067 6.13734 40.2315 4.53325 39.7513 4.05689H16.9275ZM42.2012 4.05689V6.13734H56.3949L55.693 4.05689H42.2012ZM62.6305 4.05689L61.9286 6.13734H76.0562V4.05689H62.6305ZM4.26105 8.10794V10.1952H10.6823V8.10794H4.26105ZM21.1886 8.10794V10.1952H27.6098V8.10794H21.1886ZM33.856 8.10794V10.1952H40.2772C40.2772 10.1952 40.6855 9.09276 40.6855 8.10794H33.856ZM46.4632 8.10794V10.1952H57.8376L57.0793 8.10794H46.4632ZM61.2334 8.10794L60.4713 10.1952H71.9118V8.10794H61.2334ZM4.26202 12.1648V14.2492H10.6832V12.1648H4.26202ZM21.1895 12.1648V14.2492H37.5901C37.5901 14.2492 38.9609 13.1798 39.3984 12.1648H21.1895ZM46.4632 12.1648V14.2492H52.8844V13.0884L53.2927 14.2492H65.056L65.4935 13.0884V14.2492H71.9147V12.1648H59.8598L59.2201 13.9303L58.5784 12.1648H46.4632ZM4.26105 16.2188V18.3031H10.6823V16.2188H4.26105ZM21.1886 16.2188V18.3031H39.3974C38.9599 17.2921 37.5892 16.2188 37.5892 16.2188H21.1886ZM46.4622 16.2188V18.3031H52.8834V16.2188H46.4622ZM54.05 16.2188L54.8278 18.3031H63.6474L64.3862 16.2188H54.05ZM65.4906 16.2188V18.3031H71.9118V16.2188H65.4906ZM4.26299 20.2728V22.3571H10.6842V20.2728H4.26299ZM21.1905 20.2728V22.3571H27.6117V20.2728H21.1905ZM33.858 20.2728V22.3571H40.6865C40.6865 21.3733 40.2782 20.2728 40.2782 20.2728H33.858ZM46.4651 20.2728V22.3571H52.8863V20.2728H46.4651ZM55.5102 20.2728L56.2627 22.3571H62.1735L62.9318 20.2728H55.5102ZM65.4925 20.2728V22.3571H71.9138V20.2728H65.4925ZM0.118605 24.3267V26.414H14.9443V24.3267H0.118605ZM16.9304 24.3267V26.414H39.7552C40.2354 25.9357 40.5105 24.3267 40.5105 24.3267H16.9304ZM42.3198 24.3267V26.414H52.8825V24.3267H42.3198ZM56.9705 24.3267L57.7443 26.414H60.7522L61.4784 24.3267H56.9705ZM65.4925 24.3267V26.414H76.1748V24.3267H65.4925ZM0.118605 28.3836V30.468H14.9443V28.3836H0.118605ZM16.9304 28.3836V30.4641H33.0404C35.8985 30.4641 38.0568 28.3836 38.0568 28.3836H16.9304ZM42.3198 28.3836V30.468H52.8825V28.3836H42.3198ZM58.4384 28.3836L59.1822 30.4621L59.3105 30.4651L60.0659 28.3846L58.4384 28.3836ZM65.4935 28.3836V30.468H76.1758V28.3836H65.4935Z" fill="#1F70C1"/>
</svg>
