<svg width="136" height="36" viewBox="0 0 136 36" fill="none" xmlns="http://www.w3.org/2000/svg">
<g clip-path="url(#clip0)">
<path d="M39.0219 35.5999H37.2441V26.8888H39.0219V35.5999ZM45.0664 35.5999L41.6886 29.4666V35.5999H39.9997V26.8888H42.2219L45.5108 33.0222V26.8888H47.1997V35.5999H45.0664ZM48.2664 35.5999V26.8888H51.2886C54.3108 26.8888 55.6441 28.4888 55.6441 31.0666C55.9108 33.2888 54.3108 35.3333 52.0886 35.511C51.8219 35.511 51.4664 35.511 51.1997 35.511H48.2664V35.5999ZM51.0219 34.0888C52.9775 34.0888 53.6886 33.0222 53.6886 31.1555C53.6886 29.0222 52.8886 28.311 51.1997 28.311H50.133V33.9999H51.0219V34.0888ZM58.2219 33.9999H62.133V35.5999H56.4441V26.8888H61.9552V28.3999H58.3108V30.4444H61.7775V31.9555H58.3108L58.2219 33.9999ZM67.733 31.1555L70.5775 35.511H68.4441L66.6664 32.5777L64.8886 35.511H62.8441L65.6886 31.1555L63.0219 26.7999H65.0664L66.8441 29.7333L68.6219 26.7999H70.5775L67.733 31.1555ZM75.4664 33.9999H79.3775V35.5999H73.5997V26.8888H79.1108V28.3999H75.4664V30.4444H78.933V31.9555H75.4664V33.9999ZM84.9775 31.1555L87.8219 35.511H85.6886L83.8219 32.5777L82.0441 35.511H79.9997L82.8441 31.1555L80.1775 26.7999H82.2219L83.9997 29.7333L85.7775 26.7999H87.733L84.9775 31.1555ZM87.6441 31.3333C87.6441 28.5777 89.0664 26.711 91.8219 26.711C93.5108 26.5333 95.0219 27.6888 95.1997 29.2888C95.1997 29.4666 95.1997 29.6444 95.1997 29.8222L93.5108 29.9999C93.4219 28.7555 92.8886 28.2222 91.733 28.2222C90.3108 28.2222 89.5108 29.111 89.5108 31.2444C89.5108 33.3777 90.3108 34.1777 91.6441 34.1777C92.6219 34.2666 93.4219 33.5555 93.5108 32.6666L95.1997 32.9333C94.933 34.711 93.333 35.8666 91.6441 35.6888C88.7997 35.6888 87.6441 33.9999 87.6441 31.3333ZM103.2 35.5999H101.333V32.0444H98.0441V35.5999H96.1775V26.8888H98.0441V30.4444H101.333V26.8888H103.2V35.5999ZM109.244 26.8888L112.355 35.5999H110.311L109.6 33.4666H106.666L106.044 35.5999H104.089L106.933 26.8888H109.244V26.8888ZM108.177 28.6666L107.111 32.0444H109.333L108.177 28.6666ZM118.133 35.5999L114.755 29.4666V35.5999H113.066V26.8888H115.289L118.577 33.0222V26.8888H120.266V35.5999H118.133ZM127.466 34.5333C126.933 35.4222 125.955 35.8666 124.977 35.7777C122.4 35.7777 121.333 33.9999 121.333 31.4222C121.333 28.5777 122.755 26.7999 125.511 26.7999C127.2 26.5333 128.711 27.7777 128.889 29.3777C128.889 29.5555 128.889 29.6444 128.889 29.8222L127.2 29.9999C127.111 29.111 126.666 28.311 125.422 28.311C123.911 28.311 123.2 29.3777 123.2 31.2444C123.2 33.2888 123.822 34.2666 125.422 34.2666C126.577 34.2666 127.2 33.6444 127.2 32.7555V32.3999H125.6V30.9777H128.977V35.511H127.644L127.466 34.5333ZM131.911 33.9999H135.733V35.5999H130.044V26.8888H135.555V28.3999H131.911V30.4444H135.377V31.9555H131.911V33.9999Z" fill="black"/>
<path d="M21.1556 16.3111V33.7333H1.86667V14.4444H19.2889V12.5777H0V35.5999H23.0222V16.3111H21.1556ZM35.3778 0.222168V10.7111H33.5111V2.08883H23.0222V12.5777H31.6444V14.4444H21.1556V0.222168H35.3778ZM42.7556 12.5777V21.8222H37.2444V19.9555H40.9778V14.4444H35.3778V18.1777H33.5111V12.6666H42.7556V12.5777ZM35.2889 20.0444V26.8888H28.4444V20.0444H35.2889Z" fill="black"/>
</g>
<defs>
<clipPath id="clip0">
<rect width="136" height="35.5556" fill="white" transform="translate(0 0.222168)"/>
</clipPath>
</defs>
</svg>
