<svg width="102" height="21" viewBox="0 0 102 21" fill="none" xmlns="http://www.w3.org/2000/svg">
<path d="M6.63987 1.43952L6.912 3.69816C6.62173 4.04286 6.12283 4.35127 5.41531 4.62339V17.0595C6.14097 17.3498 6.63987 17.6492 6.912 17.9576L6.63987 20.2162H0.272126L0 17.9576C0.235842 17.6492 0.73474 17.3498 1.49669 17.0595V4.62339C0.752882 4.35127 0.253984 4.04286 0 3.69816L0.272126 1.43952H6.63987Z" fill="#212529"/>
<path d="M8.77223 6.60991C9.77003 6.39221 10.668 6.28336 11.4663 6.28336C12.2645 6.28336 12.9267 6.3015 13.4528 6.33779V7.69842C13.9063 7.31744 14.505 7.00903 15.2488 6.77319C16.0108 6.5192 16.7364 6.39221 17.4258 6.39221C19.2037 6.39221 20.4464 6.80947 21.154 7.64399C21.8796 8.47851 22.2425 9.92078 22.2425 11.9708V17.1956C22.95 17.4677 23.4489 17.7761 23.7392 18.1208L23.467 20.2162H17.2081L16.936 18.1208C17.19 17.7761 17.6889 17.4677 18.4327 17.1956V11.8075C18.4327 10.8279 18.2694 10.1748 17.9429 9.84821C17.6345 9.50352 17.0721 9.33117 16.2557 9.33117C15.4393 9.33117 14.6229 9.62144 13.8066 10.202V17.1956C14.5141 17.4677 15.013 17.7761 15.3033 18.1208L15.0311 20.2162H8.77223L8.50011 18.1208C8.75409 17.7761 9.25299 17.4677 9.9968 17.1956V9.63051C9.36184 9.41281 8.86294 9.1044 8.50011 8.70528L8.77223 6.60991Z" fill="#212529"/>
<path d="M29.6368 3.18113V6.60991H33.5282V8.89577H29.6368V15.7806C29.6368 16.3611 29.7185 16.7874 29.8818 17.0595C30.045 17.3135 30.4351 17.4405 31.0519 17.4405C31.6687 17.4405 32.3309 17.3045 33.0384 17.0323L33.8548 19.1549C32.4579 19.8624 31.0247 20.2162 29.5552 20.2162C28.1039 20.2162 27.1151 19.9078 26.589 19.291C26.0811 18.656 25.8271 17.7399 25.8271 16.5425V8.89577H24.6025L24.3032 7.2358C24.5934 6.89111 25.1921 6.54642 26.0992 6.20172C26.3169 4.7141 26.8339 3.70724 27.6503 3.18113H29.6368Z" fill="#212529"/>
<path d="M41.3402 20.4339C39.1632 20.4339 37.5213 19.8534 36.4147 18.6923C35.3262 17.5312 34.7819 15.844 34.7819 13.6308C34.7819 12.2883 34.9724 11.1363 35.3534 10.1748C35.7344 9.19511 36.2514 8.44223 36.9045 7.91612C38.1744 6.90018 39.653 6.39221 41.3402 6.39221C43.0274 6.39221 44.3154 6.82761 45.2044 7.69842C46.1114 8.55108 46.565 10.0931 46.565 12.3246C46.565 13.6308 45.921 14.2839 44.6329 14.2839H38.7278C38.8003 15.4268 39.0906 16.2341 39.5986 16.7058C40.1247 17.1775 40.9501 17.4133 42.0749 17.4133C42.6917 17.4133 43.2813 17.3407 43.8437 17.1956C44.4061 17.0505 44.8143 16.9053 45.0683 16.7602L45.4493 16.5425L46.2657 18.7195C46.1568 18.8465 45.9935 19.0098 45.7758 19.2093C45.5763 19.3908 45.0502 19.6447 44.1975 19.9713C43.363 20.2797 42.4105 20.4339 41.3402 20.4339ZM43.0546 11.8619C43.0908 11.608 43.109 11.2995 43.109 10.9367C43.109 10.5739 42.9639 10.1929 42.6736 9.79378C42.3833 9.37652 41.8754 9.16789 41.1497 9.16789C40.4422 9.16789 39.8979 9.38559 39.5169 9.821C39.136 10.2564 38.882 10.9911 38.755 12.0252L43.0546 11.8619Z" fill="#212529"/>
<path d="M56.1274 9.95706C54.7487 9.95706 53.7962 10.2201 53.2701 10.7462V16.9779C54.7396 17.25 55.7465 17.631 56.2907 18.1208L56.0186 20.2162H48.2358L47.9637 18.1208C48.2177 17.7761 48.7166 17.4677 49.4604 17.1956V9.63051C48.8254 9.41281 48.3265 9.1044 47.9637 8.70528L48.2358 6.60991C49.2336 6.39221 50.1316 6.28336 50.9298 6.28336C51.7281 6.28336 52.3903 6.3015 52.9164 6.33779V8.05218C53.3336 7.56235 53.8688 7.16323 54.5219 6.85482C55.175 6.52827 55.7646 6.365 56.2907 6.365C56.835 6.365 57.2069 6.41035 57.4064 6.50106L57.3248 10.0387C56.962 9.98427 56.5629 9.95706 56.1274 9.95706Z" fill="#212529"/>
<path d="M58.4594 0.895269C59.4754 0.659426 60.4188 0.541504 61.2896 0.541504C62.1604 0.541504 62.8951 0.568716 63.4938 0.623142V17.1956C64.2013 17.4677 64.7002 17.7761 64.9905 18.1208L64.7183 20.2162H58.4594L58.1873 18.1208C58.4413 17.7761 58.9402 17.4677 59.684 17.1956V3.91587C59.0491 3.69817 58.5502 3.38976 58.1873 2.99064L58.4594 0.895269Z" fill="#212529"/>
<path d="M66.4408 6.60991C67.4567 6.37407 68.4001 6.25615 69.2709 6.25615C70.1417 6.25615 70.8765 6.28336 71.4751 6.33779V17.1956C72.1827 17.4677 72.6816 17.7761 72.9718 18.1208L72.6997 20.2162H66.4408L66.1687 18.1208C66.4227 17.7761 66.9216 17.4677 67.6654 17.1956V9.63051C67.0304 9.41281 66.5315 9.1044 66.1687 8.70528L66.4408 6.60991ZM69.5158 4.73224C68.0101 4.73224 67.2572 4.05193 67.2572 2.6913C67.2572 1.31253 68.0101 0.623142 69.5158 0.623142C71.0397 0.623142 71.8017 1.31253 71.8017 2.6913C71.8017 4.05193 71.0397 4.73224 69.5158 4.73224Z" fill="#212529"/>
<path d="M74.3322 6.60991C75.33 6.39221 76.2281 6.28336 77.0263 6.28336C77.8245 6.28336 78.4867 6.3015 79.0128 6.33779V7.69842C79.4664 7.31744 80.065 7.00903 80.8088 6.77319C81.5708 6.5192 82.2965 6.39221 82.9859 6.39221C84.7637 6.39221 86.0065 6.80947 86.714 7.64399C87.4396 8.47851 87.8025 9.92078 87.8025 11.9708V17.1956C88.51 17.4677 89.0089 17.7761 89.2992 18.1208L89.027 20.2162H82.7682L82.496 18.1208C82.75 17.7761 83.2489 17.4677 83.9927 17.1956V11.8075C83.9927 10.8279 83.8294 10.1748 83.5029 9.84821C83.1945 9.50352 82.6321 9.33117 81.8157 9.33117C80.9993 9.33117 80.183 9.62144 79.3666 10.202V17.1956C80.0741 17.4677 80.573 17.7761 80.8633 18.1208L80.5911 20.2162H74.3322L74.0601 18.1208C74.3141 17.7761 74.813 17.4677 75.5568 17.1956V9.63051C74.9219 9.41281 74.423 9.1044 74.0601 8.70528L74.3322 6.60991Z" fill="#212529"/>
<path d="M96.7752 20.4339C94.5982 20.4339 92.9564 19.8534 91.8497 18.6923C90.7612 17.5312 90.217 15.844 90.217 13.6308C90.217 12.2883 90.4074 11.1363 90.7884 10.1748C91.1694 9.19511 91.6864 8.44223 92.3395 7.91612C93.6095 6.90018 95.088 6.39221 96.7752 6.39221C98.4624 6.39221 99.7504 6.82761 100.639 7.69842C101.546 8.55108 102 10.0931 102 12.3246C102 13.6308 101.356 14.2839 100.068 14.2839H94.1628C94.2353 15.4268 94.5256 16.2341 95.0336 16.7058C95.5597 17.1775 96.3851 17.4133 97.5099 17.4133C98.1267 17.4133 98.7164 17.3407 99.2787 17.1956C99.8411 17.0505 100.249 16.9053 100.503 16.7602L100.884 16.5425L101.701 18.7195C101.592 18.8465 101.429 19.0098 101.211 19.2093C101.011 19.3908 100.485 19.6447 99.6325 19.9713C98.798 20.2797 97.8456 20.4339 96.7752 20.4339ZM98.4896 11.8619C98.5259 11.608 98.544 11.2995 98.544 10.9367C98.544 10.5739 98.3989 10.1929 98.1086 9.79378C97.8183 9.37652 97.3104 9.16789 96.5847 9.16789C95.8772 9.16789 95.3329 9.38559 94.9519 9.821C94.571 10.2564 94.317 10.9911 94.19 12.0252L98.4896 11.8619Z" fill="#212529"/>
</svg>
