<svg width="69" height="56" viewBox="0 0 69 56" fill="none" xmlns="http://www.w3.org/2000/svg">
<path d="M64.9849 1.85999H4.15709C2.62662 1.86248 1.39129 3.10902 1.39503 4.63824V51.3618C1.39129 52.8885 2.62662 54.1313 4.15709 54.1413H64.9824C66.5079 54.1301 67.7419 52.8873 67.7382 51.3618V4.63824C67.7444 3.11151 66.5103 1.8687 64.9849 1.85999Z" fill="black"/>
<path d="M65.0051 55.3965H4.13872C1.92583 55.3866 0.136334 53.5859 0.145051 51.3755V4.62327C0.136334 2.41038 1.92583 0.613417 4.13872 0.603455H65.0026C67.213 0.612172 69.0025 2.41038 69 4.62327V51.3755C69.0012 53.5859 67.2143 55.3841 65.0051 55.3965ZM4.13872 1.84377C2.60825 1.84626 1.37043 3.09405 1.37417 4.62327V51.3755C1.37043 52.9034 2.607 54.1475 4.13872 54.1574H65.0026C66.5293 54.1462 67.7647 52.9022 67.7609 51.3755V4.62327C67.7647 3.09405 66.5293 1.85124 65.0026 1.84377H4.13872V1.84377Z" fill="white"/>
<path d="M57.3676 39.9648C56.7474 39.9548 56.2381 40.4629 56.2344 41.0843C56.2307 41.707 56.7338 42.2113 57.3539 42.2138C57.9741 42.2188 58.4797 41.7194 58.4834 41.0968C58.4859 40.4779 57.9865 39.9723 57.3676 39.9698V39.9648ZM57.3676 40.1466C57.8906 40.1454 58.3228 40.5775 58.3252 41.0918C58.3277 41.6173 57.9018 42.0457 57.3788 42.0482C56.8521 42.0507 56.4336 41.6273 56.4237 41.1055C56.4224 40.58 56.8421 40.1553 57.3676 40.1528" fill="white"/>
<path d="M57.3678 40.6622H57.1299V41.047H57.4101C57.5396 41.047 57.6056 40.9934 57.6056 40.8502C57.6056 40.7132 57.5234 40.6597 57.3678 40.6622ZM57.7177 41.5563C57.7277 41.5663 57.7277 41.5775 57.7277 41.5887C57.7277 41.6061 57.7177 41.6248 57.7015 41.6372C57.6878 41.646 57.6741 41.6547 57.6604 41.6547C57.6343 41.6522 57.6069 41.6372 57.5919 41.6173L57.3728 41.1827H57.1299V41.5887C57.1299 41.6211 57.1013 41.6547 57.0614 41.6547C57.0253 41.6572 56.9929 41.6273 56.9917 41.5912V40.6373C56.9917 40.5763 57.0465 40.5264 57.105 40.5227H57.3615C57.6305 40.5227 57.7501 40.6373 57.7501 40.849C57.77 40.9947 57.6729 41.1341 57.5297 41.169L57.7177 41.5563Z" fill="white"/>
<path d="M19.3959 42.215H14.1345C13.6439 42.2125 13.2479 41.8165 13.2479 41.3184V30.64C13.2267 30.1431 13.609 29.7334 14.0984 29.716C14.5903 29.6948 15.0013 30.0821 15.0224 30.5628C15.0224 30.5665 15.0224 30.5727 15.0224 30.574C15.0249 30.5976 15.0249 30.6275 15.0224 30.6412V40.4318H19.3972C19.8903 40.4492 20.2739 40.8651 20.2539 41.357C20.2365 41.8228 19.8629 42.2001 19.3959 42.215Z" fill="white"/>
<path d="M24.2351 41.3185C24.2376 41.8116 23.8404 42.2126 23.351 42.2126C22.8628 42.2126 22.4631 41.8166 22.4631 41.3185V31.5279H21.2875C20.7944 31.5055 20.4108 31.0971 20.432 30.6052C20.4519 30.1407 20.8218 29.7646 21.2875 29.7472H23.351C23.8428 29.7484 24.2376 30.1432 24.2376 30.6351L24.2351 41.3185Z" fill="white"/>
<path d="M35.7352 40.4965C35.7352 41.3359 35.2197 42.012 34.4351 42.1727C34.3231 42.1988 34.2172 42.2125 34.0952 42.2125C33.4202 42.1976 32.8225 41.7817 32.5722 41.159L28.5474 32.031V41.3159C28.5648 41.8028 28.1862 42.2175 27.6956 42.2374C27.2062 42.2586 26.7915 41.8738 26.7753 41.3931C26.7753 41.3931 26.7753 41.3844 26.7753 41.3832C26.7728 41.3595 26.7728 41.3359 26.7753 41.3147V31.4694C26.7753 30.6251 27.2896 29.9489 28.0754 29.7857C28.8574 29.6201 29.5984 30.0261 29.9384 30.7969L33.9632 39.9262V30.6325C33.9445 30.1406 34.3206 29.7322 34.8112 29.7135C35.3068 29.6886 35.7178 30.0697 35.7352 30.5491C35.7352 30.5591 35.7352 30.5628 35.7352 30.5678C35.7352 30.5914 35.7352 30.6126 35.7352 30.6338V40.4965Z" fill="white"/>
<path d="M40.0357 41.3184C40.0357 41.8116 39.6385 42.2126 39.1478 42.2126C38.6559 42.2126 38.2649 41.8103 38.2637 41.3184V30.6363C38.2649 30.1431 38.6597 29.7546 39.1516 29.7546C39.641 29.7559 40.0357 30.1431 40.0357 30.6363V41.3184Z" fill="white"/>
<path d="M46.2286 42.0308C45.8425 42.3322 45.2871 42.2599 44.9857 41.8639H44.9833L40.9111 36.5453C40.6758 36.229 40.6708 35.8068 40.8937 35.4768L44.7429 30.1208C45.0293 29.726 45.5822 29.6326 45.9782 29.9165C46.3705 30.2092 46.4602 30.7646 46.1787 31.1631L42.7193 35.9811L46.388 40.7743C46.6843 41.1703 46.6096 41.7269 46.2236 42.0295" fill="white"/>
<path d="M55.2365 40.7867C54.7321 41.4405 53.716 42.2151 51.7335 42.2151H49.0611C48.5692 42.2151 48.1757 41.8178 48.1757 41.3185C48.1757 40.8403 48.5692 40.443 49.0611 40.4405H51.7335C52.7409 40.4405 53.4682 40.1815 53.843 39.6996C54.1294 39.2911 54.2166 38.7718 54.0709 38.2899C53.8853 37.5552 53.6276 37.4269 52.1095 36.955C51.731 36.8379 51.3038 36.7059 50.8207 36.5353C49.6015 36.1044 47.9839 35.2838 47.9839 33.1157C47.9839 32.1518 48.2815 31.3362 48.8556 30.7621C49.5119 30.0859 50.4919 29.7509 51.7696 29.7509H54.2901C54.782 29.7509 55.1767 30.1419 55.1767 30.6363C55.1767 31.1282 54.782 31.523 54.2901 31.523H51.7683C49.9838 31.523 49.7435 32.3237 49.7435 33.1157C49.7435 33.701 49.873 34.3212 51.3997 34.8616C51.8518 35.021 52.2627 35.1468 52.6226 35.2601C54.1356 35.7296 55.3423 36.0969 55.7757 37.8491C56.0484 38.9151 55.8492 39.9848 55.2328 40.7842" fill="white"/>
<path d="M29.3533 13.7239H33.814C34.3084 13.7252 34.7044 14.1237 34.7044 14.6181C34.7031 15.1075 34.3071 15.5072 33.814 15.5084H32.4877V25.2915C32.484 25.7821 32.0892 26.1769 31.5973 26.1757C31.1079 26.1757 30.7157 25.7821 30.7119 25.2915V15.5084H29.3496C28.8565 15.5072 28.4604 15.1012 28.4604 14.6131C28.4604 14.1212 28.8589 13.7252 29.3496 13.7239" fill="white"/>
<path d="M11.3887 14.6156C11.3887 14.1237 11.776 13.7277 12.2741 13.7239H14.1358C14.6265 13.7239 15.0237 14.1237 15.0237 14.6143V25.2903C15.0474 25.7809 14.6638 26.2031 14.1819 26.2192C13.6863 26.2404 13.2716 25.8656 13.2491 25.3687C13.2467 25.3662 13.2467 25.3612 13.2467 25.3575C13.2467 25.3388 13.2467 25.3214 13.2467 25.289V15.506H12.2654C11.7747 15.506 11.3887 15.105 11.3887 14.6156Z" fill="white"/>
<path d="M26.798 24.4634C26.798 25.3027 26.2825 25.9789 25.4992 26.1445C24.7122 26.3101 23.9264 25.883 23.6375 25.1284L19.6089 16.0028V25.2902C19.6351 25.7797 19.2515 26.1993 18.7609 26.218C18.2627 26.2404 17.8618 25.8618 17.8394 25.365C17.8394 25.3625 17.8394 25.3587 17.8369 25.3575C17.8356 25.3376 17.8356 25.3214 17.8369 25.289V15.4312C17.8369 14.5882 18.3537 13.9107 19.1382 13.7526C19.9203 13.5932 20.6662 13.9942 21.0012 14.765L25.0272 23.893V14.6019C25.0272 14.1112 25.4245 13.7165 25.9114 13.7165C26.402 13.7165 26.7955 14.1112 26.7955 14.6019V24.4609H26.798V24.4634Z" fill="white"/>
<path d="M46.7737 26.1856C46.689 26.1856 46.6081 26.1756 46.5296 26.1532C46.0601 26.0162 45.7924 25.5268 45.9294 25.0536L48.8695 14.8945C49.0738 14.1946 49.7425 13.7264 50.5357 13.7264C51.3315 13.7264 52.0039 14.1934 52.2082 14.8932L55.1408 25.0548C55.2791 25.5281 55.0151 26.0137 54.5481 26.1507C54.0799 26.2902 53.588 26.0249 53.4485 25.5555C53.4472 25.5555 53.4472 25.553 53.4472 25.5505L50.5382 15.4984H50.5283L47.623 25.5505C47.5134 25.9365 47.1697 26.1893 46.7749 26.1918" fill="white"/>
<path d="M42.7478 17.6055C42.749 16.4486 41.8163 15.5072 40.6569 15.5035H38.1464V19.7088H40.6519C41.8126 19.7051 42.7465 18.7636 42.744 17.6055H42.7478ZM38.1427 25.2915C38.1439 25.7821 37.7492 26.1769 37.2573 26.1794C36.7679 26.1806 36.3706 25.7909 36.3706 25.2952V25.2915V14.6168C36.3706 14.1697 36.7006 13.7899 37.1477 13.7326C37.1788 13.7264 37.2162 13.7227 37.2523 13.7227H40.6544C42.8038 13.7339 44.5285 15.4835 44.5161 17.6304C44.5086 19.2792 43.4626 20.7412 41.9047 21.2816L44.1562 24.8121C44.4202 25.2267 44.3031 25.7759 43.8934 26.0424C43.475 26.3114 42.9296 26.1869 42.6668 25.7759V25.7734L39.9421 21.4896H38.1439V25.2915H38.1427Z" fill="white"/>
</svg>
