<svg width="92" height="29" viewBox="0 0 92 29" fill="none" xmlns="http://www.w3.org/2000/svg">
<path fill-rule="evenodd" clip-rule="evenodd" d="M90.1135 26.9218C89.8172 26.9206 89.5333 26.8024 89.3238 26.5929C89.1142 26.3833 88.996 26.0994 88.9948 25.8031C89.0077 25.5151 89.1312 25.2431 89.3396 25.0438C89.548 24.8446 89.8252 24.7334 90.1135 24.7334C90.4018 24.7334 90.6791 24.8446 90.8874 25.0438C91.0958 25.2431 91.2193 25.5151 91.2322 25.8031C91.2322 26.4159 90.732 26.9218 90.1135 26.9218ZM90.1135 24.4805C89.3803 24.4805 88.7853 25.0688 88.7853 25.8031C88.7853 26.5385 89.3803 27.1135 90.1135 27.1135C90.849 27.1135 91.4428 26.5374 91.4428 25.8031C91.4428 25.0688 90.8478 24.4805 90.1135 24.4805ZM89.8629 25.7039V25.2794H90.108C90.2483 25.2794 90.4054 25.3216 90.4054 25.4833C90.4054 25.6639 90.2306 25.7039 90.079 25.7039H89.8629ZM90.673 25.4879C90.673 25.1691 90.4001 25.0511 90.1203 25.0511H89.5966V26.542H89.8628V25.9192H90.0556L90.4056 26.5431H90.732L90.3286 25.8902C90.5404 25.8447 90.6726 25.704 90.6726 25.4892L90.673 25.4879ZM82.3082 6.58426C82.6694 6.59156 83.0285 6.52671 83.3644 6.39353C83.7003 6.26035 84.0062 6.06149 84.2643 5.80862C84.5224 5.55575 84.7274 5.25395 84.8674 4.92085C85.0074 4.58775 85.0796 4.23009 85.0797 3.86876C85.0798 3.50744 85.0077 3.1497 84.8679 2.81655C84.728 2.4834 84.5231 2.1815 84.2651 1.92852C84.0071 1.67554 83.7012 1.47661 83.3654 1.34329C83.0296 1.20998 82.6705 1.14496 82.3093 1.15211C81.5983 1.16634 80.9213 1.45875 80.4236 1.96656C79.9258 2.47437 79.647 3.15711 79.647 3.86818C79.647 4.57926 79.9258 5.262 80.4236 5.76981C80.9213 6.27762 81.5983 6.57003 82.3093 6.58426H82.3082ZM75.0208 8.92973V12.9144H80.0596V26.9231H84.5556V12.9144H89.5955V8.92973H75.0208ZM35.7949 6.58426C36.1517 6.58434 36.5049 6.51417 36.8345 6.37772C37.1642 6.24126 37.4636 6.04118 37.7159 5.78896C37.9682 5.53674 38.1683 5.23731 38.3049 4.90774C38.4414 4.57817 38.5117 4.22492 38.5117 3.86818C38.5117 3.51145 38.4414 3.1582 38.3049 2.82863C38.1683 2.49906 37.9682 2.19963 37.7159 1.94741C37.4636 1.69519 37.1642 1.4951 36.8345 1.35865C36.5049 1.22219 36.1517 1.15202 35.7949 1.15211C35.084 1.16634 34.407 1.45875 33.9093 1.96656C33.4115 2.47437 33.1327 3.15711 33.1327 3.86818C33.1327 4.57926 33.4115 5.262 33.9093 5.76981C34.407 6.27762 35.084 6.57003 35.7949 6.58426ZM28.5065 12.9133H33.5463V26.9231H38.0413V12.9144H43.0823V8.92973H28.5076V12.9144L28.5065 12.9133ZM67.3735 26.9231H71.8707V8.94091H67.3746V26.9231H67.3735ZM58.2766 18.8312C58.2766 21.2291 56.9261 23.7006 54.0802 23.7006C51.1954 23.7006 50.7084 21.0419 50.7084 18.9059V8.94091H46.2123V20.1795C46.2123 23.8521 48.1601 27.4479 52.8445 27.4479C55.5032 27.4479 57.6392 25.8367 58.4259 24.0382H58.5004V26.9231H62.7715V8.94091H58.2765L58.2766 18.8312ZM19.5856 8.41609C16.9258 8.41609 14.7909 10.0273 14.0042 11.8258H13.9284V8.94091H9.6585V26.9231H14.1535V17.0328C14.1535 14.6349 15.5029 12.1623 18.3498 12.1623C21.2336 12.1623 21.7216 14.8221 21.7216 16.9582V26.9231H26.2166V15.6823C26.2166 12.0119 24.27 8.415 19.5856 8.415L19.5856 8.41609ZM0.557129 26.9231H5.05212V8.94091H0.557129V26.9231Z" fill="#0077C5"/>
</svg>
