<svg width="100" height="35" viewBox="0 0 100 35" fill="none" xmlns="http://www.w3.org/2000/svg">
<g clip-path="url(#clip0)">
<path d="M42.5 12.4H46.3L40.9 26H37.5L32 12.4H35.9L39.2 21.5L42.5 12.4ZM47.5 25.9H51.2V12.4H47.5V25.9ZM52.9 21.5H56.6C56.7 22.4 57.3 23.3 58.9 23.3C60.3 23.3 61 22.8 61 22.1C61 19.8 53.5 22 53.5 16.6C53.5 14.1 55.6 12.1 58.9 12.1C63 12.1 64.4 14.7 64.5 16.7H61C60.9 15.8 60.3 15.1 59 15.1C57.8 15.1 57.1 15.7 57.1 16.4C57.1 18.7 64.6 16.4 64.6 22C64.6 24.4 62.5 26.3 58.9 26.3C54.6 26.2 53.1 24.1 52.9 21.5ZM66.4 25.9H70.1V12.4H66.4V25.9ZM78.8 23C80.7 23 82.2 21.6 82.2 19.1C82.2 16.7 80.7 15.2 78.8 15.2C76.9 15.2 75.4 16.6 75.4 19.1C75.4 21.6 76.9 23 78.8 23ZM71.7 19.1C71.7 15.2 74.5 12 78.8 12C83.1 12 85.9 15.2 85.9 19.1C85.9 23 83.1 26.2 78.8 26.2C74.5 26.2 71.7 23 71.7 19.1ZM91 14C91.6 12.8 93 12 95 12C98.3 12 100 14.2 100 17.4V25.9H96.3V17.8C96.3 16.2 95.6 15.1 94 15.1C92.2 15.1 91.2 16.2 91.2 18.1V25.9H87.5V12.4H91V14Z" fill="#FF3366"/>
<path d="M0 34.1H34.1V0H0V34.1Z" fill="#FF3366"/>
<path d="M12 10.7C13.1 10.7 14 9.90001 14 8.70001C14 7.60001 13.1 6.70001 12 6.70001C10.9 6.70001 10 7.50001 10 8.70001C10 9.90001 10.9 10.7 12 10.7ZM7.8 21.3C7.7 21.8 7.6 22.3 7.6 22.8C7.6 24.5 8.5 25.7 10.5 25.7C12.2 25.7 13.5 24.7 14.5 23.1L13.9 25.5H17.2L19.1 18C19.6 16.1 20.5 15.1 21.9 15.1C23 15.1 23.7 15.8 23.7 16.9C23.7 17.2 23.7 17.6 23.6 18L22.6 21.5C22.5 22 22.4 22.5 22.4 23C22.4 24.6 23.4 25.8 25.4 25.8C27.1 25.8 28.5 24.7 29.3 22L28 21.5C27.4 23.3 26.8 23.6 26.4 23.6C26 23.6 25.7 23.3 25.7 22.7C25.7 22.4 25.8 22.1 25.8 21.8L26.7 18.4C26.9 17.6 27 16.9 27 16.3C27 13.8 25.5 12.5 23.6 12.5C21.9 12.5 20.1 14.1 19.2 15.7L19.8 12.8H14.8L14.1 15.4H16.4L15 20.9C13.9 23.4 11.8 23.5 11.5 23.4C11.1 23.3 10.8 23.1 10.8 22.6C10.8 22.3 10.9 21.8 11 21.3L13.2 12.6H7.7L7 15.2H9.3L7.8 21.3Z" fill="white"/>
</g>
<defs>
<clipPath id="clip0">
<rect width="100" height="34.1" fill="white"/>
</clipPath>
</defs>
</svg>
