<svg width="90" height="40" viewBox="0 0 90 40" fill="none" xmlns="http://www.w3.org/2000/svg">
<g clip-path="url(#clip0)">
<path fill-rule="evenodd" clip-rule="evenodd" d="M89.9878 15.5703C89.8108 15.2438 88.4231 15.1757 87.6876 14.8627C87.4022 14.7538 87.2664 14.9716 87.1167 15.1757C86.9396 15.4887 86.7626 15.8153 86.5176 16.1283C85.4561 17.4754 84.3953 18.8225 83.3197 20.2105C82.8166 20.9181 82.1091 21.3807 81.4695 21.9114C81.1833 22.1563 80.8299 22.2652 80.5171 22.4421C79.4829 21.163 79.6592 19.8567 79.986 18.4687C80.6256 18.5096 81.1154 18.2238 81.5507 17.8972C82.6801 17.1488 83.7557 16.3051 84.7486 15.3798C85.9599 14.2504 86.5995 12.8897 86.7766 11.2975C86.9123 9.80074 86.2049 8.84822 84.7486 8.67132C84.1503 8.63052 83.5373 8.49442 82.9796 8.35831C81.8775 8.14061 80.9251 8.31751 80.0679 8.9979C79.5367 9.41972 79.0063 9.85519 78.5438 10.345C78.0399 10.8757 77.5914 11.4472 77.2373 12.0459C76.7069 12.9577 76.3122 13.9238 75.9854 14.9172C75.7545 15.1213 75.5775 15.5567 75.5775 15.5567C75.0058 16.9039 74.3389 18.183 73.5498 19.4212C72.951 20.4146 72.1618 21.231 71.2093 22.1563C71.2093 21.7345 71.1684 21.476 71.2093 21.2038C71.3181 19.639 71.427 18.0469 71.5222 16.482C71.563 16.2371 71.6583 15.9786 71.7672 15.7745C72.1618 15.2438 72.5428 14.713 72.9375 14.2096C74.7063 11.8283 76.2709 9.31083 77.0876 6.39886C77.3052 5.65045 77.5501 4.90204 77.7272 4.16724C77.8363 3.70458 77.9042 3.24193 77.9448 2.75206C77.9861 1.64985 77.3465 0.261884 75.7405 0.411566C75.278 0.479604 74.8154 0.370744 74.3935 0.302706C73.1824 0.125809 72.0937 0.411566 71.2365 1.18719C70.0662 2.18054 69.2498 3.52769 68.6511 4.94286C67.6986 7.21532 67.127 9.59662 66.7324 12.0459C66.5555 13.1074 66.4467 14.1688 66.3786 15.2301C66.3786 15.2301 66.3786 15.2438 66.365 15.2438C65.8343 16.3051 65.3308 17.0944 64.8818 17.6523C63.7116 18.9994 62.4733 19.9927 62.4733 19.9927L63.9293 14.3865C64.0382 13.9646 64.147 13.502 64.147 13.0801C64.1878 12.6583 64.0109 12.5086 63.5755 12.4406C62.8271 12.2909 62.0514 12.1548 61.303 11.9779C61.0172 11.9099 60.8404 11.9099 60.6227 12.0868C60.4865 12.1956 60.3777 12.2637 60.2281 12.3317C59.7654 11.869 59.3435 11.4064 58.9217 10.9437C58.391 10.3722 57.7106 10.0593 56.935 9.90963C56.3635 9.84154 55.7648 9.69186 55.1661 9.59662C53.9958 9.3517 52.7848 9.37892 51.8322 10.2362C51.3015 10.6988 50.8388 11.2703 50.485 11.8283C49.7775 13.0393 49.1379 14.3184 48.4575 15.5159C48.2262 15.9105 48.0357 16.3323 47.8724 16.7406C47.0832 17.938 46.2803 19.1219 45.4775 20.3057C45.3006 20.5234 45.1237 20.7003 44.838 21.0133C44.838 20.7003 44.7971 20.5234 44.838 20.333C45.3006 18.4551 45.7905 16.5364 46.2531 14.6586C46.5661 13.2707 47.0696 11.9644 46.9335 10.5084C46.8927 9.84154 46.7158 9.65106 46.0082 9.58305C45.4775 9.51496 44.906 9.47416 44.4161 9.29726C43.5997 8.97068 42.9601 9.22924 42.4294 9.75995C41.5722 10.6444 40.7284 11.5289 39.98 12.5222C39.2316 13.4747 38.6737 14.5769 37.9934 15.6111C37.8845 15.788 37.8165 15.9241 37.7076 16.1146C37.7076 15.4342 37.8165 14.8355 37.9253 14.196C38.1022 13.2435 38.2791 12.2773 38.4288 11.3248C38.5649 10.3722 38.1839 9.47416 37.0137 9.47416C36.1972 9.43337 35.3808 9.22924 34.4554 9.07956C34.3193 9.29726 34.0336 9.54218 33.9247 9.85519C33.4621 10.8077 33.0402 11.801 32.7137 12.8352C32.4415 13.6789 32.2374 14.5226 32.0741 15.3662C32.006 15.4207 31.9517 15.4887 31.8972 15.5703C31.6522 16.0329 31.4345 16.5229 31.1488 16.9583C30.4412 18.1966 29.6928 19.4484 28.9444 20.6459C28.4817 21.3944 27.9919 22.0611 27.4884 22.8095C27.4203 22.7687 27.3795 22.7415 27.3115 22.7415C27.3795 22.0339 27.4475 21.3535 27.5292 20.6459C27.7741 18.9042 28.0599 17.1624 28.2368 15.4342C28.3729 14.1143 28.8763 12.5222 28.5225 11.6378C28.3865 11.284 27.8421 11.284 27.5972 11.284C27.0257 11.2431 26.4678 11.1479 25.8963 11.0662C25.2976 10.9982 24.903 11.2023 24.6172 11.7466C24.4403 12.0324 24.2634 12.3453 24.0865 12.6311C23.4061 13.7333 22.6986 14.7947 22.0318 15.8969C20.9976 17.5298 19.977 19.1627 18.9157 20.7956C18.8068 20.9725 18.6707 21.1086 18.521 21.2991C18.453 21.0133 18.521 20.7956 18.5619 20.5915C18.9837 18.4687 19.3103 16.3323 19.909 14.2776C20.1539 13.4204 20.3036 12.5359 20.4397 11.6922C20.6166 10.5899 20.0179 9.99122 18.8476 10.277C17.8951 10.4947 16.929 10.277 16.0037 9.88241C15.4322 9.63742 15.1192 9.84154 14.8334 10.1953C14.7246 10.3722 14.6565 10.5491 14.6157 10.7668C14.1531 12.1276 13.7993 13.5156 13.4727 14.9307C13.4318 14.9852 13.4046 15.0396 13.3638 15.1076C13.1461 15.3934 12.9692 15.7472 12.7651 16.0329C11.9078 17.1352 11.0233 18.2374 10.1796 19.3396L10.2204 15.6791L10.1524 14.0871C10.0844 13.3387 9.83949 13.0529 9.29514 13.0257C8.43793 12.9169 7.59421 12.8488 6.73696 12.7128C5.96133 12.5631 5.87968 12.5359 5.78443 13.4612C5.60753 15.1621 5.43064 18.8905 5.28096 20.5915L5.14488 23.5716V23.6123C5.14488 23.7893 5.03602 24.0342 4.89995 24.1838C3.41672 25.776 1.98794 27.4497 1.06263 29.4364C0.110104 31.5727 -0.284513 33.7635 0.314217 36.036C0.450292 36.6756 0.844908 37.2743 1.23953 37.805C1.63414 38.3357 2.12401 38.7575 2.83161 38.8392C3.64805 38.948 4.4645 39.1249 5.28096 39.3018C6.13823 39.4787 6.84581 39.261 7.44453 38.6623C8.36984 37.737 8.90054 36.6756 9.14546 35.4372C9.74418 32.4572 9.89386 29.4772 10.0708 26.4564L10.1389 25.3541L10.1796 23.4354C10.3565 23.3266 10.5335 23.1905 10.7104 23.0136C11.3771 22.374 12.0303 21.7209 12.6154 21.0133C12.629 21.4624 12.6698 21.925 12.7379 22.374C12.8467 22.9728 13.0236 23.6123 13.3094 24.1838C13.6224 24.8915 14.1939 25.3541 15.0512 25.463C15.9765 25.5718 16.861 25.7487 17.7863 25.8576C18.0992 25.8576 18.4938 25.8576 18.7388 25.7215C19.2014 25.4085 19.6913 25.0547 20.0451 24.6193C20.6166 23.9389 21.1065 23.2041 21.6099 22.4966C22.1134 21.7481 22.5625 20.9997 23.0252 20.2649C23.0932 20.2649 23.134 20.3057 23.2021 20.3057V21.6529C23.2021 22.8232 23.134 23.9934 23.5558 25.1364C23.7736 25.7351 24.1546 26.0617 24.7261 26.1298C25.3928 26.1978 26.0732 26.2386 26.6719 26.4155C27.7333 26.7285 28.4409 26.3067 29.1621 25.5991C30.2235 24.5104 31.04 23.2585 31.8156 21.9794C31.8156 22.0203 31.8156 22.0475 31.8291 22.0883C31.938 22.9047 32.2238 23.6804 32.6456 24.388C32.8906 24.7418 33.1763 25.0684 33.639 25.1636C34.4554 25.3405 35.3127 25.5582 36.1156 25.7623C36.5102 25.8712 36.7551 25.7623 36.932 25.4494C37.0409 25.2316 37.1769 25.0547 37.2449 24.8507C37.7076 23.8573 38.1703 22.8232 38.5921 21.8298C39.5447 19.5573 40.4427 17.2577 41.7491 15.1621C42.1709 14.4817 42.6064 13.815 43.1642 13.2435C43.2051 13.2843 43.2323 13.3115 43.3003 13.3523C43.1642 13.815 43.0554 14.3048 42.9465 14.8083C42.5247 16.4004 42.0892 18.0333 41.7082 19.6661C41.5722 20.3465 41.5722 21.0133 41.5722 21.6937C41.613 22.619 42.2117 23.2178 43.0962 23.3947C43.6269 23.5035 44.1576 23.5443 44.6611 23.7485C45.4367 24.0614 46.049 23.8573 46.6477 23.3266C46.8383 23.1633 47.0152 22.9728 47.1921 22.7959C47.4233 23.2041 47.7499 23.4627 48.3215 23.5443C49.029 23.6531 49.7366 23.762 50.3762 24.0069C51.0157 24.2519 51.5465 24.1431 52.0772 23.7893C52.2949 23.6396 52.499 23.5035 52.6759 23.3674C53.955 22.4149 55.0844 21.3399 56.1866 20.2105C56.7173 19.6118 57.3568 19.1083 57.9283 18.5776C57.9692 18.6184 58.0372 18.6184 58.0644 18.6456C57.9964 18.9314 57.8875 19.2171 57.8195 19.5029C57.5746 20.3193 57.3296 21.0949 57.1119 21.8842C57.003 22.306 56.8261 22.6326 56.5132 22.9184C55.5198 23.8028 54.5673 24.6873 53.6692 25.6807C52.2541 27.2728 50.975 28.9465 50.0904 30.8652C49.3828 32.4572 49.0971 34.1309 49.4509 35.8727C49.6686 36.9749 50.6619 38.0363 51.7506 38.254C52.3901 38.3901 52.9888 38.4989 53.6012 38.6758C54.3496 38.9208 55.0164 38.8119 55.7239 38.567C56.7173 38.1724 57.4657 37.5056 57.8875 36.5803C58.3774 35.41 58.8401 34.199 59.1939 32.9607C59.8742 30.5522 60.4322 28.1028 61.0445 25.6535C61.1534 25.2316 61.2622 24.7962 61.3983 24.3744C63.0448 23.6123 64.8818 22.1155 66.5419 20.2649C66.6236 20.8637 66.7324 21.476 66.8685 22.0747C67.0454 22.9592 67.3992 23.6668 67.9979 24.3063C68.2836 24.6601 68.6374 24.8779 69.1001 24.905C69.8758 25.0139 70.6922 25.1228 71.4814 25.218C71.9033 25.2861 72.2571 25.2861 72.5837 24.9323C73.1824 24.3608 73.8217 23.8028 74.3935 23.1633C75.019 22.5237 75.5502 21.8025 76.04 21.0678C76.0533 21.1222 76.0673 21.163 76.0946 21.2175C76.625 22.4557 77.5501 23.2041 78.8566 23.4899C79.4962 23.6259 80.1358 23.7757 80.7754 23.9525C82.1224 24.2791 83.4422 24.1975 84.5037 23.1361C85.2525 22.3877 86.0278 21.6393 86.708 20.7956C87.8241 19.258 90.1914 16.0329 89.9878 15.5703ZM55.6015 28.2117C55.098 30.3753 54.6081 32.5797 54.1047 34.7433C53.9686 35.4509 53.574 36.0632 52.9344 36.5939C52.2268 35.5597 52.1588 34.4984 52.3629 33.437C52.6487 31.9809 53.2882 30.6746 54.2407 29.5724C54.5945 29.1098 54.9211 28.6471 55.2749 28.1573C55.343 28.0892 55.3838 27.9395 55.411 27.8443C55.479 27.8851 55.5198 27.9123 55.5879 27.9532V28.2117H55.6015ZM4.65501 34.7705C4.58697 35.4781 4.41007 35.9816 3.97464 36.5803C3.22622 35.9407 3.11736 35.0154 3.02211 34.1309C2.84521 32.43 3.41672 30.8652 4.30121 29.45C4.47811 29.137 4.65501 28.8104 4.87272 28.5247C4.91355 28.5247 4.94076 28.5654 5.02241 28.5654C5.02241 29.0962 5.09045 29.5996 5.06323 30.1303C4.94076 31.6544 4.79108 33.2056 4.65501 34.7705ZM57.7243 14.5089C56.2002 16.0057 54.6762 17.4617 53.1113 18.945C52.9344 19.1219 52.7983 19.3396 52.6079 19.5165C52.431 19.6934 52.2132 19.8295 52.0091 20.0199C51.9683 19.9792 51.941 19.9519 51.873 19.9111C51.9819 19.6934 52.0499 19.4484 52.1179 19.2443C52.8256 17.5706 53.5332 15.9105 54.2407 14.2368C54.4857 13.6381 54.6626 13.0257 54.9211 12.427C55.1388 11.8963 55.4518 11.4744 55.9825 11.1206C56.867 11.8283 57.6154 12.6447 57.9011 13.815C58.01 14.0871 57.9828 14.2912 57.7243 14.5089ZM83.6598 10.3178C84.1231 11.8827 83.0209 13.9374 80.9657 15.2845C81.1154 13.8013 82.7074 10.8894 83.6598 10.3178ZM5.89329 9.07956C5.93411 9.61027 6.17905 9.93685 6.6417 10.0321C7.56699 10.1681 8.4515 10.345 9.3768 10.5356C9.44482 10.5356 9.51291 10.4947 9.62172 10.4675C9.66259 10.3587 9.68981 10.2498 9.68981 10.1137L10.0027 7.44664C10.0435 7.05203 9.93473 6.73906 9.49926 6.67102C9.25434 6.63019 9.07744 6.49412 8.85975 6.4533C8.22016 6.34443 7.55342 6.2764 6.94106 6.14033C5.98854 5.96342 5.81165 6.0995 5.73 7.06563C5.73 7.28336 5.77082 7.52829 5.77082 7.74601L5.89329 9.07956ZM74.9379 2.01725C75.1555 2.30301 75.0736 2.61598 75.0736 2.94256C74.9652 4.15363 74.5026 5.28305 74.1212 6.42608C73.8358 7.28336 73.4409 8.09982 73.0871 8.91624C72.9782 9.22924 72.7741 9.48774 72.6244 9.77352C72.4612 7.48746 73.7675 2.76567 74.9379 2.01725Z" fill="black"/>
</g>
<defs>
<clipPath id="clip0">
<rect width="90" height="39.0984" fill="white" transform="translate(0 0.262299)"/>
</clipPath>
</defs>
</svg>
