<svg width="109" height="30" viewBox="0 0 109 30" fill="none" xmlns="http://www.w3.org/2000/svg">
<g clip-path="url(#clip0)">
<path d="M102.334 7.58521H102.328C100.465 6.92856 98.8451 6.46813 98.8451 5.08944C98.8451 3.88255 99.8916 3.05934 101.505 3.05934C102.384 3.01854 103.255 3.24766 104.001 3.71598C104.378 3.98135 104.828 4.1247 105.289 4.12671C105.671 4.09416 106.025 3.91715 106.281 3.63188C106.536 3.34661 106.673 2.97461 106.663 2.59192C106.663 1.13824 104.386 0.178153 101.395 0.178153C99.9506 0.0934947 98.5311 0.581071 97.4436 1.53536C96.3561 2.48965 95.6883 3.83384 95.5846 5.27693C95.5846 8.92814 98.7361 9.8028 101.231 10.5449C103.179 11.1222 104.797 11.5913 104.797 13.0407C104.801 13.4019 104.734 13.7605 104.597 14.0951C104.461 14.4297 104.259 14.7336 104.003 14.9888C103.207 15.704 102.163 16.0795 101.094 16.0352C99.9973 16.0013 98.9213 15.7265 97.9425 15.2303C97.5742 15.0089 97.1626 14.8688 96.7356 14.8196C96.3793 14.8121 96.0346 14.9463 95.7771 15.1927C95.5196 15.439 95.3704 15.7775 95.3622 16.1338C95.361 16.18 95.3625 16.2263 95.3666 16.2724C95.3666 17.8072 98.3463 18.8502 101.098 18.8502C105.296 18.8502 107.987 16.5741 107.987 12.8723C107.985 9.2691 104.833 8.32644 102.334 7.58521Z" fill="#212944"/>
<path d="M64.233 0.330765C63.8053 0.335507 63.3965 0.507255 63.0937 0.809335C62.791 1.11142 62.6185 1.51989 62.6128 1.94752V17.2421C62.6321 17.6584 62.8111 18.0512 63.1125 18.3389C63.4139 18.6267 63.8145 18.7872 64.2313 18.7872C64.648 18.7872 65.0486 18.6267 65.35 18.3389C65.6514 18.0512 65.8304 17.6584 65.8497 17.2421V1.93618C65.8456 1.50972 65.6736 1.10205 65.371 0.801538C65.0684 0.50103 64.6594 0.331892 64.233 0.330765Z" fill="#212944"/>
<path d="M35.3497 16.6387L29.0998 1.44871C29.017 1.22999 28.8887 1.03134 28.7233 0.865974C28.5579 0.700604 28.3593 0.572278 28.1406 0.489462C27.9843 0.42221 27.8139 0.394078 27.6443 0.407496H27.4804C27.3125 0.394266 27.1439 0.422407 26.9894 0.489462C26.7892 0.565655 26.6073 0.683247 26.4557 0.834572C26.3041 0.985896 26.1861 1.16753 26.1095 1.36759C26.0275 1.36759 26.0276 1.36759 26.0276 1.44956L19.8039 16.6395C19.6514 17.0363 19.6569 17.4764 19.8191 17.8693C19.9813 18.2622 20.2879 18.578 20.6759 18.7516C20.8606 18.8187 21.0572 18.8466 21.2532 18.8336C21.5841 18.8315 21.9069 18.7309 22.1803 18.5445C22.4536 18.3581 22.6652 18.0944 22.788 17.7871L27.5598 6.21437L32.3359 17.7871C32.4438 18.1043 32.6518 18.3778 32.9286 18.5665C33.2054 18.7553 33.536 18.849 33.8707 18.8336C34.0657 18.8533 34.2628 18.8252 34.4445 18.7516C34.8379 18.5833 35.1513 18.2701 35.3199 17.8768C35.4884 17.4835 35.4991 17.0405 35.3497 16.6395V16.6387Z" fill="#212944"/>
<path d="M13.3776 0.828695L13.3297 0.785078C13.0142 0.517096 12.6099 0.376895 12.1962 0.392066C11.7826 0.407236 11.3897 0.576674 11.0947 0.867044L3.20879 9.20284V1.93529C3.19991 1.51297 3.02843 1.11038 2.72998 0.81145C2.43154 0.512518 2.02924 0.340319 1.60694 0.330751C1.39764 0.329142 1.18999 0.368782 0.996025 0.44742C0.802055 0.526057 0.625534 0.64214 0.476444 0.789043C0.327355 0.935946 0.208678 1.11081 0.127183 1.30359C0.045689 1.49638 0.00294943 1.70332 0.00146632 1.91262V17.2412C0.000888124 17.6691 0.170262 18.0797 0.472399 18.3826C0.774536 18.6856 1.18472 18.8561 1.61258 18.8567C2.04044 18.8573 2.45098 18.6879 2.75393 18.3857C3.05689 18.0836 3.22748 17.6735 3.22806 17.2456V13.8892L13.4421 3.06022C13.7291 2.75556 13.8835 2.34948 13.8714 1.93111C13.8593 1.51274 13.6817 1.11627 13.3776 0.828695Z" fill="#F26829"/>
<path d="M13.8265 16.0884L9.93193 12.1146C9.62492 11.8398 9.22439 11.693 8.81251 11.7044C8.40063 11.7158 8.00876 11.8846 7.71746 12.176C7.42616 12.4674 7.25748 12.8593 7.24621 13.2712C7.23494 13.6831 7.38186 14.0837 7.65679 14.3906L11.4667 18.3392C11.6239 18.4991 11.812 18.6254 12.0194 18.7106C12.2269 18.7957 12.4494 18.8379 12.6736 18.8345C12.8838 18.832 13.0913 18.7868 13.2835 18.7017C13.4757 18.6165 13.6485 18.4932 13.7916 18.3392C14.0943 18.0808 14.282 17.7128 14.3134 17.316C14.3448 16.9193 14.2173 16.5264 13.959 16.2236C13.918 16.1755 13.8738 16.1303 13.8265 16.0884Z" fill="#F26829"/>
<path d="M89.0493 1.93618C89.0503 1.51148 88.8826 1.10378 88.583 0.802736C88.2834 0.501686 87.8764 0.33192 87.4517 0.330765H87.4326C87.005 0.335728 86.5964 0.507542 86.2937 0.809575C85.991 1.11161 85.8182 1.51996 85.8123 1.94752V11.3158C85.8123 14.2964 83.4579 15.5957 81.1226 15.5957C78.7873 15.5957 76.4327 14.2231 76.4327 11.3158V1.93618C76.4134 1.51993 76.2345 1.12712 75.933 0.839381C75.6316 0.551642 75.231 0.391095 74.8143 0.391095C74.3976 0.391095 73.9969 0.551642 73.6955 0.839381C73.3941 1.12712 73.2151 1.51993 73.1958 1.93618V11.3158C73.1958 16.2559 77.2298 18.9147 81.1226 18.9147C85.1017 18.9147 89.0493 16.337 89.0493 11.3158V1.93618Z" fill="#212944"/>
<path d="M55.8112 16.173L50.7107 10.9059C52.0694 10.6417 53.2831 9.88585 54.1196 8.78305C54.9562 7.68024 55.3569 6.3078 55.2452 4.92811C55.1634 3.63202 54.5895 2.41614 53.6409 1.52915C52.6924 0.642162 51.4408 0.151073 50.1422 0.156322H42.8676C42.4399 0.16106 42.0309 0.332782 41.7281 0.63484C41.4252 0.936897 41.2524 1.34537 41.2465 1.77308V17.2953C41.2259 17.7246 41.3767 18.1444 41.6657 18.4625C41.9547 18.7806 42.3581 18.9708 42.7873 18.9914C43.2166 19.012 43.6365 18.8612 43.9546 18.5723C44.2726 18.2833 44.4629 17.8798 44.4835 17.4505V3.30611H50.1343C50.5594 3.32088 50.9632 3.49645 51.2639 3.79735C51.5647 4.09825 51.74 4.50206 51.7546 4.92723C51.8622 5.52538 51.7375 6.14208 51.4059 6.65142C51.0744 7.16077 50.5609 7.52438 49.9704 7.66804C48.4356 8.16423 46.8153 8.786 46.5694 10.0225C46.4055 10.7681 46.8153 11.5617 47.7763 12.4363L53.5317 18.333C53.8243 18.6394 54.2262 18.8175 54.6497 18.8283C55.0565 18.8116 55.4477 18.6669 55.7676 18.415C56.0643 18.1182 56.2344 17.7179 56.242 17.2983C56.2497 16.8788 56.0943 16.4725 55.8086 16.1651L55.8112 16.173Z" fill="#212944"/>
<path d="M68.3029 27.8975H68.2715C68.0031 27.8864 67.7501 27.7693 67.568 27.5718C67.3859 27.3743 67.2896 27.1126 67.3002 26.8441V26.7761C67.3066 26.5114 67.4178 26.2601 67.6094 26.0774C67.8011 25.8948 68.0575 25.7957 68.3222 25.802C68.6245 25.8064 68.9137 25.9262 69.1306 26.1369L69.3992 25.7419C69.2524 25.5974 69.0773 25.4847 68.8849 25.411C68.6925 25.3374 68.487 25.3042 68.2812 25.3137H68.2193C68.016 25.3151 67.815 25.3568 67.6281 25.4364C67.4411 25.5161 67.2718 25.6321 67.13 25.7778C66.9882 25.9234 66.8768 26.0957 66.8021 26.2847C66.7275 26.4738 66.6911 26.6758 66.6951 26.879C66.6992 27.0822 66.7435 27.2826 66.8256 27.4685C66.9077 27.6544 67.0259 27.8222 67.1734 27.962C67.3209 28.1019 67.4947 28.2111 67.6847 28.2832C67.8747 28.3554 68.0771 28.3891 68.2803 28.3824C68.4923 28.3884 68.7034 28.3519 68.9011 28.2751C69.0988 28.1982 69.2791 28.0826 69.4314 27.935L69.2082 27.5261C68.9641 27.7595 68.6407 27.8922 68.3029 27.8975Z" fill="#F26829"/>
<path d="M70.5956 27.4109V24.2219H70.0322V27.4999C70.0322 28.2341 70.5014 28.3231 70.8223 28.3231C70.8841 28.3283 70.9462 28.3283 71.008 28.3231V27.8278H70.9078C70.7369 27.8286 70.5956 27.7833 70.5956 27.4109Z" fill="#F26829"/>
<path d="M72.6553 25.3119C72.2623 25.3076 71.8782 25.4299 71.56 25.6607L71.7911 26.0706C72.0291 25.898 72.3127 25.7994 72.6065 25.7872C72.658 25.7802 72.7102 25.7802 72.7617 25.7872C72.9115 25.8073 73.0472 25.8862 73.1389 26.0064C73.2307 26.1266 73.271 26.2783 73.2509 26.4281V26.4796H73.1497C72.6587 26.4796 71.3848 26.5206 71.3848 27.4885C71.3865 27.5074 71.3865 27.5264 71.3848 27.5452C71.3951 27.6651 71.4289 27.7817 71.4843 27.8885C71.5397 27.9953 71.6157 28.0901 71.7077 28.1675C71.7998 28.2449 71.9063 28.3034 72.021 28.3397C72.1357 28.376 72.2564 28.3893 72.3762 28.3789C72.5661 28.3793 72.7522 28.3263 72.9135 28.2261C73.0747 28.1259 73.2047 27.9825 73.2884 27.8121C73.2884 27.8897 73.2884 27.9664 73.2884 28.0431V28.3187H73.8116V26.4569C73.8198 26.3795 73.8198 26.3015 73.8116 26.2241C73.778 25.9503 73.6377 25.701 73.4211 25.5302C73.2046 25.3594 72.9294 25.2809 72.6553 25.3119ZM73.2788 26.9984C73.2918 27.2232 73.2189 27.4445 73.0748 27.6174C72.9306 27.7904 72.7261 27.902 72.5027 27.9298H72.4817H72.4486C72.3184 27.9347 72.1914 27.8879 72.0956 27.7995C71.9999 27.711 71.9431 27.5883 71.9377 27.458C71.9377 26.9348 72.7015 26.9034 73.1218 26.9034H73.2788V26.9984Z" fill="#F26829"/>
<path d="M75.2005 26.1116C75.2058 26.0384 75.2058 25.965 75.2005 25.8919V25.3808H74.6572V28.3144H75.2153V27.1197C75.2125 26.9409 75.2366 26.7628 75.2869 26.5912C75.3302 26.4023 75.4341 26.2328 75.5827 26.1084C75.7313 25.9841 75.9165 25.9117 76.1101 25.9023C76.1638 25.9023 76.2173 25.9084 76.2696 25.9206V25.3686C76.0301 25.3314 75.7855 25.3878 75.5864 25.5262C75.3874 25.6645 75.2492 25.8741 75.2005 26.1116Z" fill="#F26829"/>
<path d="M77.3833 25.3808H76.8208V28.3056H77.3833V25.3808Z" fill="#F26829"/>
<path d="M77.3911 24.2219H76.8208V24.7957H77.3911V24.2219Z" fill="#F26829"/>
<path d="M79.4571 27.8278C79.3814 27.8177 79.3085 27.7928 79.2425 27.7545C79.1764 27.7162 79.1186 27.6652 79.0722 27.6046C79.0259 27.5439 78.9921 27.4747 78.9725 27.4009C78.9529 27.3272 78.9481 27.2503 78.9582 27.1746V25.8727H79.6663V25.4218H78.9582V24.5768H78.4142V25.4218H78.0156V25.8727H78.4028V27.2313C78.3967 27.2951 78.3967 27.3593 78.4028 27.4231C78.4309 27.6908 78.5642 27.9364 78.7733 28.1058C78.9825 28.2752 79.2505 28.3546 79.5182 28.3266C79.5838 28.3318 79.6496 28.3318 79.7152 28.3266V27.8313C79.6705 27.8356 79.6255 27.8356 79.5809 27.8313C79.5396 27.8347 79.4981 27.8335 79.4571 27.8278Z" fill="#F26829"/>
<path d="M81.4971 27.3211C81.4448 27.4702 81.396 27.6699 81.396 27.6699C81.396 27.6699 81.3436 27.4502 81.2878 27.2976L80.5431 25.3791H79.9136L81.1343 28.2734L80.9897 28.6082C80.9565 28.7245 80.8886 28.8279 80.7951 28.9046C80.7016 28.9812 80.5869 29.0275 80.4664 29.0373C80.3433 29.0296 80.2249 28.9883 80.1237 28.9178L80.1141 28.937L79.9213 29.3652C80.049 29.4541 80.1956 29.5118 80.3496 29.5337C80.5036 29.5557 80.6606 29.5412 80.808 29.4915C80.9553 29.4418 81.089 29.3583 81.1982 29.2476C81.3075 29.1369 81.3892 29.0021 81.437 28.8541L82.8104 25.3974H82.207L81.4971 27.3211Z" fill="#F26829"/>
<path d="M85.8391 25.3102C85.446 25.3054 85.0618 25.4278 84.7439 25.659L84.975 26.0689C85.213 25.8964 85.4967 25.7978 85.7904 25.7855C85.8419 25.7785 85.8941 25.7785 85.9456 25.7855C86.0954 25.8056 86.2311 25.8844 86.3228 26.0046C86.4146 26.1248 86.4548 26.2765 86.4347 26.4264V26.4779H86.3049V26.4909C85.813 26.4909 84.5425 26.5319 84.5425 27.4999C84.5438 27.5185 84.5438 27.5371 84.5425 27.5557C84.5633 27.7978 84.6795 28.0218 84.8654 28.1783C85.0514 28.3348 85.2918 28.411 85.534 28.3902C85.7294 28.3945 85.922 28.3423 86.0886 28.2399C86.2551 28.1375 86.3887 27.9893 86.4732 27.813C86.4688 27.8899 86.4688 27.9671 86.4732 28.044V28.3196H86.9903V26.4578C86.9999 26.3784 86.9999 26.2982 86.9903 26.2189C86.9577 25.9459 86.8183 25.697 86.6025 25.5267C86.3867 25.3563 86.1122 25.2785 85.8391 25.3102ZM86.4391 27.0081C86.4519 27.2342 86.3778 27.4566 86.2318 27.6298C86.0859 27.8029 85.8793 27.9137 85.6543 27.9394V27.9307H85.6194C85.4903 27.9373 85.3638 27.8925 85.2677 27.806C85.1716 27.7195 85.1136 27.5985 85.1067 27.4694C85.1067 26.9461 85.8706 26.9147 86.2918 26.9147H86.4365L86.4391 27.0081Z" fill="#212944"/>
<path d="M89.0015 27.8313C88.8491 27.8094 88.7114 27.7281 88.6189 27.605C88.5264 27.4819 88.4865 27.3271 88.5079 27.1746V25.8727H89.216V25.4218H88.5062V24.5768H87.962V25.4218H87.5635V25.8727H87.962V27.2365C87.9559 27.3015 87.9559 27.3669 87.962 27.4319C87.992 27.6989 88.1268 27.9431 88.3367 28.1109C88.5467 28.2786 88.8146 28.3562 89.0817 28.3266C89.1475 28.3318 89.2138 28.3318 89.2797 28.3266V27.8313C89.235 27.8356 89.19 27.8356 89.1453 27.8313C89.0975 27.8365 89.0493 27.8365 89.0015 27.8313Z" fill="#212944"/>
<path d="M91.8173 26.1604C91.8173 25.8918 92.0527 25.7872 92.2951 25.7872C92.5598 25.783 92.8167 25.8761 93.0172 26.0488L93.2448 25.6241C92.984 25.3964 92.6443 25.28 92.2987 25.2997C91.7179 25.2997 91.2409 25.6032 91.2409 26.136C91.2409 27.0953 92.7329 26.981 92.7329 27.5182C92.7329 27.7641 92.4914 27.8906 92.2489 27.8906C91.9362 27.8852 91.6364 27.7644 91.4074 27.5513V27.5601L91.1362 27.9595C91.4381 28.2429 91.8393 28.3964 92.2533 28.3867C92.8934 28.3867 93.3111 28.0222 93.3111 27.5339C93.3094 26.5738 91.8173 26.6889 91.8173 26.1604Z" fill="#212944"/>
<path d="M95.4748 25.3102C95.2789 25.3 95.0839 25.3443 94.9117 25.4382C94.7394 25.5321 94.5966 25.6719 94.499 25.8421C94.5025 25.7718 94.5025 25.7011 94.499 25.6302V25.3808H93.9854V25.3695V29.468H94.5408V28.1548C94.546 28.0706 94.546 27.9861 94.5408 27.9019C94.6352 28.0529 94.7676 28.1765 94.9248 28.2602C95.082 28.3439 95.2584 28.3848 95.4364 28.3789C95.4695 28.3789 95.5027 28.3789 95.5358 28.3719C95.7165 28.3524 95.8916 28.2974 96.051 28.2101C96.2104 28.1229 96.3511 28.0051 96.465 27.8634C96.5789 27.7218 96.6637 27.5591 96.7146 27.3846C96.7656 27.2102 96.7816 27.0274 96.7619 26.8467C96.7601 25.9355 96.2649 25.3102 95.4748 25.3102ZM95.3379 27.8949C94.8025 27.8949 94.5112 27.3769 94.5112 26.8485C94.5112 26.1037 94.8731 25.7942 95.3571 25.7942C95.841 25.7942 96.1837 26.1709 96.1837 26.8406C96.1837 27.5103 95.8001 27.8975 95.3379 27.8975V27.8949Z" fill="#212944"/>
<path d="M98.7012 25.3119L98.7118 25.3198C98.6682 25.3176 98.6245 25.3176 98.5809 25.3198C98.3926 25.3325 98.2085 25.3822 98.0394 25.4661C97.8703 25.55 97.7195 25.6663 97.5953 25.8085C97.4712 25.9507 97.3762 26.116 97.316 26.2948C97.2557 26.4737 97.2312 26.6627 97.244 26.8511V26.9618C97.2617 27.3563 97.435 27.7276 97.7259 27.9945C98.0169 28.2615 98.4018 28.4022 98.7963 28.3859C99.2118 28.3857 99.6137 28.2376 99.93 27.9681L99.6962 27.5583C99.4529 27.7679 99.1451 27.8876 98.8242 27.8975H98.7509C98.4979 27.8925 98.2571 27.7876 98.081 27.6058C97.905 27.424 97.8078 27.18 97.8109 26.9269H99.9456C99.9456 26.9269 99.9639 26.7595 99.9639 26.6845C99.9817 26.5089 99.9621 26.3315 99.9062 26.164C99.8504 25.9966 99.7596 25.8429 99.6399 25.7131C99.5202 25.5834 99.3743 25.4806 99.2119 25.4114C99.0494 25.3422 98.8742 25.3083 98.6977 25.3119H98.7012ZM97.8371 26.5057C97.861 26.2971 97.9621 26.1049 98.1206 25.9671C98.2791 25.8293 98.4835 25.7557 98.6934 25.761C98.717 25.7597 98.7405 25.7597 98.764 25.761C98.9471 25.7751 99.117 25.8612 99.2365 26.0005C99.3561 26.1399 99.4154 26.321 99.4014 26.504L97.8371 26.5057Z" fill="#212944"/>
<path d="M101.912 25.3119V25.3189C101.868 25.3167 101.825 25.3167 101.781 25.3189C101.593 25.3316 101.409 25.3814 101.239 25.4653C101.07 25.5492 100.919 25.6656 100.795 25.8079C100.671 25.9502 100.576 26.1156 100.516 26.2946C100.456 26.4736 100.431 26.6627 100.444 26.8511V26.9609C100.462 27.3555 100.635 27.7269 100.926 27.994C101.217 28.261 101.602 28.4019 101.997 28.3859C102.412 28.3848 102.813 28.2368 103.13 27.9681L102.896 27.5574C102.653 27.7682 102.345 27.8881 102.024 27.8966H101.96C101.707 27.8918 101.466 27.7872 101.29 27.6056C101.113 27.4239 101.016 27.18 101.019 26.9269H103.153C103.153 26.9269 103.172 26.7595 103.172 26.6845C103.19 26.5089 103.17 26.3315 103.114 26.164C103.058 25.9966 102.968 25.8429 102.848 25.7131C102.728 25.5834 102.582 25.4806 102.42 25.4114C102.258 25.3422 102.082 25.3083 101.906 25.3119H101.912ZM101.044 26.5057C101.067 26.2965 101.168 26.1035 101.326 25.9654C101.485 25.8273 101.69 25.7543 101.901 25.761C101.925 25.7597 101.95 25.7597 101.975 25.761C102.157 25.7761 102.325 25.8629 102.444 26.0022C102.562 26.1414 102.62 26.3219 102.605 26.504L101.044 26.5057Z" fill="#212944"/>
<path d="M105.906 25.577C105.902 25.6429 105.902 25.7091 105.906 25.775C105.812 25.6212 105.677 25.4963 105.517 25.4141C105.356 25.332 105.176 25.2957 104.996 25.3093L105.012 25.3207C104.973 25.3207 104.935 25.3206 104.896 25.3294C104.717 25.35 104.543 25.4059 104.385 25.4938C104.227 25.5817 104.087 25.6999 103.975 25.8416C103.862 25.9833 103.779 26.1458 103.73 26.3198C103.68 26.4937 103.665 26.6757 103.686 26.8554C103.686 27.7641 104.181 28.3902 104.975 28.3902C105.17 28.4008 105.364 28.3553 105.534 28.259C105.704 28.1627 105.843 28.0197 105.934 27.8469V28.3196H106.466V24.221H105.904L105.906 25.577ZM105.086 27.9019L105.071 27.894C104.583 27.894 104.26 27.5286 104.26 26.8545C104.26 26.1805 104.639 25.8081 105.101 25.8081C105.659 25.8081 105.931 26.3313 105.931 26.8545C105.931 27.5966 105.518 27.9019 105.086 27.9019Z" fill="#212944"/>
<path d="M108.731 24.4495C108.652 24.3671 108.556 24.3021 108.45 24.2586C108.345 24.2151 108.231 24.194 108.116 24.1966C108.005 24.1945 107.894 24.2146 107.791 24.2556C107.687 24.2966 107.593 24.3578 107.513 24.4356C107.424 24.5144 107.354 24.6122 107.307 24.7217C107.261 24.8313 107.239 24.9498 107.244 25.0687C107.24 25.1827 107.26 25.2965 107.304 25.4019C107.348 25.5073 107.414 25.6019 107.498 25.6791C107.662 25.8423 107.883 25.934 108.114 25.934C108.345 25.934 108.567 25.8423 108.73 25.6791C108.816 25.5978 108.885 25.4996 108.931 25.3906C108.977 25.2817 109 25.1643 108.999 25.046C108.987 24.8208 108.892 24.608 108.731 24.4495ZM108.624 25.5832C108.558 25.6515 108.48 25.7061 108.393 25.7438C108.306 25.7815 108.212 25.8016 108.117 25.8029C108.023 25.8065 107.929 25.79 107.842 25.7547C107.755 25.7194 107.676 25.666 107.611 25.598C107.479 25.4592 107.406 25.2752 107.406 25.0839C107.406 24.8927 107.479 24.7087 107.611 24.5698C107.679 24.4998 107.76 24.4442 107.85 24.4064C107.94 24.3686 108.036 24.3495 108.134 24.3501C108.324 24.3535 108.506 24.4318 108.639 24.5678C108.772 24.7039 108.846 24.887 108.846 25.0774C108.836 25.2681 108.757 25.4489 108.624 25.5858V25.5832Z" fill="#212944"/>
<path d="M108.529 24.8576C108.531 24.8108 108.52 24.7643 108.498 24.723C108.476 24.6817 108.443 24.6472 108.402 24.623C108.345 24.5881 108.279 24.5711 108.212 24.5742H107.739V25.543H107.992V25.2117H108.1C108.133 25.2093 108.166 25.2169 108.194 25.2334C108.223 25.2498 108.246 25.2745 108.26 25.3041C108.263 25.3465 108.263 25.389 108.26 25.4314C108.257 25.4735 108.257 25.5158 108.26 25.5578H108.513V25.3834C108.518 25.3516 108.517 25.319 108.51 25.2876C108.502 25.2562 108.489 25.2266 108.47 25.2005C108.451 25.1743 108.427 25.1523 108.399 25.1355C108.372 25.1187 108.341 25.1075 108.309 25.1027H108.29C108.353 25.0989 108.414 25.0767 108.464 25.039C108.513 25.0032 108.529 24.9396 108.529 24.8576ZM108.227 25.0006C108.198 25.0303 108.15 25.0303 108.086 25.0303H107.993V24.7477H108.056C108.103 24.7381 108.151 24.7381 108.198 24.7477C108.221 24.7558 108.241 24.7709 108.255 24.791C108.269 24.811 108.276 24.8349 108.276 24.8593C108.28 24.8851 108.278 24.9116 108.27 24.9363C108.261 24.9611 108.247 24.9832 108.227 25.0006Z" fill="#212944"/>
</g>
<defs>
<clipPath id="clip0">
<rect width="109" height="29.3893" fill="white" transform="translate(0 0.156342)"/>
</clipPath>
</defs>
</svg>
