<svg width="101" height="32" viewBox="0 0 101 32" fill="none" xmlns="http://www.w3.org/2000/svg">
<g clip-path="url(#clip0)">
<path fill-rule="evenodd" clip-rule="evenodd" d="M95.4705 19.5236C95.4705 17.3155 93.9668 16.0114 92.1261 16.0114C90.0177 16.0114 88.7123 17.5163 88.7123 19.5905C88.6593 21.4414 90.1175 22.9854 91.9696 23.0372C92.0213 23.0397 92.0744 23.0397 92.1261 23.0372C93.9668 23.0372 95.4717 21.632 95.4717 19.5236H95.4705ZM100.792 27.6289L95.7722 27.6731V25.2907C95.2041 27.033 93.0957 28.1187 91.0555 28.1187C86.5711 28.1187 83.1573 24.9069 83.1573 19.4201C83.1573 14.3701 86.7049 10.7871 90.9545 10.7871C93.2295 10.7871 94.9705 12.2188 95.4717 13.5242V11.1015H100.792V27.6314V27.6289ZM81.915 21.9716C81.915 25.7427 79.087 28.2336 74.1683 28.2336C69.891 28.2336 67.8697 26.6833 66.7928 24.2921C66.7246 24.056 66.7246 23.854 66.8938 23.7871L70.5639 22.3731C70.6838 22.3352 70.8139 22.392 70.8669 22.5057C71.2393 23.5157 72.3503 24.3237 73.5964 24.3237C75.1114 24.3237 75.7856 23.7177 75.7856 22.9766C75.7856 22.0676 75.0786 21.5954 72.4854 20.9566C69.285 20.1486 67.0617 19.0035 67.0617 15.6364C67.0617 12.0989 69.9579 10.1117 74.6405 10.1117C78.38 10.1117 80.602 11.5257 81.2749 13.7477C81.309 13.9497 81.309 14.1517 81.107 14.2199L77.3675 15.543C77.1655 15.644 77.1339 15.644 76.9976 15.442C76.4244 14.533 75.5495 13.927 74.4385 13.927C73.1242 13.927 72.5523 14.3638 72.5523 15.1049C72.5523 15.7791 73.3275 16.0821 76.2224 16.6893C79.592 17.361 81.915 18.804 81.915 21.9716ZM59.6281 19.5224C59.6281 17.3143 58.1219 16.0101 56.2812 16.0101C54.1741 16.0101 52.8699 17.515 52.8699 19.5893C52.8157 21.4388 54.2713 22.9829 56.1221 23.0359C56.1752 23.0384 56.2282 23.0384 56.2812 23.0372C58.1219 23.0372 59.6281 21.6307 59.6281 19.5224ZM64.9495 27.6276L59.9286 27.6705V25.2895C59.3604 27.0317 57.2521 28.1175 55.2106 28.1175C50.7262 28.1175 47.3149 24.9057 47.3149 19.4188C47.3149 14.3688 50.8626 10.7859 55.1121 10.7859C57.3859 10.7859 59.1256 12.2188 59.6281 13.523V11.099H64.9495V27.6289V27.6276Z" fill="black"/>
<path fill-rule="evenodd" clip-rule="evenodd" d="M41.6497 10.647H41.4982L41.4149 10.7695L36.4369 17.8117L36.4495 6.57549V6.29395H36.1679L30.7834 6.29016H30.5018V6.57044L30.4829 27.4547V27.7375H30.7632L36.1477 27.74L36.4293 27.7426V27.461L36.4356 21.2924L40.7458 27.6226L40.8291 27.7463H47.3297L47.0368 27.3083L41.6649 19.2889L47.4471 11.0914L47.7476 10.6534H47.2161L41.6485 10.647H41.6497Z" fill="black"/>
<path fill-rule="evenodd" clip-rule="evenodd" d="M0 3.9633L8.57869 0.849976V27.1567L0 30.2662V3.9633ZM10.9383 20.776L10.9131 11.1002L20.8035 7.73691V17.4771L15.0717 19.3936L20.8035 21.329V31.0452L10.9383 27.7703V20.776Z" fill="#1D6FF2"/>
</g>
<defs>
<clipPath id="clip0">
<rect width="101" height="30.3" fill="white" transform="translate(0 0.849976)"/>
</clipPath>
</defs>
</svg>
