<svg width="106" height="35" viewBox="0 0 106 35" fill="none" xmlns="http://www.w3.org/2000/svg">
<g clip-path="url(#clip0)">
<path d="M72.7455 15.4852C73.8133 15.4852 74.8048 15.6352 75.6438 16.0105C76.4828 16.3106 77.2455 16.8359 77.8557 17.4363C78.4659 18.0366 78.9235 18.7871 79.2286 19.6876C79.6862 20.5131 79.8388 21.4886 79.8388 22.5392C79.8388 23.5899 79.6862 24.4904 79.4574 25.3909C79.1523 26.2914 78.771 26.9668 78.3133 27.6422C77.7794 28.2425 77.1693 28.7679 76.4065 29.068C75.6438 29.4432 74.8048 29.5933 73.8133 29.5933C73.2031 29.5933 72.5929 29.5183 71.9828 29.3682C71.4489 29.2181 70.9912 29.068 70.6099 28.8429V34.0959H67.4065V16.2356C68.0166 16.0855 68.8556 15.8604 69.7709 15.7103C70.6861 15.5602 71.754 15.4852 72.7455 15.4852ZM58.1776 15.4101C60.0844 15.4101 61.5335 16.0105 62.6013 17.1361C63.6691 18.2618 64.203 19.9878 64.203 22.3141V22.9145C64.203 23.1396 64.203 23.2897 64.1268 23.5148H55.1267C55.203 24.5654 55.5843 25.4659 56.2708 26.0663C56.9572 26.6666 57.9488 26.9668 59.3217 26.9668C60.0844 26.9668 60.7708 26.8918 61.4573 26.7417C62.0674 26.5916 62.6013 26.4415 62.9827 26.2914L63.4403 28.8429C63.2878 28.9179 63.059 28.993 62.6776 29.1431C62.3725 29.2181 61.9912 29.2932 61.6098 29.4432C61.2284 29.5183 60.7708 29.5933 60.3132 29.6684C59.8556 29.7434 59.3979 29.7434 58.9403 29.7434C57.7199 29.7434 56.6521 29.5933 55.8132 29.2181C54.8979 28.8429 54.2114 28.3926 53.6013 27.7172C52.9911 27.1169 52.6097 26.3665 52.3046 25.4659C51.9233 24.5654 51.7707 23.6649 51.7707 22.6143C51.7707 21.4136 51.9233 20.363 52.3046 19.4625C52.686 18.5619 53.1436 17.8115 53.7538 17.2112C54.364 16.6108 55.0504 16.1605 55.8132 15.8604C56.5759 15.5602 57.3386 15.4101 58.1776 15.4101ZM86.0168 11.6579V15.7853H90.8982V18.4118H86.0168V23.89C86.0168 24.9406 86.1693 25.7661 86.5507 26.2164C86.932 26.6666 87.466 26.8918 88.3812 26.8918C88.9914 26.8918 89.449 26.8167 89.9066 26.7417C90.3643 26.5916 90.7456 26.5166 90.9745 26.3665L91.5084 28.8429C91.127 28.993 90.6694 29.1431 90.0592 29.2932C89.449 29.4432 88.7626 29.5183 87.9236 29.5183C86.9321 29.5183 86.0931 29.3682 85.4829 29.1431C84.7964 28.8429 84.3388 28.5427 83.8812 28.0174C83.4998 27.4921 83.1947 26.9668 83.0422 26.2164C82.8896 25.541 82.8134 24.7155 82.8134 23.815V12.1832L86.0168 11.6579ZM100.127 15.4852C101.271 15.4852 102.186 15.6352 102.949 15.9354C103.712 16.2356 104.322 16.6859 104.78 17.2112C105.237 17.7365 105.542 18.4118 105.695 19.1623C105.847 19.9127 106 20.7382 106 21.7138V29.3682H102.797V22.2391C102.797 21.4886 102.72 20.8883 102.644 20.363C102.568 19.8377 102.415 19.4625 102.186 19.0872C101.958 18.7871 101.653 18.5619 101.271 18.4118C100.89 18.2618 100.432 18.1867 99.8983 18.1867C99.5169 18.1867 99.0593 18.1867 98.6016 18.2618C98.144 18.3368 97.8389 18.3368 97.6101 18.4118V29.3682H94.4067L94.483 16.2356C95.0931 16.0855 95.9321 15.8604 96.8474 15.7103C97.8389 15.5602 98.9067 15.4852 100.127 15.4852ZM26.4485 8.73124L26.9824 11.2827L12.2619 29.2932H9.59243L26.4485 8.73124ZM27.5163 13.8342L28.5841 18.4869C28.7214 18.9597 28.6116 19.4932 28.3102 19.9235L28.2028 20.0628L21.262 28.6178C20.923 28.9513 20.4635 29.2255 19.937 29.2824L19.7366 29.2932H14.9315L27.5163 13.8342ZM41.6266 8.95637V20.8883C42.008 20.438 42.4656 19.9878 42.9232 19.5375C43.3808 19.0872 43.8385 18.5619 44.2961 18.1117C44.7537 17.6614 45.1351 17.1361 45.5927 16.6859C46.0504 16.2356 46.3554 15.8604 46.5843 15.5602H50.3979C49.4826 16.5358 48.5673 17.5864 47.5758 18.5619C46.5843 19.6125 45.4402 20.9633 44.4486 21.9389L50.7029 29.2932H46.9656L41.6266 22.9895V29.2932H38.4232V9.48167L41.6266 8.95637ZM23.6264 5.80454L25.2282 6.55498C25.279 6.605 25.3298 6.62168 25.3807 6.64947L25.457 6.70506L7.38055 28.8429C7.38055 28.7866 7.33765 28.7303 7.28402 28.674L7.22801 28.6178L6.08393 27.1919L23.6264 5.80454ZM72.4404 18.1867C72.1353 18.1867 71.8302 18.1867 71.5251 18.2618C71.2201 18.2618 70.915 18.3368 70.5336 18.4118V26.1413C70.8387 26.2914 71.2201 26.5166 71.6777 26.6666C72.1353 26.8167 72.6692 26.8918 73.1269 26.8918C74.2709 26.8918 75.1099 26.5165 75.6438 25.7661C76.3303 24.9406 76.5591 23.89 76.5591 22.6143C76.5591 21.1885 76.254 20.1378 75.5676 19.3124C74.9574 18.5619 73.8896 18.1867 72.4404 18.1867ZM19.8129 4.0035L21.6434 4.90402L4.78731 25.541L3.49069 23.9651L11.6518 13.9843L19.8129 4.0035ZM15.1322 1.76053L15.3128 1.82723L17.9061 3.10297L12.1857 10.1571C11.9569 9.63176 11.5755 9.1815 11.1179 8.80628C9.51616 7.4555 7.22801 7.75567 5.85511 9.33158C4.48222 10.9075 4.78731 13.2338 6.38902 14.5096C6.78127 14.8312 7.22956 15.0426 7.68586 15.1909L7.91445 15.26L2.19407 22.3141L0.439814 20.0628C0.0965911 19.6576 -0.0612915 19.1308 0.0217685 18.6465L0.0584552 18.4869L2.57542 7.83071C2.6517 7.60558 2.72797 7.38045 2.88051 7.15532C3.06356 6.97522 3.24662 6.79511 3.46872 6.65343L3.64323 6.55498L13.6348 1.82723C14.1094 1.62712 14.6443 1.60488 15.1322 1.76053ZM58.3301 18.1117C57.8725 18.1117 57.4149 18.1867 57.0335 18.4118C56.6521 18.5619 56.3471 18.8621 56.1182 19.1623C55.8894 19.4625 55.6606 19.7626 55.5081 20.1379C55.3555 20.5131 55.2792 20.8883 55.203 21.2635L61.0759 21.1885C61.0759 20.7382 60.9996 20.363 60.9234 19.9878C60.7708 19.6125 60.6183 19.2373 60.3895 19.0122C60.1606 18.712 59.8556 18.4869 59.5505 18.3368C59.2454 18.1867 58.7878 18.1117 58.3301 18.1117ZM9.74498 10.3822C10.4628 10.8766 10.5726 11.8363 10.0743 12.5732L9.97379 12.7085L9.86228 12.8222C9.24776 13.399 8.32722 13.4987 7.60936 12.9337C6.92292 12.3333 6.77037 11.3578 7.38055 10.6073C7.99072 9.93193 8.98226 9.78185 9.74498 10.3822Z" fill="#006BB8"/>
</g>
<defs>
<clipPath id="clip0">
<rect width="106" height="33.1919" fill="white" transform="translate(0 0.904053)"/>
</clipPath>
</defs>
</svg>
