<svg width="79" height="44" viewBox="0 0 79 44" fill="none" xmlns="http://www.w3.org/2000/svg">
<g clip-path="url(#clip0)">
<path fill-rule="evenodd" clip-rule="evenodd" d="M66.9758 13.0446C58.9875 9.72127 52.2672 11.2434 46.7388 14.4653C49.2494 19.4884 49.9595 25.298 52.749 29.1034C56.5023 34.2026 63.4508 38.3886 68.8017 38.3125C73.1636 38.2617 75.5474 35.4204 76.0293 34.6339C76.0546 34.6086 76.0546 34.5832 76.08 34.5578C76.08 34.5578 76.08 34.5578 76.08 34.5324C76.5364 33.7206 76.8661 32.8581 77.0436 31.894C78.337 25.3488 74.7359 16.2665 66.9758 13.0446Z" fill="#1EC4E9"/>
<path fill-rule="evenodd" clip-rule="evenodd" d="M16.4839 36.9679C23.255 36.1815 28.2762 33.8982 36.8478 24.4355C39.7641 21.2389 42.3255 17.053 46.7381 14.4653C43.9231 8.83336 39.9924 3.60728 31.9533 1.47626C21.7587 -1.21288 14.5312 0.258535 7.5573 6.49938C2.68823 10.8629 0.938409 15.9368 0.481934 17.9156C-0.786052 23.4461 1.3188 28.5707 3.22078 31.8433C3.5251 32.3507 7.40514 38.0334 16.4839 36.9679Z" fill="#A295EE"/>
<path fill-rule="evenodd" clip-rule="evenodd" d="M54.4732 43.3102C54.5746 43.3102 54.6761 43.2849 54.8029 43.2849C54.9804 43.2595 55.1325 43.2595 55.2847 43.2341C58.3786 42.9551 61.3457 42.5492 63.9831 41.9403C64.1099 41.9149 64.2367 41.8896 64.3635 41.8642C64.4396 41.8388 64.4903 41.8388 64.5664 41.8135C67.5842 41.0777 70.0187 40.063 71.9714 38.7691C71.9968 38.7438 72.0475 38.7184 72.0728 38.693C72.1489 38.6423 72.1996 38.5916 72.2757 38.5408C72.3264 38.5154 72.3518 38.4901 72.4025 38.4647C72.504 38.3886 72.58 38.3379 72.6815 38.2618C73.7719 37.4499 74.6849 36.5366 75.3696 35.6233C75.395 35.598 75.4203 35.5726 75.4457 35.5219C75.471 35.4965 75.471 35.4711 75.4964 35.4458C75.6993 35.1667 75.8768 34.8876 76.0543 34.5832C75.5725 35.3697 73.5944 37.6022 69.2325 37.6529C63.8816 37.729 57.4149 33.7206 53.6617 28.596C50.8721 24.7907 49.2744 19.4377 46.7638 14.4146C42.3766 17.0023 38.7248 20.6555 35.8084 23.8774C27.2368 33.3147 22.7989 35.4711 16.0279 36.2576C6.94907 37.3231 3.52551 32.3 3.22119 31.818C3.22119 31.8433 3.24655 31.8433 3.24655 31.8687C3.50015 32.3 4.84421 34.4056 6.94907 36.4098C7.9381 37.3231 8.95249 38.0842 9.86544 38.693C13.9484 41.1792 19.6036 43.6147 39.9928 43.7162C45.5212 43.7669 50.3142 43.64 54.4732 43.3102Z" fill="#7A68E8"/>
</g>
<defs>
<clipPath id="clip0">
<rect width="79" height="43.8889" fill="white" transform="translate(0 0.055542)"/>
</clipPath>
</defs>
</svg>
