<svg width="141" height="28" viewBox="0 0 141 28" fill="none" xmlns="http://www.w3.org/2000/svg">
<g clip-path="url(#clip0)">
<path d="M24.4126 0.333801H10.0207C4.4817 0.333801 0 4.8155 0 10.3545V24.7307C0 26.0089 1.04152 27.0662 2.33553 27.0662H16.7275C22.2665 27.0662 26.7482 22.5845 26.7482 17.0455V2.66934C26.7324 1.37532 25.6909 0.333801 24.4126 0.333801ZM21.8404 10.8753H16.1909V16.5247H21.8404C21.8404 19.6493 19.3155 22.1742 16.1909 22.1742V16.5247H10.5415V22.1742H6.56475C5.64947 22.1742 4.90778 21.4325 4.90778 20.5172V10.891C4.90778 7.78226 7.43268 5.24158 10.5415 5.24158V10.891H16.1909V5.24158H20.2308C21.1145 5.24158 21.8404 5.95171 21.8404 6.83542V10.8753Z" fill="#FFE000"/>
<path d="M48.2256 20.5015H44.4856L39.4989 13.9367V20.5015H36.4375V7.07213H39.4989V13.2897L44.1385 7.07213H47.7049L42.8918 13.5106L48.2256 20.5015Z" fill="#10121F"/>
<path d="M53.1966 20.8013C52.155 20.8171 51.1135 20.5646 50.1824 20.0912C49.3145 19.6493 48.5728 18.9549 48.0678 18.1186C46.5213 15.6094 47.3104 12.3113 49.8195 10.7648C49.93 10.6859 50.0562 10.6228 50.1824 10.5596C52.0761 9.61281 54.317 9.61281 56.2107 10.5596C57.0786 11.0015 57.8203 11.6801 58.3253 12.5164C59.351 14.2365 59.351 16.3827 58.3253 18.1028C57.8045 18.9392 57.0786 19.6177 56.2107 20.0754C55.2796 20.5646 54.2381 20.8171 53.1966 20.8013ZM51.0977 17.3769C52.2971 18.4342 54.0803 18.4342 55.2796 17.3769C55.8319 16.8403 56.1317 16.0986 56.1002 15.3254C56.1317 14.5521 55.8319 13.8105 55.2796 13.2739C54.0803 12.2166 52.2971 12.2166 51.0977 13.2739C50.5454 13.8105 50.2456 14.5521 50.2771 15.3254C50.2614 16.0986 50.5612 16.8403 51.0977 17.3769Z" fill="#10121F"/>
<path d="M72.9856 9.89687C74.1218 9.89687 75.0371 10.2756 75.7472 11.0331C76.4574 11.7905 76.8203 12.7847 76.8203 13.9998V20.5015H73.8693V14.4733C73.8693 13.7789 73.7273 13.2581 73.459 12.8952C73.1592 12.5322 72.7173 12.3271 72.2439 12.3586C71.66 12.3271 71.0919 12.5796 70.6974 13.0214C70.3187 13.4633 70.1451 14.0945 70.1451 14.8993V20.5015H67.273V14.4733C67.273 13.7789 67.131 13.2581 66.8627 12.8952C66.5787 12.5322 66.121 12.3271 65.6634 12.3586C65.0006 12.3586 64.4641 12.5796 64.1011 13.0214C63.7224 13.4633 63.533 14.0945 63.533 14.8993V20.5015H60.582V10.1494H62.6335L63.1858 11.4276C63.5804 10.9542 64.0696 10.5754 64.6377 10.3072C65.2058 10.0389 65.8212 9.89687 66.4524 9.89687C67.0994 9.88109 67.7464 10.0389 68.3145 10.3387C68.8511 10.6228 69.3087 11.0331 69.6086 11.5538C69.9873 11.0331 70.4923 10.6228 71.0762 10.3387C71.66 10.0547 72.3228 9.89687 72.9856 9.89687Z" fill="#10121F"/>
<path d="M84.8526 9.84952C85.8784 9.83374 86.8725 10.0704 87.772 10.5596C88.6242 11.0173 89.3343 11.6959 89.8235 12.5164C90.8019 14.2523 90.8019 16.3827 89.8235 18.1186C89.3343 18.9549 88.6242 19.6335 87.772 20.0912C86.8725 20.5646 85.8626 20.8171 84.8526 20.8013C83.7953 20.8171 82.738 20.5172 81.8543 19.9333V24.2257H78.9033V10.1493H80.8443L81.3493 11.0962C82.3277 10.2756 83.5744 9.83374 84.8526 9.84952ZM82.4855 17.3611C83.7006 18.4342 85.5312 18.4342 86.7305 17.3611C87.8509 16.2407 87.8509 14.4259 86.7305 13.3055C85.5154 12.2324 83.6849 12.2324 82.4855 13.3055C81.3651 14.4259 81.3651 16.2407 82.4697 17.3611C82.4697 17.3453 82.4697 17.3453 82.4855 17.3611Z" fill="#10121F"/>
<path d="M92.0327 8.76067V6.15686H94.9679V8.76067H92.0327ZM92.0327 20.5015V10.1494H94.9837V20.5172H92.0327V20.5015Z" fill="#10121F"/>
<path d="M106.962 7.07213V9.77062H103.032V20.5172H99.9709V9.77062H96.0415V7.07213H106.962Z" fill="#10121F"/>
<path d="M117.282 15.2938C117.282 15.5621 117.266 15.8462 117.218 16.1144H108.965C109.044 16.7457 109.376 17.3295 109.865 17.7398C110.37 18.1344 111.001 18.3237 111.648 18.3079C112.121 18.3079 112.595 18.2133 113.021 17.9923C113.415 17.7872 113.747 17.4873 113.968 17.1086H117.061C116.698 18.2133 115.972 19.1601 115.009 19.8071C113.131 21.0222 110.748 21.1327 108.776 20.0912C107.924 19.6335 107.229 18.9549 106.74 18.1186C105.762 16.3827 105.762 14.2681 106.74 12.548C107.214 11.7116 107.924 11.0331 108.76 10.5754C110.591 9.61281 112.784 9.62859 114.599 10.607C115.435 11.0646 116.13 11.7432 116.603 12.5796C117.045 13.4002 117.297 14.3312 117.282 15.2938ZM111.632 12.2482C111.032 12.2324 110.449 12.406 109.975 12.7689C109.502 13.1319 109.17 13.6369 109.044 14.205H114.331C113.999 13.0056 112.879 12.1851 111.632 12.2482Z" fill="#10121F"/>
<path d="M123.831 20.8013C123.042 20.8013 122.268 20.6593 121.542 20.3752C120.864 20.1069 120.233 19.7124 119.696 19.2232C119.175 18.734 118.765 18.1344 118.481 17.4716C118.181 16.793 118.039 16.0513 118.039 15.3096C118.039 14.5679 118.181 13.8262 118.481 13.1477C118.765 12.4849 119.175 11.901 119.696 11.4118C120.233 10.9226 120.864 10.5281 121.542 10.2756C122.284 9.99154 123.057 9.84952 123.846 9.8653C125.251 9.8653 126.466 10.2598 127.476 11.0331C128.47 11.7905 129.164 12.8952 129.401 14.1261H126.466C126.245 13.6369 125.882 13.2108 125.409 12.9267C124.935 12.6427 124.383 12.4849 123.831 12.5007C123.089 12.4849 122.363 12.7689 121.826 13.3055C121.29 13.842 121.006 14.5679 121.022 15.3096C121.006 16.0671 121.29 16.793 121.826 17.3453C122.347 17.8976 123.073 18.1975 123.831 18.1817C124.383 18.1975 124.935 18.0397 125.409 17.7398C125.882 17.4242 126.245 16.9824 126.466 16.4616H129.433C129.196 17.7241 128.517 18.8445 127.507 19.6177C126.466 20.391 125.251 20.8013 123.831 20.8013Z" fill="#10121F"/>
<path d="M136.991 9.89687C138.222 9.89687 139.201 10.2914 139.911 11.0646C140.621 11.8379 140.984 12.8952 140.984 14.2208V20.5172H138.033V14.6784C138.033 13.8894 137.875 13.3055 137.575 12.9268C137.276 12.548 136.786 12.3586 136.124 12.3586C135.445 12.3271 134.798 12.5954 134.34 13.0846C133.898 13.5738 133.678 14.2365 133.678 15.0729V20.5172H130.727V6.40935H133.678V11.112C134.593 10.3072 135.682 9.89687 136.991 9.89687Z" fill="#10121F"/>
</g>
<defs>
<clipPath id="clip0">
<rect width="141" height="26.7324" fill="white" transform="translate(0 0.333801)"/>
</clipPath>
</defs>
</svg>
