<svg width="74" height="74" viewBox="0 0 74 74" fill="none" xmlns="http://www.w3.org/2000/svg">
<g clip-path="url(#clip0)">
<path d="M25.626 17.2004L26.7216 44.4831L46.4287 19.3328C46.5767 19.1436 46.7608 18.9856 46.9704 18.8681C47.1799 18.7507 47.4107 18.6759 47.6494 18.6484C47.888 18.6208 48.1297 18.6408 48.3606 18.7074C48.5914 18.774 48.8067 18.8857 48.994 19.0362L61.2859 28.9018L57.2777 11.3698L25.626 17.2004Z" fill="#4279F4"/>
<path d="M27.4028 49.4881H44.8841L34.15 40.8757L27.4028 49.4881Z" fill="#0028AA"/>
<path d="M48.1471 23.0178L36.3896 38.0192L48.9167 48.0692L60.7998 33.1693L48.1471 23.0178V23.0178Z" fill="#014BD1"/>
<path d="M22.3285 14.5683L22.3312 14.5656L32.6697 1.60034L15.9982 9.63017L11.8804 27.6699L22.3285 14.5683Z" fill="#BEDCFF"/>
<path d="M12.1104 33.2066L23.1838 47.0911L22.1283 20.6422L12.1104 33.2066V33.2066Z" fill="#6CA1FF"/>
<path d="M54.0606 8.27006L38.1185 0.592957L28.1968 13.0345L54.0606 8.27006V8.27006Z" fill="#A1C3FF"/>
<path d="M0.427734 73.2756V61.3097H1.96155V67.5652L7.43413 61.3097H9.14431L4.49743 66.5738L9.57452 73.2729H7.77616L3.52209 67.7148L1.96155 69.4918V73.2756H0.427734ZM11.1217 70.6595V64.7247H12.5727V70.7076C12.5661 70.9336 12.621 71.1572 12.7317 71.3544C12.8423 71.5516 13.0044 71.715 13.2006 71.8273C13.6475 72.0852 14.1544 72.2211 14.6703 72.2211C15.1863 72.2211 15.6932 72.0852 16.14 71.8273C16.3349 71.7139 16.4956 71.5501 16.6052 71.353C16.7148 71.156 16.7692 70.933 16.7626 70.7076V64.7247H18.2136V70.6542C18.2262 71.0692 18.132 71.4804 17.9402 71.8486C17.7484 72.2168 17.4653 72.5297 17.118 72.7572C16.396 73.2541 15.5401 73.5202 14.6636 73.5202C13.7871 73.5202 12.9313 73.2541 12.2093 72.7572C11.8641 72.5294 11.5829 72.217 11.3925 71.8499C11.2022 71.4827 11.1089 71.0729 11.1217 70.6595V70.6595ZM20.6987 73.2756V60.4492H22.1497V64.9411C22.9492 64.6528 23.7904 64.4967 24.6401 64.4788C25.2149 64.4665 25.7839 64.5959 26.2969 64.8556C26.7514 65.0836 27.1369 65.4285 27.4138 65.855C27.6807 66.2725 27.8816 66.7285 28.0097 67.2071C28.1405 67.6933 28.2061 68.1947 28.2048 68.6982C28.2048 70.1999 27.8147 71.3391 27.0344 72.1159C26.2541 72.8926 25.0231 73.2791 23.3415 73.2756H20.6987ZM22.1497 71.9742H23.3655C24.5715 71.9742 25.4373 71.7115 25.9629 71.1859C26.4884 70.6604 26.7556 69.8133 26.7645 68.6447C26.7768 67.9382 26.5917 67.2423 26.2301 66.6353C26.0674 66.3586 25.8318 66.1321 25.549 65.9803C25.2663 65.8286 24.9472 65.7575 24.6268 65.7748C23.7842 65.7531 22.9452 65.8928 22.155 66.1863L22.1497 71.9742ZM30.0245 68.9841C30.0245 67.6106 30.3888 66.515 31.1174 65.6973C31.4782 65.2926 31.924 64.9728 32.423 64.7607C32.9219 64.5487 33.4616 64.4497 34.0034 64.4708C36.3816 64.4708 37.5716 66.1507 37.5734 69.5105H31.4755C31.5267 70.2065 31.7981 70.8682 32.2504 71.3997C32.7118 71.9537 33.4155 72.2299 34.3614 72.2281C35.3288 72.2569 36.2908 72.0745 37.1806 71.6936V73.0297C36.34 73.3551 35.4471 73.5244 34.5458 73.5294C33.8425 73.5452 33.143 73.4207 32.4883 73.1633C31.9423 72.9498 31.4577 72.6047 31.0774 72.1586C30.7207 71.735 30.4486 71.247 30.2757 70.721C30.1007 70.1589 30.0159 69.5727 30.0245 68.9841V68.9841ZM31.5263 68.4176H36.1384C36.093 67.7398 35.875 67.0848 35.5051 66.515C35.3388 66.2735 35.1136 66.0785 34.8507 65.9485C34.5879 65.8185 34.2962 65.7578 34.0034 65.7722C33.6909 65.768 33.3812 65.8307 33.095 65.956C32.8088 66.0814 32.5527 66.2665 32.344 66.499C31.8684 67.031 31.5827 67.7058 31.5316 68.4176H31.5263Z" fill="#4279F4" stroke="#4279F4" stroke-width="0.85509" stroke-miterlimit="10"/>
<path d="M39.3662 66.0314V64.7247H40.7023V62.6965C40.6891 62.3991 40.7371 62.1022 40.8432 61.8241C40.9494 61.5461 41.1115 61.2927 41.3196 61.0798C41.5186 60.8808 41.756 60.7241 42.0173 60.6194C42.2787 60.5147 42.5585 60.464 42.84 60.4706H44.9403V61.7853H43.6042C43.0137 61.7853 42.6236 61.9055 42.4365 62.1434C42.2495 62.3812 42.1533 62.8248 42.1533 63.4794V64.7247H44.4139V66.026H42.1533V73.2756H40.6996V66.034L39.3662 66.0314ZM46.8322 73.2756V60.4492H48.2832V73.2756H46.8322ZM51.9494 72.2201C51.1446 71.4569 50.6307 70.4373 50.496 69.3364C50.3614 68.2355 50.6144 67.122 51.2115 66.1874C51.8087 65.2528 52.7127 64.5553 53.7683 64.2149C54.8238 63.8744 55.965 63.9123 56.9957 64.3219C58.0264 64.7315 58.8823 65.4873 59.4162 66.4594C59.9502 67.4315 60.1289 68.5593 59.9216 69.6488C59.7143 70.7384 59.134 71.7218 58.2804 72.4299C57.4269 73.1381 56.3533 73.5269 55.2442 73.5294C54.6344 73.5499 54.027 73.4442 53.46 73.2189C52.893 72.9936 52.3787 72.6535 51.9494 72.2201ZM52.9755 66.7021C52.4241 67.3407 52.1207 68.1564 52.1207 69.0001C52.1207 69.8439 52.4241 70.6595 52.9755 71.2982C53.5796 71.8974 54.396 72.2336 55.2468 72.2336C56.0977 72.2336 56.9141 71.8974 57.5182 71.2982C58.0732 70.6612 58.379 69.845 58.379 69.0001C58.379 68.1553 58.0732 67.339 57.5182 66.7021C56.9141 66.1029 56.0977 65.7667 55.2468 65.7667C54.396 65.7667 53.5796 66.1029 52.9755 66.7021V66.7021ZM61.0454 64.7247H62.5819L64.5326 71.4906L66.518 64.7247H67.9503L69.9116 71.4959L71.881 64.7247H73.4148L70.732 73.2756H69.0966L67.2715 66.7074L65.4678 73.2756H63.7389L61.0454 64.7247Z" fill="#0028AA" stroke="#0028AA" stroke-width="0.85509" stroke-miterlimit="10"/>
</g>
<defs>
<clipPath id="clip0">
<rect width="74" height="73.364" fill="white" transform="translate(0 0.592957)"/>
</clipPath>
</defs>
</svg>
