<svg width="150" height="35" viewBox="0 0 150 35" fill="none" xmlns="http://www.w3.org/2000/svg">
<path d="M46.8622 9.3548H44.8218V25.3973H54.9964V23.4018H46.8622V9.3548Z" fill="black"/>
<path d="M132.821 15.1108L131.46 13.9284L127.557 18.4188L123.688 13.9667L123.653 13.9284L122.294 15.1108L126.363 19.7925L122.327 24.434L122.294 24.4732L123.653 25.6556L127.557 21.1652L131.427 25.6164L131.46 25.6556L132.821 24.4732L128.751 19.7925L132.787 15.15L132.821 15.1108Z" fill="black"/>
<path d="M106.154 20.8868L95.2123 9.3548H94.8086V25.3973H96.8491V13.8652L107.791 25.3973H108.194V9.3548H106.154V20.8868Z" fill="black"/>
<path d="M136.791 14.1867H134.862V25.3973H136.791V14.1867Z" fill="black"/>
<path d="M136.881 9.3548H134.772V11.1599H136.881V9.3548Z" fill="black"/>
<path d="M116.218 14.0068C113.079 14.0068 110.59 16.5409 110.59 19.7915C110.59 23.0201 113.034 25.5762 116.353 25.5762C118.304 25.5762 119.895 24.7688 120.86 23.7595L120.85 23.749L119.477 22.5561C118.755 23.2124 117.671 23.7595 116.353 23.7595C114.313 23.7595 112.766 22.2577 112.586 20.2622H121.689C121.644 16.2721 119.357 14.0068 116.218 14.0068ZM112.676 18.5814C113.079 16.8776 114.469 15.7785 116.106 15.7785C117.81 15.7565 119.245 16.7428 119.515 18.5814H112.676Z" fill="black"/>
<path d="M143.887 19.0071L142.932 18.6703C141.58 18.1997 141.23 17.6611 141.23 16.9666C141.23 16.1812 141.999 15.7335 142.885 15.7335C143.703 15.7335 144.281 16.0674 144.775 16.6079L146.082 15.4724C145.265 14.4918 144.174 14.0068 142.886 14.0068C140.765 14.0068 139.25 15.3069 139.25 16.9886C139.25 18.3336 139.972 19.5667 142.023 20.3071L142.932 20.6438C144.307 21.1145 144.913 21.5852 144.913 22.4375C144.913 23.2898 143.98 23.8504 142.839 23.8504C141.608 23.8504 140.819 23.2812 140.088 22.4375L138.711 23.6352C139.718 24.8577 141.15 25.5771 142.792 25.5771C145.333 25.5771 146.917 24.1642 146.917 22.3705C146.917 20.7118 145.867 19.7025 143.887 19.0071Z" fill="black"/>
<path d="M78.0168 15.1108L76.6575 13.9284L72.7535 18.4188L68.884 13.9667L68.8496 13.9284L67.4893 15.1108L71.5597 19.7925L67.5237 24.434L67.4893 24.4732L68.8496 25.6556L72.7535 21.1652L76.623 25.6164L76.6575 25.6556L78.0168 24.4732L73.9474 19.7925L77.9833 15.15L78.0168 15.1108Z" fill="black"/>
<path d="M81.9871 14.1867H80.0586V25.3973H81.9871V14.1867Z" fill="black"/>
<path d="M82.0776 9.3548H79.9683V11.1599H82.0776V9.3548Z" fill="black"/>
<path d="M61.4134 14.0068C58.2748 14.0068 55.7856 16.5409 55.7856 19.7915C55.7856 23.0201 58.2298 25.5762 61.5483 25.5762C63.4988 25.5762 65.0907 24.7688 66.0549 23.7595L66.0454 23.749L64.6726 22.5561C63.9504 23.2124 62.8665 23.7595 61.5483 23.7595C59.5078 23.7595 57.961 22.2577 57.7812 20.2622H66.8843C66.8403 16.2721 64.553 14.0068 61.4134 14.0068ZM57.8711 18.5814C58.2748 16.8776 59.6647 15.7785 61.3015 15.7785C63.0062 15.7565 64.4411 16.7428 64.7099 18.5814H57.8711Z" fill="black"/>
<path d="M89.0825 19.0071L88.1268 18.6703C86.7751 18.1997 86.426 17.6611 86.426 16.9666C86.426 16.1812 87.1951 15.7335 88.0809 15.7335C88.8988 15.7335 89.4776 16.0674 89.9712 16.6079L91.277 15.4724C90.461 14.4918 89.3695 14.0068 88.0809 14.0068C85.9601 14.0068 84.4448 15.3069 84.4448 16.9886C84.4448 18.3336 85.1671 19.5667 87.2181 20.3071L88.1268 20.6438C89.5015 21.1145 90.108 21.5852 90.108 22.4375C90.108 23.2898 89.1753 23.8504 88.0341 23.8504C86.8029 23.8504 86.0137 23.2812 85.2838 22.4375L83.9062 23.6352C84.9136 24.8577 86.3456 25.5771 87.9872 25.5771C90.528 25.5771 92.1121 24.1642 92.1121 22.3705C92.1131 20.7118 91.0637 19.7025 89.0825 19.0071Z" fill="black"/>
<path d="M148.514 11.1571C147.692 11.1571 147.022 11.8286 147.022 12.6551C147.022 13.495 147.678 14.1542 148.514 14.1542C149.348 14.1542 150 13.495 150 12.6551C150 11.8152 149.348 11.1571 148.514 11.1571ZM148.514 13.9131C147.82 13.9131 147.275 13.3602 147.275 12.6551C147.275 11.9616 147.83 11.3972 148.514 11.3972C149.197 11.3972 149.752 11.9616 149.752 12.6551C149.752 13.3592 149.209 13.9131 148.514 13.9131Z" fill="black"/>
<path d="M149.14 12.2696C149.14 11.9635 148.921 11.7885 148.539 11.7885H147.945V13.4711H148.223V12.7699H148.516L148.902 13.4711H149.2L148.798 12.7298C149.026 12.6714 149.14 12.5164 149.14 12.2696ZM148.527 12.5289H148.224V12.042H148.52C148.76 12.042 148.867 12.1147 148.867 12.2754C148.867 12.4523 148.766 12.5289 148.527 12.5289Z" fill="black"/>
<path d="M35.1286 6.35773C34.3059 6.35773 33.6362 7.02927 33.6362 7.85579C33.6362 8.6957 34.2925 9.35481 35.1286 9.35481C35.9618 9.35481 36.6142 8.6957 36.6142 7.85579C36.6142 7.01588 35.9618 6.35773 35.1286 6.35773ZM35.1286 9.11374C34.4341 9.11374 33.8897 8.56082 33.8897 7.85579C33.8897 7.16224 34.4446 6.59784 35.1286 6.59784C35.8116 6.59784 36.3664 7.16224 36.3664 7.85579C36.3664 8.56082 35.8231 9.11374 35.1286 9.11374Z" fill="black"/>
<path d="M35.7539 7.47028C35.7539 7.16417 35.5348 6.98911 35.1531 6.98911H34.5591V8.67179H34.8365V7.97059H35.1302L35.5157 8.67179H35.8142L35.4114 7.93042C35.6401 7.87206 35.7539 7.71709 35.7539 7.47028ZM35.1407 7.72953H34.8375V7.24261H35.134C35.3741 7.24261 35.4813 7.31531 35.4813 7.47602C35.4813 7.653 35.3799 7.72953 35.1407 7.72953Z" fill="black"/>
<path d="M6.29332 15.7517C8.07167 12.2065 10.9961 9.35863 14.4437 7.70176C14.8464 7.50853 15.2559 7.33155 15.671 7.17084C15.7083 7.15649 15.6921 7.10101 15.6529 7.10771C3.38042 9.17304 -1.8848 24.4263 6.31054 30.9552C6.34115 30.9801 6.38229 30.9418 6.35933 30.9093C5.16834 29.2773 2.36067 23.6505 6.29332 15.7517Z" fill="#E8171F"/>
<path d="M9.11234 25.9215C8.79092 23.9088 8.7957 21.8626 9.11521 19.8881C9.7571 15.9315 11.6684 12.305 14.4177 9.6169C14.9276 9.11372 15.471 8.64785 16.0344 8.21545C16.065 8.19154 16.0373 8.14275 16.0009 8.15901C9.58491 11.026 5.8828 18.1824 6.35824 24.7008C6.61939 27.6807 7.78934 33.1679 13.5032 34.2507C13.5396 34.2574 13.5587 34.2106 13.5281 34.1895C11.1777 32.5738 9.52464 28.7942 9.11234 25.9215Z" fill="#E8171F"/>
<path d="M1.18311 11.225C4.05105 7.17369 9.93999 4.43967 15.6912 5.15044C15.7313 5.15522 15.7428 5.09783 15.7046 5.08635C11.3146 3.80352 6.74871 4.66448 3.95826 6.91827C2.76153 7.88445 1.8317 9.55279 1.12572 11.1934C1.10945 11.2297 1.16015 11.2584 1.18311 11.225Z" fill="#E8171F"/>
<path d="M33.5788 16.2817C32.8202 7.00916 24.4651 -0.0171887 15.2003 0.828461C11.9803 1.12214 8.53651 2.45375 5.96799 4.62527C5.93642 4.65206 5.97086 4.70085 6.00625 4.68076C8.20169 3.42281 11.2294 3.45437 13.0144 3.66196C13.9548 3.77197 14.8837 3.96903 15.7848 4.24741C16.685 4.5277 17.5574 4.8893 18.3877 5.32552C18.8182 5.55319 19.2382 5.80096 19.6447 6.0669C21.16 5.39344 22.7576 4.94574 24.3685 4.71902L24.3723 4.71807C24.4871 4.7018 24.6038 4.76303 24.6421 4.87208C24.6928 5.01462 24.6038 5.16002 24.4661 5.18872C23.6004 5.37144 22.748 5.62016 21.9196 5.93297C21.8832 5.94636 21.8928 6.00089 21.932 6.00089C23.1067 6.00472 24.2738 6.13003 25.4093 6.36823L25.4151 6.36919C25.5155 6.39023 25.5978 6.46963 25.6102 6.57199C25.6293 6.74035 25.4868 6.8628 25.3376 6.8408C24.3398 6.69061 23.3277 6.63034 22.3194 6.66287C22.2793 6.66382 22.2726 6.72027 22.3108 6.73174C22.7824 6.87619 23.2474 7.04169 23.7027 7.2244C24.5608 7.57452 25.3854 7.99735 26.1689 8.47948L26.1784 8.48522C26.2531 8.53114 26.3018 8.61532 26.2913 8.70333C26.2693 8.89274 26.078 8.97406 25.9364 8.89561C25.1558 8.46418 24.3408 8.09397 23.5009 7.7955C23.1469 7.6721 22.7891 7.56018 22.4285 7.46069C22.3893 7.45016 22.3663 7.50278 22.4008 7.52478C22.99 7.8969 23.5544 8.30538 24.0863 8.75116C24.7961 9.34618 25.4524 9.99955 26.0464 10.7027L26.0522 10.7094C26.1096 10.7773 26.1287 10.872 26.0914 10.9523C26.011 11.1264 25.8025 11.1427 25.6925 11.0222C25.0927 10.3621 24.4355 9.75466 23.7324 9.20651C23.3162 8.88222 22.8819 8.58184 22.4333 8.30442C22.3979 8.28242 22.3606 8.32834 22.3893 8.35895C22.5175 8.49383 22.6428 8.63063 22.7652 8.7703C23.3784 9.46863 23.9285 10.2205 24.4039 11.0145C24.8784 11.8095 25.2802 12.6446 25.6016 13.5084L25.6045 13.5151C25.6351 13.5983 25.6217 13.6959 25.5585 13.7591C25.4227 13.8959 25.2199 13.8394 25.1577 13.6864C24.8258 12.8589 24.4173 12.062 23.9409 11.3072C23.4645 10.5534 22.9173 9.84458 22.3118 9.18929C21.7063 8.53497 21.0395 7.93613 20.3268 7.40138C20.125 7.25119 19.8198 7.03977 19.6993 6.96229C5.75371 14.7377 10.5932 35.1567 20.6568 34.0958C28.6522 32.2007 34.2676 24.7028 33.5788 16.2817Z" fill="#E8171F"/>
<path d="M3.29797 13.7342C6.51412 8.63639 12.1189 6.44191 15.5522 6.11284C15.5924 6.10901 15.5915 6.0497 15.5513 6.04683C14.1326 5.92438 12.8201 6.01717 11.1001 6.37591C9.36197 6.77386 7.68693 7.45975 6.18887 8.42976C4.68698 9.39212 3.36302 10.6281 2.28874 12.0515C2.27822 12.0659 2.2677 12.0802 2.25622 12.0946C0.185142 14.8697 -0.479707 18.435 0.342984 21.7985C0.436732 22.184 0.698846 22.9809 0.87582 23.4869C0.889212 23.5242 0.944696 23.5118 0.94087 23.4726C0.513262 19.4892 1.67173 16.3132 3.29797 13.7342Z" fill="#E8171F"/>
</svg>
