<svg width="144" height="33" viewBox="0 0 144 33" fill="none" xmlns="http://www.w3.org/2000/svg">
<g clip-path="url(#clip0)">
<path fill-rule="evenodd" clip-rule="evenodd" d="M43.8164 23.0035V9.06659H47.5532L52.2881 19.4815L56.9527 9.06659H60.5326V23.0035H57.4511V14.8957L53.8959 23.0035H50.6112L47.0103 14.9399V23.0035H43.8164Z" fill="#141414"/>
<path fill-rule="evenodd" clip-rule="evenodd" d="M72.9337 17.6073L70.3554 11.6997L67.8363 17.6073H72.9337ZM65.5315 23.0034H61.9077L68.1367 9.06653H72.5981L78.8716 23.0034H75.2947L74.06 20.2272H66.7281L65.5315 23.0034Z" fill="#141414"/>
<path fill-rule="evenodd" clip-rule="evenodd" d="M80.3164 23.0034V9.06653H93.7245V11.8532H83.5548V14.6213H92.2743V17.3411H83.5548V20.2156H93.7491V23.0034H80.3164Z" fill="#141414"/>
<path fill-rule="evenodd" clip-rule="evenodd" d="M99.641 15.4659H106.686V11.8532H99.641V15.4659ZM96.3569 23.0034V9.06653H107.577C109.076 9.06653 109.946 9.92741 109.946 11.4039V16.0861C109.946 17.1632 108.985 18.1369 107.122 18.1369C107.016 18.1421 106.908 18.1369 106.798 18.1369L110.064 23.0034H106.459L103.363 18.238H99.641V23.0034H96.3569Z" fill="#141414"/>
<path fill-rule="evenodd" clip-rule="evenodd" d="M115.855 23.0115H114.743C113.292 23.0115 112.593 22.1792 112.593 20.9672V19.1466H115.855V20.2249H122.785V17.3719C122.785 17.3719 116.104 17.3719 114.835 17.3719C113.566 17.3719 112.652 16.525 112.652 15.3496V11.2121C112.652 9.95997 113.647 9.07526 114.858 9.07526C116.068 9.07526 123.946 9.07526 123.946 9.07526C125.174 9.07526 126.024 9.98497 126.024 11.3004C126.024 12.6141 126.024 12.9635 126.024 12.9635H122.785V11.8619H115.855V14.6068H123.782C124.952 14.6068 126.024 15.3752 126.024 16.8546V20.8323C126.024 22.1873 125.266 23.0115 123.85 23.0115C122.434 23.0115 115.855 23.0115 115.855 23.0115Z" fill="#141414"/>
<path fill-rule="evenodd" clip-rule="evenodd" d="M129.153 23.0115V9.07343H132.482V14.6479L138.824 9.07343H143.332L135.767 15.5478L143.604 23.0115H138.937L132.482 16.672V23.0115H129.153Z" fill="#141414"/>
<path d="M3.62936 0.123535H26.5526C28.5603 0.123535 30.1878 1.74206 30.1878 3.73862V28.1885C30.1878 30.185 28.5603 31.8035 26.5526 31.8035H3.62936C1.62494 31.8035 1.86818e-05 30.1876 1.86818e-05 28.1943V3.74444C-0.00307398 2.78519 0.377926 1.86416 1.05889 1.18478C1.73986 0.505388 2.66477 0.123535 3.62936 0.123535Z" fill="#42B0D5"/>
<path d="M19.9029 15.0749L25.862 7.67457L25.8444 7.65139L17.2336 11.7543L15.1086 2.5343H15.0735L12.9486 11.7543L4.33776 7.65139L4.3202 7.67457L10.2793 15.0749L1.66846 19.1779L1.68016 19.2069H11.2335L9.10856 28.4327L9.13198 28.4443L15.0911 21.0439L21.0502 28.4443L21.0795 28.4269L18.9487 19.2069H28.5079L28.5137 19.1779L19.9029 15.0749Z" fill="white"/>
</g>
<defs>
<clipPath id="clip0">
<rect width="144" height="32.1882" fill="white" transform="translate(0 0.123535)"/>
</clipPath>
</defs>
</svg>
