<svg width="126" height="33" viewBox="0 0 126 33" fill="none" xmlns="http://www.w3.org/2000/svg">
<g clip-path="url(#clip0)">
<path d="M2.28529 8.25193C4.42372 4.72981 7.96682 2.08821 12.3275 1.14478C16.6044 0.243283 21.0909 1.29154 24.4663 3.55576C23.7116 3.8912 21.028 2.40268 19.1831 7.8536C18.072 11.1661 15.2417 11.837 11.2583 8.94378C5.66066 4.89753 3.58512 8.88089 2.28529 8.25193V8.25193ZM8.32322 16.0929C7.35883 14.4366 6.91857 13.1578 5.70259 12.0047C4.52855 10.9145 2.74652 10.9564 1.71923 11.837C-0.230519 13.4932 -0.293414 17.204 0.419398 20.0972C2.49494 28.4203 10.9648 33.5568 19.3089 31.4812C27.653 29.4057 32.7056 20.9777 30.651 12.6336C30.064 10.2855 29.0367 8.12614 27.7788 7.015C25.7661 5.25393 24.2147 6.40701 23.6906 7.93746C22.7472 10.6629 23.1246 15.4849 21.3006 18.4619C18.1349 23.6193 11.3422 21.2922 8.32322 16.0929" fill="url(#paint0_linear)"/>
<path d="M100.464 22.9066H104.469C106.398 22.9066 107.697 21.9002 107.697 19.7618C107.697 18.0217 106.125 16.638 104.07 16.638H100.464V22.9066V22.9066ZM100.485 15.1914H103.924C105.811 15.1914 107.236 13.9126 107.236 12.2773C107.236 10.4324 106.23 9.34218 104.343 9.34218H100.485V15.1914ZM104.427 24.3951H99.2485C99.1017 24.3951 98.9759 24.2693 98.9759 24.1225V9.11156C98.9759 8.50358 99.4581 8.02138 100.066 8.02138H104.28C106.838 8.02138 108.641 9.67762 108.641 12.3611C108.641 13.7658 107.949 15.0027 106.754 15.8204C108.159 16.638 109.102 18.0427 109.102 19.7408C109.123 22.6131 107.236 24.3951 104.427 24.3951V24.3951ZM48.0937 21.1245C48.0937 21.1245 48.2614 20.5375 48.3872 20.265L53.1882 9.0277C53.5446 8.23103 53.8801 8.00041 54.3413 8.00041H54.8864C54.9074 8.00041 54.9283 8.02138 54.9283 8.04234L55.6831 24.3112C55.6831 24.3532 55.6621 24.3741 55.6202 24.3741H54.1736C54.1316 24.3741 54.1107 24.3532 54.0897 24.3112L53.5866 13.074C53.5656 12.6756 53.5656 11.858 53.5656 11.858C53.5656 11.858 53.293 12.6966 53.1253 13.074L48.2824 24.2274C48.1985 24.4161 47.947 24.4161 47.8631 24.2274L43.0202 13.074C42.8734 12.6966 42.5799 11.858 42.5799 11.858C42.5799 11.858 42.5799 12.6756 42.5589 13.074L42.0558 24.3112C42.0558 24.3532 42.0138 24.3741 41.9929 24.3741H40.5463C40.5044 24.3741 40.4834 24.3532 40.4834 24.3112L41.2381 8.04234C41.2381 8.02138 41.2591 8.00041 41.2801 8.00041H41.8252C42.2654 8.00041 42.6218 8.23103 42.9782 9.0277L47.8002 20.265C47.926 20.5375 48.0937 21.1245 48.0937 21.1245V21.1245ZM85.4115 21.1245C85.4115 21.1245 85.5792 20.5375 85.705 20.265L90.506 9.0277C90.8624 8.23103 91.1979 8.00041 91.6591 8.00041H92.2042C92.2252 8.00041 92.2461 8.02138 92.2461 8.04234L93.0009 24.3112C93.0009 24.3532 92.9589 24.3951 92.917 24.3951H91.4914C91.4495 24.3951 91.4285 24.3741 91.4285 24.3322L90.9253 13.0949C90.9044 12.6966 90.9044 11.8789 90.9044 11.8789C90.9044 11.8789 90.6318 12.7176 90.4641 13.0949L85.6212 24.2483C85.5373 24.437 85.2857 24.437 85.2019 24.2483L80.3589 13.0949C80.2122 12.7176 79.9187 11.8789 79.9187 11.8789C79.9187 11.8789 79.9187 12.6966 79.8977 13.0949L79.3945 24.3322C79.3945 24.3741 79.3736 24.3951 79.3317 24.3951H77.8851C77.8431 24.3951 77.8222 24.3741 77.8222 24.3322L78.5769 8.06331C78.5769 8.04234 78.5979 8.02138 78.6188 8.02138H79.1639C79.6042 8.02138 79.9606 8.25199 80.317 9.04867L85.118 20.265C85.2228 20.5375 85.4115 21.1245 85.4115 21.1245V21.1245ZM63.5659 18.4829L62.1822 24.3322C62.1822 24.3741 62.1403 24.3951 62.1193 24.3951H60.6727C60.6308 24.3951 60.5889 24.3532 60.6099 24.3112L63.8175 10.663C64.2158 8.92288 65.3689 8.02138 66.7736 8.02138H66.8574C68.2411 8.06331 69.3523 8.94384 69.7297 10.663L72.9373 24.3112C72.9583 24.3532 72.9163 24.3951 72.8744 24.3951H71.4488C71.4069 24.3951 71.3859 24.3741 71.3859 24.3322L69.9812 18.462H63.5659V18.4829V18.4829ZM63.9433 16.8686H69.6248L68.2202 10.8097C68.0105 9.97113 67.5074 9.57279 66.8574 9.55183H66.7945C66.1237 9.55183 65.5786 9.95016 65.3689 10.8097L63.9433 16.8686ZM114.637 18.8603L114.658 8.04234C114.658 8.02138 114.679 8.00041 114.7 8.00041C114.951 7.97945 116.23 7.93752 116.23 9.447V18.8813C116.23 20.9987 117.509 22.9275 120.234 22.9275C122.939 22.9275 124.239 20.9987 124.239 18.8813V9.447C124.239 7.93752 125.518 7.97945 125.769 8.00041C125.79 8.00041 125.811 8.02138 125.811 8.04234L125.79 18.8603C125.79 22.1309 123.778 24.437 120.214 24.437C116.649 24.437 114.637 22.1309 114.637 18.8603Z" fill="black"/>
</g>
<defs>
<linearGradient id="paint0_linear" x1="2.08173" y1="24.1668" x2="29.0399" y2="8.60239" gradientUnits="userSpaceOnUse">
<stop stop-color="#057472"/>
<stop offset="0.4" stop-color="#4FB645"/>
</linearGradient>
<clipPath id="clip0">
<rect width="126" height="31.4476" fill="white" transform="translate(0 0.620605)"/>
</clipPath>
</defs>
</svg>
