<svg width="112" height="18" viewBox="0 0 112 18" fill="none" xmlns="http://www.w3.org/2000/svg">
<g clip-path="url(#clip0)">
<path d="M22.9468 6.41839C22.2077 7.58602 21.071 9.29335 21.071 10.2132V17.3432H24.8225V10.2123C24.8225 9.30394 23.6549 7.52252 22.9468 6.41751V6.41839ZM24.8225 2.62627V0.291024H21.071V2.62715C21.071 3.54343 22.2077 5.24989 22.9468 6.42192C23.6549 5.31339 24.8225 3.53109 24.8225 2.62715V2.62627ZM35.123 17.6378C38.4098 17.6378 40.3606 16.4702 42.1146 14.5944L39.7274 12.1833C38.3869 13.4021 37.1946 14.1808 35.2438 14.1808C32.3221 14.1808 30.2964 11.7432 30.2964 8.82066V8.76951C30.2964 5.84781 32.3689 3.45701 35.2438 3.45701C36.9512 3.45701 38.2881 4.18898 39.6057 5.37953L41.9929 2.62715C40.4073 1.07326 38.4848 0 35.2668 0C30.0292 0 26.3773 3.97203 26.3773 8.81713V8.86387C26.3773 13.7645 30.1051 17.6378 35.123 17.6378ZM68.0184 17.6378C73.2806 17.6378 77.1071 13.6658 77.1071 8.82066V8.76951C77.1071 3.92088 73.3318 0 68.0695 0C62.8082 0 58.9817 3.97203 58.9817 8.81713V8.86387C58.9817 13.7169 62.7562 17.6378 68.0184 17.6378ZM68.0695 14.1773C65.0491 14.1773 62.9061 11.7388 62.9061 8.81713V8.76951C62.9061 5.84781 65.0023 3.45701 68.0228 3.45701C71.0424 3.45701 73.1863 5.89455 73.1863 8.81713V8.86387C73.1863 11.79 71.09 14.1773 68.0695 14.1773ZM78.818 17.3468H86.9305C90.7808 17.3468 93.3128 15.7894 93.3128 12.671V12.6234C93.3128 10.3349 92.094 9.19017 90.1238 8.43175C91.3426 7.75093 92.3656 6.67679 92.3656 4.75427V4.70753C92.3656 3.53902 91.9758 2.58746 91.1971 1.80876C90.2217 0.833386 88.6881 0.299843 86.7383 0.299843H78.8215V17.3468H78.818ZM58.3008 17.3468H53.9161L50.2624 11.8879H50.042C49.6029 11.8879 49.1819 11.7135 48.8715 11.403C48.561 11.0926 48.3866 10.6716 48.3866 10.2326C48.3866 9.79355 48.561 9.37252 48.8715 9.06209C49.1819 8.75166 49.6029 8.57726 50.042 8.57726H51.1161C52.9451 8.57726 53.9911 7.60189 53.9911 6.16617V6.12031C53.9911 4.51175 52.8702 3.6863 51.0411 3.6863H47.3134V17.3512H43.5618V0.291024H51.356C53.5228 0.291024 55.2063 0.900409 56.3272 2.02129C57.2787 2.97373 57.7894 4.30979 57.7894 5.91924V5.96598C57.7894 8.71836 56.3034 10.4486 54.1366 11.2511L58.3008 17.3468ZM89.585 12.156V12.2027C89.585 13.4691 88.5858 14.0547 86.9305 14.0547H82.4708V3.58312H86.1756C87.7604 3.58312 88.637 4.21631 88.637 5.33808V5.38482C88.637 6.65121 87.5911 7.18564 85.9313 7.18564H85.1024C84.2408 7.18564 83.5449 7.88233 83.5449 8.74305C83.5449 9.60466 84.2408 10.3005 85.1015 10.3005H86.8088C88.7313 10.304 89.585 11.0122 89.585 12.1568V12.156ZM111.474 17.3468H107.554L105.996 13.5203H102.319C101.879 13.5203 101.458 13.3458 101.148 13.0353C100.837 12.7248 100.663 12.3036 100.663 11.8645C100.663 11.4254 100.837 11.0042 101.148 10.6937C101.458 10.3832 101.879 10.2088 102.319 10.2088H104.659L102.394 4.67931L97.2301 17.3468H93.4036L100.71 0.17285H104.171L111.474 17.3468ZM7.68479 12.0184C7.8806 12.3013 8.14207 12.5324 8.4468 12.6921C8.75153 12.8518 9.09043 12.9352 9.43446 12.9352C9.77848 12.9352 10.1174 12.8518 10.4221 12.6921C10.7268 12.5324 10.9883 12.3013 11.1841 12.0184L15.2426 6.20939V17.3432H18.9712V0.291024H14.9277L9.48561 8.45909L4.04258 0.291024H0V17.3432H3.67748V6.28082L7.68391 12.0184H7.68479Z" fill="url(#paint0_radial)"/>
</g>
<defs>
<radialGradient id="paint0_radial" cx="0" cy="0" r="1" gradientUnits="userSpaceOnUse" gradientTransform="translate(22.9829 6.54891) scale(63.7605 10.1912)">
<stop stop-color="#00DCF0"/>
<stop offset="0.073" stop-color="#07C8E2"/>
<stop offset="0.315" stop-color="#1B8DB9"/>
<stop offset="0.537" stop-color="#2B5E99"/>
<stop offset="0.732" stop-color="#363C81"/>
<stop offset="0.893" stop-color="#3D2773"/>
<stop offset="1" stop-color="#40206E"/>
</radialGradient>
<clipPath id="clip0">
<rect width="112" height="17.6378" fill="white"/>
</clipPath>
</defs>
</svg>
