<svg width="134" height="27" viewBox="0 0 134 27" fill="none" xmlns="http://www.w3.org/2000/svg">
<g clip-path="url(#clip0)">
<path d="M62.6614 17.5854C62.3931 17.2258 62.0348 16.9587 61.6323 16.7789C61.2297 16.5991 60.7829 16.5106 60.3361 16.5106C59.7994 16.5106 59.307 16.5991 58.8602 16.8246C58.4133 17.003 58.0551 17.3157 57.7424 17.6739C57.4298 18.0322 57.1601 18.479 57.0259 18.9271C56.8475 19.4182 56.7576 19.9549 56.7576 20.4474C56.7576 20.9398 56.8475 21.4309 56.9817 21.8777C57.1158 22.3259 57.3842 22.7284 57.6968 23.0853C58.0095 23.4422 58.412 23.7119 58.8145 23.8904C59.2613 24.0702 59.7538 24.2044 60.3348 24.2044C60.8715 24.2044 61.3639 24.0689 61.8107 23.8448C62.2133 23.622 62.5702 23.3081 62.8842 22.9069L64.0032 23.7576C63.9133 23.8461 63.8248 23.9803 63.6007 24.2057C63.4222 24.3842 63.1981 24.5626 62.8855 24.7867C62.5729 24.9665 62.2146 25.145 61.8121 25.2778C61.4095 25.4133 60.9171 25.5019 60.3361 25.5019C59.5753 25.5019 58.9044 25.3677 58.2778 25.0551C57.6525 24.7867 57.1601 24.3842 56.712 23.8917C56.2651 23.4449 55.9525 22.8639 55.7284 22.2829C55.5043 21.7006 55.3702 21.0753 55.3702 20.493C55.3702 19.7335 55.5043 19.0627 55.7284 18.436C55.9968 17.8094 56.3108 17.2727 56.7576 16.7816C57.2044 16.3348 57.7411 15.9765 58.3677 15.7082C58.9943 15.4398 59.6652 15.3057 60.4247 15.3057C61.0513 15.3057 61.6779 15.4398 62.3032 15.6639C62.9298 15.8866 63.4209 16.2905 63.8248 16.7816L62.7513 17.6323L62.6614 17.5854ZM68.3425 19.7322H70.0412C70.3096 19.7322 70.5323 19.7322 70.8007 19.6879C71.0248 19.6436 71.2475 19.5994 71.4716 19.4638C71.6514 19.3753 71.8298 19.1955 71.9627 18.9728C72.0982 18.7487 72.1425 18.4803 72.1425 18.1677C72.1425 17.8537 72.0982 17.5854 71.9627 17.3613C71.8741 17.1815 71.6957 17.003 71.5159 16.8702C71.2918 16.7347 71.069 16.6904 70.845 16.6461C70.5766 16.6005 70.3539 16.6005 70.0855 16.6005H68.3855V19.6879L68.3425 19.7322ZM67.045 15.4841H70.4438C71.0704 15.4841 71.5628 15.5727 71.964 15.7511C72.3679 15.9296 72.6792 16.155 72.9046 16.3777C73.1273 16.6461 73.3058 16.9145 73.3957 17.2714C73.4843 17.5854 73.5299 17.898 73.5299 18.212C73.5299 18.5233 73.4856 18.8386 73.3501 19.1056C73.2615 19.3739 73.0831 19.6423 72.859 19.865C72.6349 20.0891 72.4122 20.3132 72.0995 20.4474C71.7869 20.6258 71.4729 20.7157 71.116 20.76L73.8439 25.1436H72.1881L69.7286 20.8955H68.2526V25.1436H66.9551V15.4841H67.045V15.4841ZM81.2666 24.1601C81.8033 24.1601 82.3414 24.0715 82.7882 23.8475C83.235 23.669 83.5933 23.3564 83.9502 23.0424C84.2642 22.6841 84.5325 22.2816 84.6667 21.8334C84.8465 21.3423 84.9351 20.8513 84.9351 20.3575C84.9351 19.8208 84.8465 19.3283 84.6667 18.8815C84.4882 18.4334 84.2642 18.0308 83.9515 17.6739C83.6402 17.3157 83.2364 17.0473 82.7895 16.8688C82.3427 16.6448 81.8503 16.5549 81.268 16.5549C80.7312 16.5549 80.1945 16.6448 79.7477 16.8688C79.2996 17.0473 78.9426 17.3599 78.5844 17.6739C78.2731 18.0322 78.0021 18.4334 77.8692 18.8815C77.6908 19.3726 77.6022 19.8637 77.6022 20.3575C77.6022 20.8942 77.6908 21.3866 77.8692 21.8334C78.0477 22.2816 78.2731 22.6841 78.5844 23.041C78.897 23.3993 79.2996 23.6677 79.7477 23.8461C80.1945 24.0702 80.6856 24.1601 81.2666 24.1601ZM81.2666 25.3677C80.5514 25.3677 79.8363 25.2322 79.2539 24.9652C78.6287 24.6968 78.092 24.3399 77.6451 23.8917C77.197 23.4449 76.8387 22.8639 76.6146 22.2829C76.3476 21.6563 76.2577 20.9854 76.2577 20.2703C76.2577 19.5551 76.3919 18.8842 76.6146 18.2576C76.8387 17.6753 77.197 17.0943 77.6451 16.6474C78.092 16.2006 78.6273 15.841 79.2539 15.574C79.8806 15.3057 80.5514 15.1701 81.2666 15.1701C81.9818 15.1701 82.697 15.3057 83.2793 15.574C83.9059 15.841 84.4426 16.2006 84.8894 16.6474C85.3362 17.0943 85.6958 17.6766 85.9186 18.2576C86.1869 18.8842 86.2768 19.5551 86.2768 20.2703C86.2768 20.9854 86.1427 21.6563 85.9186 22.2829C85.6958 22.8653 85.3362 23.4449 84.8894 23.8917C84.4426 24.3399 83.9059 24.6982 83.2793 24.9665C82.654 25.2335 81.9831 25.3677 81.2666 25.3677ZM90.7933 23.9803H92.7174C92.8972 23.9803 93.1213 23.9803 93.3883 23.936C93.6124 23.8917 93.8365 23.8018 94.0592 23.7133C94.2833 23.5791 94.4631 23.4006 94.5959 23.2208C94.7301 22.9981 94.8186 22.7298 94.8186 22.3715C94.8186 21.7892 94.6402 21.388 94.2833 21.074C93.925 20.8056 93.3883 20.6258 92.7617 20.6258H90.8389V23.9803H90.7933ZM90.7933 19.4638H92.5832C92.806 19.4638 93.0757 19.4196 93.2984 19.3753C93.5225 19.331 93.7023 19.2398 93.8807 19.1069C94.0592 18.9741 94.1934 18.8399 94.2833 18.6601C94.3732 18.4803 94.4188 18.2576 94.4188 17.9892C94.4188 17.5867 94.2833 17.2727 94.0592 17.0057C93.8365 16.7373 93.4326 16.6018 92.8972 16.6018H90.8389V19.4638H90.7933ZM89.4971 15.4385H92.8516C93.2541 15.4385 93.6567 15.4841 94.0136 15.574C94.3732 15.6626 94.6845 15.841 94.9528 16.0208C95.2212 16.2006 95.3996 16.4676 95.5794 16.7803C95.715 17.0929 95.8035 17.4512 95.8035 17.8537C95.8035 18.3904 95.668 18.8842 95.3554 19.1955C95.0441 19.5551 94.6402 19.8221 94.1477 19.9549V20.0006C94.4617 20.0006 94.7301 20.0891 94.9542 20.2246C95.2225 20.3588 95.4452 20.5359 95.625 20.76C96.0276 21.2068 96.2517 21.7892 96.2517 22.4144C96.2517 22.8626 96.1618 23.2195 95.9833 23.5778C95.8035 23.8917 95.5352 24.2057 95.2668 24.4285C94.9542 24.6512 94.5959 24.831 94.1934 24.9652C93.7908 25.0993 93.3427 25.1436 92.8516 25.1436H89.5414V15.4841L89.4971 15.4385ZM99.7403 15.4385H101.036V23.8475H105.464V25.0551H99.7403V15.3942V15.4385V15.4385ZM108.462 25.0993H109.758V15.4385H108.462V25.0993ZM113.873 15.4385H115.572L120.895 23.355H120.939V15.4385H122.237V25.0993H120.584L115.216 17.1828H115.172V25.0993H113.875V15.4385H113.873ZM126.216 15.4385H127.514V19.598H127.604L131.853 15.4372H133.686L129.034 19.9093L134 25.098H132.076L127.558 20.2676H127.47V25.098H126.172V15.4372H126.216V15.4385ZM50.8094 25.0993H52.1069V15.4385H50.8094V25.0993ZM36.7207 15.4385H38.6891L41.7752 22.7298H41.8195L44.8613 15.4385H46.8284V25.0993H45.5309V17.1828H45.4866L42.222 25.0993H41.3727L38.1068 17.1828H38.0625V25.0993H36.765V15.4385H36.7207Z" fill="#48B2E8"/>
<path d="M0.536714 2.3776L3.44436 5.28524L4.56207 4.16754L1.65442 1.25989L0.536714 2.3776ZM0 14.4993H4.11525V12.9348H0V14.4993ZM24.3306 1.21561L21.4229 4.12326L22.542 5.24096L25.4496 2.33332L24.3306 1.21561ZM12.2102 4.79415H13.7761V0.678894H12.2102V4.79415ZM21.961 14.4537H26.0749V12.8891H21.961V14.4537ZM25.4939 25.0551L22.5863 22.1474L21.4686 23.2652L24.3762 26.1728L25.4939 25.0551ZM1.70004 26.2184L4.60769 23.3094L3.48864 22.1931L0.580993 25.0994L1.70004 26.2184ZM12.2545 26.7538H13.8204V22.6385H12.2545V26.7538Z" fill="#48B2E8"/>
</g>
<defs>
<clipPath id="clip0">
<rect width="134" height="26.0762" fill="white" transform="translate(0 0.678894)"/>
</clipPath>
</defs>
</svg>
