<svg width="130" height="15" viewBox="0 0 130 15" fill="none" xmlns="http://www.w3.org/2000/svg">
<g clip-path="url(#clip0)">
<path d="M51.9314 0.416L47.2999 6.48267L42.7002 0.416H40.5723V14.456H42.5367V3.38519L47.3005 9.67603L52.096 3.38519V14.456H54.0605V0.416H51.9314Z" fill="#001021"/>
<path d="M58.9648 0.416H57.0015V14.4572H58.9648V0.416Z" fill="#001021"/>
<path d="M63.8712 7.28174H67.0068C68.2259 7.28174 69.0602 7.04447 69.5097 6.56992C69.9694 6.06668 70.2114 5.40202 70.1828 4.72102C70.1828 3.00079 69.0966 2.14088 66.9242 2.14126H63.8706L63.8712 7.28174ZM61.9067 14.4566V0.416571H67.0877C68.4134 0.340676 69.7241 0.730435 70.7929 1.51842C71.2468 1.90143 71.6053 2.38484 71.8399 2.93038C72.0746 3.47593 72.179 4.06863 72.145 4.66153C72.1975 5.65506 71.8766 6.63233 71.2454 7.40136C70.6499 8.07692 69.8689 8.56235 68.9995 8.79724L72.7308 14.4595H70.4197L67.027 9.10983H63.8706V14.4548L61.9067 14.4566Z" fill="#001021"/>
<path d="M80.2675 2.86114L82.4988 8.68977H78.0367L80.2675 2.86114ZM79.3222 0.415421L73.7178 14.4554H75.8249L77.3358 10.5185H83.1956L84.7065 14.4554H86.8137L81.2318 0.415421H79.3222Z" fill="#001021"/>
<path d="M98.3746 0.416V11.5896L90.5214 0.416H88.29V14.456H90.2545V3.21013L98.17 14.456H100.339V0.416H98.3746Z" fill="#001021"/>
<path d="M102.592 0.416V2.24525H107.3V14.4572H109.264V2.24525H114.002V0.416H102.592Z" fill="#001021"/>
<path d="M118.223 0.416H116.259V14.4572H118.223V0.416Z" fill="#001021"/>
<path d="M120.563 4.20856C120.555 3.68346 120.658 3.16259 120.865 2.67976C121.071 2.19692 121.377 1.76289 121.762 1.40575C122.561 0.635378 123.797 0.250192 125.471 0.250192C126.727 0.249368 127.967 0.542182 129.09 1.10529V3.01195C128.071 2.39206 126.899 2.06872 125.707 2.07828C123.588 2.07828 122.529 2.78759 122.529 4.20623C122.535 4.40504 122.589 4.59946 122.687 4.7729C122.784 4.94633 122.922 5.09364 123.088 5.20232C123.505 5.50798 123.972 5.73816 124.468 5.88236C125.015 6.05184 125.615 6.27159 126.267 6.5416C126.883 6.79389 127.484 7.08132 128.067 7.40248C128.634 7.72365 129.108 8.18453 129.446 8.74121C129.826 9.36009 130.018 10.0753 130.001 10.801C130.024 11.3441 129.913 11.8845 129.678 12.3745C129.443 12.8646 129.091 13.2894 128.653 13.6113C127.555 14.3441 126.247 14.6994 124.929 14.6236C123.478 14.6129 122.048 14.2689 120.751 13.6182V11.6C121.948 12.3643 123.335 12.7776 124.755 12.7932C126.937 12.7932 128.031 12.1289 128.038 10.8004C128.049 10.2625 127.85 9.74134 127.484 9.3473C127.109 8.94271 126.635 8.64248 126.109 8.47601L124.303 7.86357C123.648 7.63554 123.047 7.40192 122.498 7.16272C121.948 6.9208 121.473 6.53546 121.122 6.04701C120.741 5.51181 120.546 4.86687 120.565 4.21028" fill="#001021"/>
<path d="M9.47065 5.68129C11.6367 6.29546 13.1638 7.61916 14.7458 8.94458C16.1475 8.16111 17.5341 7.34759 18.9202 6.58145C19.3959 6.31876 19.8703 6.07108 20.3433 5.83843C19.8672 5.41896 19.3888 5.00122 18.8885 4.61527C17.047 3.16486 14.8131 2.2995 12.4751 2.13083C10.1905 2.0049 7.90437 2.34987 5.75861 3.1443C3.61286 3.93874 1.65326 5.16567 0.00146484 6.749C1.42188 5.92938 2.99618 5.41179 4.62584 5.22856C6.2555 5.04533 7.90546 5.20044 9.47242 5.68418" fill="#001021"/>
<path d="M24.0061 8.46561C23.2128 8.10114 22.4703 7.63499 21.7973 7.07893C20.2864 7.91728 18.7929 8.7961 17.3028 9.62116C16.9561 9.81183 16.6094 9.99381 16.2686 10.1695C16.6755 10.4756 17.0978 10.7609 17.5339 11.024C23.1534 14.3907 30.8979 12.5412 35.4542 8.12414C31.9945 10.2521 27.6282 10.058 24.0056 8.46677" fill="#001021"/>
<path d="M33.4092 2.65314C28.2103 2.3503 23.0365 3.57548 18.5256 6.17761C13.2817 9.07516 8.02157 12.6556 2.02539 12.7417C7.22421 13.0445 12.398 11.8193 16.909 9.21729C22.1523 6.31973 27.4135 2.73923 33.4086 2.65314" fill="#EF2369"/>
</g>
<defs>
<clipPath id="clip0">
<rect width="130" height="14.3705" fill="white" transform="translate(0 0.250755)"/>
</clipPath>
</defs>
</svg>
