<svg width="97" height="34" viewBox="0 0 97 34" fill="none" xmlns="http://www.w3.org/2000/svg">
<g clip-path="url(#clip0)">
<path fill-rule="evenodd" clip-rule="evenodd" d="M95.7258 18.9409C94.9643 18.9409 94.448 18.3635 94.448 17.6494V1.49925C94.448 0.784356 94.9643 0.207703 95.7258 0.207703C96.4873 0.207703 97.0036 0.784356 97.0036 1.49925V17.6494C97.0036 18.3635 96.4873 18.9409 95.7258 18.9409ZM91.7572 13.667H83.6298C83.7658 15.562 85.0436 16.9895 87.299 16.9895C88.7128 16.9895 89.556 16.4953 90.4527 15.6452C90.6703 15.4252 90.969 15.2328 91.2951 15.2328C91.8664 15.2328 92.3552 15.6452 92.3552 16.3036C92.3552 16.5778 92.2193 16.8253 92.0291 17.0452C90.9965 18.2543 89.1481 19.0501 87.1913 19.0501C83.1402 19.0501 80.994 16.1936 80.994 12.7604C80.994 9.16225 83.5756 6.46993 87.0821 6.46993C90.5069 6.46993 92.7356 9.27147 92.7356 12.7887C92.7356 13.2271 92.4912 13.667 91.7572 13.667ZM87.0821 8.52985C85.2063 8.52985 83.9292 9.87639 83.6841 11.5796H90.3709C90.154 9.93062 88.9305 8.52985 87.0821 8.52985ZM78.1665 18.9409C77.46 18.9409 76.8895 18.3635 76.8895 17.6494V11.9088C76.8895 10.1788 75.5299 8.8323 73.7358 8.8323C71.9425 8.8323 70.6104 10.1788 70.6104 11.9088V17.6494C70.6104 18.3635 70.0391 18.9409 69.3326 18.9409C68.6261 18.9409 68.0548 18.3635 68.0548 17.6494V12.2113C68.0548 8.99728 70.447 6.46993 73.7358 6.46993C77.0254 6.46993 79.4443 8.99728 79.4443 12.2113V17.6494C79.4443 18.3635 78.873 18.9409 78.1665 18.9409ZM64.766 18.9409C64.0053 18.9409 63.5157 18.3635 63.5157 17.6494V17.0452C62.7542 18.1993 61.3137 19.0501 59.5471 19.0501C55.7419 19.0501 53.54 16.2486 53.54 12.7604C53.54 9.32647 55.9864 6.46993 59.819 6.46993C63.7334 6.46993 66.043 9.05227 66.043 12.7604V17.6494C66.043 18.3635 65.5542 18.9409 64.766 18.9409ZM59.7915 8.66733C57.617 8.66733 56.0948 10.5088 56.0948 12.7604C56.0948 15.122 57.3726 16.8527 59.7915 16.8527C62.0477 16.8527 63.4882 14.9028 63.4882 12.7604C63.4882 10.2338 61.966 8.66733 59.7915 8.66733ZM46.8806 19.0501C45.059 19.0501 43.5642 18.0893 42.6943 16.6885V22.7858C42.6943 23.4999 42.178 24.0766 41.4173 24.0766C40.6558 24.0766 40.1395 23.4999 40.1395 22.7858V7.87147C40.1395 7.15733 40.574 6.58068 41.363 6.58068C42.1512 6.58068 42.6133 7.18483 42.6133 7.8982V8.8323C43.4283 7.40403 45.059 6.46993 46.8806 6.46993C50.006 6.46993 52.5616 9.1065 52.5616 12.7604C52.5616 16.5511 50.006 19.0501 46.8806 19.0501ZM46.3643 8.6131C44.1623 8.6131 42.6943 10.563 42.6943 12.7604C42.6943 14.9578 44.1623 16.9077 46.3643 16.9077C48.5655 16.9077 50.006 15.2328 50.006 12.7604C50.006 10.2881 48.5655 8.6131 46.3643 8.6131ZM38.2369 17.8151C38.2369 18.446 37.6931 18.9409 37.095 18.9409C36.7147 18.9409 36.4153 18.8034 36.1984 18.5285L32.9363 14.4362L29.6742 18.5285C29.4572 18.8034 29.1578 18.9409 28.7775 18.9409C28.1794 18.9409 27.6356 18.446 27.6356 17.8151C27.6356 17.4844 27.7448 17.2652 27.935 17.0452L31.55 12.7329L27.9893 8.44736C27.7716 8.20142 27.6898 7.95396 27.6898 7.70649C27.6898 7.04659 28.1519 6.58068 28.8592 6.58068C29.2121 6.58068 29.484 6.71816 29.7016 6.96486L32.9363 11.0305L36.1709 6.96486C36.3885 6.71816 36.6604 6.58068 37.0133 6.58068C37.7198 6.58068 38.1819 7.04659 38.1819 7.70649C38.1819 7.95396 38.1009 8.20142 37.8833 8.44736L34.3225 12.7329L37.9375 17.0452C38.1277 17.2652 38.2369 17.4844 38.2369 17.8151ZM24.456 4.71247C23.6403 4.71247 22.9613 4.02584 22.9613 3.20172C22.9613 2.37836 23.6403 1.6902 24.456 1.6902C25.271 1.6902 25.9507 2.37836 25.9507 3.20172C25.9507 4.02584 25.271 4.71247 24.456 4.71247ZM19.9245 32.3911C17.9242 32.3911 16.3027 30.8108 16.3027 28.8609C16.3027 26.9117 17.9242 25.3322 19.9245 25.3322C21.9248 25.3322 23.5463 26.9117 23.5463 28.8609C23.5463 30.8108 21.9248 32.3911 19.9245 32.3911ZM19.59 18.9409C18.856 18.9409 18.3129 18.3635 18.3129 17.6494V12.1555C18.3129 10.2606 17.4155 8.80557 15.4045 8.80557C13.3927 8.80557 12.1699 10.3706 12.1699 12.1838V17.6494C12.1699 18.3635 11.6803 18.9409 10.8928 18.9409C10.1306 18.9409 9.61424 18.3635 9.61424 17.6494V12.1555C9.61424 10.2606 8.63584 8.80557 6.62481 8.80557C4.55879 8.80557 3.47117 10.3706 3.47117 12.1838V17.6494C3.47117 18.3635 2.95485 18.9409 2.19413 18.9409C1.46013 18.9409 0.916323 18.3635 0.916323 17.6494V7.8982C0.916323 7.12907 1.40591 6.58068 2.19413 6.58068C3.06407 6.58068 3.47117 7.18483 3.47117 7.8982V8.77807C4.20516 7.32231 5.70064 6.46993 7.30381 6.46993C9.26138 6.46993 10.7286 7.45903 11.4626 8.91479C12.5227 7.26732 14.0724 6.46993 16.0025 6.46993C19.2913 6.46993 20.8678 8.75058 20.8678 11.963V17.6494C20.8678 18.3635 20.3515 18.9409 19.59 18.9409ZM5.1194 23.8154C7.94768 23.8154 10.2405 26.0502 10.2405 28.8074C10.2405 31.5631 7.94768 33.7972 5.1194 33.7972C2.29113 33.7972 -0.000976562 31.5631 -0.000976562 28.8074C-0.000976562 26.0502 2.29113 23.8154 5.1194 23.8154ZM23.1782 7.87147C23.1782 7.15733 23.7213 6.58068 24.456 6.58068C25.19 6.58068 25.733 7.15733 25.733 7.87147V17.6494C25.733 18.3635 25.2167 18.9409 24.456 18.9409C23.6945 18.9409 23.1782 18.3635 23.1782 17.6494V7.87147ZM32.2183 27.2577C33.1257 27.2577 33.8627 27.9757 33.8627 28.8609C33.8627 29.7453 33.1257 30.4641 32.2183 30.4641C31.3102 30.4641 30.5731 29.7453 30.5731 28.8609C30.5731 27.9757 31.3102 27.2577 32.2183 27.2577Z" fill="#1F1F24"/>
</g>
<defs>
<clipPath id="clip0">
<rect width="97" height="33.6063" fill="white" transform="translate(0 0.196854)"/>
</clipPath>
</defs>
</svg>
