<svg width="75" height="42" viewBox="0 0 75 42" fill="none" xmlns="http://www.w3.org/2000/svg">
<g clip-path="url(#clip0)">
<path d="M68.4091 6.91756e-05H6.48113C4.83942 -0.00507068 3.26179 0.636818 2.09002 1.78668C1.51087 2.36673 1.05307 3.05634 0.743333 3.81524C0.433596 4.57415 0.27813 5.38715 0.28601 6.20679V33.8412C0.277093 34.6579 0.431586 35.4681 0.740399 36.2242C1.04921 36.9803 1.50611 37.667 2.08422 38.2439C2.66153 38.8211 3.34711 39.2785 4.10164 39.5901C4.85618 39.9017 5.6648 40.0612 6.48113 40.0595H68.4091C70.0527 40.0518 71.6264 39.3931 72.7853 38.2276C73.9443 37.0621 74.5942 35.4848 74.5926 33.8412V6.20099C74.5988 5.38642 74.4432 4.57874 74.1348 3.82477C73.8264 3.0708 73.3715 2.38554 72.7963 1.80873C72.2211 1.23192 71.5371 0.775038 70.784 0.464564C70.0309 0.15409 69.2237 -0.00379283 68.4091 6.91756e-05Z" fill="white"/>
<path d="M72.4171 6.20107C72.4233 5.67216 72.3239 5.14733 72.1249 4.65726C71.9259 4.16719 71.6311 3.72172 71.2579 3.34689C70.8847 2.97207 70.4405 2.6754 69.9513 2.47426C69.4621 2.27311 68.9377 2.17151 68.4088 2.1754H51.0996L61.0304 18.7711L61.9469 18.8871L62.5269 19.647V20.3547L63.1534 20.4823L63.7335 21.2712V21.9557L64.3831 22.0717L65.0386 22.7852V24.363C65.819 25.0675 66.6984 25.6538 67.6489 26.1032C68.5248 26.4396 68.6234 27.8434 69.1513 28.5917C69.8126 29.6822 70.7175 30.1172 70.5261 30.7263C70.0852 32.3563 68.4146 35.1058 66.86 35.2334H60.7113V37.8669H68.4146C68.9447 37.8647 69.4692 37.7577 69.9579 37.5522C70.4466 37.3467 70.8899 37.0467 71.2623 36.6694C71.6347 36.2921 71.929 35.845 72.1281 35.3537C72.3273 34.8624 72.4275 34.3366 72.4229 33.8065V6.20107" fill="#BF0D3E"/>
<path d="M30.0724 35.274H27.0966C27.0966 27.8375 29.6083 23.7249 32.6189 22.907C33.0307 22.8316 32.8335 20.8013 32.3114 20.1806H30.5712C30.2928 20.1806 30.4552 19.6586 30.4552 19.6586L31.8648 16.648L31.6734 15.8243H26.4644L30.7453 12.8312C30.9425 4.93648 39.0402 4.32161 43.9186 7.61059C46.8189 9.53061 47.0394 13.3359 46.8189 15.9636C46.7841 16.1318 46.0648 16.0216 46.0648 16.0216C46.0648 16.0216 45.5718 18.9219 46.8595 18.9219H52.55C54.8703 18.8291 57.1093 20.4011 57.1093 20.4011L57.6546 18.4114L45.1889 2.17536H6.48106C5.41028 2.16911 4.38037 2.58607 3.61553 3.3355C3.24261 3.71293 2.9481 4.16046 2.74898 4.65228C2.54987 5.14409 2.45009 5.67046 2.45539 6.20103V33.8412C2.44872 34.3703 2.54792 34.8953 2.74716 35.3854C2.9464 35.8755 3.24164 36.3208 3.61553 36.6952C4.37565 37.4552 5.40614 37.8828 6.48106 37.8843H31.6096C30.9947 36.8286 30.2928 35.6278 30.0782 35.274" fill="#041E42"/>
<path d="M8.0358 29.4096C8.03582 28.8648 8.19768 28.3323 8.50084 27.8796C8.804 27.427 9.23479 27.0746 9.73855 26.8672C10.2423 26.6598 10.7963 26.6067 11.3303 26.7147C11.8643 26.8227 12.3542 27.0869 12.7377 27.4737C13.1213 27.8606 13.3813 28.3527 13.4848 28.8875C13.5883 29.4224 13.5305 29.976 13.3188 30.478C13.1072 30.9799 12.7511 31.4077 12.2959 31.707C11.8407 32.0064 11.3069 32.1637 10.7621 32.1591C10.4019 32.1599 10.0451 32.0891 9.71249 31.9509C9.37985 31.8128 9.07795 31.6099 8.82433 31.3541C8.57071 31.0983 8.37041 30.7947 8.23504 30.4609C8.09968 30.1271 8.03196 29.7698 8.0358 29.4096ZM74.059 40.4193C74.059 40.106 73.8734 40.0654 73.6066 40.0654H73.0265V41.2255H73.2701V40.7673H73.4674L73.7342 41.2255H74.0068L73.7284 40.7673C73.7722 40.7685 73.8157 40.7602 73.8559 40.743C73.8961 40.7257 73.9321 40.6999 73.9614 40.6674C73.9906 40.6348 74.0124 40.5962 74.0253 40.5544C74.0382 40.5126 74.0417 40.4684 74.0358 40.4251L74.059 40.4193ZM73.5892 40.5585H73.2644V40.2742H73.5312C73.6472 40.2742 73.7922 40.2742 73.7922 40.4018C73.7922 40.5295 73.7226 40.5585 73.5892 40.5585Z" fill="white"/>
<path d="M73.5078 39.5316C73.2877 39.5316 73.0726 39.5967 72.8896 39.7189C72.7066 39.841 72.5638 40.0146 72.4794 40.2177C72.3949 40.4209 72.3725 40.6446 72.415 40.8604C72.4575 41.0763 72.563 41.2748 72.7182 41.4308C72.8734 41.5867 73.0713 41.6933 73.2869 41.7369C73.5026 41.7805 73.7264 41.7593 73.93 41.6759C74.1336 41.5925 74.3079 41.4506 74.431 41.2683C74.554 41.0859 74.6203 40.8711 74.6215 40.6511C74.6238 40.5039 74.5966 40.3578 74.5416 40.2213C74.4865 40.0848 74.4047 39.9607 74.3008 39.8563C74.197 39.752 74.0734 39.6695 73.9372 39.6137C73.8009 39.5579 73.6549 39.53 73.5078 39.5316ZM73.5078 41.5212C73.277 41.5212 73.0557 41.4295 72.8925 41.2663C72.7293 41.1032 72.6377 40.8819 72.6377 40.6511C72.6377 40.4203 72.7293 40.199 72.8925 40.0358C73.0557 39.8727 73.277 39.781 73.5078 39.781C73.7385 39.781 73.9598 39.8727 74.123 40.0358C74.2862 40.199 74.3779 40.4203 74.3779 40.6511C74.3779 40.8819 74.2862 41.1032 74.123 41.2663C73.9598 41.4295 73.7385 41.5212 73.5078 41.5212Z" fill="white"/>
</g>
<defs>
<clipPath id="clip0">
<rect width="74.3361" height="41.7591" fill="white" transform="translate(0.285645)"/>
</clipPath>
</defs>
</svg>
