<svg width="132" height="21" viewBox="0 0 132 21" fill="none" xmlns="http://www.w3.org/2000/svg">
<g clip-path="url(#clip0)">
<path d="M16.4893 0.269025C14.6248 0.269025 13.12 0.9018 12.0079 2.62852C11.2901 1.0899 9.73252 0.269025 7.80037 0.269025C6.2436 0.269025 4.43025 1.02142 3.66052 2.4066V0.919125C3.66052 0.783 3.5409 0.663375 3.40395 0.663375H0.256575C0.119625 0.661725 0 0.78135 0 0.917475V14.5679C0 14.7049 0.119625 14.8237 0.256575 14.8237H3.57473C3.71168 14.8237 3.8313 14.7049 3.8313 14.5679V6.52913C3.8313 4.97235 4.80645 3.74062 6.48285 3.74062C8.2104 3.74062 8.98013 4.88738 8.98013 6.4095V14.5514C8.98013 14.6884 9.09975 14.8072 9.2367 14.8072H12.5202C12.658 14.8072 12.7776 14.6884 12.7776 14.5514V6.5118C12.7776 4.98968 13.7527 3.7233 15.3945 3.7233C17.1567 3.7233 17.8918 4.87005 17.8918 6.39218V14.5349C17.8918 14.671 18.0114 14.7907 18.1483 14.7907H21.3469C21.4838 14.7907 21.6035 14.671 21.6035 14.5349V5.63895C21.6208 1.84147 19.1062 0.2682 16.4893 0.2682V0.269025ZM31.1314 12.1911C29.2669 12.1911 27.4873 12.9435 26.8546 13.9871C28.0525 14.808 29.5061 15.2527 31.1314 15.2527C32.7393 15.2527 34.2103 14.7907 35.4073 13.9871C34.7746 12.9435 32.9274 12.1911 31.1314 12.1911V12.1911ZM47.2956 0.234375C43.6697 0.234375 40.3342 3.17632 40.3342 7.69237C40.3342 12.4642 43.7547 15.2527 47.638 15.2527C50.905 15.2527 53.0945 13.4393 53.9327 11.1986C53.9839 11.0617 53.9154 10.9082 53.7611 10.8571L50.9908 10.1212C50.8703 10.0874 50.7515 10.1377 50.6995 10.2581C50.1864 11.2844 49.2286 11.9857 47.6553 11.9857C45.7561 11.9857 44.1655 10.6343 44.0797 8.76982H53.9666C54.1035 8.76982 54.2058 8.66752 54.2231 8.53057C54.2396 8.30782 54.2578 7.93163 54.2578 7.59008C54.2916 3.02288 51.6747 0.234375 47.2956 0.234375ZM44.1829 6.1356C44.2678 4.8354 45.3626 3.3471 47.3467 3.3471C49.2286 3.3471 50.4603 4.7331 50.5115 6.1356H44.1829Z" fill="#00237C"/>
<path d="M31.1312 0.234375C26.9064 0.234375 23.707 3.36443 23.707 7.74353C23.707 9.64185 24.3233 11.3356 25.3661 12.6184C26.2216 11.8487 27.5045 11.1301 29.0101 10.8397C28.1719 10.1896 27.6076 9.1122 27.6076 7.60657C27.6076 4.98967 29.2832 3.8091 31.1139 3.8091C32.9437 3.8091 34.6201 5.007 34.6201 7.60657C34.6201 9.1122 34.0558 10.1888 33.2341 10.8397C34.7398 11.1301 36.0226 11.8487 36.8782 12.6011C37.9218 11.3182 38.5372 9.64185 38.5372 7.7262C38.5546 3.36443 35.3725 0.234375 31.1312 0.234375ZM125.004 0.234375C121.378 0.234375 118.042 3.17632 118.042 7.69237C118.042 12.4642 121.463 15.2527 125.346 15.2527C128.631 15.2527 130.803 13.4393 131.641 11.1986C131.692 11.0617 131.606 10.9082 131.469 10.8571L128.698 10.1212C128.579 10.0874 128.459 10.1377 128.408 10.2581C127.895 11.2844 126.937 11.9857 125.363 11.9857C123.464 11.9857 121.874 10.6343 121.788 8.76982H131.709C131.846 8.76982 131.949 8.66752 131.966 8.53057C131.982 8.30782 132 7.93163 132 7.59008C132 3.02288 129.383 0.234375 125.004 0.234375ZM121.908 6.1356C121.993 4.8354 123.088 3.3471 125.072 3.3471C126.954 3.3471 128.185 4.7331 128.237 6.1356H121.908V6.1356ZM115.852 0.661725H112.671C112.534 0.661725 112.414 0.78135 112.414 0.9183V2.33812C111.935 1.38112 110.652 0.40515 108.395 0.40515C104.512 0.40515 101.809 3.56985 101.809 7.31617C101.809 11.2844 104.631 14.1917 108.395 14.1917C110.43 14.1917 111.764 13.3024 112.346 12.3792V13.422C112.346 16.1593 110.995 17.3572 108.583 17.3572C106.872 17.3572 105.675 16.3474 105.333 14.9276C105.299 14.7907 105.162 14.7049 105.025 14.7395L102.049 15.5266C101.912 15.5604 101.844 15.6974 101.86 15.817C102.373 18.4174 104.923 20.7092 108.703 20.7092C114.022 20.7092 116.126 17.1683 116.126 13.2859V0.919125C116.109 0.78135 116.006 0.661725 115.852 0.661725V0.661725ZM109.062 10.9082C107.077 10.9082 105.658 9.52222 105.658 7.31617C105.658 5.12662 107.146 3.74062 109.062 3.74062C110.909 3.74062 112.397 5.12662 112.397 7.31617C112.397 9.50572 111.012 10.9082 109.062 10.9082V10.9082ZM63.8532 0.285525C62.3302 0.285525 60.6373 0.95295 59.7645 2.42393V0.9183C59.7645 0.782175 59.6449 0.66255 59.5087 0.66255H56.3094C56.1724 0.66255 56.0536 0.782175 56.0536 0.9183V14.5687C56.0536 14.7057 56.1724 14.8245 56.3094 14.8245H59.6284C59.7645 14.8245 59.8841 14.7057 59.8841 14.5687V6.6834C59.8841 5.04165 60.8593 3.74062 62.5357 3.74062C64.3837 3.74062 65.1526 4.97235 65.1526 6.56295V14.5687C65.1526 14.7057 65.273 14.8245 65.4091 14.8245H68.7281C68.8651 14.8245 68.9839 14.7057 68.9839 14.5687V5.89635C68.9839 2.80012 67.3768 0.28635 63.8524 0.28635L63.8532 0.285525ZM93.7017 0.234375C89.9727 0.234375 87.9374 2.5947 87.6462 4.78425C87.6289 4.85272 87.6808 4.90388 87.7493 4.9212L90.8967 5.58862C90.9652 5.60512 91.0328 5.55397 91.0501 5.4855C91.2209 4.30575 92.1276 3.31328 93.7355 3.31328C95.3434 3.31328 96.1305 4.15148 96.1305 5.16128C96.1305 5.65628 95.8739 6.0498 95.0704 6.17025L91.5806 6.6834C89.2203 7.02495 87.3558 8.44477 87.3558 10.9767C87.3558 13.2001 89.203 15.2354 92.2134 15.2354C94.3006 15.2354 95.6347 14.2783 96.3697 13.1662V14.5687C96.3697 14.7057 96.4894 14.8245 96.6263 14.8245H99.6202C99.7564 14.8245 99.8768 14.7057 99.8768 14.5687V5.62163C99.8595 2.7663 98.2004 0.234375 93.7017 0.234375ZM96.1305 9.09487C96.1305 11.5921 94.6422 12.3784 93.0178 12.3784C91.786 12.3784 91.1698 11.5748 91.1698 10.7366C91.1698 9.64185 91.9395 9.09488 92.932 8.95793L96.1305 8.4621V9.09487V9.09487ZM85.0639 0.661725H81.8819C81.745 0.661725 81.6262 0.78135 81.6262 0.9183V2.33812C81.1468 1.38112 79.8458 0.40515 77.6051 0.40515C73.7218 0.40515 71.0191 3.56985 71.0191 7.31617C71.0191 11.2844 73.8423 14.1917 77.6051 14.1917C79.6404 14.1917 80.9744 13.3024 81.5569 12.3792V13.422C81.5569 16.1593 80.2047 17.3572 77.7932 17.3572C76.083 17.3572 74.8851 16.3474 74.5427 14.9276C74.5097 14.7907 74.3719 14.7049 74.235 14.7395L71.2592 15.5266C71.1223 15.5604 71.053 15.6974 71.0711 15.817C71.5843 18.4174 74.1319 20.7092 77.9128 20.7092C83.2324 20.7092 85.3362 17.1683 85.3362 13.2859V0.919125C85.3197 0.78135 85.2001 0.661725 85.0631 0.661725H85.0639ZM78.2725 10.9082C76.2884 10.9082 74.8686 9.52222 74.8686 7.31617C74.8686 5.12662 76.3569 3.74062 78.2725 3.74062C80.1205 3.74062 81.608 5.12662 81.608 7.31617C81.608 9.50572 80.2228 10.9082 78.2725 10.9082V10.9082Z" fill="#00237C"/>
</g>
<defs>
<clipPath id="clip0">
<rect width="132" height="20.625" fill="white" transform="translate(0 0.234375)"/>
</clipPath>
</defs>
</svg>
