<svg width="101" height="36" viewBox="0 0 101 36" fill="none" xmlns="http://www.w3.org/2000/svg">
<g clip-path="url(#clip0)">
<path d="M42.0834 23.4287L49.8267 8.44704C49.921 8.16795 50.1032 7.92692 50.346 7.76002C50.5887 7.59312 50.879 7.50934 51.1734 7.52121C51.3528 7.51149 51.5322 7.53966 51.7 7.6039C51.8678 7.66814 52.0201 7.767 52.1472 7.89404C52.2742 8.02108 52.3731 8.17346 52.4373 8.34125C52.5016 8.50903 52.5297 8.68847 52.52 8.86787V26.9637C52.5315 27.1475 52.5052 27.3317 52.4427 27.5049C52.3802 27.6782 52.2828 27.8367 52.1566 27.9708C52.0304 28.1049 51.878 28.2117 51.7089 28.2846C51.5398 28.3575 51.3575 28.3949 51.1734 28.3945C50.9832 28.4029 50.7934 28.3716 50.6161 28.3027C50.4387 28.2337 50.2776 28.1286 50.143 27.994C50.0085 27.8595 49.9034 27.6984 49.8344 27.521C49.7655 27.3436 49.7342 27.1538 49.7425 26.9637V14.3387L43.5984 26.122C43.4473 26.3941 43.2284 26.6223 42.9629 26.7846C42.6974 26.9469 42.3943 27.0376 42.0834 27.0479C41.7696 27.0501 41.4616 26.9645 41.1939 26.8009C40.9262 26.6373 40.7095 26.4022 40.5684 26.122L34.4242 14.3387V26.9637C34.4325 27.1538 34.4013 27.3436 34.3323 27.521C34.2634 27.6984 34.1583 27.8595 34.0237 27.994C33.8891 28.1286 33.728 28.2337 33.5506 28.3027C33.3733 28.3716 33.1835 28.4029 32.9934 28.3945C32.8092 28.3949 32.6269 28.3575 32.4578 28.2846C32.2887 28.2117 32.1363 28.1049 32.0101 27.9708C31.8839 27.8367 31.7865 27.6782 31.724 27.5049C31.6615 27.3317 31.6352 27.1475 31.6467 26.9637V8.95204C31.6298 8.77098 31.6531 8.58844 31.7148 8.41739C31.7765 8.24634 31.8752 8.091 32.0037 7.96242C32.1323 7.83384 32.2877 7.73519 32.4587 7.67347C32.6298 7.61176 32.8123 7.58851 32.9934 7.60537C33.2852 7.60495 33.5703 7.69327 33.8108 7.85862C34.0514 8.02397 34.2359 8.25854 34.34 8.53121L42.0834 23.4287ZM65.9867 25.9537C64.4053 25.9537 62.8594 25.4848 61.5444 24.6062C60.2295 23.7276 59.2047 22.4788 58.5995 21.0177C57.9943 19.5567 57.836 17.949 58.1445 16.398C58.453 14.8469 59.2145 13.4222 60.3328 12.304C61.451 11.1857 62.8757 10.4242 64.4268 10.1157C65.9778 9.80716 67.5855 9.9655 69.0466 10.5707C70.5076 11.1759 71.7564 12.2007 72.635 13.5156C73.5136 14.8305 73.9825 16.3764 73.9825 17.9579C73.9825 20.0785 73.1401 22.1123 71.6406 23.6118C70.1411 25.1113 68.1073 25.9537 65.9867 25.9537ZM76.6759 17.9579C76.6759 15.8438 76.049 13.7771 74.8744 12.0193C73.6999 10.2615 72.0304 8.89141 70.0773 8.08237C68.1241 7.27333 65.9748 7.06165 63.9013 7.4741C61.8278 7.88654 59.9232 8.90458 58.4283 10.3995C56.9334 11.8944 55.9154 13.799 55.5029 15.8725C55.0905 17.946 55.3022 20.0953 56.1112 22.0484C56.9202 24.0016 58.2903 25.6711 60.0481 26.8456C61.8059 28.0201 63.8726 28.647 65.9867 28.647C68.8203 28.6426 71.5365 27.515 73.5402 25.5113C75.5438 23.5077 76.6714 20.7915 76.6759 17.9579ZM89.89 25.9537C88.3086 25.9537 86.7627 25.4848 85.4478 24.6062C84.1329 23.7276 83.108 22.4788 82.5028 21.0177C81.8977 19.5567 81.7393 17.949 82.0478 16.398C82.3563 14.8469 83.1179 13.4222 84.2361 12.304C85.3544 11.1857 86.7791 10.4242 88.3301 10.1157C89.8811 9.80716 91.4888 9.9655 92.9499 10.5707C94.4109 11.1759 95.6597 12.2007 96.5383 13.5156C97.4169 14.8305 97.8859 16.3764 97.8859 17.9579C97.8859 20.0785 97.0434 22.1123 95.5439 23.6118C94.0444 25.1113 92.0107 25.9537 89.89 25.9537ZM100.579 17.9579C100.579 15.8438 99.9523 13.7771 98.7777 12.0193C97.6032 10.2615 95.9338 8.89141 93.9806 8.08237C92.0274 7.27333 89.8782 7.06165 87.8047 7.4741C85.7312 7.88654 83.8265 8.90458 82.3316 10.3995C80.8367 11.8944 79.8187 13.799 79.4062 15.8725C78.9938 17.946 79.2055 20.0953 80.0145 22.0484C80.8236 24.0016 82.1936 25.6711 83.9514 26.8456C85.7093 28.0201 87.7759 28.647 89.89 28.647C92.7236 28.6426 95.4398 27.515 97.4435 25.5113C99.4471 23.5077 100.575 20.7915 100.579 17.9579ZM11.3625 30.8354C12.4488 30.8466 13.5265 30.641 14.5323 30.2304C15.5381 29.8199 16.4519 29.2128 17.2201 28.4446C17.9883 27.6764 18.5954 26.7626 19.0059 25.7568C19.4165 24.751 19.6221 23.6734 19.6109 22.587C19.5965 22.0225 19.5402 21.4599 19.4425 20.9037C19.1059 19.052 17.675 15.8537 15.2342 11.5612C13.3825 8.27871 11.7834 5.92204 11.7834 5.92204L11.3625 5.33287L11.0259 5.83787C11.0259 5.83787 9.42669 8.27871 7.57503 11.477C5.05003 15.7695 3.61919 18.9679 3.36669 20.8195C3.26899 21.3757 3.21272 21.9384 3.19836 22.5029C3.20198 24.3234 3.79227 26.0943 4.88169 27.5529C5.61823 28.581 6.59195 29.4162 7.72019 29.9877C8.84844 30.5591 10.0979 30.8499 11.3625 30.8354ZM11.3625 33.697C9.68168 33.7142 8.02051 33.3344 6.51412 32.5885C5.00773 31.8426 3.69866 30.7517 2.69336 29.4045C1.20226 27.5108 0.400734 25.1656 0.420861 22.7554C0.413414 22.0044 0.498215 21.2553 0.673361 20.525C1.09419 18.0841 2.86169 14.1283 6.06003 8.65746C8.41669 4.61746 10.3525 1.58746 10.4367 1.58746C10.605 1.25079 10.8575 0.829956 11.3625 0.829956C11.8675 0.829956 12.12 1.25079 12.3725 1.58746C12.3725 1.58746 14.3925 4.61746 16.7492 8.65746C19.9475 14.1283 21.715 18.0841 22.1359 20.525C22.3076 21.2416 22.3924 21.9764 22.3884 22.7133C22.4085 25.1235 21.607 27.4687 20.1159 29.3625C19.068 30.684 17.7384 31.7551 16.2242 32.4977C14.7099 33.2402 13.049 33.6356 11.3625 33.655" fill="#009870"/>
</g>
<defs>
<clipPath id="clip0">
<rect width="101" height="35.35" fill="white" transform="translate(0 0.324951)"/>
</clipPath>
</defs>
</svg>
