<svg width="103" height="26" viewBox="0 0 103 26" fill="none" xmlns="http://www.w3.org/2000/svg">
<g clip-path="url(#clip0)">
<path d="M61.5676 0.522339H56.5876V5.80589H52.8613V10.8069H56.5876V24.9053H61.5676V10.8069H65.2947V5.80589H61.5676V0.522339Z" fill="#717271"/>
<path d="M21.1294 4.98193C18.6018 4.98193 16.4129 6.03901 14.9416 7.73628C13.5456 6.03901 11.3944 4.98193 8.75382 4.98193C3.43362 4.98193 0 8.71804 0 13.6604V24.9046H4.98006V13.5465C4.98006 11.3592 6.52811 9.85023 8.75382 9.85023C12.0364 9.85023 12.3755 12.4531 12.3755 13.5465V24.9046H17.3554V13.5465C17.3554 11.3592 18.9417 9.85023 21.1292 9.85023C24.4117 9.85023 24.7893 12.4531 24.7893 13.5465V24.9046H29.77V13.6604C29.77 8.5674 26.5633 4.98193 21.1292 4.98193" fill="#717271"/>
<path d="M79.8159 17.1629C79.8159 19.3127 78.2316 20.86 76.0437 20.86C72.7599 20.86 72.3835 18.2571 72.3835 17.1629V5.80481H67.4019V17.0123C67.4019 22.1054 70.6095 25.69 76.0435 25.69C81.326 25.69 84.7973 21.9539 84.7973 17.0123V5.80541H79.8159V17.1636V17.1629Z" fill="#717271"/>
<path d="M94.1979 25.69C91.439 25.69 88.3505 24.7699 85.7397 22.7121L88.1296 19.0332C90.2627 20.5782 92.5065 21.3878 94.3451 21.3878C95.9641 21.3878 96.6995 20.7997 96.6995 19.9165V19.8426C96.6995 18.6288 94.7864 18.2254 92.6171 17.5635C89.8581 16.7533 86.732 15.4665 86.732 11.6428V11.568C86.732 7.56047 89.969 5.31482 93.9416 5.31482C96.4422 5.31482 99.1647 6.16064 101.298 7.59632L99.1635 11.4581C97.2143 10.3172 95.2649 9.61943 93.8304 9.61943C92.4692 9.61943 91.7712 10.2081 91.7712 10.9814V11.0545C91.7712 12.1567 93.6467 12.6726 95.7798 13.4075C98.5388 14.3268 101.738 15.6505 101.738 19.2555V19.3286C101.738 23.7055 98.4641 25.691 94.1979 25.691" fill="#717271"/>
<path d="M49.2861 9.52279C49.4397 9.59052 49.614 9.59446 49.7705 9.53373C49.9271 9.47301 50.0531 9.35259 50.1208 9.19896C50.1396 9.15687 50.1396 9.11317 50.1494 9.06947C49.9438 8.81028 49.7247 8.55956 49.4927 8.32031C49.2676 8.33763 49.0583 8.46632 48.9619 8.68764C48.9282 8.76371 48.9098 8.84568 48.9079 8.92884C48.9059 9.01201 48.9204 9.09475 48.9505 9.17231C48.9806 9.24988 49.0257 9.32074 49.0832 9.38085C49.1407 9.44095 49.2095 9.48912 49.2857 9.52258" fill="white"/>
<path d="M50.7767 11.2457C50.8856 11.2939 51.0029 11.3202 51.1219 11.3231C51.2409 11.3259 51.3593 11.3053 51.4703 11.2624C51.2269 10.7147 50.9356 10.1896 50.5997 9.69324C50.4801 9.78426 50.374 9.89462 50.3097 10.041C50.2611 10.1508 50.2346 10.269 50.2317 10.389C50.2288 10.509 50.2497 10.6284 50.2931 10.7403C50.3364 10.8522 50.4015 10.9545 50.4844 11.0412C50.5674 11.1279 50.6667 11.1974 50.7765 11.2457" fill="white"/>
<path d="M47.9826 14.382C48.1568 14.459 48.3499 14.4826 48.5375 14.4498C48.7251 14.4171 48.8988 14.3294 49.0365 14.1979C49.1743 14.0664 49.2699 13.8971 49.3114 13.7112C49.3529 13.5253 49.3383 13.3313 49.2695 13.1538C49.2007 12.9762 49.0808 12.823 48.9249 12.7136C48.769 12.6042 48.5842 12.5435 48.3938 12.5392C48.2034 12.5349 48.016 12.5871 47.8554 12.6893C47.6947 12.7914 47.5679 12.939 47.4911 13.1132C47.3889 13.3468 47.3833 13.6112 47.4754 13.8489C47.5675 14.0866 47.7498 14.2782 47.9826 14.382V14.382Z" fill="#00AEEF"/>
<path d="M47.9158 8.03935C47.9907 8.07237 48.0737 8.08244 48.1543 8.06829C48.2349 8.05414 48.3095 8.01641 48.3687 7.95986C48.4278 7.90331 48.4689 7.83049 48.4867 7.7506C48.5045 7.67071 48.4982 7.58734 48.4686 7.51103C48.439 7.43473 48.3874 7.36891 48.3204 7.3219C48.2534 7.27489 48.174 7.2488 48.0922 7.24693C48.0103 7.24507 47.9298 7.2675 47.8607 7.31141C47.7917 7.35531 47.7372 7.41871 47.7041 7.49359C47.6818 7.54327 47.6695 7.59689 47.6681 7.65133C47.6667 7.70578 47.6761 7.75996 47.6958 7.81074C47.7155 7.86152 47.7451 7.90788 47.7828 7.94712C47.8206 7.98637 47.8658 8.01772 47.9158 8.03935V8.03935Z" fill="#00AEEF"/>
<path d="M46.405 6.36206C46.4519 6.38271 46.5051 6.38401 46.5531 6.36569C46.601 6.34737 46.6397 6.3109 46.6609 6.26419C46.5451 6.2078 46.435 6.14517 46.3186 6.09241C46.3136 6.09602 46.309 6.10014 46.3049 6.10469C46.2842 6.15212 46.2831 6.20579 46.3019 6.254C46.3206 6.30222 46.3577 6.34106 46.405 6.36206V6.36206Z" fill="#00AEEF"/>
<path d="M50.777 11.2453C50.8858 11.2936 51.003 11.3199 51.122 11.3229C51.241 11.3259 51.3595 11.3054 51.4706 11.2626C51.2271 10.7144 50.9358 10.1888 50.6002 9.69177C50.4803 9.7834 50.3742 9.89316 50.3102 10.0396C50.2613 10.1493 50.2347 10.2677 50.2317 10.3878C50.2288 10.5079 50.2496 10.6274 50.293 10.7394C50.3363 10.8515 50.4014 10.9539 50.4845 11.0407C50.5676 11.1275 50.667 11.197 50.777 11.2453V11.2453Z" fill="#00AEEF"/>
<path d="M49.2856 9.52314C49.4394 9.59078 49.6137 9.59457 49.7702 9.53369C49.9268 9.47281 50.0527 9.35225 50.1204 9.19851C50.1391 9.15723 50.1391 9.11272 50.149 9.07003C49.9434 8.81024 49.7246 8.56025 49.4924 8.32007C49.2673 8.33819 49.0581 8.46668 48.9618 8.6882C48.9281 8.76427 48.9098 8.84624 48.9079 8.9294C48.906 9.01256 48.9204 9.09529 48.9505 9.17284C48.9806 9.2504 49.0257 9.32126 49.0832 9.38137C49.1407 9.44148 49.2095 9.48966 49.2856 9.52314V9.52314Z" fill="#00AEEF"/>
<path d="M48.9968 11.5658C48.9241 11.7311 48.902 11.9142 48.9333 12.0921C48.9646 12.27 49.0479 12.4346 49.1728 12.5651C49.2976 12.6956 49.4584 12.7862 49.6347 12.8254C49.811 12.8646 49.9949 12.8507 50.1633 12.7853C50.3317 12.72 50.477 12.6062 50.5807 12.4584C50.6844 12.3105 50.742 12.1352 50.7462 11.9547C50.7503 11.7741 50.7008 11.5964 50.604 11.4439C50.5072 11.2915 50.3673 11.1711 50.2021 11.0981C50.0923 11.0495 49.974 11.0231 49.8539 11.0203C49.7338 11.0175 49.6144 11.0384 49.5024 11.0818C49.3905 11.1253 49.2882 11.1904 49.2014 11.2734C49.1146 11.3565 49.0451 11.4558 48.9968 11.5658V11.5658Z" fill="#00AEEF"/>
<path d="M47.9658 11.3111C48.1025 11.3715 48.2541 11.3899 48.4013 11.3641C48.5485 11.3383 48.6848 11.2695 48.7929 11.1662C48.9009 11.063 48.976 10.93 49.0085 10.7841C49.0409 10.6383 49.0294 10.486 48.9754 10.3467C48.9214 10.2073 48.8272 10.0871 48.7049 10.0013C48.5825 9.91546 48.4375 9.86784 48.288 9.86445C48.1386 9.86107 47.9915 9.90207 47.8654 9.98228C47.7393 10.0625 47.6398 10.1783 47.5795 10.315C47.5394 10.4058 47.5176 10.5036 47.5153 10.6028C47.5131 10.702 47.5303 10.8006 47.5662 10.8931C47.6021 10.9856 47.6558 11.0702 47.7244 11.1419C47.793 11.2136 47.875 11.2711 47.9658 11.3111V11.3111Z" fill="#00AEEF"/>
<path d="M46.4472 9.49581C46.5308 9.53279 46.6235 9.54415 46.7136 9.52846C46.8036 9.51277 46.887 9.47074 46.9531 9.40767C47.0193 9.3446 47.0653 9.26333 47.0852 9.17413C47.1052 9.08494 47.0983 8.99182 47.0653 8.90656C47.0324 8.8213 46.9749 8.74772 46.9002 8.69513C46.8254 8.64254 46.7367 8.6133 46.6453 8.6111C46.554 8.6089 46.464 8.63384 46.3868 8.68278C46.3096 8.73171 46.2486 8.80244 46.2116 8.88601C46.1623 8.99815 46.1593 9.12528 46.2035 9.23957C46.2477 9.35386 46.3353 9.446 46.4472 9.49581V9.49581Z" fill="#00AEEF"/>
<path d="M43.5724 9.58778C43.6078 9.60319 43.6469 9.60778 43.6849 9.60096C43.7229 9.59414 43.758 9.57623 43.7857 9.54948C43.8135 9.52273 43.8328 9.48834 43.841 9.45067C43.8493 9.41299 43.8462 9.37371 43.8321 9.33779C43.8181 9.30187 43.7937 9.27092 43.7621 9.24885C43.7304 9.22678 43.693 9.21458 43.6544 9.21379C43.6158 9.213 43.5779 9.22365 43.5454 9.24441C43.5129 9.26517 43.4873 9.29509 43.4718 9.33041C43.4613 9.3539 43.4557 9.37922 43.4551 9.40491C43.4546 9.4306 43.4591 9.45615 43.4685 9.48008C43.4778 9.50401 43.4918 9.52585 43.5097 9.54433C43.5275 9.56282 43.5489 9.57758 43.5724 9.58778V9.58778Z" fill="#00AEEF"/>
<path d="M52.1815 17.3862C52.2961 16.8073 52.3604 16.2196 52.3737 15.6297C52.2769 15.5317 52.1628 15.4526 52.0371 15.3963C51.8764 15.3259 51.7015 15.2941 51.5264 15.3032C51.3512 15.3123 51.1805 15.3622 51.028 15.4488C51.1024 15.2529 51.1206 15.0401 51.0804 14.8344C51.0402 14.6287 50.9433 14.4383 50.8006 14.2848C50.8208 14.2955 50.8383 14.309 50.8586 14.3181C51.1074 14.4272 51.3892 14.4334 51.6425 14.3353C51.8958 14.2372 52.0999 14.0427 52.2101 13.7945C52.2184 13.7763 52.2214 13.7568 52.2283 13.7381C52.1676 13.3724 52.0875 13.0103 51.9882 12.6532C51.7996 12.4611 51.5427 12.3513 51.2735 12.3477C51.0043 12.344 50.7445 12.4468 50.5507 12.6337C50.3569 12.8206 50.2448 13.0765 50.2387 13.3456C50.2326 13.6148 50.333 13.8755 50.5181 14.071C50.4887 14.0559 50.4617 14.0369 50.4309 14.0218C50.2952 13.962 50.149 13.9295 50.0007 13.9262C49.8525 13.9229 49.705 13.9489 49.5667 14.0026C49.4285 14.0563 49.3022 14.1367 49.195 14.2393C49.0879 14.3418 49.002 14.4644 48.9423 14.6002C48.8369 14.8398 48.8196 15.1089 48.8933 15.36C48.744 15.3073 48.5852 15.2869 48.4273 15.3C48.2695 15.313 48.1163 15.3594 47.9776 15.4359C48.1003 14.985 47.8955 14.5009 47.454 14.3082C47.3936 14.2818 47.3304 14.281 47.2687 14.2679C47.4073 14.8657 47.4397 15.4832 47.3644 16.0923C47.3232 16.3785 47.2633 16.6617 47.1852 16.9401C47.123 17.1548 47.0474 17.3654 46.959 17.5706C46.9371 17.6202 46.9077 17.6631 46.8845 17.7128C46.7975 17.8959 46.7002 18.0738 46.5931 18.2459C46.5425 18.3264 46.4845 18.3987 46.4304 18.4755C45.4657 19.8421 43.8794 20.7358 42.0804 20.7193C39.1636 20.6953 36.818 18.3097 36.8444 15.392C36.8706 12.4776 39.2568 10.1343 42.1721 10.1584L42.2166 5.19107C36.5577 5.14213 31.9284 9.69002 31.8779 15.3485C31.8273 21.0071 36.3768 25.6381 42.0368 25.6873C45.9686 25.7217 49.3883 23.5324 51.1329 20.2954C51.1353 20.2976 51.1376 20.2984 51.139 20.2998C51.2074 20.1741 51.2679 20.0416 51.3341 19.9113C51.3514 19.8759 51.3704 19.8406 51.3867 19.8046C51.4251 19.7277 51.4688 19.6534 51.5043 19.5734C51.5697 19.4236 51.6251 19.2713 51.6813 19.1203C51.6822 19.1185 51.6829 19.1167 51.6835 19.1149C51.7903 18.8275 51.8883 18.5367 51.9727 18.2445C51.6833 18.1736 51.3776 18.2202 51.1225 18.374C51.1799 18.2154 51.2008 18.046 51.1838 17.8782C51.1667 17.7104 51.1121 17.5487 51.024 17.4049C51.0578 17.4236 51.0894 17.4462 51.1247 17.4621C51.2936 17.5368 51.4783 17.5689 51.6626 17.5557C51.8468 17.5424 52.025 17.4842 52.1815 17.3862V17.3862ZM49.0297 17.5428C48.9224 17.7899 48.9074 18.0673 48.9876 18.3244C48.7295 18.234 48.4472 18.2417 48.1945 18.3462C48.2348 18.1942 48.2428 18.0355 48.2179 17.8802C48.1931 17.725 48.1359 17.5767 48.0501 17.445C48.0551 17.4482 48.0603 17.451 48.0658 17.4532C48.2351 17.5283 48.4202 17.5605 48.6049 17.547C48.7895 17.5335 48.968 17.4747 49.1245 17.3757C49.0886 17.4289 49.0569 17.4848 49.0297 17.5428V17.5428ZM50.5199 16.9645C50.3506 16.8895 50.1654 16.8574 49.9808 16.871C49.7961 16.8846 49.6177 16.9436 49.4612 17.0426C49.4974 16.9901 49.5289 16.9345 49.5553 16.8765C49.66 16.6365 49.677 16.3673 49.6034 16.116C49.7543 16.1695 49.9149 16.1901 50.0743 16.1764C50.2338 16.1628 50.3886 16.1152 50.5282 16.0369C50.4673 16.1972 50.4441 16.3695 50.4604 16.5402C50.4767 16.711 50.5321 16.8757 50.6222 17.0217C50.5868 17.0029 50.556 16.9804 50.5191 16.9645H50.5199Z" fill="#00AEEF"/>
<path d="M44.8881 7.93127C44.9116 7.9424 44.9372 7.94869 44.9632 7.94977C44.9892 7.95086 45.0152 7.94671 45.0396 7.93758C45.064 7.92846 45.0863 7.91453 45.1053 7.89663C45.1242 7.87873 45.1393 7.85722 45.1498 7.83337C45.1603 7.80951 45.1659 7.7838 45.1662 7.75776C45.1666 7.73171 45.1617 7.70585 45.1519 7.68171C45.1422 7.65757 45.1276 7.63564 45.1092 7.61721C45.0908 7.59878 45.0689 7.58423 45.0447 7.57442C44.9977 7.55529 44.9451 7.55527 44.898 7.57436C44.851 7.59345 44.8132 7.63014 44.7928 7.67663C44.7724 7.72312 44.7709 7.77574 44.7887 7.8233C44.8065 7.87085 44.8422 7.90959 44.8881 7.93127V7.93127Z" fill="#00AEEF"/>
<path d="M47.3671 12.485C47.447 12.3045 47.4528 12.1 47.3832 11.9153C47.3137 11.7307 47.1744 11.5807 46.9954 11.4978C46.8163 11.4149 46.6119 11.4056 46.4261 11.4719C46.2402 11.5383 46.0879 11.675 46.002 11.8526C46.2986 12.1749 46.5539 12.533 46.7618 12.9186C47.0198 12.8877 47.2558 12.7393 47.3671 12.485Z" fill="#00AEEF"/>
<path d="M44.8245 10.5526C44.7802 10.6596 44.7731 10.7784 44.8044 10.8899C45 11.0059 45.1876 11.135 45.366 11.2761C45.4801 11.2641 45.5869 11.2146 45.6698 11.1354C45.7528 11.0561 45.807 10.9516 45.8242 10.8382C45.8413 10.7248 45.8203 10.6089 45.7645 10.5087C45.7087 10.4085 45.6213 10.3297 45.5159 10.2845C45.3886 10.2286 45.2444 10.2254 45.1148 10.2756C44.9852 10.3259 44.8808 10.4255 44.8245 10.5526V10.5526Z" fill="#00AEEF"/>
<path d="M102.254 4.56824C102.383 4.56913 102.509 4.60252 102.622 4.66531C102.74 4.7281 102.837 4.824 102.901 4.9412C102.966 5.05451 103 5.18287 103 5.31358C103.001 5.44428 102.967 5.57278 102.902 5.68633C102.838 5.80302 102.743 5.89899 102.626 5.96283C102.513 6.02733 102.385 6.06125 102.255 6.06125C102.124 6.06125 101.996 6.02733 101.883 5.96283C101.767 5.89894 101.671 5.80299 101.607 5.68633C101.542 5.57289 101.508 5.44435 101.508 5.31358C101.508 5.18281 101.543 5.0544 101.608 4.9412C101.673 4.82405 101.77 4.72818 101.888 4.66531C102 4.60275 102.126 4.56937 102.254 4.56824V4.56824ZM102.254 4.69189C102.147 4.69249 102.041 4.7202 101.948 4.77244C101.85 4.82531 101.769 4.90538 101.715 5.00303C101.661 5.09732 101.632 5.2044 101.631 5.31348C101.631 5.42255 101.66 5.52976 101.714 5.6243C101.768 5.72141 101.848 5.8013 101.945 5.85469C102.039 5.90882 102.146 5.93731 102.255 5.93731C102.363 5.93731 102.47 5.90882 102.564 5.85469C102.661 5.80137 102.741 5.72145 102.795 5.6243C102.849 5.52963 102.877 5.42247 102.877 5.31348C102.877 5.20448 102.848 5.09745 102.793 5.00303C102.74 4.90523 102.659 4.82518 102.56 4.77264C102.467 4.72034 102.361 4.69256 102.254 4.69189V4.69189ZM101.927 5.72761V4.92429H102.202C102.296 4.92429 102.365 4.93174 102.407 4.94664C102.448 4.9608 102.484 4.98811 102.508 5.02438C102.532 5.05881 102.545 5.09985 102.546 5.14198C102.546 5.17042 102.54 5.19863 102.53 5.22494C102.519 5.25126 102.503 5.27515 102.483 5.29524C102.438 5.33984 102.379 5.36597 102.316 5.36834C102.341 5.37819 102.364 5.39259 102.384 5.41083C102.429 5.45949 102.469 5.5129 102.503 5.57013L102.601 5.72741H102.442L102.371 5.60074C102.315 5.50112 102.27 5.43883 102.236 5.41386C102.205 5.39335 102.168 5.38358 102.132 5.38606H102.056V5.72741H101.926L101.927 5.72761ZM102.056 5.2755H102.213C102.288 5.2755 102.34 5.26429 102.367 5.24187C102.389 5.22353 102.403 5.19776 102.407 5.16954C102.411 5.14132 102.404 5.11264 102.388 5.08902C102.375 5.06981 102.356 5.05515 102.334 5.04693C102.291 5.03532 102.247 5.03063 102.203 5.03304H102.056V5.2747V5.2755Z" fill="#717271"/>
</g>
<defs>
<clipPath id="clip0">
<rect width="103" height="25.1679" fill="white" transform="translate(0 0.522339)"/>
</clipPath>
</defs>
</svg>
