<svg width="75" height="76" viewBox="0 0 75 76" fill="none" xmlns="http://www.w3.org/2000/svg">
<g clip-path="url(#clip0)">
<path d="M75 0.5H0V75.5H75V0.5Z" fill="white"/>
<path d="M3.85156 4.35138H71.3516V71.8514H3.85156V4.35138Z" fill="#FFCC00"/>
<path d="M37.4991 51.1757C55.1343 51.1757 69.3235 45.2973 69.3235 38C69.3235 30.7027 55.1343 24.8243 37.4991 24.8243C19.864 24.8243 5.6748 30.7027 5.6748 38C5.6748 45.2973 19.864 51.1757 37.4991 51.1757Z" fill="#00678F"/>
<path d="M45.6085 34.7569L46.4194 31.5137H35.4734L34.6626 34.7569H38.3112L36.4869 41.8515H40.3383L42.1626 34.7569H45.6085Z" fill="#FFCC00"/>
<path d="M34.4593 31.5137H28.9863L25.5404 39.2164V31.5137H20.2701L17.0269 44.6893H20.6755L22.9052 36.1758V44.6893H25.7431L29.7971 36.1758L27.7701 44.6893H31.216L34.4593 31.5137Z" fill="white"/>
<path d="M57.9733 31.5137H54.5274L52.703 38.4056L51.0814 31.5137H47.2301L43.9868 44.6893H47.4328L49.2571 37.5948L51.0814 44.6893H54.7301L57.9733 31.5137Z" fill="white"/>
<path d="M36.2843 42.6622L35.8789 44.4866H39.5276L39.933 42.6622H36.2843Z" fill="#FF0000"/>
</g>
<defs>
<clipPath id="clip0">
<rect width="75" height="75" fill="white" transform="translate(0 0.5)"/>
</clipPath>
</defs>
</svg>
