<svg width="121" height="23" viewBox="0 0 121 23" fill="none" xmlns="http://www.w3.org/2000/svg">
<g clip-path="url(#clip0)">
<path d="M42.2938 17.4954L38.9835 10.5567C38.1932 8.91716 37.3817 7.05461 37.1046 6.17908L37.0406 6.24303C37.1472 7.4809 37.1685 9.04013 37.1898 10.3419L37.2751 17.4954H34.8633V2.7196H37.6391L41.2264 9.93369C41.8277 11.1602 42.3347 12.4307 42.743 13.7342L42.807 13.6703C42.743 12.9226 42.5938 10.8092 42.5938 9.46313L42.5512 2.71632H44.8794V17.4921L42.2938 17.4954Z" fill="black"/>
<path d="M49.2752 12.7341V12.898C49.2752 14.3933 49.831 15.9722 51.9444 15.9722C52.9478 15.9722 53.8233 15.6099 54.6349 14.9049L55.5531 16.3362C54.4763 17.2722 53.094 17.7814 51.6673 17.7675C48.6144 17.7675 46.6929 15.5689 46.6929 12.1094C46.6929 10.2091 47.0978 8.94831 48.039 7.88095C48.9145 6.87754 49.9818 6.4283 51.3492 6.4283C52.4459 6.39373 53.5121 6.79251 54.3169 7.53828C55.2563 8.3925 55.7269 9.71563 55.7269 12.2356V12.7275L49.2752 12.7341ZM51.346 8.20723C50.0228 8.20723 49.2965 9.25327 49.2965 11.0043H53.2888C53.2888 9.25655 52.5215 8.20723 51.346 8.20723Z" fill="black"/>
<path d="M68.2216 17.538H66.0148L64.6916 12.5636C64.3506 11.2831 63.9866 9.61234 63.9866 9.61234H63.944C63.944 9.61234 63.78 10.6797 63.239 12.6652L61.9372 17.5331H59.7369L56.7856 6.83491L59.1138 6.507L60.2878 11.7389C60.5862 13.0833 60.8436 14.5786 60.8436 14.5786H60.9075C61.065 13.6008 61.2718 12.6317 61.5273 11.6749L62.916 6.67915H65.2229L66.4411 11.5519C66.8903 13.303 67.1247 14.6261 67.1247 14.6261H67.1887C67.1887 14.6261 67.4445 12.9866 67.7232 11.7225L68.8332 6.68243H71.2679L68.2216 17.538Z" fill="black"/>
<path d="M84.954 17.4954L83.6735 15.2098C82.6504 13.3965 81.9651 12.3717 81.1535 11.5519C81.035 11.4126 80.8875 11.3009 80.7212 11.2248C80.5549 11.1486 80.374 11.1097 80.1911 11.1109V17.4954H77.7793V2.7196H82.2848C85.5951 2.7196 87.0888 4.64117 87.0888 6.94804C87.0888 9.06144 85.723 11.006 83.4161 11.006C83.9506 11.2831 84.9327 12.7144 85.7 13.9572L87.8774 17.5019L84.954 17.4954ZM81.5372 4.70675H80.1911V9.3828H81.4503C82.7308 9.3828 83.4178 9.21884 83.8637 8.76304C84.2687 8.35807 84.5196 7.73831 84.5196 6.96935C84.5278 5.47407 83.7162 4.70511 81.5372 4.70511V4.70675Z" fill="black"/>
<path d="M91.1023 12.7341V12.898C91.1023 14.3933 91.6582 15.9722 93.7716 15.9722C94.775 15.9722 95.6505 15.6099 96.4621 14.9049L97.3802 16.3362C96.3035 17.2722 94.9211 17.7814 93.4945 17.7675C90.4416 17.7675 88.52 15.5689 88.52 12.1094C88.52 10.2091 88.925 8.94831 89.8661 7.88095C90.7416 6.87754 91.809 6.4283 93.1764 6.4283C94.2731 6.39373 95.3392 6.79251 96.144 7.53828C97.0835 8.3925 97.554 9.71563 97.554 12.2356V12.7275L91.1023 12.7341ZM93.1748 8.20723C91.8516 8.20723 91.1253 9.25327 91.1253 11.0043H95.1111C95.1111 9.25655 94.3487 8.20723 93.1748 8.20723Z" fill="black"/>
<path d="M101.949 17.7315C99.5785 17.7315 99.5785 15.6 99.5785 14.6786V5.47407C99.6058 4.41689 99.5372 3.35942 99.3735 2.31463L101.787 1.78013C101.951 2.43595 101.979 3.33935 101.979 4.74774V13.908C101.979 15.3607 102.043 15.5951 102.213 15.8509C102.307 15.9576 102.432 16.0313 102.57 16.0609C102.709 16.0904 102.854 16.0743 102.982 16.0148L103.366 17.4675C102.916 17.648 102.434 17.7377 101.949 17.7315Z" fill="black"/>
<path d="M106.027 5.09041C105.825 5.0885 105.625 5.04655 105.439 4.96698C105.253 4.88742 105.085 4.77181 104.944 4.62685C104.803 4.48188 104.692 4.31042 104.618 4.12236C104.543 3.93431 104.507 3.73338 104.511 3.53118C104.513 3.22425 104.606 2.92495 104.779 2.67131C104.952 2.41768 105.196 2.22117 105.481 2.10676C105.766 1.99235 106.079 1.96521 106.379 2.02879C106.679 2.09237 106.954 2.24379 107.168 2.46382C107.382 2.68385 107.525 2.96253 107.581 3.26446C107.636 3.56639 107.6 3.87792 107.478 4.15946C107.356 4.441 107.152 4.67983 106.894 4.8456C106.636 5.01137 106.334 5.09658 106.027 5.09041V5.09041ZM104.853 17.497V6.86278L107.224 6.43486V17.4954L104.853 17.497Z" fill="black"/>
<path d="M113.949 17.7741C110.998 17.7741 109.358 15.7033 109.358 12.2225C109.358 8.28756 111.708 6.41518 114.113 6.41518C115.287 6.41518 116.141 6.69227 117.102 7.58911L115.933 9.1467C115.292 8.56957 114.738 8.3138 114.118 8.3138C113.758 8.3077 113.404 8.40766 113.1 8.60123C112.796 8.79481 112.556 9.07345 112.41 9.40247C112.082 10.0583 111.962 11.0683 111.962 12.4127C111.962 13.8883 112.196 14.8262 112.688 15.3639C112.869 15.5627 113.091 15.7207 113.337 15.8276C113.584 15.9344 113.851 15.9876 114.12 15.9837C114.867 15.9837 115.595 15.6213 116.297 14.9163L117.407 16.3477C116.425 17.3249 115.4 17.7741 113.949 17.7741Z" fill="black"/>
<path d="M119.411 17.7331C119.097 17.7347 118.79 17.6431 118.528 17.4699C118.266 17.2967 118.062 17.0496 117.94 16.7601C117.819 16.4705 117.787 16.1515 117.847 15.8434C117.907 15.5353 118.057 15.252 118.279 15.0295C118.5 14.8069 118.783 14.6551 119.091 14.5933C119.398 14.5314 119.717 14.5623 120.008 14.6821C120.298 14.8019 120.546 15.0051 120.721 15.266C120.895 15.5269 120.988 15.8337 120.988 16.1476C120.989 16.3554 120.949 16.5613 120.87 16.7535C120.791 16.9457 120.675 17.1205 120.529 17.2678C120.382 17.415 120.208 17.532 120.016 17.6118C119.824 17.6917 119.619 17.7329 119.411 17.7331V17.7331ZM119.411 14.877C119.156 14.8658 118.904 14.9312 118.687 15.0647C118.47 15.1981 118.298 15.3935 118.193 15.6257C118.088 15.8579 118.055 16.1162 118.098 16.3673C118.141 16.6184 118.259 16.8509 118.435 17.0347C118.612 17.2186 118.839 17.3453 119.088 17.3987C119.337 17.452 119.597 17.4295 119.833 17.3341C120.069 17.2386 120.272 17.0746 120.414 16.8631C120.556 16.6517 120.632 16.4025 120.631 16.1476C120.635 15.9837 120.607 15.8205 120.548 15.6675C120.489 15.5145 120.401 15.3748 120.287 15.2564C120.174 15.138 120.038 15.0434 119.887 14.978C119.737 14.9126 119.575 14.8777 119.411 14.8753V14.877ZM119.723 17.0265C119.654 16.9068 119.624 16.8625 119.559 16.7313C119.383 16.4116 119.329 16.3214 119.265 16.2968C119.248 16.2881 119.229 16.2836 119.209 16.2837V17.0265H118.86V15.2475H119.516C119.586 15.2427 119.656 15.2529 119.721 15.2772C119.787 15.3016 119.846 15.3396 119.896 15.3888C119.945 15.438 119.984 15.4972 120.009 15.5624C120.034 15.6277 120.045 15.6975 120.041 15.7673C120.051 15.8846 120.015 16.0014 119.941 16.0931C119.867 16.1848 119.761 16.2443 119.644 16.2591C119.671 16.2816 119.695 16.3075 119.716 16.3362C119.818 16.4641 120.142 17.0265 120.142 17.0265H119.723ZM119.541 15.559C119.475 15.5409 119.408 15.532 119.341 15.5328H119.213V16.0148H119.332C119.486 16.0148 119.554 15.9968 119.601 15.9542C119.647 15.9061 119.672 15.8418 119.67 15.7755C119.675 15.7302 119.665 15.6847 119.641 15.6456C119.618 15.6066 119.583 15.5762 119.541 15.559V15.559Z" fill="black"/>
<path d="M26.531 8.40758C25.2768 2.64451 18.366 -0.744475 11.0929 0.836067C3.81976 2.41661 -1.05795 8.37151 0.194681 14.1329C1.44731 19.8944 8.35972 23.2866 15.6312 21.7045C22.9027 20.1223 27.7837 14.1756 26.531 8.40758ZM13.3637 16.5825C12.313 16.5825 11.286 16.2709 10.4124 15.6872C9.5388 15.1035 8.85792 14.2738 8.45585 13.3032C8.05378 12.3325 7.94858 11.2644 8.15356 10.2339C8.35853 9.20344 8.86447 8.2569 9.60739 7.51398C10.3503 6.77105 11.2969 6.26512 12.3273 6.06014C13.3578 5.85517 14.4259 5.96037 15.3966 6.36244C16.3672 6.76451 17.1969 7.44538 17.7806 8.31897C18.3643 9.19256 18.6759 10.2196 18.6759 11.2703C18.6759 11.9679 18.5385 12.6587 18.2715 13.3032C18.0045 13.9477 17.6133 14.5333 17.12 15.0266C16.6267 15.5198 16.0411 15.9111 15.3966 16.1781C14.7521 16.4451 14.0613 16.5825 13.3637 16.5825V16.5825Z" fill="#008C99"/>
<path d="M14.5382 3.83286C13.0298 3.83319 11.5553 4.28079 10.3012 5.11909C9.04711 5.95738 8.06976 7.14871 7.49272 8.54243C6.91568 9.93616 6.76487 11.4697 7.05936 12.9491C7.35384 14.4286 8.0804 15.7875 9.14715 16.854C10.2139 17.9205 11.573 18.6468 13.0525 18.941C14.532 19.2351 16.0655 19.084 17.4591 18.5066C18.8527 17.9293 20.0438 16.9517 20.8818 15.6974C21.7198 14.4432 22.1671 12.9686 22.1671 11.4601C22.1671 10.4584 21.9698 9.46641 21.5864 8.54092C21.203 7.61543 20.641 6.77453 19.9326 6.06626C19.2241 5.35798 18.3831 4.79619 17.4576 4.41298C16.532 4.02977 15.54 3.83265 14.5382 3.83286V3.83286ZM13.3627 15.9099C12.445 15.9099 11.5479 15.6378 10.7848 15.1279C10.0218 14.6181 9.42707 13.8934 9.07588 13.0456C8.72469 12.1977 8.6328 11.2648 8.81184 10.3647C8.99087 9.46466 9.43279 8.63789 10.0817 7.98898C10.7306 7.34007 11.5574 6.89815 12.4574 6.71912C13.3575 6.54008 14.2905 6.63197 15.1383 6.98316C15.9861 7.33435 16.7108 7.92907 17.2207 8.69211C17.7305 9.45514 18.0026 10.3522 18.0026 11.2699C18.0026 12.5002 17.514 13.6802 16.6442 14.5503C15.7744 15.4204 14.5946 15.9095 13.3643 15.9099H13.3627Z" fill="#70CCD3"/>
</g>
<defs>
<clipPath id="clip0">
<rect width="121" height="21.6423" fill="white" transform="translate(0 0.447155)"/>
</clipPath>
</defs>
</svg>
