<svg width="118" height="22" viewBox="0 0 118 22" fill="none" xmlns="http://www.w3.org/2000/svg">
<path fill-rule="evenodd" clip-rule="evenodd" d="M67.7335 6.70775C69.5833 6.70775 71.0019 7.64308 71.5919 8.49944V1.66672C71.592 1.60095 71.6113 1.53664 71.6476 1.48175C71.6838 1.42685 71.7353 1.38378 71.7958 1.35784C71.8359 1.34084 71.8789 1.33199 71.9225 1.33181H74.9332C74.9989 1.33166 75.0632 1.35126 75.1177 1.38809C75.1721 1.42491 75.2143 1.47725 75.2386 1.53831C75.255 1.57912 75.2633 1.62274 75.2629 1.66672V20.0522C75.2625 20.1398 75.2277 20.2238 75.166 20.286C75.1044 20.3483 75.0208 20.384 74.9332 20.3853H72.0222C71.9654 20.3855 71.9091 20.3743 71.8566 20.3525C71.8041 20.3307 71.7565 20.2987 71.7164 20.2583C71.6764 20.218 71.6448 20.1701 71.6234 20.1174C71.602 20.0647 71.5913 20.0084 71.5919 19.9515V18.886C71.0036 19.7433 69.5833 20.6803 67.7335 20.6803C64.17 20.6803 61.4369 17.4874 61.4369 13.6897C61.4369 9.89028 64.17 6.70775 67.7335 6.70775V6.70775ZM65.134 13.6897C65.134 15.7764 66.5005 17.3278 68.5109 17.3278C70.5229 17.3278 71.8869 15.7764 71.8869 13.6897C71.8869 11.6021 70.5212 10.0508 68.5109 10.0508C66.5005 10.0508 65.134 11.6021 65.134 13.6897ZM56.2562 14.9738V10.5454C56.2562 10.4569 56.2909 10.3718 56.3534 10.3094C56.3839 10.2784 56.4203 10.2539 56.4603 10.237C56.5004 10.2202 56.5434 10.2115 56.5868 10.2113H59.1654C59.209 10.2113 59.252 10.2027 59.2922 10.186C59.3324 10.1692 59.3689 10.1447 59.3995 10.1138C59.4302 10.0829 59.4544 10.0463 59.4708 10.006C59.4872 9.96567 59.4955 9.92252 59.4951 9.879V7.33419C59.4947 7.24656 59.4599 7.1626 59.3983 7.10031C59.3367 7.03803 59.2531 7.00238 59.1654 7.00102H56.5868C56.5432 7.00102 56.5 6.99238 56.4598 6.97559C56.4196 6.95881 56.3831 6.93421 56.3524 6.90322C56.3218 6.87224 56.2975 6.83548 56.2812 6.79508C56.2648 6.75468 56.2566 6.71143 56.2571 6.66784V3.61372C56.2562 3.52602 56.221 3.44215 56.1591 3.38004C56.0971 3.31794 56.0133 3.28254 55.9256 3.28141H52.9149C52.8492 3.28126 52.7849 3.30087 52.7304 3.33769C52.676 3.37451 52.6338 3.42685 52.6095 3.48791C52.5932 3.52845 52.5849 3.57177 52.5852 3.61546C52.5852 6.80319 52.5028 6.98887 50.3076 6.99928C50.2513 6.99947 50.1956 7.01075 50.1436 7.03248C50.0917 7.05422 50.0445 7.08598 50.0048 7.12596C49.9244 7.20699 49.8789 7.31633 49.8781 7.4305V9.77922C49.8783 9.86448 49.9035 9.9478 49.9508 10.0188C49.998 10.0898 50.0651 10.1453 50.1436 10.1783C50.1956 10.1998 50.2514 10.2107 50.3076 10.2104H52.2546C52.2983 10.2104 52.3415 10.2191 52.3818 10.2359C52.4221 10.2528 52.4586 10.2775 52.4893 10.3085C52.52 10.3396 52.5442 10.3765 52.5605 10.417C52.5768 10.4575 52.5849 10.5008 52.5843 10.5445V15.6948C52.5843 18.9667 54.8628 20.538 57.7034 20.538C58.4037 20.5535 59.103 20.4786 59.7841 20.3151C59.8559 20.2971 59.9196 20.2555 59.965 20.197C60.0103 20.1384 60.0346 20.0663 60.034 19.9923V17.4527C60.0333 17.3767 60.0069 17.3032 59.9589 17.2442C59.911 17.1852 59.8444 17.1443 59.7702 17.1282C59.7208 17.1178 59.6698 17.119 59.621 17.1317C59.2644 17.2126 58.8994 17.251 58.5338 17.2462C56.9529 17.2462 56.2562 16.605 56.2562 14.973V14.9738ZM20.5786 13.6897C20.5786 9.72977 23.5546 6.70775 27.6282 6.70775C31.1404 6.70775 34.2197 8.95496 34.2258 13.2967C34.2258 13.5535 34.2258 13.8468 34.198 14.2407C34.1922 14.3249 34.155 14.4038 34.0938 14.462C34.0326 14.5201 33.9519 14.5532 33.8675 14.5548H24.1498C24.3641 16.3473 25.9432 17.3364 27.7141 17.3364C29.2177 17.3364 30.3491 16.6996 30.9877 15.9039C31.0407 15.8402 31.1159 15.7991 31.1981 15.7889C31.2804 15.7787 31.3634 15.8003 31.4302 15.8493L33.6332 17.4848C33.6866 17.5239 33.7271 17.5781 33.7495 17.6404C33.772 17.7027 33.7752 17.7703 33.759 17.8345C33.7484 17.8771 33.7296 17.9172 33.7035 17.9525C32.4428 19.594 30.3526 20.6803 27.682 20.6803C23.6882 20.6803 20.5794 17.916 20.5794 13.6897H20.5786ZM27.5232 9.7341C26.1523 9.7341 24.6261 10.4256 24.2782 12.062H30.5513C30.2303 10.4777 28.8941 9.7341 27.5232 9.7341V9.7341ZM44.6966 7.00188H48.2366C48.2969 7.00141 48.3562 7.01761 48.408 7.04869C48.4597 7.07976 48.5019 7.12452 48.5298 7.17802C48.558 7.23142 48.5713 7.29145 48.5682 7.35176C48.5652 7.41208 48.5459 7.47045 48.5125 7.52074L44.4311 13.6316C44.3922 13.6875 44.3714 13.7539 44.3714 13.822C44.3714 13.8901 44.3922 13.9565 44.4311 14.0125L48.5984 19.85C48.6336 19.8998 48.6546 19.9583 48.659 20.0192C48.6635 20.0801 48.6512 20.141 48.6235 20.1954C48.5958 20.2498 48.5538 20.2956 48.5019 20.3279C48.4501 20.3601 48.3904 20.3776 48.3294 20.3784H44.7894C44.7367 20.3782 44.6848 20.3654 44.6382 20.3409C44.5915 20.3164 44.5514 20.2811 44.5213 20.2378L41.822 16.4185L39.1237 20.2378C39.0933 20.2809 39.0532 20.3161 39.0066 20.3405C38.96 20.365 38.9082 20.3779 38.8556 20.3784H35.2878C35.2265 20.3786 35.1664 20.3617 35.1142 20.3295C35.0621 20.2973 35.02 20.2511 34.9928 20.1962C34.9652 20.1416 34.953 20.0805 34.9576 20.0195C34.9622 19.9585 34.9834 19.8999 35.0188 19.85L39.1922 14.0125C39.2306 13.9562 39.2512 13.8897 39.2512 13.8216C39.2512 13.7535 39.2306 13.6869 39.1922 13.6307L35.1091 7.52074C35.0841 7.48323 35.067 7.44107 35.0587 7.39679C35.0505 7.35251 35.0512 7.30701 35.0609 7.26303C35.0706 7.21904 35.0891 7.17747 35.1153 7.1408C35.1415 7.10413 35.1747 7.07311 35.2132 7.04961C35.2644 7.01845 35.3232 7.00194 35.3832 7.00188H38.8937C38.9483 7.0017 39.0021 7.01518 39.0501 7.0411C39.0982 7.06701 39.139 7.10454 39.1688 7.15025L41.7951 11.0954L44.4232 7.15025C44.4532 7.10488 44.4939 7.0676 44.5418 7.04172C44.5896 7.01584 44.643 7.00216 44.6974 7.00188H44.6966ZM115.457 6.84137C113.956 6.84137 112.59 7.83049 112.134 9.14237V7.33506C112.134 7.29146 112.125 7.24825 112.109 7.20789C112.092 7.16754 112.068 7.13083 112.037 7.09988C112.007 7.06893 111.97 7.04434 111.93 7.02753C111.89 7.01071 111.847 7.002 111.803 7.00188H108.794C108.75 7.00165 108.707 7.01012 108.666 7.02681C108.626 7.04349 108.589 7.06805 108.558 7.09906C108.528 7.13007 108.503 7.1669 108.487 7.20742C108.47 7.24794 108.462 7.29133 108.463 7.33506V20.0435C108.463 20.1316 108.497 20.216 108.56 20.2785C108.622 20.3409 108.706 20.3762 108.794 20.3767H111.803C111.847 20.3765 111.89 20.3678 111.93 20.351C111.97 20.3342 112.007 20.3096 112.037 20.2787C112.068 20.2477 112.092 20.211 112.109 20.1707C112.125 20.1303 112.134 20.0871 112.134 20.0435V13.9821C112.134 11.7887 113.288 10.4248 115.029 10.4248C115.451 10.4248 115.87 10.4811 116.276 10.5922C116.349 10.6125 116.428 10.6062 116.497 10.5745C116.567 10.5428 116.623 10.4876 116.656 10.4187C116.678 10.3732 116.69 10.3235 116.69 10.2729V7.25958C116.691 7.18257 116.664 7.1079 116.615 7.04826C116.567 6.98863 116.499 6.94771 116.423 6.93247C116.105 6.86677 115.781 6.83622 115.457 6.84137V6.84137ZM77.0867 13.6897C77.0867 9.78356 80.2475 6.70775 84.1337 6.70775C88.019 6.70775 91.1816 9.77575 91.1816 13.6897C91.1816 17.6028 88.0208 20.6803 84.1337 20.6803C80.2467 20.6803 77.0858 17.595 77.0858 13.6897H77.0867ZM80.7837 13.6897C80.7837 15.7495 82.2049 17.2471 84.1337 17.2471C86.0634 17.2471 87.4559 15.7495 87.4559 13.6897C87.4559 11.629 86.0634 10.1315 84.1337 10.1315C82.2041 10.1315 80.7846 11.629 80.7846 13.6888L80.7837 13.6897ZM99.5935 6.70775C95.7081 6.70775 92.5456 9.78356 92.5456 13.6897C92.5456 17.595 95.7081 20.6803 99.5935 20.6803C103.479 20.6803 106.641 17.6028 106.641 13.6897C106.641 9.77662 103.479 6.70775 99.5935 6.70775ZM99.5935 17.2471C97.6638 17.2471 96.2435 15.7495 96.2435 13.6897C96.2435 11.629 97.6638 10.1315 99.5935 10.1315C101.523 10.1315 102.917 11.629 102.917 13.6888C102.917 15.7495 101.523 17.2471 99.5935 17.2471ZM6.2407 9.4365C7.4207 7.68733 9.52561 6.5455 11.9932 6.5455C15.8109 6.5455 18.7574 9.27859 18.7574 12.7553V20.0435C18.7572 20.1312 18.7225 20.2153 18.6608 20.2776C18.5991 20.3399 18.5154 20.3755 18.4277 20.3767H15.3909C15.3473 20.3767 15.3042 20.368 15.2639 20.3512C15.2237 20.3345 15.1872 20.3099 15.1565 20.2789C15.1259 20.2479 15.1017 20.2111 15.0853 20.1707C15.0689 20.1303 15.0607 20.0871 15.0612 20.0435V13.2628C15.0612 11.7557 13.9107 10.0465 11.9932 10.0465C9.98373 10.0465 8.9252 11.7557 8.9252 13.2628V20.0418C8.92452 20.1298 8.88932 20.214 8.82717 20.2763C8.76502 20.3386 8.6809 20.374 8.59289 20.3749H5.55786C5.4924 20.3754 5.42829 20.3562 5.37385 20.3199C5.3194 20.2835 5.27711 20.2317 5.25245 20.171C5.23579 20.1306 5.22724 20.0872 5.22729 20.0435V13.4815C5.2261 13.3857 5.19356 13.2929 5.13464 13.2174C5.07572 13.1419 4.99367 13.0877 4.90105 13.0633C2.2313 12.3318 1.24826 10.2894 1.17972 7.36543C1.17884 7.29889 1.19776 7.2336 1.23406 7.17783C1.27036 7.12206 1.32242 7.07834 1.38361 7.05221C1.42423 7.03498 1.46791 7.02613 1.51203 7.02618H3.90673V7.04353H4.63122C4.71706 7.04415 4.79936 7.07787 4.86095 7.13768C4.92254 7.19749 4.95866 7.27877 4.96179 7.36456C4.9965 8.56018 5.23423 9.20224 5.7982 9.54409C5.87164 9.58687 5.95881 9.59947 6.04136 9.57924C6.1239 9.55901 6.19537 9.50752 6.2407 9.43563V9.4365Z" fill="#8ED500"/>
</svg>
