<svg width="108" height="24" viewBox="0 0 108 24" fill="none" xmlns="http://www.w3.org/2000/svg">
<g clip-path="url(#clip0)">
<path d="M21.9133 0.602905L17.9055 15.5564L12.9741 0.602905H6.18356L0 23.6755H5.64075L9.93206 7.64991L15.1965 23.6755H21.3649L27.5484 0.602905H21.9133ZM102.365 0.602905L96.1813 23.6755H101.816L108 0.602905H102.365ZM30.9274 0.602905L24.7404 23.6755H30.375L36.5625 0.602905H30.9274ZM94.0101 14.203L95.1598 9.91228H85.5591L86.7966 5.29191H97.551L98.8087 0.602905H82.4192L76.3734 23.1592L71.9263 11.2792H70.1758L80.7283 0.602905H74.0768L64.2274 10.3988L66.8531 0.602905H61.2174L55.1379 23.2874L50.6441 11.2792H48.8936L59.4461 0.602905H52.7946L42.9452 10.3988L45.5709 0.602905H39.9375L33.75 23.6755H39.3868L42.7095 11.2792H44.7024L48.7586 23.6755H60.669L63.9917 11.2792H65.9846L70.0408 23.6755H92.7838L94.0388 18.9933H83.1263L84.4099 14.203H94.0101Z" fill="#003E70"/>
</g>
<defs>
<clipPath id="clip0">
<rect width="108" height="23.0816" fill="white" transform="translate(0 0.602905)"/>
</clipPath>
</defs>
</svg>
