<svg width="61" height="62" viewBox="0 0 61 62" fill="none" xmlns="http://www.w3.org/2000/svg">
<path d="M61 0H0V61.0027H61V0Z" fill="#F58220"/>
<path d="M17.8222 47.4559L10.9843 34.7823L11.0974 47.4452H6.61963V26.2389H11.0894L17.9354 38.9018L17.8222 26.2389H22.3V47.4532H17.8222V47.4559Z" fill="white"/>
<path d="M29.2109 47.4559H24.6846V26.2389H31.8997C37.6142 26.2389 39.5863 28.8415 39.4813 32.8855C39.3843 36.512 38.0291 37.525 35.7956 38.6L40.9873 47.4532H35.6932L31.4067 39.5053H29.2082V47.4532L29.2109 47.4559ZM29.2109 35.4047H32.2931C34.303 35.4047 34.5589 34.0575 34.5589 32.8882C34.5589 31.719 34.303 30.3718 32.2931 30.3718H29.2109V35.4073V35.4047Z" fill="white"/>
<path d="M49.9699 25.8428C52.4298 25.8428 53.5344 26.2954 54.3831 26.6376V30.9079C53.1371 30.3545 51.7857 30.0787 50.4226 30.0997C46.9713 30.0997 45.3871 31.4845 45.3871 36.8595C45.3871 42.2345 46.9713 43.6193 50.4226 43.6193C51.7857 43.6403 53.1371 43.3645 54.3831 42.811V47.0598C53.5344 47.3993 52.4298 47.8492 49.9699 47.8492C43.7732 47.8492 40.8338 44.8236 40.8096 36.846C40.8338 28.8711 43.7759 25.8428 49.9699 25.8428Z" fill="white"/>
</svg>
