<svg width="74" height="54" viewBox="0 0 74 54" fill="none" xmlns="http://www.w3.org/2000/svg">
<g clip-path="url(#clip0)">
<path d="M72.7509 52.3081C72.7509 53.0873 72.1787 53.6102 71.5014 53.6102V53.6055C70.8049 53.6102 70.2433 53.0873 70.2433 52.3083C70.2433 51.5296 70.8049 51.0081 71.5014 51.0081C72.179 51.0078 72.7509 51.5294 72.7509 52.3081ZM73.2577 52.3081C73.2577 51.2389 72.4271 50.6182 71.5014 50.6182C70.5694 50.6182 69.7388 51.2389 69.7388 52.3081C69.7388 53.3768 70.5696 53.9999 71.5014 53.9999C72.4273 53.9999 73.2577 53.3768 73.2577 52.3081ZM71.2101 52.4511H71.3981L71.8339 53.2162H72.3124L71.8298 52.4189C72.0792 52.4011 72.2843 52.2823 72.2843 51.9465C72.2843 51.5294 71.9967 51.3953 71.5095 51.3953H70.8047V53.2162H71.2099V52.4511H71.2101ZM71.2101 52.1428V51.7044H71.4919C71.6453 51.7044 71.8541 51.7168 71.8541 51.9038C71.8541 52.1073 71.7461 52.1428 71.5653 52.1428H71.2101" fill="black"/>
<path d="M61.4305 42.9932L63.6203 48.9838H59.173L61.4305 42.9932ZM59.0854 40.6607L54.0391 53.4464H57.6025L58.4007 51.1872H64.3726L65.128 53.4464H68.9964L63.9125 40.6591L59.0854 40.6607ZM48.9542 53.4511H52.5694V40.6568L48.9536 40.656L48.9542 53.4511ZM23.8567 40.656L20.8404 50.7965L17.951 40.6568L14.0503 40.656L18.1769 53.4511H23.3852L27.545 40.656H23.8567V40.656ZM38.4699 43.442H40.0237C42.2779 43.442 43.7358 44.454 43.7358 47.0804C43.7358 49.7074 42.2779 50.7196 40.0237 50.7196H38.4699V43.442ZM34.885 40.656V53.4511H40.746C43.8687 53.4511 44.8883 52.9321 45.9908 51.7676C46.7696 50.95 47.2733 49.1557 47.2733 47.1942C47.2733 45.3952 46.8471 43.7916 46.1039 42.7924C44.7648 41.0053 42.8358 40.656 39.9569 40.656H34.885V40.656ZM0.63916 40.6382V53.4511H4.28497V43.7222L7.10988 43.723C8.04525 43.723 8.71202 43.9561 9.16245 44.4373C9.73376 45.0458 9.96703 46.0281 9.96703 47.8249V53.4511H13.4998V46.3719C13.4998 41.3194 10.2794 40.6382 7.12848 40.6382H0.63916V40.6382ZM29.0666 40.656L29.068 53.4511H32.6816V40.656H29.0666V40.656Z" fill="black"/>
<path d="M10.3549 15.1796C10.3549 15.1796 15.0047 8.31916 24.2888 7.60942V5.12047C14.0055 5.94633 5.10059 14.6558 5.10059 14.6558C5.10059 14.6558 10.1442 29.2359 24.2888 30.5709V27.9254C13.9088 26.6195 10.3549 15.1796 10.3549 15.1796ZM24.2888 22.664V25.0868C16.4438 23.6882 14.2663 15.5333 14.2663 15.5333C14.2663 15.5333 18.0329 11.3606 24.2888 10.6839V13.3425C24.284 13.3425 24.2807 13.3411 24.2768 13.3411C20.9934 12.947 18.4284 16.0143 18.4284 16.0143C18.4284 16.0143 19.8661 21.178 24.2888 22.664ZM24.2888 0.529785V5.12047C24.5907 5.09733 24.8925 5.0777 25.1961 5.06737C36.887 4.67335 44.5045 14.6558 44.5045 14.6558C44.5045 14.6558 35.7556 25.2943 26.6407 25.2943C25.8054 25.2943 25.0233 25.2168 24.2888 25.0866V27.9254C24.9169 28.0051 25.5682 28.052 26.2478 28.052C34.7297 28.052 40.8637 23.7202 46.8032 18.5934C47.7879 19.382 51.8195 21.3007 52.6482 22.1406C47.0009 26.8687 33.8394 30.68 26.3777 30.68C25.6585 30.68 24.9677 30.6364 24.2888 30.5709V34.5599H56.5281V0.529785H24.2888ZM24.2888 10.6839V7.60963C24.5876 7.58876 24.8886 7.57264 25.1961 7.56293C33.603 7.29887 39.1185 14.7874 39.1185 14.7874C39.1185 14.7874 33.1613 23.0611 26.7738 23.0611C25.8546 23.0611 25.0303 22.9134 24.2886 22.664V13.3425C27.5614 13.738 28.2201 15.1837 30.1878 18.4638L34.564 14.7738C34.564 14.7738 31.3695 10.5841 25.9843 10.5841C25.399 10.5839 24.8388 10.625 24.2888 10.6839Z" fill="#77B900"/>
</g>
<defs>
<clipPath id="clip0">
<rect width="72.6186" height="53.4702" fill="white" transform="translate(0.63916 0.529785)"/>
</clipPath>
</defs>
</svg>
