<svg width="122" height="29" viewBox="0 0 122 29" fill="none" xmlns="http://www.w3.org/2000/svg">
<g clip-path="url(#clip0)">
<path d="M14.6101 13.0981C14.2049 13.0981 13.877 13.5813 13.877 14.1792C13.877 14.777 14.2049 15.2596 14.6101 15.2596C15.0153 15.2596 15.3419 14.7763 15.3419 14.1792C15.3419 13.582 15.0126 13.0981 14.6101 13.0981Z" fill="#0074FF"/>
<path d="M12.1465 13.0981C11.742 13.0981 11.4141 13.5813 11.4141 14.1792C11.4141 14.777 11.7413 15.2596 12.1465 15.2596C12.5518 15.2596 12.879 14.7763 12.879 14.1792C12.879 13.582 12.5483 13.0981 12.1465 13.0981Z" fill="#0074FF"/>
<path d="M13.3769 1.90678C10.7312 1.90678 8.14492 2.69133 5.9451 4.1612C3.74528 5.63107 2.03073 7.72026 1.01826 10.1646C0.00579603 12.6089 -0.259111 15.2985 0.25704 17.8934C0.773191 20.4883 2.04722 22.8718 3.91801 24.7426C5.78881 26.6134 8.17234 27.8874 10.7672 28.4036C13.3621 28.9197 16.0517 28.6548 18.496 27.6423C20.9403 26.6299 23.0295 24.9153 24.4994 22.7155C25.9693 20.5157 26.7538 17.9294 26.7538 15.2837C26.7538 11.7359 25.3445 8.33345 22.8358 5.82479C20.3272 3.31613 16.9247 1.90678 13.3769 1.90678V1.90678ZM20.6187 21.2014C19.7745 21.4796 18.8615 21.4673 18.0251 21.1664C17.1887 20.8655 16.4771 20.2934 16.0037 19.5411C16.3661 20.4388 16.9672 21.2201 17.742 21.8006C19.142 22.7906 19.6909 22.6421 19.8779 22.9811C20.1313 23.4395 18.7906 24.1505 17.2891 23.9248C16.4072 23.8162 15.5739 23.4604 14.8854 22.8985C14.197 22.3366 13.6814 21.5915 13.3983 20.7492H13.35C13.0669 21.5915 12.5513 22.3366 11.8629 22.8985C11.1744 23.4604 10.3412 23.8162 9.45918 23.9248C7.95698 24.1505 6.61701 23.4416 6.87037 22.9811C7.05814 22.6414 7.60559 22.7906 9.01045 21.8006C9.78576 21.2204 10.3874 20.439 10.7501 19.5411C10.2768 20.2935 9.56529 20.8659 8.72893 21.167C7.89257 21.4682 6.97948 21.4807 6.13515 21.2028C4.77999 20.8051 4.49833 19.8911 4.80691 19.7068C5.1155 19.5224 5.95358 19.8158 7.37916 19.325C8.01607 19.0816 8.57561 18.6711 8.99887 18.1365C9.42214 17.602 9.69348 16.9632 9.78433 16.2875C9.82482 15.7122 9.70864 15.1368 9.44813 14.6223C9.01528 13.7166 8.3705 12.9738 8.3705 11.3777C8.36293 10.7571 8.47767 10.1411 8.70818 9.56493C8.93869 8.98871 9.28044 8.46355 9.71393 8.01942C10.1474 7.57529 10.6641 7.2209 11.2346 6.97649C11.8051 6.73208 12.4181 6.60243 13.0386 6.59495C13.1553 6.59495 13.2713 6.59495 13.388 6.60323C16.6512 6.60323 18.4054 8.89796 18.4054 11.3777C18.4054 12.9738 17.7703 13.7201 17.3292 14.6223C17.0572 15.1345 16.9329 15.7122 16.9702 16.2909C17.0606 16.9666 17.3316 17.6055 17.7546 18.14C18.1777 18.6746 18.7371 19.0852 19.374 19.3285C20.7996 19.8193 21.6404 19.5252 21.9476 19.7102C22.2548 19.8952 21.9738 20.8072 20.6194 21.2028L20.6187 21.2014Z" fill="#0074FF"/>
<path d="M35.3226 8.25391C33.8422 8.2659 32.4251 8.85548 31.3731 9.89702C30.3211 10.9386 29.7175 12.3497 29.6907 13.8299V16.8612C29.672 17.6161 29.8046 18.3671 30.0807 19.0701C30.3567 19.773 30.7705 20.4135 31.2979 20.9541C31.8252 21.4946 32.4554 21.9242 33.1513 22.2174C33.8471 22.5107 34.5947 22.6618 35.3498 22.6618C36.105 22.6618 36.8525 22.5107 37.5484 22.2174C38.2443 21.9242 38.8744 21.4946 39.4018 20.9541C39.9291 20.4135 40.343 19.773 40.619 19.0701C40.895 18.3671 41.0276 17.6161 41.009 16.8612V13.8299C40.9748 12.3427 40.3613 10.9276 39.2991 9.88607C38.237 8.84455 36.8101 8.25891 35.3226 8.25391V8.25391ZM35.3226 20.1003C34.493 20.0563 33.7119 19.6958 33.1403 19.093C32.5686 18.4903 32.2499 17.6912 32.2498 16.8605V13.8292C32.2606 13.0097 32.5853 12.2257 33.157 11.6385C33.7286 11.0513 34.5037 10.7057 35.3226 10.6729C36.146 10.7077 36.926 11.0522 37.5063 11.6375C38.0867 12.2227 38.4246 13.0055 38.4526 13.8292V16.8612C38.4458 17.6991 38.1174 18.5024 37.5353 19.1052C36.9532 19.708 36.1618 20.0642 35.3246 20.1003H35.3226Z" fill="#0074FF"/>
<path d="M51.4756 19.0434C51.1773 19.0725 50.8952 19.193 50.6679 19.3886C49.9963 19.8903 49.1705 20.1418 48.3332 20.0996C46.1779 20.0996 45.0381 18.9792 45.0381 16.8598V13.8844C45.0381 11.783 46.1682 10.6729 48.3056 10.6729C49.1096 10.639 49.9009 10.8827 50.5464 11.3632C50.7681 11.5552 51.0442 11.6732 51.3362 11.7008C51.6549 11.6734 51.9521 11.5289 52.1705 11.2952C52.3889 11.0615 52.5129 10.7552 52.5188 10.4354C52.5188 9.39988 50.7542 8.25252 48.222 8.25252C44.6267 8.25252 42.479 10.3581 42.479 13.8837V16.8591C42.479 20.4027 44.6357 22.52 48.2496 22.52C50.8626 22.52 52.6844 21.3547 52.6844 20.3109C52.6872 19.9839 52.5626 19.6688 52.3369 19.4321C52.1113 19.1955 51.8023 19.0561 51.4756 19.0434V19.0434Z" fill="#0074FF"/>
<path d="M59.6512 19.9332H58.8725C57.1584 19.9332 56.6634 19.4686 56.6634 17.8622V10.6742H59.8749C60.1583 10.658 60.4239 10.5305 60.6138 10.3196C60.8037 10.1086 60.9026 9.83114 60.889 9.5476C60.9024 9.26388 60.8032 8.98635 60.6131 8.77536C60.4229 8.56438 60.1571 8.43701 59.8735 8.42095H56.6634V3.20743C56.6214 2.90153 56.4642 2.62322 56.2238 2.42935C55.9835 2.23548 55.6783 2.14067 55.3704 2.16431C55.0661 2.14345 54.7654 2.23994 54.53 2.43395C54.2947 2.62796 54.1426 2.90474 54.105 3.20743V17.8622C54.105 20.8238 55.7094 22.326 58.8739 22.326H59.6526C59.8098 22.3276 59.9658 22.2983 60.1117 22.2396C60.2575 22.181 60.3904 22.0942 60.5027 21.9842C60.6151 21.8742 60.7046 21.7431 60.7663 21.5985C60.8279 21.4539 60.8605 21.2985 60.8621 21.1413V21.1158C60.8618 20.802 60.7369 20.5012 60.5149 20.2795C60.2929 20.0578 59.9919 19.9332 59.6782 19.9332H59.6512Z" fill="#0074FF"/>
<path d="M67.3085 8.25391C65.5826 8.25391 63.1788 8.93666 63.1788 10.0488C63.1522 10.3721 63.2522 10.6931 63.4575 10.9442C63.6629 11.1953 63.9577 11.3569 64.2799 11.395C64.5341 11.3716 64.7791 11.2878 64.9944 11.1506C65.6854 10.7681 66.4649 10.5743 67.2546 10.5887C70.0202 10.5887 70.1603 13.4267 70.1603 13.9949V14.2862H69.1179C65.9264 14.2862 62.2627 14.7618 62.2627 18.4718C62.2627 20.9674 63.856 22.5179 66.42 22.5179C67.8521 22.4994 69.2218 21.9286 70.2431 20.9246V21.2249C70.2468 21.3739 70.2798 21.5207 70.3404 21.657C70.4009 21.7932 70.4877 21.9161 70.5958 22.0188C70.704 22.1214 70.8313 22.2016 70.9705 22.255C71.1097 22.3083 71.2581 22.3336 71.4071 22.3294H71.4533C71.7572 22.3599 72.0606 22.2684 72.297 22.0751C72.5334 21.8819 72.6834 21.6026 72.7139 21.2988C72.7139 21.2767 72.7139 21.2539 72.7187 21.2297V13.9962C72.7194 10.4002 70.6967 8.25391 67.3085 8.25391ZM66.8639 20.2391C66.3872 20.3018 65.9051 20.1725 65.5237 19.8798C65.1423 19.5871 64.8928 19.1549 64.8301 18.6782C64.8136 18.5549 64.8101 18.4301 64.8197 18.3061C64.8197 16.6272 66.5594 16.2903 69.3664 16.2903H70.1582V17.6944C70.1582 18.7251 68.4227 20.2391 66.8632 20.2391H66.8639Z" fill="#0074FF"/>
<path d="M84.1715 0.356279C83.4183 0.356279 82.8501 0.805006 82.8501 1.3994V9.60006C82.4199 9.16548 81.9062 8.82239 81.3399 8.59141C80.7737 8.36042 80.1666 8.24632 79.5551 8.25595C78.1067 8.28803 76.73 8.89289 75.7266 9.93803C74.7233 10.9832 74.1751 12.3834 74.2021 13.8319V16.8625C74.2021 19.8773 76.6784 22.5234 79.4999 22.5234C80.7853 22.5277 82.0201 22.0228 82.9344 21.1192V21.2311C82.9614 21.5376 83.1047 21.8222 83.3348 22.0264C83.565 22.2307 83.8646 22.3391 84.1722 22.3294C84.4806 22.3427 84.7821 22.2355 85.0129 22.0305C85.2438 21.8256 85.3859 21.5389 85.4093 21.2311V1.3994C85.4012 1.25315 85.3643 1.10993 85.3007 0.97796C85.2372 0.845986 85.1482 0.727846 85.039 0.630307C84.9297 0.532768 84.8022 0.457746 84.6639 0.409539C84.5256 0.361332 84.3791 0.340887 84.2329 0.349375C84.2122 0.349375 84.1922 0.354207 84.1715 0.356279ZM82.8501 13.8298V17.7227C82.6497 18.3793 82.2533 18.959 81.714 19.3839C81.1748 19.8089 80.5186 20.0588 79.8333 20.1003C79.0071 20.0469 78.2315 19.6835 77.6618 19.0828C77.092 18.4821 76.7702 17.6883 76.7606 16.8605V13.8298C76.7847 13.0098 77.1175 12.2291 77.6925 11.6439C78.2674 11.0587 79.0421 10.7122 79.8616 10.6736C80.2566 10.6758 80.6473 10.7559 81.0114 10.9091C81.3754 11.0624 81.7057 11.2858 81.9834 11.5667C82.2612 11.8476 82.4808 12.1805 82.6299 12.5463C82.7789 12.9121 82.8545 13.3037 82.8522 13.6987C82.8522 13.7422 82.8522 13.7863 82.8522 13.8298H82.8501Z" fill="#0074FF"/>
<path d="M95.3533 16.2909C96.3985 16.2909 98.1479 16.2909 98.1479 13.6904C98.1277 12.2313 97.5299 10.8398 96.4854 9.8207C95.441 8.80164 94.0352 8.2382 92.5761 8.25387C91.0943 8.23022 89.6635 8.79511 88.5976 9.8247C87.5316 10.8543 86.9174 12.2646 86.8896 13.7463V16.8612C86.8896 20.1935 89.5019 22.522 93.2409 22.522C96.0582 22.522 97.7875 21.2345 97.7875 20.3129C97.7772 20.0019 97.6545 19.7052 97.4423 19.4777C97.2301 19.2501 96.9427 19.1071 96.6332 19.0751C96.3085 19.1063 96.0008 19.2348 95.7503 19.4438C95.0378 19.9579 94.1741 20.2196 93.2961 20.1873C90.9924 20.1873 89.4453 18.8853 89.4453 16.9481V16.2964L95.3533 16.2909ZM92.5443 10.5065C93.3696 10.5121 94.1591 10.8444 94.7401 11.4306C95.3211 12.0167 95.6463 12.8091 95.6447 13.6345C95.6447 14.106 95.6447 14.2047 94.6305 14.2047H89.4446V13.524C89.4566 12.7132 89.7897 11.9402 90.3707 11.3745C90.9518 10.8089 91.7334 10.4967 92.5443 10.5065V10.5065Z" fill="#0074FF"/>
<path d="M104.927 14.195C103.329 13.7304 102.349 13.3922 102.349 12.3311C102.349 11.6649 102.856 10.5362 104.755 10.5362C105.511 10.5443 106.254 10.7269 106.928 11.0698C107.166 11.2038 107.43 11.2873 107.702 11.3149C108.401 11.3149 108.828 10.4596 108.828 9.99357C108.828 8.87451 106.403 8.25526 104.727 8.25526C101.432 8.25526 99.9569 10.3436 99.9569 12.4126C99.9569 15.1284 102.166 15.787 103.944 16.3165C105.723 16.846 106.826 17.2457 106.826 18.6416C106.826 19.9629 105.472 20.2404 104.341 20.2404C103.333 20.2903 102.342 19.9712 101.553 19.343C101.31 19.116 101 18.9734 100.669 18.9364C100.38 18.9758 100.116 19.1215 99.9286 19.3452C99.7411 19.5688 99.6436 19.8542 99.6552 20.1459C99.6552 21.2704 101.603 22.5234 104.396 22.5234C107.39 22.5234 109.249 21.0046 109.249 18.5608C109.248 15.4494 106.854 14.7542 104.927 14.195Z" fill="#0074FF"/>
<path d="M121.847 20.5656L117.198 13.7608L121.028 10.3995C121.139 10.3012 121.226 10.1792 121.283 10.0426C121.34 9.90601 121.366 9.75827 121.358 9.6104C121.338 9.27913 121.193 8.9677 120.954 8.73825C120.714 8.50881 120.396 8.37824 120.064 8.37261C119.844 8.38846 119.633 8.46493 119.454 8.59352L113.238 14.1163V1.40767C113.238 0.803612 112.694 0.36455 111.944 0.36455C111.794 0.348052 111.643 0.361146 111.499 0.403085C111.355 0.445023 111.22 0.514984 111.103 0.608969C110.986 0.702954 110.888 0.819122 110.816 0.950836C110.743 1.08255 110.698 1.22723 110.681 1.3766V1.40767V21.2352C110.709 21.5466 110.856 21.8351 111.092 22.04C111.328 22.2449 111.634 22.3501 111.947 22.3335C112.262 22.3534 112.574 22.25 112.815 22.0452C113.056 21.8404 113.209 21.5501 113.24 21.2352V17.2629L115.352 15.4038L119.777 21.9083C119.865 22.0627 119.992 22.1911 120.145 22.2806C120.299 22.3702 120.473 22.4177 120.651 22.4185C120.994 22.4003 121.318 22.2598 121.566 22.0225C121.813 21.7852 121.968 21.4668 122 21.1254C121.994 20.9294 121.941 20.7376 121.847 20.5656V20.5656Z" fill="#0074FF"/>
</g>
<defs>
<clipPath id="clip0">
<rect width="122" height="28.3112" fill="white" transform="translate(0 0.349365)"/>
</clipPath>
</defs>
</svg>
