<svg width="39" height="40" viewBox="0 0 39 40" fill="none" xmlns="http://www.w3.org/2000/svg">
<g clip-path="url(#clip0)">
<path d="M30.2403 18.036H23.7321C23.3187 18.0308 22.9166 17.8999 22.5793 17.6608C22.242 17.4217 21.9853 17.0857 21.8434 16.6974C21.6913 16.2754 21.6091 15.8315 21.6 15.3831C21.5526 14.5945 21.6 13.7816 21.5757 12.993C21.5404 12.4537 21.3006 11.9481 20.9053 11.5795C20.51 11.2109 19.9889 11.007 19.4485 11.0094C18.9143 11.026 18.4055 11.2409 18.0211 11.612C17.6367 11.9832 17.4041 12.4841 17.3687 13.0173V14.6906C17.3602 14.9735 17.4136 15.2549 17.525 15.5151C17.6364 15.7753 17.8031 16.0081 18.0137 16.1972C19.6626 17.8705 21.3359 19.5438 22.9618 21.2414C23.228 21.5318 23.5539 21.7612 23.9171 21.9139C24.2802 22.0667 24.6721 22.139 25.0659 22.1262C28.9382 22.1018 32.8117 22.1505 36.6597 22.1018C37.1146 22.127 37.552 22.2855 37.9175 22.5575C38.283 22.8295 38.5604 23.203 38.7151 23.6315C38.802 24.018 38.8658 24.4094 38.9062 24.8034C38.9305 28.8437 38.9062 32.884 38.9305 36.923C38.9677 37.288 38.9236 37.6566 38.8013 38.0025C38.679 38.3484 38.4816 38.663 38.2233 38.9235C37.965 39.184 37.6522 39.3841 37.3073 39.5093C36.9625 39.6345 36.5942 39.6818 36.2289 39.6477C33.3082 39.6234 30.3961 39.6477 27.4791 39.6477C26.1648 39.6477 24.8261 39.6477 23.5106 39.5516C23.1113 39.5225 22.7307 39.371 22.4206 39.1177C22.1105 38.8644 21.886 38.5217 21.7777 38.1363C21.6409 37.7367 21.5762 37.316 21.5866 36.8938C21.5623 33.3792 21.5623 29.8416 21.5866 26.3271C21.5989 26.0018 21.5412 25.6778 21.4176 25.3767C21.2939 25.0757 21.1072 24.8047 20.8698 24.582C18.9568 22.6458 17.045 20.7096 15.132 18.7491C14.9045 18.5113 14.6292 18.3245 14.3241 18.2009C14.0191 18.0774 13.6914 18.0199 13.3625 18.0324C9.65693 18.0324 5.97567 18.008 2.27008 18.0567C1.81519 18.0315 1.37776 17.873 1.01228 17.601C0.6468 17.329 0.369413 16.9555 0.214665 16.527C0.116145 16.1428 0.0521967 15.7506 0.0235986 15.3551C-0.000740241 11.3392 0.0479416 7.29892 -0.000736156 3.283C-0.0403866 2.90684 0.0049785 2.52657 0.132005 2.17029C0.259032 1.814 0.464474 1.49081 0.733161 1.22457C1.00185 0.958339 1.32691 0.75587 1.68434 0.632117C2.04178 0.508363 2.42244 0.466489 2.79823 0.509589C6.09737 0.557049 9.36973 0.509584 12.6713 0.533923C13.5791 0.533923 14.5125 0.558269 15.4204 0.60573C15.8433 0.639881 16.2439 0.80954 16.5626 1.08951C16.8814 1.36948 17.1014 1.74482 17.1898 2.15976C17.3091 3.06283 17.3571 3.9739 17.3334 4.8845C17.2963 5.4549 17.4868 6.01673 17.8632 6.44693C18.2396 6.87712 18.7711 7.1406 19.3414 7.17965C19.8844 7.20883 20.4175 7.02566 20.8279 6.66886C21.2383 6.31207 21.4938 5.80964 21.5404 5.26783C21.5647 4.50238 21.516 3.73814 21.5647 2.97269C21.5334 2.46927 21.6686 1.96951 21.9494 1.55054C22.2303 1.13157 22.6412 0.816658 23.1188 0.6544C23.4722 0.539038 23.8422 0.482308 24.214 0.486461C28.2299 0.486461 32.2227 0.462122 36.2386 0.486461C36.8342 0.412432 37.4359 0.565788 37.9234 0.915899C38.4108 1.26601 38.7484 1.78711 38.8685 2.37516C38.9004 2.50817 38.9086 2.64575 38.8928 2.78162C38.8928 7.10907 38.9171 11.4353 38.8928 15.7384C38.8763 16.3333 38.631 16.8989 38.2081 17.3176C37.7851 17.7363 37.217 17.9757 36.622 17.9861C34.5191 17.9886 32.3919 18.036 30.2403 18.036Z" fill="#01579B"/>
<path d="M8.70203 22.0999C10.8779 22.0999 13.0295 22.1242 15.2042 22.0999C15.486 22.0873 15.7675 22.1328 16.0311 22.2334C16.2946 22.3341 16.5347 22.4878 16.7365 22.6851C16.9382 22.8824 17.0972 23.119 17.2037 23.3803C17.3103 23.6415 17.362 23.9219 17.3557 24.204C17.4032 28.6264 17.4032 33.0731 17.3557 37.4954C17.3557 38.6674 16.5671 39.647 14.8452 39.647C10.9728 39.6226 7.09932 39.647 3.25134 39.647C2.80415 39.6475 2.35727 39.6236 1.9127 39.5752C1.52866 39.5528 1.16176 39.4086 0.865241 39.1635C0.568726 38.9184 0.358032 38.5852 0.263741 38.2122C0.142125 37.8333 0.0777326 37.4383 0.0726839 37.0403C0.048345 32.809 0.0726787 28.5777 0.0483398 24.3463C0.0521685 23.7453 0.292648 23.1699 0.717681 22.7449C1.14272 22.3198 1.71809 22.0794 2.31916 22.0755C4.42326 22.1717 6.57481 22.0999 8.70203 22.0999Z" fill="#01579B"/>
</g>
<defs>
<clipPath id="clip0">
<rect width="38.9422" height="39.1686" fill="white" transform="translate(0 0.479656)"/>
</clipPath>
</defs>
</svg>
