<svg width="96" height="28" viewBox="0 0 96 28" fill="none" xmlns="http://www.w3.org/2000/svg">
<g clip-path="url(#clip0)">
<path d="M62.5197 23.5066C62.3772 23.5066 62.2822 23.4116 62.2822 23.2691V14.0799C62.2822 12.394 62.8046 11.0881 63.8256 10.162C64.8467 9.23599 66.3188 8.78484 68.1472 8.78484C69.1207 8.73735 70.0943 8.90356 70.9966 9.25973C71.6614 9.54467 71.9938 9.99582 71.9938 10.6132C71.9938 10.8981 71.8989 11.2068 71.7564 11.4443C71.6377 11.6342 71.4477 11.7529 71.234 11.7529C71.1628 11.7529 71.0915 11.7292 71.0203 11.7054C70.8066 11.6342 70.5929 11.563 70.3555 11.4917C69.8093 11.3493 69.2394 11.278 68.6696 11.278C66.3188 11.278 65.1316 12.5365 65.1316 15.006V23.2691C65.1316 23.4116 65.0366 23.5066 64.8942 23.5066H62.5197V23.5066ZM41.4343 23.3641C41.8855 23.2691 42.3129 23.1504 42.7403 22.9842C43.0727 22.8655 43.4052 22.6993 43.7138 22.5093C43.975 22.3431 44.07 21.9869 43.9038 21.7257L43.3814 20.8472C43.2864 20.681 43.1202 20.5622 42.9303 20.5385H42.859C42.7878 20.5385 42.6928 20.5622 42.6216 20.586C42.4791 20.6335 42.3367 20.7047 42.1704 20.7522C41.6481 20.9421 41.1019 21.0134 40.5558 21.0134C40.1996 21.0134 39.8672 20.9659 39.5348 20.8947C39.2023 20.8234 38.8937 20.681 38.6325 20.4673C38.3713 20.2536 38.1576 19.9686 38.0151 19.6362C37.8489 19.2325 37.7777 18.7814 37.8014 18.354V12.2753C37.8014 12.0141 38.0151 11.8004 38.2763 11.8004H41.0069C41.743 11.8004 42.3129 11.2068 42.3129 10.4707C42.3129 10.2333 42.2417 9.99582 42.1229 9.80586C41.9092 9.42595 41.5293 9.21224 41.0782 9.21224H38.3C38.0389 9.21224 37.8251 8.99854 37.8251 8.73735V6.17292C37.8251 5.50806 37.3028 4.98568 36.6379 4.98568H36.163C35.4982 4.98568 34.9758 5.50806 34.9758 6.17292V18.9951C34.9758 20.3485 35.3794 21.4408 36.2105 22.2719C37.0416 23.1029 38.2526 23.5066 39.8672 23.5066C40.3896 23.5066 40.912 23.4591 41.4343 23.3641ZM87.2142 16.1457C87.2142 20.2061 83.9137 23.5066 79.8533 23.5066C75.793 23.5066 72.4925 20.2061 72.4925 16.1457C72.4925 12.0854 75.793 8.78484 79.8533 8.78484C83.9137 8.78484 87.2142 12.0854 87.2142 16.1457ZM84.4836 16.1457C84.4836 13.5813 82.4178 11.5155 79.8533 11.5155C77.2889 11.5155 75.2231 13.5813 75.2231 16.1457C75.2231 18.7101 77.2889 20.7759 79.8533 20.7759C82.4178 20.7759 84.4836 18.7101 84.4836 16.1457ZM59.6703 16.1457C59.6703 20.2061 56.3698 23.5066 52.3094 23.5066C48.2491 23.5066 44.9486 20.2061 44.9486 16.1457C44.9486 12.0854 48.2491 8.78484 52.3094 8.78484C56.3698 8.78484 59.6703 12.0854 59.6703 16.1457ZM56.9397 16.1457C56.9397 13.5813 54.8739 11.5155 52.3094 11.5155C49.745 11.5155 47.6792 13.5813 47.6792 16.1457C47.6792 18.7101 49.745 20.7759 52.3094 20.7759C54.8739 20.7759 56.9397 18.7101 56.9397 16.1457ZM15.2676 16.1457C15.2676 20.2061 11.9671 23.5066 7.90677 23.5066C3.84642 23.5066 0.545898 20.2061 0.545898 16.1457C0.545898 12.0854 3.84642 8.78484 7.90677 8.78484C11.9671 8.78484 15.2676 12.0854 15.2676 16.1457ZM12.537 16.1457C12.537 13.5813 10.4712 11.5155 7.90677 11.5155C5.34234 11.5155 3.27654 13.5813 3.27654 16.1457C3.27654 18.7101 5.34234 20.7759 7.90677 20.7759C10.4712 20.7759 12.537 18.7101 12.537 16.1457ZM32.3164 16.9055C31.889 20.9422 28.2798 23.8865 24.2432 23.4591C22.866 23.3166 21.5837 22.7942 20.4915 21.9632V27.0683C20.4915 27.2108 20.3965 27.3057 20.254 27.3057H17.8796C17.7371 27.3057 17.6421 27.2108 17.6421 27.0683V15.7895C17.6184 13.1776 19.1143 10.7557 21.465 9.6159C27.235 6.86151 32.8862 11.3493 32.3164 16.9055ZM29.6332 16.1457C29.6332 13.5813 27.5674 11.5155 25.003 11.5155C22.4386 11.5155 20.3728 13.5813 20.3728 16.1457C20.3728 18.7101 22.4386 20.7759 25.003 20.7759C27.5674 20.7759 29.6332 18.7101 29.6332 16.1457Z" fill="#373737"/>
<path d="M81.041 0.141753C81.041 0.0705185 81.1123 -0.000717163 81.1835 -0.000717163H96.0002V14.816C96.0002 14.8872 95.929 14.9585 95.8577 14.9585C95.7865 14.9585 95.7153 14.911 95.7153 14.816C95.0742 7.07522 88.9243 0.925327 81.1835 0.284219C81.0885 0.284219 81.041 0.236732 81.041 0.141753Z" fill="#FAA818"/>
</g>
<defs>
<clipPath id="clip0">
<rect width="96" height="27.4014" fill="white" transform="translate(0 -0.000717163)"/>
</clipPath>
</defs>
</svg>
