<svg width="147" height="38" viewBox="0 0 147 38" fill="none" xmlns="http://www.w3.org/2000/svg">
<g clip-path="url(#clip0)">
<path d="M27.8854 5.95059C25.1672 3.97229 21.9481 2.92671 18.5757 2.92671C15.2033 2.92671 11.9843 3.97244 9.26622 5.95059L9.23062 5.97655L7.62012 3.76025L7.65572 3.73429C10.8439 1.41383 14.62 0.187149 18.5759 0.187149C22.5317 0.187149 26.3078 1.41383 29.496 3.73429L29.5316 3.76025L27.9211 5.97655L27.8854 5.95059Z" fill="#0F4056"/>
<path d="M36.1877 24.5321L33.628 23.7001L33.6415 23.6581C34.1533 22.0822 34.4126 20.4353 34.4126 18.7628C34.4126 13.7147 31.9727 8.92503 27.8857 5.95043L27.8501 5.92447L29.4606 3.70817L29.4962 3.73413C34.2899 7.22344 37.152 12.8415 37.152 18.7628C37.152 20.7249 36.8476 22.6567 36.2474 24.5052L36.2332 24.5489L36.1877 24.5321Z" fill="#87E000"/>
<path d="M36.2047 24.4919L36.2022 24.4909L33.6825 23.672C31.6146 30.0402 25.6326 34.6436 18.5752 34.6436V37.2949C26.8108 37.2949 33.7915 31.9229 36.2047 24.4919Z" fill="#0096BD"/>
<path d="M2.69505 18.7631C2.69505 13.4815 5.27356 8.80222 9.24011 5.91514L7.68153 3.76988C3.0529 7.13918 0.0439453 12.5996 0.0439453 18.7629C0.0439453 20.7605 0.359982 22.6842 0.944954 24.4872L0.948841 24.4908L3.46843 23.6718C2.96647 22.1263 2.69505 20.4765 2.69505 18.7631Z" fill="#0096BD"/>
<path d="M3.46879 23.672L0.949199 24.4909L0.945312 24.4874C3.35702 31.9205 10.3389 37.295 18.5761 37.295V34.6438C11.5186 34.6436 5.53679 30.0402 3.46879 23.672Z" fill="#87E000"/>
<path d="M18.5765 34.6877C9.79572 34.6877 2.65186 27.544 2.65186 18.7631V18.7189H5.38224V18.7631C5.38224 26.0383 11.3011 31.9572 18.5764 31.9572C20.8956 31.9572 23.1769 31.3467 25.1733 30.1922L25.2116 30.17L26.5769 32.535L26.5389 32.5571C24.1289 33.9509 21.3756 34.6877 18.5765 34.6877Z" fill="#0F4056"/>
<path d="M2.65186 18.8071V18.7629C2.65186 9.98213 9.79572 2.83842 18.5765 2.83842C21.3759 2.83842 24.1293 3.57527 26.5389 4.96922L26.5769 4.99129L25.2116 7.35621L25.1733 7.33413C23.177 6.17927 20.8957 5.5688 18.5764 5.5688C11.301 5.5688 5.38224 11.4877 5.38224 18.7629V18.8071H2.65186Z" fill="#87E000"/>
<path d="M25.1353 30.2141L25.1733 30.192C28.0065 28.5531 30.1213 25.9426 31.1281 22.8416C31.5544 21.5288 31.7705 20.1566 31.7705 18.7629C31.7705 14.0671 29.2426 9.68802 25.1733 7.33414L25.1353 7.31207L26.5006 4.94715L26.5388 4.96923C31.4501 7.81014 34.5012 13.0957 34.5012 18.7629C34.5012 20.4446 34.2402 22.1007 33.7256 23.6857C32.5103 27.4284 29.958 30.579 26.5388 32.5569L26.5006 32.5792L25.1353 30.2141Z" fill="#0096BD"/>
<path d="M18.5754 32.0453C11.2515 32.0453 5.29297 26.087 5.29297 18.7631C5.29297 11.4392 11.2515 5.48066 18.5754 5.48066H18.6195V8.22022H18.5754C12.762 8.22022 8.03253 12.9497 8.03253 18.7631C8.03253 24.5764 12.762 29.3061 18.5754 29.3061H18.6195V32.0453H18.5754V32.0453Z" fill="#87E000"/>
<path d="M18.5762 5.52464V8.17606C24.4232 8.17606 29.163 12.916 29.163 18.7631C29.163 24.61 24.4232 29.3501 18.5762 29.3501V32.0013C25.8875 32.0013 31.8144 26.0744 31.8144 18.7631C31.8144 11.4516 25.8875 5.52464 18.5762 5.52464Z" fill="#0F4056"/>
<path d="M51.0859 24.7684C47.7362 24.7684 45.0947 22.1786 45.0947 18.8635C45.0947 15.462 47.7191 12.8378 51.0859 12.8378C54.4526 12.8378 56.9907 15.3932 56.9907 18.76C56.9908 22.1615 54.4182 24.7684 51.0859 24.7684ZM51.0341 15.0306C49.0313 15.0306 47.4945 16.6708 47.4945 18.829C47.4945 20.9702 49.0313 22.6104 51.0341 22.6104C53.0712 22.6104 54.5908 20.9876 54.5908 18.8117C54.5908 16.6534 53.0714 15.0306 51.0341 15.0306Z" fill="#0F4056"/>
<path d="M60.2932 16.5845V17.7413C60.673 16.7397 61.2602 16.3082 62.2787 16.3082C62.3305 16.3082 62.4341 16.3082 62.5377 16.3082V18.5352C62.3477 18.5352 62.1923 18.5352 62.0887 18.5352C60.8975 18.5352 60.2931 19.2605 60.2931 20.7111V24.5613H58.1001V16.5845H60.2932V16.5845Z" fill="#0F4056"/>
<path d="M65.8453 24.5613H63.6523V13.0621H65.8453V17.5516C66.605 16.6708 67.3475 16.3083 68.4352 16.3083C70.7832 16.3083 72.4582 18.0865 72.4582 20.6246C72.4582 23.1282 70.8523 24.8203 68.5387 24.8203C67.3302 24.8203 66.5531 24.4747 65.8453 23.5426V24.5613V24.5613ZM67.969 23.0766C69.2292 23.0766 70.1099 22.075 70.1099 20.6419C70.1099 19.2262 69.2121 18.1557 68.0033 18.1557C66.7774 18.1557 65.8105 19.2607 65.8105 20.6764C65.8107 22.075 66.7086 23.0766 67.969 23.0766Z" fill="#0F4056"/>
<path d="M74.6564 15.5139C73.9657 15.5139 73.4478 14.996 73.4478 14.2882C73.4478 13.5801 73.9657 13.0795 74.6564 13.0795C75.3642 13.0795 75.8825 13.5975 75.8825 14.2882C75.8825 14.996 75.3642 15.5139 74.6564 15.5139ZM75.7614 24.5613H73.5687V16.5846H75.7614V24.5613Z" fill="#0F4056"/>
<path d="M80.0976 22.2132C80.0976 22.593 80.27 22.7312 80.7191 22.7312H81.0988V24.5614H79.3379C78.3192 24.5614 77.8875 24.1297 77.8875 23.0421V18.3973H76.9897V16.5501H77.8875V14.4088H80.0976V16.5499H81.0988V18.3972H80.0976V22.2132V22.2132Z" fill="#0F4056"/>
<path d="M88.5276 16.5845H90.7376V24.5613H88.545V23.4738C87.7853 24.4231 86.9219 24.8203 85.7477 24.8203C83.5033 24.8203 81.8975 23.0937 81.8975 20.6591C81.8975 18.1557 83.5896 16.3082 85.9204 16.3082C87.0083 16.3082 87.768 16.6879 88.5276 17.6031V16.5845V16.5845ZM88.5621 20.5211C88.5621 19.1396 87.6469 18.1559 86.352 18.1559C85.1259 18.1559 84.2282 19.192 84.2282 20.6246C84.2282 22.0234 85.1433 23.0766 86.352 23.0766C87.5603 23.0766 88.5101 22.0234 88.5621 20.6419C88.5621 20.5556 88.5621 20.573 88.5621 20.5211Z" fill="#0F4056"/>
<path d="M92.2495 24.5613V13.0621H94.4422V24.5613H92.2495V24.5613Z" fill="#0F4056"/>
<path d="M103.834 24.5613H101.486V13.0621H103.834V24.5613Z" fill="#0F4056"/>
<path d="M107.594 16.5846V17.5516C108.164 16.6536 108.768 16.3083 109.752 16.3083C110.512 16.3083 111.254 16.5846 111.721 17.0506C112.273 17.6032 112.428 18.1901 112.428 19.5197V24.5614H110.236V19.6232C110.236 18.6564 109.821 18.1557 108.992 18.1557C108.164 18.1557 107.594 18.7945 107.594 19.7095V24.5614H105.401V16.5846H107.594V16.5846Z" fill="#0F4056"/>
<path d="M117.793 18.8982C117.793 18.7946 117.793 18.8116 117.793 18.76C117.793 18.2767 117.361 17.9311 116.774 17.9311C116.256 17.9311 115.894 18.2247 115.894 18.6392C115.894 19.0538 116.152 19.295 116.826 19.5021C118.294 19.9341 118.898 20.2105 119.312 20.6072C119.744 21.0217 119.986 21.6259 119.986 22.2647C119.986 23.8016 118.742 24.8202 116.895 24.8202C114.978 24.8202 113.822 23.8878 113.735 22.2303H115.842C115.928 22.921 116.256 23.2316 116.878 23.2316C117.396 23.2316 117.776 22.9037 117.776 22.4719C117.776 21.9712 117.465 21.7638 116.274 21.4016C114.547 20.8833 113.787 20.0894 113.787 18.8459C113.787 17.3265 115.013 16.308 116.878 16.308C118.691 16.308 119.813 17.2751 119.865 18.8979H117.793V18.8982Z" fill="#0F4056"/>
<path d="M122.431 15.5139C121.74 15.5139 121.222 14.996 121.222 14.2882C121.222 13.5801 121.74 13.0795 122.431 13.0795C123.139 13.0795 123.657 13.5975 123.657 14.2882C123.657 14.996 123.139 15.5139 122.431 15.5139ZM123.536 24.5613H121.343V16.5846H123.536V24.5613Z" fill="#0F4056"/>
<path d="M131.277 16.5845H133.417V23.9914C133.417 25.6145 133.124 26.564 132.364 27.3063C131.553 28.0836 130.396 28.5153 129.049 28.5153C127.478 28.5153 126.218 27.997 125.113 26.9267L126.477 25.5452C127.184 26.3052 127.944 26.6503 128.963 26.6503C130.413 26.6503 131.277 25.7695 131.277 24.3022V23.4736C130.552 24.3885 129.619 24.8202 128.462 24.8202C126.27 24.8202 124.664 23.0764 124.664 20.6417C124.664 18.0517 126.269 16.3082 128.687 16.3082C129.791 16.3082 130.568 16.6879 131.276 17.5684V16.5845H131.277ZM129.135 18.2589C127.892 18.2589 127.012 19.2091 127.012 20.5384C127.012 21.9021 127.91 22.8865 129.153 22.8865C130.448 22.8865 131.224 22.0576 131.224 20.6938C131.225 19.1746 130.43 18.2589 129.135 18.2589Z" fill="#0F4056"/>
<path d="M137.122 17.4304C137.779 16.6534 138.452 16.3081 139.298 16.3081C139.988 16.3081 140.765 16.6187 141.215 17.0504C141.75 17.5684 141.94 18.1383 141.94 19.2949V24.5612H139.747V19.6058C139.73 18.7251 139.264 18.1556 138.538 18.1556C137.675 18.1556 137.123 18.7943 137.123 19.8128V24.5612H134.93V13.0621H137.123V17.4304H137.122Z" fill="#0F4056"/>
<path d="M145.998 22.2132C145.998 22.593 146.171 22.7312 146.62 22.7312H147V24.5614H145.238C144.22 24.5614 143.788 24.1297 143.788 23.0421V18.3973H142.891V16.5501H143.788V14.4088H145.998V16.5499H147V18.3972H145.998V22.2132Z" fill="#0F4056"/>
</g>
<defs>
<clipPath id="clip0">
<rect width="147" height="37.1517" fill="white" transform="translate(0 0.187149)"/>
</clipPath>
</defs>
</svg>
