<svg width="145" height="24" viewBox="0 0 145 24" fill="none" xmlns="http://www.w3.org/2000/svg">
<g clip-path="url(#clip0)">
<path fill-rule="evenodd" clip-rule="evenodd" d="M35.5836 2.18181C37.46 5.56381 38.2889 9.42722 37.9649 13.2813C37.6409 17.1354 36.1787 20.8062 33.764 23.8275H23.3328L26.5439 18.1497H22.2965L27.3029 9.32891H31.5746L35.5836 2.19154V2.18181ZM14.984 23.8275H4.3485C1.88877 20.8193 0.396351 17.1376 0.0672627 13.2658C-0.261826 9.39404 0.587803 5.51325 2.50456 2.13316L9.40353 14.1163L17.008 0.873047H28.1981L14.9889 23.8177L14.984 23.8275Z" fill="#000E9C"/>
<path d="M44.3765 13.1725C44.3765 7.04713 47.427 4.10364 52.4382 4.10364C57.4495 4.10364 60.4951 7.04713 60.4951 13.1725C60.4951 19.2979 57.4252 22.2074 52.4382 22.2074C47.4513 22.2074 44.3765 19.2395 44.3765 13.1725ZM46.1864 13.1725C46.1864 18.2081 48.4828 20.6067 52.4382 20.6067C56.3937 20.6067 58.6853 18.2081 58.6853 13.1725C58.6853 8.13696 56.3888 5.70432 52.4382 5.70432C48.4876 5.70432 46.1864 8.10777 46.1864 13.1725Z" fill="#000E9C"/>
<path d="M73.6651 4.82853C73.7292 4.66107 73.8425 4.51699 73.9902 4.41535C74.1379 4.31371 74.3129 4.25929 74.4922 4.25929C74.6078 4.25864 74.7224 4.28101 74.8293 4.32509C74.9361 4.36918 75.0331 4.43409 75.1147 4.51606C75.1962 4.59803 75.2606 4.6954 75.304 4.80251C75.3475 4.90962 75.3693 5.02431 75.368 5.13991C75.3637 5.27148 75.3374 5.4014 75.2901 5.52426L69.2475 21.4581C69.1914 21.6328 69.0814 21.7852 68.9332 21.8933C68.785 22.0014 68.6062 22.0597 68.4228 22.0597C68.2393 22.0597 68.0606 22.0014 67.9124 21.8933C67.7642 21.7852 67.6541 21.6328 67.5981 21.4581L61.5554 5.52426C61.5082 5.4014 61.4819 5.27148 61.4776 5.13991C61.4763 5.02431 61.498 4.90962 61.5415 4.80251C61.585 4.6954 61.6494 4.59803 61.7309 4.51606C61.8124 4.43409 61.9094 4.36918 62.0163 4.32509C62.1232 4.28101 62.2377 4.25864 62.3533 4.25929C62.5326 4.25929 62.7077 4.31371 62.8554 4.41535C63.0031 4.51699 63.1164 4.66107 63.1804 4.82853L68.4204 18.7238L73.6651 4.82853Z" fill="#000E9C"/>
<path d="M79.0366 13.7369V21.1759C79.0456 21.2967 79.0296 21.4181 78.9895 21.5324C78.9495 21.6468 78.8863 21.7516 78.8039 21.8404C78.7214 21.9292 78.6216 22 78.5105 22.0485C78.3995 22.0969 78.2796 22.1219 78.1585 22.1219C78.0373 22.1219 77.9174 22.0969 77.8064 22.0485C77.6953 22 77.5955 21.9292 77.513 21.8404C77.4306 21.7516 77.3674 21.6468 77.3273 21.5324C77.2873 21.4181 77.2713 21.2967 77.2803 21.1759V5.12046C77.2713 4.99964 77.2873 4.87827 77.3273 4.76392C77.3674 4.64958 77.4306 4.54473 77.513 4.45594C77.5955 4.36714 77.6953 4.29631 77.8064 4.24788C77.9174 4.19944 78.0373 4.17444 78.1585 4.17444C78.2796 4.17444 78.3995 4.19944 78.5105 4.24788C78.6216 4.29631 78.7214 4.36714 78.8039 4.45594C78.8863 4.54473 78.9495 4.64958 78.9895 4.76392C79.0296 4.87827 79.0456 4.99964 79.0366 5.12046V12.1362H88.0277V5.13993C88.0187 5.01911 88.0347 4.89773 88.0748 4.78338C88.1148 4.66904 88.178 4.56419 88.2605 4.4754C88.3429 4.3866 88.4427 4.31577 88.5538 4.26734C88.6649 4.2189 88.7847 4.1939 88.9059 4.1939C89.027 4.1939 89.1469 4.2189 89.2579 4.26734C89.369 4.31577 89.4688 4.3866 89.5513 4.4754C89.6337 4.56419 89.6969 4.66904 89.737 4.78338C89.777 4.89773 89.793 5.01911 89.784 5.13993V21.1954C89.793 21.3162 89.777 21.4376 89.737 21.5519C89.6969 21.6662 89.6337 21.7711 89.5513 21.8599C89.4688 21.9487 89.369 22.0195 89.2579 22.0679C89.1469 22.1164 89.027 22.1414 88.9059 22.1414C88.7847 22.1414 88.6649 22.1164 88.5538 22.0679C88.4427 22.0195 88.3429 21.9487 88.2605 21.8599C88.178 21.7711 88.1148 21.6662 88.0748 21.5519C88.0347 21.4376 88.0187 21.3162 88.0277 21.1954V13.7369H79.0366Z" fill="#000E9C"/>
<path d="M98.0741 9.76193C98.8294 9.72948 99.582 9.87353 100.272 10.1826C100.962 10.4917 101.57 10.9574 102.049 11.5426C102.164 11.6786 102.228 11.8509 102.229 12.0291C102.231 12.1281 102.213 12.2264 102.176 12.3182C102.139 12.41 102.084 12.4934 102.014 12.5634C101.944 12.6334 101.861 12.6885 101.769 12.7254C101.677 12.7624 101.579 12.7804 101.48 12.7784C101.359 12.7792 101.241 12.7514 101.133 12.6972C101.026 12.6431 100.933 12.5642 100.862 12.467C100.526 12.0605 100.098 11.7402 99.6126 11.5329C99.1276 11.3255 98.6001 11.2371 98.0741 11.275C95.695 11.275 94.43 12.7979 94.43 15.9749C94.43 19.1519 95.695 20.6991 98.0741 20.6991C99.1702 20.6888 100.228 20.2965 101.066 19.5898C101.202 19.4745 101.374 19.4108 101.553 19.4098C101.751 19.4098 101.942 19.4887 102.083 19.6292C102.223 19.7697 102.302 19.9603 102.302 20.159C102.301 20.2851 102.27 20.409 102.212 20.5207C102.153 20.6324 102.069 20.7286 101.966 20.8013C100.881 21.7236 99.498 22.2199 98.0741 22.1976C94.7414 22.1976 92.7515 20.2077 92.7515 15.9749C92.7515 11.7421 94.7414 9.76193 98.0741 9.76193Z" fill="#000E9C"/>
<path d="M106.311 4.28354V19.0594C106.311 20.0908 106.647 20.519 107.343 20.519C107.45 20.5105 107.558 20.5243 107.659 20.5594C107.761 20.5946 107.854 20.6503 107.933 20.7232C108.012 20.7961 108.074 20.8845 108.118 20.9829C108.161 21.0813 108.183 21.1876 108.183 21.295C108.183 21.4024 108.161 21.5087 108.118 21.6071C108.074 21.7055 108.012 21.7939 107.933 21.8668C107.854 21.9397 107.761 21.9954 107.659 22.0306C107.558 22.0657 107.45 22.0795 107.343 22.071C105.616 22.071 104.657 21.0347 104.657 19.0497V4.28354C104.663 4.06659 104.753 3.86029 104.907 3.70728C105.061 3.55426 105.267 3.46621 105.484 3.4613C105.703 3.4613 105.912 3.54777 106.067 3.70183C106.222 3.85589 106.31 4.06502 106.311 4.28354V4.28354Z" fill="#000E9C"/>
<path d="M120.387 15.9603C120.387 20.1931 118.319 22.183 114.962 22.183C111.605 22.183 109.542 20.1931 109.542 15.9603C109.542 11.7275 111.634 9.76196 114.962 9.76196C118.29 9.76196 120.387 11.7227 120.387 15.9603ZM118.708 15.9603C118.708 12.7055 117.341 11.2605 114.962 11.2605C112.583 11.2605 111.221 12.7201 111.221 15.9603C111.221 19.2006 112.588 20.6845 114.962 20.6845C117.336 20.6845 118.728 19.2639 118.728 15.9603H118.708Z" fill="#000E9C"/>
<path d="M124.366 10.7447V17.4831C124.366 19.1617 124.906 20.6066 127.514 20.6066C130.122 20.6066 130.667 19.1471 130.667 17.4831V10.7447C130.668 10.6344 130.691 10.5254 130.735 10.4241C130.778 10.3227 130.841 10.2309 130.92 10.1541C131 10.0772 131.093 10.0167 131.196 9.97616C131.298 9.93558 131.408 9.91568 131.518 9.91761C131.625 9.91888 131.731 9.94132 131.83 9.98363C131.928 10.0259 132.017 10.0873 132.092 10.1642C132.166 10.241 132.225 10.3319 132.264 10.4315C132.304 10.5312 132.323 10.6376 132.321 10.7447V17.4831C132.321 19.9158 131.518 22.183 127.514 22.183C123.51 22.183 122.712 19.9352 122.712 17.4831V10.7447C122.71 10.6356 122.73 10.5271 122.771 10.4259C122.812 10.3246 122.873 10.2327 122.95 10.1555C123.027 10.0783 123.119 10.0174 123.22 9.97654C123.322 9.93568 123.43 9.91563 123.539 9.91761C123.758 9.91889 123.968 10.0064 124.123 10.1613C124.277 10.3161 124.365 10.5257 124.366 10.7447V10.7447Z" fill="#000E9C"/>
<path d="M143.346 11.4405V4.28364C143.346 4.06428 143.433 3.8539 143.588 3.69879C143.743 3.54368 143.953 3.45654 144.173 3.45654C144.392 3.45654 144.602 3.54368 144.758 3.69879C144.913 3.8539 145 4.06428 145 4.28364V17.1134C145 20.5191 142.883 22.2025 139.94 22.2025C136.607 22.2025 134.642 20.2126 134.642 15.9798C134.642 11.747 136.505 9.78141 139.833 9.78141C140.507 9.76903 141.174 9.9123 141.783 10.2001C142.393 10.4878 142.927 10.9123 143.346 11.4405V11.4405ZM143.346 13.5325C143.346 13.5325 142.373 11.2605 139.94 11.2605C137.507 11.2605 136.296 12.7833 136.296 15.9603C136.296 19.1373 137.561 20.6845 139.94 20.6845C141.925 20.6845 143.346 19.5509 143.346 17.0939V13.5325Z" fill="#000E9C"/>
</g>
<defs>
<clipPath id="clip0">
<rect width="145" height="22.9544" fill="white" transform="translate(0 0.873047)"/>
</clipPath>
</defs>
</svg>
