<svg width="65" height="65" viewBox="0 0 65 65" fill="none" xmlns="http://www.w3.org/2000/svg">
<g clip-path="url(#clip0)">
<path d="M65 42.662C65 42.5704 64.9084 42.3873 64.9084 42.2958V42.2042C64.8169 42.1127 64.8169 42.0211 64.7253 41.9296L55.2042 32.5L64.6338 23.0704C65 22.7042 65.1831 22.0634 64.9084 21.6056C64.6338 21.1479 64.176 20.7817 63.6268 20.7817H44.3099V1.37324C44.3099 0.823944 43.9437 0.274648 43.4859 0.0915493C42.9366 -0.0915493 42.3873 0 42.0211 0.366197L21.6056 20.7817H1.37324C0.640845 20.7817 0 21.4225 0 22.1549V42.9366C0 43.669 0.640845 44.3099 1.37324 44.3099H18.8592L10.8028 52.3662C10.2535 52.9155 10.2535 53.7394 10.8028 54.2887L21.1479 64.6338C21.2394 64.7253 21.2394 64.7254 21.331 64.8169C21.331 64.8169 21.4225 64.8169 21.4225 64.9085C21.5141 64.9085 21.5141 65 21.6056 65H21.6972C21.7887 65 21.7887 65 21.8803 65C21.9718 65 22.0634 65 22.1549 65H42.9366H63.7183C64.4507 65 65.0915 64.3592 65.0915 63.6268V42.9366C65 42.8451 65 42.7535 65 42.662ZM23.5282 23.5282H41.5634V41.5634H23.5282V23.5282ZM44.3099 25.4507L60.4225 41.5634H44.3099V25.4507ZM60.331 23.5282L53.2817 30.5775L46.2324 23.5282H60.331ZM41.5634 4.66901V20.7817H25.4507L41.5634 4.66901ZM2.74648 23.5282H20.7817V41.5634H2.74648V23.5282ZM20.7817 46.2324V60.331L13.7324 53.2817L20.7817 46.2324ZM23.5282 44.3099H41.5634V62.2535H23.5282V44.3099ZM62.2535 62.2535H44.3099V44.3099H62.2535V62.2535Z" fill="black"/>
<path d="M15.4721 27.7393C15.0143 27.3731 14.465 27.0985 13.8242 27.0069C13.1833 26.8238 12.451 26.7323 11.7186 26.7323H6.5918V38.2675H10.4369V35.1548H11.7186C12.5425 35.1548 13.1833 35.0633 13.8242 34.8802C14.465 34.6971 15.0143 34.4224 15.4721 34.0562C15.9298 33.69 16.296 33.2323 16.5707 32.683C16.8453 32.1337 16.9369 31.4929 16.9369 30.852C16.9369 30.2112 16.8453 29.5703 16.5707 29.021C16.296 28.5633 15.9298 28.1055 15.4721 27.7393ZM13.0918 31.1267C13.0918 31.5844 12.9087 31.8591 12.6341 32.0422C12.3594 32.2253 11.9017 32.4084 11.4439 32.4084H10.4369V29.845H11.5355C12.0848 29.845 12.451 29.9365 12.7256 30.2112C13.0002 30.3943 13.0918 30.6689 13.0918 31.1267Z" fill="black"/>
<path d="M31.3102 33.8731H36.9862V31.0351H31.3102V29.9365H37.3524V26.7323H27.5566V38.2675H37.444V35.1548H31.3102V33.8731Z" fill="black"/>
<path d="M30.5777 47.4226L25.7256 59.0494H29.8453L30.3946 57.493H34.4228L35.0636 59.0494H39.2749L34.4228 47.4226H30.5777ZM31.4016 54.8381L32.5002 52.0001L33.5988 54.8381H31.4016Z" fill="black"/>
<path d="M51.2674 56.5775L52.2745 55.3874L54.5632 59.0494H59.1407L55.021 52.5494L59.0491 47.5142H54.5632L51.2674 51.817V47.5142H47.4224V59.0494H51.2674V56.5775Z" fill="black"/>
</g>
<defs>
<clipPath id="clip0">
<rect width="65" height="65" fill="white"/>
</clipPath>
</defs>
</svg>
