<svg width="128" height="39" viewBox="0 0 128 39" fill="none" xmlns="http://www.w3.org/2000/svg">
<path d="M22.2183 9.57374L24.9278 4.86682C25.7175 3.48881 25.253 1.72372 23.875 0.934068C22.497 0.144421 20.7319 0.608919 19.9422 1.98693L17.2172 6.69385C11.4264 4.86682 4.93892 7.23576 1.78033 12.7168C-0.232496 16.2006 -0.480229 20.2108 0.742949 23.7255L5.75953 15.0238C6.90529 13.0265 8.77877 11.602 11.0084 10.9982C13.238 10.3943 15.5604 10.704 17.5578 11.8653C21.6763 14.2497 23.1008 19.545 20.7164 23.6635C18.332 27.7821 13.0522 29.2065 8.91812 26.8221L11.798 21.8365C13.176 22.6261 14.9411 22.1616 15.7308 20.7836C16.5204 19.4056 16.0559 17.6405 14.6779 16.8509C13.2999 16.0612 11.5348 16.5257 10.7451 17.9037L1.57905 33.8051C0.7894 35.1831 1.2539 36.9482 2.63191 37.7378C4.00992 38.5275 5.77501 38.063 6.56466 36.685L9.28972 31.978C15.0805 33.8051 21.568 31.4361 24.7265 25.955C27.8851 20.4894 26.6929 13.6923 22.2183 9.57374Z" fill="#181A1D"/>
<path d="M34.4033 12.9956H38.8625C41.4482 12.9956 43.5849 14.2807 43.5849 17.2535C43.5849 20.2263 41.4482 21.5269 38.8625 21.5269H37.02V25.6919H34.4033V12.9956ZM38.7851 19.2354C40.0702 19.2354 40.8908 18.6625 40.8908 17.2535C40.8908 15.829 40.0392 15.3026 38.7851 15.3026H37.02V19.2354H38.7851Z" fill="#181A1D"/>
<path d="M47.4092 12.9956H55.8011V15.2871H50.0259V18.198H55.1198V20.4431H50.0259V23.3849H56.0643V25.6764H47.4092V12.9956Z" fill="#181A1D"/>
<path d="M60.4463 12.9956H63.0475V23.3849H68.7918V25.6764H60.4463V12.9956V12.9956Z" fill="#181A1D"/>
<path d="M71.7021 19.3437C71.7021 15.5967 74.613 12.8407 78.2671 12.8407C81.9211 12.8407 84.832 15.5967 84.832 19.3437C84.832 23.0906 81.9211 25.8467 78.2671 25.8467C74.613 25.8467 71.7021 23.0906 71.7021 19.3437ZM82.1379 19.3437C82.1379 16.9747 80.5741 15.1632 78.2671 15.1632C75.96 15.1632 74.3962 16.9747 74.3962 19.3437C74.3962 21.7126 75.96 23.5242 78.2671 23.5242C80.5741 23.5242 82.1379 21.7126 82.1379 19.3437Z" fill="#181A1D"/>
<path d="M91.2583 15.2871H87.6353V12.9956H97.4826V15.2871H93.8595V25.6764H91.2429V15.2871H91.2583Z" fill="#181A1D"/>
<path d="M100.269 19.3437C100.269 15.5967 103.18 12.8407 106.834 12.8407C110.488 12.8407 113.399 15.5967 113.399 19.3437C113.399 23.0906 110.488 25.8467 106.834 25.8467C103.18 25.8467 100.269 23.0906 100.269 19.3437ZM110.705 19.3437C110.705 16.9747 109.141 15.1632 106.834 15.1632C104.527 15.1632 102.963 16.9747 102.963 19.3437C102.963 21.7126 104.527 23.5242 106.834 23.5242C109.141 23.5242 110.705 21.7126 110.705 19.3437Z" fill="#181A1D"/>
<path d="M121.358 19.7927C120.723 19.1889 119.84 18.0586 119.84 18.0586C119.84 18.0586 120.026 19.4521 120.026 20.3656V25.6764H117.58V12.8872H117.843L124.237 18.8947C124.857 19.4676 125.724 20.6288 125.724 20.6288C125.724 20.6288 125.553 19.1889 125.553 18.3218V13.0111H128V25.8003H127.737L121.358 19.7927Z" fill="#181A1D"/>
</svg>
