<svg width="95" height="32" viewBox="0 0 95 32" fill="none" xmlns="http://www.w3.org/2000/svg">
<path fill-rule="evenodd" clip-rule="evenodd" d="M87.789 20.017L81.18 8.57102C81.1534 8.52452 81.115 8.48587 81.0686 8.459C81.0222 8.43213 80.9696 8.418 80.916 8.41802H76.588C76.545 8.41802 76.511 8.43402 76.474 8.45002C76.461 8.44802 76.449 8.44002 76.436 8.44002H74.05C74.051 8.41702 74.052 7.81702 74.054 7.79502C74.226 4.73302 76.904 3.95702 77.817 3.79402C77.8872 3.78148 77.9506 3.74444 77.996 3.6895C78.0414 3.63456 78.0659 3.56529 78.065 3.49402L78.06 0.304022C78.0599 0.262623 78.0514 0.221674 78.035 0.183684C78.0185 0.145695 77.9945 0.111466 77.9643 0.0830953C77.9342 0.0547251 77.8986 0.0328117 77.8596 0.0186987C77.8207 0.00458568 77.7793 -0.00142959 77.738 0.00102169C76.004 0.112022 70 1.46602 69.684 7.79502L69.68 8.43902H67.844C67.8092 8.43915 67.7748 8.44614 67.7427 8.45958C67.7106 8.47301 67.6814 8.49265 67.6569 8.51735C67.6324 8.54205 67.613 8.57133 67.5998 8.60353C67.5866 8.63574 67.5799 8.67022 67.58 8.70502V11.797C67.58 11.944 67.698 12.064 67.844 12.064H69.394C69.539 12.064 69.658 12.183 69.658 12.328V25.773C69.658 25.938 69.791 26.071 69.955 26.071H73.725C73.7669 26.0705 73.8082 26.0611 73.8461 26.0433C73.8841 26.0255 73.9178 25.9999 73.945 25.968C73.9781 25.9405 74.0048 25.9061 74.0232 25.8673C74.0417 25.8284 74.0515 25.786 74.052 25.743V12.339C74.052 12.259 74.085 12.186 74.137 12.132C74.188 12.0891 74.2523 12.0651 74.319 12.064L77.958 12.015C78.0121 12.0145 78.0654 12.0283 78.1123 12.0552C78.1592 12.0821 78.1981 12.1211 78.225 12.168L82.757 20.018C82.7831 20.0634 82.7972 20.1147 82.7979 20.167C82.7986 20.2193 82.7859 20.271 82.761 20.317L76.751 31.498C76.726 31.5445 76.7134 31.5967 76.7145 31.6495C76.7157 31.7023 76.7304 31.7539 76.7574 31.7993C76.7844 31.8447 76.8227 31.8824 76.8685 31.9086C76.9143 31.9349 76.9662 31.9488 77.019 31.949H81.355C81.4098 31.9489 81.4635 31.934 81.5105 31.9058C81.5575 31.8776 81.596 31.8373 81.622 31.789L87.792 20.317C87.8172 20.2709 87.8302 20.2192 87.8296 20.1666C87.8291 20.1141 87.8151 20.0626 87.789 20.017ZM94.023 8.84002L89.29 17.648C89.2642 17.6953 89.2264 17.7349 89.1804 17.7629C89.1344 17.7908 89.0817 17.8061 89.0279 17.8071C88.9741 17.8081 88.9209 17.7948 88.8739 17.7687C88.8268 17.7425 88.7875 17.7043 88.76 17.658L86.49 13.78C86.4634 13.7347 86.4489 13.6832 86.4481 13.6307C86.4472 13.5781 86.4599 13.5262 86.485 13.48L89.138 8.56802C89.1632 8.52023 89.2009 8.48013 89.247 8.45197C89.2931 8.42381 89.346 8.40862 89.4 8.40802C90.099 8.40002 92.672 8.37802 93.762 8.39002C93.8144 8.3907 93.8658 8.40497 93.911 8.43143C93.9563 8.45789 93.9939 8.49563 94.0202 8.54098C94.0465 8.58632 94.0606 8.63771 94.0611 8.69012C94.0615 8.74254 94.0484 8.79419 94.023 8.84002ZM62.165 15.33H53.712C53.661 15.3306 53.6107 15.3181 53.566 15.2935C53.5213 15.269 53.4836 15.2333 53.4568 15.1899C53.4299 15.1466 53.4147 15.097 53.4127 15.046C53.4106 14.9951 53.4217 14.9444 53.445 14.899C53.893 14.016 55.185 12.09 57.943 12.09C60.651 12.09 61.967 14.013 62.43 14.896C62.4533 14.9414 62.4645 14.9921 62.4626 15.0431C62.4607 15.0941 62.4458 15.1438 62.4192 15.1873C62.3926 15.2309 62.3552 15.2669 62.3107 15.2919C62.2662 15.3169 62.216 15.33 62.165 15.33ZM57.96 7.74402C52.844 7.74402 48.697 11.914 48.697 17.057C48.697 22.201 52.844 26.37 57.96 26.37C60.722 26.37 64.29 25.01 66.263 21.161C66.2856 21.1154 66.2962 21.0647 66.2938 21.0138C66.2913 20.9629 66.276 20.9135 66.2492 20.8701C66.2224 20.8268 66.185 20.791 66.1405 20.7662C66.096 20.7413 66.046 20.7282 65.995 20.728H61.46C61.3852 20.7285 61.3135 20.7578 61.26 20.81C60.9212 21.1335 60.5343 21.4023 60.113 21.607C59.523 21.893 58.808 22.079 57.942 22.079C55.215 22.079 53.899 20.289 53.529 19.339C53.5125 19.2941 53.5072 19.2459 53.5134 19.1985C53.5196 19.151 53.5373 19.1058 53.5648 19.0667C53.5923 19.0276 53.6289 18.9957 53.6714 18.9738C53.714 18.9519 53.7612 18.9407 53.809 18.941L66.761 18.943C66.8333 18.9409 66.9025 18.9134 66.9565 18.8653C67.0104 18.8172 67.0457 18.7516 67.056 18.68C67.101 18.317 67.162 17.95 67.182 17.576C67.2604 16.3157 67.0802 15.0527 66.6524 13.8647C66.2246 12.6767 65.5582 11.5887 64.6943 10.6678C63.8304 9.74681 62.7872 9.01235 61.6289 8.50954C60.4706 8.00674 59.2217 7.74622 57.959 7.74402H57.96ZM38.846 22.075C38.0019 22.2711 37.1217 22.2485 36.2888 22.0095C35.4558 21.7705 34.6977 21.3229 34.086 20.709C33.4732 20.094 33.0266 19.3334 32.7882 18.4985C32.5498 17.6637 32.5274 16.7819 32.723 15.936C32.9267 15.0056 33.3924 14.1528 34.065 13.4785C34.7376 12.8041 35.5891 12.3362 36.519 12.13C37.3631 11.9339 38.2433 11.9564 39.0762 12.1954C39.9092 12.4344 40.6674 12.8821 41.279 13.496C41.8919 14.111 42.3385 14.8716 42.5769 15.7065C42.8153 16.5414 42.8377 17.4231 42.642 18.269C42.4382 19.1994 41.9725 20.0521 41.2999 20.7265C40.6273 21.4008 39.7758 21.8687 38.846 22.075ZM41.689 8.61702C37.536 6.80202 34.021 8.60602 32.903 9.32802C32.317 9.70802 32.343 8.46802 31.783 8.46802H28.493C28.4539 8.46789 28.4152 8.47548 28.379 8.49034C28.3429 8.50521 28.31 8.52707 28.2823 8.55466C28.2547 8.58225 28.2327 8.61503 28.2177 8.65113C28.2027 8.68723 28.195 8.72593 28.195 8.76502V31.702C28.195 31.866 28.328 32 28.492 32H32.228C32.2671 32 32.3058 31.9923 32.3419 31.9773C32.378 31.9623 32.4108 31.9404 32.4384 31.9127C32.466 31.885 32.4878 31.8521 32.5027 31.816C32.5175 31.7798 32.5251 31.7411 32.525 31.702V25.167C32.525 24.937 32.774 24.792 32.971 24.91C33.795 25.41 35.689 26.371 38.017 26.371C43.427 26.371 47.767 21.683 47.211 16.146C46.878 12.839 44.726 9.94602 41.689 8.61702ZM10.65 22.075C9.80591 22.2711 8.92574 22.2485 8.0928 22.0095C7.25985 21.7705 6.50167 21.3229 5.89 20.709C5.27736 20.0939 4.83099 19.3332 4.59277 18.4984C4.35454 17.6635 4.33225 16.7818 4.528 15.936C4.73171 15.0056 5.19736 14.1528 5.86997 13.4785C6.54259 12.8041 7.3941 12.3362 8.324 12.13C9.16809 11.9339 10.0483 11.9564 10.8812 12.1954C11.7142 12.4344 12.4724 12.8821 13.084 13.496C13.6967 14.1111 14.1431 14.8718 14.3814 15.7066C14.6196 16.5415 14.6418 17.4232 14.446 18.269C14.2423 19.1995 13.7766 20.0522 13.104 20.7266C12.4314 21.401 11.5799 21.8689 10.65 22.075ZM13.494 8.61702C9.341 6.80202 5.827 8.60602 4.707 9.32802C4.122 9.70802 4.147 8.46802 3.587 8.46802H0.297C0.257997 8.46802 0.219377 8.4757 0.183343 8.49063C0.147309 8.50556 0.114568 8.52743 0.0869893 8.55501C0.0594103 8.58259 0.0375334 8.61533 0.0226078 8.65137C0.00768213 8.6874 0 8.72602 0 8.76502L0 31.702C0 31.866 0.133 32 0.297 32H4.032C4.07109 32 4.10979 31.9923 4.14589 31.9773C4.18199 31.9623 4.21477 31.9404 4.24236 31.9127C4.26996 31.885 4.29181 31.8521 4.30668 31.816C4.32155 31.7798 4.32913 31.7411 4.329 31.702V25.167C4.329 24.937 4.578 24.792 4.775 24.91C5.6 25.41 7.494 26.371 9.821 26.371C15.233 26.371 19.571 21.683 19.015 16.146C18.682 12.839 16.531 9.94602 13.494 8.61702ZM25.209 8.46902H21.466C21.4271 8.46876 21.3885 8.47619 21.3525 8.4909C21.3165 8.50561 21.2837 8.5273 21.2561 8.55472C21.2285 8.58214 21.2066 8.61474 21.1916 8.65067C21.1767 8.68659 21.169 8.72511 21.169 8.76402V25.865C21.169 26.03 21.303 26.163 21.467 26.163H25.21C25.2889 26.1628 25.3644 26.1312 25.4201 26.0754C25.4757 26.0195 25.507 25.9439 25.507 25.865V8.76602C25.5067 8.68707 25.4753 8.61142 25.4194 8.5556C25.3636 8.49977 25.288 8.46829 25.209 8.46802" fill="black"/>
</svg>
