<svg width="64" height="65" viewBox="0 0 64 65" fill="none" xmlns="http://www.w3.org/2000/svg">
<path d="M21.1196 49.1261C28.4737 49.1261 34.4355 43.1644 34.4355 35.8102C34.4355 28.456 28.4737 22.4943 21.1196 22.4943C13.7654 22.4943 7.80371 28.456 7.80371 35.8102C7.80371 43.1644 13.7654 49.1261 21.1196 49.1261Z" stroke="#010101" stroke-width="4.26108"/>
<path d="M32.1704 38.0753C39.5245 38.0753 45.4862 32.1136 45.4862 24.7594C45.4862 17.4053 39.5245 11.4435 32.1704 11.4435C24.8162 11.4435 18.8545 17.4053 18.8545 24.7594C18.8545 32.1136 24.8162 38.0753 32.1704 38.0753Z" stroke="#010101" stroke-width="4.26108"/>
<path d="M43.4902 49.1261C50.8443 49.1261 56.8061 43.1644 56.8061 35.8102C56.8061 28.456 50.8443 22.4943 43.4902 22.4943C36.136 22.4943 30.1743 28.456 30.1743 35.8102C30.1743 43.1644 36.136 49.1261 43.4902 49.1261Z" stroke="#010101" stroke-width="4.26108"/>
<path d="M32.1704 60.446C39.5245 60.446 45.4862 54.4842 45.4862 47.1301C45.4862 39.7759 39.5245 33.8142 32.1704 33.8142C24.8162 33.8142 18.8545 39.7759 18.8545 47.1301C18.8545 54.4842 24.8162 60.446 32.1704 60.446Z" stroke="#010101" stroke-width="4.26108"/>
<path d="M32.3052 13.9292V3.2804" stroke="white" stroke-width="4.26108"/>
<path d="M24.8731 20.3208C24.8731 17.6576 24.518 16.0597 23.0977 14.6393" stroke="white" stroke-width="4.26108"/>
<path d="M39.7617 20.3208C39.7617 17.6576 40.1168 16.0597 41.5372 14.6393" stroke="white" stroke-width="4.26108"/>
<path d="M21.1196 45.9303C26.7087 45.9303 31.2396 41.3993 31.2396 35.8102C31.2396 30.221 26.7087 25.6901 21.1196 25.6901C15.5304 25.6901 10.9995 30.221 10.9995 35.8102C10.9995 41.3993 15.5304 45.9303 21.1196 45.9303Z" fill="#2DA9E1" stroke="white" stroke-width="2.13054"/>
<path d="M32.1704 34.8795C37.7595 34.8795 42.2904 30.3486 42.2904 24.7594C42.2904 19.1702 37.7595 14.6393 32.1704 14.6393C26.5812 14.6393 22.0503 19.1702 22.0503 24.7594C22.0503 30.3486 26.5812 34.8795 32.1704 34.8795Z" fill="#04A54F" stroke="white" stroke-width="2.13054"/>
<path d="M43.4902 45.9303C49.0793 45.9303 53.6102 41.3993 53.6102 35.8102C53.6102 30.221 49.0793 25.6901 43.4902 25.6901C37.901 25.6901 33.3701 30.221 33.3701 35.8102C33.3701 41.3993 37.901 45.9303 43.4902 45.9303Z" fill="#EB2227" stroke="white" stroke-width="2.13054"/>
<path d="M32.1704 57.2501C37.7595 57.2501 42.2904 52.7192 42.2904 47.1301C42.2904 41.5409 37.7595 37.01 32.1704 37.01C26.5812 37.01 22.0503 41.5409 22.0503 47.1301C22.0503 52.7192 26.5812 57.2501 32.1704 57.2501Z" fill="#F2B24D" stroke="white" stroke-width="2.13054"/>
<path d="M30.1745 35.7672C30.1745 40.7683 26.1205 44.822 21.1197 44.822C16.119 44.822 12.0649 40.7683 12.0649 35.7672" stroke="white" stroke-width="4.26108"/>
<path d="M21.1192 44.822C26.12 44.822 30.174 40.7683 30.174 35.7672H12.0645C12.0645 40.7683 16.1185 44.822 21.1192 44.822Z" fill="#2DA9E1"/>
<path d="M32.3052 43.7568V5.05585" stroke="#010101" stroke-width="2.13054"/>
<path d="M23.0976 14.6394L18.8394 10.3815" stroke="white" stroke-width="4.26108"/>
<path d="M24.8477 35.9448L24.8729 20.3208" stroke="#010101" stroke-width="2.13054"/>
<path d="M23.0975 14.6394L19.1943 10.7366" stroke="#010101" stroke-width="2.13054"/>
<path d="M24.8731 20.3208C24.8731 17.6576 24.518 16.0597 23.0977 14.6393" stroke="#010101" stroke-width="2.13054"/>
<path d="M41.5371 14.6394L45.7954 10.3815" stroke="white" stroke-width="4.26108"/>
<path d="M39.7617 35.9448V20.3208" stroke="#010101" stroke-width="2.13054"/>
<path d="M41.5371 14.6394L45.4403 10.7366" stroke="#010101" stroke-width="2.13054"/>
<path d="M39.7617 20.3208C39.7617 17.6576 40.1168 16.0597 41.5372 14.6393" stroke="#010101" stroke-width="2.13054"/>
<path d="M32.305 38.4304C33.6777 38.4304 34.7906 37.3175 34.7906 35.9447C34.7906 34.572 33.6777 33.4591 32.305 33.4591C30.9322 33.4591 29.8193 34.572 29.8193 35.9447C29.8193 37.3175 30.9322 38.4304 32.305 38.4304Z" fill="white" stroke="#010101" stroke-width="2.13054"/>
<path d="M24.8479 38.4304C26.2207 38.4304 27.3336 37.3175 27.3336 35.9447C27.3336 34.572 26.2207 33.4591 24.8479 33.4591C23.4752 33.4591 22.3623 34.572 22.3623 35.9447C22.3623 37.3175 23.4752 38.4304 24.8479 38.4304Z" fill="white" stroke="#010101" stroke-width="2.13054"/>
<path d="M19.1946 13.2222C20.5674 13.2222 21.6802 12.1094 21.6802 10.7366C21.6802 9.36383 20.5674 8.25098 19.1946 8.25098C17.8218 8.25098 16.709 9.36383 16.709 10.7366C16.709 12.1094 17.8218 13.2222 19.1946 13.2222Z" fill="white" stroke="#010101" stroke-width="2.13054"/>
<path d="M32.305 7.54151C33.6777 7.54151 34.7906 6.42866 34.7906 5.05588C34.7906 3.68311 33.6777 2.57025 32.305 2.57025C30.9322 2.57025 29.8193 3.68311 29.8193 5.05588C29.8193 6.42866 30.9322 7.54151 32.305 7.54151Z" fill="white" stroke="#010101" stroke-width="2.13054"/>
<path d="M45.4402 13.2222C46.813 13.2222 47.9258 12.1094 47.9258 10.7366C47.9258 9.36383 46.813 8.25098 45.4402 8.25098C44.0674 8.25098 42.9546 9.36383 42.9546 10.7366C42.9546 12.1094 44.0674 13.2222 45.4402 13.2222Z" fill="white" stroke="#010101" stroke-width="2.13054"/>
<path d="M39.7615 38.4304C41.1343 38.4304 42.2471 37.3175 42.2471 35.9447C42.2471 34.572 41.1343 33.4591 39.7615 33.4591C38.3887 33.4591 37.2759 34.572 37.2759 35.9447C37.2759 37.3175 38.3887 38.4304 39.7615 38.4304Z" fill="white" stroke="#010101" stroke-width="2.13054"/>
<path d="M32.305 45.8873C33.6777 45.8873 34.7906 44.7744 34.7906 43.4016C34.7906 42.0289 33.6777 40.916 32.305 40.916C30.9322 40.916 29.8193 42.0289 29.8193 43.4016C29.8193 44.7744 30.9322 45.8873 32.305 45.8873Z" fill="white" stroke="#010101" stroke-width="2.13054"/>
<path d="M32.305 30.9735C33.6777 30.9735 34.7906 29.8607 34.7906 28.4879C34.7906 27.1151 33.6777 26.0023 32.305 26.0023C30.9322 26.0023 29.8193 27.1151 29.8193 28.4879C29.8193 29.8607 30.9322 30.9735 32.305 30.9735Z" fill="white" stroke="#010101" stroke-width="2.13054"/>
<path d="M53.6099 35.8102H59.113" stroke="white" stroke-width="3.19581"/>
<path d="M5.49609 35.8102H11.3544" stroke="white" stroke-width="3.19581"/>
<path d="M32.2168 62.6966V57.2328" stroke="white" stroke-width="3.19581"/>
</svg>
