<svg width="128" height="30" viewBox="0 0 128 30" fill="none" xmlns="http://www.w3.org/2000/svg">
<path fill-rule="evenodd" clip-rule="evenodd" d="M21.4249 1.30376C21.4249 2.02415 20.8413 2.60814 20.1214 2.60814C19.4014 2.60814 18.8169 2.02415 18.8169 1.30376C18.8169 0.583673 19.4014 0 20.1214 0C20.8413 0 21.4249 0.583673 21.4249 1.30376Z" fill="#0D318F"/>
<path fill-rule="evenodd" clip-rule="evenodd" d="M10.5267 2.28076C12.3902 2.36908 14.2732 2.62053 16.1098 3.06371C17.9485 3.51097 19.7617 4.13959 21.4908 5.07686C22.3537 5.5477 23.1956 6.09837 23.9838 6.77916C24.7669 7.4609 25.5098 8.27873 26.0547 9.31627C26.3253 9.83299 26.539 10.4066 26.6562 11.0129C26.7153 11.3159 26.7502 11.6258 26.7574 11.9364C26.7599 12.0137 26.7599 12.0916 26.7587 12.1689L26.7558 12.3028L26.7508 12.3839C26.7411 12.5612 26.7257 12.7086 26.7037 12.8617C26.6176 13.473 26.4262 14.0561 26.1682 14.5769C25.9111 15.0996 25.5903 15.5616 25.2414 15.9711C24.5394 16.7896 23.7311 17.405 22.9018 17.912C22.0693 18.4165 21.2083 18.8109 20.3362 19.1344C18.5911 19.7781 16.804 20.1471 15.0183 20.3451C14.1246 20.4422 13.2309 20.4947 12.3393 20.5054C11.4474 20.5186 10.5568 20.4831 9.6832 20.4218C8.80611 20.3614 7.92116 20.274 7.04344 20.1301C6.1651 19.9877 5.3012 19.7869 4.45648 19.5543L4.95835 19.3075L0 28.7975L4.14694 18.9244L4.27264 18.6164L4.64818 18.6777C5.49164 18.8156 6.33197 18.9178 7.17229 18.9631C8.01261 19.0102 8.85671 19.0033 9.70677 18.9709C10.5609 18.9373 11.4 18.8889 12.2337 18.7905C13.0671 18.6956 13.8933 18.5617 14.7072 18.3885C16.3319 18.0402 17.9161 17.5333 19.3554 16.8273C20.0735 16.4747 20.7535 16.0702 21.3582 15.6122C21.9609 15.1555 22.4882 14.6394 22.8569 14.0982C23.2289 13.5557 23.4216 13.0056 23.4272 12.5112C23.4351 12.0105 23.2817 11.5488 22.9643 11.0799C22.6495 10.6134 22.1708 10.1627 21.6055 9.76982C21.0389 9.37536 20.3884 9.03433 19.6989 8.74674C18.3168 8.17124 16.7886 7.80161 15.2368 7.59071C14.4599 7.48541 13.6736 7.42067 12.8855 7.39238C12.4914 7.37823 12.0967 7.37384 11.702 7.37761C11.5043 7.37981 11.3067 7.38421 11.1096 7.39081L10.51 7.4169L10.5267 2.28076Z" fill="#0D318F"/>
<path fill-rule="evenodd" clip-rule="evenodd" d="M2.26799 24.1409C2.53323 24.1604 2.86194 24.1271 3.20982 24.0441C3.91093 23.8794 4.684 23.5224 5.43413 23.0585C6.18772 22.5936 6.92717 22.0228 7.63865 21.3942C8.35075 20.7643 9.03709 20.0747 9.6986 19.3502C11.0213 17.8984 12.2457 16.3084 13.399 14.6567C14.5523 13.0037 15.6352 11.2854 16.6663 9.53058C16.0243 11.4623 15.3216 13.3812 14.524 15.2762C13.7246 17.1702 12.8346 19.0422 11.7727 20.864C11.241 21.7742 10.6653 22.6715 10.0213 23.5447C9.37649 24.4175 8.66564 25.269 7.83757 26.0686C7.00668 26.8644 6.06296 27.621 4.88418 28.215C4.29338 28.5086 3.64255 28.76 2.90374 28.9137C2.53448 28.9898 2.14355 29.0407 1.7193 29.0495C1.50686 29.0533 1.28657 29.0467 1.04899 29.0222C0.929887 29.0096 0.806384 28.9929 0.671253 28.9675C0.603688 28.9546 0.53298 28.9395 0.454416 28.92C0.373652 28.8993 0.143615 28.849 0 28.7974C0 28.7974 2.13663 24.1315 2.26799 24.1409Z" fill="#0D318F"/>
<path fill-rule="evenodd" clip-rule="evenodd" d="M36.9788 8.32536H37.5835C38.7651 8.32536 39.6334 8.1088 40.1871 7.67443C40.7414 7.24068 41.0183 6.73056 41.0183 6.145C41.0183 5.81466 40.9309 5.51512 40.7562 5.24607C40.5818 4.97734 40.3115 4.76549 39.9451 4.61148C39.5793 4.45652 38.9932 4.3792 38.1881 4.3792H36.9788V8.32536ZM33.8271 12.3765V2.758H39.1381C40.6824 2.758 41.7681 2.88183 42.396 3.12951C43.0239 3.37687 43.4978 3.72733 43.8164 4.17993C44.1354 4.63254 44.2951 5.20207 44.2951 5.88915C44.2951 7.20988 43.7514 8.2163 42.6631 8.90841C41.5755 9.60114 40.117 9.94689 38.2887 9.94689H36.9788V15.3276L33.8271 12.3765Z" fill="#0D318F"/>
<path fill-rule="evenodd" clip-rule="evenodd" d="M46.3999 14.7064V5.93592H49.4891V7.58919C49.858 7.02501 50.3617 6.5746 51.0025 6.23955C51.6423 5.90355 52.3554 5.73602 53.1417 5.73602C53.3296 5.73602 53.521 5.75205 53.7161 5.7838V7.8925C53.2846 7.77055 52.8771 7.70894 52.4949 7.70894C51.8827 7.70894 51.3262 7.82744 50.8253 8.06443C50.3237 8.30142 49.8787 8.65973 49.4891 9.13874V14.7064H46.3999Z" fill="#0D318F"/>
<path fill-rule="evenodd" clip-rule="evenodd" d="M57.509 9.33187H61.5686C61.5686 8.52786 61.3954 7.95268 61.0488 7.60662C60.7013 7.26057 60.2531 7.08707 59.7038 7.08707C59.1061 7.08707 58.6152 7.27817 58.2302 7.65848C57.8453 8.03942 57.6049 8.59701 57.509 9.33187ZM64.6056 14.2844C63.1465 14.6145 61.7638 14.7795 60.4564 14.7795C59.2183 14.7795 58.1344 14.6025 57.2039 14.2486C56.274 13.8944 55.5584 13.3406 55.0569 12.5869C54.5556 11.8335 54.3052 11.0147 54.3052 10.1308C54.3052 9.31081 54.5173 8.55301 54.9428 7.85838C55.3683 7.16344 55.9868 6.61497 56.7994 6.21297C57.6121 5.81097 58.6133 5.6095 59.8028 5.6095C61.2616 5.6095 62.4272 5.96655 63.2989 6.68004C64.1703 7.39352 64.6056 8.72273 64.6056 10.6658H57.5612C57.63 11.257 57.8041 11.7228 58.0835 12.0635C58.3629 12.4046 58.7403 12.6749 59.2161 12.8744C59.6922 13.074 60.3301 13.1743 61.1296 13.1743C62.1572 13.1743 63.3162 12.9904 64.6056 12.623V14.2844Z" fill="#0D318F"/>
<path fill-rule="evenodd" clip-rule="evenodd" d="M67.5119 14.58V7.28705H65.9355V5.80948H67.5119V5.17834C67.5119 3.95379 67.8789 3.07907 68.613 2.55417C69.3471 2.0299 70.3886 1.76746 71.7389 1.76746C72.6506 1.76746 73.5896 1.86898 74.5569 2.07108V3.6684C73.6798 3.38678 72.8935 3.24534 72.1981 3.24534C71.8709 3.24534 71.5909 3.29469 71.3577 3.39275C71.1246 3.49176 70.9404 3.65677 70.805 3.8881C70.6692 4.12038 70.601 4.52081 70.601 5.09065V5.80948H73.5022V7.28705H70.601V14.58H67.5119Z" fill="#0D318F"/>
<path fill-rule="evenodd" clip-rule="evenodd" d="M77.5681 9.33187H81.6277C81.6277 8.52786 81.4545 7.95268 81.1079 7.60662C80.7603 7.26057 80.3122 7.08707 79.7629 7.08707C79.1652 7.08707 78.6743 7.27817 78.2893 7.65848C77.9044 8.03942 77.6646 8.59701 77.5681 9.33187ZM84.6647 14.2844C83.2056 14.6145 81.8228 14.7795 80.5155 14.7795C79.2774 14.7795 78.1935 14.6025 77.2636 14.2486C76.3331 13.8944 75.6175 13.3406 75.116 12.5869C74.6147 11.8335 74.3643 11.0147 74.3643 10.1308C74.3643 9.31081 74.5764 8.55301 75.0019 7.85838C75.4274 7.16344 76.0458 6.61497 76.8585 6.21297C77.6712 5.81097 78.6724 5.6095 79.8619 5.6095C81.3213 5.6095 82.4862 5.96655 83.358 6.68004C84.2294 7.39352 84.6647 8.72273 84.6647 10.6658H77.6203C77.6891 11.257 77.8632 11.7228 78.1426 12.0635C78.4219 12.4046 78.7994 12.6749 79.2758 12.8744C79.7513 13.074 80.3892 13.1743 81.1887 13.1743C82.2163 13.1743 83.3753 12.9904 84.6647 12.623V14.2844Z" fill="#0D318F"/>
<path fill-rule="evenodd" clip-rule="evenodd" d="M87.2485 14.58V5.80946H90.3377V7.46273C90.7066 6.89854 91.211 6.44845 91.8511 6.11308C92.491 5.7774 93.2047 5.60956 93.9909 5.60956C94.1789 5.60956 94.3696 5.62559 94.5648 5.65733V7.76604C94.1333 7.64408 93.7263 7.58248 93.3435 7.58248C92.7314 7.58248 92.1748 7.70097 91.6739 7.93796C91.1724 8.17495 90.7274 8.53327 90.3377 9.01227V14.58H87.2485Z" fill="#0D318F"/>
<path fill-rule="evenodd" clip-rule="evenodd" d="M96.3022 14.58V5.80946H99.3914V7.46273C99.7603 6.89854 100.265 6.44845 100.905 6.11308C101.545 5.7774 102.258 5.60956 103.045 5.60956C103.233 5.60956 103.423 5.62559 103.618 5.65733V7.76604C103.187 7.64408 102.78 7.58248 102.398 7.58248C101.785 7.58248 101.229 7.70097 100.728 7.93796C100.227 8.17495 99.7811 8.53327 99.3914 9.01227V14.58H96.3022Z" fill="#0D318F"/>
<path fill-rule="evenodd" clip-rule="evenodd" d="M107.538 9.33187H111.598C111.598 8.52786 111.424 7.95268 111.078 7.60662C110.731 7.26057 110.282 7.08707 109.733 7.08707C109.135 7.08707 108.644 7.27817 108.259 7.65848C107.875 8.03942 107.634 8.59701 107.538 9.33187ZM114.635 14.2844C113.176 14.6145 111.793 14.7795 110.486 14.7795C109.248 14.7795 108.164 14.6025 107.233 14.2486C106.303 13.8944 105.587 13.3406 105.086 12.5869C104.585 11.8335 104.334 11.0147 104.334 10.1308C104.334 9.31081 104.546 8.55301 104.972 7.85838C105.397 7.16344 106.016 6.61497 106.829 6.21297C107.642 5.81097 108.643 5.6095 109.832 5.6095C111.291 5.6095 112.456 5.96655 113.328 6.68004C114.199 7.39352 114.635 8.72273 114.635 10.6658H107.59C107.659 11.257 107.833 11.7228 108.112 12.0635C108.392 12.4046 108.77 12.6749 109.246 12.8744C109.721 13.074 110.359 13.1743 111.159 13.1743C112.187 13.1743 113.345 12.9904 114.635 12.623V14.2844Z" fill="#0D318F"/>
<path fill-rule="evenodd" clip-rule="evenodd" d="M124.325 8.10041C123.903 7.72795 123.504 7.47588 123.13 7.34261C122.756 7.20966 122.374 7.14334 121.986 7.14334C121.169 7.14334 120.558 7.45073 120.153 8.06458C119.747 8.67905 119.545 9.40102 119.545 10.2302C119.545 11.0493 119.734 11.7018 120.112 12.1886C120.489 12.6752 121.036 12.9185 121.751 12.9185C122.207 12.9185 122.658 12.7953 123.104 12.5476C123.55 12.3002 123.957 11.9743 124.325 11.5704V8.10041ZM124.325 14.5799V12.9185C123.933 13.5389 123.431 14.0041 122.816 14.3143C122.201 14.6242 121.471 14.7795 120.626 14.7795C119.238 14.7795 118.164 14.3816 117.401 13.5854C116.639 12.7896 116.257 11.7389 116.257 10.4342C116.257 9.05528 116.683 7.90617 117.535 6.98744C118.387 6.06903 119.575 5.60951 121.1 5.60951C121.512 5.60951 121.89 5.64314 122.233 5.70946C122.577 5.77609 122.906 5.87887 123.223 6.01717C123.539 6.15578 123.906 6.38176 124.325 6.69607V1.96729H127.414V14.5799H124.325Z" fill="#0D318F"/>
<path fill-rule="evenodd" clip-rule="evenodd" d="M33.8269 26.6051L33.8115 13.6414L43.8046 22.8588V14.7832H46.3824V26.6051H43.4988L36.4048 19.7113V26.6051H33.8269Z" fill="#0D318F"/>
<path fill-rule="evenodd" clip-rule="evenodd" d="M51.3674 21.357H55.4276C55.4276 20.553 55.2538 19.9781 54.9072 19.6321C54.5596 19.2857 54.1115 19.1125 53.5622 19.1125C52.9645 19.1125 52.4736 19.303 52.0886 19.6836C51.7037 20.0646 51.4639 20.6221 51.3674 21.357ZM58.4646 26.3096C57.0049 26.6396 55.6222 26.8046 54.3148 26.8046C53.0767 26.8046 51.9928 26.628 51.0629 26.2737C50.1324 25.9195 49.4168 25.3657 48.9153 24.6123C48.414 23.8586 48.1636 23.0398 48.1636 22.156C48.1636 21.3363 48.3757 20.5781 48.8012 19.8838C49.2267 19.1883 49.8452 18.6398 50.6585 18.2378C51.4705 17.8358 52.4724 17.6349 53.6618 17.6349C55.1206 17.6349 56.2856 17.9917 57.1573 18.7049C58.0287 19.419 58.4646 20.7476 58.4646 22.6909H51.4196C51.4884 23.2822 51.6625 23.748 51.9419 24.0887C52.2213 24.43 52.5987 24.7 53.0751 24.8996C53.5506 25.0992 54.1885 25.1994 54.9886 25.1994C56.0162 25.1994 57.1746 25.0156 58.4646 24.6481V26.3096Z" fill="#0D318F"/>
<path fill-rule="evenodd" clip-rule="evenodd" d="M66.5484 26.5572C65.8106 26.7222 65.2295 26.8045 64.8052 26.8045C63.7968 26.8045 63.0137 26.6952 62.4574 26.4773C61.9003 26.2589 61.4829 25.9616 61.2048 25.5866C60.9267 25.211 60.7875 24.6588 60.7875 23.9292V19.312H59.5034V17.8345H60.7875L63.8766 16.0853V17.8345H66.3294V19.312H63.8766V23.6118C63.8766 24.2448 64.0228 24.6713 64.315 24.8923C64.607 25.1126 65.0356 25.2233 65.5991 25.2233C65.8627 25.2233 66.1795 25.1912 66.5484 25.1274V26.5572Z" fill="#0D318F"/>
<path fill-rule="evenodd" clip-rule="evenodd" d="M70.2675 26.6051L67.0771 17.8346H69.9501L72.2065 23.9778L74.6052 17.8346H77.2738L79.4394 24.0089L81.8711 17.8346H84.026L80.616 26.6051H77.655L75.5668 20.5895L73.2284 26.6051H70.2675Z" fill="#0D318F"/>
<path fill-rule="evenodd" clip-rule="evenodd" d="M90.5024 25.3269C91.3795 25.3269 92.0388 25.0327 92.4807 24.444C92.9219 23.856 93.1428 23.1145 93.1428 22.2197C93.1428 21.3305 92.9219 20.5903 92.4807 19.9991C92.0388 19.4078 91.3795 19.1127 90.5024 19.1127C89.6326 19.1127 88.977 19.4078 88.5352 19.9991C88.0933 20.5903 87.8724 21.3305 87.8724 22.2197C87.8724 23.1145 88.0933 23.856 88.5352 24.444C88.977 25.0327 89.6326 25.3269 90.5024 25.3269ZM90.5024 26.8045C89.2639 26.8045 88.2014 26.6197 87.3143 26.2497C86.4268 25.8795 85.7505 25.3348 85.2842 24.616C84.8181 23.8971 84.585 23.0985 84.585 22.2197C84.585 21.3465 84.8144 20.5516 85.2735 19.8356C85.7333 19.1193 86.408 18.5737 87.2986 18.1978C88.1892 17.8228 89.257 17.6348 90.5024 17.6348C91.755 17.6348 92.8251 17.8228 93.7119 18.1978C94.5994 18.5737 95.2741 19.1193 95.7367 19.8356C96.1996 20.5516 96.4309 21.3465 96.4309 22.2197C96.4309 23.0985 96.1977 23.8971 95.7313 24.616C95.2653 25.3348 94.5884 25.8795 93.7016 26.2497C92.8144 26.6197 91.7478 26.8045 90.5024 26.8045Z" fill="#0D318F"/>
<path fill-rule="evenodd" clip-rule="evenodd" d="M98.1909 26.605V17.8345H101.28V19.4878C101.648 18.9236 102.153 18.4735 102.793 18.1382C103.433 17.8025 104.146 17.6349 104.933 17.6349C105.121 17.6349 105.312 17.651 105.507 17.6827V19.7914C105.075 19.6695 104.668 19.6079 104.286 19.6079C103.673 19.6079 103.117 19.7264 102.616 19.9634C102.115 20.2003 101.67 20.5583 101.28 21.0377V26.605H98.1909Z" fill="#0D318F"/>
<path fill-rule="evenodd" clip-rule="evenodd" d="M106.838 26.6051V15.9176H109.928V21.9241H110.126L114.207 17.8346H116.791L113.013 21.5947L117.945 26.6051H114.196L110.126 22.2198H109.928V26.6051H106.838Z" fill="#0D318F"/>
<path fill-rule="evenodd" clip-rule="evenodd" d="M118.993 26.3254V24.592C120.523 25.082 121.832 25.3269 122.917 25.3269C123.495 25.3269 123.956 25.2335 124.3 25.0477C124.644 24.861 124.817 24.6241 124.817 24.3365C124.817 24.0863 124.688 23.8757 124.431 23.7056C124.173 23.5406 123.78 23.3778 123.251 23.2182L122.208 22.8988C121.129 22.5688 120.333 22.2039 119.817 21.8044C119.302 21.4102 119.045 20.8967 119.045 20.2627C119.045 19.5014 119.432 18.8728 120.209 18.3778C120.984 17.8824 122.169 17.6351 123.763 17.6351C124.695 17.6351 125.804 17.7388 127.092 17.9462V19.608C125.853 19.2777 124.827 19.1126 124.013 19.1126C123.373 19.1126 122.892 19.1966 122.573 19.3641C122.253 19.5319 122.093 19.7491 122.093 20.015C122.093 20.2228 122.197 20.4067 122.406 20.5663C122.608 20.726 122.976 20.8835 123.512 21.0378L124.41 21.3012C125.891 21.7327 126.862 22.1508 127.322 22.5553C127.773 22.9654 128 23.4551 128 24.025C128 24.7652 127.584 25.4136 126.752 25.9702C125.921 26.5266 124.712 26.8044 123.126 26.8044C121.776 26.8044 120.398 26.6451 118.993 26.3254Z" fill="#0D318F"/>
</svg>
