<svg width="142" height="26" viewBox="0 0 142 26" fill="none" xmlns="http://www.w3.org/2000/svg">
<path d="M102.623 5.38525V20.8049H111.073V18.9754H105.237V5.38525H102.623Z" fill="#EC1B2D"/>
<path d="M17.162 5.38525C17.9461 5.38525 18.7301 5.38525 19.3399 5.6466C21.0822 6.25642 22.2148 7.65028 22.2148 9.8282C22.2148 11.6576 21.0822 13.2257 19.427 13.9227L24.0442 20.892H20.8209L16.8135 14.5325H14.1129V20.8049H11.3252V5.38525H17.162ZM14.1129 12.703H16.0295H16.6393C18.3816 12.703 19.3399 11.7448 19.3399 9.74108C19.3399 8.60857 18.9915 6.86624 16.8135 6.86624H14.1129V12.703Z" fill="#EC1B2D"/>
<path d="M5.05276 5.38525C5.92393 5.38525 6.53374 5.38525 7.05644 5.47237C9.49571 5.82084 10.8025 7.65028 10.8025 10.2638C10.8025 12.0061 9.93129 13.2257 8.79877 14.0969C7.92761 14.7938 6.62086 14.9681 5.13988 14.9681H2.78773V20.892H0V5.38525H5.05276ZM5.31411 13.2257C7.66626 13.1386 8.01472 11.3092 8.01472 10.0024C8.01472 7.30182 6.44663 6.95335 5.13988 6.95335H2.78773V13.2257H5.31411Z" fill="#EC1B2D"/>
<path d="M33.2783 20.8049C34.1495 20.3693 35.0207 19.6724 35.5434 19.0626H38.9409C40.2477 19.0626 41.2931 18.627 42.0771 18.1043C43.5581 16.9718 44.5164 15.1423 44.5164 12.703C44.5164 10.5251 43.2096 8.43433 42.0771 7.82452C40.8575 7.12759 40.6832 7.04047 38.8538 7.04047H36.0661V15.1423C36.0661 16.8846 35.7176 18.1043 34.6722 19.1497C33.3654 20.4564 31.4489 21.1534 29.4452 21.1534C25.0894 21.1534 22.563 19.1497 22.563 15.4908V5.38525H25.1765V15.1423C25.1765 15.8392 25.2636 16.4491 25.3507 16.9718C25.7863 18.3656 27.4415 19.2368 29.4452 19.2368C31.9716 19.2368 33.3654 17.8429 33.3654 15.2294V5.38525H39.8121C41.2059 5.38525 42.3385 5.55949 43.2967 5.99507C45.8231 7.12758 47.4783 9.39262 47.4783 12.8773C47.4783 16.7104 45.1262 20.8049 38.8538 20.8049H33.2783Z" fill="#EC1B2D"/>
<path d="M87.3779 5.38525H84.6772V20.8049H87.3779V5.38525Z" fill="#EC1B2D"/>
<path d="M71.0868 7.12759H76.4881V20.8049H79.2758V7.12759H84.2414V5.38525H68.996V16.7104L59.8488 5.38525H57.4966V18.9754H50.0917V13.6613H56.4512V11.919H50.0917V7.04047H56.7997V5.38525H47.3911V20.8049H59.5874V9.47973L68.8218 20.8049H71.0868V7.12759Z" fill="#EC1B2D"/>
<path d="M96.1767 5.38525L102.71 20.8049H99.7485L98.0933 16.7104H91.5595L89.8172 20.8049H87.3779L94.0859 5.38525H96.1767ZM92.2565 14.881H97.3092L94.7828 8.69568L92.2565 14.881Z" fill="#EC1B2D"/>
<path d="M123.008 1.02942C123.27 1.02942 123.183 1.465 123.792 1.465C124.141 1.465 124.141 1.29077 124.577 1.29077C125.709 1.29077 126.145 2.68463 127.016 2.68463C127.364 2.68463 127.451 2.42328 127.8 2.42328C127.974 2.42328 128.235 2.5104 128.323 2.59752C128.41 2.68463 128.671 2.94598 129.281 4.51408C129.368 4.68831 129.281 4.77543 129.194 4.77543C129.107 4.77543 128.932 4.68831 128.497 4.25273C128.235 3.99138 128.061 4.16562 127.016 3.46868C126.58 3.20733 126.057 2.77175 125.535 2.5104C125.012 2.33617 124.141 2.24905 123.88 2.16193C123.444 2.07482 122.747 1.72635 122.747 1.20365C122.834 1.20365 122.921 1.02942 123.008 1.02942Z" fill="#303436"/>
<path d="M128.845 0.855225C129.107 0.855225 129.281 1.20369 129.542 1.46504C130.152 1.98774 131.023 1.63927 131.72 2.33621C131.895 2.51044 132.069 2.94602 132.069 3.3816C132.069 3.81719 131.982 4.16565 131.807 4.16565C131.285 4.16565 131.633 3.3816 130.675 2.77179C129.717 2.16197 129.542 2.16197 129.107 1.72639C128.671 1.29081 128.671 1.11657 128.671 1.02946C128.497 0.942341 128.584 0.855225 128.845 0.855225Z" fill="#303436"/>
<path d="M133.201 2.68469C133.462 2.68469 133.375 3.03316 133.637 3.20739C133.898 3.46874 134.072 3.38162 134.421 3.73009C134.595 3.90432 134.595 3.99144 134.595 4.07856C134.595 4.07856 134.508 4.68837 133.898 4.68837C133.724 4.68837 133.637 4.68837 133.549 4.42702C133.375 4.16567 133.462 3.73009 133.201 3.38162C132.94 3.03316 132.853 3.03316 132.853 2.85893C133.027 2.77181 133.201 2.68469 133.201 2.68469Z" fill="#303436"/>
<path d="M134.247 5.7338C135.031 5.90803 135.379 6.25649 135.379 6.69208C135.379 7.12766 135.205 7.21478 135.031 7.38901C134.944 7.56324 134.769 7.82459 134.769 8.52153C134.769 8.69576 134.682 8.78287 134.595 8.78287C134.508 8.78287 134.421 8.69576 134.421 8.60864C134.421 8.52153 134.508 8.52152 134.508 8.43441C134.508 8.34729 134.508 7.99883 134.334 7.82459C133.637 7.21478 130.239 6.77919 128.061 6.77919C125.448 6.77919 123.357 7.30189 122.747 7.30189C121.702 7.30189 121.179 6.77919 121.179 6.34361C121.179 5.90803 121.441 5.90803 121.441 5.64668C121.441 5.47245 121.353 5.47245 121.353 5.29821C121.353 5.12398 121.528 4.77551 121.615 4.77551C121.789 4.77551 121.789 4.94975 121.963 5.29821C122.225 5.7338 122.66 6.25649 123.618 6.25649C124.49 6.25649 125.187 5.90803 126.406 5.64668C127.887 5.29821 129.107 5.12398 130.326 5.12398C130.849 5.29821 132.853 5.29821 134.247 5.7338Z" fill="#EC1B2D"/>
<path d="M134.421 10.0024C134.595 10.0024 134.682 10.0024 134.682 10.1767C134.682 10.2638 134.508 10.2638 134.421 10.2638C134.334 10.2638 133.637 10.438 133.376 10.8736C133.288 10.9607 133.376 11.0478 133.463 11.0478C133.55 11.0478 134.247 11.4834 134.247 11.7448C134.247 12.0061 133.724 12.2675 133.55 12.2675C133.376 12.2675 133.288 12.0932 133.288 12.0061C133.288 11.919 133.463 11.8319 133.463 11.7448C133.463 11.6577 133.288 11.5705 133.288 11.5705C133.201 11.5705 133.201 11.5705 133.114 11.8319C133.114 12.0061 132.94 12.7902 132.853 13.2258C132.853 13.6613 132.679 14.881 132.679 15.0552C132.679 15.2294 132.679 15.665 132.33 15.8393C131.982 16.1006 131.72 16.1877 131.72 16.1877C131.72 16.1877 131.633 16.2748 131.546 16.2748C131.546 16.2748 131.372 16.1877 131.285 16.1006C131.111 16.0135 131.023 16.0135 130.936 16.0135C130.762 16.0135 130.414 16.2748 130.152 16.2748C129.891 16.2748 129.368 16.0135 129.368 15.8393C129.368 15.7521 129.455 15.7521 129.455 15.7521C129.542 15.7521 129.804 15.9264 129.978 15.9264C130.239 15.9264 130.414 15.7521 130.762 15.7521C130.936 15.7521 131.372 15.8393 131.72 15.8393C132.069 15.8393 132.156 15.7521 132.243 15.665C132.33 15.5779 132.417 15.4037 132.417 15.0552C132.417 14.7067 132.156 13.4 132.156 12.6159C132.156 11.8319 132.33 11.135 132.679 10.7865C133.027 10.2638 133.898 10.0024 134.421 10.0024Z" fill="#303436"/>
<path d="M134.944 12.1804C135.031 12.1804 135.118 12.2675 135.118 12.616C135.118 12.9645 134.856 15.0553 134.334 16.5362C133.811 18.0172 133.637 18.0172 133.114 18.8884C132.591 19.7596 132.243 20.6307 131.72 21.1534C131.546 21.3277 131.198 21.589 130.501 21.589C129.804 21.589 128.671 21.4148 127.539 20.9792C126.319 20.4565 125.187 19.7596 124.49 19.0626C124.402 18.9755 124.402 18.8884 124.664 18.9755C124.838 19.0626 125.796 19.8467 127.626 20.3694C128.933 20.805 129.368 20.805 129.891 20.805C130.414 20.805 131.023 20.8921 131.72 20.1951C132.417 19.4982 132.94 18.3657 133.201 17.9301C133.463 17.4945 133.898 16.7105 134.421 15.3166C134.856 13.9227 134.944 13.0516 135.031 12.4418C134.856 12.2675 134.856 12.1804 134.944 12.1804Z" fill="#303436"/>
<path d="M130.327 16.8846C130.588 16.8846 130.762 17.2331 131.111 17.2331C131.372 17.2331 131.459 16.8846 131.633 16.8846C131.808 16.8846 131.895 17.2331 131.895 17.4073C131.982 17.5816 131.982 17.5816 131.982 17.6687C131.982 17.6687 131.895 17.7558 131.808 17.7558C131.72 17.7558 131.633 17.6687 131.285 17.6687C131.023 17.6687 130.849 17.8429 130.849 17.8429H130.762C130.675 17.7558 130.501 17.4945 130.152 17.4945C129.978 17.4945 129.717 17.5816 129.542 17.7558C129.281 17.93 129.107 17.93 128.933 17.93C128.758 17.93 128.497 17.8429 128.497 17.7558C128.497 17.6687 128.584 17.6687 128.671 17.6687C128.846 17.6687 129.02 17.7558 129.455 17.4945C129.804 17.146 130.065 16.8846 130.327 16.8846Z" fill="#303436"/>
<path d="M129.542 18.1042C129.716 18.1042 129.891 18.3656 130.588 18.3656C131.284 18.3656 131.459 18.0171 131.633 18.0171C131.72 18.0171 131.72 18.1042 131.72 18.1042C131.72 18.1042 131.459 19.0625 130.762 19.0625C130.326 19.0625 129.891 18.714 129.716 18.5398C129.542 18.3656 129.455 18.1913 129.455 18.1042C129.368 18.1042 129.455 18.1042 129.542 18.1042Z" fill="#303436"/>
<path d="M128.236 10.6122C128.758 10.6122 129.804 10.6993 129.804 11.0478C129.804 11.222 129.281 11.0478 128.933 11.0478C128.584 11.0478 128.497 11.0478 128.497 11.1349V11.222C128.497 11.222 128.758 11.4833 128.758 11.5705C128.758 11.8318 127.974 12.1803 127.8 12.1803C127.713 12.1803 127.539 12.0932 127.539 11.9189C127.539 11.8318 127.974 11.7447 127.974 11.6576C127.974 11.5705 127.713 11.3962 127.539 11.3962C127.365 11.3962 126.668 11.8318 126.58 11.8318C126.493 11.8318 126.493 11.7447 126.493 11.6576C126.493 11.5705 126.58 11.4833 126.58 11.3962C126.58 11.222 126.406 11.222 126.406 11.0478C126.406 10.9606 126.493 10.7864 127.19 10.6993C127.887 10.6122 127.974 10.6122 128.236 10.6122Z" fill="#303436"/>
<path d="M127.974 9.21838C128.497 9.21838 129.542 9.3055 129.717 9.3055C129.891 9.3055 129.891 9.39262 129.891 9.47973C129.891 9.56685 129.804 9.56685 129.63 9.56685C129.281 9.56685 128.323 9.56685 127.452 9.8282C125.971 10.2638 125.796 10.6994 125.535 10.6994C125.448 10.6994 125.361 10.6122 125.361 10.5251C125.361 10.438 125.535 10.1767 125.535 10.0895C125.535 10.0024 125.448 9.8282 125.448 9.74108C125.361 9.56685 126.58 9.21838 127.974 9.21838Z" fill="#303436"/>
<path d="M140.955 8.78284C141.739 8.78284 142 9.47977 142 10.3509C142 10.5252 141.913 10.6994 141.826 10.6994C141.652 10.6994 141.913 10.1767 141.39 10.1767C141.303 10.1767 141.042 10.2638 140.868 10.4381C140.693 10.6123 139.561 12.0933 138.777 14.5325C138.341 15.7522 138.167 16.5362 138.167 17.2331C138.167 17.6687 138.254 18.0172 138.254 18.1914C138.254 18.4528 137.993 18.2785 137.906 18.1914C137.818 18.0172 137.557 17.4945 137.557 16.7104C137.557 16.0135 137.906 14.0969 138.428 12.2675C138.951 11.3963 139.822 8.78284 140.955 8.78284Z" fill="#303436"/>
<path d="M138.777 20.7178C138.864 20.7178 138.951 20.7178 138.951 20.8049C138.951 20.892 138.603 21.2405 138.428 21.4147C138.167 21.6761 138.08 22.1116 137.906 22.1116C137.818 22.1116 137.818 22.0245 137.818 21.9374C137.818 21.8503 137.818 21.8503 137.818 21.7632C137.818 21.5018 137.557 21.5889 137.557 21.4147C137.557 21.3276 137.993 20.9791 138.167 20.892C138.254 20.8049 138.603 20.7178 138.777 20.7178Z" fill="#303436"/>
<path d="M138.515 22.4602C138.602 22.4602 138.689 22.4602 138.689 22.5473C138.689 22.6344 138.254 22.8958 138.167 22.9829C138.08 23.07 137.644 23.6798 137.557 24.0283C137.47 24.3768 137.383 24.4639 137.296 24.4639C137.121 24.4639 137.208 24.1154 137.034 24.0283C136.947 23.9412 136.599 23.9412 136.599 23.767C136.599 23.5927 136.86 23.3314 137.121 23.1571C137.383 22.8958 137.905 22.4602 138.515 22.4602Z" fill="#303436"/>
<path d="M136.686 19.2368C136.773 19.2368 136.86 19.3239 136.947 19.4111C137.035 19.4982 136.947 19.5853 137.035 19.6724C137.122 19.7595 137.47 19.8466 137.47 20.0209C137.47 20.1951 137.296 20.1951 137.209 20.2822C137.122 20.3693 136.86 20.4564 136.686 20.8049C136.512 21.1534 136.425 21.589 136.338 22.1117C136.338 22.7215 136.076 23.2442 135.815 23.7669C135.466 24.2896 135.031 24.7252 134.769 25.1607C134.508 25.5092 134.595 25.9448 134.421 25.9448C134.16 25.9448 134.16 25.335 134.16 25.0736C134.16 24.8123 134.247 24.1153 134.769 23.5926C135.379 22.9828 135.902 22.9828 135.902 22.0245C135.902 21.4147 135.815 21.2405 135.815 20.892C135.902 20.2822 135.989 19.2368 136.686 19.2368Z" fill="#303436"/>
<path d="M111.597 5.90792C111.945 5.90792 111.597 6.08215 112.119 6.69197C112.381 6.95332 112.555 7.04043 113.252 7.04043C113.687 7.04043 114.21 6.95332 115.604 6.3435C116.127 6.08215 117.085 5.8208 117.695 5.8208C118.566 5.8208 119.176 6.25638 119.611 6.60485C120.047 6.95332 120.657 7.3889 120.831 7.56313C121.092 7.73737 121.441 7.99871 121.615 7.99871C121.789 8.08583 121.789 8.17295 121.702 8.26007C121.702 8.34718 121.528 8.60853 121.441 8.69565C121.441 8.78277 121.266 8.86988 121.179 8.86988C121.092 8.86988 120.744 9.04411 120.308 9.39258C119.873 9.74105 119.089 10.1766 118.217 10.1766C117.346 10.1766 115.952 9.82816 115.168 9.82816C114.82 9.82816 114.384 10.0024 114.036 10.3509C113.949 10.5251 113.774 10.6993 113.687 10.7864C113.6 10.8736 113.339 11.0478 113.165 11.0478C113.078 11.0478 112.903 10.9607 112.903 10.8736C112.903 10.6993 113.339 10.6122 113.339 10.2637C113.339 9.91528 113.252 9.91528 113.252 9.74105C113.252 9.56681 113.339 9.30546 113.6 9.04411C114.036 8.60853 115.168 8.34718 116.214 8.34718C116.998 8.34718 118.392 8.69565 119.437 8.69565C119.873 8.69565 120.221 8.60853 120.395 8.52141C120.657 8.4343 120.57 8.26007 120.482 8.26007C120.395 8.26007 120.395 8.34718 120.134 8.34718C119.873 8.34718 119.263 8.17295 118.74 7.82448C118.217 7.47602 117.433 7.04043 116.649 7.04043C115.865 7.04043 115.255 7.30178 115.081 7.3889C114.471 7.65025 113.165 8.4343 112.381 8.4343C111.684 8.4343 110.812 8.08583 110.812 7.47602C110.812 6.8662 111.422 6.8662 111.422 6.51773C111.422 6.43062 111.422 6.43062 111.422 6.3435C111.335 6.16927 111.422 5.90792 111.597 5.90792Z" fill="#EC1B2D"/>
<path d="M120.57 11.2222C120.744 11.2222 120.744 11.3964 120.831 11.4835C120.918 11.5706 121.005 11.4835 121.092 11.6578C121.267 11.832 121.18 11.9191 121.267 12.0062C121.354 12.0933 121.528 12.0933 121.528 12.1805C121.528 12.5289 121.441 13.0516 121.441 13.8357C121.441 14.4455 121.528 15.0553 121.702 15.6651C121.789 15.9265 121.615 15.9265 121.528 15.7522C120.918 14.6197 120.396 13.0516 120.396 11.7449C120.396 11.4835 120.483 11.2222 120.57 11.2222Z" fill="#303436"/>
<path d="M119.873 12.4418C119.96 12.4418 119.96 12.5289 119.96 12.616C119.96 12.7031 119.698 13.5743 119.35 14.097C119.002 14.6197 118.392 15.2295 118.13 15.2295C118.043 15.2295 118.043 15.1424 118.043 15.0553C118.043 15.0553 117.956 14.881 118.13 14.7939C118.305 14.7068 118.305 14.6197 118.305 14.5326C118.305 14.4455 118.218 14.3583 118.218 14.2712C118.218 14.1841 118.305 14.0099 118.392 14.0099C118.479 13.9228 119.089 13.6614 119.437 13.2258C119.611 12.7902 119.698 12.4418 119.873 12.4418Z" fill="#303436"/>
<path d="M120.221 20.0209C120.308 19.3239 120.395 18.627 120.395 18.0172C120.83 18.1914 121.092 18.4528 121.092 18.8883C121.092 19.4982 120.395 19.9337 120.221 20.0209ZM120.395 16.9718C120.395 16.8847 120.395 16.7975 120.395 16.6233C120.395 15.2294 120.134 14.3583 119.872 14.3583C119.611 14.3583 119.262 15.7521 119.175 16.4491C118.74 16.2748 118.391 16.2748 118.217 16.2748C117.52 16.2748 117.433 16.4491 117.433 16.6233C117.433 16.7975 117.607 17.0589 117.781 17.2331C118.217 17.6687 118.653 17.6687 119.175 17.6687C119.088 18.5399 119.001 19.5853 119.001 20.0209C119.001 20.108 119.001 20.3693 119.001 20.5436C118.565 20.8049 117.781 21.2405 117.52 21.5018C117.172 21.8503 117.084 22.1116 117.084 22.373C117.084 23.3313 117.869 23.2442 117.869 23.9411C117.869 24.2024 117.694 24.4638 117.869 24.4638C118.13 24.4638 118.304 24.0282 118.304 23.6797C118.304 23.4184 118.043 22.8957 118.043 22.6343C118.043 22.373 118.13 22.0245 118.565 21.5889C118.653 21.5018 118.827 21.4147 118.914 21.3276C118.914 22.1988 119.001 23.157 119.001 23.3313C119.001 23.6797 119.001 24.5509 119.262 24.5509C119.437 24.5509 119.785 22.8086 119.959 21.6761C119.959 21.4147 120.046 21.0663 120.046 20.7178C120.221 20.6307 120.395 20.5436 120.569 20.4564C121.353 19.9337 121.876 19.411 121.876 18.7141C121.963 17.8429 121.266 17.3202 120.395 16.9718Z" fill="#303436"/>
</svg>
