<svg width="109" height="31" viewBox="0 0 109 31" fill="none" xmlns="http://www.w3.org/2000/svg">
<g clip-path="url(#clip0)">
<path d="M31.6101 14.3261C31.6101 15.1646 31.694 16.0031 31.8617 16.6738C32.0294 17.4284 32.2809 18.0154 32.7001 18.6023C33.1194 19.1054 33.5386 19.6084 34.2094 19.86C34.8801 20.1115 35.5509 20.3631 36.3894 20.3631C37.2278 20.3631 37.8986 20.1954 38.6532 19.9438C39.324 19.6923 39.827 19.3569 40.2463 19.1054V8.6246C39.827 8.4569 39.4078 8.4569 38.9047 8.37306C38.4017 8.28921 37.7309 8.28921 36.8924 8.28921C35.2994 8.28921 34.0417 8.79229 33.0355 9.88229C32.1132 10.8884 31.6101 12.3977 31.6101 14.3261V14.3261ZM29.0947 10.6369C29.514 9.5469 30.017 8.6246 30.7717 7.86998C31.5263 7.11537 32.3647 6.52844 33.3709 6.10921C34.377 5.85767 35.5509 5.60613 36.8086 5.60613C38.1501 5.60613 39.4078 5.68998 40.4978 5.94152C41.5878 6.19306 42.4263 6.36075 43.097 6.52844V29.67L40.1624 30.1731V21.7884C39.827 22.04 39.2401 22.2915 38.4855 22.5431C37.7309 22.7946 36.8924 22.9623 35.9701 22.9623C34.7963 22.9623 33.7063 22.7108 32.784 22.2915C31.8617 21.8723 31.107 21.2854 30.4363 20.5307C29.7655 19.7761 29.3463 18.8538 29.0109 17.7638C28.6755 16.6738 28.5078 15.5838 28.5078 14.3261C28.5078 12.9846 28.6755 11.7269 29.0947 10.6369V10.6369ZM61.8786 14.2423C61.8786 15.5838 61.7109 16.7577 61.2917 17.8477C60.8724 18.9377 60.3693 19.86 59.6986 20.6146C59.0278 21.3692 58.1894 21.9561 57.267 22.3754C56.3447 22.7946 55.2547 22.9623 54.1647 22.9623C53.0747 22.9623 51.9847 22.7946 51.0624 22.3754C50.1401 21.9561 49.3017 21.3692 48.6309 20.6146C47.9601 19.86 47.3732 18.9377 47.0378 17.8477C46.6186 16.7577 46.4509 15.5838 46.4509 14.2423C46.4509 12.9846 46.6186 11.7269 47.0378 10.7208C47.457 9.63075 47.9601 8.70844 48.6309 7.95383C49.3017 7.19921 50.1401 6.61229 51.0624 6.19306C51.9847 5.77383 53.0747 5.60613 54.1647 5.60613C55.2547 5.60613 56.3447 5.77383 57.267 6.19306C58.1894 6.61229 59.0278 7.19921 59.6986 7.95383C60.3693 8.70844 60.9563 9.63075 61.2917 10.7208C61.7109 11.8108 61.8786 12.9846 61.8786 14.2423ZM58.7763 14.2423C58.7763 12.3977 58.357 10.8884 57.5186 9.79844C56.6801 8.70844 55.5063 8.12152 54.0809 8.12152C52.6555 8.12152 51.4817 8.70844 50.6432 9.79844C49.8047 10.8884 49.4694 12.3977 49.4694 14.2423C49.4694 16.0869 49.8886 17.5961 50.727 18.6861C51.5655 19.7761 52.7394 20.3631 54.1647 20.3631C55.5901 20.3631 56.764 19.7761 57.6024 18.6861C58.357 17.5961 58.7763 16.1708 58.7763 14.2423ZM65.1486 6.4446C65.8194 6.2769 66.7417 6.10921 67.8317 5.94152C68.9217 5.77383 70.2632 5.68998 71.6886 5.68998C73.0301 5.68998 74.1201 5.85767 74.9586 6.2769C75.797 6.61229 76.5517 7.19921 77.0547 7.86998C77.6417 8.37306 77.977 9.21152 78.2286 10.1338C78.4801 11.0561 78.564 12.0623 78.564 13.2361V22.5431H75.6294V13.9069C75.6294 12.9008 75.5455 11.9784 75.4617 11.3077C75.3778 10.6369 75.1263 9.96613 74.7909 9.5469C74.4555 9.12767 74.0363 8.79229 73.5332 8.54075C73.0301 8.28921 72.3594 8.20537 71.5209 8.20537H70.5147C70.5147 8.20537 69.7601 8.28921 69.4247 8.37306C69.0894 8.4569 68.8378 8.4569 68.5863 8.4569C68.3347 8.54075 68.167 8.54075 68.0832 8.54075V22.5431H65.1486V6.4446V6.4446ZM85.2717 5.94152H91.5601V8.4569H85.2717V16.0869C85.2717 16.9254 85.3555 17.5961 85.4394 18.1831C85.607 18.6861 85.7747 19.1892 86.0263 19.4408C86.2778 19.7761 86.6132 19.9438 86.9486 20.1115C87.3678 20.2792 87.787 20.2792 88.2901 20.2792C89.2124 20.2792 89.8832 20.1954 90.4701 19.9438C90.9732 19.7761 91.3924 19.6084 91.5601 19.5246L92.147 21.9561C91.8117 22.1238 91.3086 22.2915 90.554 22.5431C89.7994 22.7946 88.9609 22.8784 88.0386 22.8784C86.9486 22.8784 85.9424 22.7107 85.2717 22.4592C84.517 22.2077 83.9301 21.7046 83.5109 21.2015C83.0917 20.6146 82.7563 19.9438 82.5886 19.1054C82.4209 18.2669 82.337 17.2607 82.337 16.1707V1.32998L85.2717 0.826904V5.94152ZM109 14.2423C109 15.5838 108.832 16.7577 108.413 17.8477C107.994 18.9377 107.491 19.86 106.82 20.6146C106.149 21.3692 105.311 21.9561 104.389 22.3754C103.466 22.7946 102.376 22.9623 101.286 22.9623C100.196 22.9623 99.1063 22.7946 98.184 22.3754C97.2617 21.9561 96.4232 21.3692 95.7524 20.6146C95.0817 19.86 94.4947 18.9377 94.1594 17.8477C93.7401 16.7577 93.5724 15.5838 93.5724 14.2423C93.5724 12.9846 93.7401 11.7269 94.1594 10.7208C94.5786 9.63075 95.0817 8.70844 95.7524 7.95383C96.4232 7.19921 97.2617 6.61229 98.184 6.19306C99.1063 5.77383 100.196 5.60613 101.286 5.60613C102.376 5.60613 103.466 5.77383 104.389 6.19306C105.311 6.61229 106.149 7.19921 106.82 7.95383C107.491 8.70844 108.078 9.63075 108.413 10.7208C108.832 11.8108 109 12.9846 109 14.2423ZM105.898 14.2423C105.898 12.3977 105.479 10.8884 104.64 9.79844C103.802 8.70844 102.628 8.12152 101.202 8.12152C99.777 8.12152 98.6032 8.70844 97.7647 9.79844C96.9263 10.8884 96.507 12.3977 96.507 14.2423C96.507 16.0869 96.9263 17.5961 97.7647 18.6861C98.6032 19.7761 99.777 20.3631 101.202 20.3631C102.628 20.3631 103.802 19.7761 104.64 18.6861C105.479 17.5961 105.898 16.1708 105.898 14.2423Z" fill="#262A3E"/>
<path d="M2.93462 10.7208C4.69538 12.4816 7.04308 13.4877 9.47462 13.6554C9.30692 11.2239 8.30077 8.87617 6.54 7.1154C4.77923 5.35463 2.51538 4.34848 0 4.18079C0.167692 6.61232 1.17385 8.96002 2.93462 10.7208Z" fill="#6B5AED"/>
<path d="M17.1884 10.7208C15.4277 12.4816 13.08 13.4877 10.6484 13.6554C10.8161 11.2239 11.8223 8.87617 13.5831 7.1154C15.26 5.35463 17.6077 4.34848 20.1231 4.18079C19.9554 6.61232 18.9492 8.96002 17.1884 10.7208Z" fill="#6B5AED"/>
<path d="M17.1884 17.68C15.4277 15.9192 13.08 14.9131 10.6484 14.7454C10.8161 17.1769 11.8223 19.5246 13.5831 21.2854C15.3438 23.0461 17.6915 24.0523 20.1231 24.22C19.9554 21.7046 18.9492 19.3569 17.1884 17.68Z" fill="#6B5AED"/>
<path d="M2.93462 17.68C4.69538 15.9192 7.04308 14.9131 9.55846 14.7454C9.39077 17.1769 8.38462 19.5246 6.62385 21.2854C4.77923 23.0461 2.51538 24.0523 0 24.22C0.167692 21.7046 1.17385 19.3569 2.93462 17.68V17.68Z" fill="#6B5AED"/>
</g>
<defs>
<clipPath id="clip0">
<rect width="109" height="29.3462" fill="white" transform="translate(0 0.826904)"/>
</clipPath>
</defs>
</svg>
