<svg width="163" height="24" viewBox="0 0 163 24" fill="none" xmlns="http://www.w3.org/2000/svg">
<path fill-rule="evenodd" clip-rule="evenodd" d="M4.9032 4.89203V11.258L5.4002 11.754L6.8882 10.268V6.11803L4.9032 4.89003V4.89203ZM14.5902 3.07203H6.1302C5.6002 3.20703 5.2302 3.50603 5.0232 3.96803L6.8882 5.06803H13.8582L14.5902 3.07103V3.07203ZM12.3702 18.872H6.8872L5.3112 20.414C5.5172 20.632 5.7882 20.784 6.1232 20.87H13.4492L13.4162 20.777L12.3682 18.872H12.3702ZM13.2022 13.758V18.631L14.3452 20.711C14.7772 20.496 15.0572 20.131 15.1872 19.615V12.68L14.7332 12.227L13.2032 13.757L13.2022 13.758ZM6.1922 12.263L6.8882 12.97H12.8042L13.9942 11.778L13.2022 10.972H7.4842L6.1942 12.262L6.1922 12.263ZM25.9442 17.466L30.3342 18.984C30.5442 19.038 30.6612 18.914 30.5912 18.707L26.0702 5.25303C26.0002 5.04603 25.8872 5.04603 25.8182 5.25303L21.2982 18.707C21.2282 18.914 21.3422 19.037 21.5542 18.984L25.9442 17.466ZM2.1342 0.106027C1.0432 0.105027 0.158203 0.990027 0.158203 2.08003V21.86C0.158203 22.95 1.0432 23.836 2.1362 23.836H33.7762C34.8702 23.836 35.7562 22.951 35.7562 21.859V2.08003C35.7562 0.988027 34.8702 0.103027 33.7762 0.103027H2.1362L2.1342 0.106027ZM2.1342 0.896027H33.7762C34.4322 0.896027 34.9632 1.42603 34.9632 2.08203V21.86C34.9632 22.514 34.4332 23.045 33.7762 23.045H2.1362C1.4792 23.045 0.948203 22.515 0.948203 21.859V2.08003C0.948203 1.42503 1.4782 0.894027 2.1352 0.894027L2.1342 0.896027ZM55.4782 12.28C55.4782 9.10403 53.2202 6.65203 50.0912 6.65203C47.0912 6.65203 44.8182 9.21703 44.8182 12.298C44.8182 15.282 47.0762 17.928 50.1402 17.928C53.2682 17.928 55.4782 15.378 55.4782 12.298V12.281V12.28ZM56.4782 12.233C56.4782 14.136 55.6242 15.878 54.5112 16.959C54.1412 17.313 53.4792 17.813 52.7052 18.152V18.184C53.0922 18.426 53.6412 18.668 54.1252 18.877C54.5752 19.071 54.9952 19.217 55.3832 19.345C55.5602 19.425 55.8032 19.475 55.9472 19.522L55.9632 19.555L55.2862 20.232H55.2532C54.8332 20.102 54.3182 19.894 53.5432 19.539C52.9472 19.265 52.2212 18.829 51.7372 18.555C51.5922 18.603 51.3342 18.651 51.0432 18.7C50.7532 18.733 50.4132 18.765 50.0602 18.765C46.4942 18.765 43.8172 15.845 43.8172 12.378C43.8172 8.71803 46.5912 5.83003 50.3332 5.83003C53.8492 5.83003 56.4782 8.63603 56.4782 12.217V12.233ZM58.1722 11.314V5.99003H59.0752V13.314C59.0752 14.717 59.2692 15.717 59.7532 16.474C60.3502 17.394 61.5272 17.911 62.6232 17.911C63.8502 17.911 64.8832 17.573 65.5932 16.637C66.1732 15.863 66.4462 14.717 66.4462 13.121V5.99003H67.3162V13.217C67.3162 15.007 66.9632 16.314 66.1402 17.282C65.3332 18.249 64.0602 18.749 62.5752 18.749C61.1252 18.749 59.8652 18.216 59.0752 17.087C58.4452 16.2 58.1722 15.217 58.1722 13.393V11.313V11.314ZM70.6882 12.927V18.572H69.7852V5.99203H70.6882V12.927ZM82.5102 18.733H82.4302C78.9952 14.427 77.0602 11.959 75.9152 10.507C75.2372 9.65203 74.8182 9.15203 74.1252 8.15203H74.1082V18.572H73.2682V5.79703H73.3502C76.8982 10.282 78.8822 12.813 80.0102 14.233C80.6242 15.023 81.0602 15.573 81.6402 16.395H81.6732V5.99003H82.5112V18.733H82.5102ZM87.7542 6.81303H83.8182V5.99003H92.6082V6.81303H88.6582V18.573H87.7542V6.81203V6.81303ZM104.206 12.28C104.206 9.10403 101.899 6.65203 98.8362 6.65203C95.8512 6.65203 93.5442 9.15203 93.5442 12.298C93.5442 15.33 95.8672 17.928 98.8842 17.928C101.948 17.928 104.206 15.411 104.206 12.298V12.281V12.28ZM105.206 12.233C105.206 15.765 102.56 18.765 98.7862 18.765C95.2862 18.765 92.5442 15.845 92.5442 12.378C92.5442 8.66803 95.3182 5.83003 99.0612 5.83003C102.594 5.83003 105.207 8.63603 105.207 12.217V12.233H105.206ZM111.67 14.378V14.346C111.024 12.716 110.782 11.976 110.67 11.556H110.653C110.54 11.976 110.283 12.716 109.621 14.346V14.378H111.671H111.67ZM108.717 16.765C108.33 17.701 108.04 18.411 107.991 18.523V18.573H104.928V18.523C104.976 18.411 105.298 17.701 107.428 12.911L110.588 5.76603H111.008L114.138 12.912C116.234 17.702 116.541 18.412 116.59 18.525V18.575H113.233V18.525C113.201 18.413 112.911 17.703 112.54 16.767H108.717V16.765ZM128.46 18.733H128.072C125.442 16.523 123.862 15.153 122.782 14.169C121.942 13.409 121.346 12.861 120.347 11.845H120.314C120.347 12.505 120.347 12.925 120.347 13.329V18.571H117.572V5.87803H117.959C120.699 8.20103 122.313 9.58803 123.394 10.604C124.12 11.281 124.844 11.959 125.668 12.798H125.698C125.683 11.975 125.683 11.491 125.683 10.991V5.99103H128.458V18.734L128.46 18.733ZM137.928 12.104C137.928 10.959 137.541 9.92603 136.734 9.28103C136.17 8.84703 135.412 8.58903 134.444 8.58903C134.137 8.58903 133.831 8.62103 133.621 8.63703V15.831C133.621 15.863 133.639 15.863 133.654 15.863C133.896 15.895 134.154 15.911 134.396 15.911C135.122 15.911 135.832 15.701 136.429 15.283C137.299 14.653 137.929 13.621 137.929 12.121V12.105L137.928 12.104ZM141.025 12.04C141.025 14.443 139.992 16.33 138.17 17.524C137.057 18.264 135.573 18.62 133.895 18.62C133.089 18.62 132.315 18.604 131.798 18.588C131.46 18.572 130.976 18.54 130.638 18.508V6.05403C130.96 6.02203 131.363 5.97403 132.105 5.94103C132.879 5.90903 133.492 5.89303 134.089 5.89303C136.007 5.89303 137.409 6.28003 138.459 6.92503C140.411 8.13503 141.024 10.183 141.024 12.023V12.039L141.025 12.04ZM147.138 14.378V14.346C146.493 12.716 146.251 11.976 146.138 11.556H146.122C146.009 11.976 145.752 12.716 145.09 14.346V14.378H147.138ZM144.186 16.765C143.8 17.701 143.509 18.411 143.46 18.523V18.573H140.396V18.523C140.444 18.411 140.766 17.701 142.896 12.911L146.056 5.76603H146.476L149.606 12.912C151.703 17.702 152.009 18.412 152.058 18.525V18.575H148.703V18.525C148.67 18.413 148.38 17.703 148.009 16.767H144.185L144.186 16.765ZM157.993 9.97503C157.993 8.99103 157.397 8.41003 156.429 8.41003C156.154 8.41003 156.009 8.42603 155.863 8.44203V11.652C155.976 11.668 156.138 11.668 156.283 11.668C156.703 11.668 157.073 11.538 157.347 11.346C157.637 11.153 157.992 10.686 157.992 9.99103V9.97603L157.993 9.97503ZM153.043 11.315V6.03803C153.316 6.00503 153.768 5.97303 154.187 5.95803C154.542 5.94003 155.317 5.92503 155.752 5.92503C156.784 5.92503 157.59 6.02103 158.316 6.21503C159.396 6.50503 160.881 7.42503 160.881 9.74703C160.881 11.133 160.221 12.133 159.721 12.537C159.431 12.795 159.091 13.037 158.881 13.117V13.167C158.995 13.327 159.204 13.667 161.591 17.182C161.931 17.682 162.431 18.408 162.511 18.537V18.569H159.156C158.253 17.117 157.188 15.391 156.156 13.729H155.866V18.569H153.043V11.311V11.315Z" fill="#5063F0"/>
</svg>
