<svg width="108" height="28" viewBox="0 0 108 28" fill="none" xmlns="http://www.w3.org/2000/svg">
<g clip-path="url(#clip0)">
<path fill-rule="evenodd" clip-rule="evenodd" d="M31.0142 8.28644V10.8171H31.92C31.9828 10.8112 32.0462 10.8197 32.1053 10.8418C32.1644 10.8639 32.2178 10.8991 32.2613 10.9447C32.3049 10.9904 32.3376 11.0453 32.3569 11.1054C32.3762 11.1655 32.3817 11.2291 32.3729 11.2916V16.2018C32.3729 17.4267 31.8155 18.2705 30.8658 18.2705C29.7509 18.2705 29.1935 17.5737 29.1935 15.5406V8.28644H22.6083V10.8171H23.3218C23.3788 10.8103 23.4366 10.8164 23.491 10.8348C23.5454 10.8533 23.5949 10.8836 23.636 10.9237C23.6771 10.9638 23.7087 11.0126 23.7285 11.0665C23.7483 11.1204 23.7557 11.178 23.7503 11.2352V15.6325C23.7503 20.1497 25.1104 22.2721 29.2172 22.2721C29.9882 22.2926 30.7511 22.1097 31.429 21.7419C32.107 21.3742 32.6762 20.8344 33.0794 20.1769L33.9413 21.891H38.9546V19.2432H38.0607C38.0012 19.2478 37.9415 19.2394 37.8857 19.2185C37.8299 19.1977 37.7793 19.1648 37.7374 19.1224C37.6956 19.0799 37.6636 19.0288 37.6436 18.9726C37.6236 18.9165 37.6161 18.8566 37.6217 18.7973V8.28644H31.0142ZM40.059 8.28644V10.76H40.7781C40.8347 10.7539 40.8919 10.7606 40.9457 10.7794C40.9994 10.7982 41.0482 10.8287 41.0887 10.8687C41.1292 10.9087 41.1603 10.9572 41.1797 11.0107C41.1991 11.0642 41.2064 11.1214 41.201 11.1781V18.8265C41.2055 18.8839 41.1973 18.9414 41.1769 18.9952C41.1565 19.049 41.1245 19.0975 41.0831 19.1375C41.0418 19.1774 40.9921 19.2077 40.9377 19.2263C40.8833 19.2448 40.8255 19.251 40.7683 19.2446H40.059V21.8923H47.6748V19.2446H46.808C46.7503 19.2492 46.6923 19.2415 46.6379 19.2219C46.5835 19.2024 46.5338 19.1714 46.4924 19.1311C46.4509 19.0908 46.4185 19.0421 46.3973 18.9882C46.3761 18.9344 46.3667 18.8766 46.3697 18.8189V8.28644H40.059ZM58.3048 8.06905C57.1098 8.08981 55.9544 8.50064 55.0146 9.23893L54.5373 8.28644H48.3235V10.8443H49.0202C49.0798 10.8406 49.1394 10.8496 49.1951 10.8708C49.2509 10.892 49.3014 10.9249 49.3434 10.9673C49.3854 11.0097 49.4178 11.0606 49.4385 11.1165C49.4592 11.1724 49.4677 11.2321 49.4634 11.2916V24.4216C49.4662 24.4783 49.4572 24.535 49.437 24.588C49.4167 24.641 49.3856 24.6892 49.3457 24.7295C49.3058 24.7698 49.2579 24.8014 49.2051 24.8221C49.1523 24.8429 49.0957 24.8525 49.039 24.8502H48.3214V27.4408H56.4562V24.8502H55.4055C55.3483 24.8554 55.2908 24.8479 55.2369 24.828C55.1831 24.8082 55.1344 24.7766 55.0943 24.7355C55.0542 24.6945 55.0239 24.645 55.0054 24.5907C54.9869 24.5364 54.9807 24.4786 54.9874 24.4216V21.1273C56.001 21.8932 57.2557 22.27 58.5235 22.1892C62.0325 22.1892 64.7248 19.5226 64.7248 15.1963C64.7241 11.3313 62.5481 8.06626 58.3048 8.06626V8.06905ZM56.9453 18.651C55.912 18.651 54.9867 17.2358 54.9867 15.3859C54.878 13.2363 55.857 11.902 56.9182 11.902C58.1152 11.902 58.8761 13.6161 58.8761 15.2465C58.8775 17.318 58.0874 18.651 56.9453 18.651ZM75.1771 8.06626C73.9822 8.08712 72.8268 8.49794 71.887 9.23614L71.4097 8.28644H65.1958V10.8443H65.8926C65.9521 10.8406 66.0118 10.8496 66.0675 10.8708C66.1233 10.892 66.1738 10.9249 66.2158 10.9673C66.2578 11.0097 66.2902 11.0606 66.3109 11.1165C66.3316 11.1724 66.3401 11.2321 66.3358 11.2916V24.4216C66.3386 24.4783 66.3296 24.535 66.3094 24.588C66.2891 24.641 66.258 24.6892 66.2181 24.7295C66.1782 24.7698 66.1303 24.8014 66.0775 24.8221C66.0247 24.8429 65.9681 24.8525 65.9114 24.8502H65.1938V27.4408H73.3286V24.8502H72.2786C72.2214 24.8556 72.1638 24.8481 72.1099 24.8283C72.056 24.8085 72.0072 24.7769 71.9671 24.7358C71.927 24.6947 71.8966 24.6452 71.8782 24.5908C71.8597 24.5365 71.8537 24.4786 71.8605 24.4216V21.1273C72.8738 21.8932 74.1283 22.27 75.3959 22.1892C78.9049 22.1892 81.5972 19.5226 81.5972 15.1963C81.5972 11.3313 79.4212 8.06626 75.1771 8.06626ZM73.8177 18.651C72.7844 18.651 71.8598 17.2358 71.8598 15.3859C71.7511 13.2363 72.7301 11.902 73.7906 11.902C74.9876 11.902 75.7492 13.6161 75.7492 15.2465C75.7492 17.318 74.9597 18.651 73.8177 18.651ZM90.9033 18.8293C90.1832 18.8781 89.4699 18.6633 88.8965 18.225C88.3231 17.7867 87.9286 17.1547 87.7867 16.4471H96.6691C97.1082 14.9428 97.0895 13.3419 96.6155 11.8484C95.8267 9.56223 93.3511 7.90252 90.1139 7.90252C86.0078 7.90252 82.7978 10.5419 82.7978 15.0047C82.7978 20.2305 86.6056 22.3787 89.9787 22.3787C91.2216 22.4355 92.462 22.2206 93.6134 21.749C94.7647 21.2774 95.7995 20.5604 96.6454 19.648L94.7112 17.3717C93.6718 18.3214 92.3112 18.8422 90.9033 18.8293ZM89.7655 11.5766C91.5074 11.5766 91.7506 12.9548 91.7785 13.9888H87.671C87.724 13.3088 88.1058 11.5766 89.7655 11.5766ZM107.991 12.0901V7.6036C105.19 7.6036 104.482 8.71844 103.775 10.0256L102.96 8.28365H97.846V10.8297H98.5065C98.5695 10.8244 98.633 10.8318 98.6931 10.8516C98.7531 10.8713 98.8086 10.903 98.8561 10.9447C98.9037 10.9864 98.9424 11.0373 98.9698 11.0942C98.9972 11.1512 99.0129 11.2131 99.0159 11.2763V18.7736C99.0231 18.843 99.015 18.9131 98.9922 18.979C98.9694 19.0449 98.9324 19.1051 98.8838 19.1552C98.8353 19.2052 98.7763 19.2441 98.7111 19.2689C98.6459 19.2938 98.5761 19.304 98.5065 19.299H97.8188V21.8889H105.516V19.2997H104.635C104.569 19.307 104.501 19.2988 104.438 19.2759C104.375 19.253 104.318 19.2159 104.272 19.1674C104.226 19.119 104.191 19.0605 104.171 18.9966C104.151 18.9326 104.146 18.8649 104.156 18.7987V15.5238C104.156 13.1276 105.467 12.0901 107.991 12.0901ZM20.6671 20.0619C20.6671 21.0297 20.4184 21.4833 19.8233 21.4833C19.0527 21.4833 18.5329 20.4591 18.3601 19.4773C20.056 17.6267 20.92 15.004 20.92 11.7647C20.92 5.19276 17.6515 0.812144 10.373 0.812144C4.17167 0.812144 0.0112305 5.25478 0.0112305 11.548C0.0112305 18.8293 4.33123 22.47 10.5583 22.47C11.364 22.4734 12.1686 22.4114 12.9643 22.2846C13.3635 23.2875 14.0523 24.1489 14.9429 24.7588C15.8335 25.3687 16.8856 25.6996 17.965 25.7093C21.0489 25.7093 22.878 23.9583 22.878 20.2598V19.2634H20.6671V20.0619ZM10.467 17.9019C7.88896 17.9019 6.7783 15.0528 6.7783 11.5376C6.7783 8.02236 7.93495 5.17883 10.467 5.17883C12.9991 5.17883 14.1599 8.02794 14.1599 11.5425C14.1599 15.057 13.0465 17.9061 10.467 17.9061V17.9019ZM43.5638 0.552247C42.9368 0.551835 42.3238 0.737286 41.8022 1.08516C41.2806 1.43304 40.8739 1.92773 40.6333 2.50672C40.3928 3.0857 40.3293 3.723 40.4509 4.33806C40.5724 4.95312 40.8736 5.51835 41.3163 5.96231C41.759 6.40627 42.3233 6.70904 42.938 6.83235C43.5528 6.95566 44.1902 6.89398 44.7699 6.6551C45.3496 6.41622 45.8454 6.01087 46.1948 5.49027C46.5441 4.96967 46.7313 4.35719 46.7327 3.73023C46.7327 2.88953 46.3988 2.08325 45.8044 1.48872C45.21 0.894193 44.4038 0.560096 43.5631 0.559911L43.5638 0.552247Z" fill="#00BEFF"/>
</g>
<defs>
<clipPath id="clip0">
<rect width="108" height="27.871" fill="white" transform="translate(0 0.0645752)"/>
</clipPath>
</defs>
</svg>
