<svg width="124" height="36" viewBox="0 0 124 36" fill="none" xmlns="http://www.w3.org/2000/svg">
<g clip-path="url(#clip0)">
<path d="M49.1926 19.4927H45.6183V26.1943H42.5957V7.79814H49.9547C50.7321 7.79497 51.5024 7.94574 52.2212 8.24177C52.9401 8.53779 53.5932 8.97321 54.1429 9.52291C54.6926 10.0726 55.128 10.7257 55.424 11.4445C55.72 12.1634 55.8708 12.9337 55.8676 13.7111C55.8569 14.8627 55.5038 15.985 54.8532 16.9353C54.2026 17.8855 53.284 18.6207 52.2143 19.0473L56.3928 26.1952H53.0811L49.1926 19.4927ZM45.6183 16.786H49.9547C50.737 16.7371 51.4712 16.3918 52.0079 15.8205C52.5446 15.2492 52.8433 14.4949 52.8433 13.7111C52.8433 12.9273 52.5446 12.1729 52.0079 11.6016C51.4712 11.0304 50.737 10.6851 49.9547 10.6362H45.6183V16.786Z" fill="#001A3E"/>
<path d="M70.5603 13.0545V26.1951H67.7214V24.3028C67.1988 25.0257 66.5052 25.6079 65.7027 25.9973C64.9001 26.3866 64.0136 26.5711 63.1224 26.5341C61.3545 26.4376 59.6908 25.6673 58.4734 24.3816C57.2561 23.096 56.5776 21.3928 56.5776 19.6223C56.5776 17.8517 57.2561 16.1485 58.4734 14.8629C59.6908 13.5772 61.3545 12.8069 63.1224 12.7104C64.0109 12.6749 64.8946 12.8576 65.6963 13.2423C66.4979 13.6271 67.1932 14.2023 67.7214 14.9176V13.0545H70.5603ZM67.7214 19.6248C67.7111 18.8058 67.4587 18.008 66.9962 17.332C66.5336 16.656 65.8814 16.1319 65.1217 15.8256C64.362 15.5193 63.5286 15.4446 62.7265 15.6107C61.9244 15.7769 61.1894 16.1766 60.6139 16.7595C60.0384 17.3424 59.6481 18.0824 59.4921 18.8866C59.3362 19.6908 59.4215 20.5231 59.7375 21.2788C60.0534 22.0346 60.5858 22.68 61.2676 23.134C61.9495 23.5879 62.7503 23.8301 63.5695 23.83C64.1225 23.8424 64.6723 23.7416 65.185 23.534C65.6977 23.3263 66.1626 23.0161 66.5511 22.6223C66.9397 22.2286 67.2436 21.7596 67.4444 21.2441C67.6452 20.7287 67.7386 20.1776 67.7188 19.6248H67.7214Z" fill="#001A3E"/>
<path d="M85.3508 13.0546L80.2257 26.1952H76.9405L71.8154 13.0546H74.9169L78.596 23.0413L82.2493 13.0546H85.3508Z" fill="#001A3E"/>
<path d="M92.522 23.9347C93.1773 23.9607 93.8289 23.8257 94.4199 23.5414C95.0109 23.2572 95.5232 22.8323 95.9119 22.3041L98.2513 23.6704C97.6132 24.5964 96.7502 25.3451 95.7434 25.8462C94.7365 26.3472 93.6189 26.5843 92.4954 26.535C88.1589 26.535 85.3466 23.5648 85.3466 19.6231C85.3175 18.7053 85.4772 17.7913 85.816 16.9378C86.1547 16.0842 86.6652 15.3094 87.3158 14.6613C87.9663 14.0132 88.7431 13.5057 89.5979 13.1703C90.4528 12.8348 91.3674 12.6786 92.2851 12.7113C96.2011 12.7113 98.8821 15.8651 98.8821 19.6497C98.8744 20.0459 98.8394 20.441 98.7773 20.8323H88.3168C88.7631 22.8834 90.4194 23.9347 92.522 23.9347ZM96.0174 18.5212C95.9115 17.6087 95.4659 16.7696 94.7695 16.1706C94.073 15.5716 93.1766 15.2566 92.2585 15.2884C91.3143 15.2406 90.3858 15.5447 89.6528 16.1419C88.9198 16.739 88.4344 17.5868 88.2903 18.5212H96.0174Z" fill="#001A3E"/>
<path d="M100.849 7.0094H103.686V26.1977H100.848L100.849 7.0094Z" fill="#001A3E"/>
<path d="M106.051 9.2699C106.051 8.91125 106.158 8.56066 106.357 8.26245C106.556 7.96425 106.839 7.73182 107.171 7.59458C107.502 7.45733 107.867 7.42142 108.218 7.49139C108.57 7.56136 108.893 7.73406 109.147 7.98766C109.4 8.24127 109.573 8.56437 109.643 8.91613C109.713 9.26789 109.677 9.63249 109.54 9.96384C109.403 10.2952 109.17 10.5784 108.872 10.7777C108.574 10.9769 108.223 11.0833 107.865 11.0833C107.384 11.0824 106.923 10.891 106.583 10.5511C106.244 10.2113 106.052 9.75055 106.051 9.2699V9.2699ZM106.446 13.0545H109.284V26.1951H106.443L106.446 13.0545Z" fill="#001A3E"/>
<path d="M124 18.1265V26.1935H121.161V18.4131C121.208 18.0105 121.166 17.6023 121.036 17.2182C120.906 16.8341 120.693 16.4835 120.411 16.1919C120.13 15.9003 119.787 15.6748 119.407 15.5318C119.028 15.3887 118.622 15.3317 118.218 15.3648C116.352 15.3648 114.88 16.4685 114.88 19.1486V26.1926H112.042V13.0546H114.88V14.7366C115.32 14.0696 115.929 13.531 116.644 13.1755C117.36 12.8201 118.157 12.6605 118.954 12.713C121.897 12.713 124 14.71 124 18.1265Z" fill="#001A3E"/>
<path d="M24.6893 14.7976L18.0898 10.0724L11.4912 14.7976L14.022 22.4758H22.1551L24.6893 14.7976ZM15.3814 20.5887L13.7045 15.5116L18.0898 12.3809L22.4752 15.5219L20.8026 20.5904L15.3814 20.5887Z" fill="#2A4AFC"/>
<path d="M30.8554 15.4179L33.3441 11.9852L29.3012 10.6601V1.54012L20.5897 4.32066L18.0881 0.897339L15.5796 4.33611L6.87411 1.52296V10.6541L2.84061 11.974L5.33881 15.4368L0 22.8104L8.64799 25.6622V29.9265L12.7141 28.61L18.1001 35.9656L23.4638 28.5989L27.5333 29.9265V25.627L36.1865 22.813L30.8554 15.4179ZM26.7756 20.4641L27.1901 19.1768L27.9539 19.4257L29.6986 17.0227L33.1605 21.82L27.5308 23.6531V20.7087L26.7756 20.4641ZM14.5892 27.993L17.4213 27.0816V26.2809H18.7643V27.0816L21.5861 27.9939L18.095 32.7766L14.5892 27.993ZM15.5333 24.4083V25.7205L10.5163 27.3511V22.0732L11.7649 21.6681L10.1893 16.8202L8.94321 17.2253L5.86316 12.9601L10.8604 11.3183L11.6328 12.3799L15.7521 9.38742L14.9797 8.32498L18.0881 4.08123L21.1904 8.32412L20.4181 9.39085L24.5477 12.3834L25.3201 11.3166L30.3164 12.9532L27.2347 17.2141L25.986 16.8091L24.4069 21.6656L25.6556 22.0706V27.3365L20.6361 25.7128V24.4118L15.5333 24.4083ZM27.4201 10.0422L24.6026 9.12996L24.1366 9.76846L23.0467 8.97635L23.5196 8.32584L21.762 5.9229L27.4201 4.10697V10.0422ZM12.6686 8.32584L13.0119 8.80557L13.1406 8.9772L12.0499 9.77017L11.577 9.11966L8.74496 10.0431V4.10268L14.409 5.93234L12.6686 8.32584ZM9.40406 20.4641L8.64799 20.7061V23.684L3.02598 21.8372L6.4965 17.0382L8.22919 19.4343L8.99384 19.1854L9.40406 20.4641Z" fill="#2A4AFC"/>
</g>
<defs>
<clipPath id="clip0">
<rect width="124" height="35.0691" fill="white" transform="translate(0 0.897339)"/>
</clipPath>
</defs>
</svg>
