<svg width="115" height="28" viewBox="0 0 115 28" fill="none" xmlns="http://www.w3.org/2000/svg">
<g clip-path="url(#clip0)">
<path d="M23.865 16.4722C26.2164 16.4722 29.6184 15.9872 29.6184 13.1904C29.6254 12.9746 29.6059 12.7587 29.5601 12.5476L28.1598 6.46528C27.8366 5.12702 27.5527 4.51992 25.2033 3.34518C23.3801 2.41291 19.4085 0.873535 18.2338 0.873535C17.1399 0.873535 16.8222 2.28322 15.5178 2.28322C14.2622 2.28322 13.33 1.23066 12.1552 1.23066C11.0275 1.23066 10.2926 1.9994 9.72494 3.58013C9.72494 3.58013 8.14421 8.03849 7.94122 8.68506C7.90896 8.8038 7.89501 8.92676 7.89987 9.0497C7.89987 10.7827 14.7227 16.4646 23.865 16.4646V16.4722ZM29.9793 14.3257C30.3044 15.8651 30.3044 16.0267 30.3044 16.2297C30.3044 18.8611 27.346 20.3215 23.4571 20.3215C14.6682 20.3272 6.96948 15.1771 6.96948 11.7732C6.96897 11.2994 7.06556 10.8305 7.25329 10.3955C4.09184 10.5534 0 11.1172 0 14.7298C0 20.6467 14.0198 27.9395 25.1206 27.9395C33.6313 27.9395 35.7778 24.0901 35.7778 21.0508C35.7778 18.66 33.7102 15.9459 29.983 14.3257" fill="#EE0000"/>
<path d="M29.979 14.3257C30.3042 15.8651 30.3042 16.0267 30.3042 16.2297C30.3042 18.8611 27.3458 20.3216 23.4569 20.3216C14.668 20.3272 6.96924 15.1772 6.96924 11.7733C6.96873 11.2994 7.06532 10.8306 7.25306 10.3955L7.94098 8.69263C7.90947 8.80894 7.89553 8.92931 7.89963 9.04975C7.89963 10.7827 14.7225 16.4647 23.8648 16.4647C26.2161 16.4647 29.6182 15.9798 29.6182 13.1829C29.6252 12.9671 29.6056 12.7512 29.5599 12.5401L29.979 14.3257Z" fill="black"/>
<path d="M108.872 18.2218C108.872 20.4567 110.216 21.5431 112.667 21.5431C113.422 21.5243 114.172 21.4183 114.902 21.2273V18.6354C114.435 18.7833 113.948 18.8569 113.459 18.8534C112.449 18.8534 112.075 18.5376 112.075 17.5884V13.6169H115V10.9479H112.075V7.56463L108.88 8.25632V10.9479H106.758V13.6169H108.872V18.2218ZM98.9107 18.282C98.9107 17.5903 99.6043 17.2539 100.651 17.2539C101.291 17.2576 101.928 17.3371 102.55 17.4907V18.8346C101.937 19.169 101.249 19.3393 100.552 19.3289C99.5253 19.3289 98.9107 18.9342 98.9107 18.282V18.282ZM99.8881 21.5825C101.016 21.5825 101.926 21.3457 102.775 20.7724V21.4059H105.937V14.7033C105.937 12.1546 104.219 10.7562 101.352 10.7562C99.7509 10.7562 98.1683 11.1321 96.4654 11.9027L97.6119 14.2559C98.8374 13.7409 99.8674 13.4252 100.775 13.4252C102.091 13.4252 102.771 13.9383 102.771 14.9871V15.5002C101.997 15.2997 101.199 15.1999 100.399 15.2032C97.7097 15.2032 96.0895 16.331 96.0895 18.3478C96.0895 20.186 97.5518 21.5882 99.8843 21.5882L99.8881 21.5825ZM82.5095 21.4115H85.9097V15.9889H91.6029V21.4059H95.0125V7.56839H91.6161V12.8857H85.9228V7.56839H82.5227L82.5095 21.4115ZM69.5667 16.1675C69.5667 14.6638 70.7528 13.5173 72.3147 13.5173C73.1273 13.5008 73.9164 13.7906 74.5251 14.3292V17.985C74.2302 18.2637 73.883 18.4812 73.5037 18.6251C73.1243 18.7689 72.7202 18.8363 72.3147 18.8233C70.7734 18.8233 69.5667 17.6768 69.5667 16.175V16.1675ZM74.5683 21.4134H77.7316V6.87671L74.5363 7.56839V11.5024C73.7229 11.0412 72.8023 10.8026 71.8673 10.8107C68.8243 10.8107 66.4316 13.162 66.4316 16.1675C66.4229 16.8727 66.5547 17.5725 66.8194 18.2262C67.0841 18.8799 67.4763 19.4743 67.9733 19.9747C68.4702 20.4752 69.0618 20.8716 69.7136 21.1409C70.3654 21.4101 71.0644 21.5469 71.7696 21.5431C72.778 21.5479 73.7614 21.2297 74.5758 20.6352L74.5683 21.4134ZM60.0523 13.3725C61.0598 13.3725 61.9093 14.0247 62.2458 15.0322H57.8852C58.2009 13.9928 58.9922 13.3725 60.0523 13.3725ZM54.6636 16.1919C54.6636 19.2368 57.154 21.6088 60.3549 21.6088C62.1142 21.6088 63.3998 21.1333 64.7249 20.0262L62.6085 18.1467C62.1142 18.6617 61.3831 18.938 60.5147 18.938C59.9686 18.9533 59.4307 18.803 58.9718 18.5068C58.5128 18.2105 58.1543 17.7822 57.9434 17.2783H65.396V16.4832C65.396 13.162 63.163 10.7712 60.1181 10.7712C59.4023 10.7604 58.6916 10.8928 58.0278 11.1607C57.3639 11.4285 56.7603 11.8264 56.2524 12.3309C55.7446 12.8355 55.3428 13.4364 55.0705 14.0985C54.7983 14.7606 54.6612 15.4704 54.6673 16.1863L54.6636 16.1919ZM49.1508 10.4742C50.2785 10.4742 50.91 11.1847 50.91 12.0362C50.91 12.8876 50.2785 13.5981 49.1508 13.5981H45.7882V10.4742H49.1508ZM42.3843 21.4059H45.7844V16.3648H48.3726L50.9833 21.4059H54.7895L51.7446 15.8705C52.5184 15.5558 53.1804 15.0167 53.6453 14.3227C54.1102 13.6286 54.3568 12.8114 54.3534 11.976C54.3534 9.48556 52.3968 7.56839 49.4665 7.56839H42.3843V21.4059Z" fill="black"/>
</g>
<defs>
<clipPath id="clip0">
<rect width="115" height="27.0659" fill="white" transform="translate(0 0.873535)"/>
</clipPath>
</defs>
</svg>
