<svg width="150" height="24" viewBox="0 0 150 24" fill="none" xmlns="http://www.w3.org/2000/svg">
<g clip-path="url(#clip0)">
<path d="M19.3783 21.0471L33.0757 5.27956L27.4555 0.399292L8.87793 21.7869C10.371 23.0754 12.3133 23.7208 14.2807 23.5823C16.2481 23.4436 18.0806 22.5323 19.3783 21.0471Z" fill="#00BEA6"/>
<path d="M6.87582 20.0834L12.6384 13.4519C10.8521 11.8436 8.51102 10.9918 6.10882 11.0763C4.94005 11.1312 3.79496 11.4251 2.74426 11.9399C1.69355 12.4548 0.759572 13.1796 0 14.0696L6.87582 20.0834Z" fill="#5A4CFF"/>
<path d="M54.104 7.52747V21.9714H57.905V7.52747H54.104Z" fill="white"/>
<path d="M64.8419 11.5019C64.8419 10.6942 65.7446 10.0629 67.1158 10.0629C68.4474 10.0652 69.7453 10.4828 70.8286 11.2576L72.7222 8.99729C71.0941 7.7913 69.1145 7.15447 67.0886 7.18501C63.2876 7.18501 61.1699 9.30953 61.1699 11.7327C61.1699 17.4138 69.7493 15.4659 69.7493 17.8415C69.7493 18.7375 68.9756 19.3959 67.3261 19.3959C65.83 19.33 64.3789 18.8634 63.1246 18.0451L61.0884 20.4208C62.8474 21.6992 64.9755 22.3689 67.1497 22.3281C71.1544 22.3281 73.401 20.2918 73.401 17.6922C73.401 11.8617 64.8419 13.6536 64.8419 11.5019Z" fill="white"/>
<path d="M93.0713 7.52747V21.9714H96.8723V7.52747H93.0713Z" fill="white"/>
<path d="M132.012 15.1231C132.012 10.3718 129.08 7.16807 124.776 7.16807C123.782 7.15204 122.796 7.3376 121.877 7.71358C120.956 8.08954 120.122 8.64809 119.425 9.35548C118.727 10.0629 118.18 10.9044 117.816 11.8292C117.452 12.754 117.281 13.743 117.31 14.7362C117.31 19.3722 120.629 22.3315 125.028 22.3315C127.177 22.3989 129.282 21.696 130.96 20.3495L128.625 18.3947C127.662 18.9676 126.568 19.2831 125.449 19.3111C122.998 19.3111 121.525 17.7839 121.288 15.9648H132.025L132.012 15.1231ZM121.213 13.3922C121.283 12.5036 121.693 11.676 122.356 11.08C123.018 10.4839 123.885 10.1649 124.776 10.1885C125.221 10.1601 125.668 10.221 126.089 10.3675C126.509 10.514 126.898 10.7432 127.229 11.0417C127.561 11.3402 127.829 11.7019 128.018 12.1056C128.208 12.5092 128.315 12.9467 128.333 13.3922H121.213Z" fill="white"/>
<path d="M114.595 7.52747H110.794V21.9714H114.595V7.52747Z" fill="white"/>
<path d="M108.1 1.67444V4.99356C108.1 4.99356 105.928 4.84424 105.276 5.27186C105.049 5.47122 104.874 5.72354 104.767 6.0065C104.661 6.28945 104.626 6.59431 104.665 6.89408V7.52533H108.106V10.8512H104.665V21.9693H100.83V6.89408C100.83 3.86682 102.731 1.81019 105.412 1.67444H108.1Z" fill="white"/>
<path d="M86.1139 21.9721L81.9192 16.3588L80.1409 18.2322V21.9721H76.3398V4.03931H80.1409V13.8881L85.571 7.52132H90.2747L84.6275 14.0103L90.5734 21.9721H86.1139Z" fill="white"/>
<path d="M54.104 7.52747V21.9714H57.905V7.52747H54.104Z" fill="#080E3F"/>
<path d="M64.8419 11.5019C64.8419 10.6942 65.7446 10.0629 67.1158 10.0629C68.4474 10.0652 69.7453 10.4828 70.8286 11.2576L72.7222 8.99729C71.0941 7.7913 69.1145 7.15447 67.0886 7.18501C63.2876 7.18501 61.1699 9.30953 61.1699 11.7327C61.1699 17.4138 69.7493 15.4659 69.7493 17.8415C69.7493 18.7375 68.9756 19.3959 67.3261 19.3959C65.83 19.33 64.3789 18.8634 63.1246 18.0451L61.0884 20.4208C62.8474 21.6992 64.9755 22.3689 67.1497 22.3281C71.1544 22.3281 73.401 20.2918 73.401 17.6922C73.401 11.8617 64.8419 13.6536 64.8419 11.5019Z" fill="#080E3F"/>
<path d="M93.0713 7.52747V21.9714H96.8723V7.52747H93.0713Z" fill="#080E3F"/>
<path d="M132.012 15.1231C132.012 10.3718 129.08 7.16807 124.776 7.16807C123.782 7.15204 122.796 7.3376 121.877 7.71358C120.956 8.08954 120.122 8.64809 119.425 9.35548C118.727 10.0629 118.18 10.9044 117.816 11.8292C117.452 12.754 117.281 13.743 117.31 14.7362C117.31 19.3722 120.629 22.3315 125.028 22.3315C127.177 22.3989 129.282 21.696 130.96 20.3495L128.625 18.3947C127.662 18.9676 126.568 19.2831 125.449 19.3111C122.998 19.3111 121.525 17.7839 121.288 15.9648H132.025L132.012 15.1231ZM121.213 13.3922C121.283 12.5036 121.693 11.676 122.356 11.08C123.018 10.4839 123.885 10.1649 124.776 10.1885C125.221 10.1601 125.668 10.221 126.089 10.3675C126.509 10.514 126.898 10.7432 127.229 11.0417C127.561 11.3402 127.829 11.7019 128.018 12.1056C128.208 12.5092 128.315 12.9467 128.333 13.3922H121.213Z" fill="#080E3F"/>
<path d="M114.595 7.52747H110.794V21.9714H114.595V7.52747Z" fill="#080E3F"/>
<path d="M108.1 1.67444V4.99356C108.1 4.99356 105.928 4.84424 105.276 5.27186C105.049 5.47122 104.874 5.72354 104.767 6.0065C104.661 6.28945 104.626 6.59431 104.665 6.89408V7.52533H108.106V10.8512H104.665V21.9693H100.83V6.89408C100.83 3.86682 102.731 1.81019 105.412 1.67444H108.1Z" fill="#080E3F"/>
<path d="M86.1139 21.9721L81.9192 16.3588L80.1409 18.2322V21.9721H76.3398V4.03931H80.1409V13.8881L85.571 7.52132H90.2747L84.6275 14.0103L90.5734 21.9721H86.1139Z" fill="#080E3F"/>
<path d="M149.164 14.7546V1.66809C148.156 1.66809 147.189 2.06856 146.476 2.78139C145.763 3.49423 145.363 4.46104 145.363 5.46913L145.281 8.18417C144.155 7.53546 142.881 7.19155 141.582 7.1864C140.096 7.18616 138.643 7.6229 137.403 8.44224C136.164 9.26158 135.193 10.4273 134.611 11.7944C134.029 13.1616 133.861 14.6696 134.13 16.1309C134.399 17.5922 135.092 18.9423 136.122 20.013C137.152 21.0837 138.474 21.8279 139.924 22.1528C141.373 22.4779 142.887 22.3692 144.276 21.8406C145.664 21.312 146.867 20.3867 147.734 19.1798C148.6 17.973 149.092 16.5379 149.15 15.0532V14.7546H149.164ZM141.582 18.8746C140.767 18.8746 139.97 18.633 139.293 18.1802C138.615 17.7275 138.087 17.084 137.776 16.3312C137.464 15.5784 137.382 14.7499 137.541 13.9507C137.7 13.1515 138.093 12.4174 138.669 11.8412C139.245 11.265 139.979 10.8726 140.778 10.7136C141.577 10.5547 142.406 10.6363 143.158 10.9481C143.911 11.2599 144.555 11.788 145.008 12.4655C145.46 13.1431 145.702 13.9396 145.702 14.7546C145.703 15.2959 145.597 15.832 145.39 16.3323C145.184 16.8326 144.879 17.2871 144.497 17.6699C144.114 18.0526 143.66 18.3561 143.159 18.5628C142.66 18.7695 142.123 18.8755 141.582 18.8746Z" fill="#080E3F"/>
<path d="M41.6353 11.3222V21.9854H45.4363V7.52112C44.4282 7.52112 43.4614 7.92159 42.7485 8.63442C42.0357 9.34726 41.6353 10.3141 41.6353 11.3222Z" fill="#080E3F"/>
<path d="M46.7866 7.52112V12.0077C48.0071 12.021 49.186 11.5641 50.0786 10.7316C50.5127 10.318 50.8571 9.81957 51.0906 9.26731C51.3242 8.71504 51.4418 8.1207 51.4361 7.52112H46.7866Z" fill="#080E3F"/>
</g>
<defs>
<clipPath id="clip0">
<rect width="150" height="23.741" fill="white" transform="translate(0 0.129517)"/>
</clipPath>
</defs>
</svg>
