<svg width="134" height="34" viewBox="0 0 134 34" fill="none" xmlns="http://www.w3.org/2000/svg">
<path d="M32.7382 11.6393C31.4855 11.6393 30.1618 12.2538 29.3346 13.1992H29.2873V7.2666H26.9946V24.5209H29.0982V23.3155H29.1455C29.9491 24.2373 31.4146 24.8754 32.6909 24.8754C36 24.8754 38.1272 22.2755 38.1272 18.2574C38.1272 14.3574 35.9054 11.6393 32.7382 11.6393ZM32.3364 22.7955C30.6109 22.7955 29.2873 21.6137 29.2873 20.0537V16.6974C29.2873 15.0193 30.6109 13.7429 32.3364 13.7429C34.5818 13.7429 35.8345 15.3738 35.8345 18.2574C35.8345 21.1646 34.5818 22.7955 32.3364 22.7955Z" fill="black"/>
<path d="M19.5492 11.6392C16.1456 11.6392 13.8057 14.3573 13.8057 18.2573C13.8057 22.2518 16.0747 24.8754 19.5492 24.8754C22.9765 24.8754 25.2219 22.2518 25.2219 18.2573C25.2219 14.3573 22.9055 11.6392 19.5492 11.6392ZM19.5492 22.7955C17.3983 22.7955 16.0747 21.0464 16.0747 18.2573C16.0747 15.4683 17.3983 13.7428 19.5492 13.7428C21.6292 13.7428 22.9528 15.5155 22.9528 18.2573C22.9528 21.0227 21.6292 22.7955 19.5492 22.7955Z" fill="black"/>
<path d="M12.742 12.7739C12.742 9.84295 10.5674 7.97571 7.1638 7.97571H0.6875V24.5209H3.05111V17.9737H6.43108C9.03105 17.9737 9.97646 19.0137 9.97646 21.8973V24.5209H12.2692V21.8973C12.2692 19.2572 11.4656 17.6877 9.71412 17.0425C11.5081 16.4138 12.742 14.9342 12.742 12.7739ZM6.97471 15.8701H3.05111V10.1266H6.95108C9.1965 10.1266 10.3547 11.0957 10.3547 13.0102C10.3547 14.8538 9.17287 15.8701 6.97471 15.8701Z" fill="black"/>
<path d="M50.6314 11.6392C49.3079 11.6392 47.8897 12.2774 47.2042 13.1992H47.157V11.9938H44.9116V24.5209H47.2042V16.6501C47.2042 14.8774 48.3624 13.7664 50.1824 13.7664C51.9787 13.7664 52.8296 14.8064 52.8296 16.9809V24.5209H55.1459V16.3191C55.1459 13.4356 53.3968 11.6392 50.6314 11.6392Z" fill="black"/>
<path d="M88.0225 11.6392C84.6188 11.6392 82.2788 14.3573 82.2788 18.2573C82.2788 22.2518 84.5479 24.8754 88.0225 24.8754C91.4498 24.8754 93.6952 22.2518 93.6952 18.2573C93.6952 14.3573 91.3789 11.6392 88.0225 11.6392ZM88.0225 22.7955C85.8716 22.7955 84.5479 21.0464 84.5479 18.2573C84.5479 15.4683 85.8716 13.7428 88.0225 13.7428C90.1025 13.7428 91.4262 15.5155 91.4262 18.2573C91.4262 21.0227 90.1025 22.7955 88.0225 22.7955Z" fill="black"/>
<path d="M103.954 7.2666V13.1992H103.907C103.08 12.2302 101.78 11.6393 100.527 11.6393C97.3602 11.6393 95.1143 14.4047 95.1143 18.2574C95.1143 22.2755 97.2422 24.8754 100.551 24.8754C101.827 24.8754 103.293 24.2373 104.096 23.3155H104.143V24.5209H106.248V7.2666H103.954ZM103.954 20.0537C103.954 21.6137 102.631 22.7955 100.906 22.7955C98.6596 22.7955 97.4074 21.1646 97.4074 18.2574C97.4074 15.3738 98.6596 13.7429 100.906 13.7429C102.631 13.7429 103.954 15.0193 103.954 16.6974V20.0537Z" fill="black"/>
<path d="M75.1884 11.6392C71.7848 11.6392 69.4448 14.3573 69.4448 18.2573C69.4448 22.2518 71.7139 24.8754 75.1884 24.8754C78.6157 24.8754 80.8611 22.2518 80.8611 18.2573C80.8611 14.3573 78.5447 11.6392 75.1884 11.6392ZM75.1884 22.7955C73.0375 22.7955 71.7139 21.0464 71.7139 18.2573C71.7139 15.4683 73.0375 13.7428 75.1884 13.7428C77.2684 13.7428 78.592 15.5155 78.592 18.2573C78.592 21.0227 77.2684 22.7955 75.1884 22.7955Z" fill="black"/>
<path d="M42.4061 7.2666H39.9243V9.70112H42.4061V7.2666Z" fill="black"/>
<path d="M63.3234 11.6393C61.9288 11.6393 60.5107 12.3011 59.8488 13.2465H59.8015V7.2666H57.5088V24.5209H59.8015V16.6501C59.8015 14.9483 61.0306 13.7665 62.7798 13.7665C64.5052 13.7665 65.4979 14.901 65.4979 16.8628V24.5209H67.7907V16.2956C67.7907 13.4356 66.0653 11.6393 63.3234 11.6393Z" fill="black"/>
<path d="M42.3114 11.9938H40.0186V24.5209H42.3114V11.9938Z" fill="black"/>
<path d="M122.052 25.1165L121.879 25.1733C120.769 25.542 119.126 26.1116 117.651 26.79C117.572 26.8279 117.521 26.9319 117.521 26.9319C117.492 26.9956 117.459 27.0737 117.421 27.1611L117.417 27.173C117.251 27.5487 117.024 28.1136 116.925 28.3453L116.85 28.5273C116.837 28.5556 116.845 28.5887 116.868 28.61C116.883 28.6242 116.899 28.6313 116.918 28.6313C116.927 28.6313 116.939 28.6289 116.951 28.6242L117.128 28.5391C117.533 28.3476 118.043 28.0569 118.577 27.8016L118.596 27.7922C119.614 27.31 120.764 26.764 121.456 26.4331C121.456 26.4331 121.567 26.3741 121.624 26.2629L122.142 25.223C122.156 25.1969 122.151 25.1638 122.132 25.1402C122.113 25.1165 122.08 25.1071 122.052 25.1165Z" fill="black"/>
<path d="M117.91 23.5046C117.984 23.3628 118.32 22.7152 118.395 22.571L118.409 22.545C120.659 18.3023 123.401 14.2984 126.557 10.6489L126.645 10.5473C126.67 10.5166 126.675 10.4694 126.656 10.4339C126.635 10.396 126.595 10.3772 126.554 10.3819L126.422 10.4008C124.352 10.6868 122.255 11.0815 120.189 11.5755C119.983 11.6322 119.851 11.767 119.823 11.7977C118.277 13.6484 116.814 15.596 115.471 17.5932C115.405 17.6949 115.381 17.8273 115.398 17.936C115.412 18.0423 115.736 20.536 116.228 22.4505C115.008 25.9604 113.918 30.586 113.918 30.586C113.909 30.6167 113.916 30.6475 113.933 30.6734C113.951 30.6995 113.98 30.7136 114.013 30.7136H114.707C114.753 30.7136 114.79 30.6876 114.807 30.6474L114.854 30.5175C115.563 28.584 116.372 26.6742 117.266 24.8117C117.473 24.3815 117.91 23.5046 117.91 23.5046Z" fill="black"/>
<path d="M127.576 11.4099L127.573 11.2776C127.571 11.2351 127.545 11.1996 127.507 11.1854C127.469 11.1713 127.425 11.1831 127.397 11.2138L127.309 11.3131C123.628 15.57 120.534 20.2924 118.115 25.3529L118.058 25.4711C118.039 25.5089 118.046 25.5538 118.074 25.5845C118.093 25.6035 118.119 25.6153 118.145 25.6153C118.157 25.6153 118.171 25.6129 118.185 25.6082L118.306 25.5585C120.374 24.7029 122.485 23.9607 124.581 23.3533C124.706 23.3178 124.813 23.228 124.872 23.1122C125.791 21.3206 127.926 17.8508 127.926 17.8508C127.98 17.7728 127.966 17.657 127.966 17.657C127.966 17.657 127.599 13.5088 127.576 11.4099Z" fill="black"/>
<path d="M132.335 5.42532C131.814 4.97151 131.055 4.75878 129.878 4.73278C128.809 4.70914 127.54 4.94078 126.101 5.4135C125.886 5.48914 125.713 5.60968 125.56 5.75859C124.096 7.13185 122.673 8.59019 121.329 10.0934L121.225 10.2069C121.196 10.24 121.192 10.2873 121.213 10.3227C121.234 10.3606 121.28 10.3794 121.322 10.37L121.473 10.3369C123.641 9.87363 125.829 9.51908 127.978 9.28509C128.119 9.26854 128.265 9.31582 128.37 9.41272C128.476 9.50963 128.535 9.64908 128.532 9.79327C128.498 11.9253 128.575 14.0667 128.765 16.1584L128.776 16.2955C128.781 16.3381 128.809 16.3712 128.852 16.383C128.859 16.3854 128.867 16.3854 128.876 16.3877C128.906 16.3877 128.939 16.3736 128.961 16.3452L129.038 16.2341C130.249 14.5086 131.565 12.8305 132.951 11.2421C133.106 11.0649 133.147 10.9538 133.175 10.7931C133.609 8.00874 132.937 5.94768 132.335 5.42532Z" fill="black"/>
</svg>
