<svg width="75" height="29" viewBox="0 0 75 29" fill="none" xmlns="http://www.w3.org/2000/svg">
<g clip-path="url(#clip0)">
<path fill-rule="evenodd" clip-rule="evenodd" d="M60.1924 9.37188C60.1924 5.8017 62.8655 4.0762 65.7481 4.0762C68.6301 4.0762 71.2292 5.83128 71.2292 9.37188H60.1924ZM65.2382 0.295471C59.3641 0.295471 55.519 4.37416 55.519 11.1013C55.519 19.4516 61.4001 21.8472 65.6002 21.8472C70.9208 21.8472 73.9538 18.228 73.9538 18.228L71.2475 15.482C69.8117 16.7872 68.1465 17.5681 65.6669 17.5681C62.3928 17.5681 60.1858 15.6298 60.1858 12.9783H74.7755C74.7755 12.9783 77.323 0.295471 65.2382 0.295471Z" fill="#00DC00"/>
<path fill-rule="evenodd" clip-rule="evenodd" d="M12.2193 9.01204C10.4012 8.77587 5.13371 8.98864 5.13371 6.49498C5.13371 5.01662 7.34133 4.22115 9.37688 4.22115C12.6297 4.22115 14.7736 5.57238 15.3969 6.02132L18.1296 3.18201C17.3207 2.50353 14.3084 0.295471 9.37688 0.295471C4.88388 0.295471 0.841668 2.73616 0.841668 6.65081C0.841668 12.657 7.81719 12.6552 10.7301 12.951C12.4942 13.1297 14.1053 13.256 14.1053 15.0531C14.1053 16.7239 11.6414 17.6536 9.7342 17.6536C6.62585 17.6536 4.76322 16.5924 2.94095 14.8902L0 17.9493C2.6975 20.6553 6.11473 21.8472 9.4814 21.8472C14.695 21.8472 18.5065 19.4568 18.5065 14.647C18.5065 11.4585 16.4437 9.5603 12.2193 9.01204Z" fill="#00DC00"/>
<path fill-rule="evenodd" clip-rule="evenodd" d="M31.8861 13.896C31.8861 17.8872 29.1393 17.6723 26.6862 17.6723C24.2032 17.6723 22.6175 16.9876 22.6175 15.1981C22.6175 13.5305 23.9091 12.9778 26.5775 12.9778H31.8861V13.896ZM27.2961 0.295471C22.7471 0.295471 19.7982 2.69369 19.2496 3.17748L22.0071 6.033C22.5561 5.58188 24.4274 4.24527 27.3307 4.24527C30.8149 4.24527 31.855 5.68384 31.855 7.31091V9.33701L25.6444 9.34098C23.3481 9.34098 18.8311 9.93998 18.8311 15.1734C18.8311 19.0177 20.9602 21.8472 26.0429 21.8472C28.5945 21.8472 30.5238 20.9908 31.855 19.3395V21.4261H36.3635V7.62034C36.3635 2.79212 33.5046 0.295471 27.2961 0.295471Z" fill="#00DC00"/>
<path fill-rule="evenodd" clip-rule="evenodd" d="M50.5056 10.7315C50.5056 12.2915 50.4793 13.4466 50.3507 14.0346C50.0663 15.3339 48.5566 17.0419 45.8162 17.0419C45.1302 17.0419 41.615 16.6568 41.2213 13.6781C41.1416 13.0815 41.0813 12.2915 41.0813 10.7315C41.0813 8.41192 41.1788 7.67453 41.3004 7.08522C41.5424 5.91686 43.1042 4.19856 45.8162 4.19856C49.1371 4.19856 50.2037 6.41202 50.3599 7.26753C50.4684 7.85941 50.5056 9.17157 50.5056 10.7315ZM50.5056 0.725153V2.97114C48.9297 1.18009 47.0486 0.295471 44.4801 0.295471C40.0939 0.295471 37.8351 2.70195 37.0704 5.2642C36.7865 6.21644 36.6885 8.03488 36.6885 10.7225C36.6885 13.2548 36.7121 15.5577 37.6124 17.3287C38.8711 19.8066 41.9274 21.1907 44.4801 21.1907C46.9536 21.1907 49.0527 20.2526 50.5056 18.6246V19.8819C50.5056 21.3593 49.988 22.3295 49.0221 23.0964C48.0539 23.8655 46.8394 24.3367 45.1538 24.3367C43.6248 24.3367 42.1592 23.521 41.3241 22.9531L38.2144 25.9946C40.2304 27.594 42.6409 28.6831 45.2422 28.7041C47.9988 28.7264 50.2173 27.9094 52.161 26.4145C54.0216 24.9829 55.195 22.2918 55.195 19.4369V0.725153H50.5056Z" fill="#00DC00"/>
</g>
<defs>
<clipPath id="clip0">
<rect width="75" height="28.4091" fill="white" transform="translate(0 0.295471)"/>
</clipPath>
</defs>
</svg>
