<svg width="159" height="41" viewBox="0 0 159 41" fill="none" xmlns="http://www.w3.org/2000/svg">
<path fill-rule="evenodd" clip-rule="evenodd" d="M12.0704 40.0966H32.4864V38.7123H12.0704V40.0966ZM19.408 33.1733L16.1441 29.9275V22.1263L17.0985 15.6834C17.1433 15.4638 17.0067 15.3553 16.834 15.3156L11.6733 14.4181C11.5046 14.3812 11.4137 14.4742 11.4089 14.6425V17.3827C11.4077 17.6079 11.2746 17.8054 11.041 17.8122H8.26595L8.27797 5.16766L10.7005 5.67211C11.0458 5.76346 11.4089 6.03632 11.4089 6.46064V13.6804C11.4077 13.8547 11.4854 13.894 11.6164 13.9373L16.9142 14.8264C17.1077 14.8512 17.1938 14.7703 17.2347 14.5539L19.1255 0.87561L22.0661 1.55636C22.6138 1.71262 22.8313 2.02595 22.9475 2.67865L24.7578 15.9162C24.7906 16.1069 24.8796 16.1798 25.0551 16.2207L33.6452 17.6876C33.7005 17.7004 33.7538 17.7361 33.745 17.8078L33.7029 18.1187C33.6917 18.1824 33.6272 18.1924 33.5651 18.1832L25.118 16.7212C24.9605 16.6935 24.8764 16.7889 24.8952 16.9227L25.6152 22.1319V33.1729H25.6144H44.5572V34.5577H0V33.1729H19.408V33.1733ZM6.3948 35.9424H38.1624V37.3271H6.3948V35.9424Z" fill="#1A2F4D"/>
<path d="M53.0327 22.9188C52.7514 22.9188 52.4906 22.8663 52.2494 22.7605C52.0085 22.6551 51.7974 22.5121 51.6167 22.3314C51.436 22.1503 51.2929 21.9395 51.1876 21.6987C51.0818 21.4575 51.0293 21.1963 51.0293 20.915C51.0293 20.6341 51.0818 20.3729 51.1876 20.1321C51.2929 19.8905 51.436 19.6797 51.6167 19.499C51.7974 19.3183 52.0085 19.1753 52.2494 19.0699C52.4906 18.9645 52.7514 18.9116 53.0327 18.9116H62.1769C62.3781 18.9116 62.5487 18.9817 62.6894 19.1224C62.83 19.2634 62.9001 19.4337 62.9001 19.6344C62.9001 19.8356 62.83 20.0063 62.6894 20.1469C62.5487 20.2876 62.3781 20.3581 62.1769 20.3581H53.0026C52.852 20.3581 52.7189 20.4106 52.6036 20.5159C52.4882 20.6213 52.4301 20.7543 52.4301 20.915C52.4301 21.0661 52.4882 21.1963 52.6036 21.3069C52.7189 21.4171 52.852 21.4728 53.0026 21.4728H61.3335C61.6144 21.4728 61.8784 21.5252 62.1244 21.631C62.3704 21.7364 62.584 21.8794 62.7647 22.0601C62.9454 22.2408 63.0885 22.4544 63.1938 22.7004C63.2996 22.946 63.3521 23.2097 63.3521 23.4914C63.3521 23.7722 63.2996 24.0335 63.1938 24.2747C63.0885 24.5159 62.9454 24.7266 62.7647 24.9073C62.584 25.0881 62.3704 25.2287 62.1244 25.3289C61.8784 25.4294 61.6144 25.4795 61.3335 25.4795H52.2041C52.0033 25.4795 51.8327 25.4094 51.692 25.2688C51.5514 25.1281 51.4813 24.9574 51.4813 24.7567C51.4813 24.556 51.5514 24.3853 51.692 24.2442C51.8327 24.104 52.0033 24.0335 52.2041 24.0335H61.3936C61.5443 24.0335 61.6749 23.9806 61.7855 23.8752C61.8956 23.7698 61.9513 23.642 61.9513 23.4914C61.9513 23.3307 61.8956 23.1949 61.7855 23.0843C61.6749 22.9741 61.5443 22.9188 61.3936 22.9188H53.0327ZM65.9172 25.2459C65.7666 25.4266 65.5811 25.5172 65.3599 25.5172C65.1588 25.5172 64.9881 25.4467 64.8478 25.3064C64.7072 25.1658 64.6367 24.9947 64.6367 24.794C64.6367 24.6133 64.6872 24.4678 64.7873 24.3572L68.4483 19.4309C68.619 19.2001 68.845 19.0118 69.1259 18.866C69.4071 18.7205 69.7084 18.6476 70.0298 18.6476C70.3311 18.6476 70.6176 18.7129 70.8888 18.8435C71.1601 18.9741 71.3809 19.1552 71.5515 19.3856L75.2121 24.2819C75.2726 24.352 75.3227 24.4301 75.3628 24.5155C75.4032 24.6008 75.4233 24.6934 75.4233 24.794C75.4233 24.9947 75.3528 25.1658 75.2121 25.3064C75.0719 25.4467 74.9012 25.5172 74.6997 25.5172C74.4593 25.5172 74.2681 25.4218 74.1275 25.2311L70.6176 20.546C70.547 20.4659 70.4593 20.3777 70.3539 20.2823C70.2485 20.187 70.1404 20.1393 70.0298 20.1393C69.9196 20.1393 69.8114 20.187 69.706 20.2823C69.6007 20.3777 69.5181 20.4659 69.4576 20.546L65.9172 25.2459ZM78.2789 24.7567C78.2789 24.9574 78.2084 25.1281 78.0677 25.2688C77.9275 25.4094 77.7564 25.4795 77.5561 25.4795C77.3549 25.4795 77.1839 25.4094 77.0436 25.2688C76.903 25.1281 76.8325 24.9574 76.8325 24.7567V19.6344C76.8325 19.4337 76.903 19.2634 77.0436 19.1224C77.1839 18.9817 77.3549 18.9116 77.5561 18.9116C77.7564 18.9116 77.9275 18.9817 78.0677 19.1224C78.2084 19.2634 78.2789 19.4337 78.2789 19.6344V24.7567ZM81.887 25.4795C81.6057 25.4795 81.3397 25.427 81.0888 25.3217C80.8372 25.2163 80.6193 25.0732 80.4333 24.8921C80.2474 24.7114 80.0992 24.5007 79.989 24.2595C79.8784 24.0187 79.8231 23.7574 79.8231 23.4761V19.6344C79.8231 19.4337 79.8932 19.2634 80.0343 19.1224C80.1745 18.9817 80.3452 18.9116 80.5463 18.9116C80.7371 18.9116 80.9053 18.9817 81.0512 19.1224C81.1966 19.2634 81.2696 19.4337 81.2696 19.6344V23.4761C81.2696 23.6268 81.3272 23.7574 81.4426 23.868C81.558 23.9786 81.6911 24.0335 81.8417 24.0335H90.8806C91.0813 24.0335 91.252 24.104 91.3926 24.2442C91.5337 24.3853 91.6038 24.556 91.6038 24.7567C91.6038 24.9574 91.5337 25.1281 91.3926 25.2688C91.252 25.4094 91.0813 25.4795 90.8806 25.4795H81.887ZM102.201 24.0335C102.543 24.0335 102.824 23.9706 103.045 23.8452C103.266 23.7197 103.439 23.5667 103.565 23.386C103.69 23.2053 103.776 23.0065 103.821 22.7906C103.866 22.5746 103.889 22.3763 103.889 22.1956C103.889 22.0149 103.866 21.8165 103.821 21.6006C103.776 21.3846 103.69 21.1863 103.565 21.0056C103.439 20.8249 103.266 20.6718 103.045 20.546C102.824 20.4206 102.543 20.3581 102.201 20.3581H93.735C93.5343 20.3581 93.3636 20.2876 93.2233 20.1469C93.0823 20.0063 93.0122 19.8356 93.0122 19.6344C93.0122 19.4337 93.0823 19.2634 93.2233 19.1224C93.3636 18.9817 93.5343 18.9116 93.735 18.9116H102.518C102.949 18.9116 103.336 19.0122 103.678 19.2129C104.02 19.4137 104.31 19.6725 104.552 19.989C104.792 20.3052 104.976 20.6566 105.101 21.0432C105.227 21.4299 105.29 21.8141 105.29 22.1956C105.29 22.567 105.23 22.944 105.109 23.3255C104.988 23.7069 104.815 24.0535 104.589 24.3652C104.363 24.6762 104.089 24.935 103.768 25.1405C103.447 25.3469 103.08 25.4599 102.668 25.4795H93.735C93.5343 25.4795 93.3636 25.4094 93.2233 25.2688C93.0823 25.1281 93.0122 24.9574 93.0122 24.7567V22.1956C93.0122 21.9948 93.0823 21.8241 93.2233 21.6831C93.3636 21.5429 93.5343 21.4728 93.735 21.4728C93.9357 21.4728 94.1068 21.5429 94.2471 21.6831C94.3877 21.8241 94.4582 21.9948 94.4582 22.1956V24.0335H102.201ZM116.343 22.9188C116.614 23.0895 116.89 23.273 117.171 23.4685C117.452 23.6645 117.739 23.8776 118.03 24.1088C118.14 24.1893 118.236 24.2819 118.316 24.3877C118.397 24.4931 118.436 24.6161 118.436 24.7567C118.436 24.9574 118.366 25.1281 118.226 25.2688C118.085 25.4094 117.914 25.4795 117.713 25.4795C117.543 25.4795 117.372 25.4094 117.201 25.2688C116.79 24.9675 116.367 24.6762 115.936 24.3953C115.504 24.114 115.055 23.8632 114.588 23.642C114.121 23.4208 113.636 23.2453 113.134 23.1147C112.632 22.9841 112.11 22.9188 111.567 22.9188H108.569C108.439 22.9388 108.328 22.9993 108.238 23.0995C108.147 23.2001 108.102 23.3255 108.102 23.4761V24.7567C108.102 24.9574 108.029 25.1281 107.884 25.2688C107.738 25.4094 107.57 25.4795 107.379 25.4795C107.178 25.4795 107.007 25.4094 106.867 25.2688C106.727 25.1281 106.656 24.9574 106.656 24.7567V23.3107C106.656 23.0594 106.704 22.8206 106.799 22.5946C106.894 22.3687 107.023 22.1731 107.183 22.0073C107.344 21.8414 107.535 21.7112 107.755 21.6158C107.976 21.5204 108.218 21.4728 108.479 21.4728H116.463C116.614 21.4728 116.747 21.4199 116.862 21.3145C116.977 21.2087 117.036 21.0757 117.036 20.915C117.036 20.7644 116.977 20.6341 116.862 20.5235C116.747 20.413 116.614 20.3581 116.463 20.3581H107.379C107.178 20.3581 107.007 20.2876 106.867 20.1469C106.727 20.0063 106.656 19.8356 106.656 19.6344C106.656 19.4337 106.727 19.2634 106.867 19.1224C107.007 18.9817 107.178 18.9116 107.379 18.9116H116.403C116.684 18.9116 116.948 18.9645 117.193 19.0699C117.439 19.1753 117.656 19.3183 117.841 19.499C118.027 19.6797 118.173 19.8905 118.278 20.1321C118.384 20.3729 118.436 20.6341 118.436 20.915C118.436 21.1963 118.384 21.4575 118.278 21.6987C118.173 21.9395 118.027 22.1503 117.841 22.3314C117.656 22.5121 117.439 22.6551 117.193 22.7605C116.948 22.8663 116.684 22.9188 116.403 22.9188H116.343ZM129.129 24.0335C129.47 24.0335 129.751 23.9706 129.972 23.8452C130.193 23.7197 130.366 23.5667 130.491 23.386C130.617 23.2053 130.703 23.0065 130.748 22.7906C130.793 22.5746 130.816 22.3763 130.816 22.1956C130.816 22.0149 130.793 21.8165 130.748 21.6006C130.703 21.3846 130.617 21.1863 130.491 21.0056C130.366 20.8249 130.193 20.6718 129.972 20.546C129.751 20.4206 129.47 20.3581 129.129 20.3581H123.042C122.691 20.3581 122.407 20.4206 122.191 20.546C121.975 20.6718 121.804 20.8249 121.679 21.0056C121.554 21.1863 121.468 21.3846 121.423 21.6006C121.378 21.8165 121.355 22.0149 121.355 22.1956C121.355 22.3763 121.378 22.5746 121.423 22.7906C121.468 23.0065 121.554 23.2053 121.679 23.386C121.804 23.5667 121.975 23.7197 122.191 23.8452C122.407 23.9706 122.691 24.0335 123.042 24.0335H129.129ZM132.217 22.1956C132.217 22.577 132.154 22.9613 132.028 23.3479C131.903 23.7346 131.72 24.086 131.479 24.4025C131.238 24.719 130.946 24.9775 130.605 25.1782C130.263 25.3793 129.877 25.4795 129.445 25.4795H122.575C122.163 25.4599 121.797 25.3469 121.476 25.1405C121.154 24.935 120.88 24.6762 120.654 24.3652C120.428 24.0535 120.255 23.7069 120.135 23.3255C120.014 22.944 119.954 22.567 119.954 22.1956C119.954 21.8141 120.017 21.4299 120.142 21.0432C120.268 20.6566 120.451 20.3052 120.692 19.989C120.933 19.6725 121.225 19.4137 121.566 19.2129C121.907 19.0122 122.294 18.9116 122.726 18.9116H129.595C130.007 18.9317 130.374 19.0447 130.695 19.2506C131.017 19.4565 131.29 19.7154 131.516 20.0263C131.742 20.3376 131.915 20.6842 132.036 21.0661C132.157 21.4475 132.217 21.8241 132.217 22.1956ZM143.801 19.6344C143.801 19.4337 143.871 19.2634 144.012 19.1224C144.152 18.9817 144.323 18.9116 144.524 18.9116C144.725 18.9116 144.895 18.9817 145.036 19.1224C145.177 19.2634 145.247 19.4337 145.247 19.6344V24.0186C145.247 24.4305 145.109 24.7767 144.833 25.058C144.557 25.3393 144.213 25.4795 143.801 25.4795C143.66 25.4795 143.522 25.4599 143.387 25.4198C143.251 25.3793 143.128 25.3241 143.018 25.2539L136.118 21.036C135.927 20.925 135.769 20.8373 135.643 20.772C135.518 20.7067 135.415 20.6742 135.334 20.6742C135.184 20.6742 135.089 20.7696 135.048 20.9603C135.008 21.1514 134.988 21.4275 134.988 21.7889V24.7567C134.988 24.9574 134.918 25.1281 134.777 25.2688C134.636 25.4094 134.466 25.4795 134.265 25.4795C134.064 25.4795 133.893 25.4094 133.753 25.2688C133.612 25.1281 133.542 24.9574 133.542 24.7567V20.3729C133.542 19.961 133.68 19.6144 133.956 19.3335C134.232 19.0523 134.576 18.9116 134.988 18.9116C135.129 18.9116 135.267 18.9317 135.403 18.9717C135.538 19.0122 135.661 19.0671 135.772 19.1376L142.671 23.3555C142.862 23.4661 143.02 23.5539 143.146 23.6192C143.271 23.6845 143.374 23.7169 143.455 23.7169C143.605 23.7169 143.701 23.6216 143.741 23.4313C143.781 23.2401 143.801 22.9641 143.801 22.6023V19.6344ZM146.873 19.6344C146.873 19.4337 146.943 19.2634 147.084 19.1224C147.225 18.9817 147.395 18.9116 147.596 18.9116H158.277C158.478 18.9116 158.649 18.9817 158.789 19.1224C158.929 19.2634 159 19.4337 159 19.6344C159 19.8356 158.929 20.0063 158.789 20.1469C158.649 20.2876 158.478 20.3581 158.277 20.3581H147.596C147.395 20.3581 147.225 20.2876 147.084 20.1469C146.943 20.0063 146.873 19.8356 146.873 19.6344ZM148.711 25.4795C148.49 25.4795 148.269 25.4322 148.048 25.3365C147.827 25.2411 147.631 25.1081 147.461 24.9378C147.29 24.7667 147.149 24.5608 147.039 24.32C146.928 24.0788 146.873 23.8075 146.873 23.5062V22.1503C146.873 21.8794 146.951 21.6987 147.106 21.6082C147.262 21.518 147.506 21.4728 147.837 21.4728H157.945C158.147 21.4728 158.317 21.5429 158.457 21.6831C158.599 21.8241 158.669 21.9948 158.669 22.1956C158.669 22.3967 158.599 22.567 158.457 22.708C158.317 22.8487 158.147 22.9188 157.945 22.9188H148.319V23.6568C148.319 23.7574 148.362 23.8452 148.447 23.9205C148.532 23.9958 148.646 24.0335 148.786 24.0335H158.277C158.478 24.0335 158.649 24.104 158.789 24.2442C158.929 24.3853 159 24.556 159 24.7567C159 24.9574 158.929 25.1281 158.789 25.2688C158.649 25.4094 158.478 25.4795 158.277 25.4795H148.711Z" fill="#1A2F4D"/>
</svg>
