<svg width="117" height="27" viewBox="0 0 117 27" fill="none" xmlns="http://www.w3.org/2000/svg">
<path d="M8.93074 15.8475C7.08793 15.222 5.35732 15.006 5.54244 13.8224C5.76403 12.1394 7.86208 11.9431 10.9559 14.1533L12.9922 10.9586C10.8549 9.67115 9.4833 8.80164 6.75696 8.80164C3.73891 8.80164 1.12195 10.8408 1.12195 13.7494C1.12195 16.804 3.25647 17.7604 6.35025 18.7197C7.5283 19.0871 8.66989 19.4546 8.66989 20.6326C8.66989 22.6213 5.13574 22.5119 2.8161 19.8613L0 22.7138C0.965765 23.7133 2.1197 24.5119 3.39537 25.0636C4.67103 25.6152 6.04323 25.9091 7.43293 25.9282C10.6726 25.9282 13.2755 23.286 13.2755 20.7448C13.2755 18.0073 11.1774 16.5094 8.93074 15.8475Z" fill="url(#paint0_linear)"/>
<path d="M40.6819 0.897461H35.9697V25.4879H40.6819V0.897461Z" fill="url(#paint1_linear)"/>
<path d="M28.753 11.1268C27.5311 10.092 26.0386 9.42822 24.4518 9.21379C22.8649 8.99937 21.2498 9.24326 19.797 9.91669C18.3443 10.5901 17.1144 11.665 16.2525 13.0145C15.3906 14.364 14.9326 15.9319 14.9326 17.5332C14.9326 19.1345 15.3906 20.7024 16.2525 22.0519C17.1144 23.4014 18.3443 24.4763 19.797 25.1497C21.2498 25.8231 22.8649 26.067 24.4518 25.8526C26.0386 25.6382 27.5311 24.9744 28.753 23.9395V25.4878H32.6574V9.61782H29.1233L28.753 11.1268ZM23.8753 21.8415C23.0177 21.8415 22.1793 21.5872 21.4662 21.1107C20.7531 20.6342 20.1973 19.957 19.8691 19.1646C19.5409 18.3722 19.455 17.5003 19.6223 16.6592C19.7896 15.818 20.2026 15.0453 20.8091 14.4389C21.4155 13.8324 22.1882 13.4194 23.0294 13.2521C23.8705 13.0848 24.7424 13.1707 25.5348 13.4989C26.3271 13.8271 27.0044 14.3829 27.4809 15.096C27.9574 15.8091 28.2117 16.6475 28.2117 17.5051C28.2117 18.6552 27.7548 19.7582 26.9416 20.5714C26.1284 21.3846 25.0254 21.8415 23.8753 21.8415V21.8415Z" fill="url(#paint2_linear)"/>
<path d="M86.8499 0.897461V10.1536C85.5625 9.3899 84.0958 8.98066 82.599 8.96743C81.1022 8.9542 79.6286 9.33745 78.3278 10.0782C77.0271 10.819 75.9457 11.8909 75.1934 13.1851C74.4412 14.4792 74.0449 15.9494 74.0449 17.4463C74.0449 18.9431 74.4412 20.4133 75.1934 21.7075C75.9457 23.0016 77.0271 24.0735 78.3278 24.8143C79.6286 25.5551 81.1022 25.9383 82.599 25.9251C84.0958 25.9119 85.5625 25.5026 86.8499 24.7389V25.4878H91.1947V0.897461H86.8499ZM82.522 21.7854C81.6692 21.7867 80.8349 21.5366 80.1236 21.0662C79.4122 20.5959 78.8553 19.9262 78.5226 19.141C78.1898 18.3558 78.096 17.4899 78.2528 16.6516C78.4097 15.8134 78.8102 15.04 79.4043 14.4282C79.9984 13.8164 80.7597 13.3933 81.593 13.2119C82.4263 13.0306 83.2945 13.0989 84.0892 13.4084C84.8838 13.718 85.5695 14.255 86.0606 14.9522C86.5516 15.6494 86.8262 16.476 86.8499 17.3285V17.5725C86.8192 18.7 86.3498 19.7711 85.5416 20.5579C84.7333 21.3447 83.6499 21.7851 82.522 21.7854V21.7854Z" fill="#FFCD1C"/>
<path d="M64.1703 8.96989C62.1935 8.97129 60.2798 9.6661 58.7625 10.9333C59.1995 11.507 59.5986 12.1085 59.9574 12.734C60.2871 13.3694 60.5756 14.0252 60.8213 14.6975C61.4697 13.9099 62.3752 13.3766 63.3783 13.1913C64.3814 13.0061 65.4177 13.1809 66.3046 13.6849C67.1914 14.1889 67.8719 14.9898 68.2261 15.9465C68.5802 16.9031 68.5853 17.954 68.2405 18.914C67.8957 19.874 67.2231 20.6815 66.3412 21.1942C65.4593 21.7068 64.4247 21.8917 63.4198 21.7163C62.415 21.5408 61.5043 21.0163 60.8483 20.2351C60.1923 19.454 59.8331 18.4663 59.834 17.4462C59.834 17.306 59.834 17.1657 59.834 17.0283V16.8909C59.834 16.8011 59.82 16.7086 59.8116 16.6104C59.8031 16.5122 59.8116 16.4982 59.7919 16.4393C59.7723 16.3804 59.7751 16.285 59.7639 16.2065C59.7527 16.1279 59.7442 16.0831 59.733 16.0214C59.7218 15.9597 59.7078 15.8811 59.6966 15.811L59.6545 15.6118C59.6405 15.5501 59.6264 15.4884 59.6096 15.4267C59.5928 15.365 59.5759 15.2865 59.5563 15.2164C59.5367 15.1462 59.5255 15.107 59.5114 15.0509C59.4974 14.9948 59.4666 14.9022 59.4413 14.8265C59.4161 14.7507 59.4105 14.7367 59.3964 14.6918C59.3824 14.647 59.3403 14.5292 59.3095 14.4478L59.273 14.3553C59.2366 14.2627 59.2001 14.1701 59.1608 14.0748C58.815 13.2786 58.3496 12.5399 57.7808 11.8842C57.5869 11.6608 57.3819 11.4474 57.1665 11.2446V11.2446C55.9758 10.1284 54.4883 9.37948 52.8824 9.08764C51.2766 8.79579 49.6207 8.97344 48.1133 9.59929C46.606 10.2251 45.3112 11.2726 44.3843 12.616C43.4574 13.9594 42.9378 15.5417 42.8878 17.173C42.8378 18.8044 43.2595 20.4155 44.1024 21.8132C44.9452 23.2108 46.1735 24.3356 47.6397 25.0526C49.1059 25.7696 50.7478 26.0483 52.3685 25.8554C53.9892 25.6624 55.5198 25.006 56.7767 23.9648C56.3442 23.3943 55.9488 22.7965 55.593 22.1753C55.2593 21.5324 54.9689 20.8681 54.7235 20.1866C54.0804 20.9793 53.178 21.5193 52.1755 21.7114C51.173 21.9035 50.1348 21.7353 49.2443 21.2365C48.3537 20.7377 47.6679 19.9404 47.308 18.9852C46.948 18.0301 46.937 16.9785 47.2769 16.016C47.6167 15.0535 48.2856 14.242 49.1656 13.7247C50.0455 13.2074 51.0799 13.0175 52.0862 13.1885C53.0925 13.3596 54.006 13.8806 54.6656 14.6596C55.3252 15.4386 55.6884 16.4255 55.6912 17.4462V17.4462C55.6912 17.5865 55.6912 17.7267 55.6912 17.8642C55.6912 17.9118 55.6912 17.9567 55.6912 18.0016C55.6912 18.0942 55.6912 18.1839 55.7108 18.2821C55.7304 18.3803 55.7248 18.3971 55.7305 18.4532C55.7361 18.5093 55.7501 18.6103 55.7613 18.686C55.7725 18.7617 55.7809 18.8122 55.7922 18.8739C55.8034 18.9356 55.8146 19.0114 55.8286 19.0815L55.8707 19.2806L55.9128 19.4686C55.9296 19.5387 55.9492 19.6088 55.9689 19.6789L56.0137 19.8416C56.0362 19.9173 56.0586 19.9931 56.0839 20.066C56.1091 20.1389 56.1119 20.1586 56.1287 20.2034C56.1456 20.2483 56.1848 20.3661 56.2157 20.4447L56.2522 20.5372C56.2886 20.6298 56.3251 20.7251 56.3644 20.8177C56.7207 21.6166 57.1985 22.3555 57.7808 23.0083C57.8706 23.1121 57.9631 23.2159 58.0613 23.314C58.0608 23.3215 58.0608 23.329 58.0613 23.3365C58.1567 23.4347 58.252 23.53 58.3418 23.617L58.3726 23.645C59.3838 24.5869 60.6098 25.2674 61.944 25.6272C63.2782 25.9871 64.6801 26.0154 66.0278 25.7097C67.3754 25.404 68.6279 24.7736 69.6762 23.8733C70.7246 22.973 71.537 21.8302 72.0428 20.5442C72.5486 19.2582 72.7324 17.8681 72.5783 16.4948C72.4242 15.1216 71.9367 13.8068 71.1584 12.665C70.3801 11.5231 69.3346 10.5888 68.1127 9.94334C66.8909 9.29787 65.5298 8.9608 64.1479 8.96147L64.1703 8.96989Z" fill="url(#paint3_linear)"/>
<path d="M109.747 20.3044C110.341 18.5812 110.364 16.7121 109.812 14.9748C109.26 13.2375 108.162 11.7247 106.681 10.6613C106.826 11.2525 106.796 11.8729 106.597 12.448C106.443 12.8904 106.194 13.2936 105.868 13.629C105.541 13.9644 105.144 14.2239 104.706 14.3889C105.35 14.9956 105.792 15.7847 105.974 16.6503C106.156 17.5158 106.069 18.4163 105.723 19.2307C105.378 20.045 104.792 20.7341 104.044 21.2054C103.295 21.6767 102.42 21.9075 101.537 21.8668C101.283 21.8608 101.031 21.8269 100.785 21.7658C100.627 21.7319 100.472 21.6888 100.319 21.6368L100.286 21.6199C99.7749 21.5095 99.2412 21.5964 98.7917 21.8631C98.3423 22.1299 98.0104 22.5568 97.8627 23.0582C97.715 23.5595 97.7624 24.0982 97.9954 24.566C98.2284 25.0339 98.6298 25.3963 99.1189 25.5804L99.4527 25.6954C101.532 26.2772 103.756 26.0433 105.669 25.0414C107.582 24.0395 109.04 22.3452 109.747 20.3044V20.3044Z" fill="#D51130"/>
<path d="M96.7684 22.5876C96.9179 22.1482 97.1619 21.747 97.4832 21.4121C97.8045 21.0773 98.1953 20.8169 98.628 20.6494C97.9022 19.9719 97.4311 19.0657 97.2934 18.0825C97.1557 17.0992 97.3598 16.0984 97.8716 15.2476C98.3834 14.3968 99.1718 13.7476 100.105 13.4085C101.038 13.0694 102.059 13.061 102.998 13.3847H103.018C103.523 13.499 104.053 13.4195 104.502 13.1618C104.951 12.9041 105.288 12.4872 105.444 11.9934C105.601 11.4996 105.566 10.9651 105.348 10.4956C105.129 10.026 104.742 9.6557 104.263 9.45792L103.932 9.34292C102.007 8.78643 99.9468 8.93025 98.1177 9.74885C96.2885 10.5674 94.8087 12.0078 93.941 13.8142C93.0733 15.6206 92.8739 17.676 93.3782 19.6155C93.8824 21.555 95.0578 23.253 96.6955 24.4079C96.5403 23.8072 96.5657 23.174 96.7684 22.5876Z" fill="#FFCD1C"/>
<path d="M112.568 25.4879V21.1571H117V25.4879H112.568ZM112.669 18.9413V0.897461H117V18.9413H112.669Z" fill="#D51130"/>
<defs>
<linearGradient id="paint0_linear" x1="6.63635" y1="25.9282" x2="6.63635" y2="8.80164" gradientUnits="userSpaceOnUse">
<stop stop-color="#161A20"/>
<stop offset="0.1" stop-color="#181C23"/>
<stop offset="1" stop-color="#292E36"/>
</linearGradient>
<linearGradient id="paint1_linear" x1="679.891" y1="2156.74" x2="679.891" y2="0.897461" gradientUnits="userSpaceOnUse">
<stop stop-color="#161A20"/>
<stop offset="0.1" stop-color="#181C23"/>
<stop offset="1" stop-color="#292E36"/>
</linearGradient>
<linearGradient id="paint2_linear" x1="1516.75" y1="1507.48" x2="1516.75" y2="502.429" gradientUnits="userSpaceOnUse">
<stop stop-color="#161A20"/>
<stop offset="0.1" stop-color="#181C23"/>
<stop offset="1" stop-color="#292E36"/>
</linearGradient>
<linearGradient id="paint3_linear" x1="6168.77" y1="1523.25" x2="6168.77" y2="497.315" gradientUnits="userSpaceOnUse">
<stop stop-color="#161A20"/>
<stop offset="0.1" stop-color="#181C23"/>
<stop offset="1" stop-color="#292E36"/>
</linearGradient>
</defs>
</svg>
