<svg width="80" height="41" viewBox="0 0 80 41" fill="none" xmlns="http://www.w3.org/2000/svg">
<g clip-path="url(#clip0)">
<path fill-rule="evenodd" clip-rule="evenodd" d="M0 40.0652H39.9774L79.1009 0.934784H0V40.0652Z" fill="url(#paint0_linear)"/>
<path fill-rule="evenodd" clip-rule="evenodd" d="M46.9428 8.76087H39.1306L39.1567 27.1348L32.3541 8.75478H25.6088L19.8019 24.1052C19.1845 20.1991 15.1462 18.8513 11.9688 17.8417C9.87058 17.1678 7.64362 16.1765 7.66623 15.0809C7.68362 14.1817 8.85754 13.3478 11.1906 13.4722C12.7558 13.5565 14.1384 13.6826 16.8888 15.0113L19.5932 10.2983C17.0854 9.02174 13.6175 8.21565 10.7741 8.21304H10.7567C7.44101 8.21304 4.68014 9.28696 2.96884 11.0565C1.7758 12.2913 1.13232 13.8617 1.10623 15.5983C1.06275 17.9878 1.93841 19.6817 3.7784 21.0357C5.33319 22.1748 7.32188 22.9139 9.07406 23.4565C11.2349 24.1261 13.0001 24.7087 12.9784 25.9487C12.961 26.4009 12.7906 26.8235 12.4654 27.1643C11.9262 27.7209 11.1001 27.9296 9.95667 27.9522C7.75058 27.9991 6.1158 27.6522 3.51058 26.1122L1.10449 30.8861C3.7071 32.3661 6.46971 33.1087 9.60884 33.1087L10.3149 33.1035C13.0471 33.0539 15.2645 32.3991 17.0262 30.9817C17.1271 30.9009 17.2175 30.8191 17.3114 30.7365L17.0158 32.26L23.6071 32.2391L24.7897 29.2113C26.0332 29.6357 27.4471 29.8704 28.948 29.8704C30.4106 29.8704 31.7862 29.6478 33.0062 29.2478L33.8306 32.2391L45.6567 32.2504L45.6854 25.3478H48.2019C54.2845 25.3478 57.8801 22.2522 57.8801 17.0609C57.8784 11.2791 54.3828 8.76087 46.9428 8.76087ZM28.948 24.467C28.0393 24.467 27.1871 24.3087 26.4541 24.0304L28.9201 16.2435H28.968L31.3941 24.0522C30.6636 24.313 29.8314 24.467 28.9471 24.467H28.948ZM47.4001 19.993H45.6836V13.7174H47.401C49.688 13.7174 51.5141 14.4791 51.5141 16.8148C51.5123 19.2322 49.688 19.993 47.401 19.993" fill="white"/>
</g>
<defs>
<linearGradient id="paint0_linear" x1="39.5504" y1="0.934784" x2="39.5504" y2="40.0661" gradientUnits="userSpaceOnUse">
<stop stop-color="#00AEEF"/>
<stop offset="0.212" stop-color="#0097DC"/>
<stop offset="0.519" stop-color="#007CC5"/>
<stop offset="0.792" stop-color="#006CB8"/>
<stop offset="1" stop-color="#0066B3"/>
</linearGradient>
<clipPath id="clip0">
<rect width="80" height="39.1304" fill="white" transform="translate(0 0.934784)"/>
</clipPath>
</defs>
</svg>
