<svg width="176" height="40" viewBox="0 0 176 40" fill="none" xmlns="http://www.w3.org/2000/svg">
<g clip-path="url(#clip0)">
<path d="M13.7137 39.0055L25.6763 23.4154C26.7485 22.0165 26.4856 20.0125 25.0867 18.9377L24.811 18.7258C23.1924 17.4852 20.8744 17.789 19.6312 19.4074L12.1642 29.1389C9.84874 32.1563 10.418 36.4782 13.4355 38.7937L13.7137 39.0055Z" fill="#4D6DD3"/>
<path d="M26.6285 19.7548C26.5877 15.7954 23.3635 12.5967 19.3938 12.5967H15.5875C14.3265 12.5967 13.3027 13.6203 13.3027 14.8815V19.8314H24.1574L24.16 19.834C24.1829 19.834 24.2085 19.8314 24.2314 19.8314C25.347 19.8314 26.2481 20.7351 26.2481 21.8481C26.2481 22.0779 26.2099 22.3 26.1384 22.5068C26.1384 22.5068 26.4575 21.7307 26.5545 21.0465C26.6158 20.6151 26.6285 20.0331 26.6311 19.8288C26.6311 19.8212 26.6311 19.8135 26.6311 19.8059C26.6285 19.7727 26.6285 19.7548 26.6285 19.7548Z" fill="#5F98FF"/>
<path d="M12.9148 0.64917L0.952249 16.2394C-0.119939 17.6382 0.143001 19.6422 1.54195 20.717L1.81766 20.9289C3.43615 22.1695 5.75413 21.8657 6.99736 20.2473L14.4644 10.5159C16.7798 7.49843 16.2106 3.17647 13.1931 0.861059L12.9148 0.64917Z" fill="#4D6DD3"/>
<path d="M0.00255533 19.9004C0.0434007 23.8598 3.26763 27.0585 7.23729 27.0585H11.0436C12.3047 27.0585 13.3284 26.0349 13.3284 24.7738V19.8238H2.47369L2.47114 19.8212C2.44817 19.8212 2.42264 19.8238 2.39966 19.8238C1.28408 19.8238 0.382925 18.9201 0.382925 17.8071C0.382925 17.5773 0.42122 17.3552 0.492699 17.1484C0.492699 17.1484 0.173593 17.9245 0.0765858 18.6087C0.0153178 19.0401 0.00255283 19.6221 0 19.8264C0 19.8341 0 19.8417 0 19.8493C0.00255283 19.8799 0.00255533 19.9004 0.00255533 19.9004Z" fill="#5F98FF"/>
<path d="M41.333 16.8268C41.0931 16.4413 40.6336 15.9588 39.8856 15.9588C39.5486 15.9588 39.3061 16.0788 39.1606 16.2243C39.0406 16.3443 38.9436 16.5384 38.9436 16.7554C38.9436 17.0208 39.0636 17.1893 39.2806 17.3349C39.4261 17.4318 39.569 17.4804 40.077 17.7458L41.2845 18.3483C41.8155 18.6138 42.3209 18.8792 42.709 19.2903C43.263 19.8443 43.457 20.4723 43.457 21.1718C43.457 22.0882 43.12 22.8847 42.5635 23.4871C41.767 24.3551 40.779 24.6206 39.7171 24.6206C39.0661 24.6206 38.2441 24.5236 37.5217 23.9696C36.9422 23.5357 36.4597 22.8362 36.2197 22.1112L38.1496 21.1947C38.2696 21.5317 38.4866 21.9657 38.7036 22.1597C38.8491 22.3052 39.1861 22.5451 39.74 22.5451C40.1025 22.5451 40.488 22.4251 40.7051 22.2082C40.899 22.0142 41.042 21.7027 41.042 21.4117C41.042 21.1232 40.945 20.8807 40.728 20.6407C40.4395 20.3523 40.1 20.1813 39.7145 20.0127L38.8465 19.6018C38.387 19.3848 37.8331 19.1193 37.4476 18.7337C36.9166 18.2283 36.7226 17.6718 36.7226 17.0208C36.7226 16.2014 37.0366 15.4049 37.5676 14.8484C38.0271 14.3659 38.7981 13.8834 40.0515 13.8834C40.774 13.8834 41.3534 14.0289 41.9329 14.4144C42.2699 14.6314 42.7294 15.0168 43.0919 15.6703L41.333 16.8268Z" fill="#0D1632"/>
<path d="M54.6741 21.9883C54.2402 22.7593 53.6121 23.4357 52.9612 23.8468C52.1417 24.3777 51.0542 24.6177 49.9693 24.6177C48.6188 24.6177 47.5083 24.2807 46.5434 23.3158C45.5784 22.3508 45.0474 20.9518 45.0474 19.4304C45.0474 17.8629 45.6013 16.3415 46.6633 15.2565C47.5083 14.4114 48.6188 13.8805 50.0663 13.8805C51.6822 13.8805 52.7212 14.58 53.3237 15.208C54.6256 16.5585 54.7482 18.4398 54.7482 19.5018V19.7903H47.4623C47.5109 20.5153 47.8248 21.3348 48.3304 21.8402C48.8843 22.3942 49.5608 22.4912 50.1403 22.4912C50.7912 22.4912 51.2738 22.3457 51.7563 21.9832C52.1673 21.6692 52.4813 21.2607 52.6982 20.8727L54.6741 21.9883ZM52.3357 17.8629C52.2388 17.309 51.9732 16.8265 51.6108 16.487C51.2967 16.1984 50.7912 15.9074 50.0177 15.9074C49.1983 15.9074 48.6673 16.2444 48.3533 16.5585C48.0163 16.8724 47.7509 17.3549 47.6283 17.8604H52.3357V17.8629Z" fill="#0D1632"/>
<path d="M64.64 14.1485H67.004V23.4868C67.004 25.8762 66.7385 27.5892 65.3395 28.7712C64.6885 29.3021 63.6266 29.8561 61.9621 29.8561C60.7801 29.8561 59.5981 29.5676 58.6332 28.6002C57.8852 27.8521 57.3057 26.6702 57.1373 25.4397H59.4297C59.5267 25.9937 59.8151 26.6472 60.1776 27.0327C60.4662 27.3467 61.0457 27.7322 62.0106 27.7322C63.0011 27.7322 63.578 27.3467 63.869 27.0557C64.64 26.3077 64.64 25.2457 64.64 24.4977V23.1703C63.5551 24.5463 62.2276 24.6177 61.5511 24.6177C60.2492 24.6177 59.1616 24.2552 58.1967 23.2418C57.2802 22.2768 56.6777 20.9008 56.6777 19.2134C56.6777 17.3549 57.3772 16.076 58.1737 15.2795C59.1872 14.243 60.3947 13.8805 61.6252 13.8805C62.6386 13.8805 63.7721 14.2175 64.64 15.2565V14.1485ZM60.1292 16.6809C59.5267 17.2349 59.0927 18.1769 59.0927 19.2619C59.0927 20.2754 59.4782 21.2659 60.1062 21.8198C60.5402 22.2053 61.1912 22.4963 61.9162 22.4963C62.6641 22.4963 63.3151 22.2793 63.8946 21.6768C64.5941 20.9289 64.7881 20.0609 64.7881 19.2874C64.7881 18.154 64.4256 17.309 63.8232 16.7295C63.2436 16.15 62.5926 16.0045 61.9162 16.0045C61.2627 16.0045 60.6576 16.1755 60.1292 16.6809Z" fill="#0D1632"/>
<path d="M69.9961 14.1489H72.36V15.0909C73.1565 14.126 74.096 13.8834 74.8694 13.8834C75.9314 13.8834 76.9193 14.3888 77.4989 15.3793C78.3438 14.1718 79.6228 13.8834 80.5138 13.8834C81.7442 13.8834 82.8292 14.4628 83.4087 15.4764C83.6027 15.8133 83.9396 16.5613 83.9396 18.0343V24.3066H81.5758V18.7082C81.5758 17.5748 81.4557 17.1153 81.3588 16.8983C81.2133 16.5128 80.8533 16.0048 80.0083 16.0048C79.4289 16.0048 78.9233 16.3188 78.6093 16.7528C78.1983 17.3323 78.1499 18.2002 78.1499 19.0682V24.3041H75.7859V18.7057C75.7859 17.5722 75.666 17.1127 75.5689 16.8957C75.4234 16.5102 75.0634 16.0022 74.2184 16.0022C73.639 16.0022 73.1335 16.3163 72.8196 16.7502C72.4085 17.3297 72.36 18.1976 72.36 19.0657V24.3015H69.9961V14.1489Z" fill="#0D1632"/>
<path d="M96.0325 21.9883C95.5985 22.7593 94.9701 23.4357 94.3195 23.8468C93.5003 24.3777 92.413 24.6177 91.3276 24.6177C89.9772 24.6177 88.8666 24.2807 87.9017 23.3158C86.9367 22.3508 86.4058 20.9518 86.4058 19.4304C86.4058 17.8629 86.9597 16.3415 88.0216 15.2565C88.8666 14.4114 89.9772 13.8805 91.4246 13.8805C93.0405 13.8805 94.0799 14.58 94.6816 15.208C95.9837 16.5585 96.1062 18.4398 96.1062 19.5018V19.7903H88.8207C88.8692 20.5153 89.1832 21.3348 89.6887 21.8402C90.2427 22.3942 90.9191 22.4912 91.4986 22.4912C92.1494 22.4912 92.6323 22.3457 93.1142 21.9832C93.5252 21.6692 93.8394 21.2607 94.0569 20.8727L96.0325 21.9883ZM93.692 17.8629C93.5943 17.309 93.3289 16.8265 92.9686 16.487C92.6553 16.1984 92.1494 15.9074 91.3761 15.9074C90.5566 15.9074 90.0256 16.2444 89.7116 16.5585C89.3746 16.8724 89.1092 17.3549 88.9892 17.8604H93.692V17.8629Z" fill="#0D1632"/>
<path d="M98.5415 14.1489H100.906V15.0909C101.92 13.9574 103.078 13.8834 103.655 13.8834C105.536 13.8834 106.333 14.8253 106.647 15.2594C107.033 15.8133 107.275 16.5128 107.275 18.0828V24.3066H104.911V18.6597C104.911 16.0788 103.946 16.0048 103.053 16.0048C101.991 16.0048 100.906 16.1503 100.906 19.4307V24.3041H98.5415V14.1489Z" fill="#0D1632"/>
<path d="M112.704 16.3186V24.3039H110.341V16.3186H109.35V14.1462H110.341V10.4318H112.704V14.1462H114.515V16.3186H112.704Z" fill="#0D1632"/>
<path d="M120.547 16.8268C120.305 16.4413 119.848 15.9588 119.099 15.9588C118.763 15.9588 118.521 16.0788 118.377 16.2243C118.257 16.3443 118.16 16.5384 118.16 16.7554C118.16 17.0208 118.28 17.1893 118.498 17.3349C118.643 17.4318 118.786 17.4804 119.294 17.7458L120.501 18.3483C121.033 18.6138 121.538 18.8792 121.925 19.2903C122.479 19.8443 122.674 20.4723 122.674 21.1718C122.674 22.0882 122.336 22.8847 121.78 23.4871C120.984 24.3551 119.996 24.6206 118.933 24.6206C118.283 24.6206 117.461 24.5236 116.739 23.9696C116.159 23.5357 115.676 22.8362 115.437 22.1112L117.366 21.1947C117.487 21.5317 117.703 21.9657 117.921 22.1597C118.065 22.3052 118.403 22.5451 118.957 22.5451C119.32 22.5451 119.705 22.4251 119.922 22.2082C120.116 22.0142 120.259 21.7027 120.259 21.4117C120.259 21.1232 120.162 20.8807 119.944 20.6407C119.656 20.3523 119.317 20.1813 118.932 20.0127L118.064 19.6018C117.604 19.3848 117.05 19.1193 116.664 18.7337C116.133 18.2283 115.941 17.6718 115.941 17.0208C115.941 16.2014 116.256 15.4049 116.786 14.8484C117.246 14.3659 118.018 13.8834 119.274 13.8834C119.996 13.8834 120.576 14.0289 121.155 14.4144C121.491 14.6314 121.951 15.0168 122.313 15.6703L120.547 16.8268Z" fill="#0D1632"/>
<path d="M127.231 16.3186V24.3039H124.867V16.3186H123.876V14.1462H124.867V10.4318H127.231V14.1462H129.04V16.3186H127.231Z" fill="#0D1632"/>
<path d="M130.631 14.1489H132.995V15.0654C133.261 14.7514 133.646 14.4144 133.986 14.2204C134.445 13.9548 134.902 13.8834 135.433 13.8834C136.012 13.8834 136.641 13.9804 137.291 14.3659L136.326 16.5128C135.796 16.1758 135.362 16.1503 135.119 16.1503C134.611 16.1503 134.106 16.2218 133.646 16.7043C132.995 17.4038 132.995 18.3688 132.995 19.0452V24.3041H130.631V14.1489Z" fill="#0D1632"/>
<path d="M146.989 21.9883C146.555 22.7593 145.928 23.4357 145.276 23.8468C144.457 24.3777 143.37 24.6177 142.284 24.6177C140.934 24.6177 139.824 24.2807 138.858 23.3158C137.894 22.3508 137.363 20.9518 137.363 19.4304C137.363 17.8629 137.917 16.3415 138.979 15.2565C139.824 14.4114 140.934 13.8805 142.382 13.8805C143.997 13.8805 145.037 14.58 145.639 15.208C146.941 16.5585 147.063 18.4398 147.063 19.5018V19.7903H139.775C139.824 20.5153 140.137 21.3348 140.643 21.8402C141.197 22.3942 141.873 22.4912 142.453 22.4912C143.104 22.4912 143.586 22.3457 144.069 21.9832C144.48 21.6692 144.794 21.2607 145.011 20.8727L146.989 21.9883ZM144.651 17.8629C144.554 17.309 144.289 16.8265 143.928 16.487C143.615 16.1984 143.109 15.9074 142.336 15.9074C141.516 15.9074 140.985 16.2444 140.671 16.5585C140.335 16.8724 140.069 17.3549 139.948 17.8604H144.651V17.8629Z" fill="#0D1632"/>
<path d="M156.701 14.1489H159.064V24.3066H156.701V23.2446C155.664 24.4521 154.385 24.6206 153.66 24.6206C150.522 24.6206 148.738 22.0142 148.738 19.2162C148.738 15.9104 151.005 13.8834 153.686 13.8834C154.434 13.8834 155.735 14.0774 156.701 15.3309V14.1489ZM151.151 19.2622C151.151 21.0237 152.261 22.4966 153.974 22.4966C155.47 22.4966 156.846 21.4117 156.846 19.2877C156.846 17.0668 155.47 16.0073 153.974 16.0073C152.261 16.0048 151.151 17.4548 151.151 19.2622Z" fill="#0D1632"/>
<path d="M162.057 14.1489H164.42V15.0909C165.217 14.126 166.156 13.8834 166.93 13.8834C167.992 13.8834 168.98 14.3888 169.559 15.3793C170.404 14.1718 171.683 13.8834 172.574 13.8834C173.804 13.8834 174.89 14.4628 175.469 15.4764C175.663 15.8133 176 16.5613 176 18.0343V24.3066H173.637V18.7082C173.637 17.5748 173.516 17.1153 173.419 16.8983C173.274 16.5128 172.914 16.0048 172.069 16.0048C171.49 16.0048 170.984 16.3188 170.67 16.7528C170.259 17.3323 170.211 18.2002 170.211 19.0682V24.3041H167.846V18.7057C167.846 17.5722 167.726 17.1127 167.63 16.8957C167.484 16.5102 167.122 16.0022 166.279 16.0022C165.699 16.0022 165.194 16.3163 164.88 16.7502C164.469 17.3297 164.42 18.1976 164.42 19.0657V24.3015H162.057V14.1489Z" fill="#0D1632"/>
</g>
<defs>
<clipPath id="clip0">
<rect width="176" height="38.7016" fill="white" transform="translate(0 0.64917)"/>
</clipPath>
</defs>
</svg>
