<svg width="122" height="22" viewBox="0 0 122 22" fill="none" xmlns="http://www.w3.org/2000/svg">
<path fill-rule="evenodd" clip-rule="evenodd" d="M42.2306 14.2097C42.7377 13.0744 43.8006 12.3014 45.2018 12.3014C46.6031 12.3014 47.6418 12.9535 48.0767 14.2097H42.2306ZM51.4103 15.6591C51.4103 12.1804 48.8735 9.40249 45.1777 9.40249C41.699 9.40249 38.8968 12.2045 38.8968 15.6834C38.8968 19.162 41.506 21.9642 45.2745 21.9642C47.8843 21.9642 49.7615 20.7052 50.8177 18.9005L48.1927 17.3352C47.6358 18.4037 46.5669 19.0654 45.2986 19.0654C43.5592 19.0654 42.4723 18.1955 42.0856 16.8669H51.4103V15.6591ZM118.787 15.6591C118.787 13.8716 117.482 12.4221 115.695 12.4221C113.859 12.4221 112.458 13.7991 112.458 15.6591C112.458 17.5192 113.859 18.9204 115.695 18.9204C117.482 18.9204 118.787 17.4469 118.787 15.6591ZM109.221 15.6834C109.221 11.4078 112.361 9.40249 115.091 9.40249C116.661 9.40249 117.893 9.98228 118.69 10.8277V4.088H122V21.7225H118.69V20.3699C117.893 21.3121 116.613 21.9642 115.043 21.9642C112.482 21.9642 109.221 19.9349 109.221 15.6834ZM106.79 7.80575C107.883 7.80575 108.769 6.91945 108.769 5.82603C108.769 4.73262 107.883 3.84631 106.79 3.84631C105.696 3.84631 104.81 4.73262 104.81 5.82603C104.81 6.91945 105.696 7.80575 106.79 7.80575ZM105.135 9.64418H108.444V21.7225H105.135V12.8571L103.934 12.8569L105.135 9.64418ZM96.3187 9.64418H99.6041V11.6251C100.208 10.3689 101.295 9.64418 102.938 9.64418H104.266L103.067 12.8569H102.165C100.401 12.8569 99.6282 13.775 99.6282 16.0215V21.7225H96.3187V9.64418ZM77.7005 12.9053C77.7005 7.88055 81.4932 3.84631 86.711 3.84631C89.321 3.84631 91.5158 4.78614 93.1049 6.28381C93.7517 6.89319 94.2979 7.59515 94.7311 8.36377L91.7841 10.1513C90.697 8.14618 89.0301 7.10745 86.7352 7.10745C83.5223 7.10745 81.0341 9.74076 81.0341 12.9053C81.0341 16.1424 83.4741 18.7029 86.8559 18.7029C89.4168 18.7029 91.2282 17.2536 91.8564 15.0069H86.3245V11.7941H95.4799V13.1468C95.4799 17.8817 92.0981 21.9642 86.8559 21.9642C81.3483 21.9642 77.7005 17.7851 77.7005 12.9053ZM73.7111 15.6591C73.7111 13.8716 72.4068 12.4221 70.6192 12.4221C68.7833 12.4221 67.382 13.7991 67.382 15.6591C67.382 17.5192 68.7833 18.9204 70.6192 18.9204C72.4068 18.9204 73.7111 17.4469 73.7111 15.6591ZM64.145 15.6834C64.145 11.4078 67.2853 9.40249 70.0152 9.40249C71.5853 9.40249 72.8173 9.98228 73.6146 10.8277V4.088H76.9241V21.7225H73.6146V20.3699C72.8173 21.3121 71.5371 21.9642 69.9669 21.9642C67.4063 21.9642 64.145 19.9349 64.145 15.6834ZM52.1839 9.64418H55.4695V10.9969C56.2424 10.0064 57.4262 9.40249 58.8031 9.40249C61.6535 9.40249 63.3687 11.2384 63.3687 14.3546V21.7225H60.0108V14.7895C60.0108 13.1709 59.262 12.2288 57.7886 12.2288C56.5323 12.2288 55.4936 13.0985 55.4936 15.1276V21.7225H52.1839V9.64418ZM25.1621 18.7996L28.2303 16.3837C29.0998 17.8817 30.4768 18.7512 32.0467 18.7512C33.7622 18.7512 34.6802 17.6402 34.6802 16.4321C34.6802 14.9828 32.9164 14.524 31.0323 13.9439C28.6651 13.2193 26.0318 12.3014 26.0318 8.91928C26.0318 6.09299 28.4961 3.84631 31.902 3.84631C34.7768 3.84631 36.4194 4.93341 37.8448 6.40715L35.0665 8.50871C34.342 7.42178 33.3032 6.84182 31.9261 6.84182C30.3559 6.84182 29.5107 7.6874 29.5107 8.79861C29.5107 10.1513 31.2015 10.6106 33.0856 11.2384C35.4774 12.0114 38.1829 13.0744 38.1829 16.4565C38.1829 19.2585 35.9603 21.9642 32.071 21.9642C28.8825 21.9642 26.7567 20.6116 25.1621 18.7996Z" fill="#212F38"/>
<path fill-rule="evenodd" clip-rule="evenodd" d="M7.09619 21.7225H14.1497V14.6689H7.09619V21.7225Z" fill="#9DD6E3"/>
<path fill-rule="evenodd" clip-rule="evenodd" d="M0.0424805 14.6693H7.096V7.6156H0.0424805V14.6693Z" fill="#9DD6E3"/>
<path fill-rule="evenodd" clip-rule="evenodd" d="M0.0424805 21.7225H7.096V14.6689H0.0424805V21.7225Z" fill="#3F72AB"/>
<path fill-rule="evenodd" clip-rule="evenodd" d="M14.1499 14.6693H21.2034V7.6156H14.1499V14.6693Z" fill="#00A9D1"/>
<path fill-rule="evenodd" clip-rule="evenodd" d="M7.09619 7.61578H14.1497V0.562256H7.09619V7.61578Z" fill="#00A9D1"/>
<path fill-rule="evenodd" clip-rule="evenodd" d="M7.09619 14.6691H14.1497V7.6156H7.09619V14.6691Z" fill="#2191C4"/>
<path fill-rule="evenodd" clip-rule="evenodd" d="M14.1499 7.61578H21.2034V0.562256H14.1499V7.61578Z" fill="#3F72AB"/>
</svg>
