<svg width="114" height="28" viewBox="0 0 114 28" fill="none" xmlns="http://www.w3.org/2000/svg">
<g clip-path="url(#clip0)">
<path d="M13.4444 0.655521C16.1063 0.653492 18.709 1.44113 20.9232 2.91876C23.1374 4.39639 24.8635 6.49761 25.8831 8.95654C26.9027 11.4155 27.17 14.1216 26.6512 16.7325C26.1324 19.3434 24.8508 21.7417 22.9685 23.624C21.0862 25.5063 18.6879 26.7879 16.077 27.3067C13.4661 27.8256 10.76 27.5583 8.30103 26.5386C5.84209 25.519 3.74087 23.7929 2.26324 21.5787C0.785608 19.3646 -0.00202578 16.7618 3.91296e-06 14.0999C0.00272205 10.5351 1.42005 7.117 3.94077 4.59629C6.46149 2.07557 9.87954 0.65824 13.4444 0.655521V0.655521ZM20.926 17.6201C20.5383 17.6201 20.1593 17.735 19.837 17.9504C19.5146 18.1658 19.2634 18.4719 19.115 18.8301C18.9666 19.1883 18.9278 19.5824 19.0035 19.9627C19.0791 20.3429 19.2658 20.6922 19.5399 20.9663C19.8141 21.2405 20.1633 21.4272 20.5436 21.5028C20.9238 21.5784 21.318 21.5396 21.6761 21.3913C22.0343 21.2429 22.3405 20.9916 22.5559 20.6693C22.7712 20.3469 22.8862 19.968 22.8862 19.5803C22.8862 19.0604 22.6797 18.5618 22.3121 18.1942C21.9445 17.8266 21.4459 17.6201 20.926 17.6201V17.6201ZM8.06662 4.24753C7.67647 4.2455 7.29449 4.35933 6.9691 4.57461C6.64371 4.78989 6.38956 5.09692 6.23884 5.45679C6.08813 5.81667 6.04764 6.21318 6.12251 6.59609C6.19737 6.979 6.38423 7.33106 6.65939 7.60766C6.93455 7.88427 7.28564 8.07296 7.66815 8.14982C8.05066 8.22669 8.44738 8.18827 8.80804 8.03944C9.16869 7.8906 9.47705 7.63805 9.69402 7.31379C9.911 6.98953 10.0268 6.60816 10.0268 6.218C10.0268 5.69717 9.82065 5.19752 9.45333 4.82828C9.08601 4.45904 8.58744 4.25024 8.06662 4.24753V4.24753ZM5.13144 7.76769C-0.58498 14.7362 4.66961 24.2909 12.8081 24.5372H12.9723C14.0785 24.5934 15.1833 24.4005 16.2051 23.9728C16.893 23.7421 17.4952 23.3091 17.9328 22.7304C18.3705 22.1517 18.6232 21.4544 18.6579 20.7297V20.2987C18.5676 19.5651 18.2679 18.873 17.7947 18.3052C17.3215 17.7373 16.6949 17.3178 15.9896 17.0966H15.8048C14.9222 16.8709 13.9986 16.6964 13.1057 16.5014C11.7422 16.2077 10.4116 15.7779 9.13396 15.2185C7.8274 14.7362 6.7167 13.8358 5.97438 12.6574C5.23205 11.479 4.89965 10.0884 5.02881 8.70161C5.04634 8.3887 5.0806 8.07695 5.13144 7.76769V7.76769ZM23.2044 17.1685C24.4462 12.6323 22.3628 7.34691 18.1448 5.50986C17.276 5.13376 16.3409 4.93488 15.3943 4.92488C12.8902 4.84277 10.2629 5.68433 10.15 8.68109V8.79398C10.1659 9.3631 10.3393 9.91667 10.6509 10.3932C10.9625 10.8697 11.4002 11.2504 11.9152 11.4931C13.8691 12.2945 15.9072 12.8729 17.9908 13.2173C20.731 13.8228 22.4141 15.1159 23.1838 17.1685H23.2044Z" fill="black"/>
<path d="M39.5118 13.7406C39.257 13.4129 38.9351 13.1435 38.5677 12.9503C38.1678 12.7327 37.7195 12.6197 37.2643 12.6219C36.8728 12.6154 36.4855 12.7034 36.1354 12.8785C35.9724 12.9531 35.836 13.0756 35.7444 13.2296C35.6527 13.3835 35.6101 13.5618 35.6222 13.7406C35.6138 13.9228 35.6641 14.1029 35.7657 14.2544C35.8673 14.4059 36.0149 14.5208 36.1867 14.5821C36.7234 14.7929 37.2759 14.961 37.839 15.085C38.2367 15.1694 38.6277 15.2826 39.009 15.4237C39.3759 15.567 39.7213 15.7604 40.0352 15.9984C40.3577 16.2297 40.6271 16.5271 40.8255 16.8708C41.0392 17.2467 41.1556 17.67 41.1642 18.1023C41.1787 18.6575 41.0553 19.2076 40.805 19.7033C40.5758 20.112 40.2564 20.463 39.871 20.7296C39.4517 21.0061 38.9858 21.2043 38.4958 21.3146C37.9677 21.4385 37.427 21.5005 36.8845 21.4993C36.0915 21.5404 35.2978 21.4325 34.5446 21.1812C33.8285 20.9179 33.185 20.4888 32.6665 19.9291L34.3599 18.3486C34.6734 18.732 35.0679 19.0413 35.515 19.2542C35.9621 19.4671 36.4509 19.5784 36.9461 19.5802C37.1359 19.58 37.3252 19.5594 37.5106 19.5186C37.698 19.4781 37.878 19.4089 38.0442 19.3133C38.2081 19.2233 38.3459 19.0925 38.4445 18.9336C38.5514 18.7614 38.605 18.5615 38.5984 18.3589C38.608 18.1621 38.5558 17.9672 38.449 17.8015C38.3423 17.6359 38.1864 17.5078 38.0032 17.4352C37.4347 17.1923 36.8433 17.0067 36.238 16.881C35.8578 16.7982 35.484 16.6885 35.1193 16.5526C34.7694 16.4246 34.4408 16.2447 34.1444 16.0189C33.859 15.7935 33.6247 15.5102 33.4567 15.1877C33.2903 14.8139 33.2163 14.4055 33.2412 13.9972C33.2323 13.4831 33.3523 12.9751 33.5902 12.5193C33.8159 12.1082 34.136 11.7565 34.5241 11.493C34.9237 11.2305 35.3641 11.0363 35.8275 10.9183C36.317 10.792 36.8203 10.7265 37.3258 10.7233C38.0684 10.7245 38.8049 10.8565 39.5016 11.1133C40.1637 11.338 40.7478 11.7476 41.1847 12.2935L39.5118 13.7406ZM53.1923 16.2653V16.9426H45.3514C45.3784 17.3016 45.4797 17.6511 45.649 17.9689C45.8143 18.2697 46.0335 18.5375 46.2956 18.7591C46.5768 18.977 46.8878 19.1533 47.2193 19.2825C47.5477 19.4055 47.8948 19.4715 48.2455 19.4775C48.8237 19.5043 49.3992 19.3843 49.9184 19.1286C50.3617 18.8836 50.7359 18.5306 51.0063 18.1023L52.7202 19.4775C52.2119 20.1582 51.5427 20.7021 50.7725 21.0603C50.0022 21.4186 49.1551 21.58 48.3071 21.5301C47.5565 21.5493 46.8087 21.431 46.1006 21.1812C45.4583 20.9615 44.8679 20.6121 44.3662 20.1549C43.8608 19.6857 43.4649 19.1111 43.2065 18.4718C42.9168 17.7548 42.7737 16.9871 42.7857 16.2139C42.7775 15.4411 42.9205 14.6741 43.2065 13.9561C43.4659 13.3073 43.8533 12.7175 44.3457 12.2217C44.8445 11.7457 45.4297 11.3695 46.0698 11.1133C46.7577 10.8345 47.4931 10.6916 48.2353 10.6925C48.9121 10.688 49.5839 10.8098 50.216 11.0517C50.8084 11.2744 51.3445 11.6248 51.7862 12.078C52.2459 12.578 52.5955 13.1689 52.8125 13.8124C53.0851 14.6007 53.2137 15.4315 53.1923 16.2653V16.2653ZM50.6163 15.1056C50.6195 14.7859 50.5745 14.4676 50.4829 14.1614C50.3964 13.8684 50.2456 13.5984 50.0415 13.3711C49.8336 13.1339 49.5737 12.9477 49.2821 12.8272C48.9408 12.6855 48.574 12.6156 48.2045 12.6219C47.4873 12.6045 46.7891 12.8531 46.2443 13.3198C45.9832 13.5423 45.7696 13.8151 45.6162 14.1219C45.4628 14.4287 45.3728 14.7632 45.3514 15.1056H50.6163ZM55.2448 11.0004H57.6874V12.6425C57.95 12.0887 58.3624 11.6194 58.8779 11.2878C59.4802 10.8737 60.2 10.6649 60.9305 10.6925C61.5219 10.6775 62.1087 10.8005 62.6444 11.0517C63.1038 11.269 63.5075 11.5885 63.8246 11.9856C64.138 12.3763 64.3685 12.8268 64.5019 13.3096C64.6453 13.8101 64.7179 14.3283 64.7175 14.849V21.2735H62.1312V15.5776C62.1301 15.2619 62.1096 14.9466 62.0696 14.6335C62.0351 14.3241 61.941 14.0244 61.7925 13.7509C61.6516 13.4891 61.4513 13.2642 61.2076 13.094C60.9008 12.9031 60.5418 12.8133 60.1813 12.8375C59.8071 12.8277 59.4365 12.9124 59.1037 13.0838C58.8136 13.2348 58.5637 13.4529 58.375 13.7201C58.1717 13.9827 58.0218 14.2825 57.9337 14.6027C57.8315 14.9352 57.7796 15.2811 57.7798 15.629V21.2838H55.214L55.2448 11.0004ZM77.7205 21.2735H75.2779V19.7341C74.9249 20.3239 74.4079 20.7982 73.7898 21.0991C73.1524 21.416 72.4491 21.5778 71.7373 21.5712C71.0019 21.6058 70.2684 21.4725 69.5923 21.1812C68.989 20.9021 68.4507 20.5001 68.0118 20.0009C67.5585 19.4963 67.2096 18.9068 66.9855 18.2665C66.7397 17.5541 66.625 16.8031 66.6469 16.0497C66.6472 15.349 66.7723 14.654 67.0163 13.9972C67.245 13.3652 67.5935 12.7832 68.0426 12.2833C68.4821 11.7925 69.0208 11.4007 69.6231 11.1338C70.2687 10.8464 70.9691 10.7029 71.6757 10.713C72.077 10.7099 72.4771 10.7582 72.8662 10.8567C73.2256 10.9405 73.5712 11.0753 73.8925 11.257C74.1522 11.3977 74.3935 11.5701 74.6109 11.7701C74.7942 11.9293 74.9594 12.1083 75.1035 12.3038H75.1651V5.11978H77.741L77.7205 21.2735ZM69.2639 16.0497C69.2656 16.4569 69.3278 16.8616 69.4486 17.2505C69.5632 17.624 69.7478 17.9723 69.9926 18.2768C70.258 18.6097 70.5977 18.8758 70.9844 19.054C71.3711 19.2322 71.7941 19.3175 72.2196 19.3031C72.6483 19.3481 73.0815 19.2883 73.4819 19.1286C73.8456 18.9431 74.167 18.6846 74.4261 18.3691C74.6906 18.0681 74.896 17.7199 75.0316 17.3429C75.1653 16.9601 75.2346 16.5578 75.2369 16.1524C75.2337 15.7437 75.1644 15.3382 75.0316 14.9516C74.8951 14.575 74.6898 14.2269 74.4261 13.9253C74.1618 13.6125 73.8417 13.3515 73.4819 13.1556C73.092 12.9541 72.6585 12.8519 72.2196 12.858C71.7681 12.8449 71.3204 12.9436 70.9162 13.1453C70.5532 13.3229 70.2369 13.583 69.9926 13.9048C69.749 14.2101 69.5646 14.5581 69.4486 14.9311C69.3343 15.2933 69.2721 15.67 69.2639 16.0497V16.0497ZM80.0502 7.51103C80.0482 7.30768 80.0882 7.10611 80.1676 6.91892C80.2471 6.73173 80.3643 6.56296 80.512 6.42316C80.6673 6.27399 80.8507 6.15723 81.0516 6.0797C81.2524 6.00217 81.4668 5.96542 81.682 5.9716C82.1161 5.9586 82.5386 6.11292 82.8622 6.40264C83.0189 6.54081 83.1432 6.71169 83.2266 6.90322C83.3099 7.09474 83.3502 7.30223 83.3446 7.51103C83.3516 7.71851 83.3119 7.92492 83.2284 8.11499C83.1449 8.30507 83.0197 8.47395 82.8622 8.60915C82.5425 8.90637 82.1182 9.06502 81.682 9.05046C81.4657 9.05766 81.2503 9.02039 81.0491 8.94095C80.8478 8.86151 80.665 8.74159 80.512 8.58863C80.3656 8.45001 80.2491 8.2829 80.1697 8.09758C80.0902 7.91226 80.0496 7.71265 80.0502 7.51103ZM80.4197 11.0004H82.9854V21.2633H80.4607L80.4197 11.0004ZM88.3323 5.08899V12.273H88.3939C88.5437 12.0824 88.7085 11.9039 88.8865 11.7393C89.1058 11.5416 89.3468 11.3695 89.6049 11.2262C89.9271 11.0465 90.2724 10.9118 90.6312 10.8259C91.0426 10.7142 91.4673 10.659 91.8935 10.6617C92.6003 10.6502 93.3009 10.7939 93.9461 11.0825C94.5218 11.3681 95.032 11.77 95.4445 12.2627C95.8979 12.7674 96.2467 13.3569 96.4708 13.9972C96.7063 14.656 96.8277 15.3501 96.83 16.0497C96.8394 16.7871 96.7177 17.5203 96.4708 18.2152C96.2433 18.8539 95.8949 19.4428 95.4445 19.9496C94.9822 20.4706 94.4127 20.8853 93.7749 21.1653C93.1371 21.4452 92.4463 21.5837 91.7499 21.5712C91.0378 21.5802 90.3339 21.4183 89.6973 21.0991C89.0965 20.7925 88.5974 20.3184 88.2605 19.7341V21.2735H85.7666V5.08899H88.3323ZM94.2232 16.0497C94.2221 15.6459 94.1598 15.2445 94.0385 14.8592C93.9146 14.4897 93.7308 14.143 93.4945 13.833C93.2302 13.4988 92.8907 13.2318 92.5038 13.0534C92.1168 12.8751 91.6933 12.7906 91.2675 12.8067C90.8287 12.8006 90.3951 12.9028 90.0052 13.1043C89.6442 13.3027 89.3211 13.5633 89.0507 13.874C88.7903 14.1762 88.5885 14.5242 88.4555 14.9003C88.3178 15.2856 88.2483 15.6919 88.2502 16.1011C88.2474 16.5069 88.3169 16.9101 88.4555 17.2915C88.5873 17.6681 88.7893 18.0164 89.0507 18.3178C89.315 18.6321 89.6396 18.8903 90.0052 19.0773C90.4053 19.2701 90.8438 19.3702 91.288 19.3702C91.7322 19.3702 92.1707 19.2701 92.5709 19.0773C92.9307 18.8903 93.2458 18.6277 93.4945 18.3076C93.7318 17.9982 93.9156 17.6513 94.0385 17.2813C94.1623 16.8826 94.2246 16.4673 94.2232 16.0497V16.0497ZM98.9236 5.08899H101.5V21.2735H98.9236V5.08899ZM114 16.2653V16.6039C114.01 16.7166 114.01 16.8299 114 16.9426H106.19C106.213 17.3009 106.311 17.6505 106.477 17.9689C106.646 18.27 106.869 18.5378 107.134 18.7591C107.412 18.9812 107.724 19.1579 108.058 19.2825C108.386 19.4055 108.733 19.4715 109.084 19.4775C109.646 19.4934 110.203 19.37 110.705 19.1183C111.175 18.8882 111.575 18.5376 111.865 18.1023L113.579 19.4775C113.071 20.1582 112.402 20.7021 111.631 21.0603C110.861 21.4186 110.014 21.58 109.166 21.5301C108.413 21.5394 107.666 21.4107 106.959 21.1504C106.316 20.9275 105.722 20.5786 105.215 20.1241C104.713 19.6543 104.32 19.0797 104.065 18.441C103.776 17.724 103.633 16.9563 103.645 16.1832C103.636 15.4103 103.779 14.6433 104.065 13.9253C104.317 13.2775 104.702 12.6898 105.195 12.2001C105.689 11.7104 106.279 11.3297 106.929 11.0825C107.615 10.8121 108.346 10.6762 109.084 10.6823C109.761 10.6787 110.432 10.8004 111.065 11.0415C111.657 11.2641 112.193 11.6145 112.635 12.0677C113.094 12.5677 113.444 13.1586 113.661 13.8022C113.916 14.5973 114.031 15.4308 114 16.2653V16.2653ZM111.424 15.1056C111.427 14.7859 111.382 14.4676 111.29 14.1614C111.199 13.8704 111.049 13.6014 110.849 13.3711C110.638 13.1372 110.379 12.9517 110.09 12.8272C109.764 12.6922 109.416 12.6225 109.063 12.6219C108.346 12.6045 107.648 12.8531 107.103 13.3198C106.842 13.5423 106.628 13.8151 106.475 14.1219C106.322 14.4287 106.232 14.7632 106.21 15.1056H111.424Z" fill="black"/>
</g>
<defs>
<clipPath id="clip0">
<rect width="114" height="26.899" fill="white" transform="translate(0 0.655518)"/>
</clipPath>
</defs>
</svg>
