<svg width="113" height="27" viewBox="0 0 113 27" fill="none" xmlns="http://www.w3.org/2000/svg">
<g clip-path="url(#clip0)">
<path d="M8.83159 12.0627C7.38834 10.4658 6.39995 9.55637 4.95813 8.18435C4.49659 7.81835 4.24158 7.25054 4.2744 6.66196V4.30606C4.27207 4.14392 4.33537 3.98774 4.44988 3.87308C4.5644 3.75842 4.72038 3.69505 4.88232 3.69739H5.03394C5.34655 3.72255 5.58222 3.9925 5.56532 4.30606V8.10845H9.51532V4.30606C9.51532 1.49257 7.31253 0.503662 4.88232 0.503662C2.52791 0.579567 0.325126 1.56848 0.325126 4.38196V7.34797C0.30962 8.09234 0.493078 8.82733 0.856512 9.47688C1.92 11.1496 4.04626 12.6706 5.03394 13.8113C5.42065 14.2186 5.61416 14.7725 5.56532 15.3323V18.6019C5.48951 18.7537 5.48951 18.8303 5.33718 18.9062C5.27648 18.9647 5.19263 18.9926 5.10903 18.9822H4.95813C4.65577 18.9699 4.40275 18.7485 4.35021 18.4501V18.2983V13.7354H0.325126V18.2217C0.325126 21.0352 2.52791 22.0241 4.95813 22.0241C7.38834 22.0241 9.59113 20.9593 9.59113 18.0699V14.6477C9.74255 13.7151 9.46319 12.764 8.83159 12.0619" fill="black"/>
<path d="M32.9098 0.503662H29.3403V21.6438H32.9098V0.503662Z" fill="black"/>
<path d="M8.75786 12.0627C7.31461 10.4658 6.32622 9.55637 4.8844 8.18435C4.42286 7.81835 4.16785 7.25054 4.20067 6.66196V4.30606C4.19834 4.14392 4.26164 3.98774 4.37615 3.87308C4.49067 3.75842 4.64665 3.69505 4.80859 3.69739H4.96021C5.27282 3.72255 5.50849 3.9925 5.49159 4.30606V8.10845H9.44159V4.30606C9.44159 1.49257 7.2388 0.503662 4.80859 0.503662C2.45418 0.579567 0.251396 1.56848 0.251396 4.38196V7.34797C0.23589 8.09234 0.419348 8.82733 0.782782 9.47688C1.84627 11.1496 3.97253 12.6706 4.96021 13.8113C5.34692 14.2186 5.54043 14.7725 5.49159 15.3323V18.6019C5.41578 18.7537 5.41578 18.8303 5.26345 18.9062C5.20275 18.9647 5.1189 18.9926 5.0353 18.9822H4.8844C4.58204 18.9699 4.32902 18.7485 4.27648 18.4501V18.2983V13.7354H0.251396V18.2217C0.251396 21.0352 2.45418 22.0241 4.8844 22.0241C7.31461 22.0241 9.5174 20.9593 9.5174 18.0699V14.6477C9.66882 13.7151 9.38946 12.764 8.75786 12.0619" fill="black"/>
<path d="M18.9344 10.6204V8.33609C18.9344 5.8298 16.9598 4.53369 14.757 4.53369C12.4784 4.53369 10.5796 5.82622 10.5796 8.33609V17.996C10.5796 20.5023 12.4784 21.7984 14.757 21.7984C16.9598 21.7984 18.9344 20.5059 18.9344 17.996V14.952H15.3649V18.3741C15.3527 18.6768 15.1315 18.9302 14.8335 18.9828H14.7577C14.6169 18.98 14.4819 18.9261 14.378 18.831C14.2307 18.7265 14.1452 18.5555 14.1498 18.3748V7.95585C14.1498 7.61969 14.422 7.34718 14.7577 7.34718C15.0935 7.34718 15.3656 7.61969 15.3656 7.95585V10.692H18.9352L18.9344 10.6204Z" fill="black"/>
<path d="M25.8459 4.61039C24.7931 4.5804 23.8541 5.26911 23.5652 6.28316H23.4136V0.503662H19.8462V21.6438H23.4157V8.26026C23.4188 8.02088 23.5703 7.80869 23.7955 7.72821H23.9471C24.2732 7.75038 24.5329 8.01034 24.555 8.33688V21.7204H28.1245V8.25811C28.2003 6.35691 28.1245 4.60609 25.8459 4.60609" fill="black"/>
<path d="M38.8359 4.76233V18.07C38.8138 18.3965 38.5542 18.6565 38.228 18.6787H38.0764C38.0006 18.6787 38.0006 18.6787 37.9248 18.6028C37.6996 18.5223 37.5481 18.3101 37.545 18.0707V4.76233H33.9727V18.7546C33.9727 20.5032 34.6564 21.7965 36.4758 21.7965C37.6713 21.7846 38.66 20.8609 38.7544 19.6676H38.8359V21.5688H42.4055V4.76233H38.8359Z" fill="black"/>
<path d="M51.8959 6.35915C51.441 4.99071 50.8338 4.61047 49.6216 4.61047C48.1783 4.61047 47.7986 5.21914 47.1899 6.28324H47.1141V4.76228H43.5425V21.568H47.112V8.26249C47.112 7.92633 47.3842 7.65382 47.7199 7.65382C48.0556 7.65382 48.3278 7.92633 48.3278 8.26249V21.568H51.8973V8.3341C51.8973 7.99794 52.1695 7.72543 52.5052 7.72543C52.841 7.72543 53.1132 7.99794 53.1132 8.3341V21.6446H56.6827V7.72829C56.7578 6.43577 56.5296 4.61047 54.3275 4.61047C52.8843 4.61047 52.5045 5.21914 51.8959 6.35915Z" fill="black"/>
<path d="M63.7446 4.61039C62.7113 4.58622 61.7984 5.28014 61.544 6.28316H61.4681V0.503662H57.8965V21.6438H61.466V19.8952H61.544C61.721 20.9797 62.6493 21.7809 63.7467 21.7964C65.9495 21.7964 66.2499 19.8952 66.2499 17.994V8.26026C66.2499 6.35906 65.9459 4.60824 63.7467 4.60824L63.7446 4.61039ZM62.6811 9.70531V17.8414V18.0699C62.659 18.3964 62.3993 18.6564 62.0732 18.6785C61.9216 18.6785 61.845 18.6785 61.7692 18.6026C61.5842 18.4885 61.4697 18.2881 61.4653 18.0706V16.6248V8.26026C61.4653 7.9241 61.7375 7.65159 62.0732 7.65159C62.4089 7.65159 62.6811 7.9241 62.6811 8.26026V9.70531Z" fill="black"/>
<path d="M75.6683 8.41287C75.6683 5.90658 73.6937 4.61047 71.4909 4.61047C69.2123 4.61047 67.3135 5.903 67.3135 8.41287V17.994C67.3135 20.5003 69.2123 21.7964 71.4909 21.7964C73.6937 21.7964 75.6683 20.5039 75.6683 17.994V14.9521H72.0988V18.4502C72.0988 18.7863 71.8266 19.0589 71.4909 19.0589C71.1552 19.0589 70.883 18.7863 70.883 18.4502V18.1444V13.7355H75.6676L75.6683 8.41287ZM72.0988 11.2264H70.883V7.95672C70.8807 7.79459 70.944 7.63841 71.0585 7.52375C71.173 7.40909 71.329 7.34572 71.4909 7.34805C71.817 7.37022 72.0767 7.63019 72.0988 7.95672V8.18515V11.2264Z" fill="black"/>
<path d="M82.8831 4.61043C81.781 4.58763 80.7817 5.25544 80.3799 6.2832H80.3041V4.76224H76.7324V21.568H80.3019V8.26245C80.3051 8.02307 80.4565 7.81087 80.6817 7.7304H80.8333C81.1595 7.75256 81.4191 8.01253 81.4412 8.33907V13.8901H85.0107V7.57644C85.0866 5.75115 84.631 4.61043 82.8845 4.61043" fill="black"/>
<path d="M103.694 8.41287C103.694 5.90658 101.72 4.61047 99.5168 4.61047C97.2382 4.61047 95.3394 5.903 95.3394 8.41287V17.994C95.3394 20.5003 97.2382 21.7964 99.5168 21.7964C101.72 21.7964 103.694 20.5039 103.694 17.994V14.9521H100.125V17.0058V18.4509C100.125 18.7871 99.8525 19.0596 99.5168 19.0596C99.181 19.0596 98.9089 18.7871 98.9089 18.4509V17.0058V13.8121H103.693L103.694 8.41287ZM100.125 9.40106V11.2264H98.9089V9.40106V7.95672C98.9089 7.62056 99.181 7.34805 99.5168 7.34805C99.8525 7.34805 100.125 7.62056 100.125 7.95672V9.40106Z" fill="black"/>
<path d="M110.756 4.61043C109.654 4.58763 108.654 5.25544 108.252 6.2832H108.177V4.76224H104.605V21.568H108.174V8.26245C108.174 8.04499 108.29 7.84405 108.478 7.73532C108.667 7.62659 108.898 7.62659 109.086 7.73532C109.274 7.84405 109.39 8.04499 109.39 8.26245V13.8894H112.96V7.57644C113.036 5.75115 112.579 4.61043 110.756 4.61043Z" fill="black"/>
<path d="M90.7862 4.76228V6.35915H90.6346C90.2225 5.36033 89.2798 4.68239 88.2029 4.61047C86.608 4.61047 85.9243 5.97962 85.9243 7.65239V17.7663C85.9243 19.3632 86.5322 20.5798 88.2029 20.5798C89.2493 20.5489 90.1894 19.9316 90.6346 18.983H90.7862V23.0138C90.7862 23.3499 90.514 23.6224 90.1783 23.6224C89.8425 23.6224 89.5704 23.3499 89.5704 23.0138V21.568H86.0008V22.4803C86.0008 25.2179 87.7473 26.2827 90.1783 26.2827C92.6814 26.2827 94.3557 25.2179 94.3557 22.4803V4.76228H90.7862ZM90.7862 17.0789C90.7862 17.415 90.514 17.6876 90.1783 17.6876C89.8425 17.6876 89.5704 17.415 89.5704 17.0789V15.6381V8.26249C89.5704 7.92633 89.8425 7.65382 90.1783 7.65382C90.514 7.65382 90.7862 7.92633 90.7862 8.26249V15.6381V17.0789Z" fill="black"/>
</g>
<defs>
<clipPath id="clip0">
<rect width="113" height="26.462" fill="white" transform="translate(0 0.269043)"/>
</clipPath>
</defs>
</svg>
