<svg width="94" height="38" viewBox="0 0 94 38" fill="none" xmlns="http://www.w3.org/2000/svg">
<path d="M81.1674 2.33638C87.1612 2.33638 92.0461 7.22121 92.0461 13.215V24.3049C92.0461 30.2987 87.1612 35.1836 81.1674 35.1836H21.282C15.2882 35.1836 10.4034 30.2987 10.4034 24.3049V23.0111L9.21517 22.5094L2.50843 19.6049C2.00674 19.3937 1.95393 18.9448 1.95393 18.76C1.95393 18.5751 2.00674 18.1263 2.50843 17.915L9.21517 15.0105L10.4034 14.5089V13.215C10.4034 7.22121 15.2882 2.33638 21.282 2.33638H81.1674ZM81.1674 0.382446H21.282C14.1792 0.382446 8.44944 6.13863 8.44944 13.215L1.7427 16.1195C-0.580899 17.1229 -0.580899 20.3971 1.7427 21.4004L8.44944 24.3049C8.44944 31.4077 14.2056 37.1375 21.282 37.1375H81.1674C88.2702 37.1375 94 31.3813 94 24.3049V13.215C94 6.13863 88.2438 0.382446 81.1674 0.382446Z" fill="#595C5E"/>
<path d="M27.5928 18.7337C26.8534 18.1792 26.4046 17.9416 25.5596 17.5191L24.3714 16.9118C24.1338 16.7798 23.8697 16.5949 23.5529 16.3837L23.5265 16.3573C22.9192 15.882 22.6815 15.4067 22.6815 14.6938C22.6815 13.7168 23.4473 12.9247 24.3978 12.9247C25.3484 12.9247 25.9557 13.268 26.5366 14.1657C26.6158 14.2713 26.7214 14.3505 26.8534 14.3769C26.9855 14.4034 27.1175 14.3769 27.2231 14.2977L28.1473 13.6904C28.3585 13.5584 28.4377 13.2416 28.3057 13.0303C27.4343 11.4989 26.2197 10.8387 24.3978 10.8387C23.3416 10.8387 22.4439 11.2084 21.6518 12.0005C20.886 12.7663 20.49 13.7168 20.49 14.8786C20.49 16.0668 20.8596 16.9382 21.6782 17.6511C22.4439 18.3112 23.0512 18.6809 24.2922 19.2354C26.0877 20.0803 27.1175 20.8196 27.1175 22.1135C27.1175 22.8 26.9327 23.4073 26.563 23.8562C26.0877 24.4107 25.4276 24.7011 24.5827 24.7011C23.104 24.7011 22.1798 23.8826 21.5461 21.9286C21.4933 21.7702 21.3877 21.6646 21.2557 21.6118C21.1237 21.559 20.9652 21.5854 20.8332 21.6646L19.8298 22.2719C19.645 22.3775 19.5394 22.6151 19.5922 22.8264C19.8827 23.9618 20.4636 24.8859 21.2821 25.5989C22.2063 26.391 23.3152 26.7871 24.5827 26.7871C26.0085 26.7871 27.1967 26.2854 28.0945 25.3084C28.913 24.4371 29.3091 23.3545 29.3091 22.0871C29.2034 20.5556 28.7018 19.5522 27.5928 18.7337Z" fill="#595C5E"/>
<path d="M43.6994 15.0898C42.168 15.0898 40.9798 15.8028 40.1612 17.2022C39.7388 15.8556 38.6562 15.0898 37.1775 15.0898C35.7517 15.0898 34.6427 15.7236 33.877 16.9646V15.7764C33.877 15.5123 33.6657 15.2747 33.3753 15.2747H32.2927C32.0287 15.2747 31.791 15.4859 31.791 15.7764V26.0477C31.791 26.3118 32.0023 26.5494 32.2927 26.5494H33.3753C33.6393 26.5494 33.877 26.3382 33.877 26.0477V21.9022C33.877 19.0241 35.0388 17.0174 36.6758 17.0174C37.7848 17.0174 38.3129 17.6775 38.3129 19.0505V26.0477C38.3129 26.3118 38.5242 26.5494 38.8146 26.5494H39.8972C40.1612 26.5494 40.3989 26.3382 40.3989 26.0477V21.9022C40.3989 19.0241 41.5607 17.0174 43.1978 17.0174C44.3067 17.0174 44.8348 17.6775 44.8348 19.0505V26.0477C44.8348 26.3118 45.0461 26.5494 45.3365 26.5494H46.4191C46.6832 26.5494 46.9208 26.3382 46.9208 26.0477V18.6545C46.9208 16.3837 45.759 15.0898 43.6994 15.0898Z" fill="#595C5E"/>
<path d="M51.3042 10.8122C50.512 10.8914 49.9575 11.5251 49.9575 12.3172C49.9575 13.1622 50.5912 13.7959 51.4626 13.7959C52.3075 13.7959 52.9412 13.1886 52.9676 12.3701C52.9676 11.9476 52.8092 11.5251 52.4659 11.2083C52.1491 10.9178 51.7266 10.7594 51.3042 10.8122Z" fill="#595C5E"/>
<path d="M51.9905 15.2745H50.9079C50.6439 15.2745 50.4062 15.4858 50.4062 15.7762V26.0476C50.4062 26.3116 50.6175 26.5493 50.9079 26.5493H51.9905C52.2546 26.5493 52.4922 26.338 52.4922 26.0476V15.7762C52.4922 15.4858 52.2546 15.2745 51.9905 15.2745Z" fill="#595C5E"/>
<path d="M57.43 10.8123H56.3474C56.0833 10.8123 55.8457 11.0235 55.8457 11.3139V26.0477C55.8457 26.3117 56.0569 26.5493 56.3474 26.5493H57.43C57.694 26.5493 57.9317 26.3381 57.9317 26.0477V11.3139C57.9053 11.0235 57.694 10.8123 57.43 10.8123Z" fill="#595C5E"/>
<path d="M65.6151 15.0898C63.9517 15.0898 62.7107 15.6443 61.8129 16.8061C60.9416 17.9151 60.4927 19.3146 60.4927 20.8988C60.4927 22.5095 60.9151 23.8561 61.8129 25.0179C62.7107 26.1269 63.9781 26.7078 65.6151 26.7078C67.8067 26.7078 69.2062 25.8893 70.2359 23.9354C70.2887 23.8033 70.3151 23.6713 70.2623 23.5393C70.2095 23.4073 70.1303 23.3016 69.9983 23.2488L69.0741 22.8528C68.8365 22.7471 68.546 22.8528 68.4404 23.0904C67.8331 24.305 66.9882 24.8067 65.6416 24.8067C63.9253 24.8067 62.8163 23.5393 62.6578 21.4269H70.2359C70.5 21.4269 70.7376 21.2157 70.7376 20.9252V20.45C70.7376 18.9449 70.2887 17.7039 69.3646 16.6741C68.4668 15.6179 67.1994 15.0898 65.6151 15.0898ZM62.7635 19.4994C63.1595 17.8887 64.1629 16.991 65.6151 16.991C67.0938 16.991 68.1236 17.8887 68.5196 19.4994H62.7635Z" fill="#595C5E"/>
<path d="M81.8802 16.6741C80.9825 15.6179 79.7414 15.0898 78.1308 15.0898C76.4673 15.0898 75.2263 15.6443 74.3285 16.8061C73.4572 17.9151 73.0083 19.3146 73.0083 20.8988C73.0083 22.5095 73.4308 23.8561 74.3285 25.0179C75.2263 26.1269 76.4937 26.7078 78.1308 26.7078C80.3223 26.7078 81.7218 25.8893 82.7516 23.9354C82.8044 23.8033 82.8308 23.6713 82.778 23.5393C82.7252 23.4073 82.6459 23.3016 82.5139 23.2488L81.5898 22.8528C81.3521 22.7471 81.0617 22.8528 80.9561 23.0904C80.3488 24.305 79.5038 24.8067 78.1572 24.8067C76.4409 24.8067 75.3319 23.5393 75.1735 21.4269H82.7516C83.0156 21.4269 83.2532 21.2157 83.2532 20.9252V20.45C83.2532 18.9449 82.8044 17.7039 81.8802 16.6741ZM81.0617 19.4994H75.3055C75.7016 17.8887 76.7049 16.991 78.1572 16.991C79.6358 16.991 80.6656 17.8887 81.0617 19.4994Z" fill="#595C5E"/>
</svg>
