<svg width="122" height="22" viewBox="0 0 122 22" fill="none" xmlns="http://www.w3.org/2000/svg">
<g clip-path="url(#clip0)">
<path fill-rule="evenodd" clip-rule="evenodd" d="M15.7399 9.15433C15.6542 9.06869 15.606 8.95248 15.606 8.83131C15.606 8.71013 15.6542 8.59392 15.7399 8.50828L19.0875 5.15883C19.2662 4.98019 19.5558 4.98019 19.7345 5.15883L26.4981 11.9224C26.9913 12.4347 26.9868 13.2466 26.4879 13.7534L19.545 20.6972C19.4594 20.7833 19.343 20.8319 19.2215 20.8321H12.5198C12.3313 20.8322 12.1622 20.7164 12.094 20.5406C12.0259 20.3648 12.0728 20.1652 12.2121 20.0382L19.094 13.1526C19.1793 13.0673 19.2273 12.9516 19.2273 12.831C19.2273 12.7103 19.1793 12.5946 19.094 12.5093L15.739 9.15433H15.7399ZM11.1261 12.513C11.2118 12.5987 11.26 12.7149 11.26 12.836C11.26 12.9572 11.2118 13.0734 11.1261 13.1591L7.77847 16.5085C7.59981 16.6872 7.31016 16.6872 7.1315 16.5085L0.366045 9.74492C-0.126289 9.23251 -0.121373 8.42133 0.377136 7.91492L7.32097 0.969238C7.40688 0.883609 7.52316 0.835433 7.64445 0.835223H14.3452C14.5337 0.835178 14.7029 0.950998 14.771 1.12677C14.8392 1.30254 14.7923 1.50212 14.653 1.62915L7.77108 8.51475C7.68598 8.60026 7.63786 8.71576 7.63706 8.83639C7.63706 8.95377 7.68327 9.07115 7.77108 9.15895L11.1261 12.5139V12.513ZM34.8551 12.6655C35.5492 13.2977 36.6232 13.6766 37.6537 13.6766C38.3922 13.6766 38.9596 13.318 38.9596 12.8134C38.9596 11.2773 34.0131 11.8235 34.0131 8.53878C34.0131 6.58124 35.9078 5.36031 37.9291 5.36031C39.2554 5.36031 40.7074 5.8668 41.3812 6.39177L40.0974 8.36965C39.5706 7.99256 38.8774 7.67647 38.138 7.67647C37.381 7.67647 36.7489 7.97222 36.7489 8.49904C36.7489 9.82256 41.6972 9.29666 41.6972 12.8356C41.6972 14.7922 39.7813 15.9928 37.6343 15.9928C36.223 15.9928 34.7275 15.5076 33.5279 14.6249L34.8551 12.6655ZM46.0116 12.2025C46.5772 13.0009 47.4972 13.4726 48.4756 13.4659C50.0117 13.4659 51.1707 12.2866 51.1707 10.6867C51.1707 9.21256 50.1393 7.88812 48.5385 7.88812C47.5442 7.8849 46.607 8.35246 46.0116 9.14878V12.2025ZM43.2759 5.57196H45.9072V6.39177C46.7066 5.73925 47.739 5.36031 48.8962 5.36031C51.6763 5.36031 53.9074 7.67647 53.9074 10.6867C53.9074 12.0768 53.4231 13.3393 52.6227 14.2663C51.717 15.319 50.2659 15.9928 48.7492 15.9928C47.7178 15.9928 46.8333 15.697 46.0116 15.0658V20.8349H43.2759V5.57196ZM62.0592 9.36043C61.9742 8.45468 61.1535 7.57018 60.0379 7.57018C58.9011 7.57018 57.9741 8.43434 57.8475 9.36043H62.0592ZM64.6074 14.16C63.6175 15.3394 61.9964 15.9928 60.4169 15.9928C57.3641 15.9928 55.0692 13.8874 55.0692 10.6858C55.0692 7.84468 57.0055 5.36031 60.0379 5.36031C62.8596 5.36031 64.8597 7.74024 64.8597 10.5823C64.8597 10.8549 64.8384 11.1294 64.7959 11.3605H57.7227C57.8696 12.7931 59.0259 13.7811 60.4797 13.7811C61.6378 13.7811 62.5639 13.1304 63.0491 12.6036L64.6074 14.16ZM66.4392 15.7821V5.57196H69.0715V6.39177C69.8825 5.72077 70.9034 5.35574 71.956 5.36031C73.3655 5.36031 74.6511 5.99157 75.4931 7.00269C76.1659 7.80124 76.5449 8.83269 76.5449 10.5823V15.7821H73.8091V10.3716C73.8091 9.36043 73.5781 8.83362 73.1973 8.45468C72.8396 8.09699 72.2924 7.88812 71.6612 7.88812C70.5031 7.88812 69.5548 8.62289 69.1759 9.14878V15.7821H66.4392ZM85.9176 9.14878C85.3224 8.35222 84.3851 7.88461 83.3907 7.88812C81.79 7.88812 80.7594 9.21256 80.7594 10.6858C80.7594 12.2857 81.9166 13.4659 83.4536 13.4659C84.4321 13.4731 85.3523 13.0013 85.9176 12.2025V9.14878ZM86.0221 15.7821V14.9613C85.1792 15.6776 84.2124 15.9928 83.18 15.9928C81.6643 15.9928 80.2326 15.3181 79.3278 14.2663C78.4781 13.2675 78.0147 11.9971 78.0218 10.6858C78.0218 7.67647 80.2529 5.36031 83.0331 5.36031C84.1486 5.36031 85.1163 5.6764 85.9167 6.30674V0.833374H88.6543V15.7821H86.0221ZM97.2793 9.36043C97.1952 8.45468 96.3736 7.57018 95.258 7.57018C94.1212 7.57018 93.1942 8.43434 93.0685 9.36043H97.2793ZM99.8256 14.16C98.8367 15.3394 97.2156 15.9928 95.637 15.9928C92.5842 15.9928 90.2893 13.8874 90.2893 10.6858C90.2893 7.84468 92.2256 5.36031 95.258 5.36031C98.0788 5.36031 100.079 7.74024 100.079 10.5823C100.079 10.8549 100.059 11.1294 100.017 11.3605H92.9428C93.0888 12.7931 94.2469 13.7811 95.6998 13.7811C96.8579 13.7811 97.7849 13.1304 98.2692 12.6036L99.8256 14.16ZM102.645 12.6655C103.34 13.2977 104.414 13.6766 105.446 13.6766C106.183 13.6766 106.751 13.318 106.751 12.8134C106.751 11.2773 101.803 11.8235 101.803 8.53878C101.803 6.58124 103.697 5.36031 105.719 5.36031C107.045 5.36031 108.499 5.8668 109.172 6.39177L107.888 8.36965C107.362 7.99256 106.667 7.67647 105.929 7.67647C105.171 7.67647 104.539 7.97222 104.539 8.49904C104.539 9.82256 109.488 9.29666 109.488 12.8356C109.488 14.7922 107.572 15.9928 105.425 15.9928C104.013 15.9928 102.519 15.5076 101.319 14.6249L102.645 12.6655ZM115.969 10.1608L121.592 15.7821H117.907L113.59 11.3605V15.7821H110.854V0.833374H113.59V8.87613L117.106 5.57196H120.96L115.969 10.1608Z" fill="#6000D7"/>
</g>
<defs>
<clipPath id="clip0">
<rect width="122" height="20.3333" fill="white" transform="translate(0 0.833374)"/>
</clipPath>
</defs>
</svg>
