<svg width="122" height="28" viewBox="0 0 122 28" fill="none" xmlns="http://www.w3.org/2000/svg">
<g clip-path="url(#clip0)">
<path d="M2.77975 21.0215C1.62152 20.7126 0.694937 20.288 0 19.8247L0.810759 18.0101C1.11962 17.2766 1.96899 16.9291 2.70253 17.2766C3.05 17.431 3.43608 17.5468 3.82215 17.7012C4.74873 17.9715 5.67532 18.1259 6.56329 18.1259C8.37785 18.1259 9.26582 17.6626 9.26582 16.6975C9.26582 16.2342 9.03418 15.9253 8.53228 15.7323C8.03038 15.5392 7.29684 15.3848 6.25443 15.2304C5.0576 15.0373 4.0538 14.8057 3.28165 14.574C2.50949 14.3038 1.81456 13.8791 1.23544 13.2228C0.656329 12.5664 0.386076 11.7943 0.386076 10.5975C0.386076 9.59365 0.656329 8.70568 1.19684 7.97213C1.73734 7.19998 2.50949 6.62087 3.5519 6.19618C4.5943 5.7715 5.79114 5.53986 7.18101 5.53986C8.22342 5.53986 9.26582 5.65568 10.2696 5.88732C11.312 6.11897 12.1614 6.46644 12.8177 6.89112L11.9684 8.70568C11.6595 9.43922 10.8487 9.74808 10.1538 9.47783C9.18861 9.09175 8.22342 8.89872 7.1424 8.89872C6.21582 8.89872 5.55949 9.05315 5.0962 9.3234C4.63291 9.59365 4.40127 9.94112 4.40127 10.3658C4.40127 10.8677 4.63291 11.1766 5.13481 11.3696C5.63671 11.5626 6.40886 11.7557 7.48987 11.9101C8.68671 12.1418 9.6519 12.2576 10.4241 12.4892C11.1962 12.7209 11.8525 13.1842 12.4316 13.8019C13.0108 14.4582 13.281 15.3462 13.281 16.5044C13.281 17.4696 13.0108 18.3576 12.4703 19.0911C11.9297 19.8633 11.119 20.4424 10.0766 20.8671C9.03418 21.2918 7.79873 21.4848 6.37025 21.4848C5.13481 21.5234 3.93797 21.369 2.77975 21.0215Z" fill="#012F51"/>
<path d="M31.4272 6.9683C32.2765 6.62083 33.2803 6.4278 34.4 6.4278V9.36197C34.4 9.90248 33.9753 10.2886 33.4348 10.2886C32.1993 10.2886 31.2727 10.636 30.5778 11.2924C29.8829 11.9873 29.5354 12.9911 29.5354 14.3424V21.2531H25.2886V6.58223H29.3424V8.51261C29.8443 7.85628 30.5392 7.31577 31.4272 6.9683Z" fill="#012F51"/>
<path d="M38.2602 20.5583C37.0248 19.9019 36.0596 19.014 35.4032 17.8557C34.7469 16.6975 34.3608 15.4235 34.3608 13.9564C34.3608 12.4893 34.7083 11.2152 35.4032 10.057C36.0982 8.89878 37.0634 8.0108 38.2602 7.35447C39.4956 6.69814 40.8855 6.38928 42.4298 6.38928C43.9741 6.38928 45.364 6.69814 46.5608 7.35447C47.7963 8.0108 48.7229 8.89878 49.4178 10.057C50.1127 11.2152 50.4602 12.4893 50.4602 13.9564C50.4602 15.4235 50.1127 16.6975 49.4178 17.8557C48.7229 19.014 47.7577 19.9019 46.5608 20.5583C45.3254 21.2146 43.9741 21.5235 42.4298 21.5235C40.8855 21.5235 39.4956 21.176 38.2602 20.5583ZM45.1324 16.9292C45.8273 16.1956 46.1748 15.1918 46.1748 13.9564C46.1748 12.7209 45.8273 11.7171 45.1324 10.9836C44.4374 10.25 43.5494 9.86397 42.4298 9.86397C41.3488 9.86397 40.4222 10.25 39.7273 10.9836C39.0324 11.7171 38.6463 12.7209 38.6463 13.9564C38.6463 15.1918 38.9938 16.1956 39.7273 16.9292C40.4222 17.6627 41.3488 18.0488 42.4298 18.0488C43.5108 18.0102 44.3988 17.6627 45.1324 16.9292Z" fill="#012F51"/>
<path d="M64.9764 8.04944C66.096 9.13046 66.6365 10.752 66.6365 12.914V19.8634C66.6365 20.6741 65.9802 21.2918 65.208 21.2918H62.3897V13.5703C62.3897 12.4121 62.1194 11.5241 61.6175 10.9836C61.1156 10.4045 60.3821 10.1343 59.4169 10.1343C58.3358 10.1343 57.4865 10.4817 56.8688 11.1381C56.251 11.7944 55.9036 12.7982 55.9036 14.1108V21.3691H51.6567V6.69818H55.7105V8.39691C56.2896 7.77919 56.9846 7.3159 57.7953 6.96843C58.6061 6.62096 59.5327 6.46653 60.5365 6.46653C62.3897 6.42792 63.8567 6.96843 64.9764 8.04944Z" fill="#012F51"/>
<path d="M84.1644 6.62084V18.8208C84.1644 21.5234 83.4695 23.4924 82.0796 24.805C80.6897 26.1177 78.6435 26.774 75.941 26.774C74.5125 26.774 73.1612 26.6196 71.9258 26.2721C70.6518 25.9246 69.6093 25.4227 68.76 24.7664L69.7252 23.0291C70.1112 22.3341 70.9606 22.1025 71.6556 22.45C72.003 22.643 72.3891 22.7974 72.8138 22.9132C73.7404 23.2221 74.7055 23.3765 75.6321 23.3765C77.0992 23.3765 78.1802 23.0291 78.8752 22.3727C79.5701 21.7164 79.9176 20.7126 79.9176 19.3613V18.7436C78.798 19.9791 77.2536 20.5582 75.2847 20.5582C73.9334 20.5582 72.698 20.2493 71.5783 19.6702C70.4587 19.0911 69.5707 18.2417 68.9144 17.1607C68.2581 16.0797 67.9492 14.8443 67.9492 13.4544C67.9492 12.0645 68.2581 10.8291 68.9144 9.74805C69.5707 8.66704 70.4587 7.85628 71.5783 7.23856C72.698 6.65945 73.9334 6.35059 75.2847 6.35059C77.4081 6.35059 79.0296 7.04552 80.1492 8.4354V6.54362H84.1644V6.62084ZM78.8752 16.1183C79.6087 15.462 79.9562 14.574 79.9562 13.5316C79.9562 12.4506 79.6087 11.6012 78.8752 10.9449C78.1416 10.2886 77.2537 9.94109 76.0954 9.94109C74.9758 9.94109 74.0492 10.2886 73.3157 10.9449C72.5821 11.6012 72.2347 12.4892 72.2347 13.5316C72.2347 14.6126 72.5821 15.462 73.3157 16.1183C74.0492 16.7746 74.9758 17.1221 76.0954 17.1221C77.2537 17.0835 78.1802 16.7746 78.8752 16.1183Z" fill="#012F51"/>
<path d="M22.2377 18.126C21.6586 18.126 21.1953 17.9715 20.8864 17.6241C20.5776 17.2766 20.4231 16.8133 20.4231 16.1956V10.0184H22.6238C23.4345 10.0184 24.0522 9.36205 24.0522 8.58989V6.77534H20.4231V3.37787H16.1763V6.73673H13.8984V10.0184H16.1763V16.2728C16.1763 18.0101 16.6396 19.3228 17.6048 20.2108C18.57 21.0988 19.9212 21.562 21.6586 21.562C22.3149 21.562 22.9712 21.4848 23.5889 21.3304C23.7434 21.2918 23.9364 21.2532 24.0908 21.176V17.6627C23.5889 17.9329 22.8168 18.126 22.2377 18.126Z" fill="#012F51"/>
<path d="M120.378 8.08797C119.297 7.00696 117.83 6.46645 115.977 6.46645C114.664 6.46645 113.506 6.73671 112.502 7.27721C111.653 7.7405 110.996 8.31962 110.456 9.09177C109.993 8.31962 109.414 7.7019 108.641 7.27721C107.715 6.73671 106.634 6.46645 105.398 6.46645C104.202 6.46645 103.121 6.6981 102.155 7.2C101.576 7.50886 101.036 7.89493 100.611 8.39683V2.06519C100.611 1.37025 100.032 0.791138 99.337 0.791138H98.0629V8.58987C97.561 8.01076 96.9433 7.54747 96.287 7.2C95.3218 6.6981 94.2408 6.46645 93.0439 6.46645C91.6927 6.46645 90.4186 6.77531 89.299 7.39304C88.1794 8.01076 87.2914 8.89873 86.6737 10.057C86.056 11.1766 85.7085 12.4892 85.7085 13.9177C85.7085 15.3462 86.0174 16.6589 86.6737 17.7785C87.2914 18.8981 88.1794 19.8247 89.299 20.4424C90.4186 21.0601 91.6927 21.4076 93.0439 21.4076C94.2794 21.4076 95.399 21.1373 96.3642 20.6354C97.0205 20.288 97.5996 19.8247 98.1015 19.2456V20.9443L98.1401 21.2918H100.65V13.5702C100.65 12.0646 101.036 10.9063 101.846 10.057C102.619 9.20759 103.661 8.82152 105.051 8.82152C106.248 8.82152 107.174 9.16899 107.831 9.86392C108.487 10.5589 108.796 11.6013 108.796 12.9911V21.2918H111.344V13.5702C111.344 12.0646 111.73 10.9063 112.502 10.057C113.274 9.20759 114.317 8.82152 115.707 8.82152C116.903 8.82152 117.791 9.16899 118.448 9.86392C119.104 10.5589 119.413 11.6013 119.413 12.9911V21.2918H120.533C121.305 21.2918 121.961 20.6354 121.961 19.8633V12.7981C122 10.7519 121.459 9.16898 120.378 8.08797ZM93.237 19.0911C92.3104 19.0911 91.461 18.8595 90.7275 18.4348C89.9939 18.0101 89.4148 17.3924 88.9901 16.6203C88.5655 15.8481 88.3338 14.9215 88.3338 13.9177C88.3338 12.9139 88.5655 11.9873 88.9901 11.2152C89.4148 10.443 89.9939 9.82531 90.7275 9.40063C91.461 8.97595 92.3104 8.7443 93.237 8.7443C94.1636 8.7443 94.9743 8.97595 95.7465 9.40063C96.48 9.82531 97.0591 10.443 97.4838 11.2152C97.9085 11.9873 98.1401 12.9139 98.1401 13.9177C98.1401 14.9215 97.9085 15.8481 97.4838 16.6203C97.0591 17.3924 96.48 18.0101 95.7465 18.4348C95.0129 18.8595 94.1636 19.0911 93.237 19.0911Z" fill="#00B7FF"/>
</g>
<defs>
<clipPath id="clip0">
<rect width="122" height="26.2532" fill="white" transform="translate(0 0.791138)"/>
</clipPath>
</defs>
</svg>
