<svg width="63" height="63" viewBox="0 0 63 63" fill="none" xmlns="http://www.w3.org/2000/svg">
<path d="M63 0H0V63H63V0Z" fill="#000099"/>
<path d="M19.4124 15.0958C16.6508 15.0958 14.806 16.2868 14.1765 17.9276V20.7287C14.6591 22.0031 15.9686 22.6744 18.7829 23.2885C19.7064 23.4947 20.3491 23.6483 20.7088 23.7273C21.2572 23.8852 21.731 24.1309 21.924 24.5476V25.4448C21.6542 26.0524 20.8272 26.3748 19.7305 26.3748C18.9988 26.3905 18.2721 26.2507 17.5984 25.9646C16.9557 25.708 16.1858 25.1947 15.236 24.4292L13.3101 26.5854C15.3895 28.4345 17.1619 29.0772 19.6537 29.0772C22.4921 29.0772 24.4312 27.941 25.0585 26.1379C25.0585 25.6992 25.0585 23.8282 25.0585 23.3522C24.5255 21.9351 23.0493 21.2288 20.1802 20.5927C19.2545 20.3865 18.614 20.233 18.2542 20.1299C17.7146 19.9763 17.3483 19.7789 17.1992 19.4718V18.7195C17.4383 18.1448 18.2257 17.7938 19.3313 17.7938C20.7439 17.7938 21.72 18.1272 23.262 19.3293L25.0585 17.1357C23.2511 15.6354 21.6739 15.0958 19.4124 15.0958ZM45.875 15.5345V23.4465C45.875 25.2188 44.8485 26.1686 43.1792 26.1686C41.7402 26.1686 40.9857 25.3461 40.9857 23.9751V15.5323H37.6559V24.9074C37.6559 27.4497 39.1914 29.075 42.3062 29.075C44.1794 29.075 45.4648 28.406 46.158 27.2764V28.6649H49.2135V15.5323L45.875 15.5345ZM28.6098 33.9337C26.8872 33.9337 25.5769 34.5757 24.6791 35.8596C23.9618 34.6268 22.7049 33.9337 21.0334 33.9337C19.3115 33.9337 18.0546 34.5764 17.2825 35.8355V34.3702H14.1765V47.494H17.515V39.4284C17.515 37.893 18.3617 36.8072 19.827 36.8072C21.2133 36.8072 21.9065 37.6561 21.9065 39.3254V47.4918H25.245V39.4284C25.245 37.893 26.0917 36.8072 27.557 36.8072C29.0222 36.8072 29.6364 37.7592 29.6364 39.3254V47.4918H32.9749V38.3229C32.9749 35.6271 31.3824 33.9315 28.6098 33.9315V33.9337ZM49.6983 38.154C48.731 35.5569 46.3664 33.9337 43.37 33.9337C40.3737 33.9337 37.9827 35.5569 37.0088 38.154V43.6839C37.9784 46.2832 40.3474 47.9064 43.37 47.9064C46.3927 47.9064 48.731 46.2832 49.6983 43.6839V38.154ZM40.253 38.9876C40.7729 37.6034 41.8894 36.7589 43.37 36.7589C44.8506 36.7589 45.9408 37.6034 46.4607 38.9876C46.4607 39.6851 46.4607 42.2164 46.4607 42.8788C45.9408 44.263 44.8309 45.0724 43.3722 45.0724C41.9135 45.0724 40.7773 44.2542 40.2552 42.8788L40.253 38.9876Z" fill="white"/>
</svg>
