<svg width="132" height="52" viewBox="0 0 132 52" fill="none" xmlns="http://www.w3.org/2000/svg">
<path fill-rule="evenodd" clip-rule="evenodd" d="M71.343 21.0008C70.4459 20.6804 69.0387 20.2972 67.8879 20.2972C66.5436 20.2972 65.5209 20.6176 65.5209 21.8338C65.5209 24.6481 72.8783 22.9206 72.8783 28.8068C72.8783 32.7745 69.6795 34.3098 66.0322 34.3098C64.3688 34.3098 62.7053 34.0534 61.17 33.6049L61.4263 30.1511C61.4263 30.1511 63.7933 30.9828 65.84 30.9828C67.2484 30.9828 68.3993 30.5343 68.3993 29.3194C68.3993 26.2475 61.0419 28.2313 61.0419 22.4092C61.0419 18.7619 64.1125 17.2907 67.5034 17.2907C69.4873 17.2907 71.1507 17.6752 72.1106 17.9943L71.3417 21.0008H71.343ZM57.97 21.0008C57.0101 20.6804 55.667 20.2972 54.5149 20.2972C53.1718 20.2972 52.1479 20.6176 52.1479 21.8338C52.1479 24.6481 59.5066 22.9206 59.5066 28.8068C59.5066 32.7745 56.2424 34.3098 52.6592 34.3098C50.9958 34.3098 49.3323 34.0534 47.7329 33.6049L48.0533 30.1511C48.0533 30.1511 50.4844 30.9828 52.4683 30.9828C53.8113 30.9828 55.0275 30.5343 55.0275 29.3194C55.0275 26.2475 47.6688 28.2313 47.6688 22.4092C47.6688 18.7619 50.8048 17.2907 54.1317 17.2907C56.1143 17.2907 57.779 17.6752 58.8017 17.9943L57.97 21.0008V21.0008ZM125.664 17.0985C128.863 17.0985 130.719 18.826 130.719 22.6015V33.9253H126.496V23.4332C126.496 21.7057 125.983 20.6176 124.193 20.6176C122.401 20.6176 120.801 22.217 120.801 25.0326V33.9266H116.642V23.4332C116.642 21.8338 116.129 20.6176 114.339 20.6176C112.419 20.6176 110.948 22.3452 110.948 25.2248V33.9266H106.661V17.4817C109.477 17.1613 110.564 18.3134 110.628 20.105C111.653 18.2493 113.443 17.0972 115.746 17.0972C118.69 17.0972 119.906 18.7607 120.289 20.296C121.058 18.6325 122.849 17.0972 125.664 17.0972V17.0985ZM39.0312 17.4189C38.1354 22.2811 35.7683 30.023 34.233 33.8612H29.754L26.6193 22.8565H26.5553L23.4193 33.8625H18.9415C17.5331 30.023 14.9098 22.0889 14.1421 17.4189H18.3648L21.1804 28.7427H21.2445L24.5714 17.4189H28.7941L32.057 28.6799H32.121L34.9366 17.4189H39.0312V17.4189ZM11.5829 21.0008C10.6871 20.6804 9.27991 20.2972 8.1278 20.2972C6.78473 20.2972 5.82485 20.6176 5.82485 21.8338C5.82485 24.6481 13.1182 22.9206 13.1182 28.8068C13.1182 32.7745 9.91941 34.3098 6.27211 34.3098C4.60865 34.3098 2.94519 34.0534 1.40989 33.6049L1.6662 30.1511C1.6662 30.1511 4.09731 30.9828 6.07987 30.9828C7.4883 30.9828 8.63914 30.5343 8.63914 29.3194C8.63914 26.2462 1.28174 28.2313 1.28174 22.4092C1.28174 18.7619 4.35234 17.2907 7.74461 17.2907C9.72718 17.2907 11.3906 17.6752 12.3505 17.9943L11.5829 21.0008ZM96.1039 34.2457C91.4339 34.2457 88.1711 31.6864 88.1711 25.9284C88.1711 20.8099 91.6248 17.0985 96.6165 17.0985C101.286 17.0985 104.293 19.7218 104.293 25.2876C104.293 30.6625 101.03 34.2457 96.1039 34.2457ZM96.2961 20.7458C94.3763 20.7458 92.5847 22.1529 92.5847 25.8002C92.5847 28.9349 93.7368 30.6625 96.232 30.6625C98.344 30.6625 99.9434 28.9349 99.9434 25.608C99.9434 22.4092 98.7913 20.7458 96.2961 20.7458ZM40.9509 33.9253H45.1737V17.483C43.1898 17.2907 40.9509 17.8033 40.9509 20.938V33.9253ZM43.2539 15.371C44.7264 15.371 45.9413 14.2188 45.9413 12.7476C45.9413 11.3405 44.7264 10.1884 43.2539 10.1884C41.8467 10.1884 40.6306 11.2764 40.6306 12.7476C40.6306 14.2188 41.8467 15.371 43.2539 15.371ZM82.6681 34.1816C77.8046 34.1816 74.6058 31.7505 74.6058 25.9284C74.6058 21.0008 77.3573 17.1626 83.3716 17.1626C84.6506 17.1626 86.3141 17.4189 87.4021 17.8674L86.5063 21.3212C85.5464 21.0008 84.5866 20.7445 83.4998 20.7445C80.4279 20.7445 79.1489 22.7284 79.1489 25.8002C79.1489 28.7427 80.2998 30.6625 83.3076 30.6625C84.7147 30.6625 85.6746 30.3421 86.6345 29.9589L87.1471 33.3499C86.25 33.7984 84.5238 34.1829 82.6681 34.1829V34.1816Z" fill="#001155"/>
</svg>
