<svg width="90" height="26" viewBox="0 0 90 26" fill="none" xmlns="http://www.w3.org/2000/svg">
<path d="M3.13673 14.782C3.36532 16.7504 5.4861 18.1981 8.17835 18.1981C10.7563 18.1981 12.4453 16.7504 12.4453 14.9852C12.4453 13.4359 11.3151 12.4834 8.68633 11.8485L6.03217 11.2389C2.28588 10.3499 0.533371 8.62283 0.533371 5.82898C0.533371 2.38747 3.6193 0 7.97517 0C12.2802 0 15.2519 2.38747 15.3281 5.82898H12.2548C12.0897 3.83519 10.2737 2.50176 7.81007 2.50176C5.34641 2.50176 3.79709 3.86059 3.79709 5.62579C3.79709 7.03542 4.87653 7.78468 7.50529 8.43234L9.74037 8.95301C13.9311 9.91816 15.6836 11.8358 15.6836 14.5788C15.6836 18.3251 12.6231 20.6872 7.78468 20.6872C3.26372 20.6872 0.203189 18.3886 0 14.782H3.13673Z" fill="black"/>
<path d="M30.9471 6.20972L22.7687 25.5127H19.7082L22.1084 20.1282L16.0127 6.20972H19.4034L23.645 16.9152L27.8612 6.20972H30.9471Z" fill="black"/>
<path d="M35.165 20.357H32.1426V6.21H35.0507V7.87361C36.0667 6.76877 37.5144 6.07031 39.6606 6.07031C44.245 6.07031 44.8165 9.32133 44.8165 11.6199V20.357H41.7941V12.5343C41.7941 12.1406 41.7941 11.6707 41.7687 11.1754C41.5655 9.48643 41.0067 8.26729 38.9621 8.26729C35.6476 8.26729 35.165 11.3786 35.165 13.3216V20.357Z" fill="black"/>
<path d="M64.9307 3.59414H61.6162V0.787598H64.9307V3.59414ZM64.791 20.3572H61.7686V6.2102H64.791V20.3572Z" fill="black"/>
<path d="M69.5928 13.9312V14.0201C69.5928 15.8742 70.5325 18.6807 73.6057 18.6807C75.4979 18.6807 76.4885 17.5124 76.8314 16.2425L76.8568 16.1028H79.7649L79.7141 16.3187C79.1426 18.6554 77.2504 20.6745 73.4279 20.6745C67.8021 20.6745 66.5576 16.433 66.5576 13.4867C66.5576 10.5786 67.8529 5.99414 73.5168 5.99414C79.2569 5.99414 79.9427 10.985 79.9427 13.728V13.9185H69.5928V13.9312ZM76.9203 11.9501C76.8695 10.3119 76.0948 8.01333 73.4914 8.01333C70.8881 8.01333 69.8975 10.2865 69.6689 11.9501H76.9203Z" fill="black"/>
<path d="M84.9326 20.357H81.9102V6.20998H84.7929V8.10218C85.6691 7.04814 86.9772 6.13379 88.9202 6.13379C89.225 6.13379 89.517 6.15919 89.7964 6.22268L89.9996 6.24808V8.91494L89.6567 8.85144C89.2885 8.76255 88.8948 8.73715 88.5265 8.73715C85.3898 8.73715 84.9326 11.15 84.9326 13.0422V20.357Z" fill="black"/>
<path d="M60.0677 15.6584V15.8234C59.7248 18.9983 57.1595 20.6619 53.8704 20.6619C49.1335 20.6619 46.7969 17.4871 46.7969 13.4487C46.7969 9.3341 49.0828 5.85449 54.0101 5.85449C57.3373 5.85449 59.5978 7.4546 59.9915 10.5786L60.0169 10.7437H57.0579V10.6294C56.8547 9.02932 55.8134 8.02607 54.0101 8.02607C50.9115 8.02607 49.9209 10.731 49.9209 13.3344C49.9209 15.7981 50.9876 18.5284 53.8958 18.5284C55.7499 18.5284 56.8801 17.4236 57.1087 15.76V15.6457H60.0677V15.6584Z" fill="black"/>
</svg>
