<svg width="145" height="19" viewBox="0 0 145 19" fill="none" xmlns="http://www.w3.org/2000/svg">
<path d="M0 12.7046C0.457129 13.8932 1.18854 14.9903 2.13327 15.9655C3.078 16.9102 4.20559 17.6416 5.39412 18.0988L8.56355 14.9293C7.19216 14.8684 5.88172 14.2894 4.84557 13.2532C3.80941 12.217 3.26085 10.8761 3.16943 9.53522L0 12.7046Z" fill="#703CCA"/>
<path d="M17.7667 12.7046C17.3095 13.8932 16.5781 14.9903 15.6334 15.9655C14.6887 16.9102 13.5611 17.6416 12.3726 18.0988L9.20312 14.9293C10.5745 14.8684 11.8849 14.2894 12.9211 13.2532C13.9573 12.217 14.5058 10.8761 14.5972 9.53522L17.7667 12.7046Z" fill="#703CCA"/>
<path d="M12.3726 0.30127C13.5611 0.758398 14.6582 1.4898 15.6334 2.43454C16.5781 3.37927 17.3095 4.50686 17.7667 5.69539L14.5972 8.89529C14.5363 7.52391 13.9573 6.21347 12.9211 5.17731C11.8849 4.14115 10.544 3.5926 9.20312 3.50117L9.7212 2.98309L12.3726 0.30127Z" fill="#703CCA"/>
<path d="M5.39412 0.30127C4.20559 0.758398 3.10848 1.4898 2.13327 2.43454C1.18854 3.37927 0.457129 4.50686 0 5.69539L3.16943 8.89529C3.23038 7.52391 3.80941 6.21347 4.84557 5.17731C5.88172 4.14115 7.22264 3.5926 8.56355 3.50117L5.39412 0.30127Z" fill="#703CCA"/>
<path d="M52.3868 5.40677C53.2401 5.28486 54.063 5.07154 54.8858 5.04106C56.8667 4.98011 58.4819 5.65057 59.579 7.41813C59.9752 8.05811 60.219 8.78952 60.219 9.5514C60.2494 10.8314 60.2799 12.1418 60.219 13.4218C60.0971 16.0122 58.2076 17.8102 55.5258 17.993C53.6363 18.1149 51.8078 17.8102 50.0097 17.2007C49.705 17.1093 49.644 16.8959 49.644 16.6217C49.644 15.6465 49.644 14.6712 49.644 13.696C49.644 9.58188 49.644 5.43724 49.644 1.32308C49.644 0.62215 49.6745 0.591675 50.345 0.591675C50.8631 0.591675 51.3811 0.591675 51.9297 0.591675C52.2954 0.591675 52.4173 0.744051 52.4173 1.10975C52.4173 2.42019 52.4173 3.7611 52.4173 5.07154C52.3868 5.19344 52.3868 5.34581 52.3868 5.40677ZM52.3868 11.6542C52.3868 12.6904 52.3868 13.757 52.3868 14.7931C52.3868 15.1284 52.4782 15.2807 52.783 15.3112C53.6058 15.3722 54.4287 15.5246 55.221 15.4941C56.5315 15.4027 57.2324 14.7322 57.3543 13.4218C57.4457 12.1418 57.4457 10.8009 57.3543 9.52093C57.2933 8.63714 56.8057 7.93621 55.8915 7.69241C54.7639 7.35718 53.6668 7.47908 52.6306 8.02764C52.5087 8.08859 52.3868 8.33239 52.3868 8.48477C52.3868 9.52093 52.3868 10.5876 52.3868 11.6542Z" fill="#323232"/>
<path d="M99.6843 5.40675C100.751 5.07152 101.787 4.98009 102.854 5.04104C105.475 5.19342 107.273 6.86956 107.425 9.49043C107.547 11.7761 107.486 14.0617 107.516 16.3474C107.516 16.6521 107.516 16.9569 107.516 17.2921C107.516 17.5968 107.395 17.7492 107.059 17.7492C106.45 17.7188 105.871 17.7188 105.261 17.7492C104.835 17.7492 104.713 17.5664 104.713 17.2007C104.713 15.0065 104.713 12.8427 104.713 10.6485C104.713 10.2828 104.682 9.88661 104.621 9.52091C104.438 8.36285 103.829 7.75334 102.671 7.60096C101.787 7.47906 100.934 7.57049 100.05 7.81429C99.7452 7.90572 99.6538 8.05809 99.6538 8.39332C99.6538 11.2885 99.6538 14.1836 99.6538 17.0788C99.6538 17.7492 99.6233 17.7797 98.9529 17.7797C98.5262 17.7797 98.0691 17.7797 97.6425 17.7797C96.8501 17.7797 96.8501 17.7797 96.8501 17.0178C96.8501 13.8789 96.8501 10.7094 96.8501 7.57049C96.8501 5.4677 96.8501 3.33443 96.8501 1.23164C96.8501 0.683082 96.911 0.622131 97.4596 0.622131C98.0082 0.622131 98.5262 0.622131 99.0748 0.622131C99.5624 0.622131 99.6538 0.713557 99.6538 1.20116C99.6538 2.45065 99.6538 3.70013 99.6538 4.94962C99.6843 5.04104 99.6843 5.19342 99.6843 5.40675Z" fill="#323232"/>
<path d="M137.108 10.039C138.357 8.66762 139.577 7.41813 140.704 6.1077C141.222 5.49819 141.649 5.34582 142.563 5.31534C142.99 5.28486 143.63 5.28486 144.148 5.28486C144.696 5.31534 144.453 5.68104 144.361 5.80294C143.02 7.23528 141.679 8.66762 140.338 10.0695C140.186 10.2219 140.034 10.4047 139.851 10.5876C140.338 11.2275 140.826 11.8675 141.314 12.5075C142.472 14.0313 143.66 15.5246 144.818 17.0483C145.032 17.3226 145.184 17.6578 144.514 17.6883C143.813 17.6883 143.081 17.6883 142.38 17.6883C142.045 17.6883 141.832 17.5664 141.618 17.3226C140.521 15.8598 139.394 14.397 138.266 12.9342C138.175 12.8123 138.083 12.6904 137.961 12.5685C137.718 12.8123 137.474 13.0256 137.26 13.2999C137.169 13.3913 137.138 13.5741 137.138 13.7265C137.138 14.8541 137.138 15.9817 137.138 17.1397C137.138 17.6578 137.078 17.7188 136.559 17.7492C136.011 17.7492 135.493 17.7492 134.944 17.7492C134.396 17.7492 134.365 17.7188 134.365 17.1397C134.365 15.7684 134.365 14.4274 134.365 13.0561C134.365 9.12475 134.365 5.19344 134.365 1.26213C134.365 0.62215 134.396 0.591675 135.036 0.591675C135.554 0.591675 136.072 0.591675 136.559 0.591675C137.078 0.591675 137.138 0.683101 137.138 1.20118C137.138 3.97443 137.138 6.7172 137.138 9.49045C137.108 9.61235 137.108 9.76473 137.108 10.039Z" fill="#323232"/>
<path d="M82.6796 5.34581C82.8929 3.06016 84.4776 1.26212 86.7023 0.652619C89.3232 -0.0787875 91.7612 0.347866 94.0773 1.7802C94.5039 2.05448 94.5344 2.14591 94.2297 2.60304C93.9249 3.06016 93.6202 3.48682 93.3154 3.94395C93.1326 4.21822 92.9192 4.27917 92.645 4.09632C91.7612 3.51729 90.7555 3.18207 89.6889 3.09064C88.5003 2.99921 87.3727 3.15159 86.428 4.0049C85.7576 4.6144 85.4833 5.40676 85.4833 6.29054C85.4528 8.21048 85.4528 10.1609 85.4833 12.0808C85.5137 13.9398 86.7632 15.1893 88.6527 15.3112C90.2069 15.4026 91.6698 15.0674 92.9802 14.2141C93.4373 13.9094 93.4678 13.9094 93.7725 14.397C94.0773 14.8541 94.4125 15.3112 94.7173 15.7683C94.8697 15.9817 94.9001 16.195 94.6563 16.3779C92.3402 18.2978 87.8603 18.633 85.2699 17.1093C83.5024 16.0731 82.71 14.4579 82.5881 12.4465C82.5272 11.3799 82.5881 10.2828 82.5881 9.21617C82.6186 9.15522 82.5576 6.59529 82.6796 5.34581Z" fill="#323232"/>
<path d="M72.5002 12.6903C72.3478 14.336 72.9878 15.3416 74.3592 15.494C75.0601 15.555 75.7915 15.5245 76.462 15.3721C77.102 15.2197 77.681 14.8845 78.26 14.5493C78.5953 14.3664 78.7781 14.3664 78.9915 14.7017C79.2657 15.0978 79.54 15.4635 79.8143 15.8292C79.9667 16.0426 79.9667 16.2254 79.7229 16.4083C77.4982 18.0539 75.0601 18.5111 72.4697 17.5663C70.7936 16.9568 69.7879 15.6769 69.6965 13.8484C69.6051 12.3246 69.6051 10.8008 69.6965 9.30754C69.8794 7.08285 71.3117 5.58956 73.5059 5.19338C74.8773 4.94958 76.2182 4.98005 77.4982 5.58956C79.1743 6.38192 79.9667 7.72283 80.0581 9.52087C80.119 10.4047 80.0581 11.3189 80.0886 12.2027C80.0886 12.6293 79.9362 12.7512 79.54 12.7512C77.3458 12.7512 75.182 12.7512 72.9878 12.7512C72.8659 12.6903 72.6831 12.6903 72.5002 12.6903ZM77.4067 10.4961C77.4677 9.39897 77.4067 8.33233 76.3401 7.78378C75.3344 7.2657 74.2678 7.2657 73.3231 7.93616C72.4698 8.54566 72.5002 9.52087 72.5002 10.4961C74.1459 10.4961 75.7611 10.4961 77.4067 10.4961Z" fill="#323232"/>
<path d="M112.849 12.6903C112.606 14.5798 113.672 15.6769 115.501 15.555C116.628 15.4941 117.634 15.1893 118.548 14.5493C118.884 14.336 119.097 14.3665 119.31 14.7017C119.554 15.0674 119.859 15.4331 120.133 15.7988C120.285 16.0121 120.316 16.195 120.072 16.3778C117.817 18.054 115.348 18.5111 112.697 17.5054C111.051 16.8654 110.107 15.5855 110.015 13.8179C109.954 12.3246 109.924 10.8009 110.015 9.30758C110.198 7.08288 111.6 5.5896 113.794 5.16294C115.166 4.88867 116.506 4.94962 117.786 5.52865C119.463 6.29053 120.255 7.66191 120.377 9.45995C120.438 10.3437 120.407 11.258 120.407 12.1418C120.407 12.6294 120.346 12.6903 119.828 12.6903C117.634 12.6903 115.47 12.6903 113.276 12.6903C113.185 12.6903 113.032 12.6903 112.849 12.6903ZM117.695 10.4961C117.878 9.2771 117.543 8.30189 116.75 7.84476C115.775 7.29621 114.739 7.26574 113.764 7.87524C112.788 8.48475 112.819 9.49043 112.819 10.4961C114.465 10.4961 116.08 10.4961 117.695 10.4961Z" fill="#323232"/>
<path d="M43.9455 10.3438C43.976 9.64282 43.976 9.00284 43.6712 8.42381C43.3665 7.81431 42.757 7.5705 42.117 7.54003C40.898 7.4486 39.7399 7.60098 38.6733 8.18001C38.3076 8.36286 38.0943 8.33238 37.8809 7.96668C37.6676 7.5705 37.3933 7.2048 37.1495 6.8391C36.9362 6.53434 36.9667 6.35149 37.3019 6.16864C38.7647 5.28486 40.3799 5.01058 42.0865 5.07153C43.2141 5.10201 44.2808 5.34581 45.195 6.04674C46.2007 6.80862 46.6578 7.87526 46.7188 9.09427C46.8102 10.7704 46.7797 12.4465 46.7797 14.1227C46.7797 15.0065 46.7797 15.8902 46.7797 16.774C46.7797 17.0788 46.6883 17.3226 46.3531 17.414C44.1588 17.993 41.9646 18.3283 39.7095 17.8711C38.4905 17.6273 37.3933 17.1093 36.7534 15.9207C35.5648 13.696 36.6924 11.2275 39.1304 10.5571C40.5018 10.1609 41.8732 10.1914 43.2751 10.3438C43.4579 10.3133 43.6712 10.3133 43.9455 10.3438ZM43.9455 12.5989C43.6103 12.5684 43.336 12.5075 43.0617 12.477C42.0865 12.4161 41.0808 12.2942 40.1056 12.5989C39.4657 12.8122 39.1304 13.2694 39.1 13.8789C39.0695 14.5493 39.3438 15.0065 39.9837 15.2807C41.2942 15.8293 42.6046 15.555 43.915 15.3112C43.9455 14.397 43.9455 13.5132 43.9455 12.5989Z" fill="#323232"/>
<path d="M29.2865 3.24298C28.1589 3.24298 25.0504 3.24298 24.5628 3.24298C24.258 3.24298 24.0752 3.12108 24.0752 2.78585C24.0752 2.17635 24.0752 1.59732 24.0752 0.987811C24.0752 0.683058 24.2276 0.561157 24.5323 0.561157C24.6237 0.561157 24.7457 0.561157 24.8371 0.561157C28.7684 0.561157 32.7302 0.561157 36.6615 0.561157C37.3319 0.561157 37.3624 0.591633 37.3624 1.26209C37.3624 1.71922 37.3624 2.17635 37.3624 2.63347C37.3624 3.18203 37.3015 3.24298 36.7529 3.24298C35.412 3.24298 34.0711 3.24298 32.6997 3.24298C32.5473 3.24298 32.3949 3.24298 32.1511 3.24298C32.1511 3.45631 32.1511 3.63916 32.1511 3.79153C32.1511 8.17997 32.1511 12.5684 32.1511 16.9873C32.1511 17.7187 32.1511 17.7187 31.4197 17.7187C30.8407 17.7187 30.2921 17.7187 29.7131 17.7187C29.4084 17.7187 29.256 17.5968 29.2865 17.2921C29.2865 17.1702 29.2865 17.0483 29.2865 16.8959C29.2865 12.5379 29.2865 8.1495 29.2865 3.79153C29.2865 3.66963 29.2865 3.48678 29.2865 3.24298Z" fill="#323232"/>
<path d="M122.724 8.6676C123.12 6.71718 124.461 5.58959 126.35 5.19342C128.209 4.79724 130.007 5.07152 131.683 6.04672C132.14 6.321 132.14 6.41243 131.866 6.83908C131.683 7.14383 131.47 7.41811 131.287 7.72286C130.891 8.36284 130.891 8.33237 130.22 8.02761C129.459 7.66191 128.666 7.47906 127.813 7.50954C126.228 7.57049 125.436 8.39332 125.405 9.94756C125.405 11.0142 125.375 12.1113 125.405 13.1779C125.436 14.5798 126.228 15.3722 127.6 15.4636C128.697 15.555 129.672 15.2807 130.586 14.7017C130.952 14.4579 131.196 14.5188 131.409 14.8845C131.653 15.2807 131.958 15.6769 132.232 16.0731C132.415 16.3169 132.384 16.4997 132.11 16.6826C129.946 18.1149 127.63 18.3892 125.223 17.414C123.485 16.7131 122.693 15.2807 122.571 13.4522C122.541 12.7818 122.571 12.0808 122.571 11.4104C122.571 11.1666 122.541 9.58185 122.724 8.6676Z" fill="#323232"/>
<path d="M62.7485 7.50952C62.7485 5.37625 62.7485 3.24298 62.7485 1.14019C62.7485 0.652583 62.8095 0.561157 63.2971 0.561157C63.8456 0.561157 64.3942 0.561157 64.9428 0.561157C65.4304 0.561157 65.5218 0.652583 65.5218 1.14019C65.5218 2.81633 65.5218 4.49247 65.5218 6.16861C65.5218 8.6371 65.5218 11.1361 65.5523 13.6046C65.5523 13.8179 65.5827 14.0617 65.6437 14.275C65.8265 15.0979 66.2227 15.4331 67.076 15.4636C67.3808 15.4636 67.6855 15.4636 67.9598 15.4331C68.2341 15.4331 68.3865 15.555 68.3865 15.8293C68.3865 16.4083 68.4169 16.9568 68.356 17.5359C68.356 17.6883 68.1731 17.9321 68.0512 17.9321C67.1065 18.0235 66.1313 18.1149 65.1866 17.7492C63.7237 17.2006 63.0838 16.0121 62.84 14.5798C62.7485 14.0007 62.7485 13.4217 62.7485 12.8427C62.7485 11.0751 62.7485 9.30756 62.7485 7.50952Z" fill="#323232"/>
</svg>
