<svg width="56" height="58" viewBox="0 0 56 58" fill="none" xmlns="http://www.w3.org/2000/svg">
<g clip-path="url(#clip0)">
<path d="M51.9862 20.6984L43.0519 13.1818V6.2394L51.9862 13.756V20.6984ZM51.9862 33.4584L36.3262 46.6929C34.1234 44.3085 31.0418 42.961 27.7785 42.961C24.5915 42.961 21.5919 44.244 19.4008 46.5172L4.0454 33.599V25.4848L14.7842 16.4099L26.8412 26.0648C27.509 26.6038 28.4581 26.6038 29.1319 26.0648L41.1888 16.404L51.9862 25.4907V33.4584ZM27.9836 53.7408L22.2129 48.884C23.6951 47.437 25.6812 46.6226 27.7785 46.6226C29.9638 46.6226 32.026 47.5073 33.5199 49.0657L27.9836 53.7408ZM4.0454 13.6154L12.9212 6.22768V13.1818L4.0454 20.6867V13.6154ZM16.5828 4.15374L26.1498 4.13616V20.8156L16.5828 13.1525V4.15374ZM29.8173 4.13616H39.3844V13.1525L29.8173 20.8156V4.13616ZM55.5072 12.1917C55.4896 12.1449 55.4662 12.0921 55.4369 12.0511C55.4135 11.9984 55.3842 11.9515 55.349 11.9046C55.308 11.8402 55.2612 11.7758 55.2084 11.7172C55.1967 11.6996 55.185 11.6879 55.1733 11.6762C55.1206 11.6176 55.062 11.559 54.9975 11.5063L54.9682 11.477L42.4133 0.913942L42.3957 0.902224C42.3137 0.831921 42.2258 0.773335 42.1321 0.720608C42.0911 0.691315 42.0442 0.667881 41.9915 0.644447C41.9387 0.615154 41.8801 0.591719 41.8216 0.574144C41.7806 0.556568 41.7395 0.544851 41.6927 0.533133C41.6458 0.521416 41.5931 0.509699 41.5404 0.497982C41.4935 0.492123 41.4466 0.480406 41.4056 0.480406C41.347 0.474548 41.2826 0.468689 41.2181 0.468689L27.9836 0.474548L14.749 0.492123C14.6846 0.492123 14.626 0.497982 14.5616 0.50384C14.5147 0.50384 14.4737 0.509699 14.4327 0.521416C14.3799 0.527275 14.3272 0.538992 14.2745 0.556568C14.2276 0.568285 14.1808 0.580002 14.1339 0.603436C13.9288 0.673739 13.7414 0.779194 13.5773 0.913942L1.05753 11.3305L1.03995 11.3481C0.852475 11.5004 0.70601 11.6879 0.594697 11.8929C0.565404 11.9398 0.54197 11.9925 0.524394 12.0453C0.424798 12.2679 0.37793 12.5139 0.37793 12.76V34.4485C0.37793 34.9933 0.618132 35.503 1.03409 35.8545L26.806 57.5372C27.1458 57.8242 27.5618 57.9707 27.9836 57.9707C28.4054 57.9707 28.8272 57.8242 29.167 57.5372L55.0034 35.7081C55.4135 35.3624 55.6537 34.8469 55.6537 34.3079V12.9065C55.6537 12.6604 55.6068 12.4202 55.5072 12.1917Z" fill="#E23C52"/>
</g>
<defs>
<clipPath id="clip0">
<rect width="55.68" height="58" fill="white" transform="translate(0.160156)"/>
</clipPath>
</defs>
</svg>
