<svg width="50" height="64" viewBox="0 0 50 64" fill="none" xmlns="http://www.w3.org/2000/svg">
<g clip-path="url(#clip0)">
<path d="M42.105 59.8623V63.7375H43.3477V61.1574H47.8708V63.7375H49.1127V59.869L42.105 59.8623Z" fill="#E82127"/>
<path d="M43.2089 58.6088H47.9876C48.6513 58.4768 49.1449 57.8911 49.2841 57.3245H41.9126C42.0504 57.8913 42.5512 58.4768 43.2089 58.6088Z" fill="#E82127"/>
<path d="M38.3413 63.74C38.9679 63.4744 39.305 63.0149 39.4341 62.4773H33.8602L33.8637 57.3276L32.6143 57.3312V63.74H38.3413" fill="#E82127"/>
<path d="M23.323 58.5916H27.7362C28.4015 58.3983 28.9602 57.8915 29.0964 57.3296H22.0859V61.1169H27.8237V62.446L23.323 62.4495C22.6177 62.6462 22.0195 63.1198 21.7212 63.7453L22.0859 63.7386H29.0566V59.8577H23.323V58.5916" fill="#E82127"/>
<path d="M12.4274 58.6037H17.2044C17.8691 58.4712 18.363 57.886 18.5015 57.3188H11.1304C11.268 57.886 11.7692 58.4712 12.4274 58.6037" fill="#E82127"/>
<path d="M12.4269 61.1366H17.204C17.8686 61.0056 18.3625 60.4198 18.501 59.8523H11.1299C11.2675 60.42 11.7687 61.0056 12.4269 61.1366" fill="#E82127"/>
<path d="M12.4269 63.7396H17.204C17.8686 63.6075 18.3625 63.0219 18.501 62.4551H11.1299C11.2675 63.0221 11.7687 63.6075 12.4269 63.7396" fill="#E82127"/>
<path d="M0 57.3356C0.143606 57.8957 0.628541 58.4682 1.29387 58.6116H3.30471L3.40728 58.6521V63.7263H4.66295V58.6521L4.77702 58.6116H6.78963C7.46238 58.4383 7.93688 57.8957 8.07801 57.3356V57.3232H0V57.3356Z" fill="#E82127"/>
<path d="M24.6448 44.6563L30.9189 9.37039C36.8993 9.37039 38.7856 10.0262 39.058 12.7029C39.058 12.7029 43.0697 11.207 45.0931 8.16902C37.1973 4.51025 29.2638 4.34524 29.2638 4.34524L24.6344 9.98372L24.6448 9.98302L20.0155 4.34436C20.0155 4.34436 12.0818 4.50954 4.18701 8.16831C6.20864 11.2063 10.222 12.7022 10.222 12.7022C10.4959 10.0253 12.38 9.36951 18.3202 9.36526L24.6448 44.6563" fill="#E82127"/>
<path d="M24.642 2.71649C31.0247 2.66768 38.3304 3.70387 45.8092 6.96347C46.8088 5.16433 47.0658 4.36919 47.0658 4.36919C38.8903 1.1347 31.2341 0.0277662 24.6411 0C18.0485 0.0277662 10.3927 1.13488 2.21826 4.36919C2.21826 4.36919 2.58294 5.34862 3.47393 6.96347C10.9513 3.70387 18.2583 2.66768 24.6411 2.71649H24.642Z" fill="#E82127"/>
</g>
<defs>
<clipPath id="clip0">
<rect width="49.2843" height="63.7453" fill="white"/>
</clipPath>
</defs>
</svg>
