<svg width="147" height="20" viewBox="0 0 147 20" fill="none" xmlns="http://www.w3.org/2000/svg">
<g clip-path="url(#clip0)">
<path d="M135.458 12.0144C136.928 11.1977 138.67 10.1089 140.086 8.31219C138.67 6.56997 136.71 5.53553 135.294 4.71886C138.779 3.95664 141.828 7.38664 141.828 7.38664L142.644 8.31219L141.828 9.23775C138.67 12.6677 135.458 12.0144 135.458 12.0144Z" fill="#FB7C32"/>
<path d="M134.097 10C134.999 10 135.73 9.26874 135.73 8.36667C135.73 7.46461 134.999 6.73334 134.097 6.73334C133.195 6.73334 132.463 7.46461 132.463 8.36667C132.463 9.26874 133.195 10 134.097 10Z" fill="#32515B"/>
<path d="M136.383 15.4445C130.34 15.4445 126.311 9.18336 126.093 8.91113L125.712 8.31224L126.093 7.71336C126.256 7.44113 130.285 1.28891 136.329 1.28891C139.922 1.28891 143.297 3.41224 146.455 7.65891L146.945 8.31224L146.455 8.96558C143.352 13.2667 139.922 15.4445 136.383 15.4445ZM128.434 8.31224C129.523 9.7278 132.517 13.2122 136.383 13.2122C138.996 13.2122 141.664 11.5789 144.223 8.31224C141.664 5.10002 138.996 3.46669 136.383 3.46669C132.517 3.46669 129.523 6.89669 128.434 8.31224Z" fill="#FB7C32"/>
<path d="M131.756 15.4445C125.876 15.2811 122.065 9.07447 121.901 8.80224L121.575 8.20335L121.956 7.60447C122.119 7.33224 125.876 1.45224 131.701 1.23447C127.182 3.3578 123.97 8.31224 123.97 8.31224C123.97 8.31224 126.692 12.8311 131.756 15.4445Z" fill="#FB7C32"/>
<path d="M115.368 12.7767C115.64 12.7767 116.402 13.3211 117.382 13.3211C118.253 13.3211 118.634 12.9945 118.634 12.3956C118.634 10.5989 114.605 11.6333 114.605 7.98557C114.605 5.97113 116.021 4.66446 118.362 4.66446C119.015 4.66446 121.357 4.82779 121.357 5.97113C121.357 6.24335 120.867 7.49557 120.485 7.49557C120.268 7.49557 119.669 7.06002 118.743 7.06002C118.035 7.06002 117.654 7.27779 117.654 7.82224C117.654 9.29224 121.683 8.53001 121.683 12.1778C121.683 14.3011 120.159 15.7167 117.872 15.7167C116.075 15.7167 114.333 15.2267 114.333 14.2467C114.279 13.92 114.932 12.7767 115.368 12.7767Z" fill="#FB7C32"/>
<path d="M85.3145 2.10558C85.3145 1.56113 85.5322 1.28891 86.1311 1.28891H93.5356C93.9711 1.28891 94.1345 1.61558 94.1345 2.32335V2.92224C94.1345 3.63002 93.9711 3.95669 93.5356 3.95669H88.4178V6.89669H92.9911C93.4267 6.89669 93.59 7.22335 93.59 7.93113V8.58447C93.59 9.29224 93.4267 9.61891 92.9911 9.61891H88.4178V12.94H93.59C94.0256 12.94 94.1889 13.2667 94.1889 13.9745V14.6278C94.1889 15.3356 94.0256 15.6622 93.59 15.6622H86.1311C85.5867 15.6622 85.3145 15.4445 85.3145 14.8456V2.10558Z" fill="#FB7C32"/>
<path d="M94.8425 5.6989C94.7881 5.53557 94.7881 5.42668 94.7881 5.31779C94.7881 5.04557 95.1692 4.88223 96.0403 4.88223H96.6936C97.2925 4.88223 97.7281 4.99112 97.837 5.31779L99.0347 9.07445C99.1981 9.56445 99.4159 10.6533 99.5792 11.5245H99.6336C99.797 10.6533 100.069 9.51001 100.178 9.07445L101.376 5.31779C101.485 4.99112 101.92 4.88223 102.519 4.88223H103.009C103.88 4.88223 104.207 5.04557 104.207 5.31779C104.207 5.42668 104.207 5.53557 104.153 5.6989L99.4703 19.3645C99.3614 19.6911 98.9259 19.8 98.327 19.8H98.0003C97.1836 19.8 96.7481 19.6367 96.7481 19.3645C96.7481 19.2556 96.7481 19.1467 96.8025 18.9833L98.1092 15.5533L94.8425 5.6989Z" fill="#FB7C32"/>
<path d="M109.324 4.77335C112.537 4.77335 113.734 7.22335 113.734 10.0545C113.734 10.3811 112.972 11.2522 112.7 11.2522H107.528C107.691 12.8856 108.562 13.3756 109.869 13.3756C111.175 13.3756 112.047 12.7222 112.319 12.7222C112.754 12.7222 113.353 13.8656 113.353 14.2467C113.353 15.2811 110.849 15.7167 109.705 15.7167C106.003 15.7167 104.424 13.5933 104.424 10.2722C104.424 6.29779 106.439 4.77335 109.324 4.77335ZM110.794 9.18335C110.794 7.98557 110.359 7.11446 109.324 7.11446C108.453 7.11446 107.745 7.60446 107.473 9.18335H110.794Z" fill="#FB7C32"/>
<path d="M73.7173 10.2178C73.7173 6.89668 75.2417 4.7189 78.0184 4.7189C78.9984 4.7189 79.6517 5.04557 80.0873 5.37223V0.853346C80.0873 0.41779 80.4684 0.200012 81.2851 0.200012H81.8295C82.7006 0.200012 83.0273 0.41779 83.0273 0.853346V12.0145C83.0273 14.1378 83.2451 14.5189 83.2451 14.9545C83.2451 15.4445 81.4484 15.6078 80.9584 15.6078C80.3051 15.6078 80.2506 14.7367 80.1417 14.1922C79.6517 15.0633 78.6717 15.7167 77.4195 15.7167C75.2962 15.7711 73.7173 13.8111 73.7173 10.2178ZM80.0328 12.0689V7.49557C79.7062 7.33223 79.2162 7.11446 78.6173 7.11446C77.3106 7.11446 76.7117 8.1489 76.7117 10.2178C76.7117 12.1778 77.2562 13.2667 78.3451 13.2667C79.1617 13.2667 79.7062 12.7222 80.0328 12.0689Z" fill="#32515B"/>
<path d="M63.5913 8.53001C63.5913 6.51557 63.3735 6.08001 63.3735 5.64446C63.3735 5.15446 65.1702 4.99112 65.6602 4.99112C66.3135 4.99112 66.368 5.80779 66.4769 6.29779C67.0758 5.53557 68.2191 4.77335 69.5258 4.77335C71.5402 4.77335 72.5202 5.80779 72.5202 8.09446V15.0089C72.5202 15.4445 72.1391 15.6622 71.268 15.6622H70.7235C69.8524 15.6622 69.5258 15.4445 69.5258 15.0089V8.53001C69.5258 7.71335 69.1991 7.27779 68.2735 7.27779C67.4569 7.27779 66.9124 7.98557 66.6402 8.47557V15.0089C66.6402 15.4445 66.2591 15.6622 65.4424 15.6622H64.898C64.0269 15.6622 63.7002 15.4445 63.7002 15.0089L63.5913 8.53001Z" fill="#32515B"/>
<path d="M58.3644 8.96557V8.31223C58.3644 7.55001 57.8744 7.1689 56.7855 7.1689C55.3155 7.1689 54.4444 7.82224 54.1722 7.82224C53.7366 7.82224 53.1377 6.62446 53.1377 6.1889C53.1377 5.48112 54.771 4.77335 57.0033 4.77335C60.2155 4.77335 61.3588 6.1889 61.3588 8.20335V12.0689C61.3588 14.1922 61.5766 14.5733 61.5766 15.0089C61.5766 15.4989 59.7799 15.6622 59.2899 15.6622C58.6366 15.6622 58.5822 14.7911 58.4733 14.2467C58.3099 14.5189 57.3844 15.7711 55.4788 15.7711C53.301 15.7711 52.4844 14.4645 52.4844 12.7767C52.5388 11.0889 53.1922 8.96557 58.3644 8.96557ZM56.5133 13.3756C57.2755 13.3756 58.0377 12.8311 58.3644 12.0689V10.9256C56.4588 10.9256 55.5333 11.47 55.5333 12.45C55.5333 12.9945 55.8599 13.3756 56.5133 13.3756Z" fill="#32515B"/>
<path d="M44.971 12.7767C45.2432 12.7767 46.0054 13.3211 46.9854 13.3211C47.8565 13.3211 48.2376 12.9945 48.2376 12.3956C48.2376 10.5989 44.2087 11.6333 44.2087 7.98557C44.2087 5.97113 45.6243 4.66446 47.9654 4.66446C48.6187 4.66446 50.9599 4.82779 50.9599 5.97113C50.9599 6.24335 50.4699 7.49557 50.0887 7.49557C49.871 7.49557 49.2721 7.06002 48.3465 7.06002C47.6387 7.06002 47.2576 7.27779 47.2576 7.82224C47.2576 9.29224 51.2865 8.53001 51.2865 12.1778C51.2865 14.3011 49.7621 15.7167 47.4754 15.7167C45.6787 15.7167 43.9365 15.2267 43.9365 14.2467C43.9365 13.92 44.5899 12.7767 44.971 12.7767Z" fill="#32515B"/>
<path d="M33.592 5.53557C33.592 5.10001 33.9732 4.88223 34.7898 4.88223H35.3343C36.2054 4.88223 36.532 5.10001 36.532 5.53557V12.0145C36.532 12.8311 36.8587 13.2667 37.7298 13.2667C38.5465 13.2667 39.0909 12.5589 39.3632 12.0689V5.53557C39.3632 5.10001 39.7443 4.88223 40.5609 4.88223H41.1054C41.9765 4.88223 42.3032 5.10001 42.3032 5.53557V12.0145C42.3032 14.1378 42.5754 14.5189 42.5754 14.9545C42.5754 15.4445 40.7787 15.6078 40.2887 15.6078C39.6354 15.6078 39.5809 14.7367 39.472 14.1922C38.8732 14.9545 37.7298 15.7167 36.4232 15.7167C34.4087 15.7167 33.4287 14.6822 33.4287 12.3956V5.53557H33.592Z" fill="#32515B"/>
<path d="M27.0042 4.77335C30.2165 4.77335 31.9042 6.73335 31.9042 10.2722C31.9042 13.8111 30.2165 15.7711 27.0042 15.7711C23.792 15.7711 22.0498 13.8111 22.0498 10.2722C22.0498 6.73335 23.792 4.77335 27.0042 4.77335ZM28.9098 10.2178C28.9098 8.20335 28.3654 7.11446 27.0587 7.11446C25.752 7.11446 25.1531 8.1489 25.1531 10.2178C25.1531 12.2867 25.752 13.3211 27.0587 13.3211C28.3109 13.3756 28.9098 12.2867 28.9098 10.2178Z" fill="#32515B"/>
<path d="M11.9233 0.853346C11.9233 0.41779 12.3045 0.200012 13.1756 0.200012H13.72C14.5911 0.200012 14.9178 0.41779 14.9178 0.853346V6.13446C15.5167 5.37223 16.5511 4.7189 17.8033 4.7189C19.8178 4.7189 20.8522 5.75335 20.8522 8.04001V14.9545C20.8522 15.39 20.4711 15.6078 19.6545 15.6078H19.11C18.2389 15.6078 17.9122 15.39 17.9122 14.9545V8.53001C17.9122 7.71335 17.4767 7.27779 16.6056 7.27779C15.7889 7.27779 15.2445 7.98557 14.9722 8.47557V15.0089C14.9722 15.4445 14.5911 15.6622 13.7745 15.6622H13.23C12.3589 15.6622 12.0322 15.4445 12.0322 15.0089L11.9233 0.853346Z" fill="#32515B"/>
<path d="M3.86556 3.95669H0.598889C0.163333 3.95669 0 3.68447 0 2.97669V2.32335C0 1.61558 0.163333 1.28891 0.598889 1.28891H10.2356C10.6711 1.28891 10.8344 1.61558 10.8344 2.32335V2.97669C10.8344 3.68447 10.6711 4.01113 10.2356 4.01113H7.02333V15.0089C7.02333 15.4445 6.64222 15.6622 5.82556 15.6622H5.06333C4.19222 15.6622 3.81111 15.4445 3.81111 15.0089C3.86556 14.9545 3.86556 3.95669 3.86556 3.95669Z" fill="#32515B"/>
</g>
<defs>
<clipPath id="clip0">
<rect width="147" height="19.6" fill="white" transform="translate(0 0.200012)"/>
</clipPath>
</defs>
</svg>
