<svg width="123" height="31" viewBox="0 0 123 31" fill="none" xmlns="http://www.w3.org/2000/svg">
<g clip-path="url(#clip0)">
<path d="M19.3227 22.5601L11.9257 18.8616C11.3689 18.584 10.9008 18.1564 10.574 17.627C10.2473 17.0975 10.075 16.4873 10.0765 15.8652V8.01447L6.71191 6.30222V17.5432C6.7127 18.166 6.88589 18.7764 7.21229 19.3068C7.53869 19.8372 8.00555 20.2668 8.56115 20.5482L19.0487 25.7877L19.3227 22.5601Z" fill="black"/>
<path d="M5.21382 22.2262C4.65662 21.946 4.18801 21.5169 3.86005 20.9864C3.53208 20.4559 3.35762 19.8449 3.35602 19.2212V6.18238L2.43141 5.72007C2.17474 5.6011 1.89261 5.54759 1.61021 5.5643C1.32781 5.58101 1.05396 5.66743 0.813116 5.81584C0.572277 5.96424 0.37196 6.17001 0.230068 6.41474C0.0881769 6.65947 0.00913248 6.93555 0 7.21829L0 20.9163C0.0015907 21.54 0.176059 22.151 0.504022 22.6815C0.831984 23.212 1.3006 23.6412 1.8578 23.9214L14.3573 30.1711C14.6146 30.2903 14.8975 30.3437 15.1805 30.3266C15.4636 30.3095 15.738 30.2223 15.979 30.0729C16.2201 29.9235 16.4202 29.7166 16.5616 29.4708C16.7029 29.2249 16.7809 28.9478 16.7887 28.6643V28.0308L5.21382 22.2262Z" fill="black"/>
<path d="M25.0079 6.93579L12.4999 0.677489C12.2702 0.561596 12.0165 0.501221 11.7593 0.501221C11.5021 0.501221 11.2484 0.561596 11.0188 0.677489V0.677489L7.59424 2.38975C7.82808 2.26748 8.08804 2.20362 8.35191 2.20362C8.61579 2.20362 8.87575 2.26748 9.10959 2.38975L21.6091 8.64805C22.1719 8.91978 22.6475 9.34367 22.9819 9.87173C23.3163 10.3998 23.4961 11.0109 23.5011 11.6359V25.334C23.5014 25.6504 23.4113 25.9603 23.2414 26.2272C23.0716 26.4942 22.829 26.707 22.5422 26.8408V26.8408L25.9668 25.1285C26.2414 24.9859 26.4704 24.7691 26.6278 24.5027C26.7852 24.2363 26.8647 23.9311 26.8571 23.6217V9.92368C26.8571 9.30298 26.684 8.69458 26.3574 8.16679C26.0307 7.639 25.5634 7.21272 25.0079 6.93579V6.93579Z" fill="black"/>
<path d="M18.2867 10.2918L5.78726 4.04207C5.5543 3.92194 5.29598 3.85925 5.03386 3.85925C4.77175 3.85925 4.51343 3.92194 4.28047 4.04207V4.04207L0.855957 5.75433C1.09043 5.63413 1.35014 5.57144 1.61363 5.57144C1.87712 5.57144 2.13683 5.63413 2.3713 5.75433L14.8708 12.0041C15.4299 12.2819 15.9001 12.7105 16.2284 13.2415C16.5567 13.7725 16.7299 14.3848 16.7286 15.0091V28.7071C16.7289 29.0235 16.6388 29.3334 16.4689 29.6004C16.2991 29.8673 16.0565 30.0802 15.7697 30.2139L19.1942 28.5017C19.4748 28.3672 19.7115 28.1558 19.8767 27.8921C20.0419 27.6283 20.1288 27.3232 20.1274 27.012V13.3139C20.1336 12.6885 19.9644 12.0739 19.639 11.5398C19.3137 11.0056 18.8452 10.5733 18.2867 10.2918Z" fill="black"/>
<path d="M37.4812 13.5279H35.1611V11.0537H37.4812V7.35526H40.315V11.0709H43.5084V13.5451H40.315V20.4797C40.2776 20.8786 40.3872 21.2774 40.6232 21.6012C40.7681 21.7263 40.937 21.8204 41.1195 21.8779C41.3021 21.9353 41.4945 21.9548 41.6848 21.9351H43.7909V24.3837H41.0941C40.6022 24.4285 40.1064 24.376 39.6348 24.2291C39.1633 24.0822 38.7253 23.8438 38.3459 23.5275C37.7107 22.7662 37.4029 21.7842 37.4898 20.7965L37.4812 13.5279Z" fill="black"/>
<path d="M55.9483 12.355C56.9414 13.331 57.438 14.892 57.438 17.0381V24.3665H54.6299V17.1922C54.6917 16.1598 54.3886 15.1386 53.7737 14.307C53.4812 13.9819 53.1192 13.7268 52.7146 13.5608C52.3099 13.3948 51.8731 13.3221 51.4365 13.3482C50.9478 13.3327 50.4621 13.4296 50.0168 13.6315C49.5715 13.8333 49.1785 14.1347 48.8681 14.5125C48.184 15.4038 47.8327 16.506 47.875 17.6288V24.3665H45.0669V6.1738H47.875V13.0228C48.3383 12.347 48.9652 11.7994 49.6972 11.4311C50.4293 11.0629 51.2426 10.8859 52.0615 10.9168C52.7724 10.8865 53.4822 10.998 54.1495 11.245C54.8169 11.4919 55.4283 11.8693 55.9483 12.355V12.355Z" fill="black"/>
<path d="M67.0861 11.0538V13.6821H65.8361C65.3605 13.6456 64.8835 13.73 64.4493 13.9276C64.0152 14.1252 63.6382 14.4295 63.3534 14.8122C62.774 15.6675 62.4749 16.6817 62.4972 17.7145V24.3666H59.7319V11.0538H62.2233L62.4972 13.0828C62.8724 12.4776 63.3973 11.9793 64.0211 11.6359C64.7713 11.2405 65.6141 11.0542 66.4611 11.0966L67.0861 11.0538Z" fill="black"/>
<path d="M68.3188 14.1358C68.8379 13.1383 69.6309 12.3096 70.6047 11.7472C71.6303 11.1683 72.7916 10.8728 73.9692 10.8911C75.1578 10.8613 76.335 11.1291 77.3938 11.6702C78.3542 12.1778 79.1546 12.9426 79.7053 13.879C80.282 14.9024 80.5774 16.0604 80.5614 17.235C80.562 17.5906 80.5334 17.9457 80.4758 18.2966H70.4334V18.485C70.4515 19.5065 70.8411 20.4865 71.5293 21.2417C71.8787 21.5831 72.2947 21.849 72.7512 22.0228C73.2078 22.1966 73.6953 22.2746 74.1833 22.2519C74.9501 22.273 75.7054 22.0611 76.3493 21.6441C76.9435 21.2413 77.3651 20.6303 77.5307 19.9318H80.3388C80.1029 21.2438 79.3967 22.4248 78.3526 23.2536C77.2194 24.1472 75.8052 24.6085 74.3631 24.5549C73.1001 24.5816 71.851 24.287 70.7331 23.6988C69.7235 23.1571 68.8935 22.333 68.3445 21.3273C67.759 20.233 67.4642 19.0067 67.4884 17.7658C67.4592 16.5056 67.7447 15.258 68.3188 14.1358V14.1358ZM77.7362 16.2847C77.6633 15.3946 77.2454 14.5682 76.5719 13.9817C75.8882 13.4059 75.0169 13.1013 74.1233 13.1256C73.252 13.1102 72.4052 13.4148 71.7433 13.9817C71.0743 14.5562 70.6589 15.3715 70.5875 16.2505L77.7362 16.2847Z" fill="black"/>
<path d="M82.8735 14.1358C83.3926 13.1383 84.1856 12.3096 85.1593 11.7472C86.1877 11.1672 87.352 10.8717 88.5325 10.8911C89.7211 10.8609 90.8984 11.1287 91.957 11.6702C92.9175 12.1778 93.7178 12.9425 94.2686 13.879C94.8453 14.9024 95.1406 16.0604 95.1247 17.235C95.124 17.5902 95.0982 17.945 95.0476 18.2966H84.9967V18.485C85.0085 19.5062 85.3955 20.4874 86.084 21.2417C86.4334 21.5831 86.8493 21.849 87.3059 22.0228C87.7625 22.1966 88.25 22.2746 88.738 22.2519C89.505 22.2747 90.2607 22.0626 90.904 21.6441C91.4979 21.2393 91.9216 20.6296 92.094 19.9318H94.8935C94.6606 21.2449 93.9538 22.4269 92.9073 23.2536C91.7741 24.1472 90.3599 24.6085 88.9177 24.5549C87.6574 24.5828 86.4108 24.2881 85.2963 23.6988C84.2823 23.16 83.4488 22.3354 82.8992 21.3273C82.3137 20.233 82.0189 19.0067 82.043 17.7658C82.0139 16.5056 82.2994 15.258 82.8735 14.1358V14.1358ZM92.2909 16.2847C92.2202 15.3958 91.8055 14.5696 91.1351 13.9817C90.4472 13.4075 89.5738 13.1031 88.678 13.1256C87.8067 13.1102 86.9599 13.4148 86.298 13.9817C85.6289 14.5562 85.2136 15.3715 85.1422 16.2505L92.2909 16.2847Z" fill="black"/>
<path d="M99.9104 6.1738V17.5517L105.997 11.0537H109.242L104.285 16.4131L109.585 24.3665H106.254L102.282 18.4849L99.9104 20.9763V24.4008H97.1108V6.1738H99.9104Z" fill="black"/>
<path d="M113.429 6.22518C113.592 6.37625 113.721 6.56074 113.807 6.76608C113.892 6.97143 113.933 7.19282 113.925 7.41519C113.932 7.64006 113.892 7.86391 113.806 8.07198C113.721 8.28005 113.592 8.46762 113.429 8.62234C113.099 8.93487 112.663 9.10911 112.209 9.10911C111.755 9.10911 111.318 8.93487 110.989 8.62234C110.825 8.46762 110.697 8.28005 110.611 8.07198C110.525 7.86391 110.485 7.64006 110.492 7.41519C110.485 7.19282 110.525 6.97143 110.611 6.76608C110.696 6.56074 110.825 6.37625 110.989 6.22518C111.323 5.92197 111.758 5.754 112.209 5.754C112.66 5.754 113.095 5.92197 113.429 6.22518V6.22518ZM113.617 11.0537V24.3665H110.809V11.0537H113.617Z" fill="black"/>
<path d="M116.964 13.5279H114.653V11.0537H116.964V7.35526H119.798V11.0709H123V13.5451H119.798V20.4797C119.759 20.8801 119.872 21.2805 120.115 21.6012C120.26 21.7267 120.428 21.8211 120.611 21.8786C120.794 21.936 120.986 21.9553 121.177 21.9351H123.283V24.3837H120.577C120.087 24.4288 119.592 24.3764 119.122 24.2294C118.652 24.0825 118.215 23.8439 117.838 23.5275C117.202 22.7662 116.895 21.7842 116.982 20.7965L116.964 13.5279Z" fill="black"/>
</g>
<defs>
<clipPath id="clip0">
<rect width="123" height="29.8275" fill="white" transform="translate(0 0.506256)"/>
</clipPath>
</defs>
</svg>
