<svg width="127" height="19" viewBox="0 0 127 19" fill="none" xmlns="http://www.w3.org/2000/svg">
<g clip-path="url(#clip0)">
<path d="M79.7961 16.2763C82.1447 16.2763 82.8708 14.6582 83.3626 12.7092H82.2606C80.7357 12.7092 78.2029 12.9688 78.2029 15.0084C78.2029 15.8536 78.9985 16.2763 79.7961 16.2763ZM82.8708 16.4402H82.8233C81.7448 17.801 80.6658 18.5754 78.9285 18.5754C76.748 18.5754 75.1997 17.355 75.1997 15.1276C75.1997 11.1392 79.6567 10.8336 82.6124 10.8336H83.7144C83.8094 10.5043 83.8094 10.1525 83.8094 9.80219C83.8094 8.58176 82.4955 8.23002 81.3919 8.23002C80.0086 8.23002 78.6712 8.58175 77.4282 9.16825L77.8745 6.65784C79.2104 6.18923 80.5718 5.93088 81.9797 5.93088C84.3946 5.93088 86.6711 6.82301 86.6711 9.66046C86.6711 11.2798 85.4747 16.0177 85.1922 18.2944H82.5425L82.8708 16.4402" fill="black"/>
<path d="M1.37938 6.20098H3.65465L4.19401 3.71522L7.57268 2.61167L6.79841 6.20098H9.61284L9.12057 8.50012H6.30552L5.15587 13.7789C5.08571 14.0606 5.01561 14.4821 5.01561 14.9507C5.01561 15.6777 5.50824 16.1239 6.21114 16.1239C6.77534 16.1239 7.33777 16.007 7.73623 15.8429L7.19745 18.2827C6.65773 18.3993 6.04843 18.5647 5.50824 18.5647C3.37366 18.5647 1.87163 17.7193 1.87163 15.3957C1.87163 14.4583 2.05943 13.5437 2.27008 12.5829L3.162 8.50012H0.886719L1.37938 6.20098" fill="black"/>
<path d="M12.0538 0.992407H15.1975L14.5407 3.99648H11.3968L12.0538 0.992407V0.992407ZM10.9041 6.20124H14.0481L11.4671 18.283H8.32275L10.9041 6.20124" fill="black"/>
<path d="M23.5402 8.96939C22.9307 8.57051 22.1097 8.36008 21.2411 8.36008C18.7315 8.36008 17.3241 10.7055 17.3241 12.9814C17.3241 14.5521 17.8394 16.1244 19.9982 16.1244C20.7729 16.1244 21.7349 15.9133 22.5553 15.514L22.2029 18.0022C21.2411 18.4708 20.2088 18.5652 19.1766 18.5652C16.0569 18.5652 14.04 16.4771 14.04 13.3566C14.04 9.13455 16.8312 5.92068 21.1705 5.92068C22.3445 5.92068 23.47 6.13194 24.3145 6.38903L23.5402 8.96939" fill="black"/>
<path d="M26.9881 0.689217H30.1319L28.0432 10.5885H28.0917L32.4783 6.20124H36.5597L30.7663 11.7143L34.4011 18.283H30.859L27.7381 11.8786H27.6922L26.3313 18.283H23.2583L26.9881 0.689217" fill="black"/>
<path d="M47.8911 6.20147H50.1663L50.7057 3.71571L54.0843 2.61216L53.3102 6.20147H56.1254L55.6321 8.50061H52.8174L51.6676 13.7793C51.5973 14.0611 51.5277 14.4826 51.5277 14.9512C51.5277 15.6782 52.0197 16.1244 52.7239 16.1244C53.2867 16.1244 53.8494 16.0075 54.2477 15.8434L53.7095 18.2832C53.1692 18.3998 52.5595 18.5652 52.0197 18.5652C49.8852 18.5652 48.3833 17.7198 48.3833 15.3961C48.3833 14.4588 48.5709 13.5442 48.7828 12.5833L49.6733 8.50061H47.3984L47.8911 6.20147" fill="black"/>
<path d="M46.8399 10.5179C46.8399 7.44576 44.8697 5.92068 41.8905 5.92068C37.926 5.92068 35.0161 9.53343 35.0161 13.2859C35.0161 16.8751 37.3623 18.5652 40.8352 18.5652C42.1248 18.5652 43.4623 18.2598 44.6821 17.8841L45.0805 15.3962C43.9078 15.9377 42.6637 16.266 41.3736 16.266C39.3634 16.266 38.1884 15.5511 38.0379 13.6523H38.0355C38.03 13.5422 38.0191 13.4341 38.0191 13.3185C38.0191 13.2961 38.0202 13.2734 38.0202 13.2512C38.0202 13.2383 38.0191 13.2288 38.0191 13.2159H38.0214C38.0355 12.389 38.2169 11.5732 38.5328 10.8191C39.137 9.28197 39.9902 8.21982 41.8434 8.21982C43.1562 8.21982 43.8374 8.94574 43.8374 10.2369C43.8374 10.5179 43.8134 10.7763 43.7673 11.0573H39.4655C39.1864 12.0069 39.138 12.6429 39.1324 13.2159H46.5344C46.7222 12.3238 46.8399 11.4327 46.8399 10.5179" fill="black"/>
<path d="M57.4819 7.53871C57.5748 7.06989 57.6693 6.57783 57.7392 6.20124H60.6725L60.3906 7.81967H60.4376C61.2822 6.57783 62.6656 5.92045 64.1434 5.92045C65.5748 5.92045 67.0526 6.76445 67.2171 8.21959H67.264C68.0622 6.64736 69.8219 5.92045 71.5096 5.92045C73.3153 5.92045 74.8652 7.39798 74.8652 9.22751C74.8652 10.3062 74.5817 11.5266 74.3249 12.5112L73.058 18.283H69.9138L71.1813 12.3943C71.3457 11.6672 71.5801 10.5401 71.5801 9.8142C71.5801 8.92207 70.9004 8.35985 70.1028 8.35985C67.9202 8.35985 67.381 10.8941 66.9816 12.5358L65.7392 18.283H62.5956L63.8625 12.3943C64.0275 11.6672 64.2614 10.5401 64.2614 9.8142C64.2614 8.92207 63.5801 8.35985 62.7825 8.35985C60.6485 8.35985 60.0617 10.9166 59.6634 12.5358L58.4194 18.283H55.2769L57.4819 7.53871" fill="black"/>
<path d="M96.0076 8.6615C95.6704 8.47712 94.8028 8.21982 93.9117 8.21982C92.9725 8.21982 91.8001 8.47712 91.8001 9.438C91.8001 10.9639 95.8818 11.5269 95.8818 14.4826C95.8818 17.6272 93.1375 18.5652 90.4407 18.5652C89.1727 18.5652 87.9053 18.3776 86.7568 17.837L87.4381 15.3275C88.3276 15.8189 89.2203 16.266 90.4407 16.266C91.4942 16.266 92.5983 15.9133 92.5983 14.9288C92.5983 12.9814 88.516 12.7924 88.516 9.76709C88.516 6.92985 91.2608 5.92068 93.7467 5.92068C94.8972 5.92068 96.0707 6.13194 96.6888 6.29262L96.0076 8.6615" fill="black"/>
<path d="M98.0173 6.20147H100.293L100.832 3.71571L104.209 2.61216L103.435 6.20147H106.251L105.759 8.50061H102.942L101.793 13.7793C101.723 14.0611 101.652 14.4826 101.652 14.9512C101.652 15.6782 102.146 16.1244 102.849 16.1244C103.412 16.1244 103.975 16.0075 104.374 15.8434L103.834 18.2832C103.294 18.3998 102.685 18.5652 102.146 18.5652C100.01 18.5652 98.509 17.7198 98.509 15.3961C98.509 14.4588 98.698 13.5442 98.9084 12.5833L99.7994 8.50061H97.5234L98.0173 6.20147" fill="black"/>
<path d="M119.329 7.81967C119.422 7.30459 119.517 6.76445 119.611 6.20124H122.614L122.191 8.47689H122.239C122.803 7.16328 124.349 5.92045 125.804 5.92045C126.203 5.92045 126.625 5.94284 127 6.03707L126.344 9.10963C125.993 8.9926 125.545 8.92207 125.147 8.92207C122.917 8.92207 121.839 10.9166 121.441 12.8639L120.314 18.283H117.171L119.329 7.81967" fill="black"/>
<path d="M117.148 10.5179C117.148 7.44576 115.177 5.92068 112.198 5.92068C108.234 5.92068 105.324 9.53343 105.324 13.2859C105.324 16.8751 107.67 18.5652 111.143 18.5652C112.432 18.5652 113.77 18.2598 114.99 17.8841L115.388 15.3962C114.215 15.9377 112.972 16.266 111.682 16.266C109.671 16.266 108.497 15.5511 108.345 13.6523H108.343C108.338 13.5422 108.327 13.4341 108.327 13.3185C108.327 13.2961 108.328 13.2734 108.328 13.2512C108.328 13.2383 108.327 13.2288 108.327 13.2159H108.328C108.343 12.389 108.524 11.5732 108.84 10.8191C109.443 9.28197 110.298 8.21982 112.151 8.21982C113.464 8.21982 114.145 8.94574 114.145 10.2369C114.145 10.5179 114.121 10.7763 114.075 11.0573H109.774C109.493 12.0069 109.446 12.6429 109.439 13.2159H116.843C117.031 12.3238 117.148 11.4327 117.148 10.5179" fill="black"/>
</g>
<defs>
<clipPath id="clip0">
<rect width="126.113" height="17.8861" fill="white" transform="translate(0.886719 0.689453)"/>
</clipPath>
</defs>
</svg>
