<svg width="100" height="28" viewBox="0 0 100 28" fill="none" xmlns="http://www.w3.org/2000/svg">
<g clip-path="url(#clip0)">
<path d="M27.424 13.8543C27.0855 10.9552 25.702 8.27899 23.5325 6.32646C21.363 4.37394 18.5563 3.27901 15.6378 3.24664H15.5053C13.3884 3.24839 11.3094 3.80793 9.47756 4.86891L9.38707 4.92408L9.30761 4.97044C2.44775 9.0559 0 18.4893 0 24.2324L5.51791 21.043C7.46463 24.7533 11.2014 27.1966 15.3663 27.2429H15.4987C15.9634 27.243 16.4277 27.2158 16.8892 27.1613C18.4547 26.9793 19.9691 26.4908 21.3458 25.7236C22.7225 24.9564 23.9346 23.9255 24.9129 22.6898C25.8911 21.4541 26.6164 20.0378 27.0473 18.5218C27.4781 17.0058 27.6062 15.4198 27.424 13.8543V13.8543ZM88.2049 19.8622C89.0149 21.4712 90.4628 22.3077 92.3787 22.3033C94.2592 22.3033 95.2656 21.3873 95.2612 20.3169C95.2612 19.008 93.3101 18.71 90.9881 18.2465C87.9312 17.6109 84.5344 16.6794 84.5344 12.85C84.5344 9.79309 87.4765 7.13125 91.9461 7.15332C95.4952 7.15332 97.7222 8.3805 99.371 10.4839L95.5106 12.7198C94.769 11.5125 93.6235 10.8106 91.9439 10.815C90.1296 10.815 89.2577 11.561 89.2599 12.5807C89.2599 13.7218 90.7432 14.0198 93.3984 14.5848C96.4244 15.1808 99.989 16.2137 100 20.1028C100 22.9257 97.4949 26.1217 92.2197 26.104C88.2469 26.1151 85.6137 24.7422 84.0908 22.2547L88.2049 19.8622ZM71.6269 19.8622C72.4391 21.4712 73.8848 22.3077 75.8006 22.3033C77.6812 22.3033 78.6876 21.3873 78.6854 20.3169C78.6854 19.008 76.7321 18.71 74.4123 18.2465C71.3532 17.6153 67.9564 16.6839 67.9476 12.8544C67.9476 9.7975 70.8875 7.13566 75.357 7.15773C78.9083 7.15773 81.1332 8.38492 82.7841 10.4883L78.9326 12.7198C78.191 11.5125 77.0455 10.8106 75.3658 10.815C73.5515 10.815 72.6797 11.561 72.6841 12.5807C72.6841 13.7218 74.1651 14.0198 76.8226 14.5848C79.8464 15.1808 83.411 16.2137 83.422 20.1028C83.422 22.9257 80.9191 26.1217 75.6417 26.104C71.6688 26.1151 69.0357 24.7422 67.515 22.2547L71.6269 19.8622ZM57.0022 7.15773C55.1284 7.15774 53.2967 7.71344 51.7388 8.75456C50.1808 9.79567 48.9666 11.2754 48.2498 13.0067C47.5329 14.7379 47.3455 16.6429 47.7114 18.4806C48.0773 20.3184 48.98 22.0063 50.3053 23.331C51.6305 24.6556 53.3189 25.5575 55.1568 25.9225C56.9947 26.2876 58.8996 26.0993 60.6305 25.3817C62.3614 24.664 63.8406 23.4491 64.881 21.8907C65.9214 20.3322 66.4763 18.5003 66.4754 16.6265C66.4736 14.115 65.4749 11.7069 63.6986 9.93144C61.9222 8.15596 59.5137 7.15832 57.0022 7.15773V7.15773ZM57.0022 21.6831C56.0032 21.6831 55.0266 21.3869 54.1958 20.8319C53.3651 20.277 52.7175 19.4882 52.335 18.5653C51.9525 17.6424 51.8522 16.6268 52.0468 15.6469C52.2414 14.667 52.7221 13.7667 53.4282 13.06C54.1343 12.3533 55.0342 11.8717 56.0139 11.6763C56.9936 11.4809 58.0093 11.5803 58.9326 11.962C59.8558 12.3437 60.6452 12.9906 61.2008 13.8208C61.7565 14.6511 62.0536 15.6274 62.0544 16.6265C62.0544 17.9664 61.5221 19.2514 60.5747 20.1989C59.6272 21.1464 58.3422 21.6787 57.0022 21.6787V21.6831ZM45.0769 20.4294C44.4942 20.8951 43.2737 21.469 42.6623 21.469C41.4748 21.469 40.6604 20.7914 40.6604 18.8579V11.6604H46.2997V7.52412H40.6604V0.756958L35.9613 3.46956V7.52412H32.2091V11.6604H35.9613V19.2795C35.9613 24.2677 38.2877 26.0996 42.1193 26.0996C43.8144 26.0996 46.0768 25.0954 47.262 24.2147L45.0769 20.4294Z" fill="#0064FF"/>
</g>
<defs>
<clipPath id="clip0">
<rect width="100" height="26.486" fill="white" transform="translate(0 0.756958)"/>
</clipPath>
</defs>
</svg>
