<svg width="82" height="34" viewBox="0 0 82 34" fill="none" xmlns="http://www.w3.org/2000/svg">
<g clip-path="url(#clip0)">
<path d="M38.9457 26.9618H36.8059V7.03894H29.6758V5.09515H46.0758V7.10845H38.9457V26.9618Z" fill="#F54862"/>
<path d="M51.9784 26.6136C51.9104 26.1958 51.9104 25.7779 51.9104 25.2898V24.1059H51.8425C51.4333 24.9415 50.821 25.6382 50.0033 26.1958C49.1802 26.6902 48.2396 26.9547 47.2794 26.9619C45.5769 26.9619 44.2821 26.4043 43.4652 25.2906C42.5796 24.1746 42.1712 22.7119 42.1712 20.9704V12.1238H44.147V20.1348C44.147 20.8314 44.2141 21.528 44.35 22.2246C44.4188 22.7822 44.6234 23.3398 44.9639 23.8271C45.2356 24.2449 45.6449 24.6627 46.0533 24.872C46.5297 25.1508 47.1427 25.2203 47.8237 25.2203C48.3688 25.2203 48.846 25.0813 49.3224 24.872C49.7987 24.6627 50.2751 24.2449 50.6164 23.8271C51.0248 23.3398 51.3661 22.7127 51.502 22.0856C51.7745 21.25 51.8425 20.4136 51.8425 19.578V12.1238H53.8175V25.011C53.8175 25.6382 53.8855 26.1958 53.8855 26.6831L51.9784 26.6136V26.6136ZM59.3521 26.9619H57.0093V5.0952H59.3521V26.9619ZM64.8188 6.61259C64.8188 7.02649 64.6626 7.37168 64.3518 7.64735C64.0514 7.91381 63.6639 8.06096 63.2624 8.06096C62.8609 8.06096 62.4733 7.91381 62.1729 7.64735C61.5497 7.096 61.5497 6.19868 62.0948 5.57783L62.1729 5.5091C62.4733 5.24264 62.8609 5.0955 63.2624 5.0955C63.6639 5.0955 64.0514 5.24264 64.3518 5.5091C64.6634 5.85429 64.8188 6.26819 64.8188 6.61259V6.61259ZM64.3518 26.9619H62.0948V12.5455H64.3518V26.9619ZM69.2351 33.9904H67.1617V12.4705H69.2351V14.9696H69.3069C69.8794 14.0676 70.6658 13.3038 71.667 12.818C72.5963 12.3323 73.5975 12.1238 74.6697 12.1238C75.6709 12.1238 76.7439 12.3323 77.6733 12.679C78.5435 13.0379 79.3245 13.583 79.9615 14.2761C80.605 14.9696 81.1056 15.8028 81.4632 16.7048C82.1786 18.6494 82.1786 20.8009 81.4632 22.6752C81.1056 23.578 80.605 24.4105 79.9615 25.1048C79.3245 25.7978 78.5435 26.3429 77.6733 26.7018C76.7439 27.1181 75.6709 27.3266 74.6697 27.2563C73.6693 27.2563 72.5963 26.979 71.667 26.5628C70.7376 26.077 69.8786 25.3828 69.3069 24.48H69.2351V33.9904ZM79.8186 19.6904C79.8186 18.9266 79.6756 18.1629 79.4609 17.3999C79.2455 16.7039 78.8794 16.064 78.3886 15.5256C77.888 14.9696 77.3874 14.5533 76.7439 14.2761C76.0286 13.9286 75.2422 13.7895 74.4557 13.7895C73.7404 13.7895 72.954 13.9286 72.3105 14.2066C71.6542 14.4933 71.0684 14.9197 70.5939 15.4561C70.0941 16.0106 69.7357 16.6353 69.4498 17.3304C68.8779 18.8038 68.8779 20.438 69.4498 21.9114C69.7357 22.6065 70.0933 23.2313 70.5939 23.7857C71.5951 24.897 73.025 25.4523 74.4557 25.4523C75.2376 25.4551 76.0133 25.3138 76.7439 25.0353C77.3874 24.758 77.9599 24.341 78.3886 23.7857C78.8282 23.2117 79.1889 22.5813 79.4609 21.9114C79.6756 21.2172 79.8186 20.4542 79.8186 19.6904V19.6904ZM26.0562 19.314C25.1339 18.3448 23.7852 17.2367 22.1538 16.198L22.7918 14.9516C23.6431 13.2897 25.4885 9.20379 24.3537 7.61065C23.7852 6.84922 22.5084 6.43375 20.3084 6.43375C18.7481 6.43375 17.1869 6.64149 15.6258 6.91872C15.386 5.4997 15.0059 4.10799 14.4911 2.76406C13.9944 1.44815 13.3556 0.686723 12.7168 0.47899C12.5754 0.409485 12.3622 0.409485 12.2201 0.409485C10.6597 0.409485 7.9639 2.41731 5.4094 5.46459C2.64171 8.85783 0.72603 12.597 0.158278 15.6435C-0.267341 18.2058 -0.0541407 21.6686 3.56401 24.0231C3.91935 24.7846 4.34496 25.4773 4.91272 26.0302C6.47306 27.6936 8.88542 28.5238 11.9366 28.5238C14.8457 28.5238 18.5356 27.6928 21.8703 26.2387C23.4307 25.546 24.7075 24.7846 25.7009 24.0224C26.7653 23.1914 27.3331 22.3605 27.3331 21.6686C27.3331 20.9759 26.9075 20.2144 26.0562 19.314V19.314ZM2.50035 16.544C2.28715 17.8599 2.21609 18.6213 2.85491 21.4608C1.64834 20.0754 1.22272 18.2058 1.64834 15.9903C2.14502 13.082 3.98963 9.61926 6.61519 6.43375C7.62038 5.24511 8.73703 4.15539 9.94986 3.17952C10.9432 2.41731 11.7234 2.00185 12.2201 2.00185H12.2912C12.7878 2.20958 13.6391 4.14947 14.2779 7.33419C11.8655 7.95739 9.66637 8.78832 7.82176 9.82699C5.62182 11.0734 4.0607 12.5275 3.27974 14.1894C2.84233 14.904 2.57513 15.7096 2.49879 16.544H2.50035ZM9.95064 11.9051C8.38874 11.9051 7.11188 12.2511 6.04744 12.8735C7.5375 11.4201 9.66637 10.4502 11.3689 9.75749C12.3963 9.39318 13.4379 9.07013 14.4911 8.7891C14.7035 10.1042 14.7746 11.4201 14.7746 12.7353C13.001 12.1808 11.3696 11.9043 9.94986 11.9043L9.95064 11.9051ZM5.26727 14.8821C6.26064 13.7739 8.24738 13.428 10.0209 13.428C11.4399 13.428 13.0721 13.7052 14.8457 14.3284C14.8457 15.4358 14.7035 16.544 14.5622 17.6521C14.0655 20.6986 12.7878 24.5073 9.24076 24.5073C8.03418 24.5073 5.97637 23.9529 5.05485 22.4995C4.2739 21.2531 4.0607 19.9372 4.13176 18.6213C3.98963 17.7209 4.20283 15.9895 5.26727 14.8821V14.8821ZM20.8762 15.4366C19.3878 14.6003 17.8475 13.86 16.2646 13.2202C16.2646 11.6271 16.1225 10.0347 15.9101 8.44236C17.4001 8.16512 18.8902 7.95739 20.3795 7.95739C22.3662 7.95739 23.0761 8.37286 23.2182 8.51187C23.4307 8.78832 23.3596 10.6579 21.5158 14.2589C21.3026 14.6744 21.0894 15.0898 20.8762 15.4358V15.4366ZM16.1936 14.8126C17.527 15.3652 18.8297 15.9893 20.096 16.6822C19.0242 18.431 17.7632 20.0566 16.3357 21.5296C15.4845 22.43 14.4911 23.1914 13.4267 23.8146C14.6325 22.4995 15.4845 20.4909 15.9101 17.8599C16.0514 16.8212 16.1936 15.8513 16.1936 14.8126V14.8126ZM10.4465 26.1692C13.2135 26.1692 17.5415 23.8841 21.3729 17.5131C22.8629 18.4831 24.1405 19.5217 24.9918 20.4222C25.7009 21.1836 25.843 21.5991 25.843 21.6686C25.843 22.084 24.424 23.3992 21.4439 24.7846C18.3225 26.2387 14.8449 27.0696 11.9366 27.0696C9.59531 27.0696 7.82098 26.5854 6.54413 25.5468C7.82176 25.9615 9.09784 26.1692 10.4465 26.1692V26.1692ZM4.77136 22.9837L4.7003 22.915C4.77058 22.915 4.77058 22.9837 4.77058 22.9837H4.77136Z" fill="#F54862"/>
</g>
<defs>
<clipPath id="clip0">
<rect width="82" height="33.581" fill="white" transform="translate(0 0.409485)"/>
</clipPath>
</defs>
</svg>
