<svg width="91" height="27" viewBox="0 0 91 27" fill="none" xmlns="http://www.w3.org/2000/svg">
<g clip-path="url(#clip0)">
<path fill-rule="evenodd" clip-rule="evenodd" d="M19.6629 18.1613C16.9932 18.1613 14.8293 15.9985 14.8293 13.3313C14.8293 10.6635 16.9932 8.50075 19.6629 8.50075C22.3327 8.50075 24.4966 10.6635 24.4966 13.3313C24.4966 15.9985 22.3327 18.1613 19.6629 18.1613ZM9.05405 18.1613C6.38481 18.1613 4.22037 15.9985 4.22037 13.3313C4.22037 10.6635 6.38481 8.50075 9.05405 8.50075C11.7238 8.50075 13.8877 10.6635 13.8877 13.3313C13.8877 15.9985 11.7238 18.1613 9.05405 18.1613ZM27.9283 12.4628L21.896 2.02239C21.586 1.48525 21.012 1.1539 20.391 1.1539H8.32582C7.70484 1.1539 7.1314 1.48525 6.82091 2.02239L0.788042 12.4628C0.477554 12.9999 0.477554 13.6621 0.788042 14.1998L6.82091 24.6402C7.1314 25.1773 7.70484 25.5086 8.32582 25.5086H20.391C21.012 25.5086 21.586 25.1773 21.896 24.6402L27.9283 14.1998C28.2393 13.6621 28.2393 12.9999 27.9283 12.4628ZM19.6629 15.1801C18.6411 15.1801 17.8127 14.3523 17.8127 13.3313C17.8127 12.3103 18.6411 11.4824 19.6629 11.4824C20.6846 11.4824 21.5132 12.3103 21.5132 13.3313C21.5132 14.3523 20.6846 15.1801 19.6629 15.1801ZM19.6629 10.7168C18.2177 10.7168 17.0465 11.8871 17.0465 13.3313C17.0465 14.7754 18.2177 15.9458 19.6629 15.9458C21.1082 15.9458 22.2794 14.7754 22.2794 13.3313C22.2794 11.8871 21.1082 10.7168 19.6629 10.7168ZM9.05405 10.7168C7.60933 10.7168 6.43761 11.8871 6.43761 13.3313C6.43761 14.7754 7.60933 15.9458 9.05405 15.9458C10.4993 15.9458 11.6705 14.7754 11.6705 13.3313C11.6705 11.8871 10.4993 10.7168 9.05405 10.7168ZM86.3327 16.7076C86.3327 13.4199 84.9366 11.0281 81.8455 11.0281C78.8874 11.0281 77.3587 13.154 77.3587 16.7076C77.3587 20.0623 78.7211 22.4531 81.8455 22.4531C84.8035 22.4531 86.3327 20.3273 86.3327 16.7076ZM73.8552 16.7076C73.8552 10.1992 77.5251 7.54151 81.8455 7.54151C86.1332 7.54151 90.4539 10.1992 90.4539 16.7076C90.4539 23.1501 86.1332 25.8732 81.8455 25.8732C77.5583 25.8732 73.8552 23.1501 73.8552 16.7076ZM68.0029 7.87442L72.2404 7.87389V25.5086H68.1196L68.0029 7.87442ZM67.9697 1.59659L72.2738 1.26523V5.32013H68.0864L67.9697 1.59659ZM62.1864 16.7076C62.1864 12.9889 60.5907 11.0281 57.9659 11.0281C56.2703 11.0281 54.6424 12.0919 53.6781 13.2537V20.3273C54.7744 21.7555 56.3701 22.5196 57.8327 22.5196C60.9239 22.5196 62.1864 20.6264 62.1864 16.7076ZM53.6782 23.549V25.5086H49.5907L49.4739 1.26523L53.6782 0.93335V10.1992C54.8414 8.80413 56.6695 7.54149 59.295 7.54149C63.316 7.54149 66.2741 10.5638 66.2741 16.6744C66.2741 22.7855 63.2505 25.7745 58.7299 25.7745C56.8359 25.7745 54.9745 25.0106 53.6782 23.549ZM31.368 20.5267L31.2513 8.20578L35.4889 7.87389V19.5637C35.4889 21.5239 36.32 22.4193 38.1153 22.4193C39.9096 22.4193 41.405 21.4907 42.9009 20.1288L42.7843 8.20578L47.0218 7.87389V25.5086H42.9009V23.1168C41.7704 24.313 39.643 25.841 36.453 25.841C33.3619 25.841 31.368 24.0138 31.368 20.5267Z" fill="#FF5A5F"/>
</g>
<defs>
<clipPath id="clip0">
<rect width="91" height="25.1333" fill="white" transform="translate(0 0.93335)"/>
</clipPath>
</defs>
</svg>
