<svg width="40" height="53" viewBox="0 0 40 53" fill="none" xmlns="http://www.w3.org/2000/svg">
<g clip-path="url(#clip0)">
<path d="M26.9123 1.23954V38.3357C26.9123 38.7038 26.6055 39.0105 26.2374 39.0105H16.0534C15.6853 39.0105 15.3785 38.7038 15.3785 38.3357V15.8408C15.3785 15.4727 15.0718 15.1659 14.7037 15.1659H2.98588C2.61778 15.1659 2.31104 15.4727 2.31104 15.8408V33.9185C2.33149 44.307 10.7568 52.7324 21.1454 52.7324C31.5339 52.7324 39.9797 44.307 39.9797 33.9185V1.23954C39.9797 0.871446 39.673 0.564697 39.3049 0.564697H27.5871C27.219 0.564697 26.9123 0.871446 26.9123 1.23954Z" fill="#2F384B"/>
<path d="M7.83231 7.70171H14.6626C14.908 7.70171 15.1329 7.55856 15.2556 7.35406L18.7321 1.07594C18.8753 0.850996 18.7117 0.564697 18.4458 0.564697H0.695296C0.306748 0.564697 0 0.871446 0 1.25999V19.0105C0 19.2764 0.286299 19.44 0.511247 19.3173L6.78937 15.8408C7.01431 15.7181 7.13701 15.4931 7.13701 15.2477V8.39701C7.13701 8.00846 7.44376 7.70171 7.83231 7.70171Z" fill="#DF0073"/>
</g>
<defs>
<clipPath id="clip0">
<rect width="40" height="52.1677" fill="white" transform="translate(0 0.564697)"/>
</clipPath>
</defs>
</svg>
