<svg width="126" height="32" viewBox="0 0 126 32" fill="none" xmlns="http://www.w3.org/2000/svg">
<g clip-path="url(#clip0)">
<path fill-rule="evenodd" clip-rule="evenodd" d="M48.2097 16.0861C48.2097 18.0251 47.3085 19.0361 45.941 19.0361C44.7663 19.0361 44.0019 18.1619 44.0019 16.8505V9.39474H38.8735V17.9421C38.8735 21.4367 40.9493 23.5955 44.063 23.5955C44.843 23.6051 45.6162 23.4495 46.3317 23.1389C47.0473 22.8283 47.6889 22.3697 48.2146 21.7933V23.1853H53.321V9.39474H48.2097V16.0861Z" fill="#241F20"/>
<path fill-rule="evenodd" clip-rule="evenodd" d="M63.861 8.98447C62.1662 8.98447 60.801 9.5315 59.8169 10.5132V9.39474H54.7031V29.1977L59.8096 27.8326V22.0692C60.7864 23.0461 62.1588 23.598 63.8537 23.598C67.6487 23.598 70.5181 20.6479 70.5181 16.3059C70.5181 11.9638 67.6462 8.98447 63.861 8.98447ZM62.6399 19.3365C61.0843 19.3365 59.8266 18.0251 59.8266 16.3059C59.8266 14.5866 61.0843 13.2459 62.6399 13.2459C64.3348 13.2459 65.4264 14.5573 65.4264 16.3059C65.4264 18.0544 64.325 19.3365 62.6302 19.3365H62.6399Z" fill="#241F20"/>
<path fill-rule="evenodd" clip-rule="evenodd" d="M71.5337 23.1877H76.6426V2.15393L71.5337 3.52151V23.1877Z" fill="#241F20"/>
<path fill-rule="evenodd" clip-rule="evenodd" d="M88.3331 10.5254C87.3563 9.54859 85.9838 8.99667 84.2914 8.99667C80.494 8.99667 77.627 11.9467 77.627 16.323C77.627 20.6992 80.494 23.6151 84.2914 23.6151C85.9838 23.6151 87.3514 23.068 88.3331 22.0863V23.2048H93.442V9.39473H88.3331V10.5254ZM85.5198 19.3365C83.8274 19.3365 82.7334 18.0251 82.7334 16.3059C82.7334 14.5866 83.8274 13.2459 85.5198 13.2459C87.0779 13.2459 88.3331 14.5573 88.3331 16.3059C88.3331 18.0544 87.0779 19.3365 85.5198 19.3365Z" fill="#241F20"/>
<path fill-rule="evenodd" clip-rule="evenodd" d="M104.068 8.98445C103.288 8.97454 102.514 9.13003 101.799 9.44068C101.083 9.75133 100.441 10.2101 99.916 10.7867V9.39473H94.8071V23.1877H99.916V16.4963C99.916 14.5573 100.817 13.5463 102.182 13.5463C103.357 13.5463 104.121 14.4206 104.121 15.732V23.1877H109.25V14.6404C109.257 11.1408 107.181 8.98445 104.068 8.98445Z" fill="#241F20"/>
<path fill-rule="evenodd" clip-rule="evenodd" d="M120.884 3.5215V10.5254C119.907 9.5486 118.535 8.99669 116.84 8.99669C113.042 8.99669 110.175 11.9467 110.175 16.323C110.175 20.6992 113.042 23.6151 116.84 23.6151C118.535 23.6151 119.9 23.068 120.884 22.0863V23.2048H126.012V2.15637L120.884 3.5215ZM118.08 19.3365C116.386 19.3365 115.294 18.0251 115.294 16.3059C115.294 14.5866 116.386 13.2459 118.08 13.2459C119.636 13.2459 120.894 14.5573 120.894 16.3059C120.894 18.0544 119.636 19.3365 118.08 19.3365Z" fill="#241F20"/>
<path fill-rule="evenodd" clip-rule="evenodd" d="M15.6636 1.89986e-07C12.5651 -0.00048229 9.5361 0.918009 6.9597 2.63929C4.3833 4.36057 2.37528 6.8073 1.18965 9.66997C0.00402392 12.5326 -0.305945 15.6827 0.298955 18.7215C0.903855 21.7604 2.39645 24.5516 4.58792 26.742C6.7794 28.9325 9.57129 30.4238 12.6104 31.0273C15.6496 31.6307 18.7995 31.3193 21.6616 30.1323C24.5237 28.9454 26.9695 26.9362 28.6896 24.359C30.4096 21.7818 31.3267 18.7523 31.3248 15.6538C31.3222 11.5017 29.6711 7.52049 26.7344 4.58517C23.7977 1.64986 19.8157 0.000646737 15.6636 1.89986e-07ZM21.5491 17.229C21.5491 20.9214 19.2242 23.2072 15.7369 23.2072C12.1592 23.2072 9.76839 20.9214 9.76839 17.229V11.959L13.6757 10.9186V17.229C13.6757 18.8408 14.5012 19.7419 15.7369 19.7419C16.8822 19.7419 17.649 18.8408 17.649 17.229V9.8563L21.5564 8.81353L21.5491 17.229Z" fill="#2574DB"/>
</g>
<defs>
<clipPath id="clip0">
<rect width="126" height="31.3248" fill="white"/>
</clipPath>
</defs>
</svg>
