<svg width="106" height="21" viewBox="0 0 106 21" fill="none" xmlns="http://www.w3.org/2000/svg">
<path d="M7.01414 20.6011L0 0.977589H4.29683L9.26295 15.5011L14.0684 0.977589H18.2716L11.244 20.6011H7.01414Z" fill="black"/>
<path d="M24.2627 20.6011V0.977589H28.2248V20.6011H24.2627Z" fill="black"/>
<path d="M35.0994 14.2161L38.9545 13.8413C39.1865 15.1353 39.655 16.0857 40.36 16.6925C41.0739 17.2993 42.0332 17.6027 43.238 17.6027C44.5141 17.6027 45.4734 17.335 46.1159 16.7996C46.7673 16.2552 47.0931 15.6216 47.0931 14.8988C47.0931 14.4347 46.9547 14.0421 46.6781 13.7208C46.4104 13.3907 45.9374 13.1051 45.2592 12.8641C44.7952 12.7035 43.7377 12.418 42.0868 12.0075C39.9629 11.481 38.4726 10.834 37.6159 10.0665C36.4112 8.98674 35.8089 7.67047 35.8089 6.11772C35.8089 5.11825 36.09 4.18571 36.6522 3.3201C37.2233 2.44556 38.0398 1.78073 39.1018 1.32562C40.1726 0.870502 41.4621 0.642944 42.9702 0.642944C45.4332 0.642944 47.2849 1.18284 48.5253 2.26262C49.7747 3.34241 50.4306 4.78361 50.493 6.58622L46.5309 6.76024C46.3613 5.75184 45.9954 5.02901 45.4332 4.59174C44.8799 4.14555 44.0456 3.92246 42.9301 3.92246C41.7789 3.92246 40.8776 4.15894 40.2262 4.6319C39.8067 4.93531 39.597 5.34135 39.597 5.85001C39.597 6.31405 39.7933 6.71116 40.186 7.04134C40.6857 7.46076 41.8994 7.89803 43.8269 8.35315C45.7545 8.80826 47.1778 9.28123 48.097 9.77204C49.0251 10.2539 49.7479 10.9187 50.2655 11.7665C50.792 12.6054 51.0552 13.645 51.0552 14.8854C51.0552 16.0098 50.7429 17.0628 50.1182 18.0444C49.4936 19.0261 48.6101 19.7578 47.4679 20.2397C46.3256 20.7127 44.9023 20.9491 43.1978 20.9491C40.717 20.9491 38.8117 20.378 37.4821 19.2358C36.1524 18.0846 35.3582 16.4114 35.0994 14.2161Z" fill="black"/>
<path d="M58.3581 20.6011V0.977589H62.3203V20.6011H58.3581Z" fill="black"/>
<path d="M74.6161 20.6011V4.29726H68.7933V0.977589H84.3877V4.29726H78.5783V20.6011H74.6161Z" fill="black"/>
<path d="M90.0442 14.2161L93.8993 13.8413C94.1313 15.1353 94.5998 16.0857 95.3048 16.6925C96.0187 17.2993 96.978 17.6027 98.1827 17.6027C99.4588 17.6027 100.418 17.335 101.061 16.7996C101.712 16.2552 102.038 15.6216 102.038 14.8988C102.038 14.4347 101.9 14.0421 101.623 13.7208C101.355 13.3907 100.882 13.1051 100.204 12.8641C99.7399 12.7035 98.6825 12.418 97.0315 12.0075C94.9077 11.481 93.4174 10.834 92.5607 10.0665C91.356 8.98674 90.7536 7.67047 90.7536 6.11772C90.7536 5.11825 91.0347 4.18571 91.5969 3.3201C92.1681 2.44556 92.9846 1.78073 94.0465 1.32562C95.1174 0.870502 96.4069 0.642944 97.915 0.642944C100.378 0.642944 102.23 1.18284 103.47 2.26262C104.719 3.34241 105.375 4.78361 105.438 6.58622L101.476 6.76024C101.306 5.75184 100.94 5.02901 100.378 4.59174C99.8247 4.14555 98.9903 3.92246 97.8748 3.92246C96.7237 3.92246 95.8224 4.15894 95.1709 4.6319C94.7515 4.93531 94.5418 5.34135 94.5418 5.85001C94.5418 6.31405 94.7381 6.71116 95.1308 7.04134C95.6305 7.46076 96.8441 7.89803 98.7717 8.35315C100.699 8.80826 102.123 9.28123 103.042 9.77204C103.97 10.2539 104.693 10.9187 105.21 11.7665C105.737 12.6054 106 13.645 106 14.8854C106 16.0098 105.688 17.0628 105.063 18.0444C104.438 19.0261 103.555 19.7578 102.413 20.2397C101.27 20.7127 99.847 20.9491 98.1426 20.9491C95.6617 20.9491 93.7565 20.378 92.4268 19.2358C91.0972 18.0846 90.303 16.4114 90.0442 14.2161Z" fill="black"/>
</svg>
