<svg width="135" height="35" viewBox="0 0 135 35" fill="none" xmlns="http://www.w3.org/2000/svg">
<path d="M47.282 2.05505C47.282 2.05505 24.2846 3.57651 22.7631 6.15128L18.6084 28.7391L47.282 2.05505Z" fill="#2175BC"/>
<path opacity="0.61" d="M47.3406 1.99658C47.3406 1.99658 24.4017 3.57656 22.8217 6.09281L18.667 28.6806L47.3406 1.99658Z" fill="url(#paint0_linear)"/>
<path d="M20.9498 5.7417C20.9498 5.7417 21.8276 3.98617 7.13965 4.86394L8.95369 9.36979L20.1305 10.2476L20.9498 5.7417Z" fill="url(#paint1_linear)"/>
<path d="M33.4719 7.67274C33.4719 7.67274 23.3484 7.61423 22.8217 6.32684C22.8217 6.26832 22.8217 6.26832 22.8217 6.20981C22.8217 4.80538 18.667 28.7391 18.667 28.7391L33.4719 7.67274Z" fill="url(#paint2_linear)"/>
<path d="M2.10645 9.25275C2.10645 9.25275 19.7787 8.49202 20.9491 5.7417L16.7944 28.6806L2.10645 9.25275Z" fill="url(#paint3_linear)"/>
<path d="M54.4793 12.8223H56.703L50.7342 26.6325H48.6276L42.7173 12.8223H45.058L49.7394 24.2333L54.4793 12.8223Z" fill="#262626"/>
<path d="M58.8682 26.6325V12.7639H61.0918V26.6325H58.8682Z" fill="#262626"/>
<path d="M64.3101 25.0525L65.0708 23.414C65.8315 23.9992 66.5922 24.4088 67.353 24.7014C68.1137 24.9355 68.9915 25.111 69.9277 25.111C70.9811 25.111 71.7418 24.9355 72.327 24.5844C72.8536 24.2333 73.1462 23.7066 73.1462 23.0044C73.1462 22.4777 72.9707 22.0096 72.6195 21.6585C72.2684 21.3074 71.6248 21.0733 70.8055 20.8978L68.4648 20.3711C67.2945 20.137 66.4167 19.6689 65.773 18.9667C65.1293 18.323 64.8367 17.5037 64.8367 16.5675C64.8367 15.3386 65.3049 14.3438 66.2997 13.5831C67.2945 12.8223 68.5818 12.4127 70.1618 12.4127C71.1566 12.4127 72.0344 12.5883 72.9121 12.8809C73.7899 13.1734 74.4921 13.6416 75.0773 14.2268L74.3166 15.8653C73.0292 14.7534 71.6248 14.2268 70.1618 14.2268C69.167 14.2268 68.4063 14.4023 67.8796 14.8119C67.353 15.163 67.0604 15.6897 67.0604 16.3919C67.0604 16.9771 67.2359 17.3867 67.587 17.7378C67.9381 18.0889 68.4648 18.323 69.2255 18.4985L71.5662 19.0837C72.8536 19.3763 73.7899 19.8444 74.4336 20.4296C75.0773 21.0733 75.3699 21.834 75.3699 22.8288C75.3699 23.9992 74.9017 24.994 73.9069 25.6962C72.9121 26.3984 71.6248 26.7495 69.9277 26.7495C67.5285 26.8666 65.656 26.2229 64.3101 25.0525Z" fill="#262626"/>
<path d="M88.6535 13.3489C89.5898 13.9341 90.292 14.8119 90.8187 15.9237C91.3453 17.0355 91.5794 18.2644 91.5794 19.7273C91.5794 21.1903 91.3453 22.4192 90.8187 23.4725C90.292 24.5258 89.5898 25.4035 88.6535 25.9887C87.7172 26.5739 86.6639 26.8665 85.435 26.8665C84.3232 26.8665 83.3869 26.6324 82.6262 26.1643C81.8069 25.6961 81.2218 24.9939 80.7536 24.1162V32.6597H78.53V16.6844C78.53 15.2215 78.4715 13.9341 78.2959 12.8223H80.4025L80.6366 15.5141C81.0462 14.5778 81.6314 13.8171 82.4506 13.2904C83.2699 12.7638 84.2647 12.5297 85.435 12.5297C86.6639 12.4127 87.7172 12.7638 88.6535 13.3489ZM88.1854 23.5895C88.9461 22.6532 89.2972 21.3658 89.2972 19.6688C89.2972 17.9718 88.9461 16.6844 88.1854 15.6896C87.4246 14.7534 86.3713 14.2852 85.0254 14.2852C83.621 14.2852 82.5677 14.7534 81.8655 15.6896C81.1047 16.6259 80.7536 17.9133 80.7536 19.6103C80.7536 21.3073 81.1047 22.6532 81.8655 23.5895C82.6262 24.5258 83.6795 24.9939 85.0254 24.9939C86.3713 24.9939 87.4246 24.5258 88.1854 23.5895Z" fill="#262626"/>
<path d="M106.384 20.0785H96.202C96.202 21.834 96.6117 22.7703 97.4309 23.6481C98.2501 24.5258 99.362 24.994 100.883 24.994C102.522 24.994 103.985 24.4673 105.331 23.3555L106.092 24.994C105.506 25.5792 104.687 25.9888 103.751 26.3399C102.815 26.691 101.82 26.808 100.825 26.808C98.6598 26.808 96.9628 26.1643 95.7339 24.8769C94.505 23.5896 93.8613 21.834 93.8613 19.6104C93.8613 18.2059 94.1539 16.9186 94.6806 15.8652C95.2072 14.7534 96.0265 13.9342 97.0213 13.2905C98.0161 12.7053 99.1279 12.3542 100.415 12.3542C102.229 12.3542 103.692 12.9394 104.746 14.1682C105.799 15.3971 106.326 17.0356 106.326 19.1422V20.0785H106.384ZM97.665 15.2215C96.9628 15.9238 96.4946 16.9186 96.2606 18.1474H104.336C104.219 16.86 103.868 15.8652 103.166 15.163C102.522 14.4608 101.586 14.1682 100.474 14.1682C99.362 14.1682 98.4257 14.5193 97.665 15.2215Z" fill="#262626"/>
<path d="M117.152 12.5883L117.093 14.6364C116.684 14.4609 116.157 14.4023 115.63 14.4023C114.284 14.4023 113.29 14.812 112.646 15.6312C112.002 16.4505 111.651 17.5038 111.651 18.6741V26.6325H109.427V16.6845C109.427 15.2216 109.369 13.9342 109.193 12.8224H111.3L111.534 15.3971C111.885 14.4609 112.47 13.7586 113.231 13.232C113.992 12.7638 114.87 12.4713 115.864 12.4713C116.391 12.4127 116.801 12.4713 117.152 12.5883Z" fill="#262626"/>
<path d="M131.079 12.7638V26.6325H128.855V24.1162C128.445 24.994 127.86 25.6377 127.041 26.1058C126.222 26.574 125.285 26.808 124.174 26.808C122.945 26.808 121.891 26.5154 120.955 25.9303C120.019 25.3451 119.317 24.5258 118.79 23.414C118.263 22.3607 118.029 21.0733 118.029 19.6689C118.029 18.2059 118.263 16.9771 118.79 15.8652C119.317 14.7534 120.019 13.9342 120.955 13.2905C121.891 12.7053 122.945 12.3542 124.174 12.3542C125.227 12.3542 126.222 12.5883 126.982 13.0564C127.802 13.5245 128.387 14.2267 128.855 15.046V12.6468H131.079V12.7638ZM127.743 23.5896C128.504 22.6533 128.855 21.3659 128.855 19.6104C128.855 17.9134 128.504 16.5675 127.743 15.6897C126.982 14.7534 125.988 14.2853 124.583 14.2853C123.237 14.2853 122.184 14.7534 121.423 15.6897C120.663 16.626 120.253 17.9719 120.253 19.6689C120.253 21.3659 120.604 22.6533 121.365 23.5896C122.126 24.5258 123.179 24.994 124.583 24.994C125.988 24.994 127.041 24.5258 127.743 23.5896Z" fill="#262626"/>
<path d="M59.9806 9.72089C60.7562 9.72089 61.385 9.09211 61.385 8.31647C61.385 7.54083 60.7562 6.91205 59.9806 6.91205C59.205 6.91205 58.5762 7.54083 58.5762 8.31647C58.5762 9.09211 59.205 9.72089 59.9806 9.72089Z" fill="#262626"/>
<defs>
<linearGradient id="paint0_linear" x1="46.4241" y1="15.3688" x2="21.3535" y2="15.3688" gradientUnits="userSpaceOnUse">
<stop offset="0.3554" stop-color="#2075BC"/>
<stop offset="0.6455" stop-color="#2390B2"/>
<stop offset="0.8762" stop-color="#26A1A9"/>
<stop offset="1" stop-color="#28A7A4"/>
</linearGradient>
<linearGradient id="paint1_linear" x1="7.11829" y1="7.42701" x2="20.9643" y2="7.42701" gradientUnits="userSpaceOnUse">
<stop stop-color="#E55948"/>
<stop offset="0.541" stop-color="#E55B47"/>
<stop offset="1" stop-color="#F28E34"/>
</linearGradient>
<linearGradient id="paint2_linear" x1="16.4258" y1="16.1741" x2="38.5604" y2="20.879" gradientUnits="userSpaceOnUse">
<stop stop-color="#2075BC"/>
<stop offset="0.2755" stop-color="#27A6A5"/>
<stop offset="1" stop-color="#2AB59D"/>
</linearGradient>
<linearGradient id="paint3_linear" x1="2.09679" y1="17.2191" x2="20.9528" y2="17.2191" gradientUnits="userSpaceOnUse">
<stop offset="0.4796" stop-color="#FAB824"/>
<stop offset="1" stop-color="#F08438"/>
</linearGradient>
</defs>
</svg>
