<svg width="114" height="19" viewBox="0 0 114 19" fill="none" xmlns="http://www.w3.org/2000/svg">
<path d="M48.9741 17.4193L43.983 3.2072C43.8967 2.98867 43.843 2.75863 43.8237 2.52447C43.8286 2.20129 43.9615 1.89325 44.1932 1.66792C44.4249 1.4426 44.7366 1.3184 45.0598 1.32258C45.697 1.32258 46.1109 1.74929 46.3043 2.3609L50.4391 14.6073L54.6023 2.32676C54.7929 1.74502 55.1712 1.32258 55.8085 1.32258H55.9379C56.6064 1.32258 57.0189 1.74929 57.2095 2.32676L61.3343 14.6073L65.5416 2.29689C65.7009 1.77631 66.0494 1.32258 66.7193 1.32258C66.8756 1.31976 67.0308 1.34784 67.1762 1.40521C67.3216 1.46258 67.4542 1.54811 67.5664 1.65689C67.6786 1.76567 67.7682 1.89554 67.8301 2.03906C67.892 2.18258 67.9248 2.33691 67.9269 2.49318C67.9071 2.7268 67.8534 2.9563 67.7676 3.17448L62.7438 17.4193C62.4864 18.1632 61.9815 18.5572 61.4068 18.5572H61.313C60.6757 18.5572 60.1978 18.1675 59.9745 17.4193L55.8753 5.34214L51.7405 17.4193C51.5186 18.1632 51.0393 18.5572 50.4049 18.5572H50.3395C49.7364 18.5572 49.2287 18.1675 48.9741 17.4193Z" fill="#333333"/>
<path d="M85.3561 2.56151C85.3511 2.23349 85.4749 1.91657 85.7009 1.67881C85.927 1.44106 86.2372 1.30144 86.5651 1.28993C86.731 1.28911 86.8954 1.32165 87.0484 1.38562C87.2015 1.44959 87.3401 1.54368 87.4561 1.66231C87.5721 1.78094 87.663 1.92167 87.7235 2.07614C87.784 2.23062 87.8128 2.39568 87.8082 2.56151V5.44604C89.0187 2.64401 91.6998 1.32122 93.4777 1.32122C94.2131 1.32122 94.6896 1.87736 94.6896 2.59138C94.7004 2.90065 94.595 3.20276 94.3941 3.43814C94.1932 3.67353 93.9114 3.8251 93.6043 3.86296C90.4182 4.25269 87.8082 6.69771 87.8082 11.5508V17.2615C87.8082 17.5867 87.6791 17.8985 87.4491 18.1285C87.2192 18.3584 86.9073 18.4876 86.5822 18.4876C86.257 18.4876 85.9451 18.3584 85.7152 18.1285C85.4853 17.8985 85.3561 17.5867 85.3561 17.2615V2.56151Z" fill="#333333"/>
<path d="M102.554 18.6895C98.1218 18.6895 94.5005 15.1748 94.5005 10.0131V9.94486C94.5005 5.14585 97.7719 1.27563 102.241 1.27563C107.014 1.27563 109.732 5.30231 109.732 9.72013C109.736 9.87063 109.709 10.0203 109.654 10.1605C109.6 10.3007 109.517 10.4286 109.413 10.5368C109.308 10.645 109.183 10.7314 109.045 10.7909C108.907 10.8505 108.758 10.882 108.607 10.8836H96.9441C97.2826 14.4921 99.7461 16.5247 102.622 16.5247C104.613 16.5247 106.083 15.7168 107.27 14.5874C107.457 14.4116 107.702 14.3104 107.959 14.3029C108.176 14.3025 108.388 14.3688 108.566 14.493C108.744 14.6172 108.88 14.7932 108.955 14.9972C109.029 15.2011 109.04 15.4231 108.984 15.633C108.928 15.8429 108.809 16.0306 108.643 16.1705C107.115 17.6853 105.305 18.6881 102.558 18.6881L102.554 18.6895ZM107.333 9.04736C107.084 6.01775 105.399 3.38214 102.184 3.38214C99.3749 3.38214 97.2513 5.80013 96.9455 9.05447L107.333 9.04736Z" fill="#333333"/>
<path d="M67.9697 13.4695V13.404C67.9697 9.86523 70.8301 7.9792 74.9876 7.9792C76.6983 7.96085 78.402 8.20061 80.0412 8.69037V8.11005C80.0412 5.0904 78.2263 3.53151 75.1483 3.53151C73.4956 3.53151 72.5355 3.74628 71.3265 4.29531C71.1866 4.35751 71.0357 4.39135 70.8827 4.39487C70.5992 4.38982 70.3286 4.27543 70.1274 4.07558C69.9262 3.87574 69.8101 3.6059 69.8031 3.32242C69.7875 3.10021 69.844 2.87889 69.9642 2.69133C70.0844 2.50377 70.2618 2.35996 70.4702 2.28126C72.0874 1.57008 73.3064 1.32544 75.4015 1.32544C77.7185 1.32544 79.4993 1.93989 80.7026 3.1745C81.8149 4.31238 82.3881 5.9367 82.3881 8.07876V17.344C82.3881 18.0551 81.8803 18.5786 81.2075 18.5786C81.0529 18.5825 80.8992 18.5549 80.7556 18.4974C80.612 18.4399 80.4817 18.3537 80.3725 18.2442C80.2634 18.1346 80.1777 18.004 80.1207 17.8602C80.0638 17.7164 80.0367 17.5625 80.0412 17.408V15.8078C78.8962 17.3354 76.9888 18.698 74.1043 18.698C71.0534 18.698 67.9697 16.9116 67.9697 13.4695V13.4695ZM80.0711 12.1709V10.548C78.5048 10.0765 76.8779 9.83689 75.2422 9.83679C72.1642 9.83679 70.446 11.2022 70.446 13.3102V13.3756C70.446 15.4864 72.3534 16.7195 74.5709 16.7195C77.5862 16.7195 80.0654 14.8363 80.0654 12.1766" fill="#333333"/>
<path d="M4.48615 2.37663C4.36649 2.08932 4.18963 1.82935 3.96633 1.61256C3.74302 1.39577 3.47794 1.22667 3.18721 1.11557C2.89648 1.00447 2.58619 0.953683 2.27522 0.9663C1.96424 0.978918 1.65908 1.05468 1.37831 1.18896C0.1366 1.75791 -0.328508 3.16319 0.240432 4.36934L5.4505 15.953C6.2712 17.7679 7.13314 18.718 8.75462 18.718C10.4885 18.718 11.2423 17.6825 12.0602 15.953C12.0602 15.953 16.6117 5.83152 16.6515 5.72484C16.7015 5.59372 16.7918 5.48181 16.9093 5.40515C17.0268 5.32849 17.1656 5.29103 17.3058 5.29814C17.4022 5.29999 17.4973 5.32081 17.5856 5.35941C17.6739 5.39801 17.7538 5.45364 17.8206 5.52312C17.8875 5.59259 17.94 5.67456 17.9751 5.76432C18.0103 5.85409 18.0274 5.94991 18.0255 6.04629V15.9459C18.0255 17.4706 18.8533 18.7223 20.4435 18.7223C22.0337 18.7223 22.9027 17.4635 22.9027 15.9416V7.84272C22.9027 6.27814 23.9951 5.26969 25.4872 5.26969C26.9792 5.26969 27.9734 6.31654 27.9734 7.84272V15.9416C27.9734 17.4663 28.8027 18.718 30.3914 18.718C31.9802 18.718 32.8464 17.4663 32.8464 15.9416V7.84272C32.8464 6.27814 33.9373 5.26969 35.4294 5.26969C36.9214 5.26969 37.9142 6.31654 37.9142 7.84272V15.9416C37.9142 17.4663 38.7435 18.718 40.3322 18.718C41.921 18.718 42.7844 17.4663 42.7844 15.9416V6.72475C42.7815 3.33814 40.1132 0.964233 36.9129 0.964233C33.7126 0.964233 31.7057 3.22862 31.7057 3.22862C30.6418 1.81764 29.171 0.964233 26.6862 0.964233C24.0605 0.964233 21.7649 3.22862 21.7649 3.22862C20.6995 1.81764 18.8846 0.964233 17.3812 0.964233C15.0556 0.964233 13.208 2.01108 12.0815 4.6467L8.75462 12.6673L4.48757 2.37663" fill="#333333"/>
<path d="M109.936 3.38213V3.36791C109.936 3.10118 109.988 2.83695 110.089 2.59031C110.191 2.34367 110.34 2.11944 110.528 1.93044C110.716 1.74144 110.94 1.59136 111.186 1.48877C111.432 1.38618 111.696 1.33308 111.963 1.33252C112.23 1.33196 112.494 1.38395 112.741 1.4855C112.987 1.58706 113.212 1.7362 113.401 1.92441C113.59 2.11262 113.74 2.33621 113.842 2.58242C113.945 2.82864 113.998 3.09264 113.998 3.35937V3.36791C114.01 3.64097 113.966 3.91347 113.869 4.16912C113.772 4.42477 113.625 4.65831 113.436 4.85578C113.247 5.05326 113.021 5.2106 112.769 5.31841C112.518 5.42622 112.248 5.48228 111.975 5.48324C111.701 5.48419 111.431 5.43003 111.179 5.32398C110.927 5.21793 110.699 5.06218 110.509 4.86603C110.319 4.66989 110.17 4.43738 110.071 4.18242C109.973 3.92745 109.927 3.65526 109.936 3.38213V3.38213ZM113.609 3.36791V3.3608C113.617 3.13911 113.581 2.91794 113.502 2.71059C113.423 2.50324 113.303 2.314 113.149 2.15422C112.995 1.99445 112.811 1.86746 112.607 1.78087C112.402 1.69429 112.183 1.6499 111.961 1.65038C111.739 1.65086 111.519 1.6962 111.316 1.78367C111.112 1.87113 110.928 1.99893 110.774 2.15936C110.621 2.3198 110.502 2.50956 110.424 2.71725C110.346 2.92494 110.311 3.14626 110.32 3.36791V3.38213C110.312 3.60382 110.348 3.82493 110.428 4.03215C110.507 4.23938 110.627 4.42846 110.781 4.58801C110.935 4.74757 111.12 4.87431 111.324 4.96062C111.529 5.04693 111.749 5.09103 111.97 5.09026C112.192 5.08949 112.412 5.04388 112.615 4.95615C112.819 4.86843 113.003 4.74041 113.156 4.5798C113.309 4.41918 113.428 4.22927 113.506 4.0215C113.584 3.81373 113.619 3.59238 113.609 3.37075" fill="#333333"/>
<path d="M111.188 2.54434C111.187 2.51527 111.193 2.48645 111.204 2.45954C111.215 2.43262 111.231 2.40815 111.252 2.38753C111.272 2.36691 111.297 2.35054 111.323 2.33937C111.35 2.3282 111.379 2.32245 111.408 2.32245H112.084C112.188 2.31583 112.292 2.33073 112.39 2.36622C112.488 2.40171 112.577 2.45702 112.653 2.52869C112.71 2.58986 112.755 2.66187 112.784 2.74051C112.813 2.81915 112.827 2.90284 112.823 2.98669V2.98669C112.831 3.11677 112.798 3.24606 112.728 3.35578C112.657 3.46551 112.554 3.54996 112.432 3.59688L112.731 3.97096C112.773 4.01749 112.797 4.07749 112.799 4.14022C112.799 4.16705 112.794 4.19365 112.784 4.21849C112.774 4.24333 112.759 4.26592 112.74 4.28496C112.721 4.304 112.699 4.31911 112.674 4.32942C112.649 4.33973 112.623 4.34504 112.596 4.34504C112.554 4.34451 112.512 4.3339 112.475 4.3141C112.438 4.2943 112.406 4.26589 112.382 4.23125L111.956 3.68507H111.61V4.12457C111.611 4.1532 111.605 4.18166 111.595 4.20829C111.584 4.23492 111.569 4.2592 111.549 4.27971C111.529 4.30022 111.505 4.31655 111.479 4.32777C111.452 4.33898 111.424 4.34485 111.395 4.34504C111.366 4.34523 111.338 4.33965 111.311 4.32864C111.284 4.31763 111.259 4.30139 111.239 4.28088C111.218 4.26038 111.202 4.236 111.191 4.20916C111.18 4.18233 111.175 4.15358 111.175 4.12457L111.188 2.54434ZM112.062 3.29961C112.273 3.29961 112.39 3.18724 112.39 3.01514C112.39 2.82739 112.263 2.73067 112.052 2.73067H111.626V3.30814L112.062 3.29961Z" fill="#333333"/>
</svg>
