<svg width="112" height="10" viewBox="0 0 112 10" fill="none" xmlns="http://www.w3.org/2000/svg">
<g clip-path="url(#clip0)">
<path d="M1.89694 1.86127L5.75168 8.86461L10.2151 8.86807L14.004 1.86027L15.9031 1.86127V0.591225H10.1906V1.86027H11.8404L9.08141 6.96191L6.28525 1.86127L8.29044 1.86027L8.28997 0.591225H0.00165893L0 1.86127H1.89694V1.86127ZM51.0097 1.85795L51.0089 0.591272L58.6518 0.592286V1.85795H56.7483V7.57488H58.5132C60.1487 7.57488 61.2208 6.49489 61.2208 5.02913H62.4816V8.85724L51.0089 8.85816V7.57664H52.9357L52.9332 1.85795H51.0097V1.85795ZM32.4341 7.79621C31.0327 7.77088 30.4165 6.22185 30.4434 4.68269C30.4713 3.08864 31.234 1.6987 32.5469 1.72156C33.8598 1.7446 34.5529 3.16113 34.5248 4.7544C34.4981 6.25756 33.8776 7.82249 32.4341 7.79621V7.79621ZM32.4767 0.416809C28.6389 0.416809 26.6005 2.33144 26.6005 4.73388C26.6005 7.16951 28.5632 9.11115 32.4989 9.11115C36.4332 9.11115 38.3751 7.16951 38.3751 4.73388C38.3751 2.33144 36.3152 0.416809 32.4767 0.416809V0.416809ZM75.5192 1.86127L79.3738 8.86461L83.8373 8.86807L87.6262 1.86027L89.5253 1.86127V0.591225H83.8126V1.86027H85.4626L82.7037 6.96191L79.9075 1.86127L81.9127 1.86027L81.9123 0.591225H73.6238L73.6222 1.86127H75.5192V1.86127ZM106.059 7.79621C104.657 7.77088 104.041 6.22185 104.068 4.68269C104.096 3.08864 104.859 1.6987 106.171 1.72156C107.484 1.7446 108.177 3.16113 108.149 4.7544C108.123 6.25756 107.502 7.82249 106.059 7.79621V7.79621ZM106.101 0.416809C102.263 0.416809 100.225 2.33144 100.225 4.73388C100.225 7.16951 102.188 9.11115 106.123 9.11115C110.058 9.11115 112 7.16951 112 4.73388C112 2.33144 109.94 0.416809 106.101 0.416809Z" fill="#161618"/>
</g>
<defs>
<clipPath id="clip0">
<rect width="112" height="8.69424" fill="white" transform="translate(0 0.417847)"/>
</clipPath>
</defs>
</svg>
