<svg width="114" height="28" viewBox="0 0 114 28" fill="none" xmlns="http://www.w3.org/2000/svg">
<g clip-path="url(#clip0)">
<path d="M24.5752 22.7339C29.3988 22.7339 33.309 18.8236 33.309 14C33.309 9.1764 29.3988 5.26611 24.5752 5.26611C19.7516 5.26611 15.8413 9.1764 15.8413 14C15.8413 18.8236 19.7516 22.7339 24.5752 22.7339Z" fill="#4081CB"/>
<path d="M14.7344 3.19393V7.13245L17.133 5.67343C19.3782 4.30593 21.9564 3.58258 24.5853 3.58258C27.2141 3.58258 29.7923 4.30593 32.0376 5.67343L32.3244 5.84811V5.84995L32.3887 5.88672V2.03003L32.3253 1.99877C29.6655 0.699901 26.7217 0.0911185 23.7649 0.228483C20.8081 0.365848 17.9334 1.24494 15.4055 2.78482L14.7344 3.19393V3.19393ZM34.4279 24.8061V20.8676L32.0293 22.3257C29.7841 23.6933 27.2059 24.4167 24.577 24.4167C21.9481 24.4167 19.3699 23.6933 17.1247 22.3257L16.8369 22.151V22.1492L16.7597 22.1097V25.9673L16.8369 26.0031C19.4968 27.3018 22.4407 27.9104 25.3975 27.7728C28.3542 27.6353 31.2289 26.7561 33.7567 25.2162L34.4279 24.807V24.8061Z" fill="#4081CB"/>
<path d="M14.7244 7.1342V3.19385L0.211426 12.0206V15.9802L14.7244 24.8079V20.8675L3.43468 13.9999L14.7244 7.1342ZM34.4261 24.8079L48.9391 15.9802V12.0206L34.4261 3.19477V7.1342L45.7158 13.9999L34.4261 20.8675V24.807V24.8079ZM77.3867 19.1024C77.0575 19.1851 76.6457 19.2311 76.1419 19.2311C75.1352 19.2311 74.2848 19.1299 73.5971 18.9295C72.9916 18.7599 72.4058 18.5266 71.8494 18.2336L70.8418 21.0716C71.0532 21.1902 71.318 21.318 71.6297 21.4559C71.9404 21.5846 72.3063 21.7124 72.7458 21.8402C73.1852 21.9689 73.6798 22.0691 74.2471 22.1509C74.8152 22.2337 75.4468 22.2797 76.1511 22.2797C78.238 22.2797 79.8037 21.8678 80.8379 21.0532C81.8722 20.2378 82.3944 19.0941 82.3944 17.6112C82.3944 16.8518 82.3025 16.2018 82.1011 15.6713C81.9048 15.1464 81.5953 14.6712 81.1946 14.2794C80.792 13.8768 80.2891 13.5283 79.6759 13.235C78.9752 12.8956 78.2571 12.5934 77.5246 12.3295C77.1586 12.2031 76.7953 12.0689 76.4351 11.9268C76.1328 11.8063 75.8418 11.6592 75.5654 11.4873C75.3089 11.3219 75.1168 11.1481 74.9798 10.9468C74.8424 10.7278 74.7721 10.4734 74.7775 10.215C74.7775 9.72035 74.9614 9.36364 75.3365 9.12552C75.7116 8.88741 76.3248 8.76882 77.1761 8.76882C77.9456 8.76882 78.5956 8.86075 79.1353 9.03359C79.6759 9.20827 80.1696 9.40961 80.609 9.63761L81.6341 6.82898C81.1312 6.55409 80.4812 6.31598 79.7126 6.07786C78.9431 5.83975 78.0183 5.73035 76.9481 5.73035C76.0508 5.73035 75.2363 5.84067 74.521 6.05948C73.856 6.25717 73.2349 6.58049 72.6915 7.01193C72.1899 7.41493 71.7886 7.92885 71.5193 8.51323C71.2445 9.09886 71.1075 9.75804 71.1075 10.4898C71.1075 11.2226 71.2362 11.845 71.4918 12.358C71.7403 12.8524 72.0825 13.2939 72.4994 13.6579C72.9021 14.0238 73.3682 14.3162 73.8904 14.5543C74.4116 14.7933 74.9246 15.003 75.4468 15.1859C76.6365 15.5794 77.4786 15.9462 77.964 16.2937C78.4485 16.633 78.6958 17.0632 78.6958 17.5845C78.6958 17.8226 78.659 18.0423 78.5855 18.2437C78.5129 18.4358 78.3759 18.6096 78.1746 18.7567C77.9815 18.9029 77.7167 19.0215 77.3867 19.1042V19.1024ZM59.3167 17.8033C59.9146 19.1965 60.5374 20.5788 61.1849 21.9496V21.9404H64.581C65.2284 20.5742 65.8478 19.1948 66.439 17.8033C67.0398 16.3931 67.6197 14.9741 68.1784 13.5467C68.6999 12.2098 69.2065 10.8672 69.6981 9.51901C70.1642 8.24662 70.5669 7.10203 70.9245 6.08614H67.1257C66.8084 7.08191 66.4787 8.07366 66.1365 9.06117C65.7798 10.123 65.4047 11.1757 65.0296 12.2283C64.6536 13.281 64.2877 14.2877 63.931 15.2493C63.6259 16.0876 63.2992 16.9177 62.951 17.739C62.5895 16.919 62.2599 16.0855 61.9627 15.2402C61.7586 14.661 61.5453 14.0671 61.3255 13.4557L61.3246 13.4529C61.1794 13.0484 61.0313 12.6375 60.8833 12.2192C60.5073 11.1665 60.1414 10.1138 59.7746 9.05198C59.4087 7.99012 59.0796 7.00182 58.7863 6.08614H54.8505C55.1888 7.09283 55.5915 8.23743 56.0494 9.51901C56.5355 10.8689 57.0421 12.2113 57.5691 13.5458C58.1277 14.9745 58.7106 16.3936 59.3177 17.8024L59.3167 17.8033ZM93.5618 6.09533H97.1317V21.9505H93.5618V15.2218H87.5658V21.9505H83.9959V6.09533H87.5658V12.1557H93.5618V6.09533ZM106.972 16.5677C108.144 18.3196 109.25 20.1151 110.286 21.9505H113.288V6.09533H109.737V15.4415C109.159 14.5786 108.573 13.7211 107.979 12.8691C107.367 11.9973 106.738 11.1369 106.094 10.2885C105.49 9.49209 104.868 8.7104 104.226 7.94415C103.7 7.30229 103.145 6.68563 102.56 6.09625H99.6498V21.9505H103.174V11.5517C104.535 13.1497 105.803 14.8244 106.972 16.5677V16.5677Z" fill="#444444"/>
</g>
<defs>
<clipPath id="clip0">
<rect width="114" height="27.5806" fill="white" transform="translate(0 0.209717)"/>
</clipPath>
</defs>
</svg>
