<svg width="61" height="62" viewBox="0 0 61 62" fill="none" xmlns="http://www.w3.org/2000/svg">
<g clip-path="url(#clip0)">
<path fill-rule="evenodd" clip-rule="evenodd" d="M21.106 51.6683C20.9382 51.923 20.5822 52.0442 20.265 52.0442C19.6336 52.0442 19.289 51.6066 19.2371 50.979H22.8437V51.6683H21.1052H21.106ZM20.2451 49.0323C20.8102 49.0323 21.1761 49.4388 21.1761 49.9664H19.247C19.3446 49.3557 19.69 49.0323 20.2459 49.0323H20.2451ZM22.8437 49.5913C22.493 48.4208 21.6298 47.775 20.1567 47.775C19.019 47.775 18.1528 48.3522 17.7136 49.2032L18.1162 47.9069H16.0956L15.375 51.1811H15.3354L14.6415 47.9077H12.8214L12.1665 51.1811H12.1375L11.3651 47.9077H9.34673L10.9495 53.1697H12.9396L13.7113 49.9146H13.7395L14.4921 53.1704H16.4822L17.4269 50.1281C17.4063 50.2692 17.3953 50.4116 17.3941 50.5543C17.3941 52.3073 18.6042 53.3016 20.2459 53.3016C21.3752 53.3016 22.3954 52.8334 22.8437 51.8284V53.1704H24.7729V45.9297H22.8437V49.5913ZM49.2156 49.0323C49.7798 49.0323 50.1435 49.4388 50.1435 49.9664H48.2152C48.3151 49.3557 48.662 49.0323 49.2156 49.0323ZM49.2354 52.0442C48.6002 52.0442 48.2563 51.6066 48.2068 50.979H51.9964C51.9873 48.9409 51.1066 47.775 49.1271 47.775C47.75 47.775 46.771 48.6214 46.4675 49.775V49.5509C46.4675 48.6976 46.023 47.775 44.7138 47.775C43.9543 47.775 43.4861 48.048 43.2193 48.311C43.1918 48.3431 43.1613 48.3736 43.1415 48.4025C43.0424 48.5062 42.9928 48.5764 42.9532 48.6168C42.7069 48.0693 42.1113 47.775 41.5677 47.775C40.8563 47.775 40.2813 47.9984 39.8765 48.6168H39.846V47.9077H37.9748V53.1697H39.9062V50.3202C39.9062 49.7628 40.0739 49.3473 40.5886 49.3473C41.2124 49.3473 41.2505 49.8231 41.2505 50.3202V53.1697H43.1918V50.3202C43.1918 49.7628 43.3596 49.3473 43.8727 49.3473C44.4865 49.3473 44.5361 49.8231 44.5361 50.3202V53.1697H46.4675V51.3687C46.7862 52.6108 47.8484 53.3016 49.2163 53.3016C50.4051 53.3016 51.4733 52.7854 51.879 51.6683H50.0757C49.9094 51.923 49.5526 52.0442 49.2361 52.0442H49.2354ZM35.1741 51.8711C34.4116 51.8711 34.3026 51.101 34.3026 50.533C34.3026 49.9664 34.4124 49.2047 35.1741 49.2047C35.9343 49.2047 36.0434 49.9664 36.0434 50.533C36.0434 51.101 35.9343 51.8711 35.1741 51.8711ZM30.8218 51.0888C30.7715 51.5158 30.5061 51.8711 30.0006 51.8711C29.3768 51.8711 29.1488 51.3854 29.1488 50.5421C29.1488 49.9031 29.3067 49.2047 30.0394 49.2047C30.497 49.2047 30.7714 49.5097 30.7714 50.0373H32.4078C32.3573 50.3862 32.3604 50.7408 32.4169 51.0888H30.8218ZM35.1741 47.775C33.733 47.775 32.8813 48.5009 32.5435 49.4754C32.2598 48.292 31.1786 47.775 30.0394 47.775C28.6059 47.775 27.5179 48.6259 27.2708 49.9557V45.9297H25.3402V53.1697H27.2708V51.1849C27.514 52.5803 28.5693 53.3016 29.98 53.3016C31.187 53.3016 32.1813 52.7023 32.5496 51.6096C32.8927 52.5795 33.7414 53.3016 35.1741 53.3016C37.1032 53.3016 37.974 51.9939 37.974 50.5337C37.974 49.0743 37.1032 47.775 35.1741 47.775ZM42.3569 11.1163L38.292 26.5592C37.2337 22.5261 36.1639 18.496 35.0826 14.469C34.4612 12.2059 32.9552 11.1186 30.7326 11.1186C28.3269 11.1186 26.5868 11.1163 26.5868 11.1163H26.5678L22.4998 26.5722L18.4319 11.1163L9.3086 12.1762C9.3086 12.1762 14.3198 31.2554 15.2355 34.7172C15.8211 36.933 16.9961 38.4306 19.2356 39.0383C21.5513 39.6673 26.32 41.0879 26.32 41.0879L30.3948 25.5885C31.63 30.2855 32.5755 33.7381 32.9461 35.0946C33.4997 37.1221 34.831 38.413 37.1475 39.0939C40.2813 40.015 43.875 41.0879 43.875 41.0879L51.4939 12.1205L42.3561 11.1163H42.3569ZM0 61.5H60.8048V0.69519H0V61.5Z" fill="black"/>
</g>
<defs>
<clipPath id="clip0">
<rect width="61" height="61" fill="white" transform="translate(0 0.5)"/>
</clipPath>
</defs>
</svg>
