<svg width="130" height="30" viewBox="0 0 130 30" fill="none" xmlns="http://www.w3.org/2000/svg">
<g clip-path="url(#clip0)">
<path d="M75.5523 11.8303H70.4493V12.3717C72.0455 12.3717 72.3021 12.7137 72.3021 14.7379V18.3871C72.3021 20.411 72.0457 20.7816 70.4493 20.7816C69.2238 20.6107 68.3968 19.9549 67.2565 18.7006L65.9453 17.2753C67.7127 16.9613 68.6532 15.8499 68.6532 14.5953C68.6532 13.0277 67.3137 11.8303 64.8048 11.8303H59.7876V12.3717C61.3837 12.3717 61.6404 12.7137 61.6404 14.7379V18.3871C61.6404 20.411 61.3837 20.7816 59.7876 20.7816V21.3232H65.4604V20.7816C63.8643 20.7816 63.6077 20.411 63.6077 18.3871V17.361H64.0921L67.2565 21.3232H75.5523C79.6287 21.3232 81.3963 19.1569 81.3963 16.5624C81.3963 13.9683 79.6289 11.8303 75.5523 11.8303ZM63.6079 16.4767V12.6857H64.7765C66.0591 12.6857 66.6295 13.5693 66.6295 14.5956C66.6295 15.5935 66.0591 16.4769 64.7765 16.4769H63.6079V16.4767ZM75.638 20.4396H75.4382C74.4122 20.4396 74.2696 20.1832 74.2696 18.8717V12.6857C74.2696 12.6857 75.5239 12.6857 75.638 12.6857C78.6027 12.6857 79.144 14.8519 79.144 16.534C79.144 18.2728 78.6024 20.4396 75.638 20.4396Z" fill="#00749A"/>
<path d="M43.9096 17.5321L45.8766 11.7162C46.447 10.0343 46.1904 9.54987 44.3659 9.54987V8.97949H49.7252V9.54987C47.9294 9.54987 47.5018 9.97742 46.7891 12.0585L43.5389 21.808H43.1685L40.2604 12.885L37.296 21.808H36.9253L33.7611 12.0585C33.0769 9.97742 32.6208 9.54987 30.9673 9.54987V8.97949H37.296V9.54987C35.6139 9.54987 35.1575 9.94885 35.7565 11.7162L37.6664 17.5321L40.5456 8.97949H41.0874L43.9096 17.5321Z" fill="#00749A"/>
<path d="M53.6023 21.6937C50.4666 21.6937 47.9009 19.3848 47.9009 16.5622C47.9009 13.7686 50.4669 11.4592 53.6023 11.4592C56.7382 11.4592 59.3037 13.7686 59.3037 16.5622C59.3037 19.3848 56.7382 21.6937 53.6023 21.6937ZM53.6023 12.3436C50.9799 12.3436 50.0674 14.7094 50.0674 16.5624C50.0674 18.4442 50.9799 20.7817 53.6023 20.7817C56.2537 20.7817 57.166 18.4442 57.166 16.5624C57.166 14.7094 56.2537 12.3436 53.6023 12.3436Z" fill="#00749A"/>
<path d="M88.4373 20.7532V21.3233H81.9092V20.7532C83.8193 20.7532 84.1614 20.2687 84.1614 17.4176V12.8567C84.1614 10.0055 83.8193 9.54963 81.9092 9.54963V8.97925H87.8101C90.7462 8.97925 92.3717 10.4902 92.3717 12.5146C92.3717 14.4816 90.7462 16.0209 87.8101 16.0209H86.1851V17.4173C86.1851 20.2687 86.5272 20.7532 88.4373 20.7532ZM87.8101 10.0055H86.1851V14.9661H87.8101C89.4067 14.9661 90.1478 13.8544 90.1478 12.5146C90.1478 11.1463 89.4067 10.0055 87.8101 10.0055Z" fill="#464342"/>
<path d="M111.955 18.6437L111.813 19.1567C111.556 20.0975 111.242 20.4396 109.218 20.4396H108.819C107.337 20.4396 107.08 20.0975 107.08 18.0735V16.7623C109.304 16.7623 109.475 16.9616 109.475 18.4442H110.017V14.1963H109.475C109.475 15.6787 109.304 15.8782 107.08 15.8782V12.6857H108.648C110.672 12.6857 110.986 13.0277 111.242 13.9685L111.385 14.5099H111.841L111.642 11.8303H103.26V12.3717C104.856 12.3717 105.113 12.7137 105.113 14.7379V18.3871C105.113 20.2386 104.895 20.7051 103.637 20.7716C102.441 20.5889 101.619 19.9364 100.496 18.7006L99.1841 17.2753C100.952 16.9613 101.892 15.8499 101.892 14.5953C101.892 13.0277 100.553 11.8303 98.0441 11.8303H93.0269V12.3717C94.623 12.3717 94.8796 12.7137 94.8796 14.7379V18.3871C94.8796 20.411 94.6232 20.7816 93.0269 20.7816V21.3232H98.6999V20.7816C97.1038 20.7816 96.8469 20.411 96.8469 18.3871V17.361H97.3316L100.496 21.3232H112.212L112.383 18.6439H111.955V18.6437ZM96.8467 16.4767V12.6857H98.0153C99.2982 12.6857 99.8685 13.5693 99.8685 14.5956C99.8685 15.5935 99.2982 16.4769 98.0153 16.4769H96.8467V16.4767Z" fill="#464342"/>
<path d="M117.743 21.6937C116.602 21.6937 115.604 21.0952 115.177 20.7243C115.034 20.8671 114.778 21.2947 114.721 21.6937H114.179V17.7601H114.749C114.978 19.6414 116.289 20.7531 117.971 20.7531C118.883 20.7531 119.624 20.2401 119.624 19.385C119.624 18.644 118.969 18.0736 117.8 17.532L116.175 16.7624C115.034 16.2203 114.179 15.2795 114.179 14.0255C114.179 12.6571 115.462 11.4885 117.23 11.4885C118.17 11.4885 118.968 11.8306 119.453 12.2296C119.596 12.1156 119.738 11.8018 119.824 11.4595H120.366V14.8237H119.767C119.567 13.4836 118.826 12.3719 117.315 12.3719C116.517 12.3719 115.776 12.828 115.776 13.541C115.776 14.2821 116.374 14.6811 117.743 15.3083L119.31 16.078C120.679 16.7336 121.22 17.7889 121.22 18.644C121.22 20.4396 119.653 21.6937 117.743 21.6937Z" fill="#464342"/>
<path d="M126.523 21.6937C125.382 21.6937 124.384 21.0952 123.957 20.7243C123.814 20.8671 123.558 21.2947 123.501 21.6937H122.959V17.7601H123.529C123.757 19.6414 125.069 20.7531 126.751 20.7531C127.663 20.7531 128.404 20.2401 128.404 19.385C128.404 18.644 127.749 18.0736 126.58 17.532L124.955 16.7624C123.814 16.2203 122.959 15.2795 122.959 14.0255C122.959 12.6571 124.242 11.4885 126.009 11.4885C126.95 11.4885 127.748 11.8306 128.233 12.2296C128.375 12.1156 128.518 11.8018 128.603 11.4595H129.145V14.8237H128.547C128.347 13.4836 127.606 12.3719 126.095 12.3719C125.297 12.3719 124.555 12.828 124.555 13.541C124.555 14.2821 125.154 14.6811 126.523 15.3083L128.09 16.078C129.459 16.7336 130 17.7889 130 18.644C130 20.4396 128.432 21.6937 126.523 21.6937Z" fill="#464342"/>
<path d="M2.45898 14.9591C2.45898 19.9528 5.36106 24.2683 9.56929 26.3134L3.55125 9.82471C2.85124 11.3937 2.45898 13.1301 2.45898 14.9591Z" fill="#464342"/>
<path d="M23.592 14.3224C23.592 12.7633 23.0319 11.6835 22.5516 10.843C21.912 9.80381 21.3126 8.92376 21.3126 7.88454C21.3126 6.72482 22.1922 5.64528 23.4311 5.64528C23.4871 5.64528 23.5401 5.65224 23.5946 5.65536C21.3501 3.59901 18.3597 2.34351 15.0752 2.34351C10.6677 2.34351 6.79001 4.60486 4.53418 8.03002C4.83017 8.0389 5.10912 8.04514 5.34606 8.04514C6.66566 8.04514 8.70832 7.88502 8.70832 7.88502C9.38841 7.84493 9.46859 8.84382 8.78922 8.92424C8.78922 8.92424 8.10578 9.00466 7.34527 9.04451L11.9395 22.7099L14.7004 14.4295L12.7348 9.04403C12.0555 9.00418 11.4119 8.92376 11.4119 8.92376C10.732 8.88391 10.8117 7.84445 11.4916 7.88454C11.4916 7.88454 13.575 8.04466 14.8147 8.04466C16.1341 8.04466 18.177 7.88454 18.177 7.88454C18.8575 7.84445 18.9375 8.84334 18.2579 8.92376C18.2579 8.92376 17.573 9.00418 16.8139 9.04403L21.3731 22.6059L22.6315 18.4008C23.1769 16.6558 23.592 15.4025 23.592 14.3224Z" fill="#464342"/>
<path d="M15.2965 16.0627L11.5112 27.062C12.6414 27.3942 13.8367 27.576 15.0751 27.576C16.5443 27.576 17.9532 27.322 19.2647 26.8608C19.2308 26.8068 19.2001 26.7494 19.1749 26.687L15.2965 16.0627Z" fill="#464342"/>
<path d="M26.145 8.90601C26.1992 9.30786 26.2299 9.73925 26.2299 10.2033C26.2299 11.4835 25.9908 12.9227 25.2707 14.7222L21.417 25.864C25.1677 23.6768 27.6905 19.6134 27.6905 14.9591C27.6907 12.7657 27.1304 10.7031 26.145 8.90601Z" fill="#464342"/>
<path d="M15.0751 0.25293C6.96619 0.25293 0.368652 6.84999 0.368652 14.9589C0.368652 23.0688 6.96619 29.6657 15.0751 29.6657C23.1838 29.6657 29.7823 23.0688 29.7823 14.9589C29.7821 6.84999 23.1838 0.25293 15.0751 0.25293ZM15.0751 28.9916C7.33804 28.9916 1.04298 22.6965 1.04298 14.9589C1.04298 7.22184 7.3378 0.927255 15.0751 0.927255C22.812 0.927255 29.1066 7.22184 29.1066 14.9589C29.1066 22.6965 22.812 28.9916 15.0751 28.9916Z" fill="#464342"/>
</g>
<defs>
<clipPath id="clip0">
<rect width="129.632" height="29.4127" fill="white" transform="translate(0.368652 0.25293)"/>
</clipPath>
</defs>
</svg>
