<svg width="130" height="36" viewBox="0 0 130 36" fill="none" xmlns="http://www.w3.org/2000/svg">
<g clip-path="url(#clip0)">
<path d="M42.8105 10.6469H45.833L48.5874 15.9119L51.293 10.6226H54.2912L49.993 18.9669V25.3288H47.198V18.9669L42.8105 10.6469Z" fill="#002129"/>
<path d="M56.3633 10.6469H59.1583V25.3531H56.3633V10.6469Z" fill="#002129"/>
<path d="M62.3105 10.6469H70.3543V13.4012H65.1299V16.0175H70.3543V18.7719H65.1299V22.6231H70.3543V25.3775H62.3105V10.6469Z" fill="#002129"/>
<path d="M72.9541 10.6469H75.7491V22.6881H79.8279V25.3531H72.9541V10.6469Z" fill="#002129"/>
<path fill-rule="evenodd" clip-rule="evenodd" d="M81.9893 10.6469H85.5318C88.1155 10.6469 89.9436 10.9556 91.528 12.5156C92.8524 13.8156 93.6649 15.8631 93.6649 18.195C93.6649 20.7056 92.7224 22.8019 91.1543 24.0287C89.4805 25.3531 87.7418 25.3531 85.5805 25.3531H81.9893V10.6469ZM84.7843 13.4012V22.6231H86.263C87.8068 22.6231 88.8874 22.4281 89.7405 21.5019C90.423 20.7706 90.8211 19.5844 90.8211 18.13C90.8211 15.0506 89.123 13.4012 85.9299 13.4012H84.7843Z" fill="#002129"/>
<path d="M96.3135 10.6469H99.1085V22.6881H103.187V25.3531H96.3135V10.6469Z" fill="#002129"/>
<path fill-rule="evenodd" clip-rule="evenodd" d="M109.817 10.6469H112.637L118.324 25.3531H115.416L114.27 22.3144H108.274L107.063 25.3531H104.154L109.817 10.6469ZM111.247 14.5469L109.314 19.5844H113.214L111.247 14.5469Z" fill="#002129"/>
<path fill-rule="evenodd" clip-rule="evenodd" d="M120.477 25.3531V10.6469H123.166C124.71 10.6469 125.945 10.8012 126.871 11.37C127.976 12.0362 128.635 13.1819 128.635 14.4331C128.635 15.6031 128.106 16.4806 127.091 17.2525C128.813 18.065 129.666 19.2512 129.666 21.0387C129.666 22.2494 129.252 23.2406 128.391 24.0775C127.4 25.0443 126.343 25.3531 124.84 25.3531H120.477ZM123.305 16.3912H123.922C125.238 16.3912 125.905 15.8225 125.905 14.7825C125.905 13.84 125.263 13.2875 124.003 13.2875L123.305 13.3119V16.3912ZM123.305 18.9019V22.6881H124.247C126.01 22.6881 126.961 22.2087 126.961 20.9494C126.961 19.6494 125.97 18.9019 124.003 18.9019H123.305Z" fill="#002129"/>
<path fill-rule="evenodd" clip-rule="evenodd" d="M34.0194 6.24313V29.6269C34.0194 32.5275 31.6388 34.9325 28.7138 34.9325H5.31375C2.38063 34.8838 0 32.5112 0 29.6025V6.21875C0 3.31813 2.38063 0.9375 5.31375 0.9375H28.7138C31.6225 0.9375 34.0194 3.31813 34.0194 6.24313ZM16.4613 26.8481L13.0244 22.3144C12.6913 21.8756 12.0494 21.8756 11.7244 22.3144L7.95437 27.4006C7.53187 27.9937 7.95438 28.8306 8.6775 28.8306H15.2262C15.5106 28.8306 15.7788 28.7006 15.9331 28.4813L16.4613 27.7744C16.6806 27.5144 16.6563 27.1162 16.4613 26.8481ZM21.5069 19.6494L15.2669 10.7363C15.0069 10.3625 14.5844 10.1431 14.1212 10.1431H6.76812C6.38625 10.1431 6.16688 10.5819 6.38625 10.8906L17.1844 25.5319C17.4281 25.8569 17.9156 25.8569 18.1594 25.5319L21.4825 21.1037C21.7913 20.665 21.8156 20.0881 21.5069 19.6494ZM26.9913 10.1594H17.7125C17.1681 10.1594 16.8594 10.8013 17.1844 11.24L22.4494 18.1137C22.7581 18.5281 23.3756 18.5281 23.6844 18.1137L28.0475 12.1906C28.6894 11.3538 28.0719 10.1431 26.9913 10.1594Z" fill="url(#paint0_linear)"/>
</g>
<defs>
<linearGradient id="paint0_linear" x1="0" y1="17.9342" x2="34.0202" y2="17.9342" gradientUnits="userSpaceOnUse">
<stop stop-color="#3BB6B5"/>
<stop offset="0.99" stop-color="#40D5A0"/>
<stop offset="1" stop-color="#40D5A0"/>
</linearGradient>
<clipPath id="clip0">
<rect width="130" height="34.125" fill="white" transform="translate(0 0.9375)"/>
</clipPath>
</defs>
</svg>
