<svg width="853" height="206" viewBox="0 0 853 206" fill="none" xmlns="http://www.w3.org/2000/svg">
<path d="M148.042 7.15385C145.651 2.86154 140.868 0 135.608 0H80.613C75.3526 0 70.5704 2.86154 68.1793 7.15385C43.312 50.0769 27.5308 78.2154 2.66345 121.138C0.272366 125.431 -1.16227 132.585 1.22882 136.877L26.5743 180.754C28.9654 185.046 35.1823 186.477 40.4427 186.477H76.7872C84.9169 186.477 91.1337 180.277 91.1337 172.169V161.677C91.1337 153.569 84.9169 147.369 76.7872 147.369H57.6585C46.6595 147.369 39.4862 135.446 45.2248 125.908L95.4377 39.1077C101.176 29.5692 114.566 29.5692 120.305 39.1077L170.518 125.908C176.257 135.446 169.083 147.369 158.084 147.369H139.912C131.782 147.369 125.565 153.569 125.565 161.677V172.169C125.565 180.277 131.782 186.477 139.912 186.477H176.257C181.517 186.477 187.256 185.046 190.125 180.754L214.992 137.831C217.383 133.538 215.949 126.385 213.558 122.092L148.042 7.15385Z" fill="#4E3CDB"/>
<path d="M112.175 81.5538C110.741 78.6923 106.437 78.6923 105.002 81.5538L86.8298 113.508C85.3952 116.369 87.308 119.708 90.6555 119.708H127.478C130.826 119.708 132.739 116.369 131.304 113.508L112.175 81.5538Z" fill="#4E3CDB"/>
<g opacity="0.94">
<path d="M270.466 163.108L321.157 20.985C321.157 20.5081 322.114 20.0312 322.592 20.0312H359.893C360.371 20.0312 360.849 20.5081 361.328 20.985L412.019 163.108C412.497 164.062 411.54 165.016 410.584 165.016H383.326C382.847 165.016 382.369 164.539 381.891 164.062L371.37 134.97C371.37 134.493 370.414 134.016 369.936 134.016H311.115C310.636 134.016 310.158 134.493 309.68 134.97L299.159 164.062C299.159 164.539 298.203 165.016 297.725 165.016H270.466C270.944 164.539 269.988 164.062 270.466 163.108ZM321.635 108.739H361.328C362.284 108.739 362.762 107.785 362.762 106.831L344.112 51.985C344.112 51.985 344.112 51.508 343.634 51.508C343.155 51.0311 342.677 51.0312 342.677 51.0312H340.286C340.286 51.0312 339.808 51.0311 339.33 51.508L338.851 52.4619L320.201 107.308C319.723 107.785 320.679 108.739 321.635 108.739Z" fill="#1B0C3B"/>
<path d="M420.627 163.585V21.4619C420.627 20.5081 421.105 20.0312 422.061 20.0312H445.016C445.972 20.0312 446.45 20.5081 446.45 21.4619V100.154C446.45 101.585 447.885 102.062 448.841 101.108L485.186 59.6158C485.664 59.1389 485.664 59.1388 486.142 59.1388H512.444C513.401 59.1388 514.357 60.5696 513.401 61.5234L472.752 110.17C472.274 110.647 472.274 111.6 472.752 112.077L515.792 162.631C516.748 163.585 515.792 165.016 514.836 165.016H488.534C488.055 165.016 487.577 165.016 487.577 164.539L448.841 121.139C447.885 120.185 446.45 120.662 446.45 122.093V163.585C446.45 164.539 445.972 165.016 445.016 165.016H422.061C421.105 164.539 420.627 164.062 420.627 163.585Z" fill="#1B0C3B"/>
<path d="M520.574 122.57V61.0465C520.574 60.0926 521.052 59.6158 522.009 59.6158H544.963C545.92 59.6158 546.398 60.0926 546.398 61.0465V118.754C546.398 134.493 561.223 146.893 576.047 142.6C585.612 139.739 591.829 131.631 591.829 120.662V61.0465C591.829 60.0926 592.307 59.6158 593.263 59.6158H616.218C617.174 59.6158 617.652 60.0926 617.652 61.0465V163.585C617.652 164.539 617.174 165.016 616.218 165.016H594.698C594.22 165.016 593.263 164.539 593.263 164.062L591.35 155H590.394C588.481 157.385 586.09 159.293 583.221 161.2C578.439 164.539 570.787 167.4 561.223 167.4C538.268 166.923 520.574 149.277 520.574 122.57Z" fill="#1B0C3B"/>
<path d="M632.955 163.585V61.0465C632.955 60.0926 633.434 59.6158 634.39 59.6158H657.344C658.301 59.6158 658.779 60.0926 658.779 61.0465V163.585C658.779 164.539 658.301 165.016 657.344 165.016H634.39C633.434 164.539 632.955 164.062 632.955 163.585ZM632.955 43.4004V21.4619C632.955 20.5081 633.434 20.0312 634.39 20.0312H657.823C658.301 20.0312 659.257 20.5081 659.257 21.4619V43.4004C659.257 44.3542 658.779 44.8311 657.823 44.8311H634.39C633.434 44.8311 632.955 44.3542 632.955 43.4004Z" fill="#1B0C3B"/>
<path d="M686.516 139.739V85.3696C686.516 84.4158 686.037 83.9388 685.081 83.9388H671.213C670.256 83.9388 669.778 83.4619 669.778 82.508V60.5696C669.778 59.6158 670.256 59.1388 671.213 59.1388H685.081C686.037 59.1388 686.516 58.6619 686.516 57.708V20.985C686.516 20.0311 686.994 19.5542 687.95 19.5542H710.905C711.861 19.5542 712.34 20.0311 712.34 20.985V57.708C712.34 58.6619 712.818 59.1388 713.774 59.1388H734.816C735.772 59.1388 736.25 59.6158 736.25 60.5696V82.508C736.25 83.4619 735.772 83.9388 734.816 83.9388H713.774C712.818 83.9388 712.34 84.4158 712.34 85.3696V133.062C712.34 137.831 716.165 141.647 720.947 141.647H734.816C735.772 141.647 736.25 142.123 736.25 143.077V163.108C736.25 164.062 735.772 164.539 734.816 164.539H713.296C695.602 164.539 686.516 155.477 686.516 139.739Z" fill="#1B0C3B"/>
<path d="M755.857 204.6V183.616C755.857 182.662 756.336 182.185 757.292 182.185H776.421C781.681 182.185 783.116 180.277 784.072 176.939L785.507 172.647C785.507 172.17 785.507 171.693 785.507 171.216L743.424 61.0465C742.945 60.0926 743.902 59.1388 744.858 59.1388H768.769C769.247 59.1388 769.726 59.6157 770.204 60.0927L796.028 127.816C796.028 127.816 796.028 128.293 796.984 129.247C797.462 130.2 797.94 130.2 797.94 130.2H799.853C799.853 130.2 800.332 130.2 800.81 129.723C801.766 129.247 801.766 128.77 801.766 128.77L825.677 59.6158C825.677 59.1389 826.634 58.6619 827.112 58.6619H851.023C851.979 58.6619 852.457 59.6158 852.457 60.5696L808.461 185.046C803.679 199.354 796.984 205.554 777.377 205.554H757.292C756.336 206.031 755.857 205.554 755.857 204.6Z" fill="#1B0C3B"/>
</g>
</svg>
