<svg fill="none" height="24" viewBox="0 0 81 24" width="81" xmlns="http://www.w3.org/2000/svg" xmlns:xlink="http://www.w3.org/1999/xlink"><clipPath id="a"><path d="m0 .69165h81v22.95h-81z"/></clipPath><g clip-path="url(#a)"><path d="m20.9925 9.46665s2.16-1.8225 4.7925-1.8225v3.51005c-5.13-.0675-4.7925 4.05-4.7925 4.05v8.1h-3.1725v-15.39005h3.1725zm18.63-1.5525h3.105v8.57255c0 3.915-3.105 7.2224-7.02 7.2224s-7.02-3.3074-7.02-7.2224v-8.57255h3.105v8.57255c0 2.16 1.755 3.9825 3.915 3.9825s3.915-1.8225 3.915-3.9825zm6.21 15.39005v-15.39005h3.1725v15.45745h-3.1725zm-37.39496-12.555c-2.6325 0-4.7925 2.16-4.7925 4.7925s2.16 4.7925 4.7925 4.7925c1.61996 0 3.03746-.81 3.98246-2.0925l2.4975 1.89c-1.5525 2.0925-3.915 3.375-6.47996 3.375-4.3875.0675-7.897501-3.51-7.897501-7.965s3.577501-7.96505 7.897501-7.96505c2.56496 0 5.06246 1.2825 6.47996 3.37505l-2.4975 1.89c-.8775-1.2825-2.3625-2.0925-3.98246-2.0925zm59.80496 3.375h9.18c-.8775-3.78-4.59-3.645-4.59-3.645s-3.375-.27-4.59 3.645zm4.5225-6.48005s8.1-.27 7.695 9.11255h-12.285c.27 1.1475.81 2.0925 1.6875 2.9025s2.025 1.215 3.3075 1.215c0 0 2.6325.135 4.185-2.0925l2.295 1.6875c-.6075.8775-1.62 1.62-2.97 2.295-1.1475.54-2.4975.8775-3.78.8775-4.3875 0-7.695-3.5775-7.695-7.965-.0675-4.455 3.3075-8.03255 7.56-8.03255zm-11.1375 7.89755s1.6875 1.0125 1.62 3.375c0 0 .135 3.3075-3.51 4.3875 0 0-4.32 1.4175-7.83-2.0925l1.62-2.2275c3.5775 2.97 5.94 1.2825 5.94 1.2825.405-.3375.6075-.7425.6075-1.215 0-1.215-1.5525-1.62-1.5525-1.62-.4725-.135-.945-.3375-1.5525-.4725 0 0-1.89-.4725-3.3075-1.35-.4725-.3375-.8775-.7425-1.215-1.2825s-.4725-1.215-.4725-2.025c0 0-.135-3.03755 2.7-4.32005 0 0 3.9825-1.6875 7.695 1.2825l-1.62 2.36255c-1.6875-1.2825-3.375-1.215-3.375-1.215-.7425 0-1.215.135-1.62.4725-.3375.3375-.54.6075-.54 1.0125 0 0-.135.945 1.5525 1.62.4725.135.945.3375 1.5525.4725.54.135 1.1475.405 1.6875.54.6075.405 1.1475.7425 1.62 1.0125zm-14.2425-14.85005c1.215 0 2.16.945 2.16 2.2275s-.945 2.2275-2.16 2.2275-2.16-.945-2.16-2.2275.945-2.2275 2.16-2.2275z" fill="#ff4d37"/></g></svg>