<?xml version="1.0" standalone="no"?>
<!DOCTYPE svg PUBLIC "-//W3C//DTD SVG 20010904//EN"
 "http://www.w3.org/TR/2001/REC-SVG-20010904/DTD/svg10.dtd">
<svg version="1.0" xmlns="http://www.w3.org/2000/svg"
 width="1665.000000pt" height="354.000000pt" viewBox="0 0 1665.000000 354.000000"
 preserveAspectRatio="xMidYMid meet">

<g transform="translate(0.000000,354.000000) scale(0.100000,-0.100000)"
fill="#000000" stroke="none">
<path d="M8528 3515 c-713 -98 -1303 -650 -1456 -1365 -216 -1006 450 -1983
1448 -2125 133 -19 346 -19 477 0 789 112 1395 748 1482 1557 77 702 -275
1385 -894 1736 -165 93 -399 170 -602 197 -131 18 -324 18 -455 0z m448 -570
c327 -62 634 -282 799 -575 387 -683 34 -1549 -715 -1756 -398 -111 -821 4
-1121 305 -522 521 -456 1386 138 1823 162 119 386 203 593 221 68 7 226 -3
306 -18z"/>
<path d="M1530 3479 c-111 -19 -199 -75 -256 -165 -20 -31 -275 -682 -648
-1654 -339 -881 -616 -1604 -616 -1606 0 -2 132 -4 293 -4 l294 0 149 388 149
387 423 3 c232 1 422 3 422 5 0 1 -42 112 -94 247 l-94 245 -231 3 c-127 1
-231 3 -231 5 0 1 112 292 248 647 246 639 248 645 276 645 28 0 30 -5 520
-1285 l492 -1285 298 -3 c237 -2 297 0 293 10 -3 7 -298 776 -657 1708 -359
932 -654 1701 -657 1708 -6 14 -284 15 -373 1z"/>
<path d="M3720 1770 l0 -1720 275 0 275 0 0 1420 0 1420 28 0 29 0 544 -1417
544 -1418 488 -3 487 -2 -2 1717 -3 1718 -272 3 -273 2 -2 -1422 -3 -1423 -26
-3 c-25 -3 -33 18 -559 1385 -293 763 -539 1405 -548 1426 l-14 37 -484 0
-484 0 0 -1720z"/>
<path d="M10643 3473 c12 -44 1221 -3181 1239 -3216 26 -53 93 -123 144 -153
66 -39 160 -54 341 -54 l161 0 26 68 c14 37 311 810 660 1717 l634 1650 -291
3 c-160 1 -294 -1 -298 -5 -4 -5 -214 -548 -467 -1208 -253 -660 -474 -1237
-492 -1282 -29 -75 -34 -83 -58 -83 -27 0 -35 22 -522 1290 l-495 1290 -294 0
c-275 0 -293 -1 -288 -17z"/>
<path d="M14143 1899 c-337 -877 -635 -1651 -662 -1721 l-49 -128 296 0 297 0
494 1290 c459 1197 496 1290 517 1290 13 0 28 -9 34 -19 10 -20 472 -1218 484
-1258 l7 -23 -229 0 -230 0 -10 -27 c-5 -16 -48 -128 -95 -250 l-85 -223 422
0 423 0 149 -390 149 -390 294 0 c275 0 293 1 289 18 -10 37 -1201 3131 -1228
3188 -31 68 -87 136 -140 169 -76 48 -125 57 -325 62 l-190 5 -612 -1593z"/>
</g>
</svg>
