<svg fill="none" height="19" viewBox="0 0 114 19" width="114" xmlns="http://www.w3.org/2000/svg"><g fill="#333"><path d="m48.9741 17.4193-4.9911-14.2121c-.0863-.21853-.14-.44857-.1593-.68273.0049-.32318.1378-.63122.3695-.85655.2317-.22532.5434-.34952.8666-.34534.6372 0 1.0511.42671 1.2445 1.03832l4.1348 12.2464 4.1632-12.28054c.1906-.58174.5689-1.00418 1.2062-1.00418h.1294c.6685 0 1.081.42671 1.2716 1.00418l4.1248 12.28054 4.2073-12.31041c.1593-.52058.5078-.97431 1.1777-.97431.1563-.00282.3115.02526.4569.08263s.278.1429.3902.25168.2018.23865.2637.38217.0947.29785.0968.45412c-.0198.23362-.0735.46312-.1593.6813l-5.0238 14.24482c-.2574.7439-.7623 1.1379-1.337 1.1379h-.0938c-.6373 0-1.1152-.3897-1.3385-1.1379l-4.0992-12.07716-4.1348 12.07716c-.2219.7439-.7012 1.1379-1.3356 1.1379h-.0654c-.6031 0-1.1108-.3897-1.3654-1.1379z"/><path d="m85.3561 2.56151c-.005-.32802.1188-.64494.3448-.8827.2261-.23775.5363-.37737.8642-.38888.1659-.00082.3303.03172.4833.09569.1531.06397.2917.15806.4077.27669s.2069.25936.2674.41383c.0605.15448.0893.31954.0847.48537v2.88453c1.2105-2.80203 3.8916-4.12482 5.6695-4.12482.7354 0 1.2119.55614 1.2119 1.27016.0108.30927-.0946.61138-.2955.84676-.2009.23539-.4827.38696-.7898.42482-3.1861.38973-5.7961 2.83475-5.7961 7.68784v5.7107c0 .3252-.1291.637-.3591.867-.2299.2299-.5418.3591-.8669.3591-.3252 0-.6371-.1292-.867-.3591-.2299-.23-.3591-.5418-.3591-.867z"/><path d="m102.554 18.6895c-4.4322 0-8.0535-3.5147-8.0535-8.6764v-.06824c0-4.79901 3.2714-8.66923 7.7405-8.66923 4.773 0 7.491 4.02668 7.491 8.4445.004.1505-.023.30017-.078.44037-.054.1402-.137.2681-.241.3763-.105.1082-.23.1946-.368.2541-.138.0596-.287.0911-.438.0927h-11.6629c.3385 3.6085 2.802 5.6411 5.6779 5.6411 1.991 0 3.461-.8079 4.648-1.9373.187-.1758.432-.277.689-.2845.217-.0004.429.0659.607.1901s.314.3002.389.5042c.074.2039.085.4259.029.6358s-.175.3976-.341.5375c-1.528 1.5148-3.338 2.5176-6.085 2.5176zm4.779-9.64214c-.249-3.02961-1.934-5.66522-5.149-5.66522-2.8091 0-4.9327 2.41799-5.2385 5.67233z"/><path d="m67.9697 13.4695v-.0655c0-3.53877 2.8604-5.4248 7.0179-5.4248 1.7107-.01835 3.4144.22141 5.0536.71117v-.58032c0-3.01965-1.8149-4.57854-4.8929-4.57854-1.6527 0-2.6128.21477-3.8218.7638-.1399.0622-.2908.09604-.4438.09956-.2835-.00505-.5541-.11944-.7553-.31929-.2012-.19984-.3173-.46968-.3243-.75316-.0156-.22221.0409-.44353.1611-.63109s.2976-.33137.506-.41007c1.6172-.71118 2.8362-.95582 4.9313-.95582 2.317 0 4.0978.61445 5.3011 1.84906 1.1123 1.13788 1.6855 2.7622 1.6855 4.90426v9.26524c0 .7111-.5078 1.2346-1.1806 1.2346-.1546.0039-.3083-.0237-.4519-.0812s-.2739-.1437-.3831-.2532c-.1091-.1096-.1948-.2402-.2518-.384-.0569-.1438-.084-.2977-.0795-.4522v-1.6002c-1.145 1.5276-3.0524 2.8902-5.9369 2.8902-3.0509 0-6.1346-1.7864-6.1346-5.2285zm12.1014-1.2986v-1.6229c-1.5663-.4715-3.1932-.71111-4.8289-.71121-3.078 0-4.7962 1.36541-4.7962 3.47341v.0654c0 2.1108 1.9074 3.3439 4.1249 3.3439 3.0153 0 5.4945-1.8832 5.4945-4.5429"/><path d="m4.48615 2.37663c-.11966-.28731-.29652-.54728-.51982-.76407-.22331-.21679-.48839-.38589-.77912-.49699s-.60102-.161887-.91199-.14927c-.31098.012618-.61614.08838-.89691.22266-1.24171.56895-1.706818 1.97423-1.137878 3.18038l5.210068 11.58366c.8207 1.8149 1.68264 2.765 3.30412 2.765 1.73388 0 2.48768-1.0355 3.30558-2.765 0 0 4.5515-10.12148 4.5913-10.22816.05-.13112.1403-.24303.2578-.31969s.2563-.11412.3965-.10701c.0964.00185.1915.02267.2798.06127s.1682.09423.235.16371c.0669.06947.1194.15144.1545.2412.0352.08977.0523.18559.0504.28197v9.89961c0 1.5247.8278 2.7764 2.418 2.7764s2.4592-1.2588 2.4592-2.7807v-8.09888c0-1.56458 1.0924-2.57303 2.5845-2.57303 1.492 0 2.4862 1.04685 2.4862 2.57303v8.09888c0 1.5247.8293 2.7764 2.418 2.7764 1.5888 0 2.455-1.2517 2.455-2.7764v-8.09888c0-1.56458 1.0909-2.57303 2.583-2.57303 1.492 0 2.4848 1.04685 2.4848 2.57303v8.09888c0 1.5247.8293 2.7764 2.418 2.7764 1.5888 0 2.4522-1.2517 2.4522-2.7764v-9.21685c-.0029-3.38661-2.6712-5.760517-5.8715-5.760517s-5.2072 2.264387-5.2072 2.264387c-1.0639-1.41098-2.5347-2.264387-5.0195-2.264387-2.6257 0-4.9213 2.264387-4.9213 2.264387-1.0654-1.41098-2.8803-2.264387-4.3837-2.264387-2.3256 0-4.1732 1.046847-5.2997 3.682467l-3.32688 8.0206-4.26705-10.29067"/><path d="m109.936 3.38213v-.01422c0-.26673.052-.53096.153-.7776.102-.24664.251-.47087.439-.65987s.412-.33908.658-.44167.51-.15569.777-.15625.531.05143.778.15298c.246.10156.471.2507.66.43891s.339.4118.441.65801c.103.24622.156.51022.156.77695v.00854c.012.27306-.032.54556-.129.80121s-.244.48919-.433.68666c-.189.19748-.415.35482-.667.46263-.251.10781-.521.16387-.794.16483-.274.00095-.544-.05321-.796-.15926s-.48-.2618-.67-.45795c-.19-.19614-.339-.42865-.438-.68361-.098-.25497-.144-.52716-.135-.80029zm3.673-.01422v-.00711c.008-.22169-.028-.44286-.107-.65021s-.199-.39659-.353-.55637c-.154-.15977-.338-.28676-.542-.37335-.205-.08658-.424-.13097-.646-.13049s-.442.04582-.645.13329c-.204.08746-.388.21526-.542.37569-.153.16044-.272.3502-.35.55789s-.113.42901-.104.65066v.01422c-.008.22169.028.4428.108.65002.079.20723.199.39631.353.55586.154.15956.339.2863.543.37261.205.08631.425.13041.646.12964.222-.00077.442-.04638.645-.13411.204-.08772.388-.21574.541-.37635.153-.16062.272-.35053.35-.5583s.113-.42912.103-.65075"/><path d="m111.188 2.54434c-.001-.02907.005-.05789.016-.0848.011-.02692.027-.05139.048-.07201.02-.02062.045-.03699.071-.04816.027-.01117.056-.01692.085-.01692h.676c.104-.00662.208.00828.306.04377s.187.0908.263.16247c.057.06117.102.13318.131.21182s.043.16233.039.24618c.008.13008-.025.25937-.095.36909-.071.10973-.174.19418-.296.2411l.299.37408c.042.04653.066.10653.068.16926 0 .02683-.005.05343-.015.07827s-.025.04743-.044.06647-.041.03415-.066.04446-.051.01562-.078.01562c-.042-.00053-.084-.01114-.121-.03094s-.069-.04821-.093-.08285l-.426-.54618h-.346v.4395c.001.02863-.005.05709-.015.08372-.011.02663-.026.05091-.046.07142s-.044.03684-.07.04806c-.027.01121-.055.01708-.084.01727s-.057-.00539-.084-.0164-.052-.02725-.072-.04776c-.021-.0205-.037-.04488-.048-.07172-.011-.02683-.016-.05558-.016-.08459zm.874.75527c.211 0 .328-.11237.328-.28447 0-.18775-.127-.28447-.338-.28447h-.426v.57747z"/></g></svg>