<svg fill="none" height="28" viewBox="0 0 114 28" width="114" xmlns="http://www.w3.org/2000/svg" xmlns:xlink="http://www.w3.org/1999/xlink"><clipPath id="a"><path d="m0 .209717h114v27.5806h-114z"/></clipPath><g clip-path="url(#a)"><path d="m24.5752 22.7339c4.8236 0 8.7338-3.9103 8.7338-8.7339s-3.9102-8.73389-8.7338-8.73389-8.7339 3.91029-8.7339 8.73389 3.9103 8.7339 8.7339 8.7339z" fill="#4081cb"/><path d="m14.7344 3.19393v3.93852l2.3986-1.45902c2.2452-1.3675 4.8234-2.09085 7.4523-2.09085 2.6288 0 5.207.72335 7.4523 2.09085l.2868.17468v.00184l.0643.03677v-3.85669l-.0634-.03126c-2.6598-1.298869-5.6036-1.9076515-8.5604-1.770287-2.9568.137365-5.8315 1.016457-8.3594 2.556337zm19.6935 21.61217v-3.9385l-2.3986 1.4581c-2.2452 1.3676-4.8234 2.091-7.4523 2.091s-5.2071-.7234-7.4523-2.091l-.2878-.1747v-.0018l-.0772-.0395v3.8576l.0772.0358c2.6599 1.2987 5.6038 1.9073 8.5606 1.7697 2.9567-.1375 5.8314-1.0167 8.3592-2.5566l.6712-.4092z" fill="#4081cb"/><path d="m14.7244 7.1342v-3.94035l-14.512974 8.82675v3.9596l14.512974 8.8277v-3.9404l-11.28972-6.8676zm19.7017 17.6737 14.513-8.8277v-3.9596l-14.513-8.82583v3.93943l11.2897 6.8657-11.2897 6.8676v3.9395zm42.9606-5.7055c-.3292.0827-.741.1287-1.2448.1287-1.0067 0-1.8571-.1012-2.5448-.3016-.6055-.1696-1.1913-.4029-1.7477-.6959l-1.0076 2.838c.2114.1186.4762.2464.7879.3843.3107.1287.6766.2565 1.1161.3843.4394.1287.934.2289 1.5013.3107.5681.0828 1.1997.1288 1.904.1288 2.0869 0 3.6526-.4119 4.6868-1.2265 1.0343-.8154 1.5565-1.9591 1.5565-3.442 0-.7594-.0919-1.4094-.2933-1.9399-.1963-.5249-.5058-1.0001-.9065-1.3919-.4026-.4026-.9055-.7511-1.5187-1.0444-.7007-.3394-1.4188-.6416-2.1513-.9055-.366-.1264-.7293-.2606-1.0895-.4027-.3023-.1205-.5933-.2676-.8697-.4395-.2565-.1654-.4486-.3392-.5856-.5405-.1374-.219-.2077-.4734-.2023-.7318 0-.49465.1839-.85136.559-1.08948.3751-.23811.9883-.3567 1.8396-.3567.7695 0 1.4195.09193 1.9592.26477.5406.17468 1.0343.37602 1.4737.60402l1.0251-2.80863c-.5029-.27489-1.1529-.513-1.9215-.75112-.7695-.23811-1.6943-.34751-2.7645-.34751-.8973 0-1.7118.11032-2.4271.32913-.665.19769-1.2861.52101-1.8295.95245-.5016.403-.9029.91692-1.1722 1.5013-.2748.58563-.4118 1.24481-.4118 1.97657 0 .7328.1287 1.3552.3843 1.8682.2485.4944.5907.9359 1.0076 1.2999.4027.3659.8688.6583 1.391.8964.5212.239 1.0342.4487 1.5564.6316 1.1897.3935 2.0318.7603 2.5172 1.1078.4845.3393.7318.7695.7318 1.2908 0 .2381-.0368.4578-.1103.6592-.0726.1921-.2096.3659-.4109.513-.1931.1462-.4579.2648-.7879.3475zm-18.07-1.2991c.5979 1.3932 1.2207 2.7755 1.8682 4.1463v-.0092h3.3961c.6474-1.3662 1.2668-2.7456 1.858-4.1371.6008-1.4102 1.1807-2.8292 1.7394-4.2566.5215-1.3369 1.0281-2.6795 1.5197-4.02769.4661-1.27239.8688-2.41698 1.2264-3.43287h-3.7988c-.3173.99577-.647 1.98752-.9892 2.97503-.3567 1.06183-.7318 2.11453-1.1069 3.16713-.376 1.0527-.7419 2.0594-1.0986 3.021-.3051.8383-.6318 1.6684-.98 2.4897-.3615-.82-.6911-1.6535-.9883-2.4988-.2041-.5792-.4174-1.1731-.6372-1.7845l-.0009-.0028c-.1452-.4045-.2933-.8154-.4413-1.2337-.376-1.0527-.7419-2.1054-1.1087-3.16722-.3659-1.06186-.695-2.05016-.9883-2.96584h-3.9358c.3383 1.00669.741 2.15129 1.1989 3.43287.4861 1.34989.9927 2.69229 1.5197 4.02679.5586 1.4287 1.1415 2.8478 1.7486 4.2566zm34.2451-11.70797h3.5699v15.85517h-3.5699v-6.7287h-5.996v6.7287h-3.5699v-15.85517h3.5699v6.06037h5.996zm13.4102 10.47237c1.172 1.7519 2.278 3.5474 3.314 5.3828h3.002v-15.85517h-3.551v9.34617c-.578-.8629-1.164-1.7204-1.758-2.5724-.612-.8718-1.241-1.7322-1.885-2.5806-.604-.79641-1.226-1.5781-1.868-2.34435-.526-.64186-1.081-1.25852-1.666-1.8479h-2.9102v15.85425h3.5242v-10.3988c1.361 1.598 2.629 3.2727 3.798 5.016z" fill="#444"/></g></svg>