<svg fill="none" height="28" viewBox="0 0 106 28" width="106" xmlns="http://www.w3.org/2000/svg" xmlns:xlink="http://www.w3.org/1999/xlink"><clipPath id="a"><path d="m0 .880447h106v26.7791h-106z"/></clipPath><g clip-path="url(#a)"><path d="m16.6458.880447h-5.1713l-11.4745 18.661653s4.31846 8.102 14.0176 8.1175c9.699.0155 14.0408-8.071 14.0408-8.071zm-9.77658 18.607353 7.17938-11.68386 7.1405 11.68386z" fill="#ac27f9"/><g fill="#121212"><path d="m44.4483 5.24542h-3.2873l-6.4506 17.71578h3.1866l1.349-3.9928h7.0243l1.3413 3.9928h3.2252zm-1.6592 2.68257 2.6206 8.37331h-5.2721z"/><path d="m57.4424 10.1841c-.5618.1698-1.0652.4925-1.4541.932-.3888.4395-.6478.9785-.7478 1.5568v-2.326h-2.7678v12.6531h2.8531v-7.0398c-.0128-.5289.0971-1.0536.3209-1.533.2239-.4794.5558-.9004.9695-1.2301.4138-.3296.8983-.559 1.4156-.6702.5173-.1111 1.0532-.101 1.5659.0297v-2.45c-.7178-.093-1.446-.0668-2.1553.0775z"/><path d="m93.1686 17.4022c-.0775 1.7445-.6745 3.4347-2.8841 3.582-2.4345.1628-2.6981-1.7057-2.6903-3.3881v-7.2802h-2.8764v8.3346c0 1.3645.3644 4.6518 4.2874 4.6518 2.5043 0 3.7293-1.1707 4.303-2.0778v1.7522h2.667v-12.653h-2.8143z"/><path d="m65.6378 19.3948v-6.8848h3.2951v-2.3259h-3.2796v-3.79122h-2.7601v3.75252h-2.1476v2.3646h2.1321v6.9778c0 1.9926.7753 3.6905 3.9851 3.6905.7016.0181 1.4027-.0549 2.0856-.2171v-2.2484c-.5525.0786-1.1091.1252-1.667.1396-.2062.0252-.4154.0064-.6137-.0554-.1984-.0617-.3814-.1649-.5368-.3027-.1554-.1379-.2798-.3072-.3648-.4968-.085-.1895-.1287-.395-.1283-.6027z"/><path d="m78.0036 9.95929c-.8367-.05408-1.6728.11561-2.4222.49171-.7495.3761-1.3852.945-1.842 1.6481v-6.85368h-2.8454v17.73128h2.8609v-6.7219c0-1.884.5738-3.6207 2.9229-3.7758 2.3492-.155 2.6904 1.5507 2.6904 3.2486v7.2569h2.9539v-8.5284c-.0233-1.0777-.4032-4.48906-4.3185-4.49681z"/><path d="m103.891 10.1841c-.562.1698-1.065.4925-1.454.932s-.648.9785-.748 1.5568v-2.326h-2.7676v12.6531h2.8536v-7.0398c-.013-.5289.097-1.0536.32-1.533.224-.4794.556-.9004.97-1.2301.414-.3296.898-.559 1.416-.6702.517-.1111 1.053-.101 1.565.0297v-2.45c-.717-.093-1.446-.0668-2.155.0775z"/></g></g></svg>