<svg xmlns="http://www.w3.org/2000/svg" viewBox="0 0 180 50"><linearGradient id="a" gradientUnits="userSpaceOnUse" x1="2.816" y1="25.066" x2="38.223" y2="25.066"><stop offset="0" stop-color="#e80080"/><stop offset="1" stop-color="#931c58"/></linearGradient><path d="M36.2 20.5h-7.3c-.8 1.7-2.9 2.8-5 2.6-2.1-.2-8.6-.6-11.3-.9-.4 0-.4-.4 0-.4 2.3-.1 7.3 0 11-.1v-.8c-3.7-.2-8.8-.4-11-.6-.4 0-.4-.3 0-.4 2.3-.2 7.3-.2 11-.4v-.8c-3.7-.1-8.7-.1-11-.2-.4 0-.4-.3 0-.4 2.3-.2 7.3-.5 11-.8v-.8c-3.7 0-8.7.2-11 .1-.4 0-.4-.3 0-.4 3.1-.4 11.3-1.1 11.3-1.1s-2.7.2 0 0c2.2-.2 4.2.8 5 2.5H35c1.2 0 1.4-.6.9-1.5-3.1-5.3-8.8-8.9-15.4-8.9-9.8 0-17.7 7.9-17.7 17.7 0 1.4.2 2.8.5 4.2.2.9.8 1.3 1.9 1.3H8s3 0 6.7.1H21c3.3 0 6.1.1 6.8.1.7 0 .7.9-.2 2-.8 1-2.9 3-9.8 3h-2.9c-2.4 0-1.1-2.4-4.6-2.4H6.5c-1.2 0-1.5.6-.9 1.5 3.2 4.8 8.6 8 14.8 8 9.8 0 17.7-7.9 17.7-17.7 0-1.1-.1-2.3-.3-3.3-.1-.8-.7-1.1-1.6-1.2" fill="url(#a)"/><path d="M49.2 34.7H43l.2-2.5h4.2c1.6 0 2.4-.7 2.4-2.2 0-.8-.3-1.5-.9-2.2l-3.1-3.4c-1-1.1-1.5-2.3-1.5-3.6 0-3.1 2.9-5.1 6.7-5.1h4.3l-.3 2.6h-3c-1.3 0-2 .4-2 1.1 0 .4.2.8.5 1.2l3.8 4.5c1.2 1.4 1.8 2.8 1.8 4.3 0 3.1-2.9 5.3-6.9 5.3zm34.8 0h-2.4c-2.5 0-4.3-1.3-4.3-3.4v-.4l.9-10.5c0-1.1-.7-2.1-1.9-2.1h-2.1l-1.5 16.4h-5.2l1.3-14.3c0-1.1-.7-2.1-1.9-2.1h-2.1l-1.5 16.4H58l1.5-16.4h-1.4l.2-2.5h18.2c4.3 0 6.9 1.8 6.9 4.8v.6l-.9 9.4v.4c0 .9.1 1.2 1.7 1.2l-.2 2.5zm16.6-5.3c-.3 2.9-3.6 5.3-7.3 5.3h-.8c-3.5 0-6.4-1.9-6.4-4.8v-.5l.8-8.3c.3-3 3.5-5.3 7.3-5.3h.8c3.5 0 6.4 2 6.4 4.8v.4l-.8 8.4zm-4.4-8.8c0-1.5-.8-2.3-1.8-2.3-1.2 0-2.1 1.2-2.3 2.8l-.7 8.3v.4c0 1.4.8 2.4 1.8 2.4 1.1 0 2.1-.9 2.3-2.8l.7-8.3v-.5zm21.6 8.8c-.3 2.9-3.6 5.3-7.3 5.3h-.8c-3.5 0-6.4-1.9-6.4-4.8v-.5l.7-8.4c.3-3 3.5-5.3 7.3-5.3h.8c3.5 0 6.4 2 6.4 4.8v.5l-.7 8.4zm-4.5-8.8c0-1.5-.8-2.3-1.8-2.3-1.2 0-2.1 1.2-2.3 2.8l-.7 8.3v.4c0 1.4.8 2.4 1.8 2.4 1.1 0 2.1-.9 2.3-2.8l.7-8.3v-.5zm22.3 9.9v.3c0 .9.6 1.4 1.7 1.4l-.2 2.5h-2c-1.8 0-3.1-.5-4-1.5-1.1 1-2.6 1.5-4.4 1.5-3.8 0-6.8-1.8-6.8-4.8v-.5l.7-8.3c.3-3.1 3.6-5.3 7.3-5.3h3.7l.6-6h-1.5l.2-2.5h6.7l-2 23.2zm-7.9-12.2c-1.1 0-1.7.6-1.8 1.9l-.9 9.6v.4c0 1.4.7 2.1 2.2 2.1 1.6 0 3-1.3 3.2-2.8l1.1-11.1h-3.8zM142 34.8c-1.3 0-2.4-1-2.4-2.3 0-1.3 1-2.3 2.4-2.3s2.4 1 2.4 2.3c0 1.3-1.1 2.3-2.4 2.3zm17.4-16.5h-5.5c-1 0-1.8 1.1-1.8 2.2l-.9 9.8c0 1.1 1 2 2.3 2 1.6 0 3-1.3 3.2-2.8h2.6c-.2 2.8-3 5.3-6 5.3h-.8c-3.6 0-6.4-1.9-6.4-4.9l.8-8.8c.3-3.1 3.6-5.3 7.3-5.3h5.5l-.3 2.5zm18.2 16.4h-2c-2.5 0-4.3-1.3-4.3-3.4v-.4l.9-9.8v-.5c0-1.6-.6-2.3-1.9-2.3h-2.1l-1.5 16.3h-5.2l2.3-24.9h-1.5l.2-2.5h6.7l-.8 8.5h2.1c4.2 0 6.9 1.9 6.9 5.1v.7l-.8 9.5v.3c0 .8.2 1 1.3 1l-.3 2.4z" fill="#201d1d"/></svg>