<svg fill="none" height="32" viewBox="0 0 95 32" width="95" xmlns="http://www.w3.org/2000/svg"><path clip-rule="evenodd" d="m87.789 20.017-6.609-11.44598c-.0266-.0465-.065-.08515-.1114-.11202s-.099-.041-.1526-.04098h-4.328c-.043 0-.077.016-.114.032-.013-.002-.025-.01-.038-.01h-2.386c.001-.023.002-.623.004-.645.172-3.062 2.85-3.838 3.763-4.001.0702-.01254.1336-.04958.179-.10452s.0699-.12421.069-.19548l-.005-3.189998c-.0001-.041399-.0086-.082348-.025-.120338-.0165-.037989-.0405-.072218-.0707-.1005887-.0301-.0283702-.0657-.0502836-.1047-.0643966-.0389-.01411302-.0803-.02012829-.1216-.01767701-1.734.11100031-7.738 1.46499831-8.054 7.79399831l-.004.644h-1.836c-.0348.00013-.0692.00712-.1013.02056-.0321.01343-.0613.03307-.0858.05777s-.0439.05398-.0571.08618c-.0132.03221-.0199.06669-.0198.10149v3.09198c0 .147.118.267.264.267h1.55c.145 0 .264.119.264.264v13.445c0 .165.133.298.297.298h3.77c.0419-.0005.0832-.0099.1211-.0277.038-.0178.0717-.0434.0989-.0753.0331-.0275.0598-.0619.0782-.1007.0185-.0389.0283-.0813.0288-.1243v-13.404c0-.08.033-.153.085-.207.051-.0429.1153-.0669.182-.068l3.639-.049c.0541-.0005.1074.0133.1543.0402s.0858.0659.1127.1128l4.532 7.85c.0261.0454.0402.0967.0409.149s-.012.104-.0369.15l-6.01 11.181c-.025.0465-.0376.0987-.0365.1515.0012.0528.0159.1044.0429.1498s.0653.0831.1111.1093c.0458.0263.0977.0402.1505.0404h4.336c.0548-.0001.1085-.015.1555-.0432s.0855-.0685.1115-.1168l6.17-11.472c.0252-.0461.0382-.0978.0376-.1504-.0005-.0525-.0145-.104-.0406-.1496zm6.234-11.17698-4.733 8.80798c-.0258.0473-.0636.0869-.1096.1149-.046.0279-.0987.0432-.1525.0442s-.107-.0123-.154-.0384c-.0471-.0262-.0864-.0644-.1139-.1107l-2.27-3.878c-.0266-.0453-.0411-.0968-.0419-.1493-.0009-.0526.0118-.1045.0369-.1507l2.653-4.91198c.0252-.04779.0629-.08789.109-.11605s.099-.04335.153-.04395c.699-.008 3.272-.03 4.362-.018.0524.00068.1038.01495.149.04141.0453.02646.0829.0642.1092.10955.0263.04534.0404.09673.0409.14914.0004.05242-.0127.10407-.0381.1499zm-31.858 6.48998h-8.453c-.051.0006-.1013-.0119-.146-.0365-.0447-.0245-.0824-.0602-.1092-.1036-.0269-.0433-.0421-.0929-.0441-.1439-.0021-.0509.009-.1016.0323-.147.448-.883 1.74-2.809 4.498-2.809 2.708 0 4.024 1.923 4.487 2.806.0233.0454.0345.0961.0326.1471s-.0168.1007-.0434.1442c-.0266.0436-.064.0796-.1085.1046s-.0947.0381-.1457.0381zm-4.205-7.58598c-5.116 0-9.263 4.16998-9.263 9.31298 0 5.144 4.147 9.313 9.263 9.313 2.762 0 6.33-1.36 8.303-5.209.0226-.0456.0332-.0963.0308-.1472-.0025-.0509-.0178-.1003-.0446-.1437-.0268-.0433-.0642-.0791-.1087-.1039-.0445-.0249-.0945-.038-.1455-.0382h-4.535c-.0748.0005-.1465.0298-.2.082-.3388.3235-.7257.5923-1.147.797-.59.286-1.305.472-2.171.472-2.727 0-4.043-1.79-4.413-2.74-.0165-.0449-.0218-.0931-.0156-.1405.0062-.0475.0239-.0927.0514-.1318s.0641-.071.1066-.0929c.0426-.0219.0898-.0331.1376-.0328l12.952.002c.0723-.0021.1415-.0296.1955-.0777.0539-.0481.0892-.1137.0995-.1853.045-.363.106-.73.126-1.104.0784-1.2603-.1018-2.5233-.5296-3.7113s-1.0942-2.276-1.9581-3.1969c-.8639-.92099-1.9071-1.65545-3.0654-2.15826-1.1583-.5028-2.4072-.76332-3.6699-.76552zm-19.114 14.33098c-.8441.1961-1.7243.1735-2.5572-.0655-.833-.239-1.5911-.6866-2.2028-1.3005-.6128-.615-1.0594-1.3756-1.2978-2.2105-.2384-.8348-.2608-1.7166-.0652-2.5625.2037-.9304.6694-1.7832 1.342-2.4575.6726-.6744 1.5241-1.1423 2.454-1.3485.8441-.1961 1.7243-.1736 2.5572.0654.833.239 1.5912.6867 2.2028 1.3006.6129.615 1.0595 1.3756 1.2979 2.2105s.2608 1.7166.0651 2.5625c-.2038.9304-.6695 1.7831-1.3421 2.4575-.6726.6743-1.5241 1.1422-2.4539 1.3485zm2.843-13.45798c-4.153-1.815-7.668-.011-8.786.711-.586.38-.56-.86-1.12-.86h-3.29c-.0391-.00013-.0778.00746-.114.02232-.0361.01487-.069.03673-.0967.06432-.0276.02759-.0496.06037-.0646.09647s-.0227.0748-.0227.11389v22.93698c0 .164.133.298.297.298h3.736c.0391 0 .0778-.0077.1139-.0227s.0689-.0369.0965-.0646.0494-.0606.0643-.0967c.0148-.0362.0224-.0749.0223-.114v-6.535c0-.23.249-.375.446-.257.824.5 2.718 1.461 5.046 1.461 5.41 0 9.75-4.688 9.194-10.225-.333-3.307-2.485-6.19998-5.522-7.52898zm-31.039 13.45798c-.84409.1961-1.72426.1735-2.5572-.0655-.83295-.239-1.59113-.6866-2.2028-1.3005-.61264-.6151-1.05901-1.3758-1.29723-2.2106-.23823-.8349-.26052-1.7166-.06477-2.5624.20371-.9304.66936-1.7832 1.34197-2.4575.67262-.6744 1.52413-1.1423 2.45403-1.3485.84409-.1961 1.7243-.1736 2.5572.0654.833.239 1.5912.6867 2.2028 1.3006.6127.6151 1.0591 1.3758 1.2974 2.2106.2382.8349.2604 1.7166.0646 2.5624-.2037.9305-.6694 1.7832-1.342 2.4576s-1.5241 1.1423-2.454 1.3484zm2.844-13.45798c-4.153-1.815-7.667-.011-8.787.711-.585.38-.56-.86-1.12-.86h-3.29c-.039003 0-.077623.00768-.113657.02261s-.068775.0368-.0963537.06438c-.027579.02758-.0494559.06032-.0643815.09636-.01492567.03603-.0226078.07465-.0226078.11365v22.93698c0 .164.133.298.297.298h3.735c.03909 0 .07779-.0077.11389-.0227s.06888-.0369.09647-.0646c.0276-.0277.04945-.0606.06432-.0967.01487-.0362.02245-.0749.02232-.114v-6.535c0-.23.249-.375.446-.257.825.5 2.719 1.461 5.046 1.461 5.412 0 9.75-4.688 9.194-10.225-.333-3.307-2.484-6.19998-5.521-7.52898zm11.715-.148h-3.743c-.0389-.00026-.0775.00717-.1135.02188s-.0688.0364-.0964.06382-.0495.06002-.0645.09595c-.0149.03592-.0226.07444-.0226.11335v17.10098c0 .165.134.298.298.298h3.743c.0789-.0002.1544-.0318.2101-.0876.0556-.0559.0869-.1315.0869-.2104v-17.09898c-.0003-.07895-.0317-.1546-.0876-.21042-.0558-.05583-.1314-.08731-.2104-.08758" fill="#000" fill-rule="evenodd"/></svg>