<svg fill="none" height="25" viewBox="0 0 106 25" width="106" xmlns="http://www.w3.org/2000/svg" xmlns:xlink="http://www.w3.org/1999/xlink"><clipPath id="a"><path d="m0 .650269h106v23.411h-106z"/></clipPath><g clip-path="url(#a)" fill="#242c61"><path d="m31.323 7.80363c1.6257 0 3.1431.65031 4.227 1.73415.4335-1.19223 1.0838-2.27607 1.7341-3.14315-1.6258-1.30061-3.6851-2.0593-5.9611-2.0593-5.4193 0-9.7546 4.44376-9.7546 9.86297 0 5.4192 4.3353 9.863 9.7546 9.863 2.276 0 4.3353-.7587 5.9611-2.0593-.7587-.9755-1.3006-2.0593-1.7341-3.1432-1.0839 1.0839-2.6013 1.7342-4.227 1.7342-3.4683 0-6.178-2.818-6.178-6.2863-.1083-3.5767 2.7097-6.50307 6.178-6.50307z"/><path d="m11.0552.650269c-.5419 0-1.08383.433541-1.40898.975461l-9.64622 21.67687h3.90184l1.30061-3.1431h11.70555l1.409 3.1431h3.9018l-9.7546-21.67687c-.2168-.54192-.7587-.975461-1.409-.975461zm-4.22698 16.040931 4.33538-9.64625 4.3354 9.64625z"/><path d="m57.3354 14.1983c0-5.41921-4.1186-9.6462-9.3211-9.86297 0 0 0 0-.1084 0-.2167 0-.2167.10838-.1083.21677v.10838c.3251.75869 1.1922 2.49284 2.818 3.79346 1.9509 1.62576 3.2515 3.46826 3.2515 5.85276 0 3.0348-2.2761 6.2863-6.1779 6.2863-3.7935 0-6.1779-3.2515-6.1779-6.2863 0-2.3845 1.1922-4.227 3.2515-5.85276 1.6258-1.30062 2.4928-3.14315 2.818-3.79346.1084-.10838 0-.21677-.1084-.21677-5.3108.10839-9.5378 4.55215-9.5378 9.86299 0 4.4438 3.685 9.5378 9.6462 9.5378 2.7096 0 4.8773-.867 6.6114-2.1677l1.8426 1.7342h5.3108l-4.9857-4.8773c.6503-1.3006.9755-2.818.9755-4.3354z"/><path d="m84.6485 4.66052h-3.6851v18.64208h3.6851z"/><path d="m73.8097 13.9816c0 3.9018-1.9509 6.2863-5.094 6.2863-3.1432 0-5.0941-2.3845-5.0941-6.2863v-9.32108h-3.6851v9.32108c0 5.7444 3.6851 9.863 8.7792 9.863 5.094 0 8.7791-4.1186 8.7791-9.863v-9.32108h-3.6851z"/><path d="m102.315 4.6605v2.818l-.65-.7587c-1.7345-1.73415-3.577-2.70961-5.7447-2.70961-2.4929 0-4.5522.97546-6.1779 2.818-1.6258 1.84253-2.4929 4.22701-2.4929 7.04501s.8671 5.3108 2.4929 7.1534c1.6257 1.8425 3.7934 2.8179 6.2863 2.8179 1.9509 0 3.9018-.867 5.6363-2.4928l.65-.6503v2.6012h3.685v-18.6421zm-1.301 14.09c-1.0835 1.1922-2.4925 1.8425-4.335 1.8425-1.6258 0-3.0348-.6503-4.1186-1.9509-1.0839-1.1922-1.6258-2.818-1.6258-4.7689 0-1.8426.5419-3.3599 1.6258-4.66055 1.0838-1.30062 2.4928-1.84254 4.1186-1.84254 1.7341 0 3.1431.65031 4.227 1.84254 1.084 1.30065 1.626 2.81795 1.626 4.76895 0 1.9509-.542 3.5767-1.518 4.7689z"/></g></svg>