<svg width="60" height="60" viewBox="0 0 60 60" fill="none" xmlns="http://www.w3.org/2000/svg">
<path fill-rule="evenodd" clip-rule="evenodd" d="M30 0C13.4314 0 0 13.4314 0 30C0 46.5686 13.4314 60 30 60C46.5686 60 60 46.5686 60 30C60 13.4314 46.5686 0 30 0Z" fill="#00C4CC"/>
<path fill-rule="evenodd" clip-rule="evenodd" d="M50.057 30.8572C49.7141 30.8572 49.1141 30.7714 49.1141 30.4286C49.1141 30.0857 49.8856 30.2572 49.7999 29.4857C49.7141 28.9714 49.1999 28.8 48.6856 28.8C46.9713 28.8 45.857 31.0286 46.1141 32.8286C46.1999 33.5143 46.5427 34.2857 47.2284 34.2857C47.7427 34.2857 48.5141 33.5143 48.857 32.4C49.0284 31.7143 49.7141 31.1143 50.3141 31.1143C50.5713 31.1143 50.7427 31.2 50.8284 31.5429C50.8284 31.7143 50.8284 32.0572 50.4856 33.1714C50.057 33.9429 50.057 34.3714 50.1427 34.7143C50.2284 35.4 50.5713 35.9143 50.9141 36.1714C50.9999 36.2572 51.0856 36.4286 51.0856 36.4286C51.0856 36.6 50.9999 36.7714 50.7427 36.7714C50.657 36.7714 50.5713 36.7714 50.4856 36.6857C49.1999 36.1714 48.6856 35.3143 48.5141 34.4572C47.9999 35.0572 47.3999 35.4 46.7141 35.4C45.5999 35.4 44.4856 34.3714 44.3141 33.0857C44.2541 32.5697 44.3313 32.0143 44.5001 31.4632C43.9919 31.7889 43.4459 31.9714 42.9436 31.9714H42.515C41.4007 33.6 40.2007 34.7143 39.3436 35.2286C39.0007 35.4 38.6579 35.4857 38.4007 35.4857C38.2293 35.4857 37.9721 35.4 37.8864 35.2286C37.6507 34.848 37.4973 34.2463 37.4039 33.5597C36.2013 34.8772 34.541 35.5714 33.773 35.5714C32.9159 35.5714 32.4016 35.0572 32.3159 34.2V33.2572C32.573 31.3714 33.2587 30.2572 33.2587 29.9143C33.2587 29.8286 33.173 29.7429 33.0873 29.7429C32.4873 29.7429 30.5159 31.8 30.173 33.1714L29.9159 34.2857C29.7444 35.0572 28.973 35.5714 28.4587 35.5714C28.2016 35.5714 28.0301 35.4857 27.9444 35.1429V34.8L28.061 34.2172C26.9741 34.992 25.8839 35.4857 25.3739 35.4857C24.6024 35.4857 24.1739 35.0572 24.0881 34.4572C23.5739 35.1429 22.9739 35.4857 22.2024 35.4857C21.323 35.4857 20.4624 34.8857 20.0467 34.0054C19.4381 34.6912 18.7413 35.3854 17.9184 35.9152C16.7184 36.6866 15.347 37.2866 13.7184 37.2866C12.2613 37.2866 10.9756 36.5152 10.2899 35.8294C9.26128 34.8866 8.66128 33.4294 8.57557 32.058C8.06128 27.858 10.6327 22.458 14.5756 20.058C15.5184 19.5437 16.4613 19.2009 17.4041 19.2009C19.2899 19.2009 20.747 20.5723 20.9184 22.2009C21.0899 23.658 20.4899 24.9437 18.8613 25.7152C18.0041 26.1437 17.6613 26.1437 17.4899 25.8866C17.4041 25.7152 17.4899 25.5437 17.6613 25.3723C19.2041 24.0866 19.2041 23.058 19.0327 21.6009C18.947 20.658 18.2613 20.058 17.5756 20.058C14.5756 20.058 10.2899 26.7437 10.8899 31.6294C11.147 33.5152 12.2613 35.7437 14.6613 35.7437C15.4327 35.7437 16.2899 35.4866 17.0613 35.1437C18.3127 34.4837 19.0584 33.9694 19.8041 33.1466C19.6216 30.9326 21.5647 28.0294 24.4327 28.0294C25.7184 28.0294 26.747 28.5437 26.8327 29.4866C27.0041 30.7723 25.8899 30.9437 25.547 30.9437C25.2041 30.9437 24.6041 30.858 24.6041 30.5152C24.5184 30.1723 25.3756 30.3437 25.2899 29.5723C25.2041 29.058 24.6899 28.8866 24.1756 28.8866C22.3756 28.8866 21.347 31.3723 21.6041 32.9152C21.6899 33.6009 22.0327 34.2866 22.7184 34.2866C23.2327 34.2866 24.0041 33.5152 24.2613 32.4009C24.4327 31.6294 25.1184 31.1152 25.7184 31.1152C25.9756 31.1152 26.147 31.2009 26.2327 31.5437V31.8866C26.147 32.2294 25.8899 33.258 25.9756 33.5152C25.9756 33.6866 26.0613 33.9437 26.4041 33.9437C26.6313 33.9437 27.4927 33.4929 28.3447 32.7952C28.6361 31.3209 28.9764 29.5509 28.9764 29.4026C29.0621 28.8026 29.3193 28.2026 30.5193 28.2026C30.7764 28.2026 30.9479 28.2883 31.0336 28.6312V28.974L30.6907 30.5169C31.805 29.0597 33.4336 28.0312 34.4621 28.0312C34.8907 28.0312 35.2336 28.2883 35.2336 28.7169C35.2336 28.974 35.2336 29.4026 35.0621 29.8312C34.7193 30.774 34.2907 32.2312 34.0336 33.5169C34.0336 33.8597 34.1193 34.2026 34.5479 34.2026C34.9764 34.2026 36.2621 33.6883 37.2907 32.3169L37.3079 32.3066C37.3027 32.1386 37.2907 31.9723 37.2907 31.8034C37.2907 30.7749 37.3764 29.9177 37.5479 29.3177C37.7193 28.632 38.5764 28.032 39.0907 28.032C39.3479 28.032 39.605 28.2034 39.605 28.4606C39.605 28.5463 39.605 28.7177 39.5193 28.8034C39.1764 29.9177 38.9193 30.9463 38.9193 31.9749C38.9193 32.5749 39.005 33.432 39.1764 33.9463C39.1764 34.032 39.2621 34.1177 39.3479 34.1177C39.5193 34.1177 40.7193 33.0034 41.5764 31.5463C40.805 31.032 40.3764 30.1749 40.3764 29.1463C40.3764 27.3463 41.4907 26.4034 42.5193 26.4034C43.3764 26.4034 44.0621 27.0034 44.0621 28.2034C44.0621 28.9749 43.805 29.832 43.3764 30.6034H43.6336C44.3193 30.6034 44.7479 30.3463 45.0907 30.0034C45.17 29.8737 45.2877 29.7718 45.4276 29.712C46.2641 28.6492 47.5019 27.8606 48.9504 27.8606C50.1504 27.8606 51.2621 28.3749 51.3504 29.3177C51.5219 30.6034 50.4059 30.8606 50.0621 30.8606L50.057 30.8572Z" fill="white"/>
<path fill-rule="evenodd" clip-rule="evenodd" d="M41.8285 27.4286C41.5713 27.4286 41.3999 27.8571 41.3999 28.2857C41.3999 28.9714 41.7428 29.7428 42.1713 30.1714C42.3428 29.6571 42.4285 29.2286 42.4285 28.7143C42.4285 27.8571 42.0856 27.4286 41.8285 27.4286Z" fill="#00C4CC"/>
</svg>
