<svg fill="none" height="21" viewBox="0 0 132 21" width="132" xmlns="http://www.w3.org/2000/svg" xmlns:xlink="http://www.w3.org/1999/xlink"><clipPath id="a"><path d="m0 .234375h132v20.625h-132z"/></clipPath><g clip-path="url(#a)" fill="#00237c"><path d="m16.4893.269025c-1.8645 0-3.3693.632775-4.4814 2.359495-.7178-1.53862-2.27538-2.359495-4.20753-2.359495-1.55677 0-3.37012.752395-4.13985 2.137575v-1.487475c0-.136125-.11962-.25575-.25657-.25575h-3.147375c-.13695-.00165-.256575.117975-.256575.2541v13.650425c0 .137.119625.2558.256575.2558h3.318155c.13695 0 .25657-.1188.25657-.2558v-8.03877c0-1.55678.97515-2.78851 2.65155-2.78851 1.72755 0 2.49728 1.14676 2.49728 2.66888v8.1419c0 .137.11962.2558.25657.2558h3.2835c.1378 0 .2574-.1188.2574-.2558v-8.0396c0-1.52212.9751-2.7885 2.6169-2.7885 1.7622 0 2.4973 1.14675 2.4973 2.66888v8.14272c0 .1361.1196.2558.2565.2558h3.1986c.1369 0 .2566-.1197.2566-.2558v-8.89595c.0173-3.79748-2.4973-5.37075-5.1142-5.37075zm14.6421 11.922075c-1.8645 0-3.6441.7524-4.2768 1.796 1.1979.8209 2.6515 1.2656 4.2768 1.2656 1.6079 0 3.0789-.462 4.2759-1.2656-.6327-1.0436-2.4799-1.796-4.2759-1.796zm16.1642-11.956725c-3.6259 0-6.9614 2.941945-6.9614 7.457995 0 4.77183 3.4205 7.56033 7.3038 7.56033 3.267 0 5.4565-1.8134 6.2947-4.0541.0512-.1369-.0173-.2904-.1716-.3415l-2.7703-.7359c-.1205-.0338-.2393.0165-.2913.1369-.5131 1.0263-1.4709 1.7276-3.0442 1.7276-1.8992 0-3.4898-1.3514-3.5756-3.21588h9.8869c.1369 0 .2392-.1023.2565-.23925.0165-.22275.0347-.59894.0347-.94049.0338-4.5672-2.5831-7.355705-6.9622-7.355705zm-3.1127 5.901225c.0849-1.3002 1.1797-2.7885 3.1638-2.7885 1.8819 0 3.1136 1.386 3.1648 2.7885z"/><path d="m31.1312.234375c-4.2248 0-7.4242 3.130055-7.4242 7.509155 0 1.89832.6163 3.59207 1.6591 4.87487.8555-.7697 2.1384-1.4883 3.644-1.7787-.8382-.6501-1.4025-1.7275-1.4025-3.23313 0-2.6169 1.6756-3.79747 3.5063-3.79747 1.8298 0 3.5062 1.1979 3.5062 3.79747 0 1.50563-.5643 2.58223-1.386 3.23313 1.5057.2904 2.7885 1.009 3.6441 1.7614 1.0436-1.2829 1.659-2.95925 1.659-4.8749.0174-4.36177-3.1647-7.491825-7.406-7.491825zm93.8728 0c-3.626 0-6.962 2.941945-6.962 7.457995 0 4.77183 3.421 7.56033 7.304 7.56033 3.285 0 5.457-1.8134 6.295-4.0541.051-.1369-.035-.2904-.172-.3415l-2.771-.7359c-.119-.0338-.239.0165-.29.1369-.513 1.0263-1.471 1.7276-3.045 1.7276-1.899 0-3.489-1.3514-3.575-3.21588h9.921c.137 0 .24-.1023.257-.23925.016-.22275.034-.59894.034-.94049 0-4.5672-2.617-7.355705-6.996-7.355705zm-3.096 5.901225c.085-1.3002 1.18-2.7885 3.164-2.7885 1.882 0 3.113 1.386 3.165 2.7885zm-6.056-5.473875h-3.181c-.137 0-.257.119625-.257.256575v1.41982c-.479-.957-1.762-1.93297-4.019-1.93297-3.883 0-6.586 3.1647-6.586 6.91102 0 3.96823 2.822 6.87553 6.586 6.87553 2.035 0 3.369-.8893 3.951-1.8125v1.0428c0 2.7373-1.351 3.9352-3.763 3.9352-1.711 0-2.908-1.0098-3.25-2.4296-.034-.1369-.171-.2227-.308-.1881l-2.976.7871c-.137.0338-.205.1708-.189.2904.513 2.6004 3.063 4.8922 6.843 4.8922 5.319 0 7.423-3.5409 7.423-7.4233v-12.366775c-.017-.137775-.12-.2574-.274-.2574zm-6.79 10.246475c-1.985 0-3.404-1.38598-3.404-3.59203 0-2.18955 1.488-3.57555 3.404-3.57555 1.847 0 3.335 1.386 3.335 3.57555s-1.385 3.59203-3.335 3.59203zm-45.2088-10.622675c-1.523 0-3.2159.667425-4.0887 2.138405v-1.50563c0-.136125-.1196-.25575-.2558-.25575h-3.1993c-.137 0-.2558.119625-.2558.25575v13.6504c0 .137.1188.2558.2558.2558h3.319c.1361 0 .2557-.1188.2557-.2558v-7.8853c0-1.64175.9752-2.94278 2.6516-2.94278 1.848 0 2.6169 1.23173 2.6169 2.82233v8.00575c0 .137.1204.2558.2565.2558h3.319c.137 0 .2558-.1188.2558-.2558v-8.67235c0-3.09623-1.6071-5.61-5.1315-5.61zm29.8485-.05115c-3.729 0-5.7643 2.360325-6.0555 4.549875-.0173.06847.0346.11963.1031.13695l3.1474.66742c.0685.0165.1361-.03465.1534-.10312.1708-1.17975 1.0775-2.17222 2.6854-2.17222s2.395.8382 2.395 1.848c0 .495-.2566.88852-1.0601 1.00897l-3.4898.51315c-2.3603.34155-4.2248 1.76137-4.2248 4.2933 0 2.2234 1.8472 4.2587 4.8576 4.2587 2.0872 0 3.4213-.9571 4.1563-2.0692v1.4025c0 .137.1197.2558.2566.2558h2.9939c.1362 0 .2566-.1188.2566-.2558v-8.94707c-.0173-2.85533-1.6764-5.387255-6.1751-5.387255zm2.4288 8.860495c0 2.49723-1.4883 3.28353-3.1127 3.28353-1.2318 0-1.848-.8036-1.848-1.6418 0-1.09475.7697-1.64172 1.7622-1.77867l3.1985-.49583zm-11.0666-8.433145h-3.182c-.1369 0-.2557.119625-.2557.256575v1.41982c-.4794-.957-1.7804-1.93297-4.0211-1.93297-3.8833 0-6.586 3.1647-6.586 6.91102 0 3.96823 2.8232 6.87553 6.586 6.87553 2.0353 0 3.3693-.8893 3.9518-1.8125v1.0428c0 2.7373-1.3522 3.9352-3.7637 3.9352-1.7102 0-2.9081-1.0098-3.2505-2.4296-.033-.1369-.1708-.2227-.3077-.1881l-2.9758.7871c-.1369.0338-.2062.1708-.1881.2904.5132 2.6004 3.0608 4.8922 6.8417 4.8922 5.3196 0 7.4234-3.5409 7.4234-7.4233v-12.366775c-.0165-.137775-.1361-.2574-.2731-.2574zm-6.7914 10.246475c-1.9841 0-3.4039-1.38598-3.4039-3.59203 0-2.18955 1.4883-3.57555 3.4039-3.57555 1.848 0 3.3355 1.386 3.3355 3.57555s-1.3852 3.59203-3.3355 3.59203z"/></g></svg>