<svg fill="none" height="52" viewBox="0 0 132 52" width="132" xmlns="http://www.w3.org/2000/svg"><path clip-rule="evenodd" d="m71.343 21.0008c-.8971-.3204-2.3043-.7036-3.4551-.7036-1.3443 0-2.367.3204-2.367 1.5366 0 2.8143 7.3574 1.0868 7.3574 6.973 0 3.9677-3.1988 5.503-6.8461 5.503-1.6634 0-3.3269-.2564-4.8622-.7049l.2563-3.4538s2.367.8317 4.4137.8317c1.4084 0 2.5593-.4485 2.5593-1.6634 0-3.0719-7.3574-1.0881-7.3574-6.9102 0-3.6473 3.0706-5.1185 6.4615-5.1185 1.9839 0 3.6473.3845 4.6072.7036l-.7689 3.0065zm-13.373 0c-.9599-.3204-2.303-.7036-3.4551-.7036-1.3431 0-2.367.3204-2.367 1.5366 0 2.8143 7.3587 1.0868 7.3587 6.973 0 3.9677-3.2642 5.503-6.8474 5.503-1.6634 0-3.3269-.2564-4.9263-.7049l.3204-3.4538s2.4311.8317 4.415.8317c1.343 0 2.5592-.4485 2.5592-1.6634 0-3.0719-7.3587-1.0881-7.3587-6.9102 0-3.6473 3.136-5.1185 6.4629-5.1185 1.9826 0 3.6473.3845 4.67.7036zm67.694-3.9023c3.199 0 5.055 1.7275 5.055 5.503v11.3238h-4.223v-10.4921c0-1.7275-.513-2.8156-2.303-2.8156-1.792 0-3.392 1.5994-3.392 4.415v8.894h-4.159v-10.4934c0-1.5994-.513-2.8156-2.303-2.8156-1.92 0-3.391 1.7276-3.391 4.6072v8.7018h-4.287v-16.4449c2.816-.3204 3.903.8317 3.967 2.6233 1.025-1.8557 2.815-3.0078 5.118-3.0078 2.944 0 4.16 1.6635 4.543 3.1988.769-1.6635 2.56-3.1988 5.375-3.1988zm-86.6328.3204c-.8958 4.8622-3.2629 12.6041-4.7982 16.4423h-4.479l-3.1347-11.0047h-.064l-3.136 11.006h-4.4778c-1.4084-3.8395-4.0317-11.7736-4.7994-16.4436h4.2227l2.8156 11.3238h.0641l3.3269-11.3238h4.2227l3.2629 11.261h.064l2.8156-11.261zm-27.4483 3.5819c-.8958-.3204-2.30299-.7036-3.4551-.7036-1.34307 0-2.30295.3204-2.30295 1.5366 0 2.8143 7.29335 1.0868 7.29335 6.973 0 3.9677-3.19879 5.503-6.84609 5.503-1.66346 0-3.32692-.2564-4.86222-.7049l.25631-3.4538s2.43111.8317 4.41367.8317c1.40843 0 2.55927-.4485 2.55927-1.6634 0-3.0732-7.3574-1.0881-7.3574-6.9102 0-3.6473 3.0706-5.1185 6.46287-5.1185 1.98257 0 3.64599.3845 4.60589.7036zm84.521 13.2449c-4.67 0-7.9328-2.5593-7.9328-8.3173 0-5.1185 3.4537-8.8299 8.4454-8.8299 4.6695 0 7.6765 2.6233 7.6765 8.1891 0 5.3749-3.263 8.9581-8.1891 8.9581zm.1922-13.4999c-1.9198 0-3.7114 1.4071-3.7114 5.0544 0 3.1347 1.1521 4.8623 3.6473 4.8623 2.112 0 3.7114-1.7276 3.7114-5.0545 0-3.1988-1.1521-4.8622-3.6473-4.8622zm-55.3452 13.1795h4.2228v-16.4423c-1.9839-.1923-4.2228.3203-4.2228 3.455zm2.303-18.5543c1.4725 0 2.6874-1.1522 2.6874-2.6234 0-1.4071-1.2149-2.5592-2.6874-2.5592-1.4072 0-2.6233 1.088-2.6233 2.5592s1.2161 2.6234 2.6233 2.6234zm39.4142 18.8106c-4.8635 0-8.0623-2.4311-8.0623-8.2532 0-4.9276 2.7515-8.7658 8.7658-8.7658 1.279 0 2.9425.2563 4.0305.7048l-.8958 3.4538c-.9599-.3204-1.9197-.5767-3.0065-.5767-3.0719 0-4.3509 1.9839-4.3509 5.0557 0 2.9425 1.1509 4.8623 4.1587 4.8623 1.4071 0 2.367-.3204 3.3269-.7036l.5126 3.391c-.8971.4485-2.6233.833-4.479.833z" fill="#015" fill-rule="evenodd"/></svg>