<svg fill="none" height="22" viewBox="0 0 122 22" width="122" xmlns="http://www.w3.org/2000/svg"><g clip-rule="evenodd" fill-rule="evenodd"><path d="m42.2306 14.2097c.5071-1.1353 1.57-1.9083 2.9712-1.9083 1.4013 0 2.44.6521 2.8749 1.9083zm9.1797 1.4494c0-3.4787-2.5368-6.25661-6.2326-6.25661-3.4787 0-6.2809 2.80201-6.2809 6.28091 0 3.4786 2.6092 6.2808 6.3777 6.2808 2.6098 0 4.487-1.259 5.5432-3.0637l-2.625-1.5653c-.5569 1.0685-1.6258 1.7302-2.8941 1.7302-1.7394 0-2.8263-.8699-3.213-2.1985h9.3247zm67.3767 0c0-1.7875-1.305-3.237-3.092-3.237-1.836 0-3.237 1.377-3.237 3.237 0 1.8601 1.401 3.2613 3.237 3.2613 1.787 0 3.092-1.4735 3.092-3.2613zm-9.566.0243c0-4.2756 3.14-6.28091 5.87-6.28091 1.57 0 2.802.57979 3.599 1.42521v-6.7397h3.31v17.6345h-3.31v-1.3526c-.797.9422-2.077 1.5943-3.647 1.5943-2.561 0-5.822-2.0293-5.822-6.2808zm-2.431-7.87765c1.093 0 1.979-.8863 1.979-1.97972 0-1.09341-.886-1.97972-1.979-1.97972-1.094 0-1.98.88631-1.98 1.97972 0 1.09342.886 1.97972 1.98 1.97972zm-1.655 1.83843h3.309v12.07832h-3.309v-8.8654l-1.201-.0002zm-8.8163 0h3.2854v1.98092c.6039-1.2562 1.6909-1.98092 3.3339-1.98092h1.328l-1.199 3.21272h-.902c-1.764 0-2.5368.9181-2.5368 3.1646v5.701h-3.3095zm-18.6182 3.26112c0-5.02475 3.7927-9.05899 9.0105-9.05899 2.61 0 4.8048.93983 6.3939 2.4375.6468.60938 1.193 1.31134 1.6262 2.07996l-2.947 1.78753c-1.0871-2.00512-2.754-3.04385-5.0489-3.04385-3.2129 0-5.7011 2.63331-5.7011 5.79785 0 3.2371 2.44 5.7976 5.8218 5.7976 2.5609 0 4.3723-1.4493 5.0005-3.696h-5.5319v-3.2128h9.1554v1.3527c0 4.7349-3.3818 8.8174-8.624 8.8174-5.5076 0-9.1554-4.1791-9.1554-9.0589zm-3.9894 2.7538c0-1.7875-1.3043-3.237-3.0919-3.237-1.8359 0-3.2372 1.377-3.2372 3.237 0 1.8601 1.4013 3.2613 3.2372 3.2613 1.7876 0 3.0919-1.4735 3.0919-3.2613zm-9.5661.0243c0-4.2756 3.1403-6.28091 5.8702-6.28091 1.5701 0 2.8021.57979 3.5994 1.42521v-6.7397h3.3095v17.6345h-3.3095v-1.3526c-.7973.9422-2.0775 1.5943-3.6477 1.5943-2.5606 0-5.8219-2.0293-5.8219-6.2808zm-11.9611-6.03922h3.2856v1.35272c.7729-.9905 1.9567-1.59441 3.3336-1.59441 2.8504 0 4.5656 1.83591 4.5656 4.95211v7.3679h-3.3579v-6.933c0-1.6186-.7488-2.5607-2.2222-2.5607-1.2563 0-2.295.8697-2.295 2.8988v6.5949h-3.3097zm-27.0218 9.15542 3.0682-2.4159c.8695 1.498 2.2465 2.3675 3.8164 2.3675 1.7155 0 2.6335-1.111 2.6335-2.3191 0-1.4493-1.7638-1.9081-3.6479-2.4882-2.3672-.7246-5.0005-1.6425-5.0005-5.02462 0-2.82629 2.4643-5.07297 5.8702-5.07297 2.8748 0 4.5174 1.0871 5.9428 2.56084l-2.7783 2.10156c-.7245-1.08693-1.7633-1.66689-3.1404-1.66689-1.5702 0-2.4154.84558-2.4154 1.95679 0 1.35269 1.6908 1.81199 3.5749 2.43979 2.3918.773 5.0973 1.836 5.0973 5.2181 0 2.802-2.2226 5.5077-6.1119 5.5077-3.1885 0-5.3143-1.3526-6.9089-3.1646z" fill="#212f38"/><path d="m7.09619 21.7225h7.05351v-7.0536h-7.05351z" fill="#9dd6e3"/><path d="m.0424805 14.6693h7.0535195v-7.0537h-7.0535195z" fill="#9dd6e3"/><path d="m.0424805 21.7225h7.0535195v-7.0536h-7.0535195z" fill="#3f72ab"/><path d="m14.1499 14.6693h7.0535v-7.0537h-7.0535z" fill="#00a9d1"/><path d="m7.09619 7.61578h7.05351v-7.053524h-7.05351z" fill="#00a9d1"/><path d="m7.09619 14.6691h7.05351v-7.0535h-7.05351z" fill="#2191c4"/><path d="m14.1499 7.61578h7.0535v-7.053524h-7.0535z" fill="#3f72ab"/></g></svg>