<svg fill="none" height="28" viewBox="0 0 100 28" width="100" xmlns="http://www.w3.org/2000/svg" xmlns:xlink="http://www.w3.org/1999/xlink"><clipPath id="a"><path d="m0 .756958h100v26.486h-100z"/></clipPath><g clip-path="url(#a)"><path d="m27.424 13.8543c-.3385-2.8991-1.722-5.57531-3.8915-7.52784-2.1695-1.95252-4.9762-3.04745-7.8947-3.07982h-.1325c-2.1169.00175-4.1959.56129-6.02774 1.62227l-.09049.05517-.07946.04636c-6.85986 4.08546-9.30761 13.51886-9.30761 19.26196l5.51791-3.1894c1.94672 3.7103 5.68349 6.1536 9.84839 6.1999h.1324c.4647.0001.929-.0271 1.3905-.0816 1.5655-.182 3.0799-.6705 4.4566-1.4377s2.5888-1.7981 3.5671-3.0338c.9782-1.2357 1.7035-2.652 2.1344-4.168.4308-1.516.5589-3.102.3767-4.6675zm60.7809 6.0079c.81 1.609 2.2579 2.4455 4.1738 2.4411 1.8805 0 2.8869-.916 2.8825-1.9864 0-1.3089-1.9511-1.6069-4.2731-2.0704-3.0569-.6356-6.4537-1.5671-6.4537-5.3965 0-3.05691 2.9421-5.71875 7.4117-5.69668 3.5491 0 5.7761 1.22718 7.4249 3.33058l-3.8604 2.2359c-.7416-1.2073-1.8871-1.9092-3.5667-1.9048-1.8143 0-2.6862.746-2.684 1.7657 0 1.1411 1.4833 1.4391 4.1385 2.0041 3.026.596 6.5906 1.6289 6.6016 5.518 0 2.8229-2.5051 6.0189-7.7803 6.0012-3.9728.0111-6.606-1.3618-8.1289-3.8493zm-16.578 0c.8122 1.609 2.2579 2.4455 4.1737 2.4411 1.8806 0 2.887-.916 2.8848-1.9864 0-1.3089-1.9533-1.6069-4.2731-2.0704-3.0591-.6312-6.4559-1.5626-6.4647-5.3921 0-3.0569 2.9399-5.71874 7.4094-5.69667 3.5513 0 5.7762 1.22719 7.4271 3.33057l-3.8515 2.2315c-.7416-1.2073-1.8871-1.9092-3.5668-1.9048-1.8143 0-2.6861.746-2.6817 1.7657 0 1.1411 1.481 1.4391 4.1385 2.0041 3.0238.596 6.5884 1.6289 6.5994 5.518 0 2.8229-2.5029 6.0189-7.7803 6.0012-3.9729.0111-6.606-1.3618-8.1267-3.8493zm-14.6247-12.70447c-1.8738.00001-3.7055.55571-5.2634 1.59683-1.558 1.04111-2.7722 2.52084-3.489 4.25214-.7169 1.7312-.9043 3.6362-.5384 5.4739.3659 1.8378 1.2686 3.5257 2.5939 4.8504 1.3252 1.3246 3.0136 2.2265 4.8515 2.5915 1.8379.3651 3.7428.1768 5.4737-.5408 1.7309-.7177 3.2101-1.9326 4.2505-3.491 1.0404-1.5585 1.5953-3.3904 1.5944-5.2642-.0018-2.5115-1.0005-4.9196-2.7768-6.69506-1.7764-1.77548-4.1849-2.77312-6.6964-2.77371zm0 14.52537c-.999 0-1.9756-.2962-2.8064-.8512-.8307-.5549-1.4783-1.3437-1.8608-2.2666s-.4828-1.9385-.2882-2.9184.6753-1.8802 1.3814-2.5869 1.606-1.1883 2.5857-1.3837 1.9954-.096 2.9187.2857c.9232.3817 1.7126 1.0286 2.2682 1.8588.5557.8303.8528 1.8066.8536 2.8057 0 1.3399-.5323 2.6249-1.4797 3.5724-.9475.9475-2.2325 1.4798-3.5725 1.4798zm-11.9253-1.2537c-.5827.4657-1.8032 1.0396-2.4146 1.0396-1.1875 0-2.0019-.6776-2.0019-2.6111v-7.1975h5.6393v-4.13628h-5.6393v-6.767162l-4.6991 2.712602v4.05456h-3.7522v4.13628h3.7522v7.6191c0 4.9882 2.3264 6.8201 6.158 6.8201 1.6951 0 3.9575-1.0042 5.1427-1.8849z" fill="#0064ff"/></g></svg>