<svg fill="none" height="34" viewBox="0 0 85 34" width="85" xmlns="http://www.w3.org/2000/svg" xmlns:xlink="http://www.w3.org/1999/xlink"><clipPath id="a"><path d="m0 .543518h85v32.882h-85z"/></clipPath><g clip-path="url(#a)" fill="#38bfc3"><path d="m84.1847 4.07357c-.5518-.11203-1.0862.24477-1.1973.7948-.0014.00608-.0022.01167-.0035.01775-.1449.71779-.2862 1.44133-.4241 2.16298-.6436 3.1192-1.7346 6.9076-4.6993 7.1637-.7606.0652-1.0498-.1769-1.2181-.3954-1.014-1.3167-.1681-5.53796.7559-8.11486.1894-.528-.0847-1.1096-.6128-1.29946-.4574-.16439-.9565.0203-1.2046.41729l-.2867.24781c-1.2039 1.04097-2.7828 2.40602-4.4014 3.3588-.2015-.40784-.4455-.7828-.7304-1.11231-1.0918-1.26265-2.7038-1.81482-4.4224-1.51563-1.2588.21879-2.2568 1.17272-2.4267 2.31906-.074.49891-.0199.9051.1111 1.24415-.1665.12-.3173.252-.4575.39173-.096.03452-.1876.08433-.2729.15-1.1038.85112-1.9882 1.34712-2.7148.99862-.5384-.2582-.6243-.7214-.6403-2.17907-.0014-.13356-.0026-.26852-.0056-.40357-.0108-.55381-.4635-.99576-1.0154-.99576-.0069 0-.0134 0-.0203.00041-.0074 0-.0143.00082-.0217.00132-.4596.0069-.873.32688-.9764.79611-.3676 1.66703-.7641 3.36046-1.1477 4.99756-.0389.166-.0778.3347-.1172.5012-.0255.0575-.0467.1182-.0618.1817-.2227.9367-1.2224 2.4575-2.1833 3.3211-1.3311 1.1961-3.14 1.8101-4.6353 1.625.9682-.8925 1.8153-1.9053 2.4115-2.9305.3872-.6646 1.5914-2.9768.8421-4.8203-.4369-1.0741-1.3047-1.78112-2.4446-1.99177-1.3882-.25603-3.0023.30353-4.0194 1.39237-1.3801 1.4786-2.1012 3.9222-1.7142 5.8106.2206 1.0763.6465 1.9964 1.2494 2.7255-.3499.1929-.6989.358-1.0398.4878-.4985.1894-1.7534.5388-2.64-.3208-.9984-.9696-.6892-2.9778-.5694-3.5767l.0013-.0051c.6227-3.0945 1.4331-6.2006 2.2807-9.25833 3.6814-.52233 5.9786-.72519 6.0258-.72905.5592-.04808.9734-.54017.9255-1.09932-.0479-.55916-.538-.97259-1.0992-.92549-.0446.00411-2.0251.17868-5.2549.61973.1362-.48206.2724-.96297.4082-1.44125l.24-.84625c.1529-.53968-.1605-1.101382-.7006-1.254506-.5406-.153043-1.1014.16044-1.2545.700526l-.24.84543c-.2171.76538-.435 1.53684-.6526 2.31093-3.9653.59376-9.1825 1.51218-14.8257 2.87263-.5454.13151-.8809.68022-.7495 1.22549.1121.46579.528.77836.9868.77836.0788 0 .1587-.00945.2387-.02852 5.1645-1.2448 9.9651-2.11481 13.7543-2.70216-.7659 2.79866-1.4906 5.63838-2.0653 8.48518-.1661.5387-.298 1.0839-.4246 1.6111-.2521 1.0508-.4905 2.0436-.9709 2.9007-.3308.5908-1.1191 1.3225-1.8158 1.4764-.3247.0717-.4999-.0165-.6162-.1003-.2466-.1783-.3481-.704-.2867-1.4781.0666-.8311.2063-1.6623.3896-2.489.4545-1.2952.7909-2.6175 1.0734-3.8754.1197-.5327-.2033-1.0652-.7313-1.2047-.5281-.1402-1.072.1629-1.2317.6849-.1224.4-.2451.8026-.3657 1.2077-.6302-1.0288-1.6153-1.7556-2.6968-1.9568-2.0194-.3758-3.7862 1.0208-4.7671 2.4531-.6008.8778-1.0429 1.8598-1.3118 2.8872-.052.09-.0912.1878-.1148.2941-.112.5113-.1911 1.0093-.2677 1.491-.2651 1.6658-.4743 2.9803-1.8323 3.9421-.4423.3132-1.1303.4636-1.5148.1712-.2369-.18-.3983-.5614-.4216-.9964-.0705-1.3198.5812-2.5998 1.375-4.0172.257-.4574.1225-1.036-.3098-1.3336-.1148-.0787-.343-.211-.8481-.502-.7078-.4082-2.5233-1.4551-3.0006-1.8521-.1461-.2586-.4035-.451-.7196-.503-.5535-.0916-1.0763.2829-1.1675.8369-.4026 2.4362-.8575 4.8017-1.9888 6.9595-.8899 1.6984-2.5734 3.0251-4.5029 3.55-1.72067.4662-3.43612.2458-4.83059-.6235-1.60868-1.0032-2.79619-2.8291-3.17675-4.883-.35236-1.9026-.04578-4.0558.86319-6.0644.73291-1.6202 2.33756-4.49756 4.84665-5.56622 1.36908-.58291 2.909-.55562 4.019.07134 1.004.56779 1.6594 1.82615 1.5575 2.99238-.0523.6015-.3356 1.3968-1.3876 1.7696-.529.1872-.8061.7679-.6185 1.2968.1873.5288.7677.8054 1.2969.6183 1.5919-.5638 2.5886-1.8426 2.7339-3.5083.1699-1.95208-.8921-3.98224-2.5829-4.93789-1.673-.94522-3.84681-1.00974-5.81483-.17179-3.1428 1.33843-5.04638 4.70838-5.90126 6.59758-1.078531 2.3836-1.437055 4.9661-1.009818 7.2727.482635 2.6048 2.014708 4.9364 4.098938 6.2364 1.24465.7757 2.66732 1.1719 4.14662 1.1719.75453 0 1.52434-.1029 2.29235-.3113 2.4653-.6695 4.6223-2.3766 5.7699-4.5673.9989-1.9052 1.5165-3.8816 1.9014-5.9053.6763.4239 1.4771.8865 2.0852 1.2378-.7023 1.3465-1.2381 2.7147-1.156 4.2447.0559 1.0456.5013 1.9589 1.2217 2.5064 1.0607.8051 2.6718.7506 3.9181-.1315.7529-.5345 1.2732-1.1451 1.6445-1.7921.3226.4411.7243.7905 1.1966 1.0274.4622.2336.9838.3504 1.523.3504.4783 0 .9708-.0916 1.4486-.2767.7408-.2863 1.4448-.7828 2.1523-1.5179.3175-.3304.6119-.6789.8848-1.043.1878.5431.497.9713.9272 1.2825.646.4679 1.4227.6202 2.2448.4385 1.3863-.3052 2.6053-1.4926 3.1511-2.4666.1068-.1911.2002-.384.2889-.5786.1406.2024.2959.3901.4696.5597.7671.7439 1.776 1.1277 2.8742 1.1277.6154 0 1.2589-.1211 1.9032-.3658.6715-.2559 1.3591-.6148 2.0312-1.0491.2005.0951.4094.1799.6265.2509 2.1786.7178 4.9509.0614 7.0201-1.6285-.1687.8329-.314 1.6856-.4532 2.5159-.0831.4938-.1669.9919-.2565 1.4892-2.5422.332-5.1364.723-7.4299 1.8162-1.2779.608-2.2414 1.5446-2.7118 2.6361-.4601 1.0681-.4567 2.2539.0095 3.3383.4527 1.0534 1.2835 1.8837 2.3395 2.3386.6148.2639 1.2929.3944 1.987.3944 1.0356 0 2.1055-.2905 3.0482-.8544 1.2937-.7749 2.3788-2.0394 3.1377-3.6584.6235-1.3293 1.0252-2.7469 1.3335-4.1842.2349-.0312.4676-.0633.698-.096 3.5442-.5025 7.0546-.7931 10.3203-1.0318.5595-.0415.9797-.5275.9392-1.088-.0411-.5587-.5277-.9791-1.0876-.9393-3.3011.2421-6.8532.5362-10.4573 1.0473-.0048.0008-.0096.0008-.0143.0026.0501-.2923.0994-.5846.1484-.8745.1721-1.023.3343-1.9899.5419-2.9361.3822-1.7444.7969-3.5149 1.1977-5.2277.099-.4228.1989-.8496.2992-1.2786.1895.1605.411.3053.6712.4303.4671.2236.9287.3156 1.3742.3156.4148 0 .8139-.0813 1.191-.2076-.0952 1.2325.1707 2.4307.5989 3.1335.8255 1.3556 2.3605 2.1953 3.9355 2.1953.1729 0 .3464-.0094.5198-.0302 1.9433-.2334 3.5208-1.5619 4.3277-3.6462.5116-1.3225.6518-2.7697.4506-4.0951 1.0857-.59067 2.125-1.33188 3.0586-2.06792-.4805 2.28162-.7361 5.15072.4751 6.72432.474.6162 1.3795 1.3215 3.0037 1.181 1.2086-.1047 2.1907-.5488 2.9946-1.213-.1691.8165-.3455 1.6303-.5315 2.4371-.1062.4618-.2104 1.0015-.3207 1.5722-.5063 2.6257-1.2718 6.5937-3.2869 7.4309-.7792.3235-1.6523.2767-2.396-.1281-.7192-.3909-1.2152-1.0698-1.3605-1.8629-.1223-.6659.0178-1.3233.3845-1.8023.3469-.4532.8614-.7213 1.4883-.7732.5592-.0476.9747-.5388.9276-1.0983-.0471-.5588-.5396-.974-1.0975-.9271-1.1969.1011-2.2383.6563-2.9328 1.5645-.714.934-.9942 2.1751-.7689 3.4032.257 1.4001 1.1274 2.5963 2.3884 3.2813.7196.3909 1.5091.5881 2.3014.5881.624 0 1.2501-.1219 1.8444-.3684 3.0247-1.2558 3.8791-5.6874 4.5032-8.9229.1068-.5526.2075-1.0741.3057-1.5014.6089-2.64 1.1122-5.337 1.5992-7.94536.1561-.83894.3156-1.693.4791-2.54879.0925-.44795.1747-.87732.2513-1.27686.0592-.30822.1154-.60198.1708-.87568.1109-.54954-.2449-1.08576-.7947-1.19689zm-51.2073 13.81163c-.525 1.14-1.181 2.197-2.0238 3.073-.4972.5172-.9616.8545-1.4201 1.0318-.4748.1833-.9703.1867-1.3249.0069-.6816-.3426-.9553-1.3726-.9843-2.2227-.0523-1.5265.3944-3.0625 1.258-4.3235.5367-.7844 1.4663-1.6302 2.4276-1.6302.0968 0 .1937.0087.2906.0264.6265.1167 1.2284.6703 1.5333 1.4102.2819.683.3616 1.5427.2435 2.6281zm14.1892-.1011c-.4592-.4885-.7761-1.1511-.9466-1.9831-.2559-1.2514.275-3.0153 1.2091-4.0159.4648-.4977 1.1948-.8096 1.84-.8096.1115 0 .2209.0091.3252.0286.4532.0835.7576.3317.931.7589.2543.6252-.0403 1.8724-.7157 3.0326-.6145 1.056-1.5732 2.1185-2.643 2.9885zm5.504 10.2642c-.4091.8727-1.1473 2.0628-2.342 2.7771-1.024.614-2.246.742-3.1883.3374-.5679-.245-1.0327-.7094-1.2758-1.274-.2434-.5665-.2474-1.1823-.0103-1.7323.2755-.6392.886-1.2091 1.7194-1.6069 1.817-.8649 3.9671-1.2472 6.1209-1.5413-.2572 1.0639-.5799 2.093-1.0239 3.04zm12.653-19.63184c.0401-.27329.383-.54921.7644-.61538.1903-.03329.3767-.04972.5579-.04972.784 0 1.4737.3074 1.9792.89211.1639.18938.3066.40817.4281.64867-1.2562.41901-2.4584.41211-3.4447-.37579-.3214-.25693-.3188-.27501-.285-.49989zm3.8285 5.34524c-.309.7996-1.068 2.1695-2.6735 2.3614-.9571.115-1.9772-.3801-2.4787-1.2041-.2093-.3434-.3888-1.1612-.3082-1.9993.0501-.5219.2455-1.4702.9927-1.9584.051-.0337.0978-.0704.1405-.1111 1.4798.9375 3.1092.9207 4.7148.406.0449.8318-.08 1.7113-.3875 2.5056z"/><path d="m59.3274 4.38414c.0112 0 .0389-.00041.0505-.00082.7823-.02548 1.3989-.64998 1.3748-1.39234-.0247-.7279-.6456-1.29823-1.4132-1.29823-.0117 0-.0397.00041-.051.00082-.7823.02647-1.3985.65047-1.3743 1.39251.0247.72822.6453 1.29806 1.4132 1.29806zm-18.3805 20.95496c-4.8194.6556-17.4143 2.5505-30.2539 5.9719-.5422.1444-.86444.7004-.72003 1.2436.12103.4541.53193.7543.98123.7543.0865 0 .1747-.0112.262-.0346 8.831-2.3531 20.0474-4.5674 30.0046-5.9217.5561-.0752.9457-.5873.87-1.1441-.0756-.5553-.5898-.9444-1.1438-.8693z"/></g></svg>