<svg fill="none" height="61" viewBox="0 0 59 61" width="59" xmlns="http://www.w3.org/2000/svg" xmlns:xlink="http://www.w3.org/1999/xlink"><clipPath id="a"><path d="m0 .280546h59v60.2359h-59z"/></clipPath><g clip-path="url(#a)"><path d="m42.9595 42.7051v10.039l-2.8274 1.6322v-11.6712l-4.6107-2.6623-5.3173 3.0705-.7065.4085-.7074-.4085-5.3173-3.0705-4.6108 2.6623v11.6712l-2.8272-1.6322v-10.039l-3.1969-1.846v10.039l-2.827-1.6321v-10.8509-2.444l2.1204 1.224 5.3172 3.0705 4.6113-2.6623v-4.7311h-4.6113v-2.827h6.0243 1.4139v1.4135 6.1446l4.6108 2.6623 5.3173-3.0705.7065-.4082.707.4082 5.3172 3.0705 5.3181-3.0705 2.1196-1.224v2.444 10.8509l-2.8269 1.6321v-10.039zm-1.4139-9.8329h-7.4376v-2.827h7.4376zm7.4377-10.265v6.0245h-38.9723v-6.0245h-4.61078-.80938l-.41059-.7123-3.476968-6.0255-.703282-1.2187 1.21631-.7021 21.55009-12.44191 2.1204-1.224057v2.443957 5.57666l4.6108 2.66275 4.6104-2.66275v-5.57905-2.443651l2.1204 1.223651 21.5528 12.4444 1.2188.7037-.7061 1.2228-3.4799 6.0255-.408.7066h-.8119zm-36.1453 0v3.1972h33.3184v-3.1972zm9.2219-17.43653-18.21381 10.51503 2.3627 4.0945h46.57351l2.3659-4.0957-18.2133-10.51592v3.94652.81226l-.7065.40774-6.0243 3.4782-.7065.4085-.7074-.4085-6.0238-3.4782-.7065-.40774v-.81226zm8.8512 47.34993v7.1799l-1.4135.8159-1.4139-.8159v-7.1799zm-8.8512 3.7021v-10.4415h14.875v10.4415l-2.8269 1.6318v-9.2463h-9.2212v9.2463z" fill="#006db8"/></g></svg>