<svg fill="none" height="40" viewBox="0 0 39 40" width="39" xmlns="http://www.w3.org/2000/svg" xmlns:xlink="http://www.w3.org/1999/xlink"><clipPath id="a"><path d="m0 .479656h38.9422v39.1686h-38.9422z"/></clipPath><g clip-path="url(#a)" fill="#01579b"><path d="m30.2403 18.036h-6.5082c-.4134-.0052-.8155-.1361-1.1528-.3752s-.594-.5751-.7359-.9634c-.1521-.422-.2343-.8659-.2434-1.3143-.0474-.7886 0-1.6015-.0243-2.3901-.0353-.5393-.2751-1.0449-.6704-1.4135s-.9164-.5725-1.4568-.5701c-.5342.0166-1.043.2315-1.4274.6026-.3844.3712-.617.8721-.6524 1.4053v1.6733c-.0085.2829.0449.5643.1563.8245s.2781.493.4887.6821c1.6489 1.6733 3.3222 3.3466 4.9481 5.0442.2662.2904.5921.5198.9553.6725.3631.1528.755.2251 1.1488.2123 3.8723-.0244 7.7458.0243 11.5938-.0244.4549.0252.8923.1837 1.2578.4557s.6429.6455.7976 1.074c.0869.3865.1507.7779.1911 1.1719.0243 4.0403 0 8.0806.0243 12.1196.0372.365-.0069.7336-.1292 1.0795s-.3197.6605-.578.921-.5711.4606-.916.5858c-.3448.1252-.7131.1725-1.0784.1384-2.9207-.0243-5.8328 0-8.7498 0-1.3143 0-2.653 0-3.9685-.0961-.3993-.0291-.7799-.1806-1.09-.4339s-.5346-.596-.6429-.9814c-.1368-.3996-.2015-.8203-.1911-1.2425-.0243-3.5146-.0243-7.0522 0-10.5667.0123-.3253-.0454-.6493-.169-.9504-.1237-.301-.3104-.572-.5478-.7947-1.913-1.9362-3.8248-3.8724-5.7378-5.8329-.2275-.2378-.5028-.4246-.8079-.5482-.305-.1235-.6327-.181-.9616-.1685-3.70557 0-7.38683-.0244-11.09242.0243-.45489-.0252-.89232-.1837-1.2578-.4557s-.642867-.6455-.797615-1.074c-.09852-.3842-.1624683-.7764-.1910664-1.1719-.02433884-4.0159.024343-8.05618-.02433476-12.0721-.03965044-.37616.00571466-.75643.13274116-1.11271.127027-.35629.332469-.67948.601156-.94572.268689-.266231.593749-.4687.951179-.592453.35744-.123754.7381-.165628 1.11389-.122528 3.29914.04746 6.5715-.000005 9.87307.024334.9078 0 1.8412.024346 2.7491.071807.4229.034151.8235.20381 1.1422.48378.3188.27997.5388.65531.6272 1.07025.1193.90307.1673 1.81414.1436 2.72474-.0371.5704.1534 1.13223.5298 1.56243.3764.43019.9079.69367 1.4782.73272.543.02918 1.0761-.15399 1.4865-.51079.4104-.35679.6659-.85922.7125-1.40103.0243-.76545-.0244-1.52969.0243-2.29514-.0313-.50342.1039-1.00318.3847-1.42215.2809-.41897.6918-.733882 1.1694-.89614.3534-.115362.7234-.172092 1.0952-.167939 4.0159 0 8.0087-.024339 12.0246 0 .5956-.074029 1.1973.079327 1.6848.429438.4874.350111.825.871211.9451 1.459261.0319.13301.0401.27059.0243.40646 0 4.32745.0243 8.65368 0 12.95678-.0165.5949-.2618 1.1605-.6847 1.5792-.423.4187-.9911.6581-1.5861.6685-2.1029.0025-4.2301.0499-6.3817.0499z"/><path d="m8.70203 22.0999c2.17587 0 4.32747.0243 6.50217 0 .2818-.0126.5633.0329.8269.1335.2635.1007.5036.2544.7054.4517.2017.1973.3607.4339.4672.6952.1066.2612.1583.5416.152.8237.0475 4.4224.0475 8.8691 0 13.2914 0 1.172-.7886 2.1516-2.5105 2.1516-3.8724-.0244-7.74588 0-11.59386 0-.44719.0005-.89407-.0234-1.33864-.0718-.38404-.0224-.75094-.1666-1.047459-.4117-.296515-.2451-.507209-.5783-.6015-.9513-.121616-.3789-.1860084-.7739-.1910571-1.1719-.0243389-4.2313-.0000052-8.4626-.0243441-12.694.0038287-.601.2443082-1.1764.6693412-1.6014.425039-.4251 1.000409-.6655 1.601479-.6694 2.1041.0962 4.25565.0244 6.38287.0244z"/></g></svg>