<svg fill="none" height="31" viewBox="0 0 77 31" width="77" xmlns="http://www.w3.org/2000/svg"><path d="m0 0v2.08435h14.8257v-2.08435zm16.9275 0v2.08435h21.1293s-2.1583-2.08435-5.0164-2.08435zm25.2737 0v2.08435h12.7812l-.7583-2.08435zm21.9468 0-.7583 2.08435h12.6675v-2.08435zm-64.148 4.05397v2.08434h14.8257v-2.08434zm16.9275.00292v2.08045h23.5792s-.2752-1.60409-.7554-2.08045zm25.2737 0v2.08045h14.1937l-.7019-2.08045zm20.4293 0-.7019 2.08045h14.1276v-2.08045zm-58.36945 4.05105v2.08726h6.42125v-2.08726zm16.92755 0v2.08726h6.4212v-2.08726zm12.6674 0v2.08726h6.4212s.4083-1.10244.4083-2.08726zm12.6072 0v2.08726h11.3744l-.7583-2.08726zm14.7702 0-.7621 2.08726h11.4405v-2.08726zm-56.97138 4.05686v2.0844h6.42118v-2.0844zm16.92748 0v2.0844h16.4006s1.3708-1.0694 1.8083-2.0844zm25.2737 0v2.0844h6.4212v-1.1608l.4083 1.1608h11.7633l.4375-1.1608v1.1608h6.4212v-2.0844h-12.0549l-.6397 1.7655-.6417-1.7655zm-42.20215 4.054v2.0843h6.42125v-2.0843zm16.92755 0v2.0843h18.2088c-.4375-1.011-1.8082-2.0843-1.8082-2.0843zm25.2736 0v2.0843h6.4212v-2.0843zm7.5878 0 .7778 2.0843h8.8196l.7388-2.0843zm11.4406 0v2.0843h6.4212v-2.0843zm-61.22761 4.054v2.0843h6.42121v-2.0843zm16.92751 0v2.0843h6.4212v-2.0843zm12.6675 0v2.0843h6.8285c0-.9838-.4083-2.0843-.4083-2.0843zm12.6071 0v2.0843h6.4212v-2.0843zm9.0451 0 .7525 2.0843h5.9108l.7583-2.0843zm9.9823 0v2.0843h6.4213v-2.0843zm-65.373895 4.0539v2.0873h14.825695v-2.0873zm16.811795 0v2.0873h22.8248c.4802-.4783.7553-2.0873.7553-2.0873zm25.3894 0v2.0873h10.5627v-2.0873zm14.6507 0 .7738 2.0873h3.0079l.7262-2.0873zm8.522 0v2.0873h10.6823v-2.0873zm-65.373895 4.0569v2.0844h14.825695v-2.0844zm16.811795 0v2.0805h16.11c2.8581 0 5.0164-2.0805 5.0164-2.0805zm25.3894 0v2.0844h10.5627v-2.0844zm16.1186 0 .7438 2.0785.1283.003.7554-2.0805zm7.0551 0v2.0844h10.6823v-2.0844z" fill="#1f70c1"/></svg>