<svg fill="none" height="30" viewBox="0 0 109 30" width="109" xmlns="http://www.w3.org/2000/svg" xmlns:xlink="http://www.w3.org/1999/xlink"><clipPath id="a"><path d="m0 .156342h109v29.3893h-109z"/></clipPath><g clip-path="url(#a)"><path d="m102.334 7.58521h-.006c-1.863-.65665-3.4829-1.11708-3.4829-2.49577 0-1.20689 1.0465-2.0301 2.6599-2.0301.879-.0408 1.75.18832 2.496.65664.377.26537.827.40872 1.288.41073.382-.03255.736-.20956.992-.49483.255-.28527.392-.65727.382-1.03996 0-1.45368-2.277-2.413767-5.268-2.413767-1.4444-.0846583-2.8639.402918-3.9514 1.357207-1.0875.95429-1.7553 2.29848-1.859 3.74157 0 3.65121 3.1515 4.52587 5.6464 5.26797 1.948.5773 3.566 1.0464 3.566 2.4958.004.3612-.063.7198-.2 1.0544-.136.3346-.338.6385-.594.8937-.796.7152-1.84 1.0907-2.909 1.0464-1.0967-.0339-2.1727-.3087-3.1515-.8049-.3683-.2214-.7799-.3615-1.2069-.4107-.3563-.0075-.701.1267-.9585.3731-.2575.2463-.4067.5848-.4149.9411-.0012.0462.0003.0925.0044.1386 0 1.5348 2.9797 2.5778 5.7314 2.5778 4.198 0 6.889-2.2761 6.889-5.9779-.002-3.6032-3.154-4.54586-5.653-5.28709z" fill="#212944"/><path d="m64.233.330765c-.4277.004742-.8365.17649-1.1393.47857-.3027.302085-.4752.710555-.4809 1.138185v15.29458c.0193.4163.1983.8091.4997 1.0968.3014.2878.702.4483 1.1188.4483.4167 0 .8173-.1605 1.1187-.4483.3014-.2877.4804-.6805.4997-1.0968v-15.30592c-.0041-.42646-.1761-.83413-.4787-1.134642-.3026-.300508-.7116-.469646-1.138-.470773z" fill="#212944"/><path d="m35.3497 16.6387-6.2499-15.18999c-.0828-.21872-.2111-.41737-.3765-.582736-.1654-.16537-.364-.293696-.5827-.376512-.1563-.067252-.3267-.095384-.4963-.081966h-.1639c-.1679-.01323-.3365.014911-.491.081966-.2002.076193-.3821.193785-.5337.34511-.1516.151324-.2696.332958-.3462.533018-.082 0-.0819 0-.0819.08197l-6.2237 15.18994c-.1525.3968-.147.8369.0152 1.2298s.4688.7087.8568.8823c.1847.0671.3813.095.5773.082.3309-.0021.6537-.1027.9271-.2891.2733-.1864.4849-.4501.6077-.7574l4.7718-11.57273 4.7761 11.57273c.1079.3172.3159.5907.5927.7794.2768.1888.6074.2825.9421.2671.195.0197.3921-.0084.5738-.082.3934-.1683.7068-.4815.8754-.8748.1685-.3933.1792-.8363.0298-1.2373z" fill="#212944"/><path d="m13.3776.828695-.0479-.043617c-.3155-.267982-.7198-.408183-1.1335-.393012-.4136.01517-.8065.184608-1.1015.474978l-7.88591 8.335796v-7.26755c-.00888-.42232-.18036-.82491-.47881-1.12384-.29844-.298932-.70074-.471131-1.12304-.480699-.2093-.001609-.41695.038031-.610915.116669-.19397.078637-.370491.19472-.519581.341623-.149089.146903-.267766.321767-.349261.514547-.081494.19279-.12423357.39973-.12571668.60903v15.32858c-.0005782.4279.16879568.8385.47093268 1.1414.302137.303.712321.4735 1.140181.4741s.8384-.1688 1.14135-.471c.30296-.3021.47355-.7122.47413-1.1401v-3.3564l10.21404-10.82898c.287-.30466.4414-.71074.4293-1.12911s-.1897-.81484-.4938-1.102415z" fill="#f26829"/><path d="m13.8265 16.0884-3.89457-3.9738c-.30701-.2748-.70754-.4216-1.11942-.4102s-.80375.1802-1.09505.4716-.45998.6833-.47125 1.0952.13565.8125.41058 1.1194l3.80991 3.9486c.1572.1599.3453.2862.5527.3714.2075.0851.43.1273.6542.1239.2102-.0025.4177-.0477.6099-.1328.1922-.0852.365-.2085.5081-.3625.3027-.2584.4904-.6264.5218-1.0232.0314-.3967-.0961-.7896-.3544-1.0924-.041-.0481-.0852-.0933-.1325-.1352z" fill="#f26829"/><path d="m89.0493 1.93618c.001-.4247-.1667-.8324-.4663-1.133444-.2996-.30105-.7066-.470816-1.1313-.471971h-.0191c-.4276.004963-.8362.176777-1.1389.47881-.3027.302035-.4755.710385-.4814 1.137945v9.36828c0 2.9806-2.3544 4.2799-4.6897 4.2799s-4.6899-1.3726-4.6899-4.2799v-9.37962c-.0193-.41625-.1982-.80906-.4997-1.096799-.3014-.287739-.702-.448286-1.1187-.448286s-.8174.160547-1.1188.448286-.4804.680549-.4997 1.096799v9.37962c0 4.9401 4.034 7.5989 7.9268 7.5989 3.9791 0 7.9267-2.5777 7.9267-7.5989z" fill="#212944"/><path d="m55.8112 16.173-5.1005-5.2671c1.3587-.2642 2.5724-1.02005 3.4089-2.12285.8366-1.10281 1.2373-2.47525 1.1256-3.85494-.0818-1.29609-.6557-2.51197-1.6043-3.39896-.9485-.886988-2.2001-1.378077-3.4987-1.372828h-7.2746c-.4277.004738-.8367.17646-1.1395.478518-.3029.302057-.4757.71053-.4816 1.13824v15.52222c-.0206.4293.1302.8491.4192 1.1672s.6924.5083 1.1216.5289c.4293.0206.8492-.1302 1.1673-.4191.318-.289.5083-.6925.5289-1.1218v-14.14439h5.6508c.4251.01477.8289.19034 1.1296.49124.3008.3009.4761.70471.4907 1.12988.1076.59815-.0171 1.21485-.3487 1.72419-.3315.50935-.845.87296-1.4355 1.01662-1.5348.49619-3.1551 1.11796-3.401 2.35446-.1639.7456.2459 1.5392 1.2069 2.4138l5.7554 5.8967c.2926.3064.6945.4845 1.118.4953.4068-.0167.798-.1614 1.1179-.4133.2967-.2968.4668-.6971.4744-1.1167.0077-.4195-.1477-.8258-.4334-1.1332z" fill="#212944"/><path d="m68.3029 27.8975h-.0314c-.2684-.0111-.5214-.1282-.7035-.3257s-.2784-.4592-.2678-.7277v-.068c.0064-.2647.1176-.516.3092-.6987.1917-.1826.4481-.2817.7128-.2754.3023.0044.5915.1242.8084.3349l.2686-.395c-.1468-.1445-.3219-.2572-.5143-.3309-.1924-.0736-.3979-.1068-.6037-.0973h-.0619c-.2033.0014-.4043.0431-.5912.1227-.187.0797-.3563.1957-.4981.3414-.1418.1456-.2532.3179-.3279.5069-.0746.1891-.111.3911-.107.5943.0041.2032.0484.4036.1305.5895s.2003.3537.3478.4935c.1475.1399.3213.2491.5113.3212.19.0722.3924.1059.5956.0992.212.006.4231-.0305.6208-.1073.1977-.0769.378-.1925.5303-.3401l-.2232-.4089c-.2441.2334-.5675.3661-.9053.3714z" fill="#f26829"/><path d="m70.5956 27.4109v-3.189h-.5634v3.278c0 .7342.4692.8232.7901.8232.0618.0052.1239.0052.1857 0v-.4953h-.1002c-.1709.0008-.3122-.0445-.3122-.4169z" fill="#f26829"/><path d="m72.6553 25.3119c-.393-.0043-.7771.118-1.0953.3488l.2311.4099c.238-.1726.5216-.2712.8154-.2834.0515-.007.1037-.007.1552 0 .1498.0201.2855.099.3772.2192.0918.1202.1321.2719.112.4217v.0515h-.1012c-.491 0-1.7649.041-1.7649 1.0089.0017.0189.0017.0379 0 .0567.0103.1199.0441.2365.0995.3433s.1314.2016.2234.279c.0921.0774.1986.1359.3133.1722s.2354.0496.3552.0392c.1899.0004.376-.0526.5373-.1528.1612-.1002.2912-.2436.3749-.414v.231.2756h.5232v-1.8618c.0082-.0774.0082-.1554 0-.2328-.0336-.2738-.1739-.5231-.3905-.6939-.2165-.1708-.4917-.2493-.7658-.2183zm.6235 1.6865c.013.2248-.0599.4461-.204.619-.1442.173-.3487.2846-.5721.3124h-.021-.0331c-.1302.0049-.2572-.0419-.353-.1303-.0957-.0885-.1525-.2112-.1579-.3415 0-.5232.7638-.5546 1.1841-.5546h.157z" fill="#f26829"/><path d="m75.2005 26.1116c.0053-.0732.0053-.1466 0-.2197v-.5111h-.5433v2.9336h.5581v-1.1947c-.0028-.1788.0213-.3569.0716-.5285.0433-.1889.1472-.3584.2958-.4828.1486-.1243.3338-.1967.5274-.2061.0537 0 .1072.0061.1595.0183v-.552c-.2395-.0372-.4841.0192-.6832.1576-.199.1383-.3372.3479-.3859.5854z" fill="#f26829"/><path d="m77.3833 25.3808h-.5625v2.9248h.5625z" fill="#f26829"/><path d="m77.3911 24.2219h-.5703v.5738h.5703z" fill="#f26829"/><path d="m79.4571 27.8278c-.0757-.0101-.1486-.035-.2146-.0733-.0661-.0383-.1239-.0893-.1703-.1499-.0463-.0607-.0801-.1299-.0997-.2037-.0196-.0737-.0244-.1506-.0143-.2263v-1.3019h.7081v-.4509h-.7081v-.845h-.544v.845h-.3986v.4509h.3872v1.3586c-.0061.0638-.0061.128 0 .1918.0281.2677.1614.5133.3705.6827.2092.1694.4772.2488.7449.2208.0656.0052.1314.0052.197 0v-.4953c-.0447.0043-.0897.0043-.1343 0-.0413.0034-.0828.0022-.1238-.0035z" fill="#f26829"/><path d="m81.4971 27.3211c-.0523.1491-.1011.3488-.1011.3488s-.0524-.2197-.1082-.3723l-.7447-1.9185h-.6295l1.2207 2.8943-.1446.3348c-.0332.1163-.1011.2197-.1946.2964-.0935.0766-.2082.1229-.3287.1327-.1231-.0077-.2415-.049-.3427-.1195l-.0096.0192-.1928.4282c.1277.0889.2743.1466.4283.1685.154.022.311.0075.4584-.0422.1473-.0497.281-.1332.3902-.2439.1093-.1107.191-.2455.2388-.3935l1.3734-3.4567h-.6034z" fill="#f26829"/><g fill="#212944"><path d="m85.8391 25.3102c-.3931-.0048-.7773.1176-1.0952.3488l.2311.4099c.238-.1725.5217-.2711.8154-.2834.0515-.007.1037-.007.1552 0 .1498.0201.2855.0989.3772.2191.0918.1202.132.2719.1119.4218v.0515h-.1298v.013c-.4919 0-1.7624.041-1.7624 1.009.0013.0186.0013.0372 0 .0558.0208.2421.137.4661.3229.6226.186.1565.4264.2327.6686.2119.1954.0043.388-.0479.5546-.1503.1665-.1024.3001-.2506.3846-.4269-.0044.0769-.0044.1541 0 .231v.2756h.5171v-1.8618c.0096-.0794.0096-.1596 0-.2389-.0326-.273-.172-.5219-.3878-.6922-.2158-.1704-.4903-.2482-.7634-.2165zm.6 1.6979c.0128.2261-.0613.4485-.2073.6217-.1459.1731-.3525.2839-.5775.3096v-.0087h-.0349c-.1291.0066-.2556-.0382-.3517-.1247s-.1541-.2075-.161-.3366c0-.5233.7639-.5547 1.1851-.5547h.1447z"/><path d="m89.0015 27.8313c-.1524-.0219-.2901-.1032-.3826-.2263s-.1324-.2779-.111-.4304v-1.3019h.7081v-.4509h-.7098v-.845h-.5442v.845h-.3985v.4509h.3985v1.3638c-.0061.065-.0061.1304 0 .1954.03.267.1648.5112.3747.679.21.1677.4779.2453.745.2157.0658.0052.1321.0052.198 0v-.4953c-.0447.0043-.0897.0043-.1344 0-.0478.0052-.096.0052-.1438 0z"/><path d="m91.8173 26.1604c0-.2686.2354-.3732.4778-.3732.2647-.0042.5216.0889.7221.2616l.2276-.4247c-.2608-.2277-.6005-.3441-.9461-.3244-.5808 0-1.0578.3035-1.0578.8363 0 .9593 1.492.845 1.492 1.3822 0 .2459-.2415.3724-.484.3724-.3127-.0054-.6125-.1262-.8415-.3393v.0088l-.2712.3994c.3019.2834.7031.4369 1.1171.4272.6401 0 1.0578-.3645 1.0578-.8528-.0017-.9601-1.4938-.845-1.4938-1.3735z"/><path d="m95.4748 25.3102c-.1959-.0102-.3909.0341-.5631.128-.1723.0939-.3151.2337-.4127.4039.0035-.0703.0035-.141 0-.2119v-.2494h-.5136v-.0113 4.0985h.5554v-1.3132c.0052-.0842.0052-.1687 0-.2529.0944.151.2268.2746.384.3583s.3336.1246.5116.1187c.0331 0 .0663 0 .0994-.007.1807-.0195.3558-.0745.5152-.1618.1594-.0872.3001-.205.414-.3467.1139-.1416.1987-.3043.2496-.4788.051-.1744.067-.3572.0473-.5379-.0018-.9112-.497-1.5365-1.2871-1.5365zm-.1369 2.5847c-.5354 0-.8267-.518-.8267-1.0464 0-.7448.3619-1.0543.8459-1.0543.4839 0 .8266.3767.8266 1.0464s-.3836 1.0569-.8458 1.0569z"/><path d="m98.7012 25.3119.0106.0079c-.0436-.0022-.0873-.0022-.1309 0-.1883.0127-.3724.0624-.5415.1463s-.3199.2002-.4441.3424c-.1241.1422-.2191.3075-.2793.4863-.0603.1789-.0848.3679-.072.5563v.1107c.0177.3945.191.7658.4819 1.0327.291.267.6759.4077 1.0704.3914.4155-.0002.8174-.1483 1.1337-.4178l-.2338-.4098c-.2433.2096-.5511.3293-.872.3392h-.0733c-.253-.005-.4938-.1099-.6699-.2917-.176-.1818-.2732-.4258-.2701-.6789h2.1347s.0183-.1674.0183-.2424c.0178-.1756-.0018-.353-.0577-.5205-.0558-.1674-.1466-.3211-.2663-.4509-.1197-.1297-.2656-.2325-.428-.3017-.1625-.0692-.3377-.1031-.5142-.0995zm-.8641 1.1938c.0239-.2086.125-.4008.2835-.5386s.3629-.2114.5728-.2061c.0236-.0013.0471-.0013.0706 0 .1831.0141.353.1002.4725.2395.1196.1394.1789.3205.1649.5035z"/><path d="m101.912 25.3119v.007c-.044-.0022-.087-.0022-.131 0-.188.0127-.372.0625-.542.1464-.169.0839-.32.2003-.444.3426s-.219.3077-.279.4867-.085.3681-.072.5565v.1098c.018.3946.191.766.482 1.0331.291.267.676.4079 1.071.3919.415-.0011.816-.1491 1.133-.4178l-.234-.4107c-.243.2108-.551.3307-.872.3392h-.064c-.253-.0048-.494-.1094-.67-.291-.177-.1817-.274-.4256-.271-.6787h2.134s.019-.1674.019-.2424c.018-.1756-.002-.353-.058-.5205-.056-.1674-.146-.3211-.266-.4509-.12-.1297-.266-.2325-.428-.3017s-.338-.1031-.514-.0995zm-.868 1.1938c.023-.2092.124-.4022.282-.5403.159-.1381.364-.2111.575-.2044.024-.0013.049-.0013.074 0 .182.0151.35.1019.469.2412.118.1392.176.3197.161.5018z"/><path d="m105.906 25.577c-.004.0659-.004.1321 0 .198-.094-.1538-.229-.2787-.389-.3609-.161-.0821-.341-.1184-.521-.1048l.016.0114c-.039 0-.077-.0001-.116.0087-.179.0206-.353.0765-.511.1644s-.298.2061-.41.3478c-.113.1417-.196.3042-.245.4782-.05.1739-.065.3559-.044.5356 0 .9087.495 1.5348 1.289 1.5348.195.0106.389-.0349.559-.1312s.309-.2393.4-.4121v.4727h.532v-4.0986h-.562zm-.82 2.3249-.015-.0079c-.488 0-.811-.3654-.811-1.0395 0-.674.379-1.0464.841-1.0464.558 0 .83.5232.83 1.0464 0 .7421-.413 1.0474-.845 1.0474z"/><path d="m108.731 24.4495c-.079-.0824-.175-.1474-.281-.1909-.105-.0435-.219-.0646-.334-.062-.111-.0021-.222.018-.325.059-.104.041-.198.1022-.278.18-.089.0788-.159.1766-.206.2861-.046.1096-.068.2281-.063.347-.004.114.016.2278.06.3332s.11.2.194.2772c.164.1632.385.2549.616.2549s.453-.0917.616-.2549c.086-.0813.155-.1795.201-.2885.046-.1089.069-.2263.068-.3446-.012-.2252-.107-.438-.268-.5965zm-.107 1.1337c-.066.0683-.144.1229-.231.1606s-.181.0578-.276.0591c-.094.0036-.188-.0129-.275-.0482s-.166-.0887-.231-.1567c-.132-.1388-.205-.3228-.205-.5141 0-.1912.073-.3752.205-.5141.068-.07.149-.1256.239-.1634s.186-.0569.284-.0563c.19.0034.372.0817.505.2177.133.1361.207.3192.207.5096-.01.1907-.089.3715-.222.5084z"/><path d="m108.529 24.8576c.002-.0468-.009-.0933-.031-.1346s-.055-.0758-.096-.1c-.057-.0349-.123-.0519-.19-.0488h-.473v.9688h.253v-.3313h.108c.033-.0024.066.0052.094.0217.029.0164.052.0411.066.0707.003.0424.003.0849 0 .1273-.003.0421-.003.0844 0 .1264h.253v-.1744c.005-.0318.004-.0644-.003-.0958-.008-.0314-.021-.061-.04-.0871-.019-.0262-.043-.0482-.071-.065-.027-.0168-.058-.028-.09-.0328h-.019c.063-.0038.124-.026.174-.0637.049-.0358.065-.0994.065-.1814zm-.302.143c-.029.0297-.077.0297-.141.0297h-.093v-.2826h.063c.047-.0096.095-.0096.142 0 .023.0081.043.0232.057.0433.014.02.021.0439.021.0683.004.0258.002.0523-.006.077-.009.0248-.023.0469-.043.0643z"/></g></g></svg>