<svg fill="none" height="24" viewBox="0 0 150 24" width="150" xmlns="http://www.w3.org/2000/svg" xmlns:xlink="http://www.w3.org/1999/xlink"><clipPath id="a"><path d="m0 .129517h150v23.741h-150z"/></clipPath><g clip-path="url(#a)"><path d="m19.3783 21.0471 13.6974-15.76754-5.6202-4.880268-18.57757 21.387608c1.49307 1.2885 3.43537 1.9339 5.40277 1.7954 1.9674-.1387 3.7999-1.05 5.0976-2.5352z" fill="#00bea6"/><path d="m6.87582 20.0834 5.76258-6.6315c-1.7863-1.6083-4.12738-2.4601-6.52958-2.3756-1.16877.0549-2.31386.3488-3.36456.8636-1.05071.5149-1.984688 1.2397-2.74426 2.1297z" fill="#5a4cff"/><path d="m54.104 7.52747v14.44393h3.801v-14.44393z" fill="#fff"/><path d="m64.8419 11.5019c0-.8077.9027-1.439 2.2739-1.439 1.3316.0023 2.6295.4199 3.7128 1.1947l1.8936-2.26031c-1.6281-1.20599-3.6077-1.84282-5.6336-1.81228-3.801 0-5.9187 2.12452-5.9187 4.54769 0 5.6811 8.5794 3.7332 8.5794 6.1088 0 .896-.7737 1.5544-2.4232 1.5544-1.4961-.0659-2.9472-.5325-4.2015-1.3508l-2.0362 2.3757c1.759 1.2784 3.8871 1.9481 6.0613 1.9073 4.0047 0 6.2513-2.0363 6.2513-4.6359 0-5.8305-8.5591-4.0386-8.5591-6.1903z" fill="#fff"/><path d="m93.0713 7.52747v14.44393h3.801v-14.44393z" fill="#fff"/><path d="m132.012 15.1231c0-4.7513-2.932-7.95503-7.236-7.95503-.994-.01603-1.98.16953-2.899.54551-.921.37596-1.755.93451-2.452 1.6419-.698.70742-1.245 1.54892-1.609 2.47372s-.535 1.9138-.506 2.907c0 4.636 3.319 7.5953 7.718 7.5953 2.149.0674 4.254-.6355 5.932-1.982l-2.335-1.9548c-.963.5729-2.057.8884-3.176.9164-2.451 0-3.924-1.5272-4.161-3.3463h10.737zm-10.799-1.7309c.07-.8886.48-1.7162 1.143-2.3122.662-.5961 1.529-.9151 2.42-.8915.445-.0284.892.0325 1.313.179.42.1465.809.3757 1.14.6742.332.2985.6.6602.789 1.0639.19.4036.297.8411.315 1.2866z" fill="#fff"/><path d="m114.595 7.52747h-3.801v14.44393h3.801z" fill="#fff"/><path d="m108.1 1.67444v3.31912s-2.172-.14932-2.824.2783c-.227.19936-.402.45168-.509.73464-.106.28295-.141.58781-.102.88758v.63125h3.441v3.32587h-3.441v11.1181h-3.835v-15.07522c0-3.02726 1.901-5.08389 4.582-5.21964z" fill="#fff"/><path d="m86.1139 21.9721-4.1947-5.6133-1.7783 1.8734v3.7399h-3.8011v-17.93279h3.8011v9.84879l5.4301-6.36678h4.7037l-5.6472 6.48898 5.9459 7.9618z" fill="#fff"/><g fill="#080e3f"><path d="m54.104 7.52747v14.44393h3.801v-14.44393z"/><path d="m64.8419 11.5019c0-.8077.9027-1.439 2.2739-1.439 1.3316.0023 2.6295.4199 3.7128 1.1947l1.8936-2.26031c-1.6281-1.20599-3.6077-1.84282-5.6336-1.81228-3.801 0-5.9187 2.12452-5.9187 4.54769 0 5.6811 8.5794 3.7332 8.5794 6.1088 0 .896-.7737 1.5544-2.4232 1.5544-1.4961-.0659-2.9472-.5325-4.2015-1.3508l-2.0362 2.3757c1.759 1.2784 3.8871 1.9481 6.0613 1.9073 4.0047 0 6.2513-2.0363 6.2513-4.6359 0-5.8305-8.5591-4.0386-8.5591-6.1903z"/><path d="m93.0713 7.52747v14.44393h3.801v-14.44393z"/><path d="m132.012 15.1231c0-4.7513-2.932-7.95503-7.236-7.95503-.994-.01603-1.98.16953-2.899.54551-.921.37596-1.755.93451-2.452 1.6419-.698.70742-1.245 1.54892-1.609 2.47372s-.535 1.9138-.506 2.907c0 4.636 3.319 7.5953 7.718 7.5953 2.149.0674 4.254-.6355 5.932-1.982l-2.335-1.9548c-.963.5729-2.057.8884-3.176.9164-2.451 0-3.924-1.5272-4.161-3.3463h10.737zm-10.799-1.7309c.07-.8886.48-1.7162 1.143-2.3122.662-.5961 1.529-.9151 2.42-.8915.445-.0284.892.0325 1.313.179.42.1465.809.3757 1.14.6742.332.2985.6.6602.789 1.0639.19.4036.297.8411.315 1.2866z"/><path d="m114.595 7.52747h-3.801v14.44393h3.801z"/><path d="m108.1 1.67444v3.31912s-2.172-.14932-2.824.2783c-.227.19936-.402.45168-.509.73464-.106.28295-.141.58781-.102.88758v.63125h3.441v3.32587h-3.441v11.1181h-3.835v-15.07522c0-3.02726 1.901-5.08389 4.582-5.21964z"/><path d="m86.1139 21.9721-4.1947-5.6133-1.7783 1.8734v3.7399h-3.8011v-17.93279h3.8011v9.84879l5.4301-6.36678h4.7037l-5.6472 6.48898 5.9459 7.9618z"/><path d="m149.164 14.7546v-13.08651c-1.008 0-1.975.40047-2.688 1.1133-.713.71284-1.113 1.67965-1.113 2.68774l-.082 2.71504c-1.126-.64871-2.4-.99262-3.699-.99777-1.486-.00024-2.939.4365-4.179 1.25584-1.239.81934-2.21 1.98506-2.792 3.35216-.582 1.3672-.75 2.8752-.481 4.3365s.962 2.8114 1.992 3.8821 2.352 1.8149 3.802 2.1398c1.449.3251 2.963.2164 4.352-.3122 1.388-.5286 2.591-1.4539 3.458-2.6608.866-1.2068 1.358-2.6419 1.416-4.1266v-.2986zm-7.582 4.12c-.815 0-1.612-.2416-2.289-.6944-.678-.4527-1.206-1.0962-1.517-1.849-.312-.7528-.394-1.5813-.235-2.3805s.552-1.5333 1.128-2.1095 1.31-.9686 2.109-1.1276c.799-.1589 1.628-.0773 2.38.2345.753.3118 1.397.8399 1.85 1.5174.452.6776.694 1.4741.694 2.2891.001.5413-.105 1.0774-.312 1.5777-.206.5003-.511.9548-.893 1.3376-.383.3827-.837.6862-1.338.8929-.499.2067-1.036.3127-1.577.3118z"/><path d="m41.6353 11.3222v10.6632h3.801v-14.46428c-1.0081 0-1.9749.40047-2.6878 1.1133-.7128.71284-1.1132 1.67968-1.1132 2.68778z"/><path d="m46.7866 7.52112v4.48658c1.2205.0133 2.3994-.4436 3.292-1.2761.4341-.4136.7785-.91203 1.012-1.46429.2336-.55227.3512-1.14661.3455-1.74619z"/></g></g></svg>