<svg width="82" height="22" viewBox="0 0 82 22" fill="none" xmlns="http://www.w3.org/2000/svg">
<g clip-path="url(#clip0)">
<mask id="mask0" mask-type="alpha" maskUnits="userSpaceOnUse" x="72" y="14" width="10" height="3">
<path d="M72.4775 14.5665H81.7881V16.9322H72.4775V14.5665Z" fill="white"/>
</mask>
<g mask="url(#mask0)">
<path fill-rule="evenodd" clip-rule="evenodd" d="M72.8735 16.9322C72.7425 16.9322 72.6242 16.8707 72.5492 16.7628C72.4742 16.6554 72.4569 16.5233 72.5028 16.4001L73.084 14.8246C73.1411 14.67 73.2902 14.5665 73.4549 14.5665H81.3926C81.6109 14.5665 81.7882 14.7433 81.7882 14.9616V16.5373C81.7882 16.7551 81.6109 16.9322 81.3926 16.9322H72.8735Z" fill="#FFE400"/>
</g>
<mask id="mask1" mask-type="alpha" maskUnits="userSpaceOnUse" x="0" y="1" width="13" height="17">
<path d="M0 1.08112H12.7317V17.4615H0V1.08112Z" fill="white"/>
</mask>
<g mask="url(#mask1)">
<path fill-rule="evenodd" clip-rule="evenodd" d="M7.97331 17.4615C3.57676 17.4615 -0.000488281 13.7874 -0.000488281 9.27133C-0.000488281 4.75551 3.57676 1.08112 7.97331 1.08112C9.62682 1.08112 11.2128 1.59641 12.5604 2.57202C12.6529 2.63865 12.7118 2.73766 12.7272 2.85017C12.7431 2.96455 12.7123 3.07684 12.6406 3.16652C12.1742 3.7545 11.6722 4.38534 11.2435 4.91788C11.1629 5.01805 11.0388 5.07792 10.9113 5.07792C10.8212 5.07792 10.7364 5.0488 10.667 4.99312C9.87306 4.35879 8.94124 4.02333 7.97331 4.02333C5.38123 4.02333 3.27252 6.42067 3.27252 9.36661C3.27252 12.3133 5.38123 14.7104 7.97331 14.7104C8.97735 14.7104 9.93665 14.3525 10.7469 13.6758C10.8191 13.6155 10.9074 13.584 11.0029 13.584C11.1329 13.584 11.2601 13.6453 11.3425 13.748C11.7476 14.2533 12.2098 14.8331 12.6406 15.3761C12.7123 15.4658 12.7431 15.5786 12.7272 15.6925C12.7118 15.8055 12.6529 15.9042 12.5604 15.9711C11.2132 16.946 9.62706 17.4615 7.97331 17.4615Z" fill="#272A31"/>
</g>
<path fill-rule="evenodd" clip-rule="evenodd" d="M18.9458 7.83445C17.2035 7.83445 15.7862 9.36892 15.7862 11.2545C15.7862 13.1393 17.2035 14.6735 18.9458 14.6735C20.688 14.6735 22.1053 13.1393 22.1053 11.2545C22.1053 9.36892 20.688 7.83445 18.9458 7.83445ZM18.9458 17.2216C15.6231 17.2216 12.9204 14.5181 12.9204 11.1957C12.9204 7.87312 15.6231 5.17038 18.9458 5.17038C22.2684 5.17038 24.9711 7.87312 24.9711 11.1957C24.9711 14.5181 22.2684 17.2216 18.9458 17.2216Z" fill="#272A31"/>
<path fill-rule="evenodd" clip-rule="evenodd" d="M32.0691 7.83447C30.3268 7.83447 28.9097 9.36894 28.9097 11.2545C28.9097 13.1393 30.3268 14.6735 32.0691 14.6735C33.8113 14.6735 35.2286 13.1393 35.2286 11.2545C35.2286 9.36894 33.8113 7.83447 32.0691 7.83447ZM32.1849 17.2202C30.4715 17.2519 28.8736 16.5821 27.6975 15.3424C26.5485 14.1317 25.9643 12.5434 26.0521 10.8699C26.2142 7.78951 28.7586 5.28758 31.8443 5.17436C31.9407 5.17064 32.0362 5.16994 32.1317 5.17064C33.13 5.17879 34.1095 5.44016 34.9831 5.92331C35.0933 5.98435 35.2286 5.90468 35.2286 5.77865V0.88171C35.2286 0.655511 35.4124 0.47171 35.6386 0.47171H37.6842C37.9109 0.47171 38.0944 0.655511 38.0944 0.88171V16.6131C38.0944 16.789 37.9516 16.9323 37.7755 16.9323H35.548C35.3714 16.9323 35.2286 16.789 35.2286 16.6131V16.3327L35.1178 16.3939C34.2172 16.8924 33.2143 17.2009 32.1849 17.2202Z" fill="#272A31"/>
<path fill-rule="evenodd" clip-rule="evenodd" d="M46.43 16.9322C46.2038 16.9322 46.019 16.7479 46.019 16.5215V0.882329C46.019 0.655897 46.2038 0.471863 46.43 0.471863H48.4739C48.7006 0.471863 48.8848 0.655897 48.8848 0.882329V16.5215C48.8848 16.7479 48.7006 16.9322 48.4739 16.9322H46.43Z" fill="#272A31"/>
<path fill-rule="evenodd" clip-rule="evenodd" d="M51.9712 16.9322C51.7446 16.9322 51.5601 16.7479 51.5601 16.5215V5.96212C51.5601 5.73546 51.7446 5.55142 51.9712 5.55142H54.0149C54.2418 5.55142 54.4261 5.73546 54.4261 5.96212V16.5215C54.4261 16.7479 54.2418 16.9322 54.0149 16.9322H51.9712Z" fill="#272A31"/>
<path fill-rule="evenodd" clip-rule="evenodd" d="M41.0366 16.9322C40.809 16.9322 40.624 16.7472 40.624 16.5196V5.96375C40.624 5.73592 40.809 5.55142 41.0366 5.55142H43.0775C43.3049 5.55142 43.4898 5.73592 43.4898 5.96375V16.5196C43.4898 16.7472 43.3049 16.9322 43.0775 16.9322H41.0366Z" fill="#272A31"/>
<mask id="mask2" mask-type="alpha" maskUnits="userSpaceOnUse" x="56" y="0" width="19" height="22">
<path d="M56.2676 0.471558H74.3128V21.5556H56.2676V0.471558Z" fill="white"/>
</mask>
<g mask="url(#mask2)">
<path fill-rule="evenodd" clip-rule="evenodd" d="M66.2557 21.5556C66.1199 21.5556 65.9976 21.4917 65.9203 21.3799C65.8427 21.2688 65.8252 21.1318 65.8728 21.0044L67.1209 17.6559C67.2675 17.2625 67.2675 16.8292 67.1209 16.4355L64.0184 8.11154C63.9569 7.94614 63.7964 7.83455 63.6196 7.83455H60.9423C60.7266 7.83455 60.5504 8.01043 60.5504 8.22638V13.2449C60.5504 13.9734 61.1433 14.5662 61.8718 14.5662H64.0783C64.2223 14.5662 64.3523 14.6571 64.4021 14.7917L65.0027 16.4194C65.0465 16.538 65.0299 16.6652 64.9579 16.7691C64.8853 16.8727 64.7713 16.9321 64.6451 16.9321H60.7161C59.0442 16.9321 57.6844 15.5724 57.6844 13.9012V8.25503C57.6844 8.02325 57.4959 7.83455 57.2642 7.83455H56.6799C56.4525 7.83455 56.2676 7.64982 56.2676 7.42269V5.96323C56.2676 5.73586 56.4525 5.55136 56.6799 5.55136H57.2623C57.4952 5.55136 57.6844 5.36174 57.6844 5.12878V0.882024C57.6844 0.655592 57.8687 0.471558 58.0956 0.471558H60.1395C60.3662 0.471558 60.5504 0.655592 60.5504 0.882024V5.06659C60.5504 5.33379 60.768 5.55136 61.0355 5.55136H65.6354C65.7984 5.55136 65.9459 5.6541 66.003 5.80645L68.4422 12.3511C68.4937 12.4892 68.6223 12.5789 68.7702 12.5789C68.9177 12.5789 69.0463 12.4892 69.098 12.3511L71.5419 5.79364C71.5962 5.64874 71.7365 5.55136 71.8909 5.55136H73.9397C74.0637 5.55136 74.175 5.60937 74.2456 5.71117C74.3167 5.81321 74.332 5.93807 74.2887 6.05408L68.61 21.29C68.551 21.4489 68.3973 21.5556 68.2272 21.5556H66.2557Z" fill="#272A31"/>
</g>
<mask id="mask3" mask-type="alpha" maskUnits="userSpaceOnUse" x="40" y="0" width="4" height="4">
<path d="M40.5044 0.292389H43.6239V3.42537H40.5044V0.292389Z" fill="white"/>
</mask>
<g mask="url(#mask3)">
<path fill-rule="evenodd" clip-rule="evenodd" d="M42.0643 3.42527C41.2044 3.42527 40.5044 2.72245 40.5044 1.85865C40.5044 0.994858 41.2044 0.292267 42.0643 0.292267C42.9241 0.292267 43.6239 0.994858 43.6239 1.85865C43.6239 2.72245 42.9241 3.42527 42.0643 3.42527Z" fill="#272A31"/>
</g>
<mask id="mask4" mask-type="alpha" maskUnits="userSpaceOnUse" x="51" y="0" width="4" height="4">
<path d="M51.4331 0.292389H54.5526V3.42537H51.4331V0.292389Z" fill="white"/>
</mask>
<g mask="url(#mask4)">
<path fill-rule="evenodd" clip-rule="evenodd" d="M52.993 3.42527C52.1329 3.42527 51.4331 2.72245 51.4331 1.85865C51.4331 0.994858 52.1329 0.292267 52.993 0.292267C53.8528 0.292267 54.5526 0.994858 54.5526 1.85865C54.5526 2.72245 53.8528 3.42527 52.993 3.42527Z" fill="#272A31"/>
</g>
</g>
<defs>
<clipPath id="clip0">
<rect width="82" height="21.7161" fill="white" transform="translate(0 0.0593262)"/>
</clipPath>
</defs>
</svg>
