<svg fill="none" height="42" viewBox="0 0 75 42" width="75" xmlns="http://www.w3.org/2000/svg" xmlns:xlink="http://www.w3.org/1999/xlink"><clipPath id="a"><path d="m.285645 0h74.3361v41.7591h-74.3361z"/></clipPath><g clip-path="url(#a)"><path d="m68.4091.00006918h-61.92797c-1.64171-.00513986-3.21934.63674882-4.39111 1.78661082-.57915.58005-1.03695 1.26966-1.346687 2.02856-.309737.75891-.465203 1.57191-.457323 2.39155v27.63441c-.008917.8167.145576 1.6269.454389 2.383.308811.7561.765711 1.4428 1.343821 2.0197.57731.5772 1.26289 1.0346 2.01742 1.3462.75454.3116 1.56316.4711 2.37949.4694h61.92797c1.6436-.0077 3.2173-.6664 4.3762-1.8319 1.159-1.1655 1.8089-2.7428 1.8073-4.3864v-27.64021c.0062-.81457-.1494-1.62225-.4578-2.37622s-.7633-1.43923-1.3385-2.01604-1.2592-1.033692-2.0123-1.344166-1.5603-.46835683-2.3749-.46449482z" fill="#fff"/><path d="m72.4171 6.20107c.0062-.52891-.0932-1.05374-.2922-1.54381s-.4938-.93554-.867-1.31037c-.3732-.37482-.8174-.67149-1.3066-.87263-.4892-.20115-1.0136-.30275-1.5425-.29886h-17.3092l9.9308 16.5957.9165.116.58.7599v.7077l.6265.1276.5801.7889v.6845l.6496.116.6555.7135v1.5778c.7804.7045 1.6598 1.2908 2.6103 1.7402.8759.3364.9745 1.7402 1.5024 2.4885.6613 1.0905 1.5662 1.5255 1.3748 2.1346-.4409 1.63-2.1115 4.3795-3.6661 4.5071h-6.1487v2.6335h7.7033c.5301-.0022 1.0546-.1092 1.5433-.3147s.932-.5055 1.3044-.8828.6667-.8244.8658-1.3157c.1992-.4913.2994-1.0171.2948-1.5472v-27.60543" fill="#bf0d3e"/><path d="m30.0724 35.274h-2.9758c0-7.4365 2.5117-11.5491 5.5223-12.367.4118-.0754.2146-2.1057-.3075-2.7264h-1.7402c-.2784 0-.116-.522-.116-.522l1.4096-3.0106-.1914-.8237h-5.209l4.2809-2.9931c.1972-7.89472 8.2949-8.50959 13.1733-5.22061 2.9003 1.92002 3.1208 5.72531 2.9003 8.35301-.0348.1682-.7541.058-.7541.058s-.493 2.9003.7947 2.9003h5.6905c2.3203-.0928 4.5593 1.4792 4.5593 1.4792l.5453-1.9897-12.4657-16.23604h-38.70784c-1.07078-.00625-2.10069.41071-2.86553 1.16014-.37292.37743-.66743.82496-.86655 1.31678-.19911.49181-.29889 1.01818-.29359 1.54875v27.64017c-.00667.5291.09253 1.0541.29177 1.5442s.49448.9354.86837 1.3098c.76012.76 1.79061 1.1876 2.86553 1.1891h25.12854c-.6149-1.0557-1.3168-2.2565-1.5314-2.6103" fill="#041e42"/><g fill="#fff"><path d="m8.0358 29.4096c.00002-.5448.16188-1.0773.46504-1.53.30316-.4526.73395-.805 1.23771-1.0124.50375-.2074 1.05775-.2605 1.59175-.1525s1.0239.3722 1.4074.759c.3836.3869.6436.879.7471 1.4138.1035.5349.0457 1.0885-.166 1.5905-.2116.5019-.5677.9297-1.0229 1.229-.4552.2994-.989.4567-1.5338.4521-.3602.0008-.717-.07-1.04961-.2082-.33264-.1381-.63454-.341-.88816-.5968s-.45392-.5594-.58929-.8932c-.13536-.3338-.20308-.6911-.19924-1.0513zm66.0232 11.0097c0-.3133-.1856-.3539-.4524-.3539h-.5801v1.1601h.2436v-.4582h.1973l.2668.4582h.2726l-.2784-.4582c.0438.0012.0873-.0071.1275-.0243.0402-.0173.0762-.0431.1055-.0756.0292-.0326.051-.0712.0639-.113s.0164-.086.0105-.1293zm-.4698.1392h-.3248v-.2843h.2668c.116 0 .261 0 .261.1276 0 .1277-.0696.1567-.203.1567z"/><path d="m73.5078 39.5316c-.2201 0-.4352.0651-.6182.1873-.183.1221-.3258.2957-.4102.4988-.0845.2032-.1069.4269-.0644.6427.0425.2159.148.4144.3032.5704.1552.1559.3531.2625.5687.3061.2157.0436.4395.0224.6431-.061s.3779-.2253.501-.4076c.123-.1824.1893-.3972.1905-.6172.0023-.1472-.0249-.2933-.0799-.4298-.0551-.1365-.1369-.2606-.2408-.365-.1038-.1043-.2274-.1868-.3636-.2426-.1363-.0558-.2823-.0837-.4294-.0821zm0 1.9896c-.2308 0-.4521-.0917-.6153-.2549-.1632-.1631-.2548-.3844-.2548-.6152s.0916-.4521.2548-.6153c.1632-.1631.3845-.2548.6153-.2548.2307 0 .452.0917.6152.2548.1632.1632.2549.3845.2549.6153s-.0917.4521-.2549.6152c-.1632.1632-.3845.2549-.6152.2549z"/></g></g></svg>