<svg fill="none" height="30" viewBox="0 0 130 30" width="130" xmlns="http://www.w3.org/2000/svg" xmlns:xlink="http://www.w3.org/1999/xlink"><clipPath id="a"><path d="m.368652.25293h129.632v29.4127h-129.632z"/></clipPath><g clip-path="url(#a)"><path d="m75.5523 11.8303h-5.103v.5414c1.5962 0 1.8528.342 1.8528 2.3662v3.6492c0 2.0239-.2564 2.3945-1.8528 2.3945-1.2255-.1709-2.0525-.8267-3.1928-2.081l-1.3112-1.4253c1.7674-.314 2.7079-1.4254 2.7079-2.68 0-1.5676-1.3395-2.765-3.8484-2.765h-5.0172v.5414c1.5961 0 1.8528.342 1.8528 2.3662v3.6492c0 2.0239-.2567 2.3945-1.8528 2.3945v.5416h5.6728v-.5416c-1.5961 0-1.8527-.3706-1.8527-2.3945v-1.0261h.4844l3.1644 3.9622h8.2958c4.0764 0 5.844-2.1663 5.844-4.7608 0-2.5941-1.7674-4.7321-5.844-4.7321zm-11.9444 4.6464v-3.791h1.1686c1.2826 0 1.853.8836 1.853 1.9099 0 .9979-.5704 1.8813-1.853 1.8813h-1.1686zm12.0301 3.9629h-.1998c-1.026 0-1.1686-.2564-1.1686-1.5679v-6.186h1.3684c2.9647 0 3.506 2.1662 3.506 3.8483 0 1.7388-.5416 3.9056-3.506 3.9056z" fill="#00749a"/><path d="m43.9096 17.5321 1.967-5.8159c.5704-1.6819.3138-2.16633-1.5107-2.16633v-.57038h5.3593v.57038c-1.7958 0-2.2234.42755-2.9361 2.50863l-3.2502 9.7495h-.3704l-2.9081-8.923-2.9644 8.923h-.3707l-3.1642-9.7495c-.6842-2.08108-1.1403-2.50863-2.7938-2.50863v-.57038h6.3287v.57038c-1.6821 0-2.1385.39898-1.5395 2.16633l1.9099 5.8159 2.8792-8.55261h.5418z" fill="#00749a"/><path d="m53.6023 21.6937c-3.1357 0-5.7014-2.3089-5.7014-5.1315 0-2.7936 2.566-5.103 5.7014-5.103 3.1359 0 5.7014 2.3094 5.7014 5.103 0 2.8226-2.5655 5.1315-5.7014 5.1315zm0-9.3501c-2.6224 0-3.5349 2.3658-3.5349 4.2188 0 1.8818.9125 4.2193 3.5349 4.2193 2.6514 0 3.5637-2.3375 3.5637-4.2193 0-1.853-.9123-4.2188-3.5637-4.2188z" fill="#00749a"/><g fill="#464342"><path d="m88.4373 20.7532v.5701h-6.5281v-.5701c1.9101 0 2.2522-.4845 2.2522-3.3356v-4.5609c0-2.8512-.3421-3.30707-2.2522-3.30707v-.57038h5.9009c2.9361 0 4.5616 1.51095 4.5616 3.53535 0 1.967-1.6255 3.5063-4.5616 3.5063h-1.625v1.3964c0 2.8514.3421 3.3359 2.2522 3.3359zm-.6272-10.7477h-1.625v4.9606h1.625c1.5966 0 2.3377-1.1117 2.3377-2.4515 0-1.3683-.7411-2.5091-2.3377-2.5091z"/><path d="m111.955 18.6437-.142.513c-.257.9408-.571 1.2829-2.595 1.2829h-.399c-1.482 0-1.739-.3421-1.739-2.3661v-1.3112c2.224 0 2.395.1993 2.395 1.6819h.542v-4.2479h-.542c0 1.4824-.171 1.6819-2.395 1.6819v-3.1925h1.568c2.024 0 2.338.342 2.594 1.2828l.143.5414h.456l-.199-2.6796h-8.382v.5414c1.596 0 1.853.342 1.853 2.3662v3.6492c0 1.8515-.218 2.318-1.476 2.3845-1.196-.1827-2.018-.8352-3.141-2.071l-1.3119-1.4253c1.7679-.314 2.7079-1.4254 2.7079-2.68 0-1.5676-1.339-2.765-3.8479-2.765h-5.0172v.5414c1.5961 0 1.8527.342 1.8527 2.3662v3.6492c0 2.0239-.2564 2.3945-1.8527 2.3945v.5416h5.673v-.5416c-1.5961 0-1.853-.3706-1.853-2.3945v-1.0261h.4847l3.1644 3.9622h11.716l.171-2.6793h-.428zm-15.1083-2.167v-3.791h1.1686c1.2829 0 1.8532.8836 1.8532 1.9099 0 .9979-.5703 1.8813-1.8532 1.8813h-1.1686z"/><path d="m117.743 21.6937c-1.141 0-2.139-.5985-2.566-.9694-.143.1428-.399.5704-.456.9694h-.542v-3.9336h.57c.229 1.8813 1.54 2.993 3.222 2.993.912 0 1.653-.513 1.653-1.3681 0-.741-.655-1.3114-1.824-1.853l-1.625-.7696c-1.141-.5421-1.996-1.4829-1.996-2.7369 0-1.3684 1.283-2.537 3.051-2.537.94 0 1.738.3421 2.223.7411.143-.114.285-.4278.371-.7701h.542v3.3642h-.599c-.2-1.3401-.941-2.4518-2.452-2.4518-.798 0-1.539.4561-1.539 1.1691 0 .7411.598 1.1401 1.967 1.7673l1.567.7697c1.369.6556 1.91 1.7109 1.91 2.566 0 1.7956-1.567 3.0497-3.477 3.0497z"/><path d="m126.523 21.6937c-1.141 0-2.139-.5985-2.566-.9694-.143.1428-.399.5704-.456.9694h-.542v-3.9336h.57c.228 1.8813 1.54 2.993 3.222 2.993.912 0 1.653-.513 1.653-1.3681 0-.741-.655-1.3114-1.824-1.853l-1.625-.7696c-1.141-.5421-1.996-1.4829-1.996-2.7369 0-1.3684 1.283-2.537 3.05-2.537.941 0 1.739.3421 2.224.7411.142-.114.285-.4278.37-.7701h.542v3.3642h-.598c-.2-1.3401-.941-2.4518-2.452-2.4518-.798 0-1.54.4561-1.54 1.1691 0 .7411.599 1.1401 1.968 1.7673l1.567.7697c1.369.6556 1.91 1.7109 1.91 2.566 0 1.7956-1.568 3.0497-3.477 3.0497z"/><path d="m2.45898 14.9591c0 4.9937 2.90208 9.3092 7.11031 11.3543l-6.01804-16.48869c-.70001 1.56899-1.09227 3.30539-1.09227 5.13439z"/><path d="m23.592 14.3224c0-1.5591-.5601-2.6389-1.0404-3.4794-.6396-1.03919-1.239-1.91924-1.239-2.95846 0-1.15972.8796-2.23926 2.1185-2.23926.056 0 .109.00696.1635.01008-2.2445-2.05635-5.2349-3.31185-8.5194-3.31185-4.4075 0-8.28519 2.26135-10.54102 5.68651.29599.00888.57494.01512.81188.01512 1.3196 0 3.36226-.16012 3.36226-.16012.68009-.04009.76027.9588.0809 1.03922 0 0-.68344.08042-1.44395.12027l4.59423 13.66539 2.7609-8.2804-1.9656-5.38547c-.6793-.03985-1.3229-.12027-1.3229-.12027-.6799-.03985-.6002-1.07931.0797-1.03922 0 0 2.0834.16012 3.3231.16012 1.3194 0 3.3623-.16012 3.3623-.16012.6805-.04009.7605.9588.0809 1.03922 0 0-.6849.08042-1.444.12027l4.5592 13.56187 1.2584-4.2051c.5454-1.745.9605-2.9983.9605-4.0784z"/><path d="m15.2965 16.0627-3.7853 10.9993c1.1302.3322 2.3255.514 3.5639.514 1.4692 0 2.8781-.254 4.1896-.7152-.0339-.054-.0646-.1114-.0898-.1738z"/><path d="m26.145 8.90601c.0542.40185.0849.83324.0849 1.29729 0 1.2802-.2391 2.7194-.9592 4.5189l-3.8537 11.1418c3.7507-2.1872 6.2735-6.2506 6.2735-10.9049.0002-2.1934-.5601-4.256-1.5455-6.05309z"/><path d="m15.0751.25293c-8.10891 0-14.706448 6.59706-14.706448 14.70597 0 8.1099 6.597538 14.7068 14.706448 14.7068 8.1087 0 14.7072-6.5969 14.7072-14.7068-.0002-8.10891-6.5985-14.70597-14.7072-14.70597zm0 28.73867c-7.73706 0-14.03212-6.2951-14.03212-14.0327 0-7.73706 6.29482-14.031645 14.03212-14.031645 7.7369 0 14.0315 6.294585 14.0315 14.031645 0 7.7376-6.2946 14.0327-14.0315 14.0327z"/></g></g></svg>