<svg fill="none" height="30" viewBox="0 0 128 30" width="128" xmlns="http://www.w3.org/2000/svg"><g clip-rule="evenodd" fill="#0d318f" fill-rule="evenodd"><path d="m21.4249 1.30376c0 .72039-.5836 1.30438-1.3035 1.30438-.72 0-1.3045-.58399-1.3045-1.30438 0-.720087.5845-1.30376 1.3045-1.30376.7199 0 1.3035.583673 1.3035 1.30376z"/><path d="m10.5267 2.28076c1.8635.08832 3.7465.33977 5.5831.78295 1.8387.44726 3.6519 1.07588 5.381 2.01315.8629.47084 1.7048 1.02151 2.493 1.7023.7831.68174 1.526 1.49957 2.0709 2.53711.2706.51672.4843 1.09033.6015 1.69663.0591.303.094.6129.1012.9235.0025.0773.0025.1552.0013.2325l-.0029.1339-.005.0811c-.0097.1773-.0251.3247-.0471.4778-.0861.6113-.2775 1.1944-.5355 1.7152-.2571.5227-.5779.9847-.9268 1.3942-.702.8185-1.5103 1.4339-2.3396 1.9409-.8325.5045-1.6935.8989-2.5656 1.2224-1.7451.6437-3.5322 1.0127-5.3179 1.2107-.8937.0971-1.7874.1496-2.679.1603-.8919.0132-1.7825-.0223-2.6561-.0836-.87709-.0604-1.76204-.1478-2.63976-.2917-.87834-.1424-1.74224-.3432-2.58696-.5758l.50187-.2468-4.95835 9.49 4.14694-9.8731.1257-.308.37554.0613c.84346.1379 1.68379.2401 2.52411.2854.84032.0471 1.68442.0402 2.53448.0078.85413-.0336 1.69323-.082 2.52693-.1804.8334-.0949 1.6596-.2288 2.4735-.402 1.6247-.3483 3.2089-.8552 4.6482-1.5612.7181-.3526 1.3981-.7571 2.0028-1.2151.6027-.4567 1.13-.9728 1.4987-1.514.372-.5425.5647-1.0926.5703-1.587.0079-.5007-.1455-.9624-.4629-1.4313-.3148-.4665-.7935-.9172-1.3588-1.31008-.5666-.39446-1.2171-.73549-1.9066-1.02308-1.3821-.5755-2.9103-.94513-4.4621-1.15603-.7769-.1053-1.5632-.17004-2.3513-.19833-.3941-.01415-.7888-.01854-1.1835-.01477-.1977.0022-.3953.0066-.5924.0132l-.5996.02609z"/><path d="m2.26799 24.1409c.26524.0195.59395-.0138.94183-.0968.70111-.1647 1.47418-.5217 2.22431-.9856.75359-.4649 1.49304-1.0357 2.20452-1.6643.7121-.6299 1.39844-1.3195 2.05995-2.044 1.3227-1.4518 2.5471-3.0418 3.7004-4.6935 1.1533-1.653 2.2362-3.3713 3.2673-5.12612-.642 1.93172-1.3447 3.85062-2.1423 5.74562-.7994 1.894-1.6894 3.766-2.7513 5.5878-.5317.9102-1.1074 1.8075-1.7514 2.6807-.64481.8728-1.35566 1.7243-2.18373 2.5239-.83089.7958-1.77461 1.5524-2.95339 2.1464-.5908.2936-1.24163.545-1.98044.6987-.36926.0761-.76019.127-1.18444.1358-.21244.0038-.43273-.0028-.67031-.0273-.119103-.0126-.242606-.0293-.377737-.0547-.067565-.0129-.138273-.028-.216837-.0475-.080764-.0207-.310801-.071-.454416-.1226 0 0 2.13663-4.6659 2.26799-4.6565z"/><path d="m36.9788 8.32536h.6047c1.1816 0 2.0499-.21656 2.6036-.65093.5543-.43375.8312-.94387.8312-1.52943 0-.33034-.0874-.62988-.2621-.89893-.1744-.26873-.4447-.48058-.8111-.63459-.3658-.15496-.9519-.23228-1.757-.23228h-1.2093zm-3.1517 4.05114v-9.6185h5.311c1.5443 0 2.63.12383 3.2579.37151.6279.24736 1.1018.59782 1.4204 1.05042.319.45261.4787 1.02214.4787 1.70922 0 1.32073-.5437 2.32715-1.632 3.01926-1.0876.69273-2.5461 1.03848-4.3744 1.03848h-1.3099v5.38071z"/><path d="m46.3999 14.7064v-8.77048h3.0892v1.65327c.3689-.56418.8726-1.01459 1.5134-1.34964.6398-.336 1.3529-.50353 2.1392-.50353.1879 0 .3793.01603.5744.04778v2.1087c-.4315-.12195-.839-.18356-1.2212-.18356-.6122 0-1.1687.1185-1.6696.35549-.5016.23699-.9466.5953-1.3362 1.07431v5.56766z"/><path d="m57.509 9.33187h4.0596c0-.80401-.1732-1.37919-.5198-1.72525-.3475-.34605-.7957-.51955-1.345-.51955-.5977 0-1.0886.1911-1.4736.57141-.3849.38094-.6253.93853-.7212 1.67339zm7.0966 4.95253c-1.4591.3301-2.8418.4951-4.1492.4951-1.2381 0-2.322-.177-3.2525-.5309-.9299-.3542-1.6455-.908-2.147-1.6617-.5013-.7534-.7517-1.5722-.7517-2.4561 0-.81999.2121-1.57779.6376-2.27242.4255-.69494 1.044-1.24341 1.8566-1.64541.8127-.402 1.8139-.60347 3.0034-.60347 1.4588 0 2.6244.35705 3.4961 1.07054.8714.71348 1.3067 2.04269 1.3067 3.98576h-7.0444c.0688.5912.2429 1.057.5223 1.3977.2794.3411.6568.6114 1.1326.8109.4761.1996 1.114.2999 1.9135.2999 1.0276 0 2.1866-.1839 3.476-.5513z"/><path d="m67.5119 14.58v-7.29295h-1.5764v-1.47757h1.5764v-.63114c0-1.22455.367-2.09927 1.1011-2.62417.7341-.52427 1.7756-.78671 3.1259-.78671.9117 0 1.8507.10152 2.818.30362v1.59732c-.8771-.28162-1.6634-.42306-2.3588-.42306-.3272 0-.6072.04935-.8404.14741-.2331.09901-.4173.26402-.5527.49535-.1358.23228-.204.63271-.204 1.20255v.71883h2.9012v1.47757h-2.9012v7.29295z"/><path d="m77.5681 9.33187h4.0596c0-.80401-.1732-1.37919-.5198-1.72525-.3476-.34605-.7957-.51955-1.345-.51955-.5977 0-1.0886.1911-1.4736.57141-.3849.38094-.6247.93853-.7212 1.67339zm7.0966 4.95253c-1.4591.3301-2.8419.4951-4.1492.4951-1.2381 0-2.322-.177-3.2519-.5309-.9305-.3542-1.6461-.908-2.1476-1.6617-.5013-.7534-.7517-1.5722-.7517-2.4561 0-.81999.2121-1.57779.6376-2.27242.4255-.69494 1.0439-1.24341 1.8566-1.64541s1.8139-.60347 3.0034-.60347c1.4594 0 2.6243.35705 3.4961 1.07054.8714.71348 1.3067 2.04269 1.3067 3.98576h-7.0444c.0688.5912.2429 1.057.5223 1.3977.2793.3411.6568.6114 1.1332.8109.4755.1996 1.1134.2999 1.9129.2999 1.0276 0 2.1866-.1839 3.476-.5513z"/><path d="m87.2485 14.58v-8.77054h3.0892v1.65327c.3689-.56419.8733-1.01428 1.5134-1.34965.6399-.33568 1.3536-.50352 2.1398-.50352.188 0 .3787.01603.5739.04777v2.10871c-.4315-.12196-.8385-.18356-1.2213-.18356-.6121 0-1.1687.11849-1.6696.35548-.5015.23699-.9465.59531-1.3362 1.07431v5.56773z"/><path d="m96.3022 14.58v-8.77054h3.0892v1.65327c.3689-.56419.8736-1.01428 1.5136-1.34965.64-.33568 1.353-.50352 2.14-.50352.188 0 .378.01603.573.04777v2.10871c-.431-.12196-.838-.18356-1.22-.18356-.613 0-1.169.11849-1.67.35548s-.9469.59531-1.3366 1.07431v5.56773z"/><path d="m107.538 9.33187h4.06c0-.80401-.174-1.37919-.52-1.72525-.347-.34605-.796-.51955-1.345-.51955-.598 0-1.089.1911-1.474.57141-.384.38094-.625.93853-.721 1.67339zm7.097 4.95253c-1.459.3301-2.842.4951-4.149.4951-1.238 0-2.322-.177-3.253-.5309-.93-.3542-1.646-.908-2.147-1.6617-.501-.7534-.752-1.5722-.752-2.4561 0-.81999.212-1.57779.638-2.27242.425-.69494 1.044-1.24341 1.857-1.64541s1.814-.60347 3.003-.60347c1.459 0 2.624.35705 3.496 1.07054.871.71348 1.307 2.04269 1.307 3.98576h-7.045c.069.5912.243 1.057.522 1.3977.28.3411.658.6114 1.134.8109.475.1996 1.113.2999 1.913.2999 1.028 0 2.186-.1839 3.476-.5513z"/><path d="m124.325 8.10041c-.422-.37246-.821-.62453-1.195-.7578-.374-.13295-.756-.19927-1.144-.19927-.817 0-1.428.30739-1.833.92124-.406.61447-.608 1.33644-.608 2.16562 0 .8191.189 1.4716.567 1.9584.377.4866.924.7299 1.639.7299.456 0 .907-.1232 1.353-.3709.446-.2474.853-.5733 1.221-.9772zm0 6.47949v-1.6614c-.392.6204-.894 1.0856-1.509 1.3958-.615.3099-1.345.4652-2.19.4652-1.388 0-2.462-.3979-3.225-1.1941-.762-.7958-1.144-1.8465-1.144-3.1512 0-1.37892.426-2.52803 1.278-3.44676.852-.91841 2.04-1.37793 3.565-1.37793.412 0 .79.03363 1.133.09995.344.06663.673.16941.99.30771.316.13861.683.36459 1.102.6789v-4.72878h3.089v12.61261z"/><path d="m33.8269 26.6051-.0154-12.9637 9.9931 9.2174v-8.0756h2.5778v11.8219h-2.8836l-7.094-6.8938v6.8938z"/><path d="m51.3674 21.357h4.0602c0-.804-.1738-1.3789-.5204-1.7249-.3476-.3464-.7957-.5196-1.345-.5196-.5977 0-1.0886.1905-1.4736.5711-.3849.381-.6247.9385-.7212 1.6734zm7.0972 4.9526c-1.4597.33-2.8424.495-4.1498.495-1.2381 0-2.322-.1766-3.2519-.5309-.9305-.3542-1.6461-.908-2.1476-1.6614-.5013-.7537-.7517-1.5725-.7517-2.4563 0-.8197.2121-1.5779.6376-2.2722.4255-.6955 1.044-1.244 1.8573-1.646.812-.402 1.8139-.6029 3.0033-.6029 1.4588 0 2.6238.3568 3.4955 1.07.8714.7141 1.3073 2.0427 1.3073 3.986h-7.045c.0688.5913.2429 1.0571.5223 1.3978.2794.3413.6568.6113 1.1332.8109.4755.1996 1.1134.2998 1.9135.2998 1.0276 0 2.186-.1838 3.476-.5513z"/><path d="m66.5484 26.5572c-.7378.165-1.3189.2473-1.7432.2473-1.0084 0-1.7915-.1093-2.3478-.3272-.5571-.2184-.9745-.5157-1.2526-.8907-.2781-.3756-.4173-.9278-.4173-1.6574v-4.6172h-1.2841v-1.4775h1.2841l3.0891-1.7492v1.7492h2.4528v1.4775h-2.4528v4.2998c0 .633.1462 1.0595.4384 1.2805.292.2203.7206.331 1.2841.331.2636 0 .5804-.0321.9493-.0959z"/><path d="m70.2675 26.6051-3.1904-8.7705h2.873l2.2564 6.1432 2.3987-6.1432h2.6686l2.1656 6.1743 2.4317-6.1743h2.1549l-3.41 8.7705h-2.961l-2.0882-6.0156-2.3384 6.0156z"/><path d="m90.5024 25.3269c.8771 0 1.5364-.2942 1.9783-.8829.4412-.588.6621-1.3295.6621-2.2243 0-.8892-.2209-1.6294-.6621-2.2206-.4419-.5913-1.1012-.8864-1.9783-.8864-.8698 0-1.5254.2951-1.9672.8864-.4419.5912-.6628 1.3314-.6628 2.2206 0 .8948.2209 1.6363.6628 2.2243.4418.5887 1.0974.8829 1.9672.8829zm0 1.4776c-1.2385 0-2.301-.1848-3.1881-.5548-.8875-.3702-1.5638-.9149-2.0301-1.6337-.4661-.7189-.6992-1.5175-.6992-2.3963 0-.8732.2294-1.6681.6885-2.3841.4598-.7163 1.1345-1.2619 2.0251-1.6378.8906-.375 1.9584-.563 3.2038-.563 1.2526 0 2.3227.188 3.2095.563.8875.3759 1.5622.9215 2.0248 1.6378.4629.716.6942 1.5109.6942 2.3841 0 .8788-.2332 1.6774-.6996 2.3963-.466.7188-1.1429 1.2635-2.0297 1.6337-.8872.37-1.9538.5548-3.1992.5548z"/><path d="m98.1909 26.605v-8.7705h3.0891v1.6533c.368-.5642.873-1.0143 1.513-1.3496.64-.3357 1.353-.5033 2.14-.5033.188 0 .379.0161.574.0478v2.1087c-.432-.1219-.839-.1835-1.221-.1835-.613 0-1.169.1185-1.67.3555-.501.2369-.946.5949-1.336 1.0743v5.5673z"/><path d="m106.838 26.6051v-10.6875h3.09v6.0065h.198l4.081-4.0895h2.584l-3.778 3.7601 4.932 5.0104h-3.749l-4.07-4.3853h-.198v4.3853z"/><path d="m118.993 26.3254v-1.7334c1.53.49 2.839.7349 3.924.7349.578 0 1.039-.0934 1.383-.2792.344-.1867.517-.4236.517-.7112 0-.2502-.129-.4608-.386-.6309-.258-.165-.651-.3278-1.18-.4874l-1.043-.3194c-1.079-.33-1.875-.6949-2.391-1.0944-.515-.3942-.772-.9077-.772-1.5417 0-.7613.387-1.3899 1.164-1.8849.775-.4954 1.96-.7427 3.554-.7427.932 0 2.041.1037 3.329.3111v1.6618c-1.239-.3303-2.265-.4954-3.079-.4954-.64 0-1.121.084-1.44.2515-.32.1678-.48.385-.48.6509 0 .2078.104.3917.313.5513.202.1597.57.3172 1.106.4715l.898.2634c1.481.4315 2.452.8496 2.912 1.2541.451.4101.678.8998.678 1.4697 0 .7402-.416 1.3886-1.248 1.9452-.831.5564-2.04.8342-3.626.8342-1.35 0-2.728-.1593-4.133-.479z"/></g></svg>