<svg width="107" height="37" viewBox="0 0 107 37" fill="none" xmlns="http://www.w3.org/2000/svg">
<path fill-rule="evenodd" clip-rule="evenodd" d="M32.6 20.2762C32.3472 20.2321 31.9822 20.0807 31.7015 19.9068C29.1467 18.0188 32.4029 15.805 36.1648 14.5249V10.8787C37.0633 11.2912 37.512 11.3343 37.5684 11.3995L40.4318 9.1857L39.4769 7.31925C47.8986 5.06235 51.2949 4.19428 58.1439 3.30417L56.9096 2.43609L58.9309 1.5249C63.5349 2.71874 67.8297 3.02248 67.1004 5.99606C67.2962 3.9993 64.0672 3.21793 59.0715 2.13284L58.1445 2.58844L59.9694 3.76024C51.7727 4.86737 46.72 6.08277 40.7404 7.68861L41.5267 9.33757L38.5505 11.6165C39.0561 11.7252 44.2773 13.0925 49.7514 10.141C49.7792 10.1194 49.8635 10.0974 49.8635 10.0538C49.6671 9.83676 49.33 9.6413 48.8814 9.31553C50.4534 9.40272 51.492 10.4873 51.2955 11.616H50.5656C50.6498 11.2687 50.5377 10.8567 50.3413 10.5961C46.1586 12.9833 41.246 13.3306 37.0633 12.2024V15.0236C35.0135 15.5659 31.3929 17.3026 31.4208 18.9736C31.5608 19.7765 32.0944 20.0591 32.6 20.2762Z" fill="black"/>
<path fill-rule="evenodd" clip-rule="evenodd" d="M49.6944 19.5379C45.1747 21.3392 40.8514 22.75 34.1145 22.9455C25.44 22.8147 24.0929 18.344 28.2191 13.6779C32.0926 8.96865 38.2693 4.69295 48.1218 2.02358C50.9288 1.26377 55.1685 0.352582 59.1826 0.330545C64.993 0.287428 70.635 1.69781 70.2712 5.9735C70.0742 9.27238 63.9272 13.9385 60.6982 17.281C59.2941 18.7354 59.0704 19.6682 61.4282 19.6026C69.9905 19.1695 77.8223 16.8685 85.0091 14.4813C80.1801 17.0204 54.8605 26.721 54.7198 20.1022C54.7477 19.2777 55.2812 18.3876 56.0948 17.4544C56.9091 16.5212 58.0325 15.5228 59.1832 14.5029C60.8959 12.9837 65.1616 9.33753 66.5936 7.14579C69.0078 3.02244 63.5895 2.80494 58.9304 1.52486L56.9091 2.43605L58.1155 3.30413C51.2944 4.19376 47.8975 5.06184 39.4758 7.31921L40.4306 9.18566L37.5672 11.3994C37.5108 11.3343 37.0622 11.2912 36.1637 10.8787V14.5249C32.4024 15.805 29.1455 18.0187 31.7004 19.9068C31.9811 20.0807 32.346 20.2325 32.5989 20.2761H32.5703C37.2029 22.2944 49.7223 19.5379 49.6944 19.5379V19.5379ZM20.8366 29.1308V27.4382H24.0371V29.1308H20.8366ZM20.9773 36.0969V30.0645H23.9528V36.0969H20.9773ZM87.8725 30.7802C89.4445 30.7802 90.7359 31.7786 90.7359 32.994C90.7366 33.2849 90.6631 33.573 90.5194 33.8418C90.3758 34.1107 90.1649 34.3549 89.8989 34.5606C89.6328 34.7663 89.3169 34.9293 88.9691 35.0404C88.6214 35.1515 88.2487 35.2083 87.8725 35.2078C87.4956 35.2102 87.1218 35.1546 86.773 35.0442C86.4242 34.9338 86.1073 34.7708 85.8407 34.5648C85.5742 34.3587 85.3634 34.1137 85.2206 33.844C85.0778 33.5743 85.0059 33.2854 85.0091 32.994C85.0083 32.7031 85.0819 32.415 85.2255 32.1461C85.3692 31.8773 85.5801 31.633 85.8461 31.4273C86.1121 31.2217 86.4281 31.0586 86.7758 30.9476C87.1236 30.8365 87.4962 30.7796 87.8725 30.7802V30.7802ZM87.8725 36.2493C90.1745 36.2493 92.0551 34.7953 92.0551 32.994C92.0551 31.2142 90.1745 29.7603 87.8725 29.7603C85.5426 29.7603 83.6619 31.2142 83.6619 32.994C83.6612 33.4216 83.7696 33.8452 83.9809 34.2404C84.1923 34.6356 84.5024 34.9947 84.8935 35.2971C85.2847 35.5995 85.7491 35.8392 86.2603 36.0026C86.7715 36.166 87.3193 36.2498 87.8725 36.2493V36.2493ZM72.5739 36.0969H73.8931V35.1642H72.5739V36.0969ZM82.5949 35.3165C82.1735 35.5982 81.3035 36.2493 79.6757 36.2493C77.5422 36.2493 75.4931 34.9467 75.4931 32.994C75.4931 31.0628 77.5422 29.7603 79.6757 29.7603C81.2199 29.7603 82.1735 30.4113 82.5949 30.693C82.3421 30.9531 82.1178 31.4959 82.0056 31.7345C81.2199 30.91 80.265 30.7802 79.6757 30.7802C78.1036 30.7802 76.8123 31.8001 76.8123 32.994C76.8123 34.2094 78.1036 35.2293 79.6757 35.2293C80.5457 35.2293 81.3884 34.9251 82.0335 34.2741C82.2293 34.8168 82.4542 35.121 82.5949 35.3165V35.3165ZM93.9358 36.0969V30.0645H95.1144V30.9105C95.3616 30.6136 95.699 30.3679 96.0971 30.1948C96.5252 30.0073 97.0093 29.9099 97.5013 29.9121C98.0627 29.9121 98.5398 30.0209 98.9041 30.1948C99.2697 30.3893 99.5504 30.6504 99.6911 30.9761C100.308 30.281 101.123 29.9121 102.105 29.9121C102.863 29.9121 103.48 30.086 103.874 30.4118C104.295 30.7591 104.519 31.2578 104.519 31.952V36.0969H103.2V32.2998C103.2 31.8873 103.144 31.5831 103.059 31.4102C102.978 31.2301 102.819 31.077 102.61 30.9761C102.365 30.8602 102.083 30.7999 101.795 30.8022C101.263 30.8022 100.814 30.9536 100.448 31.2363C100.083 31.5189 99.8869 31.9745 99.8869 32.582V36.0974H98.5677V32.1695C98.5677 31.7139 98.4549 31.3666 98.2591 31.1496C98.0342 30.9325 97.6698 30.8022 97.1914 30.8022C96.8271 30.8022 96.4906 30.8894 96.1541 31.0408C95.8443 31.1932 95.6206 31.4102 95.4799 31.6919C95.3393 31.9961 95.255 32.4086 95.255 32.9729V36.0969H93.9358V36.0969ZM104.014 28.7403V27.5896H103.452V27.4382H104.8V27.5896H104.237V28.7403H104.014ZM104.997 28.7403V27.4377H105.333L105.754 28.3705C105.782 28.4577 105.81 28.5228 105.838 28.5659C105.838 28.5228 105.867 28.4361 105.923 28.3489L106.316 27.4377H106.625V28.7403H106.4V27.6547L105.923 28.7403H105.699L105.222 27.6332V28.7403H104.997ZM66.9871 35.2078C66.6785 35.5326 66.2001 35.7937 65.583 35.9666C65.4472 36.0129 65.3061 36.0493 65.1616 36.0754C64.6281 36.1851 64.0388 36.2277 63.3658 36.2277C62.3831 36.2277 61.6252 36.0754 61.0917 35.7505C60.5303 35.4463 60.2775 34.9907 60.2775 34.4048C60.2775 34.0355 60.3903 33.7097 60.5861 33.428C60.7831 33.1454 61.0917 32.9068 61.4852 32.7113C61.7938 32.5599 62.243 32.4512 62.8044 32.3856C63.3088 32.3424 64.0958 32.2993 65.1622 32.2993H66.9301V32.2121V32.1249C66.9301 31.7992 66.8185 31.5606 66.5657 31.3867C66.3129 31.2138 65.9485 31.1266 65.4702 31.1266H65.1616C64.7681 31.1481 64.4874 31.2138 64.2637 31.3005C64.0109 31.4092 63.8424 31.6037 63.7866 31.8433H60.7825C60.8662 31.1922 61.316 30.7141 62.0739 30.3883C62.7759 30.1066 63.8145 29.9543 65.161 29.9327C65.2737 29.9112 65.3859 29.9112 65.5266 29.9112C66.9858 29.9112 68.0814 30.1066 68.7543 30.4755C69.4564 30.8664 69.8208 31.4308 69.8208 32.2337V35.2935C69.8208 35.4674 69.8208 35.6193 69.8499 35.7275C69.8778 35.8583 69.9056 35.9886 69.9627 36.0964H67.1829C67.1192 35.9777 67.072 35.854 67.0422 35.7275C67.0084 35.5919 66.9898 35.4542 66.9865 35.316V35.2078H66.9871V35.2078ZM65.1622 34.9251C65.6678 34.882 66.0892 34.7737 66.3978 34.5562C66.7343 34.3392 66.9301 33.9919 66.9301 33.5363V33.4065H66.6785C66.0892 33.4065 65.583 33.4065 65.1622 33.4496C64.7999 33.4651 64.4416 33.516 64.0958 33.601C63.618 33.7308 63.3937 33.9483 63.3937 34.252C63.3937 34.469 63.5065 34.6429 63.7581 34.7517C64.0109 34.8595 64.3765 34.9246 64.8809 34.9246L65.1622 34.9251V34.9251ZM56.1797 32.9073C56.1797 32.3645 55.9839 31.9304 55.5904 31.6047C55.197 31.2789 54.6926 31.1275 54.0463 31.1275H54.0184C53.3163 31.1275 52.7828 31.2789 52.4178 31.6047C52.0528 31.9089 51.8564 32.386 51.8564 32.994C51.8564 33.5799 52.0528 34.0355 52.4178 34.3612C52.8101 34.687 53.3163 34.8384 53.9905 34.8384H54.0184C54.6926 34.8384 55.2248 34.6654 55.5904 34.3397C55.9833 33.9924 56.1797 33.5142 56.1797 32.9073V32.9073ZM54.0178 30.0204C54.3821 29.9332 54.8035 29.9116 55.2242 29.9116C56.4598 29.9116 57.4426 30.1943 58.1434 30.7586C58.8746 31.3014 59.239 32.0612 59.239 33.0371C59.239 34.0355 58.8746 34.8168 58.2004 35.3812C57.4984 35.9455 56.5156 36.2282 55.2812 36.2282C54.8307 36.2282 54.41 36.1851 54.0178 36.0974C53.792 36.0554 53.5745 35.99 53.3715 35.9029C52.7822 35.6859 52.305 35.3817 51.8837 34.9701V35.1431C51.8837 35.317 51.8837 35.4689 51.8558 35.6202C51.8558 35.7726 51.8279 35.946 51.8 36.0974H48.7959C48.8238 35.8373 48.8523 35.5987 48.8802 35.3817C48.9075 35.1431 48.9075 34.9261 48.9075 34.7316V27.4387H51.8831V30.9325C52.3323 30.5852 52.8386 30.3251 53.3987 30.1727C53.597 30.1076 53.7928 30.042 54.0178 30.0204V30.0204ZM44.0519 35.2078C43.7154 35.5326 43.2655 35.7937 42.6205 35.9666C42.4881 36.0193 42.346 36.056 42.1991 36.0754C41.6941 36.1851 41.0763 36.2277 40.4306 36.2277C39.4479 36.2277 38.6622 36.0754 38.1286 35.7505C37.5951 35.4463 37.3144 34.9907 37.3144 34.4048C37.3144 34.0355 37.4266 33.7097 37.6515 33.428C37.8479 33.1454 38.1565 32.9068 38.5494 32.7113C38.8586 32.5599 39.2793 32.4512 39.8407 32.3856C40.3743 32.3424 41.16 32.2993 42.1991 32.2993H43.9676C43.9676 32.2768 43.9676 32.2337 43.9961 32.2121V32.1249C43.9961 31.7992 43.8555 31.5606 43.6311 31.3867C43.3783 31.2138 43.0134 31.1266 42.5368 31.1266H42.1997C41.8348 31.1481 41.5262 31.2138 41.3298 31.3005C41.0491 31.4092 40.9084 31.6037 40.852 31.8433H37.82C37.9328 31.1922 38.3536 30.7141 39.1393 30.3883C39.8407 30.1066 40.8514 29.9543 42.1991 29.9327C42.3398 29.9112 42.4513 29.9112 42.5641 29.9112C44.0519 29.9112 45.1183 30.1066 45.8204 30.4755C46.5224 30.8664 46.8595 31.4308 46.8595 32.2337V35.2935C46.8595 35.4674 46.8874 35.6193 46.8874 35.7275C46.9153 35.8583 46.9717 35.9886 47.0281 36.0964H44.2489C44.1653 35.9886 44.1368 35.8588 44.1089 35.7275C44.081 35.5977 44.0525 35.4674 44.0525 35.316V35.2078H44.0519V35.2078ZM42.1997 34.9251C42.7326 34.882 43.154 34.7737 43.4353 34.5562C43.7997 34.3392 43.9682 33.9919 43.9682 33.5363V33.4065H43.7439C43.154 33.4065 42.6211 33.4065 42.1997 33.4496C41.8465 33.4648 41.4974 33.5157 41.1612 33.601C40.6841 33.7308 40.4313 33.9483 40.4313 34.252C40.4313 34.469 40.5719 34.6429 40.7962 34.7517C41.0491 34.8595 41.414 34.9246 41.919 34.9246L42.1997 34.9251ZM33.2166 32.9073C33.2166 32.3645 33.0487 31.9304 32.6552 31.6047C32.2618 31.2789 31.7567 31.1275 31.1111 31.1275H31.0547C30.3811 31.1275 29.8476 31.2789 29.4826 31.6047C29.0898 31.9089 28.9212 32.386 28.9212 32.994C28.9212 33.5799 29.0898 34.0355 29.4826 34.3612C29.847 34.687 30.3811 34.8384 31.0547 34.8384C31.7561 34.8384 32.2896 34.6654 32.6552 34.3397C33.0481 33.9924 33.2166 33.5142 33.2166 32.9073V32.9073ZM31.0547 30.0204C31.4475 29.9332 31.841 29.9116 32.2896 29.9116C33.5252 29.9116 34.4795 30.1943 35.2094 30.7586C35.9109 31.3014 36.2765 32.0612 36.2765 33.0371C36.2765 34.0355 35.9394 34.8168 35.2373 35.3812C34.5359 35.9455 33.5816 36.2282 32.346 36.2282C31.8968 36.2282 31.4754 36.1851 31.0547 36.0974C30.8322 36.048 30.6161 35.9829 30.409 35.9029C29.847 35.6859 29.342 35.3817 28.9491 34.9701V35.1431C28.9491 35.317 28.9212 35.4689 28.9212 35.6202C28.8933 35.7726 28.8654 35.946 28.8369 36.0974H25.8335C25.887 35.861 25.9152 35.6216 25.9178 35.3817C25.9456 35.1431 25.9741 34.9261 25.9741 34.7316V27.4387H28.9497V30.9325C29.399 30.5852 29.904 30.3251 30.4375 30.1727C30.6339 30.1076 30.8583 30.042 31.0547 30.0204V30.0204ZM7.89517 27.4382H10.0292L15.5026 36.0969H11.9099L10.9277 34.3397H4.83532L3.79679 36.0969H0.427734L6.23884 27.4382H7.89517ZM7.89517 32.6687H9.88859L7.97944 29.3478L7.89455 29.4992L5.87386 32.6682H7.89517V32.6687ZM16.0089 36.0969V27.4382H18.9838V36.0969H16.0089Z" fill="#D9783E"/>
</svg>
