<svg width="132" height="51" viewBox="0 0 132 51" fill="none" xmlns="http://www.w3.org/2000/svg">
<path fill-rule="evenodd" clip-rule="evenodd" d="M27.177 0.334671C26.5215 0.531982 25.855 1.01541 25.0746 1.8594C23.6183 3.43465 22.8105 5.74018 21.9228 10.8552L21.6726 12.2977L20.3249 12.2966C18.4109 12.2952 17.2956 12.0823 16.3033 11.529C14.8337 10.71 14.2364 10.8114 13.4159 12.0196C13.1066 12.4751 12.6482 13.0037 12.397 13.1944C11.8048 13.6443 9.88982 14.7271 9.81635 14.6537C9.78525 14.6226 9.63298 14.1013 9.47789 13.4953C9.13857 12.1684 9.11366 10.4032 9.40724 8.49789C9.76893 6.15126 9.62073 4.92954 8.85246 3.92216C8.09811 2.93321 6.66388 2.94278 5.84002 3.94242C5.27539 4.62724 5.04542 5.52387 5.06625 6.95824C5.09553 8.97822 5.68014 11.1422 7.03739 14.2552L7.79877 16.0015L7.26595 16.4216C6.15273 17.2993 4.12544 19.5083 3.29848 20.7447C1.02518 24.1434 -0.00908767 27.5843 6.01339e-05 31.7192C0.00737837 35.0551 0.59523 37.4863 2.11911 40.4828C3.36068 42.924 4.82968 44.7706 6.89342 46.4841C10.5427 49.5142 14.6553 50.9988 19.3994 50.9988C24.6903 50.9988 29.489 49.0194 33.1418 45.3302C38.0308 40.3925 39.9144 33.4867 38.2028 26.7756C36.5523 20.3043 31.6695 15.1666 25.2298 13.1253L23.8194 12.6782L23.9071 12.2416C24.1179 11.1925 24.7429 9.34511 25.1821 8.47298C25.7658 7.31416 26.2376 6.76628 27.7151 5.53217C29.0357 4.42909 29.6906 3.52824 29.8254 2.62894C30.0286 1.27408 29.274 0.18338 28.1494 0.206602C27.8264 0.213216 27.3889 0.270918 27.177 0.334671ZM28.0908 16.5174C32.5651 18.0189 36.0859 22.1036 37.2343 27.1252C37.6554 28.9659 37.6514 31.8735 37.2256 33.6018C36.6143 36.083 35.1857 38.4813 33.473 39.9017C32.4179 40.7767 30.4124 41.7586 29.0825 42.0515C22.7729 43.4404 16.2093 38.7917 14.2312 31.533C13.8017 29.9568 13.7688 25.9909 14.1725 24.4714C15.0832 21.0444 17.3719 18.1684 20.2289 16.8604C21.7624 16.1584 22.8971 15.9502 24.8881 16.0056C26.5029 16.0506 26.879 16.1107 28.0908 16.5174ZM23.4808 17.5856C17.7289 18.8567 14.6081 25.2502 16.6163 31.6489C18.5055 37.6683 24.223 41.3806 29.5189 40.0261C31.0186 39.6425 32.1654 38.9968 33.3632 37.8616C35.6824 35.6638 36.7542 32.8597 36.599 29.3971C36.3557 23.9672 32.8999 19.3133 27.9852 17.7967C26.6725 17.3917 24.7636 17.3022 23.4808 17.5856Z" fill="url(#paint0_linear)"/>
<path fill-rule="evenodd" clip-rule="evenodd" d="M86.358 16.5094C85.7641 17.4312 84.5732 18.8356 83.7327 19.6051L83.0161 20.2613L83.4243 20.7539C83.6489 21.0249 83.8643 21.2943 83.903 21.3527C83.9455 21.4165 84.1205 21.3466 84.3431 21.1768L84.7127 20.8949L84.7459 22.6758C84.7951 25.3097 84.7798 25.2976 88.0662 25.3069L90.1962 25.3128V25.6267V25.9408L87.0144 25.9686L83.8325 25.9965L83.8014 26.7065L83.7704 27.4165L85.6947 27.421L87.6192 27.4254L87.1458 27.8416C86.5793 28.3398 85.4324 28.9201 84.5849 29.1374C84.2466 29.2242 83.9485 29.3164 83.9226 29.3425C83.8966 29.3685 83.9333 29.705 84.0043 30.0902L84.1334 30.7908L84.4563 30.7237C85.1603 30.5774 86.3912 30.1182 87.0229 29.7662C87.7325 29.3708 89.0352 28.2123 89.3284 27.7159C89.4653 27.4842 89.5828 27.4165 89.8481 27.4165H90.1912L90.22 29.1783L90.2488 30.9401L91.0114 30.9711L91.774 31.002V29.2092V27.4165H92.1332C92.4434 27.4165 92.5458 27.4893 92.8852 27.9516C93.4638 28.7398 94.4367 29.4988 95.508 29.9979C96.4503 30.4367 97.7387 30.8482 97.8432 30.7437C97.8734 30.7135 97.9556 30.3833 98.0257 30.0099L98.1533 29.331L97.4928 29.1522C97.1293 29.0539 96.5354 28.8331 96.1727 28.6615C95.5008 28.3438 94.5088 27.6513 94.5088 27.5001C94.5088 27.4541 95.3371 27.4165 96.3495 27.4165H98.1902V26.6802V25.9439H94.9821H91.774V25.63V25.316L94.7454 25.2881L97.7169 25.2602V24.5765V23.8928L94.9032 23.8648L92.0895 23.8367V23.5229V23.2091H94.7191H97.3488V22.5254V21.8417H94.7191H92.0895V21.5261V21.2106H94.7191H97.3488V20.5269V19.8432H94.7191H92.0895V19.5293V19.2155L94.9032 19.1874L97.7169 19.1594V18.4757V17.792L95.0347 17.7367C93.5595 17.7063 92.4095 17.6708 92.4791 17.6578C92.6161 17.6324 93.3517 16.7142 93.3517 16.5689C93.3517 16.4808 92.1735 15.8461 92.01 15.8461C91.963 15.8461 91.8358 15.9963 91.7274 16.1798C91.3905 16.7503 90.7931 17.3432 90.354 17.5432C90.0243 17.6934 89.6651 17.7354 88.6945 17.7371L87.4558 17.7395L87.8267 17.1886C88.0308 16.8857 88.1977 16.6024 88.1977 16.5591C88.1977 16.4756 86.9988 15.842 86.8596 15.852C86.8145 15.8552 86.5888 16.1511 86.358 16.5094ZM76.8011 16.1668C76.5207 16.2139 76.2694 16.2742 76.2427 16.3008C76.216 16.3276 76.2905 17.0054 76.408 17.807C76.5256 18.6087 76.6592 19.596 76.7051 20.0009C76.7681 20.5577 76.8265 20.7329 76.9446 20.7197C77.0304 20.7101 77.3308 20.6708 77.6122 20.6326L78.1237 20.563L78.0551 19.5457C78.0175 18.9861 77.9344 17.9722 77.8707 17.2924C77.7402 15.9028 77.8273 15.9947 76.8011 16.1668ZM51.4882 17.1575V18.1533L50.3049 18.183L49.1216 18.2128V22.3676V26.5224L50.3049 26.5521L51.4882 26.5819V27.8407V29.0994H50.2786H49.069V29.8928V30.6861L52.1812 30.6554L55.2934 30.6246L55.5471 30.3294C55.7832 30.0547 55.8008 29.9512 55.8008 28.8306V27.6268H58.483H61.1652V26.8379V26.049H58.483H55.8008V26.7807V27.5124L55.0382 27.5433L54.2756 27.5742L54.2447 28.3368L54.2138 29.0994H53.6399H53.066V27.8494V26.5995L53.746 26.5267C54.5308 26.4426 55.0007 26.1746 55.3218 25.628C55.5282 25.2767 55.5378 25.1015 55.5378 21.7365V18.2128L54.3019 18.1831L53.066 18.1536V17.1576V16.1617H52.2771H51.4882V17.1575ZM68.8437 17.1609V18.1602H67.6341H66.4244V22.3676V26.575H67.6341H68.8437V27.8372V29.0994H67.6341H66.4244V29.8883V30.6772H69.408C72.3069 30.6772 72.3998 30.6708 72.6807 30.4498L72.9699 30.2224L73.3129 30.6309L73.656 31.0395L74.1687 30.6252C74.4507 30.3974 75.2757 29.6305 76.002 28.9211L77.3226 27.6312L77.8954 28.2199C78.6059 28.9501 80.8563 30.9927 80.9504 30.9927C80.9884 30.9927 81.2478 30.7256 81.5269 30.3989L82.0342 29.8051L81.303 29.1653C80.3026 28.2899 78.6276 26.6641 78.5179 26.462C78.4555 26.3471 78.5241 26.1541 78.7423 25.8309C80.2504 23.5974 80.729 22.1185 80.8933 19.1857L80.9684 17.8446H80.129H79.2895L79.2248 19.1962C79.1318 21.141 78.9312 22.001 78.2522 23.3668C77.9358 24.0032 77.6033 24.6185 77.5131 24.7342C77.3519 24.9413 77.3454 24.9398 77.0924 24.6291C76.951 24.4555 76.6206 23.8826 76.3581 23.3558C75.7838 22.2031 75.5249 21.0542 75.4166 19.1756L75.3398 17.8446H74.5485H73.7572L73.8162 19.4487C73.9081 21.9466 74.4622 23.725 75.7176 25.5505C75.9866 25.9415 76.2066 26.3036 76.2066 26.3551C76.2066 26.4067 75.5321 27.099 74.7077 27.8935L73.2089 29.3381L73.1784 28.4253L73.148 27.5126L72.3895 27.5434L71.6311 27.5742L71.6002 28.3368L71.5692 29.0994H70.9954H70.4215V27.8604V26.6216L71.1713 26.5034C72.0074 26.3719 72.3581 26.1633 72.646 25.6265C72.8245 25.2937 72.8407 24.9675 72.8407 21.7119V18.1602H71.6311H70.4215V17.1609V16.1617H69.6326H68.8437V17.1609ZM101.056 23.7613L101.083 30.9401H106.973C113.628 30.9401 113.604 30.9425 114.334 30.2101C115.073 29.4682 115.055 29.6459 115.098 22.762L115.137 16.5824H108.083H101.029L101.056 23.7613ZM56.0112 17.4239V18.1602H58.5385H61.0659L61.0092 18.8176C60.9235 19.8119 60.7445 22.5285 60.7445 22.8343V23.1039H59.4346H58.1247L58.174 22.6042C58.241 21.925 58.4304 19.3217 58.4304 19.0812C58.4304 18.9077 58.3499 18.8905 57.6678 18.9182L56.9052 18.9491L56.7282 21.3683C56.6308 22.6989 56.548 23.9651 56.5441 24.182L56.5371 24.5765H59.64H62.743L62.7423 25.602C62.7412 27.5204 62.478 28.3977 61.7614 28.8721C61.3543 29.1416 61.2746 29.1534 59.6215 29.1891L57.9045 29.2263V29.96V30.6939L59.8241 30.6581C61.5699 30.6255 61.7935 30.5999 62.2935 30.3749C62.9261 30.0901 63.6223 29.386 63.9002 28.7498C64.162 28.1504 64.2977 27.0676 64.3803 24.9183L64.45 23.1039H63.3862C62.6037 23.1039 62.323 23.0691 62.3249 22.9724C62.3262 22.9001 62.4184 21.4951 62.5296 19.8502C62.6407 18.2054 62.7077 16.8209 62.6785 16.7735C62.6493 16.7263 61.1372 16.6876 59.3183 16.6876H56.0112V17.4239ZM113.442 23.4275V28.6949L113.135 29.0023L112.827 29.3098H107.718H102.608V23.735V18.1602H108.025H113.442V23.4275ZM109.761 19.7859V20.5794H106.763H103.765V21.3683V22.1572H106.079C107.383 22.1572 108.393 22.1987 108.393 22.252C108.393 22.3042 108.03 22.6863 107.585 23.1014C106.648 23.9763 105.21 24.9539 104.235 25.3786C103.861 25.5417 103.555 25.7314 103.555 25.8002C103.555 26.0924 104.017 27.1009 104.151 27.1009C104.379 27.1009 105.744 26.4255 106.5 25.9385C107.441 25.3321 108.213 24.6865 109.054 23.8018L109.767 23.0513L109.737 24.6532C109.708 26.2462 109.706 26.2569 109.417 26.5466C109.151 26.8124 109.041 26.8426 108.155 26.8905L107.184 26.9431V27.6794V28.4157L108.341 28.4126C109.614 28.4091 110.06 28.2621 110.616 27.6628C111.245 26.9855 111.281 26.8156 111.32 24.3924L111.356 22.1572H111.873H112.39V21.3683V20.5794H111.869H111.348L111.317 19.8169L111.286 19.0543L110.523 19.0233L109.761 18.9924V19.7859ZM90.5118 19.5276V19.8432H88.4081H86.3044V19.5276V19.212H88.4081H90.5118V19.5276ZM51.4882 22.3676V24.9972H51.0675H50.6467V22.3676V19.738H51.0675H51.4882V22.3676ZM53.883 22.3413L53.8549 24.9446L53.4604 24.9772L53.066 25.0099V22.3739V19.738H53.4885H53.9111L53.883 22.3413ZM68.8437 22.3676V24.9972H68.423H68.0022V22.3676V19.738H68.423H68.8437V22.3676ZM71.2384 22.3413L71.2104 24.9446L70.8159 24.9772L70.4215 25.0099V22.3739V19.738H70.844H71.2666L71.2384 22.3413ZM90.5118 21.5261V21.8417H88.4081H86.3044V21.5261V21.2106H88.4081H90.5118V21.5261ZM90.5118 23.5246V23.8402H88.4081H86.3044V23.5246V23.2091H88.4081H90.5118V23.5246ZM59.193 34.0141L58.8511 34.0564V39.0338V44.0111L59.0878 44.0746C59.3921 44.1561 60.0983 44.1561 60.4026 44.0746L60.6393 44.0111L60.6416 40.263L60.6439 36.5149L60.8533 36.7779C61.2954 37.3333 64.0104 41.4157 64.7802 42.683C65.3282 43.5848 65.6633 44.0326 65.8222 44.0752C66.1243 44.1562 66.8312 44.1558 67.1344 44.0746L67.3711 44.0111V39.0414V34.0717L66.9241 34.0137C66.6783 33.9819 66.2877 33.9881 66.0563 34.0275L65.6356 34.0992L65.6078 37.606L65.5801 41.1129L64.3068 39.182C63.2189 37.5325 61.4192 35.0462 60.7702 34.2964C60.569 34.0638 59.842 33.9337 59.193 34.0141ZM84.3169 34.1044C83.4624 34.3341 82.7981 34.7412 82.1128 35.4549C81.0803 36.5302 80.685 37.5725 80.6937 39.1971C80.7118 42.5891 83.5402 44.8988 86.6767 44.083C87.0215 43.9933 87.6504 43.7329 88.0743 43.5045C88.4982 43.2759 88.8622 43.089 88.8834 43.089C88.9045 43.089 88.9364 43.2865 88.9543 43.5278C88.9818 43.9025 89.0298 43.981 89.2815 44.0645C89.4437 44.1181 89.7395 44.1316 89.9389 44.0941L90.3014 44.0261V41.3487V38.6712H88.0925H85.8836V39.4075V40.1438H87.3036H88.7236V40.411C88.7236 41.005 88.0327 41.8959 87.2636 42.2936C86.7927 42.5371 85.7435 42.6687 85.1035 42.5644C84.3507 42.442 83.7996 42.1482 83.3139 41.6106C82.641 40.8658 82.4651 40.3548 82.4651 39.1445C82.4651 38.2072 82.497 38.0278 82.7575 37.4972C83.1087 36.7821 83.7038 36.2199 84.5036 35.8473C84.9985 35.6168 85.2402 35.5725 85.9888 35.5756C87.0979 35.5802 87.8198 35.8769 88.6642 36.6755L89.2353 37.2158L89.821 36.7831C90.1431 36.5452 90.4066 36.2947 90.4066 36.2264C90.4066 36.0103 89.0066 34.7258 88.5132 34.4894C87.3762 33.9443 85.5388 33.7757 84.3169 34.1044ZM105.553 34.1363C104.668 34.4226 104.097 34.752 103.487 35.3294C102.373 36.3825 101.857 37.5745 101.857 39.092C101.857 40.6191 102.425 41.8954 103.558 42.9147C106.594 45.6436 111.416 43.915 112.095 39.8545C112.515 37.3453 110.817 34.7451 108.337 34.0992C107.516 33.8854 106.278 33.9019 105.553 34.1363ZM51.0158 35.1618C49.7708 37.9513 47.6692 43.8279 47.8515 44.0103C47.942 44.1007 49.4431 44.1173 49.5317 44.0287C49.5645 43.996 49.7616 43.4043 49.9699 42.7139C50.1781 42.0235 50.3823 41.4233 50.4236 41.3801C50.465 41.3369 50.9225 41.2723 51.4405 41.2366C52.4605 41.1662 53.9673 41.3686 54.7475 41.6807C55.1683 41.8491 55.1791 41.867 55.5064 42.9362C55.8735 44.1357 55.8761 44.1381 56.8 44.1378C57.6539 44.1375 57.6617 44.1161 57.279 42.8285C56.6159 40.5981 55.4242 37.4127 54.4053 35.1475L53.9322 34.0957L52.7251 34.0661L51.5181 34.0367L51.0158 35.1618ZM68.8097 34.1121C68.7706 34.1513 68.7385 34.5304 68.7385 34.9547V35.726H70.5792H72.42V39.8685V44.0111L72.6566 44.0746C72.9615 44.1562 73.7718 44.1562 74.0766 44.0746L74.3133 44.0111V39.8685V35.726H76.1059H77.8984L77.8677 34.9109L77.837 34.0957L73.359 34.0682C70.8961 34.0532 68.849 34.073 68.8097 34.1121ZM92.4051 39.0159C92.4051 44.6218 92.328 44.142 93.2289 44.1394C94.257 44.1364 94.1932 44.2703 94.1932 42.1141V40.2172L95.2568 40.282C96.5998 40.3638 97.0667 40.5739 97.7144 41.3882C97.9753 41.7162 98.4376 42.4447 98.7417 43.0071C99.2385 43.9258 99.3304 44.0368 99.6469 44.099C100.003 44.1689 101.213 44.0982 101.31 44.0017C101.338 43.9728 101.047 43.4636 100.662 42.87C99.8612 41.6367 98.8563 40.5362 98.2446 40.2235L97.8258 40.0094L98.5329 39.7803C99.4187 39.4932 99.9467 39.0713 100.33 38.3443C100.605 37.8225 100.626 37.7051 100.588 36.8757C100.522 35.4333 100.023 34.7681 98.6802 34.3293C98.1167 34.1452 97.6665 34.1112 95.2188 34.0682L92.4051 34.0187V39.0159ZM113.588 34.1949C113.556 34.2784 113.549 35.8523 113.573 37.6923C113.608 40.422 113.648 41.1346 113.788 41.5638C114.329 43.2152 115.544 44.0849 117.492 44.2156C119.683 44.3628 121.313 43.4044 121.855 41.6512C122.05 41.0198 122.067 40.6776 122.067 37.4988V34.0346L121.199 34.0652L120.332 34.0957L120.279 37.5668C120.222 41.3504 120.223 41.3401 119.578 41.9527C119.139 42.37 118.584 42.5631 117.823 42.5631C116.844 42.5631 116.157 42.1856 115.716 41.406L115.388 40.8275L115.354 37.4353L115.32 34.0431H114.483C113.85 34.0431 113.632 34.0802 113.588 34.1949ZM124.145 34.1021C124.101 34.1468 124.066 36.3946 124.066 39.0972V44.0111L124.302 44.0746C124.607 44.1561 125.313 44.1561 125.617 44.0746C125.849 44.0124 125.854 43.9802 125.854 42.4456V40.8801H127.321C128.128 40.8801 129.039 40.8269 129.346 40.7619C131.102 40.3892 132.012 39.2222 132 37.3564C131.991 35.8786 131.315 34.8648 130 34.3569C129.428 34.1359 129.168 34.1125 126.8 34.0685C125.383 34.0422 124.188 34.0574 124.145 34.1021ZM53.306 36.7511C53.7709 37.8649 54.5386 39.8739 54.5386 39.977C54.5386 40.0061 54.0771 40.0021 53.513 39.9684C52.9224 39.933 52.158 39.9585 51.7106 40.0285C51.2832 40.0954 50.915 40.1315 50.892 40.1087C50.8219 40.0384 52.3466 36.0335 52.6114 35.5929C52.7117 35.4258 52.8471 35.6516 53.306 36.7511ZM98.0014 35.7303C98.5872 35.893 98.8214 36.2591 98.8214 37.0126C98.8214 37.805 98.6071 38.1818 97.9822 38.4882C97.5659 38.6923 97.3 38.7262 95.8499 38.7599L94.1932 38.7985V37.2097V35.6209L95.9025 35.6215C96.8426 35.6218 97.7871 35.6707 98.0014 35.7303ZM108.473 36.0454C109.202 36.4096 109.788 37.0053 110.113 37.7117C110.432 38.4042 110.429 39.7852 110.108 40.4841C109.77 41.2192 108.977 41.9607 108.229 42.2416C107.412 42.5486 106.267 42.5106 105.528 42.1519C103.567 41.2 102.998 38.7093 104.34 36.9494C104.958 36.1402 105.848 35.7375 107.035 35.7307C107.719 35.7267 107.925 35.7717 108.473 36.0454ZM129.672 35.9783C130.109 36.2744 130.308 36.7389 130.308 37.4616C130.308 38.2591 130.081 38.7085 129.537 38.9857C129.175 39.1706 128.918 39.1971 127.488 39.1971H125.854V37.4528V35.7083L127.616 35.7435C129.136 35.7738 129.418 35.806 129.672 35.9783Z" fill="black"/>
<defs>
<linearGradient id="paint0_linear" x1="19.4111" y1="0.206238" x2="19.4111" y2="50.9988" gradientUnits="userSpaceOnUse">
<stop stop-color="#05A3FF"/>
<stop offset="1" stop-color="#1087FF"/>
</linearGradient>
</defs>
</svg>
