<svg width="44" height="14" viewBox="0 0 44 14" fill="none" xmlns="http://www.w3.org/2000/svg">
<g clip-path="url(#clip0)">
<path d="M11.4035 5.53333C11.4035 5.53333 12.5768 4.54333 14.0068 4.54333V6.45C11.2201 6.41333 11.4035 8.65 11.4035 8.65V13.05H9.68012V4.69H11.4035V5.53333ZM21.5235 4.69H23.2101V9.34666C23.2101 11.4733 21.5235 13.27 19.3968 13.27C17.2701 13.27 15.5835 11.4733 15.5835 9.34666V4.69H17.2701V9.34666C17.2701 10.52 18.2235 11.51 19.3968 11.51C20.5701 11.51 21.5235 10.52 21.5235 9.34666V4.69ZM24.8968 13.05V4.69H26.6201V13.0867H24.8968V13.05ZM4.58346 6.23C3.15346 6.23 1.98012 7.40333 1.98012 8.83333C1.98012 10.2633 3.15346 11.4367 4.58346 11.4367C5.46346 11.4367 6.23346 10.9967 6.74679 10.3L8.10346 11.3267C7.26012 12.4633 5.97679 13.16 4.58346 13.16C2.20012 13.1967 0.293457 11.2533 0.293457 8.83333C0.293457 6.41333 2.23679 4.50666 4.58346 4.50666C5.97679 4.50666 7.33346 5.20333 8.10346 6.34L6.74679 7.36666C6.27012 6.67 5.46346 6.23 4.58346 6.23ZM37.0701 8.06333H42.0568C41.5801 6.01 39.5635 6.08333 39.5635 6.08333C39.5635 6.08333 37.7301 5.93666 37.0701 8.06333ZM39.5268 4.54333C39.5268 4.54333 43.9268 4.39666 43.7068 9.49333H37.0335C37.1801 10.1167 37.4735 10.63 37.9501 11.07C38.4268 11.51 39.0501 11.73 39.7468 11.73C39.7468 11.73 41.1768 11.8033 42.0201 10.5933L43.2668 11.51C42.9368 11.9867 42.3868 12.39 41.6535 12.7567C41.0301 13.05 40.2968 13.2333 39.6001 13.2333C37.2168 13.2333 35.4201 11.29 35.4201 8.90666C35.3835 6.48666 37.2168 4.54333 39.5268 4.54333ZM33.4768 8.83333C33.4768 8.83333 34.3935 9.38333 34.3568 10.6667C34.3568 10.6667 34.4301 12.4633 32.4501 13.05C32.4501 13.05 30.1035 13.82 28.1968 11.9133L29.0768 10.7033C31.0201 12.3167 32.3035 11.4 32.3035 11.4C32.5235 11.2167 32.6335 10.9967 32.6335 10.74C32.6335 10.08 31.7901 9.86 31.7901 9.86C31.5335 9.78666 31.2768 9.67666 30.9468 9.60333C30.9468 9.60333 29.9201 9.34666 29.1501 8.87C28.8935 8.68666 28.6735 8.46666 28.4901 8.17333C28.3068 7.88 28.2335 7.51333 28.2335 7.07333C28.2335 7.07333 28.1601 5.42333 29.7001 4.72666C29.7001 4.72666 31.8635 3.81 33.8801 5.42333L33.0001 6.70666C32.0835 6.01 31.1668 6.04666 31.1668 6.04666C30.7635 6.04666 30.5068 6.12 30.2868 6.30333C30.1035 6.48666 29.9935 6.63333 29.9935 6.85333C29.9935 6.85333 29.9201 7.36666 30.8368 7.73333C31.0935 7.80666 31.3501 7.91666 31.6801 7.99C31.9735 8.06333 32.3035 8.21 32.5968 8.28333C32.9268 8.50333 33.2201 8.68666 33.4768 8.83333ZM25.7401 0.766663C26.4001 0.766663 26.9135 1.28 26.9135 1.97666C26.9135 2.67333 26.4001 3.18666 25.7401 3.18666C25.0801 3.18666 24.5668 2.67333 24.5668 1.97666C24.5668 1.28 25.0801 0.766663 25.7401 0.766663Z" fill="#FF4D37"/>
</g>
<defs>
<clipPath id="clip0">
<rect width="44" height="12.4667" fill="white" transform="translate(0 0.766663)"/>
</clipPath>
</defs>
</svg>
