<svg width="136" height="25" viewBox="0 0 136 25" fill="none" xmlns="http://www.w3.org/2000/svg">
<g clip-path="url(#clip0)">
<path d="M39.0081 17.2862C38.3058 16.9119 37.7159 16.3669 37.2964 15.7046C36.4761 14.3483 36.4761 12.6676 37.2964 11.3113C37.7122 10.6469 38.299 10.0988 38.9991 9.72093C39.7262 9.33369 40.5425 9.13117 41.372 9.13222C42.2011 9.12499 43.0183 9.32469 43.7449 9.71214C44.439 10.0761 45.0205 10.6129 45.4295 11.2674C46.2385 12.6267 46.2385 14.3014 45.4295 15.6607C45.0208 16.3222 44.4398 16.8676 43.7449 17.2422C43.0174 17.6284 42.2014 17.8309 41.372 17.8309C40.5491 17.8474 39.7355 17.6599 39.0081 17.2862ZM42.5675 15.4322C42.9032 15.2342 43.1808 14.9559 43.3736 14.6238C43.7713 13.9081 43.7713 13.0463 43.3736 12.3305C43.1794 11.9989 42.8981 11.723 42.5585 11.531C42.1922 11.339 41.7788 11.2478 41.363 11.2674C40.9567 11.2705 40.558 11.3733 40.2037 11.5661C39.859 11.7587 39.5742 12.038 39.3795 12.3745C39.1794 12.7236 39.0764 13.1173 39.0806 13.5167C39.085 13.9134 39.1909 14.3029 39.3885 14.6502C39.5827 14.9894 39.8674 15.2717 40.2127 15.4674C40.5658 15.6631 40.9654 15.7661 41.372 15.7661C41.7946 15.7639 42.2084 15.6483 42.5675 15.4322Z" fill="#0058BF"/>
<path d="M58.7887 9.51006C59.2557 9.78123 59.6281 10.1822 59.8574 10.6611C60.118 11.2116 60.2451 11.8128 60.2288 12.4184V17.6201H57.6928V12.7347C57.7197 12.3427 57.5899 11.9557 57.3305 11.654C57.0844 11.3895 56.7281 11.2473 56.3614 11.2674C55.976 11.2539 55.6056 11.4126 55.3561 11.6979C55.0794 12.0128 54.9369 12.4181 54.9576 12.8314V17.6289H52.4036V12.7084C52.4277 12.3167 52.2982 11.9306 52.0413 11.6276C51.8111 11.3779 51.4809 11.2369 51.1356 11.241C50.7421 11.2259 50.3626 11.3842 50.1031 11.6716C49.8297 11.9877 49.6904 12.3929 49.7136 12.805V17.6113H47.1415L47.0962 9.51006L49.5687 9.2201V10.1954C49.8523 9.86348 50.208 9.59645 50.6103 9.4134C51.0276 9.22743 51.4825 9.13437 51.9417 9.14102C52.4246 9.13047 52.903 9.23294 53.3364 9.43976C53.736 9.65134 54.0776 9.95262 54.3327 10.3184C54.6418 9.93325 55.0471 9.63086 55.5101 9.43976C56.0024 9.22482 56.5371 9.11686 57.0769 9.12344C57.673 9.10055 58.2644 9.23411 58.7887 9.51006Z" fill="#0058BF"/>
<path d="M73.4334 9.51005C73.9038 9.77314 74.2776 10.1726 74.5021 10.6523C74.7615 11.2032 74.8884 11.8041 74.8734 12.4096V17.6113H72.3375V12.6644C72.359 12.2716 72.2264 11.8854 71.9661 11.5837C71.7325 11.3385 71.4045 11.1985 71.0604 11.1971C70.6724 11.1835 70.2991 11.342 70.0461 11.6276C69.7726 11.9438 69.6334 12.349 69.6566 12.7611V17.5586H67.021V12.6732C67.0468 12.2828 66.9207 11.8972 66.6678 11.5925C66.44 11.3385 66.1091 11.194 65.7621 11.1971C65.3717 11.1847 64.9962 11.3427 64.7387 11.6276C64.463 11.9465 64.3208 12.3541 64.3402 12.7699V17.5673H61.7861V9.44854L64.2587 9.1498V10.1339C64.5395 9.79706 64.8957 9.52663 65.3002 9.3431C65.7221 9.16127 66.179 9.06842 66.6407 9.07072C67.1219 9.05777 67.5987 9.16359 68.0264 9.37825C68.4292 9.58541 68.7718 9.88757 69.0226 10.2569C69.3363 9.87621 69.7403 9.57475 70.2 9.37825C70.6975 9.17028 71.2343 9.06553 71.7759 9.07072C72.3594 9.0677 72.9326 9.21963 73.4334 9.51005Z" fill="#0058BF"/>
<path d="M78.2789 17.1983C77.583 16.8383 76.996 16.3083 76.5762 15.6607C76.1528 15.0023 75.9328 14.24 75.9422 13.464C75.934 12.6839 76.1504 11.9171 76.5671 11.2498C76.9771 10.5839 77.5614 10.0352 78.2608 9.65942C79.7406 8.87974 81.5267 8.87974 83.0066 9.65942C83.7057 10.0308 84.2927 10.573 84.7093 11.2322C85.12 11.9047 85.333 12.6736 85.3252 13.4552C85.3405 14.2311 85.1302 14.9954 84.7184 15.6607C84.3055 16.322 83.7217 16.8672 83.0247 17.2422C82.298 17.6306 81.4814 17.8331 80.6518 17.8309C79.8178 17.8221 79.0004 17.6041 78.2789 17.1983ZM81.802 15.3443C82.1403 15.1466 82.4208 14.8684 82.6171 14.536C82.8196 14.1845 82.9227 13.7875 82.916 13.3849C82.9139 12.9851 82.808 12.5923 82.6081 12.2427C82.4167 11.9089 82.1348 11.6324 81.793 11.4431C81.4322 11.2431 81.0219 11.1428 80.6065 11.1531C80.1969 11.152 79.794 11.255 79.4382 11.4519C79.0959 11.6447 78.8142 11.9241 78.623 12.2602C78.4241 12.6066 78.3211 12.9972 78.3242 13.3937C78.3208 13.7931 78.4237 14.1865 78.623 14.536C78.82 14.8732 79.104 15.1548 79.4472 15.3531C79.8021 15.5513 80.2062 15.6516 80.6156 15.6431C81.0325 15.6565 81.4445 15.5527 81.802 15.3443Z" fill="#0058BF"/>
<path d="M93.2864 9.43975C93.7724 9.71464 94.1585 10.1291 94.3913 10.6259C94.6645 11.1917 94.7978 11.8115 94.7808 12.436V17.5058H92.2086V12.7523C92.2353 12.3219 92.0855 11.8987 91.792 11.5749C91.5026 11.2876 91.1005 11.1342 90.687 11.1531C90.2437 11.1366 89.8146 11.3063 89.5096 11.6188C89.2014 11.9572 89.0392 12.3977 89.0568 12.8489V17.5146H86.4937V9.38703L88.9662 9.08829V10.0724C89.2814 9.73602 89.6675 9.46933 90.0983 9.29038C90.5601 9.10409 91.0564 9.01139 91.5565 9.018C92.1629 8.99456 92.7634 9.14097 93.2864 9.43975Z" fill="#0058BF"/>
<path d="M103.439 9.57155C104.096 9.94381 104.638 10.4811 105.006 11.1268C105.396 11.7932 105.596 12.5483 105.586 13.3146C105.606 14.9172 104.705 16.3974 103.249 17.1544C102.502 17.5395 101.668 17.7359 100.822 17.7255C99.9864 17.7418 99.1603 17.5513 98.4218 17.1719C97.7199 16.8066 97.1366 16.259 96.7372 15.5904C96.3256 14.8894 96.1131 14.095 96.1213 13.2883V4.87073L98.7207 4.33475V9.94937C99.0541 9.65008 99.4408 9.41192 99.8618 9.24645C100.31 9.08167 100.786 8.99828 101.266 9.00042C102.031 8.99131 102.783 9.18908 103.439 9.57155ZM102.054 15.3092C102.396 15.1164 102.678 14.837 102.869 14.5008C103.069 14.1454 103.172 13.7461 103.168 13.341C103.174 12.9412 103.071 12.547 102.869 12.1987C102.677 11.865 102.395 11.5885 102.054 11.3992C101.327 11.0065 100.443 11.0065 99.7169 11.3992C99.3681 11.5865 99.0821 11.8671 98.8927 12.2075C98.4884 12.9248 98.4884 13.7924 98.8927 14.5096C99.0872 14.8388 99.3686 15.1117 99.7079 15.3004C100.057 15.4955 100.455 15.5956 100.858 15.5904C101.275 15.6011 101.688 15.504 102.054 15.3092Z" fill="#0058BF"/>
<path d="M108.883 17.128C108.178 16.7571 107.587 16.2114 107.171 15.5464C106.339 14.1932 106.339 12.5063 107.171 11.1531C107.577 10.4705 108.161 9.90375 108.865 9.51005C109.588 9.12282 110.402 8.92026 111.228 8.92135C112.058 8.91173 112.876 9.11158 113.601 9.50127C114.305 9.87097 114.893 10.4172 115.304 11.0829C116.113 12.4421 116.113 14.1169 115.304 15.4761C114.899 16.1434 114.313 16.6903 113.61 17.0577C112.887 17.445 112.073 17.6475 111.247 17.6464C110.426 17.6722 109.612 17.4938 108.883 17.128ZM112.397 15.2741C112.737 15.0789 113.018 14.8 113.212 14.4657C113.619 13.743 113.619 12.8687 113.212 12.146C113.012 11.8158 112.728 11.5405 112.388 11.3464C112.038 11.1514 111.641 11.0512 111.237 11.0565C110.831 11.0585 110.432 11.1613 110.078 11.3552C109.731 11.5453 109.446 11.8252 109.254 12.1636C109.055 12.513 108.952 12.9065 108.955 13.3059C108.95 13.7037 109.057 14.0954 109.263 14.4393C109.457 14.7785 109.742 15.0608 110.087 15.2565C110.44 15.4534 110.84 15.5564 111.247 15.5552C111.649 15.5628 112.046 15.4657 112.397 15.2741Z" fill="#0058BF"/>
<path d="M123.808 9.36945C124.289 9.65038 124.674 10.0631 124.913 10.5556C125.181 11.123 125.315 11.7416 125.303 12.3657V17.418H122.74V12.6556C122.764 12.227 122.618 11.8057 122.332 11.4782C122.039 11.1915 121.634 11.0383 121.218 11.0565C120.775 11.0422 120.347 11.2115 120.041 11.5222C119.736 11.8619 119.577 12.3022 119.597 12.7523V17.418H117.052V9.29037L119.551 9.03556V10.0109C119.865 9.67261 120.252 9.40559 120.684 9.22887C121.142 9.04256 121.636 8.94984 122.133 8.95648C122.719 8.94752 123.297 9.09005 123.808 9.36945Z" fill="#0058BF"/>
<path d="M130.728 8.93012C131.672 8.9164 132.585 9.25268 133.282 9.87029V4.25566L135.854 4.56319V13.1916C135.87 14.0008 135.66 14.7992 135.248 15.5025C134.858 16.1748 134.28 16.7263 133.581 17.0929C132.068 17.8541 130.267 17.8541 128.754 17.0929C127.303 16.3409 126.405 14.8666 126.426 13.2707C126.417 12.5056 126.613 11.7515 126.997 11.0828C127.361 10.4326 127.899 9.88939 128.555 9.51004C129.213 9.13272 129.963 8.93254 130.728 8.93012ZM131.154 15.5288C131.972 15.55 132.735 15.1308 133.137 14.4393C133.34 14.0879 133.443 13.6908 133.436 13.2883C133.44 12.8889 133.337 12.4953 133.137 12.146C132.942 11.807 132.654 11.5272 132.304 11.3376C131.945 11.1412 131.539 11.0411 131.127 11.0477C130.723 11.0455 130.325 11.1487 129.976 11.3464C129.635 11.5358 129.353 11.8123 129.161 12.146C128.96 12.4947 128.857 12.8887 128.862 13.2883C128.855 13.6948 128.961 14.0958 129.17 14.4481C129.363 14.7865 129.648 15.0664 129.995 15.2565C130.349 15.4466 130.749 15.5406 131.154 15.5288Z" fill="#0058BF"/>
<path d="M31.1018 17.2862C30.4041 16.92 29.8195 16.3802 29.4082 15.7222C28.9985 15.0556 28.7854 14.2927 28.7923 13.5167C28.777 12.7409 28.9873 11.9765 29.3991 11.3113C29.8039 10.649 30.386 10.1055 31.0837 9.7385C31.8054 9.35592 32.6161 9.15928 33.4385 9.16737C34.36 9.18606 35.2636 9.41802 36.0741 9.84394L35.3223 11.7331C34.7951 11.4395 34.2002 11.2793 33.5925 11.2674C33.1645 11.2573 32.7418 11.3606 32.3698 11.5661C32.0224 11.7593 31.7371 12.0422 31.5456 12.3833C31.1476 13.0865 31.1476 13.9382 31.5456 14.6414C31.7445 14.9808 32.036 15.2604 32.3879 15.4498C32.7653 15.6502 33.1894 15.753 33.6196 15.7485C34.2571 15.7234 34.8787 15.5485 35.431 15.2389L36.228 17.1017C35.3668 17.5496 34.4143 17.8077 33.4385 17.8573C32.6207 17.8752 31.8132 17.6778 31.1018 17.2862Z" fill="#0058BF"/>
<path d="M5.08094 5.51216C1.26797 5.51216 0 6.74228 0 10.4414V14.6678V23.8322H10.2706C14.0745 23.8322 15.3425 22.6021 15.3425 18.9029V14.6678V5.51216H5.08094Z" fill="#F8AE9E"/>
<path d="M11.774 0.723465C7.97012 0.723465 6.70215 1.95359 6.70215 5.65274V9.87908V19.0347H16.9727C20.7766 19.0347 22.0446 17.8046 22.0446 14.1054V9.87908V0.723465H11.774Z" fill="#0058BF"/>
</g>
<defs>
<clipPath id="clip0">
<rect width="136" height="23.5531" fill="white" transform="translate(0 0.723465)"/>
</clipPath>
</defs>
</svg>
