<svg width="41" height="43" viewBox="0 0 41 43" fill="none" xmlns="http://www.w3.org/2000/svg">
<g clip-path="url(#clip0)">
<path d="M29.8532 30.1391V37.1153L27.8884 38.2496V30.1391L24.6844 28.289L20.9893 30.4227L20.4983 30.7066L20.0068 30.4227L16.3117 28.289L13.1076 30.1391V38.2496L11.1429 37.1153V30.1391L8.92129 28.8562V35.8325L6.95681 34.6983V27.1579V25.4595L8.43032 26.3101L12.1253 28.4438L15.3297 26.5937V23.306H12.1253V21.3415H16.3117H17.2942V22.3238V26.5937L20.4983 28.4438L24.1934 26.3101L24.6844 26.0264L25.1756 26.3101L28.8707 28.4438L32.5663 26.3101L34.0393 25.4595V27.1579V34.6983L32.0748 35.8325V28.8562L29.8532 30.1391ZM28.8707 23.306H23.7021V21.3415H28.8707V23.306ZM34.0393 16.1727V20.3593H6.95681V16.1727H3.7527H3.19025L2.90492 15.6777L0.488721 11.4905L0 10.6436L0.845234 10.1557L15.8207 1.50965L17.2942 0.659039V2.35738V6.23269L20.4983 8.08305L23.7021 6.23269V2.35572V0.657593L25.1756 1.50792L40.1531 10.1557L41 10.6448L40.5093 11.4945L38.0911 15.6817L37.8075 16.1727H37.2434H34.0393ZM8.92129 16.1727V18.3945H32.0748V16.1727H8.92129ZM15.3297 4.05581L2.67271 11.3629L4.31458 14.2082H36.6792L38.3233 11.362L25.6666 4.05436V6.79686V7.36131L25.1756 7.64465L20.9893 10.0617L20.4983 10.3456L20.0068 10.0617L15.8207 7.64465L15.3297 7.36131V6.79686V4.05581ZM21.4806 36.96V41.9494L20.4983 42.5164L19.5158 41.9494V36.96H21.4806ZM15.3297 39.5327V32.2767H25.6666V39.5327L23.7021 40.6666V34.2412H17.2942V40.6666L15.3297 39.5327Z" fill="#006DB8"/>
</g>
<defs>
<clipPath id="clip0">
<rect width="41" height="41.8588" fill="white" transform="translate(0 0.657592)"/>
</clipPath>
</defs>
</svg>
