<svg fill="none" height="18" viewBox="0 0 112 18" width="112" xmlns="http://www.w3.org/2000/svg" xmlns:xlink="http://www.w3.org/1999/xlink"><radialGradient id="a" cx="0" cy="0" gradientTransform="matrix(63.7605 0 0 10.1912 22.9829 6.54891)" gradientUnits="userSpaceOnUse" r="1"><stop offset="0" stop-color="#00dcf0"/><stop offset=".073" stop-color="#07c8e2"/><stop offset=".315" stop-color="#1b8db9"/><stop offset=".537" stop-color="#2b5e99"/><stop offset=".732" stop-color="#363c81"/><stop offset=".893" stop-color="#3d2773"/><stop offset="1" stop-color="#40206e"/></radialGradient><clipPath id="b"><path d="m0 0h112v17.6378h-112z"/></clipPath><g clip-path="url(#b)"><path d="m22.9468 6.41839c-.7391 1.16763-1.8758 2.87496-1.8758 3.79481v7.13h3.7515v-7.1309c0-.90836-1.1676-2.68978-1.8757-3.79479zm1.8757-3.79212v-2.335246h-3.7515v2.336126c0 .91628 1.1367 2.62274 1.8758 3.79477.7081-1.10853 1.8757-2.89083 1.8757-3.79477zm10.3005 15.01153c3.2868 0 5.2376-1.1676 6.9916-3.0434l-2.3872-2.4111c-1.3405 1.2188-2.5328 1.9975-4.4836 1.9975-2.9217 0-4.9474-2.4376-4.9474-5.36014v-.05115c0-2.9217 2.0725-5.3125 4.9474-5.3125 1.7074 0 3.0443.73197 4.3619 1.92252l2.3872-2.75238c-1.5856-1.55389-3.5081-2.62715-6.7261-2.62715-5.2376 0-8.8895 3.97203-8.8895 8.81713v.04674c0 4.90063 3.7278 8.77393 8.7457 8.77393zm32.8954 0c5.2622 0 9.0887-3.972 9.0887-8.81714v-.05115c0-4.84863-3.7753-8.76951-9.0376-8.76951-5.2613 0-9.0878 3.97203-9.0878 8.81713v.04674c0 4.85303 3.7745 8.77393 9.0367 8.77393zm.0511-3.4605c-3.0204 0-5.1634-2.4385-5.1634-5.36017v-.04762c0-2.9217 2.0962-5.3125 5.1167-5.3125 3.0196 0 5.1635 2.43754 5.1635 5.36012v.04674c0 2.92613-2.0963 5.31343-5.1168 5.31343zm10.7485 3.1695h8.1125c3.8503 0 6.3823-1.5574 6.3823-4.6758v-.0476c0-2.2885-1.2188-3.43323-3.189-4.19165 1.2188-.68082 2.2418-1.75496 2.2418-3.67748v-.04674c0-1.16851-.3898-2.12007-1.1685-2.89877-.9754-.975374-2.509-1.508917-4.4588-1.508917h-7.9168v17.046957zm-20.5172 0h-4.3847l-3.6537-5.4589h-.2204c-.4391 0-.8601-.1744-1.1705-.4849-.3105-.3104-.4849-.7314-.4849-1.1704 0-.43905.1744-.86008.4849-1.17051.3104-.31043.7314-.48483 1.1705-.48483h1.0741c1.829 0 2.875-.97537 2.875-2.41109v-.04586c0-1.60856-1.1209-2.43401-2.95-2.43401h-3.7277v13.6649h-3.7516v-17.060176h7.7942c2.1668 0 3.8503.609385 4.9712 1.730266.9515.95244 1.4622 2.2885 1.4622 3.89795v.04674c0 2.75238-1.486 4.48262-3.6528 5.28512zm31.2842-5.1908v.0467c0 1.2664-.9992 1.852-2.6545 1.852h-4.4597v-10.47158h3.7048c1.5848 0 2.4614.63319 2.4614 1.75496v.04674c0 1.26639-1.0459 1.80082-2.7057 1.80082h-.8289c-.8616 0-1.5575.69669-1.5575 1.55741 0 .86161.6959 1.55745 1.5566 1.55745h1.7073c1.9225.0035 2.7762.7117 2.7762 1.8563zm21.889 5.1908h-3.92l-1.558-3.8265h-3.677c-.44 0-.861-.1745-1.171-.485-.311-.3105-.485-.7317-.485-1.1708s.174-.8603.485-1.1708c.31-.3105.731-.4849 1.171-.4849h2.34l-2.265-5.52949-5.1639 12.66749h-3.8265l7.3064-17.17395h3.461zm-103.78921-5.3284c.19581.2829.45728.514.76201.6737s.64363.2431.98766.2431c.34402 0 .68294-.0834.98764-.2431s.5662-.3908.762-.6737l4.0585-5.80901v11.13381h3.7286v-17.052176h-4.0435l-5.44209 8.168066-5.44303-8.168066h-4.04258v17.052176h3.67748v-11.06238l4.00643 5.73758z" fill="url(#a)"/></g></svg>