<svg fill="none" height="75" viewBox="0 0 65 75" width="65" xmlns="http://www.w3.org/2000/svg"><g fill="#fff"><path d="m19.9348-.00036621h-19.9348v47.69826621z"/><path d="m53.895.00000982h-19.9234l19.9234 47.69829018z"/><g clip-rule="evenodd" fill-rule="evenodd"><path d="m60.546 6.1308h-.7573v-4.20736c.0541-.00772.1083-.01589.1633-.02417.3019-.04546.6279-.09455 1.0984-.09455.6731 0 1.0929.1369 1.3621.34005.2351.1847.3696.4676.3696.87389 0 .53852-.3535.88974-.8053 1.00846v.03195c.3673.06858.6022.40395.6869 1.02898.1005.65698.1847.90584.2532 1.04275h-.7736c-.1005-.13691-.187-.52242-.2714-1.0747-.0821-.50865-.3674-.70946-.89-.70946h-.4359zm.0002-2.37281h.4518c.5569 0 1.0131-.1847 1.0131-.67309 0-.36732-.2694-.70737-.9768-.70737-.2213 0-.372 0-.4883.01611z"/><path d="m61.2513.157471c2.0831 0 3.7488 1.683879 3.7488 3.769369 0 2.11979-1.6657 3.80133-3.7647 3.80133-2.1016 0-3.8013-1.68154-3.8013-3.80133 0-2.08549 1.6997-3.769369 3.8013-3.769369zm-.0159.638793c-1.6657 0-3.0119 1.396306-3.0119 3.146426s1.3462 3.14643 3.0278 3.14643c1.6654.01818 2.9957-1.39631 2.9957-3.14643s-1.3303-3.146426-2.9957-3.146426z"/><path d="m4.30069 70.0701-.82141 4.1549h-3.034464l3.785214-17.2859h3.71898l3.43839 17.2859h-3.05028l-.80323-4.1549zm2.93861-2.4396-.63204-3.7439c-.11761-.704-.25656-1.6664-.38771-2.5749-.06988-.484-.13756-.9528-.19861-1.3589h-.06858c-.04467.2847-.09363.6019-.14487.934-.16058 1.0407-.34362 2.227-.48717 3.0089l-.6801 3.7348z"/><path d="m21.4086 70.6403v-14.16h-3.1139v6.3134h-.0525c-.3538-.7692-1.0565-1.301-2.1427-1.301-2.0764 0-3.9813 2.1268-3.9813 6.5004 0 3.5894 1.2776 6.4321 3.8535 6.4321 1.1753 0 2.1585-.7549 2.6103-1.6428h.0639l.1756 1.44h2.69c-.0457-1.0792-.1029-2.4599-.1029-3.5821zm-3.1602-4.8831c.0457.2466.0457.516.0457.7464v3.3059c0 .3172-.0366.5887-.1073.7916-.2899 1.0178-.8237 1.2552-1.2869 1.2552-1.0131 0-1.6701-1.3805-1.6701-3.8057 0-2.1107.4608-3.9154 1.7135-3.9154.7302 0 1.1843.7687 1.3051 1.622z"/><path d="m27.836 74.4255c-2.8703 0-4.6705-2.3045-4.6705-6.4295 0-4.5019 2.3112-6.503 4.7435-6.503 2.8316 0 4.6067 2.4167 4.6067 6.43 0 5.1566-2.7812 6.5025-4.6545 6.5025zm.0593-2.3889c1.1887 0 1.483-2.2406 1.483-4.0957 0-1.7636-.2943-4.0616-1.5353-4.0616-1.3144 0-1.5906 2.298-1.5906 4.0616 0 2.1289.3468 4.0957 1.6153 4.0957z"/><path d="m37.3709 56.4803h-3.1145v14.16c0 1.1222-.0589 2.544-.1047 3.5821h2.6742l.1733-1.499h.0657c.6525 1.2202 1.3758 1.7018 2.4619 1.7018 2.2795 0 4.0388-2.3611 4.0388-6.7718 0-3.4909-1.1797-6.1607-3.5276-6.1607-1.1864 0-2.0034.55-2.617 1.513h-.0501zm.1237 14.0706c-.0663-.1959-.1234-.4881-.1234-.8006v-3.4979c0-.2328.0569-.5702.1163-.7869.1712-.6889.6687-1.3303 1.2594-1.3303 1.1911 0 1.7047 1.5306 1.7047 3.753 0 2.4414-.486 3.9681-1.6909 3.9681-.4242 0-.9536-.2577-1.2661-1.3054z"/><path d="m47.8896 68.9681c.0366 2.2655 1.2277 3.0028 2.7061 3.0028.9375 0 1.7407-.2081 2.3341-.4313l.4198 2.2406c-.8261.3556-2.1016.5793-3.3247.5793-3.3425 0-5.168-2.2842-5.168-6.1855 0-4.1869 2.1175-6.7015 4.8828-6.7015 2.6718 0 4.1525 2.2224 4.1525 5.8502 0 .8305-.0343 1.2983-.0891 1.6631zm3.1396-2.2021c.0161-1.759-.4998-2.9916-1.4877-2.9916-1.1272 0-1.6065 1.6501-1.6405 2.9916z"/></g><path d="m26.9556 17.5755-8.7138 20.5261h9.2931l3.7969 9.5941h8.3165z"/></g></svg>