<svg fill="none" height="72" viewBox="0 0 161 72" width="161" xmlns="http://www.w3.org/2000/svg"><g fill="#fff"><path clip-rule="evenodd" d="m51.0707 45.0046c10.2134-.3833 16.7678-3.1499 23.6199-6.6821.0423 0-18.9378 5.4054-25.9609 1.4476h.0432c-.3833-.0854-.9366-.3832-1.3622-.7243-3.8732-3.7022 1.0644-8.0433 6.7667-10.5534v-7.15c.0003.0002-.0003-.0001 0 0v7.15c-5.7023 2.5101-10.6399 6.8512-6.7667 10.5534.4256.3411.9789.6389 1.3622.7243-.7666-.4255-1.5746-.9798-1.7869-2.5542-.0423-3.2767 5.4468-6.6821 8.5544-7.7456v-5.5322c6.3411 2.2123 13.7888 1.5312 20.1299-3.1499.2978.511.4678 1.3189.3401 2h1.1066c.2978-2.2133-1.2767-4.3401-3.66-4.5111.2115.1986.4065.3725.584.5306.3933.3506.6998.6238.905.9171 0 .0598-.0625.0989-.1145.1314-.0224.014-.0428.0268-.0555.0396-7.9731 5.5605-15.5923 3.3041-16.8581 2.9292-.0517-.0153-.0928-.0275-.1229-.0358l4.512-4.4689-1.1921-3.2335c9.0654-3.1489 16.7255-5.53221 29.1521-7.70321l-2.7666-2.29783 1.4054-.89339c7.5621 2.12454 12.4542 3.65535 12.1732 7.55763-.139.6828-.39 1.4367-.768 2.2725-1.9482 3.8557-7.3535 10.0071-10.3198 13.3827-.3401.387-.6481.7376-.9152 1.044-1.7445 2-3.4477 3.9577-4.6821 5.7877-1.2335 1.83-2.0423 3.5755-2.0846 5.1922.2133 12.9791 38.5987-6.0433 45.9197-11.0222-10.895 4.6811-22.769 9.1932-35.7495 10.0424-3.5745.1287-3.2354-1.7003-1.1066-4.5524 1.2234-1.6381 2.7232-3.4383 4.2894-5.3183 4.7007-5.6422 9.9997-12.0028 10.2237-16.8549.551-8.38435-8.002-11.150004-16.811-11.065456-6.0855.043214-12.5131 1.829996-16.7686 3.319916-14.9369 5.23446-24.301 13.61884-30.1733 22.85334-6.2556 9.1499-4.2133 17.9166 8.9376 18.1731zm50.0343-33.3865c.227-1.2324.082-2.22937-.349-3.05665.419.82565.559 1.82135.349 3.05665zm-15.4704-6.82525 1.8228 1.69639c-10.3412 1.7445-15.4911 3.44674-28.2588 7.87326l1.4477 3.66-4.3406 4.3406c-.0001-.0002.0001.0002 0 0l4.3406-4.3406-1.4477-3.66c12.7677-4.42558 17.9175-6.1278 28.3009-7.87324z" fill-rule="evenodd"/><path d="m30.9408 53.8145v3.319h4.8521v-3.319z"/><path d="m31.154 58.9644v11.8292h4.5111v-11.8292z"/><path clip-rule="evenodd" d="m138.911 64.709c0 3.5322-2.851 6.3833-6.341 6.3833-.838.0012-1.669-.1632-2.444-.4836s-1.479-.7905-2.072-1.3835-1.063-1.2971-1.383-2.0721c-.321-.775-.485-1.6055-.484-2.4441 0-3.49 2.851-6.3411 6.383-6.3411 3.49 0 6.341 2.8511 6.341 6.3411zm-2 0c0-2.3833-1.957-4.3411-4.341-4.3411-.57-.0011-1.135.1104-1.662.3282-.527.2177-1.006.5375-1.41.9408-.403.4033-.723.8823-.941 1.4095-.217.5272-.329 1.0922-.328 1.6626-.005.5714.104 1.138.321 1.6668.216.5289.536 1.0093.94 1.4134.404.404.885.7236 1.413.9401.529.2165 1.096.3255 1.667.3207.571.0011 1.136-.1104 1.663-.3281.527-.2178 1.006-.5375 1.409-.9408.404-.4034.723-.8824.941-1.4096.218-.5271.329-1.0921.328-1.6625z" fill-rule="evenodd"/><path d="m111.377 70.7936h-2v-1.829h2z"/><path d="m124.461 69.3577c.038-.0333.074-.0649.108-.0944l-.018-.0335c-.215-.3843-.545-.9768-.833-2.0107-.978 1.2767-2.255 1.8732-3.574 1.8732-2.384 0-4.341-2-4.341-4.3833 0-2.3411 1.957-4.3411 4.341-4.3411.893 0 2.341.2546 3.532 1.8713.024-.0667.052-.1455.083-.2332.185-.5269.482-1.3717.81-1.8091l-.024-.0211c-.651-.5631-2.09-1.8079-4.401-1.8079-3.235 0-6.342 2.5543-6.342 6.3411 0 3.8291 3.107 6.3833 6.342 6.3833 2.336 0 3.642-1.1438 4.317-1.7346z"/><path d="m141.762 58.9644v11.8292h2.001v-6.126c0-1.1066.127-1.9154.341-2.512.213-.5524.552-.9779 1.022-1.2766.51-.2969 1.02-.4679 1.572-.4679.725 0 1.278.2555 1.619.6811.297.4256.468 1.1066.468 2v7.7023h2v-6.8934c0-1.1912.297-2.0846.851-2.6389.554-.5542 1.235-.8511 2.042-.8511.435-.0046.863.1136 1.235.341.317.1978.557.4981.681.8511.128.3392.213.9357.213 1.7446v7.4458h2v-8.1279c0-1.3612-.339-2.3391-.978-3.0202-.597-.6388-1.532-.9798-2.681-.9798-1.489 0-2.724.7233-3.66 2.0864-.213-.6388-.639-1.1508-1.193-1.5322-.553-.341-1.276-.5542-2.127-.5542-.746-.0045-1.48.1866-2.129.5542-.603.3395-1.115.8213-1.49 1.4035v-1.659z"/><path d="m157.041 54.1114v2.2564h.339v-2.2564h.852v-.2969h-2.042v.2969z"/><path d="m158.531 53.8136v2.5542h.341v-2.171l.724 2.171h.34l.723-2.1287v2.1287h.341v-2.5542h-.468l-.596 1.7867c-.085.171-.129.341-.129.4256-.042-.0846-.085-.2123-.127-.3833l-.639-1.829z"/><g clip-rule="evenodd" fill-rule="evenodd"><path d="m98.7783 70.5381c.9351-.3389 1.6597-.8504 2.1277-1.4868v.2111c.005.2709.033.5408.085.8069.045.248.116.4905.213.7234h4.214c-.086-.2114-.129-.4669-.171-.7234-.044-.2123-.044-.51-.044-.8509v-6.0003c0-1.5745-.552-2.6811-1.617-3.4477-1.02-.7233-2.681-1.1066-4.8932-1.1066-.2132 0-.3833 0-.5542.0423-2.0414.0422-3.6159.341-4.6802.8934-1.1489.6388-1.831 1.5763-1.9578 2.853h4.5543c.0846-.4697.3401-.8511.7234-1.0644.3391-.17.7647-.2987 1.3612-.341h.4678c.7253 0 1.2777.171 1.6607.5101.384.341.553.8089.553 1.4477v.3419h-2.6805c-1.6168 0-2.8098.0846-3.5745.1691-.8512.1287-1.5322.342-2.0001.6388-.5965.3833-1.0643.8511-1.3631 1.4054-.2968.5524-.4678 1.1912-.4678 1.9155 0 1.1489.3833 2.0423 1.2344 2.6388.8088.6369 1.9578.9357 3.4477.9357 1.0202 0 1.9136-.0836 2.7224-.2988.2191-.051.433-.1224.6388-.2132zm1.2357-2.7657c-.4682.4265-1.107.6388-1.8735.7234l-.4265-.0009c-.7647 0-1.319-.1278-1.7023-.3392-.3814-.2132-.5523-.5543-.5523-.9798 0-.5956.34-1.0221 1.0643-1.2767.5243-.1666 1.0675-.2663 1.6168-.2968.6378-.0846 1.4053-.0846 2.2985-.0846h.382v.2546c0 .8934-.297 1.5745-.807 2z"/><path d="m83.074 58.6647c-.6379 0-1.2767.0423-1.829.2133-.333.0413-.6239.1649-.9172.2897l-.0213.009c-.8493.2988-1.6168.8089-2.2978 1.4899v-6.8512h-4.5112v14.3009c0 .3814 0 .8069-.0413 1.2748-.0423.4255-.0855.8933-.1278 1.4034h4.5544c.0422-.2968.0845-.6369.0845-.9356.0423-.2969.0423-.5947.0423-.9357v-.3391c.6388.807 1.3621 1.4035 2.2555 1.829.3079.1709.6375.2992.9799.3814.5946.172 1.2325.2565 1.9154.2565 1.8714 0 3.3613-.5542 4.4257-1.6609 1.022-1.1066 1.5744-2.6388 1.5744-4.5966 0-1.9136-.5524-3.4035-1.6609-4.4679-1.0625-1.1066-2.5524-1.6609-4.4256-1.6609zm.5552 3.3199c.5965.6389.8934 1.49.8934 2.5543 0 1.1903-.2978 2.1278-.8934 2.8089-.5543.6388-1.3612.9779-2.3833.9779h-.0423c-1.0221 0-1.7896-.2968-2.3842-.9356-.5533-.6388-.8512-1.5322-.8512-2.6811 0-1.1922.2979-2.1278.8512-2.7244.5533-.6388 1.3621-.9356 2.4265-.9356h.0423c.9798 0 1.7445.2968 2.341.9356z"/><path d="m63.9662 70.5381c.9779-.3391 1.6599-.8511 2.17-1.4881l.001.2124c0 .2922.0419.5444.0835.795l.002.0119c.0422.2574.0854.512.2123.7234h4.2133c-.0855-.2114-.171-.4669-.2133-.7234 0-.0936-.0082-.2039-.0174-.3272-.0116-.1562-.0248-.3333-.0248-.5239v-6.0001c0-1.5745-.5111-2.6811-1.5755-3.4477-1.0643-.7233-2.6811-1.1066-4.9366-1.1066-.171 0-.3401 0-.5533.0423-2.0433.0422-3.5755.341-4.6389.8934-1.1912.6388-1.8291 1.5763-2 2.853h4.5966c.0854-.4697.2987-.8511.7243-1.0644.2977-.17.7656-.2987 1.3189-.341h.5111c.7224 0 1.2757.171 1.659.5101.34.341.5533.8089.5533 1.4477v.1709c-.0432.0423-.0432.1269-.0432.171h-2.6811c-1.5755 0-2.7666.0846-3.5755.1691-.8511.1287-1.489.342-1.9577.6388-.5956.3833-1.0635.8511-1.3613 1.4054-.341.5524-.511 1.1912-.511 1.9155 0 1.1489.4256 2.0423 1.2344 2.6388.8088.6369 2 .9357 3.49.9357.9788 0 1.9154-.0836 2.6811-.2988.2226-.0379.438-.1098.6388-.2132zm1.2353-2.7657c-.4265.4265-1.0653.6388-1.8732.7234l-.4256-.0009c-.7656 0-1.3189-.1278-1.7022-.3392-.3401-.2132-.5533-.5543-.5533-.9798 0-.5956.3833-1.0221 1.1066-1.2767.5097-.1672 1.039-.267 1.5745-.2968.6388-.0846 1.4467-.0846 2.341-.0846h.3401v.2546c0 .8934-.2555 1.5745-.8079 2z"/><path d="m48.3041 58.6647c-.6801 0-1.2766.0423-1.8722.2133-.2978.0422-.6379.171-.9357.2987-.8088.2988-1.5745.8089-2.2556 1.4899v-6.8512h-4.5111v14.3009c0 .3397-.0342.7145-.0716 1.123-.0046.0501-.0092.1007-.0138.1518-.0039.4705-.0466.9399-.1278 1.4034h4.5534c.0237-.1629.0471-.3388.0704-.5137.0192-.1439.0383-.2871.0573-.4219 0-.1433.0099-.2868.0201-.4353.0109-.1591.0222-.324.0222-.5004v-.3391c.5956.807 1.3612 1.4035 2.2133 1.829.3139.1569.6416.2846.9789.3814.6378.172 1.2766.2565 1.9577.2565 1.8732 0 3.3199-.5542 4.3834-1.6609 1.0643-1.1066 1.5754-2.6388 1.5754-4.5966 0-1.9136-.5543-3.4035-1.6177-4.4679-1.1067-1.1066-2.5534-1.6609-4.4266-1.6609zm.5543 3.3199c.5965.6389.8511 1.49.8511 2.5543 0 1.1903-.2555 2.1278-.8511 2.8089-.5543.6388-1.3631.9779-2.4265.9779-1.0212 0-1.831-.2968-2.3834-.9356-.5955-.6388-.8511-1.5322-.8511-2.6811 0-1.1922.2556-2.1278.8511-2.7244.5534-.6388 1.3622-.9356 2.3834-.9356h.0854c.9789 0 1.7446.2968 2.3411.9356z"/><path d="m14.5563 53.8145h-5.7464l-8.8099 16.9791h5.10764l1.57447-3.4458h9.23639l1.489 3.4458h5.4468zm-.2132 10.2566-6.08652-.0009 3.06342-6.2143.1287-.2969z"/></g><path d="m23.6218 53.8145v16.9791h4.5101v-16.9791z"/></g></svg>