<svg fill="none" height="53" viewBox="0 0 154 53" width="154" xmlns="http://www.w3.org/2000/svg"><g fill="#fff"><path d="m19.9802 18.1177v5.3277l12.7333-.0057c-.3907 2.9385-1.3815 5.0899-2.8875 6.596-1.8571 1.857-4.7559 3.9009-9.8458 3.9009-7.8472 0-13.9846-6.3242-13.9846-14.1714s6.1374-14.17137 13.9846-14.17137c4.235 0 7.3263 1.66456 9.608 3.80471l3.7594-3.75941c-3.1819-3.04037-7.4169-5.373017-13.3618-5.373017-10.74601 0-19.782187 8.753087-19.782187 19.499087 0 10.7461 9.036177 19.4991 19.782187 19.4991 5.7977 0 10.1742-1.9023 13.5996-5.4692 3.5216-3.5216 4.6143-8.4644 4.6143-12.4616 0-1.1889-.0906-2.2873-.2661-3.2158z"/><path d="m127.39 38.5v-36.80151h-5.379v36.80151z"/><g clip-rule="evenodd" fill-rule="evenodd"><path d="m52.9373 39.27c6.9413 0 12.5974-5.3277 12.5974-12.5578 0-7.281-5.6561-12.5578-12.5974-12.5578-6.9414 0-12.5975 5.2768-12.5975 12.5578 0 7.2301 5.6561 12.5578 12.5975 12.5578zm0-20.1672c3.8047 0 7.0828 3.0913 7.0828 7.6094 0 4.4671-3.2781 7.6094-7.0828 7.6094s-7.0829-3.1366-7.0829-7.6094c0-4.5181 3.2782-7.6094 7.0829-7.6094z"/><path d="m80.114 39.27c6.9414 0 12.5975-5.3277 12.5975-12.5578 0-7.281-5.6561-12.5578-12.5975-12.5578-6.9413 0-12.5974 5.2824-12.5974 12.5578 0 7.2301 5.6561 12.5578 12.5974 12.5578zm0-20.1672c3.8047 0 7.0829 3.0913 7.0829 7.6094 0 4.4671-3.2782 7.6094-7.0829 7.6094s-7.0828-3.1366-7.0828-7.6094c0-4.5181 3.2781-7.6094 7.0828-7.6094z"/><path d="m118.755 14.9188v22.5394c0 9.274-5.469 13.0617-11.935 13.0617-6.086 0-9.7491-4.0708-11.1306-7.3999l4.8016-1.9986c.855 2.0439 2.949 4.4558 6.324 4.4558 4.139 0 6.703-2.5534 6.703-7.3603v-1.8061h-.192c-1.234 1.523-3.612 2.8535-6.613 2.8535-6.279 0-12.0314-5.4692-12.0314-12.5068 0-7.0885 5.7524-12.6031 12.0314-12.6031 2.995 0 5.373 1.3305 6.613 2.8083h.192v-2.0439zm-4.846 11.8387c0-4.4218-2.95-7.6547-6.704-7.6547-3.804 0-6.992 3.2329-6.992 7.6547 0 4.3766 3.188 7.5641 6.992 7.5641 3.754 0 6.704-3.1875 6.704-7.5641z"/><path d="m148.35 30.8453 4.28 2.8536c-1.381 2.0439-4.711 5.5655-10.463 5.5655-7.134 0-12.461-5.5146-12.461-12.5578 0-7.4679 5.373-12.5578 11.844-12.5578 6.517 0 9.704 5.1862 10.746 7.9888l.572 1.4267-16.787 6.9527c1.285 2.5195 3.284 3.8047 6.086 3.8047 2.808 0 4.756-1.3815 6.183-3.4764zm-13.175-4.518 11.221-4.6597c-.617-1.5683-2.474-2.661-4.659-2.661-2.803 0-6.704 2.4742-6.562 7.3207z"/></g></g></svg>