<svg fill="none" height="80" viewBox="0 0 109 80" width="109" xmlns="http://www.w3.org/2000/svg"><g fill="#fff"><path d="m35.3839 10.5923c-13.8904 1.0619-20.8473 11.3261-20.8473 11.3261s5.3172 17.116 20.8473 19.0698v3.9581c-21.1626-1.9973-28.70861-23.8115-28.70861-23.8115s13.32321-13.03078 28.70861-14.2664z"/><path d="m35.3839 36.7409c1.099.1948 2.2691.3107 3.5189.3107 13.6373 0 26.7271-15.9168 26.7271-15.9168s-11.397-14.93537-28.8886-14.34584c-.4541.01545-.9057.04482-1.3574.07944v-6.8684h48.2353v50.9145h-48.2353v-5.9682c1.0158.098 2.0493.1633 3.1254.1633 11.1638 0 30.8556-5.7024 39.3049-12.7763-.6886-.6979-2.8552-1.8936-4.8981-3.0211-1.6356-.9026-3.192-1.7616-3.8471-2.2862-8.8864 7.6706-18.0638 14.1517-30.7542 14.1517-1.0167 0-1.9911-.0702-2.9309-.1895v-4.2473c-11.7373-2.0925-14.9953-14.2932-14.9953-14.2932s5.6356-6.2431 14.9953-7.2555v3.9777c-.0036 0-.0069-.0006-.0098-.0012-.0027-.0005-.0053-.001-.0081-.001-4.9125-.5895-8.7501 3.9996-8.7501 3.9996s2.1509 7.7254 8.7677 9.9489l.0003-13.9463c4.5905.5547 5.7434 2.4903 8.2952 6.7735.1702.2857.3466.5819.5307.8888l6.5475-5.5209s-4.7796-6.2684-12.8366-6.2684c-.8758-.0003-1.7139.0612-2.5368.1493v-4.5999c.447-.0313.8974-.0551 1.3574-.0696 12.5782-.3951 20.8303 10.809 20.8303 10.809s-8.913 12.3788-18.4697 12.3788c-1.3752 0-2.6086-.2212-3.7183-.5943z"/><path clip-rule="evenodd" d="m87.4449 60.0425-7.55 19.1294h5.3314l1.1942-3.3801h8.9349l1.1303 3.3801h5.7873l-7.606-19.1319zm3.5088 3.4898 3.2762 8.9628h-6.6539z" fill-rule="evenodd"/><path d="m72.287 79.179h5.409v-19.1424l-5.4099-.0012z"/><path d="m34.7371 60.0354-4.5128 15.1718-4.323-15.1706-5.8362-.0012 6.1741 19.1436h7.7924l6.2239-19.1436z"/><path clip-rule="evenodd" d="m51.2373 60.0354v19.1436h8.769c4.6719 0 6.1975-.7766 7.8471-2.5189 1.1651-1.2232 1.9188-3.9078 1.9188-6.8424 0-2.6916-.6377-5.0909-1.7497-6.5859-2.0035-2.6737-4.8896-3.1964-9.1968-3.1964zm5.3635 4.1684h2.3247c3.3727 0 5.554 1.5141 5.554 5.4436 0 3.9303-2.1813 5.4448-5.554 5.4448h-2.3247z" fill-rule="evenodd"/><path d="m0 60.0088v19.1702h5.45472v-14.556l4.22652.0012c1.39946 0 2.39706.3487 3.07096 1.0687.8548.9104 1.2038 2.38 1.2038 5.0683v8.4178h5.2856v-10.5917c0-7.5593-4.8182-8.5785-9.53254-8.5785z"/><path d="m42.532 60.0354.0021 19.1436h5.4065v-19.1436z"/><g clip-rule="evenodd" fill-rule="evenodd"><path d="m105.586 77.6827h.281l.652 1.1447h.716l-.722-1.193c.373-.0266.68-.2043.68-.7066 0-.6242-.43-.8248-1.159-.8248h-1.055v2.7244h.606zm0-.4613v-.656h.421c.23 0 .542.0186.542.2984 0 .3045-.161.3576-.432.3576z"/><path d="m108.649 77.4687c0-1.5997-1.243-2.5284-2.627-2.5284-1.395 0-2.638.9287-2.638 2.5284 0 1.5989 1.243 2.5313 2.638 2.5313 1.385 0 2.627-.9324 2.627-2.5313zm-.758 0c0 1.1658-.856 1.9482-1.869 1.9482v-.0071c-1.043.0071-1.883-.7753-1.883-1.9408 0-1.1651.84-1.9454 1.883-1.9454 1.013-.0003 1.869.78 1.869 1.9451z"/></g></g></svg>