<svg fill="none" height="45" viewBox="0 0 189 45" width="189" xmlns="http://www.w3.org/2000/svg"><g fill="#fff"><path d="m48.7393 20.3584c0 4.5878-5.5806 5.3832-9.4376 5.3832v-.0123c-14.9967 0-26.1887-9.3205-26.1887-12.1632-.008-.2017.0149-.4034.0678-.5982.333-1.0606 2.926-8.37392 2.926-8.37392.9311-2.59297 2.1366-3.853998 3.9865-3.853998.9475 0 1.7988.417408 2.6643.841758.8948.43871 1.8047.88483 2.8516.88483 1.1169 0 1.7928-.63005 2.4389-1.23241.5917-.551608 1.1585-1.079985 2.0163-1.079985 1.927 0 8.4418 2.525135 11.4325 4.054405 3.854 1.927 4.3196 2.92287 4.8499 5.11811l2.2969 9.97721c.0751.3462.1072.7004.0956 1.0545z"/><path d="m49.8647 25.3439c0-.333 0-.5981-.5334-3.1233h.0062c6.1139 2.6577 9.5055 7.1099 9.5055 11.0317 0 4.9855-3.5211 11.2999-17.4818 11.2999-18.2093 0-41.206903-11.9628-41.206903-21.6687 0-5.9259 6.712123-6.8509 11.898103-7.1098-.308.7136-.4664 1.4827-.4656 2.2599 0 5.5837 12.6288 14.0317 27.0458 14.0224 6.3791 0 11.2321-2.3956 11.2321-6.7121z"/><path d="m184.97 34.0601c-4.02 0-6.225-1.782-6.225-5.448v-7.5538h-3.468v-4.3781h3.481v-4.4152l5.241-1.1346v5.5498h4.797v4.3781h-4.797v6.5148c0 1.557.614 2.075 2.269 2.075.803.0057 1.602-.115 2.368-.3577v4.2518c-1.198.3133-2.428.4871-3.666.5179z"/><path clip-rule="evenodd" d="m168.743 32.796c-1.393.9404-2.886 1.3289-4.735 1.3289l-.007.0092c-3.826 0-6.225-2.3-6.225-5.3154 0-3.3083 2.658-5.1582 7.07-5.1582 1.313-.0055 2.62.1582 3.891.4872v-.8417c0-1.7205-1.116-2.5622-3.274-2.5622-1.489 0-3.179.518-5.189 1.3628l-1.881-3.8602c2.793-1.2641 5.389-1.8807 8.016-1.8807 4.702 0 7.52 2.2939 7.52 6.4747v10.9947h-5.186zm-3.484-5.7717c-1.717 0-2.855.5519-2.855 1.6865 0 1.0699 1.008 1.7173 2.692 1.7173 1.144.017 2.273-.2623 3.277-.8108v-2.2045c-1.019-.252-2.064-.3824-3.114-.3885z" fill-rule="evenodd"/><path d="m141.078 33.8443h-5.578l.022-22.7077h5.577v8.7223h9.339v-8.7223h5.572v22.6985h-5.593v-8.8858h-9.339z"/><g clip-rule="evenodd" fill-rule="evenodd"><path d="m127.663 33.8474h-5.189l.012-1.2764c-1.336.9752-2.949 1.497-4.603 1.4891-1.157.0063-2.303-.218-3.373-.6597-1.069-.4417-2.039-1.092-2.855-1.9129-.815-.8209-1.458-1.7959-1.892-2.8682-.435-1.0723-.651-2.2203-.636-3.3771 0-4.93 3.925-8.7871 8.916-8.7871 1.534-.0132 3.044.3782 4.378 1.1346v-6.4531l5.242-1.1346zm-8.886-12.9525c-2.562 0-4.508 1.8807-4.508 4.3473v.0123c0 2.4635 1.98 4.3443 4.508 4.3443.665.0213 1.328-.0892 1.95-.3252.623-.236 1.192-.5929 1.676-1.05v-5.9968c-.999-.8835-2.293-1.3589-3.626-1.3319z"/><path d="m99.1586 34.1681c-5.2507 0-9.3359-3.891-9.3359-8.8858l.0062-.0093c-.01-1.1742.2149-2.3386.6614-3.4246.4465-1.0861 1.1057-2.0719 1.9388-2.8995.833-.8276 1.8231-1.4803 2.9121-1.9197s2.2548-.6566 3.4289-.6389c4.9949 0 8.6579 3.9219 8.6579 9.3699v1.3042h-12.2251c.3459.8266.9339 1.5292 1.6868 2.0151.7529.486 1.6353.7326 2.531.7073 1.4243 0 2.6243-.4532 3.4343-1.298l3.472 3.0832c-2.174 1.816-4.283 2.5961-7.1684 2.5961zm3.1014-10.7882c-.552-1.6525-1.945-2.7224-3.5978-2.7224-1.7389 0-3.0369 1.0174-3.5549 2.7224z"/><path d="m75.2577 33.8351h-5.5775v-22.6985h11.6175c4.8067 0 8.0163 3.1448 8.0163 7.2301.0056 1.3703-.399 2.7109-1.1616 3.8494-.7627 1.1385-1.8486 2.0227-3.1179 2.539l4.9948 9.08h-6.2435l-4.2826-8.2692h-4.2455zm8.4079-15.3698c0-1.3967-1.036-2.5621-2.8859-2.5621h-5.5159v5.1243h5.5159c1.8499 0 2.8859-1.1655 2.8859-2.5622z"/></g></g></svg>