<svg fill="none" height="86" viewBox="0 0 66 86" width="66" xmlns="http://www.w3.org/2000/svg"><g fill="#fff"><path d="m61.3462 9.32524c-10.0154-4.36515-19.7989-5.75278-28.3464-5.68741h-.0012c-8.5477-.06537-18.3329 1.32226-28.34635 5.68741-1.19319-2.16256-1.68155-3.47417-1.68155-3.47417 10.9469-4.33128 21.1993-5.8138865 30.0279-5.85107 8.8291.0371835 19.082 1.51955 30.0303 5.85107 0 0-.3441 1.06482-1.6827 3.47417z"/><path d="m33.0031 59.802 8.4021-47.2536c8.0086 0 10.5348.8782 10.8995 4.4627 0 0 5.3724-2.0032 8.0821-6.0716-10.5739-4.89966-21.1982-5.12063-21.1982-5.12063l-6.1921 7.54183-6.1928-7.54302s-10.6246.22121-21.19699 5.12092c2.70729 4.0684 8.08189 6.0716 8.08189 6.0716.3668-3.5848 2.8898-4.463 10.8448-4.4687z"/><path d="m16.6428 78.4799h6.3972c.8901-.1774 1.5516-.9611 1.737-1.7206h-9.8712c.1843.7595.8555 1.5432 1.737 1.7206z"/><path d="m64.2637 78.4868h-6.3993c-.8808-.1767-1.5515-.9609-1.736-1.7199h9.8716c-.1864.7588-.8474 1.5432-1.7363 1.7199z"/><path d="m56.3856 85.3551v-5.1896l9.3845.009v5.1806h-1.6631v-3.4553h-6.0571v3.4553z"/><path d="m51.3452 85.3584c.8391-.3558 1.2905-.971 1.4634-1.691h-7.4644l.0047-6.8963-1.6732.0048v8.5825z"/><path d="m37.1428 78.4636h-5.9101v1.6955h7.6783v5.1971h-9.335l-.4883.009c.3995-.8377 1.2005-1.4719 2.145-1.7353l6.0273-.0047v-1.7798h-7.684v-5.0719h9.3883c-.1824.7524-.9305 1.4312-1.8215 1.6901z"/><path d="m23.0401 81.8719h-6.3973c-.8815-.1755-1.5527-.9597-1.7369-1.7199h9.8711c-.1854.76-.8469 1.5444-1.7369 1.7199z"/><path d="m16.6428 85.3574h6.3973c.89-.1769 1.5515-.9611 1.7369-1.7201h-9.8711c.1842.7593.8554 1.5432 1.7369 1.7201z"/><path d="m1.7327 78.4892c-.890979-.1921-1.540388-.9587-1.7327-1.7088v-.0165h10.8178v.0165c-.189.7501-.82444 1.4767-1.72537 1.7088h-2.69521l-.15276.0543v6.7951h-1.68155v-6.7951l-.13736-.0543z"/></g></svg>