<svg fill="none" height="28" viewBox="0 0 195 28" width="195" xmlns="http://www.w3.org/2000/svg"><g fill="#fff"><path d="m40.3587-.00012207h4.8609l-3.2296 15.30652207h.075l6.7828-6.78365h6.3106l-8.9579 8.52435 5.6202 10.1568h-5.4767l-4.8257-9.9027h-.0709l-2.1043 9.9027h-4.7516z"/><path d="m17.2668.468681h4.8609l-1.0156 4.644999h-4.8612z"/><path d="m15.4891 8.52275h4.8613l-3.9908 18.68115h-4.8619z"/><path d="m4.27987 8.52204h-3.518107l-.761763 3.55496h3.51811l-1.37912 6.3129c-.32571 1.4857-.61609 2.8998-.61609 4.3492 0 3.5929 2.32249 4.9001 5.62304 4.9001.68454 0 1.44087-.1717 2.15091-.333.1563-.0355.31045-.0705.461-.103l.83305-3.7726c-.61608.2538-1.48573.4345-2.35811.4345-1.08685 0-1.84857-.6898-1.84857-1.8139 0-.7246.1084-1.3763.21688-1.812l1.77763-8.1622h4.35277l.7611-3.55496h-4.35175l1.19715-5.54991-5.22417 1.70635z"/><path clip-rule="evenodd" d="m126.693 24.3542h.073l-.508 2.867h4.098c.185-1.4921.624-3.6678 1.068-5.8703v-.0015c.604-2.9934 1.218-6.036 1.218-7.4783 0-4.38735-3.52-5.76679-7.254-5.76679-2.177 0-4.282.39946-6.347 1.12405l-.69 3.88164c1.922-.9068 3.99-1.4507 6.129-1.4507 1.706 0 3.737.5439 3.737 2.431 0 .5416 0 1.0855-.146 1.5947h-1.704c-4.571 0-11.462.4726-11.462 6.6396 0 3.4441 2.394 5.3311 5.765 5.3311 2.687 0 4.355-1.1975 6.023-3.3015zm.834-5.769c-.761 3.0136-1.884 5.5155-5.515 5.5155-1.233 0-2.463-.6536-2.463-1.9605 0-3.1537 3.916-3.555 6.274-3.555z" fill-rule="evenodd"/><path d="m31.4726 11.8604c1.3431 0 2.6125.3254 3.555.9422l1.1972-3.98985c-1.3057-.39753-3.0461-.72419-4.8614-.72419-6.7095 0-11.0253 4.96944-11.0253 11.49764 0 4.825 3.1186 8.0537 7.9424 8.0537 1.596 0 3.1921-.1459 4.6793-.8705l.5449-3.8473c-1.2685.6174-2.7561.9437-3.9539.9437-3.3381 0-4.1348-2.431-4.1348-4.8597 0-3.5191 2.1762-7.1457 6.0566-7.1457z"/><path d="m76.1977 8.52273h-3.5181l-.7617 3.55497h3.5174l-1.3769 6.3129c-.3275 1.4857-.6176 2.8998-.6176 4.3492 0 3.5929 2.3222 4.9001 5.6227 4.9001.6837 0 1.4399-.1716 2.1503-.3328.1568-.0355.3114-.0706.4625-.1032l.8322-3.7726c-.6159.2538-1.486.4345-2.3561.4345-1.0889 0-1.8497-.6899-1.8497-1.8139 0-.7246.1075-1.3763.2163-1.812l1.7778-8.1622h4.3523l.7627-3.55497h-4.353l1.197-5.54991-5.2241 1.70635z"/><path d="m71.0536 15.1969c0-4.7502-3.0464-7.10834-7.6529-7.10834-6.1301 0-10.6294 5.58614-10.6294 11.38834 0 5.5498 3.6278 8.163 8.9978 8.163 1.9939 0 4.0619-.4723 5.948-1.0531l.6162-3.847c-1.8133.8375-3.737 1.3451-5.7319 1.3451-3.1082 0-4.925-1.1054-5.1576-4.0415h-.0038c-.0028-.0551-.0064-.1098-.01-.1647-.0076-.1148-.0153-.2305-.0153-.3514l.0002-.0215.0006-.0308c.0004-.0173.0008-.0347.0008-.0518l-.0001-.0112-.0002-.0044-.001-.0245-.0003-.0144h.0035c.0218-1.2785.3024-2.5401.7908-3.706.9342-2.3768 2.2534-4.0191 5.1189-4.0191 2.0299 0 3.0832 1.1224 3.0832 3.1189 0 .4344-.0372.8339-.1084 1.2684h-6.6516c-.4316 1.4684-.5063 2.4518-.5151 3.3378h11.4453c.2904-1.3794.4723-2.7573.4723-4.1718z"/><path d="m87.9068 8.52275c-.1082.58229-.2543 1.34312-.3979 2.06805l-3.4095 16.6131h4.8591l1.9235-8.8864.0351-.1428c.6158-2.5083 1.5501-6.3142 4.7877-6.3142 1.2334 0 2.2867.8693 2.2867 2.2487 0 1.1225-.3616 2.8651-.6166 3.9894l-1.959 9.1053h4.8611l1.921-8.8864.061-.252c.613-2.5373 1.5-6.205 4.765-6.205 1.233 0 2.284.8693 2.284 2.2487 0 1.1225-.362 2.8651-.617 3.9894l-1.959 9.1053h4.861l1.959-8.9245c.397-1.5223.835-3.4094.835-5.0773 0-2.8289-2.396-5.11353-5.188-5.11353-2.61 0-5.331 1.12398-6.565 3.55503h-.072c-.255-2.25-2.54-3.55503-4.7529-3.55503-2.2851 0-4.4241 1.01647-5.7301 2.93663h-.0726l.4359-2.50245z"/><path d="m147.079 12.3265c-.522-.2851-1.863-.6829-3.241-.6829-1.452 0-3.265.3978-3.265 1.8836 0 .9864 1.103 1.7126 2.387 2.5577 1.787 1.1763 3.924 2.5829 3.924 5.2424 0 4.8623-4.243 6.3126-8.413 6.3126-1.961 0-3.92-.29-5.696-1.1259l1.053-3.8804c1.376.7599 2.756 1.4513 4.643 1.4513 1.629 0 3.336-.5454 3.336-2.0677 0-1.3404-1.251-2.142-2.639-3.0316-1.73-1.1088-3.673-2.3542-3.673-4.9496 0-4.38703 4.244-5.94744 8.088-5.94744 1.779 0 3.593.32666 4.549.5751z"/><path d="m153.705 8.52273h-3.519l-.763 3.55497h3.519l-1.378 6.3129c-.325 1.4857-.618 2.8998-.618 4.3492 0 3.5929 2.322 4.9001 5.624 4.9001.683 0 1.437-.1714 2.147-.3326.157-.0356.311-.0708.463-.1034l.835-3.7726c-.617.2538-1.488.4345-2.358.4345-1.087 0-1.851-.6899-1.851-1.8139 0-.7246.11-1.3763.218-1.812l1.777-8.1622h4.355l.761-3.55497h-4.353l1.196-5.54991-5.222 1.70635z"/><path d="m183.139 11.0252c.144-.7964.29-1.6316.436-2.50245h4.643l-.654 3.51865h.074c.872-2.0311 3.263-3.95283 5.513-3.95283.617 0 1.269.03463 1.849.18033l-1.015 4.7509c-.543-.181-1.235-.29-1.85-.29-3.448 0-5.115 3.0839-5.731 6.095l-1.741 8.3791h-4.86z"/><path d="m172.113 8.08856c4.606 0 7.653 2.35814 7.653 7.10834 0 1.4145-.181 2.7924-.472 4.1718h-11.448c.011-.886.084-1.8694.518-3.3378h6.651c.071-.4345.109-.834.109-1.2684 0-1.9965-1.054-3.1189-3.085-3.1189-2.865 0-4.186 1.6423-5.119 4.0191-.488 1.1659-.769 2.4275-.791 3.706h-.002c0 .0099 0 .0186.001.0272.001.0087.001.0174.001.0273 0 .0344-.002.0694-.002.1041 0 .1147.007.2245.014.3335.004.061.007.1216.01.1826h.003c.235 2.9361 2.05 4.0415 5.161 4.0415 1.995 0 3.917-.5076 5.73-1.3451l-.615 3.847c-1.887.5808-3.956 1.0531-5.949 1.0531-5.37 0-8.997-2.6132-8.997-8.163 0-5.8022 4.5-11.38834 10.629-11.38834z"/></g></svg>