<svg fill="none" height="49" viewBox="0 0 215 49" width="215" xmlns="http://www.w3.org/2000/svg"><g fill="#fff"><path d="m38.5168 23.3347c0-2.586-.9288-4.3769-1.7255-5.7708-.082-.1333-.1637-.265-.2445-.3954-.9639-1.5554-1.8104-2.9212-1.8104-4.5114 0-1.9234 1.4588-3.71389 3.5137-3.71389.0598 0 .1177.0048.1755.0096.0318.00264.0636.00528.0956.00712-3.7227-3.41054-8.6824-5.49285-14.1299-5.49285-7.31 0-13.7412 3.75055-17.48264 9.43132.49092.0147.95357.0251 1.34654.0251 2.1886 0 5.5765-.2656 5.5765-.2656 1.1279-.0665 1.2609 1.5902.1341 1.7236 0 0-1.1335.1334-2.3948.1995l7.6197 22.6646 4.5791-13.7334-3.26-8.932c-1.1268-.0661-2.1942-.1995-2.1942-.1995-1.1275-.0661-.9954-1.7901.1322-1.7236 0 0 3.4555.2656 5.5116.2656 2.1882 0 5.5764-.2656 5.5764-.2656 1.1288-.0665 1.2614 1.5902.1342 1.7236 0 0-1.1359.1334-2.3949.1995l7.5617 22.493 2.0871-6.9744.1648-.5266c.8221-2.6229 1.4281-4.5568 1.4281-6.2375z"/><path d="m15.2598 43.2222c-6.97951-3.3919-11.79272-10.5494-11.79272-18.8316 0-3.0335.65057-5.9133 1.81157-8.5156z"/><path d="m18.4805 44.4636 6.2779-18.2428 6.4325 17.6209c.0418.1035.0928.1987.1489.2882-2.175.7649-4.5118 1.1861-6.9484 1.1861-2.0541 0-4.0365-.3014-5.9109-.8524z"/><path d="m42.7516 14.3517c.0899.6665.1409 1.3819.1409 2.1515 0 2.1234-.3966 4.5103-1.591 7.4948l-6.3915 18.4792c6.2207-3.6275 10.4048-10.3669 10.4048-18.0862.0004-3.6379-.9288-7.0588-2.5632-10.0393z"/><path clip-rule="evenodd" d="m0 24.3906c0-13.4491 10.9423-24.3906 24.3914-24.3906 13.4486 0 24.3921 10.9415 24.3925 24.3906 0 13.4506-10.9439 24.3917-24.3925 24.3917-13.4491 0-24.3914-10.9411-24.3914-24.3917zm1.1184 0c0 12.8331 10.4406 23.2737 23.273 23.2737 12.8319 0 23.2717-10.4406 23.2717-23.2737 0-12.8324-10.4398-23.2722-23.2717-23.2722-12.8328 0-23.273 10.4398-23.273 23.2722z" fill-rule="evenodd"/><path clip-rule="evenodd" d="m146.066 34.9459v-.9456c-3.168 0-3.735-.8035-3.735-5.5327v-2.316h2.695c4.87 0 7.565-2.553 7.565-5.8154 0-3.3576-2.695-5.8635-7.565-5.8635h-9.787v.946c3.168 0 3.735.7561 3.735 5.4849v7.5644c0 4.7288-.567 5.5323-3.735 5.5323v.9456zm-3.735-18.7711h2.695c2.648 0 3.877 1.892 3.877 4.1614 0 2.2221-1.229 4.0659-3.877 4.0659h-2.695z" fill-rule="evenodd"/><path d="m75.4777 19.012-3.2624 9.6459-4.6806-14.1848h-.8986l-4.7754 14.1848-3.1677-9.6459c-.9934-2.9312-.2365-3.5929 2.5533-3.5929v-.946h-10.4963v.946c2.7424 0 3.4989.7091 4.6336 4.1606l5.248 16.17h.6147l4.9168-14.7991 4.8231 14.7991h.6144l5.3905-16.17c1.1821-3.4515 1.8912-4.1606 4.8698-4.1606v-.946h-8.8887v.946c3.0259 0 3.4515.8034 2.5055 3.5929z"/><g clip-rule="evenodd" fill-rule="evenodd"><path d="m116.233 19.2015h8.463c6.761 0 9.693 3.5459 9.693 7.8483 0 4.3032-2.932 7.8961-9.693 7.8961h-13.759l-5.248-6.5715h-.804v1.7017c0 3.3568.426 3.9715 3.073 3.9715v.8983h-9.4084v-.8983c2.6474 0 3.0734-.6147 3.0734-3.9715v-6.0522c0-3.3572-.426-3.9246-3.0734-3.9246v-.8978h8.3214c4.161 0 6.383 1.9859 6.383 4.5859 0 2.0807-1.56 3.9241-4.491 4.4449l2.174 2.3638c1.891 2.0803 3.263 3.1681 5.296 3.4515 2.647 0 3.072-.6147 3.072-3.9715v-6.0522c0-3.3572-.425-3.9246-3.072-3.9246zm-11.347 1.4186v6.2875l1.938.0004c2.127 0 3.073-1.4651 3.073-3.1202 0-1.7021-.946-3.1677-3.073-3.1677zm19.621 12.8602h.331c4.917 0 5.815-3.5937 5.815-6.4775 0-2.7898-.898-6.3827-5.815-6.3827h-2.269v10.2599c0 2.175.236 2.6003 1.938 2.6003z"/><path d="m88.2901 35.5602c-5.2006 0-9.456-3.8294-9.456-8.5108 0-4.6332 4.2558-8.4634 9.456-8.4634 5.2011 0 9.4561 3.8302 9.4561 8.4634 0 4.6814-4.255 8.5108-9.4561 8.5108zm0-15.5075c-4.3493 0-5.8627 3.9238-5.8627 6.9971 0 3.1211 1.5134 6.9979 5.8627 6.9979 4.3976 0 5.9106-3.8768 5.9106-6.9979 0-3.0733-1.513-6.9971-5.9106-6.9971z"/><path d="m185.072 30.5021-.236.8505c-.425 1.5603-.946 2.1277-4.303 2.1277h-.662c-2.458 0-2.884-.5674-2.884-3.9242v-2.1747c3.688 0 3.972.3305 3.972 2.7895h.898v-7.0453h-.898c0 2.4586-.284 2.7895-3.972 2.7895v-5.295h2.6c3.358 0 3.877.5673 4.303 2.1277l.237.8978h.756l-.331-4.4441h-13.901v.8978c2.648 0 3.074.5674 3.074 3.9246v6.0522c0 3.0709-.362 3.8445-2.449 3.9548-1.984-.303-3.346-1.3851-5.21-3.4348l-2.175-2.3638c2.931-.5208 4.492-2.3642 4.492-4.4449 0-2.6-2.222-4.5859-6.383-4.5859h-8.321v.8978c2.647 0 3.073.5674 3.073 3.9246v6.0522c0 3.3568-.425 3.9715-3.073 3.9715v.8983h9.409v-.8983c-2.647 0-3.073-.6147-3.073-3.9715v-1.7017h.803l5.248 6.5715h19.432l.284-4.4438zm-25.058-3.5945v-6.2875h1.938c2.128 0 3.074 1.4656 3.074 3.1677 0 1.6551-.946 3.1202-3.074 3.1202z"/></g><path d="m190.415 33.9525c.709.6151 2.364 1.6077 4.255 1.6077 3.168 0 5.768-2.0799 5.768-5.0581 0-1.4182-.898-3.1684-3.168-4.2558l-2.599-1.2764c-2.27-1.0404-3.263-1.7021-3.263-2.9312 0-1.1825 1.23-1.939 2.553-1.939 2.506 0 3.735 1.8438 4.066 4.0663h.993v-5.5796h-.898c-.142.5677-.379 1.0881-.615 1.2772-.804-.6617-2.127-1.2291-3.688-1.2291-2.931 0-5.059 1.9382-5.059 4.2077 0 2.0799 1.418 3.6402 3.31 4.5393l2.695 1.2764c1.938.8982 3.026 1.8442 3.026 3.0733 0 1.4182-1.23 2.2691-2.743 2.2691-2.789 0-4.964-1.8439-5.342-4.9641h-.946v6.524h.899c.094-.6617.519-1.3708.756-1.6077z"/><path d="m209.232 35.5602c-1.891 0-3.546-.9926-4.255-1.6077-.236.2369-.662.946-.756 1.6077h-.899v-6.524h.946c.378 3.1202 2.553 4.9641 5.343 4.9641 1.513 0 2.742-.8509 2.742-2.2691 0-1.2291-1.087-2.1751-3.026-3.0733l-2.695-1.2764c-1.891-.8991-3.31-2.4594-3.31-4.5393 0-2.2695 2.128-4.2077 5.059-4.2077 1.561 0 2.884.5674 3.688 1.2291.236-.1891.473-.7095.614-1.2772h.899v5.5796h-.993c-.331-2.2225-1.56-4.0663-4.066-4.0663-1.324 0-2.553.7565-2.553 1.939 0 1.2291.993 1.8908 3.262 2.9312l2.6 1.2764c2.27 1.0874 3.168 2.8376 3.168 4.2558 0 2.9782-2.6 5.0581-5.768 5.0581z"/></g></svg>