<svg fill="none" height="31" viewBox="0 0 109 31" width="109" xmlns="http://www.w3.org/2000/svg" xmlns:xlink="http://www.w3.org/1999/xlink"><clipPath id="a"><path d="m0 .826904h109v29.3462h-109z"/></clipPath><g clip-path="url(#a)"><path d="m31.6101 14.3261c0 .8385.0839 1.677.2516 2.3477.1677.7546.4192 1.3416.8384 1.9285.4193.5031.8385 1.0061 1.5093 1.2577.6707.2515 1.3415.5031 2.18.5031.8384 0 1.5092-.1677 2.2638-.4193.6708-.2515 1.1738-.5869 1.5931-.8384v-10.4808c-.4193-.1677-.8385-.1677-1.3416-.25154-.503-.08385-1.1738-.08385-2.0123-.08385-1.593 0-2.8507.50308-3.8569 1.59308-.9223 1.00611-1.4254 2.51541-1.4254 4.44381zm-2.5154-3.6892c.4193-1.09.9223-2.0123 1.677-2.76692.7546-.75461 1.593-1.34154 2.5992-1.76077 1.0061-.25154 2.18-.50308 3.4377-.50308 1.3415 0 2.5992.08385 3.6892.33539s1.9285.41923 2.5992.58692v23.14156l-2.9346.5031v-8.3847c-.3354.2516-.9223.5031-1.6769.7547-.7546.2515-1.5931.4192-2.5154.4192-1.1738 0-2.2638-.2515-3.1861-.6708-.9223-.4192-1.677-1.0061-2.3477-1.7608-.6708-.7546-1.09-1.6769-1.4254-2.7669s-.5031-2.18-.5031-3.4377c0-1.3415.1677-2.5992.5869-3.6892zm32.7839 3.6054c0 1.3415-.1677 2.5154-.5869 3.6054-.4193 1.09-.9224 2.0123-1.5931 2.7669-.6708.7546-1.5092 1.3415-2.4316 1.7608-.9223.4192-2.0123.5869-3.1023.5869s-2.18-.1677-3.1023-.5869c-.9223-.4193-1.7607-1.0062-2.4315-1.7608s-1.2577-1.6769-1.5931-2.7669c-.4192-1.09-.5869-2.2639-.5869-3.6054 0-1.2577.1677-2.5154.5869-3.5215.4192-1.09005.9223-2.01236 1.5931-2.76697.6708-.75462 1.5092-1.34154 2.4315-1.76077s2.0123-.58693 3.1023-.58693 2.18.1677 3.1023.58693c.9224.41923 1.7608 1.00615 2.4316 1.76077.6707.75461 1.2577 1.67692 1.5931 2.76697.4192 1.09.5869 2.2638.5869 3.5215zm-3.1023 0c0-1.8446-.4193-3.3539-1.2577-4.44386-.8385-1.09-2.0123-1.67692-3.4377-1.67692s-2.5992.58692-3.4377 1.67692c-.8385 1.08996-1.1738 2.59926-1.1738 4.44386s.4192 3.3538 1.2576 4.4438c.8385 1.09 2.0124 1.677 3.4377 1.677 1.4254 0 2.5993-.587 3.4377-1.677.7546-1.09 1.1739-2.5153 1.1739-4.4438zm6.3723-7.7977c.6708-.1677 1.5931-.33539 2.6831-.50308s2.4315-.25154 3.8569-.25154c1.3415 0 2.4315.16769 3.27.58692.8384.33539 1.5931.92231 2.0961 1.59308.587.50308.9223 1.34154 1.1739 2.26382.2515.9223.3354 1.9285.3354 3.1023v9.307h-2.9346v-8.6362c0-1.0061-.0839-1.9285-.1677-2.5992-.0839-.6708-.3354-1.34157-.6708-1.7608s-.7546-.75461-1.2577-1.00615-1.1738-.33538-2.0123-.33538h-1.0062s-.7546.08384-1.09.16769c-.3353.08384-.5869.08384-.8384.08384-.2516.08385-.4193.08385-.5031.08385v14.00235h-2.9346zm20.1231-.50308h6.2884v2.51538h-6.2884v7.63c0 .8385.0838 1.5092.1677 2.0962.1676.503.3353 1.0061.5869 1.2577.2515.3353.5869.503.9223.6707.4192.1677.8384.1677 1.3415.1677.9223 0 1.5931-.0838 2.18-.3354.5031-.1677.9223-.3354 1.09-.4192l.5869 2.4315c-.3353.1677-.8384.3354-1.593.587-.7546.2515-1.5931.3353-2.5154.3353-1.09 0-2.0962-.1677-2.7669-.4192-.7547-.2515-1.3416-.7546-1.7608-1.2577-.4192-.5869-.7546-1.2577-.9223-2.0961-.1677-.8385-.2516-1.8447-.2516-2.9347v-14.84072l2.9347-.503076zm23.7283 8.30078c0 1.3415-.168 2.5154-.587 3.6054s-.922 2.0123-1.593 2.7669-1.509 1.3415-2.431 1.7608c-.923.4192-2.013.5869-3.103.5869s-2.1797-.1677-3.102-.5869c-.9223-.4193-1.7608-1.0062-2.4316-1.7608-.6707-.7546-1.2577-1.6769-1.593-2.7669-.4193-1.09-.587-2.2639-.587-3.6054 0-1.2577.1677-2.5154.587-3.5215.4192-1.09005.9223-2.01236 1.593-2.76697.6708-.75462 1.5093-1.34154 2.4316-1.76077s2.012-.58693 3.102-.58693 2.18.1677 3.103.58693c.922.41923 1.76 1.00615 2.431 1.76077.671.75461 1.258 1.67692 1.593 2.76697.419 1.09.587 2.2638.587 3.5215zm-3.102 0c0-1.8446-.419-3.3539-1.258-4.44386-.838-1.09-2.012-1.67692-3.438-1.67692-1.425 0-2.5988.58692-3.4373 1.67692-.8384 1.08996-1.2577 2.59926-1.2577 4.44386s.4193 3.3538 1.2577 4.4438c.8385 1.09 2.0123 1.677 3.4373 1.677 1.426 0 2.6-.587 3.438-1.677.839-1.09 1.258-2.5153 1.258-4.4438z" fill="#262a3e"/><g fill="#6b5aed"><path d="m2.93462 10.7208c1.76076 1.7608 4.10846 2.7669 6.54 2.9346-.1677-2.4315-1.17385-4.77923-2.93462-6.54s-4.02462-2.76692-6.54-2.93461c.167692 2.43153 1.17385 4.77923 2.93462 6.54001z"/><path d="m17.1884 10.7208c-1.7607 1.7608-4.1084 2.7669-6.54 2.9346.1677-2.4315 1.1739-4.77923 2.9347-6.54 1.6769-1.76077 4.0246-2.76692 6.54-2.93461-.1677 2.43153-1.1739 4.77923-2.9347 6.54001z"/><path d="m17.1884 17.68c-1.7607-1.7608-4.1084-2.7669-6.54-2.9346.1677 2.4315 1.1739 4.7792 2.9347 6.54 1.7607 1.7607 4.1084 2.7669 6.54 2.9346-.1677-2.5154-1.1739-4.8631-2.9347-6.54z"/><path d="m2.93462 17.68c1.76076-1.7608 4.10846-2.7669 6.62384-2.9346-.16769 2.4315-1.17384 4.7792-2.93461 6.54-1.84462 1.7607-4.10847 2.7669-6.62385 2.9346.167692-2.5154 1.17385-4.8631 2.93462-6.54z"/></g></g></svg>