<svg fill="none" height="25" viewBox="0 0 109 25" width="109" xmlns="http://www.w3.org/2000/svg" xmlns:xlink="http://www.w3.org/1999/xlink"><clipPath id="a"><path d="m0 .141479h109v24.547h-109z"/></clipPath><g clip-path="url(#a)" fill="#2900d2"><path d="m30.8998 9.03701c-1.1686-1.3664-2.7505-2.05087-4.7481-2.05087-2.0103 0-3.6328.79601-4.8749 2.39057-1.2422 1.59459-1.8608 3.69869-1.8608 6.31989v.2206c0 2.6085.6236 4.7228 1.8684 6.3427 1.2472 1.6199 2.857 2.4286 4.8343 2.4286 2.0838 0 3.7088-.7149 4.8749-2.1447l.142 1.8303h2.6821v-24.232621h-2.9179zm0 10.68019c-.8517 1.663-2.2029 2.492-4.0535 2.492-1.4095 0-2.5148-.5476-3.3133-1.6402-.7986-1.0926-1.1991-2.6086-1.1991-4.5428 0-2.1675.4005-3.8026 1.1991-4.9054.7985-1.1053 1.9139-1.6579 3.3437-1.6579 1.8075 0 3.1511.8036 4.0231 2.4134z"/><path d="m42.6928 6.98615c-1.3563 0-2.6162.37518-3.7798 1.1281-1.1636.75291-2.066 1.79228-2.715 3.12315-.6465 1.3309-.9709 2.8418-.9709 4.5353v.5374c0 2.5452.725 4.5783 2.1776 6.0968 1.4526 1.5211 3.3336 2.279 5.6481 2.279 2.8621 0 5.0067-1.0976 6.4365-3.2981l-1.7821-1.3892c-.5375.6946-1.1611 1.2523-1.876 1.6732-.7149.4208-1.5895.6312-2.6187.6312-1.4526 0-2.6491-.5172-3.5897-1.554-.9405-1.0369-1.4323-2.3956-1.4754-4.0789h11.565v-1.2143c0-2.7252-.616-4.8166-1.8455-6.27936-1.2295-1.4602-2.9559-2.19029-5.1741-2.19029zm4.1017 7.28825h-8.5507c.1901-1.5463.6844-2.748 1.483-3.6048.7985-.85686 1.7872-1.28529 2.966-1.28529 1.2194 0 2.1878.40815 2.9026 1.22189.7149.8163 1.1155 1.9647 1.1991 3.4477z"/><path d="m56.9121 20.4119-4.3375-13.11136h-2.9838l6.1856 17.07106h2.2258l6.1196-17.07106h-2.9812z"/><path d="m68.4847 7.30054h-2.9178v17.07106h2.9178z"/><path d="m67.0498 1.08453c-.5678 0-.9962.16225-1.2852.48927s-.4335.72503-.4335 1.19908c0 .47406.1445.86699.4335 1.18388.289.31434.7174.47405 1.2852.47405.5679 0 .9988-.15717 1.2929-.47405.2941-.31435.4411-.70982.4411-1.18388 0-.47405-.147-.87206-.4411-1.19908-.2941-.32449-.7225-.48927-1.2929-.48927z"/><path d="m78.8607 6.98615c-2.1041 0-3.8077.82135-5.1107 2.46154l-.0938-2.14466h-2.7607v17.07107h2.9179v-12.1632c.4005-.8214.9582-1.483 1.6731-1.9875.7149-.50446 1.5464-.75797 2.492-.75797 1.1686 0 2.028.29407 2.5781.88477.5527.5881.8341 1.4982.8442 2.7302v11.2963h2.9178v-11.2811c-.0304-4.0738-1.848-6.10945-5.4579-6.10945z"/><path d="m90.8463 21.6972c-.284-.3423-.4259-.8569-.4259-1.5388v-10.59912h3.1865v-2.2562h-3.1865v-4.13468h-2.9179v4.13468h-3.108v2.2562h3.108v10.58642c0 1.4526.3321 2.5705.9938 3.3615.6616.7884 1.6452 1.1839 2.9508 1.1839.725 0 1.4728-.104 2.241-.3144v-2.3525c-.5882.1267-1.0521.1901-1.3893.1901-.6844-.0025-1.1686-.1749-1.4525-.5171z"/><path d="m108.399 20.3814v-7.8561c-.043-1.7239-.621-3.08015-1.734-4.06375-1.115-.9836-2.657-1.4754-4.624-1.4754-1.242 0-2.3801.23069-3.4145.6946-1.0368.46392-1.8556 1.09008-2.4615 1.88609-.6059.79346-.9075 1.61736-.9075 2.46916h2.9356c0-.7479.3523-1.3842 1.0571-1.9089.7047-.52477 1.5768-.78842 2.6188-.78842 1.189 0 2.089.30167 2.697.90752.611.6059.915 1.4171.915 2.4388v1.341h-2.839c-2.451 0-4.3526.4918-5.7038 1.4754s-2.028 2.3652-2.028 4.1423c0 1.4627.5399 2.6694 1.6173 3.6201 1.0774.9532 2.459 1.4272 4.1425 1.4272 1.883 0 3.503-.7047 4.86-2.1142.103.8619.24 1.4627.41 1.7973h3.06v-.2535c-.401-.9253-.601-2.1725-.601-3.7392zm-2.918-.7909c-.367.7579-.963 1.3714-1.782 1.8455-.821.474-1.688.7098-2.603.7098-.956 0-1.7419-.2586-2.3503-.7732-.611-.5146-.9152-1.2295-.9152-2.1446 0-2.094 1.7873-3.141 5.3645-3.141h2.286z"/><path d="m11.3573 1.40143h-2.65172l-6.42384 16.94937h15.61086zm-1.3259 3.73921 3.9496 10.74356h-7.80794z"/><path d="m15.5679 20.1989 1.5337 4.1753h3.108l-1.6073-4.1753z"/><path d="m0 24.3742h3.12319l1.50076-4.1753h-3.04207z"/></g></svg>