<svg fill="none" height="32" viewBox="0 0 132 32" width="132" xmlns="http://www.w3.org/2000/svg" xmlns:xlink="http://www.w3.org/1999/xlink"><clipPath id="a"><path d="m0 .914286h132v30.1714h-132z"/></clipPath><g clip-path="url(#a)"><path d="m11.1663 11.6823c0 1.2936-.5469 2.4372-1.44261 3.332-.99472.9947-2.43729 1.2446-2.43729 2.0894 0 1.1437 1.84046.7958 3.6064 2.5617 1.1692 1.1692 1.8895 2.7107 1.8895 4.5012 0 3.531-2.83516 6.3417-6.39067 6.3417-3.55646-.001-6.39163-2.8078-6.39163-6.3407 0-1.7905.721286-3.3321 1.89043-4.5012 1.76503-1.7651 3.60548-1.4171 3.60548-2.5608 0-.8458-1.44257-1.0947-2.43728-2.0894-.89572-.8957-1.44257-2.0394-1.44257-3.382 0-2.58629 2.11388-4.67566 4.70014-4.67566.49783 0 .94569.07543 1.31811.07543.67226 0 1.02018-.29889 1.02018-.77126 0-.27343-.12446-.62229-.12446-.99471 0-.84575.72128-1.54252 1.59157-1.54252.8702 0 1.567.72129 1.567 1.59154 0 .92023-.7213 1.34358-1.2681 1.54252-.4479.14897-.79676.34791-.79676.79577 0 .84291 1.54256 1.6632 1.54256 4.02599zm-.4979 12.4862c0-2.4608-1.81497-4.4512-4.27677-4.4512-2.46274 0-4.27774 1.9894-4.27774 4.4512 0 2.4373 1.815 4.4522 4.27774 4.4522 2.46086 0 4.27677-2.0177 4.27677-4.4522zm-1.46611-12.5362c0-1.5661-1.26815-2.8597-2.80972-2.8597-1.54251 0-2.80971 1.2936-2.80971 2.8597 0 1.567 1.2672 2.8606 2.80971 2.8606 1.54157 0 2.80972-1.2936 2.80972-2.8606zm10.91541-4.42673c.7958 0 1.3926.59683 1.3926 1.34263s-.5723 1.34262-1.3671 1.34262c-.8212 0-1.2691-.52139-2.0894-.52139-.7957 0-1.418.57137-1.418 1.54157v7.8333c0 .2803-.1114.5491-.3096.7473s-.4671.3096-.7474.3096-.5491-.1114-.7473-.3096c-.1983-.1982-.3096-.467-.3096-.7473v-10.54402c-.0018-.13883.0239-.27665.0755-.40556s.1281-.24638.2251-.34569c.097-.09932.2127-.17852.3404-.23307.1276-.05456.2648-.0834.4037-.08488 1.0692 0 .8702 1.01923 1.9394 1.01923 1.0202 0 1.3926-.94474 2.6117-.94474zm2.3138 6.26713c0-3.75536 2.5863-6.46608 6.1427-6.46608 3.2576 0 5.8439 2.38732 5.8439 5.64588 0 .7703-.4969 1.2926-1.2182 1.2926h-8.0822c-.3488 0-.4733.1245-.4733.3979 0 .6223.4978 1.766 1.2446 2.5118.7448.7458 1.765 1.1936 3.2076 1.1936 1.0692 0 2.0139-.3979 2.7352-.9202.2235-.1735.4724-.2734.7213-.2734.5223 0 .9447.4723.9447.9702 0 .2979-.099.5468-.3479.7703-1.0447.8712-2.5118 1.3436-4.1033 1.3436-3.8544 0-6.6151-2.7852-6.6151-6.4662zm8.8035-3.58093c-.6968-.69677-1.5916-1.04469-2.6608-1.04469s-2.0648.42334-2.7852 1.14369c-.5723.57233-.9702 1.31813-.9702 1.81593 0 .2489.149.3489.4724.3489h6.4661c.298 0 .4479-.1.4479-.3489 0-.5968-.4724-1.418-.9702-1.91493zm5.3224 3.58093c0-3.75536 2.5853-6.46608 6.1418-6.46608 3.2585 0 5.8447 2.38732 5.8447 5.64588 0 .7703-.4978 1.2926-1.2191 1.2926h-8.0821c-.3489 0-.4724.1245-.4724.3979 0 .6223.4969 1.766 1.2436 2.5118.7458.7458 1.765 1.1936 3.2076 1.1936 1.0692 0 2.0149-.3979 2.7352-.9202.2244-.1735.4734-.2734.7213-.2734.5224 0 .9457.4723.9457.9702 0 .2979-.0999.5468-.3488.7703-1.0438.8712-2.5109 1.3436-4.1034 1.3436-3.8544 0-6.6141-2.7852-6.6141-6.4662zm8.8025-3.58093c-.6958-.69677-1.5915-1.04469-2.6607-1.04469s-2.0639.42334-2.7852 1.14369c-.5714.57233-.9702 1.31813-.9702 1.81593 0 .2489.1499.3489.4733.3489h6.4652c.2988 0 .4478-.1.4478-.3489 0-.5968-.4724-1.418-.9702-1.91493zm15.643 9.92263c-.1408.0011-.2804-.0258-.4107-.0791s-.2486-.132-.3482-.2315-.1784-.2178-.2319-.348c-.0534-.1303-.0804-.2698-.0794-.4106v-6.7641c0-1.7659-1.3926-3.10856-3.1831-3.10856-1.815 0-3.2076 1.36716-3.2076 3.10856v6.7641c0 .2803-.1113.5492-.3095.7474-.1983.1982-.4671.3095-.7474.3095s-.5492-.1113-.7474-.3095-.3096-.4671-.3096-.7474v-10.56943c0-.57232.4724-1.04469 1.0193-1.04469 1.0447 0 .9947.94569 1.5425.94569.5468 0 1.2926-1.07015 3.2321-1.07015 2.7107 0 4.8246 2.26286 4.8246 4.97448v6.7641c.0017.1388-.0239.2765-.0754.4053-.0515.1289-.1279.2463-.2249.3456-.0969.0993-.2125.1785-.34.2332-.1276.0546-.2647.0835-.4034.0851zm14.2748 0c-.1408.0011-.2803-.0258-.4106-.0791s-.2487-.132-.3483-.2315-.1784-.2178-.2318-.348c-.0534-.1303-.0804-.2698-.0794-.4106v-6.765c0-1.765-1.3926-3.1086-3.1831-3.1086-1.815 0-3.2076 1.3671-3.2076 3.1086v6.765c0 .2803-.1114.5492-.3096.7474s-.467.3095-.7474.3095c-.2803 0-.5491-.1113-.7473-.3095s-.3096-.4671-.3096-.7474v-16.76212c0-.28032.1114-.54915.3096-.74737s.467-.309571.7473-.309571c.2804 0 .5492.111351.7474.309571s.3096.46705.3096.74737v5.49686c0 .29794.1235.47143.4469.47143.5469 0 1.2936-.94475 3.234-.94475 2.7098 0 4.8237 2.26286 4.8237 4.97358v6.765c.0017.1388-.024.2766-.0755.4056-.0516.1289-.1281.2463-.2251.3457-.0971.0993-.2127.1785-.3404.233-.1277.0546-.2649.0834-.4037.0849zm3.9506-6.3417c0-3.60545 2.8851-6.46608 6.5151-6.46608 3.6319 0 6.5161 2.86063 6.5161 6.46608 0 3.6065-2.8851 6.4662-6.5151 6.4662-3.6291 0-6.5152-2.8597-6.5152-6.4662zm10.9202 0c0-2.5117-1.865-4.57565-4.4022-4.57565-2.5118 0-4.3768 2.06485-4.3768 4.57565 0 2.5118 1.865 4.5757 4.3768 4.5757 2.5362 0 4.4022-2.0639 4.4022-4.5757zm6.0654-6.34162c.5968 0 1.0692.47143 1.0692 1.0692v6.76402c0 1.766 1.3926 3.1086 3.1839 3.1086 1.815 0 3.208-1.3671 3.208-3.1086v-6.76402c0-.28032.111-.54915.309-.74737s.467-.30957.748-.30957c.28 0 .549.11135.747.30957s.31.46705.31.74737v10.56942c0 .5714-.473 1.0438-1.02 1.0438-1.044 0-.994-.9448-1.542-.9448-.547 0-1.293 1.0692-3.2332 1.0692-2.7107 0-4.8237-2.2628-4.8237-4.9736v-6.76402c.0019-.59683.4724-1.0692 1.0438-1.0692zm13.3291 11.88752c-.472-.2989-.796-.5968-.796-1.1691 0-.5469.423-.9693.945-.9693.622 0 .896.3725 1.418.6459.646.3734 1.393.5723 2.313.5723 1.69 0 2.536-.7713 2.536-1.716 0-1.3426-1.243-1.5915-2.934-2.0394-2.089-.5469-4.103-1.1691-4.103-3.581 0-2.13838 1.64-3.75538 4.55-3.75538 1.145 0 2.214.29889 3.059.82029.298.17443.597.5478.597.97114 0 .54686-.448 1.01829-1.02 1.01829-.373 0-.671-.24797-1.045-.49689-.372-.24797-.92-.47143-1.666-.47143-1.666 0-2.387.72035-2.387 1.69058 0 1.2681 1.219 1.5661 2.96 1.9894 2.039.4969 4.053 1.1437 4.053 3.6055 0 2.1393-1.591 3.8054-4.65 3.8054-1.493 0-2.835-.2989-3.83-.9203zm10.47-5.5459c0-3.75536 2.587-6.46608 6.143-6.46608 3.258 0 5.844 2.38732 5.844 5.64588 0 .7703-.497 1.2926-1.218 1.2926h-8.082c-.349 0-.473.1245-.473.3979 0 .6223.497 1.766 1.243 2.5118.747.7458 1.766 1.1936 3.209 1.1936 1.069 0 2.013-.3979 2.735-.9202.224-.1735.472-.2734.721-.2734.522 0 .945.4723.945.9702 0 .2979-.099.5468-.348.7703-1.045.8712-2.512 1.3436-4.103 1.3436-3.853 0-6.616-2.7852-6.616-6.4662zm8.807-3.58093c-.697-.69677-1.592-1.04469-2.661-1.04469-1.07 0-2.065.42334-2.786 1.14369-.572.57233-.969 1.31813-.969 1.81593 0 .2489.149.3489.472.3489h6.466c.298 0 .447-.1.447-.3489 0-.5968-.472-1.418-.969-1.91493z" fill="#008561"/></g></svg>