<svg fill="none" height="30" viewBox="0 0 126 30" width="126" xmlns="http://www.w3.org/2000/svg" xmlns:xlink="http://www.w3.org/1999/xlink"><linearGradient id="a" gradientUnits="userSpaceOnUse" x1="63" x2="63" y1=".176575" y2="29.8263"><stop offset="0" stop-color="#3d5afe"/><stop offset=".316277" stop-color="#3d5afe"/><stop offset=".696508" stop-color="#ff5252"/><stop offset="1" stop-color="#ff5252"/></linearGradient><path clip-rule="evenodd" d="m74.2781.222997c-1.1709.146872-2.203.657733-3.0578 1.513473-.8043.80523-1.2734 1.66999-1.5315 2.82339-.0704.31454-.0858.56509-.1019 1.6573l-.0191 1.28673h-1.046-1.046v1.8323 1.83231h1.0499 1.05v5.2704 5.2704h2.0999 2.1v-5.2704-5.2704h1.5646 1.5647v-1.83231-1.8323h-1.5647-1.5646v-.93839c0-1.00924.0303-1.22751.2239-1.60941.1361-.26859.468-.62418.7722-.82734.5279-.35245 1.1151-.41615 1.7626-.19121.1699.059.3257.11199.3463.11772.0206.00576.3215-.65654.6687-1.47181.5837-1.37077.6258-1.48643.5596-1.5372-.1213-.092887-.7559-.400342-1.0599-.513492-.8575-.319231-1.8294-.427852-2.7709-.309761zm-68.5228 6.463563c-1.03304.10784-2.00424.47026-3.04816 1.13755-.87271.55788-1.808824 1.45278-2.4064 2.30049-.170795.2423-.3060557.4443-.3005794.4489.1248434.1045 3.1884894 1.9126 3.2407394 1.9126.0203 0 .16577-.1714.32331-.3809.15749-.2094.45066-.5383.65143-.7308 1.23167-1.1808 2.47932-1.44084 3.24399-.6762.69977.6998.47487 1.4457-.80687 2.6764-.51597.4954-2.17451 1.9493-4.41147 3.8672l-1.632848 1.4-.000618 1.5339-.000617 1.5339 6.083643-.0104 6.08365-.0105v-1.8528-1.8529l-3.15758-.0206-3.15756-.0206.29477-.247c1.42392-1.1934 4.18037-3.6392 4.42227-3.924.6459-.7602.9825-1.5206 1.0849-2.451.1114-1.0132-.1403-1.88899-.7953-2.76627-.6966-.93299-1.57473-1.45942-2.87422-1.7231-.90322-.18328-1.95018-.23639-2.83648-.14387zm52.0577.08009c-2.3128.26949-4.3817 1.55037-5.6469 3.49595-.2955.4546-.7131 1.3194-.8695 1.8012-.2685.8268-.3779 1.765-.3251 2.7899.1092 2.1239 1.2558 4.2313 3.0305 5.5698 1.3976 1.0541 2.8761 1.5365 4.702 1.5343 1.8121-.0022 3.2741-.4905 4.7045-1.571 1.3924-1.0519 2.4897-2.7869 2.8288-4.4729.4472-2.2229-.0429-4.3639-1.4112-6.1651-.9295-1.22352-2.1451-2.09145-3.6539-2.60886-1.0433-.35777-2.2968-.49707-3.3592-.37329zm59.963.04619c-1.876.10426-3.822 1.00999-5.092 2.36968-1.075 1.14998-1.771 2.56528-2.021 4.10648-.082.5037-.07 1.8026.021 2.301.205 1.1184.791 2.4089 1.541 3.3902.474.6204 1.306 1.3765 2.023 1.8397 1.928 1.246 4.257 1.5702 6.379.8881.84-.2699 1.952-.8922 2.678-1.4983 1.438-1.2002 2.279-2.6726 2.624-4.5943.095-.5279.095-1.539 0-2.0289-.112-.5788-.443-1.4254-1.022-2.616-.114-.2334-.2-.4305-.192-.438s.288-.1298.622-.2718l.608-.2581v-1.43462-1.43467h-2.68c-2.516 0-2.699-.0049-2.996-.07984-.874-.22103-1.595-.29061-2.493-.24063zm-14.704.09207c-1.205.2298-1.965.61973-2.893 1.48379l-.3395.31639v-.78587-.78591h-1.9764-1.9764v7.28799 7.288h2.0175 2.0176v-3.8888c0-2.3544.0171-4.0968.0433-4.416.0709-.8662.2249-1.1975.8379-1.8041.656-.6491 1.402-.8471 2.317-.6154.318.0805.857.3477 1.069.5301.219.1879.461.5522.575.8676.17.4668.181.7899.181 5.1576v4.169h2.019 2.02l-.013-5.2189-.013-5.219-.095-.4517c-.42-1.9952-1.275-3.08074-2.868-3.64316-.48-.16951-.932-.27328-1.429-.32837-.576-.06374-.934-.05015-1.494.05674zm-67.6703.02528c-1.1855.22758-1.9356.63653-2.7547 1.50179l-.3349.35382v-.80568-.80563h-1.9764-1.9764v7.28801 7.288h2.0364 2.0365l.014-4.3749c.0123-3.8064.0224-4.4016.0778-4.5807.237-.7651.979-1.5343 1.6952-1.7571.3033-.0945.8505-.099 1.1957-.0099.7774.2005 1.3002.7259 1.5331 1.5405.0721.2521.0773.5254.0891 4.7043l.0126 4.4366h2.0144 2.0144l.0156-4.1895c.0165-4.4481.0143-4.3964.2115-4.9453.1562-.4347.6663-1.0326 1.1389-1.3349.36-.2303.5803-.2923 1.0467-.2943.4229-.0018.7563.077 1.1394.2692.2664.1337.63.508.7845.8078.3198.6203.3195.6143.3198 5.4357l.0004 4.2513h2.0194 2.0194l-.0152-4.5189c-.0133-3.9259-.0243-4.5853-.0838-5.0237-.1672-1.2318-.4744-2.34016-.8245-2.97463-.4961-.89898-1.2076-1.56169-2.1442-1.99733-.6488-.30177-.7966-.32952-1.7329-.32561-.7235.00301-.8865.01664-1.3424.1122-1.2754.26744-2.0194.67861-3.2526 1.79751-.3009.27307-.316.28135-.3557.1948-.0714-.15577-.5693-.74696-.8205-.97417-.3025-.27373-.8382-.62845-1.1894-.78772-.7532-.34151-1.7431-.44827-2.6112-.28156zm48.7089.0635c-.9508.14143-2.2415.67725-3.087 1.28149-.44.31446-1.2116 1.04038-1.5654 1.47276-.969 1.18436-1.4551 2.44246-1.5592 4.03516-.109 1.6686.2416 3.287.9661 4.4586 1.1474 1.8558 2.9535 3.1142 4.9807 3.4705.6462.1135 1.6816.1252 2.2325.025 1.0595-.1927 2.0309-.6559 2.86-1.3637l.3192-.2724v.8041.8041h2.0587 2.0588v-7.2883-7.28843l-2.1308.01066-2.1309.01067-.0111.79019-.0112.79024-.4212-.42164c-.6476-.64838-1.2329-.98936-2.0553-1.1975-.7591-.19212-1.7167-.23861-2.5039-.1215zm-69.1744 1.82756v1.77025l3.1174.0106 3.1173.0105-2.1085 1.8072-2.1086 1.8071v1.0815 1.0816l1.6779.0207c1.7485.0215 1.9433.0387 2.479.2185 1.0195.3422 1.529 1.0659 1.5306 2.1735.0007.4642-.0891.9076-.2401 1.1859-.2306.425-.6678.812-1.0846.96-.3124.111-1.3379.2366-1.6864.2067-.6278-.054-1.1299-.2222-1.6059-.5381-.2614-.1734-.6938-.5947-1.2434-1.2113l-.2732-.3064-.1578.1421c-.0868.0781-.6899.6207-1.3401 1.2056l-1.1821 1.0636.6433.7478c1.0449 1.2146 1.2634 1.4148 1.8857 1.7277.4231.2128.5685.2672 1.079.4034.6233.1664 1.2001.2393 2.1327.2697 1.417.0462 2.564-.1737 3.6704-.7035 1.1982-.5739 2.0268-1.3862 2.569-2.5183.7433-1.5518.7577-3.4927.0364-4.9234-.3681-.7301-.9923-1.4586-1.5927-1.8584-.5199-.3464-1.5112-.7688-2.0582-.8771-.0736-.0145-.1338-.0395-.1338-.0555 0-.0159.8616-.84 1.9146-1.8313l1.9147-1.8023v-1.51936-1.51928h-5.4763-5.4763zm44.7147 1.97625c1.3389.3831 2.3811 1.574 2.5997 2.9705.1095.7-.029 1.6121-.3387 2.2302-.2958.5903-.8824 1.2265-1.4318 1.5529-1.799 1.0687-4.1459.3228-5.0665-1.6102-.5427-1.1397-.4585-2.5343.2167-3.5898.4135-.6465 1.1427-1.2334 1.8379-1.4795.6141-.2174 1.569-.2498 2.1827-.0741zm26.9773.0224c1.2848.3323 2.3162 1.4577 2.5702 2.8045.093.4928.0625 1.386-.0621 1.8193-.42 1.4602-1.7657 2.4775-3.2774 2.4775-1.1114 0-1.9632-.3383-2.6954-1.0706-.5112-.5114-.7423-.9089-.9362-1.6108-.1123-.4064-.1013-1.4322.0199-1.8543.1967-.6854.4912-1.17 1.0188-1.6766.7395-.7099 1.5517-1.0117 2.6211-.9737.2637.0094.5972.0475.7411.0847zm32.6048.0151c.615.1585 1.121.4541 1.589.9281.58.5878.9 1.1869 1.047 1.9582.063.3304.055 1.1315-.016 1.4696-.268 1.2859-1.305 2.416-2.545 2.7743-.381.1101-1.217.1525-1.622.0821-1.332-.2319-2.433-1.2319-2.845-2.584-.099-.3271-.11-.427-.112-1.0214-.001-.495.016-.7299.07-.9446.255-1.0131 1.014-1.955 1.943-2.4101.361-.1771.584-.2453 1.132-.3471.22-.0409 1.06.0177 1.359.0949zm-8.564 11.4876c0 .0882.019.3522.043.5867.269 2.6605 1.858 4.9351 4.305 6.1616 2.034 1.0199 4.568 1.0061 6.604-.0358 2.111-1.0803 3.586-2.9646 4.092-5.2291.096-.4293.19-1.1774.19-1.5099v-.1338h-1.929-1.929l-.026.3602c-.091 1.2588-.896 2.4354-2.065 3.018-.616.3065-.945.3818-1.668.3818-.484 0-.659-.0169-.926-.0893-1.401-.3799-2.467-1.5022-2.756-2.901-.036-.1723-.065-.416-.065-.5415v-.2282h-1.935-1.935z" fill="url(#a)" fill-rule="evenodd"/></svg>