<svg fill="none" height="27" viewBox="0 0 94 27" width="94" xmlns="http://www.w3.org/2000/svg" xmlns:xlink="http://www.w3.org/1999/xlink"><clipPath id="a"><path d="m0 .993896h94v25.4221h-94z"/></clipPath><g clip-path="url(#a)" fill="#100e0f"><path d="m18.1038 11.8658h-7.9025c-.0979.0006-.1915.04-.2604.1094-.06894.0694-.10762.1633-.10762.2611v3.8626c0 .0976.03877.1912.10778.2602.06904.069.16264.1077.26024.1077h3.0821v4.7995s-.6916.2349-2.6098.2349c-2.25745 0-5.41009-.8247-5.41009-7.7564 0-6.93163 3.28312-7.84767 6.36529-7.84767 2.6672 0 3.8182.46977 4.5489.69682.0536.01037.1087.00879.1616-.00463.0529-.01341.1022-.03833.1443-.07299.0421-.03465.0761-.07817.0995-.12746.0233-.04929.0355-.10314.0357-.15768l.8821-3.73203c.0017-.05571-.0103-.111-.0348-.16103-.0246-.05004-.061-.09331-.1061-.12605-.2976-.21139-2.1088-1.226606-6.6864-1.226606-5.27438 0-10.68190078 2.244436-10.68190078 13.028126 0 10.7837 6.19306078 12.394 11.41010078 12.394 4.3218 0 6.9447-1.8477 6.9447-1.8477.0414-.033.0738-.0759.0943-.1247.0206-.0488.0285-.1019.0231-.1546v-12.0364c.0021-.0979-.0346-.1926-.1021-.2635-.0674-.0709-.1602-.1122-.258-.1149z"/><path d="m58.8121 2.28575c.0003-.04832-.0088-.09624-.027-.14102-.0182-.04477-.045-.08553-.0789-.11995-.034-.03441-.0743-.0618-.1189-.08061-.0445-.01881-.0923-.02867-.1406-.02901h-4.4367c-.0978.00069-.1914.04004-.2603.10947-.069.06942-.1076.16329-.1076.26112v8.59675h-6.9421v-8.59675c0-.09783-.0387-.1917-.1076-.26112-.069-.06943-.1626-.10878-.2604-.10947h-4.4367c-.0978.00069-.1914.04004-.2603.10947-.069.06942-.1076.16329-.1076.26112v23.27425c-.0004.0487.0089.0969.0272.142s.0453.0862.0794.1208c.0342.0347.0749.0623.1197.0812s.093.0289.1416.0292h4.4367c.0487-.0003.0968-.0103.1416-.0292.0449-.0189.0855-.0465.1197-.0812.0342-.0346.0612-.0757.0795-.1208s.0275-.0933.0272-.142v-9.9538h6.9316v9.9538c0 .0985.039.1931.1084.263s.1637.1095.2622.1102h4.4576c.0485-.0003.0965-.0103.1412-.0292.0447-.019.0852-.0466.1191-.0813.034-.0347.0608-.0758.0788-.1209s.0269-.0932.0262-.1418z"/><path d="m26.4973 5.34188c-.0051-.56665-.1779-1.1191-.4964-1.58775-.3186-.46865-.7687-.83254-1.2937-1.04583s-1.1014-.26643-1.6566-.15273c-.5551.1137-1.0642.38916-1.4631.79166-.3989.40251-.6697.91406-.7784 1.47022-.1086.55615-.0503 1.13203.1678 1.65508.218.52304.5859.96987 1.0575 1.28417.4715.31431 1.0255.48204 1.5921.48207.3792.00001.7547-.0751 1.1047-.221s.6676-.3597.9346-.62904c.2669-.26935.4778-.58891.6205-.94023.1428-.35132.2145-.72743.211-1.10662z"/><path d="m26.179 20.6511v-10.74462c0-.09784-.0387-.19171-.1076-.26113-.0689-.06943-.1625-.10877-.2604-.10946h-4.4366c-.1039.00965-.2006.05736-.2714.13396s-.1108.17668-.1123.281v15.39785c0 .4515.2819.5846.6446.5846h3.9957c.4384 0 .5454-.214.5454-.5924z"/><path d="m75.7077 9.57239h-4.4053c-.0978.00069-.1914.04003-.2604.10946-.0689.06942-.1076.16329-.1076.26113v11.41272c-.8055.5297-1.7475.8144-2.7116.8194-1.592 0-2.0148-.7203-2.0148-2.2783v-9.95382c.0004-.04832-.0088-.09625-.027-.14102-.0181-.04478-.045-.08554-.0789-.11995-.0339-.03442-.0743-.06181-.1188-.08062-.0445-.0188-.0923-.02866-.1406-.029h-4.4889c-.0978.00069-.1914.04003-.2603.10946-.069.06942-.1077.16329-.1077.26113v10.70022c0 4.6298 2.5811 5.7624 6.1305 5.7624 2.9099 0 5.2561-1.6102 5.2561-1.6102.0379.3193.0927.6364.1644.95.0322.0584.0789.1076.1356.1428.0566.0352.1214.0552.1881.0581l2.8499-.013c.0978-.0007.1914-.0401.2603-.1095.069-.0694.1076-.1633.1076-.2611v-15.61972c0-.09829-.039-.19255-.1085-.26205s-.1638-.10854-.2621-.10854z"/><path d="m87.7783 9.04776c-1.4779-.0089-2.9314.37766-4.2096 1.11964v-7.88165c0-.09783-.0387-.1917-.1076-.26112-.069-.06943-.1626-.10878-.2604-.10947h-4.4602c-.0978.00069-.1914.04004-.2603.10947-.069.06942-.1076.16329-.1076.26112v23.27425c-.0004.0487.0089.0969.0272.142s.0453.0862.0795.1208c.0341.0347.0748.0623.1196.0812.0449.0189.093.0289.1416.0292h3.0953c.0667-.0011.132-.0201.1889-.055.0569-.0348.1034-.0844.1347-.1433.0888-.3525.1516-.711.1879-1.0727 0 0 1.8269 1.7277 5.2744 1.7277 4.053 0 6.3784-2.0565 6.3784-9.2283 0-7.1717-3.7112-8.11384-6.2218-8.11384zm-1.7407 13.11424c-.9053-.0235-1.7895-.2787-2.5681-.7411v-7.3701c.7011-.4017 1.4777-.654 2.281-.7412 1.5894-.141 3.1317.3393 3.1317 4.1287-.0104 3.9982-.702 4.789-2.8446 4.7237z"/><path d="m38.9617 9.53589h-3.3353v-4.40797c0-.16702-.0862-.26098-.2793-.26098h-4.5515c-.1775 0-.261.0783-.261.24794v4.55411s-2.2783.55071-2.4323.59501c-.076.0231-.1424.0701-.1895.1341-.047.064-.0721.1415-.0715.2209v2.8707c-.0003.0487.0089.097.0272.1421s.0453.0861.0795.1208c.0342.0346.0748.0622.1197.0811.0448.019.0929.0289.1416.0292h2.3306v6.8769c0 5.1152 3.5858 5.6163 6.0025 5.6163.891-.0267 1.7746-.1706 2.6281-.428.0643-.0275.1188-.074.1561-.1332s.0556-.1284.0527-.1983v-3.15c-.0007-.0976-.0396-.1911-.1084-.2604s-.162-.1088-.2596-.1102c-.1957 0-.6916.0783-1.2057.0783-1.6364 0-2.1923-.7621-2.1923-1.7486v-6.5428h3.3484c.0487-.0003.0968-.0102.1416-.0292.0449-.0189.0855-.0465.1197-.0811.0342-.0347.0612-.0757.0795-.1208s.0275-.0934.0272-.1421v-3.58322c.0003-.04854-.0089-.09668-.0273-.14162-.0183-.04495-.0454-.08582-.0796-.12027s-.0749-.06179-.1197-.08044c-.0448-.01866-.0929-.02826-.1414-.02826z"/></g></svg>