<svg fill="none" height="65" viewBox="0 0 64 65" width="64" xmlns="http://www.w3.org/2000/svg"><path d="m21.1196 49.1261c7.3541 0 13.3159-5.9617 13.3159-13.3159s-5.9618-13.3159-13.3159-13.3159c-7.3542 0-13.31589 5.9617-13.31589 13.3159s5.96169 13.3159 13.31589 13.3159z" stroke="#010101" stroke-width="4.26108"/><path d="m32.1704 38.0753c7.3541 0 13.3158-5.9617 13.3158-13.3159 0-7.3541-5.9617-13.3159-13.3158-13.3159-7.3542 0-13.3159 5.9618-13.3159 13.3159 0 7.3542 5.9617 13.3159 13.3159 13.3159z" stroke="#010101" stroke-width="4.26108"/><path d="m43.4902 49.1261c7.3541 0 13.3159-5.9617 13.3159-13.3159s-5.9618-13.3159-13.3159-13.3159c-7.3542 0-13.3159 5.9617-13.3159 13.3159s5.9617 13.3159 13.3159 13.3159z" stroke="#010101" stroke-width="4.26108"/><path d="m32.1704 60.446c7.3541 0 13.3158-5.9618 13.3158-13.3159 0-7.3542-5.9617-13.3159-13.3158-13.3159-7.3542 0-13.3159 5.9617-13.3159 13.3159 0 7.3541 5.9617 13.3159 13.3159 13.3159z" stroke="#010101" stroke-width="4.26108"/><path d="m32.3052 13.9292v-10.6488" stroke="#fff" stroke-width="4.26108"/><path d="m24.8731 20.3208c0-2.6632-.3551-4.2611-1.7754-5.6815" stroke="#fff" stroke-width="4.26108"/><path d="m39.7617 20.3208c0-2.6632.3551-4.2611 1.7755-5.6815" stroke="#fff" stroke-width="4.26108"/><path d="m21.1196 45.9303c5.5891 0 10.12-4.531 10.12-10.1201 0-5.5892-4.5309-10.1201-10.12-10.1201-5.5892 0-10.1201 4.5309-10.1201 10.1201 0 5.5891 4.5309 10.1201 10.1201 10.1201z" fill="#2da9e1" stroke="#fff" stroke-width="2.13054"/><path d="m32.1704 34.8795c5.5891 0 10.12-4.5309 10.12-10.1201s-4.5309-10.1201-10.12-10.1201c-5.5892 0-10.1201 4.5309-10.1201 10.1201s4.5309 10.1201 10.1201 10.1201z" fill="#04a54f" stroke="#fff" stroke-width="2.13054"/><path d="m43.4902 45.9303c5.5891 0 10.12-4.531 10.12-10.1201 0-5.5892-4.5309-10.1201-10.12-10.1201-5.5892 0-10.1201 4.5309-10.1201 10.1201 0 5.5891 4.5309 10.1201 10.1201 10.1201z" fill="#eb2227" stroke="#fff" stroke-width="2.13054"/><path d="m32.1704 57.2501c5.5891 0 10.12-4.5309 10.12-10.12 0-5.5892-4.5309-10.1201-10.12-10.1201-5.5892 0-10.1201 4.5309-10.1201 10.1201 0 5.5891 4.5309 10.12 10.1201 10.12z" fill="#f2b24d" stroke="#fff" stroke-width="2.13054"/><path d="m30.1745 35.7672c0 5.0011-4.054 9.0548-9.0548 9.0548-5.0007 0-9.0548-4.0537-9.0548-9.0548" stroke="#fff" stroke-width="4.26108"/><path d="m21.1192 44.822c5.0008 0 9.0548-4.0537 9.0548-9.0548h-18.1095c0 5.0011 4.054 9.0548 9.0547 9.0548z" fill="#2da9e1"/><path d="m32.3052 43.7568v-38.70095" stroke="#010101" stroke-width="2.13054"/><path d="m23.0976 14.6394-4.2582-4.2579" stroke="#fff" stroke-width="4.26108"/><path d="m24.8477 35.9448.0252-15.624" stroke="#010101" stroke-width="2.13054"/><path d="m23.0975 14.6394-3.9032-3.9028" stroke="#010101" stroke-width="2.13054"/><path d="m24.8731 20.3208c0-2.6632-.3551-4.2611-1.7754-5.6815" stroke="#010101" stroke-width="2.13054"/><path d="m41.5371 14.6394 4.2583-4.2579" stroke="#fff" stroke-width="4.26108"/><g stroke="#010101"><path d="m39.7617 35.9448v-15.624" stroke-width="2.13054"/><path d="m41.5371 14.6394 3.9032-3.9028" stroke-width="2.13054"/><path d="m39.7617 20.3208c0-2.6632.3551-4.2611 1.7755-5.6815" stroke-width="2.13054"/><path d="m32.305 38.4304c1.3727 0 2.4856-1.1129 2.4856-2.4857 0-1.3727-1.1129-2.4856-2.4856-2.4856-1.3728 0-2.4857 1.1129-2.4857 2.4856 0 1.3728 1.1129 2.4857 2.4857 2.4857z" fill="#fff" stroke-width="2.13054"/><path d="m24.8479 38.4304c1.3728 0 2.4857-1.1129 2.4857-2.4857 0-1.3727-1.1129-2.4856-2.4857-2.4856-1.3727 0-2.4856 1.1129-2.4856 2.4856 0 1.3728 1.1129 2.4857 2.4856 2.4857z" fill="#fff" stroke-width="2.13054"/><path d="m19.1946 13.2222c1.3728 0 2.4856-1.1128 2.4856-2.4856 0-1.37277-1.1128-2.48562-2.4856-2.48562s-2.4856 1.11285-2.4856 2.48562c0 1.3728 1.1128 2.4856 2.4856 2.4856z" fill="#fff" stroke-width="2.13054"/><path d="m32.305 7.54151c1.3727 0 2.4856-1.11285 2.4856-2.48563 0-1.37277-1.1129-2.48563-2.4856-2.48563-1.3728 0-2.4857 1.11286-2.4857 2.48563 0 1.37278 1.1129 2.48563 2.4857 2.48563z" fill="#fff" stroke-width="2.13054"/><path d="m45.4402 13.2222c1.3728 0 2.4856-1.1128 2.4856-2.4856 0-1.37277-1.1128-2.48562-2.4856-2.48562s-2.4856 1.11285-2.4856 2.48562c0 1.3728 1.1128 2.4856 2.4856 2.4856z" fill="#fff" stroke-width="2.13054"/><path d="m39.7615 38.4304c1.3728 0 2.4856-1.1129 2.4856-2.4857 0-1.3727-1.1128-2.4856-2.4856-2.4856s-2.4856 1.1129-2.4856 2.4856c0 1.3728 1.1128 2.4857 2.4856 2.4857z" fill="#fff" stroke-width="2.13054"/><path d="m32.305 45.8873c1.3727 0 2.4856-1.1129 2.4856-2.4857 0-1.3727-1.1129-2.4856-2.4856-2.4856-1.3728 0-2.4857 1.1129-2.4857 2.4856 0 1.3728 1.1129 2.4857 2.4857 2.4857z" fill="#fff" stroke-width="2.13054"/><path d="m32.305 30.9735c1.3727 0 2.4856-1.1128 2.4856-2.4856s-1.1129-2.4856-2.4856-2.4856c-1.3728 0-2.4857 1.1128-2.4857 2.4856s1.1129 2.4856 2.4857 2.4856z" fill="#fff" stroke-width="2.13054"/></g><path d="m53.6099 35.8102h5.5031" stroke="#fff" stroke-width="3.19581"/><path d="m5.49609 35.8102h5.85831" stroke="#fff" stroke-width="3.19581"/><path d="m32.2168 62.6966v-5.4638" stroke="#fff" stroke-width="3.19581"/></svg>