<svg fill="none" height="34" viewBox="0 0 82 34" width="82" xmlns="http://www.w3.org/2000/svg" xmlns:xlink="http://www.w3.org/1999/xlink"><clipPath id="a"><path d="m0 .409485h82v33.581h-82z"/></clipPath><g clip-path="url(#a)" fill="#f54862"><path d="m38.9457 26.9618h-2.1398v-19.92286h-7.1301v-1.94379h16.4v2.0133h-7.1301z"/><path d="m51.9784 26.6136c-.068-.4178-.068-.8357-.068-1.3238v-1.1839h-.0679c-.4092.8356-1.0215 1.5323-1.8392 2.0899-.8231.4944-1.7637.7589-2.7239.7661-1.7025 0-2.9973-.5576-3.8142-1.6713-.8856-1.116-1.294-2.5787-1.294-4.3202v-8.8466h1.9758v8.011c0 .6966.0671 1.3932.203 2.0898.0688.5576.2734 1.1152.6139 1.6025.2717.4178.681.8356 1.0894 1.0449.4764.2788 1.0894.3483 1.7704.3483.5451 0 1.0223-.139 1.4987-.3483.4763-.2093.9527-.6271 1.294-1.0449.4084-.4873.7497-1.1144.8856-1.7415.2725-.8356.3405-1.672.3405-2.5076v-7.4542h1.975v12.8872c0 .6272.068 1.1848.068 1.6721zm7.3737.3483h-2.3428v-21.8667h2.3428zm5.4667-20.34931c0 .4139-.1562.75909-.467 1.03476-.3004.26646-.6879.41361-1.0894.41361s-.7891-.14715-1.0895-.41361c-.6232-.55135-.6232-1.44867-.0781-2.06952l.0781-.06873c.3004-.26646.688-.4136 1.0895-.4136s.789.14714 1.0894.4136c.3116.34519.467.75909.467 1.10349zm-.467 20.34931h-2.257v-14.4164h2.257zm4.8833 7.0285h-2.0734v-21.5199h2.0734v2.4991h.0718c.5725-.902 1.3589-1.6658 2.3601-2.1516.9293-.4857 1.9305-.6942 3.0027-.6942 1.0012 0 2.0742.2085 3.0036.5552.8702.3589 1.6512.904 2.2882 1.5971.6435.6935 1.1441 1.5267 1.5017 2.4287.7154 1.9446.7154 4.0961 0 5.9704-.3576.9028-.8582 1.7353-1.5017 2.4296-.637.693-1.418 1.2381-2.2882 1.597-.9294.4163-2.0024.6248-3.0036.5545-1.0004 0-2.0734-.2773-3.0027-.6935-.9294-.4858-1.7884-1.18-2.3601-2.0828h-.0718zm10.5835-14.3c0-.7638-.143-1.5275-.3577-2.2905-.2154-.696-.5815-1.3359-1.0723-1.8743-.5006-.556-1.0012-.9723-1.6447-1.2495-.7153-.3475-1.5017-.4866-2.2882-.4866-.7153 0-1.5017.1391-2.1452.4171-.6563.2867-1.2421.7131-1.7166 1.2495-.4998.5545-.8582 1.1792-1.1441 1.8743-.5719 1.4734-.5719 3.1076 0 4.581.2859.6951.6435 1.3199 1.1441 1.8743 1.0012 1.1113 2.4311 1.6666 3.8618 1.6666.7819.0028 1.5576-.1385 2.2882-.417.6435-.2773 1.216-.6943 1.6447-1.2496.4396-.574.8003-1.2044 1.0723-1.8743.2147-.6942.3577-1.4572.3577-2.221zm-53.7624-.3764c-.9223-.9692-2.271-2.0773-3.9024-3.116l.638-1.2464c.8513-1.6619 2.6967-5.74781 1.5619-7.34095-.5685-.76143-1.8453-1.1769-4.0453-1.1769-1.5603 0-3.1215.20774-4.6826.48497-.2398-1.41902-.6199-2.81073-1.1347-4.15466-.4967-1.31591-1.1355-2.077337-1.7743-2.28507-.1414-.069505-.3546-.069505-.4967-.069505-1.5604 0-4.2562 2.007825-6.8107 5.055105-2.76769 3.39324-4.68337 7.13241-5.251122 10.17891-.425619 2.5623-.2124187 6.0251 3.405732 8.3796.35534.7615.78095 1.4542 1.34871 2.0071 1.56034 1.6634 3.9727 2.4936 7.02388 2.4936 2.9091 0 6.599-.831 9.9337-2.2851 1.5604-.6927 2.8372-1.4541 3.8306-2.2163 1.0644-.831 1.6322-1.6619 1.6322-2.3538 0-.6927-.4256-1.4542-1.2769-2.3546zm-23.55585-2.77c-.2132 1.3159-.28426 2.0773.35456 4.9168-1.20657-1.3854-1.63219-3.255-1.20657-5.4705.49668-2.9083 2.34129-6.37104 4.96685-9.55655 1.00519-1.18864 2.12184-2.27836 3.33467-3.25423.99334-.76221 1.77354-1.17767 2.27024-1.17767h.0711c.4966.20773 1.3479 2.14762 1.9867 5.33234-2.4124.6232-4.61153 1.45413-6.45614 2.4928-2.19994 1.24641-3.76106 2.70051-4.54202 4.36241-.43741.7146-.70461 1.5202-.78095 2.3546zm7.45029-4.6389c-1.5619 0-2.83876.346-3.9032.9684 1.49006-1.4534 3.61893-2.4233 5.32146-3.11601 1.0274-.36431 2.069-.68736 3.1222-.96839.2124 1.3151.2835 2.631.2835 3.9462-1.7736-.5545-3.405-.831-4.82474-.831zm-4.68337 2.977c.99337-1.1082 2.98011-1.4541 4.75363-1.4541 1.419 0 3.0512.2772 4.8248.9004 0 1.1074-.1422 2.2156-.2835 3.3237-.4967 3.0465-1.7744 6.8552-5.32144 6.8552-1.20658 0-3.26439-.5544-4.18591-2.0078-.78095-1.2464-.99415-2.5623-.92309-3.8782-.14213-.9004.07107-2.6318 1.13551-3.7392zm15.60893.5545c-1.4884-.8363-3.0287-1.5766-4.6116-2.2164 0-1.5931-.1421-3.1855-.3545-4.77784 1.49-.27724 2.9801-.48497 4.4694-.48497 1.9867 0 2.6966.41547 2.8387.55448.2125.27645.1414 2.14603-1.7024 5.74703-.2132.4155-.4264.8309-.6396 1.1769zm-4.6826-.624c1.3334.5526 2.6361 1.1767 3.9024 1.8696-1.0718 1.7488-2.3328 3.3744-3.7603 4.8474-.8512.9004-1.8446 1.6618-2.909 2.285 1.2058-1.3151 2.0578-3.3237 2.4834-5.9547.1413-1.0387.2835-2.0086.2835-3.0473zm-5.7471 11.3566c2.767 0 7.095-2.2851 10.9264-8.6561 1.49.97 2.7676 2.0086 3.6189 2.9091.7091.7614.8512 1.1769.8512 1.2464 0 .4154-1.419 1.7306-4.3991 3.116-3.1214 1.4541-6.599 2.285-9.5073 2.285-2.34129 0-4.11562-.4842-5.39247-1.5228 1.27763.4147 2.55371.6224 3.90237.6224zm-5.67514-3.1855-.07106-.0687c.07028 0 .07028.0687.07028.0687z"/></g></svg>