<svg fill="none" height="19" viewBox="0 0 111 19" width="111" xmlns="http://www.w3.org/2000/svg" xmlns:xlink="http://www.w3.org/1999/xlink"><clipPath id="a"><path d="m0 .992493h111v17.205h-111z"/></clipPath><g clip-path="url(#a)" fill="#000"><path d="m13.7731 3.0198c-.6897-.68971-1.5466-1.19131-2.5916-1.52571s-2.27808-.501597-3.72019-.501597h-7.46131v16.657307h7.46131c1.42119 0 2.67519-.1672 3.72019-.5016s1.9019-.836 2.5916-1.5257 1.1913-1.5466 1.5257-2.5916.5016-2.2781.5016-3.72018c0-1.44211-.1672-2.67521-.5016-3.72022-.3344-1.045-.836-1.90191-1.5257-2.5707zm-2.5289 8.6108c-.1672.627-.4389 1.1286-.8151 1.5048s-.87777.6479-1.50481.8151c-.62698.1672-1.3794.2508-2.29898.2508h-2.508v-9.7394h2.508c.91958 0 1.672.0836 2.29898.2508.62704.1672 1.12861.4389 1.50481.8151s.6479.8778.8151 1.50481c.1672.62699.2508 1.3794.2508 2.29898 0 .91961-.0836 1.67201-.2508 2.29901z"/><path d="m28.8214 6.63545c-.418-.41797-.9405-.73147-1.5884-.91957-.6479-.209-1.4212-.2926-2.299-.2926h-6.6253v3.0096h6.4163c.4598 0 .7733.1045.9823.29259.1881.18809.2926.52254.2926.96143v.1463h-4.6189c-1.2749 0-2.2363.3344-2.9051 1.0032s-1.0032 1.6511-1.0032 2.9051.3344 2.2154 1.0032 2.9051 1.6511 1.0032 2.9051 1.0032h8.6735v-7.1269c0-.89872-.1045-1.65113-.2926-2.29904-.209-.6479-.5225-1.17038-.9405-1.58841zm-2.7797 8.04655h-3.5112c-.2926 0-.5434-.0836-.7106-.2508s-.2508-.3971-.2508-.6897c0-.3135.0836-.5434.2508-.7106s.3971-.2508.7106-.2508h3.5112z"/><path d="m37.6203 14.3894c-.1673-.1672-.2508-.4389-.2508-.8569v-5.09965h3.762v-3.00958h-3.762v-3.2813h-4.0755v3.2604h-1.6929v3.00962h1.6929v5.32951c0 .7106.0627 1.3167.2089 1.8183.1463.5016.3554.8987.6689 1.2122.3134.3135.7105.5434 1.2122.6688.5016.1463 1.1077.209 1.8182.209h3.9711v-3.0096h-2.6961c-.418 0-.6897-.0836-.8569-.2508z"/><path d="m53.922 6.63545c-.418-.41797-.9405-.73147-1.5884-.91957-.6479-.209-1.4212-.2926-2.2991-.2926h-6.6253v3.0096h6.4164c.4598 0 .7733.1045.9823.29259.1881.18809.2926.52254.2926.96143v.1463h-4.6189c-1.2749 0-2.2363.3344-2.9051 1.0032s-1.0033 1.6511-1.0033 2.9051.3345 2.2154 1.0033 2.9051 1.6511 1.0032 2.9051 1.0032h8.6735v-7.1269c0-.89872-.1045-1.65113-.2926-2.29904-.209-.6479-.5225-1.17038-.9405-1.58841zm-2.8006 8.04655h-3.5113c-.2926 0-.5434-.0836-.7105-.2508-.1672-.1672-.2508-.3971-.2508-.6897 0-.3135.0836-.5434.2508-.7106.1671-.1672.3971-.2508.7105-.2508h3.5113z"/><path d="m65.9393 7.55509h-3.1141c-.5017 0-.8986-.12537-1.1494-.3971-.272-.27167-.3974-.64789-.3974-1.14949s.1254-.87781.3974-1.14951c.2714-.2717.6477-.39709 1.1494-.39709h7.4614v-3.469407h-8.36c-1.6722 0-2.9259.417997-3.7623 1.233097-.8358.8151-1.2327 2.06911-1.2327 3.76201 0 1.69292.418 2.94689 1.2327 3.78288.8153.83602 2.0696 1.25402 3.7623 1.25402h3.1769c1.045 0 1.5884.5225 1.5884 1.5884s-.5228 1.5884-1.5884 1.5884h-7.7123v3.4694h8.527c1.6722 0 2.926-.418 3.7829-1.2749s1.2959-2.1109 1.2959-3.7829-.439-2.926-1.2959-3.762c-.8569-.83599-2.1107-1.29581-3.7618-1.29581z"/><path d="m78.3749 14.3894c-.167-.1672-.2508-.4389-.2508-.8569v-5.09965h3.7623v-3.00958h-3.7623v-3.2813h-4.0754v3.2604h-1.6927v3.00962h1.6927v5.32951c0 .7106.0627 1.3167.2092 1.8183.146.5016.3552.8987.6688 1.2122s.7104.5434 1.2121.6688c.5018.1463 1.1078.209 1.8182.209h3.971v-3.0096h-2.6962c-.3968 0-.6893-.0836-.8569-.2508z"/><path d="m94.6773 6.63545c-.418-.41797-.9402-.73147-1.5885-.91957-.6476-.209-1.4208-.2926-2.2988-.2926h-6.6256v3.0096h6.4164c.4601 0 .7737.1045.9823.29259.1882.18809.2925.52254.2925.96143v.1463h-4.6187c-1.2748 0-2.2361.3344-2.9048 1.0032-.6688.6688-1.0035 1.6511-1.0035 2.9051s.3347 2.2154 1.0035 2.9051c.6687.6897 1.6511 1.0032 2.9048 1.0032h8.6736v-7.1269c0-.89872-.1044-1.65113-.2925-2.29904-.2093-.6479-.5228-1.17038-.9407-1.58841zm-2.8006 8.04655h-3.5109c-.2931 0-.5434-.0836-.711-.2508-.167-.1672-.2508-.3971-.2508-.6897 0-.3135.0838-.5434.2508-.7106.1676-.1672.3974-.2508.711-.2508h3.5109z"/><path d="m106.214 11.4843 4.514-6.06102h-4.347l-2.487 3.53207-2.487-3.53207h-4.5145l4.5145 6.06102-4.7654 6.1655h4.5564l2.57-3.6575 2.551 3.6575h4.66z"/></g></svg>