<svg fill="none" height="527" viewBox="0 0 304 527" width="304" xmlns="http://www.w3.org/2000/svg" xmlns:xlink="http://www.w3.org/1999/xlink"><linearGradient id="a"><stop offset="0" stop-color="#eb5795"/><stop offset="1" stop-color="#eb5795" stop-opacity="0"/></linearGradient><linearGradient id="b" gradientUnits="userSpaceOnUse" x1="14.3033" x2="14.3033" xlink:href="#a" y1="353.83" y2="460.373"/><linearGradient id="c" gradientUnits="userSpaceOnUse" x1="293.809" x2="293.809" xlink:href="#a" y1="355.974" y2="462.517"/><linearGradient id="d"><stop offset="0" stop-color="#5e6294"/><stop offset="1" stop-color="#5e6294" stop-opacity="0"/></linearGradient><linearGradient id="e" gradientUnits="userSpaceOnUse" x1="56.0414" x2="56.0414" xlink:href="#d" y1="309.346" y2="404.74"/><linearGradient id="f" gradientUnits="userSpaceOnUse" x1="252.071" x2="252.071" xlink:href="#d" y1="311.49" y2="406.884"/><linearGradient id="g" gradientUnits="userSpaceOnUse" x1="69.2223" x2="69.2223" xlink:href="#d" y1="423.303" y2="478.949"/><linearGradient id="h" gradientUnits="userSpaceOnUse" x1="238.89" x2="238.89" xlink:href="#d" y1="425.447" y2="481.093"/><linearGradient id="i" gradientUnits="userSpaceOnUse" x1="207.792" x2="207.792" xlink:href="#a" y1="-213.909" y2="515.808"/><linearGradient id="j" gradientUnits="userSpaceOnUse" x1="152.596" x2="152.596" xlink:href="#a" y1="253.829" y2="462.285"/><linearGradient id="k" gradientUnits="userSpaceOnUse" x1="164.596" x2="164.596" xlink:href="#a" y1="220.454" y2="431.422"/><linearGradient id="l" gradientUnits="userSpaceOnUse" x1="140.596" x2="140.596" xlink:href="#a" y1="202.045" y2="410.502"/><linearGradient id="m" gradientUnits="userSpaceOnUse" x1="151.58" x2="215.287" y1="34.8125" y2="253.731"><stop offset="0" stop-color="#5e6294"/><stop offset="1" stop-color="#878bb2"/></linearGradient><g stroke-linecap="round"><path d="m14.3033 363.716v87.87" opacity=".9" stroke="url(#b)" stroke-width="12.0822"/><path d="m293.809 365.859v87.871" opacity=".9" stroke="url(#c)" stroke-width="12.0822"/><path d="m56.0414 319.231v79.084" opacity=".5" stroke="url(#e)" stroke-width="6.59026"/><path d="m252.071 321.375v79.084" opacity=".5" stroke="url(#f)" stroke-width="12.0822"/><path d="m69.2223 429.069v46.132" opacity=".5" stroke="url(#g)" stroke-width="12.0822"/><path d="m238.89 431.213v46.132" opacity=".5" stroke="url(#h)" stroke-width="6.59026"/></g><circle cx="223.957" cy="329.482" fill="#cc4f83" r="2.74594"/><circle cx="30.2302" cy="321.977" fill="#5e6294" r="2.74594"/><circle cx="43.4105" cy="409.848" fill="#cc4f83" r="2.74594"/><circle cx="265.801" cy="420.778" fill="#5e6294" r="2.74594"/><circle cx="299.85" cy="340.597" fill="#5e6294" r="2.74594"/><path clip-rule="evenodd" d="m94.5335 526.426v-375.17h113.2585v375.17z" fill="url(#i)" fill-rule="evenodd" opacity=".9"/><path d="m152.596 273.17v171.923" opacity=".9" stroke="url(#j)" stroke-linecap="round" stroke-width="12"/><path d="m164.596 240.029v173.994" opacity=".9" stroke="url(#k)" stroke-linecap="round" stroke-width="12"/><path d="m140.596 221.387v171.922" opacity=".9" stroke="url(#l)" stroke-linecap="round" stroke-width="12"/><circle cx="151.58" cy="145.778" fill="url(#m)" opacity=".2" r="110.965"/><path clip-rule="evenodd" d="m151.58 284.303c76.505 0 138.525-62.02 138.525-138.525 0-76.5053-62.02-138.52507-138.525-138.52507-76.5056 0-138.5253 62.01977-138.5253 138.52507 0 76.505 62.0197 138.525 138.5253 138.525zm0-27.56c61.284 0 110.965-49.681 110.965-110.965 0-61.2844-49.681-110.9652-110.965-110.9652-61.2846 0-110.9653 49.6808-110.9653 110.9652 0 61.284 49.6807 110.965 110.9653 110.965z" fill="#5e6294" fill-rule="evenodd" opacity=".14"/><path d="m88.1706 203.918c-15.1789-6.575-25.7981-21.689-25.7981-39.284 0-16.452 9.2841-30.735 22.8988-37.896-.944-37.611 29.2987-68.7175 67.0337-68.7175s67.978 31.1066 67.034 68.7175c13.614 7.161 22.898 21.444 22.898 37.896 0 17.595-10.619 32.709-25.798 39.284l-2.477 65.83c.709 17.04 5.847 18.453 25.176 23.768 1.865.513 3.862 1.062 6 1.665-15.921 3.639-25.922 4.14-32.218 2.24l-1.144 30.397c-2.553 28.73-2.297 28.797 17.096 33.844 2.636.686 5.627 1.464 9.013 2.419-41.756 9.544-42.3-9.368-42.791-26.471-.098-3.417-.195-6.761-.617-9.792h-1.556c-.093 1.151-.185 2.268-.273 3.354l-.002.027c-1.948 23.92-2.617 32.129 1.139 35.75 1.962 1.892 5.132 2.53 9.959 3.503 5.047 1.016 11.905 2.398 21.087 5.958-49.237 6.856-49.199-8.783-49.135-35.41.01-4.143.02-8.551-.154-13.182h-1.478c-2.282 51.329.37 51.979 17.83 56.263 4.743 1.163 10.579 2.595 17.707 5.384-50.176 5.575-52.184-8.683-55.276-30.648-.548-3.891-1.13-8.024-2.02-12.332-.89 4.308-1.472 8.44-2.02 12.331-3.093 21.965-5.1 36.224-55.2757 30.649 7.1277-2.789 12.9637-4.221 17.7067-5.384 17.46-4.284 20.112-4.934 17.83-56.263h-1.478c-.174 4.631-.164 9.039-.154 13.182.064 26.627.102 42.266-49.1352 35.41 9.1819-3.56 16.0399-4.942 21.0872-5.958 4.827-.973 7.997-1.611 9.959-3.503 3.756-3.621 3.087-11.83 1.139-35.75-.089-1.093-.181-2.22-.275-3.381h-1.556c-.422 3.031-.519 6.375-.617 9.792-.491 17.103-1.035 36.015-42.7907 26.471 3.3855-.955 6.3761-1.733 9.013-2.419 19.3926-5.047 19.649-5.114 17.0952-33.844l-1.144-30.397c-6.2952 1.9-16.2963 1.399-32.2181-2.24 2.1382-.603 4.1354-1.152 6.0006-1.665 19.3291-5.315 24.4667-6.728 25.176-23.768z" fill="#ef7b4d"/><circle cx="102.987" cy="165.36" fill="#fefefe" r="31.9115"/><circle cx="102.262" cy="160.282" fill="#000" r="10.8789"/><circle cx="197.271" cy="165.36" fill="#fefefe" r="31.9115"/><circle cx="196.546" cy="160.282" fill="#000" r="10.8789"/><path d="m127.646 224.831s11.604 11.604 24.659 11.604 24.659-11.604 24.659-11.604v14.505c0 13.619-11.04 24.659-24.659 24.659-13.619 0-24.659-11.04-24.659-24.659z" fill="#fafafa"/><path d="m127.646 236.435s11.604 11.604 24.659 11.604 24.659-11.604 24.659-11.604v2.901c0 13.619-11.04 24.659-24.659 24.659-13.619 0-24.659-11.04-24.659-24.659z" fill="#202124"/><path d="m59.4453 215.163c-14.4242-19.164-23.0149-42.976-23.1213-68.806-.1714-41.626 21.7345-78.1924 54.7143-98.6031" opacity=".16" stroke="#5e6294" stroke-linecap="round" stroke-width="8.70314"/><circle cx="105.888" cy="37.7137" fill="#5e6294" opacity=".45" r="5.80209"/><rect fill="#5e6294" height="66.7241" rx="5.80209" width="13.0547" y="113.141"/><rect fill="#5e6294" height="66.7241" rx="5.80209" width="13.0547" x="290.105" y="113.141"/><path clip-rule="evenodd" d="m151.58 291.555c80.511 0 145.777-65.267 145.777-145.777 0-80.5111-65.266-145.778-145.777-145.778s-145.77788 65.2669-145.77788 145.778c0 80.51 65.26688 145.777 145.77788 145.777zm0-7.252c76.505 0 138.525-62.02 138.525-138.525 0-76.5055-62.02-138.52525-138.525-138.52525-76.5056 0-138.5253 62.01975-138.5253 138.52525 0 76.505 62.0197 138.525 138.5253 138.525z" fill="#5e6294" fill-opacity=".2" fill-rule="evenodd"/><path d="m136.997 90.7907c-1.458 6.8223-7.382 11.3393-13.232 10.0893-5.851-1.2502-9.602-6.7115-8.144-13.5338 1.458-6.8222 10.374-14.0697 16.224-12.8196 5.851 1.2502 6.61 9.4419 5.152 16.2641z" fill="#f77f4f"/></svg>