<svg fill="none" height="226" viewBox="0 0 192 226" width="192" xmlns="http://www.w3.org/2000/svg" xmlns:xlink="http://www.w3.org/1999/xlink"><linearGradient id="a" gradientUnits="userSpaceOnUse" x1="108.694" x2="134.107" y1="14.7603" y2="102.087"><stop offset="0" stop-color="#5e6294"/><stop offset="1" stop-color="#878bb2"/></linearGradient><linearGradient id="b" gradientUnits="userSpaceOnUse" x1="-32084" x2="41904.5" y1="21347.9" y2="21347.9"><stop offset="0" stop-color="#d6e6fd"/><stop offset="1" stop-color="#d2e3fd"/></linearGradient><linearGradient id="c" gradientUnits="userSpaceOnUse" x1="-25204.1" x2="40569.5" y1="2524.3" y2="2524.3"><stop offset="0" stop-color="#373282"/><stop offset="1" stop-color="#2e419b"/></linearGradient><linearGradient id="d" gradientUnits="userSpaceOnUse" x1="161.013" x2="126.898" y1="188.139" y2="215.46"><stop offset="0" stop-color="#ef7b4d"/><stop offset="1" stop-color="#ff8f62"/></linearGradient><linearGradient id="e" gradientUnits="userSpaceOnUse" x1="39.1074" x2="39.1074" y1="226.441" y2="170.409"><stop offset="0" stop-color="#5c75c9"/><stop offset="1" stop-color="#d2e3fd"/></linearGradient><linearGradient id="f"><stop offset="0" stop-color="#5c75c9"/><stop offset="1" stop-color="#2e419b"/></linearGradient><linearGradient id="g" gradientUnits="userSpaceOnUse" x1="28.3561" x2="28.3561" xlink:href="#f" y1="122.239" y2="284.042"/><linearGradient id="h" gradientUnits="userSpaceOnUse" x1="7062.64" x2="7062.64" xlink:href="#f" y1="8769.82" y2="17613.6"/><linearGradient id="i" gradientUnits="userSpaceOnUse" x1="163.193" x2="163.193" y1="229.579" y2="149.473"><stop offset="0" stop-color="#373282" stop-opacity="0"/><stop offset="1" stop-color="#2e419b"/></linearGradient><circle cx="108.694" cy="59.0241" fill="url(#a)" opacity=".2" r="44.2639"/><path clip-rule="evenodd" d="m108.694 114.282c30.518 0 55.258-24.74 55.258-55.2579s-24.74-55.2575-55.258-55.2575c-30.5176 0-55.2572 24.7396-55.2572 55.2575s24.7396 55.2579 55.2572 55.2579zm0-10.994c24.447 0 44.264-19.8176 44.264-44.2639s-19.817-44.2639-44.264-44.2639c-24.446 0-44.2636 19.8176-44.2636 44.2639s19.8176 44.2639 44.2636 44.2639z" fill="#5e6294" fill-rule="evenodd" opacity=".14"/><path d="m83.4005 82.2164c-6.0549-2.6227-10.2909-8.6518-10.2909-15.6703 0-6.5625 3.7034-12.26 9.1344-15.1166-.3766-15.0031 11.687-27.4114 26.74-27.4114 15.052 0 27.116 12.4083 26.739 27.4114 5.431 2.8566 9.135 8.5541 9.135 15.1166 0 7.0185-4.236 13.0476-10.291 15.6703l-.989 26.2596c.283 6.797 2.333 7.361 10.043 9.481.744.205 1.541.424 2.394.664-6.351 1.452-10.341 1.652-12.852.894l-.456 12.125c-1.019 11.461-.917 11.487 6.819 13.5 1.052.274 2.245.584 3.595.965-16.656 3.808-16.873-3.737-17.069-10.559-.039-1.363-.078-2.697-.246-3.906h-.621c-.037.459-.073.905-.109 1.338v.011c-.777 9.541-1.044 12.816.454 14.26.783.755 2.047 1.01 3.973 1.398 2.013.405 4.749.956 8.411 2.377-19.64 2.734-19.625-3.504-19.6-14.126.004-1.652.008-3.411-.061-5.258h-.59c-.91 20.475.148 20.735 7.112 22.443 1.893.464 4.221 1.036 7.064 2.148-20.015 2.224-20.816-3.464-22.05-12.226-.218-1.552-.45-3.2-.805-4.919-.355 1.719-.587 3.367-.806 4.919-1.234 8.762-2.035 14.45-22.0496 12.226 2.8431-1.112 5.1712-1.684 7.0633-2.148 6.9653-1.708 8.0223-1.968 7.1123-22.443h-.5897c-.0694 1.847-.0652 3.606-.0612 5.258.0255 10.622.0405 16.86-19.6001 14.126 3.6626-1.421 6.3983-1.972 8.4115-2.377 1.9254-.388 3.1901-.643 3.9729-1.398 1.498-1.444 1.2313-4.719.4543-14.26-.0356-.436-.0722-.886-.1097-1.349h-.6209c-.1684 1.209-.2067 2.543-.2459 3.906-.1961 6.822-.413 14.367-17.0692 10.559 1.3504-.381 2.5434-.691 3.5952-.965 7.7357-2.013 7.838-2.039 6.8193-13.5l-.4563-12.125c-2.5112.758-6.5006.558-12.8518-.894.8529-.24 1.6496-.459 2.3936-.664 7.7104-2.12 9.7598-2.684 10.0427-9.481z" fill="#ef7b4d"/><circle cx="89.3107" cy="66.8354" fill="#fefefe" r="12.7295"/><circle cx="89.0214" cy="64.8098" fill="#000" r="4.33959"/><circle cx="126.921" cy="66.8354" fill="#fefefe" r="12.7295"/><circle cx="126.631" cy="64.8098" fill="#000" r="4.33959"/><path d="m99.1472 90.5581s4.6288 4.6289 9.8368 4.6289c5.207 0 9.836-4.6289 9.836-4.6289v5.7861c0 5.4328-4.404 9.8368-9.836 9.8368-5.433 0-9.8368-4.404-9.8368-9.8368z" fill="#fafafa"/><path d="m99.1472 95.1875s4.6288 4.6289 9.8368 4.6289c5.207 0 9.836-4.6289 9.836-4.6289v1.1572c0 5.4323-4.404 9.8363-9.836 9.8363-5.433 0-9.8368-4.404-9.8368-9.8363z" fill="#202124"/><path d="m71.942 86.7018c-5.7539-7.6445-9.1807-17.1429-9.2231-27.4464-.0684-16.6048 8.6699-31.191 21.8254-39.3328" opacity=".16" stroke="#5e6294" stroke-linecap="round" stroke-width="3.47168"/><g fill="#5e6294"><circle cx="90.468" cy="15.9175" opacity=".45" r="2.31445"/><rect height="26.6162" rx="2.31445" width="5.20751" x="48.2292" y="46.0054"/><rect height="26.6162" rx="2.31445" width="5.20751" x="163.952" y="46.0054"/><path clip-rule="evenodd" d="m108.694 117.175c32.116 0 58.151-26.0352 58.151-58.1509s-26.035-58.150565-58.151-58.150565c-32.1154 0-58.1503 26.034865-58.1503 58.150565s26.0349 58.1509 58.1503 58.1509zm0-2.893c30.518 0 55.258-24.74 55.258-55.2578 0-30.5179-24.74-55.25755-55.258-55.25755-30.5176 0-55.2573 24.73965-55.2573 55.25755 0 30.5178 24.7397 55.2578 55.2573 55.2578z" fill-opacity=".2" fill-rule="evenodd"/></g><path d="m102.877 37.0899c-.581 2.7214-2.9445 4.5232-5.2782 4.0246-2.3337-.4987-3.8299-2.6772-3.2484-5.3986s4.1381-5.6124 6.4716-5.1138c2.334.4987 2.637 3.7664 2.055 6.4878z" fill="#f77f4f"/><path d="m191.181 224.844h-45.743l8.828-105.927h21.653z" fill="#5c75c9"/><path d="m175.718 118.916-7.25 71.998-.245 2.435-.669 6.662-1.054 10.476c-.397 3.935-2.238 7.582-5.167 10.234-2.929 2.653-6.738 4.122-10.687 4.123h-126.8461l9.201-91.582c.3967-3.935 2.2388-7.583 5.1691-10.236s6.74-4.121 10.6902-4.121z" fill="url(#b)"/><path d="m48.8549 118.917h126.8631l-1.969 19.544h-141.2664l.5242-5.21c.3992-3.931 2.2413-7.573 5.1692-10.221 2.928-2.649 6.7334-4.114 10.6789-4.113z" fill="url(#c)"/><path d="m168.24 193.349-.669 6.662-1.054 10.476c-.397 3.935-2.238 7.582-5.167 10.235-2.929 2.652-6.738 4.121-10.687 4.122h-17.655z" fill="#ef7b4d"/><g opacity=".71"><path d="m56.1264 163.524c4.6227 0 8.3702-3.753 8.3702-8.382s-3.7475-8.382-8.3702-8.382-8.3702 3.753-8.3702 8.382 3.7475 8.382 8.3702 8.382z" fill="#a1bff1" opacity=".71"/><path d="m86.2501 163.524c4.6227 0 8.3702-3.753 8.3702-8.382 0-4.63-3.7475-8.382-8.3702-8.382s-8.3702 3.752-8.3702 8.382c0 4.629 3.7475 8.382 8.3702 8.382z" fill="#fff" opacity=".71"/><path d="m117.049 163.524c4.622 0 8.37-3.753 8.37-8.382 0-4.63-3.748-8.382-8.37-8.382-4.623 0-8.371 3.752-8.371 8.382 0 4.629 3.748 8.382 8.371 8.382z" fill="#a1bff1" opacity=".71"/><path d="m148.187 163.524c4.623 0 8.37-3.753 8.37-8.382 0-4.63-3.747-8.382-8.37-8.382s-8.37 3.752-8.37 8.382c0 4.629 3.747 8.382 8.37 8.382z" fill="#fff" opacity=".71"/></g><g opacity=".71"><path d="m51.8215 188.547c4.6227 0 8.3701-3.753 8.3701-8.382 0-4.63-3.7474-8.382-8.3701-8.382s-8.3702 3.752-8.3702 8.382c0 4.629 3.7475 8.382 8.3702 8.382z" fill="#fff" opacity=".71"/><path d="m81.9396 188.547c4.6227 0 8.3702-3.753 8.3702-8.382 0-4.63-3.7475-8.382-8.3702-8.382s-8.3701 3.752-8.3701 8.382c0 4.629 3.7474 8.382 8.3701 8.382z" fill="#a1bff1" opacity=".71"/><path d="m112.738 188.547c4.623 0 8.37-3.753 8.37-8.382 0-4.63-3.747-8.382-8.37-8.382s-8.37 3.752-8.37 8.382c0 4.629 3.747 8.382 8.37 8.382z" fill="#fff" opacity=".71"/><path d="m143.877 188.547c4.622 0 8.37-3.753 8.37-8.382 0-4.63-3.748-8.382-8.37-8.382-4.623 0-8.371 3.752-8.371 8.382 0 4.629 3.748 8.382 8.371 8.382z" fill="#a1bff1" opacity=".71"/></g><g opacity=".71"><path d="m45.9384 214.396c4.6227 0 8.3702-3.753 8.3702-8.382s-3.7475-8.382-8.3702-8.382-8.3702 3.753-8.3702 8.382 3.7475 8.382 8.3702 8.382z" fill="#a1bff1" opacity=".71"/><path d="m76.0564 214.395c4.6228 0 8.3702-3.753 8.3702-8.382s-3.7474-8.382-8.3702-8.382c-4.6227 0-8.3701 3.753-8.3701 8.382s3.7474 8.382 8.3701 8.382z" fill="#fff" opacity=".71"/><path d="m106.855 214.395c4.623 0 8.37-3.753 8.37-8.382s-3.747-8.382-8.37-8.382-8.3703 3.753-8.3703 8.382 3.7473 8.382 8.3703 8.382z" fill="#a1bff1" opacity=".71"/></g><path d="m168.268 193.321-.028.028-35.232 31.495v-25.565c0-1.579.626-3.094 1.741-4.211s2.627-1.746 4.204-1.747z" fill="url(#d)"/><path d="m168.24 193.349-.669 6.662-27.776 24.833h-6.787z" fill="#ef7b4d" opacity=".35"/><path d="m39.1074 225.101c15.639 0 28.3169-12.696 28.3169-28.357s-12.6779-28.357-28.3169-28.357-28.3169 12.696-28.3169 28.357 12.6779 28.357 28.3169 28.357z" fill="url(#e)" opacity=".36"/><path d="m28.3561 225.458c15.639 0 28.3169-12.696 28.3169-28.357s-12.6779-28.356-28.3169-28.356c-15.6391 0-28.3169765 12.695-28.3169765 28.356s12.6778765 28.357 28.3169765 28.357z" fill="url(#g)"/><path d="m29.5607 203.166c2.7287 0 4.9407-2.215 4.9407-4.948 0-2.732-2.212-4.947-4.9407-4.947s-4.9407 2.215-4.9407 4.947c0 2.733 2.212 4.948 4.9407 4.948z" fill="#2e419b" opacity=".85"/><path d="m30.3647 196.437.9779.979 13.0635-13.082-.9779-.979z" fill="#2e419b" opacity=".85"/><path d="m54.8384 197.732c-.0037 6.673-2.3938 13.124-6.7372 18.184-4.3434 5.061-10.3529 8.396-16.9401 9.403 4.4817-.446 8.7928-1.955 12.5752-4.404 3.7825-2.448 6.9272-5.764 9.1732-9.673 2.2459-3.91 3.5284-8.299 3.7408-12.804s-.6513-8.996-2.5195-13.1c-1.8681-4.104-4.6868-7.702-8.2221-10.496-3.5353-2.795-7.6851-4.704-12.105-5.57-4.4199-.867-8.9824-.665-13.3088.589-4.3263 1.253-8.2917 3.522-11.56692 6.618 4.05472-3.442 9.00752-5.651 14.27452-6.368 5.2671-.717 10.6289.089 15.4538 2.323 4.8248 2.233 8.9115 5.802 11.7786 10.284 2.867 4.482 4.3949 9.692 4.4035 15.014z" fill="url(#h)"/><path d="m13.5052 213.438 1.8375 1.84 13.4933-13.512-1.8375-1.841z" fill="#2e419b" opacity=".85"/><path d="m17.752 187.235-1.806 1.809 8.6433 8.655 1.806-1.808z" fill="#2e419b" opacity=".85"/><path d="m28.3616 202.005c2.7286 0 4.9407-2.215 4.9407-4.948 0-2.732-2.2121-4.948-4.9407-4.948-2.7287 0-4.9407 2.216-4.9407 4.948 0 2.733 2.212 4.948 4.9407 4.948z" fill="#fff"/><path d="m12.1275 212.057-.0316-.032 13.4933-13.512 1.8375 1.84-11.6873 11.704c-.479.479-1.1286.749-1.806.749s-1.327-.27-1.8059-.749z" fill="#fff"/><path d="m17.2717 187.715c.2371-.237.5187-.426.8285-.554.3099-.129.642-.195.9774-.195s.6675.066.9774.195c.3098.128.5914.317.8286.554l6.8373 6.847-1.8059 1.809z" fill="#fff"/><path d="m29.4462 195.513.9779.98 13.0635-13.082-.9779-.979z" fill="#fff"/><path d="m175.718 118.917v99.053c0 1.823-.723 3.571-2.011 4.86-1.287 1.29-3.033 2.014-4.854 2.014h-18.19c3.949-.001 7.758-1.47 10.687-4.123 2.929-2.652 4.77-6.299 5.167-10.234l1.723-17.138z" fill="url(#i)" opacity=".51"/></svg>