<svg width="31" height="32" viewBox="0 0 31 32" fill="none"
    xmlns="http://www.w3.org/2000/svg">
    <path d="M10.3687 24.8375C10.3687 24.9625 10.225 25.0625 10.0437 25.0625C9.8375 25.0813 9.69375 24.9813 9.69375 24.8375C9.69375 24.7125 9.8375 24.6125 10.0188 24.6125C10.2063 24.5938 10.3687 24.6938 10.3687 24.8375ZM8.425 24.5563C8.38125 24.6813 8.50625 24.825 8.69375 24.8625C8.85625 24.925 9.04375 24.8625 9.08125 24.7375C9.11875 24.6125 9 24.4688 8.8125 24.4125C8.65 24.3688 8.46875 24.4313 8.425 24.5563ZM11.1875 24.45C11.0062 24.4938 10.8812 24.6125 10.9 24.7563C10.9187 24.8813 11.0813 24.9625 11.2688 24.9188C11.45 24.875 11.575 24.7563 11.5562 24.6313C11.5375 24.5125 11.3688 24.4313 11.1875 24.45ZM15.3 0.5C6.63125 0.5 0 7.08125 0 15.75C0 22.6813 4.3625 28.6125 10.5938 30.7C11.3938 30.8438 11.675 30.35 11.675 29.9438C11.675 29.5563 11.6562 27.4188 11.6562 26.1063C11.6562 26.1063 7.28125 27.0438 6.3625 24.2438C6.3625 24.2438 5.65 22.425 4.625 21.9563C4.625 21.9563 3.19375 20.975 4.725 20.9938C4.725 20.9938 6.28125 21.1188 7.1375 22.6063C8.50625 25.0188 10.8 24.325 11.6938 23.9125C11.8375 22.9125 12.2438 22.2188 12.6938 21.8063C9.2 21.4188 5.675 20.9125 5.675 14.9C5.675 13.1813 6.15 12.3188 7.15 11.2188C6.9875 10.8125 6.45625 9.1375 7.3125 6.975C8.61875 6.56875 11.625 8.6625 11.625 8.6625C12.875 8.3125 14.2188 8.13125 15.55 8.13125C16.8813 8.13125 18.225 8.3125 19.475 8.6625C19.475 8.6625 22.4813 6.5625 23.7875 6.975C24.6438 9.14375 24.1125 10.8125 23.95 11.2188C24.95 12.325 25.5625 13.1875 25.5625 14.9C25.5625 20.9313 21.8813 21.4125 18.3875 21.8063C18.9625 22.3 19.45 23.2375 19.45 24.7063C19.45 26.8125 19.4312 29.4188 19.4312 29.9313C19.4312 30.3375 19.7188 30.8313 20.5125 30.6875C26.7625 28.6125 31 22.6813 31 15.75C31 7.08125 23.9688 0.5 15.3 0.5ZM6.075 22.0563C5.99375 22.1188 6.0125 22.2625 6.11875 22.3813C6.21875 22.4813 6.3625 22.525 6.44375 22.4438C6.525 22.3813 6.50625 22.2375 6.4 22.1188C6.3 22.0188 6.15625 21.975 6.075 22.0563ZM5.4 21.55C5.35625 21.6313 5.41875 21.7313 5.54375 21.7938C5.64375 21.8563 5.76875 21.8375 5.8125 21.75C5.85625 21.6688 5.79375 21.5688 5.66875 21.5063C5.54375 21.4688 5.44375 21.4875 5.4 21.55ZM7.425 23.775C7.325 23.8563 7.3625 24.0438 7.50625 24.1625C7.65 24.3063 7.83125 24.325 7.9125 24.225C7.99375 24.1438 7.95625 23.9563 7.83125 23.8375C7.69375 23.6938 7.50625 23.675 7.425 23.775ZM6.7125 22.8563C6.6125 22.9188 6.6125 23.0813 6.7125 23.225C6.8125 23.3688 6.98125 23.4313 7.0625 23.3688C7.1625 23.2875 7.1625 23.125 7.0625 22.9813C6.975 22.8375 6.8125 22.775 6.7125 22.8563Z" fill="currentColor"/>
</svg>
