<svg width="329" height="325" viewBox="0 0 329 325" fill="none" xmlns="http://www.w3.org/2000/svg">
<path opacity="0.9" d="M232.128 228.888L299.72 296.48" stroke="url(#paint0_linear)" stroke-width="40.0294" stroke-linecap="round"/>
<path opacity="0.9" d="M204.028 202.308L267.063 265.343" stroke="url(#paint1_linear)" stroke-width="3.22212" stroke-linecap="round"/>
<path opacity="0.9" d="M194.155 187.878L257.95 251.673" stroke="url(#paint2_linear)" stroke-width="3.22212" stroke-linecap="round"/>
<path opacity="0.9" d="M182.763 185.6L245.798 248.635" stroke="url(#paint3_linear)" stroke-width="3.22212" stroke-linecap="round"/>
<path d="M254.624 136.297L137.019 253.902L91.9051 191.207C82 177.4 77.3218 160.524 78.7051 143.588C80.0884 126.652 87.4432 110.759 99.4575 98.7428V98.7428C111.473 86.7258 127.368 79.3687 144.305 77.9841C161.242 76.5996 178.12 81.2777 191.928 91.1837L254.624 136.297Z" fill="#5C74C6"/>
<path d="M115.942 61.0749L232.288 177.421L178.142 231.567L61.7958 115.221C50.8377 104.261 42.736 90.7792 38.2012 75.9588L25.7544 35.244C25.3208 33.826 25.2812 32.3167 25.6399 30.8779C25.9987 29.439 26.7421 28.125 27.7906 27.0764C28.8392 26.0279 30.1533 25.2844 31.5921 24.9257C33.0309 24.567 34.5402 24.6066 35.9582 25.0402L76.6797 37.4803C91.5001 42.0151 104.981 50.1168 115.942 61.0749V61.0749Z" fill="url(#paint4_linear)"/>
<mask id="mask0" mask-type="alpha" maskUnits="userSpaceOnUse" x="59" y="58" width="48" height="48">
<path d="M94.436 93.7215C100.852 87.3059 100.852 76.9041 94.436 70.4884C88.0204 64.0728 77.6185 64.0728 71.2029 70.4884C64.7873 76.9041 64.7873 87.3059 71.2029 93.7215C77.6186 100.137 88.0204 100.137 94.436 93.7215Z" fill="white"/>
</mask>
<g mask="url(#mask0)">
<circle cx="84.0334" cy="83.8315" r="18.2587" transform="rotate(-45 84.0334 83.8315)" fill="white"/>
<path fill-rule="evenodd" clip-rule="evenodd" d="M93.4196 92.6986C98.7212 87.397 98.7212 78.8013 93.4196 73.4996C88.1179 68.1979 79.5222 68.1979 74.2205 73.4996C68.9189 78.8013 68.9189 87.397 74.2205 92.6986C79.5222 98.0003 88.1179 98.0003 93.4196 92.6986ZM92.942 92.2213C97.9799 87.1834 97.9799 79.0153 92.942 73.9774C87.9041 68.9395 79.736 68.9395 74.6981 73.9774C69.6602 79.0153 69.6602 87.1834 74.6981 92.2213C79.736 97.2592 87.9041 97.2592 92.942 92.2213Z" fill="#5E6294" fill-opacity="0.3"/>
<circle opacity="0.35" cx="83.8201" cy="83.0991" r="10.3338" transform="rotate(-45 83.8201 83.0991)" fill="#364C64"/>
<path opacity="0.3" fill-rule="evenodd" clip-rule="evenodd" d="M92.942 92.2211C97.9799 87.1832 97.9799 79.0151 92.942 73.9772C87.9041 68.9393 79.736 68.9393 74.6981 73.9772C69.6602 79.0151 69.6602 87.1832 74.6981 92.2211C79.736 97.259 87.9041 97.259 92.942 92.2211ZM91.1272 90.4065C95.1628 86.3709 95.1628 79.8279 91.1272 75.7923C87.0916 71.7567 80.5486 71.7567 76.513 75.7923C72.4774 79.8279 72.4774 86.3709 76.513 90.4065C80.5486 94.4421 87.0916 94.4421 91.1272 90.4065Z" fill="#364C64"/>
<path d="M83.4731 91.1033C82.0406 91.6699 80.3461 91.3739 79.1874 90.2153C78.1041 89.1319 77.7749 87.58 78.1999 86.2119C75.661 83.7974 75.6041 79.7575 78.089 77.2726C80.5739 74.7877 84.6137 74.8446 87.0283 77.3835C88.3964 76.9585 89.9483 77.2877 91.0316 78.3711C92.1902 79.5297 92.4863 81.2243 91.9197 82.6567L96.0915 87.1548C97.2603 88.2302 97.6916 87.9849 99.3145 87.0621C99.4711 86.9731 99.6387 86.8777 99.8193 86.7766C99.0104 88.0647 98.3848 88.7563 97.8452 89.0457L99.7715 91.1227C101.495 93.1827 101.517 93.1703 103.126 92.2256C103.345 92.0971 103.593 91.9514 103.879 91.7914C101.758 95.1695 100.476 93.9599 99.3177 92.866C99.0863 92.6475 98.8597 92.4336 98.6323 92.2618L98.5298 92.3643C98.5995 92.4463 98.6671 92.5258 98.7327 92.6031L98.7344 92.6051C100.181 94.3085 100.678 94.8931 101.164 94.8842C101.417 94.8796 101.668 94.7129 102.05 94.459C102.449 94.1937 102.992 93.833 103.831 93.4629C101.04 97.1566 100.013 96.1243 98.2636 94.3666C97.9915 94.0932 97.7019 93.8022 97.3854 93.5087L97.2881 93.6061C100.518 97.1364 100.735 97.0046 102.167 96.1369C102.556 95.9012 103.035 95.6111 103.688 95.3255C100.751 98.9966 99.6796 98.1899 98.0296 96.9472C97.7372 96.727 97.4268 96.4932 97.0845 96.2682C97.3096 96.6104 97.5434 96.9209 97.7635 97.2132C99.0063 98.8632 99.813 99.9344 96.1418 102.871C96.4275 102.218 96.7175 101.74 96.9533 101.351C97.821 99.9189 97.9527 99.7015 94.4224 96.4717L94.3251 96.5691C94.6186 96.8855 94.9096 97.1751 95.183 97.4472C96.9407 99.1964 97.973 100.224 94.2792 103.015C94.6494 102.176 95.01 101.633 95.2754 101.234C95.5292 100.852 95.6959 100.601 95.7006 100.347C95.7095 99.8615 95.1249 99.3649 93.4215 97.918C93.3436 97.8519 93.2633 97.7837 93.1807 97.7135L93.0782 97.816C93.25 98.0433 93.4639 98.2699 93.6824 98.5013C94.7763 99.66 95.9859 100.941 92.6078 103.062C92.7678 102.776 92.9135 102.528 93.0419 102.309C93.9866 100.7 93.9991 100.679 91.9391 98.9551L89.8621 97.0288C89.5726 97.5685 88.8811 98.1941 87.593 99.0029C87.6941 98.8224 87.7894 98.6547 87.8785 98.4981C88.8013 96.8752 89.0466 96.4439 87.9712 95.2751L83.4731 91.1033Z" fill="#EF7B4D"/>
<circle cx="81.9097" cy="87.5889" r="2.97181" transform="rotate(-45 81.9097 87.5889)" fill="#FEFEFE"/>
<circle cx="81.5276" cy="87.3022" r="1.01312" transform="rotate(-45 81.5276 87.3022)" fill="black"/>
<circle cx="88.1183" cy="81.3799" r="2.97181" transform="rotate(-45 88.1183 81.3799)" fill="#FEFEFE"/>
<circle cx="87.7362" cy="81.0933" r="1.01312" transform="rotate(-45 87.7362 81.0933)" fill="black"/>
<path d="M87.4497 89.8813C87.4497 89.8813 88.978 89.8813 89.8376 89.0217C90.6973 88.162 90.6973 86.6337 90.6973 86.6337L91.6525 87.5889C92.5493 88.4857 92.5493 89.9397 91.6525 90.8365V90.8365C90.7557 91.7333 89.3017 91.7333 88.4049 90.8365L87.4497 89.8813Z" fill="#FAFAFA"/>
<path d="M88.2139 90.6455C88.2139 90.6455 89.7421 90.6455 90.6018 89.7858C91.4615 88.9262 91.4615 87.3979 91.4615 87.3979L91.6525 87.5889C92.5493 88.4857 92.5493 89.9397 91.6525 90.8365V90.8365C90.7557 91.7333 89.3017 91.7333 88.4049 90.8365L88.2139 90.6455Z" fill="#202124"/>
<path opacity="0.09" d="M82.322 93.7356C80.1102 93.4235 77.9765 92.4212 76.2686 90.7273C73.5162 87.9975 72.5508 84.1471 73.3785 80.6313" stroke="white" stroke-width="0.810494" stroke-linecap="round"/>
<circle opacity="0.23" cx="73.6952" cy="78.9922" r="0.540329" transform="rotate(-45 73.6952 78.9922)" fill="white"/>
<rect x="71.6893" y="90.9316" width="1.21574" height="6.21379" rx="0.540329" transform="rotate(-45 71.6893 90.9316)" fill="#5E6294"/>
<rect x="90.7928" y="71.8281" width="1.21574" height="6.21379" rx="0.540329" transform="rotate(-45 90.7928 71.8281)" fill="#5E6294"/>
<path d="M79.2389 80.4385C79.5921 80.9838 79.4995 81.6713 79.0319 81.9743C78.5643 82.2772 77.9577 82.1646 77.6044 81.6193C77.2512 81.0741 77.3611 80.0097 77.8286 79.7068C78.2962 79.4039 78.8856 79.8933 79.2389 80.4385Z" fill="#F77F4F"/>
</g>
<path opacity="0.17" d="M80.2148 133.639L152.86 237.298L168.367 221.791L80.2148 133.639Z" fill="url(#paint5_linear)"/>
<path opacity="0.43" d="M134.361 79.4937L238.019 152.139L222.513 167.646L134.361 79.4937Z" fill="url(#paint6_linear)"/>
<path d="M247.64 216.475L219.446 244.67C218.822 245.294 218.069 245.774 217.241 246.077C216.412 246.38 215.527 246.499 214.647 246.424C213.768 246.349 212.916 246.084 212.15 245.645C211.384 245.207 210.723 244.607 210.213 243.886L191.854 217.855L220.852 188.857L246.877 207.222C247.599 207.733 248.201 208.396 248.64 209.165C249.078 209.934 249.343 210.789 249.416 211.671C249.489 212.553 249.368 213.44 249.061 214.27C248.754 215.1 248.269 215.853 247.64 216.475V216.475Z" fill="url(#paint7_linear)"/>
<path d="M117.147 116.432C120.312 113.267 120.312 108.135 117.147 104.969C113.982 101.804 108.85 101.804 105.684 104.969C102.519 108.135 102.519 113.267 105.684 116.432C108.85 119.597 113.982 119.597 117.147 116.432Z" fill="#A1BFF1"/>
<path d="M130.618 129.903C132.726 127.796 132.726 124.378 130.618 122.271C128.51 120.163 125.093 120.163 122.985 122.271C120.877 124.378 120.877 127.796 122.985 129.903C125.093 132.011 128.51 132.011 130.618 129.903Z" fill="#5C74C6"/>
<path opacity="0.19" d="M217.9 191.809L211.097 198.612L138.894 137.269L217.9 191.809Z" fill="url(#paint8_linear)"/>
<path d="M134.173 132.548L200.157 212.953C201.059 214.076 202.188 214.996 203.47 215.653C204.752 216.31 206.157 216.69 207.596 216.768C209.034 216.845 210.472 216.619 211.817 216.104C213.163 215.588 214.384 214.795 215.402 213.777V213.777C216.421 212.759 217.213 211.538 217.728 210.193C218.243 208.848 218.469 207.41 218.391 205.972C218.312 204.534 217.932 203.129 217.274 201.848C216.616 200.567 215.695 199.439 214.572 198.538L134.173 132.548Z" fill="url(#paint9_linear)"/>
<path opacity="0.23" d="M189.324 211.628C191.607 213.054 194.077 213.141 195.999 213.71L178.142 231.567L61.7959 115.221C50.8378 104.261 42.7361 90.7792 38.2012 75.9589L25.7545 35.2441C25.31 33.8238 25.2661 32.3085 25.6276 30.8649C25.9891 29.4213 26.742 28.1055 27.8033 27.0623C38.8365 50.9509 51.851 73.8735 66.7103 95.5899C99.9531 144.138 137.688 179.329 189.324 211.628Z" fill="url(#paint10_linear)"/>
<defs>
<linearGradient id="paint0_linear" x1="158.501" y1="155.261" x2="299.72" y2="296.48" gradientUnits="userSpaceOnUse">
<stop stop-color="#EB5795"/>
<stop offset="1" stop-color="#EB5795" stop-opacity="0"/>
</linearGradient>
<linearGradient id="paint1_linear" x1="196.936" y1="195.216" x2="273.366" y2="271.646" gradientUnits="userSpaceOnUse">
<stop stop-color="#EB5795"/>
<stop offset="1" stop-color="#EB5795" stop-opacity="0"/>
</linearGradient>
<linearGradient id="paint2_linear" x1="186.978" y1="180.701" x2="264.329" y2="258.052" gradientUnits="userSpaceOnUse">
<stop stop-color="#EB5795"/>
<stop offset="1" stop-color="#EB5795" stop-opacity="0"/>
</linearGradient>
<linearGradient id="paint3_linear" x1="175.671" y1="178.508" x2="252.102" y2="254.938" gradientUnits="userSpaceOnUse">
<stop stop-color="#EB5795"/>
<stop offset="1" stop-color="#EB5795" stop-opacity="0"/>
</linearGradient>
<linearGradient id="paint4_linear" x1="47630.8" y1="26249" x2="52009.6" y2="21870.2" gradientUnits="userSpaceOnUse">
<stop stop-color="#D6E6FD"/>
<stop offset="1" stop-color="#D2E3FD"/>
</linearGradient>
<linearGradient id="paint5_linear" x1="177.626" y1="246.558" x2="73.3319" y2="142.263" gradientUnits="userSpaceOnUse">
<stop stop-color="#5C75C9"/>
<stop offset="1" stop-color="#2E419B"/>
</linearGradient>
<linearGradient id="paint6_linear" x1="35609.5" y1="26548.7" x2="21878.1" y2="12817.3" gradientUnits="userSpaceOnUse">
<stop stop-color="#5C75C9"/>
<stop offset="1" stop-color="#2E419B"/>
</linearGradient>
<linearGradient id="paint7_linear" x1="17995.7" y1="369.474" x2="19408.1" y2="1781.88" gradientUnits="userSpaceOnUse">
<stop stop-color="#373282"/>
<stop offset="0.44" stop-color="#323A8F"/>
<stop offset="1" stop-color="#2E419B"/>
</linearGradient>
<linearGradient id="paint8_linear" x1="25913.8" y1="19840.4" x2="19254.5" y2="13181.1" gradientUnits="userSpaceOnUse">
<stop stop-color="#5C75C9"/>
<stop offset="1" stop-color="#2E419B"/>
</linearGradient>
<linearGradient id="paint9_linear" x1="31435.3" y1="24515.3" x2="22077.8" y2="15157.8" gradientUnits="userSpaceOnUse">
<stop stop-color="#5C75C9"/>
<stop offset="1" stop-color="#2E419B"/>
</linearGradient>
<linearGradient id="paint10_linear" x1="198.617" y1="224.952" x2="24.5292" y2="50.8645" gradientUnits="userSpaceOnUse">
<stop stop-color="#5C75C9"/>
<stop offset="1" stop-color="#D2E3FD"/>
</linearGradient>
</defs>
</svg>
