<svg width="23" height="20" viewBox="0 0 23 20" fill="none" xmlns="http://www.w3.org/2000/svg">
<path d="M19.9068 9.58334L19.9063 9.58381L11.4118 18.3669L2.91765 9.58424C2.91751 9.5841 2.91737 9.58395 2.91724 9.58381C1.02657 7.62692 1.13616 4.37645 3.22892 2.56501C4.95846 1.068 7.73653 1.26915 9.4645 3.05306L9.4645 3.05306L10.3364 3.95322L11.4139 5.0655L12.4913 3.95322L13.3632 3.05307L13.3632 3.05304C15.0911 1.26919 17.8691 1.068 19.5987 2.56491C21.6915 4.37631 21.801 7.62649 19.9068 9.58334ZM11.3516 18.4291C11.3517 18.429 11.3517 18.429 11.3518 18.4289L11.3516 18.4291L11.3516 18.4291ZM11.4718 18.429C11.4719 18.429 11.4719 18.429 11.472 18.4291L11.4719 18.4291L11.4718 18.429Z" stroke="currentColor" stroke-width="2"/>
</svg>
