<svg width="82" height="33" viewBox="0 0 82 33" fill="none" xmlns="http://www.w3.org/2000/svg">
<path fill-rule="evenodd" clip-rule="evenodd" d="M58.0907 22.1754C58.0907 28.0495 53.2808 32.8594 47.4068 32.8594C43.2779 32.8594 39.6173 30.5608 37.7869 26.8576C37.6636 26.6095 37.5911 26.3391 37.5737 26.0626C37.5562 25.786 37.5942 25.5087 37.6854 25.247C37.7766 24.9853 37.9192 24.7445 38.1047 24.5386C38.2903 24.3328 38.5151 24.1661 38.7659 24.0483C39.2635 23.8051 39.8367 23.7669 40.3621 23.942C40.8875 24.1172 41.3232 24.4916 41.5753 24.9847C42.682 27.2407 44.8954 28.6454 47.4068 28.6454C50.9397 28.6454 53.7916 25.7935 53.8767 22.3031V19.962C52.0464 21.3241 49.833 22.1754 47.4068 22.1754C45.2937 22.1754 43.228 21.5488 41.4711 20.3748C39.7141 19.2009 38.3447 17.5323 37.5361 15.58C36.7274 13.6278 36.5158 11.4796 36.9281 9.40712C37.3403 7.33464 38.3579 5.43094 39.8521 3.93676C41.3462 2.44258 43.2499 1.42503 45.3224 1.01279C47.3949 0.600546 49.5431 0.812124 51.4953 1.62077C53.4476 2.42941 55.1162 3.7988 56.2901 5.55577C57.4641 7.31274 58.0907 9.37837 58.0907 11.4915V22.1754ZM53.8784 11.4915C53.8784 7.91595 50.9414 5.02149 47.4085 5.02149C45.6925 5.02149 44.0469 5.70315 42.8335 6.9165C41.6201 8.12986 40.9385 9.77552 40.9385 11.4915C40.9385 15.0244 43.833 17.9614 47.4085 17.9614C50.9397 17.9614 53.8784 15.0244 53.8784 11.4915ZM36.2271 4.43905C36.6259 4.04026 36.8506 3.49984 36.8522 2.93587C36.8506 2.65884 36.7941 2.38489 36.686 2.12981C36.5779 1.87472 36.4204 1.64357 36.2226 1.44966C36.0247 1.25576 35.7904 1.10296 35.5332 1.00006C35.276 0.897166 35.0009 0.846218 34.7239 0.850157C31.8909 0.851961 29.1745 1.97817 27.1712 3.98141C25.168 5.98465 24.0418 8.70111 24.04 11.5341V20.0898C24.0415 20.6538 24.2663 21.1942 24.6651 21.593C25.0639 21.9918 25.6043 22.2165 26.1682 22.2181C27.3175 22.2181 28.254 21.2391 28.254 20.0898V11.5341C28.254 9.81818 28.9356 8.17251 30.149 6.95916C31.3623 5.74581 33.008 5.06415 34.7239 5.06415C35.2879 5.06258 35.8283 4.83784 36.2271 4.43905ZM21.486 20.0041V11.6612C21.486 5.6595 17.0166 0.892153 11.0149 0.892153C5.01313 0.892153 0.245789 5.6595 0.245789 11.6612C0.245789 17.663 5.01313 22.1324 11.0149 22.1324C13.4411 22.1324 15.4843 21.5365 17.3146 20.0041C17.3146 21.2385 18.5064 22.1324 19.3577 22.1324C20.5921 22.1324 21.486 21.2385 21.486 20.0041ZM11.0149 5.06358C14.5904 5.06358 17.3146 8.08574 17.3146 11.6612C17.3146 15.2368 14.5904 17.9609 11.0149 17.9609C7.43937 17.9609 4.41722 15.2368 4.41722 11.6612C4.41722 8.08574 7.43937 5.06358 11.0149 5.06358ZM62.4046 5.55551C61.2305 7.31253 60.6038 9.37826 60.6038 11.4915C60.6038 17.3655 65.4112 22.1754 71.2852 22.1754C73.3984 22.1759 75.4643 21.5498 77.2216 20.3761C78.9789 19.2024 80.3487 17.534 81.1577 15.5818C81.9668 13.6296 82.1787 11.4813 81.7668 9.40869C81.3548 7.33604 80.3374 5.4321 78.8434 3.93766C77.3493 2.44323 75.4456 1.42543 73.373 1.01298C71.3005 0.600526 69.1522 0.811955 67.1998 1.62052C65.2474 2.42909 63.5786 3.79848 62.4046 5.55551ZM71.2878 17.9614C67.7123 17.9614 64.8178 15.0244 64.8178 11.4915C64.8178 9.77552 65.4995 8.12986 66.7128 6.9165C67.9262 5.70315 69.5718 5.02149 71.2878 5.02149C73.0037 5.02149 74.6494 5.70315 75.8627 6.9165C77.0761 8.12986 77.7577 9.77552 77.7577 11.4915C77.7577 15.0244 74.8633 17.9614 71.2878 17.9614Z" fill="white"/>
</svg>
