<svg width="537" height="737" viewBox="0 0 537 737" fill="none" xmlns="http://www.w3.org/2000/svg">
<path class="pipe opacity-0" d="M297.365 26.8296L317.394 51.5712V157.607M317.394 183.527V386.173L386.906 475.714V507.524M386.906 521.663V532.266M386.906 552.295V618.273" stroke="#5E6294" stroke-width="6" stroke-linecap="round" stroke-linejoin="round"/>
<path class="pipe opacity-0" d="M386.906 108.124V167.032M386.906 210.625V357.896M386.906 401.489V357.896M437.568 238.901V250.683M437.568 269.533V303.7L386.906 357.896" stroke="#5E6294" stroke-width="6" stroke-linecap="round" stroke-linejoin="round"/>
<path class="pipe opacity-0" d="M264.376 342.58V429.765L317.394 498.099V606.491M317.394 628.876V660.687" stroke="#5E6294" stroke-width="6" stroke-linecap="round" stroke-linejoin="round"/>
<path class="pipe opacity-0" d="M213.715 4.44434V99.8764L253.773 144.647V280.683" stroke="#5E6294" stroke-width="6" stroke-linecap="round" stroke-linejoin="round"/>
<path class="pipe opacity-0" d="M213.715 201.199V216.515M213.715 237.723V546.404L253.773 592.353V732.556" stroke="#5E6294" stroke-width="6" stroke-linecap="round" stroke-linejoin="round"/>
<path class="pipe opacity-0" d="M212.537 433.072V726.665" stroke="#5E6294" stroke-width="6" stroke-linecap="round" stroke-linejoin="round"/>
<path class="pipe opacity-0" d="M54.6615 262.464V293.097L4 349.649M4 349.649V396.776M4 349.649V203.556M54.6615 230.654V241.257M54.6615 178.814V134.043" stroke="#5E6294" stroke-width="6" stroke-linecap="round" stroke-linejoin="round"/>
<path class="pipe opacity-0" d="M148.915 330.972V516.95" stroke="#5E6294" stroke-width="6" stroke-linecap="round" stroke-linejoin="round"/>
<path class="pipe opacity-0" d="M106.501 224.763V608.847M106.501 143.469V163.498" stroke="#5E6294" stroke-width="6" stroke-linecap="round" stroke-linejoin="round"/>
<path class="pipe opacity-0" d="M148.915 175.279V396.776L64.0869 489.852V621.807M148.915 95.1636V108.123" stroke="#5E6294" stroke-width="6" stroke-linecap="round" stroke-linejoin="round"/>
<path class="pipe opacity-0" d="M533 278.959V405.024L448.172 494.565V572.324" stroke="#5E6294" stroke-width="6" stroke-linecap="round" stroke-linejoin="round"/>
<path class="pipe opacity-0" d="M490.586 230.654V608.848" stroke="#5E6294" stroke-width="6" stroke-linecap="round" stroke-linejoin="round"/>
</svg>
