<svg fill="none" height="735" viewBox="0 0 524 735" width="524" xmlns="http://www.w3.org/2000/svg"><g stroke="#5e6294" stroke-linecap="round" stroke-linejoin="round" stroke-width="5"><path d="m288.365 25.8296 20.029 24.7416v106.0358m0 25.92v202.646l69.512 89.541v31.81m0 14.139v10.603m0 20.029v65.978" opacity="0"/><path d="m374.906 107.124v58.908m0 43.593v147.271" opacity="0"/><path d="m374.906 400.489v-43.593l50.662-54.196v-34.167m0-30.632v11.782" opacity="0"/><path d="m261.376 341.58v87.185l53.018 68.334v108.392m0 22.385v31.811" opacity="0"/><path d="m210.715 3.44434v95.43206l40.058 44.7706v136.036" opacity="0"/><path d="m210.715 200.199v15.316m0 21.208v308.681l40.058 45.949v140.203" opacity="0"/><path d="m210.72 432v293.592" opacity="0"/><path d="m53.6615 212.464v79.633l-50.6615 56.552m50.6615-170.835v-44.771" opacity="0"/><path d="m147.915 329.972v185.978" opacity="0"/><path d="m105.501 223.763v384.084m0-465.378v20.029" opacity="0"/><path d="m147.915 174.279v221.497l-84.8281 93.076v131.955m84.8281-526.6434v12.9594" opacity="0"/><path d="m521 277.959v126.065l-84.828 89.541v77.759" opacity="0"/><path d="m478.586 229.654v378.194" opacity="0"/></g></svg>