<svg id="pipes" width="524" height="735" viewBox="0 0 524 735" fill="none" xmlns="http://www.w3.org/2000/svg">
<path style="opacity:0;" d="M288.365 25.8296L308.394 50.5712V156.607M308.394 182.527V385.173L377.906 474.714V506.524M377.906 520.663V531.266M377.906 551.295V617.273" stroke="#5E6294" stroke-width="5" stroke-linecap="round" stroke-linejoin="round"/>
<path style="opacity:0;" d="M374.906 107.124V166.032M374.906 209.625V356.896" stroke="#5E6294" stroke-width="5" stroke-linecap="round" stroke-linejoin="round"/>
<path style="opacity:0;" d="M374.906 400.489V356.896L425.568 302.7V268.533M425.568 237.901V249.683" stroke="#5E6294" stroke-width="5" stroke-linecap="round" stroke-linejoin="round"/>
<path style="opacity:0;" d="M261.376 341.58V428.765L314.394 497.099V605.491M314.394 627.876V659.687" stroke="#5E6294" stroke-width="5" stroke-linecap="round" stroke-linejoin="round"/>
<path style="opacity:0;" d="M210.715 3.44434V98.8764L250.773 143.647V279.683" stroke="#5E6294" stroke-width="5" stroke-linecap="round" stroke-linejoin="round"/>
<path style="opacity:0;" d="M210.715 200.199V215.515M210.715 236.723V545.404L250.773 591.353V731.556" stroke="#5E6294" stroke-width="5" stroke-linecap="round" stroke-linejoin="round"/>
<path style="opacity:0;" d="M210.72 432V725.592" stroke="#5E6294" stroke-width="5" stroke-linecap="round" stroke-linejoin="round"/>
<path style="opacity:0;" d="M53.6615 212.464V292.097L3 348.649M53.6615 177.814V133.043" stroke="#5E6294" stroke-width="5" stroke-linecap="round" stroke-linejoin="round"/>
<path style="opacity:0;" d="M147.915 329.972V515.95" stroke="#5E6294" stroke-width="5" stroke-linecap="round" stroke-linejoin="round"/>
<path style="opacity:0;" d="M105.501 223.763V607.847M105.501 142.469V162.498" stroke="#5E6294" stroke-width="5" stroke-linecap="round" stroke-linejoin="round"/>
<path style="opacity:0;" d="M147.915 174.279V395.776L63.0869 488.852V620.807M147.915 94.1636V107.123" stroke="#5E6294" stroke-width="5" stroke-linecap="round" stroke-linejoin="round"/>
<path style="opacity:0;" d="M521 277.959V404.024L436.172 493.565V571.324" stroke="#5E6294" stroke-width="5" stroke-linecap="round" stroke-linejoin="round"/>
<path style="opacity:0;" d="M478.586 229.654V607.848" stroke="#5E6294" stroke-width="5" stroke-linecap="round" stroke-linejoin="round"/>
</svg>
