<svg fill="none" height="379" viewBox="0 0 343 379" width="343" xmlns="http://www.w3.org/2000/svg" xmlns:xlink="http://www.w3.org/1999/xlink"><linearGradient id="a" gradientUnits="userSpaceOnUse" x1="172.928" x2="150.83" y1="95.8636" y2="186"><stop offset="0" stop-color="#5e6294"/><stop offset="1" stop-color="#878bb2"/></linearGradient><linearGradient id="b"><stop offset="0" stop-color="#5c74c6"/><stop offset="1" stop-color="#5c74c6" stop-opacity="0"/></linearGradient><linearGradient id="c" gradientUnits="userSpaceOnUse" x1="115.308" x2="323.015" xlink:href="#b" y1="300.708" y2="183.55"/><linearGradient id="d" gradientUnits="userSpaceOnUse" x1="159.802" x2="260.827" xlink:href="#b" y1="62.9529" y2="127.978"/><linearGradient id="e" gradientUnits="userSpaceOnUse" x1="258.303" x2="114.937" xlink:href="#b" y1="56.8083" y2="331.559"/><clipPath id="f"><path d="m0 0h313v215h-313z" transform="matrix(.5 -.8660254 .8660254 .5 .152267 271.283)"/></clipPath><g clip-path="url(#f)"><path d="m127.76 174.096c21.604 12.473 49.228 5.071 61.7-16.533 12.473-21.603 5.071-49.227-16.532-61.6994-21.603-12.4726-49.227-5.0708-61.7 16.5324-12.4726 21.603-5.071 49.227 16.532 61.7z" fill="url(#a)" opacity=".2"/><path clip-rule="evenodd" d="m122.151 183.812c26.969 15.57 61.454 6.329 77.025-20.639 15.57-26.969 6.33-61.454-20.639-77.0239-26.969-15.5705-61.453-6.3308-77.024 20.6379-15.5703 26.969-6.3304 61.454 20.638 77.025zm5.609-9.715c21.604 12.472 49.228 5.07 61.7-16.533 12.473-21.603 5.071-49.227-16.532-61.6999-21.603-12.4726-49.227-5.0709-61.7 16.5319-12.4722 21.603-5.071 49.228 16.532 61.701z" fill="#5e6294" fill-rule="evenodd" opacity=".14"/><path d="m116.159 142.57c-4.013-5.407-4.68-12.896-1.099-19.098 3.349-5.8 9.528-8.945 15.785-8.698 7.322-13.451 24.313-18.2608 37.615-10.581 13.302 7.68 17.632 24.8 9.645 37.866 3.342 5.295 3.708 12.219.359 18.019-3.581 6.203-10.4 9.369-17.089 8.598l-14.271 22.7c-3.218 6.152-1.695 7.696 4.037 13.503.553.561 1.146 1.16 1.777 1.809-6.353-1.958-9.981-3.817-11.813-5.768l-6.59 10.482c-6.747 9.608-6.671 9.684-.861 15.41.789.779 1.685 1.661 2.684 2.687-16.662-5.134-13.004-11.911-9.697-18.04.661-1.225 1.308-2.423 1.776-3.578l-.548-.317c-.268.388-.527.763-.78 1.128l-.006.009c-5.555 8.035-7.461 10.793-6.874 12.833.307 1.067 1.294 1.937 2.798 3.262 1.572 1.386 3.709 3.268 6.22 6.393-18.751-7.604-15.555-13.11-10.113-22.483.846-1.458 1.747-3.011 2.628-4.678l-.521-.301c-11.251 17.63-10.449 18.399-5.166 23.462 1.436 1.376 3.202 3.068 5.147 5.502-18.822-8.247-16.628-13.682-13.248-22.054.599-1.483 1.235-3.059 1.798-4.758-1.191 1.337-2.237 2.675-3.222 3.936-5.561 7.113-9.1703 11.731-25.7229-.446 3.08.467 5.4288 1.151 7.3378 1.706 7.0265 2.043 8.0937 2.354 17.7361-16.205l-.521-.301c-1.004 1.597-1.898 3.154-2.737 4.616-5.3967 9.399-8.5666 14.92-24.5279 2.482 3.9616.614 6.6601 1.523 8.6461 2.191 1.8996.64 3.1471 1.06 4.2239.792 2.0603-.511 3.4957-3.541 7.677-12.369.1911-.404.3882-.82.5915-1.249l-.5486-.317c-.7658.983-1.4803 2.142-2.2103 3.327-3.6544 5.929-7.695 12.485-20.4717.622 1.3879.353 2.6001.688 3.6696.982 7.8632 2.168 7.967 2.196 12.9143-8.451l5.7827-10.948c-2.6056-.611-6.0291-2.824-10.9011-7.347.8767.223 1.6922.436 2.4542.634 7.8952 2.061 9.9937 2.609 13.7123-3.254z" fill="#ef7b4d"/><path d="m122.735 143.242c6.212 3.587 14.157 1.459 17.743-4.754 3.587-6.213 1.459-14.157-4.754-17.744s-14.157-1.458-17.744 4.755c-3.587 6.212-1.458 14.156 4.755 17.743z" fill="#fefefe"/><path d="m127.793 133.891c2.118 1.222 4.827.497 6.049-1.621 1.223-2.118.497-4.826-1.621-6.049-2.117-1.223-4.826-.497-6.049 1.621-1.222 2.118-.497 4.826 1.621 6.049z" fill="#000"/><path d="m155.971 162.431c6.212 3.587 14.156 1.458 17.743-4.754 3.587-6.213 1.459-14.157-4.754-17.744s-14.157-1.458-17.744 4.754c-3.587 6.213-1.458 14.157 4.755 17.744z" fill="#fefefe"/><path d="m161.029 153.079c2.118 1.223 4.826.497 6.049-1.621s.497-4.826-1.621-6.049c-2.118-1.222-4.826-.497-6.049 1.621s-.497 4.826 1.621 6.049z" fill="#000"/><path d="m125.819 157.976s1.728 6.453 6.33 9.11 11.055.927 11.055.927l-2.953 5.114c-2.771 4.8-8.91 6.445-13.711 3.674-4.801-2.772-6.445-8.911-3.674-13.711z" fill="#fafafa"/><path d="m123.457 162.067s1.729 6.452 6.331 9.109 11.054.928 11.054.928l-.591 1.023c-2.771 4.8-8.91 6.445-13.711 3.674-4.801-2.772-6.445-8.911-3.674-13.711z" fill="#202124"/><path d="m103.745 140.688c-1.184-9.692.633-19.834 5.853-28.961 8.411-14.7085 23.575-23.1393 39.355-23.6221" opacity=".16" stroke="#5e6294" stroke-linecap="round" stroke-width="3.54254"/><g fill="#5e6294"><path d="m155.05 89.6329c1.129.6522 2.574.2652 3.226-.8644s.265-2.574-.864-3.2261c-1.13-.6522-2.574-.2652-3.227.8644-.652 1.1296-.265 2.574.865 3.2261z" opacity=".45"/><path d="m106.11 94.102-.512-.2952c-1.129-.6522-2.574-.2652-3.226.8644l-11.2178 19.4298c-.6521 1.13-.2651 2.574.8645 3.227l.5113.295c1.1296.652 2.574.265 3.2261-.865l11.2179-19.4299c.652-1.1296.265-2.574-.864-3.2261z"/><path d="m208.374 153.144-.511-.295c-1.13-.652-2.574-.265-3.226.865l-11.218 19.43c-.653 1.129-.265 2.574.864 3.226l.511.295c1.13.652 2.574.265 3.227-.864l11.218-19.431c.652-1.129.265-2.574-.865-3.226z"/><path clip-rule="evenodd" d="m120.675 186.368c28.381 16.386 64.672 6.661 81.057-21.719 16.386-28.381 6.662-64.6709-21.719-81.0565s-64.671-6.6619-81.0565 21.7185c-16.3855 28.381-6.6618 64.671 21.7185 81.057zm1.476-2.556c26.969 15.57 61.454 6.329 77.025-20.639 15.57-26.969 6.33-61.454-20.639-77.024-26.969-15.5704-61.453-6.3308-77.024 20.638-15.5704 26.969-6.3304 61.454 20.638 77.025z" fill-opacity=".2" fill-rule="evenodd"/></g><path d="m156.395 112.629c-1.903 2.108-4.91 2.495-6.718.863-1.808-1.631-2.019-4.32-.116-6.428 1.902-2.108 6.52-2.848 8.328-1.217s.408 4.673-1.494 6.782z" fill="#f77f4f"/><path d="m114.75 332.943c25.161-65.485 143.825-88.429 185.538-176.586-28.654 113.552-128.546 100.224-185.538 176.586z" fill="url(#c)"/><path d="m163.204 57.6678c74.247 1.3955 84.577 65.5472 77.494 98.8872 42.016-40.914-.725-120.6988-77.494-98.8872z" fill="url(#d)"/><path d="m240.059 60.0886c114.822 117.0324-161.2692 169.3364-136.233 266.4774 19.982-74.7 154.26-93.209 181.613-183.686 20.837-68.9215-35.641-83.7108-45.38-82.7914z" fill="url(#e)"/></g></svg>