<svg fill="none" height="38" viewBox="0 0 147 38" width="147" xmlns="http://www.w3.org/2000/svg" xmlns:xlink="http://www.w3.org/1999/xlink"><clipPath id="a"><path d="m0 .187149h147v37.1517h-147z"/></clipPath><g clip-path="url(#a)"><path d="m27.8854 5.95059c-2.7182-1.9783-5.9373-3.02388-9.3097-3.02388s-6.5914 1.04573-9.30948 3.02388l-.0356.02596-1.6105-2.2163.0356-.02596c3.18818-2.32046 6.96428-3.547141 10.92018-3.547141 3.9558 0 7.7319 1.226681 10.9201 3.547141l.0356.02596-1.6105 2.2163z" fill="#0f4056"/><path d="m36.1877 24.5321-2.5597-.832.0135-.042c.5118-1.5759.7711-3.2228.7711-4.8953 0-5.0481-2.4399-9.83777-6.5269-12.81237l-.0356-.02596 1.6105-2.2163.0356.02596c4.7937 3.48931 7.6558 9.10737 7.6558 15.02867 0 1.9621-.3044 3.8939-.9046 5.7424l-.0142.0437z" fill="#87e000"/><path d="m36.2047 24.4919-.0025-.001-2.5197-.8189c-2.0679 6.3682-8.0499 10.9716-15.1073 10.9716v2.6513c8.2356 0 15.2163-5.372 17.6295-12.803z" fill="#0096bd"/><path d="m2.69505 18.7631c0-5.2816 2.57851-9.96088 6.54506-12.84796l-1.55858-2.14526c-4.62863 3.3693-7.6375847 8.82972-7.6375847 14.99302 0 1.9976.3160367 3.9213.9010087 5.7243l.003887.0036 2.519589-.819c-.50196-1.5455-.77338-3.1953-.77338-4.9087z" fill="#0096bd"/><path d="m3.46879 23.672-2.519591.8189-.003887-.0035c2.411708 7.4331 9.393588 12.8076 17.630788 12.8076v-2.6512c-7.0575-.0002-13.03931-4.6036-15.10731-10.9718z" fill="#87e000"/><path d="m18.5765 34.6877c-8.78078 0-15.92464-7.1437-15.92464-15.9246v-.0442h2.73038v.0442c0 7.2752 5.91886 13.1941 13.19416 13.1941 2.3192 0 4.6005-.6105 6.5969-1.765l.0383-.0222 1.3653 2.365-.038.0221c-2.41 1.3938-5.1633 2.1306-7.9624 2.1306z" fill="#0f4056"/><path d="m2.65186 18.8071v-.0442c0-8.78077 7.14386-15.92448 15.92464-15.92448 2.7994 0 5.5528.73685 7.9624 2.1308l.038.02207-1.3653 2.36492-.0383-.02208c-1.9963-1.15486-4.2776-1.76533-6.5969-1.76533-7.2754 0-13.19416 5.9189-13.19416 13.1941v.0442z" fill="#87e000"/><path d="m25.1353 30.2141.038-.0221c2.8332-1.6389 4.948-4.2494 5.9548-7.3504.4263-1.3128.6424-2.685.6424-4.0787 0-4.6958-2.5279-9.07488-6.5972-11.42876l-.038-.02207 1.3653-2.36492.0382.02208c4.9113 2.84091 7.9624 8.12647 7.9624 13.79367 0 1.6817-.261 3.3378-.7756 4.9228-1.2153 3.7427-3.7676 6.8933-7.1868 8.8712l-.0382.0223z" fill="#0096bd"/><path d="m18.5754 32.0453c-7.3239 0-13.28243-5.9583-13.28243-13.2822s5.95853-13.28244 13.28243-13.28244h.0441v2.73956h-.0441c-5.8134 0-10.54287 4.72948-10.54287 10.54288 0 5.8133 4.72947 10.543 10.54287 10.543h.0441v2.7392z" fill="#87e000"/><g fill="#0f4056"><path d="m18.5762 5.52464v2.65142c5.847 0 10.5868 4.73994 10.5868 10.58704 0 5.8469-4.7398 10.587-10.5868 10.587v2.6512c7.3113 0 13.2382-5.9269 13.2382-13.2382 0-7.3115-5.9269-13.23846-13.2382-13.23846z"/><path d="m51.0859 24.7684c-3.3497 0-5.9912-2.5898-5.9912-5.9049 0-3.4015 2.6244-6.0257 5.9912-6.0257 3.3667 0 5.9048 2.5554 5.9048 5.9222.0001 3.4015-2.5725 6.0084-5.9048 6.0084zm-.0518-9.7378c-2.0028 0-3.5396 1.6402-3.5396 3.7984 0 2.1412 1.5368 3.7814 3.5396 3.7814 2.0371 0 3.5567-1.6228 3.5567-3.7987 0-2.1583-1.5194-3.7811-3.5567-3.7811z"/><path d="m60.2932 16.5845v1.1568c.3798-1.0016.967-1.4331 1.9855-1.4331h.259v2.227c-.19 0-.3454 0-.449 0-1.1912 0-1.7956.7253-1.7956 2.1759v3.8502h-2.193v-7.9768z"/><path d="m65.8453 24.5613h-2.193v-11.4992h2.193v4.4895c.7597-.8808 1.5022-1.2433 2.5899-1.2433 2.348 0 4.023 1.7782 4.023 4.3163 0 2.5036-1.6059 4.1957-3.9195 4.1957-1.2085 0-1.9856-.3456-2.6934-1.2777zm2.1237-1.4847c1.2602 0 2.1409-1.0016 2.1409-2.4347 0-1.4157-.8978-2.4862-2.1066-2.4862-1.2259 0-2.1928 1.105-2.1928 2.5207.0002 1.3986.8981 2.4002 2.1585 2.4002z"/><path d="m74.6564 15.5139c-.6907 0-1.2086-.5179-1.2086-1.2257 0-.7081.5179-1.2087 1.2086-1.2087.7078 0 1.2261.518 1.2261 1.2087 0 .7078-.5183 1.2257-1.2261 1.2257zm1.105 9.0474h-2.1927v-7.9767h2.1927z"/><path d="m80.0976 22.2132c0 .3798.1724.518.6215.518h.3797v1.8302h-1.7609c-1.0187 0-1.4504-.4317-1.4504-1.5193v-4.6448h-.8978v-1.8472h.8978v-2.1413h2.2101v2.1411h1.0012v1.8473h-1.0012z"/><path d="m88.5276 16.5845h2.21v7.9768h-2.1926v-1.0875c-.7597.9493-1.6231 1.3465-2.7973 1.3465-2.2444 0-3.8502-1.7266-3.8502-4.1612 0-2.5034 1.6921-4.3509 4.0229-4.3509 1.0879 0 1.8476.3797 2.6072 1.2949zm.0345 3.9366c0-1.3815-.9152-2.3652-2.2101-2.3652-1.2261 0-2.1238 1.0361-2.1238 2.4687 0 1.3988.9151 2.452 2.1238 2.452 1.2083 0 2.1581-1.0532 2.2101-2.4347 0-.0863 0-.0689 0-.1208z"/><path d="m92.2495 24.5613v-11.4992h2.1927v11.4992z"/><path d="m103.834 24.5613h-2.348v-11.4992h2.348z"/><path d="m107.594 16.5846v.967c.57-.898 1.174-1.2433 2.158-1.2433.76 0 1.502.2763 1.969.7423.552.5526.707 1.1395.707 2.4691v5.0417h-2.192v-4.9382c0-.9668-.415-1.4675-1.244-1.4675-.828 0-1.398.6388-1.398 1.5538v4.8519h-2.193v-7.9768z"/><path d="m117.793 18.8982c0-.1036 0-.0866 0-.1382 0-.4833-.432-.8289-1.019-.8289-.518 0-.88.2936-.88.7081 0 .4146.258.6558.932.8629 1.468.432 2.072.7084 2.486 1.1051.432.4145.674 1.0187.674 1.6575 0 1.5369-1.244 2.5555-3.091 2.5555-1.917 0-3.073-.9324-3.16-2.5899h2.107c.086.6907.414 1.0013 1.036 1.0013.518 0 .898-.3279.898-.7597 0-.5007-.311-.7081-1.502-1.0703-1.727-.5183-2.487-1.3122-2.487-2.5557 0-1.5194 1.226-2.5379 3.091-2.5379 1.813 0 2.935.9671 2.987 2.5899h-2.072z"/><path d="m122.431 15.5139c-.691 0-1.209-.5179-1.209-1.2257 0-.7081.518-1.2087 1.209-1.2087.708 0 1.226.518 1.226 1.2087 0 .7078-.518 1.2257-1.226 1.2257zm1.105 9.0474h-2.193v-7.9767h2.193z"/><path d="m131.277 16.5845h2.14v7.4069c0 1.6231-.293 2.5726-1.053 3.3149-.811.7773-1.968 1.209-3.315 1.209-1.571 0-2.831-.5183-3.936-1.5886l1.364-1.3815c.707.76 1.467 1.1051 2.486 1.1051 1.45 0 2.314-.8808 2.314-2.3481v-.8286c-.725.9149-1.658 1.3466-2.815 1.3466-2.192 0-3.798-1.7438-3.798-4.1785 0-2.59 1.605-4.3335 4.023-4.3335 1.104 0 1.881.3797 2.589 1.2602v-.9839zm-2.142 1.6744c-1.243 0-2.123.9502-2.123 2.2795 0 1.3637.898 2.3481 2.141 2.3481 1.295 0 2.071-.8289 2.071-2.1927.001-1.5192-.794-2.4349-2.089-2.4349z"/><path d="m137.122 17.4304c.657-.777 1.33-1.1223 2.176-1.1223.69 0 1.467.3106 1.917.7423.535.518.725 1.0879.725 2.2445v5.2663h-2.193v-4.9554c-.017-.8807-.483-1.4502-1.209-1.4502-.863 0-1.415.6387-1.415 1.6572v4.7484h-2.193v-11.4991h2.193v4.3683z"/><path d="m145.998 22.2132c0 .3798.173.518.622.518h.38v1.8302h-1.762c-1.018 0-1.45-.4317-1.45-1.5193v-4.6448h-.897v-1.8472h.897v-2.1413h2.21v2.1411h1.002v1.8473h-1.002z"/></g></g></svg>