<svg fill="none" height="59" viewBox="0 0 61 59" width="61" xmlns="http://www.w3.org/2000/svg" xmlns:xlink="http://www.w3.org/1999/xlink"><clipPath id="a"><path d="m0 .621948h61v58.0244h-61z"/></clipPath><g clip-path="url(#a)"><path d="m5.56439 43.3815c.68885 0 1.23637.1793 1.50268.2886l.18077.0744.51553-1.766-.12647-.0595c-.45452-.2106-1.30108-.3638-2.01449-.3638-3.31036 0-5.62241 2.4712-5.62241 6.013 0 3.6637 1.95349 5.8522 5.22145 5.8522.90979 0 1.79281-.1644 2.36115-.4366l.11307-.0558-.34815-1.6716-.18746.067c-.56536.2038-1.0251.2916-1.53765.2916-1.93191 0-3.08496-1.5131-3.08496-4.0468 0-2.083.93657-4.1867 3.02768-4.1867zm8.94691 4.8383c-.1691.5803-.3293 1.163-.4806 1.7482l-.0275-.1168c-.1245-.5555-.2672-1.1068-.4277-1.653l-1.929-6.643h-2.77398l3.68748 10.704c.0491.1146.0491.2373.0491.366 0 .1339-.0208.2306-.1361.5044-.2135.4865-.6732 1.2609-1.2691 1.8523-.613.6174-1.31 1.1129-1.96091 1.3933l-.16069.0699.979 1.8293.154-.058c.2298-.0856 1.4387-.5728 2.6393-1.778 1.7534-1.7764 2.7361-4.6226 3.5931-7.3809l2.4065-7.5023h-2.626zm11.0715-6.8327c-1.2297 0-2.1648.4076-2.8462 1.2401v-5.926h-2.5776v13.6588c0 .546-.0439 1.3614-.0781 2.016-.0149.2633-.0283.5066-.0364.6948l-.0075.1659h2.2511l.1205-1.2393c.4835.7215 1.2475 1.4282 2.739 1.4282 2.2079 0 4.4352-1.8976 4.4352-6.1371 0-3.5842-1.5697-5.9014-4.0007-5.9014zm1.4238 5.9973c0 1.5771-.2946 4.2224-2.2659 4.2224-.6122 0-1.4424-.3258-1.9312-1.8969-.0729-.154-.0729-.4025-.0729-.6391v-3.1638c0-.2566 0-.5222.0566-.7714.1651-.9076.9745-1.8821 1.9207-1.8821 2.0681 0 2.2927 2.8886 2.2927 4.1309zm9.0987-5.9981c-3.5953 0-4.8703 3.2546-4.8703 6.045 0 4.4195 2.4415 5.9943 4.726 5.9943 2.2339 0 4.8413-1.5763 4.8413-6.0189 0-4.4373-2.4251-6.0204-4.697-6.0204zm-.0275 10.2889c-1.9714 0-2.2659-2.675-2.2659-4.2685 0-1.2772.2157-4.2477 2.2064-4.2477 1.9668 0 2.1781 2.9705 2.1781 4.2477 0 1.2833-.2053 4.2685-2.1186 4.2685zm6.0606-8.2707h4.8837c-.1414.2247-.2991.4575-.4598.6971-.18.2685-.366.546-.54.8235l-4.4054 7.131-.0261.0365v1.3278h8.3184v-1.8515h-5.371c.1376-.221.2953-.4538.4567-.6919.1816-.2707.3683-.549.5409-.8302l4.3503-7.0313.0223-.0387v-1.4216h-7.7693v1.8493zm18.3855 9.6663c-.0104-.2957-.024-.5913-.0409-.8867-.0357-.6346-.0744-1.3539-.0744-2.1997v-8.4084h-2.5776v7.6354c0 .4055-.0372.7306-.1146.9991-.1041.4739-.6249 1.3725-1.8307 1.3725-1.2185 0-1.714-.8503-1.714-2.9347v-7.0723h-2.5783v7.3319c0 3.0828 1.1418 4.5177 3.596 4.5177 1.3204 0 2.3589-.6047 2.9421-1.2036l.125 1.0154h2.2726z" fill="#a6a4a5"/><path d="m48.2183 22.2502c0 4.7491-3.8147 8.5988-8.5206 8.5988-4.7067 0-8.5214-3.8497-8.5214-8.5995 0-4.7491 3.8147-8.5996 8.5214-8.5996 4.7059 0 8.5206 3.8505 8.5206 8.5996zm-8.5288-3.471c-1.8999 0-3.4391 1.5547-3.4391 3.471 0 1.917 1.5399 3.4681 3.4391 3.4681 1.8969 0 3.4368-1.5511 3.4368-3.4681s-1.5399-3.471-3.4368-3.471z" fill="#92d0e1"/><path d="m55.7917 7.23377c0 2.93993-2.3611 5.32483-5.2765 5.32483-2.9124 0-5.2735-2.3849-5.2735-5.32483 0-2.93841 2.3611-5.32187 5.2735-5.32187 2.9154 0 5.2765 2.38346 5.2765 5.32187zm-5.2839-2.14541c-1.1731 0-2.1253.96038-2.1253 2.14541 0 1.18802.9522 2.14839 2.1253 2.14839.2811-.00087.5592-.05717.8185-.16565.2593-.10849.4947-.26704.6926-.46659.198-.19955.3546-.43617.4611-.69633.1064-.26015.1604-.53874.1591-.81982.0009-.28082-.0534-.55909-.16-.8189-.1066-.25982-.2633-.49609-.4612-.69532-.198-.19923-.4332-.35752-.6923-.46582s-.537-.16449-.8178-.16537z" fill="#b1deea"/><path d="m21.7068 9.28247c-2.9868 0-5.4082 2.44293-5.4082 5.45723 0 3.0166 2.4214 5.4625 5.4082 5.4625 2.9897 0 5.4119-2.4459 5.4119-5.4625 0-3.0143-2.4222-5.45723-5.4119-5.45723zm13.5271 5.46023c0 7.5402-6.0561 13.6491-13.5249 13.6491-7.471 0-13.52638-6.1089-13.52638-13.6491 0-7.53869 6.05538-13.64985 13.52638-13.64985 7.4688 0 13.5241 6.11116 13.5241 13.64985z" fill="#64bdd4"/></g></svg>