<svg fill="none" height="21" viewBox="0 0 110 21" width="110" xmlns="http://www.w3.org/2000/svg"><g fill="#000"><path d="m16.3357 5.69049h-16.3357v-5.415038h19.1226v2.628218c0 1.54068-1.2462 2.78682-2.7869 2.78682z"/><path d="m9.38002 13.326h-9.38002v-5.41508h12.1668v2.62818c0 1.5407-1.2461 2.7869-2.78678 2.7869z"/><path d="m2.62822 20.9614h-2.62822v-5.4151h5.41504v2.6282c-.02266 1.5407-1.2688 2.7869-2.78682 2.7869z"/><path d="m27.4839 17.6308v-13.61693h8.3604v.9516c0 .83831-.6797 1.54068-1.5406 1.54068h-4.1689v3.0587h3.761v.79295c0 .929-.7477 1.6993-1.6992 1.6993h-2.0618v4.3275c0 .6797-.5665 1.2462-1.2462 1.2462z"/><path d="m36.4111 14.844c0-.4532.068-.8383.2266-1.1555.1586-.3399.3625-.6118.6571-.8157.2945-.2266.6117-.3852.9516-.5211.3625-.1359.7476-.2266 1.2234-.2945l2.5603-.4532v-.3398c0-.4532-.1133-.793-.3625-1.0423-.2266-.24919-.5891-.36248-1.0196-.36248s-.7703.11329-1.0422.31718c-.2719.2266-.4078.4985-.4078.861h-2.447c.068-1.0196.4305-1.85789 1.1555-2.49229.7024-.63439 1.6313-.97425 2.7868-.97425 1.2008 0 2.1524.29454 2.8548.90628s1.0649 1.49537 1.0649 2.67356v6.4799h-1.0649c-.6344 0-1.1555-.4758-1.2461-1.0875l-.0227-.2493c-.6117 1.0423-1.5633 1.5407-2.8095 1.5407-.8836 0-1.6086-.2719-2.175-.8156-.5891-.5212-.8837-1.2462-.8837-2.1751zm2.5376-.1586c0 .2719.0907.4758.2946.6344s.4758.2265.8383.2265c.3172 0 .6117-.0679.8836-.2039.2719-.1359.4985-.3398.6797-.6117.2266-.3172.3399-.725.3399-1.2008v-.2719l-1.9712.4078c-.3625.068-.6344.1813-.8156.3399-.1586.1812-.2493.3851-.2493.6797z"/><path d="m46.8105 4.92017c0-.40783.1586-.81566.4532-1.1102.2945-.27188.6344-.43048 1.0422-.43048s.8157.13594 1.1102.43048c.3172.29454.4758.65706.4758 1.08754s-.1586.77034-.4531 1.06488c-.2946.29454-.6571.43049-1.0876.43049s-.793-.13595-1.0875-.43049c-.2946-.29454-.4305-.6344-.4532-1.04222zm.2719 12.71063v-9.85584h2.5376v8.60964c0 .6798-.5664 1.2462-1.2461 1.2462z"/><path d="m52.1113 17.6308v-9.85586h2.1751l.2492 1.54068c.1813-.4758.5211-.88363.9969-1.17817.4758-.3172 1.1102-.4758 1.8806-.4758v2.49225c-.793 0-1.4501.2039-1.9485.5891-.4985.3852-.7704.9969-.793 1.8352v3.7838c0 .6797-.5664 1.2461-1.2462 1.2461h-1.3141z"/><path d="m58.728 7.77493h2.6962l1.4954 5.91347.1812 1.0422.2266-1.0422 1.6766-5.91347h2.2431l1.6766 5.91347.2039 1.0422.1813-1.0422 1.518-5.91347h2.6962l-2.6962 8.92687c-.1586.5438-.6797.929-1.2461.929h-1.6993l-1.7899-5.8003-1.6087 4.894c-.1812.5211-.6797.8836-1.2235.8836h-1.586z"/><path d="m74.792 4.87485c0-.40782.1586-.77034.4531-1.06488.2946-.29454.6571-.43048 1.0876-.43048.4078 0 .7703.13594 1.0875.43048.2946.29454.4532.6344.4532 1.06488 0 .43049-.1586.77034-.4532 1.06488-.2945.29455-.657.43049-1.0875.43049s-.793-.13594-1.0876-.43049c-.2945-.27188-.4531-.63439-.4531-1.06488zm.2719 12.75595v-9.85584h2.5376v8.60964c0 .6798-.5665 1.2462-1.2462 1.2462z"/><path d="m80.2974 17.6308v-9.85583h2.175l.204 1.31411c.2492-.45314.589-.81565 1.0422-1.11019.4531-.27189.9969-.43049 1.6313-.43049 1.0196 0 1.8125.3172 2.3563.97425.5438.65706.8157 1.54065.8157 2.69615v5.0979c0 .725-.5891 1.2914-1.2915 1.2914h-1.2461v-5.7775c0-.5664-.1133-1.0196-.3625-1.3141-.2266-.2946-.5891-.4532-1.0423-.4532-.5211 0-.9289.2039-1.2461.6118-.3172.4078-.4985.9969-.4985 1.7899v3.8743c0 .7251-.589 1.2915-1.2914 1.2915z"/><path d="m90.3345 12.6915c0-1.45.4305-2.6735 1.2914-3.64776.861-.97425 1.9712-1.47271 3.2853-1.47271.6571 0 1.2461.11329 1.7672.36252.5212.24922.9063.54377 1.1782.92894v-5.41504h2.5374v14.18335h-1.0873c-.6118 0-1.1329-.4532-1.2235-1.0649l-.0453-.2719c-.7024 1.0196-1.7446 1.5407-3.1494 1.5407-.8609 0-1.6539-.2266-2.3563-.6797-.7024-.4532-1.2461-1.0649-1.6313-1.8579-.3852-.7704-.5664-1.654-.5664-2.6056zm2.5829 0c0 .8383.2265 1.4954.7023 2.0165s1.0649.7703 1.7673.7703c.657 0 1.2461-.2492 1.7446-.725.4984-.4984.7477-1.1555.7477-1.9938v-.1133c0-.5664-.136-1.0422-.3852-1.4727s-.5664-.725-.9289-.9289-.7704-.29458-1.1782-.29458c-.7024 0-1.2915.24928-1.7673.77038s-.7023 1.1555-.7023 1.9711z"/><path d="m102.365 14.6401h1.564c.453 0 .838.2718 1.087.657.045.0906.136.1586.204.2266.249.2039.589.3172 1.02.3172.385 0 .679-.0906.906-.2492.204-.1586.317-.4079.317-.6798 0-.3172-.113-.5664-.362-.7476-.25-.1813-.725-.3399-1.405-.4758-1.088-.1813-1.881-.5211-2.379-.9969-.521-.4758-.771-1.1102-.771-1.9259 0-.90628.318-1.67662.952-2.28836s1.541-.92894 2.696-.92894c1.043 0 1.903.29454 2.561.86097.657.56643 1.019 1.31411 1.064 2.24303h-2.515c-.022-.74766-.385-1.13283-1.132-1.13283-.34 0-.612.09062-.793.27188-.182.18126-.295.40785-.295.70235 0 .3172.113.5438.363.7024.249.1586.702.2945 1.359.4078 1.156.2039 1.994.5438 2.47 1.0196.498.4758.725 1.1328.725 1.9711 0 .5438-.091 1.0196-.295 1.4501-.204.4078-.476.7477-.838.9969-.363.2492-.748.4531-1.201.5664-.453.136-.929.1813-1.473.1813-1.201 0-2.129-.2946-2.787-.861-.657-.5211-1.019-1.2914-1.042-2.2883z"/></g></svg>