<svg xmlns="http://www.w3.org/2000/svg" width="64" height="74" viewBox="0 0 64 73">
  <path d="m26.695 39.582-.027.688-5.059 2.894-.59-1 5.06-2.894ZM4.488 51.57l.578 1 5.36-3.054-.578-1Zm8.422-4.754.594 1 5.043-2.898-.578-1Zm29.356-3.652.593-1-5.058-2.894-.617.312.023.688Zm11.184 6.352.577-1 5.364 3.054-.578 1Zm-8.134-4.598.59-1 5.059 2.898-.59 1Zm0 0" fill="#d03808"/>
  <path d="M32.45 21.098h-1.17V15.32h1.168Zm-.579 9.484-.59-.234v-5.782h1.168v5.782Zm-.59-24.848h1.168v6.118h-1.168Zm0 0" fill-rule="evenodd" fill="#d03808"/>
  <path d="m33.234.727 29.344 16.742.984.558.317.184v36.43l-.316.183-.985.559-14.68 8.379-12.43 7.105-.948.531v-5.91l.316-.183 10.46-5.973 10.474-5.977 2.902-1.648V24.121L34.52 37.898v33.5l-.313.18-1.973 1.117-.316.184-.313-.184-1.972-1.117-.317-.18v-33.5L5.176 24.105V51.72l1.879 1.066 16.363 9.352L29 65.32l.316.18v5.898l-.945-.53-12.43-7.106-14.652-8.38-.988-.558L0 54.641V18.223l.316-.184.985-.559C11.078 11.898 20.867 6.312 30.645.742l.984-.558.316-.184.317.184ZM7.754 19.69l24.18 13.793L56.109 19.69 33.957 7.05l-2.023-1.168-3.997 2.285-.277.156c-6.637 3.781-13.27 7.574-19.906 11.367Zm0 0" fill="#3b3b3b"/>
</svg>
