<svg fill="none" height="34" viewBox="0 0 134 34" width="134" xmlns="http://www.w3.org/2000/svg"><g fill="#000"><path d="m32.7382 11.6393c-1.2527 0-2.5764.6145-3.4036 1.5599h-.0473v-5.9326h-2.2927v17.2543h2.1036v-1.2054h.0473c.8036.9218 2.2691 1.5599 3.5454 1.5599 3.3091 0 5.4363-2.5999 5.4363-6.618 0-3.9-2.2218-6.6181-5.389-6.6181zm-.4018 11.1562c-1.7255 0-3.0491-1.1818-3.0491-2.7418v-3.3563c0-1.6781 1.3236-2.9545 3.0491-2.9545 2.2454 0 3.4981 1.6309 3.4981 4.5145 0 2.9072-1.2527 4.5381-3.4981 4.5381z"/><path d="m19.5492 11.6392c-3.4036 0-5.7435 2.7181-5.7435 6.6181 0 3.9945 2.269 6.6181 5.7435 6.6181 3.4273 0 5.6727-2.6236 5.6727-6.6181 0-3.9-2.3164-6.6181-5.6727-6.6181zm0 11.1563c-2.1509 0-3.4745-1.7491-3.4745-4.5382 0-2.789 1.3236-4.5145 3.4745-4.5145 2.08 0 3.4036 1.7727 3.4036 4.5145 0 2.7654-1.3236 4.5382-3.4036 4.5382z"/><path d="m12.742 12.7739c0-2.93095-2.1746-4.79819-5.5782-4.79819h-6.4763v16.54519h2.36361v-6.5472h3.37997c2.59997 0 3.54538 1.04 3.54538 3.9236v2.6236h2.29274v-2.6236c0-2.6401-.8036-4.2096-2.55508-4.8548 1.79398-.6287 3.02788-2.1083 3.02788-4.2686zm-5.76729 3.0962h-3.9236v-5.7435h3.89997c2.24542 0 3.40362.9691 3.40362 2.8836 0 1.8436-1.18183 2.8599-3.37999 2.8599z"/><path d="m50.6314 11.6392c-1.3235 0-2.7417.6382-3.4272 1.56h-.0472v-1.2054h-2.2454v12.5271h2.2926v-7.8708c0-1.7727 1.1582-2.8837 2.9782-2.8837 1.7963 0 2.6472 1.04 2.6472 3.2145v7.54h2.3163v-8.2018c0-2.8835-1.7491-4.6799-4.5145-4.6799z"/><path d="m88.0225 11.6392c-3.4037 0-5.7437 2.7181-5.7437 6.6181 0 3.9945 2.2691 6.6181 5.7437 6.6181 3.4273 0 5.6727-2.6236 5.6727-6.6181 0-3.9-2.3163-6.6181-5.6727-6.6181zm0 11.1563c-2.1509 0-3.4746-1.7491-3.4746-4.5382 0-2.789 1.3237-4.5145 3.4746-4.5145 2.08 0 3.4037 1.7727 3.4037 4.5145 0 2.7654-1.3237 4.5382-3.4037 4.5382z"/><path d="m103.954 7.2666v5.9326h-.047c-.827-.969-2.127-1.5599-3.38-1.5599-3.1668 0-5.4127 2.7654-5.4127 6.6181 0 4.0181 2.1279 6.618 5.4367 6.618 1.276 0 2.742-.6381 3.545-1.5599h.047v1.2054h2.105v-17.2543zm0 12.7871c0 1.56-1.323 2.7418-3.048 2.7418-2.2464 0-3.4986-1.6309-3.4986-4.5381 0-2.8836 1.2522-4.5145 3.4986-4.5145 1.725 0 3.048 1.2764 3.048 2.9545z"/><path d="m75.1884 11.6392c-3.4036 0-5.7436 2.7181-5.7436 6.6181 0 3.9945 2.2691 6.6181 5.7436 6.6181 3.4273 0 5.6727-2.6236 5.6727-6.6181 0-3.9-2.3164-6.6181-5.6727-6.6181zm0 11.1563c-2.1509 0-3.4745-1.7491-3.4745-4.5382 0-2.789 1.3236-4.5145 3.4745-4.5145 2.08 0 3.4036 1.7727 3.4036 4.5145 0 2.7654-1.3236 4.5382-3.4036 4.5382z"/><path d="m42.4061 7.2666h-2.4818v2.43452h2.4818z"/><path d="m63.3234 11.6393c-1.3946 0-2.8127.6618-3.4746 1.6072h-.0473v-5.9799h-2.2927v17.2543h2.2927v-7.8708c0-1.7018 1.2291-2.8836 2.9783-2.8836 1.7254 0 2.7181 1.1345 2.7181 3.0963v7.6581h2.2928v-8.2253c0-2.86-1.7254-4.6563-4.4673-4.6563z"/><path d="m42.3114 11.9938h-2.2928v12.5271h2.2928z"/><path d="m122.052 25.1165-.173.0568c-1.11.3687-2.753.9383-4.228 1.6167-.079.0379-.13.1419-.13.1419-.029.0637-.062.1418-.1.2292l-.004.0119c-.166.3757-.393.9406-.492 1.1723l-.075.182c-.013.0283-.005.0614.018.0827.015.0142.031.0213.05.0213.009 0 .021-.0024.033-.0071l.177-.0851c.405-.1915.915-.4822 1.449-.7375l.019-.0094c1.018-.4822 2.168-1.0282 2.86-1.3591 0 0 .111-.059.168-.1702l.518-1.0399c.014-.0261.009-.0592-.01-.0828-.019-.0237-.052-.0331-.08-.0237z"/><path d="m117.91 23.5046c.074-.1418.41-.7894.485-.9336l.014-.026c2.25-4.2427 4.992-8.2466 8.148-11.8961l.088-.1016c.025-.0307.03-.0779.011-.1134-.021-.0379-.061-.0567-.102-.052l-.132.0189c-2.07.286-4.167.6807-6.233 1.1747-.206.0567-.338.1915-.366.2222-1.546 1.8507-3.009 3.7983-4.352 5.7955-.066.1017-.09.2341-.073.3428.014.1063.338 2.6.83 4.5145-1.22 3.5099-2.31 8.1355-2.31 8.1355-.009.0307-.002.0615.015.0874.018.0261.047.0402.08.0402h.694c.046 0 .083-.026.1-.0662l.047-.1299c.709-1.9335 1.518-3.8433 2.412-5.7058.207-.4302.644-1.3071.644-1.3071z"/><path d="m127.576 11.4099-.003-.1323c-.002-.0425-.028-.078-.066-.0922-.038-.0141-.082-.0023-.11.0284l-.088.0993c-3.681 4.2569-6.775 8.9793-9.194 14.0398l-.057.1182c-.019.0378-.012.0827.016.1134.019.019.045.0308.071.0308.012 0 .026-.0024.04-.0071l.121-.0497c2.068-.8556 4.179-1.5978 6.275-2.2052.125-.0355.232-.1253.291-.2411.919-1.7916 3.054-5.2614 3.054-5.2614.054-.078.04-.1938.04-.1938s-.367-4.1482-.39-6.2471z"/><path d="m132.335 5.42532c-.521-.45381-1.28-.66654-2.457-.69254-1.069-.02364-2.338.208-3.777.68072-.215.07564-.388.19618-.541.34509-1.464 1.37326-2.887 2.8316-4.231 4.33481l-.104.1135c-.029.0331-.033.0804-.012.1158.021.0379.067.0567.109.0473l.151-.0331c2.168-.46327 4.356-.81782 6.505-1.05181.141-.01655.287.03073.392.12763.106.09691.165.23636.162.38055-.034 2.13203.043 4.27343.233 6.36513l.011.1371c.005.0426.033.0757.076.0875.007.0024.015.0024.024.0047.03 0 .063-.0141.085-.0425l.077-.1111c1.211-1.7255 2.527-3.4036 3.913-4.992.155-.1772.196-.2883.224-.449.434-2.78436-.238-4.84542-.84-5.36778z"/></g></svg>