<svg width="10000" height="3006" viewBox="0 0 10000 3006" fill="none" xmlns="http://www.w3.org/2000/svg">
<path d="M4057.36 2438.44V1136.76H4267.63V1266.94C4302.68 1216.87 4347.74 1176.81 4402.81 1151.78C4457.87 1121.75 4517.95 1111.73 4583.04 1111.73C4668.15 1111.73 4738.23 1131.75 4803.32 1171.81C4868.41 1211.86 4918.47 1266.93 4958.52 1337.02C4998.57 1407.11 5013.59 1482.21 5013.59 1572.32C5013.59 1657.43 4993.56 1737.54 4958.52 1807.62C4923.48 1877.72 4868.41 1932.78 4808.33 1972.84C4743.24 2012.89 4673.15 2032.91 4588.05 2032.91C4522.96 2032.91 4462.88 2017.9 4407.82 1987.86C4352.74 1957.82 4302.68 1917.77 4267.63 1867.7V2443.45L4057.36 2438.44ZM4527.97 1847.67C4578.03 1847.67 4623.09 1837.66 4663.14 1812.63C4703.19 1787.61 4733.23 1757.56 4758.26 1712.5C4783.3 1672.45 4793.3 1622.39 4793.3 1567.31C4793.3 1512.24 4783.3 1467.19 4758.26 1422.13C4733.23 1377.07 4703.19 1347.04 4663.14 1322C4623.09 1296.97 4578.03 1286.95 4527.97 1286.95C4477.9 1286.95 4432.84 1296.97 4387.79 1322C4347.74 1347.04 4317.69 1377.07 4292.66 1422.13C4272.63 1467.19 4262.63 1517.25 4262.63 1567.31C4262.63 1617.38 4272.64 1667.45 4297.67 1712.5C4322.7 1752.55 4352.74 1787.61 4392.79 1812.63C4432.84 1837.66 4477.9 1847.67 4527.97 1847.67ZM5238.88 1997.87V1136.76H5449.15V1997.87H5238.88ZM5344.02 961.537C5318.98 961.537 5298.96 956.532 5278.93 946.519C5258.9 936.506 5243.89 921.487 5233.88 901.461C5223.86 881.436 5218.85 861.409 5218.85 836.377C5218.85 811.344 5223.86 791.32 5233.88 771.294C5243.89 751.268 5258.9 736.248 5278.93 726.236C5298.96 716.223 5318.98 706.21 5344.02 706.21C5369.05 706.21 5389.08 711.216 5409.1 726.236C5429.13 736.248 5444.14 751.268 5454.16 771.294C5464.17 791.32 5474.19 811.344 5474.19 836.377C5474.19 861.409 5469.18 881.436 5454.16 901.461C5444.14 921.487 5429.13 936.506 5409.1 946.519C5389.08 956.532 5369.05 961.537 5344.02 961.537ZM5689.46 2438.44V1136.76H5899.73V1266.94C5934.78 1216.87 5979.83 1176.81 6034.91 1151.78C6089.98 1121.75 6150.05 1111.73 6215.13 1111.73C6300.24 1111.73 6370.34 1131.75 6435.42 1171.81C6500.5 1211.86 6550.57 1266.93 6590.62 1337.02C6630.67 1407.11 6645.69 1482.21 6645.69 1572.32C6645.69 1657.43 6625.66 1737.54 6590.62 1807.62C6555.58 1877.72 6500.5 1932.78 6440.42 1972.84C6375.35 2012.89 6305.25 2032.91 6225.15 2032.91C6160.06 2032.91 6099.98 2017.9 6044.92 1987.86C5989.85 1957.82 5939.78 1917.77 5904.74 1867.7V2443.45L5689.46 2438.44ZM6165.07 1847.67C6215.13 1847.67 6260.19 1837.66 6300.24 1812.63C6340.29 1787.61 6370.34 1757.56 6395.36 1712.5C6420.4 1672.45 6430.41 1622.39 6430.41 1567.31C6430.41 1512.24 6420.4 1467.19 6395.36 1422.13C6370.34 1377.07 6340.29 1347.04 6300.24 1322C6260.19 1296.97 6215.13 1286.95 6165.07 1286.95C6115 1286.95 6069.95 1296.97 6024.89 1322C5984.84 1347.04 5954.81 1377.07 5929.77 1422.13C5904.74 1462.18 5894.72 1512.24 5894.72 1567.31C5894.72 1622.39 5904.74 1667.45 5929.77 1712.5C5954.81 1752.55 5984.84 1787.61 6024.89 1812.63C6064.94 1837.66 6110 1847.67 6165.07 1847.67ZM7316.56 2027.91C7226.44 2027.91 7141.32 2007.88 7071.24 1967.83C7001.14 1927.77 6941.07 1872.71 6901.01 1802.62C6860.96 1732.53 6835.94 1657.43 6835.94 1567.31C6835.94 1502.24 6845.95 1442.16 6870.98 1387.09C6896.01 1332.01 6926.05 1281.95 6971.11 1241.9C7016.16 1201.85 7061.22 1166.81 7121.3 1141.77C7176.37 1116.74 7241.45 1106.72 7306.54 1106.72C7396.65 1106.72 7476.76 1126.75 7541.84 1161.8C7611.93 1196.84 7661.99 1251.91 7702.04 1316.99C7742.1 1382.08 7757.11 1462.18 7757.11 1547.3C7757.11 1552.29 7757.11 1562.31 7757.11 1567.31C7757.11 1572.32 7757.12 1577.33 7752.11 1592.35H7051.21C7051.21 1642.42 7061.22 1692.47 7086.26 1732.53C7111.29 1772.58 7141.32 1802.62 7186.38 1822.65C7231.44 1842.67 7276.49 1857.69 7331.57 1857.69C7381.63 1857.69 7431.7 1847.68 7471.75 1827.66C7511.8 1807.62 7551.86 1772.58 7581.89 1732.53L7732.09 1812.63C7692.04 1882.72 7631.96 1932.78 7561.86 1972.84C7486.77 2007.88 7406.67 2027.91 7316.56 2027.91ZM7056.21 1462.18H7546.85C7541.84 1422.13 7526.82 1387.09 7501.79 1362.06C7481.76 1332.01 7451.73 1311.99 7416.69 1296.97C7381.63 1281.95 7346.59 1271.93 7301.53 1271.93C7256.48 1271.93 7216.42 1281.95 7181.37 1296.97C7146.33 1311.99 7116.29 1337.02 7096.26 1362.06C7076.24 1392.09 7066.23 1422.13 7056.21 1462.18ZM7992.42 1997.87V551.01H8202.69V1467.18L8533.12 1136.76H8803.46L8392.94 1552.29L8823.49 1997.87H8553.14L8202.69 1632.4V1997.87H7992.42ZM9003.72 1997.87V1136.76H9213.99V1997.87H9003.72ZM9108.86 961.537C9083.82 961.537 9063.79 956.532 9043.77 946.519C9023.74 936.506 9008.73 921.487 8998.71 901.461C8988.7 881.436 8983.69 861.409 8983.69 836.377C8983.69 811.344 8988.7 791.32 8998.71 771.294C9008.73 751.268 9023.74 736.248 9043.77 726.236C9063.79 716.223 9083.82 706.21 9108.86 706.21C9133.89 706.21 9153.92 711.216 9173.94 726.236C9193.97 736.248 9208.98 751.268 9219 771.294C9229.01 791.32 9239.03 811.344 9239.03 836.377C9239.03 861.409 9234.02 881.436 9219 901.461C9208.98 921.487 9193.97 936.506 9173.94 946.519C9153.92 956.532 9133.89 961.537 9108.86 961.537ZM9809.76 2027.91C9729.65 2027.91 9669.58 2002.88 9629.52 1952.81C9584.46 1902.75 9564.44 1832.65 9564.44 1742.54V1301.98H9459.3V1141.77H9564.44V816.351H9774.71V1136.76H9974.97V1296.97H9774.71V1722.52C9774.71 1762.57 9784.72 1787.59 9799.74 1807.62C9814.77 1827.65 9834.79 1837.66 9864.82 1837.66C9894.87 1837.66 9919.9 1827.66 9944.93 1812.63L10000 1977.84C9974.97 1992.86 9944.93 2002.88 9914.89 2012.89C9869.83 2022.9 9839.79 2027.91 9809.76 2027.91Z" fill="#015E71"/>
<path d="M3199.1 1896.38L2119.83 594.535L1602.82 931.533L3199.1 1896.38Z" fill="#39C9C1"/>
<path d="M9.21094 1893.36L1085.84 594.535L1602.85 931.533L9.21094 1893.36Z" fill="#00C2FF"/>
<path d="M1568.91 15.8854L1085.84 594.568L1602.85 931.566L2119.86 594.568L1636.79 15.8854C1619.07 -5.29514 1586.64 -5.29514 1568.91 15.8854Z" fill="#BDFBFF"/>
<path d="M1602.84 931.58L14.4805 1889.24C-4.37471 1900.59 -4.75182 1927.44 12.972 1939.55L1574.18 2996.68C1591.53 3008.41 1614.15 3008.41 1631.88 2996.68L3192.71 1939.55C3210.81 1927.44 3210.06 1900.59 3191.2 1889.24L1602.84 931.58Z" fill="#015E71"/>
</svg>
