<svg fill="none" height="33" viewBox="0 0 144 33" width="144" xmlns="http://www.w3.org/2000/svg" xmlns:xlink="http://www.w3.org/1999/xlink"><clipPath id="a"><path d="m0 .123535h144v32.1882h-144z"/></clipPath><g clip-path="url(#a)"><g clip-rule="evenodd" fill="#141414" fill-rule="evenodd"><path d="m43.8164 23.0035v-13.93691h3.7368l4.7349 10.41491 4.6646-10.41491h3.5799v13.93691h-3.0815v-8.1078l-3.5552 8.1078h-3.2847l-3.6009-8.0636v8.0636z"/><path d="m72.9337 17.6073-2.5783-5.9076-2.5191 5.9076zm-7.4022 5.3961h-3.6238l6.229-13.93687h4.4614l6.2735 13.93687h-3.5769l-1.2347-2.7762h-7.3319z"/><path d="m80.3164 23.0034v-13.93687h13.4081v2.78667h-10.1697v2.7681h8.7195v2.7198h-8.7195v2.8745h10.1943v2.7878z"/><path d="m99.641 15.4659h7.045v-3.6127h-7.045zm-3.2841 7.5375v-13.93687h11.2201c1.499 0 2.369.86088 2.369 2.33737v4.6822c0 1.0771-.961 2.0508-2.824 2.0508-.106.0052-.214 0-.324 0l3.266 4.8665h-3.605l-3.096-4.7654h-3.722v4.7654z"/><path d="m115.855 23.0115h-1.112c-1.451 0-2.15-.8323-2.15-2.0443v-1.8206h3.262v1.0783h6.93v-2.853s-6.681 0-7.95 0-2.183-.8469-2.183-2.0223v-4.1375c0-1.25213.995-2.13684 2.206-2.13684h9.088c1.228 0 2.078.90971 2.078 2.22514v1.6631h-3.239v-1.1016h-6.93v2.7449h7.927c1.17 0 2.242.7684 2.242 2.2478v3.9777c0 1.355-.758 2.1792-2.174 2.1792s-7.995 0-7.995 0z"/><path d="m129.153 23.0115v-13.93807h3.329v5.57447l6.342-5.57447h4.508l-7.565 6.47437 7.837 7.4637h-4.667l-6.455-6.3395v6.3395z"/></g><path d="m3.62936.123535h22.92324c2.0077 0 3.6352 1.618525 3.6352 3.615085v24.44988c0 1.9965-1.6275 3.615-3.6352 3.615h-22.92324c-2.00442 0-3.62934132-1.6159-3.62934132-3.6092v-24.44986c-.00309266-.95925.37790732-1.88028 1.05887132-2.55966.68097-.679392 1.60588-1.061245 2.57047-1.061245z" fill="#42b0d5"/><path d="m19.9029 15.0749 5.9591-7.40033-.0176-.02318-8.6108 4.10291-2.125-9.22h-.0351l-2.1249 9.22-8.61084-4.10291-.01756.02318 5.9591 7.40033-8.61084 4.103.0117.029h9.55334l-2.12494 9.2258.02342.0116 5.95912-7.4004 5.9591 7.4004.0293-.0174-2.1308-9.22h9.5592l.0058-.029z" fill="#fff"/></g></svg>