<svg width="34" height="34" viewBox="0 0 34 34" fill="none" xmlns="http://www.w3.org/2000/svg">
<path d="M3.10146 24.6381C3.48541 24.6381 3.79059 24.738 3.93902 24.7989L4.03978 24.8404L4.32712 23.8561L4.25663 23.8229C4.00329 23.7055 3.53144 23.6201 3.1338 23.6201C1.28868 23.6201 0 24.9975 0 26.9716C0 29.0137 1.08883 30.2335 2.91032 30.2335C3.41741 30.2335 3.90959 30.1419 4.22637 29.9902L4.28939 29.9591L4.09534 29.0274L3.99085 29.0647C3.67573 29.1783 3.41949 29.2272 3.1338 29.2272C2.057 29.2272 1.41432 28.3839 1.41432 26.9716C1.41432 25.8106 1.93634 24.6381 3.10188 24.6381H3.10146ZM8.08827 27.3348C7.99402 27.6583 7.90473 27.9831 7.82041 28.3092L7.80507 28.2441C7.73565 27.9345 7.65614 27.6272 7.56666 27.3228L6.49151 23.6201H4.94534L7.00068 29.5863C7.02805 29.6502 7.02805 29.7186 7.02805 29.7903C7.02805 29.8649 7.01644 29.9188 6.95217 30.0714C6.83317 30.3426 6.57693 30.7742 6.2448 31.1039C5.90315 31.448 5.51463 31.7242 5.15183 31.8805L5.06227 31.9194L5.60793 32.939L5.69376 32.9067C5.82188 32.859 6.49566 32.5874 7.16488 31.9157C8.14217 30.9256 8.6899 29.3392 9.16756 27.8017L10.5089 23.6201H9.04524L8.08827 27.3348ZM14.2593 23.5264C13.5739 23.5264 13.0527 23.7536 12.6729 24.2176V20.9146H11.2362V28.5277C11.2362 28.8321 11.2117 29.2865 11.1926 29.6514C11.1843 29.7982 11.1769 29.9338 11.1723 30.0387L11.1682 30.1311H12.4229L12.49 29.4403C12.7595 29.8425 13.1854 30.2364 14.0167 30.2364C15.2473 30.2364 16.4888 29.1787 16.4888 26.8157C16.4888 24.818 15.6139 23.5264 14.2589 23.5264H14.2593ZM15.0529 26.8692C15.0529 27.7482 14.8887 29.2227 13.7899 29.2227C13.4487 29.2227 12.9859 29.0411 12.7135 28.1653C12.6729 28.0795 12.6729 27.941 12.6729 27.8092V26.0457C12.6729 25.9027 12.6729 25.7547 12.7044 25.6158C12.7964 25.1099 13.2476 24.5667 13.775 24.5667C14.9277 24.5667 15.0529 26.1768 15.0529 26.8692ZM20.1243 23.526C18.1203 23.526 17.4097 25.34 17.4097 26.8953C17.4097 29.3587 18.7705 30.2364 20.0438 30.2364C21.289 30.2364 22.7423 29.3578 22.7423 26.8816C22.7423 24.4083 21.3906 23.526 20.1243 23.526ZM20.1089 29.2608C19.0101 29.2608 18.846 27.7698 18.846 26.8816C18.846 26.1697 18.9662 24.5141 20.0758 24.5141C21.172 24.5141 21.2898 26.1697 21.2898 26.8816C21.2898 27.5969 21.1754 29.2608 20.1089 29.2608ZM23.487 24.6509H26.209C26.1302 24.7761 26.0423 24.9059 25.9528 25.0394C25.8524 25.1891 25.7488 25.3438 25.6518 25.4984L23.1963 29.4731L23.1818 29.4934V30.2335H27.8182V29.2015H24.8246C24.9013 29.0784 24.9892 28.9486 25.0791 28.8159C25.1803 28.665 25.2844 28.5099 25.3806 28.3532L27.8054 24.4341L27.8178 24.4125V23.6201H23.4874V24.6509H23.487ZM33.7346 30.0387C33.7289 29.8738 33.7213 29.7091 33.7118 29.5444C33.6919 29.1907 33.6704 28.7898 33.6704 28.3184V23.6317H32.2337V27.8875C32.2337 28.1135 32.2129 28.2947 32.1698 28.4444C32.1118 28.7085 31.8215 29.2094 31.1494 29.2094C30.4702 29.2094 30.1941 28.7355 30.1941 27.5737V23.6317H28.757V27.7184C28.757 29.4366 29.3934 30.2364 30.7613 30.2364C31.4973 30.2364 32.0761 29.8993 32.4012 29.5656L32.4708 30.1315H33.7375L33.7346 30.0387Z" fill="#A6A4A5"/>
<path d="M26.8758 12.86C26.8758 15.507 24.7496 17.6527 22.1266 17.6527C19.5032 17.6527 17.377 15.507 17.377 12.8595C17.377 10.2125 19.5032 8.06638 22.1266 8.06638C24.7496 8.06638 26.8758 10.2125 26.8758 12.8595V12.86ZM22.122 10.9253C21.0631 10.9253 20.2052 11.7919 20.2052 12.86C20.2052 13.9285 21.0635 14.793 22.122 14.793C23.1793 14.793 24.0376 13.9285 24.0376 12.86C24.0376 11.7914 23.1793 10.9253 22.122 10.9253Z" fill="#92D0E1"/>
<path d="M31.0971 4.49016C31.0971 6.12879 29.7811 7.45811 28.1561 7.45811C26.5328 7.45811 25.2168 6.12879 25.2168 4.49016C25.2168 2.85235 26.5328 1.52386 28.1561 1.52386C29.7811 1.52386 31.0971 2.85235 31.0971 4.49016ZM28.152 3.29435C27.4981 3.29435 26.9674 3.82964 26.9674 4.49016C26.9674 5.15233 27.4981 5.68762 28.152 5.68762C28.3087 5.68713 28.4637 5.65576 28.6082 5.59529C28.7527 5.53482 28.8839 5.44644 28.9943 5.33522C29.1046 5.224 29.1919 5.09211 29.2512 4.94711C29.3105 4.8021 29.3407 4.64682 29.3399 4.49016C29.3405 4.33363 29.3102 4.17853 29.2508 4.03372C29.1913 3.8889 29.104 3.75721 28.9937 3.64616C28.8834 3.53512 28.7523 3.44689 28.6078 3.38653C28.4634 3.32616 28.3085 3.29484 28.152 3.29435Z" fill="#B1DEEA"/>
<path d="M12.0991 5.63204C10.4343 5.63204 9.08469 6.9937 9.08469 8.6738C9.08469 10.3551 10.4343 11.7185 12.0991 11.7185C13.7655 11.7185 15.1155 10.3551 15.1155 8.6738C15.1155 6.9937 13.7655 5.63204 12.0991 5.63204ZM19.6388 8.67546C19.6388 12.8782 16.2633 16.2832 12.1003 16.2832C7.93616 16.2832 4.56104 12.8782 4.56104 8.67546C4.56104 4.47356 7.93616 1.06734 12.1003 1.06734C16.2633 1.06734 19.6384 4.47356 19.6384 8.67546H19.6388Z" fill="#64BDD4"/>
</svg>
