<svg fill="none" height="31" viewBox="0 0 123 31" width="123" xmlns="http://www.w3.org/2000/svg" xmlns:xlink="http://www.w3.org/1999/xlink"><clipPath id="a"><path d="m0 .506256h123v29.8275h-123z"/></clipPath><g clip-path="url(#a)" fill="#000"><path d="m19.3227 22.5601-7.397-3.6985c-.5568-.2776-1.0249-.7052-1.3517-1.2346-.3267-.5295-.499-1.1397-.4975-1.7618v-7.85073l-3.36459-1.71225v11.24098c.00079.6228.17398 1.2332.50038 1.7636s.79326.96 1.34886 1.2414l10.48755 5.2395z"/><path d="m5.21382 22.2262c-.5572-.2802-1.02581-.7093-1.35377-1.2398-.32797-.5305-.50243-1.1415-.50403-1.7652v-13.03882l-.92461-.46231c-.25667-.11897-.5388-.17248-.8212-.15577s-.55625.10313-.797094.25154c-.240839.1484-.441156.35417-.583048.5989-.1418911.24473-.22093552.52081-.230068.80355v13.69801c.0015907.6237.176059 1.2347.504022 1.7652.327962.5305.796578.9597 1.353778 1.2399l12.4995 6.2497c.2573.1192.5402.1726.8232.1555.2831-.0171.5575-.1043.7985-.2537.2411-.1494.4412-.3563.5826-.6021.1413-.2459.2193-.523.2271-.8065v-.6335z"/><path d="m25.0079 6.93579-12.508-6.258301c-.2297-.115893-.4834-.176268-.7406-.176268s-.5109.060375-.7405.176268l-3.42456 1.712261c.23384-.12227.4938-.18613.75767-.18613.26388 0 .52384.06386.75768.18613l12.49951 6.2583c.5628.27173 1.0384.69562 1.3728 1.22368.3344.52807.5142 1.13917.5192 1.76417v13.6981c.0003.3164-.0898.6263-.2597.8932-.1698.267-.4124.4798-.6992.6136l3.4246-1.7123c.2746-.1426.5036-.3594.661-.6258s.2369-.5716.2293-.881v-13.69802c0-.6207-.1731-1.2291-.4997-1.75689-.3267-.52779-.794-.95407-1.3495-1.231z"/><path d="m18.2867 10.2918-12.49944-6.24973c-.23296-.12013-.49128-.18282-.7534-.18282-.26211 0-.52043.06269-.75339.18282l-3.424513 1.71226c.234473-.1202.494183-.18289.757673-.18289s.5232.06269.75767.18289l12.4995 6.24977c.5591.2778 1.0293.7064 1.3576 1.2374s.5015 1.1433.5002 1.7676v13.698c.0003.3164-.0898.6263-.2597.8933-.1698.2669-.4124.4798-.6992.6135l3.4245-1.7122c.2806-.1345.5173-.3459.6825-.6096.1652-.2638.2521-.5689.2507-.8801v-13.6981c.0062-.6254-.163-1.24-.4884-1.7741-.3253-.5342-.7938-.9665-1.3523-1.248z"/><path d="m37.4812 13.5279h-2.3201v-2.4742h2.3201v-3.69844h2.8338v3.71564h3.1934v2.4742h-3.1934v6.9346c-.0374.3989.0722.7977.3082 1.1215.1449.1251.3138.2192.4963.2767.1826.0574.375.0769.5653.0572h2.1061v2.4486h-2.6968c-.4919.0448-.9877-.0077-1.4593-.1546-.4715-.1469-.9095-.3853-1.2889-.7016-.6352-.7613-.943-1.7433-.8561-2.731z"/><path d="m55.9483 12.355c.9931.976 1.4897 2.537 1.4897 4.6831v7.3284h-2.8081v-7.1743c.0618-1.0324-.2413-2.0536-.8562-2.8852-.2925-.3251-.6545-.5802-1.0591-.7462-.4047-.166-.8415-.2387-1.2781-.2126-.4887-.0155-.9744.0814-1.4197.2833-.4453.2018-.8383.5032-1.1487.881-.6841.8913-1.0354 1.9935-.9931 3.1163v6.7377h-2.8081v-18.1927h2.8081v6.849c.4633-.6758 1.0902-1.2234 1.8222-1.5917.7321-.3682 1.5454-.5452 2.3643-.5143.7109-.0303 1.4207.0812 2.088.3282.6674.2469 1.2788.6243 1.7988 1.11z"/><path d="m67.0861 11.0538v2.6283h-1.25c-.4756-.0365-.9526.0479-1.3868.2455-.4341.1976-.8111.5019-1.0959.8846-.5794.8553-.8785 1.8695-.8562 2.9023v6.6521h-2.7653v-13.3128h2.4914l.2739 2.029c.3752-.6052.9001-1.1035 1.5239-1.4469.7502-.3954 1.593-.5817 2.44-.5393z"/><path d="m68.3188 14.1358c.5191-.9975 1.3121-1.8262 2.2859-2.3886 1.0256-.5789 2.1869-.8744 3.3645-.8561 1.1886-.0298 2.3658.238 3.4246.7791.9604.5076 1.7608 1.2724 2.3115 2.2088.5767 1.0234.8721 2.1814.8561 3.356.0006.3556-.028.7107-.0856 1.0616h-10.0424v.1884c.0181 1.0215.4077 2.0015 1.0959 2.7567.3494.3414.7654.6073 1.2219.7811.4566.1738.9441.2518 1.4321.2291.7668.0211 1.5221-.1908 2.166-.6078.5942-.4028 1.0158-1.0138 1.1814-1.7123h2.8081c-.2359 1.312-.9421 2.493-1.9862 3.3218-1.1332.8936-2.5474 1.3549-3.9895 1.3013-1.263.0267-2.5121-.2679-3.63-.8561-1.0096-.5417-1.8396-1.3658-2.3886-2.3715-.5855-1.0943-.8803-2.3206-.8561-3.5615-.0292-1.2602.2563-2.5078.8304-3.63zm9.4174 2.1489c-.0729-.8901-.4908-1.7165-1.1643-2.303-.6837-.5758-1.555-.8804-2.4486-.8561-.8713-.0154-1.7181.2892-2.38.8561-.669.5745-1.0844 1.3898-1.1558 2.2688z"/><path d="m82.8735 14.1358c.5191-.9975 1.3121-1.8262 2.2858-2.3886 1.0284-.58 2.1927-.8755 3.3732-.8561 1.1886-.0302 2.3659.2376 3.4245.7791.9605.5076 1.7608 1.2723 2.3116 2.2088.5767 1.0234.872 2.1814.8561 3.356-.0007.3552-.0265.71-.0771 1.0616h-10.0509v.1884c.0118 1.0212.3988 2.0024 1.0873 2.7567.3494.3414.7653.6073 1.2219.7811s.9441.2518 1.4321.2291c.767.0228 1.5227-.1893 2.166-.6078.5939-.4048 1.0176-1.0145 1.19-1.7123h2.7995c-.2329 1.3131-.9397 2.4951-1.9862 3.3218-1.1332.8936-2.5474 1.3549-3.9896 1.3013-1.2603.0279-2.5069-.2668-3.6214-.8561-1.014-.5388-1.8475-1.3634-2.3971-2.3715-.5855-1.0943-.8803-2.3206-.8562-3.5615-.0291-1.2602.2564-2.5078.8305-3.63zm9.4174 2.1489c-.0707-.8889-.4854-1.7151-1.1558-2.303-.6879-.5742-1.5613-.8786-2.4571-.8561-.8713-.0154-1.7181.2892-2.38.8561-.6691.5745-1.0844 1.3898-1.1558 2.2688z"/><path d="m99.9104 6.1738v11.3779l6.0866-6.498h3.245l-4.957 5.3594 5.3 7.9534h-3.331l-3.972-5.8816-2.3716 2.4914v3.4245h-2.7996v-18.227z"/><path d="m113.429 6.22518c.163.15107.292.33556.378.5409.085.20535.126.42674.118.64911.007.22487-.033.44872-.119.65679-.085.20807-.214.39564-.377.55036-.33.31253-.766.48677-1.22.48677s-.891-.17424-1.22-.48677c-.164-.15472-.292-.34229-.378-.55036s-.126-.43192-.119-.65679c-.007-.22237.033-.44376.119-.64911.085-.20534.214-.38983.378-.5409.334-.30321.769-.47118 1.22-.47118s.886.16797 1.22.47118zm.188 4.82852v13.3128h-2.808v-13.3128z"/><path d="m116.964 13.5279h-2.311v-2.4742h2.311v-3.69844h2.834v3.71564h3.202v2.4742h-3.202v6.9346c-.039.4004.074.8008.317 1.1215.145.1255.313.2199.496.2774.183.0574.375.0767.566.0565h2.106v2.4486h-2.706c-.49.0451-.985-.0073-1.455-.1543-.47-.1469-.907-.3855-1.284-.7019-.636-.7613-.943-1.7433-.856-2.731z"/></g></svg>