<svg fill="none" height="66" viewBox="0 0 66 66" width="66" xmlns="http://www.w3.org/2000/svg"><path d="m31.3736 55.2356c-.0256-.0353-.0593-.0638-.0983-.0833s-.0821-.0294-.1257-.0287c-.1916.0091-.3797.0552-.5539.1356-.0775.0394-.1612.0653-.2475.0766-.1237.0235-.2534.0589-.3889.0825-.4832.0766-1.1609.1002-1.1609.1002.1414-.2593.3889-.7013.5009-.8957.1119-.1945.2181-.4125.3418-.6364.1238-.224.2652-.4892.4302-.7838.165-.2947.383-.6718.6364-1.1079.0895-.1372.1646-.2833.2239-.4361.0363-.0859.0563-.1778.0589-.271-.0065-.1182-.0452-.2323-.1119-.33-.0661-.1163-.1474-.2233-.2416-.3182-.0997-.0912-.2083-.1722-.3242-.2416-.1014-.0552-.2145-.0855-.3299-.0885-.1177-.0161-.2373.0091-.3384.0715-.1011.0623-.1773.158-.2156.2704 0 0-.0648.1709-.0883.2239-.0236.053-.0649.1768-.0884.2298-.0236.0531-.0944.1827-.0944.1827-.2298.5009-.4242.9193-.5833 1.2375-.1591.33-.3124.6305-.442.9193-.1414.277-.2829.5716-.4361.8839s-.3476.7072-.5893 1.1727c-.053.0118-.0883.0118-.1296.0177-.0412.0059-.0884.0117-.1355.0235s-.1592.0177-.2593.0236c-.1002.0059-.2063.0236-.3713.0295-.051.0029-.1022.0029-.1532 0-.0825 0-.1945-.0118-.3536-.0236-.053-.0118-.2357-.0236-.2357-.0236-.1059-.0054-.2116.013-.3095.0538s-.1854.103-.2562.1819c-.1444.1755-.2198.3976-.2121.6247-.0106.1068.0092.2143.0572.3102.0479.0959.1221.1764.2138.2319.2767.1255.5815.1763.884.1473.1418-.0027.2834-.0125.4242-.0294.0177 0 .0354-.0059.0531-.0059-.1178.3005-.2239.5362-.3064.7189s-.1827.4184-.3124.7071c-.33.7249-.6069 1.3495-.8132 1.8563-.218.5068-.383.9487-.5068 1.32-.1116.324-.1945.6573-.2475.9959-.051.2998-.0747.6035-.0707.9075 0 1.1137.3536 1.6618 1.0667 1.6618.0686.0035.1371-.0089.2002-.0363.0631-.0273.1191-.0687.1636-.1212.0445-.0524.0762-.1144.0928-.1811s.0177-.1364.003-.2036c.0014-.0381-.0046-.0761-.0177-.1119-.0519-.1306-.0952-.2645-.1296-.4007-.0074-.0646-.0114-.1295-.0118-.1945.0298-.5047.131-1.0027.3005-1.4791.2218-.7092.4875-1.404.7956-2.0802.2592-.5716.4655-1.043.6305-1.4025s.2769-.6187.3535-.7837c.0943-.2122.1651-.383.2181-.5127.0531-.1296.0943-.2357.1355-.3241.0413-.0884.0825-.1827.1238-.277.0294-.0589.0707-.1473.1178-.2416.4844-.0604.962-.167 1.4261-.3182.0624-.0118.1236-.0296.1827-.0531.2063-.0883.495-.159.8603-.324.5952-.2888.884-.5363.884-.7543.007-.1057-.0244-.2103-.0884-.2947zm33.6128-4.838c-.1638-.008-.3256.0393-.4593.1345-.1336.0951-.2312.2325-.2773.3899-.0235.1061-.4419 1.1256-.6128 1.4909-.1356.2888-.0943.2534-.3183.6836-.2239.4302-.4419.9016-.6717 1.4025s-.442 1.0077-.6542 1.5086c-.2121.5009-.3888.9605-.5244 1.373-.2123.5584-.3837 1.1315-.5127 1.7148-.087.4642-.1245.9363-.1119 1.4084.0052.0725.0258.1431.0603.2071s.0823.12.14.1642c.1125.1024.2604.1573.4125.1532.1395-.0203.2678-.0873.3642-.1901.0963-.1027.1549-.2352.1661-.3756.2063-.7366.4243-1.4438.6718-2.1332.2475-.6895.5127-1.3672.8191-2.0566.3065-.6895.6483-1.3849 1.0313-2.0979s1.1432-2.0684 1.2847-2.3395c.1124-.1761.183-.3757.2062-.5833-.0095-.117-.0439-.2306-.1008-.3332-.0569-.1027-.1351-.192-.2292-.262-.0913-.0862-.1986-.1534-.3159-.1979s-.2422-.0654-.3677-.0614zm-4.0012 13.3945c-.3571-.0064-.7072.0987-1.0018.3005-.1248.0674-.2304.1656-.3067.2852-.0763.1197-.1208.2567-.1293.3983.0152.0878.0472.1719.0942.2476.0332.0886.0878.1675.1591.2298.1385.0994.3073.1473.4774.1355.3716.0107.7382-.0877 1.0547-.2828.1257-.0689.2314-.1691.3068-.291s.118-.2612.1235-.4044c-.0012-.0857-.0227-.1698-.0626-.2456-.04-.0758-.0973-.1411-.1673-.1905-.1558-.1227-.3497-.1873-.548-.1826zm-27.119-13.3945c-.134-.0062-.2657.0363-.3708.1197s-.1764.2021-.2008.334c-.3119.914-.7761 1.7688-1.373 2.5281-.1826.2298-.2887.3653-.3182.4124-.0329.0552-.0492.1186-.0471.1828 0 .2121.1531.3182.4596.3182.2163.0022.4289-.0571.6128-.1709.2507-.1754.4749-.3858.6659-.6247.3724-.4186.7057-.8702.9959-1.3494.197-.3026.3258-.6445.3772-1.0018.0028-.0973-.0164-.194-.0562-.2827-.0398-.0888-.0992-.1674-.1737-.23-.152-.1508-.3574-.2355-.5716-.2357zm-11.1433 5.2859c-.1597.0418-.3023.1324-.4079.2592-.1057.1268-.1691.2833-.1814.4479-.2546.5679-.5379 1.1226-.8486 1.6618-.0471.0766-.1238.2357-.2416.4773-.1179.2416-.2357.5127-.3654.8073-.1296.2947-.2593.5893-.383.8781-.1238.2887-.2298.5126-.2888.66-.431.9155-.6792 1.9064-.7307 2.917-.0145.3937.097.7818.3183 1.1078.0824.1328.1968.2428.3326.32.1359.0772.2889.1191.4452.122.1197.0027.2366-.037.33-.112.0432-.0272.0792-.0644.1048-.1086.0257-.0441.0403-.0938.0425-.1448.0021-.0458-.0039-.0917-.0177-.1356-.0353-.165-.053-.271-.0589-.3063-.0071-.0409-.0111-.0823-.0118-.1238.0238-.79.1854-1.5697.4774-2.3041.0943-.2416.2357-.5775.4242-1.0136.1886-.4361.3949-.878.6188-1.3318.224-.4537.4302-.8839.6246-1.2787.1945-.3948.3536-.6835.4597-.8662.1302-.1907.2445-.3917.3418-.6011.0571-.1262.0892-.2623.0943-.4008-.0083-.1266-.0436-.25-.1036-.3618-.0599-.1118-.1432-.2094-.2441-.2864-.0952-.0957-.2095-.1703-.3354-.219-.1258-.0487-.2605-.0705-.3953-.0638zm36.076 1.5498c.0118-.2075-.0177-.4154-.0864-.6116-.0688-.1961-.1756-.3768-.3143-.5316-.151-.1412-.3293-.25-.5238-.3199-.1946-.0699-.4013-.0994-.6076-.0867-.3008.0134-.5948.094-.8604.2357-.3697.1893-.7175.4184-1.0371.6835-.4033.3331-.7851.6914-1.1432 1.0726-.4167.4437-.8063.912-1.1668 1.4025-.522.6805-.9723 1.4131-1.3436 2.1862-.2751.5621-.4239 1.1776-.436 1.8033-.0028.2948.0596.5865.1826.8544.1214.2637.2869.5048.4892.713.2004.2093.4382.3792.7012.5009.2554.1228.5357.1853.8191.1827.4627-.0056.9204-.0975 1.3495-.271.4617-.1792.9023-.4084 1.3141-.6836.377-.2489.7147-.5528 1.0017-.9017.238-.2494.38-.5751.4008-.9192.0018-.0597-.0094-.1191-.0328-.174-.0234-.055-.0585-.1042-.1028-.1442-.036-.0407-.0806-.0729-.1305-.0943s-.1039-.0314-.1582-.0295c-.1859.0196-.357.1104-.4774.2534-.3064.2887-.5303.6659-.7719.8721-.226.1923-.4732.3584-.7366.4951-.2248.1137-.4621.2007-.7072.2592-.2379.0532-.481.0789-.7248.0766-.2653.0146-.5281-.0578-.7484-.2062-.1539-.2313-.2283-.5064-.2121-.7837.0063-.19.038-.3783.0943-.5599.0505-.1945.1237-.3824.218-.5598.2268.0539.4572.0913.6894.1119.1251.0165.2511.0244.3772.0236.6465-.0221 1.2728-.2309 1.8032-.6011.6907-.4622 1.3-1.0357 1.8032-1.6971.3061-.4127.5633-.8597.7661-1.3318.1826-.3824.2887-.7967.3123-1.2198zm-1.2905-.0236c-.0251.2692-.1011.5312-.224.772-.1238.2934-.2863.5688-.4831.8191-.4201.5595-.8982 1.0731-1.4261 1.5322-.2884.2797-.6709.4415-1.0725.4537-.1238.0059-.6777 0-.6777 0 .2357-.3536.4243-.6364.5657-.8545.1414-.218.2593-.3948.3536-.5303.0943-.1356.1709-.2416.2416-.3241s.1414-.1769.2239-.277c.3725-.485.7865-.9365 1.2375-1.3494.2301-.2581.5283-.446.8604-.5422.117.003.231.0376.33.1002.0432.0581.0678.1279.0707.2003zm-32.6877-5.4686c-.1012.0014-.2009.0254-.2916.0702-.0908.0449-.1703.1095-.2329.1892-.1463.1592-.2282.3671-.2298.5833.0045.1373.041.2715.1065.3922.0654.1207.1581.2245.2707.3032.2387.2014.5421.3102.8545.3064.2097.006.414-.0677.5716-.2062.0746-.0651.1339-.1458.1737-.2365.0397-.0907.0589-.189.0561-.288-.0011-.1516-.0366-.3009-.104-.4367s-.1649-.2545-.285-.347c-.2451-.2171-.5624-.3348-.8898-.3301zm12.3632 5.2977c-.0839-.4965-.3184-.9553-.6718-1.3141-.2937-.3081-.6547-.544-1.0548-.6894 0 0-.0825-.0295-.112-.0413-.1515-.0462-.3076-.0759-.4655-.0884-.3346-.0052-.6594.1122-.9134.33-.3237.3106-.5874.6781-.7779 1.0843-.2208.4987-.3925 1.0178-.5126 1.5498-.1286.5526-.1938 1.118-.1945 1.6854.0034.2855.0211.5707.053.8545.0413.3418.0884.6894.1415 1.0489.053.3594.112.6895.1827 1.0018.0492.2538.1222.5024.218.7425.0539.1405.0991.2841.1355.4302 0 .106-.0824.1591-.2533.1591-.2402.0012-.4791-.0367-.7072-.112-.4188-.1324-.7762-.4105-1.0077-.7838-.1016-.1605-.1567-.3462-.1591-.5362.0048-.1499.0367-.2976.0943-.4361.0354-.0783.0573-.162.0648-.2475-.0081-.1206-.0577-.2346-.1404-.3227-.0828-.0881-.1935-.1448-.3133-.1605-.1134-.0057-.2266.0118-.333.0513s-.2037.1002-.2858.1785c-.1475.188-.2629.3991-.3418.6246-.1577.3978-.1785.8368-.0589 1.2476.1195.4108.3725.7702.7189 1.0212.4196.316.8872.5627 1.3848.7308.4957.1768 1.0177.2684 1.544.271.3656.0214.7287-.0734 1.0371-.271.1194-.0801.2166-.1892.2826-.3169.0659-.1278.0985-.2701.0946-.4139-.0058-.141-.0256-.2812-.0589-.4184-.0429-.2137-.1-.4244-.171-.6305-.0412-.1827-.0942-.4066-.1473-.6836-.053-.277-.1002-.5539-.1473-.8544-.0471-.3006-.0825-.5893-.106-.884-.0236-.2946-.0295-.5598-.0295-.7896-.0014-.388.0202-.7756.0648-1.1609.0471-.3948.1061-.7543.1709-1.0843.0557-.2721.1366-.5384.2416-.7955.0783-.2385.2211-.4506.4125-.6129.0862-.0194.1756-.02.2621-.0016.0864.0183.1678.055.2388.1077.1991.134.3532.325.4419.548.094.1944.1386.409.1297.6247-.0054.1492-.0352.2965-.0884.4361-.0393.0771-.0634.1611-.0707.2474-.0015.1291.0471.2537.1355.3477.0857.0822.1995.1285.3182.1297.1105.0135.2226-.0004.3264-.0405s.1961-.1051.2688-.1894c.1432-.1833.22-.4097.218-.6423.0365-.3113.0165-.6268-.0589-.9311zm11.8741 2.6872c.0236-.0472.0472-.1061.0707-.1532.1415-.2711.7956-1.4674.7956-1.4732-.3359.3889-3.6831 4.561-3.9659 4.9205-.2829.3594-.7543.9723-1.0784 1.4143-.1841.2617-.4261.4775-.7072.6305-.1407.0634-.294.0937-.4483.0886-.1542-.0051-.3053-.0455-.4415-.118-.104-.0871-.1855-.1978-.2378-.3229s-.0739-.2609-.0627-.3961c.0678-.4679.2007-.9242.3948-1.3553.2593-.6777 2.4337-4.9972 2.5575-5.2565-.7189.7602-2.3159 2.6636-2.8403 3.2588-.5245.5952-.996 1.2257-1.3554 1.703-.311.4336-.5944.8863-.8486 1.3554-.2121.3654-.3771.7484-.4714.9311-.0703.1179-.1682.217-.2852.2888-.117.0719-.2496.1142-.3866.1236-.1159.0042-.2309-.0205-.3349-.0719-.1039-.0515-.1934-.128-.2603-.2227-.09-.1011-.1537-.2228-.1855-.3543-.0319-.1315-.0309-.2689.0029-.4.007-.1729.047-.343.1178-.5009.0884-.2121.2299-.5068.4243-.8839.0943-.1827.3771-.7956.4714-1.0313s.224-.5303.3831-.9251c.165-.3831 1.3377-3.1527 1.4791-3.518.1414-.3654.4479-1.3377.5245-1.4733.0378-.0618.0918-.1122.1562-.1454.0644-.0333.1368-.0482.2091-.0432.1284.0047.2545.0348.3713.0884.1956.125.3542.3.4596.5068.1304.1882.2077.4081.224.6365-.0588.3391-.1744.6657-.3419.9664-.2298.4832-1.0607 1.9152-1.1491 2.1155.884-.9782 1.5204-1.6854 2.0743-2.2688.5422-.5716.9782-.9015 1.2905-1.2021.2035-.2203.4286-.4197.6718-.5951.1044-.0737.2264-.1184.3536-.1297.1286.0044.2543.0399.3661.1035.1119.0637.2067.1536.2762.2619.3477.3477.1179 1.0665.0943 1.208-.063.2026-.1377.4013-.2239.5952-.112.2651-.2829.6364-.5127 1.0901l-1.2434 2.3867c.4125-.4243 1.4496-1.7148 1.8209-2.1097.3712-.4066.5599-.6718.8663-1.0136s.5716-.5951.7955-.8603.383-.4302.4891-.5716c.218-.2711.383-.3772.5304-.5481.1169-.1397.2408-.2734.3712-.4006.0767-.078.1664-.1418.2652-.1887.0687-.0302.1429-.0462.218-.0471.1093.0074.215.0427.3068.1025.0918.0599.1668.1422.2177.2393.121.1725.2255.356.3123.548.0332.0948.0511.1943.053.2947-.0012.1251-.0251.2489-.0707.3653-.0905.2272-.1968.4477-.3181.66-.0884.1709-.171.3241-.2476.4773s-.1532.3124-.2298.4715-.1591.33-.2416.5186c-.0825.1885-.3064.6717-.548 1.3023-.2416.6305-.7484 2.1685.0884 3.3942.825 1.214-.4891 1.5204-1.267.8133-.7779-.7072-.9547-2.6813.2003-5.28zm.0531-25.2804c-1.1599-1.612-2.0129-3.4238-2.5163-5.3448h-6.1816c.0059.0295.0236.0943.0236.0943.7489 3.3585 2.3734 6.459 4.7084 8.9866-2.658 2.7795-4.4991 6.2374-5.3213 9.9943h6.0226c.6829-2.0747 1.7952-3.9822 3.2646-5.5982 1.4693 1.616 2.5817 3.5235 3.2646 5.5982h6.0343c-.8222-3.7569-2.6633-7.2148-5.3213-9.9943 2.355-2.5536 3.9882-5.6877 4.732-9.0809h-6.1934c-.5034 1.921-1.3564 3.7328-2.5162 5.3448zm-13.4416-1.0489c-.0236 0-.0531.0059-.0766.0059-.1238.0059-.2534.0118-.3831.0118-.1296 0-.2593-.0059-.383-.0118-.0236 0-.0531-.0059-.0766-.0059-.939-.0788-1.8401-.4062-2.6105-.9488v15.7281h6.1403v-15.7281c-.7705.5426-1.6715.87-2.6105.9488zm-8.9689-4.6848c-2.4658.0113-4.9051.51-7.1776 1.4673v17.9968h6.1404v-13.9602c.64-.2551 1.3272-.3697 2.0153-.3359.6213-.0358 1.2421.0794 1.8092.3359l.8839-5.0973c-.1178-.0413-.2475-.0766-.3889-.112-1.0801-.2176-2.1808-.3164-3.2823-.2946zm-18.70402 0c-2.7344.0307-5.44171.5454-7.99658 1.5203v24.308h6.23462v-6.2817c.82282.2362 1.67888.3358 2.53395.2947 5.57463 0 9.31653-3.9542 9.31653-10.0533 0-6.1639-3.96-9.788-10.08852-9.788zm-.18854 14.7439c-.53639.0175-1.07101-.0706-1.57342-.2593v-9.128c.45778-.1092.92605-.1685 1.3966-.1768 2.93468 0 4.10738 1.7678 4.10738 4.7967 0 3.2117-1.1727 4.7674-3.93056 4.7674zm38.78676-16.5707v-13.7481c.72-.2498 1.4772-.3754 2.2393-.3712 1.762 0 2.7873.8898 2.7873 3.2528v10.8665h6.2405v-11.3143c0-5.2388-3.3765-7.973-8.9571-7.973-2.9137.01439-5.8035.52655-8.5446 1.51443v17.77287zm-11.385-4.1663c.7514.0011 1.4941.1597 2.1804.4656.9769-1.7223 1.4678-3.6776 1.4201-5.6572 0-5.9812-3.7537-9.9294-9.7291-9.9294-5.9753 0-9.7762 3.9482-9.7762 9.9294 0 6.0225 3.795 9.9766 9.7762 9.9766.2358 0 .4597-.0058.6895-.0176.039-.0069.0783-.0108.1179-.0118.1464-1.3085.7702-2.5171 1.752-3.3945.9817-.8774 2.2525-1.362 3.5692-1.3611zm-9.405-5.1916c0-2.9935 1.2434-4.7555 3.2764-4.7555 2.0331 0 3.2293 1.762 3.2293 4.7555 0 3.029-1.2021 4.8027-3.2293 4.8027-2.0271 0-3.2764-1.7737-3.2764-4.8027zm-17.51358-9.9294c-.68733-.01168-1.37461.0257-2.0566.11193v-6.847502h-6.23462v25.239072c1.86804 1.0313 5.13268 1.4025 8.03197 1.4025 6.12853 0 10.05313-3.8834 10.05313-10.1534 0-6.0578-3.9246-9.7526-9.79388-9.7526zm-.5539 14.7321c-.51036.0179-1.0197-.058-1.5027-.2239v-9.1516c.49351-.1111.99696-.1723 1.5027-.1827 2.93468 0 4.00128 1.7619 4.00128 4.7909 0 2.9935-1.1727 4.7673-4.00128 4.7673z" fill="#d21929"/></svg>